<?xml version="1.0" encoding="utf-8" standalone="no"?>
<!DOCTYPE svg PUBLIC "-//W3C//DTD SVG 1.1//EN"
  "http://www.w3.org/Graphics/SVG/1.1/DTD/svg11.dtd">
<svg height="345.6pt" version="1.1" viewBox="0 0 460.8 345.6" width="460.8pt" xmlns="http://www.w3.org/2000/svg" xmlns:xlink="http://www.w3.org/1999/xlink">
 <metadata>
  <rdf:RDF xmlns:cc="http://creativecommons.org/ns#" xmlns:dc="http://purl.org/dc/elements/1.1/" xmlns:rdf="http://www.w3.org/1999/02/22-rdf-syntax-ns#">
   <cc:Work>
    <dc:type rdf:resource="http://purl.org/dc/dcmitype/StillImage"/>
    <dc:date>2021-07-22T19:44:32.471695</dc:date>
    <dc:format>image/svg+xml</dc:format>
    <dc:creator>
     <cc:Agent>
      <dc:title>Matplotlib v3.4.2, https://matplotlib.org/</dc:title>
     </cc:Agent>
    </dc:creator>
   </cc:Work>
  </rdf:RDF>
 </metadata>
 <defs>
  <style type="text/css">*{stroke-linecap:butt;stroke-linejoin:round;}</style>
 </defs>
 <g id="figure_1">
  <g id="patch_1">
   <path d="M 0 345.6 
L 460.8 345.6 
L 460.8 0 
L 0 0 
z
" style="fill:#ffffff;"/>
  </g>
  <g id="axes_1">
   <g id="patch_2">
    <path d="M 57.6 307.584 
L 414.72 307.584 
L 414.72 41.472 
L 57.6 41.472 
z
" style="fill:#ffffff;"/>
   </g>
   <g id="PolyCollection_1">
    <path clip-path="url(#pd97439668f)" d="M 58.0464 303.288952 
L 58.0464 305.045957 
L 58.4928 304.296186 
L 58.9392 306.655934 
L 59.3856 306.26608 
L 59.832 305.667994 
L 60.2784 305.896185 
L 60.7248 306.97926 
L 61.1712 305.922131 
L 61.6176 305.888201 
L 62.064 304.931529 
L 62.5104 304.57893 
L 62.9568 304.482465 
L 63.4032 305.672651 
L 63.8496 304.447205 
L 64.296 304.889616 
L 64.7424 304.602215 
L 65.1888 305.047953 
L 65.6352 305.950072 
L 66.0816 305.963378 
L 66.528 305.773108 
L 66.9744 306.701173 
L 67.4208 304.830406 
L 67.8672 305.773108 
L 68.3136 304.087288 
L 68.76 304.965458 
L 69.2064 305.532276 
L 69.6528 303.349493 
L 70.0992 305.357308 
L 70.5456 304.574939 
L 70.992 305.153067 
L 71.4384 303.241717 
L 71.8848 305.3613 
L 72.3312 304.194398 
L 72.7776 304.240303 
L 73.224 304.910905 
L 73.6704 305.334688 
L 74.1168 303.684794 
L 74.5632 305.045957 
L 75.0096 304.06733 
L 75.456 303.866415 
L 75.9024 304.332777 
L 76.3488 303.527788 
L 76.7952 302.715481 
L 77.2416 304.250282 
L 77.688 297.173699 
L 78.1344 304.900926 
L 78.5808 304.93552 
L 79.0272 304.225667 
L 79.4736 304.116561 
L 79.92 304.902256 
L 80.3664 304.294856 
L 80.8128 304.674065 
L 81.2592 304.186415 
L 81.7056 304.349409 
L 82.152 304.101259 
L 82.5984 303.609617 
L 83.0448 305.799054 
L 83.4912 302.578433 
L 83.9376 304.141841 
L 84.384 297.934779 
L 84.8304 304.249617 
L 85.2768 304.030074 
L 85.7232 305.29211 
L 86.1696 301.623091 
L 86.616 304.455188 
L 87.0624 303.88837 
L 87.5088 303.910324 
L 87.9552 304.260261 
L 88.4016 295.761309 
L 88.848 303.968868 
L 89.2944 304.652776 
L 89.7408 303.319555 
L 90.1872 302.122716 
L 90.6336 304.225667 
L 91.08 303.255688 
L 91.5264 303.469908 
L 91.9728 300.95382 
L 92.4192 303.376769 
L 92.8656 304.266249 
L 93.312 303.808536 
L 93.7584 303.539098 
L 94.2048 297.463761 
L 94.6512 304.238307 
L 95.0976 304.256935 
L 95.544 304.159139 
L 95.9904 304.239637 
L 96.4368 304.062673 
L 96.8832 304.298847 
L 97.3296 303.075397 
L 97.776 303.678806 
L 98.2224 294.819273 
L 98.6688 294.330957 
L 99.1152 304.131197 
L 99.5616 298.92272 
L 100.008 304.025417 
L 100.4544 297.079894 
L 100.9008 300.582593 
L 101.3472 300.834069 
L 101.7936 304.199055 
L 102.24 294.054201 
L 102.6864 296.573616 
L 103.1328 296.193076 
L 103.5792 302.886458 
L 104.0256 299.393738 
L 104.472 300.156814 
L 104.9184 303.983505 
L 105.3648 304.302174 
L 105.8112 294.654283 
L 106.2576 301.787415 
L 106.704 294.436737 
L 107.1504 290.719152 
L 107.5968 302.662259 
L 108.0432 302.003631 
L 108.4896 304.162465 
L 108.936 300.207375 
L 109.3824 303.35415 
L 109.8288 300.363051 
L 110.2752 302.196563 
L 110.7216 304.266914 
L 111.168 301.10883 
L 111.6144 303.002217 
L 112.0608 294.25445 
L 112.5072 301.32438 
L 112.9536 303.96155 
L 113.4 293.836654 
L 113.8464 299.986502 
L 114.2928 301.478725 
L 114.7392 293.366301 
L 115.1856 294.120063 
L 115.632 295.577692 
L 116.0784 301.564547 
L 116.5248 303.65153 
L 116.9712 301.020348 
L 117.4176 293.029669 
L 117.864 302.955647 
L 118.3104 296.089292 
L 118.7568 301.838642 
L 119.2032 304.199721 
L 119.6496 300.678394 
L 120.096 304.171779 
L 120.5424 304.290864 
L 120.9888 304.014108 
L 121.4352 300.36172 
L 121.8816 303.898349 
L 122.328 295.513825 
L 122.7744 297.840974 
L 123.2208 293.557236 
L 123.6672 295.12131 
L 124.1136 304.171114 
L 124.56 304.159139 
L 125.0064 295.131289 
L 125.4528 298.564799 
L 125.8992 302.159972 
L 126.3456 304.193068 
L 126.792 302.625003 
L 127.2384 297.939436 
L 127.6848 293.094202 
L 128.1312 292.046386 
L 128.5776 304.225667 
L 129.024 296.620851 
L 129.4704 293.494035 
L 129.9168 292.670418 
L 130.3632 290.76306 
L 130.8096 304.209035 
L 131.256 295.956901 
L 131.7024 296.394656 
L 132.1488 296.240976 
L 132.5952 294.238483 
L 133.0416 302.287706 
L 133.488 303.080054 
L 133.9344 292.763557 
L 134.3808 293.735532 
L 134.8272 294.287714 
L 135.2736 293.907174 
L 135.72 302.436729 
L 136.1664 302.619681 
L 136.6128 301.617104 
L 137.0592 296.592909 
L 137.5056 304.096602 
L 137.952 301.734193 
L 138.3984 294.416778 
L 138.8448 301.426834 
L 139.2912 293.869253 
L 139.7376 304.196394 
L 140.184 301.748164 
L 140.6304 293.143432 
L 141.0768 298.798978 
L 141.5232 294.579107 
L 141.9696 293.374284 
L 142.416 291.641895 
L 142.8624 292.772871 
L 143.3088 301.519973 
L 143.7552 304.200386 
L 144.2016 299.777604 
L 144.648 294.708171 
L 145.0944 295.247048 
L 145.5408 302.123382 
L 145.9872 299.047792 
L 146.4336 303.773276 
L 146.88 303.156562 
L 147.3264 294.824595 
L 147.7728 293.037653 
L 148.2192 300.107583 
L 148.6656 301.509994 
L 149.112 292.338444 
L 149.5584 287.434665 
L 150.0048 303.901675 
L 150.4512 302.892445 
L 150.8976 299.971201 
L 151.344 292.754909 
L 151.7904 301.637062 
L 152.2368 297.287461 
L 152.6832 293.482725 
L 153.1296 302.706832 
L 153.576 293.987673 
L 154.0224 304.171779 
L 154.4688 295.916319 
L 154.9152 294.203889 
L 155.3616 295.098025 
L 155.808 292.74493 
L 156.2544 292.859358 
L 156.7008 294.963638 
L 157.1472 304.171779 
L 157.5936 295.841143 
L 158.04 293.30443 
L 158.4864 299.912656 
L 158.9328 304.200386 
L 159.3792 292.571957 
L 159.8256 290.520233 
L 160.272 296.050706 
L 160.7184 297.087877 
L 161.1648 295.07341 
L 161.6112 301.713569 
L 162.0576 302.032238 
L 162.504 303.805875 
L 162.9504 293.667673 
L 163.3968 289.84697 
L 163.8432 304.159804 
L 164.2896 304.155147 
L 164.736 301.328372 
L 165.1824 302.233153 
L 165.6288 301.789411 
L 166.0752 301.243882 
L 166.5216 296.748585 
L 166.968 304.191072 
L 167.4144 301.94176 
L 167.8608 302.990242 
L 168.3072 304.066665 
L 168.7536 295.604968 
L 169.2 296.864343 
L 169.6464 292.002477 
L 170.0928 292.501437 
L 170.5392 298.227502 
L 170.9856 295.773949 
L 171.432 295.681476 
L 171.8784 292.978443 
L 172.3248 293.73154 
L 172.7712 304.279554 
L 173.2176 303.849118 
L 173.664 302.019598 
L 174.1104 297.834987 
L 174.5568 298.480308 
L 175.0032 291.373788 
L 175.4496 293.95707 
L 175.896 297.956068 
L 176.3424 296.557649 
L 176.7888 303.044129 
L 177.2352 296.20372 
L 177.6816 304.249617 
L 178.128 303.831821 
L 178.5744 302.621011 
L 179.0208 303.932943 
L 179.4672 301.889868 
L 179.9136 294.964304 
L 180.36 304.200386 
L 180.8064 296.001475 
L 181.2528 295.720727 
L 181.6992 304.09128 
L 182.1456 303.809867 
L 182.592 303.829825 
L 183.0384 303.656852 
L 183.4848 299.057772 
L 183.9312 303.230408 
L 184.3776 299.832823 
L 184.824 302.634317 
L 185.2704 303.919638 
L 185.7168 294.689543 
L 186.1632 293.10152 
L 186.6096 293.885885 
L 187.056 301.767457 
L 187.5024 296.593574 
L 187.9488 302.016937 
L 188.3952 295.616943 
L 188.8416 302.418101 
L 189.288 302.560471 
L 189.7344 303.207123 
L 190.1808 302.965626 
L 190.6272 302.875813 
L 191.0736 301.766792 
L 191.52 297.207628 
L 191.9664 304.224336 
L 192.4128 295.509833 
L 192.8592 290.453705 
L 193.3056 293.983681 
L 193.752 294.348254 
L 194.1984 297.669997 
L 194.6448 301.676979 
L 195.0912 300.634485 
L 195.5376 292.532705 
L 195.984 294.110749 
L 196.4304 291.47358 
L 196.8768 300.045712 
L 197.3232 302.28571 
L 197.7696 304.191737 
L 198.216 296.25029 
L 198.6624 300.612531 
L 199.1088 301.020348 
L 199.5552 299.676482 
L 200.0016 302.155315 
L 200.448 303.457933 
L 200.8944 302.177935 
L 201.3408 296.307504 
L 201.7872 304.182423 
L 202.2336 302.483964 
L 202.68 300.570618 
L 203.1264 303.807871 
L 203.5728 301.965045 
L 204.0192 303.845792 
L 204.4656 300.721637 
L 204.912 302.067498 
L 205.3584 304.21103 
L 205.8048 298.095111 
L 206.2512 303.512486 
L 206.6976 297.098522 
L 207.144 302.222508 
L 207.5904 302.400138 
L 208.0368 301.963715 
L 208.4832 301.752156 
L 208.9296 297.400559 
L 209.376 298.777689 
L 209.8224 292.850044 
L 210.2688 299.049788 
L 210.7152 291.806885 
L 211.1616 301.36962 
L 211.608 300.161471 
L 212.0544 299.64854 
L 212.5008 303.173859 
L 212.9472 304.516394 
L 213.3936 292.337778 
L 213.84 304.270906 
L 214.2864 303.111323 
L 214.7328 299.617272 
L 215.1792 304.213692 
L 215.6256 304.244294 
L 216.072 295.934947 
L 216.5184 304.131862 
L 216.9648 303.944253 
L 217.4112 292.961811 
L 217.8576 298.210205 
L 218.304 297.931452 
L 218.7504 293.116821 
L 219.1968 293.541935 
L 219.6432 292.711666 
L 220.0896 302.340928 
L 220.536 304.201051 
L 220.9824 299.318561 
L 221.4288 302.944337 
L 221.8752 294.305011 
L 222.3216 303.756644 
L 222.768 302.686874 
L 223.2144 303.090034 
L 223.6608 300.806793 
L 224.1072 302.493943 
L 224.5536 304.781175 
L 225 300.820098 
L 225.4464 303.822507 
L 225.8928 297.528958 
L 226.3392 300.703009 
L 226.7856 304.289533 
L 227.232 296.211704 
L 227.6784 293.086218 
L 228.1248 296.029417 
L 228.5712 296.448543 
L 229.0176 301.211948 
L 229.464 304.4013 
L 229.9104 297.037981 
L 230.3568 297.749831 
L 230.8032 301.69228 
L 231.2496 302.813942 
L 231.696 297.2848 
L 232.1424 301.171366 
L 232.5888 304.212361 
L 233.0352 299.846128 
L 233.4816 303.497185 
L 233.928 304.213692 
L 234.3744 300.396315 
L 234.8208 296.437234 
L 235.2672 298.333947 
L 235.7136 299.760972 
L 236.16 294.217194 
L 236.6064 302.626999 
L 237.0528 299.662511 
L 237.4992 304.301508 
L 237.9456 302.620346 
L 238.392 304.169118 
L 238.8384 303.998806 
L 239.2848 299.81353 
L 239.7312 297.189665 
L 240.1776 294.028255 
L 240.624 301.780097 
L 241.0704 293.678317 
L 241.5168 302.830574 
L 241.9632 302.163964 
L 242.4096 302.792653 
L 242.856 297.603469 
L 243.3024 294.911747 
L 243.7488 298.434404 
L 244.1952 297.979353 
L 244.6416 296.839728 
L 245.088 300.190078 
L 245.5344 304.147164 
L 245.9808 303.921634 
L 246.4272 301.209952 
L 246.8736 302.661593 
L 247.32 297.328044 
L 247.7664 296.771204 
L 248.2128 294.861851 
L 248.6592 303.81785 
L 249.1056 299.8275 
L 249.552 297.325382 
L 249.9984 298.960641 
L 250.4448 301.362967 
L 250.8912 303.759305 
L 251.3376 301.523964 
L 251.784 301.378268 
L 252.2304 298.635984 
L 252.6768 296.584926 
L 253.1232 295.176528 
L 253.5696 291.510835 
L 254.016 304.203047 
L 254.4624 304.014773 
L 254.9088 301.501345 
L 255.3552 294.263099 
L 255.8016 303.673484 
L 256.248 297.65137 
L 256.6944 304.196394 
L 257.1408 298.490953 
L 257.5872 304.242964 
L 258.0336 297.28347 
L 258.48 298.596067 
L 258.9264 294.486633 
L 259.3728 304.190407 
L 259.8192 303.481218 
L 260.2656 302.545169 
L 260.712 300.981096 
L 261.1584 301.94176 
L 261.6048 301.689619 
L 262.0512 298.377855 
L 262.4976 302.813277 
L 262.944 303.004878 
L 263.3904 301.921802 
L 263.8368 303.519139 
L 264.2832 303.359472 
L 264.7296 303.348828 
L 265.176 295.283638 
L 265.6224 304.135188 
L 266.0688 296.778522 
L 266.5152 297.778438 
L 266.9616 303.944918 
L 267.408 298.561473 
L 267.8544 298.446379 
L 268.3008 302.878475 
L 268.7472 297.946754 
L 269.1936 303.223755 
L 269.64 304.242299 
L 270.0864 303.549077 
L 270.5328 304.180428 
L 270.9792 304.218348 
L 271.4256 305.349324 
L 271.872 304.090615 
L 272.3184 303.206458 
L 272.7648 302.352238 
L 273.2112 298.033906 
L 273.6576 300.661762 
L 274.104 302.909077 
L 274.5504 301.82334 
L 274.9968 302.049536 
L 275.4432 301.392904 
L 275.8896 292.518734 
L 276.336 295.345509 
L 276.7824 294.603057 
L 277.2288 294.037569 
L 277.6752 302.937684 
L 278.1216 301.770118 
L 278.568 302.976936 
L 279.0144 299.192158 
L 279.4608 304.165126 
L 279.9072 301.75016 
L 280.3536 301.440139 
L 280.8 298.383843 
L 281.2464 296.586922 
L 281.6928 293.134784 
L 282.1392 300.645795 
L 282.5856 303.981509 
L 283.032 298.661265 
L 283.4784 299.902012 
L 283.9248 301.582509 
L 284.3712 297.066588 
L 284.8176 296.76056 
L 285.264 298.526213 
L 285.7104 300.460847 
L 286.1568 303.872403 
L 286.6032 304.182423 
L 287.0496 301.103508 
L 287.496 304.237642 
L 287.9424 299.432324 
L 288.3888 299.787584 
L 288.8352 299.808873 
L 289.2816 304.024087 
L 289.728 304.071987 
L 290.1744 300.068332 
L 290.6208 303.215106 
L 291.0672 304.230324 
L 291.5136 300.520722 
L 291.96 294.259772 
L 292.4064 302.757394 
L 292.8528 303.962216 
L 293.2992 303.446624 
L 293.7456 295.778606 
L 294.192 300.842052 
L 294.6384 300.563965 
L 295.0848 299.863426 
L 295.5312 298.616026 
L 295.9776 303.431988 
L 296.424 303.742008 
L 296.8704 301.712904 
L 297.3168 295.110665 
L 297.7632 303.976187 
L 298.2096 304.089284 
L 298.656 304.177101 
L 299.1024 302.21519 
L 299.5488 304.2097 
L 299.9952 304.203712 
L 300.4416 304.104586 
L 300.888 297.210289 
L 301.3344 304.190407 
L 301.7808 304.169783 
L 302.2272 301.254526 
L 302.6736 304.087954 
L 303.12 304.41128 
L 303.5664 298.872158 
L 304.0128 305.364626 
L 304.4592 300.152822 
L 304.9056 304.321467 
L 305.352 299.842137 
L 305.7984 304.228993 
L 306.2448 300.774859 
L 306.6912 304.27024 
L 307.1376 302.11806 
L 307.584 304.182423 
L 308.0304 303.893027 
L 308.4768 299.797563 
L 308.9232 303.295605 
L 309.3696 305.145084 
L 309.816 301.549245 
L 310.2624 302.508579 
L 310.7088 303.55706 
L 311.1552 303.688786 
L 311.6016 295.058108 
L 312.048 304.192403 
L 312.4944 297.883552 
L 312.9408 304.200386 
L 313.3872 303.259015 
L 313.8336 300.131533 
L 314.28 300.482801 
L 314.7264 301.144755 
L 315.1728 301.100846 
L 315.6192 299.468915 
L 316.0656 304.258931 
L 316.512 301.963049 
L 316.9584 301.819349 
L 317.4048 298.858188 
L 317.8512 294.2784 
L 318.2976 299.934611 
L 318.744 298.995235 
L 319.1904 304.223005 
L 319.6368 303.333526 
L 320.0832 301.96571 
L 320.5296 302.722799 
L 320.976 304.256935 
L 321.4224 303.510491 
L 321.8688 300.233987 
L 322.3152 302.169951 
L 322.7616 304.207039 
L 323.208 301.262509 
L 323.6544 300.031741 
L 324.1008 292.44888 
L 324.5472 304.282881 
L 324.9936 304.062008 
L 325.44 295.955571 
L 325.8864 301.436813 
L 326.3328 300.647125 
L 326.7792 299.388416 
L 327.2256 301.122801 
L 327.672 300.054361 
L 328.1184 304.171114 
L 328.5648 295.263014 
L 329.0112 303.46126 
L 329.4576 300.993071 
L 329.904 301.128788 
L 330.3504 303.970864 
L 330.7968 299.972532 
L 331.2432 304.177101 
L 331.6896 300.414943 
L 332.136 303.537102 
L 332.5824 303.832486 
L 333.0288 302.431406 
L 333.4752 300.144174 
L 333.9216 301.246543 
L 334.368 303.471239 
L 334.8144 300.549995 
L 335.2608 303.670823 
L 335.7072 305.36263 
L 336.1536 301.914484 
L 336.6 294.336279 
L 337.0464 300.400972 
L 337.4928 303.256354 
L 337.9392 304.230989 
L 338.3856 302.803298 
L 338.832 303.547081 
L 339.2784 302.94966 
L 339.7248 300.309828 
L 340.1712 300.744922 
L 340.6176 303.027497 
L 341.064 298.910079 
L 341.5104 300.392988 
L 341.9568 300.758227 
L 342.4032 301.064921 
L 342.8496 293.098193 
L 343.296 300.517396 
L 343.7424 301.816688 
L 344.1888 299.808873 
L 344.6352 299.265339 
L 345.0816 298.337273 
L 345.528 294.274408 
L 345.9744 303.348828 
L 346.4208 304.254939 
L 346.8672 304.024752 
L 347.3136 301.127458 
L 347.76 295.698773 
L 348.2064 304.19706 
L 348.6528 304.211696 
L 349.0992 297.538937 
L 349.5456 303.725376 
L 349.992 300.792822 
L 350.4384 304.372693 
L 350.8848 303.92496 
L 351.3312 301.291116 
L 351.7776 301.056938 
L 352.224 302.287041 
L 352.6704 303.632237 
L 353.1168 297.939436 
L 353.5632 301.209287 
L 354.0096 304.062008 
L 354.456 303.197809 
L 354.9024 299.07773 
L 355.3488 304.166457 
L 355.7952 304.228993 
L 356.2416 305.830987 
L 356.688 300.392988 
L 357.1344 304.603546 
L 357.5808 304.192403 
L 358.0272 301.52596 
L 358.4736 299.013863 
L 358.92 298.411119 
L 359.3664 296.163138 
L 359.8128 302.62966 
L 360.2592 304.22234 
L 360.7056 304.219679 
L 361.152 302.66625 
L 361.5984 298.844882 
L 362.0448 302.944337 
L 362.4912 300.21935 
L 362.9376 304.915562 
L 363.384 296.187754 
L 363.8304 304.10392 
L 364.2768 302.128704 
L 364.7232 293.740854 
L 365.1696 304.195729 
L 365.616 304.181758 
L 366.0624 302.785335 
L 366.5088 303.147248 
L 366.9552 300.71831 
L 367.4016 301.778101 
L 367.848 299.602636 
L 368.2944 304.342091 
L 368.7408 303.885708 
L 369.1872 296.627504 
L 369.6336 303.716727 
L 370.08 304.183089 
L 370.5264 302.497934 
L 370.9728 302.89045 
L 371.4192 304.799138 
L 371.8656 303.268329 
L 372.312 304.254939 
L 372.7584 302.601718 
L 373.2048 296.59557 
L 373.6512 302.801302 
L 374.0976 303.678806 
L 374.544 296.851038 
L 374.9904 303.777933 
L 375.4368 301.478725 
L 375.8832 303.220428 
L 376.3296 297.455112 
L 376.776 298.371868 
L 377.2224 303.577684 
L 377.6688 300.623175 
L 378.1152 303.674149 
L 378.5616 303.427996 
L 379.008 302.978932 
L 379.4544 301.969037 
L 379.9008 302.398808 
L 380.3472 304.159804 
L 380.7936 301.442135 
L 381.24 295.680145 
L 381.6864 296.375363 
L 382.1328 302.453361 
L 382.5792 303.900345 
L 383.0256 303.630241 
L 383.472 304.251612 
L 383.9184 303.104004 
L 384.3648 295.567713 
L 384.8112 299.676482 
L 385.2576 304.231654 
L 385.704 300.474818 
L 386.1504 302.511905 
L 386.5968 303.308245 
L 387.0432 302.62966 
L 387.4896 303.087372 
L 387.936 299.506836 
L 388.3824 302.111407 
L 388.8288 303.553068 
L 389.2752 301.927124 
L 389.7216 304.213692 
L 390.168 305.016019 
L 390.6144 303.517809 
L 391.0608 304.789824 
L 391.5072 304.181093 
L 391.9536 303.376769 
L 392.4 295.380104 
L 392.8464 304.10259 
L 393.2928 298.552824 
L 393.7392 295.63158 
L 394.1856 303.175189 
L 394.632 303.375439 
L 395.0784 298.828915 
L 395.5248 303.483214 
L 395.9712 302.917061 
L 396.4176 298.665256 
L 396.864 296.122556 
L 397.3104 298.948 
L 397.7568 303.112653 
L 398.2032 301.914484 
L 398.6496 298.671244 
L 399.096 303.382757 
L 399.5424 301.933777 
L 399.9888 295.776611 
L 400.4352 303.582341 
L 400.8816 304.05469 
L 401.328 295.463929 
L 401.7744 298.824258 
L 402.2208 304.266914 
L 402.6672 302.472654 
L 403.1136 304.737267 
L 403.56 304.906248 
L 404.0064 300.803466 
L 404.4528 298.620017 
L 404.8992 302.98758 
L 405.3456 304.131197 
L 405.792 300.094943 
L 406.2384 303.628245 
L 406.6848 298.655942 
L 407.1312 303.096021 
L 407.5776 301.249869 
L 408.024 300.798144 
L 408.4704 301.65702 
L 408.9168 304.158473 
L 409.3632 301.104838 
L 409.8096 303.501177 
L 410.256 300.390327 
L 410.7024 301.464089 
L 411.1488 301.704255 
L 411.5952 304.017434 
L 412.0416 297.194988 
L 412.488 303.635563 
L 412.9344 300.15881 
L 413.3808 302.238475 
L 413.8272 303.65286 
L 414.2736 303.286291 
L 414.72 303.91232 
L 414.72 294.377527 
L 414.72 294.377527 
L 414.2736 295.545758 
L 413.8272 295.086715 
L 413.3808 293.971041 
L 412.9344 291.602644 
L 412.488 291.266012 
L 412.0416 293.912496 
L 411.5952 292.930543 
L 411.1488 289.654039 
L 410.7024 291.65387 
L 410.256 291.100357 
L 409.8096 294.463348 
L 409.3632 294.902433 
L 408.9168 296.986755 
L 408.4704 294.837235 
L 408.024 292.585928 
L 407.5776 294.368878 
L 407.1312 293.228588 
L 406.6848 291.464931 
L 406.2384 293.837319 
L 405.792 291.197488 
L 405.3456 292.859358 
L 404.8992 295.167879 
L 404.4528 291.365139 
L 404.0064 291.49886 
L 403.56 294.058192 
L 403.1136 299.212116 
L 402.6672 295.583014 
L 402.2208 299.192158 
L 401.7744 290.336616 
L 401.328 292.15283 
L 400.8816 294.809959 
L 400.4352 294.23183 
L 399.9888 291.51017 
L 399.5424 294.18393 
L 399.096 294.517901 
L 398.6496 291.236075 
L 398.2032 293.009046 
L 397.7568 295.423347 
L 397.3104 293.531956 
L 396.864 291.015202 
L 396.4176 291.506844 
L 395.9712 293.454118 
L 395.5248 290.971293 
L 395.0784 292.599899 
L 394.632 294.823264 
L 394.1856 292.508755 
L 393.7392 292.683059 
L 393.2928 289.72722 
L 392.8464 290.64331 
L 392.4 290.784349 
L 391.9536 293.176696 
L 391.5072 295.625592 
L 391.0608 295.622931 
L 390.6144 295.250374 
L 390.168 297.199644 
L 389.7216 296.421267 
L 389.2752 297.136443 
L 388.8288 291.338528 
L 388.3824 292.628506 
L 387.936 292.419608 
L 387.4896 290.911418 
L 387.0432 293.872579 
L 386.5968 292.655782 
L 386.1504 293.432829 
L 385.704 292.210044 
L 385.2576 295.555072 
L 384.8112 291.744348 
L 384.3648 290.612042 
L 383.9184 294.4221 
L 383.472 298.194238 
L 383.0256 292.324473 
L 382.5792 292.926551 
L 382.1328 293.942434 
L 381.6864 293.042975 
L 381.24 292.428256 
L 380.7936 293.038983 
L 380.3472 295.149252 
L 379.9008 290.359236 
L 379.4544 291.803558 
L 379.008 292.690377 
L 378.5616 294.023598 
L 378.1152 293.075574 
L 377.6688 296.020768 
L 377.2224 295.085385 
L 376.776 292.431583 
L 376.3296 291.529463 
L 375.8832 291.892706 
L 375.4368 292.682393 
L 374.9904 292.478818 
L 374.544 293.860604 
L 374.0976 295.022848 
L 373.6512 293.31574 
L 373.2048 290.517572 
L 372.7584 294.077485 
L 372.312 299.265339 
L 371.8656 291.451625 
L 371.4192 301.023674 
L 370.9728 290.602063 
L 370.5264 293.989668 
L 370.08 291.705097 
L 369.6336 292.524057 
L 369.1872 293.388921 
L 368.7408 291.847467 
L 368.2944 294.691539 
L 367.848 290.899443 
L 367.4016 290.631335 
L 366.9552 293.063599 
L 366.5088 289.831003 
L 366.0624 295.108669 
L 365.616 295.029501 
L 365.1696 296.244302 
L 364.7232 291.913995 
L 364.2768 294.748753 
L 363.8304 294.499938 
L 363.384 290.210878 
L 362.9376 294.13603 
L 362.4912 292.675075 
L 362.0448 290.745763 
L 361.5984 289.428509 
L 361.152 293.361644 
L 360.7056 297.991328 
L 360.2592 301.961719 
L 359.8128 291.882727 
L 359.3664 291.365139 
L 358.92 293.117486 
L 358.4736 291.311916 
L 358.0272 293.384929 
L 357.5808 294.068172 
L 357.1344 296.934863 
L 356.688 292.002477 
L 356.2416 295.024179 
L 355.7952 294.769377 
L 355.3488 292.871998 
L 354.9024 290.459028 
L 354.456 290.948674 
L 354.0096 292.432248 
L 353.5632 291.782269 
L 353.1168 291.598652 
L 352.6704 292.997736 
L 352.224 294.072828 
L 351.7776 292.051708 
L 351.3312 293.261187 
L 350.8848 292.099608 
L 350.4384 294.209211 
L 349.992 293.533286 
L 349.5456 292.031749 
L 349.0992 292.991083 
L 348.6528 296.505757 
L 348.2064 292.705678 
L 347.76 292.50942 
L 347.3136 294.660936 
L 346.8672 293.917153 
L 346.4208 291.132956 
L 345.9744 293.629752 
L 345.528 291.409713 
L 345.0816 291.200815 
L 344.6352 290.561481 
L 344.1888 292.654452 
L 343.7424 290.586096 
L 343.296 292.041063 
L 342.8496 287.833167 
L 342.4032 291.371126 
L 341.9568 291.48755 
L 341.5104 294.994907 
L 341.064 290.387843 
L 340.6176 292.795491 
L 340.1712 292.246635 
L 339.7248 292.395658 
L 339.2784 293.818692 
L 338.832 291.546095 
L 338.3856 293.051624 
L 337.9392 295.936943 
L 337.4928 293.350334 
L 337.0464 291.437654 
L 336.6 290.667925 
L 336.1536 292.852705 
L 335.7072 292.089629 
L 335.2608 295.564386 
L 334.8144 292.396988 
L 334.368 293.692954 
L 333.9216 291.868091 
L 333.4752 292.315159 
L 333.0288 292.270585 
L 332.5824 292.611208 
L 332.136 294.142018 
L 331.6896 293.5426 
L 331.2432 293.258526 
L 330.7968 290.965306 
L 330.3504 291.815533 
L 329.904 289.788425 
L 329.4576 293.501353 
L 329.0112 292.751582 
L 328.5648 290.231502 
L 328.1184 292.291874 
L 327.672 290.696532 
L 327.2256 292.096947 
L 326.7792 292.542684 
L 326.3328 291.64123 
L 325.8864 291.857446 
L 325.44 293.061603 
L 324.9936 292.379691 
L 324.5472 300.563965 
L 324.1008 290.65462 
L 323.6544 289.347345 
L 323.208 291.327883 
L 322.7616 294.444055 
L 322.3152 291.671168 
L 321.8688 293.744845 
L 321.4224 293.448131 
L 320.976 296.025425 
L 320.5296 292.658443 
L 320.0832 294.195905 
L 319.6368 292.300523 
L 319.1904 291.264682 
L 318.744 293.955739 
L 318.2976 288.265599 
L 317.8512 291.557405 
L 317.4048 292.313828 
L 316.9584 288.35142 
L 316.512 294.43208 
L 316.0656 301.575856 
L 315.6192 291.488881 
L 315.1728 289.805057 
L 314.7264 292.004473 
L 314.28 292.484805 
L 313.8336 294.86052 
L 313.3872 296.95083 
L 312.9408 294.762724 
L 312.4944 293.292455 
L 312.048 295.488544 
L 311.6016 290.101772 
L 311.1552 290.139693 
L 310.7088 291.649879 
L 310.2624 292.552664 
L 309.816 290.322645 
L 309.3696 289.935452 
L 308.9232 292.225346 
L 308.4768 293.088214 
L 308.0304 297.991993 
L 307.584 293.645719 
L 307.1376 289.064601 
L 306.6912 291.234079 
L 306.2448 292.973121 
L 305.7984 294.981601 
L 305.352 291.993828 
L 304.9056 291.411043 
L 304.4592 290.960649 
L 304.0128 296.591579 
L 303.5664 288.775869 
L 303.12 291.588673 
L 302.6736 293.480064 
L 302.2272 293.092871 
L 301.7808 294.330957 
L 301.3344 289.862937 
L 300.888 291.096366 
L 300.4416 295.459272 
L 299.9952 294.795988 
L 299.5488 296.136527 
L 299.1024 291.735035 
L 298.656 292.476156 
L 298.2096 291.778278 
L 297.7632 293.551249 
L 297.3168 291.606636 
L 296.8704 293.38759 
L 296.424 294.418109 
L 295.9776 293.451457 
L 295.5312 293.460771 
L 295.0848 292.510086 
L 294.6384 290.325972 
L 294.192 291.60597 
L 293.7456 292.033745 
L 293.2992 292.013787 
L 292.8528 292.355741 
L 292.4064 291.954577 
L 291.96 289.590837 
L 291.5136 291.049796 
L 291.0672 289.876242 
L 290.6208 293.99366 
L 290.1744 291.836822 
L 289.728 294.207215 
L 289.2816 294.221851 
L 288.8352 291.588673 
L 288.3888 288.720651 
L 287.9424 292.533371 
L 287.496 296.312161 
L 287.0496 292.452872 
L 286.6032 295.054782 
L 286.1568 297.920143 
L 285.7104 290.486304 
L 285.264 288.161816 
L 284.8176 291.744348 
L 284.3712 292.82942 
L 283.9248 290.492292 
L 283.4784 288.899611 
L 283.032 291.334536 
L 282.5856 294.784013 
L 282.1392 293.404222 
L 281.6928 290.559485 
L 281.2464 289.266846 
L 280.8 290.648632 
L 280.3536 290.677905 
L 279.9072 292.633163 
L 279.4608 290.069173 
L 279.0144 292.531375 
L 278.568 292.466177 
L 278.1216 288.993416 
L 277.6752 293.804721 
L 277.2288 287.303604 
L 276.7824 289.538945 
L 276.336 291.504182 
L 275.8896 289.344684 
L 275.4432 296.279562 
L 274.9968 292.787508 
L 274.5504 288.449882 
L 274.104 287.393417 
L 273.6576 292.327799 
L 273.2112 292.866011 
L 272.7648 289.196991 
L 272.3184 291.158237 
L 271.872 291.6878 
L 271.4256 294.137361 
L 270.9792 293.489378 
L 270.5328 294.061519 
L 270.0864 293.963723 
L 269.64 293.343016 
L 269.1936 292.522061 
L 268.7472 292.096282 
L 268.3008 289.556908 
L 267.8544 291.040482 
L 267.408 292.296531 
L 266.9616 293.813369 
L 266.5152 292.488132 
L 266.0688 293.229253 
L 265.6224 297.871577 
L 265.176 290.622021 
L 264.7296 292.927882 
L 264.2832 292.251292 
L 263.8368 292.670418 
L 263.3904 294.251124 
L 262.944 292.221354 
L 262.4976 293.713577 
L 262.0512 291.679816 
L 261.6048 290.053872 
L 261.1584 291.790253 
L 260.712 294.060853 
L 260.2656 290.349922 
L 259.8192 291.578694 
L 259.3728 292.736946 
L 258.9264 289.355993 
L 258.48 291.208798 
L 258.0336 292.011126 
L 257.5872 294.198566 
L 257.1408 292.80414 
L 256.6944 291.196158 
L 256.248 292.567965 
L 255.8016 291.293289 
L 255.3552 290.295369 
L 254.9088 291.446303 
L 254.4624 291.898693 
L 254.016 292.011791 
L 253.5696 288.354747 
L 253.1232 291.704432 
L 252.6768 289.569548 
L 252.2304 292.459524 
L 251.784 291.041813 
L 251.3376 287.283646 
L 250.8912 289.171711 
L 250.4448 293.733536 
L 249.9984 287.235081 
L 249.552 291.79491 
L 249.1056 291.589338 
L 248.6592 293.45811 
L 248.2128 284.946517 
L 247.7664 290.186928 
L 247.32 288.953499 
L 246.8736 293.87524 
L 246.4272 290.215535 
L 245.9808 293.191998 
L 245.5344 292.855366 
L 245.088 292.133537 
L 244.6416 290.319984 
L 244.1952 290.696532 
L 243.7488 292.873994 
L 243.3024 288.923561 
L 242.856 290.462354 
L 242.4096 293.765469 
L 241.9632 291.77229 
L 241.5168 288.88564 
L 241.0704 290.459693 
L 240.624 292.034411 
L 240.1776 288.620194 
L 239.7312 290.878154 
L 239.2848 292.967798 
L 238.8384 291.220773 
L 238.392 290.886803 
L 237.9456 294.493285 
L 237.4992 290.519568 
L 237.0528 289.920151 
L 236.6064 293.565885 
L 236.16 290.053207 
L 235.7136 292.885969 
L 235.2672 292.434909 
L 234.8208 289.234912 
L 234.3744 292.416947 
L 233.928 288.863686 
L 233.4816 295.559064 
L 233.0352 288.614206 
L 232.5888 289.705265 
L 232.1424 289.665348 
L 231.696 290.779692 
L 231.2496 290.966636 
L 230.8032 290.047884 
L 230.3568 289.092542 
L 229.9104 291.999151 
L 229.464 293.608463 
L 229.0176 291.122977 
L 228.5712 292.192082 
L 228.1248 289.345349 
L 227.6784 289.610796 
L 227.232 292.073662 
L 226.7856 293.039649 
L 226.3392 289.06194 
L 225.8928 288.511088 
L 225.4464 289.688633 
L 225 291.81886 
L 224.5536 289.770463 
L 224.1072 290.856865 
L 223.6608 289.030006 
L 223.2144 293.998982 
L 222.768 287.726723 
L 222.3216 291.606636 
L 221.8752 290.119069 
L 221.4288 291.299941 
L 220.9824 291.773621 
L 220.536 291.21412 
L 220.0896 290.113747 
L 219.6432 290.801647 
L 219.1968 289.502355 
L 218.7504 290.375202 
L 218.304 289.294122 
L 217.8576 289.863602 
L 217.4112 289.373291 
L 216.9648 299.544091 
L 216.5184 290.423768 
L 216.072 290.126388 
L 215.6256 290.228175 
L 215.1792 288.997407 
L 214.7328 289.637407 
L 214.2864 297.886213 
L 213.84 289.886221 
L 213.3936 290.502936 
L 212.9472 293.842642 
L 212.5008 288.245641 
L 212.0544 292.122228 
L 211.608 289.008717 
L 211.1616 289.206971 
L 210.7152 287.053459 
L 210.2688 287.092045 
L 209.8224 282.554836 
L 209.376 291.517488 
L 208.9296 289.618779 
L 208.4832 288.270922 
L 208.0368 289.322729 
L 207.5904 290.713164 
L 207.144 286.62768 
L 206.6976 290.069839 
L 206.2512 289.767802 
L 205.8048 288.785183 
L 205.3584 294.57445 
L 204.912 288.36273 
L 204.4656 291.329879 
L 204.0192 288.672085 
L 203.5728 292.058361 
L 203.1264 291.731708 
L 202.68 292.653121 
L 202.2336 291.993163 
L 201.7872 297.122472 
L 201.3408 291.839484 
L 200.8944 288.733291 
L 200.448 292.111583 
L 200.0016 289.64539 
L 199.5552 288.238988 
L 199.1088 288.169134 
L 198.6624 289.898196 
L 198.216 291.46227 
L 197.7696 290.1204 
L 197.3232 290.103103 
L 196.8768 281.669348 
L 196.4304 284.031757 
L 195.984 287.667513 
L 195.5376 288.366057 
L 195.0912 290.959318 
L 194.6448 290.656616 
L 194.1984 287.692128 
L 193.752 268.832771 
L 193.3056 289.018031 
L 192.8592 288.476493 
L 192.4128 288.490464 
L 191.9664 288.62352 
L 191.52 290.308674 
L 191.0736 289.505016 
L 190.6272 285.947099 
L 190.1808 285.571881 
L 189.7344 290.188924 
L 189.288 286.763397 
L 188.8416 291.315908 
L 188.3952 288.538364 
L 187.9488 290.786345 
L 187.5024 289.899527 
L 187.056 290.421107 
L 186.6096 289.10984 
L 186.1632 290.208882 
L 185.7168 289.331378 
L 185.2704 289.08722 
L 184.824 282.875501 
L 184.3776 290.721148 
L 183.9312 288.990755 
L 183.4848 289.748508 
L 183.0384 291.39175 
L 182.592 288.700692 
L 182.1456 291.6878 
L 181.6992 290.685223 
L 181.2528 281.884899 
L 180.8064 287.895038 
L 180.36 291.16489 
L 179.9136 287.25637 
L 179.4672 292.130876 
L 179.0208 290.041897 
L 178.5744 288.648135 
L 178.128 289.77512 
L 177.6816 290.204225 
L 177.2352 289.212293 
L 176.7888 288.216369 
L 176.3424 282.353921 
L 175.896 280.690056 
L 175.4496 287.769966 
L 175.0032 276.923241 
L 174.5568 289.151752 
L 174.1104 281.999992 
L 173.664 290.622686 
L 173.2176 290.637988 
L 172.7712 290.132375 
L 172.3248 288.066015 
L 171.8784 289.151087 
L 171.432 289.864267 
L 170.9856 289.091877 
L 170.5392 288.077325 
L 170.0928 281.352675 
L 169.6464 286.55716 
L 169.2 286.417452 
L 168.7536 288.984102 
L 168.3072 289.875577 
L 167.8608 287.640901 
L 167.4144 290.721813 
L 166.968 292.256614 
L 166.5216 290.551501 
L 166.0752 284.80947 
L 165.6288 286.911755 
L 165.1824 289.74119 
L 164.736 289.63408 
L 164.2896 289.852957 
L 163.8432 289.890878 
L 163.3968 287.191837 
L 162.9504 289.344018 
L 162.504 287.058116 
L 162.0576 289.193 
L 161.6112 290.449714 
L 161.1648 287.076744 
L 160.7184 286.451381 
L 160.272 283.969886 
L 159.8256 287.151921 
L 159.3792 270.202582 
L 158.9328 276.789519 
L 158.4864 280.016793 
L 158.04 285.816038 
L 157.5936 289.173707 
L 157.1472 288.024768 
L 156.7008 287.661525 
L 156.2544 287.197825 
L 155.808 285.57055 
L 155.3616 286.368886 
L 154.9152 289.363977 
L 154.4688 290.574121 
L 154.0224 289.972708 
L 153.576 288.610214 
L 153.1296 289.970712 
L 152.6832 288.987428 
L 152.2368 289.227594 
L 151.7904 286.551173 
L 151.344 288.110589 
L 150.8976 289.39458 
L 150.4512 289.654704 
L 150.0048 287.111339 
L 149.5584 281.099868 
L 149.112 284.969137 
L 148.6656 287.883729 
L 148.2192 283.90735 
L 147.7728 285.894541 
L 147.3264 287.990839 
L 146.88 286.893792 
L 146.4336 284.588597 
L 145.9872 283.25471 
L 145.5408 289.302106 
L 145.0944 286.250466 
L 144.648 289.524309 
L 144.2016 288.300859 
L 143.7552 283.696456 
L 143.3088 283.203484 
L 142.8624 275.649229 
L 142.416 283.751009 
L 141.9696 285.471423 
L 141.5232 284.75026 
L 141.0768 290.057864 
L 140.6304 282.291385 
L 140.184 289.679319 
L 139.7376 284.969137 
L 139.2912 287.035497 
L 138.8448 287.913001 
L 138.3984 286.522566 
L 137.952 285.764812 
L 137.5056 282.750428 
L 137.0592 288.00481 
L 136.6128 289.697282 
L 136.1664 290.482312 
L 135.72 288.996742 
L 135.2736 286.570466 
L 134.8272 282.013963 
L 134.3808 288.61088 
L 133.9344 287.873749 
L 133.488 279.966231 
L 133.0416 291.029172 
L 132.5952 284.921902 
L 132.1488 288.225683 
L 131.7024 285.058284 
L 131.256 287.744685 
L 130.8096 287.086723 
L 130.3632 288.766555 
L 129.9168 287.141941 
L 129.4704 286.184604 
L 129.024 288.312169 
L 128.5776 287.551089 
L 128.1312 283.053131 
L 127.6848 283.198827 
L 127.2384 290.071835 
L 126.792 285.989676 
L 126.3456 291.232083 
L 125.8992 286.499281 
L 125.4528 284.373711 
L 125.0064 284.593919 
L 124.56 290.521564 
L 124.1136 288.38668 
L 123.6672 283.520157 
L 123.2208 286.684229 
L 122.7744 280.745274 
L 122.328 288.027429 
L 121.8816 290.621356 
L 121.4352 289.503685 
L 120.9888 288.704019 
L 120.5424 291.942602 
L 120.096 291.186179 
L 119.6496 290.031918 
L 119.2032 284.303192 
L 118.7568 284.464855 
L 118.3104 286.466682 
L 117.864 281.125149 
L 117.4176 288.648135 
L 116.9712 285.03633 
L 116.5248 291.109671 
L 116.0784 288.899611 
L 115.632 288.577616 
L 115.1856 284.698368 
L 114.7392 287.919654 
L 114.2928 288.176452 
L 113.8464 288.460526 
L 113.4 282.087809 
L 112.9536 285.488721 
L 112.5072 283.927308 
L 112.0608 290.531543 
L 111.6144 289.748508 
L 111.168 288.022772 
L 110.7216 291.848132 
L 110.2752 289.702604 
L 109.8288 287.918988 
L 109.3824 289.244892 
L 108.936 286.71084 
L 108.4896 291.840814 
L 108.0432 289.397906 
L 107.5968 290.054537 
L 107.1504 276.716339 
L 106.704 283.243401 
L 106.2576 287.326889 
L 105.8112 288.272917 
L 105.3648 294.038899 
L 104.9184 287.48323 
L 104.472 287.263022 
L 104.0256 288.716659 
L 103.5792 289.745847 
L 103.1328 289.477074 
L 102.6864 289.273499 
L 102.24 287.583687 
L 101.7936 289.492376 
L 101.3472 287.296286 
L 100.9008 286.122067 
L 100.4544 290.454371 
L 100.008 289.622105 
L 99.5616 288.89695 
L 99.1152 289.272833 
L 98.6688 282.708516 
L 98.2224 283.662527 
L 97.776 288.565641 
L 97.3296 290.946012 
L 96.8832 288.886971 
L 96.4368 292.849379 
L 95.9904 290.4883 
L 95.544 292.410294 
L 95.0976 295.876403 
L 94.6512 291.232748 
L 94.2048 289.410546 
L 93.7584 290.4883 
L 93.312 288.449217 
L 92.8656 288.70668 
L 92.4192 290.371211 
L 91.9728 286.226516 
L 91.5264 286.257119 
L 91.08 290.194246 
L 90.6336 294.76605 
L 90.1872 285.169386 
L 89.7408 288.46851 
L 89.2944 289.747178 
L 88.848 283.828182 
L 88.4016 284.764896 
L 87.9552 293.106177 
L 87.5088 292.866011 
L 87.0624 287.944269 
L 86.616 288.56431 
L 86.1696 289.315411 
L 85.7232 292.514743 
L 85.2768 291.607301 
L 84.8304 288.848385 
L 84.384 290.126388 
L 83.9376 289.453124 
L 83.4912 293.206634 
L 83.0448 292.333787 
L 82.5984 293.023017 
L 82.152 290.294038 
L 81.7056 288.546348 
L 81.2592 295.433991 
L 80.8128 294.133369 
L 80.3664 295.386091 
L 79.92 290.66726 
L 79.4736 290.481647 
L 79.0272 296.32214 
L 78.5808 292.146178 
L 78.1344 299.962552 
L 77.688 289.262854 
L 77.2416 295.867754 
L 76.7952 293.060938 
L 76.3488 292.528714 
L 75.9024 294.390832 
L 75.456 293.62576 
L 75.0096 291.275326 
L 74.5632 291.743683 
L 74.1168 293.793411 
L 73.6704 304.389325 
L 73.224 303.018849 
L 72.7776 296.969458 
L 72.3312 292.124889 
L 71.8848 291.904681 
L 71.4384 288.871004 
L 70.992 294.885801 
L 70.5456 288.27957 
L 70.0992 291.74834 
L 69.6528 294.108754 
L 69.2064 295.638232 
L 68.76 293.376946 
L 68.3136 293.127466 
L 67.8672 300.904589 
L 67.4208 296.517732 
L 66.9744 301.494692 
L 66.528 303.14126 
L 66.0816 302.572446 
L 65.6352 291.330544 
L 65.1888 294.546508 
L 64.7424 293.738858 
L 64.296 294.26576 
L 63.8496 295.660187 
L 63.4032 301.264505 
L 62.9568 295.947588 
L 62.5104 292.583932 
L 62.064 292.794826 
L 61.6176 300.695026 
L 61.1712 294.68156 
L 60.7248 303.876395 
L 60.2784 303.120636 
L 59.832 292.478152 
L 59.3856 291.906012 
L 58.9392 302.02492 
L 58.4928 301.668996 
L 58.0464 303.288952 
z
" style="fill:#1f77b4;fill-opacity:0.25;"/>
   </g>
   <g id="matplotlib.axis_1">
    <g id="xtick_1">
     <g id="line2d_1">
      <defs>
       <path d="M 0 0 
L 0 4.8 
" id="m250c1c98a8" style="stroke:#000000;"/>
      </defs>
      <g>
       <use style="stroke:#000000;" x="57.6" xlink:href="#m250c1c98a8" y="307.584"/>
      </g>
     </g>
     <g id="text_1">
      <!-- 0 -->
      <g transform="translate(54.8005 322.570625)scale(0.088 -0.088)">
       <defs>
        <path d="M 2034 4250 
Q 1547 4250 1301 3770 
Q 1056 3291 1056 2328 
Q 1056 1369 1301 889 
Q 1547 409 2034 409 
Q 2525 409 2770 889 
Q 3016 1369 3016 2328 
Q 3016 3291 2770 3770 
Q 2525 4250 2034 4250 
z
M 2034 4750 
Q 2819 4750 3233 4129 
Q 3647 3509 3647 2328 
Q 3647 1150 3233 529 
Q 2819 -91 2034 -91 
Q 1250 -91 836 529 
Q 422 1150 422 2328 
Q 422 3509 836 4129 
Q 1250 4750 2034 4750 
z
" id="DejaVuSans-30" transform="scale(0.015625)"/>
       </defs>
       <use xlink:href="#DejaVuSans-30"/>
      </g>
     </g>
    </g>
    <g id="xtick_2">
     <g id="line2d_2">
      <g>
       <use style="stroke:#000000;" x="102.24" xlink:href="#m250c1c98a8" y="307.584"/>
      </g>
     </g>
     <g id="text_2">
      <!-- 100 -->
      <g transform="translate(93.8415 322.570625)scale(0.088 -0.088)">
       <defs>
        <path d="M 794 531 
L 1825 531 
L 1825 4091 
L 703 3866 
L 703 4441 
L 1819 4666 
L 2450 4666 
L 2450 531 
L 3481 531 
L 3481 0 
L 794 0 
L 794 531 
z
" id="DejaVuSans-31" transform="scale(0.015625)"/>
       </defs>
       <use xlink:href="#DejaVuSans-31"/>
       <use x="63.623047" xlink:href="#DejaVuSans-30"/>
       <use x="127.246094" xlink:href="#DejaVuSans-30"/>
      </g>
     </g>
    </g>
    <g id="xtick_3">
     <g id="line2d_3">
      <g>
       <use style="stroke:#000000;" x="146.88" xlink:href="#m250c1c98a8" y="307.584"/>
      </g>
     </g>
     <g id="text_3">
      <!-- 200 -->
      <g transform="translate(138.4815 322.570625)scale(0.088 -0.088)">
       <defs>
        <path d="M 1228 531 
L 3431 531 
L 3431 0 
L 469 0 
L 469 531 
Q 828 903 1448 1529 
Q 2069 2156 2228 2338 
Q 2531 2678 2651 2914 
Q 2772 3150 2772 3378 
Q 2772 3750 2511 3984 
Q 2250 4219 1831 4219 
Q 1534 4219 1204 4116 
Q 875 4013 500 3803 
L 500 4441 
Q 881 4594 1212 4672 
Q 1544 4750 1819 4750 
Q 2544 4750 2975 4387 
Q 3406 4025 3406 3419 
Q 3406 3131 3298 2873 
Q 3191 2616 2906 2266 
Q 2828 2175 2409 1742 
Q 1991 1309 1228 531 
z
" id="DejaVuSans-32" transform="scale(0.015625)"/>
       </defs>
       <use xlink:href="#DejaVuSans-32"/>
       <use x="63.623047" xlink:href="#DejaVuSans-30"/>
       <use x="127.246094" xlink:href="#DejaVuSans-30"/>
      </g>
     </g>
    </g>
    <g id="xtick_4">
     <g id="line2d_4">
      <g>
       <use style="stroke:#000000;" x="191.52" xlink:href="#m250c1c98a8" y="307.584"/>
      </g>
     </g>
     <g id="text_4">
      <!-- 300 -->
      <g transform="translate(183.1215 322.570625)scale(0.088 -0.088)">
       <defs>
        <path d="M 2597 2516 
Q 3050 2419 3304 2112 
Q 3559 1806 3559 1356 
Q 3559 666 3084 287 
Q 2609 -91 1734 -91 
Q 1441 -91 1130 -33 
Q 819 25 488 141 
L 488 750 
Q 750 597 1062 519 
Q 1375 441 1716 441 
Q 2309 441 2620 675 
Q 2931 909 2931 1356 
Q 2931 1769 2642 2001 
Q 2353 2234 1838 2234 
L 1294 2234 
L 1294 2753 
L 1863 2753 
Q 2328 2753 2575 2939 
Q 2822 3125 2822 3475 
Q 2822 3834 2567 4026 
Q 2313 4219 1838 4219 
Q 1578 4219 1281 4162 
Q 984 4106 628 3988 
L 628 4550 
Q 988 4650 1302 4700 
Q 1616 4750 1894 4750 
Q 2613 4750 3031 4423 
Q 3450 4097 3450 3541 
Q 3450 3153 3228 2886 
Q 3006 2619 2597 2516 
z
" id="DejaVuSans-33" transform="scale(0.015625)"/>
       </defs>
       <use xlink:href="#DejaVuSans-33"/>
       <use x="63.623047" xlink:href="#DejaVuSans-30"/>
       <use x="127.246094" xlink:href="#DejaVuSans-30"/>
      </g>
     </g>
    </g>
    <g id="xtick_5">
     <g id="line2d_5">
      <g>
       <use style="stroke:#000000;" x="236.16" xlink:href="#m250c1c98a8" y="307.584"/>
      </g>
     </g>
     <g id="text_5">
      <!-- 400 -->
      <g transform="translate(227.7615 322.570625)scale(0.088 -0.088)">
       <defs>
        <path d="M 2419 4116 
L 825 1625 
L 2419 1625 
L 2419 4116 
z
M 2253 4666 
L 3047 4666 
L 3047 1625 
L 3713 1625 
L 3713 1100 
L 3047 1100 
L 3047 0 
L 2419 0 
L 2419 1100 
L 313 1100 
L 313 1709 
L 2253 4666 
z
" id="DejaVuSans-34" transform="scale(0.015625)"/>
       </defs>
       <use xlink:href="#DejaVuSans-34"/>
       <use x="63.623047" xlink:href="#DejaVuSans-30"/>
       <use x="127.246094" xlink:href="#DejaVuSans-30"/>
      </g>
     </g>
    </g>
    <g id="xtick_6">
     <g id="line2d_6">
      <g>
       <use style="stroke:#000000;" x="280.8" xlink:href="#m250c1c98a8" y="307.584"/>
      </g>
     </g>
     <g id="text_6">
      <!-- 500 -->
      <g transform="translate(272.4015 322.570625)scale(0.088 -0.088)">
       <defs>
        <path d="M 691 4666 
L 3169 4666 
L 3169 4134 
L 1269 4134 
L 1269 2991 
Q 1406 3038 1543 3061 
Q 1681 3084 1819 3084 
Q 2600 3084 3056 2656 
Q 3513 2228 3513 1497 
Q 3513 744 3044 326 
Q 2575 -91 1722 -91 
Q 1428 -91 1123 -41 
Q 819 9 494 109 
L 494 744 
Q 775 591 1075 516 
Q 1375 441 1709 441 
Q 2250 441 2565 725 
Q 2881 1009 2881 1497 
Q 2881 1984 2565 2268 
Q 2250 2553 1709 2553 
Q 1456 2553 1204 2497 
Q 953 2441 691 2322 
L 691 4666 
z
" id="DejaVuSans-35" transform="scale(0.015625)"/>
       </defs>
       <use xlink:href="#DejaVuSans-35"/>
       <use x="63.623047" xlink:href="#DejaVuSans-30"/>
       <use x="127.246094" xlink:href="#DejaVuSans-30"/>
      </g>
     </g>
    </g>
    <g id="xtick_7">
     <g id="line2d_7">
      <g>
       <use style="stroke:#000000;" x="325.44" xlink:href="#m250c1c98a8" y="307.584"/>
      </g>
     </g>
     <g id="text_7">
      <!-- 600 -->
      <g transform="translate(317.0415 322.570625)scale(0.088 -0.088)">
       <defs>
        <path d="M 2113 2584 
Q 1688 2584 1439 2293 
Q 1191 2003 1191 1497 
Q 1191 994 1439 701 
Q 1688 409 2113 409 
Q 2538 409 2786 701 
Q 3034 994 3034 1497 
Q 3034 2003 2786 2293 
Q 2538 2584 2113 2584 
z
M 3366 4563 
L 3366 3988 
Q 3128 4100 2886 4159 
Q 2644 4219 2406 4219 
Q 1781 4219 1451 3797 
Q 1122 3375 1075 2522 
Q 1259 2794 1537 2939 
Q 1816 3084 2150 3084 
Q 2853 3084 3261 2657 
Q 3669 2231 3669 1497 
Q 3669 778 3244 343 
Q 2819 -91 2113 -91 
Q 1303 -91 875 529 
Q 447 1150 447 2328 
Q 447 3434 972 4092 
Q 1497 4750 2381 4750 
Q 2619 4750 2861 4703 
Q 3103 4656 3366 4563 
z
" id="DejaVuSans-36" transform="scale(0.015625)"/>
       </defs>
       <use xlink:href="#DejaVuSans-36"/>
       <use x="63.623047" xlink:href="#DejaVuSans-30"/>
       <use x="127.246094" xlink:href="#DejaVuSans-30"/>
      </g>
     </g>
    </g>
    <g id="xtick_8">
     <g id="line2d_8">
      <g>
       <use style="stroke:#000000;" x="370.08" xlink:href="#m250c1c98a8" y="307.584"/>
      </g>
     </g>
     <g id="text_8">
      <!-- 700 -->
      <g transform="translate(361.6815 322.570625)scale(0.088 -0.088)">
       <defs>
        <path d="M 525 4666 
L 3525 4666 
L 3525 4397 
L 1831 0 
L 1172 0 
L 2766 4134 
L 525 4134 
L 525 4666 
z
" id="DejaVuSans-37" transform="scale(0.015625)"/>
       </defs>
       <use xlink:href="#DejaVuSans-37"/>
       <use x="63.623047" xlink:href="#DejaVuSans-30"/>
       <use x="127.246094" xlink:href="#DejaVuSans-30"/>
      </g>
     </g>
    </g>
    <g id="xtick_9">
     <g id="line2d_9">
      <g>
       <use style="stroke:#000000;" x="414.72" xlink:href="#m250c1c98a8" y="307.584"/>
      </g>
     </g>
     <g id="text_9">
      <!-- 800 -->
      <g transform="translate(406.3215 322.570625)scale(0.088 -0.088)">
       <defs>
        <path d="M 2034 2216 
Q 1584 2216 1326 1975 
Q 1069 1734 1069 1313 
Q 1069 891 1326 650 
Q 1584 409 2034 409 
Q 2484 409 2743 651 
Q 3003 894 3003 1313 
Q 3003 1734 2745 1975 
Q 2488 2216 2034 2216 
z
M 1403 2484 
Q 997 2584 770 2862 
Q 544 3141 544 3541 
Q 544 4100 942 4425 
Q 1341 4750 2034 4750 
Q 2731 4750 3128 4425 
Q 3525 4100 3525 3541 
Q 3525 3141 3298 2862 
Q 3072 2584 2669 2484 
Q 3125 2378 3379 2068 
Q 3634 1759 3634 1313 
Q 3634 634 3220 271 
Q 2806 -91 2034 -91 
Q 1263 -91 848 271 
Q 434 634 434 1313 
Q 434 1759 690 2068 
Q 947 2378 1403 2484 
z
M 1172 3481 
Q 1172 3119 1398 2916 
Q 1625 2713 2034 2713 
Q 2441 2713 2670 2916 
Q 2900 3119 2900 3481 
Q 2900 3844 2670 4047 
Q 2441 4250 2034 4250 
Q 1625 4250 1398 4047 
Q 1172 3844 1172 3481 
z
" id="DejaVuSans-38" transform="scale(0.015625)"/>
       </defs>
       <use xlink:href="#DejaVuSans-38"/>
       <use x="63.623047" xlink:href="#DejaVuSans-30"/>
       <use x="127.246094" xlink:href="#DejaVuSans-30"/>
      </g>
     </g>
    </g>
    <g id="text_10">
     <!-- Timestep -->
     <g transform="translate(214.03275 335.69525)scale(0.096 -0.096)">
      <defs>
       <path d="M -19 4666 
L 3928 4666 
L 3928 4134 
L 2272 4134 
L 2272 0 
L 1638 0 
L 1638 4134 
L -19 4134 
L -19 4666 
z
" id="DejaVuSans-54" transform="scale(0.015625)"/>
       <path d="M 603 3500 
L 1178 3500 
L 1178 0 
L 603 0 
L 603 3500 
z
M 603 4863 
L 1178 4863 
L 1178 4134 
L 603 4134 
L 603 4863 
z
" id="DejaVuSans-69" transform="scale(0.015625)"/>
       <path d="M 3328 2828 
Q 3544 3216 3844 3400 
Q 4144 3584 4550 3584 
Q 5097 3584 5394 3201 
Q 5691 2819 5691 2113 
L 5691 0 
L 5113 0 
L 5113 2094 
Q 5113 2597 4934 2840 
Q 4756 3084 4391 3084 
Q 3944 3084 3684 2787 
Q 3425 2491 3425 1978 
L 3425 0 
L 2847 0 
L 2847 2094 
Q 2847 2600 2669 2842 
Q 2491 3084 2119 3084 
Q 1678 3084 1418 2786 
Q 1159 2488 1159 1978 
L 1159 0 
L 581 0 
L 581 3500 
L 1159 3500 
L 1159 2956 
Q 1356 3278 1631 3431 
Q 1906 3584 2284 3584 
Q 2666 3584 2933 3390 
Q 3200 3197 3328 2828 
z
" id="DejaVuSans-6d" transform="scale(0.015625)"/>
       <path d="M 3597 1894 
L 3597 1613 
L 953 1613 
Q 991 1019 1311 708 
Q 1631 397 2203 397 
Q 2534 397 2845 478 
Q 3156 559 3463 722 
L 3463 178 
Q 3153 47 2828 -22 
Q 2503 -91 2169 -91 
Q 1331 -91 842 396 
Q 353 884 353 1716 
Q 353 2575 817 3079 
Q 1281 3584 2069 3584 
Q 2775 3584 3186 3129 
Q 3597 2675 3597 1894 
z
M 3022 2063 
Q 3016 2534 2758 2815 
Q 2500 3097 2075 3097 
Q 1594 3097 1305 2825 
Q 1016 2553 972 2059 
L 3022 2063 
z
" id="DejaVuSans-65" transform="scale(0.015625)"/>
       <path d="M 2834 3397 
L 2834 2853 
Q 2591 2978 2328 3040 
Q 2066 3103 1784 3103 
Q 1356 3103 1142 2972 
Q 928 2841 928 2578 
Q 928 2378 1081 2264 
Q 1234 2150 1697 2047 
L 1894 2003 
Q 2506 1872 2764 1633 
Q 3022 1394 3022 966 
Q 3022 478 2636 193 
Q 2250 -91 1575 -91 
Q 1294 -91 989 -36 
Q 684 19 347 128 
L 347 722 
Q 666 556 975 473 
Q 1284 391 1588 391 
Q 1994 391 2212 530 
Q 2431 669 2431 922 
Q 2431 1156 2273 1281 
Q 2116 1406 1581 1522 
L 1381 1569 
Q 847 1681 609 1914 
Q 372 2147 372 2553 
Q 372 3047 722 3315 
Q 1072 3584 1716 3584 
Q 2034 3584 2315 3537 
Q 2597 3491 2834 3397 
z
" id="DejaVuSans-73" transform="scale(0.015625)"/>
       <path d="M 1172 4494 
L 1172 3500 
L 2356 3500 
L 2356 3053 
L 1172 3053 
L 1172 1153 
Q 1172 725 1289 603 
Q 1406 481 1766 481 
L 2356 481 
L 2356 0 
L 1766 0 
Q 1100 0 847 248 
Q 594 497 594 1153 
L 594 3053 
L 172 3053 
L 172 3500 
L 594 3500 
L 594 4494 
L 1172 4494 
z
" id="DejaVuSans-74" transform="scale(0.015625)"/>
       <path d="M 1159 525 
L 1159 -1331 
L 581 -1331 
L 581 3500 
L 1159 3500 
L 1159 2969 
Q 1341 3281 1617 3432 
Q 1894 3584 2278 3584 
Q 2916 3584 3314 3078 
Q 3713 2572 3713 1747 
Q 3713 922 3314 415 
Q 2916 -91 2278 -91 
Q 1894 -91 1617 61 
Q 1341 213 1159 525 
z
M 3116 1747 
Q 3116 2381 2855 2742 
Q 2594 3103 2138 3103 
Q 1681 3103 1420 2742 
Q 1159 2381 1159 1747 
Q 1159 1113 1420 752 
Q 1681 391 2138 391 
Q 2594 391 2855 752 
Q 3116 1113 3116 1747 
z
" id="DejaVuSans-70" transform="scale(0.015625)"/>
      </defs>
      <use xlink:href="#DejaVuSans-54"/>
      <use x="57.958984" xlink:href="#DejaVuSans-69"/>
      <use x="85.742188" xlink:href="#DejaVuSans-6d"/>
      <use x="183.154297" xlink:href="#DejaVuSans-65"/>
      <use x="244.677734" xlink:href="#DejaVuSans-73"/>
      <use x="296.777344" xlink:href="#DejaVuSans-74"/>
      <use x="335.986328" xlink:href="#DejaVuSans-65"/>
      <use x="397.509766" xlink:href="#DejaVuSans-70"/>
     </g>
    </g>
   </g>
   <g id="matplotlib.axis_2">
    <g id="ytick_1">
     <g id="line2d_10">
      <defs>
       <path d="M 0 0 
L -4.8 0 
" id="m75fac7d8c3" style="stroke:#000000;"/>
      </defs>
      <g>
       <use style="stroke:#000000;" x="57.6" xlink:href="#m75fac7d8c3" y="307.584"/>
      </g>
     </g>
     <g id="text_11">
      <!-- 0 -->
      <g transform="translate(43.701 310.927312)scale(0.088 -0.088)">
       <use xlink:href="#DejaVuSans-30"/>
      </g>
     </g>
    </g>
    <g id="ytick_2">
     <g id="line2d_11">
      <g>
       <use style="stroke:#000000;" x="57.6" xlink:href="#m75fac7d8c3" y="254.3616"/>
      </g>
     </g>
     <g id="text_12">
      <!-- 200 -->
      <g transform="translate(32.503 257.704912)scale(0.088 -0.088)">
       <use xlink:href="#DejaVuSans-32"/>
       <use x="63.623047" xlink:href="#DejaVuSans-30"/>
       <use x="127.246094" xlink:href="#DejaVuSans-30"/>
      </g>
     </g>
    </g>
    <g id="ytick_3">
     <g id="line2d_12">
      <g>
       <use style="stroke:#000000;" x="57.6" xlink:href="#m75fac7d8c3" y="201.1392"/>
      </g>
     </g>
     <g id="text_13">
      <!-- 400 -->
      <g transform="translate(32.503 204.482512)scale(0.088 -0.088)">
       <use xlink:href="#DejaVuSans-34"/>
       <use x="63.623047" xlink:href="#DejaVuSans-30"/>
       <use x="127.246094" xlink:href="#DejaVuSans-30"/>
      </g>
     </g>
    </g>
    <g id="ytick_4">
     <g id="line2d_13">
      <g>
       <use style="stroke:#000000;" x="57.6" xlink:href="#m75fac7d8c3" y="147.9168"/>
      </g>
     </g>
     <g id="text_14">
      <!-- 600 -->
      <g transform="translate(32.503 151.260112)scale(0.088 -0.088)">
       <use xlink:href="#DejaVuSans-36"/>
       <use x="63.623047" xlink:href="#DejaVuSans-30"/>
       <use x="127.246094" xlink:href="#DejaVuSans-30"/>
      </g>
     </g>
    </g>
    <g id="ytick_5">
     <g id="line2d_14">
      <g>
       <use style="stroke:#000000;" x="57.6" xlink:href="#m75fac7d8c3" y="94.6944"/>
      </g>
     </g>
     <g id="text_15">
      <!-- 800 -->
      <g transform="translate(32.503 98.037712)scale(0.088 -0.088)">
       <use xlink:href="#DejaVuSans-38"/>
       <use x="63.623047" xlink:href="#DejaVuSans-30"/>
       <use x="127.246094" xlink:href="#DejaVuSans-30"/>
      </g>
     </g>
    </g>
    <g id="ytick_6">
     <g id="line2d_15">
      <g>
       <use style="stroke:#000000;" x="57.6" xlink:href="#m75fac7d8c3" y="41.472"/>
      </g>
     </g>
     <g id="text_16">
      <!-- 1000 -->
      <g transform="translate(26.904 44.815313)scale(0.088 -0.088)">
       <use xlink:href="#DejaVuSans-31"/>
       <use x="63.623047" xlink:href="#DejaVuSans-30"/>
       <use x="127.246094" xlink:href="#DejaVuSans-30"/>
       <use x="190.869141" xlink:href="#DejaVuSans-30"/>
      </g>
     </g>
    </g>
    <g id="text_17">
     <!-- Reward -->
     <g transform="translate(20.9075 192.40425)rotate(-90)scale(0.096 -0.096)">
      <defs>
       <path d="M 2841 2188 
Q 3044 2119 3236 1894 
Q 3428 1669 3622 1275 
L 4263 0 
L 3584 0 
L 2988 1197 
Q 2756 1666 2539 1819 
Q 2322 1972 1947 1972 
L 1259 1972 
L 1259 0 
L 628 0 
L 628 4666 
L 2053 4666 
Q 2853 4666 3247 4331 
Q 3641 3997 3641 3322 
Q 3641 2881 3436 2590 
Q 3231 2300 2841 2188 
z
M 1259 4147 
L 1259 2491 
L 2053 2491 
Q 2509 2491 2742 2702 
Q 2975 2913 2975 3322 
Q 2975 3731 2742 3939 
Q 2509 4147 2053 4147 
L 1259 4147 
z
" id="DejaVuSans-52" transform="scale(0.015625)"/>
       <path d="M 269 3500 
L 844 3500 
L 1563 769 
L 2278 3500 
L 2956 3500 
L 3675 769 
L 4391 3500 
L 4966 3500 
L 4050 0 
L 3372 0 
L 2619 2869 
L 1863 0 
L 1184 0 
L 269 3500 
z
" id="DejaVuSans-77" transform="scale(0.015625)"/>
       <path d="M 2194 1759 
Q 1497 1759 1228 1600 
Q 959 1441 959 1056 
Q 959 750 1161 570 
Q 1363 391 1709 391 
Q 2188 391 2477 730 
Q 2766 1069 2766 1631 
L 2766 1759 
L 2194 1759 
z
M 3341 1997 
L 3341 0 
L 2766 0 
L 2766 531 
Q 2569 213 2275 61 
Q 1981 -91 1556 -91 
Q 1019 -91 701 211 
Q 384 513 384 1019 
Q 384 1609 779 1909 
Q 1175 2209 1959 2209 
L 2766 2209 
L 2766 2266 
Q 2766 2663 2505 2880 
Q 2244 3097 1772 3097 
Q 1472 3097 1187 3025 
Q 903 2953 641 2809 
L 641 3341 
Q 956 3463 1253 3523 
Q 1550 3584 1831 3584 
Q 2591 3584 2966 3190 
Q 3341 2797 3341 1997 
z
" id="DejaVuSans-61" transform="scale(0.015625)"/>
       <path d="M 2631 2963 
Q 2534 3019 2420 3045 
Q 2306 3072 2169 3072 
Q 1681 3072 1420 2755 
Q 1159 2438 1159 1844 
L 1159 0 
L 581 0 
L 581 3500 
L 1159 3500 
L 1159 2956 
Q 1341 3275 1631 3429 
Q 1922 3584 2338 3584 
Q 2397 3584 2469 3576 
Q 2541 3569 2628 3553 
L 2631 2963 
z
" id="DejaVuSans-72" transform="scale(0.015625)"/>
       <path d="M 2906 2969 
L 2906 4863 
L 3481 4863 
L 3481 0 
L 2906 0 
L 2906 525 
Q 2725 213 2448 61 
Q 2172 -91 1784 -91 
Q 1150 -91 751 415 
Q 353 922 353 1747 
Q 353 2572 751 3078 
Q 1150 3584 1784 3584 
Q 2172 3584 2448 3432 
Q 2725 3281 2906 2969 
z
M 947 1747 
Q 947 1113 1208 752 
Q 1469 391 1925 391 
Q 2381 391 2643 752 
Q 2906 1113 2906 1747 
Q 2906 2381 2643 2742 
Q 2381 3103 1925 3103 
Q 1469 3103 1208 2742 
Q 947 2381 947 1747 
z
" id="DejaVuSans-64" transform="scale(0.015625)"/>
      </defs>
      <use xlink:href="#DejaVuSans-52"/>
      <use x="64.982422" xlink:href="#DejaVuSans-65"/>
      <use x="126.505859" xlink:href="#DejaVuSans-77"/>
      <use x="208.292969" xlink:href="#DejaVuSans-61"/>
      <use x="269.572266" xlink:href="#DejaVuSans-72"/>
      <use x="308.935547" xlink:href="#DejaVuSans-64"/>
     </g>
    </g>
   </g>
   <g id="line2d_16">
    <path clip-path="url(#pd97439668f)" d="M 58.0464 304.368036 
L 58.4928 304.089949 
L 58.9392 304.763213 
L 59.3856 305.103836 
L 59.832 304.172444 
L 60.2784 304.224336 
L 60.7248 304.723296 
L 61.1712 304.274897 
L 61.6176 304.775188 
L 62.064 298.242138 
L 62.5104 304.055355 
L 62.9568 303.641551 
L 63.4032 304.199055 
L 63.8496 304.242964 
L 64.296 303.451281 
L 64.7424 300.995067 
L 65.1888 303.78259 
L 65.6352 304.4013 
L 66.0816 304.16313 
L 66.528 304.556976 
L 66.9744 304.395978 
L 67.4208 301.364963 
L 67.8672 304.248286 
L 68.3136 299.279975 
L 68.76 304.294856 
L 69.2064 304.344086 
L 69.6528 297.924134 
L 70.0992 300.315151 
L 70.5456 299.915983 
L 70.992 304.135188 
L 71.4384 294.271747 
L 71.8848 302.40413 
L 72.3312 298.385839 
L 73.224 304.160469 
L 73.6704 304.857683 
L 74.1168 298.319311 
L 74.5632 298.838229 
L 75.0096 295.981517 
L 75.456 298.424425 
L 75.9024 304.175105 
L 76.3488 296.55898 
L 76.7952 296.06135 
L 77.2416 299.571368 
L 77.688 294.555156 
L 78.1344 304.274897 
L 78.5808 304.262922 
L 79.0272 302.457352 
L 79.4736 298.581431 
L 79.92 303.323547 
L 80.3664 304.238972 
L 80.8128 301.887873 
L 81.2592 296.255612 
L 81.7056 303.588328 
L 82.152 297.185674 
L 82.5984 296.86767 
L 83.0448 300.014444 
L 83.4912 295.614282 
L 83.9376 301.459432 
L 84.384 295.575696 
L 84.8304 298.134363 
L 85.2768 299.717729 
L 85.7232 302.599722 
L 86.1696 292.153496 
L 86.616 303.912985 
L 87.0624 296.395321 
L 87.5088 295.628918 
L 87.9552 300.088956 
L 88.4016 289.505681 
L 88.848 301.998309 
L 89.2944 304.109908 
L 89.7408 294.155988 
L 90.1872 291.059775 
L 90.6336 303.943588 
L 91.08 294.400812 
L 91.9728 289.632084 
L 92.4192 297.632742 
L 92.8656 289.955411 
L 93.7584 296.81977 
L 94.2048 291.486885 
L 94.6512 303.831821 
L 95.0976 303.982174 
L 95.544 296.727961 
L 95.9904 299.486212 
L 96.4368 298.742429 
L 96.8832 299.934611 
L 97.3296 295.542432 
L 97.776 296.830414 
L 98.6688 285.70028 
L 99.1152 294.282392 
L 99.5616 293.776779 
L 100.008 295.557068 
L 100.4544 292.037737 
L 100.9008 289.632084 
L 101.3472 288.953499 
L 101.7936 298.767709 
L 102.24 290.393165 
L 102.6864 291.816864 
L 103.1328 290.828258 
L 103.5792 297.103179 
L 104.0256 290.936033 
L 104.472 288.537034 
L 104.9184 297.530289 
L 105.3648 304.188411 
L 105.8112 293.843307 
L 106.2576 289.73986 
L 106.704 291.906012 
L 107.1504 289.250214 
L 107.5968 293.031665 
L 108.0432 291.486885 
L 108.4896 299.321222 
L 108.936 295.648877 
L 109.3824 293.694284 
L 109.8288 292.585928 
L 110.2752 294.959647 
L 110.7216 300.712988 
L 111.168 293.099524 
L 111.6144 294.253119 
L 112.0608 292.098943 
L 112.5072 288.449217 
L 112.9536 292.551333 
L 113.4 288.328136 
L 113.8464 290.317323 
L 114.2928 289.38327 
L 114.7392 289.900858 
L 115.1856 288.123229 
L 115.632 292.460855 
L 116.0784 292.825428 
L 116.5248 292.221354 
L 116.9712 290.164308 
L 117.4176 290.434412 
L 117.864 293.007715 
L 118.3104 291.139609 
L 118.7568 287.986182 
L 119.2032 298.570787 
L 119.6496 294.403473 
L 120.096 298.067835 
L 120.5424 299.337189 
L 120.9888 299.378436 
L 121.4352 292.474161 
L 121.8816 296.005467 
L 122.328 290.371876 
L 122.7744 289.055952 
L 123.2208 288.093957 
L 123.6672 289.212958 
L 124.1136 294.061519 
L 124.56 295.082058 
L 125.0064 291.14227 
L 125.4528 289.372625 
L 125.8992 288.796493 
L 126.3456 294.70551 
L 126.792 296.145176 
L 127.2384 294.974283 
L 127.6848 289.355328 
L 128.1312 288.191088 
L 128.5776 295.690124 
L 129.024 290.932042 
L 129.4704 287.817201 
L 129.9168 289.939444 
L 130.3632 289.646721 
L 130.8096 297.446463 
L 131.256 293.658359 
L 132.1488 288.768551 
L 132.5952 292.865345 
L 133.0416 293.525303 
L 133.488 290.273414 
L 133.9344 289.711918 
L 134.3808 290.884141 
L 134.8272 289.657365 
L 135.2736 291.134287 
L 135.72 295.177859 
L 136.1664 294.427423 
L 136.6128 290.821605 
L 137.0592 289.823685 
L 137.5056 289.316742 
L 137.952 290.399818 
L 138.3984 291.155576 
L 138.8448 290.88148 
L 139.2912 288.469175 
L 139.7376 289.910172 
L 140.184 298.264758 
L 140.6304 285.697619 
L 141.0768 290.741772 
L 141.5232 290.125722 
L 141.9696 288.706015 
L 142.416 289.203644 
L 142.8624 286.724811 
L 143.3088 289.495037 
L 143.7552 291.235409 
L 144.2016 292.275907 
L 144.648 290.560815 
L 145.0944 289.514995 
L 145.5408 293.285802 
L 145.9872 293.144763 
L 146.88 290.0246 
L 147.3264 289.915494 
L 147.7728 289.580193 
L 148.2192 287.951587 
L 148.6656 290.697863 
L 149.5584 282.860865 
L 150.0048 291.168881 
L 150.4512 293.655698 
L 150.8976 290.949339 
L 151.344 290.09645 
L 152.2368 293.377611 
L 152.6832 290.196242 
L 153.1296 297.453116 
L 153.576 290.257448 
L 154.0224 301.133445 
L 154.4688 293.466758 
L 154.9152 291.864764 
L 155.3616 288.972127 
L 155.808 289.634746 
L 156.2544 289.995327 
L 156.7008 290.516907 
L 157.1472 292.68705 
L 157.5936 293.877901 
L 158.04 291.275326 
L 158.4864 289.860941 
L 158.9328 291.259359 
L 159.3792 289.43117 
L 159.8256 290.363892 
L 160.272 289.586845 
L 160.7184 289.379278 
L 161.1648 289.959402 
L 161.6112 291.706428 
L 162.0576 290.848216 
L 162.504 296.267587 
L 162.9504 290.40647 
L 163.3968 287.660195 
L 164.2896 300.307167 
L 164.736 292.148173 
L 165.1824 292.786842 
L 165.6288 289.452459 
L 166.0752 298.608042 
L 166.5216 290.970628 
L 166.968 298.38983 
L 167.4144 292.85204 
L 167.8608 290.563476 
L 168.3072 297.936109 
L 168.7536 292.023101 
L 169.2 288.748593 
L 169.6464 289.690629 
L 170.0928 289.719901 
L 170.9856 292.172124 
L 171.432 291.35516 
L 171.8784 290.077822 
L 172.3248 290.079153 
L 172.7712 294.92106 
L 173.2176 295.050125 
L 173.664 293.481395 
L 174.1104 290.528882 
L 174.5568 294.53919 
L 175.0032 288.886971 
L 175.4496 289.516326 
L 175.896 288.706015 
L 176.3424 289.992666 
L 176.7888 294.748088 
L 177.2352 290.853539 
L 177.6816 296.688044 
L 178.128 294.436737 
L 178.5744 290.892125 
L 179.0208 294.572454 
L 179.4672 293.738193 
L 179.9136 291.289962 
L 180.36 299.986502 
L 180.8064 290.088467 
L 181.2528 289.698612 
L 181.6992 298.494945 
L 182.1456 298.678562 
L 182.592 296.280893 
L 183.0384 296.050706 
L 183.4848 291.147592 
L 183.9312 291.867425 
L 184.3776 293.472081 
L 184.824 287.279654 
L 185.2704 291.947259 
L 185.7168 291.939276 
L 186.1632 291.411043 
L 186.6096 290.342604 
L 187.056 291.792914 
L 187.5024 290.425098 
L 187.9488 291.804889 
L 188.3952 291.034495 
L 188.8416 293.369628 
L 189.7344 295.06343 
L 190.1808 292.005804 
L 190.6272 295.530457 
L 191.0736 293.75549 
L 191.52 294.085469 
L 191.9664 293.752829 
L 192.4128 292.052373 
L 192.8592 289.314081 
L 193.3056 291.268673 
L 193.752 289.904849 
L 194.1984 292.023101 
L 194.6448 291.7836 
L 195.0912 295.301601 
L 195.5376 290.414454 
L 195.984 290.810961 
L 196.4304 288.93221 
L 196.8768 290.088467 
L 197.3232 293.474742 
L 198.216 292.726967 
L 198.6624 291.134287 
L 199.1088 290.664599 
L 199.5552 293.740854 
L 200.0016 292.42626 
L 200.448 297.051287 
L 200.8944 292.741603 
L 201.3408 293.671665 
L 201.7872 304.038058 
L 202.2336 296.608211 
L 202.68 296.32214 
L 203.1264 295.11 
L 203.5728 297.20031 
L 204.0192 291.446968 
L 204.4656 298.5801 
L 204.912 291.623933 
L 205.3584 301.459432 
L 205.8048 293.272497 
L 206.2512 292.993079 
L 206.6976 291.842145 
L 207.144 293.362975 
L 207.5904 294.352911 
L 208.4832 290.765722 
L 208.9296 290.496948 
L 209.376 292.169462 
L 209.8224 290.633996 
L 210.2688 290.506262 
L 210.7152 289.779777 
L 211.1616 291.375118 
L 211.608 291.303268 
L 212.0544 297.052618 
L 212.5008 292.197404 
L 212.9472 300.465504 
L 213.3936 291.674494 
L 213.84 300.365712 
L 214.2864 299.085713 
L 214.7328 293.928463 
L 215.1792 290.878819 
L 215.6256 302.369535 
L 216.072 291.226095 
L 216.5184 299.990494 
L 216.9648 302.590408 
L 217.4112 292.536697 
L 217.8576 291.453621 
L 218.304 292.247965 
L 218.7504 292.395658 
L 219.1968 290.522229 
L 219.6432 292.04439 
L 220.0896 293.980355 
L 220.536 298.750412 
L 220.9824 294.222516 
L 221.4288 295.864428 
L 221.8752 291.985845 
L 222.3216 297.387919 
L 222.768 292.197404 
L 223.2144 296.455196 
L 223.6608 294.547173 
L 224.1072 293.382933 
L 224.5536 294.557818 
L 225 294.650957 
L 225.4464 294.628337 
L 225.8928 290.840233 
L 226.3392 294.238483 
L 226.7856 304.171114 
L 227.232 293.770126 
L 227.6784 291.775617 
L 228.1248 291.808881 
L 228.5712 292.431583 
L 229.0176 300.128872 
L 230.3568 290.402479 
L 230.8032 293.675656 
L 231.2496 295.192495 
L 231.696 295.212453 
L 232.1424 295.525135 
L 232.5888 297.131121 
L 233.0352 294.267756 
L 233.4816 297.671328 
L 233.928 302.900429 
L 234.8208 291.779608 
L 235.2672 296.451204 
L 235.7136 294.241144 
L 236.16 292.837404 
L 236.6064 295.369459 
L 237.0528 294.786674 
L 237.4992 296.588252 
L 237.9456 296.310165 
L 238.392 300.532032 
L 238.8384 296.626838 
L 239.2848 296.86767 
L 239.7312 295.658191 
L 240.1776 292.548672 
L 241.0704 292.861354 
L 241.5168 295.047464 
L 241.9632 293.631748 
L 242.4096 294.968961 
L 243.3024 289.936783 
L 243.7488 294.020271 
L 244.1952 292.177446 
L 244.6416 293.670334 
L 245.088 293.655698 
L 245.9808 301.197312 
L 246.4272 295.195156 
L 246.8736 299.728374 
L 247.32 293.139441 
L 247.7664 292.943848 
L 248.2128 290.19225 
L 248.6592 298.926046 
L 249.1056 294.882474 
L 249.552 295.123306 
L 249.9984 292.323807 
L 250.4448 296.316818 
L 250.8912 297.655361 
L 251.3376 290.323976 
L 251.784 291.9273 
L 252.2304 295.424012 
L 252.6768 293.461436 
L 253.1232 293.09021 
L 253.5696 289.844974 
L 254.016 298.344591 
L 254.4624 299.076399 
L 254.9088 293.353661 
L 255.3552 292.911915 
L 255.8016 292.954493 
L 256.248 295.171206 
L 256.6944 295.920311 
L 257.1408 293.271166 
L 257.5872 300.249953 
L 258.0336 294.367548 
L 258.48 294.641643 
L 258.9264 291.470918 
L 259.3728 298.520225 
L 259.8192 294.883805 
L 260.2656 299.635235 
L 260.712 299.834819 
L 261.6048 293.775448 
L 262.0512 292.718984 
L 262.944 296.457857 
L 263.3904 297.309416 
L 263.8368 293.82601 
L 264.2832 297.370621 
L 264.7296 296.166465 
L 265.176 293.279149 
L 265.6224 301.54991 
L 266.0688 294.666924 
L 266.5152 294.362225 
L 266.9616 298.67324 
L 267.408 294.662932 
L 267.8544 293.152746 
L 268.3008 293.634409 
L 268.7472 295.435987 
L 269.64 299.741679 
L 270.0864 298.444383 
L 270.5328 297.828334 
L 270.9792 299.74434 
L 271.4256 297.314738 
L 271.872 300.151492 
L 272.3184 298.777023 
L 272.7648 292.265263 
L 273.6576 296.739936 
L 274.104 296.758564 
L 274.5504 294.006966 
L 274.9968 294.151997 
L 275.4432 299.844132 
L 275.8896 291.215451 
L 276.336 293.176696 
L 276.7824 292.319816 
L 277.2288 290.367884 
L 277.6752 297.425174 
L 278.1216 294.132038 
L 278.568 293.715573 
L 279.0144 294.148005 
L 279.4608 293.337694 
L 279.9072 298.930038 
L 280.8 293.414867 
L 281.6928 291.749005 
L 282.1392 296.684052 
L 282.5856 299.341181 
L 283.032 294.418109 
L 283.9248 292.442227 
L 284.3712 293.484056 
L 284.8176 294.122724 
L 285.264 291.824847 
L 285.7104 294.994241 
L 286.1568 302.635647 
L 286.6032 302.19124 
L 287.0496 296.099937 
L 287.496 303.173194 
L 287.9424 294.447381 
L 288.3888 292.267924 
L 288.8352 297.204301 
L 289.2816 297.583511 
L 289.728 300.81145 
L 290.1744 294.137361 
L 290.6208 296.280893 
L 291.0672 293.239233 
L 291.5136 298.659934 
L 291.96 292.785512 
L 292.4064 294.987588 
L 292.8528 297.79507 
L 293.2992 293.559898 
L 293.7456 293.384264 
L 294.192 293.807382 
L 294.6384 291.929962 
L 295.0848 293.92181 
L 295.5312 294.225178 
L 296.424 302.159307 
L 296.8704 296.58293 
L 297.3168 292.475491 
L 297.7632 296.721308 
L 298.2096 296.409957 
L 298.656 302.147332 
L 299.1024 293.775448 
L 299.5488 301.796064 
L 299.9952 304.121883 
L 300.4416 296.853034 
L 300.888 295.292287 
L 301.3344 299.580682 
L 301.7808 300.160806 
L 302.2272 297.293449 
L 302.6736 298.218188 
L 303.12 298.657273 
L 303.5664 293.217944 
L 304.0128 304.204378 
L 304.4592 293.034326 
L 304.9056 297.603469 
L 305.352 295.215114 
L 305.7984 301.343674 
L 306.2448 295.098025 
L 306.6912 293.872579 
L 307.1376 291.868756 
L 307.584 298.569456 
L 308.0304 301.424838 
L 308.4768 295.477235 
L 308.9232 296.163804 
L 309.3696 301.197312 
L 309.816 291.21279 
L 310.2624 294.565801 
L 310.7088 296.018772 
L 311.1552 293.175366 
L 311.6016 292.808131 
L 312.048 301.479391 
L 312.4944 295.090042 
L 312.9408 299.906669 
L 313.3872 299.168208 
L 313.8336 298.939352 
L 314.28 297.064593 
L 314.7264 299.044466 
L 315.1728 294.923722 
L 315.6192 294.438067 
L 316.0656 304.221675 
L 316.512 300.897936 
L 316.9584 291.538777 
L 317.4048 294.805302 
L 317.8512 292.753578 
L 318.2976 293.404222 
L 318.744 295.318898 
L 319.1904 299.359809 
L 319.6368 296.600227 
L 320.0832 297.638064 
L 320.5296 294.46867 
L 320.976 304.13918 
L 321.4224 301.331699 
L 321.8688 296.533699 
L 322.3152 294.893119 
L 322.7616 304.1618 
L 323.208 295.386756 
L 323.6544 291.882061 
L 324.1008 291.619941 
L 324.5472 304.157808 
L 324.9936 298.296691 
L 325.44 294.505926 
L 325.8864 292.752248 
L 326.3328 296.408627 
L 326.7792 293.502684 
L 327.2256 295.482557 
L 327.672 295.035489 
L 328.1184 298.311327 
L 328.5648 293.587839 
L 329.0112 296.135862 
L 329.4576 297.607461 
L 329.904 294.005635 
L 330.3504 298.075818 
L 330.7968 294.08946 
L 331.2432 301.466085 
L 331.6896 295.277651 
L 332.136 297.768459 
L 332.5824 297.148418 
L 333.0288 295.144595 
L 333.4752 296.517732 
L 334.368 295.445301 
L 334.8144 293.981685 
L 335.2608 299.846794 
L 335.7072 301.761469 
L 336.1536 300.851366 
L 336.6 292.793495 
L 337.0464 292.832081 
L 337.4928 297.58085 
L 337.9392 300.438893 
L 338.3856 300.344423 
L 338.832 293.182019 
L 339.2784 294.744096 
L 340.1712 296.404635 
L 340.6176 298.215527 
L 341.064 291.799567 
L 341.5104 298.371203 
L 341.9568 295.635571 
L 342.4032 295.668835 
L 342.8496 290.52489 
L 343.296 295.255031 
L 343.7424 298.19823 
L 344.1888 295.006216 
L 344.6352 295.317567 
L 345.0816 295.341517 
L 345.528 293.385594 
L 345.9744 298.034571 
L 346.4208 298.276733 
L 346.8672 295.671496 
L 347.3136 296.053367 
L 347.76 294.197236 
L 348.2064 301.849286 
L 348.6528 303.030824 
L 349.0992 296.294198 
L 349.5456 297.383927 
L 349.992 294.178608 
L 350.4384 301.199973 
L 350.8848 294.899772 
L 351.3312 295.336195 
L 351.7776 294.056196 
L 352.224 296.666755 
L 352.6704 298.154321 
L 353.1168 294.879813 
L 353.5632 295.835155 
L 354.0096 299.625921 
L 354.456 293.108838 
L 354.9024 292.403641 
L 355.3488 299.4117 
L 355.7952 298.251452 
L 356.2416 302.981593 
L 356.688 295.67948 
L 357.1344 303.447289 
L 357.5808 301.556563 
L 358.0272 296.628169 
L 358.4736 294.815946 
L 358.92 295.639563 
L 359.3664 293.841976 
L 359.8128 293.178027 
L 360.2592 303.722715 
L 360.7056 303.158557 
L 361.152 298.723801 
L 361.5984 292.930543 
L 362.0448 294.976944 
L 362.4912 295.606299 
L 362.9376 296.837067 
L 363.384 294.020271 
L 363.8304 298.085132 
L 364.2768 297.481058 
L 364.7232 292.997071 
L 365.1696 300.196731 
L 365.616 301.346335 
L 366.5088 293.167382 
L 366.9552 295.446632 
L 367.4016 295.534449 
L 367.848 295.098025 
L 368.2944 301.543258 
L 368.7408 293.740854 
L 369.1872 294.87316 
L 369.6336 298.178271 
L 370.08 299.597979 
L 370.9728 293.022351 
L 371.4192 303.955563 
L 371.8656 296.173117 
L 372.312 302.977601 
L 372.7584 299.760307 
L 373.2048 293.010376 
L 373.6512 297.505008 
L 374.0976 300.401637 
L 374.544 295.405384 
L 374.9904 299.059102 
L 375.4368 293.804721 
L 375.8832 293.750168 
L 376.3296 295.731372 
L 376.776 294.644304 
L 377.2224 301.053612 
L 377.6688 298.847543 
L 378.1152 294.640312 
L 378.5616 297.39191 
L 379.008 297.668667 
L 379.4544 293.939107 
L 379.9008 292.836073 
L 380.3472 301.583174 
L 380.7936 295.56239 
L 381.24 292.986426 
L 381.6864 294.08813 
L 382.1328 296.904925 
L 382.5792 296.290207 
L 383.0256 293.481395 
L 383.472 302.505252 
L 383.9184 295.384095 
L 384.3648 293.465428 
L 384.8112 293.671665 
L 385.2576 297.908168 
L 385.704 294.416778 
L 386.1504 295.310915 
L 386.5968 294.749418 
L 387.0432 296.621516 
L 387.4896 295.91765 
L 387.936 293.527964 
L 388.3824 294.704179 
L 389.2752 299.582012 
L 389.7216 297.100518 
L 390.168 301.391574 
L 390.6144 297.285466 
L 391.0608 299.95723 
L 391.5072 301.539266 
L 391.9536 298.129041 
L 392.4 293.128796 
L 392.8464 297.588833 
L 393.2928 295.746008 
L 394.1856 293.996321 
L 394.632 299.550079 
L 395.0784 295.100686 
L 395.5248 295.376112 
L 395.9712 298.396483 
L 396.864 293.762143 
L 397.3104 294.96763 
L 397.7568 297.522305 
L 398.2032 297.310746 
L 398.6496 294.289044 
L 399.096 297.302763 
L 399.5424 296.472493 
L 399.9888 293.364305 
L 400.4352 296.854364 
L 400.8816 302.204546 
L 401.328 292.879981 
L 401.7744 293.771457 
L 402.2208 302.651614 
L 402.6672 299.322553 
L 403.1136 303.250366 
L 404.0064 295.111331 
L 404.4528 297.976026 
L 405.3456 297.298771 
L 405.792 292.506094 
L 406.2384 298.566795 
L 406.6848 294.757402 
L 407.1312 300.81278 
L 407.5776 297.808376 
L 408.024 293.924471 
L 408.9168 302.490616 
L 409.3632 298.376525 
L 409.8096 300.304506 
L 410.256 292.217363 
L 410.7024 295.231081 
L 411.1488 291.33254 
L 411.5952 295.217775 
L 412.0416 294.666924 
L 412.488 298.097107 
L 412.9344 294.75341 
L 413.3808 297.693948 
L 413.8272 299.273322 
L 414.2736 299.33985 
L 414.72 298.018604 
L 414.72 298.018604 
" style="fill:none;stroke:#1f77b4;stroke-linecap:square;stroke-width:1.2;"/>
   </g>
   <g id="patch_3">
    <path d="M 57.6 307.584 
L 57.6 41.472 
" style="fill:none;stroke:#000000;stroke-linecap:square;stroke-linejoin:miter;"/>
   </g>
   <g id="patch_4">
    <path d="M 414.72 307.584 
L 414.72 41.472 
" style="fill:none;stroke:#000000;stroke-linecap:square;stroke-linejoin:miter;"/>
   </g>
   <g id="patch_5">
    <path d="M 57.6 307.584 
L 414.72 307.584 
" style="fill:none;stroke:#000000;stroke-linecap:square;stroke-linejoin:miter;"/>
   </g>
   <g id="patch_6">
    <path d="M 57.6 41.472 
L 414.72 41.472 
" style="fill:none;stroke:#000000;stroke-linecap:square;stroke-linejoin:miter;"/>
   </g>
   <g id="text_18">
    <!-- Training - NSRA-ES - Cartpole (metapopulation size 20) -->
    <g transform="translate(104.7375 35.472)scale(0.096 -0.096)">
     <defs>
      <path d="M 3513 2113 
L 3513 0 
L 2938 0 
L 2938 2094 
Q 2938 2591 2744 2837 
Q 2550 3084 2163 3084 
Q 1697 3084 1428 2787 
Q 1159 2491 1159 1978 
L 1159 0 
L 581 0 
L 581 3500 
L 1159 3500 
L 1159 2956 
Q 1366 3272 1645 3428 
Q 1925 3584 2291 3584 
Q 2894 3584 3203 3211 
Q 3513 2838 3513 2113 
z
" id="DejaVuSans-6e" transform="scale(0.015625)"/>
      <path d="M 2906 1791 
Q 2906 2416 2648 2759 
Q 2391 3103 1925 3103 
Q 1463 3103 1205 2759 
Q 947 2416 947 1791 
Q 947 1169 1205 825 
Q 1463 481 1925 481 
Q 2391 481 2648 825 
Q 2906 1169 2906 1791 
z
M 3481 434 
Q 3481 -459 3084 -895 
Q 2688 -1331 1869 -1331 
Q 1566 -1331 1297 -1286 
Q 1028 -1241 775 -1147 
L 775 -588 
Q 1028 -725 1275 -790 
Q 1522 -856 1778 -856 
Q 2344 -856 2625 -561 
Q 2906 -266 2906 331 
L 2906 616 
Q 2728 306 2450 153 
Q 2172 0 1784 0 
Q 1141 0 747 490 
Q 353 981 353 1791 
Q 353 2603 747 3093 
Q 1141 3584 1784 3584 
Q 2172 3584 2450 3431 
Q 2728 3278 2906 2969 
L 2906 3500 
L 3481 3500 
L 3481 434 
z
" id="DejaVuSans-67" transform="scale(0.015625)"/>
      <path id="DejaVuSans-20" transform="scale(0.015625)"/>
      <path d="M 313 2009 
L 1997 2009 
L 1997 1497 
L 313 1497 
L 313 2009 
z
" id="DejaVuSans-2d" transform="scale(0.015625)"/>
      <path d="M 628 4666 
L 1478 4666 
L 3547 763 
L 3547 4666 
L 4159 4666 
L 4159 0 
L 3309 0 
L 1241 3903 
L 1241 0 
L 628 0 
L 628 4666 
z
" id="DejaVuSans-4e" transform="scale(0.015625)"/>
      <path d="M 3425 4513 
L 3425 3897 
Q 3066 4069 2747 4153 
Q 2428 4238 2131 4238 
Q 1616 4238 1336 4038 
Q 1056 3838 1056 3469 
Q 1056 3159 1242 3001 
Q 1428 2844 1947 2747 
L 2328 2669 
Q 3034 2534 3370 2195 
Q 3706 1856 3706 1288 
Q 3706 609 3251 259 
Q 2797 -91 1919 -91 
Q 1588 -91 1214 -16 
Q 841 59 441 206 
L 441 856 
Q 825 641 1194 531 
Q 1563 422 1919 422 
Q 2459 422 2753 634 
Q 3047 847 3047 1241 
Q 3047 1584 2836 1778 
Q 2625 1972 2144 2069 
L 1759 2144 
Q 1053 2284 737 2584 
Q 422 2884 422 3419 
Q 422 4038 858 4394 
Q 1294 4750 2059 4750 
Q 2388 4750 2728 4690 
Q 3069 4631 3425 4513 
z
" id="DejaVuSans-53" transform="scale(0.015625)"/>
      <path d="M 2188 4044 
L 1331 1722 
L 3047 1722 
L 2188 4044 
z
M 1831 4666 
L 2547 4666 
L 4325 0 
L 3669 0 
L 3244 1197 
L 1141 1197 
L 716 0 
L 50 0 
L 1831 4666 
z
" id="DejaVuSans-41" transform="scale(0.015625)"/>
      <path d="M 628 4666 
L 3578 4666 
L 3578 4134 
L 1259 4134 
L 1259 2753 
L 3481 2753 
L 3481 2222 
L 1259 2222 
L 1259 531 
L 3634 531 
L 3634 0 
L 628 0 
L 628 4666 
z
" id="DejaVuSans-45" transform="scale(0.015625)"/>
      <path d="M 4122 4306 
L 4122 3641 
Q 3803 3938 3442 4084 
Q 3081 4231 2675 4231 
Q 1875 4231 1450 3742 
Q 1025 3253 1025 2328 
Q 1025 1406 1450 917 
Q 1875 428 2675 428 
Q 3081 428 3442 575 
Q 3803 722 4122 1019 
L 4122 359 
Q 3791 134 3420 21 
Q 3050 -91 2638 -91 
Q 1578 -91 968 557 
Q 359 1206 359 2328 
Q 359 3453 968 4101 
Q 1578 4750 2638 4750 
Q 3056 4750 3426 4639 
Q 3797 4528 4122 4306 
z
" id="DejaVuSans-43" transform="scale(0.015625)"/>
      <path d="M 1959 3097 
Q 1497 3097 1228 2736 
Q 959 2375 959 1747 
Q 959 1119 1226 758 
Q 1494 397 1959 397 
Q 2419 397 2687 759 
Q 2956 1122 2956 1747 
Q 2956 2369 2687 2733 
Q 2419 3097 1959 3097 
z
M 1959 3584 
Q 2709 3584 3137 3096 
Q 3566 2609 3566 1747 
Q 3566 888 3137 398 
Q 2709 -91 1959 -91 
Q 1206 -91 779 398 
Q 353 888 353 1747 
Q 353 2609 779 3096 
Q 1206 3584 1959 3584 
z
" id="DejaVuSans-6f" transform="scale(0.015625)"/>
      <path d="M 603 4863 
L 1178 4863 
L 1178 0 
L 603 0 
L 603 4863 
z
" id="DejaVuSans-6c" transform="scale(0.015625)"/>
      <path d="M 1984 4856 
Q 1566 4138 1362 3434 
Q 1159 2731 1159 2009 
Q 1159 1288 1364 580 
Q 1569 -128 1984 -844 
L 1484 -844 
Q 1016 -109 783 600 
Q 550 1309 550 2009 
Q 550 2706 781 3412 
Q 1013 4119 1484 4856 
L 1984 4856 
z
" id="DejaVuSans-28" transform="scale(0.015625)"/>
      <path d="M 544 1381 
L 544 3500 
L 1119 3500 
L 1119 1403 
Q 1119 906 1312 657 
Q 1506 409 1894 409 
Q 2359 409 2629 706 
Q 2900 1003 2900 1516 
L 2900 3500 
L 3475 3500 
L 3475 0 
L 2900 0 
L 2900 538 
Q 2691 219 2414 64 
Q 2138 -91 1772 -91 
Q 1169 -91 856 284 
Q 544 659 544 1381 
z
M 1991 3584 
L 1991 3584 
z
" id="DejaVuSans-75" transform="scale(0.015625)"/>
      <path d="M 353 3500 
L 3084 3500 
L 3084 2975 
L 922 459 
L 3084 459 
L 3084 0 
L 275 0 
L 275 525 
L 2438 3041 
L 353 3041 
L 353 3500 
z
" id="DejaVuSans-7a" transform="scale(0.015625)"/>
      <path d="M 513 4856 
L 1013 4856 
Q 1481 4119 1714 3412 
Q 1947 2706 1947 2009 
Q 1947 1309 1714 600 
Q 1481 -109 1013 -844 
L 513 -844 
Q 928 -128 1133 580 
Q 1338 1288 1338 2009 
Q 1338 2731 1133 3434 
Q 928 4138 513 4856 
z
" id="DejaVuSans-29" transform="scale(0.015625)"/>
     </defs>
     <use xlink:href="#DejaVuSans-54"/>
     <use x="46.333984" xlink:href="#DejaVuSans-72"/>
     <use x="87.447266" xlink:href="#DejaVuSans-61"/>
     <use x="148.726562" xlink:href="#DejaVuSans-69"/>
     <use x="176.509766" xlink:href="#DejaVuSans-6e"/>
     <use x="239.888672" xlink:href="#DejaVuSans-69"/>
     <use x="267.671875" xlink:href="#DejaVuSans-6e"/>
     <use x="331.050781" xlink:href="#DejaVuSans-67"/>
     <use x="394.527344" xlink:href="#DejaVuSans-20"/>
     <use x="426.314453" xlink:href="#DejaVuSans-2d"/>
     <use x="462.398438" xlink:href="#DejaVuSans-20"/>
     <use x="494.185547" xlink:href="#DejaVuSans-4e"/>
     <use x="568.990234" xlink:href="#DejaVuSans-53"/>
     <use x="632.466797" xlink:href="#DejaVuSans-52"/>
     <use x="697.949219" xlink:href="#DejaVuSans-41"/>
     <use x="764.107422" xlink:href="#DejaVuSans-2d"/>
     <use x="800.191406" xlink:href="#DejaVuSans-45"/>
     <use x="863.375" xlink:href="#DejaVuSans-53"/>
     <use x="926.851562" xlink:href="#DejaVuSans-20"/>
     <use x="958.638672" xlink:href="#DejaVuSans-2d"/>
     <use x="994.722656" xlink:href="#DejaVuSans-20"/>
     <use x="1026.509766" xlink:href="#DejaVuSans-43"/>
     <use x="1096.333984" xlink:href="#DejaVuSans-61"/>
     <use x="1157.613281" xlink:href="#DejaVuSans-72"/>
     <use x="1198.726562" xlink:href="#DejaVuSans-74"/>
     <use x="1237.935547" xlink:href="#DejaVuSans-70"/>
     <use x="1301.412109" xlink:href="#DejaVuSans-6f"/>
     <use x="1362.59375" xlink:href="#DejaVuSans-6c"/>
     <use x="1390.376953" xlink:href="#DejaVuSans-65"/>
     <use x="1451.900391" xlink:href="#DejaVuSans-20"/>
     <use x="1483.6875" xlink:href="#DejaVuSans-28"/>
     <use x="1522.701172" xlink:href="#DejaVuSans-6d"/>
     <use x="1620.113281" xlink:href="#DejaVuSans-65"/>
     <use x="1681.636719" xlink:href="#DejaVuSans-74"/>
     <use x="1720.845703" xlink:href="#DejaVuSans-61"/>
     <use x="1782.125" xlink:href="#DejaVuSans-70"/>
     <use x="1845.601562" xlink:href="#DejaVuSans-6f"/>
     <use x="1906.783203" xlink:href="#DejaVuSans-70"/>
     <use x="1970.259766" xlink:href="#DejaVuSans-75"/>
     <use x="2033.638672" xlink:href="#DejaVuSans-6c"/>
     <use x="2061.421875" xlink:href="#DejaVuSans-61"/>
     <use x="2122.701172" xlink:href="#DejaVuSans-74"/>
     <use x="2161.910156" xlink:href="#DejaVuSans-69"/>
     <use x="2189.693359" xlink:href="#DejaVuSans-6f"/>
     <use x="2250.875" xlink:href="#DejaVuSans-6e"/>
     <use x="2314.253906" xlink:href="#DejaVuSans-20"/>
     <use x="2346.041016" xlink:href="#DejaVuSans-73"/>
     <use x="2398.140625" xlink:href="#DejaVuSans-69"/>
     <use x="2425.923828" xlink:href="#DejaVuSans-7a"/>
     <use x="2478.414062" xlink:href="#DejaVuSans-65"/>
     <use x="2539.9375" xlink:href="#DejaVuSans-20"/>
     <use x="2571.724609" xlink:href="#DejaVuSans-32"/>
     <use x="2635.347656" xlink:href="#DejaVuSans-30"/>
     <use x="2698.970703" xlink:href="#DejaVuSans-29"/>
    </g>
   </g>
  </g>
 </g>
 <defs>
  <clipPath id="pd97439668f">
   <rect height="266.112" width="357.12" x="57.6" y="41.472"/>
  </clipPath>
 </defs>
</svg>
