<?xml version="1.0" encoding="utf-8" standalone="no"?>
<!DOCTYPE svg PUBLIC "-//W3C//DTD SVG 1.1//EN"
  "http://www.w3.org/Graphics/SVG/1.1/DTD/svg11.dtd">
<svg height="345.6pt" version="1.1" viewBox="0 0 460.8 345.6" width="460.8pt" xmlns="http://www.w3.org/2000/svg" xmlns:xlink="http://www.w3.org/1999/xlink">
 <metadata>
  <rdf:RDF xmlns:cc="http://creativecommons.org/ns#" xmlns:dc="http://purl.org/dc/elements/1.1/" xmlns:rdf="http://www.w3.org/1999/02/22-rdf-syntax-ns#">
   <cc:Work>
    <dc:type rdf:resource="http://purl.org/dc/dcmitype/StillImage"/>
    <dc:date>2021-07-22T17:33:55.721568</dc:date>
    <dc:format>image/svg+xml</dc:format>
    <dc:creator>
     <cc:Agent>
      <dc:title>Matplotlib v3.4.2, https://matplotlib.org/</dc:title>
     </cc:Agent>
    </dc:creator>
   </cc:Work>
  </rdf:RDF>
 </metadata>
 <defs>
  <style type="text/css">*{stroke-linecap:butt;stroke-linejoin:round;}</style>
 </defs>
 <g id="figure_1">
  <g id="patch_1">
   <path d="M 0 345.6 
L 460.8 345.6 
L 460.8 0 
L 0 0 
z
" style="fill:#ffffff;"/>
  </g>
  <g id="axes_1">
   <g id="patch_2">
    <path d="M 57.6 307.584 
L 414.72 307.584 
L 414.72 41.472 
L 57.6 41.472 
z
" style="fill:#ffffff;"/>
   </g>
   <g id="PolyCollection_1">
    <path clip-path="url(#p7d61056346)" d="M 57.95712 303.689451 
L 57.95712 304.391321 
L 58.31424 305.119803 
L 58.67136 303.011531 
L 59.02848 300.464173 
L 59.3856 297.658022 
L 59.74272 292.649795 
L 60.09984 289.011378 
L 60.45696 287.86377 
L 60.81408 287.439322 
L 61.1712 286.607056 
L 61.52832 289.012044 
L 61.88544 289.290796 
L 62.24256 287.784602 
L 62.59968 287.354166 
L 62.9568 286.837243 
L 63.31392 277.933136 
L 63.67104 277.078251 
L 64.02816 276.449561 
L 64.38528 276.166152 
L 64.7424 273.851643 
L 65.09952 275.766319 
L 65.45664 272.877673 
L 65.81376 270.691563 
L 66.17088 269.29514 
L 66.528 268.466201 
L 66.88512 268.09431 
L 67.24224 267.180215 
L 67.59936 264.237016 
L 67.95648 262.089492 
L 68.3136 261.830699 
L 68.67072 259.032531 
L 69.02784 258.421139 
L 69.38496 258.853571 
L 69.74208 250.692581 
L 70.0992 247.482605 
L 70.45632 251.433037 
L 70.81344 243.640613 
L 71.17056 239.114713 
L 71.52768 239.396792 
L 71.8848 227.934683 
L 72.24192 224.009531 
L 72.59904 226.481711 
L 72.95616 220.391073 
L 73.31328 217.763217 
L 73.6704 217.491117 
L 74.02752 215.6443 
L 74.38464 207.547842 
L 74.74176 201.319491 
L 75.09888 202.454459 
L 75.456 201.012797 
L 75.81312 195.965983 
L 76.17024 196.052469 
L 76.52736 190.718919 
L 76.88448 188.192186 
L 77.2416 188.109691 
L 77.59872 189.893307 
L 77.95584 187.494972 
L 78.31296 182.73689 
L 78.67008 183.610403 
L 79.0272 181.559344 
L 79.38432 177.775897 
L 79.74144 175.766751 
L 80.09856 172.490913 
L 80.45568 171.839604 
L 80.8128 168.483266 
L 81.16992 168.782642 
L 81.52704 169.994782 
L 81.88416 169.878358 
L 82.24128 168.400771 
L 82.5984 168.342892 
L 82.95552 167.208589 
L 83.31264 163.916119 
L 83.66976 165.768924 
L 84.02688 163.785059 
L 84.384 161.582316 
L 84.74112 163.370589 
L 85.09824 163.076535 
L 85.45536 161.273627 
L 85.81248 160.344896 
L 86.1696 159.264481 
L 86.52672 159.64236 
L 86.88384 159.201279 
L 87.24096 158.95446 
L 87.59808 158.165438 
L 87.9552 158.11022 
L 88.31232 159.092173 
L 88.66944 157.776915 
L 89.02656 155.801699 
L 89.38368 155.990638 
L 89.7408 154.763196 
L 90.09792 154.656752 
L 90.45504 154.685359 
L 90.81216 155.474381 
L 91.16928 153.623572 
L 91.5264 153.410682 
L 91.88352 153.58432 
L 92.24064 154.196378 
L 92.59776 154.125193 
L 92.95488 154.907562 
L 93.312 152.102076 
L 93.66912 151.549894 
L 94.02624 151.906484 
L 94.38336 151.703574 
L 94.74048 152.003615 
L 95.0976 152.417419 
L 95.45472 151.054926 
L 95.81184 151.35031 
L 96.16896 154.081284 
L 96.52608 152.694176 
L 96.8832 150.743575 
L 97.24032 150.136839 
L 97.59744 150.504739 
L 97.95456 150.446195 
L 98.31168 149.68711 
L 98.6688 158.661072 
L 99.02592 153.259664 
L 99.38304 163.231546 
L 99.74016 161.090675 
L 100.09728 152.958292 
L 100.4544 155.734505 
L 100.81152 152.235798 
L 101.16864 159.579824 
L 101.52576 148.548151 
L 101.88288 149.118296 
L 102.24 147.899503 
L 102.59712 147.864908 
L 102.95424 147.783079 
L 103.31136 146.659421 
L 103.66848 148.500916 
L 104.0256 145.569692 
L 104.38272 146.640128 
L 104.73984 145.633559 
L 105.09696 145.764619 
L 105.45408 144.384828 
L 105.8112 142.801462 
L 106.16832 142.385662 
L 106.52544 144.111398 
L 106.88256 141.856764 
L 107.23968 142.505412 
L 107.5968 142.006452 
L 107.95392 142.67772 
L 108.31104 141.158886 
L 108.66816 141.024499 
L 109.02528 142.751566 
L 109.3824 141.443626 
L 109.73952 142.695017 
L 110.09664 141.591983 
L 110.45376 141.37111 
L 110.81088 141.61926 
L 111.168 141.573355 
L 111.52512 141.498179 
L 111.88224 140.162296 
L 112.23936 140.167619 
L 112.59648 140.435726 
L 112.9536 139.867577 
L 113.31072 140.025249 
L 113.66784 139.670654 
L 114.02496 139.022006 
L 114.38208 137.718723 
L 114.7392 138.743254 
L 115.09632 139.122464 
L 115.45344 139.61211 
L 115.81056 141.921962 
L 116.16768 142.883957 
L 116.5248 141.190819 
L 116.88192 139.714563 
L 117.23904 139.64737 
L 117.59616 138.916227 
L 117.95328 139.003379 
L 118.3104 136.283714 
L 118.66752 137.262341 
L 119.02464 137.367455 
L 119.38176 136.617019 
L 119.73888 137.394732 
L 120.096 135.534609 
L 120.45312 135.209952 
L 120.81024 136.199889 
L 121.16736 138.335437 
L 121.52448 133.882718 
L 121.8816 138.018764 
L 122.23872 138.357392 
L 122.59584 135.841968 
L 122.95296 140.228824 
L 123.31008 139.156393 
L 123.6672 139.946746 
L 124.02432 135.748829 
L 124.38144 146.908901 
L 124.73856 138.912235 
L 125.09568 138.714647 
L 125.4528 138.133858 
L 125.80992 136.728121 
L 126.16704 136.611697 
L 126.52416 136.979597 
L 126.88128 134.108248 
L 127.2384 134.819433 
L 127.59552 133.836814 
L 127.95264 133.941263 
L 128.30976 133.069081 
L 128.66688 133.667833 
L 129.024 131.890205 
L 129.38112 131.350663 
L 129.73824 131.355985 
L 130.09536 131.716567 
L 130.45248 130.230331 
L 130.8096 131.092534 
L 131.16672 131.691286 
L 131.52384 131.558895 
L 131.88096 132.325298 
L 132.23808 131.187004 
L 132.5952 132.099768 
L 132.95232 131.612118 
L 133.30944 129.757317 
L 133.66656 130.914239 
L 134.02368 129.631579 
L 134.3808 132.616691 
L 134.73792 129.992161 
L 135.09504 132.35324 
L 135.45216 131.509665 
L 135.80928 135.338351 
L 136.1664 130.467836 
L 136.52352 134.746252 
L 136.88064 134.343757 
L 137.23776 134.247292 
L 137.59488 134.15881 
L 137.952 132.623343 
L 138.30912 131.433823 
L 138.66624 130.704011 
L 139.02336 126.907923 
L 139.38048 129.618939 
L 139.7376 128.129377 
L 140.09472 126.92522 
L 140.45184 126.157487 
L 140.80896 125.385762 
L 141.16608 127.299108 
L 141.5232 126.617196 
L 141.88032 125.655201 
L 142.23744 126.321811 
L 142.59456 125.397737 
L 142.95168 124.302021 
L 143.3088 126.088963 
L 143.66592 125.157571 
L 144.02304 125.492207 
L 144.38016 126.780854 
L 144.73728 124.570794 
L 145.0944 126.623183 
L 145.45152 126.231998 
L 145.80864 125.243392 
L 146.16576 126.217362 
L 146.52288 125.26069 
L 146.88 124.573455 
L 147.23712 124.663933 
L 147.59424 124.787676 
L 147.95136 124.616699 
L 148.30848 123.811044 
L 148.6656 123.96672 
L 149.02272 124.344599 
L 149.37984 124.882811 
L 149.73696 126.060356 
L 150.09408 125.567384 
L 150.4512 124.452374 
L 150.80832 125.295284 
L 151.16544 125.522145 
L 151.52256 124.683892 
L 151.87968 123.760483 
L 152.2368 125.155575 
L 152.59392 124.082479 
L 152.95104 123.657365 
L 153.30816 123.588841 
L 153.66528 123.636741 
L 154.0224 123.208301 
L 154.37952 122.938197 
L 154.73664 123.889548 
L 155.09376 126.076323 
L 155.45088 124.781023 
L 155.808 122.995411 
L 156.16512 124.174287 
L 156.52224 124.065181 
L 156.87936 124.415784 
L 157.23648 124.999235 
L 157.5936 122.549008 
L 157.95072 125.354494 
L 158.30784 123.77645 
L 158.66496 123.844974 
L 159.02208 124.012624 
L 159.3792 123.495036 
L 159.73632 123.443145 
L 160.09344 123.220941 
L 160.45056 122.57695 
L 160.80768 123.410546 
L 161.1648 123.445806 
L 161.52192 123.115827 
L 161.87904 124.055868 
L 162.23616 122.670089 
L 162.59328 123.139112 
L 162.9504 122.930214 
L 163.30752 123.207636 
L 163.66464 125.817529 
L 164.02176 122.651461 
L 164.37888 123.254205 
L 164.736 124.134371 
L 165.09312 123.735868 
L 165.45024 124.018612 
L 165.80736 122.00614 
L 166.16448 121.896369 
L 166.5216 121.221109 
L 166.87872 121.905017 
L 167.23584 123.258862 
L 167.59296 121.952252 
L 167.95008 122.564975 
L 168.3072 122.768551 
L 168.66432 124.119069 
L 169.02144 122.615536 
L 169.37856 123.062604 
L 169.73568 122.552335 
L 170.0928 124.738445 
L 170.44992 121.796577 
L 170.80704 123.619444 
L 171.16416 126.186094 
L 171.52128 123.986013 
L 171.8784 123.279486 
L 172.23552 122.823769 
L 172.59264 123.469756 
L 172.94976 124.915409 
L 173.30688 123.934121 
L 173.664 122.241649 
L 174.02112 120.748095 
L 174.37824 122.667428 
L 174.73536 121.854456 
L 175.09248 122.865016 
L 175.4496 121.775288 
L 175.80672 120.958989 
L 176.16384 118.2992 
L 176.52096 118.992421 
L 176.87808 119.812712 
L 177.2352 120.196578 
L 177.59232 118.995083 
L 177.94944 119.254542 
L 178.30656 119.780778 
L 178.66368 120.201235 
L 179.0208 118.708347 
L 179.37792 120.35425 
L 179.73504 121.471255 
L 180.09216 119.205976 
L 180.44928 120.03425 
L 180.8064 118.660447 
L 181.16352 117.786269 
L 181.52064 119.926475 
L 181.87776 118.069678 
L 182.23488 121.021525 
L 182.592 119.595165 
L 182.94912 121.071421 
L 183.30624 119.359656 
L 183.66336 122.242314 
L 184.02048 123.209631 
L 184.3776 121.211796 
L 184.73472 121.996161 
L 185.09184 121.117326 
L 185.44896 119.909177 
L 185.80608 120.472004 
L 186.1632 118.6671 
L 186.52032 117.910676 
L 186.87744 117.933961 
L 187.23456 118.293212 
L 187.59168 118.479491 
L 187.9488 118.114917 
L 188.30592 117.116332 
L 188.66304 117.841487 
L 189.02016 117.72972 
L 189.37728 117.639242 
L 189.7344 117.146269 
L 190.09152 117.68315 
L 190.44864 116.57679 
L 190.80576 117.015209 
L 191.16288 118.053046 
L 191.52 117.605313 
L 191.87712 117.31392 
L 192.23424 116.475667 
L 192.59136 117.277995 
L 192.94848 117.745021 
L 193.3056 117.316581 
L 193.66272 116.660615 
L 194.01984 116.677247 
L 194.37696 117.068432 
L 194.73408 117.381779 
L 195.0912 116.723817 
L 195.44832 117.252714 
L 195.80544 116.314669 
L 196.16256 117.093047 
L 196.51968 116.103776 
L 196.8768 116.843567 
L 197.23392 117.416373 
L 197.59104 116.769721 
L 197.94816 117.911341 
L 198.30528 117.745687 
L 198.6624 116.855542 
L 199.01952 117.274668 
L 199.37664 118.244647 
L 199.73376 117.381113 
L 200.09088 117.905354 
L 200.448 116.92074 
L 200.80512 116.096458 
L 201.16224 115.920158 
L 201.51936 116.064524 
L 201.87648 114.286896 
L 202.2336 114.572966 
L 202.59072 115.154421 
L 202.94784 114.821781 
L 203.30496 117.343858 
L 203.66208 115.503028 
L 204.0192 114.328809 
L 204.37632 115.409889 
L 204.73344 115.315419 
L 205.09056 115.296791 
L 205.44768 115.513007 
L 205.8048 114.949515 
L 206.16192 115.541614 
L 206.51904 115.166396 
L 206.87616 113.962905 
L 207.23328 115.371302 
L 207.5904 114.382696 
L 207.94752 114.423944 
L 208.30464 114.731303 
L 208.66176 114.274921 
L 209.01888 114.576958 
L 209.376 114.739286 
L 209.73312 114.921573 
L 210.09024 115.162404 
L 210.44736 114.668767 
L 210.80448 114.437249 
L 211.1616 115.50835 
L 211.51872 115.293465 
L 211.87584 115.999327 
L 212.23296 115.596832 
L 212.59008 115.324068 
L 212.9472 116.014628 
L 213.30432 115.411884 
L 213.66144 115.833672 
L 214.01856 115.457789 
L 214.37568 114.638164 
L 214.7328 114.459869 
L 215.08992 114.198414 
L 215.44704 114.394671 
L 215.80416 116.180948 
L 216.16128 114.785856 
L 216.5184 117.607974 
L 216.87552 114.739286 
L 217.23264 116.070512 
L 217.58976 114.821116 
L 217.94688 113.666855 
L 218.304 114.711345 
L 218.66112 114.465191 
L 219.01824 114.560326 
L 219.37536 114.367395 
L 219.73248 115.048642 
L 220.0896 114.346106 
L 220.44672 114.842405 
L 220.80384 114.10594 
L 221.16096 115.202987 
L 221.51808 114.290222 
L 221.8752 113.921657 
L 222.23232 115.789764 
L 222.58944 114.567644 
L 222.94656 114.060701 
L 223.30368 115.668683 
L 223.6608 116.329971 
L 224.01792 115.056625 
L 224.37504 116.333297 
L 224.73216 116.00731 
L 225.08928 115.671344 
L 225.4464 115.811052 
L 225.80352 115.940782 
L 226.16064 115.123153 
L 226.51776 114.980783 
L 226.87488 114.578954 
L 227.232 113.306273 
L 227.58912 113.634256 
L 227.94624 113.577042 
L 228.30336 112.2059 
L 228.66048 113.953591 
L 229.0176 111.868603 
L 229.37472 113.629599 
L 229.73184 111.45746 
L 230.08896 113.245733 
L 230.44608 113.972219 
L 230.8032 111.449477 
L 231.16032 113.245068 
L 231.51744 112.668935 
L 231.87456 112.349601 
L 232.23168 112.076836 
L 232.5888 112.529892 
L 232.94592 113.188519 
L 233.30304 112.319663 
L 233.66016 111.30378 
L 234.01728 112.331638 
L 234.3744 110.282576 
L 234.73152 112.901118 
L 235.08864 111.6464 
L 235.44576 110.885985 
L 235.80288 112.760078 
L 236.16 112.440079 
L 236.51712 111.355007 
L 236.87424 111.050309 
L 237.23136 112.91775 
L 237.58848 112.199913 
L 237.9456 112.328977 
L 238.30272 110.414966 
L 238.65984 110.586609 
L 239.01696 111.364321 
L 239.37408 111.690308 
L 239.7312 111.03035 
L 240.08832 111.791431 
L 240.44544 111.324404 
L 240.80256 110.830766 
L 241.15968 111.761493 
L 241.5168 111.158084 
L 241.87392 110.738292 
L 242.23104 110.466193 
L 242.58816 109.900705 
L 242.94528 110.067025 
L 243.3024 108.870186 
L 243.65952 109.731059 
L 244.01664 109.816214 
L 244.37376 110.420289 
L 244.73088 109.82952 
L 245.088 109.214801 
L 245.44512 110.454883 
L 245.80224 109.439666 
L 246.15936 108.688565 
L 246.51648 108.610062 
L 246.8736 109.043159 
L 247.23072 107.799751 
L 247.58784 108.069854 
L 247.94496 111.013718 
L 248.30208 112.404154 
L 248.6592 109.559416 
L 249.01632 108.230187 
L 249.37344 109.262701 
L 249.73056 110.337129 
L 250.08768 108.111767 
L 250.4448 108.562827 
L 250.80192 107.636757 
L 251.15904 108.357255 
L 251.51616 108.126403 
L 251.87328 107.461788 
L 252.2304 106.934887 
L 252.58752 107.290146 
L 252.94464 106.879003 
L 253.30176 106.79917 
L 253.65888 106.278921 
L 254.016 107.151103 
L 254.37312 107.636757 
L 254.73024 106.587611 
L 255.08736 108.612058 
L 255.44448 107.853638 
L 255.8016 106.210397 
L 256.15872 107.419876 
L 256.51584 107.331394 
L 256.87296 106.179129 
L 257.23008 106.91892 
L 257.5872 107.487734 
L 257.94432 107.638088 
L 258.30144 107.020708 
L 258.65856 106.419295 
L 259.01568 107.123161 
L 259.3728 107.112516 
L 259.72992 106.937548 
L 260.08704 105.587029 
L 260.44416 107.389938 
L 260.80128 106.136551 
L 261.1584 106.705365 
L 261.51552 106.407985 
L 261.87264 106.333474 
L 262.22976 106.889648 
L 262.58688 105.962247 
L 262.944 106.228359 
L 263.30112 107.388608 
L 263.65824 106.473848 
L 264.01536 107.165074 
L 264.37248 105.772643 
L 264.7296 106.449232 
L 265.08672 105.687487 
L 265.44384 105.951603 
L 265.80096 105.881083 
L 266.15808 105.875096 
L 266.5152 105.114681 
L 266.87232 105.286323 
L 267.22944 105.648235 
L 267.58656 105.096718 
L 267.94368 105.365491 
L 268.3008 104.678257 
L 268.65792 104.496636 
L 269.01504 104.412145 
L 269.37216 104.89913 
L 269.72928 104.436095 
L 270.0864 103.580545 
L 270.44352 103.459464 
L 270.80064 104.3057 
L 271.15776 104.136719 
L 271.51488 104.38886 
L 271.872 104.573143 
L 272.22912 103.667697 
L 272.58624 104.442083 
L 272.94336 103.344371 
L 273.30048 104.219214 
L 273.6576 104.054224 
L 274.01472 104.233185 
L 274.37184 103.03435 
L 274.72896 103.529984 
L 275.08608 103.368321 
L 275.4432 102.626533 
L 275.80032 104.018299 
L 276.15744 103.694308 
L 276.51456 102.771564 
L 276.87168 103.04566 
L 277.2288 102.730982 
L 277.58592 103.573892 
L 277.94304 106.846404 
L 278.30016 104.684244 
L 278.65728 103.774807 
L 279.0144 103.261876 
L 279.37152 103.249236 
L 279.72864 103.48674 
L 280.08576 102.009819 
L 280.44288 102.406326 
L 280.8 101.408406 
L 281.15712 101.656555 
L 281.51424 101.956596 
L 281.87136 101.960588 
L 282.22848 101.657886 
L 282.5856 102.218717 
L 282.94272 101.111026 
L 283.29984 101.182211 
L 283.65696 101.895391 
L 284.01408 101.162252 
L 284.3712 101.004581 
L 284.72832 100.617388 
L 285.08544 101.14429 
L 285.44256 101.817553 
L 285.79968 98.858388 
L 286.1568 101.064456 
L 286.51392 101.511524 
L 286.87104 101.103042 
L 287.22816 101.262044 
L 287.58528 101.02587 
L 287.9424 100.946036 
L 288.29952 100.08716 
L 288.65664 99.463792 
L 289.01376 100.013979 
L 289.37088 100.20558 
L 289.728 99.507036 
L 290.08512 100.71718 
L 290.44224 99.147784 
L 290.79936 99.444499 
L 291.15648 98.537057 
L 291.5136 98.970155 
L 291.87072 97.988867 
L 292.22784 98.798512 
L 292.58496 98.702712 
L 292.94208 97.59236 
L 293.2992 97.612318 
L 293.65632 98.258305 
L 294.01344 96.931737 
L 294.37056 96.157351 
L 294.72768 96.646332 
L 295.0848 98.273606 
L 295.44192 97.683503 
L 295.79904 97.440011 
L 296.15616 95.890573 
L 296.51328 96.972984 
L 296.8704 96.522589 
L 297.22752 97.562422 
L 297.58464 97.370156 
L 297.94176 97.98421 
L 298.29888 99.328075 
L 298.656 98.572317 
L 299.01312 98.714022 
L 299.37024 95.710283 
L 299.72736 94.609909 
L 300.08448 95.696977 
L 300.4416 96.364918 
L 300.79872 96.426789 
L 301.15584 95.356354 
L 301.51296 97.546455 
L 301.87008 97.118015 
L 302.2272 97.740052 
L 302.58432 98.095311 
L 302.94144 97.023545 
L 303.29856 97.603004 
L 303.65568 95.472112 
L 304.0128 95.613817 
L 304.36992 96.662964 
L 304.72704 95.435522 
L 305.08416 94.758267 
L 305.44128 94.403007 
L 305.7984 94.643839 
L 306.15552 94.422966 
L 306.51264 93.462967 
L 306.86976 94.371074 
L 307.22688 94.38571 
L 307.584 94.110284 
L 307.94112 94.691739 
L 308.29824 92.769745 
L 308.65536 92.973986 
L 309.01248 94.176812 
L 309.3696 94.241344 
L 309.72672 99.232275 
L 310.08384 97.553773 
L 310.44096 98.355436 
L 310.79808 98.652816 
L 311.1552 97.599012 
L 311.51232 96.51128 
L 311.86944 97.256393 
L 312.22656 98.270945 
L 312.58368 96.604419 
L 312.9408 96.998265 
L 313.29792 100.181629 
L 313.65504 102.384372 
L 314.01216 102.859381 
L 314.36928 103.105535 
L 314.7264 100.799675 
L 315.08352 98.132567 
L 315.44064 98.56766 
L 315.79776 97.919012 
L 316.15488 98.489822 
L 316.512 98.088659 
L 316.86912 96.478681 
L 317.22624 98.890321 
L 317.58336 93.773652 
L 317.94048 93.023882 
L 318.2976 96.599762 
L 318.65472 92.74513 
L 319.01184 94.615232 
L 319.36896 95.201343 
L 319.72608 94.407664 
L 320.0832 97.167911 
L 320.44032 96.4534 
L 320.79744 97.343545 
L 321.15456 96.754772 
L 321.51168 96.775396 
L 321.8688 92.406502 
L 322.22592 92.581471 
L 322.58304 92.003342 
L 322.94016 91.054653 
L 323.29728 94.863381 
L 323.6544 94.39835 
L 324.01152 94.915273 
L 324.36864 93.609328 
L 324.72576 91.065298 
L 325.08288 90.56035 
L 325.44 90.006172 
L 325.79712 89.897731 
L 326.15424 89.390123 
L 326.51136 89.90771 
L 326.86848 89.185882 
L 327.2256 89.768002 
L 327.58272 91.393281 
L 327.93984 88.796028 
L 328.29696 90.569664 
L 328.65408 93.130992 
L 329.0112 89.587711 
L 329.36832 92.729163 
L 329.72544 90.392034 
L 330.08256 91.237605 
L 330.43968 88.639687 
L 330.7968 88.045592 
L 331.15392 88.576485 
L 331.51104 87.848004 
L 331.86816 89.071453 
L 332.22528 87.836028 
L 332.5824 88.174656 
L 332.93952 87.664386 
L 333.29664 87.122848 
L 333.65376 87.609168 
L 334.01088 88.647005 
L 334.368 87.660395 
L 334.72512 87.985051 
L 335.08224 88.90979 
L 335.43936 88.857233 
L 335.79648 89.436692 
L 336.1536 88.17133 
L 336.51072 89.455985 
L 336.86784 88.273117 
L 337.22496 89.328252 
L 337.58208 88.400851 
L 337.9392 86.566674 
L 338.29632 86.126259 
L 338.65344 86.281269 
L 339.01056 85.842184 
L 339.36768 85.640604 
L 339.7248 86.560021 
L 340.08192 87.142141 
L 340.43904 85.313952 
L 340.79616 86.558691 
L 341.15328 84.466385 
L 341.5104 84.640023 
L 341.86752 84.652664 
L 342.22464 87.977068 
L 342.58176 86.570666 
L 342.93888 86.799522 
L 343.296 88.046257 
L 343.65312 86.62788 
L 344.01024 89.03952 
L 344.36736 90.150538 
L 344.72448 88.736152 
L 345.0816 86.214076 
L 345.43872 94.164172 
L 345.79584 87.805426 
L 346.15296 94.673776 
L 346.51008 89.018896 
L 346.8672 88.853907 
L 347.22432 87.583222 
L 347.58144 88.541225 
L 347.93856 91.295484 
L 348.29568 92.029288 
L 348.6528 88.961682 
L 349.00992 88.079521 
L 349.36704 86.362433 
L 349.72416 87.927837 
L 350.08128 87.657733 
L 350.4384 82.680108 
L 350.79552 82.272957 
L 351.15264 81.534496 
L 351.50976 79.945808 
L 351.86688 81.08011 
L 352.224 78.94057 
L 352.58112 77.813585 
L 352.93824 79.403604 
L 353.29536 81.837199 
L 353.65248 80.240527 
L 354.0096 80.255163 
L 354.36672 75.480448 
L 354.72384 77.536829 
L 355.08096 74.964191 
L 355.43808 72.686938 
L 355.7952 74.781239 
L 356.15232 72.156709 
L 356.50944 71.772843 
L 356.86656 72.136086 
L 357.22368 71.667063 
L 357.5808 74.43995 
L 357.93792 71.811429 
L 358.29504 78.136246 
L 358.65216 74.447268 
L 359.00928 75.375334 
L 359.3664 76.604772 
L 359.72352 78.763605 
L 360.08064 79.793459 
L 360.43776 82.171835 
L 360.79488 83.556282 
L 361.152 79.629134 
L 361.50912 77.365852 
L 361.86624 85.452996 
L 362.22336 85.190875 
L 362.58048 84.089837 
L 362.9376 83.990045 
L 363.29472 87.094907 
L 363.65184 85.874783 
L 364.00896 86.290583 
L 364.36608 86.931913 
L 364.7232 86.436279 
L 365.08032 85.87944 
L 365.43744 82.93225 
L 365.79456 86.325843 
L 366.15168 87.253908 
L 366.5088 85.743723 
L 366.86592 85.506218 
L 367.22304 86.92526 
L 367.58016 86.903306 
L 367.93728 86.837443 
L 368.2944 87.076279 
L 368.65152 86.021145 
L 369.00864 85.256073 
L 369.36576 85.709794 
L 369.72288 85.378484 
L 370.08 84.996613 
L 370.43712 85.051166 
L 370.79424 85.424388 
L 371.15136 85.401104 
L 371.50848 84.837612 
L 371.8656 81.184559 
L 372.22272 83.614827 
L 372.57984 84.440439 
L 372.93696 84.735824 
L 373.29408 84.514951 
L 373.6512 83.385305 
L 374.00832 84.950709 
L 374.36544 77.735082 
L 374.72256 84.969337 
L 375.07968 84.79836 
L 375.4368 84.35861 
L 375.79392 83.722602 
L 376.15104 84.320689 
L 376.50816 81.44801 
L 376.86528 85.241436 
L 377.2224 84.682601 
L 377.57952 85.014576 
L 377.93664 84.910127 
L 378.29376 86.609917 
L 378.65088 87.449501 
L 379.008 90.533074 
L 379.36512 92.464381 
L 379.72224 87.545966 
L 380.07936 85.079773 
L 380.43648 84.623391 
L 380.7936 87.772827 
L 381.15072 89.626962 
L 381.50784 85.846176 
L 381.86496 85.09574 
L 382.22208 87.392952 
L 382.5792 88.805341 
L 382.93632 86.277943 
L 383.29344 86.636529 
L 383.65056 86.794865 
L 384.00768 87.219979 
L 384.3648 85.86813 
L 384.72192 85.769669 
L 385.07904 83.762519 
L 385.43616 83.427883 
L 385.79328 83.864972 
L 386.1504 85.641935 
L 386.50752 80.658323 
L 386.86464 80.152044 
L 387.22176 75.692673 
L 387.57888 73.589057 
L 387.936 75.006104 
L 388.29312 79.479446 
L 388.65024 77.633294 
L 389.00736 75.341405 
L 389.36448 78.792212 
L 389.7216 76.663981 
L 390.07872 79.53666 
L 390.43584 79.810756 
L 390.79296 78.95454 
L 391.15008 74.578994 
L 391.5072 74.934919 
L 391.86432 75.81708 
L 392.22144 70.337834 
L 392.57856 70.217418 
L 392.93568 71.286523 
L 393.2928 70.870723 
L 393.64992 75.826394 
L 394.00704 77.00527 
L 394.36416 77.70714 
L 394.72128 82.10065 
L 395.0784 82.761273 
L 395.43552 83.022728 
L 395.79264 83.298154 
L 396.14976 83.650087 
L 396.50688 83.600856 
L 396.864 83.966095 
L 397.22112 84.962684 
L 397.57824 85.395116 
L 397.93536 84.324015 
L 398.29248 84.055908 
L 398.6496 83.406594 
L 399.00672 83.994702 
L 399.36384 86.208088 
L 399.72096 84.243516 
L 400.07808 84.500315 
L 400.4352 84.279442 
L 400.79232 83.668049 
L 401.14944 82.879027 
L 401.50656 80.858572 
L 401.86368 75.302819 
L 402.2208 71.679038 
L 402.57792 71.405608 
L 402.93504 69.93534 
L 403.29216 68.9627 
L 403.64928 70.385069 
L 404.0064 71.569932 
L 404.36352 70.667813 
L 404.72064 74.634212 
L 405.07776 76.333337 
L 405.43488 79.516037 
L 405.792 77.139657 
L 406.14912 75.648764 
L 406.50624 74.111967 
L 406.86336 76.444439 
L 407.22048 81.854496 
L 407.5776 78.764936 
L 407.93472 75.727932 
L 408.29184 77.944645 
L 408.64896 77.333253 
L 409.00608 80.133417 
L 409.3632 80.847262 
L 409.72032 80.382231 
L 410.07744 80.245849 
L 410.43456 81.878446 
L 410.79168 81.847843 
L 411.1488 76.685936 
L 411.50592 77.945311 
L 411.86304 75.105896 
L 412.22016 78.94057 
L 412.57728 80.474705 
L 412.9344 81.225141 
L 413.29152 76.898825 
L 413.64864 81.422729 
L 414.00576 78.904644 
L 414.36288 81.623644 
L 414.72 80.838613 
L 414.72 68.237545 
L 414.72 68.237545 
L 414.36288 66.396715 
L 414.00576 66.008857 
L 413.64864 66.243036 
L 413.29152 66.912307 
L 412.9344 65.277049 
L 412.57728 66.152557 
L 412.22016 65.173931 
L 411.86304 65.870479 
L 411.50592 65.766695 
L 411.1488 66.714719 
L 410.79168 69.243448 
L 410.43456 66.992806 
L 410.07744 67.644115 
L 409.72032 66.813846 
L 409.3632 67.481122 
L 409.00608 68.500331 
L 408.64896 68.978002 
L 408.29184 67.966111 
L 407.93472 67.507068 
L 407.5776 66.406694 
L 407.22048 65.944325 
L 406.86336 66.225738 
L 406.50624 66.934261 
L 406.14912 66.861746 
L 405.792 67.152473 
L 405.43488 67.008773 
L 405.07776 67.556964 
L 404.72064 65.867818 
L 404.36352 65.98158 
L 404.0064 67.515051 
L 403.64928 65.617007 
L 403.29216 66.40869 
L 402.93504 66.130603 
L 402.57792 65.841206 
L 402.2208 66.62158 
L 401.86368 66.810519 
L 401.50656 65.195885 
L 401.14944 66.628898 
L 400.79232 65.95763 
L 400.4352 64.653682 
L 400.07808 65.809938 
L 399.72096 65.679543 
L 399.36384 66.117963 
L 399.00672 66.348815 
L 398.6496 65.726113 
L 398.29248 67.835716 
L 397.93536 67.618835 
L 397.57824 66.649522 
L 397.22112 67.902909 
L 396.864 66.471227 
L 396.50688 67.031392 
L 396.14976 67.661412 
L 395.79264 68.345986 
L 395.43552 67.26424 
L 395.0784 66.185821 
L 394.72128 68.337337 
L 394.36416 66.211767 
L 394.00704 65.717464 
L 393.64992 65.388151 
L 393.2928 65.156633 
L 392.93568 65.523203 
L 392.57856 64.818006 
L 392.22144 65.511228 
L 391.86432 65.733431 
L 391.5072 65.486612 
L 391.15008 67.320789 
L 390.79296 67.690685 
L 390.43584 68.19031 
L 390.07872 65.424076 
L 389.7216 68.004032 
L 389.36448 68.544239 
L 389.00736 67.605529 
L 388.65024 69.222159 
L 388.29312 68.079208 
L 387.936 68.561536 
L 387.57888 68.19031 
L 387.22176 68.07189 
L 386.86464 68.093179 
L 386.50752 68.334676 
L 386.1504 68.295424 
L 385.79328 66.920956 
L 385.43616 67.03738 
L 385.07904 67.492431 
L 384.72192 67.032058 
L 384.3648 68.208273 
L 384.00768 68.222244 
L 383.65056 67.960788 
L 383.29344 68.731183 
L 382.93632 67.914884 
L 382.5792 68.277462 
L 382.22208 69.222825 
L 381.86496 67.473138 
L 381.50784 68.39189 
L 381.15072 68.372597 
L 380.7936 68.590809 
L 380.43648 69.031889 
L 380.07936 68.456422 
L 379.72224 69.679207 
L 379.36512 69.680537 
L 379.008 68.909478 
L 378.65088 68.381911 
L 378.29376 69.08112 
L 377.93664 68.097836 
L 377.57952 67.73925 
L 377.2224 67.641454 
L 376.86528 69.132347 
L 376.50816 68.731848 
L 376.15104 68.917461 
L 375.79392 68.485694 
L 375.4368 68.455757 
L 375.07968 68.537586 
L 374.72256 68.185653 
L 374.36544 69.457003 
L 374.00832 67.494427 
L 373.6512 67.081288 
L 373.29408 66.57368 
L 372.93696 66.356798 
L 372.57984 67.592889 
L 372.22272 68.51031 
L 371.8656 67.147816 
L 371.50848 65.749398 
L 371.15136 67.366693 
L 370.79424 68.228231 
L 370.43712 67.921537 
L 370.08 68.793054 
L 369.72288 68.996629 
L 369.36576 68.770434 
L 369.00864 68.277462 
L 368.65152 69.155631 
L 368.2944 69.105735 
L 367.93728 67.770518 
L 367.58016 67.420581 
L 367.22304 67.295508 
L 366.86592 67.046028 
L 366.5088 67.211683 
L 366.15168 67.21501 
L 365.79456 67.701329 
L 365.43744 67.647442 
L 365.08032 67.174428 
L 364.7232 67.872972 
L 364.36608 67.001455 
L 364.00896 67.254926 
L 363.65184 67.330103 
L 363.29472 67.501745 
L 362.9376 67.569604 
L 362.58048 67.140498 
L 362.22336 67.705321 
L 361.86624 67.075301 
L 361.50912 66.4679 
L 361.152 67.449853 
L 360.79488 66.734677 
L 360.43776 68.283449 
L 360.08064 68.673303 
L 359.72352 68.90349 
L 359.3664 68.522285 
L 359.00928 69.309976 
L 358.65216 69.160954 
L 358.29504 68.580164 
L 357.93792 67.44187 
L 357.5808 67.874967 
L 357.22368 68.874218 
L 356.86656 66.49052 
L 356.50944 67.77318 
L 356.15232 67.748564 
L 355.7952 67.911558 
L 355.43808 68.377919 
L 355.08096 68.871557 
L 354.72384 67.869645 
L 354.36672 70.119622 
L 354.0096 67.902244 
L 353.65248 66.488524 
L 353.29536 67.022078 
L 352.93824 66.733347 
L 352.58112 68.02399 
L 352.224 68.817669 
L 351.86688 68.171682 
L 351.50976 70.089019 
L 351.15264 69.419082 
L 350.79552 68.882201 
L 350.4384 69.363864 
L 350.08128 69.703157 
L 349.72416 71.237292 
L 349.36704 69.518874 
L 349.00992 71.144819 
L 348.6528 73.768683 
L 348.29568 69.715797 
L 347.93856 73.025565 
L 347.58144 71.592552 
L 347.22432 73.881115 
L 346.8672 73.015586 
L 346.51008 72.591137 
L 346.15296 74.435959 
L 345.79584 72.153383 
L 345.43872 71.355047 
L 345.0816 71.221326 
L 344.72448 70.930598 
L 344.36736 71.834049 
L 344.01024 73.513215 
L 343.65312 73.9044 
L 343.296 78.384396 
L 342.93888 71.830722 
L 342.58176 74.143901 
L 342.22464 74.082695 
L 341.86752 72.696252 
L 341.5104 75.028723 
L 341.15328 75.609513 
L 340.79616 73.482612 
L 340.43904 72.356959 
L 340.08192 69.777003 
L 339.7248 72.583154 
L 339.36768 69.858832 
L 339.01056 70.597958 
L 338.65344 71.238623 
L 338.29632 70.486857 
L 337.9392 71.053675 
L 337.58208 71.672386 
L 337.22496 71.046357 
L 336.86784 70.889351 
L 336.51072 72.544568 
L 336.1536 71.581242 
L 335.79648 71.904568 
L 335.43936 70.212761 
L 335.08224 69.952637 
L 334.72512 67.751891 
L 334.368 68.596131 
L 334.01088 71.717625 
L 333.65376 70.522116 
L 333.29664 73.151968 
L 332.93952 73.023569 
L 332.5824 73.724774 
L 332.22528 72.301075 
L 331.86816 70.834798 
L 331.51104 72.435462 
L 331.15392 73.318954 
L 330.7968 73.430055 
L 330.43968 74.484524 
L 330.08256 74.242362 
L 329.72544 74.976166 
L 329.36832 72.995628 
L 329.0112 73.3928 
L 328.65408 73.025565 
L 328.29696 74.211759 
L 327.93984 72.144734 
L 327.58272 76.599449 
L 327.2256 76.304065 
L 326.86848 75.439201 
L 326.51136 74.904981 
L 326.15424 75.104565 
L 325.79712 74.459244 
L 325.44 75.900905 
L 325.08288 73.475294 
L 324.72576 70.480869 
L 324.36864 71.904568 
L 324.01152 72.841283 
L 323.6544 73.770013 
L 323.29728 76.057246 
L 322.94016 71.558623 
L 322.58304 70.725692 
L 322.22592 75.797122 
L 321.8688 72.814671 
L 321.51168 72.05093 
L 321.15456 71.522032 
L 320.79744 72.791387 
L 320.44032 71.967105 
L 320.0832 72.780742 
L 319.72608 71.258581 
L 319.36896 74.207102 
L 319.01184 75.377995 
L 318.65472 77.506891 
L 318.2976 75.533005 
L 317.94048 74.78257 
L 317.58336 75.324773 
L 317.22624 76.369928 
L 316.86912 75.715292 
L 316.512 76.19629 
L 316.15488 75.443193 
L 315.79776 73.70282 
L 315.44064 73.864483 
L 315.08352 71.164112 
L 314.7264 72.951719 
L 314.36928 72.484027 
L 314.01216 71.673716 
L 313.65504 72.460077 
L 313.29792 72.335004 
L 312.9408 72.552551 
L 312.58368 72.681615 
L 312.22656 73.260409 
L 311.86944 72.547229 
L 311.51232 72.342988 
L 311.1552 73.810596 
L 310.79808 73.057499 
L 310.44096 73.520533 
L 310.08384 75.070636 
L 309.72672 76.523607 
L 309.3696 79.889259 
L 309.01248 82.000858 
L 308.65536 82.684765 
L 308.29824 82.902312 
L 307.94112 81.137324 
L 307.584 80.255163 
L 307.22688 84.228215 
L 306.86976 80.644352 
L 306.51264 81.683519 
L 306.15552 79.172087 
L 305.7984 80.366265 
L 305.44128 79.430881 
L 305.08416 79.168761 
L 304.72704 79.489426 
L 304.36992 79.172087 
L 304.0128 75.932839 
L 303.65568 75.926186 
L 303.29856 74.807185 
L 302.94144 74.428641 
L 302.58432 73.503901 
L 302.2272 74.55704 
L 301.87008 73.59438 
L 301.51296 75.145147 
L 301.15584 76.184315 
L 300.79872 76.689262 
L 300.4416 76.687266 
L 300.08448 76.083857 
L 299.72736 76.457079 
L 299.37024 75.974086 
L 299.01312 76.473046 
L 298.656 76.349969 
L 298.29888 77.007931 
L 297.94176 77.154958 
L 297.58464 77.555457 
L 297.22752 77.248097 
L 296.8704 76.8629 
L 296.51328 77.037869 
L 296.15616 77.143648 
L 295.79904 76.902152 
L 295.44192 77.70581 
L 295.0848 77.321278 
L 294.72768 76.963357 
L 294.37056 77.35055 
L 294.01344 77.403108 
L 293.65632 77.731756 
L 293.2992 77.689178 
L 292.94208 78.004521 
L 292.58496 78.565352 
L 292.22784 77.803606 
L 291.87072 77.95529 
L 291.5136 77.750384 
L 291.15648 78.141568 
L 290.79936 78.818158 
L 290.44224 78.831464 
L 290.08512 78.28926 
L 289.728 78.768927 
L 289.37088 78.357784 
L 289.01376 77.941984 
L 288.65664 78.35845 
L 288.29952 78.498824 
L 287.9424 78.37109 
L 287.58528 77.876787 
L 287.22816 78.832794 
L 286.87104 79.674373 
L 286.51392 79.421567 
L 286.1568 79.138158 
L 285.79968 79.172087 
L 285.44256 79.734914 
L 285.08544 80.360942 
L 284.72832 82.291585 
L 284.3712 80.713541 
L 284.01408 79.924519 
L 283.65696 81.992209 
L 283.29984 79.378324 
L 282.94272 81.245765 
L 282.5856 79.673043 
L 282.22848 79.551962 
L 281.87136 79.993043 
L 281.51424 79.404935 
L 281.15712 79.478116 
L 280.8 79.661733 
L 280.44288 80.10481 
L 280.08576 80.217907 
L 279.72864 80.003022 
L 279.37152 79.96244 
L 279.0144 80.029633 
L 278.65728 79.589883 
L 278.30016 80.142731 
L 277.94304 81.696159 
L 277.58592 81.961606 
L 277.2288 80.954372 
L 276.87168 81.116035 
L 276.51456 82.342146 
L 276.15744 81.268384 
L 275.80032 79.767513 
L 275.4432 80.456743 
L 275.08608 79.126183 
L 274.72896 79.502731 
L 274.37184 79.857325 
L 274.01472 79.758864 
L 273.6576 79.271214 
L 273.30048 80.056244 
L 272.94336 80.575828 
L 272.58624 80.421483 
L 272.22912 79.934498 
L 271.872 81.224476 
L 271.51488 80.888509 
L 271.15776 81.712126 
L 270.80064 82.282936 
L 270.44352 81.695494 
L 270.0864 82.737988 
L 269.72928 81.465307 
L 269.37216 81.256409 
L 269.01504 81.127345 
L 268.65792 82.058737 
L 268.3008 82.01749 
L 267.94368 81.49591 
L 267.58656 82.269631 
L 267.22944 82.093332 
L 266.87232 82.431294 
L 266.5152 82.855077 
L 266.15808 82.348134 
L 265.80096 82.474537 
L 265.44384 82.87437 
L 265.08672 82.528425 
L 264.7296 82.927593 
L 264.37248 84.043267 
L 264.01536 83.47911 
L 263.65824 85.400438 
L 263.30112 83.715949 
L 262.944 86.262641 
L 262.58688 87.146133 
L 262.22976 87.84002 
L 261.87264 88.63636 
L 261.51552 92.137064 
L 261.1584 87.615821 
L 260.80128 87.060312 
L 260.44416 85.335906 
L 260.08704 85.313287 
L 259.72992 84.324681 
L 259.3728 86.078359 
L 259.01568 86.466882 
L 258.65856 87.184054 
L 258.30144 86.419647 
L 257.94432 88.013658 
L 257.5872 87.14946 
L 257.23008 87.337068 
L 256.87296 85.451 
L 256.51584 84.807674 
L 256.15872 85.631956 
L 255.8016 88.809998 
L 255.44448 86.756279 
L 255.08736 86.939896 
L 254.73024 86.703057 
L 254.37312 86.743639 
L 254.016 86.882017 
L 253.65888 85.387798 
L 253.30176 85.450334 
L 252.94464 85.506883 
L 252.58752 85.955947 
L 252.2304 87.042349 
L 251.87328 87.119522 
L 251.51616 88.225217 
L 251.15904 87.661725 
L 250.80192 88.16135 
L 250.4448 86.795531 
L 250.08768 86.469543 
L 249.73056 87.140811 
L 249.37344 87.042349 
L 249.01632 87.322432 
L 248.6592 87.308461 
L 248.30208 87.973076 
L 247.94496 88.332993 
L 247.58784 88.015654 
L 247.23072 89.06347 
L 246.8736 88.854572 
L 246.51648 88.572493 
L 246.15936 88.354947 
L 245.80224 89.310289 
L 245.44512 89.762679 
L 245.088 89.409416 
L 244.73088 90.360101 
L 244.37376 89.739395 
L 244.01664 90.919601 
L 243.65952 90.75062 
L 243.3024 90.694737 
L 242.94528 90.457232 
L 242.58816 89.738064 
L 242.23104 90.948208 
L 241.87392 89.797274 
L 241.5168 89.269707 
L 241.15968 90.084675 
L 240.80256 89.509873 
L 240.44544 89.901058 
L 240.08832 90.4885 
L 239.7312 89.446671 
L 239.37408 90.879019 
L 239.01696 90.149207 
L 238.65984 90.460558 
L 238.30272 91.572906 
L 237.9456 90.576982 
L 237.58848 89.839187 
L 237.23136 91.294154 
L 236.87424 90.456566 
L 236.51712 90.133906 
L 236.16 90.724674 
L 235.80288 92.18829 
L 235.44576 92.237521 
L 235.08864 92.272781 
L 234.73152 91.07195 
L 234.3744 90.036775 
L 234.01728 90.087336 
L 233.66016 92.272781 
L 233.30304 92.506294 
L 232.94592 92.172989 
L 232.5888 92.490993 
L 232.23168 97.378805 
L 231.87456 92.452406 
L 231.51744 97.050156 
L 231.16032 96.662298 
L 230.8032 98.81714 
L 230.44608 101.353853 
L 230.08896 103.082916 
L 229.73184 99.151776 
L 229.37472 98.0687 
L 229.0176 96.994273 
L 228.66048 96.724169 
L 228.30336 94.842757 
L 227.94624 95.449493 
L 227.58912 94.155523 
L 227.232 94.168164 
L 226.87488 94.851406 
L 226.51776 93.939972 
L 226.16064 93.405087 
L 225.80352 94.170825 
L 225.4464 93.725752 
L 225.08928 94.215398 
L 224.73216 95.818723 
L 224.37504 95.838682 
L 224.01792 94.059723 
L 223.6608 96.089492 
L 223.30368 96.197933 
L 222.94656 97.040843 
L 222.58944 97.796601 
L 222.23232 96.355604 
L 221.8752 94.796853 
L 221.51808 94.766916 
L 221.16096 98.096642 
L 220.80384 94.688412 
L 220.44672 96.489991 
L 220.0896 97.151279 
L 219.73248 97.857141 
L 219.37536 96.480012 
L 219.01824 98.370737 
L 218.66112 97.672859 
L 218.304 97.244418 
L 217.94688 98.50845 
L 217.58976 98.099968 
L 217.23264 97.089408 
L 216.87552 97.363503 
L 216.5184 97.570405 
L 216.16128 99.05398 
L 215.80416 98.421299 
L 215.44704 100.481671 
L 215.08992 98.326164 
L 214.7328 100.57481 
L 214.37568 102.079008 
L 214.01856 99.94612 
L 213.66144 99.529655 
L 213.30432 102.168156 
L 212.9472 99.044001 
L 212.59008 100.486328 
L 212.23296 99.377306 
L 211.87584 103.725576 
L 211.51872 101.3472 
L 211.1616 102.433602 
L 210.80448 101.950609 
L 210.44736 101.089737 
L 210.09024 100.065871 
L 209.73312 101.095724 
L 209.376 101.167574 
L 209.01888 98.448575 
L 208.66176 99.448491 
L 208.30464 100.341297 
L 207.94752 98.351444 
L 207.5904 99.159759 
L 207.23328 101.421711 
L 206.87616 102.222708 
L 206.51904 99.866287 
L 206.16192 101.392439 
L 205.8048 101.700464 
L 205.44768 101.238759 
L 205.09056 101.985869 
L 204.73344 102.454891 
L 204.37632 101.015891 
L 204.0192 101.309279 
L 203.66208 101.026535 
L 203.30496 100.310028 
L 202.94784 99.748532 
L 202.59072 100.661296 
L 202.2336 102.564662 
L 201.87648 102.124912 
L 201.51936 103.489402 
L 201.16224 102.942541 
L 200.80512 102.616554 
L 200.448 103.607821 
L 200.09088 103.263872 
L 199.73376 103.995014 
L 199.37664 104.149359 
L 199.01952 105.626281 
L 198.6624 106.14653 
L 198.30528 105.344868 
L 197.94816 105.306947 
L 197.59104 105.487903 
L 197.23392 104.388195 
L 196.8768 106.038089 
L 196.51968 106.059378 
L 196.16256 105.484576 
L 195.80544 105.90969 
L 195.44832 106.483827 
L 195.0912 105.000918 
L 194.73408 105.555761 
L 194.37696 103.941127 
L 194.01984 104.253143 
L 193.66272 105.001583 
L 193.3056 104.994265 
L 192.94848 105.295637 
L 192.59136 104.662956 
L 192.23424 105.114015 
L 191.87712 105.282331 
L 191.52 105.344868 
L 191.16288 107.040666 
L 190.80576 106.792517 
L 190.44864 106.855053 
L 190.09152 109.132972 
L 189.7344 108.243492 
L 189.37728 106.464534 
L 189.02016 107.993347 
L 188.66304 108.359251 
L 188.30592 103.515348 
L 187.9488 106.454555 
L 187.59168 106.540376 
L 187.23456 107.565572 
L 186.87744 108.049231 
L 186.52032 110.399 
L 186.1632 108.485654 
L 185.80608 107.874927 
L 185.44896 107.756508 
L 185.09184 107.280167 
L 184.73472 106.523078 
L 184.3776 105.805907 
L 184.02048 106.276925 
L 183.66336 106.492476 
L 183.30624 105.618963 
L 182.94912 108.044574 
L 182.592 106.453889 
L 182.23488 107.855634 
L 181.87776 108.463035 
L 181.52064 109.739042 
L 181.16352 108.733804 
L 180.8064 108.430436 
L 180.44928 107.582869 
L 180.09216 107.191685 
L 179.73504 107.022038 
L 179.37792 106.412642 
L 179.0208 107.889564 
L 178.66368 105.978879 
L 178.30656 106.274264 
L 177.94944 108.358586 
L 177.59232 107.102537 
L 177.2352 106.630188 
L 176.87808 106.13389 
L 176.52096 108.146362 
L 176.16384 107.633431 
L 175.80672 105.678173 
L 175.4496 108.701205 
L 175.09248 106.887652 
L 174.73536 106.664118 
L 174.37824 107.727235 
L 174.02112 107.79842 
L 173.664 108.769064 
L 173.30688 106.387361 
L 172.94976 108.16632 
L 172.59264 108.058545 
L 172.23552 112.466025 
L 171.8784 109.659208 
L 171.52128 109.384448 
L 171.16416 108.926735 
L 170.80704 109.025862 
L 170.44992 108.5116 
L 170.0928 108.981288 
L 169.73568 109.684489 
L 169.37856 111.10087 
L 169.02144 110.425611 
L 168.66432 110.16216 
L 168.3072 110.05638 
L 167.95008 109.392431 
L 167.59296 110.985111 
L 167.23584 109.881412 
L 166.87872 108.786361 
L 166.5216 110.2227 
L 166.16448 109.055134 
L 165.80736 110.687066 
L 165.45024 109.73372 
L 165.09312 110.059707 
L 164.736 110.930558 
L 164.37888 109.346527 
L 164.02176 111.879913 
L 163.66464 112.080828 
L 163.30752 110.836089 
L 162.9504 111.465444 
L 162.59328 111.644404 
L 162.23616 111.54062 
L 161.87904 112.574465 
L 161.52192 110.992429 
L 161.1648 113.092053 
L 160.80768 112.18062 
L 160.45056 111.308437 
L 160.09344 112.491305 
L 159.73632 112.733467 
L 159.3792 111.477419 
L 159.02208 111.502034 
L 158.66496 111.491389 
L 158.30784 111.662366 
L 157.95072 110.77954 
L 157.5936 111.207315 
L 157.23648 111.506026 
L 156.87936 112.673592 
L 156.52224 111.81272 
L 156.16512 112.901783 
L 155.808 112.21721 
L 155.45088 111.590516 
L 155.09376 112.587771 
L 154.73664 112.255796 
L 154.37952 113.088727 
L 154.0224 113.125982 
L 153.66528 114.566979 
L 153.30816 115.186355 
L 152.95104 114.779868 
L 152.59392 116.504274 
L 152.2368 115.821697 
L 151.87968 114.356085 
L 151.52256 114.823112 
L 151.16544 115.189681 
L 150.80832 115.181698 
L 150.4512 115.52099 
L 150.09408 113.924984 
L 149.73696 114.173798 
L 149.37984 115.117831 
L 149.02272 115.202321 
L 148.6656 114.688725 
L 148.30848 115.214962 
L 147.95136 114.760575 
L 147.59424 116.666603 
L 147.23712 115.603485 
L 146.88 116.428432 
L 146.52288 114.47384 
L 146.16576 115.464442 
L 145.80864 116.711842 
L 145.45152 118.70502 
L 145.0944 117.067101 
L 144.73728 116.456374 
L 144.38016 116.890802 
L 144.02304 118.271923 
L 143.66592 117.449637 
L 143.3088 116.905438 
L 142.95168 117.700448 
L 142.59456 117.827516 
L 142.23744 117.43234 
L 141.88032 116.604066 
L 141.5232 118.09895 
L 141.16608 117.547433 
L 140.80896 118.746268 
L 140.45184 117.770967 
L 140.09472 117.182195 
L 139.7376 117.048473 
L 139.38048 119.565893 
L 139.02336 117.436332 
L 138.66624 119.233918 
L 138.30912 117.399076 
L 137.952 117.200822 
L 137.59488 119.20398 
L 137.23776 117.989844 
L 136.88064 117.733046 
L 136.52352 118.116913 
L 136.1664 117.553421 
L 135.80928 117.709762 
L 135.45216 118.181445 
L 135.09504 118.893295 
L 134.73792 117.473587 
L 134.3808 119.090218 
L 134.02368 120.036911 
L 133.66656 118.987764 
L 133.30944 119.222608 
L 132.95232 119.79741 
L 132.5952 119.538616 
L 132.23808 121.720735 
L 131.88096 118.842068 
L 131.52384 120.236495 
L 131.16672 121.549758 
L 130.8096 120.631006 
L 130.45248 118.955166 
L 130.09536 119.774125 
L 129.73824 119.77213 
L 129.38112 119.663689 
L 129.024 118.87001 
L 128.66688 119.324396 
L 128.30976 119.625768 
L 127.95264 120.828594 
L 127.59552 119.031673 
L 127.2384 120.09346 
L 126.88128 121.17587 
L 126.52416 120.807305 
L 126.16704 121.727388 
L 125.80992 120.710174 
L 125.4528 122.234331 
L 125.09568 121.861774 
L 124.73856 123.212958 
L 124.38144 123.386596 
L 124.02432 121.499862 
L 123.6672 123.329382 
L 123.31008 123.377947 
L 122.95296 123.528966 
L 122.59584 124.492291 
L 122.23872 123.57487 
L 121.8816 124.130379 
L 121.52448 125.906676 
L 121.16736 124.250129 
L 120.81024 125.826178 
L 120.45312 127.081561 
L 120.096 126.283225 
L 119.73888 127.168047 
L 119.38176 127.970375 
L 119.02464 127.050293 
L 118.66752 126.063017 
L 118.3104 128.784678 
L 117.95328 126.381021 
L 117.59616 128.579772 
L 117.23904 127.984346 
L 116.88192 127.932454 
L 116.5248 126.55732 
L 116.16768 129.082723 
L 115.81056 128.033577 
L 115.45344 128.52788 
L 115.09632 130.73927 
L 114.7392 128.236487 
L 114.38208 129.626922 
L 114.02496 130.125217 
L 113.66784 130.570289 
L 113.31072 130.294863 
L 112.9536 131.713906 
L 112.59648 131.35665 
L 112.23936 130.703345 
L 111.88224 133.620598 
L 111.52512 134.289204 
L 111.168 134.065005 
L 110.81088 135.214609 
L 110.45376 133.981845 
L 110.09664 133.451617 
L 109.73952 132.720474 
L 109.3824 133.787583 
L 109.02528 134.239974 
L 108.66816 133.104341 
L 108.31104 134.907915 
L 107.95392 133.973196 
L 107.5968 137.23706 
L 107.23968 137.801218 
L 106.88256 135.532613 
L 106.52544 136.651614 
L 106.16832 137.09336 
L 105.8112 136.495273 
L 105.45408 136.253111 
L 105.09696 133.766294 
L 104.73984 136.02492 
L 104.38272 133.661845 
L 104.0256 133.510827 
L 103.66848 132.582761 
L 103.31136 136.374857 
L 102.95424 139.68396 
L 102.59712 140.052525 
L 102.24 138.600884 
L 101.88288 139.879552 
L 101.52576 141.602628 
L 101.16864 142.245288 
L 100.81152 140.496267 
L 100.4544 140.761714 
L 100.09728 141.804207 
L 99.74016 141.409696 
L 99.38304 141.617264 
L 99.02592 139.774438 
L 98.6688 141.394395 
L 98.31168 140.072484 
L 97.95456 140.960632 
L 97.59744 140.735768 
L 97.24032 140.495602 
L 96.8832 141.973854 
L 96.52608 141.795559 
L 96.16896 141.496183 
L 95.81184 141.495517 
L 95.45472 142.761545 
L 95.0976 142.933188 
L 94.74048 141.627243 
L 94.38336 142.931192 
L 94.02624 143.632397 
L 93.66912 143.183333 
L 93.312 143.164705 
L 92.95488 144.203207 
L 92.59776 144.384828 
L 92.24064 145.819172 
L 91.88352 145.155223 
L 91.5264 143.541919 
L 91.16928 148.011935 
L 90.81216 147.202289 
L 90.45504 147.568193 
L 90.09792 146.547654 
L 89.7408 146.515055 
L 89.38368 148.281373 
L 89.02656 148.128359 
L 88.66944 145.727364 
L 88.31232 146.513724 
L 87.9552 146.881624 
L 87.59808 147.588817 
L 87.24096 150.025072 
L 86.88384 151.780081 
L 86.52672 150.580581 
L 86.1696 151.328356 
L 85.81248 151.460081 
L 85.45536 152.285028 
L 85.09824 152.885111 
L 84.74112 153.952885 
L 84.384 151.414177 
L 84.02688 153.71405 
L 83.66976 151.375591 
L 83.31264 152.940995 
L 82.95552 154.324777 
L 82.5984 156.697831 
L 82.24128 158.303151 
L 81.88416 157.550054 
L 81.52704 156.646604 
L 81.16992 160.962276 
L 80.8128 160.927681 
L 80.45568 158.216 
L 80.09856 162.051339 
L 79.74144 160.53317 
L 79.38432 159.10814 
L 79.0272 161.610258 
L 78.67008 162.391297 
L 78.31296 163.294747 
L 77.95584 163.596784 
L 77.59872 164.73907 
L 77.2416 162.906889 
L 76.88448 166.620482 
L 76.52736 165.382396 
L 76.17024 167.137404 
L 75.81312 165.719693 
L 75.456 167.430128 
L 75.09888 166.433538 
L 74.74176 166.731584 
L 74.38464 168.423391 
L 74.02752 168.32759 
L 73.6704 168.855823 
L 73.31328 167.835283 
L 72.95616 172.025882 
L 72.59904 170.695987 
L 72.24192 174.148125 
L 71.8848 174.822719 
L 71.52768 174.568582 
L 71.17056 178.343381 
L 70.81344 181.35976 
L 70.45632 185.926242 
L 70.0992 184.586368 
L 69.74208 186.255556 
L 69.38496 191.105447 
L 69.02784 191.463368 
L 68.67072 196.930639 
L 68.3136 197.837415 
L 67.95648 200.106685 
L 67.59936 201.41263 
L 67.24224 205.285225 
L 66.88512 214.597149 
L 66.528 214.977689 
L 66.17088 212.924635 
L 65.81376 219.653942 
L 65.45664 221.512069 
L 65.09952 226.183 
L 64.7424 236.581327 
L 64.38528 238.446107 
L 64.02816 248.762604 
L 63.67104 246.456078 
L 63.31392 251.328588 
L 62.9568 256.41798 
L 62.59968 262.384212 
L 62.24256 273.570229 
L 61.88544 277.760828 
L 61.52832 280.797831 
L 61.1712 282.198246 
L 60.81408 283.256706 
L 60.45696 283.755001 
L 60.09984 285.442816 
L 59.74272 286.436079 
L 59.3856 287.171879 
L 59.02848 287.643563 
L 58.67136 292.529379 
L 58.31424 303.139264 
L 57.95712 303.689451 
z
" style="fill:#1f77b4;fill-opacity:0.25;"/>
   </g>
   <g id="matplotlib.axis_1">
    <g id="xtick_1">
     <g id="line2d_1">
      <defs>
       <path d="M 0 0 
L 0 4.8 
" id="m36a7c4f97e" style="stroke:#000000;"/>
      </defs>
      <g>
       <use style="stroke:#000000;" x="57.6" xlink:href="#m36a7c4f97e" y="307.584"/>
      </g>
     </g>
     <g id="text_1">
      <!-- 0 -->
      <g transform="translate(54.8005 322.570625)scale(0.088 -0.088)">
       <defs>
        <path d="M 2034 4250 
Q 1547 4250 1301 3770 
Q 1056 3291 1056 2328 
Q 1056 1369 1301 889 
Q 1547 409 2034 409 
Q 2525 409 2770 889 
Q 3016 1369 3016 2328 
Q 3016 3291 2770 3770 
Q 2525 4250 2034 4250 
z
M 2034 4750 
Q 2819 4750 3233 4129 
Q 3647 3509 3647 2328 
Q 3647 1150 3233 529 
Q 2819 -91 2034 -91 
Q 1250 -91 836 529 
Q 422 1150 422 2328 
Q 422 3509 836 4129 
Q 1250 4750 2034 4750 
z
" id="DejaVuSans-30" transform="scale(0.015625)"/>
       </defs>
       <use xlink:href="#DejaVuSans-30"/>
      </g>
     </g>
    </g>
    <g id="xtick_2">
     <g id="line2d_2">
      <g>
       <use style="stroke:#000000;" x="129.024" xlink:href="#m36a7c4f97e" y="307.584"/>
      </g>
     </g>
     <g id="text_2">
      <!-- 200 -->
      <g transform="translate(120.6255 322.570625)scale(0.088 -0.088)">
       <defs>
        <path d="M 1228 531 
L 3431 531 
L 3431 0 
L 469 0 
L 469 531 
Q 828 903 1448 1529 
Q 2069 2156 2228 2338 
Q 2531 2678 2651 2914 
Q 2772 3150 2772 3378 
Q 2772 3750 2511 3984 
Q 2250 4219 1831 4219 
Q 1534 4219 1204 4116 
Q 875 4013 500 3803 
L 500 4441 
Q 881 4594 1212 4672 
Q 1544 4750 1819 4750 
Q 2544 4750 2975 4387 
Q 3406 4025 3406 3419 
Q 3406 3131 3298 2873 
Q 3191 2616 2906 2266 
Q 2828 2175 2409 1742 
Q 1991 1309 1228 531 
z
" id="DejaVuSans-32" transform="scale(0.015625)"/>
       </defs>
       <use xlink:href="#DejaVuSans-32"/>
       <use x="63.623047" xlink:href="#DejaVuSans-30"/>
       <use x="127.246094" xlink:href="#DejaVuSans-30"/>
      </g>
     </g>
    </g>
    <g id="xtick_3">
     <g id="line2d_3">
      <g>
       <use style="stroke:#000000;" x="200.448" xlink:href="#m36a7c4f97e" y="307.584"/>
      </g>
     </g>
     <g id="text_3">
      <!-- 400 -->
      <g transform="translate(192.0495 322.570625)scale(0.088 -0.088)">
       <defs>
        <path d="M 2419 4116 
L 825 1625 
L 2419 1625 
L 2419 4116 
z
M 2253 4666 
L 3047 4666 
L 3047 1625 
L 3713 1625 
L 3713 1100 
L 3047 1100 
L 3047 0 
L 2419 0 
L 2419 1100 
L 313 1100 
L 313 1709 
L 2253 4666 
z
" id="DejaVuSans-34" transform="scale(0.015625)"/>
       </defs>
       <use xlink:href="#DejaVuSans-34"/>
       <use x="63.623047" xlink:href="#DejaVuSans-30"/>
       <use x="127.246094" xlink:href="#DejaVuSans-30"/>
      </g>
     </g>
    </g>
    <g id="xtick_4">
     <g id="line2d_4">
      <g>
       <use style="stroke:#000000;" x="271.872" xlink:href="#m36a7c4f97e" y="307.584"/>
      </g>
     </g>
     <g id="text_4">
      <!-- 600 -->
      <g transform="translate(263.4735 322.570625)scale(0.088 -0.088)">
       <defs>
        <path d="M 2113 2584 
Q 1688 2584 1439 2293 
Q 1191 2003 1191 1497 
Q 1191 994 1439 701 
Q 1688 409 2113 409 
Q 2538 409 2786 701 
Q 3034 994 3034 1497 
Q 3034 2003 2786 2293 
Q 2538 2584 2113 2584 
z
M 3366 4563 
L 3366 3988 
Q 3128 4100 2886 4159 
Q 2644 4219 2406 4219 
Q 1781 4219 1451 3797 
Q 1122 3375 1075 2522 
Q 1259 2794 1537 2939 
Q 1816 3084 2150 3084 
Q 2853 3084 3261 2657 
Q 3669 2231 3669 1497 
Q 3669 778 3244 343 
Q 2819 -91 2113 -91 
Q 1303 -91 875 529 
Q 447 1150 447 2328 
Q 447 3434 972 4092 
Q 1497 4750 2381 4750 
Q 2619 4750 2861 4703 
Q 3103 4656 3366 4563 
z
" id="DejaVuSans-36" transform="scale(0.015625)"/>
       </defs>
       <use xlink:href="#DejaVuSans-36"/>
       <use x="63.623047" xlink:href="#DejaVuSans-30"/>
       <use x="127.246094" xlink:href="#DejaVuSans-30"/>
      </g>
     </g>
    </g>
    <g id="xtick_5">
     <g id="line2d_5">
      <g>
       <use style="stroke:#000000;" x="343.296" xlink:href="#m36a7c4f97e" y="307.584"/>
      </g>
     </g>
     <g id="text_5">
      <!-- 800 -->
      <g transform="translate(334.8975 322.570625)scale(0.088 -0.088)">
       <defs>
        <path d="M 2034 2216 
Q 1584 2216 1326 1975 
Q 1069 1734 1069 1313 
Q 1069 891 1326 650 
Q 1584 409 2034 409 
Q 2484 409 2743 651 
Q 3003 894 3003 1313 
Q 3003 1734 2745 1975 
Q 2488 2216 2034 2216 
z
M 1403 2484 
Q 997 2584 770 2862 
Q 544 3141 544 3541 
Q 544 4100 942 4425 
Q 1341 4750 2034 4750 
Q 2731 4750 3128 4425 
Q 3525 4100 3525 3541 
Q 3525 3141 3298 2862 
Q 3072 2584 2669 2484 
Q 3125 2378 3379 2068 
Q 3634 1759 3634 1313 
Q 3634 634 3220 271 
Q 2806 -91 2034 -91 
Q 1263 -91 848 271 
Q 434 634 434 1313 
Q 434 1759 690 2068 
Q 947 2378 1403 2484 
z
M 1172 3481 
Q 1172 3119 1398 2916 
Q 1625 2713 2034 2713 
Q 2441 2713 2670 2916 
Q 2900 3119 2900 3481 
Q 2900 3844 2670 4047 
Q 2441 4250 2034 4250 
Q 1625 4250 1398 4047 
Q 1172 3844 1172 3481 
z
" id="DejaVuSans-38" transform="scale(0.015625)"/>
       </defs>
       <use xlink:href="#DejaVuSans-38"/>
       <use x="63.623047" xlink:href="#DejaVuSans-30"/>
       <use x="127.246094" xlink:href="#DejaVuSans-30"/>
      </g>
     </g>
    </g>
    <g id="xtick_6">
     <g id="line2d_6">
      <g>
       <use style="stroke:#000000;" x="414.72" xlink:href="#m36a7c4f97e" y="307.584"/>
      </g>
     </g>
     <g id="text_6">
      <!-- 1000 -->
      <g transform="translate(403.522 322.570625)scale(0.088 -0.088)">
       <defs>
        <path d="M 794 531 
L 1825 531 
L 1825 4091 
L 703 3866 
L 703 4441 
L 1819 4666 
L 2450 4666 
L 2450 531 
L 3481 531 
L 3481 0 
L 794 0 
L 794 531 
z
" id="DejaVuSans-31" transform="scale(0.015625)"/>
       </defs>
       <use xlink:href="#DejaVuSans-31"/>
       <use x="63.623047" xlink:href="#DejaVuSans-30"/>
       <use x="127.246094" xlink:href="#DejaVuSans-30"/>
       <use x="190.869141" xlink:href="#DejaVuSans-30"/>
      </g>
     </g>
    </g>
    <g id="text_7">
     <!-- Timestep -->
     <g transform="translate(214.03275 335.69525)scale(0.096 -0.096)">
      <defs>
       <path d="M -19 4666 
L 3928 4666 
L 3928 4134 
L 2272 4134 
L 2272 0 
L 1638 0 
L 1638 4134 
L -19 4134 
L -19 4666 
z
" id="DejaVuSans-54" transform="scale(0.015625)"/>
       <path d="M 603 3500 
L 1178 3500 
L 1178 0 
L 603 0 
L 603 3500 
z
M 603 4863 
L 1178 4863 
L 1178 4134 
L 603 4134 
L 603 4863 
z
" id="DejaVuSans-69" transform="scale(0.015625)"/>
       <path d="M 3328 2828 
Q 3544 3216 3844 3400 
Q 4144 3584 4550 3584 
Q 5097 3584 5394 3201 
Q 5691 2819 5691 2113 
L 5691 0 
L 5113 0 
L 5113 2094 
Q 5113 2597 4934 2840 
Q 4756 3084 4391 3084 
Q 3944 3084 3684 2787 
Q 3425 2491 3425 1978 
L 3425 0 
L 2847 0 
L 2847 2094 
Q 2847 2600 2669 2842 
Q 2491 3084 2119 3084 
Q 1678 3084 1418 2786 
Q 1159 2488 1159 1978 
L 1159 0 
L 581 0 
L 581 3500 
L 1159 3500 
L 1159 2956 
Q 1356 3278 1631 3431 
Q 1906 3584 2284 3584 
Q 2666 3584 2933 3390 
Q 3200 3197 3328 2828 
z
" id="DejaVuSans-6d" transform="scale(0.015625)"/>
       <path d="M 3597 1894 
L 3597 1613 
L 953 1613 
Q 991 1019 1311 708 
Q 1631 397 2203 397 
Q 2534 397 2845 478 
Q 3156 559 3463 722 
L 3463 178 
Q 3153 47 2828 -22 
Q 2503 -91 2169 -91 
Q 1331 -91 842 396 
Q 353 884 353 1716 
Q 353 2575 817 3079 
Q 1281 3584 2069 3584 
Q 2775 3584 3186 3129 
Q 3597 2675 3597 1894 
z
M 3022 2063 
Q 3016 2534 2758 2815 
Q 2500 3097 2075 3097 
Q 1594 3097 1305 2825 
Q 1016 2553 972 2059 
L 3022 2063 
z
" id="DejaVuSans-65" transform="scale(0.015625)"/>
       <path d="M 2834 3397 
L 2834 2853 
Q 2591 2978 2328 3040 
Q 2066 3103 1784 3103 
Q 1356 3103 1142 2972 
Q 928 2841 928 2578 
Q 928 2378 1081 2264 
Q 1234 2150 1697 2047 
L 1894 2003 
Q 2506 1872 2764 1633 
Q 3022 1394 3022 966 
Q 3022 478 2636 193 
Q 2250 -91 1575 -91 
Q 1294 -91 989 -36 
Q 684 19 347 128 
L 347 722 
Q 666 556 975 473 
Q 1284 391 1588 391 
Q 1994 391 2212 530 
Q 2431 669 2431 922 
Q 2431 1156 2273 1281 
Q 2116 1406 1581 1522 
L 1381 1569 
Q 847 1681 609 1914 
Q 372 2147 372 2553 
Q 372 3047 722 3315 
Q 1072 3584 1716 3584 
Q 2034 3584 2315 3537 
Q 2597 3491 2834 3397 
z
" id="DejaVuSans-73" transform="scale(0.015625)"/>
       <path d="M 1172 4494 
L 1172 3500 
L 2356 3500 
L 2356 3053 
L 1172 3053 
L 1172 1153 
Q 1172 725 1289 603 
Q 1406 481 1766 481 
L 2356 481 
L 2356 0 
L 1766 0 
Q 1100 0 847 248 
Q 594 497 594 1153 
L 594 3053 
L 172 3053 
L 172 3500 
L 594 3500 
L 594 4494 
L 1172 4494 
z
" id="DejaVuSans-74" transform="scale(0.015625)"/>
       <path d="M 1159 525 
L 1159 -1331 
L 581 -1331 
L 581 3500 
L 1159 3500 
L 1159 2969 
Q 1341 3281 1617 3432 
Q 1894 3584 2278 3584 
Q 2916 3584 3314 3078 
Q 3713 2572 3713 1747 
Q 3713 922 3314 415 
Q 2916 -91 2278 -91 
Q 1894 -91 1617 61 
Q 1341 213 1159 525 
z
M 3116 1747 
Q 3116 2381 2855 2742 
Q 2594 3103 2138 3103 
Q 1681 3103 1420 2742 
Q 1159 2381 1159 1747 
Q 1159 1113 1420 752 
Q 1681 391 2138 391 
Q 2594 391 2855 752 
Q 3116 1113 3116 1747 
z
" id="DejaVuSans-70" transform="scale(0.015625)"/>
      </defs>
      <use xlink:href="#DejaVuSans-54"/>
      <use x="57.958984" xlink:href="#DejaVuSans-69"/>
      <use x="85.742188" xlink:href="#DejaVuSans-6d"/>
      <use x="183.154297" xlink:href="#DejaVuSans-65"/>
      <use x="244.677734" xlink:href="#DejaVuSans-73"/>
      <use x="296.777344" xlink:href="#DejaVuSans-74"/>
      <use x="335.986328" xlink:href="#DejaVuSans-65"/>
      <use x="397.509766" xlink:href="#DejaVuSans-70"/>
     </g>
    </g>
   </g>
   <g id="matplotlib.axis_2">
    <g id="ytick_1">
     <g id="line2d_7">
      <defs>
       <path d="M 0 0 
L -4.8 0 
" id="mf4aecf8aca" style="stroke:#000000;"/>
      </defs>
      <g>
       <use style="stroke:#000000;" x="57.6" xlink:href="#mf4aecf8aca" y="307.584"/>
      </g>
     </g>
     <g id="text_8">
      <!-- 0 -->
      <g transform="translate(43.701 310.927312)scale(0.088 -0.088)">
       <use xlink:href="#DejaVuSans-30"/>
      </g>
     </g>
    </g>
    <g id="ytick_2">
     <g id="line2d_8">
      <g>
       <use style="stroke:#000000;" x="57.6" xlink:href="#mf4aecf8aca" y="254.3616"/>
      </g>
     </g>
     <g id="text_9">
      <!-- 200 -->
      <g transform="translate(32.503 257.704912)scale(0.088 -0.088)">
       <use xlink:href="#DejaVuSans-32"/>
       <use x="63.623047" xlink:href="#DejaVuSans-30"/>
       <use x="127.246094" xlink:href="#DejaVuSans-30"/>
      </g>
     </g>
    </g>
    <g id="ytick_3">
     <g id="line2d_9">
      <g>
       <use style="stroke:#000000;" x="57.6" xlink:href="#mf4aecf8aca" y="201.1392"/>
      </g>
     </g>
     <g id="text_10">
      <!-- 400 -->
      <g transform="translate(32.503 204.482512)scale(0.088 -0.088)">
       <use xlink:href="#DejaVuSans-34"/>
       <use x="63.623047" xlink:href="#DejaVuSans-30"/>
       <use x="127.246094" xlink:href="#DejaVuSans-30"/>
      </g>
     </g>
    </g>
    <g id="ytick_4">
     <g id="line2d_10">
      <g>
       <use style="stroke:#000000;" x="57.6" xlink:href="#mf4aecf8aca" y="147.9168"/>
      </g>
     </g>
     <g id="text_11">
      <!-- 600 -->
      <g transform="translate(32.503 151.260112)scale(0.088 -0.088)">
       <use xlink:href="#DejaVuSans-36"/>
       <use x="63.623047" xlink:href="#DejaVuSans-30"/>
       <use x="127.246094" xlink:href="#DejaVuSans-30"/>
      </g>
     </g>
    </g>
    <g id="ytick_5">
     <g id="line2d_11">
      <g>
       <use style="stroke:#000000;" x="57.6" xlink:href="#mf4aecf8aca" y="94.6944"/>
      </g>
     </g>
     <g id="text_12">
      <!-- 800 -->
      <g transform="translate(32.503 98.037712)scale(0.088 -0.088)">
       <use xlink:href="#DejaVuSans-38"/>
       <use x="63.623047" xlink:href="#DejaVuSans-30"/>
       <use x="127.246094" xlink:href="#DejaVuSans-30"/>
      </g>
     </g>
    </g>
    <g id="ytick_6">
     <g id="line2d_12">
      <g>
       <use style="stroke:#000000;" x="57.6" xlink:href="#mf4aecf8aca" y="41.472"/>
      </g>
     </g>
     <g id="text_13">
      <!-- 1000 -->
      <g transform="translate(26.904 44.815313)scale(0.088 -0.088)">
       <use xlink:href="#DejaVuSans-31"/>
       <use x="63.623047" xlink:href="#DejaVuSans-30"/>
       <use x="127.246094" xlink:href="#DejaVuSans-30"/>
       <use x="190.869141" xlink:href="#DejaVuSans-30"/>
      </g>
     </g>
    </g>
    <g id="text_14">
     <!-- Reward -->
     <g transform="translate(20.9075 192.40425)rotate(-90)scale(0.096 -0.096)">
      <defs>
       <path d="M 2841 2188 
Q 3044 2119 3236 1894 
Q 3428 1669 3622 1275 
L 4263 0 
L 3584 0 
L 2988 1197 
Q 2756 1666 2539 1819 
Q 2322 1972 1947 1972 
L 1259 1972 
L 1259 0 
L 628 0 
L 628 4666 
L 2053 4666 
Q 2853 4666 3247 4331 
Q 3641 3997 3641 3322 
Q 3641 2881 3436 2590 
Q 3231 2300 2841 2188 
z
M 1259 4147 
L 1259 2491 
L 2053 2491 
Q 2509 2491 2742 2702 
Q 2975 2913 2975 3322 
Q 2975 3731 2742 3939 
Q 2509 4147 2053 4147 
L 1259 4147 
z
" id="DejaVuSans-52" transform="scale(0.015625)"/>
       <path d="M 269 3500 
L 844 3500 
L 1563 769 
L 2278 3500 
L 2956 3500 
L 3675 769 
L 4391 3500 
L 4966 3500 
L 4050 0 
L 3372 0 
L 2619 2869 
L 1863 0 
L 1184 0 
L 269 3500 
z
" id="DejaVuSans-77" transform="scale(0.015625)"/>
       <path d="M 2194 1759 
Q 1497 1759 1228 1600 
Q 959 1441 959 1056 
Q 959 750 1161 570 
Q 1363 391 1709 391 
Q 2188 391 2477 730 
Q 2766 1069 2766 1631 
L 2766 1759 
L 2194 1759 
z
M 3341 1997 
L 3341 0 
L 2766 0 
L 2766 531 
Q 2569 213 2275 61 
Q 1981 -91 1556 -91 
Q 1019 -91 701 211 
Q 384 513 384 1019 
Q 384 1609 779 1909 
Q 1175 2209 1959 2209 
L 2766 2209 
L 2766 2266 
Q 2766 2663 2505 2880 
Q 2244 3097 1772 3097 
Q 1472 3097 1187 3025 
Q 903 2953 641 2809 
L 641 3341 
Q 956 3463 1253 3523 
Q 1550 3584 1831 3584 
Q 2591 3584 2966 3190 
Q 3341 2797 3341 1997 
z
" id="DejaVuSans-61" transform="scale(0.015625)"/>
       <path d="M 2631 2963 
Q 2534 3019 2420 3045 
Q 2306 3072 2169 3072 
Q 1681 3072 1420 2755 
Q 1159 2438 1159 1844 
L 1159 0 
L 581 0 
L 581 3500 
L 1159 3500 
L 1159 2956 
Q 1341 3275 1631 3429 
Q 1922 3584 2338 3584 
Q 2397 3584 2469 3576 
Q 2541 3569 2628 3553 
L 2631 2963 
z
" id="DejaVuSans-72" transform="scale(0.015625)"/>
       <path d="M 2906 2969 
L 2906 4863 
L 3481 4863 
L 3481 0 
L 2906 0 
L 2906 525 
Q 2725 213 2448 61 
Q 2172 -91 1784 -91 
Q 1150 -91 751 415 
Q 353 922 353 1747 
Q 353 2572 751 3078 
Q 1150 3584 1784 3584 
Q 2172 3584 2448 3432 
Q 2725 3281 2906 2969 
z
M 947 1747 
Q 947 1113 1208 752 
Q 1469 391 1925 391 
Q 2381 391 2643 752 
Q 2906 1113 2906 1747 
Q 2906 2381 2643 2742 
Q 2381 3103 1925 3103 
Q 1469 3103 1208 2742 
Q 947 2381 947 1747 
z
" id="DejaVuSans-64" transform="scale(0.015625)"/>
      </defs>
      <use xlink:href="#DejaVuSans-52"/>
      <use x="64.982422" xlink:href="#DejaVuSans-65"/>
      <use x="126.505859" xlink:href="#DejaVuSans-77"/>
      <use x="208.292969" xlink:href="#DejaVuSans-61"/>
      <use x="269.572266" xlink:href="#DejaVuSans-72"/>
      <use x="308.935547" xlink:href="#DejaVuSans-64"/>
     </g>
    </g>
   </g>
   <g id="line2d_13">
    <path clip-path="url(#p7d61056346)" d="M 57.95712 304.172444 
L 58.31424 303.946249 
L 58.67136 301.408871 
L 59.02848 296.890289 
L 59.3856 288.878988 
L 59.74272 288.184435 
L 60.81408 285.160072 
L 61.52832 284.058369 
L 61.88544 282.11442 
L 63.31392 271.930314 
L 63.67104 270.329651 
L 64.02816 269.364995 
L 64.38528 265.627452 
L 64.7424 257.549622 
L 65.09952 254.67029 
L 65.45664 253.439522 
L 65.81376 248.781231 
L 66.17088 237.91987 
L 66.528 232.66948 
L 66.88512 229.220669 
L 67.24224 235.232139 
L 67.59936 229.631812 
L 68.3136 210.638068 
L 69.02784 197.292551 
L 69.38496 193.810476 
L 69.74208 193.609561 
L 70.0992 188.715761 
L 70.45632 190.01971 
L 71.52768 183.840589 
L 71.8848 184.088074 
L 72.59904 177.867706 
L 72.95616 176.702135 
L 73.31328 175.085505 
L 73.6704 176.1433 
L 74.02752 172.512202 
L 74.38464 174.645089 
L 74.74176 174.090246 
L 75.09888 174.31378 
L 75.456 172.630621 
L 75.81312 168.110709 
L 76.17024 169.576986 
L 76.52736 168.467299 
L 76.88448 169.400022 
L 77.2416 169.046093 
L 77.59872 167.806011 
L 78.31296 167.631708 
L 78.67008 167.358943 
L 79.0272 167.491999 
L 79.38432 164.446347 
L 79.74144 164.206846 
L 80.09856 163.762439 
L 80.45568 163.069217 
L 80.8128 163.625391 
L 81.16992 163.300735 
L 81.52704 161.41267 
L 81.88416 162.546307 
L 82.24128 162.655413 
L 82.5984 163.009342 
L 82.95552 160.812588 
L 83.31264 161.187805 
L 83.66976 158.952465 
L 84.02688 157.574004 
L 84.384 158.711633 
L 84.74112 157.049764 
L 85.09824 157.624566 
L 85.45536 155.769765 
L 85.81248 155.096502 
L 86.1696 153.711389 
L 86.52672 155.409183 
L 86.88384 154.492428 
L 87.59808 154.68935 
L 87.9552 153.683447 
L 88.31232 153.887023 
L 88.66944 151.829977 
L 89.02656 150.846693 
L 89.38368 150.343741 
L 89.7408 150.83871 
L 90.09792 149.355135 
L 90.45504 151.235217 
L 90.81216 150.953138 
L 91.16928 149.98449 
L 91.5264 148.394471 
L 91.88352 150.303825 
L 92.24064 148.555469 
L 92.59776 150.535342 
L 92.95488 149.156882 
L 93.312 148.67788 
L 93.66912 147.694596 
L 94.02624 150.619167 
L 94.38336 147.653349 
L 94.74048 147.111811 
L 95.0976 145.709401 
L 95.45472 147.75048 
L 95.81184 147.617424 
L 96.16896 146.248278 
L 96.52608 146.080627 
L 96.8832 147.027986 
L 97.24032 143.887864 
L 97.59744 146.128527 
L 97.95456 145.491189 
L 98.31168 148.733764 
L 98.6688 147.827652 
L 99.02592 147.847611 
L 99.38304 148.095095 
L 99.74016 150.134844 
L 100.09728 146.976094 
L 100.81152 149.259335 
L 101.16864 148.43971 
L 101.52576 145.625576 
L 101.88288 146.801791 
L 102.24 145.500503 
L 102.59712 142.959133 
L 102.95424 144.964287 
L 103.31136 141.069738 
L 103.66848 142.590568 
L 104.0256 141.349156 
L 104.38272 141.563376 
L 104.73984 141.157555 
L 105.09696 139.801715 
L 105.45408 140.198221 
L 106.16832 139.812359 
L 106.52544 140.920716 
L 106.88256 139.453108 
L 107.23968 140.192899 
L 107.95392 139.926787 
L 108.31104 140.501589 
L 108.66816 139.230904 
L 109.02528 139.562214 
L 109.3824 139.075229 
L 109.73952 140.143668 
L 110.09664 138.632152 
L 110.81088 137.950906 
L 111.168 138.38999 
L 111.52512 138.597558 
L 111.88224 138.621508 
L 112.23936 137.942922 
L 112.59648 137.775272 
L 112.9536 136.601718 
L 113.31072 136.279722 
L 113.66784 137.815188 
L 114.02496 135.768787 
L 114.38208 135.068913 
L 114.7392 135.130118 
L 115.45344 136.34625 
L 115.81056 135.446792 
L 116.5248 135.091532 
L 116.88192 135.476064 
L 117.59616 133.822178 
L 118.3104 133.70775 
L 118.66752 134.579267 
L 119.02464 133.476232 
L 119.38176 133.135609 
L 119.73888 130.502431 
L 120.096 132.017939 
L 120.45312 130.431911 
L 120.81024 131.612118 
L 121.16736 134.423591 
L 121.52448 129.795903 
L 121.8816 128.998898 
L 122.23872 128.936362 
L 122.59584 128.724803 
L 122.95296 129.594989 
L 123.31008 128.609044 
L 123.6672 128.751414 
L 124.02432 128.292371 
L 124.73856 129.362141 
L 125.09568 128.621019 
L 125.80992 128.491955 
L 126.16704 128.208545 
L 126.52416 127.64838 
L 126.88128 127.817361 
L 127.2384 126.86601 
L 127.59552 127.915822 
L 127.95264 127.323723 
L 128.30976 128.631663 
L 129.024 127.125469 
L 129.38112 128.805967 
L 129.73824 127.705594 
L 130.09536 128.610374 
L 130.8096 126.838068 
L 131.16672 125.105679 
L 131.52384 126.464181 
L 131.88096 126.059691 
L 132.23808 125.007218 
L 132.5952 126.062352 
L 133.30944 124.812956 
L 133.66656 126.501437 
L 134.02368 124.473663 
L 134.3808 123.711252 
L 134.73792 124.494952 
L 135.09504 123.964059 
L 135.80928 122.608218 
L 136.1664 123.970712 
L 136.52352 123.693955 
L 136.88064 122.311503 
L 137.23776 122.417948 
L 137.59488 123.218945 
L 138.30912 124.134371 
L 138.66624 124.029256 
L 139.02336 125.114993 
L 139.38048 123.32406 
L 139.7376 122.527054 
L 140.09472 123.821689 
L 140.45184 122.545682 
L 140.80896 122.70801 
L 141.16608 123.055286 
L 141.88032 121.232419 
L 142.23744 122.503104 
L 142.59456 122.378031 
L 142.95168 122.632168 
L 143.3088 121.962897 
L 143.66592 122.27957 
L 144.02304 121.340195 
L 144.38016 121.973541 
L 144.73728 120.704187 
L 145.0944 122.009466 
L 145.45152 121.522481 
L 145.80864 122.799819 
L 146.16576 121.481234 
L 146.52288 123.193665 
L 146.88 121.213791 
L 147.23712 122.356742 
L 147.59424 120.677576 
L 147.95136 122.830422 
L 148.30848 121.438656 
L 148.6656 121.088719 
L 149.02272 122.250298 
L 149.37984 120.979613 
L 149.73696 120.368886 
L 150.09408 121.982855 
L 150.4512 120.454042 
L 150.80832 120.674915 
L 151.16544 121.579695 
L 151.52256 120.128054 
L 151.87968 121.453292 
L 152.2368 122.270256 
L 152.59392 119.747514 
L 152.95104 120.833251 
L 153.30816 120.962316 
L 153.66528 120.947679 
L 154.37952 118.793503 
L 154.73664 118.895956 
L 155.09376 118.547349 
L 155.45088 119.621111 
L 155.808 118.942525 
L 156.16512 119.497369 
L 156.52224 120.491297 
L 156.87936 118.403649 
L 157.23648 120.02161 
L 157.5936 118.865353 
L 157.95072 118.162817 
L 158.30784 117.848805 
L 158.66496 117.912672 
L 159.02208 116.74311 
L 159.3792 118.35974 
L 160.09344 118.645811 
L 160.45056 118.200073 
L 160.80768 117.953919 
L 161.1648 117.453629 
L 161.52192 118.172131 
L 161.87904 117.880739 
L 162.23616 116.588765 
L 162.59328 116.361239 
L 162.9504 116.675251 
L 163.30752 116.056541 
L 163.66464 116.567476 
L 164.02176 116.358578 
L 164.37888 115.312758 
L 164.736 115.368641 
L 165.09312 114.934879 
L 165.45024 115.416541 
L 165.80736 116.1723 
L 166.16448 115.757165 
L 166.5216 114.7965 
L 166.87872 114.885648 
L 167.23584 115.654712 
L 167.59296 115.433839 
L 168.3072 114.667436 
L 168.66432 115.93546 
L 169.02144 115.397914 
L 169.37856 114.427935 
L 169.73568 115.228932 
L 170.0928 114.868351 
L 170.44992 114.797831 
L 170.80704 115.014712 
L 171.16416 116.013963 
L 171.52128 115.272841 
L 171.8784 115.306105 
L 172.23552 113.992842 
L 172.59264 114.213715 
L 172.94976 115.785107 
L 173.30688 114.688725 
L 173.664 114.356085 
L 174.02112 115.034671 
L 174.73536 114.184443 
L 175.09248 114.345441 
L 175.4496 114.29621 
L 175.80672 114.727311 
L 176.16384 114.172468 
L 176.52096 113.905025 
L 176.87808 113.862447 
L 177.2352 114.809806 
L 177.59232 114.238996 
L 178.30656 113.93962 
L 179.37792 114.784525 
L 179.73504 113.922323 
L 180.09216 115.154421 
L 180.44928 114.148518 
L 180.8064 114.111262 
L 181.16352 114.618205 
L 181.52064 114.612883 
L 181.87776 112.852552 
L 182.23488 114.34278 
L 182.592 113.561741 
L 182.94912 113.976876 
L 183.30624 113.469932 
L 183.66336 114.215046 
L 184.02048 114.260285 
L 184.3776 114.028767 
L 185.09184 113.947603 
L 185.44896 112.686232 
L 185.80608 112.974964 
L 186.1632 114.442572 
L 186.52032 113.453965 
L 186.87744 112.94303 
L 187.23456 112.772719 
L 187.59168 113.343529 
L 187.9488 113.0375 
L 188.30592 112.118083 
L 188.66304 112.498623 
L 189.02016 112.096794 
L 189.37728 112.472012 
L 189.7344 112.360245 
L 190.09152 111.828021 
L 190.44864 112.450723 
L 190.80576 112.404154 
L 191.16288 112.565151 
L 191.52 112.211222 
L 191.87712 113.190515 
L 192.23424 112.767396 
L 192.59136 111.80274 
L 192.94848 111.692304 
L 193.3056 113.830514 
L 193.66272 111.981036 
L 194.01984 112.960328 
L 194.37696 112.694216 
L 194.73408 111.154758 
L 195.0912 111.118833 
L 195.44832 111.651057 
L 195.80544 110.049062 
L 196.16256 109.92532 
L 196.51968 110.944529 
L 196.8768 110.891307 
L 197.23392 110.595923 
L 197.59104 109.861453 
L 197.94816 109.548772 
L 198.30528 111.677668 
L 198.6624 109.94927 
L 199.01952 110.674426 
L 199.37664 109.756339 
L 199.73376 110.175466 
L 200.09088 110.198085 
L 200.448 111.58719 
L 200.80512 110.183449 
L 201.16224 111.028355 
L 201.51936 109.814884 
L 201.87648 109.680497 
L 202.2336 109.043159 
L 202.59072 110.047732 
L 202.94784 109.406402 
L 203.30496 109.224115 
L 203.66208 109.365155 
L 204.0192 109.731059 
L 204.37632 109.462285 
L 204.73344 109.841495 
L 205.09056 109.438335 
L 205.44768 110.082326 
L 205.8048 107.650063 
L 206.16192 108.703866 
L 206.51904 108.172973 
L 206.87616 108.682577 
L 207.23328 109.548772 
L 207.5904 108.679916 
L 207.94752 108.810311 
L 208.30464 107.969397 
L 208.66176 108.719833 
L 209.01888 108.35659 
L 209.376 110.082326 
L 209.73312 108.999251 
L 210.09024 110.112929 
L 210.44736 109.613969 
L 210.80448 108.766403 
L 211.1616 109.438335 
L 211.51872 108.775716 
L 211.87584 108.544199 
L 212.23296 109.459624 
L 212.59008 108.968648 
L 212.9472 109.882742 
L 213.30432 110.150185 
L 213.66144 108.703866 
L 214.01856 108.505613 
L 214.37568 108.574802 
L 214.7328 107.946778 
L 215.08992 108.528232 
L 216.16128 109.570061 
L 216.5184 108.981953 
L 216.87552 108.770394 
L 217.23264 109.019209 
L 217.58976 108.915425 
L 217.94688 108.325987 
L 218.304 108.399168 
L 218.66112 107.489065 
L 219.01824 107.527651 
L 219.37536 109.072431 
L 220.0896 107.906861 
L 220.44672 108.038586 
L 220.80384 109.017878 
L 221.16096 108.409812 
L 221.51808 108.673263 
L 221.8752 108.255468 
L 222.23232 108.835592 
L 222.58944 108.898128 
L 222.94656 109.115009 
L 223.30368 108.042578 
L 223.6608 108.049231 
L 224.01792 107.864283 
L 224.37504 108.8795 
L 224.73216 107.522329 
L 225.08928 107.176383 
L 225.4464 108.256798 
L 225.80352 108.464365 
L 226.16064 107.827027 
L 226.51776 109.049812 
L 227.232 108.035925 
L 227.58912 108.976631 
L 228.30336 107.779127 
L 228.66048 107.83368 
L 229.0176 107.578212 
L 229.37472 108.220873 
L 229.73184 107.630104 
L 230.08896 107.503701 
L 230.44608 107.829688 
L 230.8032 107.084575 
L 231.16032 107.063286 
L 231.51744 107.365323 
L 231.87456 108.204906 
L 232.23168 106.086655 
L 232.5888 107.76183 
L 232.94592 107.422537 
L 233.30304 107.958753 
L 233.66016 107.183036 
L 234.01728 106.887652 
L 234.3744 109.027192 
L 234.73152 106.429939 
L 235.08864 106.246322 
L 235.44576 105.286988 
L 235.80288 106.215719 
L 236.16 106.187777 
L 236.51712 106.519087 
L 236.87424 106.190438 
L 237.23136 105.365491 
L 237.58848 105.519836 
L 237.9456 106.020127 
L 238.30272 105.140627 
L 238.65984 105.080751 
L 239.01696 104.472685 
L 239.7312 104.941043 
L 240.08832 104.487322 
L 240.44544 105.259046 
L 240.80256 105.293641 
L 241.15968 105.212477 
L 241.5168 105.57705 
L 241.87392 104.632353 
L 242.23104 105.236427 
L 242.58816 104.576469 
L 243.3024 104.798673 
L 243.65952 105.127321 
L 244.01664 104.761417 
L 244.37376 104.774723 
L 244.73088 104.641667 
L 245.088 104.022956 
L 245.44512 104.938381 
L 245.80224 104.621708 
L 246.51648 105.451978 
L 246.8736 105.777965 
L 247.23072 104.266449 
L 247.58784 104.758756 
L 248.30208 104.408819 
L 248.6592 104.605741 
L 249.01632 103.847322 
L 249.37344 104.662956 
L 249.73056 104.925076 
L 250.08768 104.420794 
L 250.4448 104.945034 
L 250.80192 104.275763 
L 251.51616 102.362417 
L 251.87328 103.46146 
L 252.2304 102.263956 
L 252.58752 103.146117 
L 253.30176 103.72225 
L 253.65888 102.825452 
L 254.016 102.905286 
L 254.37312 101.948613 
L 254.73024 102.423623 
L 255.08736 102.185453 
L 255.44448 102.593935 
L 255.8016 102.475515 
L 256.15872 102.907947 
L 256.51584 103.131481 
L 256.87296 102.237345 
L 257.23008 102.377053 
L 258.30144 100.700548 
L 258.65856 100.383875 
L 259.01568 101.387117 
L 259.3728 100.438428 
L 259.72992 101.015891 
L 260.08704 101.025204 
L 260.44416 101.850152 
L 260.80128 101.400422 
L 261.1584 102.15485 
L 261.51552 100.725828 
L 261.87264 101.404414 
L 262.22976 100.550195 
L 262.58688 101.191524 
L 262.944 101.308614 
L 263.65824 100.002004 
L 264.01536 100.386536 
L 264.37248 100.418469 
L 264.7296 100.027284 
L 265.08672 99.852981 
L 265.44384 99.117181 
L 265.80096 100.391858 
L 266.15808 99.695975 
L 266.5152 100.072524 
L 266.87232 100.672606 
L 267.58656 100.068532 
L 268.3008 100.096474 
L 268.65792 99.85032 
L 269.37216 98.743294 
L 269.72928 99.111859 
L 270.0864 97.992858 
L 270.44352 99.053315 
L 270.80064 98.143212 
L 271.15776 98.392026 
L 271.51488 98.019469 
L 271.872 97.42737 
L 272.22912 98.175145 
L 272.58624 97.11735 
L 272.94336 97.909033 
L 273.30048 97.444668 
L 273.6576 98.149864 
L 274.01472 98.012817 
L 275.08608 96.783379 
L 275.4432 97.065458 
L 275.80032 97.610988 
L 276.15744 96.517267 
L 277.2288 98.20974 
L 277.58592 97.841174 
L 278.30016 97.560426 
L 278.65728 97.693482 
L 279.0144 99.336724 
L 279.37152 97.994189 
L 279.72864 99.847659 
L 280.08576 99.888906 
L 280.44288 99.365996 
L 280.8 98.253648 
L 281.15712 98.767244 
L 281.51424 99.838345 
L 281.87136 98.604916 
L 282.5856 98.537057 
L 282.94272 98.332151 
L 283.29984 97.744044 
L 283.65696 96.382881 
L 284.01408 97.813233 
L 284.3712 96.464045 
L 284.72832 96.366914 
L 285.08544 95.450158 
L 285.44256 95.424877 
L 285.79968 95.178724 
L 286.1568 94.754275 
L 286.51392 96.068868 
L 287.22816 96.316353 
L 287.58528 96.724835 
L 287.9424 97.80658 
L 288.29952 93.641927 
L 288.65664 92.955358 
L 289.01376 94.621219 
L 289.37088 92.789038 
L 290.08512 97.340884 
L 290.44224 95.613817 
L 290.79936 95.310449 
L 291.15648 95.484753 
L 291.5136 91.862968 
L 291.87072 92.161014 
L 292.22784 91.611492 
L 292.58496 89.962929 
L 292.94208 92.733155 
L 293.2992 91.469123 
L 293.65632 94.17149 
L 294.01344 91.213655 
L 294.37056 90.523094 
L 294.72768 92.03328 
L 295.0848 89.980226 
L 295.44192 89.612991 
L 295.79904 88.322348 
L 296.15616 91.543634 
L 296.51328 92.420473 
L 296.8704 92.596107 
L 297.22752 92.588124 
L 297.58464 91.497064 
L 297.94176 91.704632 
L 298.29888 92.073197 
L 298.656 91.152449 
L 299.01312 90.980807 
L 299.37024 90.947543 
L 299.72736 90.024134 
L 300.08448 90.896982 
L 300.79872 89.853823 
L 301.15584 88.61108 
L 301.51296 88.996942 
L 301.87008 89.165923 
L 302.2272 88.532577 
L 302.58432 91.381306 
L 302.94144 92.440431 
L 304.0128 91.171077 
L 304.36992 88.078856 
L 304.72704 88.94505 
L 305.08416 87.602515 
L 305.44128 87.822058 
L 306.15552 85.11836 
L 306.51264 84.567508 
L 306.86976 85.653245 
L 307.22688 87.736902 
L 307.584 87.454823 
L 307.94112 87.976403 
L 308.29824 87.754199 
L 308.65536 86.885343 
L 309.01248 86.906632 
L 309.3696 93.286668 
L 309.72672 91.522345 
L 310.08384 88.929084 
L 310.44096 88.040269 
L 310.79808 87.867297 
L 311.1552 88.179978 
L 311.51232 85.5468 
L 311.86944 86.16418 
L 312.22656 88.082847 
L 312.58368 87.820727 
L 312.9408 88.179978 
L 313.29792 86.931913 
L 313.65504 87.437526 
L 314.01216 88.275779 
L 314.36928 87.378981 
L 314.7264 87.32842 
L 315.08352 86.97183 
L 315.44064 86.85341 
L 315.79776 84.256157 
L 316.15488 86.357111 
L 316.512 82.346803 
L 317.22624 84.753786 
L 317.58336 83.256906 
L 317.94048 85.80892 
L 318.2976 86.150874 
L 319.01184 87.627796 
L 319.36896 87.247256 
L 319.72608 86.009835 
L 320.0832 86.555364 
L 320.44032 84.449088 
L 320.79744 81.098738 
L 321.15456 81.363519 
L 321.51168 80.014332 
L 321.8688 79.217326 
L 322.22592 81.845182 
L 322.58304 81.511212 
L 322.94016 81.359528 
L 323.29728 79.886598 
L 323.6544 80.236535 
L 324.01152 79.925184 
L 324.36864 77.935997 
L 324.72576 77.744396 
L 325.08288 83.492415 
L 325.44 77.582068 
L 326.15424 76.616081 
L 326.51136 78.051756 
L 326.86848 77.882774 
L 327.2256 78.456246 
L 327.58272 79.553958 
L 327.93984 78.115622 
L 328.65408 78.764936 
L 329.0112 77.068472 
L 329.36832 78.365768 
L 329.72544 78.876703 
L 330.43968 77.794957 
L 330.7968 77.828221 
L 331.15392 76.617412 
L 331.51104 74.23704 
L 331.86816 75.737912 
L 332.22528 74.771925 
L 332.5824 77.947972 
L 332.93952 75.866976 
L 333.29664 77.121694 
L 333.65376 75.28286 
L 334.01088 75.630136 
L 334.368 74.362113 
L 334.72512 76.745146 
L 335.08224 76.017329 
L 335.43936 76.276788 
L 335.79648 77.929344 
L 336.1536 76.790385 
L 336.86784 80.118115 
L 337.22496 81.217158 
L 337.58208 79.217326 
L 337.9392 76.13708 
L 338.29632 75.131176 
L 338.65344 76.577495 
L 339.36768 72.733507 
L 339.7248 77.248097 
L 340.08192 76.58814 
L 340.43904 78.219406 
L 341.15328 80.526597 
L 341.5104 82.12593 
L 341.86752 80.20194 
L 342.22464 77.51554 
L 342.58176 77.591382 
L 342.93888 78.128928 
L 343.296 80.409508 
L 343.65312 78.138242 
L 344.36736 86.270625 
L 344.72448 83.234287 
L 345.0816 78.913958 
L 345.43872 80.408177 
L 345.79584 78.144895 
L 346.15296 81.571087 
L 346.51008 78.445601 
L 347.22432 83.45516 
L 347.58144 84.398527 
L 347.93856 79.229301 
L 348.29568 83.151792 
L 348.6528 83.295492 
L 349.00992 77.790966 
L 349.36704 76.3034 
L 350.08128 74.889014 
L 350.4384 74.922278 
L 350.79552 74.513796 
L 351.15264 75.394627 
L 351.50976 73.249764 
L 352.224 76.435125 
L 352.58112 74.983484 
L 352.93824 74.850428 
L 353.29536 74.544399 
L 353.65248 75.73392 
L 354.0096 74.685439 
L 354.36672 74.185148 
L 354.72384 74.440616 
L 355.08096 72.772093 
L 355.43808 70.403697 
L 355.7952 70.50748 
L 356.15232 69.259415 
L 356.50944 69.43771 
L 356.86656 70.715048 
L 357.22368 70.040454 
L 357.5808 71.12353 
L 358.29504 70.301244 
L 359.3664 72.839952 
L 359.72352 72.919786 
L 360.08064 70.128271 
L 360.43776 71.21933 
L 360.79488 69.403116 
L 361.152 70.700412 
L 361.50912 70.190807 
L 361.86624 72.116127 
L 362.22336 72.543237 
L 362.58048 71.743571 
L 362.9376 71.440203 
L 363.29472 72.446106 
L 363.65184 69.614675 
L 364.36608 71.871304 
L 364.7232 74.025481 
L 365.08032 74.424649 
L 365.43744 72.132094 
L 365.79456 74.42731 
L 366.15168 68.989311 
L 366.5088 68.709894 
L 366.86592 67.887608 
L 367.22304 69.243448 
L 367.58016 69.102409 
L 367.93728 72.157375 
L 368.2944 71.12353 
L 368.65152 74.536416 
L 369.00864 72.749474 
L 369.36576 72.734838 
L 369.72288 74.004192 
L 370.08 73.940325 
L 370.43712 73.007603 
L 371.15136 72.641699 
L 371.50848 72.223903 
L 371.8656 70.259996 
L 372.22272 70.998457 
L 372.57984 69.777003 
L 372.93696 69.6027 
L 373.29408 71.131513 
L 373.6512 70.052429 
L 374.00832 71.476128 
L 374.36544 71.225983 
L 374.72256 72.061574 
L 375.07968 71.418914 
L 375.4368 69.738417 
L 375.79392 72.000369 
L 376.15104 70.909309 
L 376.50816 72.47937 
L 376.86528 70.137585 
L 377.2224 71.530681 
L 377.57952 70.10166 
L 377.93664 71.340411 
L 378.29376 71.263238 
L 378.65088 72.07488 
L 379.008 72.442115 
L 379.36512 72.435462 
L 379.72224 72.020327 
L 380.07936 72.364942 
L 380.43648 71.820743 
L 381.15072 69.03455 
L 381.50784 68.709894 
L 381.86496 68.850933 
L 382.22208 70.153551 
L 382.5792 70.137585 
L 382.93632 69.017253 
L 383.29344 73.59438 
L 383.65056 74.85575 
L 384.00768 72.068227 
L 384.3648 71.999038 
L 384.72192 71.557292 
L 385.07904 73.350887 
L 385.43616 74.029473 
L 385.79328 73.302987 
L 386.1504 72.277125 
L 386.50752 73.538496 
L 386.86464 70.542075 
L 387.22176 71.038374 
L 387.936 69.629311 
L 388.29312 72.129433 
L 388.65024 71.634465 
L 389.00736 70.882698 
L 389.36448 73.868475 
L 389.7216 70.877376 
L 390.07872 71.71829 
L 390.43584 69.585402 
L 390.79296 69.243448 
L 391.15008 69.375174 
L 391.5072 68.189645 
L 391.86432 69.025236 
L 392.22144 68.269478 
L 392.57856 67.095924 
L 392.93568 67.84503 
L 393.2928 69.550808 
L 393.64992 68.313387 
L 394.00704 68.357295 
L 394.72128 69.482949 
L 395.0784 69.117045 
L 395.43552 69.002617 
L 395.79264 70.347813 
L 396.14976 69.15297 
L 396.50688 69.308646 
L 396.864 72.371595 
L 397.22112 68.970684 
L 397.57824 69.130351 
L 397.93536 68.872222 
L 398.29248 68.445112 
L 398.6496 66.981496 
L 399.00672 67.793138 
L 399.36384 69.234134 
L 399.72096 66.89634 
L 400.07808 67.707982 
L 400.4352 66.936257 
L 400.79232 67.850352 
L 401.50656 67.875633 
L 401.86368 68.631391 
L 402.2208 68.316048 
L 402.57792 68.79505 
L 403.29216 67.431226 
L 403.64928 68.441121 
L 404.0064 68.783075 
L 404.36352 67.721288 
L 404.72064 68.530268 
L 405.07776 69.686525 
L 405.43488 69.610683 
L 405.792 67.955466 
L 406.14912 68.490351 
L 406.50624 68.72453 
L 406.86336 67.739916 
L 407.22048 67.320789 
L 407.5776 72.041616 
L 407.93472 70.83879 
L 408.29184 70.629892 
L 408.64896 70.109643 
L 409.00608 70.024487 
L 409.3632 70.986482 
L 409.72032 69.070476 
L 410.07744 68.665985 
L 410.43456 69.376504 
L 410.79168 69.783656 
L 411.1488 70.693759 
L 411.50592 68.968022 
L 411.86304 67.976755 
L 412.22016 67.685363 
L 412.57728 67.992722 
L 412.9344 66.278961 
L 413.29152 69.985901 
L 413.64864 67.817088 
L 414.00576 69.12769 
L 414.36288 72.351636 
L 414.72 74.008184 
L 414.72 74.008184 
" style="fill:none;stroke:#1f77b4;stroke-linecap:square;stroke-width:1.2;"/>
   </g>
   <g id="patch_3">
    <path d="M 57.6 307.584 
L 57.6 41.472 
" style="fill:none;stroke:#000000;stroke-linecap:square;stroke-linejoin:miter;"/>
   </g>
   <g id="patch_4">
    <path d="M 414.72 307.584 
L 414.72 41.472 
" style="fill:none;stroke:#000000;stroke-linecap:square;stroke-linejoin:miter;"/>
   </g>
   <g id="patch_5">
    <path d="M 57.6 307.584 
L 414.72 307.584 
" style="fill:none;stroke:#000000;stroke-linecap:square;stroke-linejoin:miter;"/>
   </g>
   <g id="patch_6">
    <path d="M 57.6 41.472 
L 414.72 41.472 
" style="fill:none;stroke:#000000;stroke-linecap:square;stroke-linejoin:miter;"/>
   </g>
   <g id="text_15">
    <!-- Training - OpenAI-ES - Cartpole -->
    <g transform="translate(161.9055 35.472)scale(0.096 -0.096)">
     <defs>
      <path d="M 3513 2113 
L 3513 0 
L 2938 0 
L 2938 2094 
Q 2938 2591 2744 2837 
Q 2550 3084 2163 3084 
Q 1697 3084 1428 2787 
Q 1159 2491 1159 1978 
L 1159 0 
L 581 0 
L 581 3500 
L 1159 3500 
L 1159 2956 
Q 1366 3272 1645 3428 
Q 1925 3584 2291 3584 
Q 2894 3584 3203 3211 
Q 3513 2838 3513 2113 
z
" id="DejaVuSans-6e" transform="scale(0.015625)"/>
      <path d="M 2906 1791 
Q 2906 2416 2648 2759 
Q 2391 3103 1925 3103 
Q 1463 3103 1205 2759 
Q 947 2416 947 1791 
Q 947 1169 1205 825 
Q 1463 481 1925 481 
Q 2391 481 2648 825 
Q 2906 1169 2906 1791 
z
M 3481 434 
Q 3481 -459 3084 -895 
Q 2688 -1331 1869 -1331 
Q 1566 -1331 1297 -1286 
Q 1028 -1241 775 -1147 
L 775 -588 
Q 1028 -725 1275 -790 
Q 1522 -856 1778 -856 
Q 2344 -856 2625 -561 
Q 2906 -266 2906 331 
L 2906 616 
Q 2728 306 2450 153 
Q 2172 0 1784 0 
Q 1141 0 747 490 
Q 353 981 353 1791 
Q 353 2603 747 3093 
Q 1141 3584 1784 3584 
Q 2172 3584 2450 3431 
Q 2728 3278 2906 2969 
L 2906 3500 
L 3481 3500 
L 3481 434 
z
" id="DejaVuSans-67" transform="scale(0.015625)"/>
      <path id="DejaVuSans-20" transform="scale(0.015625)"/>
      <path d="M 313 2009 
L 1997 2009 
L 1997 1497 
L 313 1497 
L 313 2009 
z
" id="DejaVuSans-2d" transform="scale(0.015625)"/>
      <path d="M 2522 4238 
Q 1834 4238 1429 3725 
Q 1025 3213 1025 2328 
Q 1025 1447 1429 934 
Q 1834 422 2522 422 
Q 3209 422 3611 934 
Q 4013 1447 4013 2328 
Q 4013 3213 3611 3725 
Q 3209 4238 2522 4238 
z
M 2522 4750 
Q 3503 4750 4090 4092 
Q 4678 3434 4678 2328 
Q 4678 1225 4090 567 
Q 3503 -91 2522 -91 
Q 1538 -91 948 565 
Q 359 1222 359 2328 
Q 359 3434 948 4092 
Q 1538 4750 2522 4750 
z
" id="DejaVuSans-4f" transform="scale(0.015625)"/>
      <path d="M 2188 4044 
L 1331 1722 
L 3047 1722 
L 2188 4044 
z
M 1831 4666 
L 2547 4666 
L 4325 0 
L 3669 0 
L 3244 1197 
L 1141 1197 
L 716 0 
L 50 0 
L 1831 4666 
z
" id="DejaVuSans-41" transform="scale(0.015625)"/>
      <path d="M 628 4666 
L 1259 4666 
L 1259 0 
L 628 0 
L 628 4666 
z
" id="DejaVuSans-49" transform="scale(0.015625)"/>
      <path d="M 628 4666 
L 3578 4666 
L 3578 4134 
L 1259 4134 
L 1259 2753 
L 3481 2753 
L 3481 2222 
L 1259 2222 
L 1259 531 
L 3634 531 
L 3634 0 
L 628 0 
L 628 4666 
z
" id="DejaVuSans-45" transform="scale(0.015625)"/>
      <path d="M 3425 4513 
L 3425 3897 
Q 3066 4069 2747 4153 
Q 2428 4238 2131 4238 
Q 1616 4238 1336 4038 
Q 1056 3838 1056 3469 
Q 1056 3159 1242 3001 
Q 1428 2844 1947 2747 
L 2328 2669 
Q 3034 2534 3370 2195 
Q 3706 1856 3706 1288 
Q 3706 609 3251 259 
Q 2797 -91 1919 -91 
Q 1588 -91 1214 -16 
Q 841 59 441 206 
L 441 856 
Q 825 641 1194 531 
Q 1563 422 1919 422 
Q 2459 422 2753 634 
Q 3047 847 3047 1241 
Q 3047 1584 2836 1778 
Q 2625 1972 2144 2069 
L 1759 2144 
Q 1053 2284 737 2584 
Q 422 2884 422 3419 
Q 422 4038 858 4394 
Q 1294 4750 2059 4750 
Q 2388 4750 2728 4690 
Q 3069 4631 3425 4513 
z
" id="DejaVuSans-53" transform="scale(0.015625)"/>
      <path d="M 4122 4306 
L 4122 3641 
Q 3803 3938 3442 4084 
Q 3081 4231 2675 4231 
Q 1875 4231 1450 3742 
Q 1025 3253 1025 2328 
Q 1025 1406 1450 917 
Q 1875 428 2675 428 
Q 3081 428 3442 575 
Q 3803 722 4122 1019 
L 4122 359 
Q 3791 134 3420 21 
Q 3050 -91 2638 -91 
Q 1578 -91 968 557 
Q 359 1206 359 2328 
Q 359 3453 968 4101 
Q 1578 4750 2638 4750 
Q 3056 4750 3426 4639 
Q 3797 4528 4122 4306 
z
" id="DejaVuSans-43" transform="scale(0.015625)"/>
      <path d="M 1959 3097 
Q 1497 3097 1228 2736 
Q 959 2375 959 1747 
Q 959 1119 1226 758 
Q 1494 397 1959 397 
Q 2419 397 2687 759 
Q 2956 1122 2956 1747 
Q 2956 2369 2687 2733 
Q 2419 3097 1959 3097 
z
M 1959 3584 
Q 2709 3584 3137 3096 
Q 3566 2609 3566 1747 
Q 3566 888 3137 398 
Q 2709 -91 1959 -91 
Q 1206 -91 779 398 
Q 353 888 353 1747 
Q 353 2609 779 3096 
Q 1206 3584 1959 3584 
z
" id="DejaVuSans-6f" transform="scale(0.015625)"/>
      <path d="M 603 4863 
L 1178 4863 
L 1178 0 
L 603 0 
L 603 4863 
z
" id="DejaVuSans-6c" transform="scale(0.015625)"/>
     </defs>
     <use xlink:href="#DejaVuSans-54"/>
     <use x="46.333984" xlink:href="#DejaVuSans-72"/>
     <use x="87.447266" xlink:href="#DejaVuSans-61"/>
     <use x="148.726562" xlink:href="#DejaVuSans-69"/>
     <use x="176.509766" xlink:href="#DejaVuSans-6e"/>
     <use x="239.888672" xlink:href="#DejaVuSans-69"/>
     <use x="267.671875" xlink:href="#DejaVuSans-6e"/>
     <use x="331.050781" xlink:href="#DejaVuSans-67"/>
     <use x="394.527344" xlink:href="#DejaVuSans-20"/>
     <use x="426.314453" xlink:href="#DejaVuSans-2d"/>
     <use x="462.398438" xlink:href="#DejaVuSans-20"/>
     <use x="494.185547" xlink:href="#DejaVuSans-4f"/>
     <use x="572.896484" xlink:href="#DejaVuSans-70"/>
     <use x="636.373047" xlink:href="#DejaVuSans-65"/>
     <use x="697.896484" xlink:href="#DejaVuSans-6e"/>
     <use x="761.275391" xlink:href="#DejaVuSans-41"/>
     <use x="829.683594" xlink:href="#DejaVuSans-49"/>
     <use x="859.175781" xlink:href="#DejaVuSans-2d"/>
     <use x="895.259766" xlink:href="#DejaVuSans-45"/>
     <use x="958.443359" xlink:href="#DejaVuSans-53"/>
     <use x="1021.919922" xlink:href="#DejaVuSans-20"/>
     <use x="1053.707031" xlink:href="#DejaVuSans-2d"/>
     <use x="1089.791016" xlink:href="#DejaVuSans-20"/>
     <use x="1121.578125" xlink:href="#DejaVuSans-43"/>
     <use x="1191.402344" xlink:href="#DejaVuSans-61"/>
     <use x="1252.681641" xlink:href="#DejaVuSans-72"/>
     <use x="1293.794922" xlink:href="#DejaVuSans-74"/>
     <use x="1333.003906" xlink:href="#DejaVuSans-70"/>
     <use x="1396.480469" xlink:href="#DejaVuSans-6f"/>
     <use x="1457.662109" xlink:href="#DejaVuSans-6c"/>
     <use x="1485.445312" xlink:href="#DejaVuSans-65"/>
    </g>
   </g>
  </g>
 </g>
 <defs>
  <clipPath id="p7d61056346">
   <rect height="266.112" width="357.12" x="57.6" y="41.472"/>
  </clipPath>
 </defs>
</svg>
