<?xml version="1.0" encoding="utf-8" standalone="no"?>
<!DOCTYPE svg PUBLIC "-//W3C//DTD SVG 1.1//EN"
  "http://www.w3.org/Graphics/SVG/1.1/DTD/svg11.dtd">
<svg height="345.6pt" version="1.1" viewBox="0 0 460.8 345.6" width="460.8pt" xmlns="http://www.w3.org/2000/svg" xmlns:xlink="http://www.w3.org/1999/xlink">
 <metadata>
  <rdf:RDF xmlns:cc="http://creativecommons.org/ns#" xmlns:dc="http://purl.org/dc/elements/1.1/" xmlns:rdf="http://www.w3.org/1999/02/22-rdf-syntax-ns#">
   <cc:Work>
    <dc:type rdf:resource="http://purl.org/dc/dcmitype/StillImage"/>
    <dc:date>2021-07-22T17:33:44.141748</dc:date>
    <dc:format>image/svg+xml</dc:format>
    <dc:creator>
     <cc:Agent>
      <dc:title>Matplotlib v3.4.2, https://matplotlib.org/</dc:title>
     </cc:Agent>
    </dc:creator>
   </cc:Work>
  </rdf:RDF>
 </metadata>
 <defs>
  <style type="text/css">*{stroke-linecap:butt;stroke-linejoin:round;}</style>
 </defs>
 <g id="figure_1">
  <g id="patch_1">
   <path d="M 0 345.6 
L 460.8 345.6 
L 460.8 0 
L 0 0 
z
" style="fill:#ffffff;"/>
  </g>
  <g id="axes_1">
   <g id="patch_2">
    <path d="M 57.6 307.584 
L 414.72 307.584 
L 414.72 41.472 
L 57.6 41.472 
z
" style="fill:#ffffff;"/>
   </g>
   <g id="PolyCollection_1">
    <path clip-path="url(#p4f6a893a23)" d="M 57.95712 285.467935 
L 57.95712 286.654651 
L 58.31424 286.223118 
L 58.67136 286.115235 
L 59.02848 286.402923 
L 59.3856 285.360052 
L 59.74272 285.180246 
L 60.09984 284.748714 
L 60.45696 284.173336 
L 60.81408 284.281219 
L 61.1712 283.813725 
L 61.52832 283.813725 
L 61.88544 283.993531 
L 62.24256 283.993531 
L 62.59968 283.95757 
L 62.9568 284.245258 
L 63.31392 283.669881 
L 63.67104 282.914698 
L 64.02816 283.95757 
L 64.38528 283.921609 
L 64.7424 283.238348 
L 65.09952 283.597959 
L 65.45664 284.281219 
L 65.81376 282.878737 
L 66.17088 283.561998 
L 66.528 283.454115 
L 66.88512 283.849686 
L 67.24224 283.597959 
L 67.59936 283.130465 
L 67.95648 282.950659 
L 68.3136 283.454115 
L 68.67072 283.274309 
L 69.02784 283.31027 
L 69.38496 283.202387 
L 69.74208 283.597959 
L 70.0992 283.346231 
L 70.45632 282.842776 
L 70.81344 283.274309 
L 71.17056 283.741803 
L 71.52768 283.382192 
L 71.8848 283.490076 
L 72.24192 283.058543 
L 72.59904 284.029492 
L 72.95616 283.993531 
L 73.31328 283.490076 
L 73.6704 284.101414 
L 74.02752 283.526037 
L 74.38464 283.418154 
L 74.74176 283.454115 
L 75.09888 284.065453 
L 75.456 283.274309 
L 75.81312 282.842776 
L 76.17024 282.770854 
L 76.52736 283.166426 
L 76.88448 283.63392 
L 77.2416 283.166426 
L 77.59872 283.418154 
L 77.95584 283.274309 
L 78.31296 282.30336 
L 78.67008 283.561998 
L 79.0272 283.238348 
L 79.38432 283.490076 
L 79.74144 283.346231 
L 80.09856 283.63392 
L 80.45568 283.418154 
L 80.8128 282.62701 
L 81.16992 283.274309 
L 81.52704 283.63392 
L 81.88416 283.166426 
L 82.24128 283.202387 
L 82.5984 282.986621 
L 82.95552 283.058543 
L 83.31264 283.95757 
L 83.66976 283.705842 
L 84.02688 283.130465 
L 84.384 282.842776 
L 84.74112 283.094504 
L 85.09824 282.878737 
L 85.45536 283.058543 
L 85.81248 284.173336 
L 86.1696 283.526037 
L 86.52672 283.094504 
L 86.88384 283.741803 
L 87.24096 283.238348 
L 87.59808 282.411243 
L 87.9552 283.274309 
L 88.31232 283.166426 
L 88.66944 283.95757 
L 89.02656 283.63392 
L 89.38368 283.813725 
L 89.7408 282.62701 
L 90.09792 283.777764 
L 90.45504 283.526037 
L 90.81216 283.669881 
L 91.16928 283.418154 
L 91.5264 283.274309 
L 91.88352 283.63392 
L 92.24064 283.094504 
L 92.59776 282.950659 
L 92.95488 282.734893 
L 93.312 283.561998 
L 93.66912 282.447204 
L 94.02624 283.346231 
L 94.38336 282.806815 
L 94.74048 283.705842 
L 95.0976 283.130465 
L 95.45472 283.63392 
L 95.81184 283.382192 
L 96.16896 283.561998 
L 96.52608 283.561998 
L 96.8832 282.842776 
L 97.24032 283.022582 
L 97.59744 283.454115 
L 97.95456 283.526037 
L 98.31168 282.914698 
L 98.6688 283.058543 
L 99.02592 283.166426 
L 99.38304 283.490076 
L 99.74016 283.849686 
L 100.09728 283.490076 
L 100.4544 282.842776 
L 100.81152 283.238348 
L 101.16864 283.418154 
L 101.52576 283.31027 
L 101.88288 282.591049 
L 102.24 283.274309 
L 102.59712 283.130465 
L 102.95424 282.950659 
L 103.31136 282.698932 
L 103.66848 283.346231 
L 104.0256 283.022582 
L 104.38272 283.454115 
L 104.73984 284.209297 
L 105.09696 283.094504 
L 105.45408 283.777764 
L 105.8112 283.094504 
L 106.16832 282.986621 
L 106.52544 282.555088 
L 106.88256 282.051632 
L 107.23968 283.130465 
L 107.5968 283.058543 
L 107.95392 283.202387 
L 108.31104 282.698932 
L 108.66816 283.490076 
L 109.02528 282.914698 
L 109.3824 282.986621 
L 109.73952 283.202387 
L 110.09664 282.051632 
L 110.45376 282.483165 
L 110.81088 283.454115 
L 111.168 282.195477 
L 111.52512 282.195477 
L 111.88224 282.483165 
L 112.23936 282.195477 
L 112.59648 281.907788 
L 112.9536 282.770854 
L 113.31072 282.267399 
L 113.66784 283.130465 
L 114.02496 282.411243 
L 114.38208 282.914698 
L 114.7392 282.195477 
L 115.09632 282.483165 
L 115.45344 282.878737 
L 115.81056 283.382192 
L 116.16768 283.526037 
L 116.5248 283.166426 
L 116.88192 282.842776 
L 117.23904 282.914698 
L 117.59616 283.993531 
L 117.95328 283.63392 
L 118.3104 282.447204 
L 118.66752 283.705842 
L 119.02464 282.878737 
L 119.38176 282.770854 
L 119.73888 282.878737 
L 120.096 282.662971 
L 120.45312 282.806815 
L 120.81024 282.30336 
L 121.16736 282.231438 
L 121.52448 282.914698 
L 121.8816 283.561998 
L 122.23872 282.015671 
L 122.59584 282.986621 
L 122.95296 282.519126 
L 123.31008 282.842776 
L 123.6672 282.842776 
L 124.02432 282.806815 
L 124.38144 283.058543 
L 124.73856 282.123555 
L 125.09568 281.907788 
L 125.4528 282.591049 
L 125.80992 281.907788 
L 126.16704 282.267399 
L 126.52416 282.734893 
L 126.88128 283.274309 
L 127.2384 282.519126 
L 127.59552 282.051632 
L 127.95264 281.656061 
L 128.30976 282.842776 
L 128.66688 281.656061 
L 129.024 282.591049 
L 129.38112 281.97971 
L 129.73824 282.914698 
L 130.09536 283.490076 
L 130.45248 282.339321 
L 130.8096 283.022582 
L 131.16672 282.267399 
L 131.52384 282.339321 
L 131.88096 282.842776 
L 132.23808 283.346231 
L 132.5952 282.914698 
L 132.95232 283.490076 
L 133.30944 282.986621 
L 133.66656 282.375282 
L 134.02368 283.058543 
L 134.3808 282.591049 
L 134.73792 282.519126 
L 135.09504 282.698932 
L 135.45216 282.734893 
L 135.80928 282.914698 
L 136.1664 282.986621 
L 136.52352 282.914698 
L 136.88064 282.015671 
L 137.23776 282.62701 
L 137.59488 282.770854 
L 137.952 281.188566 
L 138.30912 282.015671 
L 138.66624 282.555088 
L 139.02336 282.842776 
L 139.38048 282.375282 
L 139.7376 281.943749 
L 140.09472 282.411243 
L 140.45184 282.950659 
L 140.80896 282.716912 
L 141.16608 281.656061 
L 141.5232 282.986621 
L 141.88032 282.321341 
L 142.23744 283.058543 
L 142.59456 282.105574 
L 142.95168 282.62701 
L 143.3088 281.907788 
L 143.66592 282.483165 
L 144.02304 281.116644 
L 144.38016 282.698932 
L 144.73728 282.267399 
L 145.0944 281.96173 
L 145.45152 281.871827 
L 145.80864 281.224528 
L 146.16576 281.745963 
L 146.52288 282.393263 
L 146.88 282.231438 
L 147.23712 282.573068 
L 147.59424 282.752874 
L 147.95136 281.674041 
L 148.30848 282.267399 
L 148.6656 281.29645 
L 149.02272 281.907788 
L 149.37984 282.195477 
L 149.73696 282.087594 
L 150.09408 282.465185 
L 150.4512 282.321341 
L 150.80832 282.411243 
L 151.16544 282.64499 
L 151.52256 281.97971 
L 151.87968 282.860757 
L 152.2368 282.752874 
L 152.59392 282.177496 
L 152.95104 282.860757 
L 153.30816 281.925769 
L 153.66528 281.692022 
L 154.0224 282.680951 
L 154.37952 282.159516 
L 154.73664 282.64499 
L 155.09376 281.692022 
L 155.45088 281.925769 
L 155.808 282.393263 
L 156.16512 282.537107 
L 156.52224 282.213457 
L 156.87936 282.033652 
L 157.23648 281.835866 
L 157.5936 282.680951 
L 157.95072 281.997691 
L 158.30784 281.080683 
L 158.66496 281.710002 
L 159.02208 282.429224 
L 159.3792 281.907788 
L 159.73632 280.918858 
L 160.09344 281.63808 
L 160.45056 282.015671 
L 160.80768 281.925769 
L 161.1648 280.685111 
L 161.52192 282.321341 
L 161.87904 282.267399 
L 162.23616 281.242508 
L 162.59328 281.548177 
L 162.9504 282.033652 
L 163.30752 282.680951 
L 163.66464 281.584138 
L 164.02176 281.799905 
L 164.37888 281.512216 
L 164.736 282.860757 
L 165.09312 281.727983 
L 165.45024 282.267399 
L 165.80736 281.889808 
L 166.16448 281.386352 
L 166.5216 281.96173 
L 166.87872 280.900878 
L 167.23584 280.505306 
L 167.59296 281.080683 
L 167.95008 282.249418 
L 168.3072 281.206547 
L 168.66432 281.925769 
L 169.02144 281.386352 
L 169.37856 281.656061 
L 169.73568 281.350391 
L 170.0928 281.242508 
L 170.44992 282.105574 
L 170.80704 282.249418 
L 171.16416 281.96173 
L 171.52128 281.29645 
L 171.8784 281.96173 
L 172.23552 280.900878 
L 172.59264 281.080683 
L 172.94976 280.523286 
L 173.30688 280.864917 
L 173.664 281.97971 
L 174.02112 281.620099 
L 174.37824 280.487325 
L 174.73536 281.224528 
L 175.09248 281.31443 
L 175.4496 281.368372 
L 175.80672 282.806815 
L 176.16384 281.889808 
L 176.52096 282.195477 
L 176.87808 281.332411 
L 177.2352 282.141535 
L 177.59232 281.080683 
L 177.94944 281.692022 
L 178.30656 281.674041 
L 178.66368 280.091754 
L 179.0208 280.199637 
L 179.37792 281.548177 
L 179.73504 281.530197 
L 180.09216 281.925769 
L 180.44928 280.63117 
L 180.8064 281.044722 
L 181.16352 281.404333 
L 181.52064 281.008761 
L 181.87776 280.289539 
L 182.23488 281.907788 
L 182.592 281.602119 
L 182.94912 281.350391 
L 183.30624 281.494236 
L 183.66336 281.494236 
L 184.02048 280.9728 
L 184.3776 280.667131 
L 184.73472 280.505306 
L 185.09184 280.775014 
L 185.44896 281.368372 
L 185.80608 280.523286 
L 186.1632 280.954819 
L 186.52032 279.804065 
L 186.87744 281.188566 
L 187.23456 281.224528 
L 187.59168 280.397423 
L 187.9488 279.786084 
L 188.30592 280.810975 
L 188.66304 281.710002 
L 189.02016 279.96589 
L 189.37728 281.925769 
L 189.7344 281.224528 
L 190.09152 280.397423 
L 190.44864 281.494236 
L 190.80576 280.739053 
L 191.16288 279.858006 
L 191.52 278.491485 
L 191.87712 279.120804 
L 192.23424 279.786084 
L 192.59136 280.30752 
L 192.94848 278.113894 
L 193.3056 280.019831 
L 193.66272 280.595209 
L 194.01984 279.750123 
L 194.37696 280.379442 
L 194.73408 281.332411 
L 195.0912 279.768104 
L 195.44832 280.415403 
L 195.80544 279.102824 
L 196.16256 280.271559 
L 196.51968 281.368372 
L 196.8768 280.541267 
L 197.23392 279.875987 
L 197.59104 280.073773 
L 197.94816 278.509466 
L 198.30528 280.199637 
L 198.6624 280.703092 
L 199.01952 279.552337 
L 199.37664 280.703092 
L 199.73376 281.008761 
L 200.09088 278.97696 
L 200.448 280.019831 
L 200.80512 279.336571 
L 201.16224 279.210707 
L 201.51936 280.757034 
L 201.87648 280.775014 
L 202.2336 279.102824 
L 202.59072 278.689271 
L 202.94784 281.422314 
L 203.30496 279.96589 
L 203.66208 280.577228 
L 204.0192 279.588298 
L 204.37632 279.31859 
L 204.73344 279.030902 
L 205.09056 280.361462 
L 205.44768 279.714162 
L 205.8048 281.530197 
L 206.16192 279.804065 
L 206.51904 279.246668 
L 206.87616 279.911948 
L 207.23328 279.822045 
L 207.5904 278.851096 
L 207.94752 280.343481 
L 208.30464 279.444454 
L 208.66176 278.221777 
L 209.01888 280.523286 
L 209.376 278.725232 
L 209.73312 280.433384 
L 210.09024 279.660221 
L 210.44736 279.714162 
L 210.80448 279.696182 
L 211.1616 279.408493 
L 211.51872 279.768104 
L 211.87584 281.206547 
L 212.23296 278.689271 
L 212.59008 279.822045 
L 212.9472 279.750123 
L 213.30432 279.732143 
L 213.66144 281.440294 
L 214.01856 280.253578 
L 214.37568 280.217617 
L 214.7328 281.098664 
L 215.08992 279.120804 
L 215.44704 279.768104 
L 215.80416 280.091754 
L 216.16128 279.192726 
L 216.5184 280.109734 
L 216.87552 280.936839 
L 217.23264 279.786084 
L 217.58976 278.095914 
L 217.94688 280.217617 
L 218.304 279.786084 
L 218.66112 280.469345 
L 219.01824 280.379442 
L 219.37536 279.64224 
L 219.73248 278.401583 
L 220.0896 279.408493 
L 220.44672 279.31859 
L 220.80384 279.678201 
L 221.16096 280.001851 
L 221.51808 280.379442 
L 221.8752 280.253578 
L 222.23232 279.102824 
L 222.58944 279.660221 
L 222.94656 280.109734 
L 223.30368 279.732143 
L 223.6608 279.228688 
L 224.01792 280.721072 
L 224.37504 280.253578 
L 224.73216 280.451364 
L 225.08928 279.804065 
L 225.4464 279.462435 
L 225.80352 279.426474 
L 226.16064 280.577228 
L 226.51776 279.98387 
L 226.87488 279.390512 
L 227.232 279.893968 
L 227.58912 279.570318 
L 227.94624 279.156765 
L 228.30336 280.936839 
L 228.66048 278.869077 
L 229.0176 279.534357 
L 229.37472 279.480415 
L 229.73184 280.109734 
L 230.08896 279.911948 
L 230.44608 279.858006 
L 230.8032 279.786084 
L 231.16032 280.271559 
L 231.51744 279.156765 
L 231.87456 279.030902 
L 232.23168 280.954819 
L 232.5888 278.743213 
L 232.94592 280.199637 
L 233.30304 279.192726 
L 233.66016 280.001851 
L 234.01728 280.523286 
L 234.3744 278.149855 
L 234.73152 279.786084 
L 235.08864 280.667131 
L 235.44576 281.476255 
L 235.80288 278.527446 
L 236.16 278.167836 
L 236.51712 279.31859 
L 236.87424 279.750123 
L 237.23136 278.940999 
L 237.58848 279.444454 
L 237.9456 279.030902 
L 238.30272 280.199637 
L 238.65984 280.145695 
L 239.01696 279.875987 
L 239.37408 280.792995 
L 239.7312 280.073773 
L 240.08832 278.887057 
L 240.44544 279.498396 
L 240.80256 280.9728 
L 241.15968 280.091754 
L 241.5168 278.761194 
L 241.87392 279.822045 
L 242.23104 279.822045 
L 242.58816 279.570318 
L 242.94528 280.613189 
L 243.3024 278.869077 
L 243.65952 280.990781 
L 244.01664 280.127715 
L 244.37376 280.019831 
L 244.73088 280.613189 
L 245.088 279.893968 
L 245.44512 278.958979 
L 245.80224 279.30061 
L 246.15936 281.476255 
L 246.51648 279.390512 
L 246.8736 279.696182 
L 247.23072 279.372532 
L 247.58784 278.815135 
L 247.94496 280.091754 
L 248.30208 280.073773 
L 248.6592 280.055792 
L 249.01632 279.732143 
L 249.37344 280.271559 
L 249.73056 279.786084 
L 250.08768 280.882897 
L 250.4448 279.732143 
L 250.80192 279.714162 
L 251.15904 280.721072 
L 251.51616 278.779174 
L 251.87328 279.911948 
L 252.2304 280.775014 
L 252.58752 281.206547 
L 252.94464 280.379442 
L 253.30176 280.073773 
L 253.65888 279.624259 
L 254.016 278.994941 
L 254.37312 281.332411 
L 254.73024 279.98387 
L 255.08736 280.990781 
L 255.44448 278.905038 
L 255.8016 279.480415 
L 256.15872 278.65331 
L 256.51584 278.905038 
L 256.87296 279.480415 
L 257.23008 280.289539 
L 257.5872 279.732143 
L 257.94432 279.426474 
L 258.30144 280.163676 
L 258.65856 281.494236 
L 259.01568 278.581388 
L 259.3728 279.893968 
L 259.72992 279.947909 
L 260.08704 278.851096 
L 260.44416 279.911948 
L 260.80128 280.505306 
L 261.1584 279.786084 
L 261.51552 278.347641 
L 261.87264 279.768104 
L 262.22976 278.869077 
L 262.58688 279.480415 
L 262.944 278.347641 
L 263.30112 278.509466 
L 263.65824 279.102824 
L 264.01536 278.527446 
L 264.37248 281.494236 
L 264.7296 280.415403 
L 265.08672 279.893968 
L 265.44384 280.019831 
L 265.80096 279.750123 
L 266.15808 277.862166 
L 266.5152 279.390512 
L 266.87232 279.372532 
L 267.22944 279.030902 
L 267.58656 279.408493 
L 267.94368 279.64224 
L 268.3008 279.390512 
L 268.65792 279.911948 
L 269.01504 279.929929 
L 269.37216 278.401583 
L 269.72928 279.714162 
L 270.0864 278.869077 
L 270.44352 280.792995 
L 270.80064 280.145695 
L 271.15776 279.498396 
L 271.51488 277.808225 
L 271.872 279.084843 
L 272.22912 279.822045 
L 272.58624 279.552337 
L 272.94336 276.675451 
L 273.30048 279.768104 
L 273.6576 278.437544 
L 274.01472 279.408493 
L 274.37184 279.120804 
L 274.72896 278.887057 
L 275.08608 279.858006 
L 275.4432 279.822045 
L 275.80032 278.923018 
L 276.15744 279.732143 
L 276.51456 278.023991 
L 276.87168 279.354551 
L 277.2288 278.65331 
L 277.58592 279.516376 
L 277.94304 279.426474 
L 278.30016 278.887057 
L 278.65728 278.401583 
L 279.0144 277.538517 
L 279.37152 278.65331 
L 279.72864 278.275719 
L 280.08576 278.994941 
L 280.44288 279.444454 
L 280.8 278.707252 
L 281.15712 278.671291 
L 281.51424 279.660221 
L 281.87136 279.156765 
L 282.22848 278.65331 
L 282.5856 279.732143 
L 282.94272 278.563408 
L 283.29984 278.473505 
L 283.65696 280.253578 
L 284.01408 279.750123 
L 284.3712 278.455524 
L 284.72832 278.63533 
L 285.08544 279.246668 
L 285.44256 279.606279 
L 285.79968 277.898128 
L 286.1568 279.012921 
L 286.51392 279.516376 
L 286.87104 278.994941 
L 287.22816 276.927178 
L 287.58528 278.994941 
L 287.9424 279.138785 
L 288.29952 279.012921 
L 288.65664 279.64224 
L 289.01376 279.066863 
L 289.37088 278.023991 
L 289.728 279.498396 
L 290.08512 276.999101 
L 290.44224 279.048882 
L 290.79936 277.934089 
L 291.15648 279.31859 
L 291.5136 278.994941 
L 291.87072 278.131875 
L 292.22784 279.372532 
L 292.58496 279.030902 
L 292.94208 278.113894 
L 293.2992 279.462435 
L 293.65632 278.797155 
L 294.01344 279.408493 
L 294.37056 279.606279 
L 294.72768 279.138785 
L 295.0848 279.030902 
L 295.44192 278.994941 
L 295.79904 279.156765 
L 296.15616 279.516376 
L 296.51328 279.120804 
L 296.8704 278.887057 
L 297.22752 278.077933 
L 297.58464 279.480415 
L 297.94176 279.570318 
L 298.29888 279.426474 
L 298.656 278.365622 
L 299.01312 278.779174 
L 299.37024 279.624259 
L 299.72736 279.066863 
L 300.08448 278.833116 
L 300.4416 279.64224 
L 300.79872 279.138785 
L 301.15584 278.815135 
L 301.51296 280.127715 
L 301.87008 279.372532 
L 302.2272 279.372532 
L 302.58432 278.275719 
L 302.94144 279.552337 
L 303.29856 280.271559 
L 303.65568 278.97696 
L 304.0128 278.905038 
L 304.36992 279.390512 
L 304.72704 279.210707 
L 305.08416 278.275719 
L 305.44128 278.365622 
L 305.7984 278.185816 
L 306.15552 278.887057 
L 306.51264 279.030902 
L 306.86976 278.581388 
L 307.22688 279.156765 
L 307.584 279.678201 
L 307.94112 278.239758 
L 308.29824 278.239758 
L 308.65536 279.048882 
L 309.01248 278.383602 
L 309.3696 278.293699 
L 309.72672 278.725232 
L 310.08384 279.516376 
L 310.44096 278.725232 
L 310.79808 279.534357 
L 311.1552 278.347641 
L 311.51232 278.257738 
L 311.86944 278.887057 
L 312.22656 277.826205 
L 312.58368 277.808225 
L 312.9408 280.001851 
L 313.29792 279.156765 
L 313.65504 279.64224 
L 314.01216 277.97005 
L 314.36928 279.066863 
L 314.7264 279.408493 
L 315.08352 277.934089 
L 315.44064 276.873237 
L 315.79776 280.541267 
L 316.15488 278.923018 
L 316.512 278.761194 
L 316.86912 278.383602 
L 317.22624 278.617349 
L 317.58336 278.239758 
L 317.94048 278.527446 
L 318.2976 278.599369 
L 318.65472 278.347641 
L 319.01184 278.994941 
L 319.36896 279.012921 
L 319.72608 280.235598 
L 320.0832 278.203797 
L 320.44032 278.923018 
L 320.79744 277.664381 
L 321.15456 277.664381 
L 321.51168 279.534357 
L 321.8688 278.347641 
L 322.22592 276.873237 
L 322.58304 279.606279 
L 322.94016 278.581388 
L 323.29728 278.527446 
L 323.6544 279.156765 
L 324.01152 277.736303 
L 324.36864 277.520536 
L 324.72576 279.192726 
L 325.08288 278.851096 
L 325.44 278.545427 
L 325.79712 277.376692 
L 326.15424 278.059952 
L 326.51136 279.714162 
L 326.86848 277.610439 
L 327.2256 278.185816 
L 327.58272 278.940999 
L 327.93984 278.617349 
L 328.29696 279.282629 
L 328.65408 278.419563 
L 329.0112 278.023991 
L 329.36832 279.228688 
L 329.72544 278.671291 
L 330.08256 279.660221 
L 330.43968 278.293699 
L 330.7968 278.419563 
L 331.15392 278.185816 
L 331.51104 278.833116 
L 331.86816 278.006011 
L 332.22528 278.63533 
L 332.5824 278.63533 
L 332.93952 277.754283 
L 333.29664 278.63533 
L 333.65376 278.707252 
L 334.01088 279.858006 
L 334.368 280.127715 
L 334.72512 278.797155 
L 335.08224 279.31859 
L 335.43936 277.394672 
L 335.79648 278.527446 
L 336.1536 278.617349 
L 336.51072 278.617349 
L 336.86784 279.012921 
L 337.22496 278.113894 
L 337.58208 277.718322 
L 337.9392 278.347641 
L 338.29632 278.455524 
L 338.65344 278.958979 
L 339.01056 279.354551 
L 339.36768 278.491485 
L 339.7248 279.264649 
L 340.08192 277.934089 
L 340.43904 279.98387 
L 340.79616 279.678201 
L 341.15328 278.851096 
L 341.5104 278.940999 
L 341.86752 278.923018 
L 342.22464 278.257738 
L 342.58176 278.97696 
L 342.93888 278.743213 
L 343.296 278.689271 
L 343.65312 277.394672 
L 344.01024 277.916108 
L 344.36736 278.365622 
L 344.72448 278.275719 
L 345.0816 278.167836 
L 345.43872 278.491485 
L 345.79584 278.689271 
L 346.15296 278.63533 
L 346.51008 278.077933 
L 346.8672 278.221777 
L 347.22432 278.869077 
L 347.58144 279.858006 
L 347.93856 277.6464 
L 348.29568 279.624259 
L 348.6528 279.138785 
L 349.00992 278.401583 
L 349.36704 279.588298 
L 349.72416 279.606279 
L 350.08128 279.066863 
L 350.4384 277.98803 
L 350.79552 277.754283 
L 351.15264 277.484575 
L 351.50976 278.221777 
L 351.86688 278.994941 
L 352.224 278.887057 
L 352.58112 278.059952 
L 352.93824 278.779174 
L 353.29536 278.437544 
L 353.65248 278.761194 
L 354.0096 278.797155 
L 354.36672 277.664381 
L 354.72384 278.617349 
L 355.08096 279.030902 
L 355.43808 277.6464 
L 355.7952 278.275719 
L 356.15232 278.527446 
L 356.50944 277.035062 
L 356.86656 278.059952 
L 357.22368 278.239758 
L 357.5808 277.592458 
L 357.93792 279.822045 
L 358.29504 278.97696 
L 358.65216 278.869077 
L 359.00928 277.268809 
L 359.3664 278.905038 
L 359.72352 278.365622 
L 360.08064 277.6464 
L 360.43776 278.31168 
L 360.79488 277.790244 
L 361.152 278.059952 
L 361.50912 277.196886 
L 361.86624 278.599369 
L 362.22336 278.797155 
L 362.58048 278.113894 
L 362.9376 279.678201 
L 363.29472 278.491485 
L 363.65184 277.844186 
L 364.00896 277.808225 
L 364.36608 278.923018 
L 364.7232 278.257738 
L 365.08032 277.30477 
L 365.43744 277.880147 
L 365.79456 279.31859 
L 366.15168 278.31168 
L 366.5088 277.538517 
L 366.86592 277.232848 
L 367.22304 276.783334 
L 367.58016 277.448614 
L 367.93728 276.495645 
L 368.2944 276.63949 
L 368.65152 277.664381 
L 369.00864 278.473505 
L 369.36576 276.495645 
L 369.72288 276.837276 
L 370.08 278.383602 
L 370.43712 276.010171 
L 370.79424 276.261898 
L 371.15136 277.448614 
L 371.50848 276.189976 
L 371.8656 277.556497 
L 372.22272 277.035062 
L 372.57984 276.585548 
L 372.93696 275.65056 
L 373.29408 278.095914 
L 373.6512 276.477665 
L 374.00832 275.740463 
L 374.36544 277.053042 
L 374.72256 277.610439 
L 375.07968 277.142945 
L 375.4368 277.466595 
L 375.79392 277.232848 
L 376.15104 275.99219 
L 376.50816 277.394672 
L 376.86528 277.484575 
L 377.2224 277.466595 
L 377.57952 279.066863 
L 377.93664 276.729392 
L 378.29376 276.855256 
L 378.65088 276.873237 
L 379.008 278.167836 
L 379.36512 278.923018 
L 379.72224 277.556497 
L 380.07936 276.98112 
L 380.43648 277.916108 
L 380.7936 276.423723 
L 381.15072 276.855256 
L 381.50784 276.747373 
L 381.86496 277.053042 
L 382.22208 275.686521 
L 382.5792 278.257738 
L 382.93632 277.214867 
L 383.29344 276.333821 
L 383.65056 276.369782 
L 384.00768 274.913358 
L 384.3648 277.466595 
L 384.72192 277.592458 
L 385.07904 277.808225 
L 385.43616 276.171996 
L 385.79328 277.520536 
L 386.1504 278.167836 
L 386.50752 278.131875 
L 386.86464 277.358711 
L 387.22176 276.945159 
L 387.57888 277.520536 
L 387.936 277.592458 
L 388.29312 276.801315 
L 388.65024 277.700342 
L 389.00736 277.430634 
L 389.36448 278.365622 
L 389.7216 277.484575 
L 390.07872 277.880147 
L 390.43584 278.365622 
L 390.79296 276.423723 
L 391.15008 276.963139 
L 391.5072 276.855256 
L 391.86432 276.855256 
L 392.22144 276.693431 
L 392.57856 275.866326 
L 392.93568 276.31584 
L 393.2928 275.506716 
L 393.64992 278.257738 
L 394.00704 277.053042 
L 394.36416 276.783334 
L 394.72128 276.819295 
L 395.0784 278.239758 
L 395.43552 277.520536 
L 395.79264 277.736303 
L 396.14976 276.65747 
L 396.50688 275.956229 
L 396.864 277.071023 
L 397.22112 277.142945 
L 397.57824 277.089003 
L 397.93536 275.848346 
L 398.29248 275.938249 
L 398.6496 275.524696 
L 399.00672 276.747373 
L 399.36384 276.423723 
L 399.72096 276.495645 
L 400.07808 277.664381 
L 400.4352 276.963139 
L 400.79232 275.578638 
L 401.14944 275.704502 
L 401.50656 276.423723 
L 401.86368 276.711412 
L 402.2208 277.736303 
L 402.57792 278.63533 
L 402.93504 275.830365 
L 403.29216 275.524696 
L 403.64928 277.106984 
L 404.0064 275.97421 
L 404.36352 275.32691 
L 404.72064 277.196886 
L 405.07776 275.057202 
L 405.43488 276.513626 
L 405.792 274.715572 
L 406.14912 277.32275 
L 406.50624 277.035062 
L 406.86336 276.459684 
L 407.22048 276.171996 
L 407.5776 277.124964 
L 407.93472 276.028151 
L 408.29184 276.369782 
L 408.64896 276.801315 
L 409.00608 276.405743 
L 409.3632 275.938249 
L 409.72032 275.902288 
L 410.07744 275.812385 
L 410.43456 276.423723 
L 410.79168 277.880147 
L 411.1488 276.243918 
L 411.50592 277.574478 
L 411.86304 276.621509 
L 412.22016 277.196886 
L 412.57728 275.97421 
L 412.9344 276.549587 
L 413.29152 275.488735 
L 413.64864 276.567568 
L 414.00576 277.592458 
L 414.36288 274.589708 
L 414.72 276.675451 
L 414.72 127.652731 
L 414.72 127.652731 
L 414.36288 139.879498 
L 414.00576 140.167187 
L 413.64864 131.842197 
L 413.29152 128.228108 
L 412.9344 130.134045 
L 412.57728 136.337332 
L 412.22016 131.62643 
L 411.86304 139.951421 
L 411.50592 134.773025 
L 411.1488 140.92237 
L 410.79168 143.008112 
L 410.43456 142.91821 
L 410.07744 145.759135 
L 409.72032 131.716333 
L 409.3632 136.499157 
L 409.00608 142.91821 
L 408.64896 130.727403 
L 408.29184 130.871248 
L 407.93472 139.915459 
L 407.5776 132.507477 
L 407.22048 134.791005 
L 406.86336 139.016432 
L 406.50624 128.96531 
L 406.14912 130.997111 
L 405.792 128.94733 
L 405.43488 131.95008 
L 405.07776 126.915529 
L 404.72064 137.757795 
L 404.36352 133.94592 
L 404.0064 139.537868 
L 403.64928 137.542028 
L 403.29216 130.799325 
L 402.93504 137.074534 
L 402.57792 137.919619 
L 402.2208 144.878089 
L 401.86368 135.384363 
L 401.50656 133.999862 
L 401.14944 138.225289 
L 400.79232 139.951421 
L 400.4352 138.998452 
L 400.07808 135.006772 
L 399.72096 140.436895 
L 399.36384 134.755044 
L 399.00672 140.94035 
L 398.6496 141.479766 
L 398.29248 152.933371 
L 397.93536 134.629181 
L 397.57824 143.979062 
L 397.22112 136.445215 
L 396.864 142.001202 
L 396.50688 145.867018 
L 396.14976 144.410595 
L 395.79264 138.674802 
L 395.43552 140.149206 
L 395.0784 150.523978 
L 394.72128 142.954171 
L 394.36416 143.781276 
L 394.00704 142.828307 
L 393.64992 136.714923 
L 393.2928 138.315191 
L 392.93568 140.778525 
L 392.57856 138.351152 
L 392.22144 144.320692 
L 391.86432 144.176848 
L 391.5072 147.629111 
L 391.15008 142.163027 
L 390.79296 146.064804 
L 390.43584 146.370474 
L 390.07872 142.127066 
L 389.7216 151.494928 
L 389.36448 150.362154 
L 389.00736 140.041323 
L 388.65024 145.453466 
L 388.29312 143.367723 
L 387.936 143.295801 
L 387.57888 145.543369 
L 387.22176 147.179598 
L 386.86464 156.403615 
L 386.50752 145.992882 
L 386.1504 152.106266 
L 385.79328 151.315122 
L 385.43616 144.950011 
L 385.07904 141.983222 
L 384.72192 150.056484 
L 384.3648 146.604221 
L 384.00768 144.446556 
L 383.65056 152.214149 
L 383.29344 154.24595 
L 382.93632 145.777116 
L 382.5792 154.89325 
L 382.22208 141.443805 
L 381.86496 144.212809 
L 381.50784 149.391204 
L 381.15072 153.814417 
L 380.7936 165.052255 
L 380.43648 152.268091 
L 380.07936 156.90707 
L 379.72224 153.023274 
L 379.36512 148.186508 
L 379.008 151.476947 
L 378.65088 141.353903 
L 378.29376 152.501838 
L 377.93664 147.9168 
L 377.57952 158.830988 
L 377.2224 148.024683 
L 376.86528 149.373224 
L 376.50816 157.176778 
L 376.15104 153.185098 
L 375.79392 147.557189 
L 375.4368 148.24045 
L 375.07968 160.862789 
L 374.72256 146.118746 
L 374.36544 152.016363 
L 374.00832 157.662253 
L 373.6512 153.203079 
L 373.29408 157.428506 
L 372.93696 160.89875 
L 372.57984 153.382884 
L 372.22272 160.700964 
L 371.8656 148.510158 
L 371.50848 151.638772 
L 371.15136 157.284662 
L 370.79424 153.796437 
L 370.43712 161.725855 
L 370.08 146.046824 
L 369.72288 154.695464 
L 369.36576 153.059235 
L 369.00864 158.273591 
L 368.65152 164.620722 
L 368.2944 155.001133 
L 367.93728 158.795027 
L 367.58016 147.719014 
L 367.22304 151.135317 
L 366.86592 156.619382 
L 366.5088 151.207239 
L 366.15168 157.608311 
L 365.79456 161.312303 
L 365.43744 151.045414 
L 365.08032 161.348264 
L 364.7232 162.319213 
L 364.36608 155.504588 
L 364.00896 150.90157 
L 363.65184 158.147728 
L 363.29472 160.377315 
L 362.9376 150.020523 
L 362.58048 155.378724 
L 362.22336 153.832398 
L 361.86624 153.131157 
L 361.50912 148.384294 
L 361.152 166.292912 
L 360.79488 148.600061 
L 360.43776 157.23072 
L 360.08064 160.305392 
L 359.72352 161.653933 
L 359.3664 153.436826 
L 359.00928 155.162958 
L 358.65216 153.778456 
L 358.29504 164.458897 
L 357.93792 153.724515 
L 357.5808 152.034344 
L 357.22368 153.346923 
L 356.86656 159.56819 
L 356.50944 149.157457 
L 356.15232 168.162889 
L 355.7952 160.161548 
L 355.43808 159.028774 
L 355.08096 164.962352 
L 354.72384 156.547459 
L 354.36672 162.121427 
L 354.0096 154.371814 
L 353.65248 158.255611 
L 353.29536 162.157388 
L 352.93824 163.973423 
L 352.58112 168.450577 
L 352.224 160.089626 
L 351.86688 163.362084 
L 351.50976 150.523978 
L 351.15264 173.19744 
L 350.79552 164.764566 
L 350.4384 167.030115 
L 350.08128 164.20717 
L 349.72416 161.88768 
L 349.36704 171.363425 
L 349.00992 162.570941 
L 348.6528 169.565371 
L 348.29568 162.067485 
L 347.93856 181.648294 
L 347.58144 169.043935 
L 347.22432 175.013475 
L 346.8672 168.774227 
L 346.51008 165.21408 
L 346.15296 162.516999 
L 345.79584 171.705055 
L 345.43872 169.727196 
L 345.0816 165.573691 
L 344.72448 174.707805 
L 344.36736 169.421526 
L 344.01024 168.162889 
L 343.65312 164.404956 
L 343.296 170.770067 
L 342.93888 164.818508 
L 342.58176 174.294253 
L 342.22464 164.135248 
L 341.86752 161.582011 
L 341.5104 172.244471 
L 341.15328 170.230651 
L 340.79616 173.664934 
L 340.43904 173.646954 
L 340.08192 172.568121 
L 339.7248 171.794958 
L 339.36768 178.231991 
L 339.01056 173.323304 
L 338.65344 173.826759 
L 338.29632 166.436757 
L 337.9392 177.332964 
L 337.58208 172.891771 
L 337.22496 169.403546 
L 336.86784 175.912502 
L 336.51072 170.086806 
L 336.1536 179.418707 
L 335.79648 170.949872 
L 335.43936 176.883451 
L 335.08224 171.579191 
L 334.72512 178.034205 
L 334.368 181.072917 
L 334.01088 174.905591 
L 333.65376 174.923572 
L 333.29664 177.782478 
L 332.93952 183.248562 
L 332.5824 177.890361 
L 332.22528 177.279023 
L 331.86816 181.702236 
L 331.51104 185.046616 
L 331.15392 186.628904 
L 330.7968 187.348125 
L 330.43968 188.606763 
L 330.08256 179.310824 
L 329.72544 183.140679 
L 329.36832 181.935983 
L 329.0112 188.84051 
L 328.65408 186.539001 
L 328.29696 185.873721 
L 327.93984 182.637224 
L 327.58272 186.736787 
L 327.2256 182.673185 
L 326.86848 195.313505 
L 326.51136 181.594352 
L 326.15424 184.920752 
L 325.79712 178.501699 
L 325.44 185.568052 
L 325.08288 186.970534 
L 324.72576 183.446348 
L 324.36864 185.406227 
L 324.01152 192.562482 
L 323.6544 189.721557 
L 323.29728 180.659364 
L 322.94016 186.628904 
L 322.58304 189.290024 
L 322.22592 187.114378 
L 321.8688 192.346716 
L 321.51168 186.143429 
L 321.15456 194.989855 
L 320.79744 199.323165 
L 320.44032 192.724307 
L 320.0832 190.944234 
L 319.72608 193.083918 
L 319.36896 189.937323 
L 319.01184 188.139269 
L 318.65472 191.681436 
L 318.2976 192.760268 
L 317.94048 199.772679 
L 317.58336 202.253994 
L 317.22624 191.034136 
L 316.86912 194.82803 
L 316.512 191.897202 
L 316.15488 200.923434 
L 315.79776 188.301094 
L 315.44064 191.285864 
L 315.08352 200.851511 
L 314.7264 199.664796 
L 314.36928 203.782339 
L 314.01216 195.888882 
L 313.65504 197.776839 
L 313.29792 203.368787 
L 312.9408 196.985695 
L 312.58368 198.891632 
L 312.22656 195.15168 
L 311.86944 192.184891 
L 311.51232 196.230512 
L 311.1552 194.090828 
L 310.79808 202.523702 
L 310.44096 198.47808 
L 310.08384 191.789319 
L 309.72672 195.547252 
L 309.3696 195.097738 
L 309.01248 195.978785 
L 308.65536 203.350806 
L 308.29824 194.738128 
L 307.94112 198.729808 
L 307.584 199.790659 
L 307.22688 208.45728 
L 306.86976 198.226352 
L 306.51264 212.269155 
L 306.15552 205.544432 
L 305.7984 211.927524 
L 305.44128 204.735308 
L 305.08416 202.074188 
L 304.72704 202.829371 
L 304.36992 198.100489 
L 304.0128 200.707667 
L 303.65568 208.079689 
L 303.29856 206.821051 
L 302.94144 206.11981 
L 302.58432 209.338326 
L 302.2272 201.283044 
L 301.87008 202.757449 
L 301.51296 202.523702 
L 301.15584 200.653725 
L 300.79872 202.667546 
L 300.4416 197.704917 
L 300.08448 206.749129 
L 299.72736 202.074188 
L 299.37024 197.686936 
L 299.01312 194.989855 
L 298.656 203.171001 
L 298.29888 203.296865 
L 297.94176 210.11149 
L 297.58464 203.332826 
L 297.22752 200.419978 
L 296.8704 202.038227 
L 296.51328 195.673116 
L 296.15616 205.868082 
L 295.79904 207.612195 
L 295.44192 201.786499 
L 295.0848 199.80864 
L 294.72768 207.12672 
L 294.37056 210.039568 
L 294.01344 208.691027 
L 293.65632 206.407498 
L 293.2992 214.696528 
L 292.94208 205.400588 
L 292.58496 205.328666 
L 292.22784 202.577643 
L 291.87072 207.252584 
L 291.5136 204.4656 
L 291.15648 206.731148 
L 290.79936 212.502902 
L 290.44224 213.276065 
L 290.08512 203.350806 
L 289.728 203.620515 
L 289.37088 206.155771 
L 289.01376 212.233194 
L 288.65664 211.495991 
L 288.29952 213.11424 
L 287.9424 207.018837 
L 287.58528 214.264995 
L 287.22816 211.621855 
L 286.87104 214.858352 
L 286.51392 215.757379 
L 286.1568 217.663317 
L 285.79968 214.552683 
L 285.44256 213.707598 
L 285.08544 216.134971 
L 284.72832 208.906794 
L 284.3712 216.602465 
L 284.01408 202.289955 
L 283.65696 223.273245 
L 283.29984 206.371537 
L 282.94272 215.253924 
L 282.5856 216.962076 
L 282.22848 211.873583 
L 281.87136 215.811321 
L 281.51424 214.408839 
L 281.15712 226.401859 
L 280.8 214.498742 
L 280.44288 216.638426 
L 280.08576 227.300886 
L 279.72864 218.076869 
L 279.37152 219.569254 
L 279.0144 215.577574 
L 278.65728 220.396359 
L 278.30016 218.202733 
L 277.94304 217.195823 
L 277.58592 220.684048 
L 277.2288 217.986966 
L 276.87168 215.595555 
L 276.51456 224.370058 
L 276.15744 223.021518 
L 275.80032 224.801591 
L 275.4432 212.862512 
L 275.08608 221.547114 
L 274.72896 227.480692 
L 274.37184 218.220714 
L 274.01472 224.064389 
L 273.6576 225.844463 
L 273.30048 222.122491 
L 272.94336 221.978646 
L 272.58624 231.004878 
L 272.22912 226.725509 
L 271.872 225.664657 
L 271.51488 229.692298 
L 271.15776 219.838962 
L 270.80064 216.602465 
L 270.44352 218.454461 
L 270.0864 224.316117 
L 269.72928 229.242785 
L 269.37216 221.259425 
L 269.01504 225.341008 
L 268.65792 227.984147 
L 268.3008 225.610716 
L 267.94368 227.480692 
L 267.58656 226.401859 
L 267.22944 223.992467 
L 266.87232 229.800182 
L 266.5152 230.177773 
L 266.15808 225.017358 
L 265.80096 230.968917 
L 265.44384 227.282906 
L 265.08672 227.049159 
L 264.7296 225.502832 
L 264.37248 231.184683 
L 264.01536 228.451641 
L 263.65824 227.049159 
L 263.30112 225.233124 
L 262.944 227.678478 
L 262.58688 234.025609 
L 262.22976 230.555364 
L 261.87264 229.584415 
L 261.51552 231.328528 
L 261.1584 226.995217 
L 260.80128 228.433661 
L 260.44416 230.267676 
L 260.08704 234.277336 
L 259.72992 234.223395 
L 259.3728 237.208164 
L 259.01568 227.768381 
L 258.65856 231.957846 
L 258.30144 233.306387 
L 257.94432 237.226145 
L 257.5872 233.630037 
L 257.23008 233.432251 
L 256.87296 234.74483 
L 256.51584 237.675658 
L 256.15872 231.526314 
L 255.8016 240.264856 
L 255.44448 237.477872 
L 255.08736 230.177773 
L 254.73024 241.505514 
L 254.37312 236.830573 
L 254.016 235.553955 
L 253.65888 241.883105 
L 253.30176 247.223325 
L 252.94464 232.713029 
L 252.58752 232.245535 
L 252.2304 240.121012 
L 251.87328 232.173613 
L 251.51616 238.376899 
L 251.15904 234.241375 
L 250.80192 240.300817 
L 250.4448 233.540134 
L 250.08768 232.191594 
L 249.73056 236.039429 
L 249.37344 238.286997 
L 249.01632 236.992398 
L 248.6592 237.585756 
L 248.30208 237.316048 
L 247.94496 231.652177 
L 247.58784 236.794612 
L 247.23072 237.226145 
L 246.8736 237.082301 
L 246.51648 236.111351 
L 246.15936 241.505514 
L 245.80224 245.083641 
L 245.44512 243.177704 
L 245.088 246.863715 
L 244.73088 246.70189 
L 244.37376 239.437751 
L 244.01664 242.925976 
L 243.65952 246.522084 
L 243.3024 237.441911 
L 242.94528 240.930136 
L 242.58816 247.493034 
L 242.23104 244.652108 
L 241.87392 241.613397 
L 241.5168 243.842984 
L 241.15968 240.085051 
L 240.80256 241.181864 
L 240.44544 246.072571 
L 240.08832 247.169384 
L 239.7312 241.883105 
L 239.37408 244.418361 
L 239.01696 249.38099 
L 238.65984 246.629968 
L 238.30272 245.533155 
L 237.9456 250.801453 
L 237.58848 252.977098 
L 237.23136 247.475053 
L 236.87424 245.605077 
L 236.51712 246.288337 
L 236.16 247.295248 
L 235.80288 245.119602 
L 235.44576 244.04077 
L 235.08864 247.744761 
L 234.73152 245.083641 
L 234.3744 247.834664 
L 234.01728 247.762742 
L 233.66016 250.513764 
L 233.30304 245.946707 
L 232.94592 248.733691 
L 232.5888 247.313228 
L 232.23168 251.790383 
L 231.87456 246.342279 
L 231.51744 252.743351 
L 231.16032 249.596757 
L 230.8032 250.747511 
L 230.44608 250.729531 
L 230.08896 249.057341 
L 229.73184 249.416951 
L 229.37472 249.38099 
L 229.0176 248.661769 
L 228.66048 248.553885 
L 228.30336 250.136173 
L 227.94624 249.237146 
L 227.58912 254.379581 
L 227.232 255.925907 
L 226.87488 255.69216 
L 226.51776 250.172134 
L 226.16064 253.876125 
L 225.80352 251.484714 
L 225.4464 252.293838 
L 225.08928 250.675589 
L 224.73216 246.396221 
L 224.37504 253.318729 
L 224.01792 248.985418 
L 223.6608 252.02413 
L 223.30368 257.939728 
L 222.94656 253.013059 
L 222.58944 253.228826 
L 222.23232 254.954958 
L 221.8752 254.127853 
L 221.51808 256.447343 
L 221.16096 251.898266 
L 220.80384 253.804203 
L 220.44672 255.818024 
L 220.0896 255.278608 
L 219.73248 255.044861 
L 219.37536 251.790383 
L 219.01824 251.70048 
L 218.66112 251.053181 
L 218.304 252.815274 
L 217.94688 256.393401 
L 217.58976 258.766832 
L 217.23264 257.148584 
L 216.87552 255.242646 
L 216.5184 257.418292 
L 216.16128 255.818024 
L 215.80416 254.253717 
L 215.44704 257.274448 
L 215.08992 257.454253 
L 214.7328 257.688 
L 214.37568 254.073911 
L 214.01856 254.127853 
L 213.66144 253.714301 
L 213.30432 254.253717 
L 212.9472 258.371261 
L 212.59008 260.277198 
L 212.23296 260.546906 
L 211.87584 257.130603 
L 211.51872 258.605008 
L 211.1616 261.949388 
L 210.80448 261.158244 
L 210.44736 257.274448 
L 210.09024 258.928657 
L 209.73312 256.303498 
L 209.376 261.33805 
L 209.01888 263.801384 
L 208.66176 258.101552 
L 208.30464 259.234326 
L 207.94752 259.450093 
L 207.5904 259.054521 
L 207.23328 258.119533 
L 206.87616 259.36019 
L 206.51904 257.094642 
L 206.16192 257.705981 
L 205.8048 260.492964 
L 205.44768 258.047611 
L 205.09056 259.198365 
L 204.73344 256.447343 
L 204.37632 257.616078 
L 204.0192 260.313159 
L 203.66208 258.02963 
L 203.30496 260.34912 
L 202.94784 258.946638 
L 202.59072 258.155494 
L 202.2336 260.654789 
L 201.87648 259.881626 
L 201.51936 259.306249 
L 201.16224 259.665859 
L 200.80512 259.144424 
L 200.448 256.950798 
L 200.09088 256.788973 
L 199.73376 261.104303 
L 199.37664 262.776493 
L 199.01952 260.798634 
L 198.6624 261.320069 
L 198.30528 262.434863 
L 197.94816 259.378171 
L 197.59104 262.992259 
L 197.23392 260.439023 
L 196.8768 263.963209 
L 196.51968 264.107053 
L 196.16256 261.517855 
L 195.80544 265.653379 
L 195.44832 264.214936 
L 195.0912 264.466664 
L 194.73408 264.071092 
L 194.37696 262.794474 
L 194.01984 266.210776 
L 193.66272 264.376761 
L 193.3056 264.484644 
L 192.94848 266.947978 
L 192.59136 265.833185 
L 192.23424 265.815204 
L 191.87712 267.289609 
L 191.52 264.053111 
L 191.16288 267.127784 
L 190.80576 265.617418 
L 190.44864 265.851165 
L 190.09152 263.729462 
L 189.7344 266.822115 
L 189.37728 266.768173 
L 189.02016 266.606348 
L 188.66304 267.34355 
L 188.30592 266.498465 
L 187.9488 266.444523 
L 187.59168 267.019901 
L 187.23456 265.078002 
L 186.87744 265.401652 
L 186.52032 268.260558 
L 186.1632 266.840095 
L 185.80608 267.721142 
L 185.44896 268.530266 
L 185.09184 266.876056 
L 184.73472 266.282698 
L 184.3776 268.638149 
L 184.02048 266.138854 
L 183.66336 266.947978 
L 183.30624 266.210776 
L 182.94912 266.156835 
L 182.592 266.066932 
L 182.23488 268.026811 
L 181.87776 266.840095 
L 181.52064 266.516445 
L 181.16352 268.314499 
L 180.8064 267.99085 
L 180.44928 267.99085 
L 180.09216 266.822115 
L 179.73504 270.184476 
L 179.37792 267.505375 
L 179.0208 266.552406 
L 178.66368 270.094573 
L 178.30656 270.220437 
L 177.94944 270.598028 
L 177.59232 269.806884 
L 177.2352 269.015741 
L 176.87808 273.65472 
L 176.52096 268.368441 
L 176.16384 270.9936 
L 175.80672 271.119464 
L 175.4496 268.99776 
L 175.09248 269.087663 
L 174.73536 270.202456 
L 174.37824 269.752943 
L 174.02112 272.036471 
L 173.664 270.813795 
L 173.30688 270.975619 
L 172.94976 269.806884 
L 172.59264 270.382262 
L 172.23552 271.083503 
L 171.8784 271.119464 
L 171.52128 271.209366 
L 171.16416 271.227347 
L 170.80704 272.557907 
L 170.44992 271.622919 
L 170.0928 273.528856 
L 169.73568 271.515036 
L 169.37856 270.238417 
L 169.02144 272.809635 
L 168.66432 273.97837 
L 168.3072 273.726642 
L 167.95008 273.277129 
L 167.59296 274.158175 
L 167.23584 273.492895 
L 166.87872 273.960389 
L 166.5216 275.021241 
L 166.16448 273.133284 
L 165.80736 274.032311 
L 165.45024 275.039222 
L 165.09312 274.571728 
L 164.736 272.899537 
L 164.37888 274.499805 
L 164.02176 273.672701 
L 163.66464 272.270218 
L 163.30752 275.183066 
L 162.9504 274.787494 
L 162.59328 273.65472 
L 162.23616 274.64365 
L 161.87904 274.140195 
L 161.52192 274.553747 
L 161.1648 275.542677 
L 160.80768 275.470755 
L 160.45056 274.140195 
L 160.09344 274.607689 
L 159.73632 274.769514 
L 159.3792 275.003261 
L 159.02208 273.546837 
L 158.66496 274.463844 
L 158.30784 276.31584 
L 157.95072 274.409903 
L 157.5936 273.618759 
L 157.23648 274.445864 
L 156.87936 273.582798 
L 156.52224 275.830365 
L 156.16512 276.513626 
L 155.808 274.823455 
L 155.45088 275.524696 
L 155.09376 275.848346 
L 154.73664 277.124964 
L 154.37952 276.513626 
L 154.0224 275.99219 
L 153.66528 275.578638 
L 153.30816 277.502556 
L 152.95104 276.549587 
L 152.59392 277.071023 
L 152.2368 278.167836 
L 151.87968 275.201046 
L 151.52256 277.178906 
L 151.16544 276.154015 
L 150.80832 276.837276 
L 150.4512 277.089003 
L 150.09408 277.880147 
L 149.73696 277.862166 
L 149.37984 276.495645 
L 149.02272 277.071023 
L 148.6656 277.538517 
L 148.30848 278.257738 
L 147.95136 279.210707 
L 147.59424 277.934089 
L 147.23712 277.017081 
L 146.88 278.617349 
L 146.52288 276.549587 
L 146.16576 278.131875 
L 145.80864 278.958979 
L 145.45152 279.660221 
L 145.0944 278.887057 
L 144.73728 279.426474 
L 144.38016 279.480415 
L 144.02304 279.336571 
L 143.66592 279.64224 
L 143.3088 278.041972 
L 142.95168 277.502556 
L 142.59456 279.246668 
L 142.23744 278.509466 
L 141.88032 278.113894 
L 141.5232 278.97696 
L 141.16608 279.354551 
L 140.80896 279.786084 
L 140.45184 278.545427 
L 140.09472 279.282629 
L 139.7376 281.188566 
L 139.38048 278.994941 
L 139.02336 279.102824 
L 138.66624 279.714162 
L 138.30912 280.181656 
L 137.952 279.678201 
L 137.59488 280.037812 
L 137.23776 279.210707 
L 136.88064 280.721072 
L 136.52352 277.952069 
L 136.1664 279.786084 
L 135.80928 279.678201 
L 135.45216 278.815135 
L 135.09504 279.929929 
L 134.73792 280.900878 
L 134.3808 280.289539 
L 134.02368 280.217617 
L 133.66656 280.505306 
L 133.30944 279.31859 
L 132.95232 280.433384 
L 132.5952 280.145695 
L 132.23808 280.289539 
L 131.88096 279.210707 
L 131.52384 279.462435 
L 131.16672 280.469345 
L 130.8096 279.31859 
L 130.45248 279.31859 
L 130.09536 279.786084 
L 129.73824 281.332411 
L 129.38112 280.9728 
L 129.024 280.001851 
L 128.66688 280.433384 
L 128.30976 280.037812 
L 127.95264 279.246668 
L 127.59552 280.145695 
L 127.2384 280.001851 
L 126.88128 280.073773 
L 126.52416 280.828956 
L 126.16704 280.505306 
L 125.80992 280.64915 
L 125.4528 281.476255 
L 125.09568 281.224528 
L 124.73856 280.181656 
L 124.38144 280.397423 
L 124.02432 280.792995 
L 123.6672 279.174746 
L 123.31008 281.260489 
L 122.95296 281.404333 
L 122.59584 281.044722 
L 122.23872 279.893968 
L 121.8816 280.001851 
L 121.52448 281.116644 
L 121.16736 279.678201 
L 120.81024 280.828956 
L 120.45312 280.64915 
L 120.096 279.678201 
L 119.73888 280.325501 
L 119.38176 279.858006 
L 119.02464 279.929929 
L 118.66752 280.577228 
L 118.3104 281.116644 
L 117.95328 280.253578 
L 117.59616 280.361462 
L 117.23904 280.253578 
L 116.88192 280.613189 
L 116.5248 280.469345 
L 116.16768 282.015671 
L 115.81056 280.613189 
L 115.45344 281.044722 
L 115.09632 281.440294 
L 114.7392 280.541267 
L 114.38208 280.864917 
L 114.02496 280.9728 
L 113.66784 280.685111 
L 113.31072 281.044722 
L 112.9536 281.188566 
L 112.59648 281.260489 
L 112.23936 281.29645 
L 111.88224 281.116644 
L 111.52512 280.469345 
L 111.168 281.224528 
L 110.81088 280.936839 
L 110.45376 280.325501 
L 110.09664 280.289539 
L 109.73952 281.907788 
L 109.3824 281.548177 
L 109.02528 281.584138 
L 108.66816 281.188566 
L 108.31104 281.224528 
L 107.95392 281.188566 
L 107.5968 280.361462 
L 107.23968 280.505306 
L 106.88256 281.044722 
L 106.52544 281.763944 
L 106.16832 281.620099 
L 105.8112 282.159516 
L 105.45408 282.30336 
L 105.09696 282.411243 
L 104.73984 282.231438 
L 104.38272 281.907788 
L 104.0256 281.512216 
L 103.66848 281.835866 
L 103.31136 282.30336 
L 102.95424 281.835866 
L 102.59712 281.727983 
L 102.24 281.548177 
L 101.88288 281.871827 
L 101.52576 282.087594 
L 101.16864 281.943749 
L 100.81152 281.943749 
L 100.4544 281.548177 
L 100.09728 282.30336 
L 99.74016 282.411243 
L 99.38304 282.734893 
L 99.02592 281.476255 
L 98.6688 281.620099 
L 98.31168 281.835866 
L 97.95456 282.195477 
L 97.59744 282.267399 
L 97.24032 281.943749 
L 96.8832 282.483165 
L 96.52608 282.231438 
L 96.16896 282.195477 
L 95.81184 281.97971 
L 95.45472 282.015671 
L 95.0976 282.30336 
L 94.74048 282.842776 
L 94.38336 281.763944 
L 94.02624 282.051632 
L 93.66912 281.548177 
L 93.312 282.087594 
L 92.95488 281.476255 
L 92.59776 281.620099 
L 92.24064 282.195477 
L 91.88352 281.620099 
L 91.5264 281.727983 
L 91.16928 282.483165 
L 90.81216 282.591049 
L 90.45504 282.195477 
L 90.09792 282.087594 
L 89.7408 281.871827 
L 89.38368 281.656061 
L 89.02656 282.986621 
L 88.66944 282.62701 
L 88.31232 282.051632 
L 87.9552 282.411243 
L 87.59808 281.29645 
L 87.24096 282.483165 
L 86.88384 282.662971 
L 86.52672 281.943749 
L 86.1696 282.519126 
L 85.81248 282.986621 
L 85.45536 281.835866 
L 85.09824 282.051632 
L 84.74112 282.267399 
L 84.384 281.620099 
L 84.02688 282.231438 
L 83.66976 282.339321 
L 83.31264 282.159516 
L 82.95552 282.231438 
L 82.5984 282.375282 
L 82.24128 282.123555 
L 81.88416 282.806815 
L 81.52704 281.907788 
L 81.16992 282.591049 
L 80.8128 281.368372 
L 80.45568 281.763944 
L 80.09856 282.267399 
L 79.74144 282.30336 
L 79.38432 281.835866 
L 79.0272 282.123555 
L 78.67008 281.835866 
L 78.31296 281.620099 
L 77.95584 282.447204 
L 77.59872 282.339321 
L 77.2416 281.548177 
L 76.88448 282.770854 
L 76.52736 281.260489 
L 76.17024 281.799905 
L 75.81312 282.483165 
L 75.456 282.159516 
L 75.09888 282.375282 
L 74.74176 282.195477 
L 74.38464 282.195477 
L 74.02752 282.339321 
L 73.6704 282.62701 
L 73.31328 282.411243 
L 72.95616 282.591049 
L 72.59904 282.734893 
L 72.24192 282.483165 
L 71.8848 282.087594 
L 71.52768 282.195477 
L 71.17056 283.130465 
L 70.81344 281.871827 
L 70.45632 281.763944 
L 70.0992 282.411243 
L 69.74208 282.483165 
L 69.38496 282.878737 
L 69.02784 282.62701 
L 68.67072 282.195477 
L 68.3136 281.97971 
L 67.95648 281.907788 
L 67.59936 282.087594 
L 67.24224 282.411243 
L 66.88512 282.734893 
L 66.528 282.662971 
L 66.17088 282.555088 
L 65.81376 281.656061 
L 65.45664 282.662971 
L 65.09952 282.62701 
L 64.7424 282.123555 
L 64.38528 282.698932 
L 64.02816 283.058543 
L 63.67104 282.411243 
L 63.31392 282.770854 
L 62.9568 282.339321 
L 62.59968 283.130465 
L 62.24256 283.202387 
L 61.88544 282.662971 
L 61.52832 282.986621 
L 61.1712 283.058543 
L 60.81408 283.274309 
L 60.45696 283.849686 
L 60.09984 283.63392 
L 59.74272 284.604869 
L 59.3856 283.993531 
L 59.02848 284.568908 
L 58.67136 284.748714 
L 58.31424 284.928519 
L 57.95712 285.467935 
z
" style="fill:#1f77b4;fill-opacity:0.25;"/>
   </g>
   <g id="matplotlib.axis_1">
    <g id="xtick_1">
     <g id="line2d_1">
      <defs>
       <path d="M 0 0 
L 0 4.8 
" id="m2bc881ee5d" style="stroke:#000000;"/>
      </defs>
      <g>
       <use style="stroke:#000000;" x="57.6" xlink:href="#m2bc881ee5d" y="307.584"/>
      </g>
     </g>
     <g id="text_1">
      <!-- 0 -->
      <g transform="translate(54.8005 322.570625)scale(0.088 -0.088)">
       <defs>
        <path d="M 2034 4250 
Q 1547 4250 1301 3770 
Q 1056 3291 1056 2328 
Q 1056 1369 1301 889 
Q 1547 409 2034 409 
Q 2525 409 2770 889 
Q 3016 1369 3016 2328 
Q 3016 3291 2770 3770 
Q 2525 4250 2034 4250 
z
M 2034 4750 
Q 2819 4750 3233 4129 
Q 3647 3509 3647 2328 
Q 3647 1150 3233 529 
Q 2819 -91 2034 -91 
Q 1250 -91 836 529 
Q 422 1150 422 2328 
Q 422 3509 836 4129 
Q 1250 4750 2034 4750 
z
" id="DejaVuSans-30" transform="scale(0.015625)"/>
       </defs>
       <use xlink:href="#DejaVuSans-30"/>
      </g>
     </g>
    </g>
    <g id="xtick_2">
     <g id="line2d_2">
      <g>
       <use style="stroke:#000000;" x="129.024" xlink:href="#m2bc881ee5d" y="307.584"/>
      </g>
     </g>
     <g id="text_2">
      <!-- 200 -->
      <g transform="translate(120.6255 322.570625)scale(0.088 -0.088)">
       <defs>
        <path d="M 1228 531 
L 3431 531 
L 3431 0 
L 469 0 
L 469 531 
Q 828 903 1448 1529 
Q 2069 2156 2228 2338 
Q 2531 2678 2651 2914 
Q 2772 3150 2772 3378 
Q 2772 3750 2511 3984 
Q 2250 4219 1831 4219 
Q 1534 4219 1204 4116 
Q 875 4013 500 3803 
L 500 4441 
Q 881 4594 1212 4672 
Q 1544 4750 1819 4750 
Q 2544 4750 2975 4387 
Q 3406 4025 3406 3419 
Q 3406 3131 3298 2873 
Q 3191 2616 2906 2266 
Q 2828 2175 2409 1742 
Q 1991 1309 1228 531 
z
" id="DejaVuSans-32" transform="scale(0.015625)"/>
       </defs>
       <use xlink:href="#DejaVuSans-32"/>
       <use x="63.623047" xlink:href="#DejaVuSans-30"/>
       <use x="127.246094" xlink:href="#DejaVuSans-30"/>
      </g>
     </g>
    </g>
    <g id="xtick_3">
     <g id="line2d_3">
      <g>
       <use style="stroke:#000000;" x="200.448" xlink:href="#m2bc881ee5d" y="307.584"/>
      </g>
     </g>
     <g id="text_3">
      <!-- 400 -->
      <g transform="translate(192.0495 322.570625)scale(0.088 -0.088)">
       <defs>
        <path d="M 2419 4116 
L 825 1625 
L 2419 1625 
L 2419 4116 
z
M 2253 4666 
L 3047 4666 
L 3047 1625 
L 3713 1625 
L 3713 1100 
L 3047 1100 
L 3047 0 
L 2419 0 
L 2419 1100 
L 313 1100 
L 313 1709 
L 2253 4666 
z
" id="DejaVuSans-34" transform="scale(0.015625)"/>
       </defs>
       <use xlink:href="#DejaVuSans-34"/>
       <use x="63.623047" xlink:href="#DejaVuSans-30"/>
       <use x="127.246094" xlink:href="#DejaVuSans-30"/>
      </g>
     </g>
    </g>
    <g id="xtick_4">
     <g id="line2d_4">
      <g>
       <use style="stroke:#000000;" x="271.872" xlink:href="#m2bc881ee5d" y="307.584"/>
      </g>
     </g>
     <g id="text_4">
      <!-- 600 -->
      <g transform="translate(263.4735 322.570625)scale(0.088 -0.088)">
       <defs>
        <path d="M 2113 2584 
Q 1688 2584 1439 2293 
Q 1191 2003 1191 1497 
Q 1191 994 1439 701 
Q 1688 409 2113 409 
Q 2538 409 2786 701 
Q 3034 994 3034 1497 
Q 3034 2003 2786 2293 
Q 2538 2584 2113 2584 
z
M 3366 4563 
L 3366 3988 
Q 3128 4100 2886 4159 
Q 2644 4219 2406 4219 
Q 1781 4219 1451 3797 
Q 1122 3375 1075 2522 
Q 1259 2794 1537 2939 
Q 1816 3084 2150 3084 
Q 2853 3084 3261 2657 
Q 3669 2231 3669 1497 
Q 3669 778 3244 343 
Q 2819 -91 2113 -91 
Q 1303 -91 875 529 
Q 447 1150 447 2328 
Q 447 3434 972 4092 
Q 1497 4750 2381 4750 
Q 2619 4750 2861 4703 
Q 3103 4656 3366 4563 
z
" id="DejaVuSans-36" transform="scale(0.015625)"/>
       </defs>
       <use xlink:href="#DejaVuSans-36"/>
       <use x="63.623047" xlink:href="#DejaVuSans-30"/>
       <use x="127.246094" xlink:href="#DejaVuSans-30"/>
      </g>
     </g>
    </g>
    <g id="xtick_5">
     <g id="line2d_5">
      <g>
       <use style="stroke:#000000;" x="343.296" xlink:href="#m2bc881ee5d" y="307.584"/>
      </g>
     </g>
     <g id="text_5">
      <!-- 800 -->
      <g transform="translate(334.8975 322.570625)scale(0.088 -0.088)">
       <defs>
        <path d="M 2034 2216 
Q 1584 2216 1326 1975 
Q 1069 1734 1069 1313 
Q 1069 891 1326 650 
Q 1584 409 2034 409 
Q 2484 409 2743 651 
Q 3003 894 3003 1313 
Q 3003 1734 2745 1975 
Q 2488 2216 2034 2216 
z
M 1403 2484 
Q 997 2584 770 2862 
Q 544 3141 544 3541 
Q 544 4100 942 4425 
Q 1341 4750 2034 4750 
Q 2731 4750 3128 4425 
Q 3525 4100 3525 3541 
Q 3525 3141 3298 2862 
Q 3072 2584 2669 2484 
Q 3125 2378 3379 2068 
Q 3634 1759 3634 1313 
Q 3634 634 3220 271 
Q 2806 -91 2034 -91 
Q 1263 -91 848 271 
Q 434 634 434 1313 
Q 434 1759 690 2068 
Q 947 2378 1403 2484 
z
M 1172 3481 
Q 1172 3119 1398 2916 
Q 1625 2713 2034 2713 
Q 2441 2713 2670 2916 
Q 2900 3119 2900 3481 
Q 2900 3844 2670 4047 
Q 2441 4250 2034 4250 
Q 1625 4250 1398 4047 
Q 1172 3844 1172 3481 
z
" id="DejaVuSans-38" transform="scale(0.015625)"/>
       </defs>
       <use xlink:href="#DejaVuSans-38"/>
       <use x="63.623047" xlink:href="#DejaVuSans-30"/>
       <use x="127.246094" xlink:href="#DejaVuSans-30"/>
      </g>
     </g>
    </g>
    <g id="xtick_6">
     <g id="line2d_6">
      <g>
       <use style="stroke:#000000;" x="414.72" xlink:href="#m2bc881ee5d" y="307.584"/>
      </g>
     </g>
     <g id="text_6">
      <!-- 1000 -->
      <g transform="translate(403.522 322.570625)scale(0.088 -0.088)">
       <defs>
        <path d="M 794 531 
L 1825 531 
L 1825 4091 
L 703 3866 
L 703 4441 
L 1819 4666 
L 2450 4666 
L 2450 531 
L 3481 531 
L 3481 0 
L 794 0 
L 794 531 
z
" id="DejaVuSans-31" transform="scale(0.015625)"/>
       </defs>
       <use xlink:href="#DejaVuSans-31"/>
       <use x="63.623047" xlink:href="#DejaVuSans-30"/>
       <use x="127.246094" xlink:href="#DejaVuSans-30"/>
       <use x="190.869141" xlink:href="#DejaVuSans-30"/>
      </g>
     </g>
    </g>
    <g id="text_7">
     <!-- Timestep -->
     <g transform="translate(214.03275 335.69525)scale(0.096 -0.096)">
      <defs>
       <path d="M -19 4666 
L 3928 4666 
L 3928 4134 
L 2272 4134 
L 2272 0 
L 1638 0 
L 1638 4134 
L -19 4134 
L -19 4666 
z
" id="DejaVuSans-54" transform="scale(0.015625)"/>
       <path d="M 603 3500 
L 1178 3500 
L 1178 0 
L 603 0 
L 603 3500 
z
M 603 4863 
L 1178 4863 
L 1178 4134 
L 603 4134 
L 603 4863 
z
" id="DejaVuSans-69" transform="scale(0.015625)"/>
       <path d="M 3328 2828 
Q 3544 3216 3844 3400 
Q 4144 3584 4550 3584 
Q 5097 3584 5394 3201 
Q 5691 2819 5691 2113 
L 5691 0 
L 5113 0 
L 5113 2094 
Q 5113 2597 4934 2840 
Q 4756 3084 4391 3084 
Q 3944 3084 3684 2787 
Q 3425 2491 3425 1978 
L 3425 0 
L 2847 0 
L 2847 2094 
Q 2847 2600 2669 2842 
Q 2491 3084 2119 3084 
Q 1678 3084 1418 2786 
Q 1159 2488 1159 1978 
L 1159 0 
L 581 0 
L 581 3500 
L 1159 3500 
L 1159 2956 
Q 1356 3278 1631 3431 
Q 1906 3584 2284 3584 
Q 2666 3584 2933 3390 
Q 3200 3197 3328 2828 
z
" id="DejaVuSans-6d" transform="scale(0.015625)"/>
       <path d="M 3597 1894 
L 3597 1613 
L 953 1613 
Q 991 1019 1311 708 
Q 1631 397 2203 397 
Q 2534 397 2845 478 
Q 3156 559 3463 722 
L 3463 178 
Q 3153 47 2828 -22 
Q 2503 -91 2169 -91 
Q 1331 -91 842 396 
Q 353 884 353 1716 
Q 353 2575 817 3079 
Q 1281 3584 2069 3584 
Q 2775 3584 3186 3129 
Q 3597 2675 3597 1894 
z
M 3022 2063 
Q 3016 2534 2758 2815 
Q 2500 3097 2075 3097 
Q 1594 3097 1305 2825 
Q 1016 2553 972 2059 
L 3022 2063 
z
" id="DejaVuSans-65" transform="scale(0.015625)"/>
       <path d="M 2834 3397 
L 2834 2853 
Q 2591 2978 2328 3040 
Q 2066 3103 1784 3103 
Q 1356 3103 1142 2972 
Q 928 2841 928 2578 
Q 928 2378 1081 2264 
Q 1234 2150 1697 2047 
L 1894 2003 
Q 2506 1872 2764 1633 
Q 3022 1394 3022 966 
Q 3022 478 2636 193 
Q 2250 -91 1575 -91 
Q 1294 -91 989 -36 
Q 684 19 347 128 
L 347 722 
Q 666 556 975 473 
Q 1284 391 1588 391 
Q 1994 391 2212 530 
Q 2431 669 2431 922 
Q 2431 1156 2273 1281 
Q 2116 1406 1581 1522 
L 1381 1569 
Q 847 1681 609 1914 
Q 372 2147 372 2553 
Q 372 3047 722 3315 
Q 1072 3584 1716 3584 
Q 2034 3584 2315 3537 
Q 2597 3491 2834 3397 
z
" id="DejaVuSans-73" transform="scale(0.015625)"/>
       <path d="M 1172 4494 
L 1172 3500 
L 2356 3500 
L 2356 3053 
L 1172 3053 
L 1172 1153 
Q 1172 725 1289 603 
Q 1406 481 1766 481 
L 2356 481 
L 2356 0 
L 1766 0 
Q 1100 0 847 248 
Q 594 497 594 1153 
L 594 3053 
L 172 3053 
L 172 3500 
L 594 3500 
L 594 4494 
L 1172 4494 
z
" id="DejaVuSans-74" transform="scale(0.015625)"/>
       <path d="M 1159 525 
L 1159 -1331 
L 581 -1331 
L 581 3500 
L 1159 3500 
L 1159 2969 
Q 1341 3281 1617 3432 
Q 1894 3584 2278 3584 
Q 2916 3584 3314 3078 
Q 3713 2572 3713 1747 
Q 3713 922 3314 415 
Q 2916 -91 2278 -91 
Q 1894 -91 1617 61 
Q 1341 213 1159 525 
z
M 3116 1747 
Q 3116 2381 2855 2742 
Q 2594 3103 2138 3103 
Q 1681 3103 1420 2742 
Q 1159 2381 1159 1747 
Q 1159 1113 1420 752 
Q 1681 391 2138 391 
Q 2594 391 2855 752 
Q 3116 1113 3116 1747 
z
" id="DejaVuSans-70" transform="scale(0.015625)"/>
      </defs>
      <use xlink:href="#DejaVuSans-54"/>
      <use x="57.958984" xlink:href="#DejaVuSans-69"/>
      <use x="85.742188" xlink:href="#DejaVuSans-6d"/>
      <use x="183.154297" xlink:href="#DejaVuSans-65"/>
      <use x="244.677734" xlink:href="#DejaVuSans-73"/>
      <use x="296.777344" xlink:href="#DejaVuSans-74"/>
      <use x="335.986328" xlink:href="#DejaVuSans-65"/>
      <use x="397.509766" xlink:href="#DejaVuSans-70"/>
     </g>
    </g>
   </g>
   <g id="matplotlib.axis_2">
    <g id="ytick_1">
     <g id="line2d_7">
      <defs>
       <path d="M 0 0 
L -4.8 0 
" id="m5aeffe0b22" style="stroke:#000000;"/>
      </defs>
      <g>
       <use style="stroke:#000000;" x="57.6" xlink:href="#m5aeffe0b22" y="293.199568"/>
      </g>
     </g>
     <g id="text_8">
      <!-- 0 -->
      <g transform="translate(43.701 296.54288)scale(0.088 -0.088)">
       <use xlink:href="#DejaVuSans-30"/>
      </g>
     </g>
    </g>
    <g id="ytick_2">
     <g id="line2d_8">
      <g>
       <use style="stroke:#000000;" x="57.6" xlink:href="#m5aeffe0b22" y="257.238486"/>
      </g>
     </g>
     <g id="text_9">
      <!-- 5 -->
      <g transform="translate(43.701 260.581799)scale(0.088 -0.088)">
       <defs>
        <path d="M 691 4666 
L 3169 4666 
L 3169 4134 
L 1269 4134 
L 1269 2991 
Q 1406 3038 1543 3061 
Q 1681 3084 1819 3084 
Q 2600 3084 3056 2656 
Q 3513 2228 3513 1497 
Q 3513 744 3044 326 
Q 2575 -91 1722 -91 
Q 1428 -91 1123 -41 
Q 819 9 494 109 
L 494 744 
Q 775 591 1075 516 
Q 1375 441 1709 441 
Q 2250 441 2565 725 
Q 2881 1009 2881 1497 
Q 2881 1984 2565 2268 
Q 2250 2553 1709 2553 
Q 1456 2553 1204 2497 
Q 953 2441 691 2322 
L 691 4666 
z
" id="DejaVuSans-35" transform="scale(0.015625)"/>
       </defs>
       <use xlink:href="#DejaVuSans-35"/>
      </g>
     </g>
    </g>
    <g id="ytick_3">
     <g id="line2d_9">
      <g>
       <use style="stroke:#000000;" x="57.6" xlink:href="#m5aeffe0b22" y="221.277405"/>
      </g>
     </g>
     <g id="text_10">
      <!-- 10 -->
      <g transform="translate(38.102 224.620718)scale(0.088 -0.088)">
       <use xlink:href="#DejaVuSans-31"/>
       <use x="63.623047" xlink:href="#DejaVuSans-30"/>
      </g>
     </g>
    </g>
    <g id="ytick_4">
     <g id="line2d_10">
      <g>
       <use style="stroke:#000000;" x="57.6" xlink:href="#m5aeffe0b22" y="185.316324"/>
      </g>
     </g>
     <g id="text_11">
      <!-- 15 -->
      <g transform="translate(38.102 188.659637)scale(0.088 -0.088)">
       <use xlink:href="#DejaVuSans-31"/>
       <use x="63.623047" xlink:href="#DejaVuSans-35"/>
      </g>
     </g>
    </g>
    <g id="ytick_5">
     <g id="line2d_11">
      <g>
       <use style="stroke:#000000;" x="57.6" xlink:href="#m5aeffe0b22" y="149.355243"/>
      </g>
     </g>
     <g id="text_12">
      <!-- 20 -->
      <g transform="translate(38.102 152.698556)scale(0.088 -0.088)">
       <use xlink:href="#DejaVuSans-32"/>
       <use x="63.623047" xlink:href="#DejaVuSans-30"/>
      </g>
     </g>
    </g>
    <g id="ytick_6">
     <g id="line2d_12">
      <g>
       <use style="stroke:#000000;" x="57.6" xlink:href="#m5aeffe0b22" y="113.394162"/>
      </g>
     </g>
     <g id="text_13">
      <!-- 25 -->
      <g transform="translate(38.102 116.737475)scale(0.088 -0.088)">
       <use xlink:href="#DejaVuSans-32"/>
       <use x="63.623047" xlink:href="#DejaVuSans-35"/>
      </g>
     </g>
    </g>
    <g id="ytick_7">
     <g id="line2d_13">
      <g>
       <use style="stroke:#000000;" x="57.6" xlink:href="#m5aeffe0b22" y="77.433081"/>
      </g>
     </g>
     <g id="text_14">
      <!-- 30 -->
      <g transform="translate(38.102 80.776394)scale(0.088 -0.088)">
       <defs>
        <path d="M 2597 2516 
Q 3050 2419 3304 2112 
Q 3559 1806 3559 1356 
Q 3559 666 3084 287 
Q 2609 -91 1734 -91 
Q 1441 -91 1130 -33 
Q 819 25 488 141 
L 488 750 
Q 750 597 1062 519 
Q 1375 441 1716 441 
Q 2309 441 2620 675 
Q 2931 909 2931 1356 
Q 2931 1769 2642 2001 
Q 2353 2234 1838 2234 
L 1294 2234 
L 1294 2753 
L 1863 2753 
Q 2328 2753 2575 2939 
Q 2822 3125 2822 3475 
Q 2822 3834 2567 4026 
Q 2313 4219 1838 4219 
Q 1578 4219 1281 4162 
Q 984 4106 628 3988 
L 628 4550 
Q 988 4650 1302 4700 
Q 1616 4750 1894 4750 
Q 2613 4750 3031 4423 
Q 3450 4097 3450 3541 
Q 3450 3153 3228 2886 
Q 3006 2619 2597 2516 
z
" id="DejaVuSans-33" transform="scale(0.015625)"/>
       </defs>
       <use xlink:href="#DejaVuSans-33"/>
       <use x="63.623047" xlink:href="#DejaVuSans-30"/>
      </g>
     </g>
    </g>
    <g id="ytick_8">
     <g id="line2d_14">
      <g>
       <use style="stroke:#000000;" x="57.6" xlink:href="#m5aeffe0b22" y="41.472"/>
      </g>
     </g>
     <g id="text_15">
      <!-- 35 -->
      <g transform="translate(38.102 44.815313)scale(0.088 -0.088)">
       <use xlink:href="#DejaVuSans-33"/>
       <use x="63.623047" xlink:href="#DejaVuSans-35"/>
      </g>
     </g>
    </g>
    <g id="text_16">
     <!-- Reward -->
     <g transform="translate(32.1055 192.40425)rotate(-90)scale(0.096 -0.096)">
      <defs>
       <path d="M 2841 2188 
Q 3044 2119 3236 1894 
Q 3428 1669 3622 1275 
L 4263 0 
L 3584 0 
L 2988 1197 
Q 2756 1666 2539 1819 
Q 2322 1972 1947 1972 
L 1259 1972 
L 1259 0 
L 628 0 
L 628 4666 
L 2053 4666 
Q 2853 4666 3247 4331 
Q 3641 3997 3641 3322 
Q 3641 2881 3436 2590 
Q 3231 2300 2841 2188 
z
M 1259 4147 
L 1259 2491 
L 2053 2491 
Q 2509 2491 2742 2702 
Q 2975 2913 2975 3322 
Q 2975 3731 2742 3939 
Q 2509 4147 2053 4147 
L 1259 4147 
z
" id="DejaVuSans-52" transform="scale(0.015625)"/>
       <path d="M 269 3500 
L 844 3500 
L 1563 769 
L 2278 3500 
L 2956 3500 
L 3675 769 
L 4391 3500 
L 4966 3500 
L 4050 0 
L 3372 0 
L 2619 2869 
L 1863 0 
L 1184 0 
L 269 3500 
z
" id="DejaVuSans-77" transform="scale(0.015625)"/>
       <path d="M 2194 1759 
Q 1497 1759 1228 1600 
Q 959 1441 959 1056 
Q 959 750 1161 570 
Q 1363 391 1709 391 
Q 2188 391 2477 730 
Q 2766 1069 2766 1631 
L 2766 1759 
L 2194 1759 
z
M 3341 1997 
L 3341 0 
L 2766 0 
L 2766 531 
Q 2569 213 2275 61 
Q 1981 -91 1556 -91 
Q 1019 -91 701 211 
Q 384 513 384 1019 
Q 384 1609 779 1909 
Q 1175 2209 1959 2209 
L 2766 2209 
L 2766 2266 
Q 2766 2663 2505 2880 
Q 2244 3097 1772 3097 
Q 1472 3097 1187 3025 
Q 903 2953 641 2809 
L 641 3341 
Q 956 3463 1253 3523 
Q 1550 3584 1831 3584 
Q 2591 3584 2966 3190 
Q 3341 2797 3341 1997 
z
" id="DejaVuSans-61" transform="scale(0.015625)"/>
       <path d="M 2631 2963 
Q 2534 3019 2420 3045 
Q 2306 3072 2169 3072 
Q 1681 3072 1420 2755 
Q 1159 2438 1159 1844 
L 1159 0 
L 581 0 
L 581 3500 
L 1159 3500 
L 1159 2956 
Q 1341 3275 1631 3429 
Q 1922 3584 2338 3584 
Q 2397 3584 2469 3576 
Q 2541 3569 2628 3553 
L 2631 2963 
z
" id="DejaVuSans-72" transform="scale(0.015625)"/>
       <path d="M 2906 2969 
L 2906 4863 
L 3481 4863 
L 3481 0 
L 2906 0 
L 2906 525 
Q 2725 213 2448 61 
Q 2172 -91 1784 -91 
Q 1150 -91 751 415 
Q 353 922 353 1747 
Q 353 2572 751 3078 
Q 1150 3584 1784 3584 
Q 2172 3584 2448 3432 
Q 2725 3281 2906 2969 
z
M 947 1747 
Q 947 1113 1208 752 
Q 1469 391 1925 391 
Q 2381 391 2643 752 
Q 2906 1113 2906 1747 
Q 2906 2381 2643 2742 
Q 2381 3103 1925 3103 
Q 1469 3103 1208 2742 
Q 947 2381 947 1747 
z
" id="DejaVuSans-64" transform="scale(0.015625)"/>
      </defs>
      <use xlink:href="#DejaVuSans-52"/>
      <use x="64.982422" xlink:href="#DejaVuSans-65"/>
      <use x="126.505859" xlink:href="#DejaVuSans-77"/>
      <use x="208.292969" xlink:href="#DejaVuSans-61"/>
      <use x="269.572266" xlink:href="#DejaVuSans-72"/>
      <use x="308.935547" xlink:href="#DejaVuSans-64"/>
     </g>
    </g>
   </g>
   <g id="line2d_15">
    <path clip-path="url(#p4f6a893a23)" d="M 57.95712 285.791585 
L 58.31424 285.503896 
L 58.67136 285.503896 
L 59.74272 284.712752 
L 60.09984 284.137375 
L 60.45696 283.921609 
L 60.81408 283.993531 
L 61.1712 283.274309 
L 61.52832 283.418154 
L 61.88544 283.777764 
L 62.24256 283.418154 
L 62.59968 283.63392 
L 62.9568 283.130465 
L 63.31392 283.130465 
L 63.67104 282.770854 
L 64.02816 283.202387 
L 64.38528 283.130465 
L 64.7424 282.339321 
L 65.09952 282.914698 
L 65.45664 283.202387 
L 65.81376 282.555088 
L 66.17088 282.914698 
L 66.528 282.986621 
L 66.88512 283.202387 
L 67.24224 283.130465 
L 67.59936 282.62701 
L 67.95648 282.555088 
L 68.3136 283.202387 
L 68.67072 282.770854 
L 69.02784 283.130465 
L 69.38496 282.986621 
L 69.74208 283.274309 
L 70.0992 283.058543 
L 70.45632 282.483165 
L 70.81344 282.62701 
L 71.17056 283.346231 
L 71.52768 282.770854 
L 71.8848 282.698932 
L 72.24192 282.914698 
L 72.59904 283.490076 
L 72.95616 283.058543 
L 73.31328 283.130465 
L 74.02752 283.058543 
L 74.38464 282.698932 
L 74.74176 282.555088 
L 75.09888 282.698932 
L 75.456 282.986621 
L 76.17024 282.123555 
L 76.88448 282.842776 
L 77.2416 282.770854 
L 77.95584 282.842776 
L 78.31296 281.692022 
L 78.67008 282.195477 
L 79.0272 282.267399 
L 79.38432 282.483165 
L 79.74144 282.914698 
L 80.09856 282.770854 
L 80.8128 281.835866 
L 81.16992 282.986621 
L 81.52704 281.907788 
L 81.88416 283.058543 
L 82.24128 282.986621 
L 82.5984 282.698932 
L 82.95552 282.986621 
L 83.31264 282.411243 
L 83.66976 282.914698 
L 84.02688 282.698932 
L 84.384 282.123555 
L 84.74112 282.842776 
L 85.45536 282.267399 
L 85.81248 283.346231 
L 86.1696 282.842776 
L 86.52672 282.842776 
L 86.88384 283.561998 
L 87.24096 283.058543 
L 87.59808 281.907788 
L 87.9552 282.986621 
L 88.31232 283.130465 
L 88.66944 283.130465 
L 89.02656 283.418154 
L 89.7408 282.123555 
L 90.09792 283.058543 
L 90.45504 282.698932 
L 91.16928 282.986621 
L 91.5264 282.267399 
L 91.88352 281.97971 
L 92.24064 282.986621 
L 92.59776 282.483165 
L 92.95488 282.339321 
L 93.312 282.914698 
L 93.66912 282.267399 
L 94.02624 282.842776 
L 94.38336 282.123555 
L 94.74048 283.058543 
L 95.0976 282.483165 
L 95.45472 283.058543 
L 95.81184 282.483165 
L 96.16896 282.986621 
L 96.8832 282.62701 
L 97.59744 282.555088 
L 97.95456 282.555088 
L 98.31168 282.339321 
L 98.6688 282.62701 
L 99.02592 282.483165 
L 99.38304 282.986621 
L 100.09728 283.130465 
L 100.4544 282.411243 
L 100.81152 282.842776 
L 101.52576 282.62701 
L 101.88288 282.123555 
L 102.24 282.842776 
L 102.59712 282.483165 
L 102.95424 282.411243 
L 103.31136 282.555088 
L 103.66848 283.058543 
L 104.0256 282.339321 
L 104.38272 282.195477 
L 104.73984 283.418154 
L 105.09696 282.555088 
L 105.45408 282.914698 
L 105.8112 282.411243 
L 106.16832 282.195477 
L 106.52544 282.339321 
L 106.88256 281.835866 
L 107.5968 281.835866 
L 107.95392 282.195477 
L 108.31104 281.97971 
L 109.02528 282.411243 
L 109.3824 282.483165 
L 109.73952 283.058543 
L 110.09664 281.260489 
L 110.45376 282.195477 
L 110.81088 282.770854 
L 111.168 281.404333 
L 111.52512 280.9728 
L 111.88224 281.97971 
L 112.23936 281.476255 
L 112.59648 281.476255 
L 112.9536 282.339321 
L 113.31072 281.835866 
L 114.02496 282.051632 
L 114.38208 281.692022 
L 114.7392 282.123555 
L 115.09632 281.692022 
L 115.45344 281.97971 
L 115.81056 282.555088 
L 116.16768 282.914698 
L 116.88192 281.548177 
L 117.23904 281.404333 
L 117.59616 282.914698 
L 118.3104 281.907788 
L 118.66752 283.058543 
L 119.02464 282.62701 
L 119.38176 281.835866 
L 119.73888 281.97971 
L 120.096 281.620099 
L 120.45312 282.267399 
L 120.81024 281.97971 
L 121.16736 281.404333 
L 121.52448 281.620099 
L 121.8816 282.411243 
L 122.23872 280.9728 
L 122.95296 282.051632 
L 123.31008 281.548177 
L 123.6672 281.548177 
L 124.02432 282.339321 
L 124.38144 282.770854 
L 124.73856 281.260489 
L 125.4528 282.195477 
L 125.80992 280.9728 
L 126.16704 281.404333 
L 126.52416 281.044722 
L 126.88128 282.051632 
L 127.59552 281.907788 
L 127.95264 280.613189 
L 128.30976 281.404333 
L 128.66688 280.900878 
L 129.024 281.620099 
L 129.38112 281.763944 
L 129.73824 282.123555 
L 130.09536 281.763944 
L 130.45248 281.907788 
L 130.8096 281.404333 
L 131.16672 281.763944 
L 131.52384 280.828956 
L 131.88096 281.692022 
L 132.23808 281.907788 
L 132.5952 281.476255 
L 132.95232 282.339321 
L 133.30944 281.620099 
L 133.66656 281.907788 
L 134.02368 281.548177 
L 134.3808 282.267399 
L 134.73792 281.97971 
L 135.45216 282.123555 
L 135.80928 281.548177 
L 136.52352 281.332411 
L 136.88064 281.692022 
L 137.23776 281.692022 
L 137.59488 281.97971 
L 137.952 280.541267 
L 138.66624 281.692022 
L 139.02336 281.116644 
L 139.38048 281.97971 
L 139.7376 281.620099 
L 140.09472 281.548177 
L 140.80896 281.799905 
L 141.16608 280.864917 
L 141.88032 281.548177 
L 142.23744 281.512216 
L 142.59456 280.64915 
L 142.95168 281.080683 
L 143.3088 280.577228 
L 143.66592 281.512216 
L 144.02304 280.469345 
L 144.38016 281.116644 
L 144.73728 281.116644 
L 145.0944 281.368372 
L 145.45152 281.476255 
L 145.80864 280.577228 
L 146.16576 281.224528 
L 146.52288 280.936839 
L 146.88 281.440294 
L 147.23712 280.757034 
L 147.59424 281.943749 
L 147.95136 281.440294 
L 148.30848 281.152605 
L 148.6656 279.786084 
L 149.37984 281.29645 
L 149.73696 280.828956 
L 150.09408 281.29645 
L 150.4512 281.260489 
L 151.16544 280.936839 
L 151.52256 280.073773 
L 151.87968 281.692022 
L 152.2368 280.792995 
L 152.59392 281.116644 
L 152.95104 280.792995 
L 153.30816 280.864917 
L 153.66528 281.188566 
L 154.0224 280.757034 
L 154.37952 280.613189 
L 154.73664 280.145695 
L 155.09376 280.721072 
L 155.45088 280.397423 
L 155.808 281.152605 
L 156.16512 280.397423 
L 156.52224 281.440294 
L 156.87936 281.080683 
L 157.23648 281.440294 
L 157.5936 280.936839 
L 157.95072 280.792995 
L 158.30784 280.001851 
L 158.66496 280.685111 
L 159.02208 280.433384 
L 159.3792 280.936839 
L 159.73632 280.433384 
L 160.09344 280.253578 
L 160.45056 279.138785 
L 160.80768 280.864917 
L 161.1648 279.678201 
L 161.52192 280.253578 
L 161.87904 279.390512 
L 162.23616 280.828956 
L 162.59328 280.037812 
L 162.9504 279.750123 
L 163.30752 280.792995 
L 163.66464 279.786084 
L 164.02176 280.253578 
L 164.37888 281.29645 
L 164.736 281.152605 
L 165.09312 280.577228 
L 165.45024 279.210707 
L 165.80736 280.613189 
L 166.5216 280.792995 
L 166.87872 280.505306 
L 167.23584 279.210707 
L 167.59296 279.354551 
L 167.95008 280.145695 
L 168.3072 280.073773 
L 168.66432 280.253578 
L 169.02144 280.181656 
L 169.37856 279.96589 
L 169.73568 280.217617 
L 170.0928 279.750123 
L 170.44992 280.001851 
L 170.80704 279.354551 
L 171.8784 280.109734 
L 172.23552 279.426474 
L 172.59264 279.138785 
L 173.30688 280.217617 
L 174.02112 279.210707 
L 174.37824 279.64224 
L 174.73536 279.822045 
L 175.09248 279.174746 
L 175.4496 278.923018 
L 176.16384 280.433384 
L 176.52096 279.174746 
L 176.87808 280.361462 
L 177.2352 277.916108 
L 177.59232 280.505306 
L 177.94944 279.462435 
L 178.30656 278.815135 
L 178.66368 278.599369 
L 179.37792 279.426474 
L 179.73504 278.527446 
L 180.09216 280.577228 
L 180.44928 278.815135 
L 180.8064 279.174746 
L 181.16352 279.282629 
L 181.52064 280.073773 
L 181.87776 279.174746 
L 182.23488 279.498396 
L 182.592 278.167836 
L 182.94912 279.426474 
L 183.30624 279.390512 
L 183.66336 280.181656 
L 184.02048 279.210707 
L 184.3776 280.073773 
L 184.73472 278.815135 
L 185.09184 279.210707 
L 185.44896 279.210707 
L 185.80608 278.563408 
L 186.1632 279.570318 
L 186.52032 278.31168 
L 186.87744 279.678201 
L 187.23456 278.887057 
L 187.59168 278.994941 
L 187.9488 278.31168 
L 188.30592 279.534357 
L 189.02016 278.167836 
L 189.7344 280.037812 
L 190.09152 279.210707 
L 190.44864 279.390512 
L 190.80576 278.491485 
L 191.16288 279.174746 
L 191.52 277.664381 
L 191.87712 278.131875 
L 192.23424 278.994941 
L 192.94848 277.484575 
L 193.3056 279.030902 
L 193.66272 278.743213 
L 194.01984 277.700342 
L 194.37696 279.678201 
L 195.0912 277.880147 
L 195.44832 278.743213 
L 195.80544 277.880147 
L 196.16256 277.628419 
L 196.51968 278.167836 
L 196.8768 277.412653 
L 197.23392 278.527446 
L 197.59104 278.527446 
L 197.94816 277.484575 
L 198.30528 278.059952 
L 198.6624 277.053042 
L 199.01952 277.592458 
L 199.37664 276.010171 
L 199.73376 277.592458 
L 200.09088 276.945159 
L 200.448 278.707252 
L 200.80512 276.729392 
L 201.16224 277.017081 
L 201.51936 277.664381 
L 201.87648 276.477665 
L 202.2336 276.010171 
L 202.59072 277.124964 
L 202.94784 277.664381 
L 203.30496 277.952069 
L 203.66208 276.98112 
L 204.0192 277.340731 
L 204.37632 276.729392 
L 205.09056 275.902288 
L 205.44768 275.830365 
L 205.8048 277.664381 
L 206.16192 277.412653 
L 206.51904 275.830365 
L 206.87616 276.154015 
L 207.23328 277.017081 
L 207.5904 275.003261 
L 207.94752 275.434794 
L 208.30464 274.427883 
L 208.66176 275.542677 
L 209.01888 274.068272 
L 209.376 275.97421 
L 209.73312 275.65056 
L 210.09024 275.039222 
L 210.44736 276.118054 
L 210.80448 274.32 
L 211.1616 274.427883 
L 211.51872 276.046132 
L 211.87584 275.147105 
L 212.23296 275.290949 
L 212.59008 274.068272 
L 212.9472 273.492895 
L 213.30432 273.960389 
L 213.66144 273.672701 
L 214.01856 273.780584 
L 214.37568 271.98253 
L 214.7328 273.852506 
L 215.08992 273.097323 
L 215.44704 272.953479 
L 215.80416 273.816545 
L 216.5184 272.701751 
L 216.87552 273.205206 
L 217.23264 271.586958 
L 217.58976 274.212117 
L 217.94688 272.306179 
L 218.304 271.155425 
L 218.66112 270.472164 
L 219.01824 271.802724 
L 219.37536 272.593868 
L 219.73248 271.33523 
L 220.0896 271.98253 
L 220.44672 269.932748 
L 221.16096 272.845596 
L 221.51808 270.723892 
L 221.8752 272.809635 
L 222.58944 269.573137 
L 222.94656 270.256398 
L 223.30368 268.206616 
L 223.6608 270.040631 
L 224.01792 271.227347 
L 224.37504 271.694841 
L 224.73216 269.465254 
L 225.08928 268.170655 
L 225.4464 269.645059 
L 225.80352 269.141604 
L 226.16064 268.889877 
L 226.51776 271.98253 
L 226.87488 268.494305 
L 227.232 269.213526 
L 227.58912 270.184476 
L 227.94624 270.148515 
L 228.30336 269.932748 
L 228.66048 268.746032 
L 229.0176 268.889877 
L 229.37472 270.65197 
L 229.73184 267.379511 
L 230.08896 268.242577 
L 230.44608 268.530266 
L 230.8032 267.954889 
L 231.16032 266.768173 
L 231.51744 267.451434 
L 231.87456 267.559317 
L 232.5888 266.732212 
L 232.94592 266.300679 
L 233.66016 268.566227 
L 234.01728 267.127784 
L 234.3744 266.552406 
L 234.73152 268.026811 
L 235.08864 265.689341 
L 235.44576 265.941068 
L 235.80288 266.624329 
L 236.16 266.804134 
L 236.51712 266.372601 
L 236.87424 263.639559 
L 237.23136 266.624329 
L 237.58848 264.790314 
L 237.9456 265.761263 
L 238.65984 264.970119 
L 239.01696 265.042041 
L 239.37408 265.941068 
L 239.7312 262.452843 
L 240.08832 264.178975 
L 240.44544 263.639559 
L 240.80256 264.430703 
L 241.15968 264.68243 
L 241.5168 265.113963 
L 241.87392 263.100143 
L 242.23104 264.898197 
L 242.58816 264.718391 
L 242.94528 263.963209 
L 243.3024 262.920337 
L 243.65952 265.293769 
L 244.01664 263.67552 
L 244.73088 263.387831 
L 245.088 264.107053 
L 245.44512 265.689341 
L 245.80224 264.826275 
L 246.15936 262.34496 
L 246.51648 264.68243 
L 246.8736 262.488804 
L 247.23072 263.819364 
L 247.58784 261.985349 
L 247.94496 262.560726 
L 248.30208 261.733622 
L 248.6592 261.374011 
L 249.37344 263.136104 
L 249.73056 262.560726 
L 250.08768 261.194205 
L 250.80192 264.071092 
L 251.15904 260.187295 
L 251.51616 261.086322 
L 251.87328 262.560726 
L 252.2304 261.661699 
L 252.58752 262.992259 
L 252.94464 260.582867 
L 253.30176 260.367101 
L 253.65888 260.69075 
L 254.37312 260.582867 
L 254.73024 258.497124 
L 255.08736 259.216346 
L 255.44448 260.582867 
L 255.8016 259.539996 
L 256.15872 261.0144 
L 256.51584 258.173475 
L 256.87296 257.490214 
L 257.23008 259.108463 
L 257.5872 257.382331 
L 257.94432 257.634058 
L 258.30144 258.497124 
L 258.65856 260.00749 
L 259.01568 258.820774 
L 259.3728 259.072502 
L 259.72992 254.757172 
L 260.08704 256.051771 
L 260.44416 255.800043 
L 260.80128 256.01581 
L 261.51552 257.813864 
L 261.87264 257.813864 
L 262.22976 255.943888 
L 262.58688 254.865055 
L 262.944 255.512355 
L 263.30112 257.418292 
L 263.65824 257.993669 
L 264.01536 257.166564 
L 264.37248 257.957708 
L 264.7296 258.065591 
L 265.08672 254.613328 
L 265.44384 254.505444 
L 265.80096 252.779312 
L 266.15808 252.851235 
L 266.5152 253.570456 
L 266.87232 253.282768 
L 267.22944 256.123693 
L 267.58656 252.563546 
L 267.94368 252.02413 
L 268.3008 253.930067 
L 268.65792 251.520675 
L 269.01504 251.628558 
L 269.37216 252.851235 
L 269.72928 250.69357 
L 270.0864 254.469483 
L 270.44352 248.320138 
L 270.80064 250.873375 
L 271.15776 256.555226 
L 271.51488 252.02413 
L 271.872 249.866465 
L 272.22912 249.542815 
L 272.58624 249.938387 
L 272.94336 249.974348 
L 273.30048 246.989578 
L 273.6576 247.780722 
L 274.01472 244.759991 
L 274.37184 248.679749 
L 274.72896 249.542815 
L 275.08608 242.566365 
L 275.4432 248.823594 
L 275.80032 250.945297 
L 276.15744 249.434932 
L 276.51456 250.477803 
L 276.87168 245.874785 
L 277.2288 244.867875 
L 277.58592 248.03245 
L 277.94304 247.493034 
L 278.30016 245.623057 
L 278.65728 246.881695 
L 279.0144 249.794543 
L 279.37152 246.090551 
L 279.72864 245.874785 
L 280.08576 244.975758 
L 280.44288 249.722621 
L 280.8 246.486123 
L 281.15712 245.730941 
L 281.51424 249.183204 
L 281.87136 246.953617 
L 282.22848 243.789042 
L 282.5856 246.737851 
L 282.94272 245.083641 
L 283.29984 244.436342 
L 283.65696 248.751671 
L 284.01408 243.39347 
L 284.3712 245.191524 
L 284.72832 243.825003 
L 285.08544 241.811183 
L 285.44256 242.494443 
L 285.79968 241.127922 
L 286.1568 241.343689 
L 286.51392 247.061501 
L 286.87104 242.997898 
L 287.22816 243.465392 
L 287.58528 245.874785 
L 288.29952 243.896925 
L 289.01376 241.020039 
L 289.37088 246.018629 
L 289.728 241.811183 
L 290.08512 242.314638 
L 290.44224 248.967438 
L 290.79936 246.05459 
L 291.15648 244.616147 
L 291.5136 244.328458 
L 291.87072 243.789042 
L 292.22784 244.652108 
L 292.58496 243.932886 
L 292.94208 244.076731 
L 293.2992 239.042179 
L 293.65632 237.891425 
L 294.01344 234.475122 
L 294.37056 241.775222 
L 294.72768 240.300817 
L 295.0848 240.552545 
L 295.44192 233.432251 
L 295.79904 233.863784 
L 296.15616 235.877604 
L 296.51328 234.942616 
L 296.8704 238.286997 
L 297.22752 233.504173 
L 297.58464 235.661838 
L 297.94176 236.417021 
L 298.29888 235.086461 
L 298.656 235.553955 
L 299.01312 234.511083 
L 299.37024 229.908065 
L 299.72736 232.713029 
L 300.08448 232.461302 
L 300.4416 238.502763 
L 300.79872 232.784951 
L 301.15584 229.009038 
L 301.51296 233.000718 
L 301.87008 232.964757 
L 302.2272 228.973077 
L 302.58432 227.930205 
L 302.94144 228.793271 
L 303.29856 231.670158 
L 303.65568 237.100281 
L 304.0128 226.563684 
L 304.36992 230.771131 
L 304.72704 231.382469 
L 305.44128 230.303637 
L 305.7984 229.224804 
L 306.15552 231.490352 
L 306.51264 225.41293 
L 306.86976 225.916385 
L 307.22688 220.198573 
L 307.584 221.780861 
L 307.94112 229.908065 
L 308.29824 227.462711 
L 308.65536 230.483442 
L 309.01248 224.298136 
L 309.3696 229.476532 
L 309.72672 225.376969 
L 310.08384 223.363148 
L 310.44096 233.432251 
L 310.79808 239.329868 
L 311.51232 223.722759 
L 311.86944 228.721349 
L 312.22656 222.212394 
L 312.58368 231.706119 
L 312.9408 229.009038 
L 313.29792 224.693708 
L 313.65504 227.534634 
L 314.01216 223.075459 
L 314.36928 226.995217 
L 314.7264 226.347918 
L 315.08352 220.702028 
L 315.44064 225.772541 
L 316.15488 220.737989 
L 316.512 218.148791 
L 316.86912 223.902564 
L 317.22624 218.652246 
L 317.58336 218.328597 
L 317.94048 218.220714 
L 318.2976 221.385289 
L 318.65472 223.003537 
L 319.01184 215.164022 
L 319.36896 221.960666 
L 319.72608 221.888744 
L 320.0832 219.695118 
L 320.44032 220.450301 
L 320.79744 216.422659 
L 321.15456 215.559594 
L 321.51168 218.328597 
L 321.8688 223.399109 
L 322.22592 216.566504 
L 322.58304 219.011857 
L 322.94016 208.726988 
L 323.29728 216.890154 
L 323.6544 221.169522 
L 324.01152 217.861103 
L 324.36864 216.674387 
L 324.72576 218.004947 
L 325.08288 220.630106 
L 325.44 218.868013 
L 325.79712 219.659157 
L 326.15424 225.664657 
L 326.51136 220.522223 
L 326.86848 224.945436 
L 327.2256 220.666067 
L 327.58272 224.08237 
L 327.93984 222.536043 
L 328.29696 214.76845 
L 328.65408 210.093509 
L 329.0112 217.933025 
L 329.36832 219.731079 
L 329.72544 217.789181 
L 330.08256 211.028497 
L 330.43968 218.724169 
L 330.7968 218.364558 
L 331.15392 214.300956 
L 331.51104 218.11283 
L 331.86816 227.390789 
L 332.22528 211.495991 
L 332.5824 211.244264 
L 332.93952 208.223533 
L 333.29664 216.206893 
L 333.65376 216.09901 
L 334.01088 221.672977 
L 334.368 211.244264 
L 334.72512 204.951075 
L 335.08224 215.883243 
L 335.43936 217.825142 
L 335.79648 213.725578 
L 336.1536 213.078279 
L 336.51072 214.912294 
L 336.86784 209.769859 
L 337.22496 214.76845 
L 337.58208 207.648156 
L 337.9392 209.661976 
L 338.29632 208.655066 
L 338.65344 205.993946 
L 339.01056 212.430979 
L 339.36768 215.307866 
L 339.7248 206.964895 
L 340.08192 202.577643 
L 340.43904 208.007766 
L 340.79616 200.635745 
L 341.15328 201.930344 
L 341.86752 212.251174 
L 342.22464 198.262314 
L 342.58176 203.224943 
L 343.296 202.182071 
L 343.65312 200.491901 
L 344.36736 208.043728 
L 344.72448 198.298275 
L 345.0816 207.792 
L 345.43872 204.016086 
L 345.79584 202.505721 
L 346.15296 194.917933 
L 346.51008 199.089418 
L 346.8672 213.545773 
L 347.22432 202.865332 
L 347.58144 201.426889 
L 348.29568 205.238763 
L 348.6528 203.368787 
L 349.00992 202.649565 
L 349.36704 195.601194 
L 349.72416 201.247083 
L 350.08128 198.909613 
L 350.4384 198.514041 
L 350.79552 204.915114 
L 351.50976 190.458759 
L 351.86688 194.270634 
L 352.224 192.472579 
L 352.58112 194.090828 
L 352.93824 197.794819 
L 353.29536 199.161341 
L 353.65248 189.955304 
L 354.0096 183.985764 
L 354.36672 198.693846 
L 354.72384 187.977444 
L 355.08096 192.508541 
L 355.43808 187.977444 
L 355.7952 189.775498 
L 356.15232 187.294184 
L 356.50944 186.790729 
L 356.86656 190.81837 
L 357.22368 192.436618 
L 357.5808 191.897202 
L 357.93792 187.653795 
L 358.29504 195.601194 
L 359.00928 181.216761 
L 359.3664 182.007905 
L 359.72352 187.617834 
L 360.08064 188.516861 
L 360.43776 183.84192 
L 360.79488 174.599922 
L 361.152 181.540411 
L 361.50912 184.992675 
L 361.86624 181.1808 
L 362.22336 187.258223 
L 362.58048 185.064597 
L 362.9376 179.598512 
L 363.29472 177.51277 
L 363.65184 177.728536 
L 364.00896 179.346785 
L 364.36608 186.898612 
L 365.08032 174.132428 
L 365.43744 182.619243 
L 365.79456 179.814279 
L 366.15168 185.532091 
L 366.5088 182.115788 
L 366.86592 182.403477 
L 367.22304 179.238902 
L 367.58016 183.266543 
L 367.93728 185.316324 
L 368.2944 184.417297 
L 368.65152 177.656614 
L 369.36576 180.749267 
L 369.72288 168.954032 
L 370.08 174.779728 
L 370.43712 177.009315 
L 370.79424 171.830919 
L 371.15136 177.297003 
L 371.50848 174.635883 
L 371.8656 176.757587 
L 372.22272 185.999585 
L 372.57984 181.000995 
L 372.93696 174.348195 
L 373.29408 171.938802 
L 373.6512 177.51277 
L 374.00832 180.317734 
L 374.36544 168.378655 
L 374.72256 168.342694 
L 375.07968 171.363425 
L 375.4368 171.687075 
L 375.79392 169.889021 
L 376.15104 173.988584 
L 376.50816 172.082646 
L 376.86528 175.067416 
L 377.57952 182.763088 
L 377.93664 181.864061 
L 378.65088 170.967853 
L 379.008 170.967853 
L 379.36512 172.334374 
L 379.72224 177.261042 
L 380.07936 176.577782 
L 380.43648 171.974763 
L 380.7936 176.362015 
L 381.15072 169.457488 
L 381.50784 171.291503 
L 381.86496 164.351014 
L 382.22208 173.700895 
L 382.5792 169.241721 
L 382.93632 166.508679 
L 383.29344 172.046685 
L 383.65056 155.504588 
L 384.00768 166.54464 
L 384.3648 163.236221 
L 384.72192 169.20576 
L 385.07904 163.703715 
L 385.43616 162.660843 
L 385.79328 162.193349 
L 386.1504 164.530819 
L 386.50752 160.934711 
L 386.86464 167.587511 
L 387.22176 161.761816 
L 387.57888 167.803278 
L 388.29312 161.042595 
L 388.65024 173.305323 
L 389.00736 168.989994 
L 389.36448 161.869699 
L 389.7216 157.734175 
L 390.07872 175.786638 
L 390.79296 165.178119 
L 391.15008 168.810188 
L 391.5072 157.770136 
L 391.86432 168.270772 
L 392.22144 163.955442 
L 392.57856 162.265271 
L 393.2928 175.822599 
L 393.64992 170.284592 
L 394.00704 168.126928 
L 394.36416 171.902841 
L 394.72128 158.345514 
L 395.0784 162.624882 
L 395.43552 160.862789 
L 395.79264 176.613743 
L 396.14976 164.962352 
L 396.50688 167.515589 
L 396.864 162.265271 
L 397.22112 169.20576 
L 397.57824 172.118608 
L 397.93536 170.464398 
L 398.29248 162.840649 
L 398.6496 165.21408 
L 399.00672 156.403615 
L 399.36384 166.328874 
L 399.72096 157.302642 
L 400.07808 166.904251 
L 400.4352 162.87661 
L 400.79232 162.049505 
L 401.14944 163.416026 
L 401.50656 167.623472 
L 401.86368 158.597241 
L 402.2208 159.819918 
L 402.57792 158.848969 
L 402.93504 149.750815 
L 403.29216 156.619382 
L 403.64928 156.655343 
L 404.0064 161.977583 
L 404.36352 161.258361 
L 404.72064 151.476947 
L 405.07776 146.730084 
L 405.43488 162.804688 
L 405.792 152.447896 
L 406.14912 151.081375 
L 406.50624 152.663663 
L 406.86336 150.90157 
L 407.22048 156.727265 
L 407.5776 155.720355 
L 407.93472 159.388385 
L 408.29184 147.305462 
L 408.64896 154.497678 
L 409.00608 159.280502 
L 409.3632 151.944441 
L 409.72032 156.871109 
L 410.07744 150.470037 
L 410.43456 153.310962 
L 410.79168 157.913981 
L 411.1488 159.532229 
L 411.50592 147.808917 
L 411.86304 153.454806 
L 412.22016 148.851788 
L 412.9344 154.102106 
L 413.29152 158.525319 
L 413.64864 146.981812 
L 414.00576 160.071645 
L 414.36288 144.284731 
L 414.72 151.189258 
L 414.72 151.189258 
" style="fill:none;stroke:#1f77b4;stroke-linecap:square;stroke-width:1.2;"/>
   </g>
   <g id="patch_3">
    <path d="M 57.6 307.584 
L 57.6 41.472 
" style="fill:none;stroke:#000000;stroke-linecap:square;stroke-linejoin:miter;"/>
   </g>
   <g id="patch_4">
    <path d="M 414.72 307.584 
L 414.72 41.472 
" style="fill:none;stroke:#000000;stroke-linecap:square;stroke-linejoin:miter;"/>
   </g>
   <g id="patch_5">
    <path d="M 57.6 307.584 
L 414.72 307.584 
" style="fill:none;stroke:#000000;stroke-linecap:square;stroke-linejoin:miter;"/>
   </g>
   <g id="patch_6">
    <path d="M 57.6 41.472 
L 414.72 41.472 
" style="fill:none;stroke:#000000;stroke-linecap:square;stroke-linejoin:miter;"/>
   </g>
   <g id="text_17">
    <!-- Training - CMA-ES - Slimevolley -->
    <g transform="translate(161.59425 35.472)scale(0.096 -0.096)">
     <defs>
      <path d="M 3513 2113 
L 3513 0 
L 2938 0 
L 2938 2094 
Q 2938 2591 2744 2837 
Q 2550 3084 2163 3084 
Q 1697 3084 1428 2787 
Q 1159 2491 1159 1978 
L 1159 0 
L 581 0 
L 581 3500 
L 1159 3500 
L 1159 2956 
Q 1366 3272 1645 3428 
Q 1925 3584 2291 3584 
Q 2894 3584 3203 3211 
Q 3513 2838 3513 2113 
z
" id="DejaVuSans-6e" transform="scale(0.015625)"/>
      <path d="M 2906 1791 
Q 2906 2416 2648 2759 
Q 2391 3103 1925 3103 
Q 1463 3103 1205 2759 
Q 947 2416 947 1791 
Q 947 1169 1205 825 
Q 1463 481 1925 481 
Q 2391 481 2648 825 
Q 2906 1169 2906 1791 
z
M 3481 434 
Q 3481 -459 3084 -895 
Q 2688 -1331 1869 -1331 
Q 1566 -1331 1297 -1286 
Q 1028 -1241 775 -1147 
L 775 -588 
Q 1028 -725 1275 -790 
Q 1522 -856 1778 -856 
Q 2344 -856 2625 -561 
Q 2906 -266 2906 331 
L 2906 616 
Q 2728 306 2450 153 
Q 2172 0 1784 0 
Q 1141 0 747 490 
Q 353 981 353 1791 
Q 353 2603 747 3093 
Q 1141 3584 1784 3584 
Q 2172 3584 2450 3431 
Q 2728 3278 2906 2969 
L 2906 3500 
L 3481 3500 
L 3481 434 
z
" id="DejaVuSans-67" transform="scale(0.015625)"/>
      <path id="DejaVuSans-20" transform="scale(0.015625)"/>
      <path d="M 313 2009 
L 1997 2009 
L 1997 1497 
L 313 1497 
L 313 2009 
z
" id="DejaVuSans-2d" transform="scale(0.015625)"/>
      <path d="M 4122 4306 
L 4122 3641 
Q 3803 3938 3442 4084 
Q 3081 4231 2675 4231 
Q 1875 4231 1450 3742 
Q 1025 3253 1025 2328 
Q 1025 1406 1450 917 
Q 1875 428 2675 428 
Q 3081 428 3442 575 
Q 3803 722 4122 1019 
L 4122 359 
Q 3791 134 3420 21 
Q 3050 -91 2638 -91 
Q 1578 -91 968 557 
Q 359 1206 359 2328 
Q 359 3453 968 4101 
Q 1578 4750 2638 4750 
Q 3056 4750 3426 4639 
Q 3797 4528 4122 4306 
z
" id="DejaVuSans-43" transform="scale(0.015625)"/>
      <path d="M 628 4666 
L 1569 4666 
L 2759 1491 
L 3956 4666 
L 4897 4666 
L 4897 0 
L 4281 0 
L 4281 4097 
L 3078 897 
L 2444 897 
L 1241 4097 
L 1241 0 
L 628 0 
L 628 4666 
z
" id="DejaVuSans-4d" transform="scale(0.015625)"/>
      <path d="M 2188 4044 
L 1331 1722 
L 3047 1722 
L 2188 4044 
z
M 1831 4666 
L 2547 4666 
L 4325 0 
L 3669 0 
L 3244 1197 
L 1141 1197 
L 716 0 
L 50 0 
L 1831 4666 
z
" id="DejaVuSans-41" transform="scale(0.015625)"/>
      <path d="M 628 4666 
L 3578 4666 
L 3578 4134 
L 1259 4134 
L 1259 2753 
L 3481 2753 
L 3481 2222 
L 1259 2222 
L 1259 531 
L 3634 531 
L 3634 0 
L 628 0 
L 628 4666 
z
" id="DejaVuSans-45" transform="scale(0.015625)"/>
      <path d="M 3425 4513 
L 3425 3897 
Q 3066 4069 2747 4153 
Q 2428 4238 2131 4238 
Q 1616 4238 1336 4038 
Q 1056 3838 1056 3469 
Q 1056 3159 1242 3001 
Q 1428 2844 1947 2747 
L 2328 2669 
Q 3034 2534 3370 2195 
Q 3706 1856 3706 1288 
Q 3706 609 3251 259 
Q 2797 -91 1919 -91 
Q 1588 -91 1214 -16 
Q 841 59 441 206 
L 441 856 
Q 825 641 1194 531 
Q 1563 422 1919 422 
Q 2459 422 2753 634 
Q 3047 847 3047 1241 
Q 3047 1584 2836 1778 
Q 2625 1972 2144 2069 
L 1759 2144 
Q 1053 2284 737 2584 
Q 422 2884 422 3419 
Q 422 4038 858 4394 
Q 1294 4750 2059 4750 
Q 2388 4750 2728 4690 
Q 3069 4631 3425 4513 
z
" id="DejaVuSans-53" transform="scale(0.015625)"/>
      <path d="M 603 4863 
L 1178 4863 
L 1178 0 
L 603 0 
L 603 4863 
z
" id="DejaVuSans-6c" transform="scale(0.015625)"/>
      <path d="M 191 3500 
L 800 3500 
L 1894 563 
L 2988 3500 
L 3597 3500 
L 2284 0 
L 1503 0 
L 191 3500 
z
" id="DejaVuSans-76" transform="scale(0.015625)"/>
      <path d="M 1959 3097 
Q 1497 3097 1228 2736 
Q 959 2375 959 1747 
Q 959 1119 1226 758 
Q 1494 397 1959 397 
Q 2419 397 2687 759 
Q 2956 1122 2956 1747 
Q 2956 2369 2687 2733 
Q 2419 3097 1959 3097 
z
M 1959 3584 
Q 2709 3584 3137 3096 
Q 3566 2609 3566 1747 
Q 3566 888 3137 398 
Q 2709 -91 1959 -91 
Q 1206 -91 779 398 
Q 353 888 353 1747 
Q 353 2609 779 3096 
Q 1206 3584 1959 3584 
z
" id="DejaVuSans-6f" transform="scale(0.015625)"/>
      <path d="M 2059 -325 
Q 1816 -950 1584 -1140 
Q 1353 -1331 966 -1331 
L 506 -1331 
L 506 -850 
L 844 -850 
Q 1081 -850 1212 -737 
Q 1344 -625 1503 -206 
L 1606 56 
L 191 3500 
L 800 3500 
L 1894 763 
L 2988 3500 
L 3597 3500 
L 2059 -325 
z
" id="DejaVuSans-79" transform="scale(0.015625)"/>
     </defs>
     <use xlink:href="#DejaVuSans-54"/>
     <use x="46.333984" xlink:href="#DejaVuSans-72"/>
     <use x="87.447266" xlink:href="#DejaVuSans-61"/>
     <use x="148.726562" xlink:href="#DejaVuSans-69"/>
     <use x="176.509766" xlink:href="#DejaVuSans-6e"/>
     <use x="239.888672" xlink:href="#DejaVuSans-69"/>
     <use x="267.671875" xlink:href="#DejaVuSans-6e"/>
     <use x="331.050781" xlink:href="#DejaVuSans-67"/>
     <use x="394.527344" xlink:href="#DejaVuSans-20"/>
     <use x="426.314453" xlink:href="#DejaVuSans-2d"/>
     <use x="462.398438" xlink:href="#DejaVuSans-20"/>
     <use x="494.185547" xlink:href="#DejaVuSans-43"/>
     <use x="564.009766" xlink:href="#DejaVuSans-4d"/>
     <use x="650.289062" xlink:href="#DejaVuSans-41"/>
     <use x="716.447266" xlink:href="#DejaVuSans-2d"/>
     <use x="752.53125" xlink:href="#DejaVuSans-45"/>
     <use x="815.714844" xlink:href="#DejaVuSans-53"/>
     <use x="879.191406" xlink:href="#DejaVuSans-20"/>
     <use x="910.978516" xlink:href="#DejaVuSans-2d"/>
     <use x="947.0625" xlink:href="#DejaVuSans-20"/>
     <use x="978.849609" xlink:href="#DejaVuSans-53"/>
     <use x="1042.326172" xlink:href="#DejaVuSans-6c"/>
     <use x="1070.109375" xlink:href="#DejaVuSans-69"/>
     <use x="1097.892578" xlink:href="#DejaVuSans-6d"/>
     <use x="1195.304688" xlink:href="#DejaVuSans-65"/>
     <use x="1256.828125" xlink:href="#DejaVuSans-76"/>
     <use x="1316.007812" xlink:href="#DejaVuSans-6f"/>
     <use x="1377.189453" xlink:href="#DejaVuSans-6c"/>
     <use x="1404.972656" xlink:href="#DejaVuSans-6c"/>
     <use x="1432.755859" xlink:href="#DejaVuSans-65"/>
     <use x="1494.279297" xlink:href="#DejaVuSans-79"/>
    </g>
   </g>
  </g>
 </g>
 <defs>
  <clipPath id="p4f6a893a23">
   <rect height="266.112" width="357.12" x="57.6" y="41.472"/>
  </clipPath>
 </defs>
</svg>
