<?xml version="1.0" encoding="utf-8" standalone="no"?>
<!DOCTYPE svg PUBLIC "-//W3C//DTD SVG 1.1//EN"
  "http://www.w3.org/Graphics/SVG/1.1/DTD/svg11.dtd">
<svg height="345.6pt" version="1.1" viewBox="0 0 460.8 345.6" width="460.8pt" xmlns="http://www.w3.org/2000/svg" xmlns:xlink="http://www.w3.org/1999/xlink">
 <metadata>
  <rdf:RDF xmlns:cc="http://creativecommons.org/ns#" xmlns:dc="http://purl.org/dc/elements/1.1/" xmlns:rdf="http://www.w3.org/1999/02/22-rdf-syntax-ns#">
   <cc:Work>
    <dc:type rdf:resource="http://purl.org/dc/dcmitype/StillImage"/>
    <dc:date>2021-07-22T00:42:21.180141</dc:date>
    <dc:format>image/svg+xml</dc:format>
    <dc:creator>
     <cc:Agent>
      <dc:title>Matplotlib v3.4.2, https://matplotlib.org/</dc:title>
     </cc:Agent>
    </dc:creator>
   </cc:Work>
  </rdf:RDF>
 </metadata>
 <defs>
  <style type="text/css">*{stroke-linecap:butt;stroke-linejoin:round;}</style>
 </defs>
 <g id="figure_1">
  <g id="patch_1">
   <path d="M 0 345.6 
L 460.8 345.6 
L 460.8 0 
L 0 0 
z
" style="fill:#ffffff;"/>
  </g>
  <g id="axes_1">
   <g id="patch_2">
    <path d="M 57.6 307.584 
L 414.72 307.584 
L 414.72 41.472 
L 57.6 41.472 
z
" style="fill:#ffffff;"/>
   </g>
   <g id="PolyCollection_1">
    <path clip-path="url(#p59bd3e9446)" d="M 73.832727 303.541093 
L 73.832727 304.347413 
L 74.157707 305.143088 
L 74.482686 305.185 
L 74.807666 304.920219 
L 75.132645 305.456435 
L 75.457625 305.18367 
L 75.782604 305.179678 
L 76.107584 305.240884 
L 76.432563 305.212942 
L 76.757543 304.952152 
L 77.082523 304.791155 
L 77.407502 305.027329 
L 77.732482 304.843712 
L 78.057461 304.797807 
L 78.382441 304.805125 
L 78.70742 304.6734 
L 79.0324 304.596228 
L 79.357379 304.533026 
L 79.682359 304.4013 
L 80.007338 304.462506 
L 80.332318 304.36471 
L 80.657297 304.318806 
L 80.982277 304.248951 
L 81.307256 304.268244 
L 81.632236 304.260926 
L 81.957215 304.272236 
L 82.282195 304.247621 
L 82.607174 304.165791 
L 82.932154 304.232985 
L 83.257133 304.219679 
L 83.582113 304.219014 
L 83.907093 304.2097 
L 84.232072 304.187746 
L 84.557052 304.228328 
L 84.882031 304.183089 
L 85.207011 304.185084 
L 85.53199 304.055355 
L 85.85697 303.893027 
L 86.181949 304.145168 
L 86.506929 304.076644 
L 86.831908 304.010116 
L 87.156888 304.122548 
L 87.481867 303.943588 
L 87.806847 304.092611 
L 88.131826 303.837808 
L 88.456806 303.857767 
L 88.781785 303.628245 
L 89.106765 303.605626 
L 89.431744 303.007539 
L 89.756724 302.822591 
L 90.081704 302.38151 
L 90.406683 301.838642 
L 90.731663 300.113571 
L 91.056642 298.717148 
L 91.381622 297.919477 
L 91.706601 297.279478 
L 92.031581 293.560563 
L 92.35656 294.607048 
L 92.68154 293.070917 
L 93.006519 291.645222 
L 93.331499 292.188756 
L 93.656478 291.349172 
L 93.981458 291.142935 
L 94.306437 292.298527 
L 94.631417 291.865429 
L 94.956396 289.711253 
L 95.281376 290.114412 
L 95.606355 289.815702 
L 95.931335 289.742521 
L 96.256314 291.067093 
L 96.581294 289.568883 
L 96.906274 287.92298 
L 97.231253 287.914332 
L 97.556233 287.596993 
L 97.881212 288.106597 
L 98.206192 288.181774 
L 98.531171 287.405392 
L 98.856151 287.45928 
L 99.18113 287.464602 
L 99.50611 287.333542 
L 99.831089 287.147264 
L 100.156069 287.655538 
L 100.481048 287.360819 
L 100.806028 287.451297 
L 101.131007 286.728137 
L 101.455987 287.004894 
L 101.780966 286.163315 
L 102.105946 286.425435 
L 102.430925 285.961735 
L 102.755905 286.08082 
L 103.080885 285.933793 
L 103.405864 286.122732 
L 103.730844 285.555914 
L 104.055823 285.77213 
L 104.380803 285.644396 
L 104.705782 285.201985 
L 105.030762 285.839988 
L 105.355741 285.616454 
L 105.680721 285.906516 
L 106.0057 284.992422 
L 106.33068 284.92922 
L 106.655659 285.704937 
L 106.980639 284.901944 
L 107.305618 285.383606 
L 107.630598 285.04764 
L 107.955577 285.182027 
L 108.280557 285.410883 
L 108.605536 285.223274 
L 108.930516 285.418201 
L 109.255495 284.943191 
L 109.580475 284.814792 
L 109.905455 284.69105 
L 110.230434 284.72631 
L 110.555414 284.2034 
L 110.880393 283.830843 
L 111.205373 284.569304 
L 111.530352 283.452964 
L 111.855332 283.531467 
L 112.180311 283.591342 
L 112.505291 283.083733 
L 112.83027 282.759742 
L 113.15525 282.843567 
L 113.480229 282.634004 
L 113.805209 282.36257 
L 114.130188 280.946189 
L 114.455168 282.19625 
L 114.780147 282.496956 
L 115.105127 281.948766 
L 115.430106 282.199576 
L 115.755086 281.705273 
L 116.080066 282.513588 
L 116.405045 281.17571 
L 116.730025 282.870844 
L 117.055004 281.680658 
L 117.379984 281.232924 
L 117.704963 281.842986 
L 118.029943 281.980699 
L 118.354922 281.024692 
L 118.679902 281.321407 
L 119.004881 280.927561 
L 119.329861 280.557665 
L 119.65484 281.268184 
L 119.97982 280.791179 
L 120.304799 280.420618 
L 120.629779 279.922988 
L 120.954758 280.24831 
L 121.279738 279.731388 
L 121.604717 279.865109 
L 121.929697 280.532385 
L 122.254676 279.876419 
L 122.579656 279.558415 
L 122.904636 278.816628 
L 123.229615 278.789351 
L 123.554595 278.92906 
L 123.879574 279.139288 
L 124.204554 278.676253 
L 124.529533 278.295048 
L 124.854513 278.807314 
L 125.179492 278.676919 
L 125.504472 277.885901 
L 125.829451 278.125402 
L 126.154431 279.823861 
L 126.47941 278.376212 
L 126.80439 278.410807 
L 127.129369 278.9417 
L 127.454349 278.945692 
L 127.779328 279.181201 
L 128.104308 279.294964 
L 128.429287 277.832013 
L 128.754267 279.153259 
L 129.079247 278.58511 
L 129.404226 278.859871 
L 129.729206 279.310265 
L 130.054185 278.555838 
L 130.379165 279.275671 
L 130.704144 279.261035 
L 131.029124 278.802657 
L 131.354103 278.88116 
L 131.679083 277.836005 
L 132.004062 279.70145 
L 132.329042 279.90436 
L 132.654021 279.293633 
L 132.979001 277.242575 
L 133.30398 275.782951 
L 133.62896 276.004489 
L 133.953939 275.515508 
L 134.278919 275.633263 
L 134.603898 276.724322 
L 134.928878 277.39692 
L 135.253857 275.653221 
L 135.578837 275.958585 
L 135.903817 275.653221 
L 136.228796 276.341121 
L 136.553776 276.122909 
L 136.878755 275.4237 
L 137.203735 275.470269 
L 137.528714 275.916672 
L 137.853694 275.623284 
L 138.178673 275.797587 
L 138.503653 275.717088 
L 138.828632 275.995175 
L 139.153612 277.154093 
L 139.478591 275.569396 
L 139.803571 276.228688 
L 140.12855 276.31584 
L 140.45353 276.134884 
L 140.778509 275.672514 
L 141.103489 276.460206 
L 141.428468 276.246651 
L 141.753448 276.300539 
L 142.078428 275.617961 
L 142.403407 277.501369 
L 142.728387 275.979208 
L 143.053366 278.100786 
L 143.378346 278.573135 
L 143.703325 278.711513 
L 144.028305 279.966231 
L 144.353284 279.839828 
L 144.678264 279.59434 
L 145.003243 279.739371 
L 145.328223 281.741864 
L 145.653202 279.826523 
L 145.978182 281.475752 
L 146.303161 281.350679 
L 146.628141 281.833672 
L 146.95312 280.740617 
L 147.2781 280.346772 
L 147.603079 281.921489 
L 147.928059 281.848974 
L 148.253038 282.30336 
L 148.578018 281.737872 
L 148.902998 281.760492 
L 149.227977 281.173049 
L 149.552957 280.99675 
L 149.877936 282.192924 
L 150.202916 281.967394 
L 150.527895 282.054545 
L 150.852875 282.364566 
L 151.177854 283.085064 
L 151.502834 283.077081 
L 151.827813 282.756416 
L 152.152793 282.876166 
L 152.477772 283.290636 
L 152.802752 282.79101 
L 153.127731 282.56548 
L 153.452711 282.403817 
L 153.77769 282.59941 
L 154.10267 282.83891 
L 154.427649 282.374545 
L 154.752629 282.693214 
L 155.077609 282.85022 
L 155.402588 283.297954 
L 155.727568 282.851551 
L 156.052547 283.035833 
L 156.377527 282.40914 
L 156.702506 283.194835 
L 157.027486 282.34993 
L 157.352465 282.460366 
L 157.677445 282.779035 
L 158.002424 282.651967 
L 158.327404 282.902777 
L 158.652383 282.355917 
L 158.977363 282.735792 
L 159.302342 282.858869 
L 159.627322 282.425772 
L 159.952301 282.590096 
L 160.277281 282.234171 
L 160.60226 282.033922 
L 160.92724 282.021947 
L 161.252219 283.050469 
L 161.577199 282.618037 
L 161.902179 282.587435 
L 162.227158 282.212882 
L 162.552138 282.535543 
L 162.877117 282.294046 
L 163.202097 282.60074 
L 163.527076 282.632008 
L 163.852056 282.340616 
L 164.177035 282.530886 
L 164.502015 282.204233 
L 164.826994 282.174296 
L 165.151974 281.515668 
L 165.476953 282.23151 
L 165.801933 282.10178 
L 166.126912 281.67334 
L 166.451892 281.92282 
L 166.776871 281.84099 
L 167.101851 282.230844 
L 167.42683 281.930803 
L 167.75181 282.037248 
L 168.07679 281.988683 
L 168.401769 282.473006 
L 168.726749 282.449056 
L 169.051728 282.726478 
L 169.376708 281.86494 
L 169.701687 282.325314 
L 170.026667 282.12573 
L 170.351646 281.772467 
L 170.676626 282.215543 
L 171.001605 282.149015 
L 171.326585 282.376541 
L 171.651564 282.167643 
L 171.976544 282.058537 
L 172.301523 281.487061 
L 172.626503 282.144358 
L 172.951482 282.009972 
L 173.276462 282.34993 
L 173.601441 281.589515 
L 173.926421 281.725897 
L 174.2514 281.568226 
L 174.57638 281.952757 
L 174.90136 282.490304 
L 175.226339 282.407144 
L 175.551319 281.761157 
L 175.876298 281.772467 
L 176.201278 282.475002 
L 176.526257 282.218204 
L 176.851237 281.721905 
L 177.176216 281.98336 
L 177.501196 282.217539 
L 177.826175 281.741864 
L 178.151155 282.691218 
L 178.476134 281.904857 
L 178.801114 282.038579 
L 179.126093 282.248142 
L 179.451073 281.540284 
L 179.776052 282.364566 
L 180.101032 281.645398 
L 180.426011 282.254129 
L 180.750991 282.486312 
L 181.075971 281.218288 
L 181.40095 282.1723 
L 181.72593 281.069266 
L 182.050909 281.598163 
L 182.375889 282.266104 
L 182.700868 282.301364 
L 183.025848 282.368557 
L 183.350827 282.430428 
L 183.675807 282.450387 
L 184.000786 282.323318 
L 184.325766 282.143693 
L 184.650745 282.26677 
L 184.975725 282.376541 
L 185.300704 282.520907 
L 185.625684 281.866936 
L 185.950663 282.419784 
L 186.275643 282.423776 
L 186.600622 282.75442 
L 186.925602 282.107102 
L 187.250581 281.914171 
L 187.575561 281.882238 
L 187.900541 281.86361 
L 188.22552 282.37521 
L 188.5505 282.117082 
L 188.875479 282.524233 
L 189.200459 281.89887 
L 189.525438 282.200907 
L 189.850418 282.56415 
L 190.175397 283.007892 
L 190.500377 282.357913 
L 190.825356 282.165647 
L 191.150336 282.869513 
L 191.475315 282.537539 
L 191.800295 282.027269 
L 192.125274 282.007976 
L 192.450254 282.876831 
L 192.775233 282.258121 
L 193.100213 282.268765 
L 193.425192 282.538869 
L 193.750172 282.053215 
L 194.075152 281.868932 
L 194.400131 281.823028 
L 194.725111 281.356667 
L 195.05009 281.905523 
L 195.37507 281.933464 
L 195.700049 281.737207 
L 196.025029 282.224857 
L 196.350008 281.60149 
L 196.674988 280.78386 
L 196.999967 280.837083 
L 197.324947 280.753258 
L 197.649926 280.420618 
L 197.974906 280.738621 
L 198.299885 279.318914 
L 198.624865 280.083321 
L 198.949844 279.668186 
L 199.274824 279.398082 
L 199.599803 279.947604 
L 199.924783 279.718747 
L 200.249762 279.068769 
L 200.574742 279.858456 
L 200.899722 279.644901 
L 201.224701 279.538456 
L 201.549681 280.360742 
L 201.87466 279.775961 
L 202.19964 279.689475 
L 202.524619 279.624943 
L 202.849599 279.827853 
L 203.174578 279.813882 
L 203.499558 279.133301 
L 203.824537 279.104028 
L 204.149517 279.750681 
L 204.474496 279.70145 
L 204.799476 279.58303 
L 205.124455 279.223114 
L 205.449435 279.502531 
L 205.774414 279.201159 
L 206.099394 279.65488 
L 206.424373 279.001575 
L 206.749353 279.175879 
L 207.074333 278.961659 
L 207.399312 279.302282 
L 207.724292 278.746773 
L 208.049271 278.856544 
L 208.374251 278.120745 
L 208.69923 279.39276 
L 209.02421 279.335546 
L 209.349189 278.446732 
L 209.674169 278.726815 
L 209.999148 278.955006 
L 210.324128 279.028852 
L 210.649107 279.006898 
L 210.974087 278.67958 
L 211.299066 278.836586 
L 211.624046 278.409476 
L 211.949025 278.45538 
L 212.274005 278.662283 
L 212.598984 278.760744 
L 212.923964 279.348186 
L 213.248943 278.774715 
L 213.573923 278.599081 
L 213.898903 278.805983 
L 214.223882 278.774715 
L 214.548862 278.373551 
L 214.873841 279.009559 
L 215.198821 278.924403 
L 215.5238 278.836586 
L 215.84878 278.626357 
L 216.173759 278.888478 
L 216.498739 278.629684 
L 216.823718 278.581118 
L 217.148698 278.434757 
L 217.473677 278.529892 
L 217.798657 278.421451 
L 218.123636 278.34827 
L 218.448616 278.855214 
L 218.773595 278.35958 
L 219.098575 277.877917 
L 219.423554 278.429435 
L 219.748534 277.766816 
L 220.073514 278.354258 
L 220.398493 278.523239 
L 220.723473 278.400828 
L 221.048452 278.486649 
L 221.373432 278.550516 
L 221.698411 277.200662 
L 222.023391 278.114092 
L 222.34837 278.698873 
L 222.67335 277.514009 
L 222.998329 277.80141 
L 223.323309 278.33563 
L 223.648288 277.373635 
L 223.973268 277.922491 
L 224.298247 278.368894 
L 224.623227 276.877336 
L 224.948206 278.545193 
L 225.273186 277.505361 
L 225.598165 278.024279 
L 225.923145 277.668354 
L 226.248124 277.279165 
L 226.573104 277.985028 
L 226.898084 278.0622 
L 227.223063 277.645069 
L 227.548043 277.848645 
L 227.873022 277.446151 
L 228.198002 277.201993 
L 228.522981 277.751514 
L 228.847961 277.376296 
L 229.17294 277.613136 
L 229.49792 278.048894 
L 229.822899 277.362991 
L 230.147879 278.085485 
L 230.472858 277.201993 
L 230.797838 277.102866 
L 231.122817 277.545277 
L 231.447797 277.33638 
L 231.772776 277.223947 
L 232.097756 276.77821 
L 232.422735 276.794842 
L 232.747715 276.70769 
L 233.072695 276.70769 
L 233.397674 277.104197 
L 233.722654 277.338375 
L 234.047633 277.35035 
L 234.372613 277.031016 
L 234.697592 277.660371 
L 235.022572 277.332388 
L 235.347551 277.275839 
L 235.672531 277.49139 
L 235.99751 277.680329 
L 236.32249 277.481411 
L 236.647469 277.905859 
L 236.972449 277.492055 
L 237.297428 277.39692 
L 237.622408 277.761493 
L 237.947387 277.263864 
L 238.272367 278.102117 
L 238.597346 277.754841 
L 238.922326 277.486068 
L 239.247305 277.602492 
L 239.572285 277.597169 
L 239.897265 277.768812 
L 240.222244 277.803406 
L 240.547224 278.046899 
L 240.872203 277.653718 
L 241.197183 277.964404 
L 241.522162 277.889227 
L 241.847142 277.879248 
L 242.172121 277.466109 
L 242.497101 277.700288 
L 242.82208 277.793427 
L 243.14706 277.854633 
L 243.472039 278.18195 
L 243.797019 277.927148 
L 244.121998 277.668354 
L 244.446978 277.529976 
L 244.771957 277.259872 
L 245.096937 277.955755 
L 245.421916 277.689643 
L 245.746896 277.500704 
L 246.071876 277.563905 
L 246.396855 277.981701 
L 246.721835 277.838001 
L 247.046814 277.5985 
L 247.371794 277.720911 
L 247.696773 278.04956 
L 248.021753 277.97904 
L 248.346732 278.21588 
L 248.671712 277.62378 
L 248.996691 277.531307 
L 249.321671 277.977709 
L 249.64665 278.616378 
L 249.97163 278.521243 
L 250.296609 278.046233 
L 250.621589 278.54985 
L 250.946568 278.542532 
L 251.271548 278.587771 
L 251.596527 278.7501 
L 251.921507 278.291056 
L 252.246486 277.925152 
L 252.571466 277.671015 
L 252.896446 277.675007 
L 253.221425 278.149352 
L 253.546405 278.02561 
L 253.871384 277.656379 
L 254.196364 277.692304 
L 254.521343 277.02902 
L 254.846323 277.881244 
L 255.171302 277.04033 
L 255.496282 277.97904 
L 255.821261 276.329146 
L 256.146241 277.589851 
L 256.47122 276.954509 
L 256.7962 277.41954 
L 257.121179 277.146775 
L 257.446159 277.89588 
L 257.771138 277.943115 
L 258.096118 278.002325 
L 258.421097 276.17214 
L 258.746077 277.880579 
L 259.071057 276.891972 
L 259.396036 277.732221 
L 259.721016 277.421535 
L 260.045995 278.024279 
L 260.370975 278.107439 
L 260.695954 277.619789 
L 261.020934 278.146691 
L 261.345913 278.140703 
L 261.670893 278.249809 
L 261.995872 277.977044 
L 262.320852 277.933801 
L 262.645831 278.478 
L 262.970811 278.318333 
L 263.29579 278.154009 
L 263.62077 278.428769 
L 263.945749 278.056212 
L 264.270729 278.641659 
L 264.595708 277.909851 
L 264.920688 278.225859 
L 265.245667 278.354923 
L 265.570647 277.94245 
L 265.895627 277.99168 
L 266.220606 278.384196 
L 266.545586 278.909101 
L 266.870565 278.124736 
L 267.195545 278.148021 
L 267.520524 277.916504 
L 267.845504 278.234508 
L 268.170483 278.256462 
L 268.495463 278.436753 
L 268.820442 278.182616 
L 269.145422 277.968396 
L 269.470401 278.456711 
L 269.795381 277.46744 
L 270.12036 278.057543 
L 270.44534 278.213884 
L 270.770319 277.698957 
L 271.095299 277.998998 
L 271.420278 277.724903 
L 271.745258 277.615797 
L 272.070238 277.019041 
L 272.395217 278.386191 
L 272.720197 277.941784 
L 273.045176 278.219871 
L 273.370156 277.798749 
L 273.695135 278.005651 
L 274.020115 277.57588 
L 274.345094 277.43218 
L 274.670074 277.479415 
L 274.995053 277.347689 
L 275.320033 277.640412 
L 275.645012 277.726899 
L 275.969992 277.506691 
L 276.294971 278.066192 
L 276.619951 277.61114 
L 276.94493 277.593178 
L 277.26991 277.080247 
L 277.594889 277.909851 
L 277.919869 277.643074 
L 278.244848 277.590516 
L 278.569828 277.916504 
L 278.894808 277.463448 
L 279.219787 278.109435 
L 279.544767 277.61114 
L 279.869746 278.15667 
L 280.194726 277.232596 
L 280.519705 277.363656 
L 280.844685 276.905943 
L 281.169664 277.621785 
L 281.494644 277.68166 
L 281.819623 277.746192 
L 282.144603 277.880579 
L 282.469582 278.161992 
L 282.794562 277.733552 
L 283.119541 278.319663 
L 283.444521 278.111431 
L 283.7695 278.012969 
L 284.09448 278.645651 
L 284.419459 279.972219 
L 284.744439 280.941532 
L 285.069419 279.398748 
L 285.394398 279.807229 
L 285.719378 281.295461 
L 286.044357 281.177706 
L 286.369337 280.258955 
L 286.694316 279.145941 
L 287.019296 278.835255 
L 287.344275 280.746605 
L 287.669255 280.494464 
L 287.994234 280.368726 
L 288.319214 280.016793 
L 288.644193 280.817124 
L 288.969173 280.447894 
L 289.294152 281.101199 
L 289.619132 281.030014 
L 289.944111 280.338123 
L 290.269091 280.363404 
L 290.59407 280.621532 
L 290.91905 280.872343 
L 291.244029 281.166396 
L 291.569009 281.002072 
L 291.893989 280.888975 
L 292.218968 280.788517 
L 292.543948 279.597666 
L 292.868927 281.47176 
L 293.193907 281.342696 
L 293.518886 280.286231 
L 293.843866 280.614214 
L 294.168845 280.877 
L 294.493825 281.360658 
L 294.818804 281.926146 
L 295.143784 280.768559 
L 295.468763 282.033256 
L 295.793743 281.351344 
L 296.118722 280.173799 
L 296.443702 280.843736 
L 296.768681 281.45912 
L 297.093661 281.528974 
L 297.41864 280.428601 
L 297.74362 280.679412 
L 298.0686 281.616126 
L 298.393579 281.562903 
L 298.718559 280.271595 
L 299.043538 280.867686 
L 299.368518 281.538288 
L 299.693497 280.287562 
L 300.018477 280.357416 
L 300.343456 280.68673 
L 300.668436 280.703362 
L 300.993415 280.107936 
L 301.318395 280.808476 
L 301.643374 281.74519 
L 301.968354 281.12648 
L 302.293333 280.584276 
L 302.618313 280.590264 
L 302.943292 280.314173 
L 303.268272 280.803154 
L 303.593251 281.188351 
L 303.918231 280.947519 
L 304.24321 281.142446 
L 304.56819 279.271679 
L 304.89317 280.096626 
L 305.218149 281.275502 
L 305.543129 279.995504 
L 305.868108 280.08199 
L 306.193088 281.071927 
L 306.518067 280.908268 
L 306.843047 279.602323 
L 307.168026 280.539037 
L 307.493006 280.346772 
L 307.817985 280.305524 
L 308.142965 279.888394 
L 308.467944 279.83118 
L 308.792924 279.849142 
L 309.117903 280.314838 
L 309.442883 281.034671 
L 309.767862 280.671428 
L 310.092842 280.835752 
L 310.417821 279.42802 
L 310.742801 280.399329 
L 311.067781 280.679412 
L 311.39276 280.545025 
L 311.71774 279.659537 
L 312.042719 281.655377 
L 312.367699 280.320826 
L 312.692678 279.756668 
L 313.017658 280.493133 
L 313.342637 280.249641 
L 313.667617 280.161824 
L 313.992596 281.002738 
L 314.317576 279.393425 
L 314.642555 280.160493 
L 314.967535 281.793756 
L 315.292514 280.354755 
L 315.617494 280.097292 
L 315.942473 280.458539 
L 316.267453 280.282905 
L 316.592432 280.433923 
L 316.917412 280.007479 
L 317.242391 280.696044 
L 317.567371 280.972135 
L 317.892351 280.514422 
L 318.21733 280.12989 
L 318.54231 279.610972 
L 318.867289 280.362073 
L 319.192269 279.480577 
L 319.517248 280.433258 
L 319.842228 280.27093 
L 320.167207 280.575628 
L 320.492187 281.165066 
L 320.817166 279.953591 
L 321.142146 280.988101 
L 321.467125 279.539787 
L 321.792105 281.1165 
L 322.117084 279.577043 
L 322.442064 280.026772 
L 322.767043 279.985524 
L 323.092023 280.821116 
L 323.417002 280.194422 
L 323.741982 281.274172 
L 324.066962 280.99542 
L 324.391941 279.726731 
L 324.716921 280.158497 
L 325.0419 279.954256 
L 325.36688 280.031429 
L 325.691859 281.419203 
L 326.016839 281.204317 
L 326.341818 282.785688 
L 326.666798 282.719825 
L 326.991777 280.811802 
L 327.316757 282.679908 
L 327.641736 282.296042 
L 327.966716 282.488973 
L 328.291695 280.459869 
L 328.616675 282.384524 
L 328.941654 281.868267 
L 329.266634 281.84099 
L 329.591613 282.052549 
L 329.916593 281.212301 
L 330.241572 282.380532 
L 330.566552 282.367892 
L 330.891532 281.296791 
L 331.216511 282.220865 
L 331.541491 282.983276 
L 331.86647 281.120492 
L 332.19145 281.905523 
L 332.516429 282.961987 
L 332.841409 281.524982 
L 333.166388 282.585439 
L 333.491368 281.855627 
L 333.816347 281.611469 
L 334.141327 281.797082 
L 334.466306 281.719244 
L 334.791286 282.077165 
L 335.116265 281.670679 
L 335.441245 283.080407 
L 335.766224 281.830346 
L 336.091204 283.242735 
L 336.416183 281.214962 
L 336.741163 281.419203 
L 337.066143 281.771136 
L 337.391122 282.333298 
L 337.716102 280.402655 
L 338.041081 280.553008 
L 338.366061 280.684734 
L 338.69104 280.92623 
L 339.01602 278.794008 
L 339.340999 280.000161 
L 339.665979 279.944942 
L 339.990958 279.827188 
L 340.315938 279.764652 
L 340.640917 279.909017 
L 340.965897 280.805815 
L 341.290876 281.15176 
L 341.615856 281.507685 
L 341.940835 280.417291 
L 342.265815 280.402655 
L 342.590794 280.232343 
L 342.915774 280.586272 
L 343.240753 280.133217 
L 343.565733 281.319411 
L 343.890713 280.185108 
L 344.215692 280.105275 
L 344.540672 279.748685 
L 344.865651 280.090639 
L 345.190631 280.319495 
L 345.51561 281.00939 
L 345.84059 280.240992 
L 346.165569 280.525067 
L 346.490549 280.532385 
L 346.815528 280.103279 
L 347.140508 279.934298 
L 347.465487 280.449225 
L 347.790467 280.412634 
L 348.115446 280.365399 
L 348.440426 280.718663 
L 348.765405 280.472509 
L 349.090385 280.613549 
L 349.415364 280.031429 
L 349.740344 280.803154 
L 350.065324 280.300202 
L 350.390303 280.417291 
L 350.715283 280.33014 
L 351.040262 280.590264 
L 351.365242 279.803238 
L 351.690221 281.132467 
L 352.015201 279.394091 
L 352.34018 279.473924 
L 352.66516 280.547686 
L 352.990139 280.099287 
L 353.315119 280.919578 
L 353.640098 280.610222 
L 353.965078 280.301532 
L 354.290057 278.817958 
L 354.615037 279.840493 
L 354.940016 280.335462 
L 355.264996 280.27093 
L 355.589975 279.956917 
L 355.914955 280.713341 
L 356.239934 279.606315 
L 356.564914 279.935628 
L 356.889894 279.668851 
L 357.214873 281.503693 
L 357.539853 280.766563 
L 357.864832 280.779204 
L 358.189812 280.064028 
L 358.514791 280.489141 
L 358.839771 279.657541 
L 359.16475 280.113924 
L 359.48973 280.567644 
L 359.814709 280.392676 
L 360.139689 279.266357 
L 360.464668 280.678081 
L 360.789648 280.002156 
L 361.114627 280.521075 
L 361.439607 280.359412 
L 361.764586 280.429266 
L 362.089566 280.581615 
L 362.414545 280.632177 
L 362.739525 280.440576 
L 363.064505 280.394006 
L 363.389484 280.219703 
L 363.714464 279.980868 
L 364.039443 280.65147 
L 364.364423 280.116585 
L 364.689402 280.440576 
L 365.014382 279.223779 
L 365.339361 280.250971 
L 365.664341 280.543029 
L 365.98932 280.315503 
L 366.3143 280.020784 
L 366.639279 279.663529 
L 366.964259 280.159828 
L 367.289238 280.75991 
L 367.614218 279.302947 
L 367.939197 278.992927 
L 368.264177 281.006729 
L 368.589156 280.795836 
L 368.914136 279.581034 
L 369.239115 280.364069 
L 369.564095 279.438664 
L 369.889075 281.323403 
L 370.214054 280.048726 
L 370.539034 280.403986 
L 370.864013 280.750596 
L 371.188993 279.766647 
L 371.513972 280.952842 
L 371.838952 281.101864 
L 372.163931 279.109351 
L 372.488911 280.72332 
L 372.81389 280.088643 
L 373.13887 279.643571 
L 373.463849 280.252302 
L 373.788829 280.52041 
L 374.113808 279.834506 
L 374.438788 279.638914 
L 374.763767 279.857791 
L 375.088747 280.103944 
L 375.413726 280.041408 
L 375.738706 279.897708 
L 376.063686 279.658872 
L 376.388665 280.199079 
L 376.713645 279.84515 
L 377.038624 280.297541 
L 377.363604 279.32224 
L 377.688583 279.791263 
L 378.013563 279.427355 
L 378.338542 280.667436 
L 378.663522 281.165066 
L 378.988501 279.644901 
L 379.313481 279.294964 
L 379.63846 279.929641 
L 379.96344 279.899038 
L 380.288419 280.390015 
L 380.613399 279.860452 
L 380.938378 280.124568 
L 381.263358 280.389349 
L 381.588337 280.857707 
L 381.913317 280.644817 
L 382.238296 281.35201 
L 382.563276 281.088559 
L 382.888256 281.882903 
L 383.213235 282.215543 
L 383.538215 282.357248 
L 383.863194 282.230844 
L 384.188174 281.397249 
L 384.513153 282.846228 
L 384.838133 281.909514 
L 385.163112 282.276749 
L 385.488092 281.221615 
L 385.813071 282.353256 
L 386.138051 281.879577 
L 386.46303 281.138455 
L 386.78801 281.290804 
L 387.112989 282.928723 
L 387.437969 281.356667 
L 387.762948 281.961406 
L 388.087928 281.310762 
L 388.412907 282.677913 
L 388.737887 282.371884 
L 389.062867 281.936125 
L 389.387846 281.886229 
L 389.712826 281.503693 
L 390.037805 281.742529 
L 390.362785 282.39783 
L 390.687764 281.502363 
L 391.012744 282.198911 
L 391.337723 281.060617 
L 391.662703 281.23492 
L 391.987682 281.637415 
L 392.312662 282.294046 
L 392.637641 282.272092 
L 392.962621 281.86494 
L 393.2876 281.633423 
L 393.61258 281.937456 
L 393.937559 281.497706 
L 394.262539 283.070428 
L 394.587518 282.377206 
L 394.912498 281.792425 
L 395.237477 282.413796 
L 395.562457 282.029265 
L 395.887437 281.387935 
L 396.212416 281.584192 
L 396.537396 281.004733 
L 396.862375 282.118412 
L 397.187355 281.497706 
L 397.512334 282.275418 
L 397.837314 282.901447 
L 398.162293 280.911594 
L 398.487273 281.964732 
L 398.487273 267.399092 
L 398.487273 267.399092 
L 398.162293 267.692481 
L 397.837314 267.822876 
L 397.512334 267.706452 
L 397.187355 269.256554 
L 396.862375 266.570819 
L 396.537396 265.65872 
L 396.212416 266.338636 
L 395.887437 267.761004 
L 395.562457 267.06246 
L 395.237477 268.991107 
L 394.912498 268.401669 
L 394.587518 269.641086 
L 394.262539 267.004581 
L 393.937559 266.458386 
L 393.61258 266.755101 
L 393.2876 266.005996 
L 392.962621 267.266036 
L 392.637641 269.14013 
L 392.312662 268.09564 
L 391.987682 270.51726 
L 391.662703 267.778302 
L 391.337723 266.76375 
L 391.012744 267.509529 
L 390.687764 267.348531 
L 390.362785 267.091068 
L 390.037805 265.710612 
L 389.712826 267.436348 
L 389.387846 268.686409 
L 389.062867 268.232023 
L 388.737887 269.098883 
L 388.412907 268.267283 
L 388.087928 268.05905 
L 387.762948 268.623873 
L 387.437969 266.548199 
L 387.112989 266.180299 
L 386.78801 268.872687 
L 386.46303 268.592604 
L 386.138051 267.56142 
L 385.813071 266.495642 
L 385.488092 266.707866 
L 385.163112 266.932731 
L 384.838133 268.114268 
L 384.513153 266.252149 
L 384.188174 267.793603 
L 383.863194 265.818387 
L 383.538215 267.824871 
L 383.213235 268.083665 
L 382.888256 269.267864 
L 382.563276 266.500964 
L 382.238296 268.180796 
L 381.913317 268.168156 
L 381.588337 266.461047 
L 381.263358 267.858801 
L 380.938378 268.386368 
L 380.613399 269.587863 
L 380.288419 270.13805 
L 379.96344 269.977052 
L 379.63846 267.033853 
L 379.313481 267.753021 
L 378.988501 269.790774 
L 378.663522 266.186287 
L 378.338542 267.473604 
L 378.013563 265.684 
L 377.688583 266.999924 
L 377.363604 266.630694 
L 377.038624 266.638012 
L 376.713645 266.219551 
L 376.388665 268.269944 
L 376.063686 265.558262 
L 375.738706 264.801174 
L 375.413726 266.21822 
L 375.088747 265.381963 
L 374.763767 264.510446 
L 374.438788 267.148282 
L 374.113808 266.0519 
L 373.788829 266.702544 
L 373.463849 266.035933 
L 373.13887 268.459548 
L 372.81389 266.922086 
L 372.488911 269.402916 
L 372.163931 267.575391 
L 371.838952 267.577387 
L 371.513972 266.738469 
L 371.188993 267.077097 
L 370.864013 266.452399 
L 370.539034 267.23876 
L 370.214054 268.047075 
L 369.889075 268.09431 
L 369.564095 267.380464 
L 369.239115 267.101712 
L 368.914136 267.899383 
L 368.589156 266.952689 
L 368.264177 265.994686 
L 367.939197 267.444996 
L 367.614218 269.796096 
L 367.289238 268.715016 
L 366.964259 268.218717 
L 366.639279 266.699883 
L 366.3143 268.197428 
L 365.98932 268.336472 
L 365.664341 267.013895 
L 365.339361 267.794934 
L 365.014382 268.341794 
L 364.689402 267.697803 
L 364.364423 267.906701 
L 364.039443 268.494808 
L 363.714464 269.072937 
L 363.389484 267.613978 
L 363.064505 267.448323 
L 362.739525 268.314517 
L 362.414545 268.786866 
L 362.089566 268.693727 
L 361.764586 269.801418 
L 361.439607 268.661128 
L 361.114627 269.290483 
L 360.789648 267.830194 
L 360.464668 268.695058 
L 360.139689 270.154682 
L 359.814709 267.851483 
L 359.48973 267.472938 
L 359.16475 269.396263 
L 358.839771 269.196679 
L 358.514791 268.789527 
L 358.189812 268.48749 
L 357.864832 270.040919 
L 357.539853 268.038426 
L 357.214873 269.145452 
L 356.889894 267.453645 
L 356.564914 268.013146 
L 356.239934 269.836013 
L 355.914955 267.401088 
L 355.589975 267.288656 
L 355.264996 269.272521 
L 354.940016 267.921337 
L 354.615037 269.714267 
L 354.290057 268.400339 
L 353.965078 266.076516 
L 353.640098 267.490236 
L 353.315119 268.687074 
L 352.990139 268.634517 
L 352.66516 269.247905 
L 352.34018 268.800837 
L 352.015201 267.971233 
L 351.690221 266.610735 
L 351.365242 268.065703 
L 351.040262 267.188198 
L 350.715283 267.554768 
L 350.390303 268.058385 
L 350.065324 268.042418 
L 349.740344 269.321086 
L 349.415364 267.177554 
L 349.090385 267.986534 
L 348.765405 266.932731 
L 348.440426 268.152854 
L 348.115446 267.966576 
L 347.790467 266.488989 
L 347.465487 266.980631 
L 347.140508 266.991276 
L 346.815528 268.839423 
L 346.490549 264.622879 
L 346.165569 266.201588 
L 345.84059 265.528325 
L 345.51561 268.742292 
L 345.190631 267.518177 
L 344.865651 265.412566 
L 344.540672 267.558759 
L 344.215692 265.399926 
L 343.890713 264.683419 
L 343.565733 264.900966 
L 343.240753 264.771236 
L 342.915774 266.385205 
L 342.590794 265.528325 
L 342.265815 264.985456 
L 341.940835 267.60666 
L 341.615856 267.113022 
L 341.290876 267.291317 
L 340.965897 269.689651 
L 340.640917 268.080339 
L 340.315938 269.24724 
L 339.990958 268.403 
L 339.665979 269.893892 
L 339.340999 268.24932 
L 339.01602 267.069113 
L 338.69104 267.704456 
L 338.366061 268.820796 
L 338.041081 266.655309 
L 337.716102 269.291814 
L 337.391122 268.502126 
L 337.066143 268.051732 
L 336.741163 269.529319 
L 336.416183 266.558178 
L 336.091204 267.54878 
L 335.766224 268.622542 
L 335.441245 268.09564 
L 335.116265 268.293228 
L 334.791286 268.420297 
L 334.466306 267.609986 
L 334.141327 269.679007 
L 333.816347 265.973397 
L 333.491368 268.504122 
L 333.166388 266.787035 
L 332.841409 268.512106 
L 332.516429 267.206826 
L 332.19145 269.384288 
L 331.86647 268.728322 
L 331.541491 268.079674 
L 331.216511 269.024371 
L 330.891532 267.994518 
L 330.566552 269.956428 
L 330.241572 267.562086 
L 329.916593 269.155431 
L 329.591613 268.34512 
L 329.266634 267.910027 
L 328.941654 267.08508 
L 328.616675 269.649734 
L 328.291695 267.083749 
L 327.966716 268.7709 
L 327.641736 267.600672 
L 327.316757 267.236764 
L 326.991777 268.472854 
L 326.666798 267.860131 
L 326.341818 268.265287 
L 326.016839 269.89988 
L 325.691859 270.049568 
L 325.36688 266.070528 
L 325.0419 263.502547 
L 324.716921 262.748785 
L 324.391941 263.191196 
L 324.066962 265.089905 
L 323.741982 264.077349 
L 323.417002 266.554852 
L 323.092023 261.072945 
L 322.767043 256.645506 
L 322.442064 246.315704 
L 322.117084 247.313624 
L 321.792105 248.282271 
L 321.467125 250.291417 
L 321.142146 247.109383 
L 320.817166 248.505805 
L 320.492187 251.635948 
L 320.167207 246.700901 
L 319.842228 252.587298 
L 319.517248 249.789796 
L 319.192269 248.823809 
L 318.867289 251.160273 
L 318.54231 253.14946 
L 318.21733 255.730746 
L 317.892351 256.930246 
L 317.567371 257.981388 
L 317.242391 259.822884 
L 316.917412 261.444836 
L 316.592432 262.200594 
L 316.267453 263.480593 
L 315.942473 263.68683 
L 315.617494 265.169739 
L 315.292514 263.54446 
L 314.967535 265.62346 
L 314.642555 264.928908 
L 314.317576 266.503625 
L 313.992596 266.750444 
L 313.667617 267.790277 
L 313.342637 267.135641 
L 313.017658 266.142378 
L 312.692678 266.461047 
L 312.367699 265.377972 
L 312.042719 266.258137 
L 311.71774 268.721669 
L 311.39276 267.594019 
L 311.067781 267.455641 
L 310.742801 267.37115 
L 310.417821 267.249404 
L 310.092842 267.421712 
L 309.767862 267.224789 
L 309.442883 267.685163 
L 309.117903 267.645911 
L 308.792924 266.930735 
L 308.467944 268.795515 
L 308.142965 269.46146 
L 307.817985 269.054309 
L 307.493006 268.915265 
L 307.168026 267.967907 
L 306.843047 267.8109 
L 306.518067 268.184788 
L 306.193088 268.418966 
L 305.868108 266.260133 
L 305.543129 267.625287 
L 305.218149 267.652564 
L 304.89317 266.96666 
L 304.56819 266.45639 
L 304.24321 267.991857 
L 303.918231 267.333229 
L 303.593251 267.872772 
L 303.268272 268.440255 
L 302.943292 267.912023 
L 302.618313 267.934643 
L 302.293333 267.148282 
L 301.968354 266.89614 
L 301.643374 268.36907 
L 301.318395 268.615889 
L 300.993415 267.282003 
L 300.668436 266.665288 
L 300.343456 264.15053 
L 300.018477 267.007908 
L 299.693497 268.369736 
L 299.368518 266.601421 
L 299.043538 268.092314 
L 298.718559 266.208241 
L 298.393579 267.415724 
L 298.0686 266.916099 
L 297.74362 266.386536 
L 297.41864 267.271358 
L 297.093661 268.067033 
L 296.768681 266.47901 
L 296.443702 267.071109 
L 296.118722 267.665204 
L 295.793743 266.804997 
L 295.468763 267.625287 
L 295.143784 268.065037 
L 294.818804 269.147448 
L 294.493825 267.755682 
L 294.168845 266.410486 
L 293.843866 267.814892 
L 293.518886 266.890818 
L 293.193907 267.13298 
L 292.868927 267.439674 
L 292.543948 266.874852 
L 292.218968 267.139633 
L 291.893989 266.848906 
L 291.569009 266.977305 
L 291.244029 266.763084 
L 290.91905 265.643418 
L 290.59407 269.476096 
L 290.269091 266.716515 
L 289.944111 266.214894 
L 289.619132 264.629532 
L 289.294152 267.255392 
L 288.969173 267.867449 
L 288.644193 266.397846 
L 288.319214 268.502126 
L 287.994234 265.731235 
L 287.669255 266.50296 
L 287.344275 265.787119 
L 287.019296 266.996598 
L 286.694316 267.38246 
L 286.369337 266.904789 
L 286.044357 266.862876 
L 285.719378 267.011234 
L 285.394398 264.417972 
L 285.069419 265.729905 
L 284.744439 267.056473 
L 284.419459 267.356514 
L 284.09448 267.1077 
L 283.7695 267.1556 
L 283.444521 266.685247 
L 283.119541 266.254145 
L 282.794562 264.246996 
L 282.469582 267.621296 
L 282.144603 266.889488 
L 281.819623 267.741046 
L 281.494644 267.264706 
L 281.169664 266.926743 
L 280.844685 265.685331 
L 280.519705 266.285413 
L 280.194726 264.829781 
L 279.869746 266.836265 
L 279.544767 266.797679 
L 279.219787 263.756019 
L 278.894808 264.897639 
L 278.569828 265.823709 
L 278.244848 266.013979 
L 277.919869 263.31893 
L 277.594889 263.635603 
L 277.26991 265.812399 
L 276.94493 264.201756 
L 276.619951 264.695394 
L 276.294971 264.384043 
L 275.969992 263.529158 
L 275.645012 263.21182 
L 275.320033 263.241757 
L 274.995053 262.151364 
L 274.670074 261.152778 
L 274.345094 260.839431 
L 274.020115 260.603257 
L 273.695135 259.155608 
L 273.370156 258.813654 
L 273.045176 257.292824 
L 272.720197 257.471119 
L 272.395217 255.778646 
L 272.070238 255.054156 
L 271.745258 253.838025 
L 271.420278 252.522101 
L 271.095299 252.030459 
L 270.770319 250.005347 
L 270.44534 249.90755 
L 270.12036 247.700817 
L 269.795381 249.005431 
L 269.470401 249.079277 
L 269.145422 249.676698 
L 268.820442 249.759193 
L 268.495463 251.077778 
L 268.170483 250.234203 
L 267.845504 249.753205 
L 267.520524 250.485679 
L 267.195545 251.379815 
L 266.870565 250.685263 
L 266.545586 251.578734 
L 266.220606 251.713786 
L 265.895627 252.220064 
L 265.570647 252.24734 
L 265.245667 252.738982 
L 264.920688 253.264553 
L 264.595708 251.657902 
L 264.270729 252.977152 
L 263.945749 252.527423 
L 263.62077 253.625135 
L 263.29579 254.506631 
L 262.970811 253.950457 
L 262.645831 254.273783 
L 262.320852 254.058898 
L 261.995872 256.557689 
L 261.670893 256.457897 
L 261.345913 257.027377 
L 261.020934 258.765088 
L 260.695954 259.508206 
L 260.370975 259.716439 
L 260.045995 260.70438 
L 259.721016 259.809578 
L 259.396036 262.579804 
L 259.071057 261.292487 
L 258.746077 261.542632 
L 258.421097 259.45831 
L 258.096118 262.34496 
L 257.771138 262.676935 
L 257.446159 262.734149 
L 257.121179 264.162505 
L 256.7962 257.53299 
L 256.47122 256.604259 
L 256.146241 256.98746 
L 255.821261 256.998105 
L 255.496282 257.481763 
L 255.171302 257.566254 
L 254.846323 257.924174 
L 254.521343 257.825048 
L 254.196364 257.86563 
L 253.871384 258.712531 
L 253.546405 258.677271 
L 253.221425 258.773737 
L 252.896446 258.182303 
L 252.571466 257.789788 
L 252.246486 257.922179 
L 251.921507 257.768499 
L 251.596527 258.309372 
L 251.271548 258.339974 
L 250.946568 257.969413 
L 250.621589 258.60276 
L 250.296609 258.443758 
L 249.97163 258.744465 
L 249.64665 259.019225 
L 249.321671 259.408414 
L 248.996691 259.222136 
L 248.671712 259.539474 
L 248.346732 259.428372 
L 248.021753 258.99461 
L 247.696773 259.205504 
L 247.371794 259.519516 
L 247.046814 259.6233 
L 246.721835 258.916107 
L 246.396855 259.607998 
L 246.071876 259.736397 
L 245.746896 259.896064 
L 245.421916 259.374485 
L 245.096937 258.55619 
L 244.771957 259.674526 
L 244.446978 259.142967 
L 244.121998 260.242675 
L 243.797019 259.774983 
L 243.472039 259.788289 
L 243.14706 259.776979 
L 242.82208 259.346543 
L 242.497101 259.478934 
L 242.172121 259.804921 
L 241.847142 260.249993 
L 241.522162 259.655898 
L 241.197183 259.983216 
L 240.872203 260.261968 
L 240.547224 260.696396 
L 240.222244 260.453569 
L 239.897265 259.688497 
L 239.572285 259.985877 
L 239.247305 258.977313 
L 238.922326 259.918019 
L 238.597346 259.452323 
L 238.272367 260.58596 
L 237.947387 260.268621 
L 237.622408 261.044338 
L 237.297428 260.065711 
L 236.972449 260.01648 
L 236.647469 260.190783 
L 236.32249 260.311864 
L 235.99751 259.926002 
L 235.672531 259.757021 
L 235.347551 260.542716 
L 235.022572 260.019806 
L 234.697592 259.742385 
L 234.372613 258.988622 
L 234.047633 257.646087 
L 233.722654 258.834943 
L 233.397674 258.536897 
L 233.072695 257.074612 
L 232.747715 255.819228 
L 232.422735 255.344219 
L 232.097756 253.592536 
L 231.772776 251.632621 
L 231.447797 250.395201 
L 231.122817 250.16834 
L 230.797838 248.650171 
L 230.472858 247.665557 
L 230.147879 247.348884 
L 229.822899 245.349717 
L 229.49792 243.808263 
L 229.17294 242.002028 
L 228.847961 240.532425 
L 228.522981 236.55405 
L 228.198002 234.155051 
L 227.873022 229.50807 
L 227.548043 225.300174 
L 227.223063 222.317724 
L 226.898084 219.87282 
L 226.573104 216.85644 
L 226.248124 206.799402 
L 225.923145 207.579776 
L 225.598165 206.55591 
L 225.273186 201.948846 
L 224.948206 200.535791 
L 224.623227 199.680241 
L 224.298247 196.041159 
L 223.973268 193.999415 
L 223.648288 193.763241 
L 223.323309 191.911101 
L 222.998329 188.804244 
L 222.67335 183.731484 
L 222.34837 184.683499 
L 222.023391 186.972062 
L 221.698411 189.310522 
L 221.373432 191.428108 
L 221.048452 191.796008 
L 220.723473 191.499293 
L 220.398493 194.125153 
L 220.073514 193.320829 
L 219.748534 197.131553 
L 219.423554 195.910764 
L 219.098575 198.29912 
L 218.773595 198.356334 
L 218.448616 200.850468 
L 218.123636 204.42901 
L 217.798657 205.317158 
L 217.473677 206.994995 
L 217.148698 209.801811 
L 216.823718 213.012452 
L 216.498739 214.04164 
L 216.173759 216.446628 
L 215.84878 219.786998 
L 215.5238 219.733776 
L 215.198821 221.877308 
L 214.873841 223.81926 
L 214.548862 224.811858 
L 214.223882 225.539009 
L 213.898903 226.629403 
L 213.573923 227.802957 
L 213.248943 227.707822 
L 212.923964 228.265992 
L 212.598984 229.295845 
L 212.274005 231.23181 
L 211.949025 231.414097 
L 211.624046 230.806031 
L 211.299066 230.470065 
L 210.974087 230.724867 
L 210.649107 231.958961 
L 210.324128 230.618422 
L 209.999148 231.311644 
L 209.674169 232.440624 
L 209.349189 231.995552 
L 209.02421 232.945572 
L 208.69923 231.80129 
L 208.374251 231.085449 
L 208.049271 231.117382 
L 207.724292 231.438047 
L 207.399312 229.451521 
L 207.074333 236.735672 
L 206.749353 233.616839 
L 206.424373 234.898834 
L 206.099394 235.837544 
L 205.774414 236.894008 
L 205.449435 237.244611 
L 205.124455 241.005439 
L 204.799476 233.884282 
L 204.474496 238.270473 
L 204.149517 238.934422 
L 203.824537 238.52594 
L 203.499558 232.588316 
L 203.174578 231.53917 
L 202.849599 232.500499 
L 202.524619 230.490688 
L 202.19964 228.701085 
L 201.87466 218.351989 
L 201.549681 221.732942 
L 201.224701 216.25037 
L 200.899722 211.74709 
L 200.574742 215.551161 
L 200.249762 214.15873 
L 199.924783 207.837904 
L 199.599803 206.945099 
L 199.274824 204.788261 
L 198.949844 202.674666 
L 198.624865 201.177121 
L 198.299885 199.612382 
L 197.974906 197.721657 
L 197.649926 200.432007 
L 197.324947 199.338952 
L 196.999967 195.704528 
L 196.674988 200.955583 
L 196.350008 194.547606 
L 196.025029 195.800993 
L 195.700049 196.382448 
L 195.37507 196.35251 
L 195.05009 195.265443 
L 194.725111 198.432841 
L 194.400131 198.357664 
L 194.075152 206.468758 
L 193.750172 206.124143 
L 193.425192 208.589671 
L 193.100213 213.005799 
L 192.775233 216.682137 
L 192.450254 220.049119 
L 192.125274 222.712235 
L 191.800295 223.28371 
L 191.475315 222.977016 
L 191.150336 224.275643 
L 190.825356 223.405456 
L 190.500377 224.199135 
L 190.175397 224.137264 
L 189.850418 224.110653 
L 189.525438 224.932274 
L 189.200459 224.119302 
L 188.875479 224.72005 
L 188.5505 224.511152 
L 188.22552 222.947744 
L 187.900541 224.44795 
L 187.575561 223.173939 
L 187.250581 224.332191 
L 186.925602 229.213351 
L 186.600622 232.01418 
L 186.275643 232.461248 
L 185.950663 234.695923 
L 185.625684 235.297336 
L 185.300704 236.531431 
L 184.975725 237.950473 
L 184.650745 241.568931 
L 184.325766 243.886766 
L 184.000786 239.27305 
L 183.675807 240.691427 
L 183.350827 237.249268 
L 183.025848 241.073297 
L 182.700868 241.984066 
L 182.375889 246.516618 
L 182.050909 245.689675 
L 181.72593 246.395537 
L 181.40095 243.898741 
L 181.075971 246.729508 
L 180.750991 244.53741 
L 180.426011 242.288099 
L 180.101032 242.725853 
L 179.776052 241.692673 
L 179.451073 242.948056 
L 179.126093 241.788473 
L 178.801114 238.213259 
L 178.476134 237.430224 
L 178.151155 235.894092 
L 177.826175 232.256341 
L 177.501196 230.704908 
L 177.176216 228.870066 
L 176.851237 227.866824 
L 176.526257 224.952232 
L 176.201278 225.101255 
L 175.876298 217.868996 
L 175.551319 215.462013 
L 175.226339 214.157399 
L 174.90136 208.43466 
L 174.57638 203.203564 
L 174.2514 202.897535 
L 173.926421 201.413295 
L 173.601441 200.749346 
L 173.276462 200.870427 
L 172.951482 202.878242 
L 172.626503 200.3555 
L 172.301523 202.236912 
L 171.976544 201.759241 
L 171.651564 204.150257 
L 171.326585 202.774458 
L 171.001605 205.550006 
L 170.676626 205.971794 
L 170.351646 208.65886 
L 170.026667 208.467924 
L 169.701687 209.892954 
L 169.376708 210.919481 
L 169.051728 214.464758 
L 168.726749 214.101516 
L 168.401769 215.623676 
L 168.07679 218.06858 
L 167.75181 220.453609 
L 167.42683 222.266497 
L 167.101851 223.066829 
L 166.776871 225.453853 
L 166.451892 226.191649 
L 166.126912 225.359384 
L 165.801933 231.456675 
L 165.476953 231.900417 
L 165.151974 229.897259 
L 164.826994 233.403284 
L 164.502015 235.875465 
L 164.177035 236.365776 
L 163.852056 235.992554 
L 163.527076 231.905074 
L 163.202097 236.28062 
L 162.877117 234.752472 
L 162.552138 233.880955 
L 162.227158 235.023241 
L 161.902179 234.428481 
L 161.577199 233.169106 
L 161.252219 232.256341 
L 160.92724 231.389482 
L 160.60226 231.448026 
L 160.277281 231.720126 
L 159.952301 228.760295 
L 159.627322 230.407528 
L 159.302342 229.053684 
L 158.977363 229.364369 
L 158.652383 228.967862 
L 158.327404 227.169611 
L 158.002424 226.641378 
L 157.677445 227.134351 
L 157.352465 227.77302 
L 157.027486 225.467159 
L 156.702506 224.644873 
L 156.377527 222.943752 
L 156.052547 221.444876 
L 155.727568 220.387746 
L 155.402588 217.847707 
L 155.077609 218.03332 
L 154.752629 216.404715 
L 154.427649 211.465011 
L 154.10267 209.968796 
L 153.77769 208.988839 
L 153.452711 207.762728 
L 153.127731 206.517324 
L 152.802752 205.063021 
L 152.477772 203.975289 
L 152.152793 206.257199 
L 151.827813 208.360814 
L 151.502834 205.146847 
L 151.177854 208.632249 
L 150.852875 211.328628 
L 150.527895 218.479058 
L 150.202916 219.616687 
L 149.877936 221.32313 
L 149.552957 224.348158 
L 149.227977 226.326701 
L 148.902998 230.070231 
L 148.578018 231.304326 
L 148.253038 234.725861 
L 147.928059 237.02906 
L 147.603079 238.47804 
L 147.2781 241.215002 
L 146.95312 243.840197 
L 146.628141 246.424144 
L 146.303161 247.130006 
L 145.978182 249.256907 
L 145.653202 251.59337 
L 145.328223 251.493578 
L 145.003243 252.975822 
L 144.678264 254.260477 
L 144.353284 255.266381 
L 144.028305 255.81191 
L 143.703325 256.473864 
L 143.378346 256.89166 
L 143.053366 254.640352 
L 142.728387 255.410747 
L 142.403407 254.892493 
L 142.078428 253.525343 
L 141.753448 253.927172 
L 141.428468 249.655409 
L 141.103489 245.173418 
L 140.778509 238.719537 
L 140.45353 232.103992 
L 140.12855 226.214934 
L 139.803571 225.801795 
L 139.478591 223.85452 
L 139.153612 221.222007 
L 138.828632 221.744252 
L 138.503653 220.250699 
L 138.178673 220.928619 
L 137.853694 221.816102 
L 137.528714 223.203211 
L 137.203735 221.645125 
L 136.878755 222.311071 
L 136.553776 220.636561 
L 136.228796 221.720967 
L 135.903817 221.214689 
L 135.578837 220.97785 
L 135.253857 219.717144 
L 134.928878 222.577848 
L 134.603898 222.140759 
L 134.278919 223.849863 
L 133.953939 232.167194 
L 133.62896 233.690685 
L 133.30398 235.184904 
L 132.979001 242.104481 
L 132.654021 247.171254 
L 132.329042 248.609589 
L 132.004062 249.596199 
L 131.679083 249.12252 
L 131.354103 250.184972 
L 131.029124 250.381895 
L 130.704144 249.604183 
L 130.379165 248.823144 
L 130.054185 249.082603 
L 129.729206 247.75537 
L 129.404226 249.100566 
L 129.079247 248.305556 
L 128.754267 244.872711 
L 128.429287 248.317531 
L 128.104308 245.495413 
L 127.779328 246.545891 
L 127.454349 242.109804 
L 127.129369 243.973918 
L 126.80439 244.152878 
L 126.47941 241.07862 
L 126.154431 239.481282 
L 125.829451 238.410847 
L 125.504472 237.674382 
L 125.179492 236.25534 
L 124.854513 233.217671 
L 124.529533 232.044782 
L 124.204554 234.262826 
L 123.879574 236.762283 
L 123.554595 232.469896 
L 123.229615 234.186319 
L 122.904636 234.243533 
L 122.579656 239.182572 
L 122.254676 235.168937 
L 121.929697 237.50274 
L 121.604717 239.917706 
L 121.279738 240.475876 
L 120.954758 238.313051 
L 120.629779 235.966608 
L 120.304799 235.947315 
L 119.97982 238.653674 
L 119.65484 238.842613 
L 119.329861 241.24494 
L 119.004881 243.745727 
L 118.679902 247.053499 
L 118.354922 251.566759 
L 118.029943 257.622137 
L 117.704963 260.986458 
L 117.379984 258.982635 
L 117.055004 261.849326 
L 116.730025 262.713525 
L 116.405045 262.110116 
L 116.080066 263.306955 
L 115.755086 263.183878 
L 115.430106 265.314105 
L 115.105127 265.602836 
L 114.780147 264.414646 
L 114.455168 265.593522 
L 114.130188 265.946786 
L 113.805209 267.135641 
L 113.480229 264.404667 
L 113.15525 265.06662 
L 112.83027 266.11111 
L 112.505291 265.864956 
L 112.180311 265.580882 
L 111.855332 264.415311 
L 111.530352 265.455809 
L 111.205373 263.897724 
L 110.880393 265.870944 
L 110.555414 265.836349 
L 110.230434 263.154606 
L 109.905455 264.647494 
L 109.580475 265.534312 
L 109.255495 264.13922 
L 108.930516 265.584208 
L 108.605536 263.334231 
L 108.280557 265.644749 
L 107.955577 265.98138 
L 107.630598 264.820467 
L 107.305618 264.404002 
L 106.980639 266.17032 
L 106.655659 264.368742 
L 106.33068 266.108449 
L 106.0057 266.504956 
L 105.680721 264.410654 
L 105.355741 266.006661 
L 105.030762 265.390612 
L 104.705782 265.04134 
L 104.380803 265.463127 
L 104.055823 265.721256 
L 103.730844 266.239509 
L 103.405864 265.770487 
L 103.080885 265.687327 
L 102.755905 266.02795 
L 102.430925 265.143128 
L 102.105946 264.657473 
L 101.780966 264.674771 
L 101.455987 263.983545 
L 101.131007 262.616394 
L 100.806028 262.639679 
L 100.481048 261.547289 
L 100.156069 264.094646 
L 99.831089 262.294399 
L 99.50611 266.21689 
L 99.18113 266.575476 
L 98.856151 270.378216 
L 98.531171 274.54553 
L 98.206192 274.371227 
L 97.881212 278.504611 
L 97.556233 281.510346 
L 97.231253 281.930803 
L 96.906274 281.868267 
L 96.581294 282.577455 
L 96.256314 282.669264 
L 95.931335 283.192839 
L 95.606355 282.860865 
L 95.281376 282.890802 
L 94.956396 282.500283 
L 94.631417 283.615292 
L 94.306437 283.234087 
L 93.981458 283.498203 
L 93.656478 284.074335 
L 93.331499 284.534709 
L 93.006519 283.560739 
L 92.68154 282.594087 
L 92.35656 281.136459 
L 92.031581 281.7086 
L 91.706601 279.910348 
L 91.381622 274.500291 
L 91.056642 273.894221 
L 90.731663 270.597093 
L 90.406683 274.468357 
L 90.081704 274.420457 
L 89.756724 276.402326 
L 89.431744 276.480829 
L 89.106765 275.556756 
L 88.781785 277.76615 
L 88.456806 277.975714 
L 88.131826 278.148686 
L 87.806847 276.217379 
L 87.481867 277.57455 
L 87.156888 278.313676 
L 86.831908 278.787355 
L 86.506929 280.721989 
L 86.181949 279.179205 
L 85.85697 280.068019 
L 85.53199 280.49646 
L 85.207011 280.570306 
L 84.882031 281.255544 
L 84.557052 280.91359 
L 84.232072 281.706604 
L 83.907093 281.660034 
L 83.582113 282.157664 
L 83.257133 281.520325 
L 82.932154 283.006561 
L 82.607174 283.192839 
L 82.282195 282.961987 
L 81.957215 282.952673 
L 81.632236 284.54868 
L 81.307256 284.247308 
L 80.982277 284.131549 
L 80.657297 284.691715 
L 80.332318 284.878659 
L 80.007338 285.215291 
L 79.682359 284.270593 
L 79.357379 285.601818 
L 79.0324 286.407472 
L 78.70742 285.098867 
L 78.382441 288.155828 
L 78.057461 290.484308 
L 77.732482 291.9273 
L 77.407502 295.459272 
L 77.082523 296.483803 
L 76.757543 298.341265 
L 76.432563 299.959226 
L 76.107584 299.929288 
L 75.782604 302.231822 
L 75.457625 302.513901 
L 75.132645 303.787912 
L 74.807666 303.759971 
L 74.482686 304.317475 
L 74.157707 303.012196 
L 73.832727 303.541093 
z
" style="fill:#1f77b4;fill-opacity:0.25;"/>
   </g>
   <g id="matplotlib.axis_1">
    <g id="xtick_1">
     <g id="line2d_1">
      <defs>
       <path d="M 0 0 
L 0 3.5 
" id="maa213969b1" style="stroke:#000000;stroke-width:0.8;"/>
      </defs>
      <g>
       <use style="stroke:#000000;stroke-width:0.8;" x="73.507748" xlink:href="#maa213969b1" y="307.584"/>
      </g>
     </g>
     <g id="text_1">
      <!-- 0 -->
      <g transform="translate(70.326498 322.182437)scale(0.1 -0.1)">
       <defs>
        <path d="M 2034 4250 
Q 1547 4250 1301 3770 
Q 1056 3291 1056 2328 
Q 1056 1369 1301 889 
Q 1547 409 2034 409 
Q 2525 409 2770 889 
Q 3016 1369 3016 2328 
Q 3016 3291 2770 3770 
Q 2525 4250 2034 4250 
z
M 2034 4750 
Q 2819 4750 3233 4129 
Q 3647 3509 3647 2328 
Q 3647 1150 3233 529 
Q 2819 -91 2034 -91 
Q 1250 -91 836 529 
Q 422 1150 422 2328 
Q 422 3509 836 4129 
Q 1250 4750 2034 4750 
z
" id="DejaVuSans-30" transform="scale(0.015625)"/>
       </defs>
       <use xlink:href="#DejaVuSans-30"/>
      </g>
     </g>
    </g>
    <g id="xtick_2">
     <g id="line2d_2">
      <g>
       <use style="stroke:#000000;stroke-width:0.8;" x="138.503653" xlink:href="#maa213969b1" y="307.584"/>
      </g>
     </g>
     <g id="text_2">
      <!-- 200 -->
      <g transform="translate(128.959903 322.182437)scale(0.1 -0.1)">
       <defs>
        <path d="M 1228 531 
L 3431 531 
L 3431 0 
L 469 0 
L 469 531 
Q 828 903 1448 1529 
Q 2069 2156 2228 2338 
Q 2531 2678 2651 2914 
Q 2772 3150 2772 3378 
Q 2772 3750 2511 3984 
Q 2250 4219 1831 4219 
Q 1534 4219 1204 4116 
Q 875 4013 500 3803 
L 500 4441 
Q 881 4594 1212 4672 
Q 1544 4750 1819 4750 
Q 2544 4750 2975 4387 
Q 3406 4025 3406 3419 
Q 3406 3131 3298 2873 
Q 3191 2616 2906 2266 
Q 2828 2175 2409 1742 
Q 1991 1309 1228 531 
z
" id="DejaVuSans-32" transform="scale(0.015625)"/>
       </defs>
       <use xlink:href="#DejaVuSans-32"/>
       <use x="63.623047" xlink:href="#DejaVuSans-30"/>
       <use x="127.246094" xlink:href="#DejaVuSans-30"/>
      </g>
     </g>
    </g>
    <g id="xtick_3">
     <g id="line2d_3">
      <g>
       <use style="stroke:#000000;stroke-width:0.8;" x="203.499558" xlink:href="#maa213969b1" y="307.584"/>
      </g>
     </g>
     <g id="text_3">
      <!-- 400 -->
      <g transform="translate(193.955808 322.182437)scale(0.1 -0.1)">
       <defs>
        <path d="M 2419 4116 
L 825 1625 
L 2419 1625 
L 2419 4116 
z
M 2253 4666 
L 3047 4666 
L 3047 1625 
L 3713 1625 
L 3713 1100 
L 3047 1100 
L 3047 0 
L 2419 0 
L 2419 1100 
L 313 1100 
L 313 1709 
L 2253 4666 
z
" id="DejaVuSans-34" transform="scale(0.015625)"/>
       </defs>
       <use xlink:href="#DejaVuSans-34"/>
       <use x="63.623047" xlink:href="#DejaVuSans-30"/>
       <use x="127.246094" xlink:href="#DejaVuSans-30"/>
      </g>
     </g>
    </g>
    <g id="xtick_4">
     <g id="line2d_4">
      <g>
       <use style="stroke:#000000;stroke-width:0.8;" x="268.495463" xlink:href="#maa213969b1" y="307.584"/>
      </g>
     </g>
     <g id="text_4">
      <!-- 600 -->
      <g transform="translate(258.951713 322.182437)scale(0.1 -0.1)">
       <defs>
        <path d="M 2113 2584 
Q 1688 2584 1439 2293 
Q 1191 2003 1191 1497 
Q 1191 994 1439 701 
Q 1688 409 2113 409 
Q 2538 409 2786 701 
Q 3034 994 3034 1497 
Q 3034 2003 2786 2293 
Q 2538 2584 2113 2584 
z
M 3366 4563 
L 3366 3988 
Q 3128 4100 2886 4159 
Q 2644 4219 2406 4219 
Q 1781 4219 1451 3797 
Q 1122 3375 1075 2522 
Q 1259 2794 1537 2939 
Q 1816 3084 2150 3084 
Q 2853 3084 3261 2657 
Q 3669 2231 3669 1497 
Q 3669 778 3244 343 
Q 2819 -91 2113 -91 
Q 1303 -91 875 529 
Q 447 1150 447 2328 
Q 447 3434 972 4092 
Q 1497 4750 2381 4750 
Q 2619 4750 2861 4703 
Q 3103 4656 3366 4563 
z
" id="DejaVuSans-36" transform="scale(0.015625)"/>
       </defs>
       <use xlink:href="#DejaVuSans-36"/>
       <use x="63.623047" xlink:href="#DejaVuSans-30"/>
       <use x="127.246094" xlink:href="#DejaVuSans-30"/>
      </g>
     </g>
    </g>
    <g id="xtick_5">
     <g id="line2d_5">
      <g>
       <use style="stroke:#000000;stroke-width:0.8;" x="333.491368" xlink:href="#maa213969b1" y="307.584"/>
      </g>
     </g>
     <g id="text_5">
      <!-- 800 -->
      <g transform="translate(323.947618 322.182437)scale(0.1 -0.1)">
       <defs>
        <path d="M 2034 2216 
Q 1584 2216 1326 1975 
Q 1069 1734 1069 1313 
Q 1069 891 1326 650 
Q 1584 409 2034 409 
Q 2484 409 2743 651 
Q 3003 894 3003 1313 
Q 3003 1734 2745 1975 
Q 2488 2216 2034 2216 
z
M 1403 2484 
Q 997 2584 770 2862 
Q 544 3141 544 3541 
Q 544 4100 942 4425 
Q 1341 4750 2034 4750 
Q 2731 4750 3128 4425 
Q 3525 4100 3525 3541 
Q 3525 3141 3298 2862 
Q 3072 2584 2669 2484 
Q 3125 2378 3379 2068 
Q 3634 1759 3634 1313 
Q 3634 634 3220 271 
Q 2806 -91 2034 -91 
Q 1263 -91 848 271 
Q 434 634 434 1313 
Q 434 1759 690 2068 
Q 947 2378 1403 2484 
z
M 1172 3481 
Q 1172 3119 1398 2916 
Q 1625 2713 2034 2713 
Q 2441 2713 2670 2916 
Q 2900 3119 2900 3481 
Q 2900 3844 2670 4047 
Q 2441 4250 2034 4250 
Q 1625 4250 1398 4047 
Q 1172 3844 1172 3481 
z
" id="DejaVuSans-38" transform="scale(0.015625)"/>
       </defs>
       <use xlink:href="#DejaVuSans-38"/>
       <use x="63.623047" xlink:href="#DejaVuSans-30"/>
       <use x="127.246094" xlink:href="#DejaVuSans-30"/>
      </g>
     </g>
    </g>
    <g id="xtick_6">
     <g id="line2d_6">
      <g>
       <use style="stroke:#000000;stroke-width:0.8;" x="398.487273" xlink:href="#maa213969b1" y="307.584"/>
      </g>
     </g>
     <g id="text_6">
      <!-- 1000 -->
      <g transform="translate(385.762273 322.182437)scale(0.1 -0.1)">
       <defs>
        <path d="M 794 531 
L 1825 531 
L 1825 4091 
L 703 3866 
L 703 4441 
L 1819 4666 
L 2450 4666 
L 2450 531 
L 3481 531 
L 3481 0 
L 794 0 
L 794 531 
z
" id="DejaVuSans-31" transform="scale(0.015625)"/>
       </defs>
       <use xlink:href="#DejaVuSans-31"/>
       <use x="63.623047" xlink:href="#DejaVuSans-30"/>
       <use x="127.246094" xlink:href="#DejaVuSans-30"/>
       <use x="190.869141" xlink:href="#DejaVuSans-30"/>
      </g>
     </g>
    </g>
    <g id="text_7">
     <!-- Timestep -->
     <g transform="translate(213.110781 335.860562)scale(0.1 -0.1)">
      <defs>
       <path d="M -19 4666 
L 3928 4666 
L 3928 4134 
L 2272 4134 
L 2272 0 
L 1638 0 
L 1638 4134 
L -19 4134 
L -19 4666 
z
" id="DejaVuSans-54" transform="scale(0.015625)"/>
       <path d="M 603 3500 
L 1178 3500 
L 1178 0 
L 603 0 
L 603 3500 
z
M 603 4863 
L 1178 4863 
L 1178 4134 
L 603 4134 
L 603 4863 
z
" id="DejaVuSans-69" transform="scale(0.015625)"/>
       <path d="M 3328 2828 
Q 3544 3216 3844 3400 
Q 4144 3584 4550 3584 
Q 5097 3584 5394 3201 
Q 5691 2819 5691 2113 
L 5691 0 
L 5113 0 
L 5113 2094 
Q 5113 2597 4934 2840 
Q 4756 3084 4391 3084 
Q 3944 3084 3684 2787 
Q 3425 2491 3425 1978 
L 3425 0 
L 2847 0 
L 2847 2094 
Q 2847 2600 2669 2842 
Q 2491 3084 2119 3084 
Q 1678 3084 1418 2786 
Q 1159 2488 1159 1978 
L 1159 0 
L 581 0 
L 581 3500 
L 1159 3500 
L 1159 2956 
Q 1356 3278 1631 3431 
Q 1906 3584 2284 3584 
Q 2666 3584 2933 3390 
Q 3200 3197 3328 2828 
z
" id="DejaVuSans-6d" transform="scale(0.015625)"/>
       <path d="M 3597 1894 
L 3597 1613 
L 953 1613 
Q 991 1019 1311 708 
Q 1631 397 2203 397 
Q 2534 397 2845 478 
Q 3156 559 3463 722 
L 3463 178 
Q 3153 47 2828 -22 
Q 2503 -91 2169 -91 
Q 1331 -91 842 396 
Q 353 884 353 1716 
Q 353 2575 817 3079 
Q 1281 3584 2069 3584 
Q 2775 3584 3186 3129 
Q 3597 2675 3597 1894 
z
M 3022 2063 
Q 3016 2534 2758 2815 
Q 2500 3097 2075 3097 
Q 1594 3097 1305 2825 
Q 1016 2553 972 2059 
L 3022 2063 
z
" id="DejaVuSans-65" transform="scale(0.015625)"/>
       <path d="M 2834 3397 
L 2834 2853 
Q 2591 2978 2328 3040 
Q 2066 3103 1784 3103 
Q 1356 3103 1142 2972 
Q 928 2841 928 2578 
Q 928 2378 1081 2264 
Q 1234 2150 1697 2047 
L 1894 2003 
Q 2506 1872 2764 1633 
Q 3022 1394 3022 966 
Q 3022 478 2636 193 
Q 2250 -91 1575 -91 
Q 1294 -91 989 -36 
Q 684 19 347 128 
L 347 722 
Q 666 556 975 473 
Q 1284 391 1588 391 
Q 1994 391 2212 530 
Q 2431 669 2431 922 
Q 2431 1156 2273 1281 
Q 2116 1406 1581 1522 
L 1381 1569 
Q 847 1681 609 1914 
Q 372 2147 372 2553 
Q 372 3047 722 3315 
Q 1072 3584 1716 3584 
Q 2034 3584 2315 3537 
Q 2597 3491 2834 3397 
z
" id="DejaVuSans-73" transform="scale(0.015625)"/>
       <path d="M 1172 4494 
L 1172 3500 
L 2356 3500 
L 2356 3053 
L 1172 3053 
L 1172 1153 
Q 1172 725 1289 603 
Q 1406 481 1766 481 
L 2356 481 
L 2356 0 
L 1766 0 
Q 1100 0 847 248 
Q 594 497 594 1153 
L 594 3053 
L 172 3053 
L 172 3500 
L 594 3500 
L 594 4494 
L 1172 4494 
z
" id="DejaVuSans-74" transform="scale(0.015625)"/>
       <path d="M 1159 525 
L 1159 -1331 
L 581 -1331 
L 581 3500 
L 1159 3500 
L 1159 2969 
Q 1341 3281 1617 3432 
Q 1894 3584 2278 3584 
Q 2916 3584 3314 3078 
Q 3713 2572 3713 1747 
Q 3713 922 3314 415 
Q 2916 -91 2278 -91 
Q 1894 -91 1617 61 
Q 1341 213 1159 525 
z
M 3116 1747 
Q 3116 2381 2855 2742 
Q 2594 3103 2138 3103 
Q 1681 3103 1420 2742 
Q 1159 2381 1159 1747 
Q 1159 1113 1420 752 
Q 1681 391 2138 391 
Q 2594 391 2855 752 
Q 3116 1113 3116 1747 
z
" id="DejaVuSans-70" transform="scale(0.015625)"/>
      </defs>
      <use xlink:href="#DejaVuSans-54"/>
      <use x="57.958984" xlink:href="#DejaVuSans-69"/>
      <use x="85.742188" xlink:href="#DejaVuSans-6d"/>
      <use x="183.154297" xlink:href="#DejaVuSans-65"/>
      <use x="244.677734" xlink:href="#DejaVuSans-73"/>
      <use x="296.777344" xlink:href="#DejaVuSans-74"/>
      <use x="335.986328" xlink:href="#DejaVuSans-65"/>
      <use x="397.509766" xlink:href="#DejaVuSans-70"/>
     </g>
    </g>
   </g>
   <g id="matplotlib.axis_2">
    <g id="ytick_1">
     <g id="line2d_7">
      <defs>
       <path d="M 0 0 
L -3.5 0 
" id="mdb0c06a272" style="stroke:#000000;stroke-width:0.8;"/>
      </defs>
      <g>
       <use style="stroke:#000000;stroke-width:0.8;" x="57.6" xlink:href="#mdb0c06a272" y="307.584"/>
      </g>
     </g>
     <g id="text_8">
      <!-- 0 -->
      <g transform="translate(44.2375 311.383219)scale(0.1 -0.1)">
       <use xlink:href="#DejaVuSans-30"/>
      </g>
     </g>
    </g>
    <g id="ytick_2">
     <g id="line2d_8">
      <g>
       <use style="stroke:#000000;stroke-width:0.8;" x="57.6" xlink:href="#mdb0c06a272" y="254.3616"/>
      </g>
     </g>
     <g id="text_9">
      <!-- 200 -->
      <g transform="translate(31.5125 258.160819)scale(0.1 -0.1)">
       <use xlink:href="#DejaVuSans-32"/>
       <use x="63.623047" xlink:href="#DejaVuSans-30"/>
       <use x="127.246094" xlink:href="#DejaVuSans-30"/>
      </g>
     </g>
    </g>
    <g id="ytick_3">
     <g id="line2d_9">
      <g>
       <use style="stroke:#000000;stroke-width:0.8;" x="57.6" xlink:href="#mdb0c06a272" y="201.1392"/>
      </g>
     </g>
     <g id="text_10">
      <!-- 400 -->
      <g transform="translate(31.5125 204.938419)scale(0.1 -0.1)">
       <use xlink:href="#DejaVuSans-34"/>
       <use x="63.623047" xlink:href="#DejaVuSans-30"/>
       <use x="127.246094" xlink:href="#DejaVuSans-30"/>
      </g>
     </g>
    </g>
    <g id="ytick_4">
     <g id="line2d_10">
      <g>
       <use style="stroke:#000000;stroke-width:0.8;" x="57.6" xlink:href="#mdb0c06a272" y="147.9168"/>
      </g>
     </g>
     <g id="text_11">
      <!-- 600 -->
      <g transform="translate(31.5125 151.716019)scale(0.1 -0.1)">
       <use xlink:href="#DejaVuSans-36"/>
       <use x="63.623047" xlink:href="#DejaVuSans-30"/>
       <use x="127.246094" xlink:href="#DejaVuSans-30"/>
      </g>
     </g>
    </g>
    <g id="ytick_5">
     <g id="line2d_11">
      <g>
       <use style="stroke:#000000;stroke-width:0.8;" x="57.6" xlink:href="#mdb0c06a272" y="94.6944"/>
      </g>
     </g>
     <g id="text_12">
      <!-- 800 -->
      <g transform="translate(31.5125 98.493619)scale(0.1 -0.1)">
       <use xlink:href="#DejaVuSans-38"/>
       <use x="63.623047" xlink:href="#DejaVuSans-30"/>
       <use x="127.246094" xlink:href="#DejaVuSans-30"/>
      </g>
     </g>
    </g>
    <g id="ytick_6">
     <g id="line2d_12">
      <g>
       <use style="stroke:#000000;stroke-width:0.8;" x="57.6" xlink:href="#mdb0c06a272" y="41.472"/>
      </g>
     </g>
     <g id="text_13">
      <!-- 1000 -->
      <g transform="translate(25.15 45.271219)scale(0.1 -0.1)">
       <use xlink:href="#DejaVuSans-31"/>
       <use x="63.623047" xlink:href="#DejaVuSans-30"/>
       <use x="127.246094" xlink:href="#DejaVuSans-30"/>
       <use x="190.869141" xlink:href="#DejaVuSans-30"/>
      </g>
     </g>
    </g>
    <g id="text_14">
     <!-- Reward -->
     <g transform="translate(19.070312 193.149094)rotate(-90)scale(0.1 -0.1)">
      <defs>
       <path d="M 2841 2188 
Q 3044 2119 3236 1894 
Q 3428 1669 3622 1275 
L 4263 0 
L 3584 0 
L 2988 1197 
Q 2756 1666 2539 1819 
Q 2322 1972 1947 1972 
L 1259 1972 
L 1259 0 
L 628 0 
L 628 4666 
L 2053 4666 
Q 2853 4666 3247 4331 
Q 3641 3997 3641 3322 
Q 3641 2881 3436 2590 
Q 3231 2300 2841 2188 
z
M 1259 4147 
L 1259 2491 
L 2053 2491 
Q 2509 2491 2742 2702 
Q 2975 2913 2975 3322 
Q 2975 3731 2742 3939 
Q 2509 4147 2053 4147 
L 1259 4147 
z
" id="DejaVuSans-52" transform="scale(0.015625)"/>
       <path d="M 269 3500 
L 844 3500 
L 1563 769 
L 2278 3500 
L 2956 3500 
L 3675 769 
L 4391 3500 
L 4966 3500 
L 4050 0 
L 3372 0 
L 2619 2869 
L 1863 0 
L 1184 0 
L 269 3500 
z
" id="DejaVuSans-77" transform="scale(0.015625)"/>
       <path d="M 2194 1759 
Q 1497 1759 1228 1600 
Q 959 1441 959 1056 
Q 959 750 1161 570 
Q 1363 391 1709 391 
Q 2188 391 2477 730 
Q 2766 1069 2766 1631 
L 2766 1759 
L 2194 1759 
z
M 3341 1997 
L 3341 0 
L 2766 0 
L 2766 531 
Q 2569 213 2275 61 
Q 1981 -91 1556 -91 
Q 1019 -91 701 211 
Q 384 513 384 1019 
Q 384 1609 779 1909 
Q 1175 2209 1959 2209 
L 2766 2209 
L 2766 2266 
Q 2766 2663 2505 2880 
Q 2244 3097 1772 3097 
Q 1472 3097 1187 3025 
Q 903 2953 641 2809 
L 641 3341 
Q 956 3463 1253 3523 
Q 1550 3584 1831 3584 
Q 2591 3584 2966 3190 
Q 3341 2797 3341 1997 
z
" id="DejaVuSans-61" transform="scale(0.015625)"/>
       <path d="M 2631 2963 
Q 2534 3019 2420 3045 
Q 2306 3072 2169 3072 
Q 1681 3072 1420 2755 
Q 1159 2438 1159 1844 
L 1159 0 
L 581 0 
L 581 3500 
L 1159 3500 
L 1159 2956 
Q 1341 3275 1631 3429 
Q 1922 3584 2338 3584 
Q 2397 3584 2469 3576 
Q 2541 3569 2628 3553 
L 2631 2963 
z
" id="DejaVuSans-72" transform="scale(0.015625)"/>
       <path d="M 2906 2969 
L 2906 4863 
L 3481 4863 
L 3481 0 
L 2906 0 
L 2906 525 
Q 2725 213 2448 61 
Q 2172 -91 1784 -91 
Q 1150 -91 751 415 
Q 353 922 353 1747 
Q 353 2572 751 3078 
Q 1150 3584 1784 3584 
Q 2172 3584 2448 3432 
Q 2725 3281 2906 2969 
z
M 947 1747 
Q 947 1113 1208 752 
Q 1469 391 1925 391 
Q 2381 391 2643 752 
Q 2906 1113 2906 1747 
Q 2906 2381 2643 2742 
Q 2381 3103 1925 3103 
Q 1469 3103 1208 2742 
Q 947 2381 947 1747 
z
" id="DejaVuSans-64" transform="scale(0.015625)"/>
      </defs>
      <use xlink:href="#DejaVuSans-52"/>
      <use x="64.982422" xlink:href="#DejaVuSans-65"/>
      <use x="126.505859" xlink:href="#DejaVuSans-77"/>
      <use x="208.292969" xlink:href="#DejaVuSans-61"/>
      <use x="269.572266" xlink:href="#DejaVuSans-72"/>
      <use x="308.935547" xlink:href="#DejaVuSans-64"/>
     </g>
    </g>
   </g>
   <g id="line2d_13">
    <path clip-path="url(#p59bd3e9446)" d="M 73.832727 304.16313 
L 74.157707 304.018099 
L 74.482686 304.497101 
L 74.807666 304.533026 
L 75.132645 304.976102 
L 75.457625 304.571612 
L 75.782604 304.912236 
L 76.107584 303.982174 
L 76.432563 304.844377 
L 76.757543 304.604876 
L 77.407502 303.465917 
L 77.732482 304.313484 
L 78.057461 304.250947 
L 78.382441 303.464586 
L 78.70742 304.37735 
L 79.0324 304.236311 
L 79.357379 304.344086 
L 79.682359 303.757309 
L 80.007338 304.125875 
L 82.607174 304.042049 
L 82.932154 304.159139 
L 83.257133 303.966207 
L 83.582113 303.963546 
L 83.907093 304.119222 
L 84.232072 303.999471 
L 84.557052 304.096602 
L 84.882031 303.90101 
L 85.207011 304.014108 
L 85.85697 303.644212 
L 86.181949 303.726707 
L 86.831908 302.646292 
L 87.481867 301.556563 
L 88.131826 298.69719 
L 88.456806 297.989332 
L 88.781785 297.592825 
L 89.106765 295.65553 
L 89.431744 296.106589 
L 90.081704 292.849379 
L 90.731663 292.150835 
L 91.381622 290.162978 
L 91.706601 289.770463 
L 92.031581 288.236327 
L 92.35656 288.394664 
L 92.68154 287.918323 
L 93.006519 289.239569 
L 93.331499 289.625432 
L 93.981458 287.737367 
L 94.631417 288.309508 
L 94.956396 287.416702 
L 95.281376 288.546348 
L 95.606355 288.121899 
L 95.931335 286.993584 
L 96.256314 286.932378 
L 96.581294 287.455288 
L 97.231253 285.042983 
L 97.556233 284.635832 
L 98.206192 285.65238 
L 98.531171 284.158161 
L 99.18113 284.208722 
L 99.50611 284.534709 
L 99.831089 283.991841 
L 100.156069 284.605229 
L 100.481048 284.126227 
L 100.806028 283.346519 
L 101.455987 283.27866 
L 101.780966 282.950012 
L 102.105946 282.993921 
L 102.430925 283.556748 
L 102.755905 283.224108 
L 103.080885 283.524814 
L 103.405864 282.919409 
L 104.055823 283.152257 
L 104.380803 282.484316 
L 104.705782 282.532216 
L 105.030762 282.7318 
L 105.355741 281.606147 
L 105.680721 281.737872 
L 106.0057 282.393838 
L 106.33068 281.04332 
L 106.980639 282.200907 
L 107.305618 281.40124 
L 107.630598 281.454463 
L 107.955577 281.723236 
L 108.280557 280.576293 
L 108.605536 281.075253 
L 108.930516 280.352759 
L 109.255495 280.025441 
L 109.580475 280.492468 
L 109.905455 280.155836 
L 110.230434 280.33147 
L 110.555414 279.623612 
L 110.880393 279.502531 
L 111.205373 278.886482 
L 111.530352 278.873176 
L 112.180311 279.306939 
L 113.15525 277.593178 
L 113.480229 278.886482 
L 113.805209 277.558583 
L 114.130188 276.965153 
L 114.455168 277.853967 
L 114.780147 276.669769 
L 115.105127 277.436172 
L 115.430106 276.805486 
L 115.755086 276.498127 
L 116.080066 275.605321 
L 116.405045 275.1995 
L 116.730025 276.697711 
L 117.055004 275.961911 
L 117.379984 276.19742 
L 117.704963 275.180872 
L 118.029943 276.353096 
L 118.354922 274.351933 
L 118.679902 276.652472 
L 119.329861 273.431186 
L 119.65484 276.138876 
L 119.97982 275.838169 
L 120.304799 274.779043 
L 120.629779 275.593346 
L 120.954758 272.868359 
L 121.279738 275.039833 
L 121.604717 274.252141 
L 121.929697 275.155592 
L 122.254676 275.078419 
L 122.579656 273.661373 
L 122.904636 272.760584 
L 123.229615 274.301372 
L 123.879574 273.240916 
L 124.204554 274.901455 
L 124.529533 271.9689 
L 124.854513 272.654139 
L 125.179492 271.901042 
L 125.504472 272.405324 
L 125.829451 271.44599 
L 126.154431 273.348691 
L 126.47941 272.580958 
L 126.80439 269.215972 
L 127.129369 269.772146 
L 127.454349 268.541378 
L 127.779328 266.641338 
L 128.104308 269.499381 
L 128.429287 269.871938 
L 128.754267 269.580545 
L 129.079247 270.180628 
L 129.404226 267.390444 
L 129.729206 266.090486 
L 130.054185 266.424457 
L 130.704144 268.847407 
L 131.029124 264.020135 
L 131.354103 264.55502 
L 131.679083 262.658972 
L 132.004062 262.34496 
L 132.329042 261.10887 
L 132.654021 263.32026 
L 132.979001 262.44076 
L 133.30398 264.543045 
L 133.62896 263.369491 
L 133.953939 263.495894 
L 134.278919 264.782546 
L 134.603898 264.734646 
L 134.928878 264.847743 
L 135.253857 265.145789 
L 135.578837 264.060052 
L 135.903817 264.896974 
L 136.228796 264.03078 
L 136.553776 265.850986 
L 136.878755 265.168408 
L 137.203735 265.900216 
L 137.528714 266.078511 
L 137.853694 265.193689 
L 138.178673 267.487574 
L 138.503653 267.23876 
L 138.828632 268.742292 
L 139.478591 265.463793 
L 139.803571 267.132315 
L 140.12855 265.781796 
L 140.45353 268.923249 
L 140.778509 266.879508 
L 141.103489 268.147532 
L 141.428468 266.33664 
L 141.753448 267.301296 
L 142.078428 271.158589 
L 143.053366 274.745779 
L 143.378346 274.314678 
L 143.703325 275.101039 
L 144.028305 274.966652 
L 144.353284 273.477756 
L 144.678264 273.657381 
L 145.003243 274.709854 
L 145.653202 274.892141 
L 145.978182 273.073265 
L 146.303161 273.870271 
L 146.628141 273.742537 
L 146.95312 274.681912 
L 147.2781 273.415219 
L 147.603079 273.300791 
L 147.928059 274.886819 
L 148.253038 273.761165 
L 148.578018 273.948774 
L 148.902998 273.743868 
L 149.227977 274.999916 
L 149.552957 273.922163 
L 149.877936 274.262786 
L 150.202916 273.958088 
L 150.527895 274.298711 
L 150.852875 273.040001 
L 151.177854 273.770479 
L 151.502834 273.500375 
L 151.827813 272.933556 
L 152.152793 272.886987 
L 152.477772 273.231602 
L 152.802752 274.121747 
L 153.127731 273.359336 
L 153.452711 274.925405 
L 154.10267 273.566903 
L 154.427649 274.574137 
L 155.077609 273.354013 
L 155.402588 272.771228 
L 155.727568 273.935468 
L 156.377527 273.827693 
L 156.702506 273.585531 
L 157.027486 273.770479 
L 157.352465 273.757173 
L 157.677445 274.109772 
L 158.002424 275.196839 
L 158.327404 274.24948 
L 158.652383 272.639503 
L 158.977363 274.250811 
L 159.302342 273.650728 
L 159.627322 273.385947 
L 159.952301 273.883576 
L 160.277281 273.145116 
L 160.60226 273.480417 
L 160.92724 274.963991 
L 161.252219 273.883576 
L 161.577199 274.208233 
L 161.902179 272.572975 
L 162.227158 273.617464 
L 162.552138 273.437839 
L 162.877117 272.224368 
L 163.202097 273.745198 
L 163.527076 272.82312 
L 163.852056 273.170396 
L 164.177035 273.115843 
L 164.502015 273.578878 
L 164.826994 273.74919 
L 165.151974 273.055968 
L 165.476953 273.926154 
L 165.801933 273.383286 
L 166.126912 273.170396 
L 166.451892 272.262954 
L 166.776871 273.483078 
L 167.101851 273.509689 
L 167.42683 273.879585 
L 168.07679 273.022704 
L 168.401769 272.288235 
L 168.726749 272.938879 
L 169.051728 272.353432 
L 169.376708 272.788525 
L 169.701687 272.958837 
L 170.026667 272.46786 
L 170.351646 273.284824 
L 170.676626 272.648817 
L 171.326585 273.122496 
L 171.651564 272.720667 
L 172.301523 273.004076 
L 172.626503 272.674097 
L 172.951482 271.378132 
L 173.601441 273.311436 
L 173.926421 271.964909 
L 174.90136 272.244326 
L 175.226339 270.811313 
L 175.551319 273.153099 
L 175.876298 271.673516 
L 176.201278 270.730149 
L 176.526257 272.254971 
L 176.851237 271.712102 
L 177.176216 272.937548 
L 177.501196 272.421291 
L 177.826175 273.054637 
L 178.151155 270.643663 
L 178.476134 272.270938 
L 178.801114 271.551105 
L 179.451073 271.915678 
L 179.776052 271.750689 
L 180.101032 272.636842 
L 180.750991 271.835844 
L 181.075971 271.859795 
L 181.40095 271.46861 
L 181.72593 271.306282 
L 182.050909 271.306282 
L 182.375889 269.647073 
L 182.700868 270.772727 
L 183.025848 270.813974 
L 183.350827 272.136551 
L 183.675807 272.242996 
L 184.000786 270.939047 
L 184.325766 272.027445 
L 184.650745 271.917009 
L 184.975725 270.635679 
L 185.300704 271.684161 
L 185.625684 271.942289 
L 185.950663 270.082166 
L 186.275643 271.512518 
L 186.600622 270.73148 
L 186.925602 271.748028 
L 187.250581 270.563829 
L 187.900541 270.334973 
L 188.22552 270.481334 
L 188.5505 270.829941 
L 189.200459 270.642332 
L 189.525438 270.04225 
L 189.850418 271.048153 
L 190.175397 270.162 
L 190.500377 270.173975 
L 190.825356 271.062789 
L 191.150336 271.306282 
L 191.475315 270.193933 
L 191.800295 270.428112 
L 192.125274 269.893227 
L 192.775233 270.442748 
L 193.100213 270.8499 
L 193.425192 270.634349 
L 194.400131 268.325827 
L 194.725111 269.765493 
L 195.05009 270.199256 
L 195.700049 270.573143 
L 196.025029 269.524662 
L 196.350008 270.326989 
L 196.674988 269.455473 
L 197.324947 270.212561 
L 197.649926 270.071522 
L 197.974906 270.495971 
L 198.949844 266.451068 
L 199.274824 267.079092 
L 199.599803 266.900797 
L 199.924783 262.575147 
L 200.249762 264.395353 
L 200.574742 264.900966 
L 200.899722 263.626289 
L 201.224701 265.459801 
L 201.549681 264.580301 
L 201.87466 264.799843 
L 202.19964 266.325996 
L 202.524619 266.412482 
L 202.849599 266.327326 
L 203.499558 268.083665 
L 203.824537 266.848906 
L 204.474496 266.065206 
L 204.799476 266.610735 
L 205.124455 264.922255 
L 205.449435 264.378056 
L 205.774414 266.59876 
L 206.099394 263.205832 
L 206.749353 265.109864 
L 207.074333 264.565665 
L 207.399312 262.097476 
L 207.724292 265.156433 
L 208.049271 264.161174 
L 208.374251 263.816559 
L 208.69923 263.807245 
L 209.349189 265.850986 
L 209.674169 266.472357 
L 209.999148 266.114436 
L 210.324128 265.352026 
L 210.649107 266.723833 
L 210.974087 266.025289 
L 211.299066 266.476349 
L 211.624046 264.970155 
L 211.949025 265.866952 
L 212.274005 264.789199 
L 212.598984 265.571568 
L 212.923964 262.780053 
L 213.248943 263.731404 
L 213.573923 263.968243 
L 213.898903 260.790866 
L 214.223882 261.621135 
L 214.548862 260.06305 
L 214.873841 259.42172 
L 215.5238 255.737399 
L 215.84878 255.729416 
L 216.173759 257.16642 
L 216.498739 257.397938 
L 216.823718 253.432869 
L 217.148698 255.803927 
L 217.473677 255.505882 
L 217.798657 254.448086 
L 218.123636 255.859811 
L 218.448616 255.005591 
L 218.773595 256.490496 
L 219.098575 255.117358 
L 219.423554 256.392035 
L 219.748534 255.873116 
L 220.073514 256.070039 
L 220.398493 254.968335 
L 220.723473 256.360101 
L 221.048452 256.95087 
L 221.373432 255.814572 
L 221.698411 255.149292 
L 222.023391 255.532493 
L 222.34837 256.151203 
L 222.67335 257.928831 
L 222.998329 256.26164 
L 223.323309 255.963594 
L 223.648288 258.097812 
L 223.973268 256.724675 
L 224.298247 257.131826 
L 224.623227 256.606255 
L 224.948206 256.676774 
L 225.273186 258.684589 
L 225.598165 258.065879 
L 225.923145 263.398764 
L 226.248124 266.424457 
L 226.573104 265.026038 
L 226.898084 266.843583 
L 227.223063 267.389113 
L 227.548043 267.047159 
L 227.873022 267.729736 
L 228.198002 267.502211 
L 228.522981 269.3783 
L 229.17294 267.945287 
L 229.49792 268.150193 
L 229.822899 268.650484 
L 230.147879 270.691563 
L 230.472858 270.239172 
L 230.797838 269.082916 
L 231.122817 269.035016 
L 231.447797 267.68982 
L 231.772776 270.462707 
L 232.097756 267.95327 
L 232.422735 269.02038 
L 232.747715 269.274516 
L 233.072695 269.349028 
L 233.397674 268.651814 
L 233.722654 268.707698 
L 234.047633 269.152105 
L 234.372613 269.004413 
L 234.697592 272.249649 
L 235.022572 269.802749 
L 235.347551 270.743455 
L 235.672531 271.246406 
L 235.99751 271.295637 
L 236.647469 271.728069 
L 236.972449 272.478505 
L 237.297428 272.729981 
L 237.947387 272.784534 
L 238.272367 273.404575 
L 238.597346 272.37206 
L 238.922326 273.244908 
L 239.572285 273.315427 
L 239.897265 274.217547 
L 240.222244 274.250811 
L 240.547224 274.622037 
L 240.872203 274.81896 
L 241.197183 274.385197 
L 241.522162 274.645987 
L 241.847142 275.259375 
L 242.172121 274.664615 
L 242.497101 274.971974 
L 242.82208 275.445654 
L 243.14706 275.621288 
L 243.472039 275.054469 
L 244.121998 275.760996 
L 244.446978 275.262036 
L 244.771957 275.790269 
L 245.421916 275.216797 
L 245.746896 276.184115 
L 246.071876 276.059042 
L 246.396855 276.355757 
L 246.721835 275.328564 
L 247.046814 275.844822 
L 247.371794 275.933969 
L 247.696773 275.224781 
L 248.021753 275.395092 
L 248.346732 275.296631 
L 248.671712 276.319832 
L 249.321671 275.516173 
L 249.64665 275.549437 
L 249.97163 275.931308 
L 250.296609 274.784365 
L 250.621589 274.208233 
L 250.946568 276.008481 
L 251.271548 275.81688 
L 251.596527 274.926735 
L 251.921507 276.194759 
L 252.246486 275.691807 
L 252.571466 274.793679 
L 252.896446 274.749771 
L 253.221425 275.351184 
L 253.546405 274.161663 
L 253.871384 274.407817 
L 254.196364 275.091725 
L 254.521343 274.241497 
L 254.846323 272.427944 
L 255.171302 272.338796 
L 255.821261 268.682417 
L 256.146241 268.810151 
L 256.7962 267.338552 
L 257.121179 269.571231 
L 257.446159 269.718924 
L 257.771138 272.200418 
L 258.096118 272.876342 
L 258.746077 272.990771 
L 259.071057 273.600167 
L 259.721016 273.777132 
L 260.045995 274.10578 
L 260.370975 274.023285 
L 260.695954 273.359336 
L 261.020934 274.921413 
L 261.345913 274.504948 
L 261.670893 273.246238 
L 261.995872 274.149688 
L 262.320852 273.785115 
L 262.645831 273.733223 
L 262.970811 272.920251 
L 263.29579 273.364658 
L 263.62077 273.55892 
L 263.945749 273.475094 
L 264.270729 273.962079 
L 264.595708 272.974804 
L 264.920688 273.376633 
L 265.245667 272.743286 
L 265.570647 273.602828 
L 265.895627 272.913598 
L 266.220606 273.453805 
L 266.545586 272.650147 
L 267.195545 272.145865 
L 267.520524 272.914929 
L 267.845504 272.694056 
L 268.170483 272.94287 
L 268.495463 273.55892 
L 268.820442 272.737964 
L 269.145422 272.977465 
L 269.470401 271.921 
L 269.795381 272.46786 
L 270.12036 272.000834 
L 270.770319 272.385366 
L 271.095299 271.980876 
L 271.420278 272.620875 
L 272.395217 271.685491 
L 272.720197 272.290896 
L 273.695135 271.818547 
L 274.020115 272.128568 
L 274.345094 271.024203 
L 274.670074 271.84782 
L 274.995053 271.91967 
L 275.320033 271.370148 
L 275.645012 269.756179 
L 275.969992 270.959005 
L 276.294971 270.820627 
L 276.619951 270.082166 
L 277.26991 270.730149 
L 277.594889 269.462125 
L 277.919869 269.669693 
L 278.244848 269.697635 
L 278.569828 269.555265 
L 279.219787 269.452812 
L 279.544767 270.01963 
L 279.869746 269.716262 
L 280.194726 270.658299 
L 280.519705 270.699546 
L 281.169664 271.20649 
L 281.494644 271.946281 
L 281.819623 273.098546 
L 282.469582 273.594845 
L 282.794562 274.844241 
L 283.119541 275.196839 
L 283.444521 274.752432 
L 283.7695 275.730394 
L 284.09448 275.442993 
L 284.419459 276.019125 
L 284.744439 275.923325 
L 285.069419 276.358418 
L 285.394398 276.056381 
L 285.719378 276.325154 
L 286.044357 276.375715 
L 286.369337 276.949187 
L 286.694316 276.770892 
L 287.019296 276.424946 
L 287.669255 277.00374 
L 287.994234 277.305777 
L 288.319214 276.906609 
L 288.969173 277.397585 
L 289.619132 277.329727 
L 289.944111 277.152762 
L 290.269091 276.484821 
L 290.59407 277.12349 
L 290.91905 277.074259 
L 291.893989 277.569228 
L 292.218968 277.225943 
L 292.543948 277.449477 
L 292.868927 277.529311 
L 293.193907 276.681744 
L 293.518886 277.696961 
L 293.843866 276.676422 
L 294.168845 276.516755 
L 294.493825 276.813469 
L 295.143784 277.082243 
L 295.468763 276.967814 
L 295.793743 277.118168 
L 296.118722 277.078251 
L 296.443702 277.251224 
L 296.768681 277.102201 
L 297.093661 277.691639 
L 297.41864 277.587855 
L 297.74362 276.927898 
L 298.0686 276.719 
L 298.393579 276.746941 
L 298.718559 277.17139 
L 299.043538 277.252554 
L 299.368518 276.471516 
L 299.693497 276.979789 
L 300.018477 276.329146 
L 300.343456 277.362991 
L 300.668436 277.303116 
L 300.993415 276.697711 
L 301.318395 277.339041 
L 301.643374 276.120248 
L 301.968354 277.590516 
L 302.293333 276.88665 
L 302.618313 276.961162 
L 302.943292 276.439582 
L 303.268272 277.728895 
L 303.593251 276.977128 
L 303.918231 276.55401 
L 304.24321 276.997087 
L 304.56819 276.90927 
L 305.218149 277.17006 
L 305.543129 277.05297 
L 305.868108 277.136796 
L 306.193088 276.687066 
L 306.518067 276.74295 
L 306.843047 276.949187 
L 307.168026 275.915341 
L 307.493006 276.953178 
L 307.817985 276.369062 
L 308.142965 276.184115 
L 308.467944 276.994426 
L 308.792924 276.247981 
L 309.117903 275.969894 
L 309.442883 276.555341 
L 309.767862 275.60266 
L 310.092842 275.780955 
L 310.417821 275.663866 
L 310.742801 275.316589 
L 311.067781 275.150269 
L 311.39276 275.925986 
L 311.71774 275.387109 
L 312.367699 275.645238 
L 312.692678 274.626029 
L 313.017658 275.462951 
L 313.342637 275.490893 
L 313.992596 275.001247 
L 314.317576 275.961911 
L 314.642555 275.844822 
L 314.967535 275.03185 
L 315.292514 275.275342 
L 315.617494 275.067775 
L 315.942473 274.576798 
L 316.267453 274.413139 
L 316.592432 275.795591 
L 316.917412 276.209395 
L 317.242391 275.784947 
L 317.567371 276.297212 
L 317.892351 274.971974 
L 318.21733 274.954677 
L 318.54231 275.242078 
L 318.867289 275.086403 
L 319.517248 275.753013 
L 319.842228 274.776382 
L 320.167207 274.952016 
L 320.492187 276.064364 
L 320.817166 276.236006 
L 321.142146 275.316589 
L 321.467125 276.166817 
L 321.792105 276.032431 
L 322.117084 276.515424 
L 322.442064 275.743699 
L 322.767043 276.161495 
L 323.092023 275.814219 
L 323.417002 276.443574 
L 323.741982 276.705694 
L 324.066962 275.802244 
L 324.391941 275.614635 
L 324.716921 275.758335 
L 325.0419 275.74503 
L 325.36688 275.558751 
L 325.691859 277.179373 
L 326.666798 276.810808 
L 326.991777 277.055631 
L 327.316757 276.560663 
L 327.641736 276.659124 
L 327.966716 277.227274 
L 328.291695 276.628522 
L 328.616675 276.69505 
L 328.941654 276.977128 
L 329.266634 276.740289 
L 329.591613 276.945195 
L 329.916593 276.581952 
L 330.241572 276.990434 
L 330.566552 276.842742 
L 330.891532 276.935881 
L 331.216511 277.235257 
L 331.541491 277.070268 
L 331.86647 276.591266 
L 332.19145 276.789519 
L 332.516429 276.798833 
L 333.166388 277.047648 
L 333.491368 277.424196 
L 333.816347 277.167398 
L 334.141327 277.348355 
L 334.791286 277.164737 
L 335.116265 277.304446 
L 335.441245 277.022367 
L 335.766224 277.200662 
L 336.091204 277.110184 
L 336.416183 277.369644 
L 336.741163 276.303865 
L 337.066143 276.995756 
L 337.716102 277.127482 
L 338.041081 276.67243 
L 338.366061 276.845403 
L 339.01602 276.850725 
L 339.340999 277.33638 
L 339.665979 276.334468 
L 339.990958 276.064364 
L 340.315938 276.567316 
L 340.640917 275.681163 
L 340.965897 276.373054 
L 341.290876 276.50478 
L 341.615856 276.094967 
L 341.940835 276.222701 
L 342.265815 275.749021 
L 342.590794 275.831516 
L 342.915774 276.665777 
L 343.240753 275.878086 
L 343.565733 276.657794 
L 343.890713 275.9353 
L 344.215692 276.350435 
L 344.540672 275.545446 
L 344.865651 276.146859 
L 345.190631 275.665196 
L 345.51561 275.799583 
L 346.165569 276.419624 
L 346.490549 275.379126 
L 347.140508 275.431018 
L 347.465487 276.021786 
L 347.790467 275.654552 
L 348.115446 276.112264 
L 348.440426 275.054469 
L 348.765405 276.114925 
L 349.090385 276.522077 
L 349.415364 276.496796 
L 349.740344 275.703782 
L 350.065324 275.46162 
L 350.390303 275.729063 
L 350.715283 276.685736 
L 351.040262 276.282576 
L 351.365242 276.547357 
L 351.690221 276.238668 
L 352.015201 276.470185 
L 352.34018 276.278584 
L 353.315119 276.322493 
L 353.640098 275.848813 
L 354.615037 276.548688 
L 354.940016 275.659874 
L 355.264996 277.284488 
L 355.589975 276.162826 
L 355.914955 276.092306 
L 356.239934 276.161495 
L 356.564914 276.679083 
L 356.889894 276.057711 
L 357.214873 276.772222 
L 358.189812 276.33846 
L 358.514791 276.881328 
L 359.16475 276.67243 
L 359.814709 277.577211 
L 360.139689 276.265279 
L 360.464668 276.753594 
L 360.789648 276.923906 
L 361.114627 276.242659 
L 361.439607 277.023698 
L 361.764586 275.985861 
L 362.414545 276.9106 
L 362.739525 276.382368 
L 363.389484 276.032431 
L 363.714464 276.88665 
L 364.039443 276.69505 
L 364.364423 276.19742 
L 364.689402 276.358418 
L 365.339361 275.902036 
L 365.664341 275.979208 
L 365.98932 275.303284 
L 366.3143 276.620538 
L 366.639279 276.400996 
L 366.964259 276.754925 
L 367.289238 275.327234 
L 367.939197 276.447565 
L 368.264177 276.281245 
L 368.589156 275.339209 
L 368.914136 276.399665 
L 369.239115 276.701702 
L 369.564095 276.67243 
L 369.889075 276.044406 
L 370.214054 275.798252 
L 370.539034 276.571308 
L 371.188993 275.658543 
L 371.513972 276.039084 
L 371.838952 277.201993 
L 372.81389 276.009811 
L 373.13887 276.137545 
L 373.788829 276.049728 
L 374.113808 276.067025 
L 374.438788 276.229354 
L 374.763767 275.806236 
L 375.088747 276.165487 
L 375.413726 275.163575 
L 375.738706 276.185445 
L 376.388665 275.445654 
L 376.713645 275.424365 
L 377.038624 276.230684 
L 377.363604 276.052389 
L 377.688583 276.106942 
L 378.013563 275.815549 
L 378.338542 276.373054 
L 378.663522 275.9832 
L 378.988501 276.358418 
L 379.313481 276.378376 
L 379.96344 276.108273 
L 380.288419 276.660455 
L 380.613399 276.691058 
L 380.938378 277.233926 
L 381.263358 277.382949 
L 381.588337 277.17006 
L 381.913317 277.167398 
L 382.238296 277.71692 
L 382.563276 277.292471 
L 382.888256 277.613136 
L 383.538215 276.836089 
L 383.863194 277.335049 
L 384.188174 277.24191 
L 384.513153 277.019706 
L 384.838133 276.599249 
L 385.813071 277.112845 
L 386.138051 276.982451 
L 386.46303 277.257876 
L 386.78801 276.985112 
L 387.112989 277.120829 
L 387.437969 276.865361 
L 387.762948 277.388271 
L 388.737887 277.054301 
L 389.062867 276.850725 
L 389.387846 277.295132 
L 389.712826 276.591266 
L 390.362785 277.438833 
L 390.687764 276.990434 
L 391.012744 277.014384 
L 391.337723 277.377627 
L 391.662703 276.705694 
L 391.987682 277.223282 
L 392.312662 277.412221 
L 392.962621 276.848064 
L 393.2876 277.358999 
L 393.61258 276.460871 
L 393.937559 277.178043 
L 394.262539 276.785528 
L 394.912498 277.203324 
L 395.237477 276.342451 
L 395.562457 277.26586 
L 395.887437 277.034342 
L 396.212416 277.055631 
L 396.537396 276.785528 
L 396.862375 276.776214 
L 397.187355 277.365652 
L 397.512334 276.760247 
L 397.837314 277.12349 
L 398.162293 276.657794 
L 398.487273 276.664447 
L 398.487273 276.664447 
" style="fill:none;stroke:#1f77b4;stroke-linecap:square;stroke-width:1.5;"/>
   </g>
   <g id="patch_3">
    <path d="M 57.6 307.584 
L 57.6 41.472 
" style="fill:none;stroke:#000000;stroke-linecap:square;stroke-linejoin:miter;stroke-width:0.8;"/>
   </g>
   <g id="patch_4">
    <path d="M 414.72 307.584 
L 414.72 41.472 
" style="fill:none;stroke:#000000;stroke-linecap:square;stroke-linejoin:miter;stroke-width:0.8;"/>
   </g>
   <g id="patch_5">
    <path d="M 57.6 307.584 
L 414.72 307.584 
" style="fill:none;stroke:#000000;stroke-linecap:square;stroke-linejoin:miter;stroke-width:0.8;"/>
   </g>
   <g id="patch_6">
    <path d="M 57.6 41.472 
L 414.72 41.472 
" style="fill:none;stroke:#000000;stroke-linecap:square;stroke-linejoin:miter;stroke-width:0.8;"/>
   </g>
   <g id="text_15">
    <!-- Training - PEPG - Cartpole -->
    <g transform="translate(159.331875 35.472)scale(0.12 -0.12)">
     <defs>
      <path d="M 3513 2113 
L 3513 0 
L 2938 0 
L 2938 2094 
Q 2938 2591 2744 2837 
Q 2550 3084 2163 3084 
Q 1697 3084 1428 2787 
Q 1159 2491 1159 1978 
L 1159 0 
L 581 0 
L 581 3500 
L 1159 3500 
L 1159 2956 
Q 1366 3272 1645 3428 
Q 1925 3584 2291 3584 
Q 2894 3584 3203 3211 
Q 3513 2838 3513 2113 
z
" id="DejaVuSans-6e" transform="scale(0.015625)"/>
      <path d="M 2906 1791 
Q 2906 2416 2648 2759 
Q 2391 3103 1925 3103 
Q 1463 3103 1205 2759 
Q 947 2416 947 1791 
Q 947 1169 1205 825 
Q 1463 481 1925 481 
Q 2391 481 2648 825 
Q 2906 1169 2906 1791 
z
M 3481 434 
Q 3481 -459 3084 -895 
Q 2688 -1331 1869 -1331 
Q 1566 -1331 1297 -1286 
Q 1028 -1241 775 -1147 
L 775 -588 
Q 1028 -725 1275 -790 
Q 1522 -856 1778 -856 
Q 2344 -856 2625 -561 
Q 2906 -266 2906 331 
L 2906 616 
Q 2728 306 2450 153 
Q 2172 0 1784 0 
Q 1141 0 747 490 
Q 353 981 353 1791 
Q 353 2603 747 3093 
Q 1141 3584 1784 3584 
Q 2172 3584 2450 3431 
Q 2728 3278 2906 2969 
L 2906 3500 
L 3481 3500 
L 3481 434 
z
" id="DejaVuSans-67" transform="scale(0.015625)"/>
      <path id="DejaVuSans-20" transform="scale(0.015625)"/>
      <path d="M 313 2009 
L 1997 2009 
L 1997 1497 
L 313 1497 
L 313 2009 
z
" id="DejaVuSans-2d" transform="scale(0.015625)"/>
      <path d="M 1259 4147 
L 1259 2394 
L 2053 2394 
Q 2494 2394 2734 2622 
Q 2975 2850 2975 3272 
Q 2975 3691 2734 3919 
Q 2494 4147 2053 4147 
L 1259 4147 
z
M 628 4666 
L 2053 4666 
Q 2838 4666 3239 4311 
Q 3641 3956 3641 3272 
Q 3641 2581 3239 2228 
Q 2838 1875 2053 1875 
L 1259 1875 
L 1259 0 
L 628 0 
L 628 4666 
z
" id="DejaVuSans-50" transform="scale(0.015625)"/>
      <path d="M 628 4666 
L 3578 4666 
L 3578 4134 
L 1259 4134 
L 1259 2753 
L 3481 2753 
L 3481 2222 
L 1259 2222 
L 1259 531 
L 3634 531 
L 3634 0 
L 628 0 
L 628 4666 
z
" id="DejaVuSans-45" transform="scale(0.015625)"/>
      <path d="M 3809 666 
L 3809 1919 
L 2778 1919 
L 2778 2438 
L 4434 2438 
L 4434 434 
Q 4069 175 3628 42 
Q 3188 -91 2688 -91 
Q 1594 -91 976 548 
Q 359 1188 359 2328 
Q 359 3472 976 4111 
Q 1594 4750 2688 4750 
Q 3144 4750 3555 4637 
Q 3966 4525 4313 4306 
L 4313 3634 
Q 3963 3931 3569 4081 
Q 3175 4231 2741 4231 
Q 1884 4231 1454 3753 
Q 1025 3275 1025 2328 
Q 1025 1384 1454 906 
Q 1884 428 2741 428 
Q 3075 428 3337 486 
Q 3600 544 3809 666 
z
" id="DejaVuSans-47" transform="scale(0.015625)"/>
      <path d="M 4122 4306 
L 4122 3641 
Q 3803 3938 3442 4084 
Q 3081 4231 2675 4231 
Q 1875 4231 1450 3742 
Q 1025 3253 1025 2328 
Q 1025 1406 1450 917 
Q 1875 428 2675 428 
Q 3081 428 3442 575 
Q 3803 722 4122 1019 
L 4122 359 
Q 3791 134 3420 21 
Q 3050 -91 2638 -91 
Q 1578 -91 968 557 
Q 359 1206 359 2328 
Q 359 3453 968 4101 
Q 1578 4750 2638 4750 
Q 3056 4750 3426 4639 
Q 3797 4528 4122 4306 
z
" id="DejaVuSans-43" transform="scale(0.015625)"/>
      <path d="M 1959 3097 
Q 1497 3097 1228 2736 
Q 959 2375 959 1747 
Q 959 1119 1226 758 
Q 1494 397 1959 397 
Q 2419 397 2687 759 
Q 2956 1122 2956 1747 
Q 2956 2369 2687 2733 
Q 2419 3097 1959 3097 
z
M 1959 3584 
Q 2709 3584 3137 3096 
Q 3566 2609 3566 1747 
Q 3566 888 3137 398 
Q 2709 -91 1959 -91 
Q 1206 -91 779 398 
Q 353 888 353 1747 
Q 353 2609 779 3096 
Q 1206 3584 1959 3584 
z
" id="DejaVuSans-6f" transform="scale(0.015625)"/>
      <path d="M 603 4863 
L 1178 4863 
L 1178 0 
L 603 0 
L 603 4863 
z
" id="DejaVuSans-6c" transform="scale(0.015625)"/>
     </defs>
     <use xlink:href="#DejaVuSans-54"/>
     <use x="46.333984" xlink:href="#DejaVuSans-72"/>
     <use x="87.447266" xlink:href="#DejaVuSans-61"/>
     <use x="148.726562" xlink:href="#DejaVuSans-69"/>
     <use x="176.509766" xlink:href="#DejaVuSans-6e"/>
     <use x="239.888672" xlink:href="#DejaVuSans-69"/>
     <use x="267.671875" xlink:href="#DejaVuSans-6e"/>
     <use x="331.050781" xlink:href="#DejaVuSans-67"/>
     <use x="394.527344" xlink:href="#DejaVuSans-20"/>
     <use x="426.314453" xlink:href="#DejaVuSans-2d"/>
     <use x="462.398438" xlink:href="#DejaVuSans-20"/>
     <use x="494.185547" xlink:href="#DejaVuSans-50"/>
     <use x="554.488281" xlink:href="#DejaVuSans-45"/>
     <use x="617.671875" xlink:href="#DejaVuSans-50"/>
     <use x="677.974609" xlink:href="#DejaVuSans-47"/>
     <use x="755.464844" xlink:href="#DejaVuSans-20"/>
     <use x="787.251953" xlink:href="#DejaVuSans-2d"/>
     <use x="823.335938" xlink:href="#DejaVuSans-20"/>
     <use x="855.123047" xlink:href="#DejaVuSans-43"/>
     <use x="924.947266" xlink:href="#DejaVuSans-61"/>
     <use x="986.226562" xlink:href="#DejaVuSans-72"/>
     <use x="1027.339844" xlink:href="#DejaVuSans-74"/>
     <use x="1066.548828" xlink:href="#DejaVuSans-70"/>
     <use x="1130.025391" xlink:href="#DejaVuSans-6f"/>
     <use x="1191.207031" xlink:href="#DejaVuSans-6c"/>
     <use x="1218.990234" xlink:href="#DejaVuSans-65"/>
    </g>
   </g>
  </g>
 </g>
 <defs>
  <clipPath id="p59bd3e9446">
   <rect height="266.112" width="357.12" x="57.6" y="41.472"/>
  </clipPath>
 </defs>
</svg>
