<?xml version="1.0" encoding="utf-8" standalone="no"?>
<!DOCTYPE svg PUBLIC "-//W3C//DTD SVG 1.1//EN"
  "http://www.w3.org/Graphics/SVG/1.1/DTD/svg11.dtd">
<svg height="345.6pt" version="1.1" viewBox="0 0 460.8 345.6" width="460.8pt" xmlns="http://www.w3.org/2000/svg" xmlns:xlink="http://www.w3.org/1999/xlink">
 <metadata>
  <rdf:RDF xmlns:cc="http://creativecommons.org/ns#" xmlns:dc="http://purl.org/dc/elements/1.1/" xmlns:rdf="http://www.w3.org/1999/02/22-rdf-syntax-ns#">
   <cc:Work>
    <dc:type rdf:resource="http://purl.org/dc/dcmitype/StillImage"/>
    <dc:date>2021-07-22T17:34:02.342588</dc:date>
    <dc:format>image/svg+xml</dc:format>
    <dc:creator>
     <cc:Agent>
      <dc:title>Matplotlib v3.4.2, https://matplotlib.org/</dc:title>
     </cc:Agent>
    </dc:creator>
   </cc:Work>
  </rdf:RDF>
 </metadata>
 <defs>
  <style type="text/css">*{stroke-linecap:butt;stroke-linejoin:round;}</style>
 </defs>
 <g id="figure_1">
  <g id="patch_1">
   <path d="M 0 345.6 
L 460.8 345.6 
L 460.8 0 
L 0 0 
z
" style="fill:#ffffff;"/>
  </g>
  <g id="axes_1">
   <g id="patch_2">
    <path d="M 57.6 307.584 
L 414.72 307.584 
L 414.72 41.472 
L 57.6 41.472 
z
" style="fill:#ffffff;"/>
   </g>
   <g id="PolyCollection_1">
    <path clip-path="url(#p1f181ddddf)" d="M 57.9968 293.281145 
L 57.9968 304.855021 
L 58.3936 304.51839 
L 58.7904 306.435727 
L 59.1872 305.371944 
L 59.584 305.462422 
L 59.9808 306.532192 
L 60.3776 306.799635 
L 60.7744 304.499097 
L 61.1712 305.306081 
L 61.568 303.811197 
L 61.9648 306.286704 
L 62.3616 304.692693 
L 62.7584 305.862921 
L 63.1552 304.610198 
L 63.552 302.263091 
L 63.9488 304.695354 
L 64.3456 304.115895 
L 64.7424 304.108577 
L 65.1392 304.952152 
L 65.536 304.226997 
L 65.9328 304.167787 
L 66.3296 304.46051 
L 66.7264 304.347413 
L 67.1232 304.66209 
L 67.52 304.055355 
L 67.9168 297.301432 
L 68.3136 304.125875 
L 68.7104 304.258931 
L 69.1072 302.58309 
L 69.504 304.779845 
L 69.9008 303.997476 
L 70.2976 304.015438 
L 70.6944 304.792485 
L 71.0912 304.380012 
L 71.488 304.11523 
L 71.8848 302.099432 
L 72.2816 299.566045 
L 72.6784 301.095524 
L 73.0752 296.587587 
L 73.472 304.274897 
L 73.8688 304.230324 
L 74.2656 296.861017 
L 74.6624 303.514482 
L 75.0592 297.099187 
L 75.456 300.889953 
L 75.8528 299.702428 
L 76.2496 301.543923 
L 76.6464 304.213692 
L 77.0432 293.875906 
L 77.44 297.828999 
L 77.8368 298.952657 
L 78.2336 304.106581 
L 78.6304 304.058016 
L 79.0272 304.205708 
L 79.424 303.577019 
L 79.8208 302.473984 
L 80.2176 303.620262 
L 80.6144 304.167122 
L 81.0112 304.140511 
L 81.408 301.942426 
L 81.8048 293.587839 
L 82.2016 304.202382 
L 82.5984 297.765132 
L 82.9952 293.339025 
L 83.392 302.394816 
L 83.7888 303.048121 
L 84.1856 302.136687 
L 84.5824 304.157143 
L 84.9792 295.42002 
L 85.376 304.04471 
L 85.7728 301.78675 
L 86.1696 304.094606 
L 86.5664 303.892361 
L 86.9632 295.947588 
L 87.36 288.496452 
L 87.7568 304.145833 
L 88.1536 297.538272 
L 88.5504 296.318148 
L 88.9472 296.098606 
L 89.344 301.401553 
L 89.7408 291.611958 
L 90.1376 304.189076 
L 90.5344 304.124544 
L 90.9312 296.171122 
L 91.328 296.580269 
L 91.7248 291.667841 
L 92.1216 294.982932 
L 92.5184 302.780013 
L 92.9152 294.200562 
L 93.312 289.075245 
L 93.7088 301.389578 
L 94.1056 298.655277 
L 94.5024 302.038226 
L 94.8992 293.817361 
L 95.296 292.746925 
L 95.6928 292.621853 
L 96.0896 304.218348 
L 96.4864 302.185253 
L 96.8832 301.607124 
L 97.28 297.155736 
L 97.6768 291.886053 
L 98.0736 304.117891 
L 98.4704 297.830995 
L 98.8672 304.21103 
L 99.264 293.981685 
L 99.6608 292.596572 
L 100.0576 292.110252 
L 100.4544 297.018688 
L 100.8512 302.275731 
L 101.248 294.683556 
L 101.6448 291.599983 
L 102.0416 303.966207 
L 102.4384 295.424677 
L 102.8352 300.557978 
L 103.232 293.758151 
L 103.6288 301.10883 
L 104.0256 303.507829 
L 104.4224 302.58176 
L 104.8192 293.947091 
L 105.216 294.570458 
L 105.6128 293.621769 
L 106.0096 287.775953 
L 106.4064 288.590256 
L 106.8032 290.238155 
L 107.2 288.629508 
L 107.5968 290.021273 
L 107.9936 291.610627 
L 108.3904 304.134523 
L 108.7872 300.381679 
L 109.184 301.46542 
L 109.5808 294.068172 
L 109.9776 301.937103 
L 110.3744 295.650873 
L 110.7712 304.169118 
L 111.168 304.144502 
L 111.5648 300.647125 
L 111.9616 297.256859 
L 112.3584 301.871906 
L 112.7552 297.37794 
L 113.152 301.491366 
L 113.5488 303.897684 
L 113.9456 304.24496 
L 114.3424 294.696196 
L 114.7392 303.308245 
L 115.136 291.64123 
L 115.5328 290.864183 
L 115.9296 290.737115 
L 116.3264 288.916908 
L 116.7232 292.198069 
L 117.12 289.145765 
L 117.5168 288.346764 
L 117.9136 289.702604 
L 118.3104 289.196326 
L 118.7072 301.131449 
L 119.104 295.066757 
L 119.5008 290.026596 
L 119.8976 304.008785 
L 120.2944 304.160469 
L 120.6912 301.854609 
L 121.088 293.104846 
L 121.4848 294.24314 
L 121.8816 296.80846 
L 122.2784 288.328136 
L 122.6752 289.735868 
L 123.072 300.109579 
L 123.4688 293.831332 
L 123.8656 289.570879 
L 124.2624 289.775785 
L 124.6592 304.036727 
L 125.056 295.420686 
L 125.4528 304.133193 
L 125.8496 304.159804 
L 126.2464 304.215687 
L 126.6432 294.359564 
L 127.04 291.719068 
L 127.4368 299.283301 
L 127.8336 294.571123 
L 128.2304 290.426429 
L 128.6272 289.850296 
L 129.024 299.478228 
L 129.4208 293.441478 
L 129.8176 291.298611 
L 130.2144 304.157143 
L 130.6112 297.312742 
L 131.008 296.622181 
L 131.4048 295.354158 
L 131.8016 289.607469 
L 132.1984 292.808796 
L 132.5952 289.257532 
L 132.992 292.001812 
L 133.3888 291.327218 
L 133.7856 295.197817 
L 134.1824 304.21103 
L 134.5792 304.105916 
L 134.976 304.136519 
L 135.3728 298.048542 
L 135.7696 292.701686 
L 136.1664 294.488628 
L 136.5632 288.045392 
L 136.96 294.422766 
L 137.3568 289.951419 
L 137.7536 303.673484 
L 138.1504 299.496191 
L 138.5472 296.036735 
L 138.944 293.795407 
L 139.3408 302.505252 
L 139.7376 292.331125 
L 140.1344 294.034242 
L 140.5312 293.283806 
L 140.928 300.791491 
L 141.3248 294.268421 
L 141.7216 290.177614 
L 142.1184 292.155492 
L 142.5152 304.156477 
L 142.912 299.437646 
L 143.3088 303.658848 
L 143.7056 297.935444 
L 144.1024 304.223671 
L 144.4992 303.682133 
L 144.896 294.197901 
L 145.2928 297.501682 
L 145.6896 299.068416 
L 146.0864 304.211696 
L 146.4832 297.115819 
L 146.88 301.313071 
L 147.2768 295.397401 
L 147.6736 301.411532 
L 148.0704 294.548504 
L 148.4672 301.64305 
L 148.864 292.143516 
L 149.2608 289.946762 
L 149.6576 295.944926 
L 150.0544 290.716491 
L 150.4512 296.022764 
L 150.848 292.02177 
L 151.2448 298.637315 
L 151.6416 302.137353 
L 152.0384 303.990823 
L 152.4352 298.69719 
L 152.832 295.355488 
L 153.2288 297.62742 
L 153.6256 295.792577 
L 154.0224 304.148494 
L 154.4192 296.481807 
L 154.816 301.981677 
L 155.2128 303.572362 
L 155.6096 304.192403 
L 156.0064 295.353492 
L 156.4032 289.26485 
L 156.8 289.029341 
L 157.1968 290.431751 
L 157.5936 289.763145 
L 157.9904 304.144502 
L 158.3872 295.940269 
L 158.784 300.834734 
L 159.1808 297.197649 
L 159.5776 297.321391 
L 159.9744 298.413115 
L 160.3712 293.203973 
L 160.768 297.977357 
L 161.1648 290.228841 
L 161.5616 291.714411 
L 161.9584 293.048963 
L 162.3552 291.880066 
L 162.752 293.412871 
L 163.1488 301.422842 
L 163.5456 304.15049 
L 163.9424 294.930374 
L 164.3392 291.161563 
L 164.736 298.358562 
L 165.1328 294.494616 
L 165.5296 289.02801 
L 165.9264 295.523139 
L 166.3232 295.651538 
L 166.72 296.135862 
L 167.1168 295.523804 
L 167.5136 303.086042 
L 167.9104 300.940514 
L 168.3072 303.276312 
L 168.704 293.182684 
L 169.1008 291.357156 
L 169.4976 292.508755 
L 169.8944 301.521303 
L 170.2912 301.293112 
L 170.688 304.148494 
L 171.0848 301.373611 
L 171.4816 300.582593 
L 171.8784 294.24314 
L 172.2752 293.916488 
L 172.672 293.403557 
L 173.0688 304.083297 
L 173.4656 297.4611 
L 173.8624 291.320565 
L 174.2592 301.218601 
L 174.656 295.614282 
L 175.0528 301.154734 
L 175.4496 302.966292 
L 175.8464 302.615689 
L 176.2432 302.374192 
L 176.64 303.189826 
L 177.0368 301.184006 
L 177.4336 301.442135 
L 177.8304 297.135112 
L 178.2272 291.977862 
L 178.624 294.627007 
L 179.0208 292.633828 
L 179.4176 292.096282 
L 179.8144 303.918307 
L 180.2112 296.221683 
L 180.608 299.99382 
L 181.0048 291.350503 
L 181.4016 299.660515 
L 181.7984 294.869834 
L 182.1952 294.936362 
L 182.592 300.944506 
L 182.9888 298.146338 
L 183.3856 299.100349 
L 183.7824 295.04946 
L 184.1792 289.511004 
L 184.576 288.109259 
L 184.9728 293.770126 
L 185.3696 290.740441 
L 185.7664 301.768122 
L 186.1632 301.024339 
L 186.56 299.462927 
L 186.9568 293.355657 
L 187.3536 301.33436 
L 187.7504 297.156401 
L 188.1472 293.450126 
L 188.544 303.422674 
L 188.9408 298.822262 
L 189.3376 299.727708 
L 189.7344 301.948413 
L 190.1312 304.2576 
L 190.528 300.325795 
L 190.9248 303.991488 
L 191.3216 303.543089 
L 191.7184 302.774026 
L 192.1152 300.932531 
L 192.512 304.177766 
L 192.9088 303.31889 
L 193.3056 299.818187 
L 193.7024 294.360229 
L 194.0992 294.769377 
L 194.496 303.719388 
L 194.8928 303.015522 
L 195.2896 295.523139 
L 195.6864 304.227662 
L 196.0832 302.122051 
L 196.48 304.264918 
L 196.8768 300.308498 
L 197.2736 296.835736 
L 197.6704 304.140511 
L 198.0672 303.290283 
L 198.464 297.808376 
L 198.8608 302.242467 
L 199.2576 303.839804 
L 199.6544 298.234155 
L 200.0512 294.446051 
L 200.448 295.805883 
L 200.8448 297.583511 
L 201.2416 292.14019 
L 201.6384 294.321643 
L 202.0352 304.200386 
L 202.432 302.480637 
L 202.8288 301.879889 
L 203.2256 302.764712 
L 203.6224 298.918063 
L 204.0192 304.015438 
L 204.416 301.469412 
L 204.8128 304.24496 
L 205.2096 295.777276 
L 205.6064 302.169286 
L 206.0032 301.464089 
L 206.4 300.9312 
L 206.7968 294.276404 
L 207.1936 302.404795 
L 207.5904 300.436232 
L 207.9872 304.134523 
L 208.384 295.219106 
L 208.7808 294.34892 
L 209.1776 302.756728 
L 209.5744 291.067093 
L 209.9712 295.433326 
L 210.368 298.99457 
L 210.7648 298.371868 
L 211.1616 292.030419 
L 211.5584 298.881472 
L 211.9552 294.331622 
L 212.352 297.362638 
L 212.7488 301.429495 
L 213.1456 304.131862 
L 213.5424 304.142507 
L 213.9392 302.340263 
L 214.336 300.645795 
L 214.7328 297.972035 
L 215.1296 297.693282 
L 215.5264 298.19823 
L 215.9232 293.914492 
L 216.32 295.058773 
L 216.7168 304.228328 
L 217.1136 302.823922 
L 217.5104 301.547915 
L 217.9072 292.404972 
L 218.304 299.282636 
L 218.7008 303.038807 
L 219.0976 303.521135 
L 219.4944 302.370201 
L 219.8912 301.808704 
L 220.288 299.368457 
L 220.6848 299.925962 
L 221.0816 300.601221 
L 221.4784 296.641475 
L 221.8752 294.960977 
L 222.272 293.154077 
L 222.6688 294.861185 
L 223.0656 304.157143 
L 223.4624 304.253608 
L 223.8592 303.463256 
L 224.256 305.390572 
L 224.6528 298.421764 
L 225.0496 301.954401 
L 225.4464 296.650123 
L 225.8432 298.378521 
L 226.24 297.61611 
L 226.6368 290.786345 
L 227.0336 302.743423 
L 227.4304 302.860512 
L 227.8272 304.24629 
L 228.224 304.073317 
L 228.6208 297.175029 
L 229.0176 294.707506 
L 229.4144 303.251697 
L 229.8112 293.550584 
L 230.208 303.942257 
L 230.6048 299.772282 
L 231.0016 303.52047 
L 231.3984 298.04455 
L 231.7952 295.179189 
L 232.192 298.23349 
L 232.5888 293.486717 
L 232.9856 294.268421 
L 233.3824 292.110918 
L 233.7792 298.820932 
L 234.176 303.27232 
L 234.5728 303.766623 
L 234.9696 299.509497 
L 235.3664 302.945668 
L 235.7632 303.342175 
L 236.16 299.081056 
L 236.5568 299.287958 
L 236.9536 299.321222 
L 237.3504 303.747996 
L 237.7472 303.930282 
L 238.144 302.835897 
L 238.5408 302.194567 
L 238.9376 295.598316 
L 239.3344 291.671168 
L 239.7312 298.593406 
L 240.128 294.883805 
L 240.5248 303.41469 
L 240.9216 304.231654 
L 241.3184 304.002132 
L 241.7152 302.769369 
L 242.112 300.929204 
L 242.5088 303.955563 
L 242.9056 295.06343 
L 243.3024 304.766539 
L 243.6992 302.555148 
L 244.096 297.669332 
L 244.4928 300.867333 
L 244.8896 304.681383 
L 245.2864 303.523131 
L 245.6832 303.759305 
L 246.08 302.679556 
L 246.4768 301.95174 
L 246.8736 293.265179 
L 247.2704 291.306594 
L 247.6672 300.402968 
L 248.064 295.512494 
L 248.4608 304.131862 
L 248.8576 305.581507 
L 249.2544 293.257195 
L 249.6512 293.468754 
L 250.048 294.000978 
L 250.4448 295.588336 
L 250.8416 303.528453 
L 251.2384 297.061266 
L 251.6352 303.809201 
L 252.032 296.650788 
L 252.4288 296.468502 
L 252.8256 299.532116 
L 253.2224 295.417359 
L 253.6192 300.969786 
L 254.016 297.423844 
L 254.4128 301.922467 
L 254.8096 301.812031 
L 255.2064 302.635647 
L 255.6032 296.303512 
L 256 302.745419 
L 256.3968 301.147416 
L 256.7936 295.520478 
L 257.1904 299.05511 
L 257.5872 301.962384 
L 257.984 303.351489 
L 258.3808 296.826422 
L 258.7776 304.591571 
L 259.1744 302.76072 
L 259.5712 296.213034 
L 259.968 298.114404 
L 260.3648 300.305172 
L 260.7616 300.866003 
L 261.1584 301.629079 
L 261.5552 296.313492 
L 261.952 304.107247 
L 262.3488 297.739852 
L 262.7456 302.472654 
L 263.1424 299.796898 
L 263.5392 295.764636 
L 263.936 295.849791 
L 264.3328 301.538601 
L 264.7296 300.88463 
L 265.1264 304.466498 
L 265.5232 299.619268 
L 265.92 303.754648 
L 266.3168 296.256943 
L 266.7136 303.730033 
L 267.1104 303.254358 
L 267.5072 293.933785 
L 267.904 295.829833 
L 268.3008 305.379262 
L 268.6976 296.090623 
L 269.0944 304.248951 
L 269.4912 302.52255 
L 269.888 302.683548 
L 270.2848 304.478473 
L 270.6816 304.145833 
L 271.0784 301.429495 
L 271.4752 301.573195 
L 271.872 296.166465 
L 272.2688 294.283722 
L 272.6656 300.222677 
L 273.0624 304.005459 
L 273.4592 297.78243 
L 273.856 303.37943 
L 274.2528 299.449621 
L 274.6496 296.278897 
L 275.0464 303.554399 
L 275.4432 300.143508 
L 275.84 300.995732 
L 276.2368 303.738682 
L 276.6336 299.05378 
L 277.0304 292.202726 
L 277.4272 303.626249 
L 277.824 299.808873 
L 278.2208 297.525632 
L 278.6176 295.671496 
L 279.0144 300.133529 
L 279.4112 304.154482 
L 279.808 300.196731 
L 280.2048 299.42168 
L 280.6016 300.605213 
L 280.9984 297.173033 
L 281.3952 294.561144 
L 281.792 293.042975 
L 282.1888 297.288127 
L 282.5856 296.942846 
L 282.9824 301.872571 
L 283.3792 297.252867 
L 283.776 300.239974 
L 284.1728 296.51108 
L 284.5696 294.650957 
L 284.9664 302.762051 
L 285.3632 296.615529 
L 285.76 299.043135 
L 286.1568 301.780763 
L 286.5536 303.5218 
L 286.9504 303.755979 
L 287.3472 304.237642 
L 287.744 303.305584 
L 288.1408 302.477976 
L 288.5376 301.827997 
L 288.9344 303.182508 
L 289.3312 302.322966 
L 289.728 298.200891 
L 290.1248 296.187088 
L 290.5216 303.383422 
L 290.9184 297.833656 
L 291.3152 302.484629 
L 291.712 303.013526 
L 292.1088 304.789159 
L 292.5056 300.465504 
L 292.9024 295.231081 
L 293.2992 295.411372 
L 293.696 293.368962 
L 294.0928 302.181261 
L 294.4896 299.486877 
L 294.8864 300.99041 
L 295.2832 300.699683 
L 295.68 296.59557 
L 296.0768 298.760391 
L 296.4736 303.553068 
L 296.8704 300.281887 
L 297.2672 305.155063 
L 297.664 296.743928 
L 298.0608 300.760223 
L 298.4576 302.288371 
L 298.8544 305.615436 
L 299.2512 301.95307 
L 299.648 298.665256 
L 300.0448 302.283714 
L 300.4416 299.17353 
L 300.8384 298.101764 
L 301.2352 301.949744 
L 301.632 303.72205 
L 302.0288 302.35756 
L 302.4256 297.459104 
L 302.8224 292.786177 
L 303.2192 303.278973 
L 303.616 300.055026 
L 304.0128 304.092611 
L 304.4096 301.668996 
L 304.8064 305.068576 
L 305.2032 302.398808 
L 305.6 298.681888 
L 305.9968 296.049375 
L 306.3936 293.664347 
L 306.7904 302.626333 
L 307.1872 305.226913 
L 307.584 297.245549 
L 307.9808 297.000726 
L 308.3776 303.816519 
L 308.7744 298.286047 
L 309.1712 303.85444 
L 309.568 303.163214 
L 309.9648 301.722883 
L 310.3616 304.170448 
L 310.7584 303.90101 
L 311.1552 299.214778 
L 311.552 293.916488 
L 311.9488 299.960556 
L 312.3456 298.208209 
L 312.7424 299.20746 
L 313.1392 302.441386 
L 313.536 298.20954 
L 313.9328 297.278813 
L 314.3296 302.752737 
L 314.7264 300.271242 
L 315.1232 295.19316 
L 315.52 297.658022 
L 315.9168 296.974115 
L 316.3136 304.167787 
L 316.7104 301.021678 
L 317.1072 302.760055 
L 317.504 299.515484 
L 317.9008 299.250037 
L 318.2976 299.095027 
L 318.6944 295.191164 
L 319.0912 301.636397 
L 319.488 302.632986 
L 319.8848 303.836478 
L 320.2816 298.55615 
L 320.6784 304.226997 
L 321.0752 300.943175 
L 321.472 298.25877 
L 321.8688 302.449369 
L 322.2656 298.037232 
L 322.6624 303.925625 
L 323.0592 304.175771 
L 323.456 296.914239 
L 323.8528 296.347421 
L 324.2496 305.314065 
L 324.6464 297.704592 
L 325.0432 304.195729 
L 325.44 300.71831 
L 325.8368 301.341678 
L 326.2336 304.146498 
L 326.6304 302.984919 
L 327.0272 303.042133 
L 327.424 302.530533 
L 327.8208 297.635403 
L 328.2176 297.512326 
L 328.6144 292.125554 
L 329.0112 304.205708 
L 329.408 301.410867 
L 329.8048 292.949836 
L 330.2016 303.670158 
L 330.5984 304.107912 
L 330.9952 303.567705 
L 331.392 302.527207 
L 331.7888 296.580269 
L 332.1856 297.745174 
L 332.5824 303.193152 
L 332.9792 302.083465 
L 333.376 297.815028 
L 333.7728 295.01553 
L 334.1696 305.240884 
L 334.5664 299.202137 
L 334.9632 296.706672 
L 335.36 301.706251 
L 335.7568 293.388921 
L 336.1536 301.174692 
L 336.5504 294.466674 
L 336.9472 301.98833 
L 337.344 300.489454 
L 337.7408 303.36679 
L 338.1376 304.232985 
L 338.5344 296.859686 
L 338.9312 305.338015 
L 339.328 299.947251 
L 339.7248 295.290291 
L 340.1216 297.987336 
L 340.5184 298.942013 
L 340.9152 300.3717 
L 341.312 298.635984 
L 341.7088 301.408206 
L 342.1056 297.069915 
L 342.5024 293.19732 
L 342.8992 292.963141 
L 343.296 298.431078 
L 343.6928 297.406547 
L 344.0896 305.364626 
L 344.4864 304.175105 
L 344.8832 301.080223 
L 345.28 293.23391 
L 345.6768 297.560892 
L 346.0736 294.972952 
L 346.4704 294.704179 
L 346.8672 300.712988 
L 347.264 302.385502 
L 347.6608 303.225751 
L 348.0576 300.57594 
L 348.4544 302.064837 
L 348.8512 300.143508 
L 349.248 293.726218 
L 349.6448 302.210533 
L 350.0416 296.731287 
L 350.4384 304.195729 
L 350.8352 305.726538 
L 351.232 302.55781 
L 351.6288 296.011454 
L 352.0256 296.511745 
L 352.4224 296.208377 
L 352.8192 296.990747 
L 353.216 296.628834 
L 353.6128 302.87914 
L 354.0096 296.896942 
L 354.4064 304.117226 
L 354.8032 296.733948 
L 355.2 304.149825 
L 355.5968 302.25045 
L 355.9936 302.005627 
L 356.3904 303.908993 
L 356.7872 298.236151 
L 357.184 304.844377 
L 357.5808 302.884462 
L 357.9776 301.171366 
L 358.3744 296.153159 
L 358.7712 294.335614 
L 359.168 305.665998 
L 359.5648 300.643799 
L 359.9616 296.322805 
L 360.3584 296.676734 
L 360.7552 302.655606 
L 361.152 304.095272 
L 361.5488 302.886458 
L 361.9456 305.467744 
L 362.3424 300.25328 
L 362.7392 296.38002 
L 363.136 303.536436 
L 363.5328 305.583503 
L 363.9296 303.661509 
L 364.3264 304.103255 
L 364.7232 302.022259 
L 365.12 300.420265 
L 365.5168 303.692777 
L 365.9136 304.215687 
L 366.3104 297.706588 
L 366.7072 293.799398 
L 367.104 302.349577 
L 367.5008 305.296102 
L 367.8976 301.761469 
L 368.2944 293.612455 
L 368.6912 296.364053 
L 369.088 304.246956 
L 369.4848 304.914231 
L 369.8816 304.10392 
L 370.2784 295.678814 
L 370.6752 303.527788 
L 371.072 298.973946 
L 371.4688 303.417351 
L 371.8656 301.000389 
L 372.2624 298.713822 
L 372.6592 299.731035 
L 373.056 305.152402 
L 373.4528 298.374529 
L 373.8496 297.339353 
L 374.2464 296.094614 
L 374.6432 300.603882 
L 375.04 303.577684 
L 375.4368 304.157808 
L 375.8336 301.456106 
L 376.2304 304.240303 
L 376.6272 298.940017 
L 377.024 304.285542 
L 377.4208 302.025586 
L 377.8176 301.676314 
L 378.2144 303.795896 
L 378.6112 300.031076 
L 379.008 297.888875 
L 379.4048 294.09944 
L 379.8016 301.531948 
L 380.1984 299.334528 
L 380.5952 298.207544 
L 380.992 303.677476 
L 381.3888 301.879224 
L 381.7856 300.992406 
L 382.1824 294.596404 
L 382.5792 296.946838 
L 382.976 296.113242 
L 383.3728 300.649121 
L 383.7696 296.540352 
L 384.1664 303.3302 
L 384.5632 303.926956 
L 384.96 302.668911 
L 385.3568 305.257516 
L 385.7536 300.013114 
L 386.1504 297.422513 
L 386.5472 298.180932 
L 386.944 298.427751 
L 387.3408 298.369872 
L 387.7376 295.958232 
L 388.1344 297.99798 
L 388.5312 294.246467 
L 388.928 302.25045 
L 389.3248 299.527459 
L 389.7216 301.867249 
L 390.1184 299.548083 
L 390.5152 305.878887 
L 390.912 298.989913 
L 391.3088 301.146751 
L 391.7056 301.571865 
L 392.1024 296.983428 
L 392.4992 297.038647 
L 392.896 299.49486 
L 393.2928 303.41336 
L 393.6896 295.151913 
L 394.0864 303.940261 
L 394.4832 303.557725 
L 394.88 305.413857 
L 395.2768 300.408955 
L 395.6736 298.327294 
L 396.0704 303.121302 
L 396.4672 297.912825 
L 396.864 302.386833 
L 397.2608 296.109251 
L 397.6576 297.265507 
L 398.0544 300.152157 
L 398.4512 304.07997 
L 398.848 298.053199 
L 399.2448 302.968287 
L 399.6416 298.419103 
L 400.0384 298.152991 
L 400.4352 299.634569 
L 400.832 304.183089 
L 401.2288 301.14542 
L 401.6256 300.60987 
L 402.0224 300.108249 
L 402.4192 305.771112 
L 402.816 305.29078 
L 403.2128 304.123879 
L 403.6096 303.098017 
L 404.0064 303.970199 
L 404.4032 304.006124 
L 404.8 299.313239 
L 405.1968 303.956228 
L 405.5936 304.345417 
L 405.9904 299.164216 
L 406.3872 299.460266 
L 406.784 303.962216 
L 407.1808 303.201801 
L 407.5776 297.738521 
L 407.9744 296.863678 
L 408.3712 304.134523 
L 408.768 304.264253 
L 409.1648 302.179265 
L 409.5616 303.846457 
L 409.9584 305.613441 
L 410.3552 299.522137 
L 410.752 299.274653 
L 411.1488 300.002469 
L 411.5456 303.375439 
L 411.9424 303.658848 
L 412.3392 295.527796 
L 412.736 303.578349 
L 413.1328 293.31574 
L 413.5296 302.980262 
L 413.9264 305.238223 
L 414.3232 301.7149 
L 414.72 304.22234 
L 415.1168 296.447213 
L 415.5136 300.864672 
L 415.9104 301.86858 
L 416.3072 300.142843 
L 416.704 303.645542 
L 417.1008 299.371784 
L 417.4976 304.121218 
L 417.8944 295.552411 
L 418.2912 293.404887 
L 418.688 305.153732 
L 419.0848 303.266998 
L 419.4816 300.695026 
L 419.8784 303.207788 
L 420.2752 302.839888 
L 420.672 303.445958 
L 421.0688 298.882138 
L 421.4656 300.434901 
L 421.8624 305.214938 
L 422.2592 306.038555 
L 422.656 303.193152 
L 423.0528 305.094522 
L 423.4496 304.127205 
L 423.8464 303.621592 
L 424.2432 292.427591 
L 424.64 303.186499 
L 425.0368 300.645795 
L 425.4336 300.978435 
L 425.8304 295.98817 
L 425.8304 292.247965 
L 425.8304 292.247965 
L 425.4336 292.211375 
L 425.0368 291.975201 
L 424.64 291.62992 
L 424.2432 291.067759 
L 423.8464 293.445469 
L 423.4496 293.250542 
L 423.0528 292.24597 
L 422.656 292.405637 
L 422.2592 292.665761 
L 421.8624 295.53844 
L 421.4656 292.536697 
L 421.0688 292.631167 
L 420.672 291.363808 
L 420.2752 291.731708 
L 419.8784 292.245304 
L 419.4816 292.67441 
L 419.0848 289.937448 
L 418.688 294.519231 
L 418.2912 289.317407 
L 417.8944 290.151668 
L 417.4976 296.101267 
L 417.1008 292.009795 
L 416.704 292.403641 
L 416.3072 292.32913 
L 415.9104 290.886803 
L 415.5136 291.533455 
L 415.1168 292.436905 
L 414.72 290.41778 
L 414.3232 294.191248 
L 413.9264 298.880807 
L 413.5296 292.689046 
L 413.1328 292.235325 
L 412.736 291.067759 
L 412.3392 289.570879 
L 411.9424 292.21071 
L 411.5456 291.032499 
L 411.1488 291.679151 
L 410.752 291.168881 
L 410.3552 292.659108 
L 409.9584 301.333029 
L 409.5616 292.860023 
L 409.1648 292.775532 
L 408.768 296.540352 
L 408.3712 291.826178 
L 407.9744 289.7046 
L 407.5776 292.908588 
L 407.1808 291.275991 
L 406.784 292.56863 
L 406.3872 293.700937 
L 405.9904 290.219527 
L 405.5936 292.116905 
L 405.1968 291.183517 
L 404.8 292.824098 
L 404.4032 293.106177 
L 404.0064 292.323142 
L 403.6096 296.897607 
L 403.2128 292.465512 
L 402.816 293.068256 
L 402.4192 292.301853 
L 402.0224 292.24597 
L 401.6256 292.511416 
L 401.2288 293.66102 
L 400.832 294.471331 
L 400.4352 293.767465 
L 400.0384 292.777528 
L 399.6416 292.395658 
L 399.2448 294.305676 
L 398.848 291.790918 
L 398.4512 294.471996 
L 398.0544 291.075077 
L 397.6576 293.670334 
L 397.2608 293.460106 
L 396.864 293.954409 
L 396.4672 291.7357 
L 396.0704 294.010957 
L 395.6736 291.834161 
L 395.2768 294.403473 
L 394.88 293.120813 
L 394.4832 293.845968 
L 394.0864 294.082808 
L 393.6896 292.70967 
L 393.2928 290.759734 
L 392.896 291.416365 
L 392.4992 291.364474 
L 392.1024 291.337862 
L 391.7056 292.402976 
L 391.3088 293.438817 
L 390.912 293.18468 
L 390.5152 293.202642 
L 390.1184 293.209295 
L 389.7216 292.067675 
L 389.3248 293.120813 
L 388.928 293.16206 
L 388.5312 289.465764 
L 388.1344 293.418193 
L 387.7376 291.682477 
L 387.3408 291.883392 
L 386.944 291.437654 
L 386.5472 291.472249 
L 386.1504 291.929296 
L 385.7536 292.233329 
L 385.3568 291.875409 
L 384.96 293.508671 
L 384.5632 293.380937 
L 384.1664 289.888217 
L 383.7696 292.76888 
L 383.3728 292.766884 
L 382.976 290.200899 
L 382.5792 291.801563 
L 382.1824 289.055287 
L 381.7856 293.210626 
L 381.3888 292.510086 
L 380.992 292.79283 
L 380.5952 291.953912 
L 380.1984 292.826759 
L 379.8016 291.34518 
L 379.4048 289.381939 
L 379.008 290.791002 
L 378.6112 290.110421 
L 378.2144 291.113663 
L 377.8176 293.9105 
L 377.4208 289.869589 
L 377.024 292.834077 
L 376.6272 292.818776 
L 376.2304 292.216032 
L 375.8336 294.238483 
L 375.4368 293.342351 
L 375.04 290.439069 
L 374.6432 291.205472 
L 374.2464 290.103768 
L 373.8496 291.606636 
L 373.4528 290.427094 
L 373.056 295.391413 
L 372.6592 293.816696 
L 372.2624 291.714411 
L 371.8656 293.360314 
L 371.4688 293.800064 
L 371.072 292.489462 
L 370.6752 293.449461 
L 370.2784 290.38252 
L 369.8816 293.55258 
L 369.4848 291.429671 
L 369.088 292.311832 
L 368.6912 290.40514 
L 368.2944 291.541438 
L 367.8976 290.558154 
L 367.5008 290.590088 
L 367.104 291.727716 
L 366.7072 289.544268 
L 366.3104 292.95915 
L 365.9136 291.331875 
L 365.5168 291.228091 
L 365.12 291.537446 
L 364.7232 292.408298 
L 364.3264 292.649129 
L 363.9296 291.654536 
L 363.5328 290.057198 
L 363.136 291.406386 
L 362.7392 289.173041 
L 362.3424 291.124308 
L 361.9456 294.394159 
L 361.5488 293.027008 
L 361.152 292.002477 
L 360.7552 292.510086 
L 360.3584 290.356574 
L 359.9616 291.091709 
L 359.5648 294.515905 
L 359.168 296.461184 
L 358.7712 292.788173 
L 358.3744 289.570213 
L 357.9776 292.266593 
L 357.5808 291.523476 
L 357.184 293.305095 
L 356.7872 290.373206 
L 356.3904 291.457613 
L 355.9936 292.054369 
L 355.5968 293.166717 
L 355.2 292.585928 
L 354.8032 291.235409 
L 354.4064 294.903763 
L 354.0096 288.912917 
L 353.6128 291.635243 
L 353.216 290.618029 
L 352.8192 289.196991 
L 352.4224 289.66801 
L 352.0256 289.210962 
L 351.6288 291.674494 
L 351.232 291.828174 
L 350.8352 297.615444 
L 350.4384 292.934534 
L 350.0416 289.475744 
L 349.6448 291.478902 
L 349.248 290.152333 
L 348.8512 290.461689 
L 348.4544 289.308758 
L 348.0576 292.803474 
L 347.6608 290.662603 
L 347.264 290.339277 
L 346.8672 292.956489 
L 346.4704 290.375202 
L 346.0736 287.845808 
L 345.6768 292.263267 
L 345.28 288.32747 
L 344.8832 290.091128 
L 344.4864 293.653702 
L 344.0896 293.157403 
L 343.6928 289.179694 
L 343.296 291.756989 
L 342.8992 288.927553 
L 342.5024 289.350671 
L 342.1056 290.262105 
L 341.7088 289.21695 
L 341.312 294.013619 
L 340.9152 295.770623 
L 340.5184 294.362891 
L 340.1216 291.595991 
L 339.7248 290.166304 
L 339.328 292.754909 
L 338.9312 293.639731 
L 338.5344 291.856116 
L 338.1376 293.977028 
L 337.7408 293.977028 
L 337.344 294.251789 
L 336.9472 296.254282 
L 336.5504 292.931873 
L 336.1536 291.133621 
L 335.7568 288.775204 
L 335.36 292.082976 
L 334.9632 289.640068 
L 334.5664 292.267259 
L 334.1696 289.860276 
L 333.7728 289.020027 
L 333.376 291.625929 
L 332.9792 291.936614 
L 332.5824 290.912083 
L 332.1856 293.033661 
L 331.7888 290.436408 
L 331.392 293.597819 
L 330.9952 292.368381 
L 330.5984 293.585844 
L 330.2016 292.1515 
L 329.8048 288.121899 
L 329.408 293.511997 
L 329.0112 295.718731 
L 328.6144 288.873665 
L 328.2176 293.631083 
L 327.8208 289.236243 
L 327.424 289.362646 
L 327.0272 292.575948 
L 326.6304 290.194246 
L 326.2336 293.629752 
L 325.8368 293.011707 
L 325.44 289.391918 
L 325.0432 292.921894 
L 324.6464 290.656616 
L 324.2496 290.194911 
L 323.8528 290.03724 
L 323.456 289.673997 
L 323.0592 290.701189 
L 322.6624 293.09021 
L 322.2656 288.94352 
L 321.8688 289.956076 
L 321.472 290.035909 
L 321.0752 290.35857 
L 320.6784 292.540689 
L 320.2816 291.888714 
L 319.8848 291.603974 
L 319.488 294.512579 
L 319.0912 288.799819 
L 318.6944 288.692709 
L 318.2976 290.35724 
L 317.9008 291.461604 
L 317.504 291.453621 
L 317.1072 292.997071 
L 316.7104 291.236075 
L 316.3136 290.796324 
L 315.9168 289.434496 
L 315.52 291.251376 
L 315.1232 290.51358 
L 314.7264 289.990005 
L 314.3296 288.14851 
L 313.9328 292.499441 
L 313.536 292.259275 
L 313.1392 290.556824 
L 312.7424 290.765722 
L 312.3456 294.33894 
L 311.9488 289.95408 
L 311.552 290.677905 
L 311.1552 290.147011 
L 310.7584 297.999311 
L 310.3616 291.190836 
L 309.9648 288.399321 
L 309.568 293.096197 
L 309.1712 297.103844 
L 308.7744 287.749342 
L 308.3776 291.248715 
L 307.9808 289.185016 
L 307.584 292.806135 
L 307.1872 293.413536 
L 306.7904 292.452206 
L 306.3936 284.337786 
L 305.9968 290.505597 
L 305.6 291.337862 
L 305.2032 293.18601 
L 304.8064 299.067751 
L 304.4096 293.581187 
L 304.0128 293.915822 
L 303.616 288.858364 
L 303.2192 290.57146 
L 302.8224 284.735624 
L 302.4256 290.276076 
L 302.0288 291.741687 
L 301.632 291.935949 
L 301.2352 290.504932 
L 300.8384 292.725636 
L 300.4416 291.512831 
L 300.0448 289.499028 
L 299.648 292.312498 
L 299.2512 291.385097 
L 298.8544 293.500688 
L 298.4576 290.952 
L 298.0608 287.569051 
L 297.664 291.70044 
L 297.2672 291.399068 
L 296.8704 289.994662 
L 296.4736 290.709838 
L 296.0768 289.316076 
L 295.68 290.214204 
L 295.2832 294.281061 
L 294.8864 292.281895 
L 294.4896 293.508671 
L 294.0928 291.832165 
L 293.696 290.152999 
L 293.2992 291.058445 
L 292.9024 290.729131 
L 292.5056 290.458362 
L 292.1088 293.846633 
L 291.712 291.187509 
L 291.3152 291.347176 
L 290.9184 290.66593 
L 290.5216 294.181934 
L 290.1248 292.905927 
L 289.728 293.694949 
L 289.3312 292.941852 
L 288.9344 291.843475 
L 288.5376 293.114825 
L 288.1408 289.36065 
L 287.744 291.74834 
L 287.3472 293.951082 
L 286.9504 293.364971 
L 286.5536 292.852705 
L 286.1568 290.426429 
L 285.76 290.257448 
L 285.3632 290.043893 
L 284.9664 288.787844 
L 284.5696 289.83566 
L 284.1728 290.665264 
L 283.776 290.222188 
L 283.3792 289.672001 
L 282.9824 291.264682 
L 282.5856 292.135533 
L 282.1888 286.885809 
L 281.792 287.842481 
L 281.3952 288.461857 
L 280.9984 290.495618 
L 280.6016 288.179778 
L 280.2048 289.144434 
L 279.808 292.879981 
L 279.4112 287.565725 
L 279.0144 288.10061 
L 278.6176 289.49038 
L 278.2208 287.947596 
L 277.824 293.714908 
L 277.4272 293.596488 
L 277.0304 286.172628 
L 276.6336 290.425764 
L 276.2368 288.600235 
L 275.84 294.286383 
L 275.4432 293.147424 
L 275.0464 294.038899 
L 274.6496 289.630754 
L 274.2528 291.351833 
L 273.856 284.545354 
L 273.4592 291.893371 
L 273.0624 293.622434 
L 272.6656 292.383017 
L 272.2688 284.664439 
L 271.872 290.764391 
L 271.4752 293.210626 
L 271.0784 293.55258 
L 270.6816 292.213371 
L 270.2848 291.110337 
L 269.888 283.935292 
L 269.4912 290.918736 
L 269.0944 289.44381 
L 268.6976 287.383438 
L 268.3008 293.202642 
L 267.904 290.289381 
L 267.5072 289.602147 
L 267.1104 289.547594 
L 266.7136 292.972455 
L 266.3168 291.352499 
L 265.92 290.66726 
L 265.5232 292.289878 
L 265.1264 294.541186 
L 264.7296 290.510919 
L 264.3328 290.206886 
L 263.936 286.217202 
L 263.5392 283.986518 
L 263.1424 290.193581 
L 262.7456 290.662603 
L 262.3488 292.209379 
L 261.952 292.315159 
L 261.5552 290.602063 
L 261.1584 289.264185 
L 260.7616 286.668927 
L 260.3648 292.624514 
L 259.968 289.373291 
L 259.5712 289.469756 
L 259.1744 294.267756 
L 258.7776 290.510254 
L 258.3808 288.54036 
L 257.984 290.84622 
L 257.5872 289.804392 
L 257.1904 287.085393 
L 256.7936 285.488721 
L 256.3968 289.559569 
L 256 292.830085 
L 255.6032 290.844225 
L 255.2064 292.893287 
L 254.8096 290.814287 
L 254.4128 290.825597 
L 254.016 288.796493 
L 253.6192 289.385931 
L 253.2224 289.90751 
L 252.8256 292.262602 
L 252.4288 287.541775 
L 252.032 291.268008 
L 251.6352 289.522313 
L 251.2384 291.210794 
L 250.8416 288.033417 
L 250.4448 287.824519 
L 250.048 284.202734 
L 249.6512 284.008473 
L 249.2544 290.882146 
L 248.8576 288.666763 
L 248.4608 289.682646 
L 248.064 291.557405 
L 247.6672 290.474994 
L 247.2704 286.951006 
L 246.8736 287.91034 
L 246.4768 287.833167 
L 246.08 289.667344 
L 245.6832 291.16622 
L 245.2864 290.73778 
L 244.8896 291.857446 
L 244.4928 284.12157 
L 244.096 292.830085 
L 243.6992 287.408719 
L 243.3024 285.272505 
L 242.9056 284.976455 
L 242.5088 290.094454 
L 242.112 289.595494 
L 241.7152 287.850465 
L 241.3184 294.156654 
L 240.9216 288.556992 
L 240.5248 288.340111 
L 240.128 289.618114 
L 239.7312 282.568141 
L 239.3344 280.190431 
L 238.9376 285.780779 
L 238.5408 286.889135 
L 238.144 292.438236 
L 237.7472 291.642561 
L 237.3504 291.119651 
L 236.9536 293.609794 
L 236.5568 291.829504 
L 236.16 287.924976 
L 235.7632 290.520899 
L 235.3664 290.054537 
L 234.9696 283.789596 
L 234.5728 292.384348 
L 234.176 290.824932 
L 233.7792 284.338452 
L 233.3824 285.413544 
L 232.9856 282.122404 
L 232.5888 283.71708 
L 232.192 289.986013 
L 231.7952 289.05063 
L 231.3984 289.959402 
L 231.0016 291.500191 
L 230.6048 293.168713 
L 230.208 291.132291 
L 229.8112 290.097115 
L 229.4144 292.126219 
L 229.0176 285.56922 
L 228.6208 290.84622 
L 228.224 292.315824 
L 227.8272 292.799483 
L 227.4304 290.944682 
L 227.0336 292.493454 
L 226.6368 281.265523 
L 226.24 285.104854 
L 225.8432 290.840898 
L 225.4464 289.40722 
L 225.0496 288.072668 
L 224.6528 290.73911 
L 224.256 294.529876 
L 223.8592 289.275494 
L 223.4624 291.262686 
L 223.0656 287.966889 
L 222.6688 290.395826 
L 222.272 289.790421 
L 221.8752 285.692296 
L 221.4784 285.923148 
L 221.0816 290.582104 
L 220.6848 287.441317 
L 220.288 283.642569 
L 219.8912 290.576117 
L 219.4944 291.127634 
L 219.0976 290.612042 
L 218.7008 292.292539 
L 218.304 282.653297 
L 217.9072 283.308598 
L 217.5104 292.521396 
L 217.1136 293.288463 
L 216.7168 288.358739 
L 216.32 287.44797 
L 215.9232 284.970468 
L 215.5264 292.057695 
L 215.1296 283.418369 
L 214.7328 288.415287 
L 214.336 289.165058 
L 213.9392 282.815626 
L 213.5424 290.807634 
L 213.1456 290.084475 
L 212.7488 290.923393 
L 212.352 290.730462 
L 211.9552 283.309263 
L 211.5584 290.065847 
L 211.1616 285.130135 
L 210.7648 289.520317 
L 210.368 289.195661 
L 209.9712 283.156914 
L 209.5744 283.796914 
L 209.1776 289.99067 
L 208.7808 274.263451 
L 208.384 288.603562 
L 207.9872 289.64406 
L 207.5904 288.325475 
L 207.1936 280.922239 
L 206.7968 287.840485 
L 206.4 294.478649 
L 206.0032 292.91125 
L 205.6064 289.32406 
L 205.2096 290.107094 
L 204.8128 288.399986 
L 204.416 292.571292 
L 204.0192 293.933785 
L 203.6224 291.517488 
L 203.2256 290.140358 
L 202.8288 292.435574 
L 202.432 288.925557 
L 202.0352 286.428096 
L 201.6384 286.285726 
L 201.2416 279.346856 
L 200.8448 287.596328 
L 200.448 287.009551 
L 200.0512 283.254045 
L 199.6544 278.770723 
L 199.2576 290.911418 
L 198.8608 287.655538 
L 198.464 290.467676 
L 198.0672 292.634493 
L 197.6704 278.394175 
L 197.2736 284.35841 
L 196.8768 292.144182 
L 196.48 290.663934 
L 196.0832 288.498447 
L 195.6864 285.271839 
L 195.2896 286.766724 
L 194.8928 288.922896 
L 194.496 289.084559 
L 194.0992 288.726638 
L 193.7024 288.187096 
L 193.3056 295.224428 
L 192.9088 292.643142 
L 192.512 292.607882 
L 192.1152 276.373719 
L 191.7184 292.041729 
L 191.3216 286.552503 
L 190.9248 292.90127 
L 190.528 292.407633 
L 190.1312 290.528882 
L 189.7344 281.972716 
L 189.3376 289.89487 
L 188.9408 289.817032 
L 188.544 288.22036 
L 188.1472 288.214373 
L 187.7504 289.403893 
L 187.3536 289.474413 
L 186.9568 289.356659 
L 186.56 287.13795 
L 186.1632 284.92922 
L 185.7664 288.06535 
L 185.3696 278.627688 
L 184.9728 286.917742 
L 184.576 274.097131 
L 184.1792 278.5259 
L 183.7824 278.279747 
L 183.3856 288.747927 
L 182.9888 290.027261 
L 182.592 283.805562 
L 182.1952 290.882811 
L 181.7984 288.050049 
L 181.4016 288.589591 
L 181.0048 284.939865 
L 180.608 279.422698 
L 180.2112 290.373206 
L 179.8144 294.88314 
L 179.4176 290.64331 
L 179.0208 282.470345 
L 178.624 286.244479 
L 178.2272 286.674915 
L 177.8304 291.181522 
L 177.4336 291.043143 
L 177.0368 287.573043 
L 176.64 287.606307 
L 176.2432 289.734538 
L 175.8464 289.463769 
L 175.4496 287.584353 
L 175.0528 288.238988 
L 174.656 290.72647 
L 174.2592 278.968311 
L 173.8624 283.545438 
L 173.4656 280.721989 
L 173.0688 275.965903 
L 172.672 285.67633 
L 172.2752 276.927232 
L 171.8784 284.341113 
L 171.4816 289.627428 
L 171.0848 291.224765 
L 170.688 292.895283 
L 170.2912 288.384684 
L 169.8944 283.905354 
L 169.4976 286.644977 
L 169.1008 282.645314 
L 168.704 284.707017 
L 168.3072 288.478489 
L 167.9104 291.635908 
L 167.5136 288.513084 
L 167.1168 287.575704 
L 166.72 286.455372 
L 166.3232 288.458531 
L 165.9264 271.737383 
L 165.5296 285.112172 
L 165.1328 283.512839 
L 164.736 287.907013 
L 164.3392 288.467844 
L 163.9424 286.431422 
L 163.5456 289.202979 
L 163.1488 275.587358 
L 162.752 277.916504 
L 162.3552 282.176957 
L 161.9584 284.625852 
L 161.5616 267.439674 
L 161.1648 269.094226 
L 160.768 284.477495 
L 160.3712 278.371555 
L 159.9744 282.83891 
L 159.5776 288.062689 
L 159.1808 287.345517 
L 158.784 286.357576 
L 158.3872 287.795246 
L 157.9904 288.016119 
L 157.5936 268.850733 
L 157.1968 272.328152 
L 156.8 279.035505 
L 156.4032 276.006485 
L 156.0064 287.360819 
L 155.6096 288.411961 
L 155.2128 284.161487 
L 154.816 277.80008 
L 154.4192 283.631924 
L 154.0224 287.844477 
L 153.6256 287.112669 
L 153.2288 287.193833 
L 152.832 288.838405 
L 152.4352 285.462775 
L 152.0384 290.080483 
L 151.6416 287.730714 
L 151.2448 286.485975 
L 150.848 284.579283 
L 150.4512 280.40199 
L 150.0544 281.267519 
L 149.6576 282.129722 
L 149.2608 285.913835 
L 148.864 274.770395 
L 148.4672 287.978864 
L 148.0704 282.212217 
L 147.6736 288.251628 
L 147.2768 283.978535 
L 146.88 282.304025 
L 146.4832 286.41479 
L 146.0864 283.219451 
L 145.6896 279.501201 
L 145.2928 252.366425 
L 144.896 275.755674 
L 144.4992 289.826346 
L 144.1024 284.585936 
L 143.7056 286.49795 
L 143.3088 285.020364 
L 142.912 287.042149 
L 142.5152 286.277077 
L 142.1184 274.693887 
L 141.7216 273.49971 
L 141.3248 286.109427 
L 140.928 286.929052 
L 140.5312 281.749847 
L 140.1344 277.413552 
L 139.7376 279.755338 
L 139.3408 281.950096 
L 138.944 282.61205 
L 138.5472 278.307023 
L 138.1504 280.215711 
L 137.7536 277.261203 
L 137.3568 274.952681 
L 136.96 278.966316 
L 136.5632 276.375715 
L 136.1664 283.960572 
L 135.7696 285.694957 
L 135.3728 281.729223 
L 134.976 293.525303 
L 134.5792 288.20772 
L 134.1824 269.508695 
L 133.7856 274.160333 
L 133.3888 283.073089 
L 132.992 268.813477 
L 132.5952 269.393602 
L 132.1984 285.847972 
L 131.8016 283.812215 
L 131.4048 275.040498 
L 131.008 286.964312 
L 130.6112 287.676827 
L 130.2144 285.785436 
L 129.8176 275.321912 
L 129.4208 285.129469 
L 129.024 267.10903 
L 128.6272 269.494724 
L 128.2304 287.029509 
L 127.8336 286.253127 
L 127.4368 279.235089 
L 127.04 288.300194 
L 126.6432 273.958088 
L 126.2464 288.807137 
L 125.8496 288.507761 
L 125.4528 289.936117 
L 125.056 287.829841 
L 124.6592 286.695539 
L 124.2624 286.219863 
L 123.8656 266.329322 
L 123.4688 271.981541 
L 123.072 275.42503 
L 122.6752 282.518245 
L 122.2784 278.640328 
L 121.8816 272.504451 
L 121.4848 274.525572 
L 121.088 276.694384 
L 120.6912 274.268108 
L 120.2944 287.03217 
L 119.8976 271.290315 
L 119.5008 281.822363 
L 119.104 287.741359 
L 118.7072 287.453292 
L 118.3104 279.161243 
L 117.9136 277.90719 
L 117.5168 278.01563 
L 117.12 269.91252 
L 116.7232 268.464205 
L 116.3264 281.09122 
L 115.9296 281.524982 
L 115.5328 288.189092 
L 115.136 279.860452 
L 114.7392 281.322737 
L 114.3424 288.153167 
L 113.9456 292.951166 
L 113.5488 284.431591 
L 113.152 277.02769 
L 112.7552 283.940614 
L 112.3584 284.613877 
L 111.9616 281.930803 
L 111.5648 289.054621 
L 111.168 292.5673 
L 110.7712 288.222356 
L 110.3744 273.069274 
L 109.9776 281.380617 
L 109.5808 289.08722 
L 109.184 285.145436 
L 108.7872 289.567552 
L 108.3904 286.843231 
L 107.9936 271.43335 
L 107.5968 270.093476 
L 107.2 270.998922 
L 106.8032 279.641575 
L 106.4064 273.319419 
L 106.0096 276.01979 
L 105.6128 259.259391 
L 105.216 283.379783 
L 104.8192 281.415876 
L 104.4224 288.64614 
L 104.0256 290.282063 
L 103.6288 281.331386 
L 103.232 287.193833 
L 102.8352 289.642729 
L 102.4384 282.318661 
L 102.0416 291.701105 
L 101.6448 287.129966 
L 101.248 285.895872 
L 100.8512 284.599907 
L 100.4544 285.456122 
L 100.0576 277.282492 
L 99.6608 287.388095 
L 99.264 283.580032 
L 98.8672 288.542356 
L 98.4704 282.763734 
L 98.0736 281.157748 
L 97.6768 285.314417 
L 97.28 281.968059 
L 96.8832 286.546516 
L 96.4864 292.548672 
L 96.0896 284.473503 
L 95.6928 278.13272 
L 95.296 286.134042 
L 94.8992 286.744769 
L 94.5024 286.27242 
L 94.1056 282.1244 
L 93.7088 284.84606 
L 93.312 276.121578 
L 92.9152 275.133637 
L 92.5184 283.548764 
L 92.1216 280.151844 
L 91.7248 281.42519 
L 91.328 288.428593 
L 90.9312 282.828931 
L 90.5344 289.774454 
L 90.1376 284.475499 
L 89.7408 287.187846 
L 89.344 284.800821 
L 88.9472 287.851795 
L 88.5504 281.765148 
L 88.1536 283.566061 
L 87.7568 288.58826 
L 87.36 286.167306 
L 86.9632 287.734706 
L 86.5664 293.054285 
L 86.1696 285.267182 
L 85.7728 284.025105 
L 85.376 280.941532 
L 84.9792 288.994081 
L 84.5824 291.405721 
L 84.1856 287.311588 
L 83.7888 286.951006 
L 83.392 289.909506 
L 82.9952 284.503441 
L 82.5984 287.035497 
L 82.2016 288.151171 
L 81.8048 279.953591 
L 81.408 287.383438 
L 81.0112 291.661854 
L 80.6144 283.581363 
L 80.2176 285.881236 
L 79.8208 288.581607 
L 79.424 292.474826 
L 79.0272 288.673416 
L 78.6304 288.43458 
L 78.2336 289.558904 
L 77.8368 283.532132 
L 77.44 282.899451 
L 77.0432 286.412129 
L 76.6464 290.914744 
L 76.2496 285.625103 
L 75.8528 285.531299 
L 75.456 285.07159 
L 75.0592 286.335622 
L 74.6624 286.216537 
L 74.2656 290.317988 
L 73.8688 290.097115 
L 73.472 287.082066 
L 73.0752 287.80456 
L 72.6784 290.172957 
L 72.2816 287.736036 
L 71.8848 288.324809 
L 71.488 290.623352 
L 71.0912 290.804308 
L 70.6944 292.361728 
L 70.2976 291.60464 
L 69.9008 287.978198 
L 69.504 291.859442 
L 69.1072 289.198987 
L 68.7104 289.43117 
L 68.3136 288.455869 
L 67.9168 289.698612 
L 67.52 294.237153 
L 67.1232 293.531291 
L 66.7264 292.201396 
L 66.3296 292.096282 
L 65.9328 290.015286 
L 65.536 295.509833 
L 65.1392 290.167635 
L 64.7424 289.772459 
L 64.3456 294.640978 
L 63.9488 296.187754 
L 63.552 292.675075 
L 63.1552 294.521892 
L 62.7584 294.414117 
L 62.3616 300.507417 
L 61.9648 304.124544 
L 61.568 294.340936 
L 61.1712 303.676811 
L 60.7744 301.45278 
L 60.3776 304.269575 
L 59.9808 303.573692 
L 59.584 302.663589 
L 59.1872 301.543258 
L 58.7904 298.372533 
L 58.3936 300.575275 
L 57.9968 293.281145 
z
" style="fill:#1f77b4;fill-opacity:0.25;"/>
   </g>
   <g id="matplotlib.axis_1">
    <g id="xtick_1">
     <g id="line2d_1">
      <defs>
       <path d="M 0 0 
L 0 4.8 
" id="mb577804383" style="stroke:#000000;"/>
      </defs>
      <g>
       <use style="stroke:#000000;" x="57.6" xlink:href="#mb577804383" y="307.584"/>
      </g>
     </g>
     <g id="text_1">
      <!-- 0 -->
      <g transform="translate(54.8005 322.570625)scale(0.088 -0.088)">
       <defs>
        <path d="M 2034 4250 
Q 1547 4250 1301 3770 
Q 1056 3291 1056 2328 
Q 1056 1369 1301 889 
Q 1547 409 2034 409 
Q 2525 409 2770 889 
Q 3016 1369 3016 2328 
Q 3016 3291 2770 3770 
Q 2525 4250 2034 4250 
z
M 2034 4750 
Q 2819 4750 3233 4129 
Q 3647 3509 3647 2328 
Q 3647 1150 3233 529 
Q 2819 -91 2034 -91 
Q 1250 -91 836 529 
Q 422 1150 422 2328 
Q 422 3509 836 4129 
Q 1250 4750 2034 4750 
z
" id="DejaVuSans-30" transform="scale(0.015625)"/>
       </defs>
       <use xlink:href="#DejaVuSans-30"/>
      </g>
     </g>
    </g>
    <g id="xtick_2">
     <g id="line2d_2">
      <g>
       <use style="stroke:#000000;" x="97.28" xlink:href="#mb577804383" y="307.584"/>
      </g>
     </g>
     <g id="text_2">
      <!-- 100 -->
      <g transform="translate(88.8815 322.570625)scale(0.088 -0.088)">
       <defs>
        <path d="M 794 531 
L 1825 531 
L 1825 4091 
L 703 3866 
L 703 4441 
L 1819 4666 
L 2450 4666 
L 2450 531 
L 3481 531 
L 3481 0 
L 794 0 
L 794 531 
z
" id="DejaVuSans-31" transform="scale(0.015625)"/>
       </defs>
       <use xlink:href="#DejaVuSans-31"/>
       <use x="63.623047" xlink:href="#DejaVuSans-30"/>
       <use x="127.246094" xlink:href="#DejaVuSans-30"/>
      </g>
     </g>
    </g>
    <g id="xtick_3">
     <g id="line2d_3">
      <g>
       <use style="stroke:#000000;" x="136.96" xlink:href="#mb577804383" y="307.584"/>
      </g>
     </g>
     <g id="text_3">
      <!-- 200 -->
      <g transform="translate(128.5615 322.570625)scale(0.088 -0.088)">
       <defs>
        <path d="M 1228 531 
L 3431 531 
L 3431 0 
L 469 0 
L 469 531 
Q 828 903 1448 1529 
Q 2069 2156 2228 2338 
Q 2531 2678 2651 2914 
Q 2772 3150 2772 3378 
Q 2772 3750 2511 3984 
Q 2250 4219 1831 4219 
Q 1534 4219 1204 4116 
Q 875 4013 500 3803 
L 500 4441 
Q 881 4594 1212 4672 
Q 1544 4750 1819 4750 
Q 2544 4750 2975 4387 
Q 3406 4025 3406 3419 
Q 3406 3131 3298 2873 
Q 3191 2616 2906 2266 
Q 2828 2175 2409 1742 
Q 1991 1309 1228 531 
z
" id="DejaVuSans-32" transform="scale(0.015625)"/>
       </defs>
       <use xlink:href="#DejaVuSans-32"/>
       <use x="63.623047" xlink:href="#DejaVuSans-30"/>
       <use x="127.246094" xlink:href="#DejaVuSans-30"/>
      </g>
     </g>
    </g>
    <g id="xtick_4">
     <g id="line2d_4">
      <g>
       <use style="stroke:#000000;" x="176.64" xlink:href="#mb577804383" y="307.584"/>
      </g>
     </g>
     <g id="text_4">
      <!-- 300 -->
      <g transform="translate(168.2415 322.570625)scale(0.088 -0.088)">
       <defs>
        <path d="M 2597 2516 
Q 3050 2419 3304 2112 
Q 3559 1806 3559 1356 
Q 3559 666 3084 287 
Q 2609 -91 1734 -91 
Q 1441 -91 1130 -33 
Q 819 25 488 141 
L 488 750 
Q 750 597 1062 519 
Q 1375 441 1716 441 
Q 2309 441 2620 675 
Q 2931 909 2931 1356 
Q 2931 1769 2642 2001 
Q 2353 2234 1838 2234 
L 1294 2234 
L 1294 2753 
L 1863 2753 
Q 2328 2753 2575 2939 
Q 2822 3125 2822 3475 
Q 2822 3834 2567 4026 
Q 2313 4219 1838 4219 
Q 1578 4219 1281 4162 
Q 984 4106 628 3988 
L 628 4550 
Q 988 4650 1302 4700 
Q 1616 4750 1894 4750 
Q 2613 4750 3031 4423 
Q 3450 4097 3450 3541 
Q 3450 3153 3228 2886 
Q 3006 2619 2597 2516 
z
" id="DejaVuSans-33" transform="scale(0.015625)"/>
       </defs>
       <use xlink:href="#DejaVuSans-33"/>
       <use x="63.623047" xlink:href="#DejaVuSans-30"/>
       <use x="127.246094" xlink:href="#DejaVuSans-30"/>
      </g>
     </g>
    </g>
    <g id="xtick_5">
     <g id="line2d_5">
      <g>
       <use style="stroke:#000000;" x="216.32" xlink:href="#mb577804383" y="307.584"/>
      </g>
     </g>
     <g id="text_5">
      <!-- 400 -->
      <g transform="translate(207.9215 322.570625)scale(0.088 -0.088)">
       <defs>
        <path d="M 2419 4116 
L 825 1625 
L 2419 1625 
L 2419 4116 
z
M 2253 4666 
L 3047 4666 
L 3047 1625 
L 3713 1625 
L 3713 1100 
L 3047 1100 
L 3047 0 
L 2419 0 
L 2419 1100 
L 313 1100 
L 313 1709 
L 2253 4666 
z
" id="DejaVuSans-34" transform="scale(0.015625)"/>
       </defs>
       <use xlink:href="#DejaVuSans-34"/>
       <use x="63.623047" xlink:href="#DejaVuSans-30"/>
       <use x="127.246094" xlink:href="#DejaVuSans-30"/>
      </g>
     </g>
    </g>
    <g id="xtick_6">
     <g id="line2d_6">
      <g>
       <use style="stroke:#000000;" x="256" xlink:href="#mb577804383" y="307.584"/>
      </g>
     </g>
     <g id="text_6">
      <!-- 500 -->
      <g transform="translate(247.6015 322.570625)scale(0.088 -0.088)">
       <defs>
        <path d="M 691 4666 
L 3169 4666 
L 3169 4134 
L 1269 4134 
L 1269 2991 
Q 1406 3038 1543 3061 
Q 1681 3084 1819 3084 
Q 2600 3084 3056 2656 
Q 3513 2228 3513 1497 
Q 3513 744 3044 326 
Q 2575 -91 1722 -91 
Q 1428 -91 1123 -41 
Q 819 9 494 109 
L 494 744 
Q 775 591 1075 516 
Q 1375 441 1709 441 
Q 2250 441 2565 725 
Q 2881 1009 2881 1497 
Q 2881 1984 2565 2268 
Q 2250 2553 1709 2553 
Q 1456 2553 1204 2497 
Q 953 2441 691 2322 
L 691 4666 
z
" id="DejaVuSans-35" transform="scale(0.015625)"/>
       </defs>
       <use xlink:href="#DejaVuSans-35"/>
       <use x="63.623047" xlink:href="#DejaVuSans-30"/>
       <use x="127.246094" xlink:href="#DejaVuSans-30"/>
      </g>
     </g>
    </g>
    <g id="xtick_7">
     <g id="line2d_7">
      <g>
       <use style="stroke:#000000;" x="295.68" xlink:href="#mb577804383" y="307.584"/>
      </g>
     </g>
     <g id="text_7">
      <!-- 600 -->
      <g transform="translate(287.2815 322.570625)scale(0.088 -0.088)">
       <defs>
        <path d="M 2113 2584 
Q 1688 2584 1439 2293 
Q 1191 2003 1191 1497 
Q 1191 994 1439 701 
Q 1688 409 2113 409 
Q 2538 409 2786 701 
Q 3034 994 3034 1497 
Q 3034 2003 2786 2293 
Q 2538 2584 2113 2584 
z
M 3366 4563 
L 3366 3988 
Q 3128 4100 2886 4159 
Q 2644 4219 2406 4219 
Q 1781 4219 1451 3797 
Q 1122 3375 1075 2522 
Q 1259 2794 1537 2939 
Q 1816 3084 2150 3084 
Q 2853 3084 3261 2657 
Q 3669 2231 3669 1497 
Q 3669 778 3244 343 
Q 2819 -91 2113 -91 
Q 1303 -91 875 529 
Q 447 1150 447 2328 
Q 447 3434 972 4092 
Q 1497 4750 2381 4750 
Q 2619 4750 2861 4703 
Q 3103 4656 3366 4563 
z
" id="DejaVuSans-36" transform="scale(0.015625)"/>
       </defs>
       <use xlink:href="#DejaVuSans-36"/>
       <use x="63.623047" xlink:href="#DejaVuSans-30"/>
       <use x="127.246094" xlink:href="#DejaVuSans-30"/>
      </g>
     </g>
    </g>
    <g id="xtick_8">
     <g id="line2d_8">
      <g>
       <use style="stroke:#000000;" x="335.36" xlink:href="#mb577804383" y="307.584"/>
      </g>
     </g>
     <g id="text_8">
      <!-- 700 -->
      <g transform="translate(326.9615 322.570625)scale(0.088 -0.088)">
       <defs>
        <path d="M 525 4666 
L 3525 4666 
L 3525 4397 
L 1831 0 
L 1172 0 
L 2766 4134 
L 525 4134 
L 525 4666 
z
" id="DejaVuSans-37" transform="scale(0.015625)"/>
       </defs>
       <use xlink:href="#DejaVuSans-37"/>
       <use x="63.623047" xlink:href="#DejaVuSans-30"/>
       <use x="127.246094" xlink:href="#DejaVuSans-30"/>
      </g>
     </g>
    </g>
    <g id="xtick_9">
     <g id="line2d_9">
      <g>
       <use style="stroke:#000000;" x="375.04" xlink:href="#mb577804383" y="307.584"/>
      </g>
     </g>
     <g id="text_9">
      <!-- 800 -->
      <g transform="translate(366.6415 322.570625)scale(0.088 -0.088)">
       <defs>
        <path d="M 2034 2216 
Q 1584 2216 1326 1975 
Q 1069 1734 1069 1313 
Q 1069 891 1326 650 
Q 1584 409 2034 409 
Q 2484 409 2743 651 
Q 3003 894 3003 1313 
Q 3003 1734 2745 1975 
Q 2488 2216 2034 2216 
z
M 1403 2484 
Q 997 2584 770 2862 
Q 544 3141 544 3541 
Q 544 4100 942 4425 
Q 1341 4750 2034 4750 
Q 2731 4750 3128 4425 
Q 3525 4100 3525 3541 
Q 3525 3141 3298 2862 
Q 3072 2584 2669 2484 
Q 3125 2378 3379 2068 
Q 3634 1759 3634 1313 
Q 3634 634 3220 271 
Q 2806 -91 2034 -91 
Q 1263 -91 848 271 
Q 434 634 434 1313 
Q 434 1759 690 2068 
Q 947 2378 1403 2484 
z
M 1172 3481 
Q 1172 3119 1398 2916 
Q 1625 2713 2034 2713 
Q 2441 2713 2670 2916 
Q 2900 3119 2900 3481 
Q 2900 3844 2670 4047 
Q 2441 4250 2034 4250 
Q 1625 4250 1398 4047 
Q 1172 3844 1172 3481 
z
" id="DejaVuSans-38" transform="scale(0.015625)"/>
       </defs>
       <use xlink:href="#DejaVuSans-38"/>
       <use x="63.623047" xlink:href="#DejaVuSans-30"/>
       <use x="127.246094" xlink:href="#DejaVuSans-30"/>
      </g>
     </g>
    </g>
    <g id="xtick_10">
     <g id="line2d_10">
      <g>
       <use style="stroke:#000000;" x="414.72" xlink:href="#mb577804383" y="307.584"/>
      </g>
     </g>
     <g id="text_10">
      <!-- 900 -->
      <g transform="translate(406.3215 322.570625)scale(0.088 -0.088)">
       <defs>
        <path d="M 703 97 
L 703 672 
Q 941 559 1184 500 
Q 1428 441 1663 441 
Q 2288 441 2617 861 
Q 2947 1281 2994 2138 
Q 2813 1869 2534 1725 
Q 2256 1581 1919 1581 
Q 1219 1581 811 2004 
Q 403 2428 403 3163 
Q 403 3881 828 4315 
Q 1253 4750 1959 4750 
Q 2769 4750 3195 4129 
Q 3622 3509 3622 2328 
Q 3622 1225 3098 567 
Q 2575 -91 1691 -91 
Q 1453 -91 1209 -44 
Q 966 3 703 97 
z
M 1959 2075 
Q 2384 2075 2632 2365 
Q 2881 2656 2881 3163 
Q 2881 3666 2632 3958 
Q 2384 4250 1959 4250 
Q 1534 4250 1286 3958 
Q 1038 3666 1038 3163 
Q 1038 2656 1286 2365 
Q 1534 2075 1959 2075 
z
" id="DejaVuSans-39" transform="scale(0.015625)"/>
       </defs>
       <use xlink:href="#DejaVuSans-39"/>
       <use x="63.623047" xlink:href="#DejaVuSans-30"/>
       <use x="127.246094" xlink:href="#DejaVuSans-30"/>
      </g>
     </g>
    </g>
    <g id="text_11">
     <!-- Timestep -->
     <g transform="translate(214.03275 335.69525)scale(0.096 -0.096)">
      <defs>
       <path d="M -19 4666 
L 3928 4666 
L 3928 4134 
L 2272 4134 
L 2272 0 
L 1638 0 
L 1638 4134 
L -19 4134 
L -19 4666 
z
" id="DejaVuSans-54" transform="scale(0.015625)"/>
       <path d="M 603 3500 
L 1178 3500 
L 1178 0 
L 603 0 
L 603 3500 
z
M 603 4863 
L 1178 4863 
L 1178 4134 
L 603 4134 
L 603 4863 
z
" id="DejaVuSans-69" transform="scale(0.015625)"/>
       <path d="M 3328 2828 
Q 3544 3216 3844 3400 
Q 4144 3584 4550 3584 
Q 5097 3584 5394 3201 
Q 5691 2819 5691 2113 
L 5691 0 
L 5113 0 
L 5113 2094 
Q 5113 2597 4934 2840 
Q 4756 3084 4391 3084 
Q 3944 3084 3684 2787 
Q 3425 2491 3425 1978 
L 3425 0 
L 2847 0 
L 2847 2094 
Q 2847 2600 2669 2842 
Q 2491 3084 2119 3084 
Q 1678 3084 1418 2786 
Q 1159 2488 1159 1978 
L 1159 0 
L 581 0 
L 581 3500 
L 1159 3500 
L 1159 2956 
Q 1356 3278 1631 3431 
Q 1906 3584 2284 3584 
Q 2666 3584 2933 3390 
Q 3200 3197 3328 2828 
z
" id="DejaVuSans-6d" transform="scale(0.015625)"/>
       <path d="M 3597 1894 
L 3597 1613 
L 953 1613 
Q 991 1019 1311 708 
Q 1631 397 2203 397 
Q 2534 397 2845 478 
Q 3156 559 3463 722 
L 3463 178 
Q 3153 47 2828 -22 
Q 2503 -91 2169 -91 
Q 1331 -91 842 396 
Q 353 884 353 1716 
Q 353 2575 817 3079 
Q 1281 3584 2069 3584 
Q 2775 3584 3186 3129 
Q 3597 2675 3597 1894 
z
M 3022 2063 
Q 3016 2534 2758 2815 
Q 2500 3097 2075 3097 
Q 1594 3097 1305 2825 
Q 1016 2553 972 2059 
L 3022 2063 
z
" id="DejaVuSans-65" transform="scale(0.015625)"/>
       <path d="M 2834 3397 
L 2834 2853 
Q 2591 2978 2328 3040 
Q 2066 3103 1784 3103 
Q 1356 3103 1142 2972 
Q 928 2841 928 2578 
Q 928 2378 1081 2264 
Q 1234 2150 1697 2047 
L 1894 2003 
Q 2506 1872 2764 1633 
Q 3022 1394 3022 966 
Q 3022 478 2636 193 
Q 2250 -91 1575 -91 
Q 1294 -91 989 -36 
Q 684 19 347 128 
L 347 722 
Q 666 556 975 473 
Q 1284 391 1588 391 
Q 1994 391 2212 530 
Q 2431 669 2431 922 
Q 2431 1156 2273 1281 
Q 2116 1406 1581 1522 
L 1381 1569 
Q 847 1681 609 1914 
Q 372 2147 372 2553 
Q 372 3047 722 3315 
Q 1072 3584 1716 3584 
Q 2034 3584 2315 3537 
Q 2597 3491 2834 3397 
z
" id="DejaVuSans-73" transform="scale(0.015625)"/>
       <path d="M 1172 4494 
L 1172 3500 
L 2356 3500 
L 2356 3053 
L 1172 3053 
L 1172 1153 
Q 1172 725 1289 603 
Q 1406 481 1766 481 
L 2356 481 
L 2356 0 
L 1766 0 
Q 1100 0 847 248 
Q 594 497 594 1153 
L 594 3053 
L 172 3053 
L 172 3500 
L 594 3500 
L 594 4494 
L 1172 4494 
z
" id="DejaVuSans-74" transform="scale(0.015625)"/>
       <path d="M 1159 525 
L 1159 -1331 
L 581 -1331 
L 581 3500 
L 1159 3500 
L 1159 2969 
Q 1341 3281 1617 3432 
Q 1894 3584 2278 3584 
Q 2916 3584 3314 3078 
Q 3713 2572 3713 1747 
Q 3713 922 3314 415 
Q 2916 -91 2278 -91 
Q 1894 -91 1617 61 
Q 1341 213 1159 525 
z
M 3116 1747 
Q 3116 2381 2855 2742 
Q 2594 3103 2138 3103 
Q 1681 3103 1420 2742 
Q 1159 2381 1159 1747 
Q 1159 1113 1420 752 
Q 1681 391 2138 391 
Q 2594 391 2855 752 
Q 3116 1113 3116 1747 
z
" id="DejaVuSans-70" transform="scale(0.015625)"/>
      </defs>
      <use xlink:href="#DejaVuSans-54"/>
      <use x="57.958984" xlink:href="#DejaVuSans-69"/>
      <use x="85.742188" xlink:href="#DejaVuSans-6d"/>
      <use x="183.154297" xlink:href="#DejaVuSans-65"/>
      <use x="244.677734" xlink:href="#DejaVuSans-73"/>
      <use x="296.777344" xlink:href="#DejaVuSans-74"/>
      <use x="335.986328" xlink:href="#DejaVuSans-65"/>
      <use x="397.509766" xlink:href="#DejaVuSans-70"/>
     </g>
    </g>
   </g>
   <g id="matplotlib.axis_2">
    <g id="ytick_1">
     <g id="line2d_11">
      <defs>
       <path d="M 0 0 
L -4.8 0 
" id="md32c1e141f" style="stroke:#000000;"/>
      </defs>
      <g>
       <use style="stroke:#000000;" x="57.6" xlink:href="#md32c1e141f" y="307.584"/>
      </g>
     </g>
     <g id="text_12">
      <!-- 0 -->
      <g transform="translate(43.701 310.927312)scale(0.088 -0.088)">
       <use xlink:href="#DejaVuSans-30"/>
      </g>
     </g>
    </g>
    <g id="ytick_2">
     <g id="line2d_12">
      <g>
       <use style="stroke:#000000;" x="57.6" xlink:href="#md32c1e141f" y="254.3616"/>
      </g>
     </g>
     <g id="text_13">
      <!-- 200 -->
      <g transform="translate(32.503 257.704912)scale(0.088 -0.088)">
       <use xlink:href="#DejaVuSans-32"/>
       <use x="63.623047" xlink:href="#DejaVuSans-30"/>
       <use x="127.246094" xlink:href="#DejaVuSans-30"/>
      </g>
     </g>
    </g>
    <g id="ytick_3">
     <g id="line2d_13">
      <g>
       <use style="stroke:#000000;" x="57.6" xlink:href="#md32c1e141f" y="201.1392"/>
      </g>
     </g>
     <g id="text_14">
      <!-- 400 -->
      <g transform="translate(32.503 204.482512)scale(0.088 -0.088)">
       <use xlink:href="#DejaVuSans-34"/>
       <use x="63.623047" xlink:href="#DejaVuSans-30"/>
       <use x="127.246094" xlink:href="#DejaVuSans-30"/>
      </g>
     </g>
    </g>
    <g id="ytick_4">
     <g id="line2d_14">
      <g>
       <use style="stroke:#000000;" x="57.6" xlink:href="#md32c1e141f" y="147.9168"/>
      </g>
     </g>
     <g id="text_15">
      <!-- 600 -->
      <g transform="translate(32.503 151.260112)scale(0.088 -0.088)">
       <use xlink:href="#DejaVuSans-36"/>
       <use x="63.623047" xlink:href="#DejaVuSans-30"/>
       <use x="127.246094" xlink:href="#DejaVuSans-30"/>
      </g>
     </g>
    </g>
    <g id="ytick_5">
     <g id="line2d_15">
      <g>
       <use style="stroke:#000000;" x="57.6" xlink:href="#md32c1e141f" y="94.6944"/>
      </g>
     </g>
     <g id="text_16">
      <!-- 800 -->
      <g transform="translate(32.503 98.037712)scale(0.088 -0.088)">
       <use xlink:href="#DejaVuSans-38"/>
       <use x="63.623047" xlink:href="#DejaVuSans-30"/>
       <use x="127.246094" xlink:href="#DejaVuSans-30"/>
      </g>
     </g>
    </g>
    <g id="ytick_6">
     <g id="line2d_16">
      <g>
       <use style="stroke:#000000;" x="57.6" xlink:href="#md32c1e141f" y="41.472"/>
      </g>
     </g>
     <g id="text_17">
      <!-- 1000 -->
      <g transform="translate(26.904 44.815313)scale(0.088 -0.088)">
       <use xlink:href="#DejaVuSans-31"/>
       <use x="63.623047" xlink:href="#DejaVuSans-30"/>
       <use x="127.246094" xlink:href="#DejaVuSans-30"/>
       <use x="190.869141" xlink:href="#DejaVuSans-30"/>
      </g>
     </g>
    </g>
    <g id="text_18">
     <!-- Reward -->
     <g transform="translate(20.9075 192.40425)rotate(-90)scale(0.096 -0.096)">
      <defs>
       <path d="M 2841 2188 
Q 3044 2119 3236 1894 
Q 3428 1669 3622 1275 
L 4263 0 
L 3584 0 
L 2988 1197 
Q 2756 1666 2539 1819 
Q 2322 1972 1947 1972 
L 1259 1972 
L 1259 0 
L 628 0 
L 628 4666 
L 2053 4666 
Q 2853 4666 3247 4331 
Q 3641 3997 3641 3322 
Q 3641 2881 3436 2590 
Q 3231 2300 2841 2188 
z
M 1259 4147 
L 1259 2491 
L 2053 2491 
Q 2509 2491 2742 2702 
Q 2975 2913 2975 3322 
Q 2975 3731 2742 3939 
Q 2509 4147 2053 4147 
L 1259 4147 
z
" id="DejaVuSans-52" transform="scale(0.015625)"/>
       <path d="M 269 3500 
L 844 3500 
L 1563 769 
L 2278 3500 
L 2956 3500 
L 3675 769 
L 4391 3500 
L 4966 3500 
L 4050 0 
L 3372 0 
L 2619 2869 
L 1863 0 
L 1184 0 
L 269 3500 
z
" id="DejaVuSans-77" transform="scale(0.015625)"/>
       <path d="M 2194 1759 
Q 1497 1759 1228 1600 
Q 959 1441 959 1056 
Q 959 750 1161 570 
Q 1363 391 1709 391 
Q 2188 391 2477 730 
Q 2766 1069 2766 1631 
L 2766 1759 
L 2194 1759 
z
M 3341 1997 
L 3341 0 
L 2766 0 
L 2766 531 
Q 2569 213 2275 61 
Q 1981 -91 1556 -91 
Q 1019 -91 701 211 
Q 384 513 384 1019 
Q 384 1609 779 1909 
Q 1175 2209 1959 2209 
L 2766 2209 
L 2766 2266 
Q 2766 2663 2505 2880 
Q 2244 3097 1772 3097 
Q 1472 3097 1187 3025 
Q 903 2953 641 2809 
L 641 3341 
Q 956 3463 1253 3523 
Q 1550 3584 1831 3584 
Q 2591 3584 2966 3190 
Q 3341 2797 3341 1997 
z
" id="DejaVuSans-61" transform="scale(0.015625)"/>
       <path d="M 2631 2963 
Q 2534 3019 2420 3045 
Q 2306 3072 2169 3072 
Q 1681 3072 1420 2755 
Q 1159 2438 1159 1844 
L 1159 0 
L 581 0 
L 581 3500 
L 1159 3500 
L 1159 2956 
Q 1341 3275 1631 3429 
Q 1922 3584 2338 3584 
Q 2397 3584 2469 3576 
Q 2541 3569 2628 3553 
L 2631 2963 
z
" id="DejaVuSans-72" transform="scale(0.015625)"/>
       <path d="M 2906 2969 
L 2906 4863 
L 3481 4863 
L 3481 0 
L 2906 0 
L 2906 525 
Q 2725 213 2448 61 
Q 2172 -91 1784 -91 
Q 1150 -91 751 415 
Q 353 922 353 1747 
Q 353 2572 751 3078 
Q 1150 3584 1784 3584 
Q 2172 3584 2448 3432 
Q 2725 3281 2906 2969 
z
M 947 1747 
Q 947 1113 1208 752 
Q 1469 391 1925 391 
Q 2381 391 2643 752 
Q 2906 1113 2906 1747 
Q 2906 2381 2643 2742 
Q 2381 3103 1925 3103 
Q 1469 3103 1208 2742 
Q 947 2381 947 1747 
z
" id="DejaVuSans-64" transform="scale(0.015625)"/>
      </defs>
      <use xlink:href="#DejaVuSans-52"/>
      <use x="64.982422" xlink:href="#DejaVuSans-65"/>
      <use x="126.505859" xlink:href="#DejaVuSans-77"/>
      <use x="208.292969" xlink:href="#DejaVuSans-61"/>
      <use x="269.572266" xlink:href="#DejaVuSans-72"/>
      <use x="308.935547" xlink:href="#DejaVuSans-64"/>
     </g>
    </g>
   </g>
   <g id="line2d_17">
    <path clip-path="url(#p1f181ddddf)" d="M 57.9968 303.789243 
L 58.3936 303.676145 
L 58.7904 304.981425 
L 59.1872 304.191072 
L 59.584 304.587579 
L 59.9808 305.248867 
L 60.3776 305.171695 
L 60.7744 304.225667 
L 61.1712 304.196394 
L 61.568 299.993155 
L 61.9648 305.506996 
L 62.3616 304.151155 
L 62.7584 304.320136 
L 63.1552 304.364045 
L 63.552 295.77528 
L 63.9488 304.325459 
L 64.3456 300.64513 
L 64.7424 300.43224 
L 65.1392 300.735608 
L 65.536 300.554652 
L 65.9328 297.620767 
L 66.3296 297.720559 
L 66.7264 298.3406 
L 67.1232 304.274897 
L 67.52 300.268581 
L 67.9168 291.719733 
L 68.7104 300.426918 
L 69.1072 296.600227 
L 69.504 297.566214 
L 69.9008 296.411288 
L 70.2976 298.639976 
L 70.6944 298.528209 
L 71.0912 298.705173 
L 71.488 294.568462 
L 71.8848 295.270998 
L 72.2816 293.555906 
L 72.6784 296.20239 
L 73.0752 293.510667 
L 73.472 294.392828 
L 73.8688 299.512823 
L 74.2656 293.915157 
L 75.0592 289.775785 
L 75.456 287.879737 
L 75.8528 289.041316 
L 76.2496 292.830751 
L 76.6464 294.187922 
L 77.44 287.15059 
L 78.2336 292.581936 
L 79.0272 299.941263 
L 79.8208 295.393409 
L 80.2176 294.399481 
L 80.6144 292.438236 
L 81.0112 297.087212 
L 81.8048 289.726554 
L 82.2016 297.481058 
L 82.5984 295.18052 
L 82.9952 289.511004 
L 83.392 291.8315 
L 83.7888 292.049712 
L 84.1856 292.016448 
L 84.5824 297.457108 
L 84.9792 291.468257 
L 85.376 293.404222 
L 85.7728 290.068508 
L 86.1696 296.685383 
L 86.5664 300.445546 
L 86.9632 291.49886 
L 87.36 287.497866 
L 87.7568 292.456863 
L 88.1536 294.748088 
L 88.5504 287.855787 
L 88.9472 289.775785 
L 89.344 290.077822 
L 89.7408 289.404559 
L 90.1376 290.039236 
L 90.5344 300.24197 
L 90.9312 289.830338 
L 91.328 289.368634 
L 91.7248 286.570466 
L 92.1216 288.800484 
L 92.5184 297.184343 
L 92.9152 288.558323 
L 93.312 285.529968 
L 93.7088 289.952749 
L 94.1056 290.655285 
L 94.5024 291.840814 
L 94.8992 291.489546 
L 95.296 289.078572 
L 95.6928 289.071919 
L 96.0896 291.723725 
L 96.4864 295.578357 
L 96.8832 289.361981 
L 97.28 285.789427 
L 97.6768 286.779364 
L 98.0736 292.217363 
L 98.4704 293.51732 
L 98.8672 303.887704 
L 99.264 292.031084 
L 99.6608 290.482312 
L 100.0576 281.962737 
L 100.4544 290.936033 
L 100.8512 289.821024 
L 101.248 290.28672 
L 101.6448 290.02593 
L 102.0416 300.17012 
L 102.4384 290.080483 
L 102.8352 293.642392 
L 103.232 289.346014 
L 103.6288 288.83774 
L 104.0256 294.036238 
L 104.4224 293.96971 
L 104.8192 289.545598 
L 105.216 288.450547 
L 105.6128 280.574963 
L 106.0096 286.543855 
L 106.4064 280.714671 
L 106.8032 288.310838 
L 107.2 282.329971 
L 107.5968 286.096787 
L 107.9936 284.050385 
L 108.3904 293.340355 
L 108.7872 294.890458 
L 109.184 289.699943 
L 109.5808 290.061855 
L 109.9776 289.065266 
L 110.7712 299.45827 
L 111.168 297.727212 
L 111.9616 287.952918 
L 112.3584 289.291461 
L 112.7552 291.57071 
L 113.152 291.701105 
L 113.5488 291.637238 
L 113.9456 302.667581 
L 114.3424 289.025349 
L 114.7392 286.797992 
L 115.136 288.759237 
L 115.5328 290.113747 
L 115.9296 289.694621 
L 116.3264 287.783937 
L 116.7232 284.098285 
L 117.12 287.592336 
L 117.5168 284.091633 
L 117.9136 284.528056 
L 118.7072 290.520899 
L 119.104 290.749755 
L 119.5008 285.897203 
L 119.8976 286.022275 
L 120.2944 294.788004 
L 120.6912 294.332953 
L 121.088 282.223526 
L 121.4848 284.566643 
L 121.8816 290.594079 
L 122.2784 285.958408 
L 122.6752 286.989592 
L 123.072 285.919822 
L 123.4688 287.298282 
L 123.8656 287.666847 
L 124.2624 288.366722 
L 124.6592 293.347008 
L 125.056 289.685307 
L 125.4528 294.239814 
L 125.8496 293.896529 
L 126.2464 299.206794 
L 126.6432 291.416365 
L 127.04 290.226845 
L 127.4368 292.094951 
L 127.8336 290.926719 
L 128.2304 289.041316 
L 128.6272 282.973962 
L 129.024 289.271503 
L 129.4208 290.711169 
L 129.8176 287.732045 
L 130.2144 295.199148 
L 130.6112 293.818026 
L 131.008 290.699194 
L 131.4048 283.221446 
L 131.8016 289.07458 
L 132.1984 287.383438 
L 132.5952 287.777284 
L 132.992 283.75234 
L 133.3888 289.106513 
L 133.7856 285.854625 
L 134.1824 299.990494 
L 134.5792 295.400062 
L 134.976 301.072239 
L 135.3728 291.794244 
L 135.7696 288.091296 
L 136.1664 290.330628 
L 136.5632 287.038823 
L 136.96 282.548183 
L 137.3568 287.851795 
L 137.7536 287.987512 
L 138.1504 295.199148 
L 138.5472 289.02668 
L 138.944 288.316161 
L 139.3408 289.212958 
L 139.7376 286.0582 
L 140.1344 290.189589 
L 140.5312 284.473503 
L 140.928 290.562146 
L 141.3248 290.26277 
L 141.7216 288.415953 
L 142.1184 281.675336 
L 142.5152 291.268673 
L 143.3088 293.289794 
L 143.7056 293.686301 
L 144.1024 298.38983 
L 144.4992 294.020271 
L 144.896 291.424349 
L 145.2928 287.539114 
L 145.6896 284.993752 
L 146.0864 296.106589 
L 146.4832 293.292455 
L 146.88 292.106926 
L 147.2768 290.512915 
L 147.6736 289.896866 
L 148.0704 289.59749 
L 148.864 288.447886 
L 149.2608 287.561733 
L 149.6576 289.147761 
L 150.0544 287.778614 
L 150.4512 289.500359 
L 150.848 288.949507 
L 151.2448 288.88431 
L 152.0384 297.101848 
L 152.4352 295.289626 
L 152.832 290.522229 
L 153.2288 289.751835 
L 153.6256 290.268092 
L 154.0224 293.119482 
L 154.4192 294.161311 
L 154.816 288.855037 
L 155.2128 294.914408 
L 155.6096 296.657441 
L 156.4032 283.954585 
L 156.8 285.029677 
L 157.1968 279.747354 
L 157.9904 296.641475 
L 158.3872 291.605305 
L 158.784 288.173791 
L 159.1808 293.25653 
L 159.5776 292.102934 
L 159.9744 288.02876 
L 161.1648 288.913582 
L 161.5616 286.760736 
L 161.9584 290.033914 
L 162.3552 288.070007 
L 162.752 287.748012 
L 163.5456 295.91765 
L 163.9424 291.800897 
L 164.3392 289.369964 
L 164.736 291.506844 
L 165.5296 287.60298 
L 165.9264 290.162978 
L 166.3232 293.629087 
L 166.72 291.061106 
L 167.1168 289.387261 
L 167.5136 292.321146 
L 167.9104 293.16073 
L 168.3072 296.054698 
L 168.704 289.020027 
L 169.1008 289.887552 
L 169.4976 289.435162 
L 169.8944 289.908841 
L 170.2912 294.553826 
L 170.688 301.531283 
L 171.4816 293.056946 
L 171.8784 287.88639 
L 172.2752 290.866844 
L 172.672 289.166388 
L 173.0688 293.686301 
L 173.4656 292.5673 
L 173.8624 288.321483 
L 174.2592 291.646552 
L 174.656 293.790084 
L 175.0528 290.888133 
L 175.8464 294.922391 
L 176.2432 297.36796 
L 177.0368 290.127053 
L 177.4336 293.01969 
L 177.8304 294.640312 
L 178.2272 290.550171 
L 178.624 288.900276 
L 179.0208 290.69121 
L 179.4176 291.150253 
L 179.8144 297.957398 
L 180.608 287.798573 
L 181.0048 289.775785 
L 181.4016 293.727548 
L 181.7984 290.64331 
L 182.1952 291.248715 
L 182.592 289.944766 
L 182.9888 293.393578 
L 183.3856 291.309921 
L 183.7824 286.457368 
L 184.576 287.000237 
L 184.9728 287.738698 
L 185.3696 285.983689 
L 185.7664 291.741022 
L 186.1632 294.092122 
L 186.56 288.816451 
L 186.9568 291.603974 
L 187.3536 290.445057 
L 187.7504 292.379691 
L 188.1472 290.325306 
L 188.544 294.926383 
L 188.9408 293.247216 
L 189.3376 293.084888 
L 189.7344 290.632666 
L 190.1312 294.632329 
L 190.9248 296.79582 
L 191.3216 299.708415 
L 191.7184 294.193244 
L 192.1152 281.926812 
L 192.512 299.86276 
L 192.9088 294.49129 
L 193.3056 297.567544 
L 193.7024 291.496199 
L 194.0992 291.936614 
L 194.496 294.408795 
L 194.8928 295.08738 
L 195.2896 290.680566 
L 195.6864 293.248547 
L 196.0832 293.059607 
L 196.48 303.182508 
L 197.2736 289.62144 
L 197.6704 296.525716 
L 198.0672 297.789748 
L 198.464 295.949583 
L 198.8608 297.406547 
L 199.2576 294.793327 
L 199.6544 293.649045 
L 200.0512 287.117326 
L 200.448 291.875409 
L 200.8448 290.427759 
L 201.2416 291.115659 
L 201.6384 291.300607 
L 202.0352 299.052449 
L 202.432 291.915325 
L 202.8288 293.814035 
L 203.2256 292.326468 
L 203.6224 292.383683 
L 204.0192 301.939764 
L 204.416 296.0374 
L 204.8128 293.506675 
L 205.2096 291.920648 
L 205.6064 295.716735 
L 206.0032 296.236984 
L 206.4 299.036483 
L 206.7968 291.273996 
L 207.1936 290.178945 
L 207.9872 301.114817 
L 208.384 292.738942 
L 208.7808 290.442396 
L 209.1776 294.251789 
L 209.5744 289.352667 
L 209.9712 290.421107 
L 210.368 292.474161 
L 210.7648 292.760231 
L 211.1616 288.044726 
L 211.5584 293.711581 
L 211.9552 286.142026 
L 212.352 294.048213 
L 212.7488 295.780602 
L 213.1456 292.587258 
L 213.5424 293.607798 
L 213.9392 291.957903 
L 214.336 295.417359 
L 214.7328 295.811205 
L 215.1296 291.80755 
L 215.5264 295.18052 
L 215.9232 290.141689 
L 216.32 289.584184 
L 216.7168 294.431414 
L 217.1136 295.49054 
L 217.5104 296.042723 
L 217.9072 290.397156 
L 218.7008 294.556487 
L 219.0976 298.266088 
L 219.8912 293.16073 
L 220.288 292.152165 
L 220.6848 291.750336 
L 221.0816 296.638813 
L 221.4784 291.038486 
L 221.8752 291.270004 
L 222.272 291.138278 
L 222.6688 292.029754 
L 223.0656 298.537523 
L 223.4624 302.052862 
L 223.8592 297.441141 
L 224.256 301.532613 
L 224.6528 294.748088 
L 225.0496 294.026924 
L 225.4464 291.576033 
L 225.8432 292.94784 
L 226.24 292.325138 
L 226.6368 285.052297 
L 227.0336 294.282392 
L 227.4304 292.480813 
L 227.8272 298.500267 
L 228.224 298.353905 
L 228.6208 293.04364 
L 229.0176 292.671084 
L 229.4144 296.126548 
L 229.8112 292.202726 
L 230.208 294.646965 
L 230.6048 294.954324 
L 231.0016 297.411869 
L 231.3984 295.274989 
L 231.7952 292.47283 
L 232.192 293.223266 
L 232.5888 290.921397 
L 232.9856 289.316742 
L 233.3824 289.491045 
L 233.7792 291.272665 
L 234.176 298.325964 
L 234.5728 298.960641 
L 234.9696 293.606467 
L 235.3664 291.457613 
L 235.7632 293.259191 
L 236.16 293.815365 
L 236.5568 292.933204 
L 236.9536 297.406547 
L 237.3504 294.092122 
L 237.7472 300.95382 
L 238.5408 291.339193 
L 238.9376 294.293036 
L 239.3344 287.014873 
L 239.7312 291.752997 
L 240.128 292.809462 
L 240.5248 294.205219 
L 240.9216 298.391161 
L 241.3184 297.238896 
L 241.7152 301.467416 
L 242.112 299.48222 
L 242.5088 294.447381 
L 242.9056 291.936614 
L 243.3024 291.436324 
L 244.096 296.159812 
L 244.4928 296.125217 
L 244.8896 293.984346 
L 245.2864 292.987757 
L 245.6832 295.63291 
L 246.08 293.575864 
L 246.4768 299.001888 
L 246.8736 290.697863 
L 247.2704 290.993247 
L 248.064 293.586509 
L 248.4608 294.358234 
L 248.8576 294.42077 
L 249.6512 289.196991 
L 250.4448 290.88015 
L 250.8416 293.694284 
L 251.2384 295.294948 
L 251.6352 292.233329 
L 252.032 295.306923 
L 252.4288 291.352499 
L 252.8256 293.158068 
L 253.2224 293.126135 
L 253.6192 294.709501 
L 254.016 292.243974 
L 254.4128 295.309584 
L 254.8096 292.692372 
L 255.2064 296.556319 
L 255.6032 293.900521 
L 256 296.690705 
L 256.3968 291.963226 
L 256.7936 292.117571 
L 257.1904 291.124973 
L 257.5872 293.615781 
L 257.984 298.376525 
L 258.3808 292.512747 
L 258.7776 300.563965 
L 259.1744 298.500267 
L 259.5712 293.82601 
L 259.968 294.714824 
L 260.3648 296.380685 
L 260.7616 295.764636 
L 261.1584 299.684465 
L 261.5552 291.955242 
L 261.952 301.561885 
L 262.3488 293.135449 
L 262.7456 293.478733 
L 263.1424 292.882643 
L 263.5392 289.81171 
L 264.3328 293.525303 
L 264.7296 295.034158 
L 265.1264 301.611116 
L 265.5232 294.209211 
L 265.92 293.569212 
L 266.3168 294.25578 
L 266.7136 298.72247 
L 267.1104 293.275158 
L 267.5072 292.032415 
L 267.904 293.511997 
L 268.3008 300.28854 
L 268.6976 291.602644 
L 269.0944 302.587747 
L 269.888 290.985264 
L 270.2848 297.736525 
L 270.6816 294.766716 
L 271.4752 296.239645 
L 271.872 291.99782 
L 272.2688 292.060356 
L 273.0624 298.448375 
L 273.4592 293.30443 
L 273.856 291.999151 
L 274.2528 295.160561 
L 274.6496 291.871417 
L 275.0464 296.171787 
L 275.4432 297.161724 
L 275.84 296.004136 
L 276.2368 297.471744 
L 276.6336 293.694284 
L 277.0304 288.642148 
L 277.4272 299.040474 
L 277.824 294.734782 
L 278.2208 292.647133 
L 278.6176 293.563889 
L 279.0144 293.18468 
L 279.4112 299.699101 
L 279.808 294.918399 
L 280.2048 292.54468 
L 280.6016 297.184343 
L 280.9984 293.949752 
L 281.3952 293.271166 
L 281.792 290.302687 
L 282.5856 293.385594 
L 282.9824 294.048213 
L 283.3792 294.959647 
L 283.776 293.581187 
L 284.1728 293.876571 
L 284.5696 291.673164 
L 284.9664 295.449293 
L 285.3632 294.760063 
L 285.76 293.658359 
L 286.1568 293.96838 
L 286.9504 301.806708 
L 287.3472 300.24197 
L 287.744 296.833075 
L 288.1408 296.609541 
L 288.5376 297.213615 
L 288.9344 292.820106 
L 289.3312 294.906424 
L 289.728 295.454615 
L 290.1248 293.80339 
L 290.5216 298.282055 
L 290.9184 291.755658 
L 291.3152 296.122556 
L 291.712 294.090791 
L 292.1088 299.134944 
L 292.5056 294.145344 
L 292.9024 292.482144 
L 293.2992 293.365636 
L 293.696 291.690461 
L 294.0928 293.885885 
L 294.4896 294.214533 
L 294.8864 296.763886 
L 295.2832 296.790497 
L 295.68 293.335033 
L 296.0768 295.707421 
L 296.4736 296.79715 
L 296.8704 294.61104 
L 297.2672 298.718479 
L 297.664 294.970291 
L 298.0608 295.124636 
L 298.4576 294.229169 
L 298.8544 297.763137 
L 299.2512 297.003387 
L 300.0448 291.442977 
L 300.4416 294.327631 
L 300.8384 294.918399 
L 301.2352 292.154826 
L 301.632 299.323884 
L 302.4256 294.524554 
L 302.8224 290.147011 
L 303.2192 294.756071 
L 303.616 292.672414 
L 304.0128 300.377687 
L 304.4096 296.408627 
L 304.8064 300.759558 
L 305.2032 295.482557 
L 305.6 294.907755 
L 305.9968 293.110168 
L 306.3936 289.488384 
L 306.7904 298.393822 
L 307.1872 301.736189 
L 307.584 295.557068 
L 307.9808 292.153496 
L 308.3776 295.434657 
L 308.7744 292.015117 
L 309.1712 297.716567 
L 309.568 296.260934 
L 309.9648 292.302518 
L 310.3616 296.903595 
L 310.7584 299.969205 
L 311.1552 293.711581 
L 311.552 292.542019 
L 311.9488 295.449293 
L 312.3456 295.996153 
L 312.7424 295.088711 
L 313.1392 294.537859 
L 313.536 294.697526 
L 313.9328 293.953743 
L 314.3296 292.315824 
L 314.7264 292.47283 
L 315.1232 292.470169 
L 315.52 295.648877 
L 315.9168 292.221354 
L 316.3136 299.028499 
L 316.7104 294.388836 
L 317.1072 295.074075 
L 317.504 293.156738 
L 317.9008 293.722226 
L 318.2976 294.481976 
L 318.6944 291.87807 
L 319.0912 292.404972 
L 319.8848 301.09752 
L 320.2816 296.946173 
L 320.6784 295.060769 
L 321.0752 294.878483 
L 321.472 293.959066 
L 321.8688 294.607048 
L 322.2656 294.58709 
L 323.0592 298.800973 
L 323.456 295.115322 
L 323.8528 293.754159 
L 324.2496 293.727548 
L 324.6464 293.217944 
L 325.0432 300.381679 
L 325.44 295.89503 
L 325.8368 295.68081 
L 326.2336 302.058184 
L 326.6304 296.698689 
L 327.0272 295.974864 
L 327.424 297.363969 
L 327.8208 291.834161 
L 328.2176 295.773949 
L 328.6144 290.681896 
L 329.0112 302.076812 
L 329.408 297.175029 
L 329.8048 290.620691 
L 330.5984 298.883468 
L 330.9952 300.343092 
L 331.392 299.842802 
L 331.7888 293.61312 
L 332.1856 294.113411 
L 332.5824 296.742597 
L 332.9792 298.513572 
L 333.376 294.222516 
L 333.7728 291.441646 
L 334.1696 298.329955 
L 334.5664 293.956404 
L 334.9632 292.866676 
L 335.36 296.382015 
L 335.7568 292.029754 
L 336.1536 293.489378 
L 336.5504 293.653037 
L 336.9472 299.156233 
L 337.344 296.272909 
L 337.7408 296.091953 
L 338.1376 296.872992 
L 338.5344 295.614282 
L 338.9312 301.547249 
L 339.328 295.70343 
L 339.7248 292.333121 
L 340.1216 294.786674 
L 340.9152 297.536941 
L 341.7088 292.339774 
L 342.1056 292.097612 
L 342.5024 292.295866 
L 342.8992 291.822186 
L 343.296 293.900521 
L 343.6928 292.974451 
L 344.0896 300.546668 
L 344.4864 299.991825 
L 344.8832 296.709333 
L 345.28 291.693122 
L 345.6768 293.859274 
L 346.0736 290.554163 
L 346.4704 291.431002 
L 346.8672 296.367379 
L 347.264 296.077317 
L 347.6608 295.119314 
L 348.0576 295.876403 
L 348.4544 293.047632 
L 348.8512 294.889127 
L 349.248 292.298527 
L 349.6448 293.605137 
L 350.0416 291.271334 
L 350.4384 296.005467 
L 350.8352 302.993568 
L 351.232 293.146093 
L 352.0256 292.009795 
L 352.4224 292.979773 
L 352.8192 293.472081 
L 353.216 293.75682 
L 353.6128 295.719396 
L 354.0096 295.334865 
L 354.4064 296.907587 
L 354.8032 293.549253 
L 355.2 295.950914 
L 355.5968 300.494776 
L 355.9936 296.708003 
L 356.3904 297.495694 
L 356.7872 293.931124 
L 357.184 294.781352 
L 357.5808 296.842389 
L 357.9776 296.613533 
L 358.3744 293.362975 
L 358.7712 293.89919 
L 359.168 304.220344 
L 359.5648 296.785175 
L 359.9616 292.845387 
L 360.3584 293.763473 
L 360.7552 296.071995 
L 361.152 301.488705 
L 361.5488 296.075987 
L 361.9456 301.504671 
L 362.3424 292.455533 
L 362.7392 293.456114 
L 363.5328 298.037232 
L 363.9296 295.598316 
L 364.3264 296.294198 
L 364.7232 295.65686 
L 365.12 294.450042 
L 365.5168 294.069502 
L 365.9136 294.605718 
L 366.7072 292.065679 
L 367.104 295.977525 
L 367.5008 304.197725 
L 368.2944 292.18676 
L 368.6912 293.983016 
L 369.088 298.788998 
L 369.4848 298.441722 
L 369.8816 298.267419 
L 370.2784 292.684389 
L 370.6752 296.847711 
L 371.072 295.455946 
L 371.4688 295.938939 
L 371.8656 296.620186 
L 372.2624 293.440147 
L 373.056 299.298603 
L 373.4528 293.567881 
L 373.8496 293.955074 
L 374.2464 292.926551 
L 374.6432 295.003555 
L 375.04 299.104341 
L 375.4368 300.791491 
L 375.8336 295.63291 
L 376.2304 294.122724 
L 376.6272 294.316986 
L 377.024 298.4843 
L 377.4208 292.208049 
L 377.8176 298.192908 
L 378.2144 292.287882 
L 378.6112 294.955655 
L 379.4048 292.303849 
L 379.8016 292.625844 
L 380.1984 296.242307 
L 380.5952 293.980355 
L 380.992 298.03324 
L 381.3888 294.026924 
L 381.7856 295.982847 
L 382.1824 292.73495 
L 382.5792 295.715405 
L 382.976 293.830001 
L 383.3728 293.148755 
L 383.7696 295.431996 
L 384.1664 293.3031 
L 384.5632 300.524049 
L 384.96 295.857775 
L 385.3568 297.20031 
L 385.7536 294.752079 
L 386.1504 293.531956 
L 386.5472 296.20239 
L 387.3408 294.227839 
L 387.7376 293.811373 
L 388.1344 295.651538 
L 388.5312 292.102934 
L 388.928 295.483887 
L 389.3248 295.304262 
L 389.7216 294.947672 
L 390.1184 296.75058 
L 390.5152 296.943512 
L 390.912 295.111331 
L 391.3088 294.58842 
L 391.7056 293.351 
L 392.1024 294.686882 
L 392.4992 295.01553 
L 392.896 293.990999 
L 393.2928 298.561473 
L 393.6896 293.754159 
L 394.0864 299.805546 
L 394.4832 298.662595 
L 394.88 301.471407 
L 395.6736 293.787423 
L 396.0704 297.728542 
L 396.4672 293.811373 
L 396.864 296.109251 
L 397.2608 294.436737 
L 397.6576 296.025425 
L 398.0544 294.737443 
L 398.4512 298.36588 
L 398.848 295.877733 
L 399.2448 297.15374 
L 399.6416 293.591831 
L 400.0384 296.98609 
L 400.4352 295.742016 
L 400.832 301.116148 
L 401.2288 297.711245 
L 401.6256 296.621516 
L 402.0224 294.195905 
L 402.4192 299.121638 
L 402.816 298.765048 
L 403.6096 298.375194 
L 404.0064 300.297853 
L 404.4032 298.083802 
L 404.8 294.053535 
L 405.1968 296.831745 
L 405.9904 293.396239 
L 406.3872 295.405384 
L 406.784 294.947672 
L 407.1808 295.028836 
L 407.5776 295.662182 
L 407.9744 292.357071 
L 408.768 303.555064 
L 409.1648 294.310333 
L 409.5616 296.787836 
L 409.9584 304.207039 
L 410.3552 296.006797 
L 410.752 292.696364 
L 411.1488 292.573953 
L 411.5456 296.028086 
L 412.3392 293.072913 
L 412.736 295.646216 
L 413.1328 292.926551 
L 413.5296 296.830414 
L 413.9264 304.266914 
L 414.3232 297.86559 
L 414.72 296.214365 
L 415.1168 295.104678 
L 415.5136 295.587671 
L 415.9104 293.151416 
L 416.3072 294.947672 
L 416.704 300.394984 
L 417.1008 294.999564 
L 417.4976 298.820932 
L 417.8944 292.100273 
L 418.2912 290.842894 
L 418.688 298.421764 
L 419.0848 293.634409 
L 419.4816 293.599814 
L 419.8784 296.197068 
L 420.2752 294.815946 
L 420.672 294.685551 
L 421.0688 295.184511 
L 421.4656 294.931705 
L 421.8624 302.956312 
L 422.2592 295.054116 
L 422.656 294.118733 
L 423.0528 300.492115 
L 423.4496 297.79507 
L 423.8464 299.357148 
L 424.2432 291.678486 
L 424.64 293.87391 
L 425.0368 294.605718 
L 425.4336 294.732121 
L 425.8304 292.943848 
L 425.8304 292.943848 
" style="fill:none;stroke:#1f77b4;stroke-linecap:square;stroke-width:1.2;"/>
   </g>
   <g id="patch_3">
    <path d="M 57.6 307.584 
L 57.6 41.472 
" style="fill:none;stroke:#000000;stroke-linecap:square;stroke-linejoin:miter;"/>
   </g>
   <g id="patch_4">
    <path d="M 414.72 307.584 
L 414.72 41.472 
" style="fill:none;stroke:#000000;stroke-linecap:square;stroke-linejoin:miter;"/>
   </g>
   <g id="patch_5">
    <path d="M 57.6 307.584 
L 414.72 307.584 
" style="fill:none;stroke:#000000;stroke-linecap:square;stroke-linejoin:miter;"/>
   </g>
   <g id="patch_6">
    <path d="M 57.6 41.472 
L 414.72 41.472 
" style="fill:none;stroke:#000000;stroke-linecap:square;stroke-linejoin:miter;"/>
   </g>
   <g id="text_19">
    <!-- Training - NSRA-ES - Cartpole (metapopulation size 10) -->
    <g transform="translate(104.7375 35.472)scale(0.096 -0.096)">
     <defs>
      <path d="M 3513 2113 
L 3513 0 
L 2938 0 
L 2938 2094 
Q 2938 2591 2744 2837 
Q 2550 3084 2163 3084 
Q 1697 3084 1428 2787 
Q 1159 2491 1159 1978 
L 1159 0 
L 581 0 
L 581 3500 
L 1159 3500 
L 1159 2956 
Q 1366 3272 1645 3428 
Q 1925 3584 2291 3584 
Q 2894 3584 3203 3211 
Q 3513 2838 3513 2113 
z
" id="DejaVuSans-6e" transform="scale(0.015625)"/>
      <path d="M 2906 1791 
Q 2906 2416 2648 2759 
Q 2391 3103 1925 3103 
Q 1463 3103 1205 2759 
Q 947 2416 947 1791 
Q 947 1169 1205 825 
Q 1463 481 1925 481 
Q 2391 481 2648 825 
Q 2906 1169 2906 1791 
z
M 3481 434 
Q 3481 -459 3084 -895 
Q 2688 -1331 1869 -1331 
Q 1566 -1331 1297 -1286 
Q 1028 -1241 775 -1147 
L 775 -588 
Q 1028 -725 1275 -790 
Q 1522 -856 1778 -856 
Q 2344 -856 2625 -561 
Q 2906 -266 2906 331 
L 2906 616 
Q 2728 306 2450 153 
Q 2172 0 1784 0 
Q 1141 0 747 490 
Q 353 981 353 1791 
Q 353 2603 747 3093 
Q 1141 3584 1784 3584 
Q 2172 3584 2450 3431 
Q 2728 3278 2906 2969 
L 2906 3500 
L 3481 3500 
L 3481 434 
z
" id="DejaVuSans-67" transform="scale(0.015625)"/>
      <path id="DejaVuSans-20" transform="scale(0.015625)"/>
      <path d="M 313 2009 
L 1997 2009 
L 1997 1497 
L 313 1497 
L 313 2009 
z
" id="DejaVuSans-2d" transform="scale(0.015625)"/>
      <path d="M 628 4666 
L 1478 4666 
L 3547 763 
L 3547 4666 
L 4159 4666 
L 4159 0 
L 3309 0 
L 1241 3903 
L 1241 0 
L 628 0 
L 628 4666 
z
" id="DejaVuSans-4e" transform="scale(0.015625)"/>
      <path d="M 3425 4513 
L 3425 3897 
Q 3066 4069 2747 4153 
Q 2428 4238 2131 4238 
Q 1616 4238 1336 4038 
Q 1056 3838 1056 3469 
Q 1056 3159 1242 3001 
Q 1428 2844 1947 2747 
L 2328 2669 
Q 3034 2534 3370 2195 
Q 3706 1856 3706 1288 
Q 3706 609 3251 259 
Q 2797 -91 1919 -91 
Q 1588 -91 1214 -16 
Q 841 59 441 206 
L 441 856 
Q 825 641 1194 531 
Q 1563 422 1919 422 
Q 2459 422 2753 634 
Q 3047 847 3047 1241 
Q 3047 1584 2836 1778 
Q 2625 1972 2144 2069 
L 1759 2144 
Q 1053 2284 737 2584 
Q 422 2884 422 3419 
Q 422 4038 858 4394 
Q 1294 4750 2059 4750 
Q 2388 4750 2728 4690 
Q 3069 4631 3425 4513 
z
" id="DejaVuSans-53" transform="scale(0.015625)"/>
      <path d="M 2188 4044 
L 1331 1722 
L 3047 1722 
L 2188 4044 
z
M 1831 4666 
L 2547 4666 
L 4325 0 
L 3669 0 
L 3244 1197 
L 1141 1197 
L 716 0 
L 50 0 
L 1831 4666 
z
" id="DejaVuSans-41" transform="scale(0.015625)"/>
      <path d="M 628 4666 
L 3578 4666 
L 3578 4134 
L 1259 4134 
L 1259 2753 
L 3481 2753 
L 3481 2222 
L 1259 2222 
L 1259 531 
L 3634 531 
L 3634 0 
L 628 0 
L 628 4666 
z
" id="DejaVuSans-45" transform="scale(0.015625)"/>
      <path d="M 4122 4306 
L 4122 3641 
Q 3803 3938 3442 4084 
Q 3081 4231 2675 4231 
Q 1875 4231 1450 3742 
Q 1025 3253 1025 2328 
Q 1025 1406 1450 917 
Q 1875 428 2675 428 
Q 3081 428 3442 575 
Q 3803 722 4122 1019 
L 4122 359 
Q 3791 134 3420 21 
Q 3050 -91 2638 -91 
Q 1578 -91 968 557 
Q 359 1206 359 2328 
Q 359 3453 968 4101 
Q 1578 4750 2638 4750 
Q 3056 4750 3426 4639 
Q 3797 4528 4122 4306 
z
" id="DejaVuSans-43" transform="scale(0.015625)"/>
      <path d="M 1959 3097 
Q 1497 3097 1228 2736 
Q 959 2375 959 1747 
Q 959 1119 1226 758 
Q 1494 397 1959 397 
Q 2419 397 2687 759 
Q 2956 1122 2956 1747 
Q 2956 2369 2687 2733 
Q 2419 3097 1959 3097 
z
M 1959 3584 
Q 2709 3584 3137 3096 
Q 3566 2609 3566 1747 
Q 3566 888 3137 398 
Q 2709 -91 1959 -91 
Q 1206 -91 779 398 
Q 353 888 353 1747 
Q 353 2609 779 3096 
Q 1206 3584 1959 3584 
z
" id="DejaVuSans-6f" transform="scale(0.015625)"/>
      <path d="M 603 4863 
L 1178 4863 
L 1178 0 
L 603 0 
L 603 4863 
z
" id="DejaVuSans-6c" transform="scale(0.015625)"/>
      <path d="M 1984 4856 
Q 1566 4138 1362 3434 
Q 1159 2731 1159 2009 
Q 1159 1288 1364 580 
Q 1569 -128 1984 -844 
L 1484 -844 
Q 1016 -109 783 600 
Q 550 1309 550 2009 
Q 550 2706 781 3412 
Q 1013 4119 1484 4856 
L 1984 4856 
z
" id="DejaVuSans-28" transform="scale(0.015625)"/>
      <path d="M 544 1381 
L 544 3500 
L 1119 3500 
L 1119 1403 
Q 1119 906 1312 657 
Q 1506 409 1894 409 
Q 2359 409 2629 706 
Q 2900 1003 2900 1516 
L 2900 3500 
L 3475 3500 
L 3475 0 
L 2900 0 
L 2900 538 
Q 2691 219 2414 64 
Q 2138 -91 1772 -91 
Q 1169 -91 856 284 
Q 544 659 544 1381 
z
M 1991 3584 
L 1991 3584 
z
" id="DejaVuSans-75" transform="scale(0.015625)"/>
      <path d="M 353 3500 
L 3084 3500 
L 3084 2975 
L 922 459 
L 3084 459 
L 3084 0 
L 275 0 
L 275 525 
L 2438 3041 
L 353 3041 
L 353 3500 
z
" id="DejaVuSans-7a" transform="scale(0.015625)"/>
      <path d="M 513 4856 
L 1013 4856 
Q 1481 4119 1714 3412 
Q 1947 2706 1947 2009 
Q 1947 1309 1714 600 
Q 1481 -109 1013 -844 
L 513 -844 
Q 928 -128 1133 580 
Q 1338 1288 1338 2009 
Q 1338 2731 1133 3434 
Q 928 4138 513 4856 
z
" id="DejaVuSans-29" transform="scale(0.015625)"/>
     </defs>
     <use xlink:href="#DejaVuSans-54"/>
     <use x="46.333984" xlink:href="#DejaVuSans-72"/>
     <use x="87.447266" xlink:href="#DejaVuSans-61"/>
     <use x="148.726562" xlink:href="#DejaVuSans-69"/>
     <use x="176.509766" xlink:href="#DejaVuSans-6e"/>
     <use x="239.888672" xlink:href="#DejaVuSans-69"/>
     <use x="267.671875" xlink:href="#DejaVuSans-6e"/>
     <use x="331.050781" xlink:href="#DejaVuSans-67"/>
     <use x="394.527344" xlink:href="#DejaVuSans-20"/>
     <use x="426.314453" xlink:href="#DejaVuSans-2d"/>
     <use x="462.398438" xlink:href="#DejaVuSans-20"/>
     <use x="494.185547" xlink:href="#DejaVuSans-4e"/>
     <use x="568.990234" xlink:href="#DejaVuSans-53"/>
     <use x="632.466797" xlink:href="#DejaVuSans-52"/>
     <use x="697.949219" xlink:href="#DejaVuSans-41"/>
     <use x="764.107422" xlink:href="#DejaVuSans-2d"/>
     <use x="800.191406" xlink:href="#DejaVuSans-45"/>
     <use x="863.375" xlink:href="#DejaVuSans-53"/>
     <use x="926.851562" xlink:href="#DejaVuSans-20"/>
     <use x="958.638672" xlink:href="#DejaVuSans-2d"/>
     <use x="994.722656" xlink:href="#DejaVuSans-20"/>
     <use x="1026.509766" xlink:href="#DejaVuSans-43"/>
     <use x="1096.333984" xlink:href="#DejaVuSans-61"/>
     <use x="1157.613281" xlink:href="#DejaVuSans-72"/>
     <use x="1198.726562" xlink:href="#DejaVuSans-74"/>
     <use x="1237.935547" xlink:href="#DejaVuSans-70"/>
     <use x="1301.412109" xlink:href="#DejaVuSans-6f"/>
     <use x="1362.59375" xlink:href="#DejaVuSans-6c"/>
     <use x="1390.376953" xlink:href="#DejaVuSans-65"/>
     <use x="1451.900391" xlink:href="#DejaVuSans-20"/>
     <use x="1483.6875" xlink:href="#DejaVuSans-28"/>
     <use x="1522.701172" xlink:href="#DejaVuSans-6d"/>
     <use x="1620.113281" xlink:href="#DejaVuSans-65"/>
     <use x="1681.636719" xlink:href="#DejaVuSans-74"/>
     <use x="1720.845703" xlink:href="#DejaVuSans-61"/>
     <use x="1782.125" xlink:href="#DejaVuSans-70"/>
     <use x="1845.601562" xlink:href="#DejaVuSans-6f"/>
     <use x="1906.783203" xlink:href="#DejaVuSans-70"/>
     <use x="1970.259766" xlink:href="#DejaVuSans-75"/>
     <use x="2033.638672" xlink:href="#DejaVuSans-6c"/>
     <use x="2061.421875" xlink:href="#DejaVuSans-61"/>
     <use x="2122.701172" xlink:href="#DejaVuSans-74"/>
     <use x="2161.910156" xlink:href="#DejaVuSans-69"/>
     <use x="2189.693359" xlink:href="#DejaVuSans-6f"/>
     <use x="2250.875" xlink:href="#DejaVuSans-6e"/>
     <use x="2314.253906" xlink:href="#DejaVuSans-20"/>
     <use x="2346.041016" xlink:href="#DejaVuSans-73"/>
     <use x="2398.140625" xlink:href="#DejaVuSans-69"/>
     <use x="2425.923828" xlink:href="#DejaVuSans-7a"/>
     <use x="2478.414062" xlink:href="#DejaVuSans-65"/>
     <use x="2539.9375" xlink:href="#DejaVuSans-20"/>
     <use x="2571.724609" xlink:href="#DejaVuSans-31"/>
     <use x="2635.347656" xlink:href="#DejaVuSans-30"/>
     <use x="2698.970703" xlink:href="#DejaVuSans-29"/>
    </g>
   </g>
  </g>
 </g>
 <defs>
  <clipPath id="p1f181ddddf">
   <rect height="266.112" width="357.12" x="57.6" y="41.472"/>
  </clipPath>
 </defs>
</svg>
