<?xml version="1.0" encoding="utf-8" standalone="no"?>
<!DOCTYPE svg PUBLIC "-//W3C//DTD SVG 1.1//EN"
  "http://www.w3.org/Graphics/SVG/1.1/DTD/svg11.dtd">
<svg height="345.6pt" version="1.1" viewBox="0 0 460.8 345.6" width="460.8pt" xmlns="http://www.w3.org/2000/svg" xmlns:xlink="http://www.w3.org/1999/xlink">
 <metadata>
  <rdf:RDF xmlns:cc="http://creativecommons.org/ns#" xmlns:dc="http://purl.org/dc/elements/1.1/" xmlns:rdf="http://www.w3.org/1999/02/22-rdf-syntax-ns#">
   <cc:Work>
    <dc:type rdf:resource="http://purl.org/dc/dcmitype/StillImage"/>
    <dc:date>2021-07-22T00:42:16.313080</dc:date>
    <dc:format>image/svg+xml</dc:format>
    <dc:creator>
     <cc:Agent>
      <dc:title>Matplotlib v3.4.2, https://matplotlib.org/</dc:title>
     </cc:Agent>
    </dc:creator>
   </cc:Work>
  </rdf:RDF>
 </metadata>
 <defs>
  <style type="text/css">*{stroke-linecap:butt;stroke-linejoin:round;}</style>
 </defs>
 <g id="figure_1">
  <g id="patch_1">
   <path d="M 0 345.6 
L 460.8 345.6 
L 460.8 0 
L 0 0 
z
" style="fill:#ffffff;"/>
  </g>
  <g id="axes_1">
   <g id="patch_2">
    <path d="M 57.6 307.584 
L 414.72 307.584 
L 414.72 41.472 
L 57.6 41.472 
z
" style="fill:#ffffff;"/>
   </g>
   <g id="PolyCollection_1">
    <path clip-path="url(#pf09837d220)" d="M 73.832727 277.86816 
L 73.832727 279.248 
L 74.157707 277.81888 
L 74.482686 276.38976 
L 74.807666 275.25632 
L 75.132645 274.83744 
L 75.457625 274.04896 
L 75.782604 273.92576 
L 76.107584 273.75328 
L 76.432563 273.85184 
L 76.757543 274.4432 
L 77.082523 274.71424 
L 77.407502 274.46784 
L 77.732482 273.65472 
L 78.057461 274.5664 
L 78.382441 274.22144 
L 78.70742 274.34464 
L 79.0324 274.41856 
L 79.357379 274.02432 
L 79.682359 275.33024 
L 80.007338 274.17216 
L 80.332318 274.02432 
L 80.657297 274.0736 
L 80.982277 273.92576 
L 81.307256 273.97504 
L 81.632236 274.14752 
L 81.957215 274.22144 
L 82.282195 274.17216 
L 82.607174 273.8272 
L 82.932154 273.77792 
L 83.257133 274.0736 
L 83.582113 274.14752 
L 83.907093 273.85184 
L 84.232072 273.72864 
L 84.557052 273.9504 
L 84.882031 273.50688 
L 85.207011 273.55616 
L 85.53199 274.0736 
L 85.85697 273.60544 
L 86.181949 273.67936 
L 86.506929 273.65472 
L 86.831908 273.75328 
L 87.156888 273.3344 
L 87.481867 274.22144 
L 87.806847 274.32 
L 88.131826 274.27072 
L 88.456806 273.92576 
L 88.781785 273.75328 
L 89.106765 273.67936 
L 89.431744 274.14752 
L 89.756724 273.77792 
L 90.081704 273.72864 
L 90.406683 273.72864 
L 90.731663 273.43296 
L 91.056642 273.67936 
L 91.381622 273.63008 
L 91.706601 274.36928 
L 92.031581 273.9504 
L 92.35656 273.85184 
L 92.68154 274.0736 
L 93.006519 273.088 
L 93.331499 273.65472 
L 93.656478 273.40832 
L 93.981458 273.9504 
L 94.306437 273.87648 
L 94.631417 273.87648 
L 94.956396 274.5664 
L 95.281376 273.16192 
L 95.606355 273.97504 
L 95.931335 274.34464 
L 96.256314 273.3344 
L 96.581294 274.27072 
L 96.906274 274.04896 
L 97.231253 273.088 
L 97.556233 273.35904 
L 97.881212 272.91552 
L 98.206192 274.12288 
L 98.531171 273.48224 
L 98.856151 273.77792 
L 99.18113 273.67936 
L 99.50611 274.59104 
L 99.831089 273.63008 
L 100.156069 274.22144 
L 100.481048 274.32 
L 100.806028 274.17216 
L 101.131007 274.34464 
L 101.455987 274.4432 
L 101.780966 273.85184 
L 102.105946 274.46784 
L 102.430925 274.29536 
L 102.755905 274.32 
L 103.080885 274.61568 
L 103.405864 274.02432 
L 103.730844 273.77792 
L 104.055823 274.39392 
L 104.380803 273.97504 
L 104.705782 273.23584 
L 105.030762 274.41856 
L 105.355741 274.34464 
L 105.680721 274.22144 
L 106.0057 274.09824 
L 106.33068 273.85184 
L 106.655659 273.23584 
L 106.980639 274.27072 
L 107.305618 273.55616 
L 107.630598 273.90112 
L 107.955577 273.90112 
L 108.280557 273.90112 
L 108.605536 273.4576 
L 108.930516 273.704 
L 109.255495 274.24608 
L 109.580475 274.0736 
L 109.905455 273.87648 
L 110.230434 274.66496 
L 110.555414 273.3344 
L 110.880393 272.76768 
L 111.205373 273.87648 
L 111.530352 273.60544 
L 111.855332 274.02432 
L 112.180311 274.29536 
L 112.505291 273.72864 
L 112.83027 273.8272 
L 113.15525 273.3344 
L 113.480229 273.9504 
L 113.805209 274.12288 
L 114.130188 274.14752 
L 114.455168 273.80256 
L 114.780147 274.1968 
L 115.105127 274.4432 
L 115.430106 273.5808 
L 115.755086 273.87648 
L 116.080066 273.26048 
L 116.405045 273.088 
L 116.730025 273.43296 
L 117.055004 273.5808 
L 117.379984 274.24608 
L 117.704963 273.43296 
L 118.029943 273.18656 
L 118.354922 272.94016 
L 118.679902 273.06336 
L 119.004881 273.63008 
L 119.329861 273.11264 
L 119.65484 273.16192 
L 119.97982 273.01408 
L 120.304799 273.67936 
L 120.629779 273.26048 
L 120.954758 272.76768 
L 121.279738 272.76768 
L 121.604717 272.37344 
L 121.929697 273.4576 
L 122.254676 274.02432 
L 122.579656 273.48224 
L 122.904636 273.18656 
L 123.229615 273.90112 
L 123.554595 273.28512 
L 123.879574 272.76768 
L 124.204554 273.18656 
L 124.529533 273.18656 
L 124.854513 272.49664 
L 125.179492 273.5808 
L 125.504472 272.49664 
L 125.829451 274.17216 
L 126.154431 272.69376 
L 126.47941 273.67936 
L 126.80439 272.69376 
L 127.129369 272.69376 
L 127.454349 274.0736 
L 127.779328 273.5808 
L 128.104308 273.67936 
L 128.429287 272.89088 
L 128.754267 272.89088 
L 129.079247 273.18656 
L 129.404226 272.69376 
L 129.729206 273.67936 
L 130.054185 273.28512 
L 130.379165 273.48224 
L 130.704144 272.98944 
L 131.029124 272.89088 
L 131.354103 274.86208 
L 131.679083 272.39808 
L 132.004062 273.5808 
L 132.329042 273.18656 
L 132.654021 273.38368 
L 132.979001 272.98944 
L 133.30398 273.77792 
L 133.62896 272.5952 
L 133.953939 272.69376 
L 134.278919 273.5808 
L 134.603898 272.69376 
L 134.928878 273.088 
L 135.253857 272.69376 
L 135.578837 273.77792 
L 135.903817 273.28512 
L 136.228796 272.98944 
L 136.553776 272.98944 
L 136.878755 272.98944 
L 137.203735 273.088 
L 137.528714 273.67936 
L 137.853694 272.98944 
L 138.178673 272.79232 
L 138.503653 272.79232 
L 138.828632 273.088 
L 139.153612 274.0736 
L 139.478591 272.98944 
L 139.803571 272.98944 
L 140.12855 272.98944 
L 140.45353 272.1024 
L 140.778509 272.98944 
L 141.103489 273.18656 
L 141.428468 274.27072 
L 141.753448 272.79232 
L 142.078428 272.89088 
L 142.403407 272.98944 
L 142.728387 272.79232 
L 143.053366 273.18656 
L 143.378346 273.28512 
L 143.703325 273.48224 
L 144.028305 273.18656 
L 144.353284 273.48224 
L 144.678264 273.48224 
L 145.003243 272.98944 
L 145.328223 273.088 
L 145.653202 273.28512 
L 145.978182 273.48224 
L 146.303161 273.28512 
L 146.628141 273.18656 
L 146.95312 273.28512 
L 147.2781 273.77792 
L 147.603079 272.89088 
L 147.928059 273.87648 
L 148.253038 272.49664 
L 148.578018 273.088 
L 148.902998 272.39808 
L 149.227977 273.77792 
L 149.552957 272.69376 
L 149.877936 272.1024 
L 150.202916 273.48224 
L 150.527895 272.5952 
L 150.852875 272.39808 
L 151.177854 272.1024 
L 151.502834 272.98944 
L 151.827813 273.18656 
L 152.152793 273.38368 
L 152.477772 273.67936 
L 152.802752 273.088 
L 153.127731 272.79232 
L 153.452711 273.5808 
L 153.77769 272.49664 
L 154.10267 273.28512 
L 154.427649 273.088 
L 154.752629 273.97504 
L 155.077609 273.5808 
L 155.402588 272.29952 
L 155.727568 273.28512 
L 156.052547 272.39808 
L 156.377527 273.088 
L 156.702506 272.69376 
L 157.027486 273.5808 
L 157.352465 273.5808 
L 157.677445 273.77792 
L 158.002424 272.89088 
L 158.327404 273.48224 
L 158.652383 272.79232 
L 158.977363 274.0736 
L 159.302342 272.98944 
L 159.627322 274.0736 
L 159.952301 272.49664 
L 160.277281 273.5808 
L 160.60226 274.17216 
L 160.92724 273.38368 
L 161.252219 272.69376 
L 161.577199 273.48224 
L 161.902179 273.088 
L 162.227158 273.28512 
L 162.552138 273.87648 
L 162.877117 273.38368 
L 163.202097 273.5808 
L 163.527076 274.17216 
L 163.852056 272.79232 
L 164.177035 273.38368 
L 164.502015 273.67936 
L 164.826994 272.89088 
L 165.151974 273.77792 
L 165.476953 273.38368 
L 165.801933 273.87648 
L 166.126912 274.27072 
L 166.451892 271.6096 
L 166.776871 273.5808 
L 167.101851 272.89088 
L 167.42683 272.69376 
L 167.75181 273.48224 
L 168.07679 272.49664 
L 168.401769 273.088 
L 168.726749 272.49664 
L 169.051728 273.28512 
L 169.376708 273.088 
L 169.701687 273.67936 
L 170.026667 273.18656 
L 170.351646 273.48224 
L 170.676626 273.48224 
L 171.001605 273.5808 
L 171.326585 273.5808 
L 171.651564 273.28512 
L 171.976544 273.87648 
L 172.301523 273.5808 
L 172.626503 274.27072 
L 172.951482 273.77792 
L 173.276462 273.28512 
L 173.601441 273.87648 
L 173.926421 273.48224 
L 174.2514 273.38368 
L 174.57638 273.97504 
L 174.90136 274.36928 
L 175.226339 273.5808 
L 175.551319 274.27072 
L 175.876298 273.97504 
L 176.201278 274.27072 
L 176.526257 274.76352 
L 176.851237 273.67936 
L 177.176216 273.67936 
L 177.501196 274.66496 
L 177.826175 272.98944 
L 178.151155 275.0592 
L 178.476134 273.18656 
L 178.801114 273.5808 
L 179.126093 274.36928 
L 179.451073 273.87648 
L 179.776052 273.38368 
L 180.101032 273.77792 
L 180.426011 274.0736 
L 180.750991 273.28512 
L 181.075971 273.77792 
L 181.40095 273.28512 
L 181.72593 273.088 
L 182.050909 273.5808 
L 182.375889 271.90528 
L 182.700868 273.088 
L 183.025848 273.87648 
L 183.350827 273.5808 
L 183.675807 273.28512 
L 184.000786 273.87648 
L 184.325766 273.18656 
L 184.650745 272.5952 
L 184.975725 272.79232 
L 185.300704 273.18656 
L 185.625684 274.66496 
L 185.950663 273.28512 
L 186.275643 273.38368 
L 186.600622 273.77792 
L 186.925602 273.5808 
L 187.250581 273.5808 
L 187.575561 274.86208 
L 187.900541 273.28512 
L 188.22552 274.17216 
L 188.5505 272.89088 
L 188.875479 273.67936 
L 189.200459 274.66496 
L 189.525438 273.28512 
L 189.850418 273.38368 
L 190.175397 275.0592 
L 190.500377 274.0736 
L 190.825356 273.87648 
L 191.150336 273.67936 
L 191.475315 273.088 
L 191.800295 273.38368 
L 192.125274 272.89088 
L 192.450254 274.5664 
L 192.775233 273.77792 
L 193.100213 274.36928 
L 193.425192 273.77792 
L 193.750172 273.77792 
L 194.075152 275.74912 
L 194.400131 273.38368 
L 194.725111 274.27072 
L 195.05009 274.46784 
L 195.37507 273.38368 
L 195.700049 273.28512 
L 196.025029 274.17216 
L 196.350008 274.27072 
L 196.674988 275.0592 
L 196.999967 273.67936 
L 197.324947 273.77792 
L 197.649926 274.17216 
L 197.974906 274.66496 
L 198.299885 274.27072 
L 198.624865 274.76352 
L 198.949844 273.87648 
L 199.274824 273.97504 
L 199.599803 274.66496 
L 199.924783 274.36928 
L 200.249762 274.0736 
L 200.574742 274.17216 
L 200.899722 274.66496 
L 201.224701 275.0592 
L 201.549681 273.97504 
L 201.87466 274.27072 
L 202.19964 274.27072 
L 202.524619 273.87648 
L 202.849599 274.66496 
L 203.174578 274.36928 
L 203.499558 274.27072 
L 203.824537 274.5664 
L 204.149517 273.088 
L 204.474496 273.97504 
L 204.799476 275.15776 
L 205.124455 274.0736 
L 205.449435 274.27072 
L 205.774414 274.0736 
L 206.099394 273.77792 
L 206.424373 273.87648 
L 206.749353 274.0736 
L 207.074333 273.5808 
L 207.399312 274.86208 
L 207.724292 275.0592 
L 208.049271 273.5808 
L 208.374251 274.0736 
L 208.69923 275.45344 
L 209.02421 274.17216 
L 209.349189 273.97504 
L 209.674169 274.5664 
L 209.999148 273.28512 
L 210.324128 274.5664 
L 210.649107 274.17216 
L 210.974087 274.0736 
L 211.299066 274.5664 
L 211.624046 274.46784 
L 211.949025 274.36928 
L 212.274005 273.48224 
L 212.598984 274.96064 
L 212.923964 275.35488 
L 213.248943 274.36928 
L 213.573923 273.97504 
L 213.898903 275.35488 
L 214.223882 273.48224 
L 214.548862 275.65056 
L 214.873841 275.25632 
L 215.198821 274.76352 
L 215.5238 274.5664 
L 215.84878 274.86208 
L 216.173759 275.35488 
L 216.498739 274.76352 
L 216.823718 276.14336 
L 217.148698 274.86208 
L 217.473677 274.5664 
L 217.798657 275.0592 
L 218.123636 275.15776 
L 218.448616 274.76352 
L 218.773595 275.35488 
L 219.098575 274.76352 
L 219.423554 275.35488 
L 219.748534 274.5664 
L 220.073514 273.97504 
L 220.398493 274.5664 
L 220.723473 274.0736 
L 221.048452 274.36928 
L 221.373432 274.86208 
L 221.698411 274.5664 
L 222.023391 275.25632 
L 222.34837 274.5664 
L 222.67335 273.97504 
L 222.998329 273.77792 
L 223.323309 274.17216 
L 223.648288 274.66496 
L 223.973268 274.46784 
L 224.298247 274.36928 
L 224.623227 274.86208 
L 224.948206 275.74912 
L 225.273186 274.5664 
L 225.598165 274.96064 
L 225.923145 275.0592 
L 226.248124 274.5664 
L 226.573104 275.0592 
L 226.898084 274.76352 
L 227.223063 274.0736 
L 227.548043 274.86208 
L 227.873022 273.48224 
L 228.198002 274.66496 
L 228.522981 274.17216 
L 228.847961 274.27072 
L 229.17294 274.5664 
L 229.49792 274.86208 
L 229.822899 274.46784 
L 230.147879 274.17216 
L 230.472858 274.27072 
L 230.797838 275.25632 
L 231.122817 274.0736 
L 231.447797 274.17216 
L 231.772776 273.67936 
L 232.097756 274.46784 
L 232.422735 274.66496 
L 232.747715 274.96064 
L 233.072695 273.77792 
L 233.397674 274.0736 
L 233.722654 274.27072 
L 234.047633 274.36928 
L 234.372613 273.87648 
L 234.697592 275.25632 
L 235.022572 274.0736 
L 235.347551 274.76352 
L 235.672531 275.25632 
L 235.99751 273.77792 
L 236.32249 275.0592 
L 236.647469 274.96064 
L 236.972449 273.97504 
L 237.297428 273.48224 
L 237.622408 274.76352 
L 237.947387 273.87648 
L 238.272367 273.5808 
L 238.597346 275.45344 
L 238.922326 273.87648 
L 239.247305 275.25632 
L 239.572285 275.45344 
L 239.897265 275.15776 
L 240.222244 274.96064 
L 240.547224 274.36928 
L 240.872203 274.86208 
L 241.197183 275.0592 
L 241.522162 274.76352 
L 241.847142 275.45344 
L 242.172121 274.76352 
L 242.497101 274.76352 
L 242.82208 273.87648 
L 243.14706 275.94624 
L 243.472039 273.87648 
L 243.797019 275.0592 
L 244.121998 275.0592 
L 244.446978 274.5664 
L 244.771957 275.25632 
L 245.096937 274.5664 
L 245.421916 274.5664 
L 245.746896 274.66496 
L 246.071876 274.86208 
L 246.396855 275.552 
L 246.721835 274.86208 
L 247.046814 274.96064 
L 247.371794 274.5664 
L 247.696773 274.96064 
L 248.021753 275.45344 
L 248.346732 274.76352 
L 248.671712 275.45344 
L 248.996691 274.76352 
L 249.321671 276.14336 
L 249.64665 275.0592 
L 249.97163 275.45344 
L 250.296609 274.46784 
L 250.621589 275.94624 
L 250.946568 275.35488 
L 251.271548 274.27072 
L 251.596527 275.35488 
L 251.921507 275.0592 
L 252.246486 275.35488 
L 252.571466 275.552 
L 252.896446 275.94624 
L 253.221425 275.0592 
L 253.546405 274.36928 
L 253.871384 275.94624 
L 254.196364 274.5664 
L 254.521343 275.84768 
L 254.846323 274.76352 
L 255.171302 274.76352 
L 255.496282 275.15776 
L 255.821261 274.66496 
L 256.146241 275.0592 
L 256.47122 274.86208 
L 256.7962 275.15776 
L 257.121179 275.552 
L 257.446159 275.15776 
L 257.771138 274.5664 
L 258.096118 274.27072 
L 258.421097 276.0448 
L 258.746077 275.0592 
L 259.071057 276.34048 
L 259.396036 275.15776 
L 259.721016 275.25632 
L 260.045995 274.86208 
L 260.370975 275.0592 
L 260.695954 275.45344 
L 261.020934 275.15776 
L 261.345913 275.94624 
L 261.670893 274.46784 
L 261.995872 274.27072 
L 262.320852 274.96064 
L 262.645831 275.45344 
L 262.970811 273.97504 
L 263.29579 274.36928 
L 263.62077 274.66496 
L 263.945749 274.96064 
L 264.270729 274.46784 
L 264.595708 274.76352 
L 264.920688 275.15776 
L 265.245667 274.66496 
L 265.570647 275.25632 
L 265.895627 275.15776 
L 266.220606 274.0736 
L 266.545586 274.66496 
L 266.870565 275.25632 
L 267.195545 275.15776 
L 267.520524 274.5664 
L 267.845504 274.66496 
L 268.170483 274.36928 
L 268.495463 275.35488 
L 268.820442 275.25632 
L 269.145422 274.66496 
L 269.470401 274.5664 
L 269.795381 275.45344 
L 270.12036 274.27072 
L 270.44534 274.66496 
L 270.770319 274.36928 
L 271.095299 275.0592 
L 271.420278 275.45344 
L 271.745258 275.0592 
L 272.070238 275.552 
L 272.395217 273.77792 
L 272.720197 274.66496 
L 273.045176 274.36928 
L 273.370156 275.25632 
L 273.695135 273.67936 
L 274.020115 274.46784 
L 274.345094 274.5664 
L 274.670074 274.76352 
L 274.995053 273.87648 
L 275.320033 275.65056 
L 275.645012 274.17216 
L 275.969992 274.96064 
L 276.294971 275.0592 
L 276.619951 274.5664 
L 276.94493 274.5664 
L 277.26991 275.65056 
L 277.594889 273.97504 
L 277.919869 275.45344 
L 278.244848 274.76352 
L 278.569828 274.66496 
L 278.894808 274.66496 
L 279.219787 274.96064 
L 279.544767 274.96064 
L 279.869746 274.46784 
L 280.194726 274.86208 
L 280.519705 275.35488 
L 280.844685 274.36928 
L 281.169664 273.77792 
L 281.494644 274.76352 
L 281.819623 274.46784 
L 282.144603 275.0592 
L 282.469582 274.86208 
L 282.794562 274.76352 
L 283.119541 275.35488 
L 283.444521 274.76352 
L 283.7695 274.76352 
L 284.09448 274.5664 
L 284.419459 274.66496 
L 284.744439 274.76352 
L 285.069419 275.0592 
L 285.394398 275.15776 
L 285.719378 274.27072 
L 286.044357 273.87648 
L 286.369337 273.87648 
L 286.694316 274.66496 
L 287.019296 274.5664 
L 287.344275 273.87648 
L 287.669255 274.36928 
L 287.994234 274.5664 
L 288.319214 274.46784 
L 288.644193 273.97504 
L 288.969173 273.97504 
L 289.294152 274.66496 
L 289.619132 274.27072 
L 289.944111 274.5664 
L 290.269091 274.17216 
L 290.59407 274.0736 
L 290.91905 273.87648 
L 291.244029 275.35488 
L 291.569009 274.27072 
L 291.893989 272.89088 
L 292.218968 274.17216 
L 292.543948 274.0736 
L 292.868927 274.36928 
L 293.193907 273.38368 
L 293.518886 273.5808 
L 293.843866 274.5664 
L 294.168845 274.66496 
L 294.493825 273.5808 
L 294.818804 273.18656 
L 295.143784 273.87648 
L 295.468763 274.36928 
L 295.793743 274.76352 
L 296.118722 273.38368 
L 296.443702 274.27072 
L 296.768681 273.97504 
L 297.093661 275.552 
L 297.41864 274.0736 
L 297.74362 273.87648 
L 298.0686 273.77792 
L 298.393579 273.97504 
L 298.718559 274.46784 
L 299.043538 274.17216 
L 299.368518 273.48224 
L 299.693497 274.0736 
L 300.018477 274.36928 
L 300.343456 273.67936 
L 300.668436 273.28512 
L 300.993415 274.76352 
L 301.318395 273.67936 
L 301.643374 274.86208 
L 301.968354 274.66496 
L 302.293333 274.0736 
L 302.618313 274.66496 
L 302.943292 272.49664 
L 303.268272 273.97504 
L 303.593251 275.15776 
L 303.918231 273.97504 
L 304.24321 274.76352 
L 304.56819 274.5664 
L 304.89317 275.35488 
L 305.218149 275.45344 
L 305.543129 276.14336 
L 305.868108 274.46784 
L 306.193088 274.36928 
L 306.518067 275.0592 
L 306.843047 274.96064 
L 307.168026 273.97504 
L 307.493006 275.0592 
L 307.817985 274.0736 
L 308.142965 273.87648 
L 308.467944 275.552 
L 308.792924 274.76352 
L 309.117903 274.86208 
L 309.442883 274.86208 
L 309.767862 274.96064 
L 310.092842 274.0736 
L 310.417821 274.36928 
L 310.742801 274.66496 
L 311.067781 274.0736 
L 311.39276 274.27072 
L 311.71774 275.45344 
L 312.042719 275.45344 
L 312.367699 273.48224 
L 312.692678 274.66496 
L 313.017658 274.46784 
L 313.342637 274.86208 
L 313.667617 274.36928 
L 313.992596 274.76352 
L 314.317576 275.0592 
L 314.642555 273.77792 
L 314.967535 274.27072 
L 315.292514 275.45344 
L 315.617494 273.87648 
L 315.942473 274.36928 
L 316.267453 274.96064 
L 316.592432 274.36928 
L 316.917412 273.97504 
L 317.242391 274.5664 
L 317.567371 274.27072 
L 317.892351 274.96064 
L 318.21733 274.96064 
L 318.54231 274.76352 
L 318.867289 274.0736 
L 319.192269 274.76352 
L 319.517248 275.35488 
L 319.842228 274.27072 
L 320.167207 274.5664 
L 320.492187 274.46784 
L 320.817166 275.35488 
L 321.142146 274.5664 
L 321.467125 274.46784 
L 321.792105 274.66496 
L 322.117084 275.25632 
L 322.442064 274.27072 
L 322.767043 274.5664 
L 323.092023 274.76352 
L 323.417002 275.25632 
L 323.741982 276.43904 
L 324.066962 275.0592 
L 324.391941 274.86208 
L 324.716921 273.18656 
L 325.0419 274.36928 
L 325.36688 275.25632 
L 325.691859 275.35488 
L 326.016839 274.86208 
L 326.341818 274.46784 
L 326.666798 275.0592 
L 326.991777 275.35488 
L 327.316757 275.15776 
L 327.641736 274.27072 
L 327.966716 274.76352 
L 328.291695 274.66496 
L 328.616675 275.45344 
L 328.941654 274.66496 
L 329.266634 274.66496 
L 329.591613 274.46784 
L 329.916593 275.65056 
L 330.241572 274.17216 
L 330.566552 274.46784 
L 330.891532 275.15776 
L 331.216511 274.5664 
L 331.541491 274.96064 
L 331.86647 274.66496 
L 332.19145 273.97504 
L 332.516429 274.66496 
L 332.841409 273.77792 
L 333.166388 274.86208 
L 333.491368 274.76352 
L 333.816347 274.46784 
L 334.141327 274.76352 
L 334.466306 274.17216 
L 334.791286 274.86208 
L 335.116265 273.87648 
L 335.441245 274.5664 
L 335.766224 274.36928 
L 336.091204 273.77792 
L 336.416183 275.15776 
L 336.741163 274.36928 
L 337.066143 274.76352 
L 337.391122 274.86208 
L 337.716102 273.38368 
L 338.041081 273.67936 
L 338.366061 274.0736 
L 338.69104 274.96064 
L 339.01602 274.46784 
L 339.340999 274.36928 
L 339.665979 275.0592 
L 339.990958 274.36928 
L 340.315938 274.96064 
L 340.640917 273.67936 
L 340.965897 274.36928 
L 341.290876 274.76352 
L 341.615856 274.0736 
L 341.940835 273.77792 
L 342.265815 274.86208 
L 342.590794 274.0736 
L 342.915774 273.77792 
L 343.240753 274.36928 
L 343.565733 275.15776 
L 343.890713 273.97504 
L 344.215692 273.97504 
L 344.540672 274.76352 
L 344.865651 273.97504 
L 345.190631 273.48224 
L 345.51561 273.97504 
L 345.84059 274.86208 
L 346.165569 273.5808 
L 346.490549 274.46784 
L 346.815528 274.66496 
L 347.140508 274.76352 
L 347.465487 274.17216 
L 347.790467 273.48224 
L 348.115446 274.36928 
L 348.440426 274.0736 
L 348.765405 273.28512 
L 349.090385 274.66496 
L 349.415364 275.35488 
L 349.740344 274.17216 
L 350.065324 273.67936 
L 350.390303 273.67936 
L 350.715283 274.46784 
L 351.040262 273.67936 
L 351.365242 274.17216 
L 351.690221 274.17216 
L 352.015201 274.46784 
L 352.34018 274.17216 
L 352.66516 274.36928 
L 352.990139 274.76352 
L 353.315119 274.5664 
L 353.640098 272.89088 
L 353.965078 273.5808 
L 354.290057 274.17216 
L 354.615037 274.17216 
L 354.940016 274.76352 
L 355.264996 273.97504 
L 355.589975 274.36928 
L 355.914955 275.25632 
L 356.239934 274.46784 
L 356.564914 273.18656 
L 356.889894 273.77792 
L 357.214873 273.67936 
L 357.539853 274.17216 
L 357.864832 274.5664 
L 358.189812 274.36928 
L 358.514791 274.0736 
L 358.839771 274.17216 
L 359.16475 274.17216 
L 359.48973 273.77792 
L 359.814709 273.97504 
L 360.139689 274.27072 
L 360.464668 273.67936 
L 360.789648 273.77792 
L 361.114627 274.0736 
L 361.439607 274.86208 
L 361.764586 273.77792 
L 362.089566 273.48224 
L 362.414545 273.38368 
L 362.739525 273.97504 
L 363.064505 274.66496 
L 363.389484 273.67936 
L 363.714464 273.48224 
L 364.039443 273.67936 
L 364.364423 273.97504 
L 364.689402 273.87648 
L 365.014382 273.5808 
L 365.339361 274.36928 
L 365.664341 274.96064 
L 365.98932 273.77792 
L 366.3143 272.89088 
L 366.639279 274.27072 
L 366.964259 274.86208 
L 367.289238 274.17216 
L 367.614218 273.67936 
L 367.939197 273.87648 
L 368.264177 274.46784 
L 368.589156 273.48224 
L 368.914136 273.97504 
L 369.239115 273.67936 
L 369.564095 274.76352 
L 369.889075 273.77792 
L 370.214054 273.87648 
L 370.539034 274.46784 
L 370.864013 274.36928 
L 371.188993 274.36928 
L 371.513972 273.28512 
L 371.838952 273.5808 
L 372.163931 273.87648 
L 372.488911 274.5664 
L 372.81389 275.0592 
L 373.13887 274.76352 
L 373.463849 274.46784 
L 373.788829 274.66496 
L 374.113808 274.36928 
L 374.438788 274.36928 
L 374.763767 273.5808 
L 375.088747 274.17216 
L 375.413726 274.36928 
L 375.738706 274.5664 
L 376.063686 274.5664 
L 376.388665 274.27072 
L 376.713645 274.27072 
L 377.038624 274.66496 
L 377.363604 273.77792 
L 377.688583 274.76352 
L 378.013563 274.96064 
L 378.338542 274.36928 
L 378.663522 273.18656 
L 378.988501 274.27072 
L 379.313481 274.76352 
L 379.63846 274.27072 
L 379.96344 274.36928 
L 380.288419 274.46784 
L 380.613399 274.27072 
L 380.938378 274.17216 
L 381.263358 275.0592 
L 381.588337 274.46784 
L 381.913317 274.36928 
L 382.238296 274.27072 
L 382.563276 274.0736 
L 382.888256 274.27072 
L 383.213235 273.67936 
L 383.538215 273.97504 
L 383.863194 274.36928 
L 384.188174 274.0736 
L 384.513153 275.0592 
L 384.838133 274.5664 
L 385.163112 274.36928 
L 385.488092 274.76352 
L 385.813071 275.25632 
L 386.138051 274.66496 
L 386.46303 274.27072 
L 386.78801 274.0736 
L 387.112989 274.0736 
L 387.437969 273.38368 
L 387.762948 274.27072 
L 388.087928 274.17216 
L 388.412907 273.97504 
L 388.737887 273.97504 
L 389.062867 274.5664 
L 389.387846 274.76352 
L 389.712826 273.97504 
L 390.037805 274.17216 
L 390.362785 273.088 
L 390.687764 274.0736 
L 391.012744 273.97504 
L 391.337723 275.0592 
L 391.662703 274.27072 
L 391.987682 274.0736 
L 392.312662 274.27072 
L 392.637641 274.76352 
L 392.962621 274.66496 
L 393.2876 274.27072 
L 393.61258 273.77792 
L 393.937559 273.67936 
L 394.262539 273.97504 
L 394.587518 273.97504 
L 394.912498 274.76352 
L 395.237477 273.28512 
L 395.562457 274.0736 
L 395.887437 274.36928 
L 396.212416 274.96064 
L 396.537396 274.5664 
L 396.862375 274.66496 
L 397.187355 274.5664 
L 397.512334 273.87648 
L 397.837314 274.5664 
L 398.162293 273.77792 
L 398.487273 274.27072 
L 398.487273 272.5952 
L 398.487273 272.5952 
L 398.162293 271.51104 
L 397.837314 272.89088 
L 397.512334 271.90528 
L 397.187355 272.69376 
L 396.862375 271.90528 
L 396.537396 271.41248 
L 396.212416 271.70816 
L 395.887437 272.00384 
L 395.562457 271.80672 
L 395.237477 271.41248 
L 394.912498 273.088 
L 394.587518 271.6096 
L 394.262539 273.48224 
L 393.937559 272.1024 
L 393.61258 272.29952 
L 393.2876 272.98944 
L 392.962621 271.70816 
L 392.637641 272.00384 
L 392.312662 273.088 
L 391.987682 271.01824 
L 391.662703 272.69376 
L 391.337723 272.49664 
L 391.012744 272.29952 
L 390.687764 272.20096 
L 390.362785 271.6096 
L 390.037805 271.6096 
L 389.712826 272.79232 
L 389.387846 272.89088 
L 389.062867 272.79232 
L 388.737887 272.00384 
L 388.412907 271.51104 
L 388.087928 271.70816 
L 387.762948 272.69376 
L 387.437969 270.82112 
L 387.112989 271.51104 
L 386.78801 272.39808 
L 386.46303 271.90528 
L 386.138051 271.21536 
L 385.813071 272.00384 
L 385.488092 272.29952 
L 385.163112 270.22976 
L 384.838133 272.1024 
L 384.513153 270.52544 
L 384.188174 271.70816 
L 383.863194 271.31392 
L 383.538215 272.29952 
L 383.213235 271.31392 
L 382.888256 271.70816 
L 382.563276 273.38368 
L 382.238296 272.29952 
L 381.913317 271.6096 
L 381.588337 272.00384 
L 381.263358 269.34272 
L 380.938378 271.6096 
L 380.613399 271.51104 
L 380.288419 271.70816 
L 379.96344 270.52544 
L 379.63846 271.1168 
L 379.313481 272.89088 
L 378.988501 272.39808 
L 378.663522 270.82112 
L 378.338542 272.29952 
L 378.013563 271.70816 
L 377.688583 270.42688 
L 377.363604 271.21536 
L 377.038624 271.80672 
L 376.713645 270.42688 
L 376.388665 271.70816 
L 376.063686 272.1024 
L 375.738706 273.088 
L 375.413726 270.22976 
L 375.088747 272.29952 
L 374.763767 271.6096 
L 374.438788 271.6096 
L 374.113808 272.20096 
L 373.788829 272.20096 
L 373.463849 272.00384 
L 373.13887 272.5952 
L 372.81389 272.1024 
L 372.488911 272.79232 
L 372.163931 272.49664 
L 371.838952 271.80672 
L 371.513972 270.91968 
L 371.188993 272.00384 
L 370.864013 272.00384 
L 370.539034 272.20096 
L 370.214054 271.1168 
L 369.889075 271.51104 
L 369.564095 271.51104 
L 369.239115 271.80672 
L 368.914136 270.52544 
L 368.589156 272.49664 
L 368.264177 271.51104 
L 367.939197 271.90528 
L 367.614218 271.70816 
L 367.289238 271.90528 
L 366.964259 273.48224 
L 366.639279 270.52544 
L 366.3143 271.6096 
L 365.98932 272.20096 
L 365.664341 271.41248 
L 365.339361 271.6096 
L 365.014382 271.6096 
L 364.689402 272.00384 
L 364.364423 270.82112 
L 364.039443 270.624 
L 363.714464 271.80672 
L 363.389484 271.51104 
L 363.064505 270.624 
L 362.739525 271.90528 
L 362.414545 272.1024 
L 362.089566 271.01824 
L 361.764586 270.03264 
L 361.439607 270.52544 
L 361.114627 272.79232 
L 360.789648 271.41248 
L 360.464668 271.31392 
L 360.139689 271.31392 
L 359.814709 272.89088 
L 359.48973 271.51104 
L 359.16475 272.5952 
L 358.839771 272.39808 
L 358.514791 272.39808 
L 358.189812 272.5952 
L 357.864832 270.82112 
L 357.539853 271.70816 
L 357.214873 271.70816 
L 356.889894 270.624 
L 356.564914 271.51104 
L 356.239934 272.39808 
L 355.914955 272.79232 
L 355.589975 272.39808 
L 355.264996 273.18656 
L 354.940016 272.29952 
L 354.615037 271.1168 
L 354.290057 271.6096 
L 353.965078 271.41248 
L 353.640098 271.51104 
L 353.315119 271.51104 
L 352.990139 272.79232 
L 352.66516 271.01824 
L 352.34018 272.29952 
L 352.015201 272.29952 
L 351.690221 272.29952 
L 351.365242 272.39808 
L 351.040262 272.98944 
L 350.715283 272.98944 
L 350.390303 271.90528 
L 350.065324 272.29952 
L 349.740344 272.89088 
L 349.415364 271.41248 
L 349.090385 272.39808 
L 348.765405 272.49664 
L 348.440426 272.29952 
L 348.115446 272.98944 
L 347.790467 272.5952 
L 347.465487 272.00384 
L 347.140508 271.6096 
L 346.815528 272.39808 
L 346.490549 272.49664 
L 346.165569 271.21536 
L 345.84059 273.28512 
L 345.51561 272.98944 
L 345.190631 271.1168 
L 344.865651 272.69376 
L 344.540672 271.80672 
L 344.215692 272.69376 
L 343.890713 273.088 
L 343.565733 273.18656 
L 343.240753 272.79232 
L 342.915774 272.69376 
L 342.590794 272.20096 
L 342.265815 270.91968 
L 341.940835 272.39808 
L 341.615856 272.69376 
L 341.290876 272.79232 
L 340.965897 272.39808 
L 340.640917 270.72256 
L 340.315938 272.29952 
L 339.990958 272.89088 
L 339.665979 272.89088 
L 339.340999 271.41248 
L 339.01602 271.51104 
L 338.69104 272.20096 
L 338.366061 272.29952 
L 338.041081 272.29952 
L 337.716102 272.1024 
L 337.391122 272.98944 
L 337.066143 272.1024 
L 336.741163 271.51104 
L 336.416183 272.00384 
L 336.091204 272.79232 
L 335.766224 271.70816 
L 335.441245 272.98944 
L 335.116265 272.79232 
L 334.791286 272.1024 
L 334.466306 271.21536 
L 334.141327 272.79232 
L 333.816347 271.70816 
L 333.491368 271.6096 
L 333.166388 272.79232 
L 332.841409 272.69376 
L 332.516429 272.1024 
L 332.19145 272.1024 
L 331.86647 272.1024 
L 331.541491 272.49664 
L 331.216511 272.49664 
L 330.891532 273.38368 
L 330.566552 273.18656 
L 330.241572 271.70816 
L 329.916593 272.49664 
L 329.591613 272.79232 
L 329.266634 272.00384 
L 328.941654 272.39808 
L 328.616675 272.89088 
L 328.291695 271.70816 
L 327.966716 272.49664 
L 327.641736 272.20096 
L 327.316757 271.1168 
L 326.991777 271.90528 
L 326.666798 273.5808 
L 326.341818 272.79232 
L 326.016839 272.79232 
L 325.691859 272.00384 
L 325.36688 272.49664 
L 325.0419 272.49664 
L 324.716921 272.39808 
L 324.391941 273.5808 
L 324.066962 273.18656 
L 323.741982 272.39808 
L 323.417002 272.79232 
L 323.092023 271.90528 
L 322.767043 272.98944 
L 322.442064 273.088 
L 322.117084 272.5952 
L 321.792105 273.088 
L 321.467125 272.5952 
L 321.142146 272.39808 
L 320.817166 272.29952 
L 320.492187 272.5952 
L 320.167207 273.18656 
L 319.842228 272.00384 
L 319.517248 271.41248 
L 319.192269 272.29952 
L 318.867289 271.21536 
L 318.54231 272.69376 
L 318.21733 273.088 
L 317.892351 273.088 
L 317.567371 271.51104 
L 317.242391 272.69376 
L 316.917412 271.90528 
L 316.592432 271.6096 
L 316.267453 272.49664 
L 315.942473 272.79232 
L 315.617494 273.088 
L 315.292514 271.70816 
L 314.967535 273.088 
L 314.642555 271.41248 
L 314.317576 272.98944 
L 313.992596 272.49664 
L 313.667617 271.70816 
L 313.342637 270.82112 
L 313.017658 271.90528 
L 312.692678 270.03264 
L 312.367699 272.39808 
L 312.042719 270.42688 
L 311.71774 272.29952 
L 311.39276 272.00384 
L 311.067781 273.48224 
L 310.742801 270.82112 
L 310.417821 272.29952 
L 310.092842 273.088 
L 309.767862 269.44128 
L 309.442883 271.01824 
L 309.117903 270.72256 
L 308.792924 272.49664 
L 308.467944 270.32832 
L 308.142965 271.80672 
L 307.817985 271.90528 
L 307.493006 269.83552 
L 307.168026 269.73696 
L 306.843047 270.42688 
L 306.518067 270.624 
L 306.193088 271.51104 
L 305.868108 271.01824 
L 305.543129 271.21536 
L 305.218149 270.52544 
L 304.89317 271.6096 
L 304.56819 271.6096 
L 304.24321 270.91968 
L 303.918231 269.83552 
L 303.593251 269.83552 
L 303.268272 272.20096 
L 302.943292 270.91968 
L 302.618313 269.73696 
L 302.293333 271.6096 
L 301.968354 270.42688 
L 301.643374 270.72256 
L 301.318395 271.1168 
L 300.993415 271.80672 
L 300.668436 270.22976 
L 300.343456 270.42688 
L 300.018477 270.72256 
L 299.693497 271.6096 
L 299.368518 270.42688 
L 299.043538 271.1168 
L 298.718559 270.52544 
L 298.393579 271.41248 
L 298.0686 270.42688 
L 297.74362 271.51104 
L 297.41864 270.22976 
L 297.093661 269.34272 
L 296.768681 270.52544 
L 296.443702 270.03264 
L 296.118722 270.624 
L 295.793743 272.20096 
L 295.468763 269.93408 
L 295.143784 270.1312 
L 294.818804 269.53984 
L 294.493825 271.31392 
L 294.168845 270.52544 
L 293.843866 271.41248 
L 293.518886 270.72256 
L 293.193907 271.31392 
L 292.868927 271.51104 
L 292.543948 270.32832 
L 292.218968 270.82112 
L 291.893989 270.32832 
L 291.569009 271.1168 
L 291.244029 272.00384 
L 290.91905 271.51104 
L 290.59407 271.1168 
L 290.269091 271.31392 
L 289.944111 270.32832 
L 289.619132 271.41248 
L 289.294152 271.70816 
L 288.969173 273.088 
L 288.644193 271.70816 
L 288.319214 271.31392 
L 287.994234 272.20096 
L 287.669255 270.91968 
L 287.344275 271.31392 
L 287.019296 271.21536 
L 286.694316 273.088 
L 286.369337 271.1168 
L 286.044357 271.51104 
L 285.719378 271.80672 
L 285.394398 270.52544 
L 285.069419 272.29952 
L 284.744439 272.89088 
L 284.419459 272.1024 
L 284.09448 271.90528 
L 283.7695 271.70816 
L 283.444521 271.70816 
L 283.119541 270.72256 
L 282.794562 270.624 
L 282.469582 272.1024 
L 282.144603 271.01824 
L 281.819623 271.90528 
L 281.494644 271.1168 
L 281.169664 273.088 
L 280.844685 272.1024 
L 280.519705 270.91968 
L 280.194726 272.29952 
L 279.869746 272.5952 
L 279.544767 270.52544 
L 279.219787 270.03264 
L 278.894808 270.42688 
L 278.569828 272.29952 
L 278.244848 268.84992 
L 277.919869 271.1168 
L 277.594889 270.1312 
L 277.26991 271.1168 
L 276.94493 271.70816 
L 276.619951 269.6384 
L 276.294971 270.42688 
L 275.969992 272.1024 
L 275.645012 270.91968 
L 275.320033 271.31392 
L 274.995053 269.73696 
L 274.670074 270.42688 
L 274.345094 270.42688 
L 274.020115 269.83552 
L 273.695135 267.96288 
L 273.370156 270.72256 
L 273.045176 270.1312 
L 272.720197 270.52544 
L 272.395217 269.24416 
L 272.070238 269.83552 
L 271.745258 269.34272 
L 271.420278 270.03264 
L 271.095299 270.72256 
L 270.770319 269.6384 
L 270.44534 269.04704 
L 270.12036 269.83552 
L 269.795381 270.72256 
L 269.470401 269.24416 
L 269.145422 268.94848 
L 268.820442 270.22976 
L 268.495463 270.91968 
L 268.170483 271.1168 
L 267.845504 271.31392 
L 267.520524 271.41248 
L 267.195545 271.21536 
L 266.870565 269.83552 
L 266.545586 270.42688 
L 266.220606 270.22976 
L 265.895627 271.21536 
L 265.570647 269.53984 
L 265.245667 269.24416 
L 264.920688 270.22976 
L 264.595708 269.1456 
L 264.270729 269.24416 
L 263.945749 270.1312 
L 263.62077 269.73696 
L 263.29579 271.6096 
L 262.970811 271.41248 
L 262.645831 271.21536 
L 262.320852 269.93408 
L 261.995872 268.75136 
L 261.670893 270.52544 
L 261.345913 271.6096 
L 261.020934 271.51104 
L 260.695954 272.00384 
L 260.370975 270.03264 
L 260.045995 271.6096 
L 259.721016 271.41248 
L 259.396036 270.82112 
L 259.071057 271.21536 
L 258.746077 269.44128 
L 258.421097 268.6528 
L 258.096118 271.21536 
L 257.771138 270.42688 
L 257.446159 270.32832 
L 257.121179 270.52544 
L 256.7962 270.624 
L 256.47122 271.31392 
L 256.146241 270.91968 
L 255.821261 271.1168 
L 255.496282 270.82112 
L 255.171302 271.01824 
L 254.846323 271.41248 
L 254.521343 269.83552 
L 254.196364 270.03264 
L 253.871384 272.39808 
L 253.546405 271.21536 
L 253.221425 270.82112 
L 252.896446 270.72256 
L 252.571466 272.00384 
L 252.246486 272.89088 
L 251.921507 272.00384 
L 251.596527 272.29952 
L 251.271548 271.1168 
L 250.946568 272.29952 
L 250.621589 272.00384 
L 250.296609 273.088 
L 249.97163 272.39808 
L 249.64665 272.69376 
L 249.321671 272.69376 
L 248.996691 272.69376 
L 248.671712 272.89088 
L 248.346732 271.80672 
L 248.021753 273.87648 
L 247.696773 272.00384 
L 247.371794 270.91968 
L 247.046814 272.49664 
L 246.721835 272.49664 
L 246.396855 271.90528 
L 246.071876 272.29952 
L 245.746896 272.20096 
L 245.421916 272.49664 
L 245.096937 272.49664 
L 244.771957 273.18656 
L 244.446978 272.1024 
L 244.121998 271.31392 
L 243.797019 273.67936 
L 243.472039 271.6096 
L 243.14706 273.18656 
L 242.82208 272.1024 
L 242.497101 271.90528 
L 242.172121 272.00384 
L 241.847142 272.29952 
L 241.522162 272.39808 
L 241.197183 272.69376 
L 240.872203 272.39808 
L 240.547224 271.90528 
L 240.222244 272.29952 
L 239.897265 271.90528 
L 239.572285 272.69376 
L 239.247305 272.29952 
L 238.922326 271.21536 
L 238.597346 270.72256 
L 238.272367 271.6096 
L 237.947387 272.29952 
L 237.622408 272.39808 
L 237.297428 272.1024 
L 236.972449 271.51104 
L 236.647469 273.67936 
L 236.32249 273.088 
L 235.99751 272.29952 
L 235.672531 272.39808 
L 235.347551 272.49664 
L 235.022572 271.90528 
L 234.697592 272.5952 
L 234.372613 272.29952 
L 234.047633 272.79232 
L 233.722654 272.39808 
L 233.397674 271.6096 
L 233.072695 272.79232 
L 232.747715 272.20096 
L 232.422735 272.69376 
L 232.097756 273.18656 
L 231.772776 272.29952 
L 231.447797 272.5952 
L 231.122817 273.088 
L 230.797838 273.97504 
L 230.472858 271.21536 
L 230.147879 272.29952 
L 229.822899 273.48224 
L 229.49792 271.41248 
L 229.17294 272.1024 
L 228.847961 272.20096 
L 228.522981 272.79232 
L 228.198002 272.20096 
L 227.873022 272.49664 
L 227.548043 272.5952 
L 227.223063 272.1024 
L 226.898084 271.80672 
L 226.573104 272.89088 
L 226.248124 272.39808 
L 225.923145 271.6096 
L 225.598165 273.38368 
L 225.273186 272.49664 
L 224.948206 271.31392 
L 224.623227 271.80672 
L 224.298247 270.1312 
L 223.973268 272.20096 
L 223.648288 271.70816 
L 223.323309 272.39808 
L 222.998329 272.5952 
L 222.67335 271.31392 
L 222.34837 271.51104 
L 222.023391 271.1168 
L 221.698411 272.89088 
L 221.373432 272.69376 
L 221.048452 271.90528 
L 220.723473 272.79232 
L 220.398493 270.82112 
L 220.073514 271.01824 
L 219.748534 272.1024 
L 219.423554 271.01824 
L 219.098575 272.1024 
L 218.773595 272.00384 
L 218.448616 270.624 
L 218.123636 271.51104 
L 217.798657 272.00384 
L 217.473677 271.6096 
L 217.148698 270.52544 
L 216.823718 272.5952 
L 216.498739 272.5952 
L 216.173759 271.31392 
L 215.84878 270.52544 
L 215.5238 270.03264 
L 215.198821 271.21536 
L 214.873841 271.80672 
L 214.548862 272.00384 
L 214.223882 271.90528 
L 213.898903 272.1024 
L 213.573923 271.6096 
L 213.248943 270.03264 
L 212.923964 270.72256 
L 212.598984 272.5952 
L 212.274005 270.82112 
L 211.949025 271.70816 
L 211.624046 270.32832 
L 211.299066 270.03264 
L 210.974087 270.82112 
L 210.649107 272.1024 
L 210.324128 271.70816 
L 209.999148 271.1168 
L 209.674169 271.80672 
L 209.349189 269.93408 
L 209.02421 270.32832 
L 208.69923 270.91968 
L 208.374251 269.53984 
L 208.049271 272.1024 
L 207.724292 271.1168 
L 207.399312 269.53984 
L 207.074333 272.1024 
L 206.749353 270.91968 
L 206.424373 271.21536 
L 206.099394 270.82112 
L 205.774414 271.1168 
L 205.449435 271.21536 
L 205.124455 271.01824 
L 204.799476 271.51104 
L 204.474496 271.6096 
L 204.149517 270.91968 
L 203.824537 270.82112 
L 203.499558 272.20096 
L 203.174578 271.1168 
L 202.849599 269.93408 
L 202.524619 272.1024 
L 202.19964 271.31392 
L 201.87466 271.70816 
L 201.549681 271.1168 
L 201.224701 271.70816 
L 200.899722 271.31392 
L 200.574742 271.70816 
L 200.249762 272.20096 
L 199.924783 271.80672 
L 199.599803 271.21536 
L 199.274824 272.00384 
L 198.949844 271.80672 
L 198.624865 271.80672 
L 198.299885 272.49664 
L 197.974906 271.41248 
L 197.649926 269.93408 
L 197.324947 270.22976 
L 196.999967 271.31392 
L 196.674988 270.624 
L 196.350008 271.41248 
L 196.025029 272.29952 
L 195.700049 271.31392 
L 195.37507 272.39808 
L 195.05009 271.41248 
L 194.725111 271.1168 
L 194.400131 271.1168 
L 194.075152 270.32832 
L 193.750172 271.70816 
L 193.425192 269.93408 
L 193.100213 271.31392 
L 192.775233 271.1168 
L 192.450254 270.624 
L 192.125274 270.22976 
L 191.800295 272.1024 
L 191.475315 272.1024 
L 191.150336 270.624 
L 190.825356 271.01824 
L 190.500377 270.624 
L 190.175397 270.91968 
L 189.850418 270.1312 
L 189.525438 270.22976 
L 189.200459 270.91968 
L 188.875479 269.24416 
L 188.5505 270.72256 
L 188.22552 271.1168 
L 187.900541 269.83552 
L 187.575561 272.00384 
L 187.250581 269.83552 
L 186.925602 270.624 
L 186.600622 270.91968 
L 186.275643 270.624 
L 185.950663 269.44128 
L 185.625684 271.1168 
L 185.300704 269.53984 
L 184.975725 269.93408 
L 184.650745 270.1312 
L 184.325766 270.91968 
L 184.000786 271.21536 
L 183.675807 269.83552 
L 183.350827 271.80672 
L 183.025848 270.82112 
L 182.700868 270.42688 
L 182.375889 269.6384 
L 182.050909 271.31392 
L 181.72593 270.32832 
L 181.40095 269.6384 
L 181.075971 269.53984 
L 180.750991 270.1312 
L 180.426011 269.53984 
L 180.101032 271.31392 
L 179.776052 270.1312 
L 179.451073 269.34272 
L 179.126093 270.1312 
L 178.801114 271.21536 
L 178.476134 270.42688 
L 178.151155 270.03264 
L 177.826175 269.6384 
L 177.501196 271.01824 
L 177.176216 271.01824 
L 176.851237 270.624 
L 176.526257 268.06144 
L 176.201278 270.72256 
L 175.876298 269.83552 
L 175.551319 270.32832 
L 175.226339 271.21536 
L 174.90136 270.624 
L 174.57638 270.42688 
L 174.2514 271.01824 
L 173.926421 270.42688 
L 173.601441 270.52544 
L 173.276462 270.624 
L 172.951482 269.1456 
L 172.626503 270.52544 
L 172.301523 268.75136 
L 171.976544 271.01824 
L 171.651564 269.34272 
L 171.326585 269.6384 
L 171.001605 270.32832 
L 170.676626 271.90528 
L 170.351646 269.83552 
L 170.026667 270.1312 
L 169.701687 271.01824 
L 169.376708 268.55424 
L 169.051728 270.22976 
L 168.726749 271.31392 
L 168.401769 270.52544 
L 168.07679 270.72256 
L 167.75181 270.72256 
L 167.42683 270.1312 
L 167.101851 269.53984 
L 166.776871 269.83552 
L 166.451892 269.83552 
L 166.126912 270.91968 
L 165.801933 271.51104 
L 165.476953 272.39808 
L 165.151974 271.1168 
L 164.826994 269.34272 
L 164.502015 270.624 
L 164.177035 269.1456 
L 163.852056 270.42688 
L 163.527076 269.83552 
L 163.202097 271.80672 
L 162.877117 270.72256 
L 162.552138 272.1024 
L 162.227158 269.6384 
L 161.902179 270.52544 
L 161.577199 271.6096 
L 161.252219 271.1168 
L 160.92724 271.01824 
L 160.60226 270.624 
L 160.277281 271.1168 
L 159.952301 270.82112 
L 159.627322 271.51104 
L 159.302342 270.82112 
L 158.977363 270.32832 
L 158.652383 270.52544 
L 158.327404 270.1312 
L 158.002424 270.03264 
L 157.677445 271.70816 
L 157.352465 272.20096 
L 157.027486 270.03264 
L 156.702506 269.1456 
L 156.377527 271.80672 
L 156.052547 270.03264 
L 155.727568 270.72256 
L 155.402588 271.1168 
L 155.077609 270.1312 
L 154.752629 271.90528 
L 154.427649 271.21536 
L 154.10267 271.01824 
L 153.77769 271.51104 
L 153.452711 271.51104 
L 153.127731 270.22976 
L 152.802752 269.24416 
L 152.477772 271.31392 
L 152.152793 268.55424 
L 151.827813 271.70816 
L 151.502834 269.93408 
L 151.177854 270.42688 
L 150.852875 271.21536 
L 150.527895 270.32832 
L 150.202916 271.1168 
L 149.877936 270.22976 
L 149.552957 271.31392 
L 149.227977 271.90528 
L 148.902998 271.1168 
L 148.578018 270.1312 
L 148.253038 270.03264 
L 147.928059 269.73696 
L 147.603079 271.80672 
L 147.2781 271.90528 
L 146.95312 271.41248 
L 146.628141 271.90528 
L 146.303161 271.51104 
L 145.978182 271.31392 
L 145.653202 270.32832 
L 145.328223 271.70816 
L 145.003243 270.42688 
L 144.678264 270.22976 
L 144.353284 271.41248 
L 144.028305 271.1168 
L 143.703325 270.624 
L 143.378346 271.51104 
L 143.053366 271.70816 
L 142.728387 272.1024 
L 142.403407 270.91968 
L 142.078428 272.00384 
L 141.753448 271.51104 
L 141.428468 272.5952 
L 141.103489 270.72256 
L 140.778509 271.51104 
L 140.45353 270.91968 
L 140.12855 270.624 
L 139.803571 271.6096 
L 139.478591 271.1168 
L 139.153612 272.5952 
L 138.828632 271.21536 
L 138.503653 272.00384 
L 138.178673 271.21536 
L 137.853694 271.41248 
L 137.528714 271.80672 
L 137.203735 271.6096 
L 136.878755 271.6096 
L 136.553776 271.6096 
L 136.228796 271.70816 
L 135.903817 271.80672 
L 135.578837 271.70816 
L 135.253857 271.1168 
L 134.928878 271.41248 
L 134.603898 270.22976 
L 134.278919 271.1168 
L 133.953939 271.70816 
L 133.62896 271.1168 
L 133.30398 272.69376 
L 132.979001 271.70816 
L 132.654021 271.70816 
L 132.329042 271.51104 
L 132.004062 271.70816 
L 131.679083 271.1168 
L 131.354103 271.41248 
L 131.029124 272.00384 
L 130.704144 271.41248 
L 130.379165 272.00384 
L 130.054185 272.1024 
L 129.729206 271.41248 
L 129.404226 271.01824 
L 129.079247 270.72256 
L 128.754267 271.80672 
L 128.429287 271.41248 
L 128.104308 271.90528 
L 127.779328 272.00384 
L 127.454349 271.6096 
L 127.129369 271.51104 
L 126.80439 270.03264 
L 126.47941 270.42688 
L 126.154431 271.31392 
L 125.829451 271.6096 
L 125.504472 271.21536 
L 125.179492 271.1168 
L 124.854513 271.6096 
L 124.529533 270.52544 
L 124.204554 271.80672 
L 123.879574 270.91968 
L 123.554595 271.53568 
L 123.229615 270.96896 
L 122.904636 271.41248 
L 122.579656 271.6096 
L 122.254676 271.68352 
L 121.929697 271.90528 
L 121.604717 271.26464 
L 121.279738 270.5008 
L 120.954758 271.26464 
L 120.629779 272.49664 
L 120.304799 272.32416 
L 119.97982 271.63424 
L 119.65484 271.38784 
L 119.329861 272.1024 
L 119.004881 272.44736 
L 118.679902 272.1024 
L 118.354922 271.41248 
L 118.029943 271.68352 
L 117.704963 272.54592 
L 117.379984 272.12704 
L 117.055004 270.89504 
L 116.730025 272.1024 
L 116.405045 271.88064 
L 116.080066 271.88064 
L 115.755086 271.46176 
L 115.430106 272.57056 
L 115.105127 272.12704 
L 114.780147 272.42272 
L 114.455168 271.3632 
L 114.130188 273.01408 
L 113.805209 271.6096 
L 113.480229 272.00384 
L 113.15525 272.42272 
L 112.83027 272.57056 
L 112.505291 272.64448 
L 112.180311 272.89088 
L 111.855332 270.82112 
L 111.530352 272.42272 
L 111.205373 271.6096 
L 110.880393 272.52128 
L 110.555414 271.46176 
L 110.230434 271.88064 
L 109.905455 271.83136 
L 109.580475 271.6096 
L 109.255495 272.37344 
L 108.930516 271.26464 
L 108.605536 272.66912 
L 108.280557 271.7328 
L 107.955577 272.7184 
L 107.630598 271.95456 
L 107.305618 271.70816 
L 106.980639 272.32416 
L 106.655659 272.27488 
L 106.33068 271.88064 
L 106.0057 272.49664 
L 105.680721 272.29952 
L 105.355741 272.74304 
L 105.030762 272.472 
L 104.705782 272.02848 
L 104.380803 271.95456 
L 104.055823 272.12704 
L 103.730844 272.1024 
L 103.405864 271.95456 
L 103.080885 272.89088 
L 102.755905 272.7184 
L 102.430925 272.52128 
L 102.105946 272.3488 
L 101.780966 272.64448 
L 101.455987 272.3488 
L 101.131007 272.81696 
L 100.806028 272.81696 
L 100.481048 272.52128 
L 100.156069 272.20096 
L 99.831089 272.64448 
L 99.50611 272.9648 
L 99.18113 271.95456 
L 98.856151 272.25024 
L 98.531171 272.02848 
L 98.206192 273.28512 
L 97.881212 271.7328 
L 97.556233 272.54592 
L 97.231253 272.07776 
L 96.906274 272.54592 
L 96.581294 272.91552 
L 96.256314 272.44736 
L 95.931335 271.4864 
L 95.606355 271.92992 
L 95.281376 271.856 
L 94.956396 272.79232 
L 94.631417 272.57056 
L 94.306437 272.66912 
L 93.981458 272.2256 
L 93.656478 272.64448 
L 93.331499 272.25024 
L 93.006519 272.20096 
L 92.68154 272.44736 
L 92.35656 272.66912 
L 92.031581 272.00384 
L 91.706601 272.07776 
L 91.381622 271.88064 
L 91.056642 272.74304 
L 90.731663 272.17632 
L 90.406683 271.41248 
L 90.081704 272.25024 
L 89.756724 272.76768 
L 89.431744 272.29952 
L 89.106765 271.3632 
L 88.781785 272.79232 
L 88.456806 272.5952 
L 88.131826 273.16192 
L 87.806847 272.74304 
L 87.481867 272.79232 
L 87.156888 272.1024 
L 86.831908 272.1024 
L 86.506929 272.91552 
L 86.181949 272.1024 
L 85.85697 272.81696 
L 85.53199 272.74304 
L 85.207011 271.6096 
L 84.882031 272.5952 
L 84.557052 272.7184 
L 84.232072 271.95456 
L 83.907093 272.12704 
L 83.582113 272.61984 
L 83.257133 272.61984 
L 82.932154 272.25024 
L 82.607174 272.7184 
L 82.282195 272.17632 
L 81.957215 273.088 
L 81.632236 273.11264 
L 81.307256 272.94016 
L 80.982277 272.81696 
L 80.657297 272.9648 
L 80.332318 273.11264 
L 80.007338 273.18656 
L 79.682359 272.66912 
L 79.357379 272.8416 
L 79.0324 271.90528 
L 78.70742 272.7184 
L 78.382441 272.76768 
L 78.057461 273.72864 
L 77.732482 272.2256 
L 77.407502 272.29952 
L 77.082523 273.50688 
L 76.757543 273.48224 
L 76.432563 272.81696 
L 76.107584 272.57056 
L 75.782604 273.30976 
L 75.457625 273.088 
L 75.132645 273.53152 
L 74.807666 273.9504 
L 74.482686 274.66496 
L 74.157707 276.5376 
L 73.832727 277.86816 
z
" style="fill:#1f77b4;fill-opacity:0.25;"/>
   </g>
   <g id="matplotlib.axis_1">
    <g id="xtick_1">
     <g id="line2d_1">
      <defs>
       <path d="M 0 0 
L 0 3.5 
" id="m085fbd9c1c" style="stroke:#000000;stroke-width:0.8;"/>
      </defs>
      <g>
       <use style="stroke:#000000;stroke-width:0.8;" x="73.507748" xlink:href="#m085fbd9c1c" y="307.584"/>
      </g>
     </g>
     <g id="text_1">
      <!-- 0 -->
      <g transform="translate(70.326498 322.182437)scale(0.1 -0.1)">
       <defs>
        <path d="M 2034 4250 
Q 1547 4250 1301 3770 
Q 1056 3291 1056 2328 
Q 1056 1369 1301 889 
Q 1547 409 2034 409 
Q 2525 409 2770 889 
Q 3016 1369 3016 2328 
Q 3016 3291 2770 3770 
Q 2525 4250 2034 4250 
z
M 2034 4750 
Q 2819 4750 3233 4129 
Q 3647 3509 3647 2328 
Q 3647 1150 3233 529 
Q 2819 -91 2034 -91 
Q 1250 -91 836 529 
Q 422 1150 422 2328 
Q 422 3509 836 4129 
Q 1250 4750 2034 4750 
z
" id="DejaVuSans-30" transform="scale(0.015625)"/>
       </defs>
       <use xlink:href="#DejaVuSans-30"/>
      </g>
     </g>
    </g>
    <g id="xtick_2">
     <g id="line2d_2">
      <g>
       <use style="stroke:#000000;stroke-width:0.8;" x="138.503653" xlink:href="#m085fbd9c1c" y="307.584"/>
      </g>
     </g>
     <g id="text_2">
      <!-- 200 -->
      <g transform="translate(128.959903 322.182437)scale(0.1 -0.1)">
       <defs>
        <path d="M 1228 531 
L 3431 531 
L 3431 0 
L 469 0 
L 469 531 
Q 828 903 1448 1529 
Q 2069 2156 2228 2338 
Q 2531 2678 2651 2914 
Q 2772 3150 2772 3378 
Q 2772 3750 2511 3984 
Q 2250 4219 1831 4219 
Q 1534 4219 1204 4116 
Q 875 4013 500 3803 
L 500 4441 
Q 881 4594 1212 4672 
Q 1544 4750 1819 4750 
Q 2544 4750 2975 4387 
Q 3406 4025 3406 3419 
Q 3406 3131 3298 2873 
Q 3191 2616 2906 2266 
Q 2828 2175 2409 1742 
Q 1991 1309 1228 531 
z
" id="DejaVuSans-32" transform="scale(0.015625)"/>
       </defs>
       <use xlink:href="#DejaVuSans-32"/>
       <use x="63.623047" xlink:href="#DejaVuSans-30"/>
       <use x="127.246094" xlink:href="#DejaVuSans-30"/>
      </g>
     </g>
    </g>
    <g id="xtick_3">
     <g id="line2d_3">
      <g>
       <use style="stroke:#000000;stroke-width:0.8;" x="203.499558" xlink:href="#m085fbd9c1c" y="307.584"/>
      </g>
     </g>
     <g id="text_3">
      <!-- 400 -->
      <g transform="translate(193.955808 322.182437)scale(0.1 -0.1)">
       <defs>
        <path d="M 2419 4116 
L 825 1625 
L 2419 1625 
L 2419 4116 
z
M 2253 4666 
L 3047 4666 
L 3047 1625 
L 3713 1625 
L 3713 1100 
L 3047 1100 
L 3047 0 
L 2419 0 
L 2419 1100 
L 313 1100 
L 313 1709 
L 2253 4666 
z
" id="DejaVuSans-34" transform="scale(0.015625)"/>
       </defs>
       <use xlink:href="#DejaVuSans-34"/>
       <use x="63.623047" xlink:href="#DejaVuSans-30"/>
       <use x="127.246094" xlink:href="#DejaVuSans-30"/>
      </g>
     </g>
    </g>
    <g id="xtick_4">
     <g id="line2d_4">
      <g>
       <use style="stroke:#000000;stroke-width:0.8;" x="268.495463" xlink:href="#m085fbd9c1c" y="307.584"/>
      </g>
     </g>
     <g id="text_4">
      <!-- 600 -->
      <g transform="translate(258.951713 322.182437)scale(0.1 -0.1)">
       <defs>
        <path d="M 2113 2584 
Q 1688 2584 1439 2293 
Q 1191 2003 1191 1497 
Q 1191 994 1439 701 
Q 1688 409 2113 409 
Q 2538 409 2786 701 
Q 3034 994 3034 1497 
Q 3034 2003 2786 2293 
Q 2538 2584 2113 2584 
z
M 3366 4563 
L 3366 3988 
Q 3128 4100 2886 4159 
Q 2644 4219 2406 4219 
Q 1781 4219 1451 3797 
Q 1122 3375 1075 2522 
Q 1259 2794 1537 2939 
Q 1816 3084 2150 3084 
Q 2853 3084 3261 2657 
Q 3669 2231 3669 1497 
Q 3669 778 3244 343 
Q 2819 -91 2113 -91 
Q 1303 -91 875 529 
Q 447 1150 447 2328 
Q 447 3434 972 4092 
Q 1497 4750 2381 4750 
Q 2619 4750 2861 4703 
Q 3103 4656 3366 4563 
z
" id="DejaVuSans-36" transform="scale(0.015625)"/>
       </defs>
       <use xlink:href="#DejaVuSans-36"/>
       <use x="63.623047" xlink:href="#DejaVuSans-30"/>
       <use x="127.246094" xlink:href="#DejaVuSans-30"/>
      </g>
     </g>
    </g>
    <g id="xtick_5">
     <g id="line2d_5">
      <g>
       <use style="stroke:#000000;stroke-width:0.8;" x="333.491368" xlink:href="#m085fbd9c1c" y="307.584"/>
      </g>
     </g>
     <g id="text_5">
      <!-- 800 -->
      <g transform="translate(323.947618 322.182437)scale(0.1 -0.1)">
       <defs>
        <path d="M 2034 2216 
Q 1584 2216 1326 1975 
Q 1069 1734 1069 1313 
Q 1069 891 1326 650 
Q 1584 409 2034 409 
Q 2484 409 2743 651 
Q 3003 894 3003 1313 
Q 3003 1734 2745 1975 
Q 2488 2216 2034 2216 
z
M 1403 2484 
Q 997 2584 770 2862 
Q 544 3141 544 3541 
Q 544 4100 942 4425 
Q 1341 4750 2034 4750 
Q 2731 4750 3128 4425 
Q 3525 4100 3525 3541 
Q 3525 3141 3298 2862 
Q 3072 2584 2669 2484 
Q 3125 2378 3379 2068 
Q 3634 1759 3634 1313 
Q 3634 634 3220 271 
Q 2806 -91 2034 -91 
Q 1263 -91 848 271 
Q 434 634 434 1313 
Q 434 1759 690 2068 
Q 947 2378 1403 2484 
z
M 1172 3481 
Q 1172 3119 1398 2916 
Q 1625 2713 2034 2713 
Q 2441 2713 2670 2916 
Q 2900 3119 2900 3481 
Q 2900 3844 2670 4047 
Q 2441 4250 2034 4250 
Q 1625 4250 1398 4047 
Q 1172 3844 1172 3481 
z
" id="DejaVuSans-38" transform="scale(0.015625)"/>
       </defs>
       <use xlink:href="#DejaVuSans-38"/>
       <use x="63.623047" xlink:href="#DejaVuSans-30"/>
       <use x="127.246094" xlink:href="#DejaVuSans-30"/>
      </g>
     </g>
    </g>
    <g id="xtick_6">
     <g id="line2d_6">
      <g>
       <use style="stroke:#000000;stroke-width:0.8;" x="398.487273" xlink:href="#m085fbd9c1c" y="307.584"/>
      </g>
     </g>
     <g id="text_6">
      <!-- 1000 -->
      <g transform="translate(385.762273 322.182437)scale(0.1 -0.1)">
       <defs>
        <path d="M 794 531 
L 1825 531 
L 1825 4091 
L 703 3866 
L 703 4441 
L 1819 4666 
L 2450 4666 
L 2450 531 
L 3481 531 
L 3481 0 
L 794 0 
L 794 531 
z
" id="DejaVuSans-31" transform="scale(0.015625)"/>
       </defs>
       <use xlink:href="#DejaVuSans-31"/>
       <use x="63.623047" xlink:href="#DejaVuSans-30"/>
       <use x="127.246094" xlink:href="#DejaVuSans-30"/>
       <use x="190.869141" xlink:href="#DejaVuSans-30"/>
      </g>
     </g>
    </g>
    <g id="text_7">
     <!-- Timestep -->
     <g transform="translate(213.110781 335.860562)scale(0.1 -0.1)">
      <defs>
       <path d="M -19 4666 
L 3928 4666 
L 3928 4134 
L 2272 4134 
L 2272 0 
L 1638 0 
L 1638 4134 
L -19 4134 
L -19 4666 
z
" id="DejaVuSans-54" transform="scale(0.015625)"/>
       <path d="M 603 3500 
L 1178 3500 
L 1178 0 
L 603 0 
L 603 3500 
z
M 603 4863 
L 1178 4863 
L 1178 4134 
L 603 4134 
L 603 4863 
z
" id="DejaVuSans-69" transform="scale(0.015625)"/>
       <path d="M 3328 2828 
Q 3544 3216 3844 3400 
Q 4144 3584 4550 3584 
Q 5097 3584 5394 3201 
Q 5691 2819 5691 2113 
L 5691 0 
L 5113 0 
L 5113 2094 
Q 5113 2597 4934 2840 
Q 4756 3084 4391 3084 
Q 3944 3084 3684 2787 
Q 3425 2491 3425 1978 
L 3425 0 
L 2847 0 
L 2847 2094 
Q 2847 2600 2669 2842 
Q 2491 3084 2119 3084 
Q 1678 3084 1418 2786 
Q 1159 2488 1159 1978 
L 1159 0 
L 581 0 
L 581 3500 
L 1159 3500 
L 1159 2956 
Q 1356 3278 1631 3431 
Q 1906 3584 2284 3584 
Q 2666 3584 2933 3390 
Q 3200 3197 3328 2828 
z
" id="DejaVuSans-6d" transform="scale(0.015625)"/>
       <path d="M 3597 1894 
L 3597 1613 
L 953 1613 
Q 991 1019 1311 708 
Q 1631 397 2203 397 
Q 2534 397 2845 478 
Q 3156 559 3463 722 
L 3463 178 
Q 3153 47 2828 -22 
Q 2503 -91 2169 -91 
Q 1331 -91 842 396 
Q 353 884 353 1716 
Q 353 2575 817 3079 
Q 1281 3584 2069 3584 
Q 2775 3584 3186 3129 
Q 3597 2675 3597 1894 
z
M 3022 2063 
Q 3016 2534 2758 2815 
Q 2500 3097 2075 3097 
Q 1594 3097 1305 2825 
Q 1016 2553 972 2059 
L 3022 2063 
z
" id="DejaVuSans-65" transform="scale(0.015625)"/>
       <path d="M 2834 3397 
L 2834 2853 
Q 2591 2978 2328 3040 
Q 2066 3103 1784 3103 
Q 1356 3103 1142 2972 
Q 928 2841 928 2578 
Q 928 2378 1081 2264 
Q 1234 2150 1697 2047 
L 1894 2003 
Q 2506 1872 2764 1633 
Q 3022 1394 3022 966 
Q 3022 478 2636 193 
Q 2250 -91 1575 -91 
Q 1294 -91 989 -36 
Q 684 19 347 128 
L 347 722 
Q 666 556 975 473 
Q 1284 391 1588 391 
Q 1994 391 2212 530 
Q 2431 669 2431 922 
Q 2431 1156 2273 1281 
Q 2116 1406 1581 1522 
L 1381 1569 
Q 847 1681 609 1914 
Q 372 2147 372 2553 
Q 372 3047 722 3315 
Q 1072 3584 1716 3584 
Q 2034 3584 2315 3537 
Q 2597 3491 2834 3397 
z
" id="DejaVuSans-73" transform="scale(0.015625)"/>
       <path d="M 1172 4494 
L 1172 3500 
L 2356 3500 
L 2356 3053 
L 1172 3053 
L 1172 1153 
Q 1172 725 1289 603 
Q 1406 481 1766 481 
L 2356 481 
L 2356 0 
L 1766 0 
Q 1100 0 847 248 
Q 594 497 594 1153 
L 594 3053 
L 172 3053 
L 172 3500 
L 594 3500 
L 594 4494 
L 1172 4494 
z
" id="DejaVuSans-74" transform="scale(0.015625)"/>
       <path d="M 1159 525 
L 1159 -1331 
L 581 -1331 
L 581 3500 
L 1159 3500 
L 1159 2969 
Q 1341 3281 1617 3432 
Q 1894 3584 2278 3584 
Q 2916 3584 3314 3078 
Q 3713 2572 3713 1747 
Q 3713 922 3314 415 
Q 2916 -91 2278 -91 
Q 1894 -91 1617 61 
Q 1341 213 1159 525 
z
M 3116 1747 
Q 3116 2381 2855 2742 
Q 2594 3103 2138 3103 
Q 1681 3103 1420 2742 
Q 1159 2381 1159 1747 
Q 1159 1113 1420 752 
Q 1681 391 2138 391 
Q 2594 391 2855 752 
Q 3116 1113 3116 1747 
z
" id="DejaVuSans-70" transform="scale(0.015625)"/>
      </defs>
      <use xlink:href="#DejaVuSans-54"/>
      <use x="57.958984" xlink:href="#DejaVuSans-69"/>
      <use x="85.742188" xlink:href="#DejaVuSans-6d"/>
      <use x="183.154297" xlink:href="#DejaVuSans-65"/>
      <use x="244.677734" xlink:href="#DejaVuSans-73"/>
      <use x="296.777344" xlink:href="#DejaVuSans-74"/>
      <use x="335.986328" xlink:href="#DejaVuSans-65"/>
      <use x="397.509766" xlink:href="#DejaVuSans-70"/>
     </g>
    </g>
   </g>
   <g id="matplotlib.axis_2">
    <g id="ytick_1">
     <g id="line2d_7">
      <defs>
       <path d="M 0 0 
L -3.5 0 
" id="mf84a30fa3e" style="stroke:#000000;stroke-width:0.8;"/>
      </defs>
      <g>
       <use style="stroke:#000000;stroke-width:0.8;" x="57.6" xlink:href="#mf84a30fa3e" y="287.872"/>
      </g>
     </g>
     <g id="text_8">
      <!-- 0 -->
      <g transform="translate(44.2375 291.671219)scale(0.1 -0.1)">
       <use xlink:href="#DejaVuSans-30"/>
      </g>
     </g>
    </g>
    <g id="ytick_2">
     <g id="line2d_8">
      <g>
       <use style="stroke:#000000;stroke-width:0.8;" x="57.6" xlink:href="#mf84a30fa3e" y="238.592"/>
      </g>
     </g>
     <g id="text_9">
      <!-- 5 -->
      <g transform="translate(44.2375 242.391219)scale(0.1 -0.1)">
       <defs>
        <path d="M 691 4666 
L 3169 4666 
L 3169 4134 
L 1269 4134 
L 1269 2991 
Q 1406 3038 1543 3061 
Q 1681 3084 1819 3084 
Q 2600 3084 3056 2656 
Q 3513 2228 3513 1497 
Q 3513 744 3044 326 
Q 2575 -91 1722 -91 
Q 1428 -91 1123 -41 
Q 819 9 494 109 
L 494 744 
Q 775 591 1075 516 
Q 1375 441 1709 441 
Q 2250 441 2565 725 
Q 2881 1009 2881 1497 
Q 2881 1984 2565 2268 
Q 2250 2553 1709 2553 
Q 1456 2553 1204 2497 
Q 953 2441 691 2322 
L 691 4666 
z
" id="DejaVuSans-35" transform="scale(0.015625)"/>
       </defs>
       <use xlink:href="#DejaVuSans-35"/>
      </g>
     </g>
    </g>
    <g id="ytick_3">
     <g id="line2d_9">
      <g>
       <use style="stroke:#000000;stroke-width:0.8;" x="57.6" xlink:href="#mf84a30fa3e" y="189.312"/>
      </g>
     </g>
     <g id="text_10">
      <!-- 10 -->
      <g transform="translate(37.875 193.111219)scale(0.1 -0.1)">
       <use xlink:href="#DejaVuSans-31"/>
       <use x="63.623047" xlink:href="#DejaVuSans-30"/>
      </g>
     </g>
    </g>
    <g id="ytick_4">
     <g id="line2d_10">
      <g>
       <use style="stroke:#000000;stroke-width:0.8;" x="57.6" xlink:href="#mf84a30fa3e" y="140.032"/>
      </g>
     </g>
     <g id="text_11">
      <!-- 15 -->
      <g transform="translate(37.875 143.831219)scale(0.1 -0.1)">
       <use xlink:href="#DejaVuSans-31"/>
       <use x="63.623047" xlink:href="#DejaVuSans-35"/>
      </g>
     </g>
    </g>
    <g id="ytick_5">
     <g id="line2d_11">
      <g>
       <use style="stroke:#000000;stroke-width:0.8;" x="57.6" xlink:href="#mf84a30fa3e" y="90.752"/>
      </g>
     </g>
     <g id="text_12">
      <!-- 20 -->
      <g transform="translate(37.875 94.551219)scale(0.1 -0.1)">
       <use xlink:href="#DejaVuSans-32"/>
       <use x="63.623047" xlink:href="#DejaVuSans-30"/>
      </g>
     </g>
    </g>
    <g id="ytick_6">
     <g id="line2d_12">
      <g>
       <use style="stroke:#000000;stroke-width:0.8;" x="57.6" xlink:href="#mf84a30fa3e" y="41.472"/>
      </g>
     </g>
     <g id="text_13">
      <!-- 25 -->
      <g transform="translate(37.875 45.271219)scale(0.1 -0.1)">
       <use xlink:href="#DejaVuSans-32"/>
       <use x="63.623047" xlink:href="#DejaVuSans-35"/>
      </g>
     </g>
    </g>
    <g id="text_14">
     <!-- Reward -->
     <g transform="translate(31.795312 193.149094)rotate(-90)scale(0.1 -0.1)">
      <defs>
       <path d="M 2841 2188 
Q 3044 2119 3236 1894 
Q 3428 1669 3622 1275 
L 4263 0 
L 3584 0 
L 2988 1197 
Q 2756 1666 2539 1819 
Q 2322 1972 1947 1972 
L 1259 1972 
L 1259 0 
L 628 0 
L 628 4666 
L 2053 4666 
Q 2853 4666 3247 4331 
Q 3641 3997 3641 3322 
Q 3641 2881 3436 2590 
Q 3231 2300 2841 2188 
z
M 1259 4147 
L 1259 2491 
L 2053 2491 
Q 2509 2491 2742 2702 
Q 2975 2913 2975 3322 
Q 2975 3731 2742 3939 
Q 2509 4147 2053 4147 
L 1259 4147 
z
" id="DejaVuSans-52" transform="scale(0.015625)"/>
       <path d="M 269 3500 
L 844 3500 
L 1563 769 
L 2278 3500 
L 2956 3500 
L 3675 769 
L 4391 3500 
L 4966 3500 
L 4050 0 
L 3372 0 
L 2619 2869 
L 1863 0 
L 1184 0 
L 269 3500 
z
" id="DejaVuSans-77" transform="scale(0.015625)"/>
       <path d="M 2194 1759 
Q 1497 1759 1228 1600 
Q 959 1441 959 1056 
Q 959 750 1161 570 
Q 1363 391 1709 391 
Q 2188 391 2477 730 
Q 2766 1069 2766 1631 
L 2766 1759 
L 2194 1759 
z
M 3341 1997 
L 3341 0 
L 2766 0 
L 2766 531 
Q 2569 213 2275 61 
Q 1981 -91 1556 -91 
Q 1019 -91 701 211 
Q 384 513 384 1019 
Q 384 1609 779 1909 
Q 1175 2209 1959 2209 
L 2766 2209 
L 2766 2266 
Q 2766 2663 2505 2880 
Q 2244 3097 1772 3097 
Q 1472 3097 1187 3025 
Q 903 2953 641 2809 
L 641 3341 
Q 956 3463 1253 3523 
Q 1550 3584 1831 3584 
Q 2591 3584 2966 3190 
Q 3341 2797 3341 1997 
z
" id="DejaVuSans-61" transform="scale(0.015625)"/>
       <path d="M 2631 2963 
Q 2534 3019 2420 3045 
Q 2306 3072 2169 3072 
Q 1681 3072 1420 2755 
Q 1159 2438 1159 1844 
L 1159 0 
L 581 0 
L 581 3500 
L 1159 3500 
L 1159 2956 
Q 1341 3275 1631 3429 
Q 1922 3584 2338 3584 
Q 2397 3584 2469 3576 
Q 2541 3569 2628 3553 
L 2631 2963 
z
" id="DejaVuSans-72" transform="scale(0.015625)"/>
       <path d="M 2906 2969 
L 2906 4863 
L 3481 4863 
L 3481 0 
L 2906 0 
L 2906 525 
Q 2725 213 2448 61 
Q 2172 -91 1784 -91 
Q 1150 -91 751 415 
Q 353 922 353 1747 
Q 353 2572 751 3078 
Q 1150 3584 1784 3584 
Q 2172 3584 2448 3432 
Q 2725 3281 2906 2969 
z
M 947 1747 
Q 947 1113 1208 752 
Q 1469 391 1925 391 
Q 2381 391 2643 752 
Q 2906 1113 2906 1747 
Q 2906 2381 2643 2742 
Q 2381 3103 1925 3103 
Q 1469 3103 1208 2742 
Q 947 2381 947 1747 
z
" id="DejaVuSans-64" transform="scale(0.015625)"/>
      </defs>
      <use xlink:href="#DejaVuSans-52"/>
      <use x="64.982422" xlink:href="#DejaVuSans-65"/>
      <use x="126.505859" xlink:href="#DejaVuSans-77"/>
      <use x="208.292969" xlink:href="#DejaVuSans-61"/>
      <use x="269.572266" xlink:href="#DejaVuSans-72"/>
      <use x="308.935547" xlink:href="#DejaVuSans-64"/>
     </g>
    </g>
   </g>
   <g id="line2d_13">
    <path clip-path="url(#pf09837d220)" d="M 73.832727 278.21312 
L 74.157707 277.32608 
L 74.482686 275.35488 
L 74.807666 274.36928 
L 75.132645 274.22144 
L 75.457625 273.72864 
L 75.782604 273.67936 
L 76.107584 272.89088 
L 76.432563 273.18656 
L 76.757543 274.17216 
L 77.082523 274.32 
L 77.407502 272.89088 
L 77.732482 273.3344 
L 78.057461 274.51712 
L 78.382441 273.72864 
L 78.70742 273.48224 
L 79.0324 272.49664 
L 79.357379 273.53152 
L 80.007338 274.02432 
L 80.332318 273.53152 
L 80.657297 273.28512 
L 81.307256 273.18656 
L 81.957215 273.72864 
L 82.607174 273.28512 
L 82.932154 272.64448 
L 83.257133 273.13728 
L 83.582113 273.3344 
L 83.907093 272.89088 
L 84.232072 272.8416 
L 84.557052 273.13728 
L 84.882031 273.18656 
L 85.207011 273.03872 
L 85.53199 273.5808 
L 85.85697 273.13728 
L 86.181949 273.23584 
L 86.506929 273.18656 
L 86.831908 273.5808 
L 87.156888 272.98944 
L 87.481867 273.43296 
L 88.131826 273.77792 
L 88.456806 273.18656 
L 88.781785 273.38368 
L 89.106765 272.69376 
L 89.431744 272.94016 
L 89.756724 273.3344 
L 90.406683 272.8416 
L 90.731663 273.18656 
L 91.381622 273.38368 
L 91.706601 273.77792 
L 92.031581 273.13728 
L 92.68154 273.43296 
L 93.006519 272.74304 
L 93.331499 272.98944 
L 93.656478 273.03872 
L 93.981458 273.77792 
L 94.306437 273.13728 
L 94.956396 273.72864 
L 95.281376 272.8416 
L 95.931335 273.48224 
L 96.256314 273.03872 
L 96.581294 273.53152 
L 96.906274 272.94016 
L 97.231253 272.89088 
L 97.556233 273.18656 
L 97.881212 272.49664 
L 98.206192 273.67936 
L 98.531171 273.03872 
L 98.856151 273.088 
L 99.18113 272.79232 
L 99.50611 273.67936 
L 99.831089 272.94016 
L 100.156069 272.89088 
L 100.481048 273.63008 
L 101.131007 273.63008 
L 101.455987 273.28512 
L 102.755905 273.5808 
L 103.080885 273.72864 
L 103.405864 272.74304 
L 103.730844 273.3344 
L 104.055823 273.38368 
L 104.705782 272.5952 
L 105.030762 273.53152 
L 105.355741 273.03872 
L 105.680721 273.13728 
L 106.0057 273.63008 
L 106.33068 273.13728 
L 106.655659 272.89088 
L 106.980639 273.48224 
L 107.305618 273.03872 
L 107.630598 273.3344 
L 107.955577 272.94016 
L 108.280557 273.43296 
L 108.930516 272.44736 
L 109.255495 273.13728 
L 109.580475 272.8416 
L 109.905455 272.20096 
L 110.230434 273.28512 
L 110.555414 272.74304 
L 111.205373 272.64448 
L 111.530352 272.74304 
L 111.855332 272.69376 
L 112.180311 273.92576 
L 112.505291 272.89088 
L 112.83027 273.43296 
L 113.15525 272.89088 
L 113.480229 273.53152 
L 113.805209 273.5808 
L 114.130188 273.87648 
L 114.455168 271.856 
L 114.780147 273.13728 
L 115.105127 273.18656 
L 115.430106 273.38368 
L 115.755086 272.5952 
L 116.080066 272.49664 
L 116.405045 272.25024 
L 116.730025 273.088 
L 117.055004 272.44736 
L 117.379984 273.28512 
L 118.029943 272.54592 
L 118.354922 272.3488 
L 119.004881 272.8416 
L 119.329861 272.39808 
L 119.65484 272.74304 
L 120.304799 272.5952 
L 120.629779 272.74304 
L 120.954758 271.90528 
L 121.279738 271.856 
L 121.929697 272.69376 
L 122.254676 273.28512 
L 122.579656 272.5952 
L 122.904636 272.44736 
L 123.229615 272.8416 
L 123.554595 272.49664 
L 123.879574 271.80672 
L 124.204554 272.79232 
L 124.529533 272.69376 
L 124.854513 271.70816 
L 125.179492 272.39808 
L 125.504472 272.29952 
L 125.829451 272.5952 
L 126.154431 272.29952 
L 126.47941 272.49664 
L 126.80439 272.00384 
L 127.454349 272.89088 
L 127.779328 272.20096 
L 128.104308 273.088 
L 128.429287 272.00384 
L 128.754267 272.5952 
L 129.079247 272.1024 
L 129.404226 272.20096 
L 129.729206 272.98944 
L 130.054185 273.28512 
L 130.379165 272.89088 
L 130.704144 272.20096 
L 131.029124 272.39808 
L 131.354103 272.79232 
L 131.679083 271.70816 
L 132.004062 272.29952 
L 132.329042 272.1024 
L 132.654021 273.088 
L 132.979001 272.00384 
L 133.30398 272.79232 
L 133.62896 272.39808 
L 133.953939 272.20096 
L 134.278919 272.29952 
L 134.603898 271.6096 
L 134.928878 272.69376 
L 135.253857 271.70816 
L 135.578837 272.49664 
L 135.903817 272.29952 
L 136.228796 272.69376 
L 136.878755 272.29952 
L 137.203735 271.80672 
L 137.528714 272.1024 
L 137.853694 271.90528 
L 138.178673 271.51104 
L 138.828632 272.29952 
L 139.153612 273.38368 
L 139.478591 272.1024 
L 139.803571 272.00384 
L 140.12855 272.29952 
L 140.45353 272.00384 
L 140.778509 272.39808 
L 141.103489 271.41248 
L 141.428468 273.088 
L 141.753448 272.49664 
L 142.728387 272.49664 
L 143.053366 272.29952 
L 143.378346 272.69376 
L 143.703325 271.51104 
L 144.028305 272.49664 
L 144.353284 272.39808 
L 144.678264 272.69376 
L 145.003243 272.1024 
L 145.328223 272.79232 
L 145.653202 271.70816 
L 145.978182 272.39808 
L 146.303161 272.69376 
L 146.628141 272.49664 
L 146.95312 272.49664 
L 147.2781 273.18656 
L 147.928059 271.80672 
L 148.253038 272.20096 
L 148.578018 272.89088 
L 148.902998 272.20096 
L 149.552957 272.29952 
L 149.877936 271.90528 
L 150.202916 272.89088 
L 150.527895 271.90528 
L 150.852875 271.51104 
L 151.502834 272.00384 
L 151.827813 272.5952 
L 152.152793 272.5952 
L 152.477772 272.39808 
L 153.127731 272.29952 
L 153.452711 273.088 
L 153.77769 272.00384 
L 154.10267 272.5952 
L 154.427649 272.1024 
L 154.752629 272.39808 
L 155.077609 272.49664 
L 155.402588 271.80672 
L 155.727568 272.20096 
L 156.052547 271.21536 
L 156.377527 272.89088 
L 156.702506 272.39808 
L 157.352465 272.98944 
L 157.677445 272.69376 
L 158.002424 272.00384 
L 158.327404 273.38368 
L 158.652383 272.1024 
L 158.977363 273.67936 
L 159.302342 272.00384 
L 159.627322 272.49664 
L 159.952301 272.20096 
L 160.277281 272.20096 
L 160.60226 272.39808 
L 160.92724 271.70816 
L 161.252219 272.39808 
L 161.577199 271.90528 
L 161.902179 272.5952 
L 162.552138 272.69376 
L 162.877117 272.5952 
L 163.202097 272.20096 
L 163.527076 273.18656 
L 163.852056 271.70816 
L 164.177035 272.49664 
L 164.502015 272.49664 
L 165.151974 272.79232 
L 165.476953 272.5952 
L 165.801933 273.088 
L 166.126912 273.18656 
L 166.451892 271.21536 
L 166.776871 272.1024 
L 167.101851 271.70816 
L 167.75181 272.49664 
L 168.07679 271.70816 
L 168.401769 272.98944 
L 168.726749 272.29952 
L 169.376708 272.20096 
L 169.701687 272.49664 
L 170.351646 272.49664 
L 171.001605 273.18656 
L 171.326585 271.90528 
L 171.651564 272.29952 
L 171.976544 271.90528 
L 172.951482 273.48224 
L 173.276462 272.39808 
L 173.601441 271.70816 
L 173.926421 273.38368 
L 174.2514 272.00384 
L 174.90136 272.98944 
L 175.226339 271.80672 
L 176.526257 273.28512 
L 176.851237 272.69376 
L 177.176216 271.51104 
L 177.501196 272.20096 
L 177.826175 272.5952 
L 178.151155 271.41248 
L 178.476134 272.69376 
L 178.801114 272.29952 
L 179.126093 272.79232 
L 179.451073 271.80672 
L 179.776052 272.89088 
L 180.101032 272.39808 
L 180.426011 273.38368 
L 180.750991 273.088 
L 181.075971 272.1024 
L 181.40095 272.49664 
L 181.72593 272.39808 
L 182.050909 272.49664 
L 182.375889 271.51104 
L 182.700868 272.69376 
L 183.025848 272.39808 
L 183.350827 273.18656 
L 184.000786 272.79232 
L 184.650745 271.90528 
L 184.975725 271.90528 
L 185.300704 271.70816 
L 185.625684 273.67936 
L 185.950663 272.89088 
L 186.275643 271.51104 
L 186.600622 272.89088 
L 186.925602 272.79232 
L 187.250581 271.90528 
L 187.575561 272.69376 
L 187.900541 272.79232 
L 188.22552 273.18656 
L 188.5505 272.49664 
L 188.875479 272.98944 
L 189.200459 272.20096 
L 189.525438 272.69376 
L 189.850418 272.89088 
L 190.175397 274.17216 
L 190.500377 272.1024 
L 191.150336 273.28512 
L 191.475315 272.79232 
L 191.800295 273.088 
L 192.450254 272.1024 
L 192.775233 272.1024 
L 193.100213 272.89088 
L 193.425192 271.01824 
L 193.750172 273.28512 
L 194.075152 272.98944 
L 194.400131 273.088 
L 194.725111 272.49664 
L 195.05009 273.38368 
L 195.37507 272.49664 
L 196.025029 272.5952 
L 196.350008 273.18656 
L 196.674988 273.18656 
L 196.999967 272.89088 
L 197.324947 273.38368 
L 197.649926 272.69376 
L 197.974906 273.28512 
L 198.624865 273.28512 
L 199.274824 272.5952 
L 199.599803 273.67936 
L 199.924783 273.5808 
L 200.249762 272.69376 
L 200.574742 273.77792 
L 200.899722 273.28512 
L 201.224701 273.088 
L 201.549681 273.088 
L 201.87466 272.69376 
L 202.19964 273.088 
L 202.524619 272.89088 
L 202.849599 273.28512 
L 203.174578 272.79232 
L 203.499558 273.38368 
L 203.824537 273.28512 
L 204.149517 272.69376 
L 204.474496 273.5808 
L 204.799476 273.18656 
L 205.124455 273.5808 
L 205.449435 273.088 
L 205.774414 273.97504 
L 206.099394 272.89088 
L 206.749353 273.18656 
L 207.074333 272.39808 
L 207.399312 273.5808 
L 207.724292 274.0736 
L 208.049271 272.89088 
L 208.374251 273.38368 
L 208.69923 274.36928 
L 209.02421 273.5808 
L 209.349189 273.088 
L 209.674169 273.28512 
L 209.999148 272.5952 
L 210.324128 273.87648 
L 210.649107 273.48224 
L 210.974087 273.48224 
L 211.299066 273.28512 
L 211.624046 273.48224 
L 211.949025 273.38368 
L 212.274005 273.088 
L 212.598984 273.18656 
L 212.923964 273.5808 
L 213.248943 272.98944 
L 213.573923 273.48224 
L 213.898903 273.38368 
L 214.548862 272.69376 
L 214.873841 273.28512 
L 215.198821 273.18656 
L 215.5238 272.79232 
L 215.84878 274.27072 
L 216.173759 274.36928 
L 216.498739 273.67936 
L 216.823718 274.76352 
L 217.148698 273.088 
L 217.473677 274.46784 
L 217.798657 274.0736 
L 218.123636 273.088 
L 218.448616 273.77792 
L 218.773595 273.5808 
L 219.098575 272.98944 
L 219.423554 273.77792 
L 220.073514 273.28512 
L 220.398493 273.97504 
L 220.723473 273.38368 
L 221.048452 273.088 
L 221.698411 274.17216 
L 222.023391 273.28512 
L 222.34837 273.088 
L 222.67335 273.77792 
L 222.998329 273.5808 
L 223.323309 273.77792 
L 223.973268 273.38368 
L 224.623227 273.77792 
L 224.948206 272.89088 
L 225.273186 273.5808 
L 225.598165 274.86208 
L 225.923145 273.48224 
L 226.248124 272.79232 
L 226.573104 273.5808 
L 227.548043 273.77792 
L 227.873022 273.18656 
L 228.198002 273.77792 
L 228.522981 273.28512 
L 228.847961 273.67936 
L 229.17294 273.088 
L 229.49792 273.87648 
L 229.822899 273.97504 
L 230.147879 272.5952 
L 230.472858 273.67936 
L 230.797838 274.36928 
L 231.122817 273.18656 
L 231.447797 273.97504 
L 231.772776 273.5808 
L 232.422735 273.28512 
L 232.747715 273.97504 
L 233.072695 273.28512 
L 233.722654 273.28512 
L 234.372613 272.98944 
L 234.697592 273.97504 
L 235.022572 272.49664 
L 235.347551 273.088 
L 235.672531 272.69376 
L 235.99751 273.28512 
L 236.32249 274.27072 
L 236.647469 274.0736 
L 236.972449 272.79232 
L 237.297428 272.89088 
L 237.622408 273.67936 
L 237.947387 273.28512 
L 238.272367 273.48224 
L 238.597346 273.38368 
L 238.922326 273.088 
L 239.572285 273.87648 
L 239.897265 273.87648 
L 240.222244 273.48224 
L 240.547224 272.89088 
L 240.872203 273.67936 
L 241.197183 273.77792 
L 241.522162 272.89088 
L 241.847142 272.79232 
L 242.172121 273.87648 
L 242.82208 273.5808 
L 243.14706 273.48224 
L 243.472039 272.69376 
L 243.797019 274.36928 
L 244.121998 272.98944 
L 244.446978 274.46784 
L 244.771957 274.17216 
L 245.096937 273.088 
L 245.421916 273.48224 
L 245.746896 273.28512 
L 246.071876 274.76352 
L 246.396855 273.48224 
L 246.721835 274.66496 
L 247.046814 273.088 
L 247.371794 273.088 
L 247.696773 273.5808 
L 248.021753 274.66496 
L 248.346732 272.49664 
L 248.671712 274.0736 
L 248.996691 273.48224 
L 249.321671 273.48224 
L 249.64665 272.98944 
L 249.97163 273.87648 
L 250.946568 273.28512 
L 251.596527 273.77792 
L 251.921507 273.38368 
L 252.246486 273.87648 
L 252.571466 273.088 
L 252.896446 273.28512 
L 253.221425 273.87648 
L 253.546405 272.5952 
L 253.871384 272.98944 
L 254.196364 272.79232 
L 254.521343 273.28512 
L 254.846323 272.39808 
L 255.171302 273.97504 
L 255.496282 272.29952 
L 255.821261 272.98944 
L 256.146241 271.21536 
L 256.47122 272.79232 
L 256.7962 271.51104 
L 257.121179 273.48224 
L 257.446159 273.67936 
L 257.771138 273.088 
L 258.096118 272.89088 
L 258.421097 272.89088 
L 258.746077 272.39808 
L 259.071057 272.49664 
L 259.396036 273.67936 
L 259.721016 272.98944 
L 260.045995 273.77792 
L 260.370975 272.00384 
L 261.020934 274.46784 
L 261.345913 275.35488 
L 261.670893 272.89088 
L 261.995872 272.49664 
L 262.320852 272.98944 
L 262.970811 273.48224 
L 263.29579 274.17216 
L 263.62077 273.28512 
L 263.945749 273.18656 
L 264.270729 272.79232 
L 264.595708 273.5808 
L 264.920688 273.97504 
L 265.245667 272.98944 
L 265.570647 273.28512 
L 265.895627 273.87648 
L 266.220606 273.67936 
L 266.545586 273.87648 
L 266.870565 273.5808 
L 267.195545 272.5952 
L 267.520524 273.38368 
L 268.170483 273.088 
L 268.495463 274.46784 
L 268.820442 273.5808 
L 269.145422 273.088 
L 269.795381 274.17216 
L 270.44534 273.18656 
L 270.770319 274.27072 
L 271.095299 274.66496 
L 271.420278 273.28512 
L 271.745258 274.0736 
L 272.070238 273.67936 
L 272.395217 272.5952 
L 272.720197 273.77792 
L 273.045176 273.48224 
L 273.370156 273.77792 
L 273.695135 273.28512 
L 274.670074 273.87648 
L 274.995053 272.5952 
L 275.320033 273.088 
L 275.645012 272.00384 
L 275.969992 273.38368 
L 276.294971 273.87648 
L 276.619951 273.97504 
L 276.94493 272.79232 
L 277.26991 275.15776 
L 277.594889 273.38368 
L 277.919869 273.18656 
L 278.244848 273.48224 
L 278.569828 273.088 
L 278.894808 273.48224 
L 279.219787 273.48224 
L 279.544767 274.36928 
L 279.869746 274.17216 
L 280.194726 274.17216 
L 280.519705 273.87648 
L 280.844685 274.0736 
L 281.169664 273.18656 
L 281.494644 273.38368 
L 281.819623 272.79232 
L 282.144603 273.67936 
L 282.469582 272.79232 
L 282.794562 273.77792 
L 283.444521 273.28512 
L 283.7695 273.67936 
L 284.09448 273.5808 
L 284.419459 273.28512 
L 284.744439 274.36928 
L 285.069419 273.18656 
L 285.394398 274.0736 
L 285.719378 272.98944 
L 286.044357 272.89088 
L 286.369337 273.088 
L 286.694316 274.36928 
L 287.019296 273.87648 
L 287.344275 272.49664 
L 287.669255 272.89088 
L 287.994234 272.89088 
L 288.319214 273.28512 
L 288.644193 272.5952 
L 289.294152 274.17216 
L 289.619132 273.38368 
L 289.944111 273.18656 
L 290.269091 272.39808 
L 290.91905 273.5808 
L 291.244029 273.28512 
L 291.569009 272.39808 
L 291.893989 272.5952 
L 292.218968 271.70816 
L 292.543948 273.088 
L 292.868927 273.088 
L 293.193907 272.69376 
L 293.843866 272.98944 
L 294.168845 272.1024 
L 294.493825 272.79232 
L 294.818804 272.5952 
L 295.143784 272.69376 
L 295.468763 272.5952 
L 295.793743 273.18656 
L 296.118722 271.51104 
L 296.443702 273.18656 
L 296.768681 271.70816 
L 297.093661 273.088 
L 297.41864 273.28512 
L 297.74362 273.18656 
L 298.0686 272.20096 
L 298.393579 272.29952 
L 298.718559 272.1024 
L 299.043538 273.48224 
L 299.368518 272.5952 
L 299.693497 273.18656 
L 300.018477 273.18656 
L 300.343456 272.29952 
L 300.668436 272.89088 
L 300.993415 274.0736 
L 301.318395 272.98944 
L 301.643374 273.28512 
L 301.968354 273.18656 
L 302.293333 273.87648 
L 302.618313 273.28512 
L 302.943292 272.29952 
L 303.268272 273.28512 
L 303.918231 272.5952 
L 304.24321 274.36928 
L 304.56819 274.0736 
L 304.89317 272.98944 
L 305.218149 272.79232 
L 305.543129 274.5664 
L 305.868108 272.1024 
L 306.193088 273.87648 
L 306.518067 272.20096 
L 306.843047 273.38368 
L 307.168026 273.18656 
L 307.493006 272.69376 
L 307.817985 272.98944 
L 308.467944 272.5952 
L 308.792924 273.48224 
L 309.117903 273.5808 
L 309.442883 272.1024 
L 309.767862 273.28512 
L 310.417821 273.5808 
L 310.742801 272.98944 
L 311.067781 273.67936 
L 311.39276 273.97504 
L 311.71774 274.96064 
L 312.042719 272.5952 
L 312.367699 272.89088 
L 312.692678 274.0736 
L 313.017658 273.48224 
L 313.342637 273.18656 
L 313.667617 273.97504 
L 313.992596 273.38368 
L 314.317576 273.088 
L 314.642555 273.18656 
L 314.967535 274.0736 
L 315.292514 272.69376 
L 315.617494 273.38368 
L 315.942473 272.98944 
L 316.267453 273.18656 
L 316.592432 273.5808 
L 316.917412 272.89088 
L 317.242391 273.77792 
L 317.567371 273.87648 
L 317.892351 274.46784 
L 318.21733 273.67936 
L 318.54231 273.18656 
L 318.867289 272.98944 
L 319.192269 273.87648 
L 319.517248 273.77792 
L 319.842228 274.0736 
L 320.167207 273.87648 
L 320.492187 272.98944 
L 320.817166 272.98944 
L 321.142146 273.18656 
L 321.467125 274.0736 
L 321.792105 273.97504 
L 322.117084 274.17216 
L 322.442064 273.28512 
L 323.092023 273.48224 
L 323.417002 274.0736 
L 323.741982 273.5808 
L 324.066962 273.48224 
L 324.391941 273.77792 
L 324.716921 272.69376 
L 325.0419 273.18656 
L 325.36688 274.17216 
L 326.016839 274.36928 
L 326.341818 273.48224 
L 326.666798 273.87648 
L 326.991777 273.87648 
L 327.316757 274.17216 
L 327.641736 273.28512 
L 327.966716 273.38368 
L 328.291695 273.28512 
L 328.616675 274.27072 
L 328.941654 273.38368 
L 329.266634 274.17216 
L 329.591613 273.38368 
L 330.241572 273.77792 
L 330.566552 273.28512 
L 330.891532 273.77792 
L 331.216511 272.79232 
L 331.541491 272.79232 
L 331.86647 274.5664 
L 332.19145 272.49664 
L 332.516429 273.5808 
L 332.841409 273.18656 
L 333.166388 274.0736 
L 333.491368 272.79232 
L 333.816347 272.79232 
L 334.141327 273.67936 
L 334.466306 273.28512 
L 335.116265 273.088 
L 335.441245 274.0736 
L 335.766224 273.48224 
L 336.091204 273.48224 
L 336.416183 273.97504 
L 336.741163 272.98944 
L 337.066143 273.87648 
L 337.391122 274.27072 
L 337.716102 272.49664 
L 338.366061 273.5808 
L 339.01602 272.79232 
L 339.340999 273.87648 
L 339.665979 274.27072 
L 339.990958 273.77792 
L 340.315938 272.89088 
L 340.640917 272.89088 
L 341.290876 273.67936 
L 341.615856 273.87648 
L 341.940835 272.5952 
L 342.265815 273.18656 
L 342.915774 272.89088 
L 343.240753 273.87648 
L 343.565733 273.28512 
L 344.215692 273.97504 
L 344.540672 273.67936 
L 344.865651 273.088 
L 345.84059 273.77792 
L 346.165569 272.79232 
L 346.490549 273.38368 
L 346.815528 273.67936 
L 347.140508 273.18656 
L 347.465487 273.77792 
L 347.790467 273.18656 
L 348.115446 274.0736 
L 348.440426 272.89088 
L 348.765405 272.69376 
L 349.090385 272.79232 
L 349.415364 272.49664 
L 349.740344 273.5808 
L 350.390303 273.28512 
L 350.715283 273.87648 
L 351.040262 273.5808 
L 351.365242 272.89088 
L 351.690221 272.5952 
L 352.015201 273.28512 
L 352.66516 273.5808 
L 352.990139 273.48224 
L 353.315119 273.18656 
L 353.640098 272.1024 
L 353.965078 273.5808 
L 354.290057 273.97504 
L 354.615037 273.088 
L 354.940016 273.18656 
L 355.264996 273.48224 
L 355.589975 272.89088 
L 355.914955 273.28512 
L 356.239934 274.36928 
L 356.564914 272.29952 
L 356.889894 271.70816 
L 357.539853 273.5808 
L 357.864832 273.97504 
L 358.189812 274.17216 
L 358.514791 272.69376 
L 358.839771 272.69376 
L 359.16475 273.38368 
L 359.48973 272.39808 
L 359.814709 273.77792 
L 360.464668 272.89088 
L 360.789648 273.5808 
L 361.114627 273.87648 
L 361.439607 273.18656 
L 361.764586 273.28512 
L 362.089566 272.00384 
L 362.414545 272.79232 
L 362.739525 273.088 
L 363.064505 273.18656 
L 363.389484 272.29952 
L 363.714464 273.18656 
L 364.039443 272.5952 
L 364.364423 273.28512 
L 364.689402 273.28512 
L 365.014382 272.98944 
L 365.339361 272.98944 
L 365.664341 272.39808 
L 365.98932 272.89088 
L 366.3143 272.39808 
L 366.639279 273.18656 
L 366.964259 274.36928 
L 367.289238 272.89088 
L 367.614218 273.38368 
L 368.264177 272.20096 
L 368.589156 273.088 
L 368.914136 272.79232 
L 369.239115 272.89088 
L 369.564095 273.97504 
L 369.889075 273.18656 
L 370.214054 273.38368 
L 370.539034 273.77792 
L 370.864013 273.28512 
L 371.188993 273.97504 
L 371.513972 272.20096 
L 371.838952 273.48224 
L 372.163931 273.088 
L 372.81389 274.17216 
L 373.13887 272.98944 
L 373.463849 273.5808 
L 374.113808 272.89088 
L 374.438788 272.79232 
L 375.088747 273.67936 
L 375.413726 273.48224 
L 375.738706 273.48224 
L 376.063686 273.67936 
L 376.388665 273.088 
L 377.038624 274.17216 
L 377.363604 273.088 
L 377.688583 274.17216 
L 378.013563 273.48224 
L 378.338542 273.67936 
L 378.988501 272.89088 
L 379.313481 273.97504 
L 379.63846 273.67936 
L 379.96344 273.67936 
L 380.288419 274.0736 
L 380.613399 272.69376 
L 380.938378 273.48224 
L 381.588337 272.98944 
L 381.913317 274.17216 
L 382.238296 272.69376 
L 382.563276 273.77792 
L 382.888256 273.77792 
L 383.213235 273.28512 
L 383.863194 273.28512 
L 384.188174 273.5808 
L 384.513153 272.5952 
L 384.838133 273.38368 
L 385.163112 273.5808 
L 385.488092 272.89088 
L 385.813071 273.97504 
L 386.138051 273.5808 
L 386.46303 273.48224 
L 386.78801 273.18656 
L 387.112989 273.5808 
L 387.437969 272.39808 
L 387.762948 273.48224 
L 388.087928 273.48224 
L 388.412907 273.67936 
L 388.737887 273.088 
L 389.062867 273.97504 
L 389.387846 273.18656 
L 389.712826 273.48224 
L 390.037805 272.69376 
L 390.362785 272.79232 
L 390.687764 273.28512 
L 391.012744 272.98944 
L 391.662703 273.97504 
L 392.312662 273.48224 
L 392.637641 273.97504 
L 392.962621 273.18656 
L 393.2876 273.48224 
L 393.61258 273.088 
L 393.937559 273.088 
L 394.262539 273.5808 
L 394.587518 273.77792 
L 394.912498 273.77792 
L 395.562457 272.5952 
L 395.887437 272.98944 
L 396.212416 272.69376 
L 396.537396 273.97504 
L 396.862375 273.28512 
L 397.187355 273.088 
L 397.512334 273.088 
L 397.837314 273.87648 
L 398.162293 272.79232 
L 398.487273 273.67936 
L 398.487273 273.67936 
" style="fill:none;stroke:#1f77b4;stroke-linecap:square;stroke-width:1.5;"/>
   </g>
   <g id="patch_3">
    <path d="M 57.6 307.584 
L 57.6 41.472 
" style="fill:none;stroke:#000000;stroke-linecap:square;stroke-linejoin:miter;stroke-width:0.8;"/>
   </g>
   <g id="patch_4">
    <path d="M 414.72 307.584 
L 414.72 41.472 
" style="fill:none;stroke:#000000;stroke-linecap:square;stroke-linejoin:miter;stroke-width:0.8;"/>
   </g>
   <g id="patch_5">
    <path d="M 57.6 307.584 
L 414.72 307.584 
" style="fill:none;stroke:#000000;stroke-linecap:square;stroke-linejoin:miter;stroke-width:0.8;"/>
   </g>
   <g id="patch_6">
    <path d="M 57.6 41.472 
L 414.72 41.472 
" style="fill:none;stroke:#000000;stroke-linecap:square;stroke-linejoin:miter;stroke-width:0.8;"/>
   </g>
   <g id="text_15">
    <!-- Training - OpenAI-ES - Slimevolley -->
    <g transform="translate(134.387812 35.472)scale(0.12 -0.12)">
     <defs>
      <path d="M 3513 2113 
L 3513 0 
L 2938 0 
L 2938 2094 
Q 2938 2591 2744 2837 
Q 2550 3084 2163 3084 
Q 1697 3084 1428 2787 
Q 1159 2491 1159 1978 
L 1159 0 
L 581 0 
L 581 3500 
L 1159 3500 
L 1159 2956 
Q 1366 3272 1645 3428 
Q 1925 3584 2291 3584 
Q 2894 3584 3203 3211 
Q 3513 2838 3513 2113 
z
" id="DejaVuSans-6e" transform="scale(0.015625)"/>
      <path d="M 2906 1791 
Q 2906 2416 2648 2759 
Q 2391 3103 1925 3103 
Q 1463 3103 1205 2759 
Q 947 2416 947 1791 
Q 947 1169 1205 825 
Q 1463 481 1925 481 
Q 2391 481 2648 825 
Q 2906 1169 2906 1791 
z
M 3481 434 
Q 3481 -459 3084 -895 
Q 2688 -1331 1869 -1331 
Q 1566 -1331 1297 -1286 
Q 1028 -1241 775 -1147 
L 775 -588 
Q 1028 -725 1275 -790 
Q 1522 -856 1778 -856 
Q 2344 -856 2625 -561 
Q 2906 -266 2906 331 
L 2906 616 
Q 2728 306 2450 153 
Q 2172 0 1784 0 
Q 1141 0 747 490 
Q 353 981 353 1791 
Q 353 2603 747 3093 
Q 1141 3584 1784 3584 
Q 2172 3584 2450 3431 
Q 2728 3278 2906 2969 
L 2906 3500 
L 3481 3500 
L 3481 434 
z
" id="DejaVuSans-67" transform="scale(0.015625)"/>
      <path id="DejaVuSans-20" transform="scale(0.015625)"/>
      <path d="M 313 2009 
L 1997 2009 
L 1997 1497 
L 313 1497 
L 313 2009 
z
" id="DejaVuSans-2d" transform="scale(0.015625)"/>
      <path d="M 2522 4238 
Q 1834 4238 1429 3725 
Q 1025 3213 1025 2328 
Q 1025 1447 1429 934 
Q 1834 422 2522 422 
Q 3209 422 3611 934 
Q 4013 1447 4013 2328 
Q 4013 3213 3611 3725 
Q 3209 4238 2522 4238 
z
M 2522 4750 
Q 3503 4750 4090 4092 
Q 4678 3434 4678 2328 
Q 4678 1225 4090 567 
Q 3503 -91 2522 -91 
Q 1538 -91 948 565 
Q 359 1222 359 2328 
Q 359 3434 948 4092 
Q 1538 4750 2522 4750 
z
" id="DejaVuSans-4f" transform="scale(0.015625)"/>
      <path d="M 2188 4044 
L 1331 1722 
L 3047 1722 
L 2188 4044 
z
M 1831 4666 
L 2547 4666 
L 4325 0 
L 3669 0 
L 3244 1197 
L 1141 1197 
L 716 0 
L 50 0 
L 1831 4666 
z
" id="DejaVuSans-41" transform="scale(0.015625)"/>
      <path d="M 628 4666 
L 1259 4666 
L 1259 0 
L 628 0 
L 628 4666 
z
" id="DejaVuSans-49" transform="scale(0.015625)"/>
      <path d="M 628 4666 
L 3578 4666 
L 3578 4134 
L 1259 4134 
L 1259 2753 
L 3481 2753 
L 3481 2222 
L 1259 2222 
L 1259 531 
L 3634 531 
L 3634 0 
L 628 0 
L 628 4666 
z
" id="DejaVuSans-45" transform="scale(0.015625)"/>
      <path d="M 3425 4513 
L 3425 3897 
Q 3066 4069 2747 4153 
Q 2428 4238 2131 4238 
Q 1616 4238 1336 4038 
Q 1056 3838 1056 3469 
Q 1056 3159 1242 3001 
Q 1428 2844 1947 2747 
L 2328 2669 
Q 3034 2534 3370 2195 
Q 3706 1856 3706 1288 
Q 3706 609 3251 259 
Q 2797 -91 1919 -91 
Q 1588 -91 1214 -16 
Q 841 59 441 206 
L 441 856 
Q 825 641 1194 531 
Q 1563 422 1919 422 
Q 2459 422 2753 634 
Q 3047 847 3047 1241 
Q 3047 1584 2836 1778 
Q 2625 1972 2144 2069 
L 1759 2144 
Q 1053 2284 737 2584 
Q 422 2884 422 3419 
Q 422 4038 858 4394 
Q 1294 4750 2059 4750 
Q 2388 4750 2728 4690 
Q 3069 4631 3425 4513 
z
" id="DejaVuSans-53" transform="scale(0.015625)"/>
      <path d="M 603 4863 
L 1178 4863 
L 1178 0 
L 603 0 
L 603 4863 
z
" id="DejaVuSans-6c" transform="scale(0.015625)"/>
      <path d="M 191 3500 
L 800 3500 
L 1894 563 
L 2988 3500 
L 3597 3500 
L 2284 0 
L 1503 0 
L 191 3500 
z
" id="DejaVuSans-76" transform="scale(0.015625)"/>
      <path d="M 1959 3097 
Q 1497 3097 1228 2736 
Q 959 2375 959 1747 
Q 959 1119 1226 758 
Q 1494 397 1959 397 
Q 2419 397 2687 759 
Q 2956 1122 2956 1747 
Q 2956 2369 2687 2733 
Q 2419 3097 1959 3097 
z
M 1959 3584 
Q 2709 3584 3137 3096 
Q 3566 2609 3566 1747 
Q 3566 888 3137 398 
Q 2709 -91 1959 -91 
Q 1206 -91 779 398 
Q 353 888 353 1747 
Q 353 2609 779 3096 
Q 1206 3584 1959 3584 
z
" id="DejaVuSans-6f" transform="scale(0.015625)"/>
      <path d="M 2059 -325 
Q 1816 -950 1584 -1140 
Q 1353 -1331 966 -1331 
L 506 -1331 
L 506 -850 
L 844 -850 
Q 1081 -850 1212 -737 
Q 1344 -625 1503 -206 
L 1606 56 
L 191 3500 
L 800 3500 
L 1894 763 
L 2988 3500 
L 3597 3500 
L 2059 -325 
z
" id="DejaVuSans-79" transform="scale(0.015625)"/>
     </defs>
     <use xlink:href="#DejaVuSans-54"/>
     <use x="46.333984" xlink:href="#DejaVuSans-72"/>
     <use x="87.447266" xlink:href="#DejaVuSans-61"/>
     <use x="148.726562" xlink:href="#DejaVuSans-69"/>
     <use x="176.509766" xlink:href="#DejaVuSans-6e"/>
     <use x="239.888672" xlink:href="#DejaVuSans-69"/>
     <use x="267.671875" xlink:href="#DejaVuSans-6e"/>
     <use x="331.050781" xlink:href="#DejaVuSans-67"/>
     <use x="394.527344" xlink:href="#DejaVuSans-20"/>
     <use x="426.314453" xlink:href="#DejaVuSans-2d"/>
     <use x="462.398438" xlink:href="#DejaVuSans-20"/>
     <use x="494.185547" xlink:href="#DejaVuSans-4f"/>
     <use x="572.896484" xlink:href="#DejaVuSans-70"/>
     <use x="636.373047" xlink:href="#DejaVuSans-65"/>
     <use x="697.896484" xlink:href="#DejaVuSans-6e"/>
     <use x="761.275391" xlink:href="#DejaVuSans-41"/>
     <use x="829.683594" xlink:href="#DejaVuSans-49"/>
     <use x="859.175781" xlink:href="#DejaVuSans-2d"/>
     <use x="895.259766" xlink:href="#DejaVuSans-45"/>
     <use x="958.443359" xlink:href="#DejaVuSans-53"/>
     <use x="1021.919922" xlink:href="#DejaVuSans-20"/>
     <use x="1053.707031" xlink:href="#DejaVuSans-2d"/>
     <use x="1089.791016" xlink:href="#DejaVuSans-20"/>
     <use x="1121.578125" xlink:href="#DejaVuSans-53"/>
     <use x="1185.054688" xlink:href="#DejaVuSans-6c"/>
     <use x="1212.837891" xlink:href="#DejaVuSans-69"/>
     <use x="1240.621094" xlink:href="#DejaVuSans-6d"/>
     <use x="1338.033203" xlink:href="#DejaVuSans-65"/>
     <use x="1399.556641" xlink:href="#DejaVuSans-76"/>
     <use x="1458.736328" xlink:href="#DejaVuSans-6f"/>
     <use x="1519.917969" xlink:href="#DejaVuSans-6c"/>
     <use x="1547.701172" xlink:href="#DejaVuSans-6c"/>
     <use x="1575.484375" xlink:href="#DejaVuSans-65"/>
     <use x="1637.007812" xlink:href="#DejaVuSans-79"/>
    </g>
   </g>
  </g>
 </g>
 <defs>
  <clipPath id="pf09837d220">
   <rect height="266.112" width="357.12" x="57.6" y="41.472"/>
  </clipPath>
 </defs>
</svg>
