<?xml version="1.0" encoding="utf-8" standalone="no"?>
<!DOCTYPE svg PUBLIC "-//W3C//DTD SVG 1.1//EN"
  "http://www.w3.org/Graphics/SVG/1.1/DTD/svg11.dtd">
<svg height="345.6pt" version="1.1" viewBox="0 0 460.8 345.6" width="460.8pt" xmlns="http://www.w3.org/2000/svg" xmlns:xlink="http://www.w3.org/1999/xlink">
 <metadata>
  <rdf:RDF xmlns:cc="http://creativecommons.org/ns#" xmlns:dc="http://purl.org/dc/elements/1.1/" xmlns:rdf="http://www.w3.org/1999/02/22-rdf-syntax-ns#">
   <cc:Work>
    <dc:type rdf:resource="http://purl.org/dc/dcmitype/StillImage"/>
    <dc:date>2021-07-22T17:33:45.794222</dc:date>
    <dc:format>image/svg+xml</dc:format>
    <dc:creator>
     <cc:Agent>
      <dc:title>Matplotlib v3.4.2, https://matplotlib.org/</dc:title>
     </cc:Agent>
    </dc:creator>
   </cc:Work>
  </rdf:RDF>
 </metadata>
 <defs>
  <style type="text/css">*{stroke-linecap:butt;stroke-linejoin:round;}</style>
 </defs>
 <g id="figure_1">
  <g id="patch_1">
   <path d="M 0 345.6 
L 460.8 345.6 
L 460.8 0 
L 0 0 
z
" style="fill:#ffffff;"/>
  </g>
  <g id="axes_1">
   <g id="patch_2">
    <path d="M 57.6 307.584 
L 414.72 307.584 
L 414.72 41.472 
L 57.6 41.472 
z
" style="fill:#ffffff;"/>
   </g>
   <g id="PolyCollection_1">
    <path clip-path="url(#p709e46b0bc)" d="M 57.9968 283.939589 
L 57.9968 286.924359 
L 58.3936 287.553678 
L 58.7904 286.456865 
L 59.1872 286.223118 
L 59.584 287.176086 
L 59.9808 287.607619 
L 60.3776 287.373872 
L 60.7744 287.014262 
L 61.1712 285.503896 
L 61.568 286.924359 
L 61.9648 286.996281 
L 62.3616 287.265989 
L 62.7584 285.396013 
L 63.1552 285.827546 
L 63.552 287.427814 
L 63.9488 287.661561 
L 64.3456 287.679542 
L 64.7424 287.122145 
L 65.1392 284.982461 
L 65.536 284.047472 
L 65.9328 285.611779 
L 66.3296 283.597959 
L 66.7264 286.456865 
L 67.1232 285.144285 
L 67.52 283.651901 
L 67.9168 285.647741 
L 68.3136 286.438884 
L 68.7104 286.510806 
L 69.1072 284.209297 
L 69.504 283.202387 
L 69.9008 287.086184 
L 70.2976 286.151196 
L 70.6944 285.935429 
L 71.0912 285.431974 
L 71.488 284.856597 
L 71.8848 286.726573 
L 72.2816 286.870417 
L 72.6784 284.425064 
L 73.0752 287.517717 
L 73.472 285.000441 
L 73.8688 284.568908 
L 74.2656 286.29504 
L 74.6624 287.014262 
L 75.0592 286.942339 
L 75.456 286.151196 
L 75.8528 285.28813 
L 76.2496 286.079274 
L 76.6464 287.517717 
L 77.0432 284.281219 
L 77.44 286.510806 
L 77.8368 283.561998 
L 78.2336 284.065453 
L 78.6304 284.425064 
L 79.0272 283.130465 
L 79.424 283.130465 
L 79.8208 284.209297 
L 80.2176 283.274309 
L 80.6144 286.870417 
L 81.0112 285.863507 
L 81.408 282.698932 
L 81.8048 284.065453 
L 82.2016 282.770854 
L 82.5984 282.555088 
L 82.9952 287.158106 
L 83.392 286.007351 
L 83.7888 282.842776 
L 84.1856 284.209297 
L 84.5824 287.158106 
L 84.9792 285.072363 
L 85.376 286.510806 
L 85.7728 285.719663 
L 86.1696 286.798495 
L 86.5664 284.496986 
L 86.9632 284.209297 
L 87.36 283.705842 
L 87.7568 283.130465 
L 88.1536 287.158106 
L 88.5504 282.986621 
L 88.9472 283.63392 
L 89.344 283.777764 
L 89.7408 284.425064 
L 90.1376 285.719663 
L 90.5344 283.346231 
L 90.9312 285.28813 
L 91.328 283.058543 
L 91.7248 283.921609 
L 92.1216 283.130465 
L 92.5184 283.274309 
L 92.9152 283.705842 
L 93.312 283.346231 
L 93.7088 285.431974 
L 94.1056 282.986621 
L 94.5024 282.986621 
L 94.8992 284.64083 
L 95.296 282.339321 
L 95.6928 285.144285 
L 96.0896 284.784675 
L 96.4864 282.339321 
L 96.8832 286.942339 
L 97.28 285.647741 
L 97.6768 286.654651 
L 98.0736 282.842776 
L 98.4704 282.770854 
L 98.8672 283.490076 
L 99.264 287.373872 
L 99.6608 285.072363 
L 100.0576 286.007351 
L 100.4544 283.993531 
L 100.8512 284.425064 
L 101.248 284.209297 
L 101.6448 286.582729 
L 102.0416 284.784675 
L 102.4384 285.216208 
L 102.8352 284.281219 
L 103.232 283.490076 
L 103.6288 283.274309 
L 104.0256 283.561998 
L 104.4224 283.058543 
L 104.8192 284.065453 
L 105.216 283.418154 
L 105.6128 285.791585 
L 106.0096 284.64083 
L 106.4064 285.000441 
L 106.8032 283.202387 
L 107.2 284.712752 
L 107.5968 283.63392 
L 107.9936 283.705842 
L 108.3904 283.561998 
L 108.7872 286.654651 
L 109.184 282.842776 
L 109.5808 283.705842 
L 109.9776 283.130465 
L 110.3744 285.072363 
L 110.7712 284.496986 
L 111.168 283.777764 
L 111.5648 285.360052 
L 111.9616 283.202387 
L 112.3584 283.274309 
L 112.7552 283.490076 
L 113.152 285.144285 
L 113.5488 283.921609 
L 113.9456 286.007351 
L 114.3424 283.130465 
L 114.7392 284.856597 
L 115.136 285.503896 
L 115.5328 284.712752 
L 115.9296 283.849686 
L 116.3264 284.281219 
L 116.7232 286.438884 
L 117.12 282.986621 
L 117.5168 283.921609 
L 117.9136 285.072363 
L 118.3104 283.274309 
L 118.7072 282.914698 
L 119.104 283.274309 
L 119.5008 284.209297 
L 119.8976 284.209297 
L 120.2944 285.28813 
L 120.6912 284.425064 
L 121.088 284.065453 
L 121.4848 283.561998 
L 121.8816 284.496986 
L 122.2784 284.353142 
L 122.6752 283.705842 
L 123.072 283.561998 
L 123.4688 284.353142 
L 123.8656 284.928519 
L 124.2624 285.144285 
L 124.6592 283.993531 
L 125.056 283.490076 
L 125.4528 283.849686 
L 125.8496 284.856597 
L 126.2464 284.856597 
L 126.6432 283.921609 
L 127.04 283.921609 
L 127.4368 284.64083 
L 127.8336 284.137375 
L 128.2304 284.64083 
L 128.6272 283.993531 
L 129.024 286.223118 
L 129.4208 282.914698 
L 129.8176 285.144285 
L 130.2144 284.281219 
L 130.6112 283.849686 
L 131.008 284.856597 
L 131.4048 285.719663 
L 131.8016 285.863507 
L 132.1984 284.784675 
L 132.5952 284.425064 
L 132.992 285.360052 
L 133.3888 286.942339 
L 133.7856 283.63392 
L 134.1824 284.712752 
L 134.5792 283.849686 
L 134.976 284.784675 
L 135.3728 286.079274 
L 135.7696 284.712752 
L 136.1664 284.568908 
L 136.5632 283.274309 
L 136.96 282.698932 
L 137.3568 285.000441 
L 137.7536 286.079274 
L 138.1504 283.274309 
L 138.5472 283.849686 
L 138.944 284.353142 
L 139.3408 283.921609 
L 139.7376 285.072363 
L 140.1344 285.431974 
L 140.5312 284.065453 
L 140.928 287.445795 
L 141.3248 284.712752 
L 141.7216 286.798495 
L 142.1184 284.64083 
L 142.5152 287.373872 
L 142.912 283.849686 
L 143.3088 284.209297 
L 143.7056 284.065453 
L 144.1024 285.072363 
L 144.4992 284.784675 
L 144.896 285.503896 
L 145.2928 286.007351 
L 145.6896 284.496986 
L 146.0864 284.425064 
L 146.4832 282.698932 
L 146.88 285.28813 
L 147.2768 285.575818 
L 147.6736 285.216208 
L 148.0704 286.798495 
L 148.4672 287.014262 
L 148.864 285.503896 
L 149.2608 284.712752 
L 149.6576 286.654651 
L 150.0544 285.072363 
L 150.4512 284.568908 
L 150.848 285.216208 
L 151.2448 284.209297 
L 151.6416 285.216208 
L 152.0384 284.568908 
L 152.4352 286.438884 
L 152.832 286.007351 
L 153.2288 284.425064 
L 153.6256 285.431974 
L 154.0224 286.726573 
L 154.4192 285.719663 
L 154.816 286.510806 
L 155.2128 285.863507 
L 155.6096 284.64083 
L 156.0064 283.921609 
L 156.4032 286.29504 
L 156.8 285.935429 
L 157.1968 286.942339 
L 157.5936 287.086184 
L 157.9904 286.726573 
L 158.3872 284.137375 
L 158.784 286.942339 
L 159.1808 284.64083 
L 159.5776 285.575818 
L 159.9744 285.863507 
L 160.3712 286.942339 
L 160.768 283.63392 
L 161.1648 286.438884 
L 161.5616 286.223118 
L 161.9584 285.503896 
L 162.3552 287.517717 
L 162.752 286.582729 
L 163.1488 286.079274 
L 163.5456 284.64083 
L 163.9424 285.791585 
L 164.3392 286.151196 
L 164.736 287.014262 
L 165.1328 283.705842 
L 165.5296 285.28813 
L 165.9264 286.654651 
L 166.3232 287.733483 
L 166.72 286.798495 
L 167.1168 284.928519 
L 167.5136 285.647741 
L 167.9104 284.568908 
L 168.3072 286.798495 
L 168.704 287.373872 
L 169.1008 283.705842 
L 169.4976 287.230028 
L 169.8944 285.791585 
L 170.2912 287.94925 
L 170.688 287.230028 
L 171.0848 287.086184 
L 171.4816 284.784675 
L 171.8784 286.29504 
L 172.2752 285.144285 
L 172.672 285.647741 
L 173.0688 287.30195 
L 173.4656 284.64083 
L 173.8624 286.798495 
L 174.2592 286.29504 
L 174.656 287.373872 
L 175.0528 286.438884 
L 175.4496 284.784675 
L 175.8464 286.582729 
L 176.2432 287.589639 
L 176.64 287.373872 
L 177.0368 287.94925 
L 177.4336 287.014262 
L 177.8304 284.712752 
L 178.2272 286.007351 
L 178.624 286.798495 
L 179.0208 285.503896 
L 179.4176 286.438884 
L 179.8144 287.014262 
L 180.2112 286.151196 
L 180.608 285.647741 
L 181.0048 285.360052 
L 181.4016 285.503896 
L 181.7984 288.668471 
L 182.1952 284.065453 
L 182.592 286.582729 
L 182.9888 285.575818 
L 183.3856 285.575818 
L 183.7824 286.151196 
L 184.1792 286.582729 
L 184.576 287.158106 
L 184.9728 286.438884 
L 185.3696 287.445795 
L 185.7664 286.510806 
L 186.1632 287.30195 
L 186.56 286.151196 
L 186.9568 284.712752 
L 187.3536 284.928519 
L 187.7504 286.079274 
L 188.1472 285.28813 
L 188.544 286.654651 
L 188.9408 286.870417 
L 189.3376 285.791585 
L 189.7344 286.151196 
L 190.1312 286.438884 
L 190.528 284.281219 
L 190.9248 286.438884 
L 191.3216 286.582729 
L 191.7184 285.216208 
L 192.1152 285.28813 
L 192.512 287.589639 
L 192.9088 285.431974 
L 193.3056 286.798495 
L 193.7024 286.798495 
L 194.0992 287.589639 
L 194.496 285.575818 
L 194.8928 286.079274 
L 195.2896 286.079274 
L 195.6864 287.086184 
L 196.0832 285.431974 
L 196.48 286.582729 
L 196.8768 284.856597 
L 197.2736 287.086184 
L 197.6704 287.30195 
L 198.0672 287.94925 
L 198.464 285.791585 
L 198.8608 286.510806 
L 199.2576 285.216208 
L 199.6544 284.784675 
L 200.0512 286.223118 
L 200.448 286.079274 
L 200.8448 284.928519 
L 201.2416 283.705842 
L 201.6384 288.380783 
L 202.0352 287.014262 
L 202.432 284.928519 
L 202.8288 286.726573 
L 203.2256 285.575818 
L 203.6224 286.438884 
L 204.0192 287.373872 
L 204.416 286.510806 
L 204.8128 284.353142 
L 205.2096 288.093094 
L 205.6064 286.151196 
L 206.0032 286.366962 
L 206.4 285.072363 
L 206.7968 285.935429 
L 207.1936 286.151196 
L 207.5904 285.360052 
L 207.9872 286.366962 
L 208.384 284.353142 
L 208.7808 284.712752 
L 209.1776 285.360052 
L 209.5744 287.230028 
L 209.9712 286.366962 
L 210.368 286.510806 
L 210.7648 286.582729 
L 211.1616 284.712752 
L 211.5584 284.928519 
L 211.9552 287.014262 
L 212.352 286.223118 
L 212.7488 286.079274 
L 213.1456 286.654651 
L 213.5424 286.510806 
L 213.9392 284.784675 
L 214.336 286.510806 
L 214.7328 284.64083 
L 215.1296 287.086184 
L 215.5264 285.863507 
L 215.9232 285.647741 
L 216.32 286.726573 
L 216.7168 285.000441 
L 217.1136 286.223118 
L 217.5104 285.719663 
L 217.9072 284.568908 
L 218.304 286.29504 
L 218.7008 285.791585 
L 219.0976 286.007351 
L 219.4944 283.777764 
L 219.8912 286.438884 
L 220.288 284.784675 
L 220.6848 286.223118 
L 221.0816 284.928519 
L 221.4784 284.784675 
L 221.8752 285.791585 
L 222.272 284.928519 
L 222.6688 285.791585 
L 223.0656 286.366962 
L 223.4624 284.784675 
L 223.8592 285.000441 
L 224.256 283.63392 
L 224.6528 285.28813 
L 225.0496 285.863507 
L 225.4464 285.935429 
L 225.8432 285.575818 
L 226.24 284.856597 
L 226.6368 285.216208 
L 227.0336 287.733483 
L 227.4304 284.928519 
L 227.8272 285.575818 
L 228.224 286.079274 
L 228.6208 284.281219 
L 229.0176 286.582729 
L 229.4144 283.63392 
L 229.8112 286.510806 
L 230.208 284.281219 
L 230.6048 285.863507 
L 231.0016 287.158106 
L 231.3984 284.856597 
L 231.7952 286.223118 
L 232.192 284.64083 
L 232.5888 286.942339 
L 232.9856 284.64083 
L 233.3824 286.582729 
L 233.7792 287.445795 
L 234.176 285.503896 
L 234.5728 285.072363 
L 234.9696 285.575818 
L 235.3664 286.223118 
L 235.7632 285.144285 
L 236.16 284.281219 
L 236.5568 285.503896 
L 236.9536 285.503896 
L 237.3504 286.510806 
L 237.7472 286.870417 
L 238.144 286.726573 
L 238.5408 286.870417 
L 238.9376 286.151196 
L 239.3344 287.373872 
L 239.7312 287.158106 
L 240.128 285.072363 
L 240.5248 287.517717 
L 240.9216 285.647741 
L 241.3184 285.935429 
L 241.7152 285.863507 
L 242.112 286.798495 
L 242.5088 286.079274 
L 242.9056 285.28813 
L 243.3024 286.223118 
L 243.6992 285.935429 
L 244.096 285.360052 
L 244.4928 287.086184 
L 244.8896 285.575818 
L 245.2864 285.935429 
L 245.6832 286.151196 
L 246.08 285.575818 
L 246.4768 287.158106 
L 246.8736 285.431974 
L 247.2704 288.165016 
L 247.6672 286.29504 
L 248.064 286.726573 
L 248.4608 285.000441 
L 248.8576 285.072363 
L 249.2544 286.438884 
L 249.6512 285.647741 
L 250.048 288.021172 
L 250.4448 286.654651 
L 250.8416 286.438884 
L 251.2384 286.079274 
L 251.6352 286.151196 
L 252.032 285.935429 
L 252.4288 286.726573 
L 252.8256 285.863507 
L 253.2224 284.425064 
L 253.6192 285.503896 
L 254.016 285.216208 
L 254.4128 285.360052 
L 254.8096 285.28813 
L 255.2064 284.568908 
L 255.6032 285.360052 
L 256 286.798495 
L 256.3968 284.137375 
L 256.7936 287.014262 
L 257.1904 286.223118 
L 257.5872 285.000441 
L 257.984 286.942339 
L 258.3808 285.000441 
L 258.7776 286.151196 
L 259.1744 284.496986 
L 259.5712 286.223118 
L 259.968 285.575818 
L 260.3648 285.863507 
L 260.7616 284.64083 
L 261.1584 287.445795 
L 261.5552 285.216208 
L 261.952 285.28813 
L 262.3488 285.431974 
L 262.7456 285.216208 
L 263.1424 285.575818 
L 263.5392 285.503896 
L 263.936 285.935429 
L 264.3328 286.942339 
L 264.7296 286.870417 
L 265.1264 286.151196 
L 265.5232 285.28813 
L 265.92 287.086184 
L 266.3168 285.935429 
L 266.7136 286.870417 
L 267.1104 285.072363 
L 267.5072 285.575818 
L 267.904 286.942339 
L 268.3008 288.380783 
L 268.6976 286.438884 
L 269.0944 286.582729 
L 269.4912 286.654651 
L 269.888 286.366962 
L 270.2848 286.582729 
L 270.6816 286.29504 
L 271.0784 285.216208 
L 271.4752 286.726573 
L 271.872 285.935429 
L 272.2688 285.360052 
L 272.6656 286.870417 
L 273.0624 284.856597 
L 273.4592 284.496986 
L 273.856 286.942339 
L 274.2528 287.589639 
L 274.6496 285.719663 
L 275.0464 286.438884 
L 275.4432 286.510806 
L 275.84 287.014262 
L 276.2368 287.661561 
L 276.6336 285.935429 
L 277.0304 284.712752 
L 277.4272 287.517717 
L 277.824 286.007351 
L 278.2208 285.791585 
L 278.6176 286.654651 
L 279.0144 285.647741 
L 279.4112 286.151196 
L 279.808 286.870417 
L 280.2048 284.496986 
L 280.6016 286.223118 
L 280.9984 286.798495 
L 281.3952 285.719663 
L 281.792 286.510806 
L 282.1888 287.158106 
L 282.5856 287.086184 
L 282.9824 286.726573 
L 283.3792 286.079274 
L 283.776 286.942339 
L 284.1728 286.798495 
L 284.5696 285.216208 
L 284.9664 287.014262 
L 285.3632 286.870417 
L 285.76 286.510806 
L 286.1568 286.582729 
L 286.5536 287.086184 
L 286.9504 288.452705 
L 287.3472 286.582729 
L 287.744 286.007351 
L 288.1408 283.418154 
L 288.5376 285.431974 
L 288.9344 286.582729 
L 289.3312 286.726573 
L 289.728 286.582729 
L 290.1248 286.942339 
L 290.5216 287.517717 
L 290.9184 288.236938 
L 291.3152 287.086184 
L 291.712 286.007351 
L 292.1088 285.28813 
L 292.5056 285.791585 
L 292.9024 285.072363 
L 293.2992 287.014262 
L 293.696 286.798495 
L 294.0928 286.438884 
L 294.4896 287.014262 
L 294.8864 287.373872 
L 295.2832 285.28813 
L 295.68 286.582729 
L 296.0768 286.079274 
L 296.4736 286.870417 
L 296.8704 286.654651 
L 297.2672 285.216208 
L 297.664 286.798495 
L 298.0608 286.366962 
L 298.4576 286.870417 
L 298.8544 285.072363 
L 299.2512 286.726573 
L 299.648 286.223118 
L 300.0448 287.014262 
L 300.4416 285.935429 
L 300.8384 286.654651 
L 301.2352 287.30195 
L 301.632 286.726573 
L 302.0288 286.942339 
L 302.4256 286.798495 
L 302.8224 287.661561 
L 303.2192 285.360052 
L 303.616 286.151196 
L 304.0128 287.805405 
L 304.4096 286.438884 
L 304.8064 286.510806 
L 305.2032 286.29504 
L 305.6 285.719663 
L 305.9968 287.158106 
L 306.3936 287.661561 
L 306.7904 287.086184 
L 307.1872 285.431974 
L 307.584 285.791585 
L 307.9808 287.733483 
L 308.3776 286.582729 
L 308.7744 287.445795 
L 309.1712 286.798495 
L 309.568 286.223118 
L 309.9648 287.014262 
L 310.3616 286.870417 
L 310.7584 285.647741 
L 311.1552 285.647741 
L 311.552 285.863507 
L 311.9488 284.425064 
L 312.3456 286.582729 
L 312.7424 286.223118 
L 313.1392 286.079274 
L 313.536 287.158106 
L 313.9328 285.503896 
L 314.3296 286.510806 
L 314.7264 286.438884 
L 315.1232 285.575818 
L 315.52 285.144285 
L 315.9168 286.870417 
L 316.3136 287.014262 
L 316.7104 286.726573 
L 317.1072 287.230028 
L 317.504 286.726573 
L 317.9008 286.726573 
L 318.2976 285.216208 
L 318.6944 285.863507 
L 319.0912 287.373872 
L 319.488 286.582729 
L 319.8848 286.582729 
L 320.2816 285.072363 
L 320.6784 286.366962 
L 321.0752 287.014262 
L 321.472 286.870417 
L 321.8688 286.438884 
L 322.2656 287.30195 
L 322.6624 286.726573 
L 323.0592 287.30195 
L 323.456 287.086184 
L 323.8528 286.079274 
L 324.2496 285.719663 
L 324.6464 286.654651 
L 325.0432 285.719663 
L 325.44 285.863507 
L 325.8368 285.431974 
L 326.2336 287.30195 
L 326.6304 286.007351 
L 327.0272 286.654651 
L 327.424 286.654651 
L 327.8208 286.582729 
L 328.2176 286.870417 
L 328.6144 286.870417 
L 329.0112 285.935429 
L 329.408 286.582729 
L 329.8048 285.144285 
L 330.2016 285.28813 
L 330.5984 286.582729 
L 330.9952 285.431974 
L 331.392 288.165016 
L 331.7888 287.014262 
L 332.1856 287.230028 
L 332.5824 287.086184 
L 332.9792 286.654651 
L 333.376 286.151196 
L 333.7728 286.29504 
L 334.1696 286.151196 
L 334.5664 287.014262 
L 334.9632 286.942339 
L 335.36 288.021172 
L 335.7568 286.079274 
L 336.1536 286.870417 
L 336.5504 287.086184 
L 336.9472 286.510806 
L 337.344 285.575818 
L 337.7408 287.086184 
L 338.1376 287.373872 
L 338.5344 285.575818 
L 338.9312 285.431974 
L 339.328 288.236938 
L 339.7248 287.445795 
L 340.1216 286.510806 
L 340.5184 286.870417 
L 340.9152 286.510806 
L 341.312 287.661561 
L 341.7088 286.798495 
L 342.1056 287.158106 
L 342.5024 287.30195 
L 342.8992 286.223118 
L 343.296 286.510806 
L 343.6928 286.942339 
L 344.0896 286.870417 
L 344.4864 286.079274 
L 344.8832 286.726573 
L 345.28 285.935429 
L 345.6768 287.94925 
L 346.0736 286.438884 
L 346.4704 286.438884 
L 346.8672 286.510806 
L 347.264 285.719663 
L 347.6608 286.438884 
L 348.0576 286.942339 
L 348.4544 285.360052 
L 348.8512 287.661561 
L 349.248 287.158106 
L 349.6448 286.510806 
L 350.0416 286.582729 
L 350.4384 286.582729 
L 350.8352 284.712752 
L 351.232 286.870417 
L 351.6288 287.445795 
L 352.0256 286.870417 
L 352.4224 287.517717 
L 352.8192 286.223118 
L 353.216 287.230028 
L 353.6128 286.29504 
L 354.0096 285.791585 
L 354.4064 286.870417 
L 354.8032 288.236938 
L 355.2 287.661561 
L 355.5968 286.654651 
L 355.9936 286.870417 
L 356.3904 287.517717 
L 356.7872 287.877328 
L 357.184 287.014262 
L 357.5808 285.935429 
L 357.9776 287.086184 
L 358.3744 286.223118 
L 358.7712 286.654651 
L 359.168 287.086184 
L 359.5648 287.30195 
L 359.9616 287.445795 
L 360.3584 285.863507 
L 360.7552 286.079274 
L 361.152 285.072363 
L 361.5488 286.582729 
L 361.9456 285.503896 
L 362.3424 285.000441 
L 362.7392 286.582729 
L 363.136 287.158106 
L 363.5328 286.654651 
L 363.9296 286.510806 
L 364.3264 287.230028 
L 364.7232 287.158106 
L 365.12 286.29504 
L 365.5168 285.863507 
L 365.9136 286.438884 
L 366.3104 286.654651 
L 366.7072 286.438884 
L 367.104 286.223118 
L 367.5008 287.373872 
L 367.8976 286.654651 
L 368.2944 286.870417 
L 368.6912 286.007351 
L 369.088 286.438884 
L 369.4848 284.856597 
L 369.8816 287.230028 
L 370.2784 285.431974 
L 370.6752 287.014262 
L 371.072 287.445795 
L 371.4688 286.223118 
L 371.8656 287.94925 
L 372.2624 285.935429 
L 372.6592 287.517717 
L 373.056 286.582729 
L 373.4528 286.223118 
L 373.8496 285.791585 
L 374.2464 287.517717 
L 374.6432 286.079274 
L 375.04 286.582729 
L 375.4368 287.158106 
L 375.8336 286.798495 
L 376.2304 285.360052 
L 376.6272 286.438884 
L 377.024 287.589639 
L 377.4208 286.079274 
L 377.8176 285.431974 
L 378.2144 286.079274 
L 378.6112 287.94925 
L 379.008 285.360052 
L 379.4048 285.647741 
L 379.8016 285.072363 
L 380.1984 286.223118 
L 380.5952 286.654651 
L 380.992 285.863507 
L 381.3888 287.086184 
L 381.7856 285.144285 
L 382.1824 286.007351 
L 382.5792 286.151196 
L 382.976 286.29504 
L 383.3728 286.942339 
L 383.7696 286.726573 
L 384.1664 287.158106 
L 384.5632 284.568908 
L 384.96 287.086184 
L 385.3568 286.29504 
L 385.7536 287.733483 
L 386.1504 286.29504 
L 386.5472 286.438884 
L 386.944 286.151196 
L 387.3408 287.805405 
L 387.7376 286.29504 
L 388.1344 285.000441 
L 388.5312 286.510806 
L 388.928 287.014262 
L 389.3248 286.079274 
L 389.7216 286.654651 
L 390.1184 286.366962 
L 390.5152 285.503896 
L 390.912 287.517717 
L 391.3088 287.445795 
L 391.7056 284.64083 
L 392.1024 286.942339 
L 392.4992 285.935429 
L 392.896 286.366962 
L 393.2928 287.733483 
L 393.6896 286.007351 
L 394.0864 287.373872 
L 394.4832 285.935429 
L 394.88 285.791585 
L 395.2768 285.935429 
L 395.6736 286.798495 
L 396.0704 286.654651 
L 396.4672 287.30195 
L 396.864 286.942339 
L 397.2608 286.942339 
L 397.6576 286.870417 
L 398.0544 286.654651 
L 398.4512 284.856597 
L 398.848 287.733483 
L 399.2448 286.870417 
L 399.6416 286.654651 
L 400.0384 286.151196 
L 400.4352 287.014262 
L 400.832 284.568908 
L 401.2288 287.30195 
L 401.6256 286.870417 
L 402.0224 286.079274 
L 402.4192 286.870417 
L 402.816 287.589639 
L 403.2128 286.29504 
L 403.6096 285.431974 
L 404.0064 286.007351 
L 404.4032 285.863507 
L 404.8 287.086184 
L 405.1968 285.144285 
L 405.5936 286.510806 
L 405.9904 286.438884 
L 406.3872 287.230028 
L 406.784 284.281219 
L 407.1808 285.647741 
L 407.5776 287.086184 
L 407.9744 286.438884 
L 408.3712 286.151196 
L 408.768 286.798495 
L 409.1648 285.791585 
L 409.5616 286.438884 
L 409.9584 286.870417 
L 410.3552 286.798495 
L 410.752 286.366962 
L 411.1488 285.503896 
L 411.5456 286.726573 
L 411.9424 285.503896 
L 412.3392 286.079274 
L 412.736 286.007351 
L 413.1328 285.144285 
L 413.5296 287.086184 
L 413.9264 286.223118 
L 414.3232 287.733483 
L 414.72 286.870417 
L 415.1168 286.438884 
L 415.5136 286.223118 
L 415.9104 286.654651 
L 416.3072 286.726573 
L 416.704 286.223118 
L 417.1008 287.445795 
L 417.4976 285.863507 
L 417.8944 286.223118 
L 418.2912 287.014262 
L 418.688 286.079274 
L 419.0848 286.366962 
L 419.4816 285.000441 
L 419.8784 286.654651 
L 420.2752 285.719663 
L 420.672 287.014262 
L 421.0688 286.798495 
L 421.4656 287.230028 
L 421.8624 286.007351 
L 422.2592 286.942339 
L 422.656 287.517717 
L 423.0528 285.431974 
L 423.4496 288.093094 
L 423.8464 286.870417 
L 424.2432 286.438884 
L 424.64 287.30195 
L 425.0368 286.223118 
L 425.4336 286.798495 
L 425.8304 287.014262 
L 426.2272 287.589639 
L 426.624 286.942339 
L 427.0208 284.568908 
L 427.4176 286.942339 
L 427.8144 287.086184 
L 428.2112 285.863507 
L 428.608 286.223118 
L 429.0048 286.870417 
L 429.4016 285.647741 
L 429.7984 286.726573 
L 430.1952 286.942339 
L 430.592 285.863507 
L 430.9888 286.870417 
L 431.3856 285.360052 
L 431.7824 287.158106 
L 432.1792 286.582729 
L 432.576 287.014262 
L 432.9728 286.726573 
L 433.3696 286.582729 
L 433.7664 286.366962 
L 434.1632 286.942339 
L 434.56 287.230028 
L 434.9568 287.014262 
L 435.3536 286.29504 
L 435.7504 286.29504 
L 436.1472 284.712752 
L 436.544 286.942339 
L 436.9408 286.726573 
L 437.3376 286.942339 
L 437.7344 286.079274 
L 438.1312 287.014262 
L 438.528 287.158106 
L 438.9248 285.719663 
L 439.3216 286.654651 
L 439.7184 287.733483 
L 440.1152 286.942339 
L 440.512 287.445795 
L 440.9088 286.438884 
L 441.3056 285.216208 
L 441.7024 286.942339 
L 442.0992 286.942339 
L 442.496 286.726573 
L 442.8928 285.000441 
L 443.2896 285.072363 
L 443.6864 287.230028 
L 444.0832 287.517717 
L 444.48 286.438884 
L 444.8768 287.661561 
L 445.2736 286.151196 
L 445.6704 284.568908 
L 446.0672 286.151196 
L 446.464 285.360052 
L 446.8608 286.726573 
L 447.2576 285.935429 
L 447.6544 285.863507 
L 448.0512 288.021172 
L 448.448 286.726573 
L 448.8448 286.870417 
L 449.2416 286.582729 
L 449.6384 287.733483 
L 450.0352 286.29504 
L 450.432 286.079274 
L 450.8288 286.870417 
L 451.2256 287.373872 
L 451.6224 286.366962 
L 452.0192 286.510806 
L 452.416 287.445795 
L 452.8128 286.007351 
L 453.2096 285.989371 
L 453.6064 282.62701 
L 453.6064 282.62701 
L 453.6064 282.62701 
L 453.2096 283.490076 
L 452.8128 283.561998 
L 452.416 284.137375 
L 452.0192 283.202387 
L 451.6224 282.698932 
L 451.2256 282.411243 
L 450.8288 283.63392 
L 450.432 282.123555 
L 450.0352 284.64083 
L 449.6384 282.123555 
L 449.2416 283.202387 
L 448.8448 282.62701 
L 448.448 284.281219 
L 448.0512 283.130465 
L 447.6544 282.914698 
L 447.2576 282.267399 
L 446.8608 282.698932 
L 446.464 282.339321 
L 446.0672 284.281219 
L 445.6704 282.483165 
L 445.2736 282.914698 
L 444.8768 283.130465 
L 444.48 281.404333 
L 444.0832 286.079274 
L 443.6864 285.647741 
L 443.2896 282.842776 
L 442.8928 282.483165 
L 442.496 284.137375 
L 442.0992 282.914698 
L 441.7024 284.64083 
L 441.3056 282.770854 
L 440.9088 283.490076 
L 440.512 285.000441 
L 440.1152 283.561998 
L 439.7184 285.431974 
L 439.3216 285.28813 
L 438.9248 283.346231 
L 438.528 285.935429 
L 438.1312 285.360052 
L 437.7344 282.051632 
L 437.3376 283.418154 
L 436.9408 285.072363 
L 436.544 284.281219 
L 436.1472 283.418154 
L 435.7504 283.274309 
L 435.3536 284.64083 
L 434.9568 283.63392 
L 434.56 284.353142 
L 434.1632 284.209297 
L 433.7664 283.130465 
L 433.3696 282.914698 
L 432.9728 283.346231 
L 432.576 284.712752 
L 432.1792 283.705842 
L 431.7824 286.079274 
L 431.3856 283.202387 
L 430.9888 283.921609 
L 430.592 282.986621 
L 430.1952 284.137375 
L 429.7984 285.719663 
L 429.4016 283.849686 
L 429.0048 285.503896 
L 428.608 284.568908 
L 428.2112 283.418154 
L 427.8144 283.490076 
L 427.4176 282.698932 
L 427.0208 282.051632 
L 426.624 283.274309 
L 426.2272 284.425064 
L 425.8304 283.63392 
L 425.4336 285.360052 
L 425.0368 285.575818 
L 424.64 284.928519 
L 424.2432 282.914698 
L 423.8464 282.986621 
L 423.4496 286.079274 
L 423.0528 284.425064 
L 422.656 283.993531 
L 422.2592 282.62701 
L 421.8624 283.993531 
L 421.4656 285.216208 
L 421.0688 284.065453 
L 420.672 281.907788 
L 420.2752 283.63392 
L 419.8784 281.907788 
L 419.4816 282.555088 
L 419.0848 282.411243 
L 418.688 283.777764 
L 418.2912 283.346231 
L 417.8944 283.202387 
L 417.4976 282.770854 
L 417.1008 285.072363 
L 416.704 285.216208 
L 416.3072 285.431974 
L 415.9104 283.274309 
L 415.5136 283.993531 
L 415.1168 282.195477 
L 414.72 282.339321 
L 414.3232 282.914698 
L 413.9264 282.698932 
L 413.5296 283.993531 
L 413.1328 282.914698 
L 412.736 283.921609 
L 412.3392 284.281219 
L 411.9424 283.777764 
L 411.5456 284.281219 
L 411.1488 284.856597 
L 410.752 282.483165 
L 410.3552 283.274309 
L 409.9584 284.568908 
L 409.5616 284.784675 
L 409.1648 283.490076 
L 408.768 283.561998 
L 408.3712 284.712752 
L 407.9744 282.483165 
L 407.5776 285.28813 
L 407.1808 284.209297 
L 406.784 283.490076 
L 406.3872 285.144285 
L 405.9904 284.353142 
L 405.5936 284.281219 
L 405.1968 283.418154 
L 404.8 284.568908 
L 404.4032 282.62701 
L 404.0064 282.986621 
L 403.6096 282.62701 
L 403.2128 283.921609 
L 402.816 284.784675 
L 402.4192 284.065453 
L 402.0224 284.353142 
L 401.6256 283.130465 
L 401.2288 286.510806 
L 400.832 282.770854 
L 400.4352 283.130465 
L 400.0384 282.770854 
L 399.6416 283.777764 
L 399.2448 284.712752 
L 398.848 285.935429 
L 398.4512 282.914698 
L 398.0544 285.503896 
L 397.6576 283.346231 
L 397.2608 283.777764 
L 396.864 284.065453 
L 396.4672 283.490076 
L 396.0704 282.483165 
L 395.6736 284.568908 
L 395.2768 283.490076 
L 394.88 283.274309 
L 394.4832 283.561998 
L 394.0864 285.28813 
L 393.6896 284.425064 
L 393.2928 285.360052 
L 392.896 283.418154 
L 392.4992 283.490076 
L 392.1024 283.777764 
L 391.7056 283.274309 
L 391.3088 283.202387 
L 390.912 284.928519 
L 390.5152 283.490076 
L 390.1184 283.202387 
L 389.7216 282.842776 
L 389.3248 283.202387 
L 388.928 284.425064 
L 388.5312 283.346231 
L 388.1344 282.411243 
L 387.7376 282.842776 
L 387.3408 284.137375 
L 386.944 282.914698 
L 386.5472 282.123555 
L 386.1504 284.065453 
L 385.7536 285.863507 
L 385.3568 281.835866 
L 384.96 283.705842 
L 384.5632 283.130465 
L 384.1664 285.719663 
L 383.7696 282.698932 
L 383.3728 284.928519 
L 382.976 282.698932 
L 382.5792 281.763944 
L 382.1824 284.353142 
L 381.7856 283.921609 
L 381.3888 284.856597 
L 380.992 283.058543 
L 380.5952 285.360052 
L 380.1984 283.130465 
L 379.8016 282.986621 
L 379.4048 282.339321 
L 379.008 282.914698 
L 378.6112 283.202387 
L 378.2144 284.137375 
L 377.8176 283.921609 
L 377.4208 284.137375 
L 377.024 284.425064 
L 376.6272 283.777764 
L 376.2304 283.777764 
L 375.8336 283.705842 
L 375.4368 283.490076 
L 375.04 285.935429 
L 374.6432 282.842776 
L 374.2464 284.425064 
L 373.8496 281.97971 
L 373.4528 283.921609 
L 373.056 283.418154 
L 372.6592 282.698932 
L 372.2624 282.698932 
L 371.8656 286.223118 
L 371.4688 283.921609 
L 371.072 282.914698 
L 370.6752 285.072363 
L 370.2784 280.9728 
L 369.8816 282.698932 
L 369.4848 283.346231 
L 369.088 285.431974 
L 368.6912 283.561998 
L 368.2944 284.784675 
L 367.8976 282.411243 
L 367.5008 284.712752 
L 367.104 281.907788 
L 366.7072 283.561998 
L 366.3104 283.346231 
L 365.9136 283.849686 
L 365.5168 282.339321 
L 365.12 284.065453 
L 364.7232 286.510806 
L 364.3264 283.705842 
L 363.9296 284.209297 
L 363.5328 282.986621 
L 363.136 285.28813 
L 362.7392 282.267399 
L 362.3424 282.483165 
L 361.9456 283.63392 
L 361.5488 284.425064 
L 361.152 283.705842 
L 360.7552 282.411243 
L 360.3584 282.914698 
L 359.9616 285.144285 
L 359.5648 283.849686 
L 359.168 282.986621 
L 358.7712 284.209297 
L 358.3744 283.849686 
L 357.9776 284.64083 
L 357.5808 284.209297 
L 357.184 283.849686 
L 356.7872 283.921609 
L 356.3904 286.079274 
L 355.9936 285.000441 
L 355.5968 284.928519 
L 355.2 286.654651 
L 354.8032 283.058543 
L 354.4064 284.425064 
L 354.0096 282.914698 
L 353.6128 283.418154 
L 353.216 282.842776 
L 352.8192 284.065453 
L 352.4224 283.490076 
L 352.0256 284.281219 
L 351.6288 284.568908 
L 351.232 283.63392 
L 350.8352 282.339321 
L 350.4384 283.993531 
L 350.0416 284.928519 
L 349.6448 283.418154 
L 349.248 285.144285 
L 348.8512 283.993531 
L 348.4544 281.763944 
L 348.0576 284.496986 
L 347.6608 284.137375 
L 347.264 283.346231 
L 346.8672 285.360052 
L 346.4704 282.986621 
L 346.0736 283.130465 
L 345.6768 284.856597 
L 345.28 283.849686 
L 344.8832 284.856597 
L 344.4864 282.483165 
L 344.0896 283.63392 
L 343.6928 284.784675 
L 343.296 282.483165 
L 342.8992 284.353142 
L 342.5024 285.072363 
L 342.1056 285.360052 
L 341.7088 285.503896 
L 341.312 284.856597 
L 340.9152 283.849686 
L 340.5184 283.130465 
L 340.1216 284.137375 
L 339.7248 284.425064 
L 339.328 286.151196 
L 338.9312 283.202387 
L 338.5344 284.64083 
L 338.1376 283.202387 
L 337.7408 283.058543 
L 337.344 283.777764 
L 336.9472 284.568908 
L 336.5504 283.777764 
L 336.1536 284.425064 
L 335.7568 282.411243 
L 335.36 283.63392 
L 334.9632 284.496986 
L 334.5664 283.058543 
L 334.1696 283.130465 
L 333.7728 282.842776 
L 333.376 283.346231 
L 332.9792 283.202387 
L 332.5824 283.777764 
L 332.1856 284.065453 
L 331.7888 283.561998 
L 331.392 282.986621 
L 330.9952 283.63392 
L 330.5984 283.561998 
L 330.2016 283.561998 
L 329.8048 282.770854 
L 329.408 284.64083 
L 329.0112 283.130465 
L 328.6144 285.28813 
L 328.2176 284.137375 
L 327.8208 284.281219 
L 327.424 284.137375 
L 327.0272 284.784675 
L 326.6304 282.555088 
L 326.2336 283.274309 
L 325.8368 282.483165 
L 325.44 284.784675 
L 325.0432 283.705842 
L 324.6464 282.62701 
L 324.2496 283.561998 
L 323.8528 284.353142 
L 323.456 286.079274 
L 323.0592 285.863507 
L 322.6624 283.346231 
L 322.2656 284.64083 
L 321.8688 284.281219 
L 321.472 283.993531 
L 321.0752 284.353142 
L 320.6784 282.339321 
L 320.2816 281.835866 
L 319.8848 283.63392 
L 319.488 284.712752 
L 319.0912 285.28813 
L 318.6944 282.62701 
L 318.2976 283.63392 
L 317.9008 285.647741 
L 317.504 283.490076 
L 317.1072 283.346231 
L 316.7104 283.058543 
L 316.3136 284.137375 
L 315.9168 285.935429 
L 315.52 284.209297 
L 315.1232 283.418154 
L 314.7264 284.425064 
L 314.3296 284.137375 
L 313.9328 281.332411 
L 313.536 283.849686 
L 313.1392 281.260489 
L 312.7424 284.065453 
L 312.3456 284.496986 
L 311.9488 282.770854 
L 311.552 283.561998 
L 311.1552 283.418154 
L 310.7584 284.425064 
L 310.3616 286.29504 
L 309.9648 284.281219 
L 309.568 283.777764 
L 309.1712 283.705842 
L 308.7744 284.137375 
L 308.3776 283.490076 
L 307.9808 284.209297 
L 307.584 282.770854 
L 307.1872 283.490076 
L 306.7904 282.770854 
L 306.3936 284.425064 
L 305.9968 283.777764 
L 305.6 284.065453 
L 305.2032 284.784675 
L 304.8064 283.63392 
L 304.4096 284.928519 
L 304.0128 284.353142 
L 303.616 284.568908 
L 303.2192 282.914698 
L 302.8224 286.726573 
L 302.4256 283.490076 
L 302.0288 285.719663 
L 301.632 284.209297 
L 301.2352 284.353142 
L 300.8384 285.216208 
L 300.4416 284.496986 
L 300.0448 282.698932 
L 299.648 283.130465 
L 299.2512 282.914698 
L 298.8544 283.274309 
L 298.4576 284.712752 
L 298.0608 284.281219 
L 297.664 283.705842 
L 297.2672 284.065453 
L 296.8704 282.698932 
L 296.4736 285.000441 
L 296.0768 282.123555 
L 295.68 284.568908 
L 295.2832 281.97971 
L 294.8864 283.490076 
L 294.4896 282.267399 
L 294.0928 283.63392 
L 293.696 283.777764 
L 293.2992 283.561998 
L 292.9024 283.202387 
L 292.5056 282.267399 
L 292.1088 282.986621 
L 291.712 281.907788 
L 291.3152 284.496986 
L 290.9184 286.438884 
L 290.5216 285.144285 
L 290.1248 283.63392 
L 289.728 282.123555 
L 289.3312 283.346231 
L 288.9344 283.202387 
L 288.5376 284.281219 
L 288.1408 281.692022 
L 287.744 282.698932 
L 287.3472 282.555088 
L 286.9504 284.712752 
L 286.5536 284.353142 
L 286.1568 286.007351 
L 285.76 282.842776 
L 285.3632 283.63392 
L 284.9664 285.144285 
L 284.5696 283.849686 
L 284.1728 284.496986 
L 283.776 285.144285 
L 283.3792 283.849686 
L 282.9824 283.777764 
L 282.5856 283.130465 
L 282.1888 284.496986 
L 281.792 284.856597 
L 281.3952 282.62701 
L 280.9984 282.195477 
L 280.6016 283.418154 
L 280.2048 282.483165 
L 279.808 285.360052 
L 279.4112 281.404333 
L 279.0144 283.561998 
L 278.6176 283.777764 
L 278.2208 283.490076 
L 277.824 283.418154 
L 277.4272 284.209297 
L 277.0304 282.267399 
L 276.6336 282.051632 
L 276.2368 284.856597 
L 275.84 284.856597 
L 275.4432 282.914698 
L 275.0464 284.281219 
L 274.6496 283.777764 
L 274.2528 285.28813 
L 273.856 283.202387 
L 273.4592 283.418154 
L 273.0624 283.130465 
L 272.6656 284.568908 
L 272.2688 282.62701 
L 271.872 282.195477 
L 271.4752 284.64083 
L 271.0784 284.425064 
L 270.6816 281.835866 
L 270.2848 282.842776 
L 269.888 284.64083 
L 269.4912 285.28813 
L 269.0944 284.209297 
L 268.6976 283.63392 
L 268.3008 285.000441 
L 267.904 284.568908 
L 267.5072 284.065453 
L 267.1104 281.97971 
L 266.7136 282.339321 
L 266.3168 283.274309 
L 265.92 285.360052 
L 265.5232 282.411243 
L 265.1264 283.705842 
L 264.7296 284.065453 
L 264.3328 285.503896 
L 263.936 282.698932 
L 263.5392 283.490076 
L 263.1424 283.993531 
L 262.7456 282.555088 
L 262.3488 283.490076 
L 261.952 283.058543 
L 261.5552 283.130465 
L 261.1584 281.188566 
L 260.7616 283.418154 
L 260.3648 283.346231 
L 259.968 282.62701 
L 259.5712 281.97971 
L 259.1744 283.777764 
L 258.7776 284.928519 
L 258.3808 283.202387 
L 257.984 282.986621 
L 257.5872 284.353142 
L 257.1904 282.986621 
L 256.7936 283.202387 
L 256.3968 282.123555 
L 256 283.418154 
L 255.6032 282.842776 
L 255.2064 281.97971 
L 254.8096 282.986621 
L 254.4128 280.685111 
L 254.016 282.411243 
L 253.6192 283.130465 
L 253.2224 282.62701 
L 252.8256 283.058543 
L 252.4288 283.058543 
L 252.032 284.137375 
L 251.6352 283.921609 
L 251.2384 282.914698 
L 250.8416 283.63392 
L 250.4448 282.339321 
L 250.048 283.418154 
L 249.6512 282.698932 
L 249.2544 284.065453 
L 248.8576 282.986621 
L 248.4608 283.274309 
L 248.064 282.339321 
L 247.6672 283.705842 
L 247.2704 282.770854 
L 246.8736 282.698932 
L 246.4768 283.993531 
L 246.08 281.835866 
L 245.6832 283.130465 
L 245.2864 284.425064 
L 244.8896 284.065453 
L 244.4928 282.411243 
L 244.096 283.346231 
L 243.6992 282.914698 
L 243.3024 283.921609 
L 242.9056 282.195477 
L 242.5088 281.692022 
L 242.112 282.914698 
L 241.7152 281.835866 
L 241.3184 282.051632 
L 240.9216 280.900878 
L 240.5248 285.216208 
L 240.128 281.692022 
L 239.7312 284.353142 
L 239.3344 284.425064 
L 238.9376 282.051632 
L 238.5408 283.274309 
L 238.144 282.339321 
L 237.7472 284.353142 
L 237.3504 282.698932 
L 236.9536 283.274309 
L 236.5568 281.476255 
L 236.16 283.346231 
L 235.7632 282.986621 
L 235.3664 282.411243 
L 234.9696 284.496986 
L 234.5728 283.490076 
L 234.176 284.281219 
L 233.7792 284.065453 
L 233.3824 282.267399 
L 232.9856 283.058543 
L 232.5888 283.058543 
L 232.192 282.339321 
L 231.7952 282.555088 
L 231.3984 283.346231 
L 231.0016 283.705842 
L 230.6048 282.555088 
L 230.208 283.202387 
L 229.8112 285.431974 
L 229.4144 282.123555 
L 229.0176 283.993531 
L 228.6208 281.548177 
L 228.224 282.123555 
L 227.8272 283.346231 
L 227.4304 284.209297 
L 227.0336 283.777764 
L 226.6368 282.483165 
L 226.24 283.63392 
L 225.8432 281.548177 
L 225.4464 283.705842 
L 225.0496 283.130465 
L 224.6528 283.346231 
L 224.256 282.123555 
L 223.8592 282.339321 
L 223.4624 282.483165 
L 223.0656 283.705842 
L 222.6688 282.914698 
L 222.272 281.835866 
L 221.8752 281.620099 
L 221.4784 283.490076 
L 221.0816 281.548177 
L 220.6848 284.64083 
L 220.288 282.986621 
L 219.8912 283.058543 
L 219.4944 282.62701 
L 219.0976 281.620099 
L 218.7008 281.907788 
L 218.304 283.130465 
L 217.9072 282.770854 
L 217.5104 283.705842 
L 217.1136 282.123555 
L 216.7168 283.346231 
L 216.32 282.339321 
L 215.9232 281.476255 
L 215.5264 284.137375 
L 215.1296 282.267399 
L 214.7328 280.828956 
L 214.336 281.548177 
L 213.9392 282.051632 
L 213.5424 280.9728 
L 213.1456 282.986621 
L 212.7488 281.907788 
L 212.352 282.986621 
L 211.9552 282.195477 
L 211.5584 283.63392 
L 211.1616 282.339321 
L 210.7648 282.62701 
L 210.368 281.692022 
L 209.9712 282.914698 
L 209.5744 282.555088 
L 209.1776 283.202387 
L 208.7808 282.483165 
L 208.384 282.483165 
L 207.9872 284.065453 
L 207.5904 283.130465 
L 207.1936 284.568908 
L 206.7968 281.404333 
L 206.4 282.267399 
L 206.0032 282.986621 
L 205.6064 284.281219 
L 205.2096 282.842776 
L 204.8128 282.770854 
L 204.416 284.856597 
L 204.0192 282.195477 
L 203.6224 283.202387 
L 203.2256 283.561998 
L 202.8288 281.835866 
L 202.432 282.914698 
L 202.0352 283.058543 
L 201.6384 282.339321 
L 201.2416 282.411243 
L 200.8448 281.476255 
L 200.448 284.209297 
L 200.0512 284.353142 
L 199.6544 283.058543 
L 199.2576 282.051632 
L 198.8608 283.63392 
L 198.464 283.993531 
L 198.0672 285.360052 
L 197.6704 284.496986 
L 197.2736 280.9728 
L 196.8768 282.62701 
L 196.48 284.353142 
L 196.0832 283.130465 
L 195.6864 284.281219 
L 195.2896 283.993531 
L 194.8928 284.065453 
L 194.496 282.123555 
L 194.0992 282.62701 
L 193.7024 283.418154 
L 193.3056 283.274309 
L 192.9088 282.914698 
L 192.512 283.490076 
L 192.1152 283.058543 
L 191.7184 283.63392 
L 191.3216 283.058543 
L 190.9248 283.705842 
L 190.528 282.986621 
L 190.1312 283.274309 
L 189.7344 282.842776 
L 189.3376 283.418154 
L 188.9408 283.561998 
L 188.544 282.555088 
L 188.1472 281.692022 
L 187.7504 283.202387 
L 187.3536 283.921609 
L 186.9568 281.116644 
L 186.56 283.705842 
L 186.1632 283.63392 
L 185.7664 283.993531 
L 185.3696 283.777764 
L 184.9728 282.914698 
L 184.576 283.561998 
L 184.1792 280.757034 
L 183.7824 283.921609 
L 183.3856 281.907788 
L 182.9888 281.907788 
L 182.592 283.058543 
L 182.1952 280.757034 
L 181.7984 284.784675 
L 181.4016 283.63392 
L 181.0048 283.202387 
L 180.608 283.418154 
L 180.2112 282.770854 
L 179.8144 282.62701 
L 179.4176 282.339321 
L 179.0208 282.267399 
L 178.624 284.496986 
L 178.2272 281.692022 
L 177.8304 281.97971 
L 177.4336 281.97971 
L 177.0368 285.360052 
L 176.64 283.705842 
L 176.2432 285.072363 
L 175.8464 282.267399 
L 175.4496 280.109734 
L 175.0528 283.993531 
L 174.656 282.195477 
L 174.2592 282.339321 
L 173.8624 282.267399 
L 173.4656 281.763944 
L 173.0688 285.431974 
L 172.672 280.469345 
L 172.2752 281.763944 
L 171.8784 284.209297 
L 171.4816 282.339321 
L 171.0848 282.986621 
L 170.688 282.051632 
L 170.2912 283.921609 
L 169.8944 283.921609 
L 169.4976 282.339321 
L 169.1008 282.267399 
L 168.704 282.986621 
L 168.3072 284.64083 
L 167.9104 282.914698 
L 167.5136 284.065453 
L 167.1168 280.037812 
L 166.72 283.202387 
L 166.3232 281.97971 
L 165.9264 283.705842 
L 165.5296 282.267399 
L 165.1328 282.123555 
L 164.736 284.64083 
L 164.3392 281.835866 
L 163.9424 282.986621 
L 163.5456 282.62701 
L 163.1488 282.339321 
L 162.752 283.993531 
L 162.3552 284.353142 
L 161.9584 281.692022 
L 161.5616 282.411243 
L 161.1648 282.770854 
L 160.768 282.411243 
L 160.3712 282.411243 
L 159.9744 283.63392 
L 159.5776 283.490076 
L 159.1808 282.411243 
L 158.784 284.568908 
L 158.3872 282.698932 
L 157.9904 283.130465 
L 157.5936 284.928519 
L 157.1968 280.253578 
L 156.8 282.123555 
L 156.4032 284.281219 
L 156.0064 279.246668 
L 155.6096 282.051632 
L 155.2128 283.202387 
L 154.816 282.770854 
L 154.4192 282.914698 
L 154.0224 280.325501 
L 153.6256 283.346231 
L 153.2288 282.914698 
L 152.832 282.051632 
L 152.4352 284.065453 
L 152.0384 282.123555 
L 151.6416 282.123555 
L 151.2448 280.828956 
L 150.848 281.116644 
L 150.4512 282.698932 
L 150.0544 283.993531 
L 149.6576 283.849686 
L 149.2608 282.267399 
L 148.864 282.411243 
L 148.4672 282.986621 
L 148.0704 283.130465 
L 147.6736 278.455524 
L 147.2768 282.339321 
L 146.88 282.555088 
L 146.4832 282.267399 
L 146.0864 282.411243 
L 145.6896 281.835866 
L 145.2928 283.418154 
L 144.896 283.274309 
L 144.4992 281.763944 
L 144.1024 282.914698 
L 143.7056 281.476255 
L 143.3088 281.907788 
L 142.912 283.274309 
L 142.5152 284.209297 
L 142.1184 283.058543 
L 141.7216 283.058543 
L 141.3248 280.325501 
L 140.928 282.986621 
L 140.5312 278.527446 
L 140.1344 283.346231 
L 139.7376 282.914698 
L 139.3408 282.483165 
L 138.944 280.541267 
L 138.5472 279.750123 
L 138.1504 278.167836 
L 137.7536 283.849686 
L 137.3568 281.548177 
L 136.96 280.9728 
L 136.5632 280.253578 
L 136.1664 282.770854 
L 135.7696 279.893968 
L 135.3728 282.986621 
L 134.976 282.842776 
L 134.5792 279.174746 
L 134.1824 283.561998 
L 133.7856 282.483165 
L 133.3888 283.705842 
L 132.992 277.664381 
L 132.5952 281.97971 
L 132.1984 280.037812 
L 131.8016 282.123555 
L 131.4048 283.346231 
L 131.008 281.044722 
L 130.6112 278.095914 
L 130.2144 282.698932 
L 129.8176 281.260489 
L 129.4208 278.527446 
L 129.024 282.914698 
L 128.6272 282.555088 
L 128.2304 278.599369 
L 127.8336 281.97971 
L 127.4368 277.520536 
L 127.04 277.664381 
L 126.6432 282.051632 
L 126.2464 281.907788 
L 125.8496 282.483165 
L 125.4528 282.62701 
L 125.056 279.893968 
L 124.6592 281.548177 
L 124.2624 282.770854 
L 123.8656 283.274309 
L 123.4688 282.483165 
L 123.072 280.469345 
L 122.6752 278.167836 
L 122.2784 282.698932 
L 121.8816 279.534357 
L 121.4848 277.880147 
L 121.088 282.123555 
L 120.6912 282.483165 
L 120.2944 282.483165 
L 119.8976 282.051632 
L 119.5008 282.986621 
L 119.104 281.548177 
L 118.7072 279.174746 
L 118.3104 282.123555 
L 117.9136 281.835866 
L 117.5168 277.952069 
L 117.12 280.253578 
L 116.7232 283.921609 
L 116.3264 282.123555 
L 115.9296 282.051632 
L 115.5328 282.411243 
L 115.136 282.62701 
L 114.7392 281.835866 
L 114.3424 279.893968 
L 113.9456 279.462435 
L 113.5488 282.267399 
L 113.152 282.123555 
L 112.7552 279.96589 
L 112.3584 280.541267 
L 111.9616 279.750123 
L 111.5648 281.476255 
L 111.168 281.332411 
L 110.7712 282.123555 
L 110.3744 281.763944 
L 109.9776 281.116644 
L 109.5808 281.692022 
L 109.184 281.692022 
L 108.7872 281.188566 
L 108.3904 280.685111 
L 107.9936 279.678201 
L 107.5968 281.404333 
L 107.2 280.253578 
L 106.8032 280.900878 
L 106.4064 281.476255 
L 106.0096 280.325501 
L 105.6128 281.476255 
L 105.216 281.044722 
L 104.8192 280.109734 
L 104.4224 281.835866 
L 104.0256 280.037812 
L 103.6288 280.469345 
L 103.232 280.757034 
L 102.8352 282.842776 
L 102.4384 280.685111 
L 102.0416 281.044722 
L 101.6448 282.842776 
L 101.248 281.97971 
L 100.8512 281.044722 
L 100.4544 282.339321 
L 100.0576 281.907788 
L 99.6608 282.051632 
L 99.264 281.404333 
L 98.8672 278.383602 
L 98.4704 280.037812 
L 98.0736 279.462435 
L 97.6768 281.907788 
L 97.28 279.893968 
L 96.8832 282.698932 
L 96.4864 280.181656 
L 96.0896 280.685111 
L 95.6928 281.332411 
L 95.296 280.757034 
L 94.8992 282.411243 
L 94.5024 282.267399 
L 94.1056 281.332411 
L 93.7088 282.123555 
L 93.312 280.900878 
L 92.9152 281.692022 
L 92.5184 280.757034 
L 92.1216 279.893968 
L 91.7248 280.613189 
L 91.328 281.044722 
L 90.9312 282.411243 
L 90.5344 282.123555 
L 90.1376 282.986621 
L 89.7408 281.97971 
L 89.344 282.195477 
L 88.9472 281.907788 
L 88.5504 281.620099 
L 88.1536 282.267399 
L 87.7568 282.267399 
L 87.36 281.404333 
L 86.9632 282.267399 
L 86.5664 280.9728 
L 86.1696 282.914698 
L 85.7728 282.842776 
L 85.376 281.97971 
L 84.9792 281.188566 
L 84.5824 282.195477 
L 84.1856 282.483165 
L 83.7888 281.188566 
L 83.392 283.346231 
L 82.9952 282.267399 
L 82.5984 281.692022 
L 82.2016 281.835866 
L 81.8048 283.130465 
L 81.408 281.620099 
L 81.0112 282.698932 
L 80.6144 283.202387 
L 80.2176 282.195477 
L 79.8208 282.555088 
L 79.424 281.476255 
L 79.0272 281.188566 
L 78.6304 282.267399 
L 78.2336 281.692022 
L 77.8368 280.9728 
L 77.44 284.496986 
L 77.0432 282.698932 
L 76.6464 283.202387 
L 76.2496 282.986621 
L 75.8528 282.555088 
L 75.456 283.274309 
L 75.0592 283.346231 
L 74.6624 281.97971 
L 74.2656 282.770854 
L 73.8688 282.914698 
L 73.472 282.195477 
L 73.0752 283.849686 
L 72.6784 282.411243 
L 72.2816 281.548177 
L 71.8848 283.058543 
L 71.488 282.051632 
L 71.0912 283.130465 
L 70.6944 282.411243 
L 70.2976 283.705842 
L 69.9008 282.195477 
L 69.504 281.835866 
L 69.1072 281.116644 
L 68.7104 280.397423 
L 68.3136 283.058543 
L 67.9168 282.986621 
L 67.52 282.752874 
L 67.1232 282.105574 
L 66.7264 283.130465 
L 66.3296 282.123555 
L 65.9328 282.752874 
L 65.536 281.422314 
L 65.1392 283.166426 
L 64.7424 282.950659 
L 64.3456 283.561998 
L 63.9488 284.101414 
L 63.552 285.036402 
L 63.1552 282.96864 
L 62.7584 283.004601 
L 62.3616 283.112484 
L 61.9648 282.357302 
L 61.568 284.443044 
L 61.1712 283.112484 
L 60.7744 283.076523 
L 60.3776 284.856597 
L 59.9808 286.061293 
L 59.584 284.461025 
L 59.1872 283.184406 
L 58.7904 283.058543 
L 58.3936 285.396013 
L 57.9968 283.939589 
z
" style="fill:#1f77b4;fill-opacity:0.25;"/>
   </g>
   <g id="matplotlib.axis_1">
    <g id="xtick_1">
     <g id="line2d_1">
      <defs>
       <path d="M 0 0 
L 0 4.8 
" id="m262a1d968a" style="stroke:#000000;"/>
      </defs>
      <g>
       <use style="stroke:#000000;" x="57.6" xlink:href="#m262a1d968a" y="307.584"/>
      </g>
     </g>
     <g id="text_1">
      <!-- 0 -->
      <g transform="translate(54.8005 322.570625)scale(0.088 -0.088)">
       <defs>
        <path d="M 2034 4250 
Q 1547 4250 1301 3770 
Q 1056 3291 1056 2328 
Q 1056 1369 1301 889 
Q 1547 409 2034 409 
Q 2525 409 2770 889 
Q 3016 1369 3016 2328 
Q 3016 3291 2770 3770 
Q 2525 4250 2034 4250 
z
M 2034 4750 
Q 2819 4750 3233 4129 
Q 3647 3509 3647 2328 
Q 3647 1150 3233 529 
Q 2819 -91 2034 -91 
Q 1250 -91 836 529 
Q 422 1150 422 2328 
Q 422 3509 836 4129 
Q 1250 4750 2034 4750 
z
" id="DejaVuSans-30" transform="scale(0.015625)"/>
       </defs>
       <use xlink:href="#DejaVuSans-30"/>
      </g>
     </g>
    </g>
    <g id="xtick_2">
     <g id="line2d_2">
      <g>
       <use style="stroke:#000000;" x="97.28" xlink:href="#m262a1d968a" y="307.584"/>
      </g>
     </g>
     <g id="text_2">
      <!-- 100 -->
      <g transform="translate(88.8815 322.570625)scale(0.088 -0.088)">
       <defs>
        <path d="M 794 531 
L 1825 531 
L 1825 4091 
L 703 3866 
L 703 4441 
L 1819 4666 
L 2450 4666 
L 2450 531 
L 3481 531 
L 3481 0 
L 794 0 
L 794 531 
z
" id="DejaVuSans-31" transform="scale(0.015625)"/>
       </defs>
       <use xlink:href="#DejaVuSans-31"/>
       <use x="63.623047" xlink:href="#DejaVuSans-30"/>
       <use x="127.246094" xlink:href="#DejaVuSans-30"/>
      </g>
     </g>
    </g>
    <g id="xtick_3">
     <g id="line2d_3">
      <g>
       <use style="stroke:#000000;" x="136.96" xlink:href="#m262a1d968a" y="307.584"/>
      </g>
     </g>
     <g id="text_3">
      <!-- 200 -->
      <g transform="translate(128.5615 322.570625)scale(0.088 -0.088)">
       <defs>
        <path d="M 1228 531 
L 3431 531 
L 3431 0 
L 469 0 
L 469 531 
Q 828 903 1448 1529 
Q 2069 2156 2228 2338 
Q 2531 2678 2651 2914 
Q 2772 3150 2772 3378 
Q 2772 3750 2511 3984 
Q 2250 4219 1831 4219 
Q 1534 4219 1204 4116 
Q 875 4013 500 3803 
L 500 4441 
Q 881 4594 1212 4672 
Q 1544 4750 1819 4750 
Q 2544 4750 2975 4387 
Q 3406 4025 3406 3419 
Q 3406 3131 3298 2873 
Q 3191 2616 2906 2266 
Q 2828 2175 2409 1742 
Q 1991 1309 1228 531 
z
" id="DejaVuSans-32" transform="scale(0.015625)"/>
       </defs>
       <use xlink:href="#DejaVuSans-32"/>
       <use x="63.623047" xlink:href="#DejaVuSans-30"/>
       <use x="127.246094" xlink:href="#DejaVuSans-30"/>
      </g>
     </g>
    </g>
    <g id="xtick_4">
     <g id="line2d_4">
      <g>
       <use style="stroke:#000000;" x="176.64" xlink:href="#m262a1d968a" y="307.584"/>
      </g>
     </g>
     <g id="text_4">
      <!-- 300 -->
      <g transform="translate(168.2415 322.570625)scale(0.088 -0.088)">
       <defs>
        <path d="M 2597 2516 
Q 3050 2419 3304 2112 
Q 3559 1806 3559 1356 
Q 3559 666 3084 287 
Q 2609 -91 1734 -91 
Q 1441 -91 1130 -33 
Q 819 25 488 141 
L 488 750 
Q 750 597 1062 519 
Q 1375 441 1716 441 
Q 2309 441 2620 675 
Q 2931 909 2931 1356 
Q 2931 1769 2642 2001 
Q 2353 2234 1838 2234 
L 1294 2234 
L 1294 2753 
L 1863 2753 
Q 2328 2753 2575 2939 
Q 2822 3125 2822 3475 
Q 2822 3834 2567 4026 
Q 2313 4219 1838 4219 
Q 1578 4219 1281 4162 
Q 984 4106 628 3988 
L 628 4550 
Q 988 4650 1302 4700 
Q 1616 4750 1894 4750 
Q 2613 4750 3031 4423 
Q 3450 4097 3450 3541 
Q 3450 3153 3228 2886 
Q 3006 2619 2597 2516 
z
" id="DejaVuSans-33" transform="scale(0.015625)"/>
       </defs>
       <use xlink:href="#DejaVuSans-33"/>
       <use x="63.623047" xlink:href="#DejaVuSans-30"/>
       <use x="127.246094" xlink:href="#DejaVuSans-30"/>
      </g>
     </g>
    </g>
    <g id="xtick_5">
     <g id="line2d_5">
      <g>
       <use style="stroke:#000000;" x="216.32" xlink:href="#m262a1d968a" y="307.584"/>
      </g>
     </g>
     <g id="text_5">
      <!-- 400 -->
      <g transform="translate(207.9215 322.570625)scale(0.088 -0.088)">
       <defs>
        <path d="M 2419 4116 
L 825 1625 
L 2419 1625 
L 2419 4116 
z
M 2253 4666 
L 3047 4666 
L 3047 1625 
L 3713 1625 
L 3713 1100 
L 3047 1100 
L 3047 0 
L 2419 0 
L 2419 1100 
L 313 1100 
L 313 1709 
L 2253 4666 
z
" id="DejaVuSans-34" transform="scale(0.015625)"/>
       </defs>
       <use xlink:href="#DejaVuSans-34"/>
       <use x="63.623047" xlink:href="#DejaVuSans-30"/>
       <use x="127.246094" xlink:href="#DejaVuSans-30"/>
      </g>
     </g>
    </g>
    <g id="xtick_6">
     <g id="line2d_6">
      <g>
       <use style="stroke:#000000;" x="256" xlink:href="#m262a1d968a" y="307.584"/>
      </g>
     </g>
     <g id="text_6">
      <!-- 500 -->
      <g transform="translate(247.6015 322.570625)scale(0.088 -0.088)">
       <defs>
        <path d="M 691 4666 
L 3169 4666 
L 3169 4134 
L 1269 4134 
L 1269 2991 
Q 1406 3038 1543 3061 
Q 1681 3084 1819 3084 
Q 2600 3084 3056 2656 
Q 3513 2228 3513 1497 
Q 3513 744 3044 326 
Q 2575 -91 1722 -91 
Q 1428 -91 1123 -41 
Q 819 9 494 109 
L 494 744 
Q 775 591 1075 516 
Q 1375 441 1709 441 
Q 2250 441 2565 725 
Q 2881 1009 2881 1497 
Q 2881 1984 2565 2268 
Q 2250 2553 1709 2553 
Q 1456 2553 1204 2497 
Q 953 2441 691 2322 
L 691 4666 
z
" id="DejaVuSans-35" transform="scale(0.015625)"/>
       </defs>
       <use xlink:href="#DejaVuSans-35"/>
       <use x="63.623047" xlink:href="#DejaVuSans-30"/>
       <use x="127.246094" xlink:href="#DejaVuSans-30"/>
      </g>
     </g>
    </g>
    <g id="xtick_7">
     <g id="line2d_7">
      <g>
       <use style="stroke:#000000;" x="295.68" xlink:href="#m262a1d968a" y="307.584"/>
      </g>
     </g>
     <g id="text_7">
      <!-- 600 -->
      <g transform="translate(287.2815 322.570625)scale(0.088 -0.088)">
       <defs>
        <path d="M 2113 2584 
Q 1688 2584 1439 2293 
Q 1191 2003 1191 1497 
Q 1191 994 1439 701 
Q 1688 409 2113 409 
Q 2538 409 2786 701 
Q 3034 994 3034 1497 
Q 3034 2003 2786 2293 
Q 2538 2584 2113 2584 
z
M 3366 4563 
L 3366 3988 
Q 3128 4100 2886 4159 
Q 2644 4219 2406 4219 
Q 1781 4219 1451 3797 
Q 1122 3375 1075 2522 
Q 1259 2794 1537 2939 
Q 1816 3084 2150 3084 
Q 2853 3084 3261 2657 
Q 3669 2231 3669 1497 
Q 3669 778 3244 343 
Q 2819 -91 2113 -91 
Q 1303 -91 875 529 
Q 447 1150 447 2328 
Q 447 3434 972 4092 
Q 1497 4750 2381 4750 
Q 2619 4750 2861 4703 
Q 3103 4656 3366 4563 
z
" id="DejaVuSans-36" transform="scale(0.015625)"/>
       </defs>
       <use xlink:href="#DejaVuSans-36"/>
       <use x="63.623047" xlink:href="#DejaVuSans-30"/>
       <use x="127.246094" xlink:href="#DejaVuSans-30"/>
      </g>
     </g>
    </g>
    <g id="xtick_8">
     <g id="line2d_8">
      <g>
       <use style="stroke:#000000;" x="335.36" xlink:href="#m262a1d968a" y="307.584"/>
      </g>
     </g>
     <g id="text_8">
      <!-- 700 -->
      <g transform="translate(326.9615 322.570625)scale(0.088 -0.088)">
       <defs>
        <path d="M 525 4666 
L 3525 4666 
L 3525 4397 
L 1831 0 
L 1172 0 
L 2766 4134 
L 525 4134 
L 525 4666 
z
" id="DejaVuSans-37" transform="scale(0.015625)"/>
       </defs>
       <use xlink:href="#DejaVuSans-37"/>
       <use x="63.623047" xlink:href="#DejaVuSans-30"/>
       <use x="127.246094" xlink:href="#DejaVuSans-30"/>
      </g>
     </g>
    </g>
    <g id="xtick_9">
     <g id="line2d_9">
      <g>
       <use style="stroke:#000000;" x="375.04" xlink:href="#m262a1d968a" y="307.584"/>
      </g>
     </g>
     <g id="text_9">
      <!-- 800 -->
      <g transform="translate(366.6415 322.570625)scale(0.088 -0.088)">
       <defs>
        <path d="M 2034 2216 
Q 1584 2216 1326 1975 
Q 1069 1734 1069 1313 
Q 1069 891 1326 650 
Q 1584 409 2034 409 
Q 2484 409 2743 651 
Q 3003 894 3003 1313 
Q 3003 1734 2745 1975 
Q 2488 2216 2034 2216 
z
M 1403 2484 
Q 997 2584 770 2862 
Q 544 3141 544 3541 
Q 544 4100 942 4425 
Q 1341 4750 2034 4750 
Q 2731 4750 3128 4425 
Q 3525 4100 3525 3541 
Q 3525 3141 3298 2862 
Q 3072 2584 2669 2484 
Q 3125 2378 3379 2068 
Q 3634 1759 3634 1313 
Q 3634 634 3220 271 
Q 2806 -91 2034 -91 
Q 1263 -91 848 271 
Q 434 634 434 1313 
Q 434 1759 690 2068 
Q 947 2378 1403 2484 
z
M 1172 3481 
Q 1172 3119 1398 2916 
Q 1625 2713 2034 2713 
Q 2441 2713 2670 2916 
Q 2900 3119 2900 3481 
Q 2900 3844 2670 4047 
Q 2441 4250 2034 4250 
Q 1625 4250 1398 4047 
Q 1172 3844 1172 3481 
z
" id="DejaVuSans-38" transform="scale(0.015625)"/>
       </defs>
       <use xlink:href="#DejaVuSans-38"/>
       <use x="63.623047" xlink:href="#DejaVuSans-30"/>
       <use x="127.246094" xlink:href="#DejaVuSans-30"/>
      </g>
     </g>
    </g>
    <g id="xtick_10">
     <g id="line2d_10">
      <g>
       <use style="stroke:#000000;" x="414.72" xlink:href="#m262a1d968a" y="307.584"/>
      </g>
     </g>
     <g id="text_10">
      <!-- 900 -->
      <g transform="translate(406.3215 322.570625)scale(0.088 -0.088)">
       <defs>
        <path d="M 703 97 
L 703 672 
Q 941 559 1184 500 
Q 1428 441 1663 441 
Q 2288 441 2617 861 
Q 2947 1281 2994 2138 
Q 2813 1869 2534 1725 
Q 2256 1581 1919 1581 
Q 1219 1581 811 2004 
Q 403 2428 403 3163 
Q 403 3881 828 4315 
Q 1253 4750 1959 4750 
Q 2769 4750 3195 4129 
Q 3622 3509 3622 2328 
Q 3622 1225 3098 567 
Q 2575 -91 1691 -91 
Q 1453 -91 1209 -44 
Q 966 3 703 97 
z
M 1959 2075 
Q 2384 2075 2632 2365 
Q 2881 2656 2881 3163 
Q 2881 3666 2632 3958 
Q 2384 4250 1959 4250 
Q 1534 4250 1286 3958 
Q 1038 3666 1038 3163 
Q 1038 2656 1286 2365 
Q 1534 2075 1959 2075 
z
" id="DejaVuSans-39" transform="scale(0.015625)"/>
       </defs>
       <use xlink:href="#DejaVuSans-39"/>
       <use x="63.623047" xlink:href="#DejaVuSans-30"/>
       <use x="127.246094" xlink:href="#DejaVuSans-30"/>
      </g>
     </g>
    </g>
    <g id="text_11">
     <!-- Timestep -->
     <g transform="translate(214.03275 335.69525)scale(0.096 -0.096)">
      <defs>
       <path d="M -19 4666 
L 3928 4666 
L 3928 4134 
L 2272 4134 
L 2272 0 
L 1638 0 
L 1638 4134 
L -19 4134 
L -19 4666 
z
" id="DejaVuSans-54" transform="scale(0.015625)"/>
       <path d="M 603 3500 
L 1178 3500 
L 1178 0 
L 603 0 
L 603 3500 
z
M 603 4863 
L 1178 4863 
L 1178 4134 
L 603 4134 
L 603 4863 
z
" id="DejaVuSans-69" transform="scale(0.015625)"/>
       <path d="M 3328 2828 
Q 3544 3216 3844 3400 
Q 4144 3584 4550 3584 
Q 5097 3584 5394 3201 
Q 5691 2819 5691 2113 
L 5691 0 
L 5113 0 
L 5113 2094 
Q 5113 2597 4934 2840 
Q 4756 3084 4391 3084 
Q 3944 3084 3684 2787 
Q 3425 2491 3425 1978 
L 3425 0 
L 2847 0 
L 2847 2094 
Q 2847 2600 2669 2842 
Q 2491 3084 2119 3084 
Q 1678 3084 1418 2786 
Q 1159 2488 1159 1978 
L 1159 0 
L 581 0 
L 581 3500 
L 1159 3500 
L 1159 2956 
Q 1356 3278 1631 3431 
Q 1906 3584 2284 3584 
Q 2666 3584 2933 3390 
Q 3200 3197 3328 2828 
z
" id="DejaVuSans-6d" transform="scale(0.015625)"/>
       <path d="M 3597 1894 
L 3597 1613 
L 953 1613 
Q 991 1019 1311 708 
Q 1631 397 2203 397 
Q 2534 397 2845 478 
Q 3156 559 3463 722 
L 3463 178 
Q 3153 47 2828 -22 
Q 2503 -91 2169 -91 
Q 1331 -91 842 396 
Q 353 884 353 1716 
Q 353 2575 817 3079 
Q 1281 3584 2069 3584 
Q 2775 3584 3186 3129 
Q 3597 2675 3597 1894 
z
M 3022 2063 
Q 3016 2534 2758 2815 
Q 2500 3097 2075 3097 
Q 1594 3097 1305 2825 
Q 1016 2553 972 2059 
L 3022 2063 
z
" id="DejaVuSans-65" transform="scale(0.015625)"/>
       <path d="M 2834 3397 
L 2834 2853 
Q 2591 2978 2328 3040 
Q 2066 3103 1784 3103 
Q 1356 3103 1142 2972 
Q 928 2841 928 2578 
Q 928 2378 1081 2264 
Q 1234 2150 1697 2047 
L 1894 2003 
Q 2506 1872 2764 1633 
Q 3022 1394 3022 966 
Q 3022 478 2636 193 
Q 2250 -91 1575 -91 
Q 1294 -91 989 -36 
Q 684 19 347 128 
L 347 722 
Q 666 556 975 473 
Q 1284 391 1588 391 
Q 1994 391 2212 530 
Q 2431 669 2431 922 
Q 2431 1156 2273 1281 
Q 2116 1406 1581 1522 
L 1381 1569 
Q 847 1681 609 1914 
Q 372 2147 372 2553 
Q 372 3047 722 3315 
Q 1072 3584 1716 3584 
Q 2034 3584 2315 3537 
Q 2597 3491 2834 3397 
z
" id="DejaVuSans-73" transform="scale(0.015625)"/>
       <path d="M 1172 4494 
L 1172 3500 
L 2356 3500 
L 2356 3053 
L 1172 3053 
L 1172 1153 
Q 1172 725 1289 603 
Q 1406 481 1766 481 
L 2356 481 
L 2356 0 
L 1766 0 
Q 1100 0 847 248 
Q 594 497 594 1153 
L 594 3053 
L 172 3053 
L 172 3500 
L 594 3500 
L 594 4494 
L 1172 4494 
z
" id="DejaVuSans-74" transform="scale(0.015625)"/>
       <path d="M 1159 525 
L 1159 -1331 
L 581 -1331 
L 581 3500 
L 1159 3500 
L 1159 2969 
Q 1341 3281 1617 3432 
Q 1894 3584 2278 3584 
Q 2916 3584 3314 3078 
Q 3713 2572 3713 1747 
Q 3713 922 3314 415 
Q 2916 -91 2278 -91 
Q 1894 -91 1617 61 
Q 1341 213 1159 525 
z
M 3116 1747 
Q 3116 2381 2855 2742 
Q 2594 3103 2138 3103 
Q 1681 3103 1420 2742 
Q 1159 2381 1159 1747 
Q 1159 1113 1420 752 
Q 1681 391 2138 391 
Q 2594 391 2855 752 
Q 3116 1113 3116 1747 
z
" id="DejaVuSans-70" transform="scale(0.015625)"/>
      </defs>
      <use xlink:href="#DejaVuSans-54"/>
      <use x="57.958984" xlink:href="#DejaVuSans-69"/>
      <use x="85.742188" xlink:href="#DejaVuSans-6d"/>
      <use x="183.154297" xlink:href="#DejaVuSans-65"/>
      <use x="244.677734" xlink:href="#DejaVuSans-73"/>
      <use x="296.777344" xlink:href="#DejaVuSans-74"/>
      <use x="335.986328" xlink:href="#DejaVuSans-65"/>
      <use x="397.509766" xlink:href="#DejaVuSans-70"/>
     </g>
    </g>
   </g>
   <g id="matplotlib.axis_2">
    <g id="ytick_1">
     <g id="line2d_11">
      <defs>
       <path d="M 0 0 
L -4.8 0 
" id="mf89d2ee6d0" style="stroke:#000000;"/>
      </defs>
      <g>
       <use style="stroke:#000000;" x="57.6" xlink:href="#mf89d2ee6d0" y="293.199568"/>
      </g>
     </g>
     <g id="text_12">
      <!-- 0 -->
      <g transform="translate(43.701 296.54288)scale(0.088 -0.088)">
       <use xlink:href="#DejaVuSans-30"/>
      </g>
     </g>
    </g>
    <g id="ytick_2">
     <g id="line2d_12">
      <g>
       <use style="stroke:#000000;" x="57.6" xlink:href="#mf89d2ee6d0" y="257.238486"/>
      </g>
     </g>
     <g id="text_13">
      <!-- 5 -->
      <g transform="translate(43.701 260.581799)scale(0.088 -0.088)">
       <use xlink:href="#DejaVuSans-35"/>
      </g>
     </g>
    </g>
    <g id="ytick_3">
     <g id="line2d_13">
      <g>
       <use style="stroke:#000000;" x="57.6" xlink:href="#mf89d2ee6d0" y="221.277405"/>
      </g>
     </g>
     <g id="text_14">
      <!-- 10 -->
      <g transform="translate(38.102 224.620718)scale(0.088 -0.088)">
       <use xlink:href="#DejaVuSans-31"/>
       <use x="63.623047" xlink:href="#DejaVuSans-30"/>
      </g>
     </g>
    </g>
    <g id="ytick_4">
     <g id="line2d_14">
      <g>
       <use style="stroke:#000000;" x="57.6" xlink:href="#mf89d2ee6d0" y="185.316324"/>
      </g>
     </g>
     <g id="text_15">
      <!-- 15 -->
      <g transform="translate(38.102 188.659637)scale(0.088 -0.088)">
       <use xlink:href="#DejaVuSans-31"/>
       <use x="63.623047" xlink:href="#DejaVuSans-35"/>
      </g>
     </g>
    </g>
    <g id="ytick_5">
     <g id="line2d_15">
      <g>
       <use style="stroke:#000000;" x="57.6" xlink:href="#mf89d2ee6d0" y="149.355243"/>
      </g>
     </g>
     <g id="text_16">
      <!-- 20 -->
      <g transform="translate(38.102 152.698556)scale(0.088 -0.088)">
       <use xlink:href="#DejaVuSans-32"/>
       <use x="63.623047" xlink:href="#DejaVuSans-30"/>
      </g>
     </g>
    </g>
    <g id="ytick_6">
     <g id="line2d_16">
      <g>
       <use style="stroke:#000000;" x="57.6" xlink:href="#mf89d2ee6d0" y="113.394162"/>
      </g>
     </g>
     <g id="text_17">
      <!-- 25 -->
      <g transform="translate(38.102 116.737475)scale(0.088 -0.088)">
       <use xlink:href="#DejaVuSans-32"/>
       <use x="63.623047" xlink:href="#DejaVuSans-35"/>
      </g>
     </g>
    </g>
    <g id="ytick_7">
     <g id="line2d_17">
      <g>
       <use style="stroke:#000000;" x="57.6" xlink:href="#mf89d2ee6d0" y="77.433081"/>
      </g>
     </g>
     <g id="text_18">
      <!-- 30 -->
      <g transform="translate(38.102 80.776394)scale(0.088 -0.088)">
       <use xlink:href="#DejaVuSans-33"/>
       <use x="63.623047" xlink:href="#DejaVuSans-30"/>
      </g>
     </g>
    </g>
    <g id="ytick_8">
     <g id="line2d_18">
      <g>
       <use style="stroke:#000000;" x="57.6" xlink:href="#mf89d2ee6d0" y="41.472"/>
      </g>
     </g>
     <g id="text_19">
      <!-- 35 -->
      <g transform="translate(38.102 44.815313)scale(0.088 -0.088)">
       <use xlink:href="#DejaVuSans-33"/>
       <use x="63.623047" xlink:href="#DejaVuSans-35"/>
      </g>
     </g>
    </g>
    <g id="text_20">
     <!-- Reward -->
     <g transform="translate(32.1055 192.40425)rotate(-90)scale(0.096 -0.096)">
      <defs>
       <path d="M 2841 2188 
Q 3044 2119 3236 1894 
Q 3428 1669 3622 1275 
L 4263 0 
L 3584 0 
L 2988 1197 
Q 2756 1666 2539 1819 
Q 2322 1972 1947 1972 
L 1259 1972 
L 1259 0 
L 628 0 
L 628 4666 
L 2053 4666 
Q 2853 4666 3247 4331 
Q 3641 3997 3641 3322 
Q 3641 2881 3436 2590 
Q 3231 2300 2841 2188 
z
M 1259 4147 
L 1259 2491 
L 2053 2491 
Q 2509 2491 2742 2702 
Q 2975 2913 2975 3322 
Q 2975 3731 2742 3939 
Q 2509 4147 2053 4147 
L 1259 4147 
z
" id="DejaVuSans-52" transform="scale(0.015625)"/>
       <path d="M 269 3500 
L 844 3500 
L 1563 769 
L 2278 3500 
L 2956 3500 
L 3675 769 
L 4391 3500 
L 4966 3500 
L 4050 0 
L 3372 0 
L 2619 2869 
L 1863 0 
L 1184 0 
L 269 3500 
z
" id="DejaVuSans-77" transform="scale(0.015625)"/>
       <path d="M 2194 1759 
Q 1497 1759 1228 1600 
Q 959 1441 959 1056 
Q 959 750 1161 570 
Q 1363 391 1709 391 
Q 2188 391 2477 730 
Q 2766 1069 2766 1631 
L 2766 1759 
L 2194 1759 
z
M 3341 1997 
L 3341 0 
L 2766 0 
L 2766 531 
Q 2569 213 2275 61 
Q 1981 -91 1556 -91 
Q 1019 -91 701 211 
Q 384 513 384 1019 
Q 384 1609 779 1909 
Q 1175 2209 1959 2209 
L 2766 2209 
L 2766 2266 
Q 2766 2663 2505 2880 
Q 2244 3097 1772 3097 
Q 1472 3097 1187 3025 
Q 903 2953 641 2809 
L 641 3341 
Q 956 3463 1253 3523 
Q 1550 3584 1831 3584 
Q 2591 3584 2966 3190 
Q 3341 2797 3341 1997 
z
" id="DejaVuSans-61" transform="scale(0.015625)"/>
       <path d="M 2631 2963 
Q 2534 3019 2420 3045 
Q 2306 3072 2169 3072 
Q 1681 3072 1420 2755 
Q 1159 2438 1159 1844 
L 1159 0 
L 581 0 
L 581 3500 
L 1159 3500 
L 1159 2956 
Q 1341 3275 1631 3429 
Q 1922 3584 2338 3584 
Q 2397 3584 2469 3576 
Q 2541 3569 2628 3553 
L 2631 2963 
z
" id="DejaVuSans-72" transform="scale(0.015625)"/>
       <path d="M 2906 2969 
L 2906 4863 
L 3481 4863 
L 3481 0 
L 2906 0 
L 2906 525 
Q 2725 213 2448 61 
Q 2172 -91 1784 -91 
Q 1150 -91 751 415 
Q 353 922 353 1747 
Q 353 2572 751 3078 
Q 1150 3584 1784 3584 
Q 2172 3584 2448 3432 
Q 2725 3281 2906 2969 
z
M 947 1747 
Q 947 1113 1208 752 
Q 1469 391 1925 391 
Q 2381 391 2643 752 
Q 2906 1113 2906 1747 
Q 2906 2381 2643 2742 
Q 2381 3103 1925 3103 
Q 1469 3103 1208 2742 
Q 947 2381 947 1747 
z
" id="DejaVuSans-64" transform="scale(0.015625)"/>
      </defs>
      <use xlink:href="#DejaVuSans-52"/>
      <use x="64.982422" xlink:href="#DejaVuSans-65"/>
      <use x="126.505859" xlink:href="#DejaVuSans-77"/>
      <use x="208.292969" xlink:href="#DejaVuSans-61"/>
      <use x="269.572266" xlink:href="#DejaVuSans-72"/>
      <use x="308.935547" xlink:href="#DejaVuSans-64"/>
     </g>
    </g>
   </g>
   <g id="line2d_19">
    <path clip-path="url(#p709e46b0bc)" d="M 57.9968 285.611779 
L 58.3936 286.762534 
L 58.7904 285.935429 
L 59.1872 285.611779 
L 59.584 286.510806 
L 60.3776 286.762534 
L 60.7744 286.187157 
L 61.1712 284.712752 
L 61.568 286.259079 
L 61.9648 284.928519 
L 62.3616 284.64083 
L 62.7584 283.921609 
L 63.1552 284.64083 
L 63.552 286.870417 
L 63.9488 285.503896 
L 64.3456 285.180246 
L 64.7424 284.317181 
L 65.1392 284.425064 
L 65.536 283.418154 
L 65.9328 283.454115 
L 66.3296 282.519126 
L 66.7264 285.396013 
L 67.1232 283.597959 
L 67.52 283.238348 
L 67.9168 284.712752 
L 68.3136 283.346231 
L 68.7104 282.986621 
L 69.1072 282.195477 
L 69.504 282.123555 
L 69.9008 283.058543 
L 70.2976 284.281219 
L 70.6944 283.63392 
L 71.0912 283.993531 
L 71.488 282.411243 
L 71.8848 283.63392 
L 72.2816 286.007351 
L 72.6784 283.561998 
L 73.0752 284.353142 
L 73.472 284.137375 
L 73.8688 283.418154 
L 74.2656 284.209297 
L 74.6624 283.058543 
L 75.0592 286.510806 
L 75.456 285.28813 
L 75.8528 282.914698 
L 76.2496 284.496986 
L 76.6464 284.065453 
L 77.0432 283.130465 
L 77.44 285.144285 
L 77.8368 282.267399 
L 78.2336 283.202387 
L 78.6304 283.705842 
L 79.424 282.123555 
L 79.8208 283.058543 
L 80.2176 283.058543 
L 80.6144 283.490076 
L 81.0112 284.137375 
L 81.408 282.195477 
L 81.8048 283.63392 
L 82.2016 282.555088 
L 82.5984 281.97971 
L 82.9952 283.274309 
L 83.392 285.000441 
L 83.7888 282.123555 
L 84.1856 283.777764 
L 84.5824 283.490076 
L 84.9792 283.418154 
L 85.7728 284.64083 
L 86.5664 282.411243 
L 86.9632 282.698932 
L 87.36 282.698932 
L 87.7568 282.483165 
L 88.1536 284.137375 
L 88.5504 282.698932 
L 88.9472 283.490076 
L 89.344 282.986621 
L 89.7408 282.770854 
L 90.1376 284.64083 
L 90.5344 282.842776 
L 90.9312 283.561998 
L 91.328 281.907788 
L 91.7248 283.418154 
L 92.1216 281.404333 
L 92.5184 282.411243 
L 92.9152 282.986621 
L 93.312 282.483165 
L 93.7088 283.63392 
L 94.1056 282.555088 
L 94.8992 283.058543 
L 95.296 282.267399 
L 95.6928 282.62701 
L 96.0896 281.97971 
L 96.4864 282.195477 
L 96.8832 285.575818 
L 97.28 283.274309 
L 97.6768 282.267399 
L 98.4704 281.476255 
L 98.8672 279.390512 
L 99.6608 284.353142 
L 100.0576 283.274309 
L 100.4544 282.986621 
L 101.248 283.993531 
L 101.6448 283.490076 
L 102.0416 282.051632 
L 102.4384 281.835866 
L 102.8352 283.777764 
L 103.232 281.332411 
L 103.6288 282.411243 
L 104.0256 282.051632 
L 104.4224 282.339321 
L 104.8192 282.195477 
L 105.216 282.62701 
L 105.6128 283.705842 
L 106.0096 282.986621 
L 106.4064 282.914698 
L 106.8032 281.97971 
L 107.2 283.777764 
L 107.5968 282.051632 
L 107.9936 282.267399 
L 108.3904 282.914698 
L 108.7872 282.842776 
L 109.184 282.267399 
L 109.5808 283.63392 
L 109.9776 282.914698 
L 110.3744 284.281219 
L 110.7712 283.418154 
L 111.168 282.986621 
L 111.5648 283.346231 
L 111.9616 282.267399 
L 112.7552 281.332411 
L 113.152 282.914698 
L 113.5488 282.986621 
L 113.9456 283.274309 
L 114.3424 281.763944 
L 115.136 283.705842 
L 115.5328 283.705842 
L 115.9296 282.555088 
L 116.7232 284.425064 
L 117.12 282.770854 
L 117.5168 283.561998 
L 117.9136 283.63392 
L 118.3104 282.770854 
L 118.7072 280.9728 
L 119.104 282.555088 
L 119.5008 283.490076 
L 119.8976 282.62701 
L 120.2944 283.490076 
L 120.6912 283.418154 
L 121.088 283.921609 
L 121.4848 283.202387 
L 121.8816 283.777764 
L 122.2784 282.842776 
L 122.6752 283.63392 
L 123.072 281.907788 
L 123.4688 283.490076 
L 123.8656 283.921609 
L 124.6592 283.346231 
L 125.056 282.555088 
L 125.4528 283.130465 
L 125.8496 282.914698 
L 126.2464 282.986621 
L 126.6432 283.418154 
L 127.4368 281.332411 
L 127.8336 283.849686 
L 128.2304 283.346231 
L 128.6272 283.202387 
L 129.024 283.849686 
L 129.4208 279.462435 
L 129.8176 281.692022 
L 130.2144 283.058543 
L 130.6112 282.483165 
L 131.008 283.705842 
L 131.4048 283.993531 
L 131.8016 283.777764 
L 132.1984 283.058543 
L 132.5952 283.705842 
L 132.992 283.346231 
L 133.3888 284.496986 
L 133.7856 283.130465 
L 134.1824 284.281219 
L 134.5792 282.914698 
L 134.976 283.777764 
L 135.3728 284.281219 
L 135.7696 281.97971 
L 136.1664 283.202387 
L 136.5632 281.476255 
L 136.96 281.763944 
L 137.3568 282.483165 
L 137.7536 284.712752 
L 138.1504 279.102824 
L 138.5472 282.123555 
L 138.944 283.777764 
L 139.3408 283.274309 
L 139.7376 283.561998 
L 140.1344 283.63392 
L 140.5312 282.051632 
L 140.928 286.223118 
L 141.3248 284.065453 
L 141.7216 285.719663 
L 142.1184 284.353142 
L 142.5152 284.856597 
L 142.912 283.777764 
L 143.3088 283.346231 
L 143.7056 282.411243 
L 144.4992 284.496986 
L 144.896 284.928519 
L 145.2928 285.072363 
L 145.6896 282.842776 
L 146.0864 283.058543 
L 146.4832 282.411243 
L 146.88 284.496986 
L 147.2768 282.698932 
L 147.6736 281.692022 
L 148.4672 286.366962 
L 148.864 284.137375 
L 149.2608 283.921609 
L 149.6576 284.496986 
L 150.0544 284.137375 
L 150.4512 284.496986 
L 150.848 283.921609 
L 151.2448 282.483165 
L 151.6416 283.418154 
L 152.0384 283.63392 
L 152.4352 285.216208 
L 152.832 283.921609 
L 153.2288 283.63392 
L 153.6256 283.921609 
L 154.0224 283.561998 
L 154.4192 285.144285 
L 154.816 285.575818 
L 155.2128 284.64083 
L 155.6096 282.555088 
L 156.0064 282.123555 
L 156.4032 284.64083 
L 156.8 283.130465 
L 157.1968 285.575818 
L 157.5936 285.431974 
L 157.9904 285.719663 
L 158.3872 283.202387 
L 158.784 285.360052 
L 159.1808 283.058543 
L 159.5776 284.353142 
L 159.9744 285.000441 
L 160.3712 283.777764 
L 160.768 283.418154 
L 161.1648 283.921609 
L 161.5616 285.000441 
L 161.9584 284.353142 
L 162.3552 286.007351 
L 162.752 286.151196 
L 163.5456 283.418154 
L 163.9424 285.575818 
L 164.3392 283.777764 
L 164.736 285.360052 
L 165.1328 283.058543 
L 165.5296 282.698932 
L 165.9264 285.719663 
L 166.3232 283.705842 
L 166.72 284.928519 
L 167.1168 283.274309 
L 167.5136 285.000441 
L 167.9104 283.130465 
L 168.3072 285.935429 
L 168.704 286.870417 
L 169.1008 282.770854 
L 169.4976 286.582729 
L 169.8944 284.784675 
L 170.2912 286.007351 
L 170.688 286.151196 
L 171.0848 286.510806 
L 171.4816 283.561998 
L 171.8784 285.719663 
L 172.2752 283.993531 
L 172.672 282.842776 
L 173.0688 286.366962 
L 173.4656 283.130465 
L 174.2592 284.425064 
L 174.656 285.575818 
L 175.0528 285.863507 
L 175.4496 282.123555 
L 175.8464 286.366962 
L 176.2432 285.575818 
L 176.64 284.353142 
L 177.0368 286.870417 
L 177.4336 284.425064 
L 177.8304 283.274309 
L 178.2272 281.763944 
L 178.624 285.28813 
L 179.0208 284.065453 
L 179.4176 284.496986 
L 179.8144 285.503896 
L 180.2112 285.863507 
L 180.608 285.144285 
L 181.0048 285.072363 
L 181.4016 284.209297 
L 181.7984 287.014262 
L 182.1952 283.561998 
L 182.592 285.072363 
L 182.9888 283.921609 
L 183.3856 283.130465 
L 183.7824 284.64083 
L 184.1792 283.346231 
L 184.9728 284.856597 
L 185.3696 286.798495 
L 185.7664 285.431974 
L 186.1632 285.935429 
L 186.56 285.647741 
L 186.9568 283.993531 
L 187.3536 284.64083 
L 187.7504 284.209297 
L 188.1472 284.856597 
L 188.544 283.921609 
L 188.9408 285.360052 
L 189.3376 284.712752 
L 189.7344 283.777764 
L 190.1312 285.935429 
L 190.528 283.63392 
L 190.9248 284.496986 
L 191.3216 284.568908 
L 191.7184 284.065453 
L 192.1152 284.353142 
L 192.512 286.582729 
L 192.9088 284.065453 
L 193.3056 286.007351 
L 193.7024 285.144285 
L 194.0992 285.719663 
L 194.496 283.849686 
L 194.8928 285.28813 
L 195.2896 284.425064 
L 195.6864 285.144285 
L 196.0832 284.568908 
L 196.48 285.863507 
L 196.8768 283.058543 
L 197.2736 283.202387 
L 197.6704 285.935429 
L 198.0672 287.30195 
L 198.464 285.072363 
L 198.8608 285.072363 
L 199.2576 283.490076 
L 199.6544 284.353142 
L 200.0512 284.712752 
L 200.448 284.568908 
L 200.8448 282.123555 
L 201.2416 282.914698 
L 201.6384 285.863507 
L 202.0352 284.353142 
L 202.432 284.496986 
L 202.8288 283.490076 
L 203.6224 286.079274 
L 204.0192 285.28813 
L 204.416 285.503896 
L 204.8128 284.137375 
L 205.2096 285.791585 
L 205.6064 285.144285 
L 206.0032 285.503896 
L 206.4 284.425064 
L 206.7968 283.849686 
L 207.1936 285.360052 
L 207.5904 284.281219 
L 207.9872 285.072363 
L 208.384 283.63392 
L 208.7808 284.209297 
L 209.1776 283.921609 
L 209.5744 286.079274 
L 209.9712 284.856597 
L 210.368 282.986621 
L 210.7648 285.647741 
L 211.1616 283.490076 
L 211.5584 284.425064 
L 211.9552 283.490076 
L 212.352 285.647741 
L 212.7488 284.281219 
L 213.1456 285.575818 
L 213.5424 283.202387 
L 213.9392 284.281219 
L 214.336 283.705842 
L 214.7328 281.548177 
L 215.1296 284.712752 
L 215.5264 285.216208 
L 215.9232 283.130465 
L 216.32 283.346231 
L 216.7168 284.209297 
L 217.1136 283.130465 
L 217.5104 284.568908 
L 217.9072 283.346231 
L 218.304 284.712752 
L 218.7008 283.921609 
L 219.0976 285.144285 
L 219.4944 283.418154 
L 219.8912 285.935429 
L 220.288 284.281219 
L 220.6848 285.647741 
L 221.0816 283.130465 
L 221.4784 284.065453 
L 221.8752 282.842776 
L 222.272 282.986621 
L 222.6688 284.928519 
L 223.0656 284.928519 
L 223.4624 283.777764 
L 223.8592 283.130465 
L 224.256 282.842776 
L 224.6528 283.418154 
L 225.0496 283.490076 
L 225.4464 285.431974 
L 225.8432 282.842776 
L 226.24 284.496986 
L 226.6368 284.137375 
L 227.0336 285.935429 
L 227.4304 284.64083 
L 227.8272 285.144285 
L 228.224 285.000441 
L 228.6208 283.202387 
L 229.0176 284.856597 
L 229.4144 282.555088 
L 229.8112 286.007351 
L 230.208 283.705842 
L 230.6048 284.64083 
L 231.0016 286.151196 
L 231.3984 283.777764 
L 231.7952 284.281219 
L 232.192 283.63392 
L 232.9856 284.496986 
L 233.7792 285.935429 
L 234.176 284.712752 
L 234.5728 284.496986 
L 234.9696 284.568908 
L 235.3664 284.137375 
L 236.16 283.63392 
L 236.5568 285.000441 
L 236.9536 285.072363 
L 237.3504 283.705842 
L 237.7472 285.647741 
L 238.144 285.431974 
L 238.5408 285.575818 
L 238.9376 283.921609 
L 239.3344 285.575818 
L 239.7312 286.151196 
L 240.128 282.914698 
L 240.5248 285.863507 
L 240.9216 282.986621 
L 241.3184 283.490076 
L 241.7152 282.986621 
L 242.112 283.921609 
L 242.5088 285.863507 
L 242.9056 283.490076 
L 243.3024 285.000441 
L 243.6992 284.784675 
L 244.096 284.928519 
L 244.4928 286.079274 
L 244.8896 285.072363 
L 245.2864 285.719663 
L 245.6832 284.281219 
L 246.08 285.072363 
L 246.8736 284.353142 
L 247.2704 284.784675 
L 248.064 283.849686 
L 248.4608 284.496986 
L 248.8576 283.63392 
L 249.2544 284.856597 
L 249.6512 282.914698 
L 250.048 285.863507 
L 250.4448 285.647741 
L 250.8416 285.000441 
L 251.2384 285.360052 
L 251.6352 285.360052 
L 252.032 285.575818 
L 252.4288 284.64083 
L 252.8256 285.431974 
L 253.2224 283.63392 
L 253.6192 283.705842 
L 254.016 284.928519 
L 254.4128 284.209297 
L 254.8096 283.777764 
L 255.2064 282.62701 
L 255.6032 284.64083 
L 256 283.490076 
L 256.3968 283.274309 
L 256.7936 284.209297 
L 257.1904 284.209297 
L 257.5872 284.712752 
L 257.984 284.137375 
L 258.3808 283.777764 
L 258.7776 285.719663 
L 259.1744 284.209297 
L 259.5712 284.784675 
L 259.968 284.137375 
L 260.3648 285.144285 
L 260.7616 283.490076 
L 261.1584 285.216208 
L 261.5552 284.928519 
L 261.952 285.072363 
L 262.3488 284.425064 
L 262.7456 283.561998 
L 263.1424 284.425064 
L 263.5392 284.137375 
L 263.936 284.712752 
L 264.3328 286.582729 
L 264.7296 286.510806 
L 265.1264 284.281219 
L 265.5232 284.137375 
L 265.92 286.079274 
L 266.3168 284.856597 
L 266.7136 284.784675 
L 267.1104 282.986621 
L 267.904 285.863507 
L 268.3008 286.223118 
L 268.6976 286.007351 
L 269.0944 285.216208 
L 269.4912 286.007351 
L 269.888 285.28813 
L 270.2848 284.065453 
L 270.6816 284.425064 
L 271.0784 284.496986 
L 271.4752 285.647741 
L 271.872 282.62701 
L 272.2688 283.058543 
L 272.6656 285.935429 
L 273.0624 284.137375 
L 273.4592 283.993531 
L 273.856 284.712752 
L 274.2528 286.654651 
L 274.6496 284.784675 
L 275.0464 285.503896 
L 275.4432 284.209297 
L 275.84 285.647741 
L 276.2368 285.575818 
L 276.6336 285.144285 
L 277.0304 284.209297 
L 277.4272 285.935429 
L 277.824 284.784675 
L 278.2208 284.281219 
L 278.6176 285.072363 
L 279.0144 285.072363 
L 279.4112 285.935429 
L 279.808 286.007351 
L 280.2048 283.490076 
L 280.6016 284.137375 
L 280.9984 285.072363 
L 281.3952 284.281219 
L 281.792 286.151196 
L 282.1888 285.216208 
L 282.5856 284.64083 
L 282.9824 286.151196 
L 283.3792 285.000441 
L 283.776 286.582729 
L 284.5696 284.64083 
L 284.9664 286.079274 
L 285.3632 286.582729 
L 285.76 284.496986 
L 286.1568 286.151196 
L 286.5536 285.431974 
L 286.9504 286.942339 
L 287.3472 284.065453 
L 287.744 285.647741 
L 288.1408 282.339321 
L 288.5376 285.072363 
L 288.9344 285.144285 
L 289.3312 285.719663 
L 289.728 285.360052 
L 290.1248 285.360052 
L 290.5216 287.30195 
L 290.9184 286.942339 
L 291.3152 286.366962 
L 292.1088 283.705842 
L 292.5056 284.496986 
L 292.9024 284.568908 
L 293.2992 284.137375 
L 293.696 286.151196 
L 294.0928 283.993531 
L 294.4896 284.784675 
L 294.8864 286.510806 
L 295.2832 283.202387 
L 295.68 285.431974 
L 296.0768 285.072363 
L 296.4736 286.29504 
L 296.8704 285.144285 
L 297.664 284.425064 
L 298.4576 286.151196 
L 298.8544 284.209297 
L 299.2512 285.072363 
L 299.648 284.928519 
L 300.0448 284.137375 
L 300.4416 285.431974 
L 300.8384 285.791585 
L 301.2352 286.654651 
L 301.632 286.654651 
L 302.0288 285.935429 
L 302.4256 285.791585 
L 302.8224 287.373872 
L 303.2192 284.784675 
L 303.616 284.712752 
L 304.0128 285.575818 
L 304.4096 285.431974 
L 304.8064 284.209297 
L 305.2032 285.431974 
L 305.6 284.568908 
L 305.9968 286.29504 
L 306.3936 286.654651 
L 306.7904 285.503896 
L 307.1872 285.360052 
L 307.584 285.072363 
L 307.9808 285.863507 
L 308.3776 284.928519 
L 308.7744 285.503896 
L 309.1712 285.360052 
L 309.568 285.360052 
L 309.9648 286.654651 
L 310.3616 286.798495 
L 310.7584 285.000441 
L 311.1552 284.856597 
L 311.9488 283.849686 
L 312.3456 285.575818 
L 312.7424 284.137375 
L 313.536 285.791585 
L 313.9328 283.418154 
L 314.3296 285.072363 
L 314.7264 285.000441 
L 315.1232 284.712752 
L 315.52 284.856597 
L 315.9168 286.29504 
L 316.3136 285.360052 
L 316.7104 285.647741 
L 317.1072 286.798495 
L 317.9008 286.007351 
L 318.2976 284.64083 
L 318.6944 284.928519 
L 319.0912 285.791585 
L 319.488 285.647741 
L 319.8848 284.856597 
L 320.2816 284.856597 
L 320.6784 285.719663 
L 321.0752 286.007351 
L 321.472 284.856597 
L 321.8688 284.568908 
L 322.2656 285.935429 
L 322.6624 285.000441 
L 323.0592 286.654651 
L 323.456 286.582729 
L 324.2496 284.856597 
L 324.6464 285.719663 
L 325.0432 284.712752 
L 325.44 285.431974 
L 325.8368 283.490076 
L 326.6304 284.64083 
L 327.0272 286.079274 
L 327.424 285.28813 
L 327.8208 285.719663 
L 328.2176 285.791585 
L 328.6144 285.719663 
L 329.0112 285.503896 
L 329.408 285.647741 
L 329.8048 284.712752 
L 330.2016 285.072363 
L 330.5984 285.000441 
L 330.9952 284.137375 
L 331.392 286.582729 
L 331.7888 285.647741 
L 332.1856 287.086184 
L 332.5824 286.29504 
L 332.9792 286.079274 
L 333.376 285.144285 
L 333.7728 284.496986 
L 334.1696 285.431974 
L 334.5664 285.000441 
L 334.9632 286.366962 
L 335.36 285.000441 
L 335.7568 285.144285 
L 336.1536 285.000441 
L 336.5504 284.64083 
L 336.9472 285.935429 
L 337.344 284.784675 
L 337.7408 286.079274 
L 338.1376 286.29504 
L 338.5344 285.000441 
L 338.9312 284.856597 
L 339.328 287.086184 
L 339.7248 286.726573 
L 340.1216 285.719663 
L 340.5184 285.360052 
L 340.9152 284.784675 
L 341.312 286.726573 
L 341.7088 286.007351 
L 342.1056 286.438884 
L 342.5024 285.935429 
L 343.296 284.281219 
L 343.6928 286.007351 
L 344.0896 284.712752 
L 344.4864 284.928519 
L 344.8832 286.366962 
L 345.28 285.216208 
L 345.6768 286.438884 
L 346.0736 284.784675 
L 346.8672 285.719663 
L 347.264 285.216208 
L 347.6608 285.503896 
L 348.0576 286.29504 
L 348.4544 282.914698 
L 349.248 286.151196 
L 349.6448 286.151196 
L 350.0416 285.575818 
L 350.4384 285.503896 
L 350.8352 283.561998 
L 351.232 285.360052 
L 351.6288 285.791585 
L 352.0256 285.935429 
L 352.4224 285.144285 
L 352.8192 285.28813 
L 353.216 286.223118 
L 353.6128 285.072363 
L 354.0096 285.431974 
L 354.4064 286.007351 
L 354.8032 287.661561 
L 355.2 287.158106 
L 355.5968 285.28813 
L 355.9936 286.223118 
L 356.3904 286.438884 
L 356.7872 285.791585 
L 357.184 284.712752 
L 357.5808 285.28813 
L 357.9776 285.647741 
L 358.7712 285.431974 
L 359.168 284.784675 
L 359.5648 285.360052 
L 359.9616 286.29504 
L 360.3584 283.346231 
L 360.7552 284.209297 
L 361.152 284.065453 
L 361.5488 285.360052 
L 361.9456 284.568908 
L 362.3424 284.209297 
L 362.7392 284.568908 
L 363.136 286.079274 
L 363.5328 286.223118 
L 363.9296 284.568908 
L 364.3264 286.654651 
L 364.7232 286.654651 
L 365.12 285.791585 
L 365.5168 282.986621 
L 365.9136 285.072363 
L 366.3104 284.784675 
L 366.7072 284.065453 
L 367.104 283.849686 
L 367.5008 286.582729 
L 367.8976 284.928519 
L 368.2944 286.151196 
L 368.6912 284.64083 
L 369.088 286.079274 
L 369.4848 284.281219 
L 369.8816 284.496986 
L 370.2784 282.770854 
L 370.6752 285.935429 
L 371.072 286.798495 
L 371.4688 284.712752 
L 371.8656 286.654651 
L 372.2624 285.503896 
L 372.6592 286.798495 
L 373.056 285.503896 
L 373.4528 285.144285 
L 373.8496 282.986621 
L 374.2464 285.144285 
L 374.6432 284.281219 
L 375.04 286.223118 
L 375.4368 285.000441 
L 375.8336 286.007351 
L 376.2304 284.496986 
L 376.6272 284.496986 
L 377.024 286.726573 
L 377.4208 285.647741 
L 377.8176 284.065453 
L 378.2144 285.935429 
L 379.008 284.209297 
L 379.4048 284.712752 
L 379.8016 284.137375 
L 380.1984 285.863507 
L 380.5952 286.223118 
L 380.992 283.993531 
L 381.3888 285.647741 
L 381.7856 285.072363 
L 382.1824 284.784675 
L 382.5792 285.431974 
L 382.976 285.072363 
L 383.3728 286.079274 
L 383.7696 286.654651 
L 384.1664 286.29504 
L 384.5632 283.418154 
L 384.96 285.503896 
L 385.3568 283.705842 
L 385.7536 286.223118 
L 386.1504 286.223118 
L 386.5472 283.921609 
L 386.944 285.503896 
L 387.3408 285.144285 
L 387.7376 284.065453 
L 388.1344 284.353142 
L 388.5312 284.496986 
L 388.928 285.791585 
L 389.3248 285.072363 
L 389.7216 283.921609 
L 390.1184 285.503896 
L 390.5152 284.856597 
L 390.912 286.079274 
L 391.3088 286.798495 
L 391.7056 284.496986 
L 392.1024 285.647741 
L 392.4992 284.784675 
L 392.896 285.431974 
L 393.2928 286.366962 
L 393.6896 285.503896 
L 394.0864 286.510806 
L 394.4832 283.921609 
L 394.88 285.216208 
L 395.2768 284.281219 
L 395.6736 285.935429 
L 396.0704 286.079274 
L 396.4672 285.503896 
L 396.864 285.719663 
L 397.6576 285.360052 
L 398.0544 286.007351 
L 398.4512 283.63392 
L 398.848 286.870417 
L 399.2448 286.079274 
L 399.6416 286.438884 
L 400.0384 284.209297 
L 400.4352 285.000441 
L 400.832 283.777764 
L 401.2288 286.654651 
L 401.6256 285.719663 
L 402.0224 285.360052 
L 402.4192 285.360052 
L 402.816 285.144285 
L 403.2128 284.353142 
L 403.6096 283.993531 
L 404.0064 284.425064 
L 404.8 286.726573 
L 405.1968 284.784675 
L 405.5936 284.856597 
L 405.9904 285.575818 
L 406.3872 286.007351 
L 406.784 284.065453 
L 407.1808 284.784675 
L 407.5776 286.726573 
L 407.9744 285.719663 
L 409.1648 284.281219 
L 409.5616 285.647741 
L 409.9584 285.863507 
L 410.3552 283.921609 
L 410.752 285.360052 
L 411.1488 285.072363 
L 411.5456 285.863507 
L 411.9424 284.065453 
L 412.3392 284.496986 
L 412.736 285.935429 
L 413.1328 284.137375 
L 413.5296 286.726573 
L 413.9264 285.28813 
L 414.3232 286.223118 
L 414.72 286.151196 
L 415.1168 282.914698 
L 415.5136 284.568908 
L 415.9104 285.647741 
L 416.3072 285.935429 
L 416.704 285.719663 
L 417.1008 286.151196 
L 417.4976 284.137375 
L 418.2912 286.151196 
L 418.688 285.575818 
L 419.0848 285.216208 
L 419.4816 284.137375 
L 419.8784 283.63392 
L 420.2752 284.281219 
L 420.672 285.719663 
L 421.0688 285.216208 
L 421.4656 286.510806 
L 421.8624 284.856597 
L 422.2592 286.079274 
L 422.656 286.079274 
L 423.0528 284.928519 
L 423.4496 286.870417 
L 423.8464 285.28813 
L 424.2432 285.072363 
L 425.4336 286.510806 
L 425.8304 285.503896 
L 426.2272 287.158106 
L 426.624 285.935429 
L 427.0208 283.490076 
L 427.4176 286.151196 
L 427.8144 285.935429 
L 428.2112 285.431974 
L 428.608 285.935429 
L 429.0048 286.007351 
L 429.4016 284.281219 
L 429.7984 286.223118 
L 430.1952 286.007351 
L 430.592 283.921609 
L 430.9888 284.928519 
L 431.3856 283.921609 
L 431.7824 286.366962 
L 432.1792 284.712752 
L 432.576 285.863507 
L 432.9728 285.000441 
L 433.3696 286.007351 
L 433.7664 284.856597 
L 434.1632 285.647741 
L 434.56 285.575818 
L 434.9568 286.29504 
L 435.7504 284.137375 
L 436.1472 284.209297 
L 436.544 286.151196 
L 436.9408 285.935429 
L 437.3376 285.144285 
L 437.7344 285.503896 
L 438.1312 286.798495 
L 438.528 286.007351 
L 438.9248 284.209297 
L 439.3216 286.151196 
L 439.7184 286.151196 
L 440.1152 285.863507 
L 440.512 286.726573 
L 440.9088 286.079274 
L 441.3056 283.993531 
L 441.7024 285.791585 
L 442.0992 283.490076 
L 442.496 285.791585 
L 442.8928 283.63392 
L 443.2896 283.849686 
L 443.6864 286.438884 
L 444.0832 286.582729 
L 444.48 286.007351 
L 444.8768 286.654651 
L 445.6704 284.425064 
L 446.0672 284.496986 
L 446.464 284.137375 
L 446.8608 285.28813 
L 447.2576 283.849686 
L 447.6544 285.216208 
L 448.0512 285.791585 
L 448.448 286.007351 
L 448.8448 286.798495 
L 449.2416 285.072363 
L 449.6384 285.863507 
L 450.0352 285.935429 
L 450.432 283.202387 
L 451.2256 286.726573 
L 451.6224 284.928519 
L 452.0192 286.29504 
L 452.416 286.29504 
L 452.8128 285.072363 
L 453.2096 284.64083 
L 453.6064 282.62701 
L 453.6064 282.62701 
" style="fill:none;stroke:#1f77b4;stroke-linecap:square;stroke-width:1.2;"/>
   </g>
   <g id="patch_3">
    <path d="M 57.6 307.584 
L 57.6 41.472 
" style="fill:none;stroke:#000000;stroke-linecap:square;stroke-linejoin:miter;"/>
   </g>
   <g id="patch_4">
    <path d="M 414.72 307.584 
L 414.72 41.472 
" style="fill:none;stroke:#000000;stroke-linecap:square;stroke-linejoin:miter;"/>
   </g>
   <g id="patch_5">
    <path d="M 57.6 307.584 
L 414.72 307.584 
" style="fill:none;stroke:#000000;stroke-linecap:square;stroke-linejoin:miter;"/>
   </g>
   <g id="patch_6">
    <path d="M 57.6 41.472 
L 414.72 41.472 
" style="fill:none;stroke:#000000;stroke-linecap:square;stroke-linejoin:miter;"/>
   </g>
   <g id="text_21">
    <!-- Training - NSRA-ES - Slimevolley -->
    <g transform="translate(159.306 35.472)scale(0.096 -0.096)">
     <defs>
      <path d="M 3513 2113 
L 3513 0 
L 2938 0 
L 2938 2094 
Q 2938 2591 2744 2837 
Q 2550 3084 2163 3084 
Q 1697 3084 1428 2787 
Q 1159 2491 1159 1978 
L 1159 0 
L 581 0 
L 581 3500 
L 1159 3500 
L 1159 2956 
Q 1366 3272 1645 3428 
Q 1925 3584 2291 3584 
Q 2894 3584 3203 3211 
Q 3513 2838 3513 2113 
z
" id="DejaVuSans-6e" transform="scale(0.015625)"/>
      <path d="M 2906 1791 
Q 2906 2416 2648 2759 
Q 2391 3103 1925 3103 
Q 1463 3103 1205 2759 
Q 947 2416 947 1791 
Q 947 1169 1205 825 
Q 1463 481 1925 481 
Q 2391 481 2648 825 
Q 2906 1169 2906 1791 
z
M 3481 434 
Q 3481 -459 3084 -895 
Q 2688 -1331 1869 -1331 
Q 1566 -1331 1297 -1286 
Q 1028 -1241 775 -1147 
L 775 -588 
Q 1028 -725 1275 -790 
Q 1522 -856 1778 -856 
Q 2344 -856 2625 -561 
Q 2906 -266 2906 331 
L 2906 616 
Q 2728 306 2450 153 
Q 2172 0 1784 0 
Q 1141 0 747 490 
Q 353 981 353 1791 
Q 353 2603 747 3093 
Q 1141 3584 1784 3584 
Q 2172 3584 2450 3431 
Q 2728 3278 2906 2969 
L 2906 3500 
L 3481 3500 
L 3481 434 
z
" id="DejaVuSans-67" transform="scale(0.015625)"/>
      <path id="DejaVuSans-20" transform="scale(0.015625)"/>
      <path d="M 313 2009 
L 1997 2009 
L 1997 1497 
L 313 1497 
L 313 2009 
z
" id="DejaVuSans-2d" transform="scale(0.015625)"/>
      <path d="M 628 4666 
L 1478 4666 
L 3547 763 
L 3547 4666 
L 4159 4666 
L 4159 0 
L 3309 0 
L 1241 3903 
L 1241 0 
L 628 0 
L 628 4666 
z
" id="DejaVuSans-4e" transform="scale(0.015625)"/>
      <path d="M 3425 4513 
L 3425 3897 
Q 3066 4069 2747 4153 
Q 2428 4238 2131 4238 
Q 1616 4238 1336 4038 
Q 1056 3838 1056 3469 
Q 1056 3159 1242 3001 
Q 1428 2844 1947 2747 
L 2328 2669 
Q 3034 2534 3370 2195 
Q 3706 1856 3706 1288 
Q 3706 609 3251 259 
Q 2797 -91 1919 -91 
Q 1588 -91 1214 -16 
Q 841 59 441 206 
L 441 856 
Q 825 641 1194 531 
Q 1563 422 1919 422 
Q 2459 422 2753 634 
Q 3047 847 3047 1241 
Q 3047 1584 2836 1778 
Q 2625 1972 2144 2069 
L 1759 2144 
Q 1053 2284 737 2584 
Q 422 2884 422 3419 
Q 422 4038 858 4394 
Q 1294 4750 2059 4750 
Q 2388 4750 2728 4690 
Q 3069 4631 3425 4513 
z
" id="DejaVuSans-53" transform="scale(0.015625)"/>
      <path d="M 2188 4044 
L 1331 1722 
L 3047 1722 
L 2188 4044 
z
M 1831 4666 
L 2547 4666 
L 4325 0 
L 3669 0 
L 3244 1197 
L 1141 1197 
L 716 0 
L 50 0 
L 1831 4666 
z
" id="DejaVuSans-41" transform="scale(0.015625)"/>
      <path d="M 628 4666 
L 3578 4666 
L 3578 4134 
L 1259 4134 
L 1259 2753 
L 3481 2753 
L 3481 2222 
L 1259 2222 
L 1259 531 
L 3634 531 
L 3634 0 
L 628 0 
L 628 4666 
z
" id="DejaVuSans-45" transform="scale(0.015625)"/>
      <path d="M 603 4863 
L 1178 4863 
L 1178 0 
L 603 0 
L 603 4863 
z
" id="DejaVuSans-6c" transform="scale(0.015625)"/>
      <path d="M 191 3500 
L 800 3500 
L 1894 563 
L 2988 3500 
L 3597 3500 
L 2284 0 
L 1503 0 
L 191 3500 
z
" id="DejaVuSans-76" transform="scale(0.015625)"/>
      <path d="M 1959 3097 
Q 1497 3097 1228 2736 
Q 959 2375 959 1747 
Q 959 1119 1226 758 
Q 1494 397 1959 397 
Q 2419 397 2687 759 
Q 2956 1122 2956 1747 
Q 2956 2369 2687 2733 
Q 2419 3097 1959 3097 
z
M 1959 3584 
Q 2709 3584 3137 3096 
Q 3566 2609 3566 1747 
Q 3566 888 3137 398 
Q 2709 -91 1959 -91 
Q 1206 -91 779 398 
Q 353 888 353 1747 
Q 353 2609 779 3096 
Q 1206 3584 1959 3584 
z
" id="DejaVuSans-6f" transform="scale(0.015625)"/>
      <path d="M 2059 -325 
Q 1816 -950 1584 -1140 
Q 1353 -1331 966 -1331 
L 506 -1331 
L 506 -850 
L 844 -850 
Q 1081 -850 1212 -737 
Q 1344 -625 1503 -206 
L 1606 56 
L 191 3500 
L 800 3500 
L 1894 763 
L 2988 3500 
L 3597 3500 
L 2059 -325 
z
" id="DejaVuSans-79" transform="scale(0.015625)"/>
     </defs>
     <use xlink:href="#DejaVuSans-54"/>
     <use x="46.333984" xlink:href="#DejaVuSans-72"/>
     <use x="87.447266" xlink:href="#DejaVuSans-61"/>
     <use x="148.726562" xlink:href="#DejaVuSans-69"/>
     <use x="176.509766" xlink:href="#DejaVuSans-6e"/>
     <use x="239.888672" xlink:href="#DejaVuSans-69"/>
     <use x="267.671875" xlink:href="#DejaVuSans-6e"/>
     <use x="331.050781" xlink:href="#DejaVuSans-67"/>
     <use x="394.527344" xlink:href="#DejaVuSans-20"/>
     <use x="426.314453" xlink:href="#DejaVuSans-2d"/>
     <use x="462.398438" xlink:href="#DejaVuSans-20"/>
     <use x="494.185547" xlink:href="#DejaVuSans-4e"/>
     <use x="568.990234" xlink:href="#DejaVuSans-53"/>
     <use x="632.466797" xlink:href="#DejaVuSans-52"/>
     <use x="697.949219" xlink:href="#DejaVuSans-41"/>
     <use x="764.107422" xlink:href="#DejaVuSans-2d"/>
     <use x="800.191406" xlink:href="#DejaVuSans-45"/>
     <use x="863.375" xlink:href="#DejaVuSans-53"/>
     <use x="926.851562" xlink:href="#DejaVuSans-20"/>
     <use x="958.638672" xlink:href="#DejaVuSans-2d"/>
     <use x="994.722656" xlink:href="#DejaVuSans-20"/>
     <use x="1026.509766" xlink:href="#DejaVuSans-53"/>
     <use x="1089.986328" xlink:href="#DejaVuSans-6c"/>
     <use x="1117.769531" xlink:href="#DejaVuSans-69"/>
     <use x="1145.552734" xlink:href="#DejaVuSans-6d"/>
     <use x="1242.964844" xlink:href="#DejaVuSans-65"/>
     <use x="1304.488281" xlink:href="#DejaVuSans-76"/>
     <use x="1363.667969" xlink:href="#DejaVuSans-6f"/>
     <use x="1424.849609" xlink:href="#DejaVuSans-6c"/>
     <use x="1452.632812" xlink:href="#DejaVuSans-6c"/>
     <use x="1480.416016" xlink:href="#DejaVuSans-65"/>
     <use x="1541.939453" xlink:href="#DejaVuSans-79"/>
    </g>
   </g>
  </g>
 </g>
 <defs>
  <clipPath id="p709e46b0bc">
   <rect height="266.112" width="357.12" x="57.6" y="41.472"/>
  </clipPath>
 </defs>
</svg>
