<?xml version="1.0" encoding="utf-8" standalone="no"?>
<!DOCTYPE svg PUBLIC "-//W3C//DTD SVG 1.1//EN"
  "http://www.w3.org/Graphics/SVG/1.1/DTD/svg11.dtd">
<svg height="345.6pt" version="1.1" viewBox="0 0 460.8 345.6" width="460.8pt" xmlns="http://www.w3.org/2000/svg" xmlns:xlink="http://www.w3.org/1999/xlink">
 <metadata>
  <rdf:RDF xmlns:cc="http://creativecommons.org/ns#" xmlns:dc="http://purl.org/dc/elements/1.1/" xmlns:rdf="http://www.w3.org/1999/02/22-rdf-syntax-ns#">
   <cc:Work>
    <dc:type rdf:resource="http://purl.org/dc/dcmitype/StillImage"/>
    <dc:date>2021-07-22T19:44:23.775748</dc:date>
    <dc:format>image/svg+xml</dc:format>
    <dc:creator>
     <cc:Agent>
      <dc:title>Matplotlib v3.4.2, https://matplotlib.org/</dc:title>
     </cc:Agent>
    </dc:creator>
   </cc:Work>
  </rdf:RDF>
 </metadata>
 <defs>
  <style type="text/css">*{stroke-linecap:butt;stroke-linejoin:round;}</style>
 </defs>
 <g id="figure_1">
  <g id="patch_1">
   <path d="M 0 345.6 
L 460.8 345.6 
L 460.8 0 
L 0 0 
z
" style="fill:#ffffff;"/>
  </g>
  <g id="axes_1">
   <g id="patch_2">
    <path d="M 57.6 307.584 
L 414.72 307.584 
L 414.72 41.472 
L 57.6 41.472 
z
" style="fill:#ffffff;"/>
   </g>
   <g id="PolyCollection_1">
    <path clip-path="url(#p7e00856e97)" d="M 57.9968 283.939589 
L 57.9968 286.924359 
L 58.3936 287.553678 
L 58.7904 286.456865 
L 59.1872 287.176086 
L 59.584 286.762534 
L 59.9808 287.607619 
L 60.3776 286.690612 
L 60.7744 287.248009 
L 61.1712 287.355892 
L 61.568 286.348982 
L 61.9648 287.391853 
L 62.3616 287.30195 
L 62.7584 285.575818 
L 63.1552 287.481756 
L 63.552 287.751464 
L 63.9488 286.870417 
L 64.3456 287.373872 
L 64.7424 286.942339 
L 65.1392 287.265989 
L 65.536 287.409834 
L 65.9328 286.474845 
L 66.3296 286.672631 
L 66.7264 286.654651 
L 67.1232 285.845526 
L 67.52 285.665721 
L 67.9168 287.140125 
L 68.3136 286.888398 
L 68.7104 286.438884 
L 69.1072 286.798495 
L 69.504 286.63667 
L 69.9008 287.068203 
L 70.2976 287.913289 
L 70.6944 287.158106 
L 71.0912 286.96032 
L 71.488 286.097254 
L 71.8848 286.492826 
L 72.2816 285.863507 
L 72.6784 286.870417 
L 73.0752 286.313021 
L 73.472 286.456865 
L 73.8688 287.481756 
L 74.2656 286.654651 
L 74.6624 287.553678 
L 75.0592 287.014262 
L 75.456 286.690612 
L 75.8528 286.546768 
L 76.2496 287.014262 
L 76.6464 287.122145 
L 77.0432 287.805405 
L 77.44 287.787425 
L 77.8368 287.014262 
L 78.2336 286.978301 
L 78.6304 287.265989 
L 79.0272 286.996281 
L 79.424 286.151196 
L 79.8208 286.996281 
L 80.2176 286.726573 
L 80.6144 287.823386 
L 81.0112 286.079274 
L 81.408 286.474845 
L 81.8048 286.942339 
L 82.2016 286.492826 
L 82.5984 286.402923 
L 82.9952 287.823386 
L 83.392 286.63667 
L 83.7888 286.492826 
L 84.1856 286.816476 
L 84.5824 287.391853 
L 84.9792 287.104164 
L 85.376 287.337911 
L 85.7728 287.032242 
L 86.1696 286.133215 
L 86.5664 286.708592 
L 86.9632 286.798495 
L 87.36 286.780515 
L 87.7568 286.924359 
L 88.1536 287.355892 
L 88.5504 287.589639 
L 88.9472 286.420904 
L 89.344 287.265989 
L 89.7408 286.852437 
L 90.1376 287.140125 
L 90.5344 286.097254 
L 90.9312 287.553678 
L 91.328 287.319931 
L 91.7248 286.564748 
L 92.1216 286.708592 
L 92.5184 286.672631 
L 92.9152 286.061293 
L 93.312 287.122145 
L 93.7088 287.158106 
L 94.1056 286.924359 
L 94.5024 287.553678 
L 94.8992 287.28397 
L 95.296 287.140125 
L 95.6928 287.481756 
L 96.0896 287.30195 
L 96.4864 287.697522 
L 96.8832 287.30195 
L 97.28 286.63667 
L 97.6768 286.510806 
L 98.0736 287.30195 
L 98.4704 287.643581 
L 98.8672 287.481756 
L 99.264 287.373872 
L 99.6608 287.265989 
L 100.0576 287.140125 
L 100.4544 287.212048 
L 100.8512 286.708592 
L 101.248 287.463775 
L 101.6448 287.499736 
L 102.0416 287.265989 
L 102.4384 287.30195 
L 102.8352 287.212048 
L 103.232 286.510806 
L 103.6288 286.29504 
L 104.0256 286.420904 
L 104.4224 286.816476 
L 104.8192 286.348982 
L 105.216 286.708592 
L 105.6128 286.816476 
L 106.0096 285.917449 
L 106.4064 287.769444 
L 106.8032 286.906378 
L 107.2 286.996281 
L 107.5968 287.032242 
L 107.9936 287.176086 
L 108.3904 287.194067 
L 108.7872 287.517717 
L 109.184 286.852437 
L 109.5808 286.888398 
L 109.9776 287.30195 
L 110.3744 287.463775 
L 110.7712 286.852437 
L 111.168 287.140125 
L 111.5648 287.068203 
L 111.9616 286.672631 
L 112.3584 287.391853 
L 112.7552 286.313021 
L 113.152 286.798495 
L 113.5488 286.61869 
L 113.9456 286.870417 
L 114.3424 286.726573 
L 114.7392 287.230028 
L 115.136 287.337911 
L 115.5328 286.043312 
L 115.9296 286.996281 
L 116.3264 286.29504 
L 116.7232 286.690612 
L 117.12 286.564748 
L 117.5168 286.474845 
L 117.9136 286.726573 
L 118.3104 286.978301 
L 118.7072 286.492826 
L 119.104 286.690612 
L 119.5008 287.373872 
L 119.8976 287.96723 
L 120.2944 287.481756 
L 120.6912 287.032242 
L 121.088 286.241098 
L 121.4848 286.762534 
L 121.8816 287.373872 
L 122.2784 287.068203 
L 122.6752 286.528787 
L 123.072 286.115235 
L 123.4688 286.456865 
L 123.8656 287.391853 
L 124.2624 286.906378 
L 124.6592 286.798495 
L 125.056 287.28397 
L 125.4528 285.97139 
L 125.8496 286.888398 
L 126.2464 286.492826 
L 126.6432 286.582729 
L 127.04 287.391853 
L 127.4368 287.086184 
L 127.8336 287.086184 
L 128.2304 287.355892 
L 128.6272 286.079274 
L 129.024 287.014262 
L 129.4208 287.158106 
L 129.8176 285.827546 
L 130.2144 287.212048 
L 130.6112 286.007351 
L 131.008 286.582729 
L 131.4048 287.158106 
L 131.8016 286.223118 
L 132.1984 286.888398 
L 132.5952 287.373872 
L 132.992 286.438884 
L 133.3888 286.744554 
L 133.7856 285.719663 
L 134.1824 286.672631 
L 134.5792 286.600709 
L 134.976 287.571658 
L 135.3728 286.816476 
L 135.7696 286.978301 
L 136.1664 287.28397 
L 136.5632 286.996281 
L 136.96 286.834456 
L 137.3568 287.28397 
L 137.7536 286.492826 
L 138.1504 287.607619 
L 138.5472 287.337911 
L 138.944 286.690612 
L 139.3408 286.852437 
L 139.7376 286.870417 
L 140.1344 286.402923 
L 140.5312 286.870417 
L 140.928 286.384943 
L 141.3248 287.086184 
L 141.7216 286.277059 
L 142.1184 287.032242 
L 142.5152 286.978301 
L 142.912 287.122145 
L 143.3088 287.28397 
L 143.7056 286.762534 
L 144.1024 286.834456 
L 144.4992 286.690612 
L 144.896 287.28397 
L 145.2928 286.420904 
L 145.6896 287.373872 
L 146.0864 287.104164 
L 146.4832 286.151196 
L 146.88 286.744554 
L 147.2768 286.151196 
L 147.6736 287.086184 
L 148.0704 286.852437 
L 148.4672 287.643581 
L 148.864 286.780515 
L 149.2608 286.798495 
L 149.6576 286.61869 
L 150.0544 287.140125 
L 150.4512 286.816476 
L 150.848 287.212048 
L 151.2448 286.402923 
L 151.6416 286.169176 
L 152.0384 286.564748 
L 152.4352 287.355892 
L 152.832 287.661561 
L 153.2288 285.845526 
L 153.6256 287.140125 
L 154.0224 287.895308 
L 154.4192 286.780515 
L 154.816 285.413994 
L 155.2128 286.906378 
L 155.6096 286.726573 
L 156.0064 286.510806 
L 156.4032 287.248009 
L 156.8 286.654651 
L 157.1968 286.690612 
L 157.5936 287.895308 
L 157.9904 286.888398 
L 158.3872 285.647741 
L 158.784 287.28397 
L 159.1808 286.63667 
L 159.5776 287.319931 
L 159.9744 286.852437 
L 160.3712 287.104164 
L 160.768 287.050223 
L 161.1648 286.654651 
L 161.5616 287.068203 
L 161.9584 286.187157 
L 162.3552 286.924359 
L 162.752 287.517717 
L 163.1488 287.589639 
L 163.5456 286.672631 
L 163.9424 286.924359 
L 164.3392 285.503896 
L 164.736 286.906378 
L 165.1328 287.104164 
L 165.5296 285.431974 
L 165.9264 287.032242 
L 166.3232 286.420904 
L 166.72 285.95341 
L 167.1168 287.122145 
L 167.5136 286.384943 
L 167.9104 286.474845 
L 168.3072 287.086184 
L 168.704 287.319931 
L 169.1008 286.528787 
L 169.4976 286.852437 
L 169.8944 286.726573 
L 170.2912 287.212048 
L 170.688 287.050223 
L 171.0848 287.194067 
L 171.4816 286.187157 
L 171.8784 286.456865 
L 172.2752 286.151196 
L 172.672 286.708592 
L 173.0688 288.129055 
L 173.4656 286.223118 
L 173.8624 286.546768 
L 174.2592 286.241098 
L 174.656 287.176086 
L 175.0528 286.564748 
L 175.4496 287.859347 
L 175.8464 285.935429 
L 176.2432 287.787425 
L 176.64 287.158106 
L 177.0368 285.809565 
L 177.4336 287.499736 
L 177.8304 285.755624 
L 178.2272 287.194067 
L 178.624 287.499736 
L 179.0208 285.755624 
L 179.4176 287.373872 
L 179.8144 287.661561 
L 180.2112 287.373872 
L 180.608 286.510806 
L 181.0048 287.265989 
L 181.4016 287.535697 
L 181.7984 286.061293 
L 182.1952 286.852437 
L 182.592 287.787425 
L 182.9888 287.391853 
L 183.3856 285.863507 
L 183.7824 287.176086 
L 184.1792 286.61869 
L 184.576 286.259079 
L 184.9728 287.050223 
L 185.3696 287.355892 
L 185.7664 287.481756 
L 186.1632 287.679542 
L 186.56 286.492826 
L 186.9568 286.816476 
L 187.3536 286.834456 
L 187.7504 286.348982 
L 188.1472 286.492826 
L 188.544 287.373872 
L 188.9408 287.535697 
L 189.3376 286.492826 
L 189.7344 286.708592 
L 190.1312 287.212048 
L 190.528 286.762534 
L 190.9248 287.068203 
L 191.3216 286.996281 
L 191.7184 286.996281 
L 192.1152 287.140125 
L 192.512 287.481756 
L 192.9088 287.122145 
L 193.3056 286.259079 
L 193.7024 287.607619 
L 194.0992 287.787425 
L 194.496 286.672631 
L 194.8928 286.29504 
L 195.2896 287.140125 
L 195.6864 286.582729 
L 196.0832 287.28397 
L 196.48 286.169176 
L 196.8768 286.331001 
L 197.2736 287.140125 
L 197.6704 286.205137 
L 198.0672 287.553678 
L 198.464 287.823386 
L 198.8608 287.230028 
L 199.2576 287.28397 
L 199.6544 286.834456 
L 200.0512 287.715503 
L 200.448 286.780515 
L 200.8448 287.715503 
L 201.2416 287.697522 
L 201.6384 287.086184 
L 202.0352 287.140125 
L 202.432 287.068203 
L 202.8288 286.63667 
L 203.2256 287.140125 
L 203.6224 286.510806 
L 204.0192 287.409834 
L 204.416 287.499736 
L 204.8128 286.366962 
L 205.2096 286.888398 
L 205.6064 286.63667 
L 206.0032 287.589639 
L 206.4 287.445795 
L 206.7968 285.755624 
L 207.1936 287.481756 
L 207.5904 286.564748 
L 207.9872 287.697522 
L 208.384 287.391853 
L 208.7808 285.683702 
L 209.1776 287.517717 
L 209.5744 287.787425 
L 209.9712 286.564748 
L 210.368 286.61869 
L 210.7648 287.319931 
L 211.1616 286.906378 
L 211.5584 286.564748 
L 211.9552 287.104164 
L 212.352 286.798495 
L 212.7488 285.989371 
L 213.1456 286.528787 
L 213.5424 288.021172 
L 213.9392 287.517717 
L 214.336 287.445795 
L 214.7328 286.492826 
L 215.1296 287.140125 
L 215.5264 287.212048 
L 215.9232 287.265989 
L 216.32 287.877328 
L 216.7168 287.481756 
L 217.1136 286.906378 
L 217.5104 287.086184 
L 217.9072 286.223118 
L 218.304 286.942339 
L 218.7008 287.823386 
L 219.0976 286.61869 
L 219.4944 287.787425 
L 219.8912 287.895308 
L 220.288 287.517717 
L 220.6848 286.726573 
L 221.0816 287.733483 
L 221.4784 287.30195 
L 221.8752 286.241098 
L 222.272 286.870417 
L 222.6688 287.104164 
L 223.0656 287.086184 
L 223.4624 286.96032 
L 223.8592 286.834456 
L 224.256 286.978301 
L 224.6528 287.499736 
L 225.0496 286.187157 
L 225.4464 287.194067 
L 225.8432 286.205137 
L 226.24 286.672631 
L 226.6368 287.499736 
L 227.0336 287.769444 
L 227.4304 286.816476 
L 227.8272 287.28397 
L 228.224 286.888398 
L 228.6208 287.409834 
L 229.0176 285.773604 
L 229.4144 287.769444 
L 229.8112 287.014262 
L 230.208 287.499736 
L 230.6048 287.445795 
L 231.0016 286.510806 
L 231.3984 287.679542 
L 231.7952 287.30195 
L 232.192 286.438884 
L 232.5888 287.517717 
L 232.9856 287.30195 
L 233.3824 286.96032 
L 233.7792 287.733483 
L 234.176 287.6256 
L 234.5728 286.528787 
L 234.9696 287.050223 
L 235.3664 287.122145 
L 235.7632 286.438884 
L 236.16 286.420904 
L 236.5568 286.63667 
L 236.9536 286.474845 
L 237.3504 286.708592 
L 237.7472 287.30195 
L 238.144 286.007351 
L 238.5408 286.906378 
L 238.9376 287.30195 
L 239.3344 287.859347 
L 239.7312 286.690612 
L 240.128 287.445795 
L 240.5248 286.510806 
L 240.9216 287.212048 
L 241.3184 287.122145 
L 241.7152 287.248009 
L 242.112 287.823386 
L 242.5088 287.481756 
L 242.9056 286.456865 
L 243.3024 288.578569 
L 243.6992 286.402923 
L 244.096 288.165016 
L 244.4928 285.62976 
L 244.8896 286.906378 
L 245.2864 287.248009 
L 245.6832 287.122145 
L 246.08 287.014262 
L 246.4768 287.194067 
L 246.8736 286.906378 
L 247.2704 286.888398 
L 247.6672 287.94925 
L 248.064 287.427814 
L 248.4608 287.014262 
L 248.8576 287.086184 
L 249.2544 287.517717 
L 249.6512 286.906378 
L 250.048 286.870417 
L 250.4448 287.895308 
L 250.8416 287.589639 
L 251.2384 287.679542 
L 251.6352 287.391853 
L 252.032 287.823386 
L 252.4288 286.996281 
L 252.8256 288.380783 
L 253.2224 288.057133 
L 253.6192 287.427814 
L 254.016 286.133215 
L 254.4128 286.331001 
L 254.8096 287.841366 
L 255.2064 286.978301 
L 255.6032 286.942339 
L 256 287.553678 
L 256.3968 287.517717 
L 256.7936 285.593799 
L 257.1904 286.654651 
L 257.5872 287.337911 
L 257.984 286.942339 
L 258.3808 286.546768 
L 258.7776 286.744554 
L 259.1744 287.032242 
L 259.5712 287.248009 
L 259.968 287.032242 
L 260.3648 288.344822 
L 260.7616 287.841366 
L 261.1584 288.182997 
L 261.5552 286.942339 
L 261.952 287.391853 
L 262.3488 287.787425 
L 262.7456 286.978301 
L 263.1424 286.366962 
L 263.5392 287.805405 
L 263.936 286.816476 
L 264.3328 287.445795 
L 264.7296 286.762534 
L 265.1264 287.877328 
L 265.5232 286.762534 
L 265.92 286.852437 
L 266.3168 287.158106 
L 266.7136 287.373872 
L 267.1104 287.122145 
L 267.5072 286.978301 
L 267.904 287.427814 
L 268.3008 287.553678 
L 268.6976 287.6256 
L 269.0944 286.924359 
L 269.4912 287.877328 
L 269.888 287.643581 
L 270.2848 287.715503 
L 270.6816 286.906378 
L 271.0784 287.373872 
L 271.4752 285.845526 
L 271.872 287.032242 
L 272.2688 287.6256 
L 272.6656 286.331001 
L 273.0624 287.427814 
L 273.4592 286.672631 
L 273.856 287.913289 
L 274.2528 287.571658 
L 274.6496 286.852437 
L 275.0464 287.535697 
L 275.4432 287.391853 
L 275.84 287.068203 
L 276.2368 287.30195 
L 276.6336 287.068203 
L 277.0304 286.816476 
L 277.4272 287.391853 
L 277.824 286.942339 
L 278.2208 286.510806 
L 278.6176 287.409834 
L 279.0144 286.96032 
L 279.4112 286.63667 
L 279.808 287.391853 
L 280.2048 286.888398 
L 280.6016 286.726573 
L 280.9984 287.248009 
L 281.3952 287.122145 
L 281.792 286.726573 
L 282.1888 286.906378 
L 282.5856 287.94925 
L 282.9824 286.546768 
L 283.3792 287.409834 
L 283.776 286.564748 
L 284.1728 287.499736 
L 284.5696 286.474845 
L 284.9664 288.380783 
L 285.3632 287.445795 
L 285.76 286.906378 
L 286.1568 287.409834 
L 286.5536 286.978301 
L 286.9504 287.427814 
L 287.3472 287.931269 
L 287.744 286.600709 
L 288.1408 287.30195 
L 288.5376 286.510806 
L 288.9344 287.679542 
L 289.3312 286.762534 
L 289.728 286.996281 
L 290.1248 287.032242 
L 290.5216 287.158106 
L 290.9184 287.427814 
L 291.3152 286.96032 
L 291.712 287.212048 
L 292.1088 287.230028 
L 292.5056 286.61869 
L 292.9024 286.798495 
L 293.2992 287.805405 
L 293.696 286.96032 
L 294.0928 286.870417 
L 294.4896 287.445795 
L 294.8864 287.661561 
L 295.2832 287.715503 
L 295.68 287.158106 
L 296.0768 286.942339 
L 296.4736 285.863507 
L 296.8704 287.158106 
L 297.2672 286.708592 
L 297.664 287.409834 
L 298.0608 286.762534 
L 298.4576 287.6256 
L 298.8544 287.6256 
L 299.2512 286.708592 
L 299.648 286.672631 
L 300.0448 286.259079 
L 300.4416 286.402923 
L 300.8384 287.499736 
L 301.2352 287.140125 
L 301.632 286.942339 
L 302.0288 287.194067 
L 302.4256 286.61869 
L 302.8224 287.751464 
L 303.2192 286.528787 
L 303.616 287.176086 
L 304.0128 287.985211 
L 304.4096 287.230028 
L 304.8064 287.014262 
L 305.2032 286.762534 
L 305.6 287.212048 
L 305.9968 287.697522 
L 306.3936 286.798495 
L 306.7904 286.96032 
L 307.1872 287.931269 
L 307.584 286.63667 
L 307.9808 287.373872 
L 308.3776 287.212048 
L 308.7744 286.780515 
L 309.1712 286.61869 
L 309.568 287.086184 
L 309.9648 287.859347 
L 310.3616 286.492826 
L 310.7584 286.63667 
L 311.1552 286.96032 
L 311.552 287.607619 
L 311.9488 286.313021 
L 312.3456 287.104164 
L 312.7424 286.978301 
L 313.1392 286.29504 
L 313.536 287.427814 
L 313.9328 287.068203 
L 314.3296 286.906378 
L 314.7264 287.140125 
L 315.1232 287.823386 
L 315.52 286.510806 
L 315.9168 286.96032 
L 316.3136 287.661561 
L 316.7104 286.546768 
L 317.1072 286.654651 
L 317.504 286.205137 
L 317.9008 286.654651 
L 318.2976 286.420904 
L 318.6944 286.780515 
L 319.0912 287.517717 
L 319.488 286.852437 
L 319.8848 287.086184 
L 320.2816 286.115235 
L 320.6784 286.582729 
L 321.0752 286.690612 
L 321.472 286.726573 
L 321.8688 287.319931 
L 322.2656 287.931269 
L 322.6624 286.348982 
L 323.0592 287.94925 
L 323.456 286.133215 
L 323.8528 287.140125 
L 324.2496 287.248009 
L 324.6464 286.546768 
L 325.0432 286.528787 
L 325.44 287.715503 
L 325.8368 286.348982 
L 326.2336 286.402923 
L 326.6304 286.241098 
L 327.0272 286.510806 
L 327.424 287.248009 
L 327.8208 286.870417 
L 328.2176 287.050223 
L 328.6144 287.014262 
L 329.0112 286.313021 
L 329.408 286.780515 
L 329.8048 287.032242 
L 330.2016 286.690612 
L 330.5984 286.762534 
L 330.9952 287.122145 
L 331.392 287.122145 
L 331.7888 287.212048 
L 332.1856 286.61869 
L 332.5824 286.277059 
L 332.9792 287.122145 
L 333.376 287.355892 
L 333.7728 286.906378 
L 334.1696 286.29504 
L 334.5664 286.996281 
L 334.9632 286.61869 
L 335.36 287.751464 
L 335.7568 286.852437 
L 336.1536 287.463775 
L 336.5504 287.355892 
L 336.9472 287.194067 
L 337.344 287.463775 
L 337.7408 286.96032 
L 338.1376 286.924359 
L 338.5344 286.115235 
L 338.9312 287.373872 
L 339.328 287.427814 
L 339.7248 287.140125 
L 340.1216 286.762534 
L 340.5184 286.277059 
L 340.9152 287.373872 
L 341.312 287.517717 
L 341.7088 286.942339 
L 342.1056 286.924359 
L 342.5024 286.277059 
L 342.8992 286.456865 
L 343.296 286.924359 
L 343.6928 286.924359 
L 344.0896 287.050223 
L 344.4864 286.852437 
L 344.8832 286.726573 
L 345.28 287.176086 
L 345.6768 287.481756 
L 346.0736 286.600709 
L 346.4704 287.319931 
L 346.8672 286.96032 
L 347.264 287.337911 
L 347.6608 287.140125 
L 348.0576 286.924359 
L 348.4544 286.888398 
L 348.8512 287.140125 
L 349.248 287.733483 
L 349.6448 286.906378 
L 350.0416 286.564748 
L 350.4384 286.888398 
L 350.8352 287.086184 
L 351.232 287.6256 
L 351.6288 286.996281 
L 352.0256 287.265989 
L 352.4224 287.319931 
L 352.8192 286.474845 
L 353.216 287.194067 
L 353.6128 287.517717 
L 354.0096 286.366962 
L 354.4064 286.708592 
L 354.8032 287.194067 
L 355.2 287.337911 
L 355.5968 286.438884 
L 355.9936 287.715503 
L 356.3904 286.996281 
L 356.7872 287.122145 
L 357.184 287.212048 
L 357.5808 287.409834 
L 357.9776 286.63667 
L 358.3744 287.158106 
L 358.7712 287.319931 
L 359.168 287.158106 
L 359.5648 287.104164 
L 359.9616 287.28397 
L 360.3584 286.546768 
L 360.7552 286.762534 
L 361.152 287.248009 
L 361.5488 286.852437 
L 361.9456 287.230028 
L 362.3424 286.63667 
L 362.7392 287.104164 
L 363.136 286.582729 
L 363.5328 286.816476 
L 363.9296 288.003191 
L 364.3264 286.528787 
L 364.7232 286.582729 
L 365.12 287.607619 
L 365.5168 286.744554 
L 365.9136 287.481756 
L 366.3104 286.924359 
L 366.7072 287.086184 
L 367.104 287.140125 
L 367.5008 286.762534 
L 367.8976 286.906378 
L 368.2944 287.499736 
L 368.6912 287.212048 
L 369.088 287.805405 
L 369.4848 287.28397 
L 369.8816 286.474845 
L 370.2784 286.492826 
L 370.6752 287.697522 
L 371.072 287.859347 
L 371.4688 286.870417 
L 371.8656 288.057133 
L 372.2624 288.057133 
L 372.6592 287.409834 
L 373.056 287.787425 
L 373.4528 286.654651 
L 373.8496 286.870417 
L 374.2464 287.787425 
L 374.6432 287.104164 
L 375.04 286.600709 
L 375.4368 287.499736 
L 375.8336 287.319931 
L 376.2304 288.039152 
L 376.6272 285.917449 
L 377.024 286.942339 
L 377.4208 287.499736 
L 377.8176 286.888398 
L 378.2144 287.697522 
L 378.6112 288.308861 
L 379.008 287.032242 
L 379.4048 287.733483 
L 379.8016 286.870417 
L 380.1984 286.474845 
L 380.5952 286.492826 
L 380.992 286.888398 
L 381.3888 287.176086 
L 381.7856 287.140125 
L 382.1824 287.068203 
L 382.5792 286.924359 
L 382.976 287.265989 
L 383.3728 287.517717 
L 383.7696 286.63667 
L 384.1664 286.96032 
L 384.5632 286.816476 
L 384.96 287.877328 
L 385.3568 287.463775 
L 385.7536 286.762534 
L 386.1504 288.129055 
L 386.5472 287.122145 
L 386.944 287.248009 
L 387.3408 287.553678 
L 387.7376 286.780515 
L 388.1344 286.708592 
L 388.5312 287.517717 
L 388.928 287.050223 
L 389.3248 287.122145 
L 389.7216 287.409834 
L 390.1184 286.402923 
L 390.5152 286.690612 
L 390.912 287.265989 
L 391.3088 287.212048 
L 391.7056 287.050223 
L 392.1024 287.445795 
L 392.4992 287.913289 
L 392.896 287.805405 
L 393.2928 287.661561 
L 393.6896 287.661561 
L 394.0864 287.463775 
L 394.4832 287.014262 
L 394.88 287.319931 
L 395.2768 287.373872 
L 395.6736 287.373872 
L 396.0704 287.212048 
L 396.4672 286.942339 
L 396.864 287.319931 
L 397.2608 286.564748 
L 397.6576 287.050223 
L 398.0544 287.068203 
L 398.4512 287.176086 
L 398.848 288.147036 
L 399.2448 287.158106 
L 399.6416 287.355892 
L 400.0384 286.654651 
L 400.4352 288.021172 
L 400.832 286.870417 
L 401.2288 287.697522 
L 401.6256 286.151196 
L 402.0224 287.6256 
L 402.4192 287.391853 
L 402.816 287.661561 
L 403.2128 286.906378 
L 403.6096 286.888398 
L 404.0064 286.996281 
L 404.4032 287.373872 
L 404.8 287.212048 
L 405.1968 287.28397 
L 405.5936 287.643581 
L 405.9904 286.63667 
L 406.3872 286.852437 
L 406.784 286.384943 
L 407.1808 287.841366 
L 407.5776 287.194067 
L 407.9744 287.014262 
L 408.3712 286.510806 
L 408.768 287.553678 
L 409.1648 287.751464 
L 409.5616 287.643581 
L 409.9584 287.28397 
L 410.3552 287.140125 
L 410.752 287.373872 
L 411.1488 287.212048 
L 411.5456 287.859347 
L 411.9424 286.906378 
L 412.3392 287.212048 
L 412.736 286.996281 
L 413.1328 287.823386 
L 413.5296 287.050223 
L 413.9264 287.068203 
L 414.3232 287.481756 
L 414.72 287.859347 
L 415.1168 287.140125 
L 415.5136 287.679542 
L 415.9104 287.194067 
L 416.3072 286.996281 
L 416.704 287.499736 
L 417.1008 286.061293 
L 417.4976 286.942339 
L 417.8944 286.402923 
L 418.2912 288.380783 
L 418.688 286.474845 
L 419.0848 287.28397 
L 419.4816 287.248009 
L 419.8784 286.29504 
L 420.2752 286.852437 
L 420.672 287.104164 
L 421.0688 287.30195 
L 421.4656 287.607619 
L 421.8624 286.348982 
L 422.2592 287.355892 
L 422.656 286.61869 
L 423.0528 287.176086 
L 423.4496 287.931269 
L 423.8464 287.140125 
L 424.2432 286.924359 
L 424.64 286.942339 
L 425.0368 286.996281 
L 425.4336 287.050223 
L 425.8304 287.086184 
L 426.2272 287.409834 
L 426.624 287.319931 
L 427.0208 287.337911 
L 427.4176 286.942339 
L 427.8144 286.708592 
L 428.2112 286.313021 
L 428.608 287.212048 
L 429.0048 287.787425 
L 429.4016 287.751464 
L 429.7984 287.194067 
L 430.1952 287.158106 
L 430.592 287.068203 
L 430.9888 287.499736 
L 431.3856 286.384943 
L 431.7824 288.057133 
L 432.1792 287.086184 
L 432.576 287.463775 
L 432.9728 286.816476 
L 433.3696 286.402923 
L 433.7664 287.122145 
L 434.1632 287.499736 
L 434.56 286.672631 
L 434.9568 286.097254 
L 435.3536 287.050223 
L 435.7504 286.834456 
L 436.1472 286.870417 
L 436.544 287.643581 
L 436.9408 287.050223 
L 437.3376 288.380783 
L 437.7344 287.571658 
L 438.1312 287.355892 
L 438.528 288.021172 
L 438.9248 287.104164 
L 439.3216 287.733483 
L 439.7184 286.870417 
L 440.1152 286.564748 
L 440.512 286.726573 
L 440.9088 287.517717 
L 441.3056 287.176086 
L 441.7024 287.535697 
L 442.0992 287.355892 
L 442.496 285.791585 
L 442.8928 287.28397 
L 443.2896 287.499736 
L 443.6864 287.122145 
L 444.0832 288.506646 
L 444.48 286.978301 
L 444.8768 286.96032 
L 445.2736 285.989371 
L 445.6704 286.690612 
L 446.0672 286.834456 
L 446.464 286.205137 
L 446.8608 286.762534 
L 447.2576 286.978301 
L 447.6544 286.600709 
L 448.0512 287.355892 
L 448.448 286.510806 
L 448.8448 286.996281 
L 449.2416 286.888398 
L 449.6384 287.014262 
L 450.0352 287.032242 
L 450.432 287.589639 
L 450.8288 287.445795 
L 451.2256 287.427814 
L 451.6224 287.176086 
L 452.0192 287.158106 
L 452.416 287.643581 
L 452.8128 287.28397 
L 453.2096 286.690612 
L 453.6064 286.726573 
L 453.6064 286.151196 
L 453.6064 286.151196 
L 453.2096 285.144285 
L 452.8128 286.654651 
L 452.416 286.241098 
L 452.0192 284.281219 
L 451.6224 285.95341 
L 451.2256 284.784675 
L 450.8288 284.209297 
L 450.432 285.863507 
L 450.0352 285.378032 
L 449.6384 286.313021 
L 449.2416 285.28813 
L 448.8448 285.449955 
L 448.448 283.508056 
L 448.0512 285.539857 
L 447.6544 285.575818 
L 447.2576 285.126305 
L 446.8608 285.360052 
L 446.464 283.759784 
L 446.0672 284.748714 
L 445.6704 284.766694 
L 445.2736 284.64083 
L 444.8768 286.079274 
L 444.48 284.173336 
L 444.0832 285.701682 
L 443.6864 285.557838 
L 443.2896 284.658811 
L 442.8928 284.856597 
L 442.496 284.712752 
L 442.0992 285.647741 
L 441.7024 283.95757 
L 441.3056 284.784675 
L 440.9088 285.701682 
L 440.512 285.180246 
L 440.1152 284.245258 
L 439.7184 284.191317 
L 439.3216 284.766694 
L 438.9248 285.036402 
L 438.528 286.726573 
L 438.1312 285.072363 
L 437.7344 285.162266 
L 437.3376 285.917449 
L 436.9408 284.461025 
L 436.544 287.050223 
L 436.1472 285.863507 
L 435.7504 285.881488 
L 435.3536 285.773604 
L 434.9568 284.892558 
L 434.56 285.413994 
L 434.1632 285.539857 
L 433.7664 286.726573 
L 433.3696 285.413994 
L 432.9728 285.485916 
L 432.576 285.431974 
L 432.1792 285.647741 
L 431.7824 286.870417 
L 431.3856 283.400173 
L 430.9888 285.863507 
L 430.592 285.467935 
L 430.1952 286.528787 
L 429.7984 285.162266 
L 429.4016 285.270149 
L 429.0048 285.737643 
L 428.608 284.730733 
L 428.2112 284.856597 
L 427.8144 284.2992 
L 427.4176 284.946499 
L 427.0208 285.611779 
L 426.624 284.892558 
L 426.2272 285.342071 
L 425.8304 285.917449 
L 425.4336 285.917449 
L 425.0368 285.396013 
L 424.64 284.317181 
L 424.2432 285.647741 
L 423.8464 285.216208 
L 423.4496 286.133215 
L 423.0528 285.108324 
L 422.656 284.407083 
L 422.2592 285.845526 
L 421.8624 285.000441 
L 421.4656 284.766694 
L 421.0688 285.108324 
L 420.672 284.676791 
L 420.2752 285.683702 
L 419.8784 285.557838 
L 419.4816 286.025332 
L 419.0848 285.270149 
L 418.688 285.180246 
L 418.2912 286.079274 
L 417.8944 285.108324 
L 417.4976 284.443044 
L 417.1008 284.874577 
L 416.704 285.234188 
L 416.3072 285.62976 
L 415.9104 285.521877 
L 415.5136 285.935429 
L 415.1168 285.701682 
L 414.72 286.079274 
L 414.3232 286.223118 
L 413.9264 285.072363 
L 413.5296 286.187157 
L 413.1328 286.438884 
L 412.736 285.324091 
L 412.3392 285.521877 
L 411.9424 284.64083 
L 411.5456 286.313021 
L 411.1488 286.61869 
L 410.752 285.431974 
L 410.3552 285.467935 
L 409.9584 284.550928 
L 409.5616 285.503896 
L 409.1648 285.989371 
L 408.768 286.384943 
L 408.3712 284.874577 
L 407.9744 285.683702 
L 407.5776 285.665721 
L 407.1808 286.798495 
L 406.784 284.946499 
L 406.3872 285.593799 
L 405.9904 285.144285 
L 405.5936 286.115235 
L 405.1968 284.550928 
L 404.8 286.007351 
L 404.4032 285.467935 
L 404.0064 284.658811 
L 403.6096 285.791585 
L 403.2128 285.090344 
L 402.816 286.169176 
L 402.4192 285.108324 
L 402.0224 285.072363 
L 401.6256 284.568908 
L 401.2288 286.313021 
L 400.832 285.252169 
L 400.4352 285.611779 
L 400.0384 286.007351 
L 399.6416 284.676791 
L 399.2448 285.755624 
L 398.848 286.151196 
L 398.4512 286.474845 
L 398.0544 286.079274 
L 397.6576 285.755624 
L 397.2608 284.64083 
L 396.864 286.079274 
L 396.4672 285.917449 
L 396.0704 285.324091 
L 395.6736 286.348982 
L 395.2768 285.935429 
L 394.88 285.378032 
L 394.4832 285.575818 
L 394.0864 285.503896 
L 393.6896 284.946499 
L 393.2928 284.425064 
L 392.896 286.492826 
L 392.4992 286.007351 
L 392.1024 285.072363 
L 391.7056 285.701682 
L 391.3088 285.539857 
L 390.912 284.856597 
L 390.5152 286.025332 
L 390.1184 284.910538 
L 389.7216 286.151196 
L 389.3248 285.97139 
L 388.928 285.072363 
L 388.5312 286.277059 
L 388.1344 285.28813 
L 387.7376 285.467935 
L 387.3408 285.791585 
L 386.944 284.96448 
L 386.5472 285.360052 
L 386.1504 286.63667 
L 385.7536 285.018422 
L 385.3568 285.449955 
L 384.96 286.564748 
L 384.5632 286.097254 
L 384.1664 285.521877 
L 383.7696 285.342071 
L 383.3728 285.611779 
L 382.976 285.809565 
L 382.5792 285.252169 
L 382.1824 285.036402 
L 381.7856 286.384943 
L 381.3888 285.755624 
L 380.992 286.007351 
L 380.5952 285.144285 
L 380.1984 284.496986 
L 379.8016 285.737643 
L 379.4048 285.000441 
L 379.008 285.378032 
L 378.6112 286.384943 
L 378.2144 285.413994 
L 377.8176 286.277059 
L 377.4208 286.690612 
L 377.024 285.863507 
L 376.6272 285.30611 
L 376.2304 285.935429 
L 375.8336 285.989371 
L 375.4368 285.378032 
L 375.04 285.30611 
L 374.6432 285.665721 
L 374.2464 286.366962 
L 373.8496 284.514966 
L 373.4528 285.791585 
L 373.056 285.378032 
L 372.6592 285.863507 
L 372.2624 285.917449 
L 371.8656 287.068203 
L 371.4688 285.719663 
L 371.072 286.169176 
L 370.6752 285.396013 
L 370.2784 285.378032 
L 369.8816 284.532947 
L 369.4848 285.144285 
L 369.088 286.366962 
L 368.6912 285.665721 
L 368.2944 286.708592 
L 367.8976 285.324091 
L 367.5008 286.151196 
L 367.104 285.378032 
L 366.7072 286.151196 
L 366.3104 285.090344 
L 365.9136 284.64083 
L 365.5168 284.748714 
L 365.12 285.899468 
L 364.7232 285.198227 
L 364.3264 284.425064 
L 363.9296 285.431974 
L 363.5328 285.360052 
L 363.136 285.162266 
L 362.7392 285.126305 
L 362.3424 286.241098 
L 361.9456 285.863507 
L 361.5488 284.514966 
L 361.152 286.241098 
L 360.7552 285.072363 
L 360.3584 285.665721 
L 359.9616 285.665721 
L 359.5648 284.658811 
L 359.168 285.719663 
L 358.7712 285.809565 
L 358.3744 285.431974 
L 357.9776 285.593799 
L 357.5808 285.791585 
L 357.184 284.820636 
L 356.7872 284.425064 
L 356.3904 285.180246 
L 355.9936 285.162266 
L 355.5968 285.054383 
L 355.2 285.198227 
L 354.8032 284.946499 
L 354.4064 285.324091 
L 354.0096 285.95341 
L 353.6128 286.546768 
L 353.216 286.331001 
L 352.8192 284.64083 
L 352.4224 285.737643 
L 352.0256 286.313021 
L 351.6288 285.000441 
L 351.232 286.007351 
L 350.8352 284.407083 
L 350.4384 285.737643 
L 350.0416 285.827546 
L 349.6448 285.144285 
L 349.248 286.474845 
L 348.8512 285.270149 
L 348.4544 285.485916 
L 348.0576 285.539857 
L 347.6608 285.95341 
L 347.264 286.097254 
L 346.8672 285.647741 
L 346.4704 285.180246 
L 346.0736 285.28813 
L 345.6768 286.438884 
L 345.28 286.115235 
L 344.8832 285.521877 
L 344.4864 285.467935 
L 344.0896 286.348982 
L 343.6928 285.899468 
L 343.296 285.899468 
L 342.8992 285.324091 
L 342.5024 285.431974 
L 342.1056 285.845526 
L 341.7088 285.557838 
L 341.312 285.899468 
L 340.9152 285.863507 
L 340.5184 284.461025 
L 340.1216 285.360052 
L 339.7248 286.438884 
L 339.328 285.701682 
L 338.9312 285.989371 
L 338.5344 285.485916 
L 338.1376 285.647741 
L 337.7408 284.838616 
L 337.344 285.917449 
L 336.9472 285.647741 
L 336.5504 286.798495 
L 336.1536 285.503896 
L 335.7568 284.281219 
L 335.36 285.360052 
L 334.9632 285.503896 
L 334.5664 284.730733 
L 334.1696 285.342071 
L 333.7728 284.694772 
L 333.376 284.389103 
L 332.9792 285.270149 
L 332.5824 285.198227 
L 332.1856 285.755624 
L 331.7888 285.755624 
L 331.392 285.467935 
L 330.9952 286.025332 
L 330.5984 284.856597 
L 330.2016 285.072363 
L 329.8048 284.371122 
L 329.408 285.773604 
L 329.0112 285.000441 
L 328.6144 285.719663 
L 328.2176 286.456865 
L 327.8208 284.802655 
L 327.424 285.827546 
L 327.0272 284.874577 
L 326.6304 285.198227 
L 326.2336 283.418154 
L 325.8368 285.180246 
L 325.44 286.510806 
L 325.0432 285.521877 
L 324.6464 284.712752 
L 324.2496 285.809565 
L 323.8528 285.144285 
L 323.456 285.090344 
L 323.0592 284.604869 
L 322.6624 284.245258 
L 322.2656 285.324091 
L 321.8688 286.313021 
L 321.472 285.28813 
L 321.0752 286.097254 
L 320.6784 284.856597 
L 320.2816 284.802655 
L 319.8848 285.449955 
L 319.488 284.604869 
L 319.0912 285.360052 
L 318.6944 285.144285 
L 318.2976 284.730733 
L 317.9008 284.514966 
L 317.504 285.647741 
L 317.1072 285.342071 
L 316.7104 285.054383 
L 316.3136 286.205137 
L 315.9168 284.137375 
L 315.52 284.910538 
L 315.1232 286.187157 
L 314.7264 285.378032 
L 314.3296 285.252169 
L 313.9328 284.389103 
L 313.536 285.899468 
L 313.1392 284.802655 
L 312.7424 285.000441 
L 312.3456 285.018422 
L 311.9488 284.694772 
L 311.552 286.402923 
L 311.1552 285.863507 
L 310.7584 285.000441 
L 310.3616 284.389103 
L 309.9648 285.719663 
L 309.568 285.503896 
L 309.1712 285.252169 
L 308.7744 284.586889 
L 308.3776 285.665721 
L 307.9808 284.910538 
L 307.584 284.766694 
L 307.1872 284.784675 
L 306.7904 284.730733 
L 306.3936 284.479005 
L 305.9968 286.708592 
L 305.6 286.456865 
L 305.2032 285.62976 
L 304.8064 284.748714 
L 304.4096 285.647741 
L 304.0128 285.899468 
L 303.616 286.025332 
L 303.2192 285.485916 
L 302.8224 284.586889 
L 302.4256 284.874577 
L 302.0288 284.64083 
L 301.632 285.449955 
L 301.2352 284.443044 
L 300.8384 284.532947 
L 300.4416 285.485916 
L 300.0448 285.072363 
L 299.648 285.935429 
L 299.2512 284.982461 
L 298.8544 285.95341 
L 298.4576 284.245258 
L 298.0608 284.856597 
L 297.664 286.187157 
L 297.2672 285.863507 
L 296.8704 286.384943 
L 296.4736 284.568908 
L 296.0768 285.791585 
L 295.68 285.791585 
L 295.2832 285.234188 
L 294.8864 284.766694 
L 294.4896 284.155356 
L 294.0928 285.360052 
L 293.696 285.054383 
L 293.2992 286.870417 
L 292.9024 285.503896 
L 292.5056 284.784675 
L 292.1088 285.989371 
L 291.712 285.467935 
L 291.3152 285.162266 
L 290.9184 286.151196 
L 290.5216 284.856597 
L 290.1248 284.568908 
L 289.728 285.647741 
L 289.3312 285.234188 
L 288.9344 285.95341 
L 288.5376 285.521877 
L 288.1408 284.64083 
L 287.744 285.000441 
L 287.3472 285.270149 
L 286.9504 285.503896 
L 286.5536 284.784675 
L 286.1568 285.575818 
L 285.76 285.198227 
L 285.3632 286.061293 
L 284.9664 285.809565 
L 284.5696 285.018422 
L 284.1728 285.036402 
L 283.776 285.090344 
L 283.3792 285.270149 
L 282.9824 285.773604 
L 282.5856 284.586889 
L 282.1888 285.683702 
L 281.792 285.827546 
L 281.3952 284.982461 
L 280.9984 285.360052 
L 280.6016 285.683702 
L 280.2048 285.845526 
L 279.808 285.324091 
L 279.4112 284.712752 
L 279.0144 285.360052 
L 278.6176 285.431974 
L 278.2208 285.593799 
L 277.824 283.148445 
L 277.4272 284.928519 
L 277.0304 284.245258 
L 276.6336 285.036402 
L 276.2368 285.180246 
L 275.84 285.396013 
L 275.4432 285.216208 
L 275.0464 285.683702 
L 274.6496 285.539857 
L 274.2528 286.151196 
L 273.856 286.169176 
L 273.4592 284.982461 
L 273.0624 284.371122 
L 272.6656 284.119395 
L 272.2688 285.467935 
L 271.872 285.413994 
L 271.4752 283.95757 
L 271.0784 286.169176 
L 270.6816 285.396013 
L 270.2848 285.144285 
L 269.888 286.133215 
L 269.4912 285.252169 
L 269.0944 286.205137 
L 268.6976 285.935429 
L 268.3008 285.180246 
L 267.904 284.910538 
L 267.5072 285.036402 
L 267.1104 285.917449 
L 266.7136 284.802655 
L 266.3168 285.252169 
L 265.92 284.784675 
L 265.5232 285.036402 
L 265.1264 285.090344 
L 264.7296 286.205137 
L 264.3328 285.62976 
L 263.936 284.874577 
L 263.5392 286.816476 
L 263.1424 284.748714 
L 262.7456 285.521877 
L 262.3488 284.928519 
L 261.952 285.396013 
L 261.5552 285.521877 
L 261.1584 285.845526 
L 260.7616 284.62285 
L 260.3648 286.546768 
L 259.968 284.425064 
L 259.5712 285.935429 
L 259.1744 285.108324 
L 258.7776 285.701682 
L 258.3808 285.252169 
L 257.984 285.072363 
L 257.5872 285.324091 
L 257.1904 285.090344 
L 256.7936 284.784675 
L 256.3968 285.30611 
L 256 286.492826 
L 255.6032 285.324091 
L 255.2064 285.665721 
L 254.8096 286.115235 
L 254.4128 284.982461 
L 254.016 285.090344 
L 253.6192 285.809565 
L 253.2224 285.557838 
L 252.8256 286.259079 
L 252.4288 284.96448 
L 252.032 284.838616 
L 251.6352 285.863507 
L 251.2384 286.942339 
L 250.8416 286.007351 
L 250.4448 286.241098 
L 250.048 284.910538 
L 249.6512 285.683702 
L 249.2544 284.928519 
L 248.8576 284.712752 
L 248.4608 285.917449 
L 248.064 286.097254 
L 247.6672 285.485916 
L 247.2704 284.137375 
L 246.8736 284.892558 
L 246.4768 285.809565 
L 246.08 284.694772 
L 245.6832 284.802655 
L 245.2864 284.820636 
L 244.8896 285.144285 
L 244.4928 284.2992 
L 244.096 285.95341 
L 243.6992 285.863507 
L 243.3024 284.317181 
L 242.9056 284.317181 
L 242.5088 285.413994 
L 242.112 285.216208 
L 241.7152 285.252169 
L 241.3184 284.479005 
L 240.9216 284.658811 
L 240.5248 284.443044 
L 240.128 284.479005 
L 239.7312 284.496986 
L 239.3344 286.151196 
L 238.9376 284.101414 
L 238.5408 284.982461 
L 238.144 285.701682 
L 237.7472 285.28813 
L 237.3504 285.000441 
L 236.9536 285.018422 
L 236.5568 285.28813 
L 236.16 285.935429 
L 235.7632 284.245258 
L 235.3664 285.95341 
L 234.9696 284.982461 
L 234.5728 285.378032 
L 234.176 285.198227 
L 233.7792 286.097254 
L 233.3824 283.238348 
L 232.9856 285.557838 
L 232.5888 285.485916 
L 232.192 283.651901 
L 231.7952 285.234188 
L 231.3984 284.64083 
L 231.0016 284.928519 
L 230.6048 284.047472 
L 230.208 285.611779 
L 229.8112 286.151196 
L 229.4144 285.737643 
L 229.0176 284.874577 
L 228.6208 283.29229 
L 228.224 286.169176 
L 227.8272 285.449955 
L 227.4304 285.180246 
L 227.0336 283.669881 
L 226.6368 286.61869 
L 226.24 284.335161 
L 225.8432 284.604869 
L 225.4464 285.270149 
L 225.0496 283.579978 
L 224.6528 285.018422 
L 224.256 283.687862 
L 223.8592 285.95341 
L 223.4624 285.342071 
L 223.0656 285.755624 
L 222.6688 283.579978 
L 222.272 285.665721 
L 221.8752 284.083434 
L 221.4784 284.2992 
L 221.0816 286.151196 
L 220.6848 284.874577 
L 220.288 283.867667 
L 219.8912 286.600709 
L 219.4944 284.856597 
L 219.0976 284.982461 
L 218.7008 285.413994 
L 218.304 285.449955 
L 217.9072 284.910538 
L 217.5104 285.557838 
L 217.1136 285.485916 
L 216.7168 285.701682 
L 216.32 285.198227 
L 215.9232 285.126305 
L 215.5264 285.054383 
L 215.1296 285.413994 
L 214.7328 284.586889 
L 214.336 283.849686 
L 213.9392 284.874577 
L 213.5424 282.752874 
L 213.1456 285.611779 
L 212.7488 283.939589 
L 212.352 286.025332 
L 211.9552 284.173336 
L 211.5584 282.447204 
L 211.1616 285.28813 
L 210.7648 285.809565 
L 210.368 284.496986 
L 209.9712 284.874577 
L 209.5744 285.557838 
L 209.1776 286.331001 
L 208.7808 283.993531 
L 208.384 285.072363 
L 207.9872 285.989371 
L 207.5904 284.389103 
L 207.1936 286.169176 
L 206.7968 284.586889 
L 206.4 285.036402 
L 206.0032 284.784675 
L 205.6064 285.611779 
L 205.2096 285.467935 
L 204.8128 284.461025 
L 204.416 284.730733 
L 204.0192 286.151196 
L 203.6224 283.669881 
L 203.2256 284.730733 
L 202.8288 285.30611 
L 202.432 283.597959 
L 202.0352 285.917449 
L 201.6384 286.402923 
L 201.2416 285.252169 
L 200.8448 286.007351 
L 200.448 284.425064 
L 200.0512 282.878737 
L 199.6544 285.216208 
L 199.2576 285.449955 
L 198.8608 285.593799 
L 198.464 285.360052 
L 198.0672 285.324091 
L 197.6704 284.335161 
L 197.2736 285.863507 
L 196.8768 284.532947 
L 196.48 284.065453 
L 196.0832 285.28813 
L 195.6864 285.090344 
L 195.2896 284.389103 
L 194.8928 284.514966 
L 194.496 283.993531 
L 194.0992 286.097254 
L 193.7024 286.402923 
L 193.3056 285.360052 
L 192.9088 283.939589 
L 192.512 286.223118 
L 192.1152 284.892558 
L 191.7184 284.676791 
L 191.3216 285.198227 
L 190.9248 285.234188 
L 190.528 283.831706 
L 190.1312 285.431974 
L 189.7344 284.658811 
L 189.3376 285.054383 
L 188.9408 284.371122 
L 188.544 285.62976 
L 188.1472 285.647741 
L 187.7504 283.687862 
L 187.3536 285.539857 
L 186.9568 285.503896 
L 186.56 284.137375 
L 186.1632 284.209297 
L 185.7664 283.490076 
L 185.3696 284.407083 
L 184.9728 284.784675 
L 184.576 284.982461 
L 184.1792 284.676791 
L 183.7824 285.935429 
L 183.3856 284.083434 
L 182.9888 284.389103 
L 182.592 285.611779 
L 182.1952 285.899468 
L 181.7984 284.155356 
L 181.4016 285.881488 
L 181.0048 284.96448 
L 180.608 285.270149 
L 180.2112 285.773604 
L 179.8144 285.575818 
L 179.4176 285.575818 
L 179.0208 284.443044 
L 178.624 286.438884 
L 178.2272 284.676791 
L 177.8304 284.443044 
L 177.4336 284.910538 
L 177.0368 284.335161 
L 176.64 283.885648 
L 176.2432 285.719663 
L 175.8464 284.353142 
L 175.4496 286.438884 
L 175.0528 285.30611 
L 174.656 285.28813 
L 174.2592 283.831706 
L 173.8624 285.324091 
L 173.4656 284.928519 
L 173.0688 284.96448 
L 172.672 285.899468 
L 172.2752 285.072363 
L 171.8784 283.831706 
L 171.4816 284.550928 
L 171.0848 285.108324 
L 170.688 285.396013 
L 170.2912 285.719663 
L 169.8944 284.658811 
L 169.4976 284.712752 
L 169.1008 285.413994 
L 168.704 286.007351 
L 168.3072 286.007351 
L 167.9104 284.389103 
L 167.5136 285.180246 
L 167.1168 285.270149 
L 166.72 283.400173 
L 166.3232 285.072363 
L 165.9264 284.892558 
L 165.5296 284.083434 
L 165.1328 284.586889 
L 164.736 285.899468 
L 164.3392 284.514966 
L 163.9424 285.216208 
L 163.5456 285.863507 
L 163.1488 285.431974 
L 162.752 285.090344 
L 162.3552 285.126305 
L 161.9584 284.227278 
L 161.5616 285.521877 
L 161.1648 284.479005 
L 160.768 285.413994 
L 160.3712 285.000441 
L 159.9744 285.252169 
L 159.5776 284.766694 
L 159.1808 285.234188 
L 158.784 286.061293 
L 158.3872 284.604869 
L 157.9904 284.892558 
L 157.5936 285.252169 
L 157.1968 284.263239 
L 156.8 284.982461 
L 156.4032 285.180246 
L 156.0064 283.615939 
L 155.6096 285.162266 
L 155.2128 284.712752 
L 154.816 284.479005 
L 154.4192 284.496986 
L 154.0224 285.324091 
L 153.6256 285.755624 
L 153.2288 285.413994 
L 152.832 285.737643 
L 152.4352 286.438884 
L 152.0384 285.665721 
L 151.6416 284.982461 
L 151.2448 285.054383 
L 150.848 285.072363 
L 150.4512 285.018422 
L 150.0544 285.431974 
L 149.6576 284.604869 
L 149.2608 285.30611 
L 148.864 286.097254 
L 148.4672 286.025332 
L 148.0704 284.353142 
L 147.6736 284.874577 
L 147.2768 284.532947 
L 146.88 285.431974 
L 146.4832 284.802655 
L 146.0864 285.324091 
L 145.6896 284.011511 
L 145.2928 284.946499 
L 144.896 285.144285 
L 144.4992 284.676791 
L 144.1024 284.658811 
L 143.7056 285.413994 
L 143.3088 284.209297 
L 142.912 285.072363 
L 142.5152 285.521877 
L 142.1184 285.413994 
L 141.7216 285.234188 
L 141.3248 285.575818 
L 140.928 285.000441 
L 140.5312 285.396013 
L 140.1344 284.2992 
L 139.7376 285.413994 
L 139.3408 285.072363 
L 138.944 284.514966 
L 138.5472 284.62285 
L 138.1504 286.313021 
L 137.7536 285.665721 
L 137.3568 285.989371 
L 136.96 285.018422 
L 136.5632 285.108324 
L 136.1664 285.108324 
L 135.7696 285.108324 
L 135.3728 286.007351 
L 134.976 286.079274 
L 134.5792 285.162266 
L 134.1824 284.874577 
L 133.7856 283.723823 
L 133.3888 284.568908 
L 132.992 285.162266 
L 132.5952 285.557838 
L 132.1984 285.611779 
L 131.8016 284.910538 
L 131.4048 285.342071 
L 131.008 283.651901 
L 130.6112 284.263239 
L 130.2144 284.425064 
L 129.8176 283.867667 
L 129.4208 285.97139 
L 129.024 284.982461 
L 128.6272 284.730733 
L 128.2304 286.420904 
L 127.8336 285.216208 
L 127.4368 286.366962 
L 127.04 285.881488 
L 126.6432 285.396013 
L 126.2464 285.521877 
L 125.8496 284.784675 
L 125.4528 285.126305 
L 125.056 286.438884 
L 124.6592 284.802655 
L 124.2624 284.892558 
L 123.8656 285.360052 
L 123.4688 284.443044 
L 123.072 285.000441 
L 122.6752 284.730733 
L 122.2784 286.115235 
L 121.8816 286.061293 
L 121.4848 284.820636 
L 121.088 285.413994 
L 120.6912 284.568908 
L 120.2944 285.180246 
L 119.8976 285.97139 
L 119.5008 285.090344 
L 119.104 284.982461 
L 118.7072 285.018422 
L 118.3104 285.000441 
L 117.9136 285.593799 
L 117.5168 285.30611 
L 117.12 284.479005 
L 116.7232 284.910538 
L 116.3264 284.514966 
L 115.9296 285.396013 
L 115.5328 284.245258 
L 115.136 285.126305 
L 114.7392 285.683702 
L 114.3424 285.162266 
L 113.9456 285.611779 
L 113.5488 286.043312 
L 113.152 284.910538 
L 112.7552 284.784675 
L 112.3584 285.126305 
L 111.9616 285.018422 
L 111.5648 285.018422 
L 111.168 285.413994 
L 110.7712 285.252169 
L 110.3744 285.431974 
L 109.9776 285.000441 
L 109.5808 284.443044 
L 109.184 285.575818 
L 108.7872 285.665721 
L 108.3904 284.047472 
L 107.9936 285.575818 
L 107.5968 285.503896 
L 107.2 284.64083 
L 106.8032 285.198227 
L 106.4064 285.917449 
L 106.0096 284.119395 
L 105.6128 284.263239 
L 105.216 284.353142 
L 104.8192 282.860757 
L 104.4224 285.216208 
L 104.0256 284.712752 
L 103.6288 284.514966 
L 103.232 284.64083 
L 102.8352 285.881488 
L 102.4384 285.162266 
L 102.0416 285.198227 
L 101.6448 286.223118 
L 101.248 285.396013 
L 100.8512 284.694772 
L 100.4544 284.676791 
L 100.0576 285.827546 
L 99.6608 285.216208 
L 99.264 284.353142 
L 98.8672 284.2992 
L 98.4704 285.413994 
L 98.0736 285.881488 
L 97.6768 285.449955 
L 97.28 284.694772 
L 96.8832 284.982461 
L 96.4864 284.874577 
L 96.0896 286.331001 
L 95.6928 285.396013 
L 95.296 285.198227 
L 94.8992 285.28813 
L 94.5024 285.252169 
L 94.1056 285.881488 
L 93.7088 285.647741 
L 93.312 284.856597 
L 92.9152 284.910538 
L 92.5184 285.036402 
L 92.1216 283.939589 
L 91.7248 284.96448 
L 91.328 281.674041 
L 90.9312 283.346231 
L 90.5344 283.490076 
L 90.1376 284.874577 
L 89.7408 286.223118 
L 89.344 284.586889 
L 88.9472 284.694772 
L 88.5504 283.903628 
L 88.1536 285.198227 
L 87.7568 283.238348 
L 87.36 284.371122 
L 86.9632 285.342071 
L 86.5664 284.335161 
L 86.1696 282.573068 
L 85.7728 285.090344 
L 85.376 286.438884 
L 84.9792 284.335161 
L 84.5824 283.669881 
L 84.1856 283.220368 
L 83.7888 284.263239 
L 83.392 284.604869 
L 82.9952 285.378032 
L 82.5984 283.436134 
L 82.2016 285.683702 
L 81.8048 285.198227 
L 81.408 284.496986 
L 81.0112 284.173336 
L 80.6144 283.022582 
L 80.2176 284.910538 
L 79.8208 285.342071 
L 79.424 284.802655 
L 79.0272 285.431974 
L 78.6304 284.856597 
L 78.2336 285.791585 
L 77.8368 285.072363 
L 77.44 286.654651 
L 77.0432 284.407083 
L 76.6464 285.827546 
L 76.2496 285.216208 
L 75.8528 285.755624 
L 75.456 285.108324 
L 75.0592 283.490076 
L 74.6624 285.863507 
L 74.2656 284.712752 
L 73.8688 285.072363 
L 73.472 284.748714 
L 73.0752 285.018422 
L 72.6784 283.777764 
L 72.2816 284.838616 
L 71.8848 284.550928 
L 71.488 284.191317 
L 71.0912 284.784675 
L 70.6944 285.270149 
L 70.2976 285.378032 
L 69.9008 285.018422 
L 69.504 284.191317 
L 69.1072 285.108324 
L 68.7104 284.874577 
L 68.3136 285.773604 
L 67.9168 285.108324 
L 67.52 285.018422 
L 67.1232 285.216208 
L 66.7264 285.503896 
L 66.3296 285.575818 
L 65.9328 283.921609 
L 65.536 285.378032 
L 65.1392 285.62976 
L 64.7424 284.335161 
L 64.3456 285.719663 
L 63.9488 285.396013 
L 63.552 286.025332 
L 63.1552 284.155356 
L 62.7584 283.993531 
L 62.3616 285.234188 
L 61.9648 283.29229 
L 61.568 284.910538 
L 61.1712 285.324091 
L 60.7744 284.802655 
L 60.3776 284.227278 
L 59.9808 285.809565 
L 59.584 283.849686 
L 59.1872 284.047472 
L 58.7904 282.842776 
L 58.3936 285.396013 
L 57.9968 283.939589 
z
" style="fill:#1f77b4;fill-opacity:0.25;"/>
   </g>
   <g id="matplotlib.axis_1">
    <g id="xtick_1">
     <g id="line2d_1">
      <defs>
       <path d="M 0 0 
L 0 4.8 
" id="mfefe5f6958" style="stroke:#000000;"/>
      </defs>
      <g>
       <use style="stroke:#000000;" x="57.6" xlink:href="#mfefe5f6958" y="307.584"/>
      </g>
     </g>
     <g id="text_1">
      <!-- 0 -->
      <g transform="translate(54.8005 322.570625)scale(0.088 -0.088)">
       <defs>
        <path d="M 2034 4250 
Q 1547 4250 1301 3770 
Q 1056 3291 1056 2328 
Q 1056 1369 1301 889 
Q 1547 409 2034 409 
Q 2525 409 2770 889 
Q 3016 1369 3016 2328 
Q 3016 3291 2770 3770 
Q 2525 4250 2034 4250 
z
M 2034 4750 
Q 2819 4750 3233 4129 
Q 3647 3509 3647 2328 
Q 3647 1150 3233 529 
Q 2819 -91 2034 -91 
Q 1250 -91 836 529 
Q 422 1150 422 2328 
Q 422 3509 836 4129 
Q 1250 4750 2034 4750 
z
" id="DejaVuSans-30" transform="scale(0.015625)"/>
       </defs>
       <use xlink:href="#DejaVuSans-30"/>
      </g>
     </g>
    </g>
    <g id="xtick_2">
     <g id="line2d_2">
      <g>
       <use style="stroke:#000000;" x="97.28" xlink:href="#mfefe5f6958" y="307.584"/>
      </g>
     </g>
     <g id="text_2">
      <!-- 100 -->
      <g transform="translate(88.8815 322.570625)scale(0.088 -0.088)">
       <defs>
        <path d="M 794 531 
L 1825 531 
L 1825 4091 
L 703 3866 
L 703 4441 
L 1819 4666 
L 2450 4666 
L 2450 531 
L 3481 531 
L 3481 0 
L 794 0 
L 794 531 
z
" id="DejaVuSans-31" transform="scale(0.015625)"/>
       </defs>
       <use xlink:href="#DejaVuSans-31"/>
       <use x="63.623047" xlink:href="#DejaVuSans-30"/>
       <use x="127.246094" xlink:href="#DejaVuSans-30"/>
      </g>
     </g>
    </g>
    <g id="xtick_3">
     <g id="line2d_3">
      <g>
       <use style="stroke:#000000;" x="136.96" xlink:href="#mfefe5f6958" y="307.584"/>
      </g>
     </g>
     <g id="text_3">
      <!-- 200 -->
      <g transform="translate(128.5615 322.570625)scale(0.088 -0.088)">
       <defs>
        <path d="M 1228 531 
L 3431 531 
L 3431 0 
L 469 0 
L 469 531 
Q 828 903 1448 1529 
Q 2069 2156 2228 2338 
Q 2531 2678 2651 2914 
Q 2772 3150 2772 3378 
Q 2772 3750 2511 3984 
Q 2250 4219 1831 4219 
Q 1534 4219 1204 4116 
Q 875 4013 500 3803 
L 500 4441 
Q 881 4594 1212 4672 
Q 1544 4750 1819 4750 
Q 2544 4750 2975 4387 
Q 3406 4025 3406 3419 
Q 3406 3131 3298 2873 
Q 3191 2616 2906 2266 
Q 2828 2175 2409 1742 
Q 1991 1309 1228 531 
z
" id="DejaVuSans-32" transform="scale(0.015625)"/>
       </defs>
       <use xlink:href="#DejaVuSans-32"/>
       <use x="63.623047" xlink:href="#DejaVuSans-30"/>
       <use x="127.246094" xlink:href="#DejaVuSans-30"/>
      </g>
     </g>
    </g>
    <g id="xtick_4">
     <g id="line2d_4">
      <g>
       <use style="stroke:#000000;" x="176.64" xlink:href="#mfefe5f6958" y="307.584"/>
      </g>
     </g>
     <g id="text_4">
      <!-- 300 -->
      <g transform="translate(168.2415 322.570625)scale(0.088 -0.088)">
       <defs>
        <path d="M 2597 2516 
Q 3050 2419 3304 2112 
Q 3559 1806 3559 1356 
Q 3559 666 3084 287 
Q 2609 -91 1734 -91 
Q 1441 -91 1130 -33 
Q 819 25 488 141 
L 488 750 
Q 750 597 1062 519 
Q 1375 441 1716 441 
Q 2309 441 2620 675 
Q 2931 909 2931 1356 
Q 2931 1769 2642 2001 
Q 2353 2234 1838 2234 
L 1294 2234 
L 1294 2753 
L 1863 2753 
Q 2328 2753 2575 2939 
Q 2822 3125 2822 3475 
Q 2822 3834 2567 4026 
Q 2313 4219 1838 4219 
Q 1578 4219 1281 4162 
Q 984 4106 628 3988 
L 628 4550 
Q 988 4650 1302 4700 
Q 1616 4750 1894 4750 
Q 2613 4750 3031 4423 
Q 3450 4097 3450 3541 
Q 3450 3153 3228 2886 
Q 3006 2619 2597 2516 
z
" id="DejaVuSans-33" transform="scale(0.015625)"/>
       </defs>
       <use xlink:href="#DejaVuSans-33"/>
       <use x="63.623047" xlink:href="#DejaVuSans-30"/>
       <use x="127.246094" xlink:href="#DejaVuSans-30"/>
      </g>
     </g>
    </g>
    <g id="xtick_5">
     <g id="line2d_5">
      <g>
       <use style="stroke:#000000;" x="216.32" xlink:href="#mfefe5f6958" y="307.584"/>
      </g>
     </g>
     <g id="text_5">
      <!-- 400 -->
      <g transform="translate(207.9215 322.570625)scale(0.088 -0.088)">
       <defs>
        <path d="M 2419 4116 
L 825 1625 
L 2419 1625 
L 2419 4116 
z
M 2253 4666 
L 3047 4666 
L 3047 1625 
L 3713 1625 
L 3713 1100 
L 3047 1100 
L 3047 0 
L 2419 0 
L 2419 1100 
L 313 1100 
L 313 1709 
L 2253 4666 
z
" id="DejaVuSans-34" transform="scale(0.015625)"/>
       </defs>
       <use xlink:href="#DejaVuSans-34"/>
       <use x="63.623047" xlink:href="#DejaVuSans-30"/>
       <use x="127.246094" xlink:href="#DejaVuSans-30"/>
      </g>
     </g>
    </g>
    <g id="xtick_6">
     <g id="line2d_6">
      <g>
       <use style="stroke:#000000;" x="256" xlink:href="#mfefe5f6958" y="307.584"/>
      </g>
     </g>
     <g id="text_6">
      <!-- 500 -->
      <g transform="translate(247.6015 322.570625)scale(0.088 -0.088)">
       <defs>
        <path d="M 691 4666 
L 3169 4666 
L 3169 4134 
L 1269 4134 
L 1269 2991 
Q 1406 3038 1543 3061 
Q 1681 3084 1819 3084 
Q 2600 3084 3056 2656 
Q 3513 2228 3513 1497 
Q 3513 744 3044 326 
Q 2575 -91 1722 -91 
Q 1428 -91 1123 -41 
Q 819 9 494 109 
L 494 744 
Q 775 591 1075 516 
Q 1375 441 1709 441 
Q 2250 441 2565 725 
Q 2881 1009 2881 1497 
Q 2881 1984 2565 2268 
Q 2250 2553 1709 2553 
Q 1456 2553 1204 2497 
Q 953 2441 691 2322 
L 691 4666 
z
" id="DejaVuSans-35" transform="scale(0.015625)"/>
       </defs>
       <use xlink:href="#DejaVuSans-35"/>
       <use x="63.623047" xlink:href="#DejaVuSans-30"/>
       <use x="127.246094" xlink:href="#DejaVuSans-30"/>
      </g>
     </g>
    </g>
    <g id="xtick_7">
     <g id="line2d_7">
      <g>
       <use style="stroke:#000000;" x="295.68" xlink:href="#mfefe5f6958" y="307.584"/>
      </g>
     </g>
     <g id="text_7">
      <!-- 600 -->
      <g transform="translate(287.2815 322.570625)scale(0.088 -0.088)">
       <defs>
        <path d="M 2113 2584 
Q 1688 2584 1439 2293 
Q 1191 2003 1191 1497 
Q 1191 994 1439 701 
Q 1688 409 2113 409 
Q 2538 409 2786 701 
Q 3034 994 3034 1497 
Q 3034 2003 2786 2293 
Q 2538 2584 2113 2584 
z
M 3366 4563 
L 3366 3988 
Q 3128 4100 2886 4159 
Q 2644 4219 2406 4219 
Q 1781 4219 1451 3797 
Q 1122 3375 1075 2522 
Q 1259 2794 1537 2939 
Q 1816 3084 2150 3084 
Q 2853 3084 3261 2657 
Q 3669 2231 3669 1497 
Q 3669 778 3244 343 
Q 2819 -91 2113 -91 
Q 1303 -91 875 529 
Q 447 1150 447 2328 
Q 447 3434 972 4092 
Q 1497 4750 2381 4750 
Q 2619 4750 2861 4703 
Q 3103 4656 3366 4563 
z
" id="DejaVuSans-36" transform="scale(0.015625)"/>
       </defs>
       <use xlink:href="#DejaVuSans-36"/>
       <use x="63.623047" xlink:href="#DejaVuSans-30"/>
       <use x="127.246094" xlink:href="#DejaVuSans-30"/>
      </g>
     </g>
    </g>
    <g id="xtick_8">
     <g id="line2d_8">
      <g>
       <use style="stroke:#000000;" x="335.36" xlink:href="#mfefe5f6958" y="307.584"/>
      </g>
     </g>
     <g id="text_8">
      <!-- 700 -->
      <g transform="translate(326.9615 322.570625)scale(0.088 -0.088)">
       <defs>
        <path d="M 525 4666 
L 3525 4666 
L 3525 4397 
L 1831 0 
L 1172 0 
L 2766 4134 
L 525 4134 
L 525 4666 
z
" id="DejaVuSans-37" transform="scale(0.015625)"/>
       </defs>
       <use xlink:href="#DejaVuSans-37"/>
       <use x="63.623047" xlink:href="#DejaVuSans-30"/>
       <use x="127.246094" xlink:href="#DejaVuSans-30"/>
      </g>
     </g>
    </g>
    <g id="xtick_9">
     <g id="line2d_9">
      <g>
       <use style="stroke:#000000;" x="375.04" xlink:href="#mfefe5f6958" y="307.584"/>
      </g>
     </g>
     <g id="text_9">
      <!-- 800 -->
      <g transform="translate(366.6415 322.570625)scale(0.088 -0.088)">
       <defs>
        <path d="M 2034 2216 
Q 1584 2216 1326 1975 
Q 1069 1734 1069 1313 
Q 1069 891 1326 650 
Q 1584 409 2034 409 
Q 2484 409 2743 651 
Q 3003 894 3003 1313 
Q 3003 1734 2745 1975 
Q 2488 2216 2034 2216 
z
M 1403 2484 
Q 997 2584 770 2862 
Q 544 3141 544 3541 
Q 544 4100 942 4425 
Q 1341 4750 2034 4750 
Q 2731 4750 3128 4425 
Q 3525 4100 3525 3541 
Q 3525 3141 3298 2862 
Q 3072 2584 2669 2484 
Q 3125 2378 3379 2068 
Q 3634 1759 3634 1313 
Q 3634 634 3220 271 
Q 2806 -91 2034 -91 
Q 1263 -91 848 271 
Q 434 634 434 1313 
Q 434 1759 690 2068 
Q 947 2378 1403 2484 
z
M 1172 3481 
Q 1172 3119 1398 2916 
Q 1625 2713 2034 2713 
Q 2441 2713 2670 2916 
Q 2900 3119 2900 3481 
Q 2900 3844 2670 4047 
Q 2441 4250 2034 4250 
Q 1625 4250 1398 4047 
Q 1172 3844 1172 3481 
z
" id="DejaVuSans-38" transform="scale(0.015625)"/>
       </defs>
       <use xlink:href="#DejaVuSans-38"/>
       <use x="63.623047" xlink:href="#DejaVuSans-30"/>
       <use x="127.246094" xlink:href="#DejaVuSans-30"/>
      </g>
     </g>
    </g>
    <g id="xtick_10">
     <g id="line2d_10">
      <g>
       <use style="stroke:#000000;" x="414.72" xlink:href="#mfefe5f6958" y="307.584"/>
      </g>
     </g>
     <g id="text_10">
      <!-- 900 -->
      <g transform="translate(406.3215 322.570625)scale(0.088 -0.088)">
       <defs>
        <path d="M 703 97 
L 703 672 
Q 941 559 1184 500 
Q 1428 441 1663 441 
Q 2288 441 2617 861 
Q 2947 1281 2994 2138 
Q 2813 1869 2534 1725 
Q 2256 1581 1919 1581 
Q 1219 1581 811 2004 
Q 403 2428 403 3163 
Q 403 3881 828 4315 
Q 1253 4750 1959 4750 
Q 2769 4750 3195 4129 
Q 3622 3509 3622 2328 
Q 3622 1225 3098 567 
Q 2575 -91 1691 -91 
Q 1453 -91 1209 -44 
Q 966 3 703 97 
z
M 1959 2075 
Q 2384 2075 2632 2365 
Q 2881 2656 2881 3163 
Q 2881 3666 2632 3958 
Q 2384 4250 1959 4250 
Q 1534 4250 1286 3958 
Q 1038 3666 1038 3163 
Q 1038 2656 1286 2365 
Q 1534 2075 1959 2075 
z
" id="DejaVuSans-39" transform="scale(0.015625)"/>
       </defs>
       <use xlink:href="#DejaVuSans-39"/>
       <use x="63.623047" xlink:href="#DejaVuSans-30"/>
       <use x="127.246094" xlink:href="#DejaVuSans-30"/>
      </g>
     </g>
    </g>
    <g id="text_11">
     <!-- Timestep -->
     <g transform="translate(214.03275 335.69525)scale(0.096 -0.096)">
      <defs>
       <path d="M -19 4666 
L 3928 4666 
L 3928 4134 
L 2272 4134 
L 2272 0 
L 1638 0 
L 1638 4134 
L -19 4134 
L -19 4666 
z
" id="DejaVuSans-54" transform="scale(0.015625)"/>
       <path d="M 603 3500 
L 1178 3500 
L 1178 0 
L 603 0 
L 603 3500 
z
M 603 4863 
L 1178 4863 
L 1178 4134 
L 603 4134 
L 603 4863 
z
" id="DejaVuSans-69" transform="scale(0.015625)"/>
       <path d="M 3328 2828 
Q 3544 3216 3844 3400 
Q 4144 3584 4550 3584 
Q 5097 3584 5394 3201 
Q 5691 2819 5691 2113 
L 5691 0 
L 5113 0 
L 5113 2094 
Q 5113 2597 4934 2840 
Q 4756 3084 4391 3084 
Q 3944 3084 3684 2787 
Q 3425 2491 3425 1978 
L 3425 0 
L 2847 0 
L 2847 2094 
Q 2847 2600 2669 2842 
Q 2491 3084 2119 3084 
Q 1678 3084 1418 2786 
Q 1159 2488 1159 1978 
L 1159 0 
L 581 0 
L 581 3500 
L 1159 3500 
L 1159 2956 
Q 1356 3278 1631 3431 
Q 1906 3584 2284 3584 
Q 2666 3584 2933 3390 
Q 3200 3197 3328 2828 
z
" id="DejaVuSans-6d" transform="scale(0.015625)"/>
       <path d="M 3597 1894 
L 3597 1613 
L 953 1613 
Q 991 1019 1311 708 
Q 1631 397 2203 397 
Q 2534 397 2845 478 
Q 3156 559 3463 722 
L 3463 178 
Q 3153 47 2828 -22 
Q 2503 -91 2169 -91 
Q 1331 -91 842 396 
Q 353 884 353 1716 
Q 353 2575 817 3079 
Q 1281 3584 2069 3584 
Q 2775 3584 3186 3129 
Q 3597 2675 3597 1894 
z
M 3022 2063 
Q 3016 2534 2758 2815 
Q 2500 3097 2075 3097 
Q 1594 3097 1305 2825 
Q 1016 2553 972 2059 
L 3022 2063 
z
" id="DejaVuSans-65" transform="scale(0.015625)"/>
       <path d="M 2834 3397 
L 2834 2853 
Q 2591 2978 2328 3040 
Q 2066 3103 1784 3103 
Q 1356 3103 1142 2972 
Q 928 2841 928 2578 
Q 928 2378 1081 2264 
Q 1234 2150 1697 2047 
L 1894 2003 
Q 2506 1872 2764 1633 
Q 3022 1394 3022 966 
Q 3022 478 2636 193 
Q 2250 -91 1575 -91 
Q 1294 -91 989 -36 
Q 684 19 347 128 
L 347 722 
Q 666 556 975 473 
Q 1284 391 1588 391 
Q 1994 391 2212 530 
Q 2431 669 2431 922 
Q 2431 1156 2273 1281 
Q 2116 1406 1581 1522 
L 1381 1569 
Q 847 1681 609 1914 
Q 372 2147 372 2553 
Q 372 3047 722 3315 
Q 1072 3584 1716 3584 
Q 2034 3584 2315 3537 
Q 2597 3491 2834 3397 
z
" id="DejaVuSans-73" transform="scale(0.015625)"/>
       <path d="M 1172 4494 
L 1172 3500 
L 2356 3500 
L 2356 3053 
L 1172 3053 
L 1172 1153 
Q 1172 725 1289 603 
Q 1406 481 1766 481 
L 2356 481 
L 2356 0 
L 1766 0 
Q 1100 0 847 248 
Q 594 497 594 1153 
L 594 3053 
L 172 3053 
L 172 3500 
L 594 3500 
L 594 4494 
L 1172 4494 
z
" id="DejaVuSans-74" transform="scale(0.015625)"/>
       <path d="M 1159 525 
L 1159 -1331 
L 581 -1331 
L 581 3500 
L 1159 3500 
L 1159 2969 
Q 1341 3281 1617 3432 
Q 1894 3584 2278 3584 
Q 2916 3584 3314 3078 
Q 3713 2572 3713 1747 
Q 3713 922 3314 415 
Q 2916 -91 2278 -91 
Q 1894 -91 1617 61 
Q 1341 213 1159 525 
z
M 3116 1747 
Q 3116 2381 2855 2742 
Q 2594 3103 2138 3103 
Q 1681 3103 1420 2742 
Q 1159 2381 1159 1747 
Q 1159 1113 1420 752 
Q 1681 391 2138 391 
Q 2594 391 2855 752 
Q 3116 1113 3116 1747 
z
" id="DejaVuSans-70" transform="scale(0.015625)"/>
      </defs>
      <use xlink:href="#DejaVuSans-54"/>
      <use x="57.958984" xlink:href="#DejaVuSans-69"/>
      <use x="85.742188" xlink:href="#DejaVuSans-6d"/>
      <use x="183.154297" xlink:href="#DejaVuSans-65"/>
      <use x="244.677734" xlink:href="#DejaVuSans-73"/>
      <use x="296.777344" xlink:href="#DejaVuSans-74"/>
      <use x="335.986328" xlink:href="#DejaVuSans-65"/>
      <use x="397.509766" xlink:href="#DejaVuSans-70"/>
     </g>
    </g>
   </g>
   <g id="matplotlib.axis_2">
    <g id="ytick_1">
     <g id="line2d_11">
      <defs>
       <path d="M 0 0 
L -4.8 0 
" id="m2c52e549bc" style="stroke:#000000;"/>
      </defs>
      <g>
       <use style="stroke:#000000;" x="57.6" xlink:href="#m2c52e549bc" y="293.199568"/>
      </g>
     </g>
     <g id="text_12">
      <!-- 0 -->
      <g transform="translate(43.701 296.54288)scale(0.088 -0.088)">
       <use xlink:href="#DejaVuSans-30"/>
      </g>
     </g>
    </g>
    <g id="ytick_2">
     <g id="line2d_12">
      <g>
       <use style="stroke:#000000;" x="57.6" xlink:href="#m2c52e549bc" y="257.238486"/>
      </g>
     </g>
     <g id="text_13">
      <!-- 5 -->
      <g transform="translate(43.701 260.581799)scale(0.088 -0.088)">
       <use xlink:href="#DejaVuSans-35"/>
      </g>
     </g>
    </g>
    <g id="ytick_3">
     <g id="line2d_13">
      <g>
       <use style="stroke:#000000;" x="57.6" xlink:href="#m2c52e549bc" y="221.277405"/>
      </g>
     </g>
     <g id="text_14">
      <!-- 10 -->
      <g transform="translate(38.102 224.620718)scale(0.088 -0.088)">
       <use xlink:href="#DejaVuSans-31"/>
       <use x="63.623047" xlink:href="#DejaVuSans-30"/>
      </g>
     </g>
    </g>
    <g id="ytick_4">
     <g id="line2d_14">
      <g>
       <use style="stroke:#000000;" x="57.6" xlink:href="#m2c52e549bc" y="185.316324"/>
      </g>
     </g>
     <g id="text_15">
      <!-- 15 -->
      <g transform="translate(38.102 188.659637)scale(0.088 -0.088)">
       <use xlink:href="#DejaVuSans-31"/>
       <use x="63.623047" xlink:href="#DejaVuSans-35"/>
      </g>
     </g>
    </g>
    <g id="ytick_5">
     <g id="line2d_15">
      <g>
       <use style="stroke:#000000;" x="57.6" xlink:href="#m2c52e549bc" y="149.355243"/>
      </g>
     </g>
     <g id="text_16">
      <!-- 20 -->
      <g transform="translate(38.102 152.698556)scale(0.088 -0.088)">
       <use xlink:href="#DejaVuSans-32"/>
       <use x="63.623047" xlink:href="#DejaVuSans-30"/>
      </g>
     </g>
    </g>
    <g id="ytick_6">
     <g id="line2d_16">
      <g>
       <use style="stroke:#000000;" x="57.6" xlink:href="#m2c52e549bc" y="113.394162"/>
      </g>
     </g>
     <g id="text_17">
      <!-- 25 -->
      <g transform="translate(38.102 116.737475)scale(0.088 -0.088)">
       <use xlink:href="#DejaVuSans-32"/>
       <use x="63.623047" xlink:href="#DejaVuSans-35"/>
      </g>
     </g>
    </g>
    <g id="ytick_7">
     <g id="line2d_17">
      <g>
       <use style="stroke:#000000;" x="57.6" xlink:href="#m2c52e549bc" y="77.433081"/>
      </g>
     </g>
     <g id="text_18">
      <!-- 30 -->
      <g transform="translate(38.102 80.776394)scale(0.088 -0.088)">
       <use xlink:href="#DejaVuSans-33"/>
       <use x="63.623047" xlink:href="#DejaVuSans-30"/>
      </g>
     </g>
    </g>
    <g id="ytick_8">
     <g id="line2d_18">
      <g>
       <use style="stroke:#000000;" x="57.6" xlink:href="#m2c52e549bc" y="41.472"/>
      </g>
     </g>
     <g id="text_19">
      <!-- 35 -->
      <g transform="translate(38.102 44.815313)scale(0.088 -0.088)">
       <use xlink:href="#DejaVuSans-33"/>
       <use x="63.623047" xlink:href="#DejaVuSans-35"/>
      </g>
     </g>
    </g>
    <g id="text_20">
     <!-- Reward -->
     <g transform="translate(32.1055 192.40425)rotate(-90)scale(0.096 -0.096)">
      <defs>
       <path d="M 2841 2188 
Q 3044 2119 3236 1894 
Q 3428 1669 3622 1275 
L 4263 0 
L 3584 0 
L 2988 1197 
Q 2756 1666 2539 1819 
Q 2322 1972 1947 1972 
L 1259 1972 
L 1259 0 
L 628 0 
L 628 4666 
L 2053 4666 
Q 2853 4666 3247 4331 
Q 3641 3997 3641 3322 
Q 3641 2881 3436 2590 
Q 3231 2300 2841 2188 
z
M 1259 4147 
L 1259 2491 
L 2053 2491 
Q 2509 2491 2742 2702 
Q 2975 2913 2975 3322 
Q 2975 3731 2742 3939 
Q 2509 4147 2053 4147 
L 1259 4147 
z
" id="DejaVuSans-52" transform="scale(0.015625)"/>
       <path d="M 269 3500 
L 844 3500 
L 1563 769 
L 2278 3500 
L 2956 3500 
L 3675 769 
L 4391 3500 
L 4966 3500 
L 4050 0 
L 3372 0 
L 2619 2869 
L 1863 0 
L 1184 0 
L 269 3500 
z
" id="DejaVuSans-77" transform="scale(0.015625)"/>
       <path d="M 2194 1759 
Q 1497 1759 1228 1600 
Q 959 1441 959 1056 
Q 959 750 1161 570 
Q 1363 391 1709 391 
Q 2188 391 2477 730 
Q 2766 1069 2766 1631 
L 2766 1759 
L 2194 1759 
z
M 3341 1997 
L 3341 0 
L 2766 0 
L 2766 531 
Q 2569 213 2275 61 
Q 1981 -91 1556 -91 
Q 1019 -91 701 211 
Q 384 513 384 1019 
Q 384 1609 779 1909 
Q 1175 2209 1959 2209 
L 2766 2209 
L 2766 2266 
Q 2766 2663 2505 2880 
Q 2244 3097 1772 3097 
Q 1472 3097 1187 3025 
Q 903 2953 641 2809 
L 641 3341 
Q 956 3463 1253 3523 
Q 1550 3584 1831 3584 
Q 2591 3584 2966 3190 
Q 3341 2797 3341 1997 
z
" id="DejaVuSans-61" transform="scale(0.015625)"/>
       <path d="M 2631 2963 
Q 2534 3019 2420 3045 
Q 2306 3072 2169 3072 
Q 1681 3072 1420 2755 
Q 1159 2438 1159 1844 
L 1159 0 
L 581 0 
L 581 3500 
L 1159 3500 
L 1159 2956 
Q 1341 3275 1631 3429 
Q 1922 3584 2338 3584 
Q 2397 3584 2469 3576 
Q 2541 3569 2628 3553 
L 2631 2963 
z
" id="DejaVuSans-72" transform="scale(0.015625)"/>
       <path d="M 2906 2969 
L 2906 4863 
L 3481 4863 
L 3481 0 
L 2906 0 
L 2906 525 
Q 2725 213 2448 61 
Q 2172 -91 1784 -91 
Q 1150 -91 751 415 
Q 353 922 353 1747 
Q 353 2572 751 3078 
Q 1150 3584 1784 3584 
Q 2172 3584 2448 3432 
Q 2725 3281 2906 2969 
z
M 947 1747 
Q 947 1113 1208 752 
Q 1469 391 1925 391 
Q 2381 391 2643 752 
Q 2906 1113 2906 1747 
Q 2906 2381 2643 2742 
Q 2381 3103 1925 3103 
Q 1469 3103 1208 2742 
Q 947 2381 947 1747 
z
" id="DejaVuSans-64" transform="scale(0.015625)"/>
      </defs>
      <use xlink:href="#DejaVuSans-52"/>
      <use x="64.982422" xlink:href="#DejaVuSans-65"/>
      <use x="126.505859" xlink:href="#DejaVuSans-77"/>
      <use x="208.292969" xlink:href="#DejaVuSans-61"/>
      <use x="269.572266" xlink:href="#DejaVuSans-72"/>
      <use x="308.935547" xlink:href="#DejaVuSans-64"/>
     </g>
    </g>
   </g>
   <g id="line2d_19">
    <path clip-path="url(#p7e00856e97)" d="M 57.9968 285.611779 
L 58.3936 286.762534 
L 58.7904 286.115235 
L 59.1872 285.863507 
L 59.584 286.079274 
L 59.9808 286.942339 
L 60.3776 285.072363 
L 60.7744 285.935429 
L 61.1712 286.474845 
L 61.568 285.97139 
L 61.9648 286.043312 
L 62.3616 286.61869 
L 62.7584 284.748714 
L 63.1552 286.29504 
L 63.552 287.086184 
L 63.9488 285.935429 
L 64.3456 286.151196 
L 64.7424 285.539857 
L 65.1392 286.331001 
L 65.536 286.654651 
L 65.9328 284.892558 
L 66.3296 286.043312 
L 66.7264 285.899468 
L 67.1232 285.467935 
L 67.52 285.216208 
L 67.9168 286.546768 
L 68.3136 286.474845 
L 68.7104 285.935429 
L 69.1072 285.97139 
L 69.504 285.072363 
L 69.9008 286.043312 
L 70.2976 286.654651 
L 70.6944 285.719663 
L 71.0912 285.863507 
L 71.488 285.647741 
L 71.8848 285.144285 
L 72.2816 285.252169 
L 72.6784 286.61869 
L 73.0752 285.755624 
L 73.8688 286.402923 
L 74.2656 286.115235 
L 74.6624 287.086184 
L 75.0592 285.431974 
L 75.456 285.719663 
L 75.8528 286.151196 
L 76.2496 286.870417 
L 76.6464 286.259079 
L 77.0432 286.259079 
L 77.44 287.050223 
L 77.8368 286.007351 
L 78.2336 286.690612 
L 78.6304 286.259079 
L 79.0272 286.29504 
L 79.424 285.935429 
L 79.8208 286.079274 
L 80.2176 285.827546 
L 80.6144 286.61869 
L 81.0112 284.928519 
L 81.408 285.575818 
L 81.8048 286.474845 
L 82.2016 286.29504 
L 82.5984 284.856597 
L 82.9952 286.331001 
L 83.392 285.647741 
L 83.7888 285.647741 
L 84.1856 286.187157 
L 84.5824 285.467935 
L 84.9792 286.366962 
L 85.376 286.906378 
L 85.7728 286.654651 
L 86.1696 285.216208 
L 86.5664 285.683702 
L 86.9632 286.366962 
L 87.36 286.259079 
L 87.7568 285.97139 
L 88.5504 286.510806 
L 88.9472 285.396013 
L 89.344 286.223118 
L 89.7408 286.510806 
L 90.1376 285.719663 
L 90.5344 285.324091 
L 90.9312 285.863507 
L 91.328 285.575818 
L 91.7248 286.366962 
L 92.5184 285.791585 
L 93.312 285.827546 
L 93.7088 286.474845 
L 94.1056 286.438884 
L 94.5024 286.798495 
L 94.8992 285.935429 
L 95.296 286.187157 
L 95.6928 287.194067 
L 96.0896 287.050223 
L 96.4864 286.331001 
L 96.8832 286.187157 
L 97.28 285.431974 
L 97.6768 285.97139 
L 98.0736 287.158106 
L 98.8672 286.402923 
L 99.264 286.223118 
L 99.6608 286.834456 
L 100.0576 286.546768 
L 100.4544 286.043312 
L 100.8512 286.259079 
L 101.6448 287.050223 
L 102.0416 285.683702 
L 102.4384 286.510806 
L 102.8352 286.366962 
L 103.232 285.252169 
L 103.6288 285.216208 
L 104.0256 285.863507 
L 104.4224 285.575818 
L 104.8192 284.353142 
L 105.216 285.683702 
L 106.0096 285.467935 
L 106.4064 287.014262 
L 106.8032 286.61869 
L 107.2 286.61869 
L 107.5968 286.187157 
L 108.3904 285.97139 
L 108.7872 286.582729 
L 109.184 286.510806 
L 109.5808 286.007351 
L 109.9776 286.474845 
L 110.7712 286.438884 
L 111.168 286.834456 
L 111.5648 286.29504 
L 111.9616 285.97139 
L 112.3584 285.791585 
L 112.7552 285.144285 
L 113.152 285.539857 
L 113.5488 286.366962 
L 113.9456 286.402923 
L 114.3424 285.863507 
L 114.7392 286.546768 
L 115.136 286.259079 
L 115.5328 284.820636 
L 115.9296 286.259079 
L 116.3264 285.431974 
L 116.7232 286.043312 
L 117.12 285.755624 
L 117.5168 286.151196 
L 117.9136 286.29504 
L 119.104 285.611779 
L 119.5008 285.827546 
L 119.8976 287.553678 
L 120.2944 285.647741 
L 121.088 285.899468 
L 121.4848 286.29504 
L 121.8816 286.510806 
L 122.2784 286.906378 
L 122.6752 285.755624 
L 123.072 285.791585 
L 123.4688 286.151196 
L 123.8656 286.115235 
L 124.2624 286.259079 
L 124.6592 286.259079 
L 125.056 286.870417 
L 125.4528 285.539857 
L 125.8496 286.510806 
L 126.2464 286.259079 
L 126.6432 286.223118 
L 127.04 286.510806 
L 127.4368 286.474845 
L 127.8336 286.151196 
L 128.2304 287.086184 
L 128.6272 285.611779 
L 129.024 286.762534 
L 129.4208 286.438884 
L 129.8176 285.072363 
L 130.2144 285.827546 
L 130.6112 285.431974 
L 131.008 285.28813 
L 131.4048 286.115235 
L 131.8016 285.467935 
L 132.5952 286.438884 
L 132.992 285.539857 
L 133.3888 286.402923 
L 133.7856 284.604869 
L 134.1824 286.151196 
L 134.5792 285.791585 
L 134.976 287.014262 
L 135.3728 286.331001 
L 135.7696 286.079274 
L 136.1664 286.690612 
L 136.5632 285.935429 
L 136.96 285.899468 
L 137.3568 286.654651 
L 137.7536 286.259079 
L 138.1504 286.582729 
L 138.5472 286.331001 
L 138.944 285.503896 
L 139.3408 286.187157 
L 139.7376 286.29504 
L 140.1344 285.503896 
L 140.5312 286.29504 
L 140.928 285.360052 
L 141.3248 285.755624 
L 141.7216 285.899468 
L 142.5152 286.474845 
L 142.912 285.97139 
L 143.3088 285.755624 
L 143.7056 286.007351 
L 144.4992 285.431974 
L 145.2928 286.007351 
L 145.6896 285.755624 
L 146.0864 286.438884 
L 146.4832 285.755624 
L 146.88 285.863507 
L 147.2768 285.431974 
L 147.6736 285.719663 
L 148.0704 285.755624 
L 148.4672 286.906378 
L 148.864 286.546768 
L 149.2608 285.755624 
L 149.6576 285.539857 
L 150.0544 286.366962 
L 150.4512 286.079274 
L 150.848 286.223118 
L 151.2448 285.827546 
L 151.6416 285.647741 
L 152.0384 286.007351 
L 152.4352 286.834456 
L 153.2288 285.683702 
L 153.6256 286.366962 
L 154.0224 286.61869 
L 154.4192 285.539857 
L 154.816 285.000441 
L 155.2128 285.683702 
L 155.6096 285.827546 
L 156.0064 285.791585 
L 156.4032 286.438884 
L 157.1968 285.647741 
L 157.5936 285.647741 
L 157.9904 285.935429 
L 158.3872 285.108324 
L 158.784 286.29504 
L 159.1808 286.402923 
L 159.5776 285.935429 
L 159.9744 286.29504 
L 160.3712 286.331001 
L 160.768 286.546768 
L 161.1648 285.683702 
L 161.5616 285.791585 
L 161.9584 284.892558 
L 162.3552 286.510806 
L 162.752 286.61869 
L 163.1488 286.259079 
L 163.5456 286.223118 
L 163.9424 286.331001 
L 164.3392 284.748714 
L 164.736 286.115235 
L 165.1328 286.654651 
L 165.5296 284.856597 
L 166.3232 285.647741 
L 166.72 284.748714 
L 167.1168 286.079274 
L 167.5136 285.539857 
L 167.9104 285.216208 
L 168.3072 286.870417 
L 168.704 286.546768 
L 169.1008 285.827546 
L 169.8944 285.144285 
L 170.2912 286.654651 
L 170.688 286.438884 
L 171.0848 285.683702 
L 171.4816 285.28813 
L 171.8784 285.935429 
L 172.2752 285.431974 
L 172.672 286.29504 
L 173.4656 285.755624 
L 173.8624 286.007351 
L 174.2592 285.144285 
L 174.656 286.115235 
L 175.0528 285.899468 
L 175.4496 287.337911 
L 175.8464 285.647741 
L 176.2432 286.29504 
L 176.64 285.827546 
L 177.0368 285.036402 
L 177.4336 286.762534 
L 177.8304 284.928519 
L 178.624 287.194067 
L 179.0208 285.000441 
L 179.4176 286.115235 
L 179.8144 286.187157 
L 180.2112 286.726573 
L 180.608 285.647741 
L 181.0048 285.97139 
L 181.4016 286.654651 
L 181.7984 284.676791 
L 182.1952 286.546768 
L 182.592 286.582729 
L 183.3856 285.252169 
L 183.7824 286.61869 
L 184.1792 286.366962 
L 184.576 285.324091 
L 185.7664 285.755624 
L 186.1632 286.762534 
L 186.56 285.144285 
L 186.9568 285.899468 
L 188.1472 285.791585 
L 188.544 286.834456 
L 188.9408 286.61869 
L 189.7344 285.180246 
L 190.1312 286.366962 
L 190.528 285.827546 
L 190.9248 286.726573 
L 191.3216 286.007351 
L 191.7184 285.935429 
L 192.1152 285.467935 
L 192.512 287.194067 
L 192.9088 285.180246 
L 193.3056 285.755624 
L 193.7024 286.798495 
L 194.0992 287.122145 
L 194.496 284.209297 
L 194.8928 284.96448 
L 195.2896 286.438884 
L 195.6864 286.079274 
L 196.0832 286.654651 
L 196.48 285.827546 
L 196.8768 285.683702 
L 197.2736 286.654651 
L 197.6704 285.575818 
L 198.0672 286.043312 
L 198.464 286.798495 
L 198.8608 286.510806 
L 199.2576 286.366962 
L 199.6544 285.611779 
L 200.0512 286.510806 
L 200.448 285.791585 
L 200.8448 286.870417 
L 201.2416 287.337911 
L 201.6384 286.834456 
L 202.8288 285.935429 
L 203.2256 286.29504 
L 203.6224 286.223118 
L 204.0192 286.726573 
L 204.416 286.690612 
L 204.8128 284.892558 
L 205.2096 286.402923 
L 205.6064 285.97139 
L 206.4 286.474845 
L 206.7968 285.108324 
L 207.1936 286.474845 
L 207.5904 285.899468 
L 207.9872 286.834456 
L 208.384 285.719663 
L 208.7808 285.108324 
L 209.1776 287.194067 
L 209.5744 285.827546 
L 209.9712 285.396013 
L 210.368 285.216208 
L 210.7648 286.510806 
L 211.1616 286.438884 
L 211.5584 284.353142 
L 211.9552 284.676791 
L 212.352 286.61869 
L 212.7488 285.431974 
L 213.1456 285.97139 
L 213.5424 285.97139 
L 213.9392 285.611779 
L 214.336 284.604869 
L 214.7328 285.935429 
L 215.1296 286.043312 
L 215.5264 286.510806 
L 215.9232 286.690612 
L 216.32 286.187157 
L 216.7168 286.079274 
L 217.1136 286.582729 
L 217.5104 286.762534 
L 217.9072 285.575818 
L 218.304 286.582729 
L 218.7008 286.510806 
L 219.0976 286.043312 
L 219.4944 286.762534 
L 219.8912 287.086184 
L 220.288 286.151196 
L 220.6848 285.683702 
L 221.0816 287.014262 
L 221.4784 286.29504 
L 221.8752 285.827546 
L 222.272 285.97139 
L 222.6688 286.29504 
L 223.0656 286.798495 
L 223.4624 286.402923 
L 223.8592 286.510806 
L 224.256 285.431974 
L 224.6528 286.762534 
L 225.0496 284.317181 
L 225.4464 285.97139 
L 225.8432 285.467935 
L 226.24 285.575818 
L 226.6368 286.978301 
L 227.0336 285.863507 
L 227.8272 286.546768 
L 228.224 286.510806 
L 228.6208 284.928519 
L 229.4144 286.474845 
L 229.8112 286.402923 
L 230.208 286.798495 
L 230.6048 286.043312 
L 231.0016 286.223118 
L 231.3984 287.194067 
L 231.7952 285.863507 
L 232.192 285.180246 
L 232.5888 286.546768 
L 232.9856 286.906378 
L 233.3824 285.647741 
L 233.7792 286.402923 
L 234.176 286.079274 
L 234.5728 285.899468 
L 234.9696 286.079274 
L 235.3664 286.438884 
L 235.7632 285.791585 
L 236.16 286.151196 
L 236.5568 286.043312 
L 236.9536 285.539857 
L 237.3504 286.079274 
L 237.7472 286.259079 
L 238.144 285.899468 
L 238.5408 286.510806 
L 238.9376 285.719663 
L 239.3344 287.553678 
L 239.7312 285.719663 
L 240.128 286.798495 
L 240.5248 286.151196 
L 240.9216 286.366962 
L 241.3184 285.647741 
L 241.7152 286.474845 
L 242.112 286.438884 
L 242.5088 286.259079 
L 242.9056 285.072363 
L 243.3024 287.158106 
L 243.6992 286.187157 
L 244.096 287.409834 
L 244.4928 285.28813 
L 244.8896 286.151196 
L 246.08 286.043312 
L 246.4768 286.654651 
L 246.8736 285.97139 
L 247.2704 286.582729 
L 248.064 286.906378 
L 248.4608 286.654651 
L 248.8576 286.726573 
L 249.6512 285.899468 
L 250.048 286.043312 
L 250.4448 287.30195 
L 250.8416 286.726573 
L 251.2384 287.050223 
L 251.6352 286.510806 
L 252.032 287.30195 
L 252.4288 285.935429 
L 252.8256 287.553678 
L 253.2224 287.445795 
L 253.6192 287.122145 
L 254.016 285.97139 
L 254.4128 285.719663 
L 254.8096 287.373872 
L 255.2064 286.007351 
L 255.6032 285.935429 
L 256 287.230028 
L 256.3968 286.834456 
L 256.7936 285.360052 
L 257.1904 285.719663 
L 257.5872 285.611779 
L 257.984 286.187157 
L 258.3808 285.935429 
L 259.1744 286.151196 
L 259.5712 286.654651 
L 259.968 285.360052 
L 260.3648 287.30195 
L 260.7616 286.870417 
L 261.1584 287.122145 
L 261.5552 286.079274 
L 261.952 286.942339 
L 262.3488 286.187157 
L 262.7456 285.935429 
L 263.1424 285.396013 
L 263.5392 287.194067 
L 263.936 285.539857 
L 264.3328 285.899468 
L 264.7296 286.61869 
L 265.1264 286.61869 
L 265.5232 285.935429 
L 265.92 285.791585 
L 266.3168 286.187157 
L 266.7136 286.079274 
L 267.1104 286.61869 
L 267.5072 285.431974 
L 268.3008 286.834456 
L 268.6976 286.187157 
L 269.0944 286.510806 
L 269.4912 286.978301 
L 270.2848 286.438884 
L 270.6816 286.402923 
L 271.0784 286.762534 
L 271.4752 285.324091 
L 271.872 285.755624 
L 272.2688 285.827546 
L 272.6656 285.000441 
L 273.0624 285.180246 
L 273.4592 285.503896 
L 273.856 287.014262 
L 274.2528 286.870417 
L 274.6496 286.29504 
L 275.0464 286.978301 
L 275.4432 286.582729 
L 275.84 286.546768 
L 276.6336 286.762534 
L 277.0304 286.151196 
L 277.4272 286.043312 
L 277.824 286.402923 
L 278.2208 286.043312 
L 278.6176 286.582729 
L 279.4112 285.467935 
L 279.808 286.61869 
L 280.2048 286.366962 
L 280.6016 286.546768 
L 280.9984 286.906378 
L 281.3952 286.151196 
L 281.792 286.29504 
L 282.1888 286.079274 
L 282.5856 286.582729 
L 282.9824 286.29504 
L 283.3792 286.582729 
L 283.776 286.007351 
L 284.1728 286.438884 
L 284.5696 285.827546 
L 284.9664 286.546768 
L 285.3632 286.726573 
L 285.76 286.115235 
L 286.1568 287.014262 
L 286.5536 285.683702 
L 286.9504 287.122145 
L 287.3472 286.834456 
L 287.744 285.539857 
L 288.1408 286.474845 
L 288.5376 286.007351 
L 288.9344 287.265989 
L 289.3312 286.259079 
L 289.728 286.654651 
L 290.1248 285.683702 
L 290.5216 286.654651 
L 290.9184 286.726573 
L 291.3152 286.115235 
L 291.712 286.798495 
L 292.1088 286.726573 
L 292.5056 285.647741 
L 292.9024 286.29504 
L 293.2992 287.30195 
L 293.696 285.935429 
L 294.0928 285.97139 
L 294.4896 286.654651 
L 294.8864 286.870417 
L 295.2832 286.942339 
L 296.0768 286.29504 
L 296.4736 285.216208 
L 296.8704 286.762534 
L 297.2672 286.366962 
L 297.664 286.654651 
L 298.0608 286.115235 
L 298.4576 285.899468 
L 298.8544 286.690612 
L 299.2512 286.151196 
L 299.648 286.187157 
L 300.0448 285.97139 
L 300.4416 286.151196 
L 300.8384 285.863507 
L 301.2352 286.079274 
L 301.632 285.755624 
L 302.0288 285.611779 
L 302.4256 286.331001 
L 302.8224 286.61869 
L 303.2192 286.187157 
L 303.616 286.29504 
L 304.0128 286.870417 
L 304.4096 286.151196 
L 304.8064 285.899468 
L 305.9968 287.122145 
L 306.3936 285.791585 
L 306.7904 285.935429 
L 307.1872 286.762534 
L 307.584 286.223118 
L 307.9808 286.474845 
L 308.7744 285.935429 
L 309.1712 286.187157 
L 309.568 286.223118 
L 309.9648 286.726573 
L 310.3616 286.223118 
L 311.1552 286.187157 
L 311.552 286.978301 
L 311.9488 285.503896 
L 312.3456 286.223118 
L 312.7424 285.899468 
L 313.1392 285.97139 
L 313.536 286.690612 
L 314.3296 286.223118 
L 315.1232 287.265989 
L 315.52 286.115235 
L 316.3136 287.014262 
L 316.7104 285.863507 
L 317.1072 286.007351 
L 317.504 285.755624 
L 317.9008 285.28813 
L 318.2976 286.187157 
L 318.6944 286.007351 
L 319.0912 286.762534 
L 319.488 286.115235 
L 319.8848 286.762534 
L 320.2816 285.863507 
L 320.6784 285.899468 
L 321.0752 286.474845 
L 321.472 286.366962 
L 321.8688 286.510806 
L 322.2656 287.122145 
L 322.6624 285.97139 
L 323.0592 286.762534 
L 323.456 285.935429 
L 323.8528 286.151196 
L 324.2496 286.582729 
L 324.6464 285.396013 
L 325.0432 285.97139 
L 325.44 286.834456 
L 326.2336 285.144285 
L 326.6304 285.467935 
L 327.0272 286.259079 
L 327.424 286.510806 
L 327.8208 285.755624 
L 328.2176 286.798495 
L 329.0112 285.647741 
L 329.408 286.29504 
L 329.8048 285.431974 
L 330.2016 285.719663 
L 330.5984 285.216208 
L 330.9952 286.690612 
L 331.392 286.402923 
L 331.7888 286.510806 
L 332.1856 285.935429 
L 332.5824 285.935429 
L 332.9792 286.187157 
L 333.376 285.935429 
L 333.7728 286.331001 
L 334.1696 286.007351 
L 334.5664 286.402923 
L 334.9632 286.115235 
L 335.36 285.97139 
L 335.7568 286.187157 
L 336.1536 286.007351 
L 336.5504 286.906378 
L 336.9472 286.438884 
L 337.344 286.366962 
L 337.7408 286.654651 
L 338.1376 286.510806 
L 338.5344 285.791585 
L 338.9312 286.762534 
L 339.328 286.546768 
L 339.7248 286.942339 
L 340.1216 286.043312 
L 340.5184 285.97139 
L 340.9152 286.762534 
L 341.312 286.906378 
L 341.7088 286.29504 
L 342.1056 286.582729 
L 342.5024 286.007351 
L 344.0896 286.61869 
L 344.4864 286.259079 
L 345.28 286.834456 
L 345.6768 286.798495 
L 346.0736 285.863507 
L 346.8672 286.115235 
L 347.264 286.798495 
L 347.6608 286.61869 
L 348.0576 286.29504 
L 348.4544 286.259079 
L 348.8512 285.935429 
L 349.248 287.194067 
L 349.6448 285.539857 
L 350.0416 286.474845 
L 350.4384 286.187157 
L 350.8352 286.582729 
L 351.232 287.409834 
L 351.6288 286.007351 
L 352.0256 286.762534 
L 352.4224 286.259079 
L 352.8192 285.324091 
L 353.216 286.726573 
L 353.6128 287.194067 
L 354.0096 286.187157 
L 355.2 286.043312 
L 355.5968 285.719663 
L 355.9936 286.61869 
L 356.3904 286.654651 
L 356.7872 285.575818 
L 357.5808 286.942339 
L 357.9776 286.187157 
L 358.3744 286.115235 
L 358.7712 286.762534 
L 359.5648 286.402923 
L 359.9616 286.474845 
L 360.3584 286.007351 
L 360.7552 286.007351 
L 361.152 286.690612 
L 361.5488 286.151196 
L 361.9456 286.762534 
L 362.3424 286.366962 
L 362.7392 286.870417 
L 363.136 286.187157 
L 363.9296 286.870417 
L 364.3264 285.791585 
L 364.7232 286.331001 
L 365.12 286.331001 
L 365.5168 286.151196 
L 365.9136 285.827546 
L 366.3104 286.402923 
L 366.7072 286.654651 
L 367.5008 286.474845 
L 367.8976 286.007351 
L 368.2944 287.30195 
L 368.6912 286.187157 
L 369.088 287.445795 
L 369.4848 286.331001 
L 369.8816 285.863507 
L 370.6752 286.187157 
L 371.072 286.798495 
L 371.4688 286.690612 
L 371.8656 287.877328 
L 372.2624 287.589639 
L 372.6592 286.366962 
L 373.056 286.834456 
L 373.4528 286.331001 
L 373.8496 286.29504 
L 374.2464 286.870417 
L 374.6432 286.690612 
L 375.04 285.899468 
L 375.4368 286.546768 
L 375.8336 286.942339 
L 376.2304 287.086184 
L 376.6272 285.539857 
L 377.4208 287.194067 
L 377.8176 286.690612 
L 378.2144 287.014262 
L 379.008 286.546768 
L 379.4048 286.61869 
L 379.8016 286.366962 
L 380.1984 285.503896 
L 380.992 286.402923 
L 381.3888 286.187157 
L 381.7856 286.798495 
L 382.1824 286.187157 
L 382.5792 286.115235 
L 382.976 286.510806 
L 383.3728 286.582729 
L 383.7696 285.863507 
L 384.5632 286.510806 
L 384.96 287.337911 
L 385.3568 286.223118 
L 385.7536 286.402923 
L 386.1504 287.661561 
L 386.5472 285.899468 
L 386.944 286.223118 
L 387.3408 286.187157 
L 387.7376 285.827546 
L 388.5312 286.942339 
L 388.928 286.402923 
L 389.3248 286.366962 
L 389.7216 287.014262 
L 390.1184 285.575818 
L 390.5152 286.474845 
L 391.7056 286.762534 
L 392.1024 286.187157 
L 392.4992 286.762534 
L 392.896 287.086184 
L 393.6896 286.726573 
L 394.0864 286.798495 
L 394.4832 286.510806 
L 395.2768 286.942339 
L 395.6736 286.870417 
L 396.0704 285.935429 
L 396.4672 286.654651 
L 396.864 286.654651 
L 397.2608 286.187157 
L 397.6576 286.61869 
L 398.0544 286.834456 
L 398.4512 286.654651 
L 398.848 286.870417 
L 399.2448 286.438884 
L 399.6416 286.402923 
L 400.0384 286.223118 
L 400.4352 286.582729 
L 400.832 286.510806 
L 401.2288 287.014262 
L 401.6256 285.360052 
L 402.0224 285.719663 
L 402.4192 286.942339 
L 402.816 287.014262 
L 403.2128 286.043312 
L 404.0064 286.223118 
L 404.4032 286.726573 
L 404.8 286.582729 
L 405.1968 286.043312 
L 405.5936 287.230028 
L 405.9904 285.899468 
L 406.3872 286.223118 
L 406.784 285.467935 
L 407.1808 287.337911 
L 407.5776 286.331001 
L 407.9744 286.510806 
L 408.3712 286.259079 
L 408.768 286.798495 
L 409.1648 286.870417 
L 409.5616 287.194067 
L 409.9584 286.079274 
L 410.3552 286.546768 
L 410.752 286.151196 
L 411.1488 287.086184 
L 411.5456 287.158106 
L 411.9424 286.331001 
L 412.3392 286.582729 
L 412.736 286.438884 
L 413.1328 286.870417 
L 413.9264 286.474845 
L 414.3232 287.050223 
L 414.72 287.050223 
L 415.1168 286.115235 
L 415.5136 286.798495 
L 416.3072 286.187157 
L 416.704 286.115235 
L 417.1008 285.611779 
L 417.4976 285.431974 
L 417.8944 286.043312 
L 418.2912 287.194067 
L 418.688 286.043312 
L 419.0848 286.61869 
L 419.4816 286.906378 
L 419.8784 285.755624 
L 420.2752 286.187157 
L 420.672 286.187157 
L 421.0688 285.97139 
L 421.4656 286.151196 
L 421.8624 286.115235 
L 422.2592 286.582729 
L 422.656 286.079274 
L 423.0528 285.827546 
L 423.4496 287.050223 
L 423.8464 286.007351 
L 424.64 286.366962 
L 425.0368 286.366962 
L 425.8304 286.654651 
L 426.2272 285.97139 
L 426.624 286.582729 
L 427.4176 285.935429 
L 427.8144 285.108324 
L 428.2112 285.144285 
L 428.608 285.539857 
L 429.0048 287.30195 
L 429.4016 286.223118 
L 429.7984 286.366962 
L 430.1952 287.014262 
L 430.592 286.402923 
L 430.9888 286.546768 
L 431.3856 284.892558 
L 431.7824 287.050223 
L 432.1792 285.755624 
L 432.576 286.978301 
L 432.9728 286.510806 
L 433.3696 285.755624 
L 433.7664 286.942339 
L 434.1632 286.762534 
L 434.9568 285.360052 
L 435.3536 286.259079 
L 435.7504 286.007351 
L 436.1472 286.007351 
L 436.544 287.553678 
L 436.9408 285.575818 
L 437.3376 287.481756 
L 437.7344 286.007351 
L 438.1312 286.474845 
L 438.528 287.265989 
L 438.9248 285.791585 
L 439.3216 285.97139 
L 439.7184 285.935429 
L 440.1152 285.647741 
L 440.512 285.863507 
L 440.9088 286.762534 
L 441.3056 286.510806 
L 441.7024 286.690612 
L 442.496 285.611779 
L 442.8928 286.870417 
L 443.2896 285.791585 
L 444.0832 286.762534 
L 444.48 285.28813 
L 444.8768 286.438884 
L 445.2736 285.360052 
L 445.6704 285.611779 
L 446.0672 285.719663 
L 446.464 285.539857 
L 446.8608 286.043312 
L 447.2576 286.331001 
L 447.6544 285.899468 
L 448.0512 286.115235 
L 448.448 284.784675 
L 448.8448 286.115235 
L 449.2416 286.187157 
L 449.6384 286.510806 
L 450.0352 286.402923 
L 450.432 286.942339 
L 450.8288 285.935429 
L 451.2256 286.187157 
L 451.6224 286.582729 
L 452.0192 285.863507 
L 452.416 287.122145 
L 452.8128 286.762534 
L 453.2096 285.683702 
L 453.6064 286.510806 
L 453.6064 286.510806 
" style="fill:none;stroke:#1f77b4;stroke-linecap:square;stroke-width:1.2;"/>
   </g>
   <g id="patch_3">
    <path d="M 57.6 307.584 
L 57.6 41.472 
" style="fill:none;stroke:#000000;stroke-linecap:square;stroke-linejoin:miter;"/>
   </g>
   <g id="patch_4">
    <path d="M 414.72 307.584 
L 414.72 41.472 
" style="fill:none;stroke:#000000;stroke-linecap:square;stroke-linejoin:miter;"/>
   </g>
   <g id="patch_5">
    <path d="M 57.6 307.584 
L 414.72 307.584 
" style="fill:none;stroke:#000000;stroke-linecap:square;stroke-linejoin:miter;"/>
   </g>
   <g id="patch_6">
    <path d="M 57.6 41.472 
L 414.72 41.472 
" style="fill:none;stroke:#000000;stroke-linecap:square;stroke-linejoin:miter;"/>
   </g>
   <g id="text_21">
    <!-- Training - NS-ES - Slimevolley -->
    <g transform="translate(165.62475 35.472)scale(0.096 -0.096)">
     <defs>
      <path d="M 3513 2113 
L 3513 0 
L 2938 0 
L 2938 2094 
Q 2938 2591 2744 2837 
Q 2550 3084 2163 3084 
Q 1697 3084 1428 2787 
Q 1159 2491 1159 1978 
L 1159 0 
L 581 0 
L 581 3500 
L 1159 3500 
L 1159 2956 
Q 1366 3272 1645 3428 
Q 1925 3584 2291 3584 
Q 2894 3584 3203 3211 
Q 3513 2838 3513 2113 
z
" id="DejaVuSans-6e" transform="scale(0.015625)"/>
      <path d="M 2906 1791 
Q 2906 2416 2648 2759 
Q 2391 3103 1925 3103 
Q 1463 3103 1205 2759 
Q 947 2416 947 1791 
Q 947 1169 1205 825 
Q 1463 481 1925 481 
Q 2391 481 2648 825 
Q 2906 1169 2906 1791 
z
M 3481 434 
Q 3481 -459 3084 -895 
Q 2688 -1331 1869 -1331 
Q 1566 -1331 1297 -1286 
Q 1028 -1241 775 -1147 
L 775 -588 
Q 1028 -725 1275 -790 
Q 1522 -856 1778 -856 
Q 2344 -856 2625 -561 
Q 2906 -266 2906 331 
L 2906 616 
Q 2728 306 2450 153 
Q 2172 0 1784 0 
Q 1141 0 747 490 
Q 353 981 353 1791 
Q 353 2603 747 3093 
Q 1141 3584 1784 3584 
Q 2172 3584 2450 3431 
Q 2728 3278 2906 2969 
L 2906 3500 
L 3481 3500 
L 3481 434 
z
" id="DejaVuSans-67" transform="scale(0.015625)"/>
      <path id="DejaVuSans-20" transform="scale(0.015625)"/>
      <path d="M 313 2009 
L 1997 2009 
L 1997 1497 
L 313 1497 
L 313 2009 
z
" id="DejaVuSans-2d" transform="scale(0.015625)"/>
      <path d="M 628 4666 
L 1478 4666 
L 3547 763 
L 3547 4666 
L 4159 4666 
L 4159 0 
L 3309 0 
L 1241 3903 
L 1241 0 
L 628 0 
L 628 4666 
z
" id="DejaVuSans-4e" transform="scale(0.015625)"/>
      <path d="M 3425 4513 
L 3425 3897 
Q 3066 4069 2747 4153 
Q 2428 4238 2131 4238 
Q 1616 4238 1336 4038 
Q 1056 3838 1056 3469 
Q 1056 3159 1242 3001 
Q 1428 2844 1947 2747 
L 2328 2669 
Q 3034 2534 3370 2195 
Q 3706 1856 3706 1288 
Q 3706 609 3251 259 
Q 2797 -91 1919 -91 
Q 1588 -91 1214 -16 
Q 841 59 441 206 
L 441 856 
Q 825 641 1194 531 
Q 1563 422 1919 422 
Q 2459 422 2753 634 
Q 3047 847 3047 1241 
Q 3047 1584 2836 1778 
Q 2625 1972 2144 2069 
L 1759 2144 
Q 1053 2284 737 2584 
Q 422 2884 422 3419 
Q 422 4038 858 4394 
Q 1294 4750 2059 4750 
Q 2388 4750 2728 4690 
Q 3069 4631 3425 4513 
z
" id="DejaVuSans-53" transform="scale(0.015625)"/>
      <path d="M 628 4666 
L 3578 4666 
L 3578 4134 
L 1259 4134 
L 1259 2753 
L 3481 2753 
L 3481 2222 
L 1259 2222 
L 1259 531 
L 3634 531 
L 3634 0 
L 628 0 
L 628 4666 
z
" id="DejaVuSans-45" transform="scale(0.015625)"/>
      <path d="M 603 4863 
L 1178 4863 
L 1178 0 
L 603 0 
L 603 4863 
z
" id="DejaVuSans-6c" transform="scale(0.015625)"/>
      <path d="M 191 3500 
L 800 3500 
L 1894 563 
L 2988 3500 
L 3597 3500 
L 2284 0 
L 1503 0 
L 191 3500 
z
" id="DejaVuSans-76" transform="scale(0.015625)"/>
      <path d="M 1959 3097 
Q 1497 3097 1228 2736 
Q 959 2375 959 1747 
Q 959 1119 1226 758 
Q 1494 397 1959 397 
Q 2419 397 2687 759 
Q 2956 1122 2956 1747 
Q 2956 2369 2687 2733 
Q 2419 3097 1959 3097 
z
M 1959 3584 
Q 2709 3584 3137 3096 
Q 3566 2609 3566 1747 
Q 3566 888 3137 398 
Q 2709 -91 1959 -91 
Q 1206 -91 779 398 
Q 353 888 353 1747 
Q 353 2609 779 3096 
Q 1206 3584 1959 3584 
z
" id="DejaVuSans-6f" transform="scale(0.015625)"/>
      <path d="M 2059 -325 
Q 1816 -950 1584 -1140 
Q 1353 -1331 966 -1331 
L 506 -1331 
L 506 -850 
L 844 -850 
Q 1081 -850 1212 -737 
Q 1344 -625 1503 -206 
L 1606 56 
L 191 3500 
L 800 3500 
L 1894 763 
L 2988 3500 
L 3597 3500 
L 2059 -325 
z
" id="DejaVuSans-79" transform="scale(0.015625)"/>
     </defs>
     <use xlink:href="#DejaVuSans-54"/>
     <use x="46.333984" xlink:href="#DejaVuSans-72"/>
     <use x="87.447266" xlink:href="#DejaVuSans-61"/>
     <use x="148.726562" xlink:href="#DejaVuSans-69"/>
     <use x="176.509766" xlink:href="#DejaVuSans-6e"/>
     <use x="239.888672" xlink:href="#DejaVuSans-69"/>
     <use x="267.671875" xlink:href="#DejaVuSans-6e"/>
     <use x="331.050781" xlink:href="#DejaVuSans-67"/>
     <use x="394.527344" xlink:href="#DejaVuSans-20"/>
     <use x="426.314453" xlink:href="#DejaVuSans-2d"/>
     <use x="462.398438" xlink:href="#DejaVuSans-20"/>
     <use x="494.185547" xlink:href="#DejaVuSans-4e"/>
     <use x="568.990234" xlink:href="#DejaVuSans-53"/>
     <use x="632.466797" xlink:href="#DejaVuSans-2d"/>
     <use x="668.550781" xlink:href="#DejaVuSans-45"/>
     <use x="731.734375" xlink:href="#DejaVuSans-53"/>
     <use x="795.210938" xlink:href="#DejaVuSans-20"/>
     <use x="826.998047" xlink:href="#DejaVuSans-2d"/>
     <use x="863.082031" xlink:href="#DejaVuSans-20"/>
     <use x="894.869141" xlink:href="#DejaVuSans-53"/>
     <use x="958.345703" xlink:href="#DejaVuSans-6c"/>
     <use x="986.128906" xlink:href="#DejaVuSans-69"/>
     <use x="1013.912109" xlink:href="#DejaVuSans-6d"/>
     <use x="1111.324219" xlink:href="#DejaVuSans-65"/>
     <use x="1172.847656" xlink:href="#DejaVuSans-76"/>
     <use x="1232.027344" xlink:href="#DejaVuSans-6f"/>
     <use x="1293.208984" xlink:href="#DejaVuSans-6c"/>
     <use x="1320.992188" xlink:href="#DejaVuSans-6c"/>
     <use x="1348.775391" xlink:href="#DejaVuSans-65"/>
     <use x="1410.298828" xlink:href="#DejaVuSans-79"/>
    </g>
   </g>
  </g>
 </g>
 <defs>
  <clipPath id="p7e00856e97">
   <rect height="266.112" width="357.12" x="57.6" y="41.472"/>
  </clipPath>
 </defs>
</svg>
