<?xml version="1.0" encoding="utf-8" standalone="no"?>
<!DOCTYPE svg PUBLIC "-//W3C//DTD SVG 1.1//EN"
  "http://www.w3.org/Graphics/SVG/1.1/DTD/svg11.dtd">
<svg height="345.6pt" version="1.1" viewBox="0 0 460.8 345.6" width="460.8pt" xmlns="http://www.w3.org/2000/svg" xmlns:xlink="http://www.w3.org/1999/xlink">
 <metadata>
  <rdf:RDF xmlns:cc="http://creativecommons.org/ns#" xmlns:dc="http://purl.org/dc/elements/1.1/" xmlns:rdf="http://www.w3.org/1999/02/22-rdf-syntax-ns#">
   <cc:Work>
    <dc:type rdf:resource="http://purl.org/dc/dcmitype/StillImage"/>
    <dc:date>2021-07-22T17:33:47.425947</dc:date>
    <dc:format>image/svg+xml</dc:format>
    <dc:creator>
     <cc:Agent>
      <dc:title>Matplotlib v3.4.2, https://matplotlib.org/</dc:title>
     </cc:Agent>
    </dc:creator>
   </cc:Work>
  </rdf:RDF>
 </metadata>
 <defs>
  <style type="text/css">*{stroke-linecap:butt;stroke-linejoin:round;}</style>
 </defs>
 <g id="figure_1">
  <g id="patch_1">
   <path d="M 0 345.6 
L 460.8 345.6 
L 460.8 0 
L 0 0 
z
" style="fill:#ffffff;"/>
  </g>
  <g id="axes_1">
   <g id="patch_2">
    <path d="M 57.6 307.584 
L 414.72 307.584 
L 414.72 41.472 
L 57.6 41.472 
z
" style="fill:#ffffff;"/>
   </g>
   <g id="PolyCollection_1">
    <path clip-path="url(#p7ff1898b93)" d="M 58.0464 283.777764 
L 58.0464 286.438884 
L 58.4928 286.366962 
L 58.9392 287.517717 
L 59.3856 285.935429 
L 59.832 287.158106 
L 60.2784 286.438884 
L 60.7248 286.726573 
L 61.1712 287.014262 
L 61.6176 287.373872 
L 62.064 286.223118 
L 62.5104 286.654651 
L 62.9568 287.014262 
L 63.4032 286.942339 
L 63.8496 286.942339 
L 64.296 287.30195 
L 64.7424 285.072363 
L 65.1888 285.360052 
L 65.6352 285.863507 
L 66.0816 284.64083 
L 66.528 287.230028 
L 66.9744 286.366962 
L 67.4208 286.654651 
L 67.8672 286.151196 
L 68.3136 287.30195 
L 68.76 287.589639 
L 69.2064 286.726573 
L 69.6528 285.935429 
L 70.0992 287.517717 
L 70.5456 286.582729 
L 70.992 287.373872 
L 71.4384 287.230028 
L 71.8848 285.28813 
L 72.3312 285.360052 
L 72.7776 285.360052 
L 73.224 285.935429 
L 73.6704 284.784675 
L 74.1168 286.870417 
L 74.5632 286.29504 
L 75.0096 287.445795 
L 75.456 286.582729 
L 75.9024 286.151196 
L 76.3488 285.719663 
L 76.7952 286.582729 
L 77.2416 286.798495 
L 77.688 285.072363 
L 78.1344 287.014262 
L 78.5808 286.510806 
L 79.0272 286.726573 
L 79.4736 287.373872 
L 79.92 286.582729 
L 80.3664 285.719663 
L 80.8128 286.870417 
L 81.2592 286.366962 
L 81.7056 285.935429 
L 82.152 285.503896 
L 82.5984 285.935429 
L 83.0448 286.438884 
L 83.4912 287.661561 
L 83.9376 286.366962 
L 84.384 284.281219 
L 84.8304 287.014262 
L 85.2768 286.151196 
L 85.7232 287.373872 
L 86.1696 287.373872 
L 86.616 287.158106 
L 87.0624 285.719663 
L 87.5088 284.928519 
L 87.9552 287.661561 
L 88.4016 284.353142 
L 88.848 286.510806 
L 89.2944 286.510806 
L 89.7408 287.445795 
L 90.1872 285.935429 
L 90.6336 287.589639 
L 91.08 285.719663 
L 91.5264 287.445795 
L 91.9728 286.582729 
L 92.4192 286.726573 
L 92.8656 285.503896 
L 93.312 285.575818 
L 93.7584 285.000441 
L 94.2048 287.30195 
L 94.6512 286.223118 
L 95.0976 286.366962 
L 95.544 286.582729 
L 95.9904 286.942339 
L 96.4368 284.712752 
L 96.8832 285.072363 
L 97.3296 284.856597 
L 97.776 287.230028 
L 98.2224 287.373872 
L 98.6688 284.856597 
L 99.1152 287.158106 
L 99.5616 287.230028 
L 100.008 286.510806 
L 100.4544 285.216208 
L 100.9008 285.144285 
L 101.3472 285.935429 
L 101.7936 284.568908 
L 102.24 283.130465 
L 102.6864 287.158106 
L 103.1328 286.438884 
L 103.5792 284.856597 
L 104.0256 285.719663 
L 104.472 283.849686 
L 104.9184 287.230028 
L 105.3648 286.29504 
L 105.8112 285.216208 
L 106.2576 285.575818 
L 106.704 284.137375 
L 107.1504 286.079274 
L 107.5968 286.510806 
L 108.0432 284.928519 
L 108.4896 285.647741 
L 108.936 286.079274 
L 109.3824 285.216208 
L 109.8288 287.086184 
L 110.2752 286.438884 
L 110.7216 283.993531 
L 111.168 284.281219 
L 111.6144 286.007351 
L 112.0608 286.079274 
L 112.5072 284.137375 
L 112.9536 286.151196 
L 113.4 284.425064 
L 113.8464 286.870417 
L 114.2928 285.216208 
L 114.7392 286.726573 
L 115.1856 286.654651 
L 115.632 286.151196 
L 116.0784 285.360052 
L 116.5248 285.431974 
L 116.9712 285.216208 
L 117.4176 283.921609 
L 117.864 286.223118 
L 118.3104 285.935429 
L 118.7568 284.209297 
L 119.2032 283.921609 
L 119.6496 285.431974 
L 120.096 285.431974 
L 120.5424 285.791585 
L 120.9888 287.589639 
L 121.4352 286.223118 
L 121.8816 285.647741 
L 122.328 285.647741 
L 122.7744 285.647741 
L 123.2208 286.151196 
L 123.6672 285.719663 
L 124.1136 285.28813 
L 124.56 284.64083 
L 125.0064 285.791585 
L 125.4528 286.079274 
L 125.8992 285.791585 
L 126.3456 286.29504 
L 126.792 285.863507 
L 127.2384 286.007351 
L 127.6848 285.000441 
L 128.1312 286.151196 
L 128.5776 286.151196 
L 129.024 286.942339 
L 129.4704 286.654651 
L 129.9168 285.719663 
L 130.3632 286.007351 
L 130.8096 286.726573 
L 131.256 286.007351 
L 131.7024 285.431974 
L 132.1488 285.360052 
L 132.5952 285.863507 
L 133.0416 286.29504 
L 133.488 284.065453 
L 133.9344 286.870417 
L 134.3808 283.777764 
L 134.8272 287.086184 
L 135.2736 285.935429 
L 135.72 285.503896 
L 136.1664 286.151196 
L 136.6128 286.582729 
L 137.0592 286.438884 
L 137.5056 286.654651 
L 137.952 286.582729 
L 138.3984 286.798495 
L 138.8448 286.510806 
L 139.2912 286.079274 
L 139.7376 287.517717 
L 140.184 285.935429 
L 140.6304 284.784675 
L 141.0768 285.28813 
L 141.5232 286.29504 
L 141.9696 284.856597 
L 142.416 285.431974 
L 142.8624 285.503896 
L 143.3088 286.366962 
L 143.7552 284.928519 
L 144.2016 286.870417 
L 144.648 285.791585 
L 145.0944 286.007351 
L 145.5408 285.431974 
L 145.9872 286.29504 
L 146.4336 286.151196 
L 146.88 287.445795 
L 147.3264 285.935429 
L 147.7728 285.144285 
L 148.2192 285.144285 
L 148.6656 286.870417 
L 149.112 286.151196 
L 149.5584 285.360052 
L 150.0048 285.863507 
L 150.4512 286.654651 
L 150.8976 287.158106 
L 151.344 286.654651 
L 151.7904 285.072363 
L 152.2368 286.438884 
L 152.6832 286.007351 
L 153.1296 286.726573 
L 153.576 286.151196 
L 154.0224 285.431974 
L 154.4688 286.510806 
L 154.9152 286.151196 
L 155.3616 285.863507 
L 155.808 286.151196 
L 156.2544 286.366962 
L 156.7008 286.007351 
L 157.1472 286.942339 
L 157.5936 286.870417 
L 158.04 286.582729 
L 158.4864 286.942339 
L 158.9328 285.863507 
L 159.3792 285.647741 
L 159.8256 285.935429 
L 160.272 285.216208 
L 160.7184 286.870417 
L 161.1648 285.719663 
L 161.6112 286.29504 
L 162.0576 285.575818 
L 162.504 286.079274 
L 162.9504 286.942339 
L 163.3968 286.29504 
L 163.8432 287.373872 
L 164.2896 285.575818 
L 164.736 287.661561 
L 165.1824 286.582729 
L 165.6288 285.647741 
L 166.0752 287.445795 
L 166.5216 286.582729 
L 166.968 286.366962 
L 167.4144 286.079274 
L 167.8608 286.798495 
L 168.3072 286.654651 
L 168.7536 284.784675 
L 169.2 286.870417 
L 169.6464 286.29504 
L 170.0928 285.791585 
L 170.5392 285.360052 
L 170.9856 286.079274 
L 171.432 285.144285 
L 171.8784 286.29504 
L 172.3248 288.021172 
L 172.7712 285.503896 
L 173.2176 286.870417 
L 173.664 284.856597 
L 174.1104 286.079274 
L 174.5568 286.007351 
L 175.0032 287.445795 
L 175.4496 285.28813 
L 175.896 285.719663 
L 176.3424 287.086184 
L 176.7888 286.654651 
L 177.2352 287.158106 
L 177.6816 285.072363 
L 178.128 285.072363 
L 178.5744 286.942339 
L 179.0208 286.582729 
L 179.4672 285.719663 
L 179.9136 285.647741 
L 180.36 286.870417 
L 180.8064 285.28813 
L 181.2528 286.798495 
L 181.6992 286.079274 
L 182.1456 287.517717 
L 182.592 286.654651 
L 183.0384 286.870417 
L 183.4848 286.223118 
L 183.9312 285.431974 
L 184.3776 285.863507 
L 184.824 287.086184 
L 185.2704 286.438884 
L 185.7168 286.079274 
L 186.1632 285.216208 
L 186.6096 286.151196 
L 187.056 285.360052 
L 187.5024 285.28813 
L 187.9488 287.014262 
L 188.3952 288.524627 
L 188.8416 286.870417 
L 189.288 287.589639 
L 189.7344 285.719663 
L 190.1808 287.014262 
L 190.6272 285.575818 
L 191.0736 287.014262 
L 191.52 287.014262 
L 191.9664 286.29504 
L 192.4128 286.654651 
L 192.8592 286.29504 
L 193.3056 287.805405 
L 193.752 286.510806 
L 194.1984 286.079274 
L 194.6448 286.438884 
L 195.0912 287.30195 
L 195.5376 287.014262 
L 195.984 287.30195 
L 196.4304 286.438884 
L 196.8768 286.079274 
L 197.3232 287.733483 
L 197.7696 286.366962 
L 198.216 286.798495 
L 198.6624 286.007351 
L 199.1088 286.007351 
L 199.5552 286.366962 
L 200.0016 287.517717 
L 200.448 286.582729 
L 200.8944 285.719663 
L 201.3408 287.30195 
L 201.7872 286.582729 
L 202.2336 286.510806 
L 202.68 286.510806 
L 203.1264 286.942339 
L 203.5728 285.072363 
L 204.0192 286.654651 
L 204.4656 287.373872 
L 204.912 286.366962 
L 205.3584 286.079274 
L 205.8048 286.798495 
L 206.2512 288.236938 
L 206.6976 286.007351 
L 207.144 286.510806 
L 207.5904 286.29504 
L 208.0368 285.28813 
L 208.4832 285.503896 
L 208.9296 287.517717 
L 209.376 287.373872 
L 209.8224 286.726573 
L 210.2688 286.798495 
L 210.7152 287.589639 
L 211.1616 287.158106 
L 211.608 286.438884 
L 212.0544 286.366962 
L 212.5008 286.654651 
L 212.9472 286.582729 
L 213.3936 286.798495 
L 213.84 287.158106 
L 214.2864 286.079274 
L 214.7328 286.510806 
L 215.1792 287.445795 
L 215.6256 285.216208 
L 216.072 286.151196 
L 216.5184 285.935429 
L 216.9648 286.223118 
L 217.4112 285.935429 
L 217.8576 286.366962 
L 218.304 286.582729 
L 218.7504 287.230028 
L 219.1968 286.870417 
L 219.6432 287.086184 
L 220.0896 287.230028 
L 220.536 286.582729 
L 220.9824 286.942339 
L 221.4288 287.086184 
L 221.8752 286.438884 
L 222.3216 286.079274 
L 222.768 284.928519 
L 223.2144 286.29504 
L 223.6608 286.151196 
L 224.1072 287.805405 
L 224.5536 286.798495 
L 225 287.014262 
L 225.4464 286.29504 
L 225.8928 286.510806 
L 226.3392 286.654651 
L 226.7856 286.798495 
L 227.232 288.452705 
L 227.6784 286.654651 
L 228.1248 287.805405 
L 228.5712 286.654651 
L 229.0176 286.582729 
L 229.464 286.366962 
L 229.9104 287.30195 
L 230.3568 286.582729 
L 230.8032 287.014262 
L 231.2496 286.438884 
L 231.696 286.870417 
L 232.1424 286.798495 
L 232.5888 286.654651 
L 233.0352 285.791585 
L 233.4816 287.014262 
L 233.928 287.014262 
L 234.3744 285.719663 
L 234.8208 286.510806 
L 235.2672 284.784675 
L 235.7136 286.942339 
L 236.16 287.589639 
L 236.6064 286.942339 
L 237.0528 286.510806 
L 237.4992 287.014262 
L 237.9456 286.007351 
L 238.392 285.719663 
L 238.8384 286.438884 
L 239.2848 286.29504 
L 239.7312 287.158106 
L 240.1776 287.158106 
L 240.624 286.582729 
L 241.0704 287.733483 
L 241.5168 287.158106 
L 241.9632 286.870417 
L 242.4096 286.510806 
L 242.856 287.230028 
L 243.3024 286.870417 
L 243.7488 287.230028 
L 244.1952 287.014262 
L 244.6416 287.661561 
L 245.088 285.863507 
L 245.5344 286.438884 
L 245.9808 286.438884 
L 246.4272 287.517717 
L 246.8736 285.791585 
L 247.32 286.510806 
L 247.7664 285.647741 
L 248.2128 288.236938 
L 248.6592 286.582729 
L 249.1056 286.366962 
L 249.552 287.30195 
L 249.9984 286.942339 
L 250.4448 286.438884 
L 250.8912 287.733483 
L 251.3376 285.28813 
L 251.784 286.510806 
L 252.2304 287.373872 
L 252.6768 287.086184 
L 253.1232 286.510806 
L 253.5696 286.151196 
L 254.016 287.589639 
L 254.4624 285.863507 
L 254.9088 286.438884 
L 255.3552 284.353142 
L 255.8016 286.366962 
L 256.248 286.798495 
L 256.6944 287.158106 
L 257.1408 287.158106 
L 257.5872 286.007351 
L 258.0336 285.647741 
L 258.48 287.086184 
L 258.9264 286.726573 
L 259.3728 286.151196 
L 259.8192 286.366962 
L 260.2656 287.230028 
L 260.712 286.870417 
L 261.1584 287.086184 
L 261.6048 286.223118 
L 262.0512 286.654651 
L 262.4976 286.942339 
L 262.944 286.438884 
L 263.3904 287.445795 
L 263.8368 287.517717 
L 264.2832 286.151196 
L 264.7296 287.230028 
L 265.176 287.661561 
L 265.6224 286.438884 
L 266.0688 286.366962 
L 266.5152 286.870417 
L 266.9616 286.942339 
L 267.408 286.942339 
L 267.8544 285.647741 
L 268.3008 286.726573 
L 268.7472 286.510806 
L 269.1936 286.942339 
L 269.64 286.726573 
L 270.0864 287.086184 
L 270.5328 285.647741 
L 270.9792 287.445795 
L 271.4256 285.144285 
L 271.872 286.798495 
L 272.3184 287.158106 
L 272.7648 286.870417 
L 273.2112 287.661561 
L 273.6576 287.158106 
L 274.104 285.935429 
L 274.5504 285.791585 
L 274.9968 286.798495 
L 275.4432 286.582729 
L 275.8896 287.014262 
L 276.336 287.158106 
L 276.7824 286.223118 
L 277.2288 286.870417 
L 277.6752 285.431974 
L 278.1216 286.942339 
L 278.568 285.863507 
L 279.0144 287.877328 
L 279.4608 287.517717 
L 279.9072 287.086184 
L 280.3536 285.791585 
L 280.8 287.086184 
L 281.2464 285.791585 
L 281.6928 286.079274 
L 282.1392 287.445795 
L 282.5856 287.805405 
L 283.032 287.230028 
L 283.4784 287.373872 
L 283.9248 287.230028 
L 284.3712 286.798495 
L 284.8176 286.007351 
L 285.264 287.517717 
L 285.7104 287.230028 
L 286.1568 286.223118 
L 286.6032 286.510806 
L 287.0496 285.072363 
L 287.496 287.877328 
L 287.9424 287.517717 
L 288.3888 286.654651 
L 288.8352 286.510806 
L 289.2816 287.373872 
L 289.728 287.230028 
L 290.1744 286.366962 
L 290.6208 287.517717 
L 291.0672 286.007351 
L 291.5136 285.935429 
L 291.96 286.798495 
L 292.4064 285.360052 
L 292.8528 287.30195 
L 293.2992 285.863507 
L 293.7456 286.510806 
L 294.192 286.510806 
L 294.6384 285.863507 
L 295.0848 285.360052 
L 295.5312 286.798495 
L 295.9776 286.942339 
L 296.424 286.582729 
L 296.8704 287.445795 
L 297.3168 287.661561 
L 297.7632 285.360052 
L 298.2096 286.223118 
L 298.656 287.733483 
L 299.1024 286.870417 
L 299.5488 287.230028 
L 299.9952 287.517717 
L 300.4416 286.510806 
L 300.888 286.654651 
L 301.3344 287.373872 
L 301.7808 287.086184 
L 302.2272 286.870417 
L 302.6736 287.445795 
L 303.12 286.870417 
L 303.5664 286.942339 
L 304.0128 286.870417 
L 304.4592 286.510806 
L 304.9056 286.510806 
L 305.352 284.712752 
L 305.7984 287.086184 
L 306.2448 286.079274 
L 306.6912 287.661561 
L 307.1376 286.942339 
L 307.584 285.360052 
L 308.0304 286.798495 
L 308.4768 286.29504 
L 308.9232 286.870417 
L 309.3696 286.366962 
L 309.816 287.589639 
L 310.2624 287.805405 
L 310.7088 287.445795 
L 311.1552 285.216208 
L 311.6016 285.360052 
L 312.048 287.661561 
L 312.4944 286.29504 
L 312.9408 285.144285 
L 313.3872 287.014262 
L 313.8336 287.230028 
L 314.28 285.000441 
L 314.7264 286.223118 
L 315.1728 286.582729 
L 315.6192 286.726573 
L 316.0656 286.510806 
L 316.512 285.360052 
L 316.9584 287.014262 
L 317.4048 286.510806 
L 317.8512 287.805405 
L 318.2976 287.086184 
L 318.744 286.798495 
L 319.1904 288.021172 
L 319.6368 286.366962 
L 320.0832 286.654651 
L 320.5296 286.079274 
L 320.976 287.30195 
L 321.4224 285.503896 
L 321.8688 285.863507 
L 322.3152 287.230028 
L 322.7616 286.654651 
L 323.208 287.230028 
L 323.6544 286.510806 
L 324.1008 286.151196 
L 324.5472 284.712752 
L 324.9936 286.366962 
L 325.44 287.30195 
L 325.8864 285.719663 
L 326.3328 286.726573 
L 326.7792 287.373872 
L 327.2256 286.223118 
L 327.672 286.438884 
L 328.1184 286.151196 
L 328.5648 287.661561 
L 329.0112 287.445795 
L 329.4576 287.94925 
L 329.904 286.942339 
L 330.3504 286.798495 
L 330.7968 286.007351 
L 331.2432 285.647741 
L 331.6896 287.014262 
L 332.136 285.431974 
L 332.5824 286.942339 
L 333.0288 286.510806 
L 333.4752 286.223118 
L 333.9216 286.582729 
L 334.368 287.733483 
L 334.8144 286.366962 
L 335.2608 286.942339 
L 335.7072 286.223118 
L 336.1536 286.870417 
L 336.6 286.870417 
L 337.0464 286.223118 
L 337.4928 285.935429 
L 337.9392 287.589639 
L 338.3856 287.30195 
L 338.832 285.719663 
L 339.2784 287.086184 
L 339.7248 287.733483 
L 340.1712 286.870417 
L 340.6176 287.30195 
L 341.064 287.086184 
L 341.5104 286.29504 
L 341.9568 286.438884 
L 342.4032 285.575818 
L 342.8496 286.870417 
L 343.296 287.30195 
L 343.7424 286.29504 
L 344.1888 286.726573 
L 344.6352 285.575818 
L 345.0816 287.086184 
L 345.528 285.719663 
L 345.9744 286.798495 
L 346.4208 286.151196 
L 346.8672 286.654651 
L 347.3136 285.791585 
L 347.76 287.94925 
L 348.2064 286.29504 
L 348.6528 287.014262 
L 349.0992 286.654651 
L 349.5456 286.726573 
L 349.992 286.654651 
L 350.4384 286.223118 
L 350.8848 285.719663 
L 351.3312 287.230028 
L 351.7776 286.654651 
L 352.224 287.30195 
L 352.6704 287.877328 
L 353.1168 287.589639 
L 353.5632 287.158106 
L 354.0096 286.007351 
L 354.456 287.445795 
L 354.9024 287.517717 
L 355.3488 286.870417 
L 355.7952 287.589639 
L 356.2416 287.230028 
L 356.688 286.582729 
L 357.1344 287.230028 
L 357.5808 287.30195 
L 358.0272 287.445795 
L 358.4736 286.510806 
L 358.92 287.014262 
L 359.3664 286.366962 
L 359.8128 286.29504 
L 360.2592 286.151196 
L 360.7056 286.29504 
L 361.152 287.373872 
L 361.5984 287.086184 
L 362.0448 286.654651 
L 362.4912 287.517717 
L 362.9376 287.30195 
L 363.384 287.517717 
L 363.8304 286.870417 
L 364.2768 286.29504 
L 364.7232 287.158106 
L 365.1696 286.007351 
L 365.616 286.366962 
L 366.0624 286.726573 
L 366.5088 287.30195 
L 366.9552 287.445795 
L 367.4016 288.236938 
L 367.848 286.151196 
L 368.2944 287.517717 
L 368.7408 286.438884 
L 369.1872 287.30195 
L 369.6336 286.151196 
L 370.08 287.589639 
L 370.5264 285.935429 
L 370.9728 287.014262 
L 371.4192 287.30195 
L 371.8656 285.863507 
L 372.312 285.360052 
L 372.7584 286.438884 
L 373.2048 286.366962 
L 373.6512 287.733483 
L 374.0976 285.431974 
L 374.544 287.158106 
L 374.9904 287.517717 
L 375.4368 287.230028 
L 375.8832 286.007351 
L 376.3296 286.582729 
L 376.776 286.29504 
L 377.2224 287.158106 
L 377.6688 286.726573 
L 378.1152 286.510806 
L 378.5616 287.158106 
L 379.008 285.342071 
L 379.4544 287.571658 
L 379.9008 286.510806 
L 380.3472 286.29504 
L 380.7936 286.510806 
L 381.24 286.582729 
L 381.6864 285.396013 
L 382.1328 286.780515 
L 382.5792 287.535697 
L 383.0256 287.176086 
L 383.472 287.122145 
L 383.9184 288.344822 
L 384.3648 285.611779 
L 384.8112 287.463775 
L 385.2576 287.445795 
L 385.704 286.474845 
L 386.1504 285.449955 
L 386.5968 286.780515 
L 387.0432 287.823386 
L 387.4896 286.456865 
L 387.936 287.176086 
L 388.3824 287.28397 
L 388.8288 286.456865 
L 389.2752 286.420904 
L 389.7216 287.050223 
L 390.168 286.888398 
L 390.6144 286.510806 
L 391.0608 286.223118 
L 391.5072 285.665721 
L 391.9536 286.187157 
L 392.4 287.679542 
L 392.8464 287.176086 
L 393.2928 287.607619 
L 393.7392 286.942339 
L 394.1856 285.28813 
L 394.632 286.241098 
L 395.0784 287.643581 
L 395.5248 286.169176 
L 395.9712 284.946499 
L 396.4176 286.492826 
L 396.864 286.996281 
L 397.3104 286.978301 
L 397.7568 287.409834 
L 398.2032 287.194067 
L 398.6496 287.176086 
L 399.096 287.068203 
L 399.5424 286.762534 
L 399.9888 286.079274 
L 400.4352 287.517717 
L 400.8816 287.122145 
L 401.328 286.870417 
L 401.7744 286.63667 
L 402.2208 286.151196 
L 402.6672 287.265989 
L 403.1136 286.025332 
L 403.56 287.032242 
L 404.0064 286.63667 
L 404.4528 286.708592 
L 404.8992 286.816476 
L 405.3456 287.409834 
L 405.792 286.762534 
L 406.2384 288.308861 
L 406.6848 286.223118 
L 407.1312 286.474845 
L 407.5776 287.96723 
L 408.024 287.319931 
L 408.4704 286.906378 
L 408.9168 286.834456 
L 409.3632 285.827546 
L 409.8096 287.158106 
L 410.256 286.744554 
L 410.7024 287.589639 
L 411.1488 285.270149 
L 411.5952 287.28397 
L 412.0416 287.553678 
L 412.488 286.331001 
L 412.9344 287.607619 
L 413.3808 286.331001 
L 413.8272 287.319931 
L 414.2736 286.313021 
L 414.72 286.097254 
L 414.72 282.62701 
L 414.72 282.62701 
L 414.2736 284.802655 
L 413.8272 284.443044 
L 413.3808 284.317181 
L 412.9344 282.123555 
L 412.488 285.30611 
L 412.0416 284.892558 
L 411.5952 283.382192 
L 411.1488 283.166426 
L 410.7024 285.683702 
L 410.256 285.396013 
L 409.8096 284.712752 
L 409.3632 284.425064 
L 408.9168 282.96864 
L 408.4704 283.723823 
L 408.024 284.892558 
L 407.5776 285.863507 
L 407.1312 285.108324 
L 406.6848 284.209297 
L 406.2384 284.892558 
L 405.792 284.604869 
L 405.3456 283.813725 
L 404.8992 285.108324 
L 404.4528 285.503896 
L 404.0064 285.431974 
L 403.56 285.108324 
L 403.1136 283.202387 
L 402.6672 285.845526 
L 402.2208 284.047472 
L 401.7744 283.454115 
L 401.328 285.539857 
L 400.8816 285.108324 
L 400.4352 284.047472 
L 399.9888 284.389103 
L 399.5424 284.874577 
L 399.096 285.431974 
L 398.6496 284.802655 
L 398.2032 283.184406 
L 397.7568 284.856597 
L 397.3104 285.162266 
L 396.864 285.072363 
L 396.4176 284.64083 
L 395.9712 283.022582 
L 395.5248 284.461025 
L 395.0784 285.737643 
L 394.632 283.921609 
L 394.1856 283.795745 
L 393.7392 283.184406 
L 393.2928 284.209297 
L 392.8464 285.072363 
L 392.4 285.252169 
L 391.9536 284.96448 
L 391.5072 283.813725 
L 391.0608 283.31027 
L 390.6144 283.723823 
L 390.168 283.939589 
L 389.7216 284.407083 
L 389.2752 284.047472 
L 388.8288 284.766694 
L 388.3824 285.647741 
L 387.936 284.838616 
L 387.4896 283.903628 
L 387.0432 284.64083 
L 386.5968 285.62976 
L 386.1504 284.62285 
L 385.704 284.820636 
L 385.2576 284.946499 
L 384.8112 285.791585 
L 384.3648 284.173336 
L 383.9184 285.360052 
L 383.472 285.737643 
L 383.0256 285.719663 
L 382.5792 285.396013 
L 382.1328 285.28813 
L 381.6864 283.490076 
L 381.24 284.892558 
L 380.7936 284.047472 
L 380.3472 284.443044 
L 379.9008 285.018422 
L 379.4544 285.683702 
L 379.008 283.561998 
L 378.5616 284.496986 
L 378.1152 283.849686 
L 377.6688 284.712752 
L 377.2224 285.072363 
L 376.776 284.496986 
L 376.3296 282.770854 
L 375.8832 283.993531 
L 375.4368 284.856597 
L 374.9904 282.698932 
L 374.544 286.726573 
L 374.0976 284.353142 
L 373.6512 284.281219 
L 373.2048 283.921609 
L 372.7584 283.418154 
L 372.312 284.209297 
L 371.8656 285.360052 
L 371.4192 285.647741 
L 370.9728 283.63392 
L 370.5264 282.770854 
L 370.08 285.647741 
L 369.6336 283.202387 
L 369.1872 285.575818 
L 368.7408 284.137375 
L 368.2944 284.425064 
L 367.848 285.216208 
L 367.4016 284.137375 
L 366.9552 286.223118 
L 366.5088 285.431974 
L 366.0624 282.339321 
L 365.616 285.360052 
L 365.1696 283.705842 
L 364.7232 284.712752 
L 364.2768 284.712752 
L 363.8304 283.346231 
L 363.384 285.575818 
L 362.9376 284.209297 
L 362.4912 286.582729 
L 362.0448 285.575818 
L 361.5984 285.935429 
L 361.152 285.935429 
L 360.7056 282.195477 
L 360.2592 284.353142 
L 359.8128 283.921609 
L 359.3664 285.000441 
L 358.92 284.856597 
L 358.4736 285.719663 
L 358.0272 284.712752 
L 357.5808 285.647741 
L 357.1344 284.425064 
L 356.688 285.360052 
L 356.2416 284.496986 
L 355.7952 283.418154 
L 355.3488 283.202387 
L 354.9024 285.216208 
L 354.456 285.791585 
L 354.0096 284.712752 
L 353.5632 284.425064 
L 353.1168 283.130465 
L 352.6704 284.784675 
L 352.224 284.209297 
L 351.7776 283.274309 
L 351.3312 283.63392 
L 350.8848 283.346231 
L 350.4384 284.856597 
L 349.992 284.496986 
L 349.5456 281.97971 
L 349.0992 284.496986 
L 348.6528 283.777764 
L 348.2064 284.353142 
L 347.76 284.784675 
L 347.3136 284.137375 
L 346.8672 283.993531 
L 346.4208 285.144285 
L 345.9744 283.921609 
L 345.528 284.496986 
L 345.0816 284.928519 
L 344.6352 284.353142 
L 344.1888 283.346231 
L 343.7424 283.777764 
L 343.296 284.568908 
L 342.8496 284.353142 
L 342.4032 284.64083 
L 341.9568 285.360052 
L 341.5104 285.575818 
L 341.064 285.360052 
L 340.6176 284.712752 
L 340.1712 285.575818 
L 339.7248 285.000441 
L 339.2784 284.928519 
L 338.832 284.568908 
L 338.3856 285.719663 
L 337.9392 285.575818 
L 337.4928 283.274309 
L 337.0464 285.144285 
L 336.6 283.777764 
L 336.1536 281.763944 
L 335.7072 285.000441 
L 335.2608 282.62701 
L 334.8144 284.928519 
L 334.368 285.072363 
L 333.9216 285.000441 
L 333.4752 284.209297 
L 333.0288 283.130465 
L 332.5824 285.072363 
L 332.136 283.418154 
L 331.6896 284.784675 
L 331.2432 282.842776 
L 330.7968 284.353142 
L 330.3504 283.993531 
L 329.904 284.281219 
L 329.4576 285.503896 
L 329.0112 284.137375 
L 328.5648 285.719663 
L 328.1184 282.986621 
L 327.672 285.719663 
L 327.2256 285.144285 
L 326.7792 282.914698 
L 326.3328 282.986621 
L 325.8864 284.209297 
L 325.44 284.856597 
L 324.9936 285.503896 
L 324.5472 282.842776 
L 324.1008 282.698932 
L 323.6544 284.856597 
L 323.208 284.281219 
L 322.7616 283.705842 
L 322.3152 282.62701 
L 321.8688 283.490076 
L 321.4224 283.130465 
L 320.976 283.63392 
L 320.5296 283.993531 
L 320.0832 283.921609 
L 319.6368 283.705842 
L 319.1904 284.712752 
L 318.744 284.425064 
L 318.2976 283.705842 
L 317.8512 286.510806 
L 317.4048 283.777764 
L 316.9584 284.64083 
L 316.512 283.274309 
L 316.0656 285.000441 
L 315.6192 284.137375 
L 315.1728 284.281219 
L 314.7264 285.072363 
L 314.28 283.849686 
L 313.8336 284.353142 
L 313.3872 284.568908 
L 312.9408 283.561998 
L 312.4944 283.921609 
L 312.048 285.360052 
L 311.6016 283.418154 
L 311.1552 284.209297 
L 310.7088 284.928519 
L 310.2624 283.561998 
L 309.816 285.647741 
L 309.3696 285.28813 
L 308.9232 284.209297 
L 308.4768 284.065453 
L 308.0304 284.137375 
L 307.584 283.346231 
L 307.1376 285.000441 
L 306.6912 283.490076 
L 306.2448 285.360052 
L 305.7984 283.130465 
L 305.352 283.849686 
L 304.9056 285.360052 
L 304.4592 284.137375 
L 304.0128 284.64083 
L 303.5664 283.418154 
L 303.12 283.777764 
L 302.6736 285.431974 
L 302.2272 283.490076 
L 301.7808 285.28813 
L 301.3344 286.079274 
L 300.888 283.561998 
L 300.4416 283.274309 
L 299.9952 286.366962 
L 299.5488 282.411243 
L 299.1024 284.065453 
L 298.656 284.496986 
L 298.2096 283.849686 
L 297.7632 283.202387 
L 297.3168 284.425064 
L 296.8704 284.568908 
L 296.424 283.63392 
L 295.9776 283.921609 
L 295.5312 284.065453 
L 295.0848 283.63392 
L 294.6384 283.561998 
L 294.192 283.777764 
L 293.7456 284.065453 
L 293.2992 283.346231 
L 292.8528 284.137375 
L 292.4064 282.842776 
L 291.96 283.058543 
L 291.5136 282.62701 
L 291.0672 284.712752 
L 290.6208 284.568908 
L 290.1744 284.353142 
L 289.728 284.425064 
L 289.2816 284.137375 
L 288.8352 284.496986 
L 288.3888 283.849686 
L 287.9424 285.144285 
L 287.496 285.503896 
L 287.0496 282.698932 
L 286.6032 284.496986 
L 286.1568 284.137375 
L 285.7104 285.144285 
L 285.264 285.935429 
L 284.8176 283.418154 
L 284.3712 284.712752 
L 283.9248 284.568908 
L 283.4784 286.151196 
L 283.032 285.431974 
L 282.5856 284.856597 
L 282.1392 284.712752 
L 281.6928 284.065453 
L 281.2464 283.130465 
L 280.8 282.483165 
L 280.3536 284.425064 
L 279.9072 283.921609 
L 279.4608 284.281219 
L 279.0144 286.438884 
L 278.568 283.993531 
L 278.1216 282.555088 
L 277.6752 284.209297 
L 277.2288 282.986621 
L 276.7824 283.274309 
L 276.336 283.346231 
L 275.8896 282.986621 
L 275.4432 284.065453 
L 274.9968 284.137375 
L 274.5504 283.202387 
L 274.104 284.209297 
L 273.6576 284.568908 
L 273.2112 285.216208 
L 272.7648 285.144285 
L 272.3184 286.007351 
L 271.872 283.705842 
L 271.4256 283.130465 
L 270.9792 283.561998 
L 270.5328 283.058543 
L 270.0864 284.065453 
L 269.64 282.555088 
L 269.1936 284.568908 
L 268.7472 284.784675 
L 268.3008 283.202387 
L 267.8544 283.490076 
L 267.408 283.346231 
L 266.9616 285.431974 
L 266.5152 283.130465 
L 266.0688 284.712752 
L 265.6224 285.28813 
L 265.176 286.29504 
L 264.7296 286.079274 
L 264.2832 284.209297 
L 263.8368 284.568908 
L 263.3904 285.28813 
L 262.944 282.914698 
L 262.4976 285.000441 
L 262.0512 283.561998 
L 261.6048 284.856597 
L 261.1584 286.151196 
L 260.712 285.719663 
L 260.2656 285.575818 
L 259.8192 285.144285 
L 259.3728 284.065453 
L 258.9264 284.425064 
L 258.48 284.425064 
L 258.0336 283.490076 
L 257.5872 283.418154 
L 257.1408 284.856597 
L 256.6944 283.849686 
L 256.248 285.503896 
L 255.8016 283.993531 
L 255.3552 283.705842 
L 254.9088 283.418154 
L 254.4624 284.712752 
L 254.016 284.784675 
L 253.5696 284.64083 
L 253.1232 285.000441 
L 252.6768 283.849686 
L 252.2304 283.490076 
L 251.784 284.928519 
L 251.3376 283.346231 
L 250.8912 286.798495 
L 250.4448 284.784675 
L 249.9984 284.496986 
L 249.552 283.561998 
L 249.1056 284.496986 
L 248.6592 285.719663 
L 248.2128 287.373872 
L 247.7664 283.202387 
L 247.32 283.705842 
L 246.8736 283.63392 
L 246.4272 285.431974 
L 245.9808 284.64083 
L 245.5344 283.490076 
L 245.088 284.065453 
L 244.6416 285.503896 
L 244.1952 284.137375 
L 243.7488 285.144285 
L 243.3024 285.28813 
L 242.856 285.216208 
L 242.4096 285.647741 
L 241.9632 285.000441 
L 241.5168 282.339321 
L 241.0704 285.935429 
L 240.624 283.561998 
L 240.1776 285.360052 
L 239.7312 284.281219 
L 239.2848 285.000441 
L 238.8384 284.281219 
L 238.392 284.353142 
L 237.9456 284.784675 
L 237.4992 284.568908 
L 237.0528 285.216208 
L 236.6064 284.496986 
L 236.16 283.849686 
L 235.7136 283.490076 
L 235.2672 283.63392 
L 234.8208 283.202387 
L 234.3744 282.555088 
L 233.928 285.072363 
L 233.4816 285.719663 
L 233.0352 284.281219 
L 232.5888 284.928519 
L 232.1424 284.568908 
L 231.696 285.575818 
L 231.2496 284.712752 
L 230.8032 285.000441 
L 230.3568 285.503896 
L 229.9104 285.28813 
L 229.464 284.353142 
L 229.0176 283.490076 
L 228.5712 284.209297 
L 228.1248 284.209297 
L 227.6784 285.216208 
L 227.232 286.29504 
L 226.7856 284.712752 
L 226.3392 285.28813 
L 225.8928 282.267399 
L 225.4464 285.28813 
L 225 284.712752 
L 224.5536 284.137375 
L 224.1072 285.719663 
L 223.6608 285.360052 
L 223.2144 282.698932 
L 222.768 283.490076 
L 222.3216 283.705842 
L 221.8752 285.647741 
L 221.4288 283.921609 
L 220.9824 284.496986 
L 220.536 285.503896 
L 220.0896 283.993531 
L 219.6432 285.360052 
L 219.1968 283.993531 
L 218.7504 284.353142 
L 218.304 283.921609 
L 217.8576 283.993531 
L 217.4112 281.188566 
L 216.9648 283.63392 
L 216.5184 285.216208 
L 216.072 284.353142 
L 215.6256 283.490076 
L 215.1792 284.425064 
L 214.7328 283.418154 
L 214.2864 283.921609 
L 213.84 284.856597 
L 213.3936 283.63392 
L 212.9472 285.935429 
L 212.5008 285.575818 
L 212.0544 285.144285 
L 211.608 284.64083 
L 211.1616 285.431974 
L 210.7152 285.791585 
L 210.2688 285.503896 
L 209.8224 285.647741 
L 209.376 284.784675 
L 208.9296 284.928519 
L 208.4832 282.339321 
L 208.0368 282.339321 
L 207.5904 284.496986 
L 207.144 284.928519 
L 206.6976 284.425064 
L 206.2512 284.137375 
L 205.8048 284.281219 
L 205.3584 284.496986 
L 204.912 284.353142 
L 204.4656 285.000441 
L 204.0192 284.137375 
L 203.5728 283.490076 
L 203.1264 285.072363 
L 202.68 282.267399 
L 202.2336 284.353142 
L 201.7872 285.28813 
L 201.3408 285.144285 
L 200.8944 283.274309 
L 200.448 283.490076 
L 200.0016 285.000441 
L 199.5552 283.490076 
L 199.1088 282.842776 
L 198.6624 282.842776 
L 198.216 285.360052 
L 197.7696 285.360052 
L 197.3232 283.993531 
L 196.8768 283.705842 
L 196.4304 283.561998 
L 195.984 285.431974 
L 195.5376 283.63392 
L 195.0912 286.582729 
L 194.6448 282.62701 
L 194.1984 283.346231 
L 193.752 284.425064 
L 193.3056 284.137375 
L 192.8592 285.863507 
L 192.4128 284.496986 
L 191.9664 284.856597 
L 191.52 285.935429 
L 191.0736 284.64083 
L 190.6272 282.123555 
L 190.1808 284.568908 
L 189.7344 284.856597 
L 189.288 284.496986 
L 188.8416 282.339321 
L 188.3952 284.425064 
L 187.9488 283.130465 
L 187.5024 285.072363 
L 187.056 281.97971 
L 186.6096 284.712752 
L 186.1632 281.835866 
L 185.7168 283.921609 
L 185.2704 281.763944 
L 184.824 283.130465 
L 184.3776 283.921609 
L 183.9312 283.921609 
L 183.4848 284.568908 
L 183.0384 285.000441 
L 182.592 284.353142 
L 182.1456 284.568908 
L 181.6992 284.353142 
L 181.2528 284.137375 
L 180.8064 283.705842 
L 180.36 285.791585 
L 179.9136 283.058543 
L 179.4672 283.993531 
L 179.0208 284.425064 
L 178.5744 285.431974 
L 178.128 283.418154 
L 177.6816 283.561998 
L 177.2352 285.28813 
L 176.7888 284.496986 
L 176.3424 284.209297 
L 175.896 284.209297 
L 175.4496 281.835866 
L 175.0032 284.353142 
L 174.5568 283.63392 
L 174.1104 285.000441 
L 173.664 283.993531 
L 173.2176 283.63392 
L 172.7712 283.993531 
L 172.3248 285.000441 
L 171.8784 281.907788 
L 171.432 283.346231 
L 170.9856 283.130465 
L 170.5392 283.274309 
L 170.0928 282.411243 
L 169.6464 282.698932 
L 169.2 285.575818 
L 168.7536 283.130465 
L 168.3072 282.339321 
L 167.8608 283.63392 
L 167.4144 283.418154 
L 166.968 285.28813 
L 166.5216 284.64083 
L 166.0752 282.267399 
L 165.6288 283.346231 
L 165.1824 284.209297 
L 164.736 281.332411 
L 164.2896 282.195477 
L 163.8432 284.496986 
L 163.3968 284.784675 
L 162.9504 284.209297 
L 162.504 284.496986 
L 162.0576 282.842776 
L 161.6112 284.496986 
L 161.1648 282.842776 
L 160.7184 284.281219 
L 160.272 282.698932 
L 159.8256 283.921609 
L 159.3792 282.483165 
L 158.9328 282.411243 
L 158.4864 285.791585 
L 158.04 285.935429 
L 157.5936 282.698932 
L 157.1472 284.712752 
L 156.7008 283.705842 
L 156.2544 282.842776 
L 155.808 283.202387 
L 155.3616 283.274309 
L 154.9152 283.561998 
L 154.4688 284.137375 
L 154.0224 284.425064 
L 153.576 285.000441 
L 153.1296 283.993531 
L 152.6832 283.993531 
L 152.2368 283.561998 
L 151.7904 281.907788 
L 151.344 284.353142 
L 150.8976 284.065453 
L 150.4512 284.353142 
L 150.0048 284.928519 
L 149.5584 282.770854 
L 149.112 283.849686 
L 148.6656 283.202387 
L 148.2192 282.698932 
L 147.7728 283.921609 
L 147.3264 281.835866 
L 146.88 282.842776 
L 146.4336 282.770854 
L 145.9872 284.353142 
L 145.5408 283.777764 
L 145.0944 282.195477 
L 144.648 284.784675 
L 144.2016 284.856597 
L 143.7552 281.907788 
L 143.3088 284.784675 
L 142.8624 284.496986 
L 142.416 281.620099 
L 141.9696 282.62701 
L 141.5232 283.993531 
L 141.0768 282.411243 
L 140.6304 283.346231 
L 140.184 281.835866 
L 139.7376 283.993531 
L 139.2912 284.568908 
L 138.8448 283.346231 
L 138.3984 284.712752 
L 137.952 284.712752 
L 137.5056 284.353142 
L 137.0592 283.058543 
L 136.6128 284.425064 
L 136.1664 282.62701 
L 135.72 284.353142 
L 135.2736 281.907788 
L 134.8272 283.418154 
L 134.3808 281.116644 
L 133.9344 282.483165 
L 133.488 283.705842 
L 133.0416 284.137375 
L 132.5952 283.490076 
L 132.1488 282.770854 
L 131.7024 283.63392 
L 131.256 285.28813 
L 130.8096 281.188566 
L 130.3632 283.705842 
L 129.9168 283.130465 
L 129.4704 282.051632 
L 129.024 284.568908 
L 128.5776 284.64083 
L 128.1312 283.921609 
L 127.6848 283.058543 
L 127.2384 283.346231 
L 126.792 282.411243 
L 126.3456 282.339321 
L 125.8992 281.044722 
L 125.4528 280.181656 
L 125.0064 284.065453 
L 124.56 281.907788 
L 124.1136 280.253578 
L 123.6672 283.993531 
L 123.2208 282.770854 
L 122.7744 281.548177 
L 122.328 283.849686 
L 121.8816 282.698932 
L 121.4352 283.346231 
L 120.9888 283.993531 
L 120.5424 282.986621 
L 120.096 284.137375 
L 119.6496 284.64083 
L 119.2032 282.123555 
L 118.7568 282.698932 
L 118.3104 282.986621 
L 117.864 281.476255 
L 117.4176 280.9728 
L 116.9712 282.051632 
L 116.5248 282.267399 
L 116.0784 282.483165 
L 115.632 283.561998 
L 115.1856 283.490076 
L 114.7392 282.483165 
L 114.2928 281.116644 
L 113.8464 283.058543 
L 113.4 283.346231 
L 112.9536 284.784675 
L 112.5072 282.770854 
L 112.0608 283.561998 
L 111.6144 282.842776 
L 111.168 282.411243 
L 110.7216 282.483165 
L 110.2752 283.993531 
L 109.8288 283.490076 
L 109.3824 283.561998 
L 108.936 284.784675 
L 108.4896 282.483165 
L 108.0432 281.620099 
L 107.5968 283.058543 
L 107.1504 283.777764 
L 106.704 282.483165 
L 106.2576 282.986621 
L 105.8112 282.195477 
L 105.3648 282.123555 
L 104.9184 282.62701 
L 104.472 281.476255 
L 104.0256 283.63392 
L 103.5792 282.411243 
L 103.1328 282.698932 
L 102.6864 285.431974 
L 102.24 282.411243 
L 101.7936 281.260489 
L 101.3472 282.483165 
L 100.9008 283.274309 
L 100.4544 283.993531 
L 100.008 282.123555 
L 99.5616 283.418154 
L 99.1152 284.496986 
L 98.6688 283.561998 
L 98.2224 281.332411 
L 97.776 284.137375 
L 97.3296 283.058543 
L 96.8832 283.058543 
L 96.4368 282.770854 
L 95.9904 281.763944 
L 95.544 283.274309 
L 95.0976 283.130465 
L 94.6512 282.123555 
L 94.2048 283.993531 
L 93.7584 281.97971 
L 93.312 283.202387 
L 92.8656 283.561998 
L 92.4192 283.058543 
L 91.9728 283.202387 
L 91.5264 282.986621 
L 91.08 283.921609 
L 90.6336 284.353142 
L 90.1872 282.123555 
L 89.7408 282.914698 
L 89.2944 284.209297 
L 88.848 283.418154 
L 88.4016 282.123555 
L 87.9552 283.777764 
L 87.5088 282.483165 
L 87.0624 283.561998 
L 86.616 284.928519 
L 86.1696 281.763944 
L 85.7232 283.130465 
L 85.2768 281.620099 
L 84.8304 284.353142 
L 84.384 283.777764 
L 83.9376 283.705842 
L 83.4912 282.698932 
L 83.0448 283.130465 
L 82.5984 283.993531 
L 82.152 283.202387 
L 81.7056 282.483165 
L 81.2592 283.705842 
L 80.8128 284.425064 
L 80.3664 281.548177 
L 79.92 282.698932 
L 79.4736 284.425064 
L 79.0272 283.130465 
L 78.5808 282.770854 
L 78.1344 283.130465 
L 77.688 281.692022 
L 77.2416 285.144285 
L 76.7952 283.777764 
L 76.3488 283.058543 
L 75.9024 283.63392 
L 75.456 283.418154 
L 75.0096 282.914698 
L 74.5632 283.346231 
L 74.1168 285.216208 
L 73.6704 281.97971 
L 73.224 283.490076 
L 72.7776 283.130465 
L 72.3312 283.346231 
L 71.8848 284.137375 
L 71.4384 284.353142 
L 70.992 283.993531 
L 70.5456 283.993531 
L 70.0992 284.281219 
L 69.6528 283.63392 
L 69.2064 285.360052 
L 68.76 285.935429 
L 68.3136 283.921609 
L 67.8672 284.496986 
L 67.4208 283.202387 
L 66.9744 283.777764 
L 66.528 284.712752 
L 66.0816 283.561998 
L 65.6352 283.202387 
L 65.1888 283.921609 
L 64.7424 283.777764 
L 64.296 285.144285 
L 63.8496 285.647741 
L 63.4032 282.914698 
L 62.9568 286.654651 
L 62.5104 282.267399 
L 62.064 284.353142 
L 61.6176 285.000441 
L 61.1712 286.654651 
L 60.7248 285.000441 
L 60.2784 285.575818 
L 59.832 282.986621 
L 59.3856 284.64083 
L 58.9392 286.223118 
L 58.4928 285.647741 
L 58.0464 283.777764 
z
" style="fill:#1f77b4;fill-opacity:0.25;"/>
   </g>
   <g id="matplotlib.axis_1">
    <g id="xtick_1">
     <g id="line2d_1">
      <defs>
       <path d="M 0 0 
L 0 4.8 
" id="me92f9a5c89" style="stroke:#000000;"/>
      </defs>
      <g>
       <use style="stroke:#000000;" x="57.6" xlink:href="#me92f9a5c89" y="307.584"/>
      </g>
     </g>
     <g id="text_1">
      <!-- 0 -->
      <g transform="translate(54.8005 322.570625)scale(0.088 -0.088)">
       <defs>
        <path d="M 2034 4250 
Q 1547 4250 1301 3770 
Q 1056 3291 1056 2328 
Q 1056 1369 1301 889 
Q 1547 409 2034 409 
Q 2525 409 2770 889 
Q 3016 1369 3016 2328 
Q 3016 3291 2770 3770 
Q 2525 4250 2034 4250 
z
M 2034 4750 
Q 2819 4750 3233 4129 
Q 3647 3509 3647 2328 
Q 3647 1150 3233 529 
Q 2819 -91 2034 -91 
Q 1250 -91 836 529 
Q 422 1150 422 2328 
Q 422 3509 836 4129 
Q 1250 4750 2034 4750 
z
" id="DejaVuSans-30" transform="scale(0.015625)"/>
       </defs>
       <use xlink:href="#DejaVuSans-30"/>
      </g>
     </g>
    </g>
    <g id="xtick_2">
     <g id="line2d_2">
      <g>
       <use style="stroke:#000000;" x="102.24" xlink:href="#me92f9a5c89" y="307.584"/>
      </g>
     </g>
     <g id="text_2">
      <!-- 100 -->
      <g transform="translate(93.8415 322.570625)scale(0.088 -0.088)">
       <defs>
        <path d="M 794 531 
L 1825 531 
L 1825 4091 
L 703 3866 
L 703 4441 
L 1819 4666 
L 2450 4666 
L 2450 531 
L 3481 531 
L 3481 0 
L 794 0 
L 794 531 
z
" id="DejaVuSans-31" transform="scale(0.015625)"/>
       </defs>
       <use xlink:href="#DejaVuSans-31"/>
       <use x="63.623047" xlink:href="#DejaVuSans-30"/>
       <use x="127.246094" xlink:href="#DejaVuSans-30"/>
      </g>
     </g>
    </g>
    <g id="xtick_3">
     <g id="line2d_3">
      <g>
       <use style="stroke:#000000;" x="146.88" xlink:href="#me92f9a5c89" y="307.584"/>
      </g>
     </g>
     <g id="text_3">
      <!-- 200 -->
      <g transform="translate(138.4815 322.570625)scale(0.088 -0.088)">
       <defs>
        <path d="M 1228 531 
L 3431 531 
L 3431 0 
L 469 0 
L 469 531 
Q 828 903 1448 1529 
Q 2069 2156 2228 2338 
Q 2531 2678 2651 2914 
Q 2772 3150 2772 3378 
Q 2772 3750 2511 3984 
Q 2250 4219 1831 4219 
Q 1534 4219 1204 4116 
Q 875 4013 500 3803 
L 500 4441 
Q 881 4594 1212 4672 
Q 1544 4750 1819 4750 
Q 2544 4750 2975 4387 
Q 3406 4025 3406 3419 
Q 3406 3131 3298 2873 
Q 3191 2616 2906 2266 
Q 2828 2175 2409 1742 
Q 1991 1309 1228 531 
z
" id="DejaVuSans-32" transform="scale(0.015625)"/>
       </defs>
       <use xlink:href="#DejaVuSans-32"/>
       <use x="63.623047" xlink:href="#DejaVuSans-30"/>
       <use x="127.246094" xlink:href="#DejaVuSans-30"/>
      </g>
     </g>
    </g>
    <g id="xtick_4">
     <g id="line2d_4">
      <g>
       <use style="stroke:#000000;" x="191.52" xlink:href="#me92f9a5c89" y="307.584"/>
      </g>
     </g>
     <g id="text_4">
      <!-- 300 -->
      <g transform="translate(183.1215 322.570625)scale(0.088 -0.088)">
       <defs>
        <path d="M 2597 2516 
Q 3050 2419 3304 2112 
Q 3559 1806 3559 1356 
Q 3559 666 3084 287 
Q 2609 -91 1734 -91 
Q 1441 -91 1130 -33 
Q 819 25 488 141 
L 488 750 
Q 750 597 1062 519 
Q 1375 441 1716 441 
Q 2309 441 2620 675 
Q 2931 909 2931 1356 
Q 2931 1769 2642 2001 
Q 2353 2234 1838 2234 
L 1294 2234 
L 1294 2753 
L 1863 2753 
Q 2328 2753 2575 2939 
Q 2822 3125 2822 3475 
Q 2822 3834 2567 4026 
Q 2313 4219 1838 4219 
Q 1578 4219 1281 4162 
Q 984 4106 628 3988 
L 628 4550 
Q 988 4650 1302 4700 
Q 1616 4750 1894 4750 
Q 2613 4750 3031 4423 
Q 3450 4097 3450 3541 
Q 3450 3153 3228 2886 
Q 3006 2619 2597 2516 
z
" id="DejaVuSans-33" transform="scale(0.015625)"/>
       </defs>
       <use xlink:href="#DejaVuSans-33"/>
       <use x="63.623047" xlink:href="#DejaVuSans-30"/>
       <use x="127.246094" xlink:href="#DejaVuSans-30"/>
      </g>
     </g>
    </g>
    <g id="xtick_5">
     <g id="line2d_5">
      <g>
       <use style="stroke:#000000;" x="236.16" xlink:href="#me92f9a5c89" y="307.584"/>
      </g>
     </g>
     <g id="text_5">
      <!-- 400 -->
      <g transform="translate(227.7615 322.570625)scale(0.088 -0.088)">
       <defs>
        <path d="M 2419 4116 
L 825 1625 
L 2419 1625 
L 2419 4116 
z
M 2253 4666 
L 3047 4666 
L 3047 1625 
L 3713 1625 
L 3713 1100 
L 3047 1100 
L 3047 0 
L 2419 0 
L 2419 1100 
L 313 1100 
L 313 1709 
L 2253 4666 
z
" id="DejaVuSans-34" transform="scale(0.015625)"/>
       </defs>
       <use xlink:href="#DejaVuSans-34"/>
       <use x="63.623047" xlink:href="#DejaVuSans-30"/>
       <use x="127.246094" xlink:href="#DejaVuSans-30"/>
      </g>
     </g>
    </g>
    <g id="xtick_6">
     <g id="line2d_6">
      <g>
       <use style="stroke:#000000;" x="280.8" xlink:href="#me92f9a5c89" y="307.584"/>
      </g>
     </g>
     <g id="text_6">
      <!-- 500 -->
      <g transform="translate(272.4015 322.570625)scale(0.088 -0.088)">
       <defs>
        <path d="M 691 4666 
L 3169 4666 
L 3169 4134 
L 1269 4134 
L 1269 2991 
Q 1406 3038 1543 3061 
Q 1681 3084 1819 3084 
Q 2600 3084 3056 2656 
Q 3513 2228 3513 1497 
Q 3513 744 3044 326 
Q 2575 -91 1722 -91 
Q 1428 -91 1123 -41 
Q 819 9 494 109 
L 494 744 
Q 775 591 1075 516 
Q 1375 441 1709 441 
Q 2250 441 2565 725 
Q 2881 1009 2881 1497 
Q 2881 1984 2565 2268 
Q 2250 2553 1709 2553 
Q 1456 2553 1204 2497 
Q 953 2441 691 2322 
L 691 4666 
z
" id="DejaVuSans-35" transform="scale(0.015625)"/>
       </defs>
       <use xlink:href="#DejaVuSans-35"/>
       <use x="63.623047" xlink:href="#DejaVuSans-30"/>
       <use x="127.246094" xlink:href="#DejaVuSans-30"/>
      </g>
     </g>
    </g>
    <g id="xtick_7">
     <g id="line2d_7">
      <g>
       <use style="stroke:#000000;" x="325.44" xlink:href="#me92f9a5c89" y="307.584"/>
      </g>
     </g>
     <g id="text_7">
      <!-- 600 -->
      <g transform="translate(317.0415 322.570625)scale(0.088 -0.088)">
       <defs>
        <path d="M 2113 2584 
Q 1688 2584 1439 2293 
Q 1191 2003 1191 1497 
Q 1191 994 1439 701 
Q 1688 409 2113 409 
Q 2538 409 2786 701 
Q 3034 994 3034 1497 
Q 3034 2003 2786 2293 
Q 2538 2584 2113 2584 
z
M 3366 4563 
L 3366 3988 
Q 3128 4100 2886 4159 
Q 2644 4219 2406 4219 
Q 1781 4219 1451 3797 
Q 1122 3375 1075 2522 
Q 1259 2794 1537 2939 
Q 1816 3084 2150 3084 
Q 2853 3084 3261 2657 
Q 3669 2231 3669 1497 
Q 3669 778 3244 343 
Q 2819 -91 2113 -91 
Q 1303 -91 875 529 
Q 447 1150 447 2328 
Q 447 3434 972 4092 
Q 1497 4750 2381 4750 
Q 2619 4750 2861 4703 
Q 3103 4656 3366 4563 
z
" id="DejaVuSans-36" transform="scale(0.015625)"/>
       </defs>
       <use xlink:href="#DejaVuSans-36"/>
       <use x="63.623047" xlink:href="#DejaVuSans-30"/>
       <use x="127.246094" xlink:href="#DejaVuSans-30"/>
      </g>
     </g>
    </g>
    <g id="xtick_8">
     <g id="line2d_8">
      <g>
       <use style="stroke:#000000;" x="370.08" xlink:href="#me92f9a5c89" y="307.584"/>
      </g>
     </g>
     <g id="text_8">
      <!-- 700 -->
      <g transform="translate(361.6815 322.570625)scale(0.088 -0.088)">
       <defs>
        <path d="M 525 4666 
L 3525 4666 
L 3525 4397 
L 1831 0 
L 1172 0 
L 2766 4134 
L 525 4134 
L 525 4666 
z
" id="DejaVuSans-37" transform="scale(0.015625)"/>
       </defs>
       <use xlink:href="#DejaVuSans-37"/>
       <use x="63.623047" xlink:href="#DejaVuSans-30"/>
       <use x="127.246094" xlink:href="#DejaVuSans-30"/>
      </g>
     </g>
    </g>
    <g id="xtick_9">
     <g id="line2d_9">
      <g>
       <use style="stroke:#000000;" x="414.72" xlink:href="#me92f9a5c89" y="307.584"/>
      </g>
     </g>
     <g id="text_9">
      <!-- 800 -->
      <g transform="translate(406.3215 322.570625)scale(0.088 -0.088)">
       <defs>
        <path d="M 2034 2216 
Q 1584 2216 1326 1975 
Q 1069 1734 1069 1313 
Q 1069 891 1326 650 
Q 1584 409 2034 409 
Q 2484 409 2743 651 
Q 3003 894 3003 1313 
Q 3003 1734 2745 1975 
Q 2488 2216 2034 2216 
z
M 1403 2484 
Q 997 2584 770 2862 
Q 544 3141 544 3541 
Q 544 4100 942 4425 
Q 1341 4750 2034 4750 
Q 2731 4750 3128 4425 
Q 3525 4100 3525 3541 
Q 3525 3141 3298 2862 
Q 3072 2584 2669 2484 
Q 3125 2378 3379 2068 
Q 3634 1759 3634 1313 
Q 3634 634 3220 271 
Q 2806 -91 2034 -91 
Q 1263 -91 848 271 
Q 434 634 434 1313 
Q 434 1759 690 2068 
Q 947 2378 1403 2484 
z
M 1172 3481 
Q 1172 3119 1398 2916 
Q 1625 2713 2034 2713 
Q 2441 2713 2670 2916 
Q 2900 3119 2900 3481 
Q 2900 3844 2670 4047 
Q 2441 4250 2034 4250 
Q 1625 4250 1398 4047 
Q 1172 3844 1172 3481 
z
" id="DejaVuSans-38" transform="scale(0.015625)"/>
       </defs>
       <use xlink:href="#DejaVuSans-38"/>
       <use x="63.623047" xlink:href="#DejaVuSans-30"/>
       <use x="127.246094" xlink:href="#DejaVuSans-30"/>
      </g>
     </g>
    </g>
    <g id="text_10">
     <!-- Timestep -->
     <g transform="translate(214.03275 335.69525)scale(0.096 -0.096)">
      <defs>
       <path d="M -19 4666 
L 3928 4666 
L 3928 4134 
L 2272 4134 
L 2272 0 
L 1638 0 
L 1638 4134 
L -19 4134 
L -19 4666 
z
" id="DejaVuSans-54" transform="scale(0.015625)"/>
       <path d="M 603 3500 
L 1178 3500 
L 1178 0 
L 603 0 
L 603 3500 
z
M 603 4863 
L 1178 4863 
L 1178 4134 
L 603 4134 
L 603 4863 
z
" id="DejaVuSans-69" transform="scale(0.015625)"/>
       <path d="M 3328 2828 
Q 3544 3216 3844 3400 
Q 4144 3584 4550 3584 
Q 5097 3584 5394 3201 
Q 5691 2819 5691 2113 
L 5691 0 
L 5113 0 
L 5113 2094 
Q 5113 2597 4934 2840 
Q 4756 3084 4391 3084 
Q 3944 3084 3684 2787 
Q 3425 2491 3425 1978 
L 3425 0 
L 2847 0 
L 2847 2094 
Q 2847 2600 2669 2842 
Q 2491 3084 2119 3084 
Q 1678 3084 1418 2786 
Q 1159 2488 1159 1978 
L 1159 0 
L 581 0 
L 581 3500 
L 1159 3500 
L 1159 2956 
Q 1356 3278 1631 3431 
Q 1906 3584 2284 3584 
Q 2666 3584 2933 3390 
Q 3200 3197 3328 2828 
z
" id="DejaVuSans-6d" transform="scale(0.015625)"/>
       <path d="M 3597 1894 
L 3597 1613 
L 953 1613 
Q 991 1019 1311 708 
Q 1631 397 2203 397 
Q 2534 397 2845 478 
Q 3156 559 3463 722 
L 3463 178 
Q 3153 47 2828 -22 
Q 2503 -91 2169 -91 
Q 1331 -91 842 396 
Q 353 884 353 1716 
Q 353 2575 817 3079 
Q 1281 3584 2069 3584 
Q 2775 3584 3186 3129 
Q 3597 2675 3597 1894 
z
M 3022 2063 
Q 3016 2534 2758 2815 
Q 2500 3097 2075 3097 
Q 1594 3097 1305 2825 
Q 1016 2553 972 2059 
L 3022 2063 
z
" id="DejaVuSans-65" transform="scale(0.015625)"/>
       <path d="M 2834 3397 
L 2834 2853 
Q 2591 2978 2328 3040 
Q 2066 3103 1784 3103 
Q 1356 3103 1142 2972 
Q 928 2841 928 2578 
Q 928 2378 1081 2264 
Q 1234 2150 1697 2047 
L 1894 2003 
Q 2506 1872 2764 1633 
Q 3022 1394 3022 966 
Q 3022 478 2636 193 
Q 2250 -91 1575 -91 
Q 1294 -91 989 -36 
Q 684 19 347 128 
L 347 722 
Q 666 556 975 473 
Q 1284 391 1588 391 
Q 1994 391 2212 530 
Q 2431 669 2431 922 
Q 2431 1156 2273 1281 
Q 2116 1406 1581 1522 
L 1381 1569 
Q 847 1681 609 1914 
Q 372 2147 372 2553 
Q 372 3047 722 3315 
Q 1072 3584 1716 3584 
Q 2034 3584 2315 3537 
Q 2597 3491 2834 3397 
z
" id="DejaVuSans-73" transform="scale(0.015625)"/>
       <path d="M 1172 4494 
L 1172 3500 
L 2356 3500 
L 2356 3053 
L 1172 3053 
L 1172 1153 
Q 1172 725 1289 603 
Q 1406 481 1766 481 
L 2356 481 
L 2356 0 
L 1766 0 
Q 1100 0 847 248 
Q 594 497 594 1153 
L 594 3053 
L 172 3053 
L 172 3500 
L 594 3500 
L 594 4494 
L 1172 4494 
z
" id="DejaVuSans-74" transform="scale(0.015625)"/>
       <path d="M 1159 525 
L 1159 -1331 
L 581 -1331 
L 581 3500 
L 1159 3500 
L 1159 2969 
Q 1341 3281 1617 3432 
Q 1894 3584 2278 3584 
Q 2916 3584 3314 3078 
Q 3713 2572 3713 1747 
Q 3713 922 3314 415 
Q 2916 -91 2278 -91 
Q 1894 -91 1617 61 
Q 1341 213 1159 525 
z
M 3116 1747 
Q 3116 2381 2855 2742 
Q 2594 3103 2138 3103 
Q 1681 3103 1420 2742 
Q 1159 2381 1159 1747 
Q 1159 1113 1420 752 
Q 1681 391 2138 391 
Q 2594 391 2855 752 
Q 3116 1113 3116 1747 
z
" id="DejaVuSans-70" transform="scale(0.015625)"/>
      </defs>
      <use xlink:href="#DejaVuSans-54"/>
      <use x="57.958984" xlink:href="#DejaVuSans-69"/>
      <use x="85.742188" xlink:href="#DejaVuSans-6d"/>
      <use x="183.154297" xlink:href="#DejaVuSans-65"/>
      <use x="244.677734" xlink:href="#DejaVuSans-73"/>
      <use x="296.777344" xlink:href="#DejaVuSans-74"/>
      <use x="335.986328" xlink:href="#DejaVuSans-65"/>
      <use x="397.509766" xlink:href="#DejaVuSans-70"/>
     </g>
    </g>
   </g>
   <g id="matplotlib.axis_2">
    <g id="ytick_1">
     <g id="line2d_10">
      <defs>
       <path d="M 0 0 
L -4.8 0 
" id="m04779ceff9" style="stroke:#000000;"/>
      </defs>
      <g>
       <use style="stroke:#000000;" x="57.6" xlink:href="#m04779ceff9" y="293.199568"/>
      </g>
     </g>
     <g id="text_11">
      <!-- 0 -->
      <g transform="translate(43.701 296.54288)scale(0.088 -0.088)">
       <use xlink:href="#DejaVuSans-30"/>
      </g>
     </g>
    </g>
    <g id="ytick_2">
     <g id="line2d_11">
      <g>
       <use style="stroke:#000000;" x="57.6" xlink:href="#m04779ceff9" y="257.238486"/>
      </g>
     </g>
     <g id="text_12">
      <!-- 5 -->
      <g transform="translate(43.701 260.581799)scale(0.088 -0.088)">
       <use xlink:href="#DejaVuSans-35"/>
      </g>
     </g>
    </g>
    <g id="ytick_3">
     <g id="line2d_12">
      <g>
       <use style="stroke:#000000;" x="57.6" xlink:href="#m04779ceff9" y="221.277405"/>
      </g>
     </g>
     <g id="text_13">
      <!-- 10 -->
      <g transform="translate(38.102 224.620718)scale(0.088 -0.088)">
       <use xlink:href="#DejaVuSans-31"/>
       <use x="63.623047" xlink:href="#DejaVuSans-30"/>
      </g>
     </g>
    </g>
    <g id="ytick_4">
     <g id="line2d_13">
      <g>
       <use style="stroke:#000000;" x="57.6" xlink:href="#m04779ceff9" y="185.316324"/>
      </g>
     </g>
     <g id="text_14">
      <!-- 15 -->
      <g transform="translate(38.102 188.659637)scale(0.088 -0.088)">
       <use xlink:href="#DejaVuSans-31"/>
       <use x="63.623047" xlink:href="#DejaVuSans-35"/>
      </g>
     </g>
    </g>
    <g id="ytick_5">
     <g id="line2d_14">
      <g>
       <use style="stroke:#000000;" x="57.6" xlink:href="#m04779ceff9" y="149.355243"/>
      </g>
     </g>
     <g id="text_15">
      <!-- 20 -->
      <g transform="translate(38.102 152.698556)scale(0.088 -0.088)">
       <use xlink:href="#DejaVuSans-32"/>
       <use x="63.623047" xlink:href="#DejaVuSans-30"/>
      </g>
     </g>
    </g>
    <g id="ytick_6">
     <g id="line2d_15">
      <g>
       <use style="stroke:#000000;" x="57.6" xlink:href="#m04779ceff9" y="113.394162"/>
      </g>
     </g>
     <g id="text_16">
      <!-- 25 -->
      <g transform="translate(38.102 116.737475)scale(0.088 -0.088)">
       <use xlink:href="#DejaVuSans-32"/>
       <use x="63.623047" xlink:href="#DejaVuSans-35"/>
      </g>
     </g>
    </g>
    <g id="ytick_7">
     <g id="line2d_16">
      <g>
       <use style="stroke:#000000;" x="57.6" xlink:href="#m04779ceff9" y="77.433081"/>
      </g>
     </g>
     <g id="text_17">
      <!-- 30 -->
      <g transform="translate(38.102 80.776394)scale(0.088 -0.088)">
       <use xlink:href="#DejaVuSans-33"/>
       <use x="63.623047" xlink:href="#DejaVuSans-30"/>
      </g>
     </g>
    </g>
    <g id="ytick_8">
     <g id="line2d_17">
      <g>
       <use style="stroke:#000000;" x="57.6" xlink:href="#m04779ceff9" y="41.472"/>
      </g>
     </g>
     <g id="text_18">
      <!-- 35 -->
      <g transform="translate(38.102 44.815313)scale(0.088 -0.088)">
       <use xlink:href="#DejaVuSans-33"/>
       <use x="63.623047" xlink:href="#DejaVuSans-35"/>
      </g>
     </g>
    </g>
    <g id="text_19">
     <!-- Reward -->
     <g transform="translate(32.1055 192.40425)rotate(-90)scale(0.096 -0.096)">
      <defs>
       <path d="M 2841 2188 
Q 3044 2119 3236 1894 
Q 3428 1669 3622 1275 
L 4263 0 
L 3584 0 
L 2988 1197 
Q 2756 1666 2539 1819 
Q 2322 1972 1947 1972 
L 1259 1972 
L 1259 0 
L 628 0 
L 628 4666 
L 2053 4666 
Q 2853 4666 3247 4331 
Q 3641 3997 3641 3322 
Q 3641 2881 3436 2590 
Q 3231 2300 2841 2188 
z
M 1259 4147 
L 1259 2491 
L 2053 2491 
Q 2509 2491 2742 2702 
Q 2975 2913 2975 3322 
Q 2975 3731 2742 3939 
Q 2509 4147 2053 4147 
L 1259 4147 
z
" id="DejaVuSans-52" transform="scale(0.015625)"/>
       <path d="M 269 3500 
L 844 3500 
L 1563 769 
L 2278 3500 
L 2956 3500 
L 3675 769 
L 4391 3500 
L 4966 3500 
L 4050 0 
L 3372 0 
L 2619 2869 
L 1863 0 
L 1184 0 
L 269 3500 
z
" id="DejaVuSans-77" transform="scale(0.015625)"/>
       <path d="M 2194 1759 
Q 1497 1759 1228 1600 
Q 959 1441 959 1056 
Q 959 750 1161 570 
Q 1363 391 1709 391 
Q 2188 391 2477 730 
Q 2766 1069 2766 1631 
L 2766 1759 
L 2194 1759 
z
M 3341 1997 
L 3341 0 
L 2766 0 
L 2766 531 
Q 2569 213 2275 61 
Q 1981 -91 1556 -91 
Q 1019 -91 701 211 
Q 384 513 384 1019 
Q 384 1609 779 1909 
Q 1175 2209 1959 2209 
L 2766 2209 
L 2766 2266 
Q 2766 2663 2505 2880 
Q 2244 3097 1772 3097 
Q 1472 3097 1187 3025 
Q 903 2953 641 2809 
L 641 3341 
Q 956 3463 1253 3523 
Q 1550 3584 1831 3584 
Q 2591 3584 2966 3190 
Q 3341 2797 3341 1997 
z
" id="DejaVuSans-61" transform="scale(0.015625)"/>
       <path d="M 2631 2963 
Q 2534 3019 2420 3045 
Q 2306 3072 2169 3072 
Q 1681 3072 1420 2755 
Q 1159 2438 1159 1844 
L 1159 0 
L 581 0 
L 581 3500 
L 1159 3500 
L 1159 2956 
Q 1341 3275 1631 3429 
Q 1922 3584 2338 3584 
Q 2397 3584 2469 3576 
Q 2541 3569 2628 3553 
L 2631 2963 
z
" id="DejaVuSans-72" transform="scale(0.015625)"/>
       <path d="M 2906 2969 
L 2906 4863 
L 3481 4863 
L 3481 0 
L 2906 0 
L 2906 525 
Q 2725 213 2448 61 
Q 2172 -91 1784 -91 
Q 1150 -91 751 415 
Q 353 922 353 1747 
Q 353 2572 751 3078 
Q 1150 3584 1784 3584 
Q 2172 3584 2448 3432 
Q 2725 3281 2906 2969 
z
M 947 1747 
Q 947 1113 1208 752 
Q 1469 391 1925 391 
Q 2381 391 2643 752 
Q 2906 1113 2906 1747 
Q 2906 2381 2643 2742 
Q 2381 3103 1925 3103 
Q 1469 3103 1208 2742 
Q 947 2381 947 1747 
z
" id="DejaVuSans-64" transform="scale(0.015625)"/>
      </defs>
      <use xlink:href="#DejaVuSans-52"/>
      <use x="64.982422" xlink:href="#DejaVuSans-65"/>
      <use x="126.505859" xlink:href="#DejaVuSans-77"/>
      <use x="208.292969" xlink:href="#DejaVuSans-61"/>
      <use x="269.572266" xlink:href="#DejaVuSans-72"/>
      <use x="308.935547" xlink:href="#DejaVuSans-64"/>
     </g>
    </g>
   </g>
   <g id="line2d_18">
    <path clip-path="url(#p7ff1898b93)" d="M 58.0464 285.503896 
L 58.4928 286.151196 
L 58.9392 287.014262 
L 59.3856 284.928519 
L 59.832 283.63392 
L 60.2784 286.223118 
L 60.7248 286.438884 
L 61.1712 286.870417 
L 62.064 284.568908 
L 62.5104 284.065453 
L 62.9568 286.654651 
L 63.4032 286.223118 
L 63.8496 286.798495 
L 64.296 286.079274 
L 64.7424 284.784675 
L 66.0816 283.849686 
L 66.528 287.014262 
L 66.9744 284.712752 
L 67.8672 285.719663 
L 68.3136 284.712752 
L 68.76 286.223118 
L 69.2064 286.366962 
L 69.6528 285.216208 
L 70.5456 285.072363 
L 70.992 285.144285 
L 71.4384 285.431974 
L 72.3312 283.777764 
L 72.7776 283.561998 
L 73.224 285.503896 
L 73.6704 283.849686 
L 74.1168 285.503896 
L 74.5632 284.568908 
L 75.0096 285.000441 
L 75.456 284.281219 
L 75.9024 284.856597 
L 76.3488 283.490076 
L 76.7952 284.712752 
L 77.2416 286.438884 
L 77.688 283.130465 
L 78.1344 284.928519 
L 78.5808 283.777764 
L 79.0272 284.425064 
L 79.4736 287.086184 
L 79.92 285.000441 
L 80.3664 284.281219 
L 80.8128 285.28813 
L 81.2592 284.568908 
L 81.7056 284.065453 
L 82.152 284.496986 
L 82.5984 285.28813 
L 83.0448 284.856597 
L 83.4912 285.216208 
L 84.384 284.209297 
L 84.8304 285.28813 
L 85.7232 285.791585 
L 86.1696 283.561998 
L 86.616 286.29504 
L 87.0624 285.431974 
L 87.5088 284.281219 
L 87.9552 285.360052 
L 88.4016 283.849686 
L 88.848 285.575818 
L 89.2944 284.64083 
L 89.7408 286.151196 
L 90.1872 283.777764 
L 90.6336 286.582729 
L 91.08 284.568908 
L 91.5264 283.274309 
L 92.4192 286.007351 
L 92.8656 283.705842 
L 93.312 283.561998 
L 93.7584 283.130465 
L 94.2048 285.575818 
L 94.6512 283.777764 
L 95.0976 283.63392 
L 95.544 284.712752 
L 95.9904 283.993531 
L 96.4368 284.425064 
L 96.8832 284.353142 
L 97.3296 283.202387 
L 97.776 285.719663 
L 98.2224 285.647741 
L 98.6688 284.209297 
L 99.1152 284.856597 
L 99.5616 283.993531 
L 100.008 283.849686 
L 100.4544 284.928519 
L 100.9008 284.353142 
L 101.3472 284.928519 
L 101.7936 283.63392 
L 102.24 282.842776 
L 102.6864 286.654651 
L 103.1328 284.784675 
L 103.5792 284.496986 
L 104.0256 285.431974 
L 104.472 283.274309 
L 104.9184 284.64083 
L 105.3648 285.575818 
L 105.8112 283.346231 
L 106.2576 284.281219 
L 106.704 283.346231 
L 107.1504 285.216208 
L 107.5968 284.784675 
L 108.0432 282.842776 
L 108.4896 284.353142 
L 108.936 285.431974 
L 109.3824 284.425064 
L 109.8288 284.281219 
L 110.2752 284.496986 
L 110.7216 282.698932 
L 111.168 283.202387 
L 112.0608 285.575818 
L 112.5072 283.921609 
L 112.9536 285.575818 
L 113.4 283.993531 
L 113.8464 285.575818 
L 114.2928 282.842776 
L 114.7392 285.072363 
L 115.1856 286.438884 
L 115.632 284.784675 
L 116.0784 284.568908 
L 116.5248 283.346231 
L 116.9712 284.64083 
L 117.864 282.842776 
L 118.3104 285.431974 
L 118.7568 283.058543 
L 119.2032 282.698932 
L 119.6496 285.144285 
L 120.096 284.856597 
L 120.5424 283.490076 
L 120.9888 285.647741 
L 121.4352 284.209297 
L 121.8816 283.418154 
L 122.328 284.281219 
L 122.7744 283.561998 
L 123.2208 285.719663 
L 124.1136 282.914698 
L 124.56 282.411243 
L 125.0064 284.64083 
L 125.4528 284.496986 
L 125.8992 285.431974 
L 126.3456 285.503896 
L 126.792 284.568908 
L 127.2384 285.431974 
L 127.6848 284.496986 
L 128.1312 284.568908 
L 128.5776 285.216208 
L 129.024 286.726573 
L 129.9168 283.849686 
L 130.3632 284.784675 
L 131.256 285.360052 
L 131.7024 284.065453 
L 132.1488 283.63392 
L 133.0416 284.928519 
L 133.488 283.921609 
L 133.9344 285.144285 
L 134.3808 282.62701 
L 134.8272 284.784675 
L 135.2736 282.914698 
L 135.72 284.784675 
L 136.1664 284.353142 
L 136.6128 285.863507 
L 137.0592 284.64083 
L 137.5056 284.64083 
L 137.952 285.503896 
L 138.3984 285.719663 
L 138.8448 286.151196 
L 139.7376 285.000441 
L 140.184 283.418154 
L 140.6304 283.777764 
L 141.0768 284.496986 
L 141.5232 284.712752 
L 141.9696 283.993531 
L 142.416 284.496986 
L 142.8624 285.28813 
L 143.3088 285.503896 
L 143.7552 282.483165 
L 144.2016 285.575818 
L 144.648 285.647741 
L 145.5408 284.568908 
L 145.9872 285.072363 
L 146.4336 283.490076 
L 146.88 285.000441 
L 147.3264 284.784675 
L 147.7728 284.856597 
L 148.2192 284.568908 
L 148.6656 283.777764 
L 149.112 284.281219 
L 149.5584 284.209297 
L 150.4512 286.366962 
L 150.8976 286.223118 
L 151.344 286.438884 
L 151.7904 284.353142 
L 152.2368 284.353142 
L 152.6832 285.431974 
L 153.1296 286.007351 
L 154.0224 284.784675 
L 154.4688 285.144285 
L 154.9152 284.065453 
L 155.3616 284.712752 
L 155.808 284.928519 
L 156.2544 284.712752 
L 156.7008 285.863507 
L 157.1472 286.366962 
L 157.5936 285.863507 
L 158.04 286.223118 
L 158.4864 286.726573 
L 158.9328 283.490076 
L 159.3792 284.64083 
L 159.8256 285.216208 
L 160.272 283.561998 
L 160.7184 284.856597 
L 161.1648 283.921609 
L 161.6112 286.007351 
L 162.0576 284.209297 
L 162.504 285.216208 
L 162.9504 285.791585 
L 163.3968 285.360052 
L 163.8432 286.151196 
L 164.2896 283.202387 
L 164.736 283.993531 
L 165.1824 285.503896 
L 165.6288 284.568908 
L 166.0752 285.503896 
L 166.5216 284.928519 
L 166.968 286.007351 
L 167.4144 285.144285 
L 167.8608 285.647741 
L 168.3072 284.712752 
L 168.7536 284.137375 
L 169.2 286.510806 
L 169.6464 285.647741 
L 170.0928 284.496986 
L 170.5392 284.137375 
L 171.432 283.849686 
L 171.8784 284.065453 
L 172.3248 285.575818 
L 172.7712 284.712752 
L 173.2176 285.28813 
L 173.664 284.496986 
L 174.1104 285.935429 
L 174.5568 284.065453 
L 175.0032 285.216208 
L 175.4496 283.346231 
L 175.896 284.784675 
L 176.3424 285.647741 
L 176.7888 285.935429 
L 177.2352 286.366962 
L 177.6816 284.209297 
L 178.128 285.000441 
L 178.5744 286.510806 
L 179.0208 285.431974 
L 179.4672 285.144285 
L 179.9136 284.209297 
L 180.36 286.007351 
L 180.8064 284.712752 
L 181.2528 285.360052 
L 181.6992 285.719663 
L 182.1456 286.29504 
L 182.592 285.431974 
L 183.0384 286.654651 
L 183.4848 286.079274 
L 184.3776 284.209297 
L 184.824 285.216208 
L 185.2704 284.065453 
L 185.7168 285.503896 
L 186.1632 284.425064 
L 186.6096 285.719663 
L 187.056 284.281219 
L 187.5024 285.072363 
L 187.9488 283.921609 
L 188.3952 287.014262 
L 188.8416 285.647741 
L 189.288 284.856597 
L 189.7344 285.28813 
L 190.1808 286.510806 
L 190.6272 284.353142 
L 191.0736 286.366962 
L 191.52 286.29504 
L 191.9664 285.503896 
L 192.4128 286.079274 
L 192.8592 286.151196 
L 193.3056 285.216208 
L 193.752 285.503896 
L 194.6448 284.353142 
L 195.0912 287.086184 
L 195.5376 285.000441 
L 195.984 286.582729 
L 196.4304 285.360052 
L 196.8768 285.647741 
L 197.3232 285.216208 
L 197.7696 285.935429 
L 198.216 285.863507 
L 198.6624 283.274309 
L 199.1088 283.202387 
L 199.5552 285.719663 
L 200.0016 285.431974 
L 200.448 285.719663 
L 200.8944 284.568908 
L 201.3408 285.863507 
L 201.7872 286.223118 
L 202.2336 285.719663 
L 202.68 284.856597 
L 203.1264 286.654651 
L 203.5728 284.209297 
L 204.4656 285.503896 
L 204.912 284.568908 
L 205.8048 285.791585 
L 206.2512 285.719663 
L 206.6976 285.503896 
L 207.144 286.223118 
L 208.0368 283.705842 
L 208.4832 284.784675 
L 209.8224 286.223118 
L 210.2688 285.647741 
L 210.7152 286.007351 
L 211.1616 286.942339 
L 211.608 285.791585 
L 212.0544 285.575818 
L 212.5008 285.935429 
L 212.9472 286.151196 
L 213.3936 284.137375 
L 213.84 286.366962 
L 214.2864 285.144285 
L 214.7328 285.575818 
L 215.1792 286.654651 
L 215.6256 284.209297 
L 216.072 285.575818 
L 216.5184 285.575818 
L 216.9648 284.928519 
L 217.4112 285.647741 
L 217.8576 285.144285 
L 218.7504 286.654651 
L 219.1968 286.079274 
L 219.6432 285.863507 
L 220.0896 284.856597 
L 220.536 286.223118 
L 220.9824 286.366962 
L 221.4288 286.007351 
L 221.8752 286.079274 
L 222.3216 284.712752 
L 222.768 283.993531 
L 223.2144 283.490076 
L 223.6608 285.503896 
L 224.1072 286.366962 
L 224.5536 285.575818 
L 225 285.863507 
L 225.4464 285.503896 
L 225.8928 284.856597 
L 226.3392 286.007351 
L 226.7856 286.079274 
L 227.232 286.654651 
L 227.6784 285.791585 
L 228.1248 286.798495 
L 228.5712 285.216208 
L 229.0176 284.496986 
L 229.464 285.503896 
L 229.9104 286.870417 
L 230.3568 285.791585 
L 230.8032 286.007351 
L 231.2496 285.863507 
L 231.696 286.726573 
L 232.1424 285.935429 
L 232.5888 286.223118 
L 233.0352 284.64083 
L 233.4816 286.510806 
L 233.928 286.223118 
L 234.3744 283.849686 
L 234.8208 285.000441 
L 235.2672 284.425064 
L 235.7136 286.223118 
L 236.16 285.072363 
L 236.6064 286.007351 
L 237.0528 286.29504 
L 237.4992 286.870417 
L 238.392 284.784675 
L 239.2848 285.863507 
L 239.7312 285.431974 
L 240.1776 285.503896 
L 240.624 284.353142 
L 241.0704 286.654651 
L 241.5168 284.209297 
L 241.9632 285.647741 
L 242.4096 285.791585 
L 242.856 285.575818 
L 243.3024 286.29504 
L 243.7488 286.654651 
L 244.1952 286.366962 
L 244.6416 287.517717 
L 245.088 284.928519 
L 245.5344 284.64083 
L 246.4272 287.014262 
L 246.8736 285.000441 
L 247.32 284.496986 
L 247.7664 283.705842 
L 248.2128 287.589639 
L 248.6592 286.29504 
L 249.1056 285.503896 
L 249.552 285.647741 
L 249.9984 285.647741 
L 250.4448 286.007351 
L 250.8912 287.445795 
L 251.3376 283.705842 
L 251.784 285.719663 
L 252.2304 285.575818 
L 252.6768 285.863507 
L 253.1232 285.791585 
L 253.5696 284.856597 
L 254.016 286.366962 
L 254.4624 285.28813 
L 254.9088 285.216208 
L 255.3552 284.065453 
L 256.248 285.935429 
L 256.6944 285.28813 
L 257.1408 285.000441 
L 257.5872 285.863507 
L 258.0336 284.425064 
L 258.48 286.438884 
L 258.9264 286.582729 
L 259.3728 285.647741 
L 259.8192 285.431974 
L 260.2656 286.438884 
L 260.712 286.726573 
L 261.1584 286.438884 
L 261.6048 285.216208 
L 262.0512 284.496986 
L 262.4976 286.654651 
L 262.944 284.568908 
L 263.3904 285.575818 
L 263.8368 285.647741 
L 264.2832 285.144285 
L 264.7296 286.510806 
L 265.176 287.086184 
L 265.6224 285.503896 
L 266.9616 286.510806 
L 267.408 285.28813 
L 267.8544 285.28813 
L 268.3008 286.29504 
L 268.7472 285.28813 
L 269.1936 286.007351 
L 269.64 284.784675 
L 270.0864 286.29504 
L 270.5328 284.64083 
L 270.9792 286.29504 
L 271.4256 283.705842 
L 272.3184 286.726573 
L 272.7648 286.510806 
L 273.2112 285.503896 
L 273.6576 286.29504 
L 274.104 284.64083 
L 274.5504 284.856597 
L 274.9968 286.007351 
L 275.4432 284.209297 
L 275.8896 285.719663 
L 276.336 284.64083 
L 276.7824 285.144285 
L 277.2288 283.993531 
L 277.6752 285.216208 
L 278.1216 284.856597 
L 278.568 285.144285 
L 279.0144 287.014262 
L 279.4608 286.654651 
L 279.9072 284.856597 
L 280.3536 284.568908 
L 280.8 285.791585 
L 281.2464 285.072363 
L 281.6928 285.000441 
L 282.1392 285.216208 
L 282.5856 287.086184 
L 283.032 286.654651 
L 283.4784 286.798495 
L 283.9248 286.079274 
L 284.3712 286.510806 
L 284.8176 285.791585 
L 285.264 286.798495 
L 285.7104 286.223118 
L 286.1568 284.353142 
L 286.6032 285.144285 
L 287.0496 283.346231 
L 287.496 286.654651 
L 287.9424 286.870417 
L 288.3888 285.000441 
L 288.8352 285.144285 
L 289.2816 286.726573 
L 290.1744 284.928519 
L 290.6208 285.360052 
L 291.0672 285.575818 
L 291.5136 284.784675 
L 292.4064 284.568908 
L 292.8528 285.216208 
L 293.2992 285.647741 
L 293.7456 284.712752 
L 294.192 285.935429 
L 294.6384 285.431974 
L 295.0848 283.849686 
L 295.5312 286.438884 
L 295.9776 286.151196 
L 296.424 284.568908 
L 296.8704 284.856597 
L 297.3168 285.360052 
L 297.7632 283.849686 
L 299.5488 285.863507 
L 299.9952 287.230028 
L 300.4416 284.425064 
L 300.888 284.353142 
L 301.3344 287.086184 
L 301.7808 286.726573 
L 302.2272 284.425064 
L 302.6736 286.510806 
L 303.12 286.438884 
L 303.5664 285.360052 
L 304.0128 285.935429 
L 304.4592 285.360052 
L 304.9056 285.719663 
L 305.352 284.353142 
L 305.7984 285.863507 
L 306.6912 285.360052 
L 307.1376 285.575818 
L 307.584 285.000441 
L 308.0304 284.137375 
L 308.4768 284.928519 
L 308.9232 284.784675 
L 309.3696 285.647741 
L 309.816 287.158106 
L 310.2624 284.856597 
L 310.7088 286.366962 
L 311.1552 284.568908 
L 311.6016 283.777764 
L 312.048 286.510806 
L 312.4944 285.575818 
L 312.9408 284.209297 
L 313.3872 285.503896 
L 313.8336 285.503896 
L 314.28 284.137375 
L 314.7264 285.503896 
L 315.1728 285.360052 
L 315.6192 284.784675 
L 316.0656 286.29504 
L 316.512 284.281219 
L 316.9584 286.654651 
L 317.4048 285.935429 
L 317.8512 287.230028 
L 318.2976 284.64083 
L 318.744 286.223118 
L 319.1904 285.575818 
L 319.6368 285.216208 
L 320.0832 286.079274 
L 320.5296 284.856597 
L 320.976 286.510806 
L 321.4224 284.425064 
L 321.8688 284.065453 
L 322.7616 283.993531 
L 323.208 286.079274 
L 323.6544 286.079274 
L 324.1008 285.935429 
L 324.5472 283.705842 
L 324.9936 285.791585 
L 325.44 285.360052 
L 325.8864 284.281219 
L 326.3328 284.137375 
L 326.7792 285.575818 
L 327.2256 285.719663 
L 327.672 286.29504 
L 328.1184 284.856597 
L 328.5648 286.079274 
L 329.0112 285.791585 
L 329.4576 287.086184 
L 329.904 286.726573 
L 330.3504 284.712752 
L 330.7968 285.28813 
L 331.2432 284.353142 
L 331.6896 285.360052 
L 332.136 283.993531 
L 332.5824 286.29504 
L 333.0288 284.281219 
L 333.4752 285.791585 
L 333.9216 285.863507 
L 334.368 287.014262 
L 335.2608 284.281219 
L 335.7072 285.503896 
L 336.1536 285.647741 
L 336.6 284.928519 
L 337.0464 285.791585 
L 337.4928 284.64083 
L 337.9392 286.654651 
L 338.3856 286.582729 
L 338.832 284.712752 
L 339.2784 285.719663 
L 339.7248 285.216208 
L 340.1712 286.29504 
L 340.6176 286.798495 
L 341.064 286.510806 
L 341.5104 285.791585 
L 341.9568 286.223118 
L 342.4032 285.144285 
L 342.8496 285.072363 
L 343.296 285.28813 
L 343.7424 285.791585 
L 344.1888 285.719663 
L 344.6352 284.568908 
L 345.0816 285.503896 
L 345.528 285.216208 
L 345.9744 284.568908 
L 346.4208 285.791585 
L 346.8672 285.144285 
L 347.3136 285.431974 
L 347.76 286.582729 
L 348.6528 285.360052 
L 349.5456 284.64083 
L 349.992 285.072363 
L 350.4384 286.151196 
L 351.3312 284.209297 
L 351.7776 283.849686 
L 352.224 286.151196 
L 352.6704 286.870417 
L 353.1168 285.072363 
L 353.5632 286.366962 
L 354.0096 285.431974 
L 354.456 286.366962 
L 354.9024 285.719663 
L 355.3488 285.431974 
L 355.7952 284.353142 
L 356.2416 286.079274 
L 356.688 285.791585 
L 357.1344 287.014262 
L 357.5808 286.366962 
L 358.0272 286.510806 
L 358.4736 285.935429 
L 358.92 286.726573 
L 359.3664 285.28813 
L 359.8128 284.712752 
L 360.2592 284.568908 
L 360.7056 286.079274 
L 361.152 286.582729 
L 361.5984 286.223118 
L 362.0448 286.510806 
L 362.4912 287.086184 
L 362.9376 286.582729 
L 363.384 286.726573 
L 363.8304 285.431974 
L 364.2768 285.072363 
L 364.7232 286.798495 
L 365.1696 285.000441 
L 365.616 285.647741 
L 366.0624 285.144285 
L 366.5088 286.654651 
L 367.4016 286.29504 
L 368.2944 285.431974 
L 369.1872 286.438884 
L 369.6336 284.568908 
L 370.08 285.791585 
L 370.5264 285.216208 
L 370.9728 285.216208 
L 371.4192 286.798495 
L 372.312 284.425064 
L 372.7584 284.065453 
L 373.2048 285.863507 
L 373.6512 285.719663 
L 374.0976 285.000441 
L 374.544 286.942339 
L 374.9904 284.065453 
L 375.4368 285.719663 
L 375.8832 285.575818 
L 376.3296 284.496986 
L 376.776 284.856597 
L 377.2224 285.503896 
L 377.6688 286.438884 
L 378.1152 285.360052 
L 378.5616 285.719663 
L 379.008 284.065453 
L 379.4544 287.086184 
L 379.9008 285.863507 
L 380.3472 285.28813 
L 380.7936 286.187157 
L 381.24 285.396013 
L 381.6864 284.928519 
L 382.5792 286.402923 
L 383.0256 286.402923 
L 383.9184 286.942339 
L 384.3648 284.928519 
L 384.8112 286.906378 
L 385.704 285.575818 
L 386.1504 285.036402 
L 386.5968 286.474845 
L 387.0432 284.96448 
L 387.4896 285.108324 
L 387.936 286.151196 
L 388.3824 286.438884 
L 388.8288 285.539857 
L 389.2752 285.467935 
L 389.7216 286.223118 
L 390.168 286.690612 
L 390.6144 285.791585 
L 391.0608 285.503896 
L 391.5072 284.820636 
L 391.9536 285.503896 
L 392.4 287.194067 
L 393.2928 285.180246 
L 393.7392 285.755624 
L 394.1856 284.820636 
L 394.632 284.892558 
L 395.0784 286.366962 
L 395.5248 284.712752 
L 395.9712 283.705842 
L 396.4176 285.324091 
L 396.864 286.510806 
L 397.7568 285.899468 
L 398.6496 286.151196 
L 399.096 285.863507 
L 399.5424 286.007351 
L 399.9888 285.719663 
L 400.4352 286.29504 
L 400.8816 286.079274 
L 401.328 286.115235 
L 401.7744 284.892558 
L 402.6672 286.366962 
L 403.1136 284.604869 
L 403.56 286.546768 
L 404.0064 285.863507 
L 404.4528 286.438884 
L 404.8992 286.223118 
L 405.3456 284.856597 
L 406.2384 287.517717 
L 406.6848 285.180246 
L 407.1312 285.719663 
L 407.5776 286.942339 
L 408.024 287.158106 
L 408.4704 284.712752 
L 408.9168 283.346231 
L 409.3632 285.036402 
L 409.8096 285.791585 
L 410.256 286.079274 
L 410.7024 286.510806 
L 411.1488 284.281219 
L 412.0416 285.611779 
L 412.488 285.683702 
L 412.9344 284.209297 
L 413.8272 285.791585 
L 414.2736 285.683702 
L 414.72 285.360052 
L 414.72 285.360052 
" style="fill:none;stroke:#1f77b4;stroke-linecap:square;stroke-width:1.2;"/>
   </g>
   <g id="patch_3">
    <path d="M 57.6 307.584 
L 57.6 41.472 
" style="fill:none;stroke:#000000;stroke-linecap:square;stroke-linejoin:miter;"/>
   </g>
   <g id="patch_4">
    <path d="M 414.72 307.584 
L 414.72 41.472 
" style="fill:none;stroke:#000000;stroke-linecap:square;stroke-linejoin:miter;"/>
   </g>
   <g id="patch_5">
    <path d="M 57.6 307.584 
L 414.72 307.584 
" style="fill:none;stroke:#000000;stroke-linecap:square;stroke-linejoin:miter;"/>
   </g>
   <g id="patch_6">
    <path d="M 57.6 41.472 
L 414.72 41.472 
" style="fill:none;stroke:#000000;stroke-linecap:square;stroke-linejoin:miter;"/>
   </g>
   <g id="text_20">
    <!-- Training - NSRA-ES - Slimevolley (metapopulation size 20) -->
    <g transform="translate(97.57425 35.472)scale(0.096 -0.096)">
     <defs>
      <path d="M 3513 2113 
L 3513 0 
L 2938 0 
L 2938 2094 
Q 2938 2591 2744 2837 
Q 2550 3084 2163 3084 
Q 1697 3084 1428 2787 
Q 1159 2491 1159 1978 
L 1159 0 
L 581 0 
L 581 3500 
L 1159 3500 
L 1159 2956 
Q 1366 3272 1645 3428 
Q 1925 3584 2291 3584 
Q 2894 3584 3203 3211 
Q 3513 2838 3513 2113 
z
" id="DejaVuSans-6e" transform="scale(0.015625)"/>
      <path d="M 2906 1791 
Q 2906 2416 2648 2759 
Q 2391 3103 1925 3103 
Q 1463 3103 1205 2759 
Q 947 2416 947 1791 
Q 947 1169 1205 825 
Q 1463 481 1925 481 
Q 2391 481 2648 825 
Q 2906 1169 2906 1791 
z
M 3481 434 
Q 3481 -459 3084 -895 
Q 2688 -1331 1869 -1331 
Q 1566 -1331 1297 -1286 
Q 1028 -1241 775 -1147 
L 775 -588 
Q 1028 -725 1275 -790 
Q 1522 -856 1778 -856 
Q 2344 -856 2625 -561 
Q 2906 -266 2906 331 
L 2906 616 
Q 2728 306 2450 153 
Q 2172 0 1784 0 
Q 1141 0 747 490 
Q 353 981 353 1791 
Q 353 2603 747 3093 
Q 1141 3584 1784 3584 
Q 2172 3584 2450 3431 
Q 2728 3278 2906 2969 
L 2906 3500 
L 3481 3500 
L 3481 434 
z
" id="DejaVuSans-67" transform="scale(0.015625)"/>
      <path id="DejaVuSans-20" transform="scale(0.015625)"/>
      <path d="M 313 2009 
L 1997 2009 
L 1997 1497 
L 313 1497 
L 313 2009 
z
" id="DejaVuSans-2d" transform="scale(0.015625)"/>
      <path d="M 628 4666 
L 1478 4666 
L 3547 763 
L 3547 4666 
L 4159 4666 
L 4159 0 
L 3309 0 
L 1241 3903 
L 1241 0 
L 628 0 
L 628 4666 
z
" id="DejaVuSans-4e" transform="scale(0.015625)"/>
      <path d="M 3425 4513 
L 3425 3897 
Q 3066 4069 2747 4153 
Q 2428 4238 2131 4238 
Q 1616 4238 1336 4038 
Q 1056 3838 1056 3469 
Q 1056 3159 1242 3001 
Q 1428 2844 1947 2747 
L 2328 2669 
Q 3034 2534 3370 2195 
Q 3706 1856 3706 1288 
Q 3706 609 3251 259 
Q 2797 -91 1919 -91 
Q 1588 -91 1214 -16 
Q 841 59 441 206 
L 441 856 
Q 825 641 1194 531 
Q 1563 422 1919 422 
Q 2459 422 2753 634 
Q 3047 847 3047 1241 
Q 3047 1584 2836 1778 
Q 2625 1972 2144 2069 
L 1759 2144 
Q 1053 2284 737 2584 
Q 422 2884 422 3419 
Q 422 4038 858 4394 
Q 1294 4750 2059 4750 
Q 2388 4750 2728 4690 
Q 3069 4631 3425 4513 
z
" id="DejaVuSans-53" transform="scale(0.015625)"/>
      <path d="M 2188 4044 
L 1331 1722 
L 3047 1722 
L 2188 4044 
z
M 1831 4666 
L 2547 4666 
L 4325 0 
L 3669 0 
L 3244 1197 
L 1141 1197 
L 716 0 
L 50 0 
L 1831 4666 
z
" id="DejaVuSans-41" transform="scale(0.015625)"/>
      <path d="M 628 4666 
L 3578 4666 
L 3578 4134 
L 1259 4134 
L 1259 2753 
L 3481 2753 
L 3481 2222 
L 1259 2222 
L 1259 531 
L 3634 531 
L 3634 0 
L 628 0 
L 628 4666 
z
" id="DejaVuSans-45" transform="scale(0.015625)"/>
      <path d="M 603 4863 
L 1178 4863 
L 1178 0 
L 603 0 
L 603 4863 
z
" id="DejaVuSans-6c" transform="scale(0.015625)"/>
      <path d="M 191 3500 
L 800 3500 
L 1894 563 
L 2988 3500 
L 3597 3500 
L 2284 0 
L 1503 0 
L 191 3500 
z
" id="DejaVuSans-76" transform="scale(0.015625)"/>
      <path d="M 1959 3097 
Q 1497 3097 1228 2736 
Q 959 2375 959 1747 
Q 959 1119 1226 758 
Q 1494 397 1959 397 
Q 2419 397 2687 759 
Q 2956 1122 2956 1747 
Q 2956 2369 2687 2733 
Q 2419 3097 1959 3097 
z
M 1959 3584 
Q 2709 3584 3137 3096 
Q 3566 2609 3566 1747 
Q 3566 888 3137 398 
Q 2709 -91 1959 -91 
Q 1206 -91 779 398 
Q 353 888 353 1747 
Q 353 2609 779 3096 
Q 1206 3584 1959 3584 
z
" id="DejaVuSans-6f" transform="scale(0.015625)"/>
      <path d="M 2059 -325 
Q 1816 -950 1584 -1140 
Q 1353 -1331 966 -1331 
L 506 -1331 
L 506 -850 
L 844 -850 
Q 1081 -850 1212 -737 
Q 1344 -625 1503 -206 
L 1606 56 
L 191 3500 
L 800 3500 
L 1894 763 
L 2988 3500 
L 3597 3500 
L 2059 -325 
z
" id="DejaVuSans-79" transform="scale(0.015625)"/>
      <path d="M 1984 4856 
Q 1566 4138 1362 3434 
Q 1159 2731 1159 2009 
Q 1159 1288 1364 580 
Q 1569 -128 1984 -844 
L 1484 -844 
Q 1016 -109 783 600 
Q 550 1309 550 2009 
Q 550 2706 781 3412 
Q 1013 4119 1484 4856 
L 1984 4856 
z
" id="DejaVuSans-28" transform="scale(0.015625)"/>
      <path d="M 544 1381 
L 544 3500 
L 1119 3500 
L 1119 1403 
Q 1119 906 1312 657 
Q 1506 409 1894 409 
Q 2359 409 2629 706 
Q 2900 1003 2900 1516 
L 2900 3500 
L 3475 3500 
L 3475 0 
L 2900 0 
L 2900 538 
Q 2691 219 2414 64 
Q 2138 -91 1772 -91 
Q 1169 -91 856 284 
Q 544 659 544 1381 
z
M 1991 3584 
L 1991 3584 
z
" id="DejaVuSans-75" transform="scale(0.015625)"/>
      <path d="M 353 3500 
L 3084 3500 
L 3084 2975 
L 922 459 
L 3084 459 
L 3084 0 
L 275 0 
L 275 525 
L 2438 3041 
L 353 3041 
L 353 3500 
z
" id="DejaVuSans-7a" transform="scale(0.015625)"/>
      <path d="M 513 4856 
L 1013 4856 
Q 1481 4119 1714 3412 
Q 1947 2706 1947 2009 
Q 1947 1309 1714 600 
Q 1481 -109 1013 -844 
L 513 -844 
Q 928 -128 1133 580 
Q 1338 1288 1338 2009 
Q 1338 2731 1133 3434 
Q 928 4138 513 4856 
z
" id="DejaVuSans-29" transform="scale(0.015625)"/>
     </defs>
     <use xlink:href="#DejaVuSans-54"/>
     <use x="46.333984" xlink:href="#DejaVuSans-72"/>
     <use x="87.447266" xlink:href="#DejaVuSans-61"/>
     <use x="148.726562" xlink:href="#DejaVuSans-69"/>
     <use x="176.509766" xlink:href="#DejaVuSans-6e"/>
     <use x="239.888672" xlink:href="#DejaVuSans-69"/>
     <use x="267.671875" xlink:href="#DejaVuSans-6e"/>
     <use x="331.050781" xlink:href="#DejaVuSans-67"/>
     <use x="394.527344" xlink:href="#DejaVuSans-20"/>
     <use x="426.314453" xlink:href="#DejaVuSans-2d"/>
     <use x="462.398438" xlink:href="#DejaVuSans-20"/>
     <use x="494.185547" xlink:href="#DejaVuSans-4e"/>
     <use x="568.990234" xlink:href="#DejaVuSans-53"/>
     <use x="632.466797" xlink:href="#DejaVuSans-52"/>
     <use x="697.949219" xlink:href="#DejaVuSans-41"/>
     <use x="764.107422" xlink:href="#DejaVuSans-2d"/>
     <use x="800.191406" xlink:href="#DejaVuSans-45"/>
     <use x="863.375" xlink:href="#DejaVuSans-53"/>
     <use x="926.851562" xlink:href="#DejaVuSans-20"/>
     <use x="958.638672" xlink:href="#DejaVuSans-2d"/>
     <use x="994.722656" xlink:href="#DejaVuSans-20"/>
     <use x="1026.509766" xlink:href="#DejaVuSans-53"/>
     <use x="1089.986328" xlink:href="#DejaVuSans-6c"/>
     <use x="1117.769531" xlink:href="#DejaVuSans-69"/>
     <use x="1145.552734" xlink:href="#DejaVuSans-6d"/>
     <use x="1242.964844" xlink:href="#DejaVuSans-65"/>
     <use x="1304.488281" xlink:href="#DejaVuSans-76"/>
     <use x="1363.667969" xlink:href="#DejaVuSans-6f"/>
     <use x="1424.849609" xlink:href="#DejaVuSans-6c"/>
     <use x="1452.632812" xlink:href="#DejaVuSans-6c"/>
     <use x="1480.416016" xlink:href="#DejaVuSans-65"/>
     <use x="1541.939453" xlink:href="#DejaVuSans-79"/>
     <use x="1601.119141" xlink:href="#DejaVuSans-20"/>
     <use x="1632.90625" xlink:href="#DejaVuSans-28"/>
     <use x="1671.919922" xlink:href="#DejaVuSans-6d"/>
     <use x="1769.332031" xlink:href="#DejaVuSans-65"/>
     <use x="1830.855469" xlink:href="#DejaVuSans-74"/>
     <use x="1870.064453" xlink:href="#DejaVuSans-61"/>
     <use x="1931.34375" xlink:href="#DejaVuSans-70"/>
     <use x="1994.820312" xlink:href="#DejaVuSans-6f"/>
     <use x="2056.001953" xlink:href="#DejaVuSans-70"/>
     <use x="2119.478516" xlink:href="#DejaVuSans-75"/>
     <use x="2182.857422" xlink:href="#DejaVuSans-6c"/>
     <use x="2210.640625" xlink:href="#DejaVuSans-61"/>
     <use x="2271.919922" xlink:href="#DejaVuSans-74"/>
     <use x="2311.128906" xlink:href="#DejaVuSans-69"/>
     <use x="2338.912109" xlink:href="#DejaVuSans-6f"/>
     <use x="2400.09375" xlink:href="#DejaVuSans-6e"/>
     <use x="2463.472656" xlink:href="#DejaVuSans-20"/>
     <use x="2495.259766" xlink:href="#DejaVuSans-73"/>
     <use x="2547.359375" xlink:href="#DejaVuSans-69"/>
     <use x="2575.142578" xlink:href="#DejaVuSans-7a"/>
     <use x="2627.632812" xlink:href="#DejaVuSans-65"/>
     <use x="2689.15625" xlink:href="#DejaVuSans-20"/>
     <use x="2720.943359" xlink:href="#DejaVuSans-32"/>
     <use x="2784.566406" xlink:href="#DejaVuSans-30"/>
     <use x="2848.189453" xlink:href="#DejaVuSans-29"/>
    </g>
   </g>
  </g>
 </g>
 <defs>
  <clipPath id="p7ff1898b93">
   <rect height="266.112" width="357.12" x="57.6" y="41.472"/>
  </clipPath>
 </defs>
</svg>
