<?xml version="1.0" encoding="utf-8" standalone="no"?>
<!DOCTYPE svg PUBLIC "-//W3C//DTD SVG 1.1//EN"
  "http://www.w3.org/Graphics/SVG/1.1/DTD/svg11.dtd">
<svg height="345.6pt" version="1.1" viewBox="0 0 460.8 345.6" width="460.8pt" xmlns="http://www.w3.org/2000/svg" xmlns:xlink="http://www.w3.org/1999/xlink">
 <metadata>
  <rdf:RDF xmlns:cc="http://creativecommons.org/ns#" xmlns:dc="http://purl.org/dc/elements/1.1/" xmlns:rdf="http://www.w3.org/1999/02/22-rdf-syntax-ns#">
   <cc:Work>
    <dc:type rdf:resource="http://purl.org/dc/dcmitype/StillImage"/>
    <dc:date>2021-07-22T17:33:50.838337</dc:date>
    <dc:format>image/svg+xml</dc:format>
    <dc:creator>
     <cc:Agent>
      <dc:title>Matplotlib v3.4.2, https://matplotlib.org/</dc:title>
     </cc:Agent>
    </dc:creator>
   </cc:Work>
  </rdf:RDF>
 </metadata>
 <defs>
  <style type="text/css">*{stroke-linecap:butt;stroke-linejoin:round;}</style>
 </defs>
 <g id="figure_1">
  <g id="patch_1">
   <path d="M 0 345.6 
L 460.8 345.6 
L 460.8 0 
L 0 0 
z
" style="fill:#ffffff;"/>
  </g>
  <g id="axes_1">
   <g id="patch_2">
    <path d="M 57.6 307.584 
L 414.72 307.584 
L 414.72 41.472 
L 57.6 41.472 
z
" style="fill:#ffffff;"/>
   </g>
   <g id="PolyCollection_1">
    <path clip-path="url(#p3102775815)" d="M 57.9968 283.939589 
L 57.9968 286.924359 
L 58.3936 287.553678 
L 58.7904 286.456865 
L 59.1872 287.212048 
L 59.584 286.762534 
L 59.9808 287.697522 
L 60.3776 287.427814 
L 60.7744 287.481756 
L 61.1712 287.373872 
L 61.568 286.564748 
L 61.9648 286.978301 
L 62.3616 287.265989 
L 62.7584 285.503896 
L 63.1552 286.025332 
L 63.552 287.985211 
L 63.9488 287.841366 
L 64.3456 287.607619 
L 64.7424 285.503896 
L 65.1392 285.62976 
L 65.536 287.230028 
L 65.9328 286.169176 
L 66.3296 286.690612 
L 66.7264 286.29504 
L 67.1232 285.557838 
L 67.52 284.910538 
L 67.9168 287.050223 
L 68.3136 286.63667 
L 68.7104 285.683702 
L 69.1072 286.510806 
L 69.504 285.827546 
L 69.9008 286.780515 
L 70.2976 287.715503 
L 70.6944 286.043312 
L 71.0912 285.899468 
L 71.488 286.205137 
L 71.8848 285.647741 
L 72.2816 286.115235 
L 72.6784 285.97139 
L 73.0752 286.834456 
L 73.472 286.223118 
L 73.8688 286.744554 
L 74.2656 286.510806 
L 74.6624 286.852437 
L 75.0592 286.816476 
L 75.456 286.043312 
L 75.8528 286.241098 
L 76.2496 286.744554 
L 76.6464 287.212048 
L 77.0432 286.492826 
L 77.44 287.805405 
L 77.8368 287.086184 
L 78.2336 286.762534 
L 78.6304 287.158106 
L 79.0272 286.654651 
L 79.424 286.133215 
L 79.8208 286.852437 
L 80.2176 285.701682 
L 80.6144 286.924359 
L 81.0112 285.827546 
L 81.408 286.492826 
L 81.8048 286.726573 
L 82.2016 287.050223 
L 82.5984 286.492826 
L 82.9952 286.133215 
L 83.392 285.270149 
L 83.7888 286.492826 
L 84.1856 285.413994 
L 84.5824 287.823386 
L 84.9792 286.888398 
L 85.376 286.420904 
L 85.7728 286.924359 
L 86.1696 286.097254 
L 86.5664 286.007351 
L 86.9632 287.158106 
L 87.36 286.654651 
L 87.7568 285.449955 
L 88.1536 285.989371 
L 88.5504 286.348982 
L 88.9472 286.63667 
L 89.344 285.917449 
L 89.7408 285.62976 
L 90.1376 286.978301 
L 90.5344 286.29504 
L 90.9312 285.701682 
L 91.328 285.62976 
L 91.7248 285.935429 
L 92.1216 284.802655 
L 92.5184 286.870417 
L 92.9152 284.353142 
L 93.312 284.568908 
L 93.7088 285.575818 
L 94.1056 285.791585 
L 94.5024 284.568908 
L 94.8992 284.910538 
L 95.296 283.418154 
L 95.6928 286.762534 
L 96.0896 287.068203 
L 96.4864 286.456865 
L 96.8832 286.510806 
L 97.28 283.723823 
L 97.6768 287.068203 
L 98.0736 286.528787 
L 98.4704 287.212048 
L 98.8672 285.396013 
L 99.264 286.780515 
L 99.6608 287.194067 
L 100.0576 286.492826 
L 100.4544 285.719663 
L 100.8512 286.492826 
L 101.248 285.647741 
L 101.6448 286.852437 
L 102.0416 284.425064 
L 102.4384 285.431974 
L 102.8352 285.773604 
L 103.232 285.036402 
L 103.6288 285.899468 
L 104.0256 285.539857 
L 104.4224 285.97139 
L 104.8192 285.090344 
L 105.216 284.838616 
L 105.6128 286.043312 
L 106.0096 284.281219 
L 106.4064 286.331001 
L 106.8032 285.863507 
L 107.2 286.384943 
L 107.5968 287.068203 
L 107.9936 285.665721 
L 108.3904 286.834456 
L 108.7872 286.564748 
L 109.184 285.665721 
L 109.5808 284.317181 
L 109.9776 286.241098 
L 110.3744 284.982461 
L 110.7712 285.935429 
L 111.168 285.863507 
L 111.5648 286.690612 
L 111.9616 285.97139 
L 112.3584 286.654651 
L 112.7552 285.611779 
L 113.152 286.241098 
L 113.5488 285.036402 
L 113.9456 285.881488 
L 114.3424 285.539857 
L 114.7392 286.402923 
L 115.136 285.270149 
L 115.5328 285.863507 
L 115.9296 286.762534 
L 116.3264 287.032242 
L 116.7232 286.043312 
L 117.12 286.061293 
L 117.5168 286.942339 
L 117.9136 286.510806 
L 118.3104 285.252169 
L 118.7072 285.521877 
L 119.104 285.917449 
L 119.5008 286.61869 
L 119.8976 287.086184 
L 120.2944 285.683702 
L 120.6912 285.719663 
L 121.088 286.798495 
L 121.4848 286.780515 
L 121.8816 286.690612 
L 122.2784 286.834456 
L 122.6752 285.449955 
L 123.072 285.467935 
L 123.4688 285.989371 
L 123.8656 284.209297 
L 124.2624 285.539857 
L 124.6592 287.050223 
L 125.056 287.265989 
L 125.4528 285.809565 
L 125.8496 285.647741 
L 126.2464 284.532947 
L 126.6432 286.474845 
L 127.04 286.151196 
L 127.4368 286.133215 
L 127.8336 286.384943 
L 128.2304 287.068203 
L 128.6272 285.270149 
L 129.024 285.342071 
L 129.4208 286.672631 
L 129.8176 286.978301 
L 130.2144 285.413994 
L 130.6112 285.773604 
L 131.008 286.115235 
L 131.4048 286.474845 
L 131.8016 285.935429 
L 132.1984 286.546768 
L 132.5952 285.863507 
L 132.992 286.205137 
L 133.3888 287.086184 
L 133.7856 284.928519 
L 134.1824 284.928519 
L 134.5792 285.28813 
L 134.976 285.97139 
L 135.3728 285.665721 
L 135.7696 285.557838 
L 136.1664 284.982461 
L 136.5632 284.209297 
L 136.96 286.115235 
L 137.3568 285.845526 
L 137.7536 285.503896 
L 138.1504 284.604869 
L 138.5472 283.723823 
L 138.944 287.248009 
L 139.3408 285.072363 
L 139.7376 284.676791 
L 140.1344 285.845526 
L 140.5312 285.611779 
L 140.928 285.701682 
L 141.3248 285.557838 
L 141.7216 285.485916 
L 142.1184 284.982461 
L 142.5152 285.773604 
L 142.912 284.047472 
L 143.3088 284.353142 
L 143.7056 285.108324 
L 144.1024 285.090344 
L 144.4992 284.658811 
L 144.896 286.924359 
L 145.2928 284.604869 
L 145.6896 284.568908 
L 146.0864 284.371122 
L 146.4832 285.863507 
L 146.88 286.510806 
L 147.2768 285.28813 
L 147.6736 284.245258 
L 148.0704 286.187157 
L 148.4672 286.331001 
L 148.864 285.539857 
L 149.2608 285.539857 
L 149.6576 285.198227 
L 150.0544 285.252169 
L 150.4512 285.935429 
L 150.848 286.115235 
L 151.2448 284.820636 
L 151.6416 284.532947 
L 152.0384 285.108324 
L 152.4352 284.64083 
L 152.832 285.575818 
L 153.2288 284.191317 
L 153.6256 284.604869 
L 154.0224 286.187157 
L 154.4192 284.371122 
L 154.816 285.378032 
L 155.2128 284.820636 
L 155.6096 284.586889 
L 156.0064 284.676791 
L 156.4032 283.993531 
L 156.8 285.270149 
L 157.1968 286.61869 
L 157.5936 285.719663 
L 157.9904 284.730733 
L 158.3872 284.011511 
L 158.784 284.784675 
L 159.1808 284.101414 
L 159.5776 283.813725 
L 159.9744 284.461025 
L 160.3712 284.784675 
L 160.768 285.755624 
L 161.1648 285.072363 
L 161.5616 284.62285 
L 161.9584 284.712752 
L 162.3552 285.036402 
L 162.752 284.62285 
L 163.1488 284.892558 
L 163.5456 283.813725 
L 163.9424 284.676791 
L 164.3392 284.568908 
L 164.736 285.413994 
L 165.1328 283.723823 
L 165.5296 283.148445 
L 165.9264 284.263239 
L 166.3232 284.011511 
L 166.72 285.575818 
L 167.1168 286.420904 
L 167.5136 284.62285 
L 167.9104 283.328251 
L 168.3072 285.234188 
L 168.704 285.773604 
L 169.1008 285.521877 
L 169.4976 286.978301 
L 169.8944 286.043312 
L 170.2912 285.234188 
L 170.688 286.223118 
L 171.0848 285.989371 
L 171.4816 284.604869 
L 171.8784 285.539857 
L 172.2752 285.378032 
L 172.672 285.360052 
L 173.0688 285.719663 
L 173.4656 286.888398 
L 173.8624 281.620099 
L 174.2592 285.180246 
L 174.656 286.097254 
L 175.0528 283.615939 
L 175.4496 285.467935 
L 175.8464 285.791585 
L 176.2432 287.086184 
L 176.64 284.461025 
L 177.0368 285.485916 
L 177.4336 285.521877 
L 177.8304 284.946499 
L 178.2272 286.025332 
L 178.624 285.62976 
L 179.0208 284.730733 
L 179.4176 284.586889 
L 179.8144 284.748714 
L 180.2112 286.151196 
L 180.608 286.313021 
L 181.0048 284.2992 
L 181.4016 285.503896 
L 181.7984 284.550928 
L 182.1952 285.342071 
L 182.592 286.564748 
L 182.9888 286.63667 
L 183.3856 284.137375 
L 183.7824 285.162266 
L 184.1792 285.324091 
L 184.576 285.234188 
L 184.9728 284.425064 
L 185.3696 286.007351 
L 185.7664 285.647741 
L 186.1632 285.593799 
L 186.56 285.989371 
L 186.9568 285.108324 
L 187.3536 284.730733 
L 187.7504 285.647741 
L 188.1472 285.324091 
L 188.544 285.593799 
L 188.9408 286.384943 
L 189.3376 285.090344 
L 189.7344 283.472095 
L 190.1312 284.532947 
L 190.528 284.694772 
L 190.9248 283.526037 
L 191.3216 285.198227 
L 191.7184 285.162266 
L 192.1152 283.29229 
L 192.512 283.076523 
L 192.9088 284.712752 
L 193.3056 286.115235 
L 193.7024 284.209297 
L 194.0992 286.007351 
L 194.496 284.946499 
L 194.8928 283.903628 
L 195.2896 283.436134 
L 195.6864 284.712752 
L 196.0832 284.694772 
L 196.48 284.353142 
L 196.8768 285.180246 
L 197.2736 284.62285 
L 197.6704 286.816476 
L 198.0672 286.169176 
L 198.464 285.431974 
L 198.8608 286.402923 
L 199.2576 285.737643 
L 199.6544 284.461025 
L 200.0512 285.054383 
L 200.448 284.928519 
L 200.8448 282.64499 
L 201.2416 284.730733 
L 201.6384 284.892558 
L 202.0352 284.173336 
L 202.432 284.2992 
L 202.8288 283.400173 
L 203.2256 283.561998 
L 203.6224 283.741803 
L 204.0192 283.544017 
L 204.416 285.270149 
L 204.8128 284.281219 
L 205.2096 285.378032 
L 205.6064 283.993531 
L 206.0032 286.241098 
L 206.4 285.701682 
L 206.7968 284.62285 
L 207.1936 283.202387 
L 207.5904 285.881488 
L 207.9872 284.694772 
L 208.384 285.162266 
L 208.7808 284.443044 
L 209.1776 284.910538 
L 209.5744 286.29504 
L 209.9712 283.328251 
L 210.368 283.166426 
L 210.7648 283.777764 
L 211.1616 285.557838 
L 211.5584 284.928519 
L 211.9552 284.443044 
L 212.352 283.436134 
L 212.7488 285.30611 
L 213.1456 284.64083 
L 213.5424 286.978301 
L 213.9392 282.860757 
L 214.336 285.593799 
L 214.7328 284.155356 
L 215.1296 284.479005 
L 215.5264 284.335161 
L 215.9232 286.007351 
L 216.32 286.942339 
L 216.7168 283.508056 
L 217.1136 285.162266 
L 217.5104 286.29504 
L 217.9072 286.205137 
L 218.304 285.701682 
L 218.7008 285.97139 
L 219.0976 283.63392 
L 219.4944 285.162266 
L 219.8912 284.96448 
L 220.288 284.946499 
L 220.6848 284.982461 
L 221.0816 286.133215 
L 221.4784 283.705842 
L 221.8752 283.651901 
L 222.272 282.914698 
L 222.6688 283.166426 
L 223.0656 285.252169 
L 223.4624 284.694772 
L 223.8592 285.935429 
L 224.256 284.155356 
L 224.6528 286.690612 
L 225.0496 285.108324 
L 225.4464 284.856597 
L 225.8432 284.784675 
L 226.24 284.856597 
L 226.6368 284.407083 
L 227.0336 287.140125 
L 227.4304 284.820636 
L 227.8272 285.252169 
L 228.224 283.705842 
L 228.6208 283.741803 
L 229.0176 283.687862 
L 229.4144 285.036402 
L 229.8112 285.503896 
L 230.208 284.532947 
L 230.6048 284.96448 
L 231.0016 284.2992 
L 231.3984 284.317181 
L 231.7952 285.62976 
L 232.192 284.910538 
L 232.5888 285.162266 
L 232.9856 285.342071 
L 233.3824 285.198227 
L 233.7792 285.108324 
L 234.176 284.928519 
L 234.5728 284.011511 
L 234.9696 284.910538 
L 235.3664 285.018422 
L 235.7632 284.946499 
L 236.16 284.568908 
L 236.5568 284.838616 
L 236.9536 286.187157 
L 237.3504 284.694772 
L 237.7472 284.461025 
L 238.144 284.263239 
L 238.5408 286.978301 
L 238.9376 284.928519 
L 239.3344 286.007351 
L 239.7312 282.860757 
L 240.128 285.665721 
L 240.5248 285.162266 
L 240.9216 284.029492 
L 241.3184 285.485916 
L 241.7152 284.353142 
L 242.112 286.169176 
L 242.5088 285.108324 
L 242.9056 284.371122 
L 243.3024 285.539857 
L 243.6992 284.371122 
L 244.096 282.609029 
L 244.4928 284.101414 
L 244.8896 284.353142 
L 245.2864 285.036402 
L 245.6832 285.018422 
L 246.08 285.899468 
L 246.4768 285.144285 
L 246.8736 285.378032 
L 247.2704 284.802655 
L 247.6672 286.348982 
L 248.064 283.813725 
L 248.4608 283.63392 
L 248.8576 284.263239 
L 249.2544 284.461025 
L 249.6512 285.108324 
L 250.048 284.62285 
L 250.4448 284.928519 
L 250.8416 283.705842 
L 251.2384 285.467935 
L 251.6352 284.011511 
L 252.032 284.96448 
L 252.4288 285.360052 
L 252.8256 283.939589 
L 253.2224 284.820636 
L 253.6192 284.928519 
L 254.016 283.885648 
L 254.4128 284.892558 
L 254.8096 284.62285 
L 255.2064 284.874577 
L 255.6032 284.586889 
L 256 285.755624 
L 256.3968 283.669881 
L 256.7936 284.568908 
L 257.1904 285.018422 
L 257.5872 284.676791 
L 257.984 284.802655 
L 258.3808 283.867667 
L 258.7776 284.748714 
L 259.1744 284.532947 
L 259.5712 284.479005 
L 259.968 284.514966 
L 260.3648 285.485916 
L 260.7616 285.072363 
L 261.1584 285.413994 
L 261.5552 284.730733 
L 261.952 284.101414 
L 262.3488 284.802655 
L 262.7456 284.784675 
L 263.1424 284.029492 
L 263.5392 284.532947 
L 263.936 284.496986 
L 264.3328 285.198227 
L 264.7296 285.180246 
L 265.1264 284.371122 
L 265.5232 283.903628 
L 265.92 285.090344 
L 266.3168 284.281219 
L 266.7136 285.791585 
L 267.1104 285.28813 
L 267.5072 284.407083 
L 267.904 284.910538 
L 268.3008 286.744554 
L 268.6976 283.544017 
L 269.0944 284.96448 
L 269.4912 285.198227 
L 269.888 284.461025 
L 270.2848 286.420904 
L 270.6816 284.209297 
L 271.0784 284.407083 
L 271.4752 285.126305 
L 271.872 284.856597 
L 272.2688 284.155356 
L 272.6656 284.658811 
L 273.0624 285.090344 
L 273.4592 284.047472 
L 273.856 286.259079 
L 274.2528 285.557838 
L 274.6496 284.820636 
L 275.0464 283.328251 
L 275.4432 283.436134 
L 275.84 284.173336 
L 276.2368 285.072363 
L 276.6336 284.065453 
L 277.0304 283.95757 
L 277.4272 285.557838 
L 277.824 285.899468 
L 278.2208 284.191317 
L 278.6176 285.270149 
L 279.0144 283.508056 
L 279.4112 284.820636 
L 279.808 283.328251 
L 280.2048 284.568908 
L 280.6016 284.443044 
L 280.9984 285.647741 
L 281.3952 284.838616 
L 281.792 284.694772 
L 282.1888 285.557838 
L 282.5856 283.921609 
L 282.9824 284.676791 
L 283.3792 285.701682 
L 283.776 283.849686 
L 284.1728 285.413994 
L 284.5696 283.885648 
L 284.9664 285.413994 
L 285.3632 285.737643 
L 285.76 284.802655 
L 286.1568 284.676791 
L 286.5536 283.687862 
L 286.9504 286.384943 
L 287.3472 285.144285 
L 287.744 284.137375 
L 288.1408 284.317181 
L 288.5376 284.694772 
L 288.9344 285.95341 
L 289.3312 284.101414 
L 289.728 283.741803 
L 290.1248 282.411243 
L 290.5216 282.501146 
L 290.9184 285.324091 
L 291.3152 283.921609 
L 291.712 283.759784 
L 292.1088 284.119395 
L 292.5056 284.227278 
L 292.9024 285.000441 
L 293.2992 284.281219 
L 293.696 284.766694 
L 294.0928 284.856597 
L 294.4896 284.766694 
L 294.8864 285.539857 
L 295.2832 284.96448 
L 295.68 284.425064 
L 296.0768 284.371122 
L 296.4736 284.568908 
L 296.8704 284.461025 
L 297.2672 284.910538 
L 297.664 284.496986 
L 298.0608 284.820636 
L 298.4576 285.755624 
L 298.8544 284.011511 
L 299.2512 285.018422 
L 299.648 284.173336 
L 300.0448 283.184406 
L 300.4416 284.2992 
L 300.8384 285.072363 
L 301.2352 285.503896 
L 301.632 283.256329 
L 302.0288 284.568908 
L 302.4256 283.544017 
L 302.8224 284.083434 
L 303.2192 283.921609 
L 303.616 285.342071 
L 304.0128 285.701682 
L 304.4096 284.892558 
L 304.8064 283.795745 
L 305.2032 282.842776 
L 305.6 283.867667 
L 305.9968 284.586889 
L 306.3936 283.544017 
L 306.7904 285.611779 
L 307.1872 285.755624 
L 307.584 282.321341 
L 307.9808 282.64499 
L 308.3776 284.317181 
L 308.7744 285.252169 
L 309.1712 284.407083 
L 309.568 283.831706 
L 309.9648 285.791585 
L 310.3616 282.842776 
L 310.7584 284.155356 
L 311.1552 284.676791 
L 311.552 284.173336 
L 311.9488 283.687862 
L 312.3456 284.173336 
L 312.7424 284.784675 
L 313.1392 285.036402 
L 313.536 285.431974 
L 313.9328 284.550928 
L 314.3296 284.101414 
L 314.7264 283.903628 
L 315.1232 285.665721 
L 315.52 285.018422 
L 315.9168 284.407083 
L 316.3136 285.342071 
L 316.7104 284.496986 
L 317.1072 283.651901 
L 317.504 283.831706 
L 317.9008 283.148445 
L 318.2976 283.364212 
L 318.6944 283.651901 
L 319.0912 285.989371 
L 319.488 284.461025 
L 319.8848 284.874577 
L 320.2816 283.597959 
L 320.6784 285.234188 
L 321.0752 283.346231 
L 321.472 284.62285 
L 321.8688 284.353142 
L 322.2656 285.018422 
L 322.6624 283.526037 
L 323.0592 284.820636 
L 323.456 285.360052 
L 323.8528 283.993531 
L 324.2496 285.126305 
L 324.6464 283.759784 
L 325.0432 283.777764 
L 325.44 284.389103 
L 325.8368 285.054383 
L 326.2336 282.698932 
L 326.6304 284.425064 
L 327.0272 284.155356 
L 327.424 286.079274 
L 327.8208 283.526037 
L 328.2176 283.741803 
L 328.6144 283.885648 
L 329.0112 283.148445 
L 329.408 285.180246 
L 329.8048 282.716912 
L 330.2016 284.119395 
L 330.5984 283.993531 
L 330.9952 283.97555 
L 331.392 283.97555 
L 331.7888 283.849686 
L 332.1856 284.658811 
L 332.5824 283.939589 
L 332.9792 283.544017 
L 333.376 284.910538 
L 333.7728 283.166426 
L 334.1696 283.885648 
L 334.5664 284.335161 
L 334.9632 285.503896 
L 335.36 284.425064 
L 335.7568 284.532947 
L 336.1536 284.874577 
L 336.5504 284.065453 
L 336.9472 282.375282 
L 337.344 285.719663 
L 337.7408 284.766694 
L 338.1376 283.939589 
L 338.5344 284.604869 
L 338.9312 284.011511 
L 339.328 283.579978 
L 339.7248 284.137375 
L 340.1216 284.676791 
L 340.5184 280.019831 
L 340.9152 285.144285 
L 341.312 284.550928 
L 341.7088 284.62285 
L 342.1056 285.413994 
L 342.5024 283.687862 
L 342.8992 283.490076 
L 343.296 284.2992 
L 343.6928 284.928519 
L 344.0896 284.389103 
L 344.4864 282.30336 
L 344.8832 284.496986 
L 345.28 284.514966 
L 345.6768 284.766694 
L 346.0736 284.407083 
L 346.4704 283.759784 
L 346.8672 284.263239 
L 347.264 284.047472 
L 347.6608 283.328251 
L 348.0576 284.712752 
L 348.4544 284.62285 
L 348.8512 284.64083 
L 349.248 286.061293 
L 349.6448 282.842776 
L 350.0416 284.766694 
L 350.4384 281.925769 
L 350.8352 283.669881 
L 351.232 284.676791 
L 351.6288 284.712752 
L 352.0256 284.604869 
L 352.4224 283.97555 
L 352.8192 285.449955 
L 353.216 284.461025 
L 353.6128 283.885648 
L 354.0096 283.885648 
L 354.4064 284.802655 
L 354.8032 284.550928 
L 355.2 284.191317 
L 355.5968 284.173336 
L 355.9936 283.184406 
L 356.3904 283.97555 
L 356.7872 284.479005 
L 357.184 284.820636 
L 357.5808 285.216208 
L 357.9776 283.418154 
L 358.3744 284.694772 
L 358.7712 284.047472 
L 359.168 284.910538 
L 359.5648 284.658811 
L 359.9616 284.353142 
L 360.3584 282.393263 
L 360.7552 283.993531 
L 361.152 283.454115 
L 361.5488 284.479005 
L 361.9456 283.346231 
L 362.3424 283.867667 
L 362.7392 283.741803 
L 363.136 284.748714 
L 363.5328 284.658811 
L 363.9296 284.065453 
L 364.3264 285.467935 
L 364.7232 286.223118 
L 365.12 285.935429 
L 365.5168 283.723823 
L 365.9136 284.982461 
L 366.3104 284.604869 
L 366.7072 283.723823 
L 367.104 285.324091 
L 367.5008 284.173336 
L 367.8976 283.490076 
L 368.2944 285.773604 
L 368.6912 283.076523 
L 369.088 285.072363 
L 369.4848 282.842776 
L 369.8816 284.209297 
L 370.2784 283.903628 
L 370.6752 284.910538 
L 371.072 284.101414 
L 371.4688 283.97555 
L 371.8656 284.946499 
L 372.2624 284.784675 
L 372.6592 284.191317 
L 373.056 284.011511 
L 373.4528 282.662971 
L 373.8496 282.141535 
L 374.2464 284.227278 
L 374.6432 285.342071 
L 375.04 282.96864 
L 375.4368 284.766694 
L 375.8336 283.651901 
L 376.2304 285.054383 
L 376.6272 284.443044 
L 377.024 283.544017 
L 377.4208 284.209297 
L 377.8176 284.227278 
L 378.2144 284.64083 
L 378.6112 284.496986 
L 379.008 284.371122 
L 379.4048 284.317181 
L 379.8016 284.155356 
L 380.1984 284.443044 
L 380.5952 284.604869 
L 380.992 284.946499 
L 381.3888 285.072363 
L 381.7856 283.903628 
L 382.1824 284.568908 
L 382.5792 284.209297 
L 382.976 282.96864 
L 383.3728 284.281219 
L 383.7696 284.335161 
L 384.1664 282.429224 
L 384.5632 283.220368 
L 384.96 284.155356 
L 385.3568 284.443044 
L 385.7536 284.389103 
L 386.1504 283.669881 
L 386.5472 283.544017 
L 386.944 283.112484 
L 387.3408 285.216208 
L 387.7376 284.586889 
L 388.1344 283.526037 
L 388.5312 283.400173 
L 388.928 284.568908 
L 389.3248 283.597959 
L 389.7216 282.033652 
L 390.1184 283.561998 
L 390.5152 284.838616 
L 390.912 283.993531 
L 391.3088 285.431974 
L 391.7056 282.051632 
L 392.1024 283.921609 
L 392.4992 284.317181 
L 392.896 284.245258 
L 393.2928 284.946499 
L 393.6896 284.011511 
L 394.0864 283.795745 
L 394.4832 283.993531 
L 394.88 284.2992 
L 395.2768 283.63392 
L 395.6736 283.759784 
L 396.0704 283.004601 
L 396.4672 283.148445 
L 396.864 285.270149 
L 397.2608 284.389103 
L 397.6576 283.400173 
L 398.0544 283.112484 
L 398.4512 283.382192 
L 398.848 286.223118 
L 399.2448 284.712752 
L 399.6416 285.126305 
L 400.0384 283.687862 
L 400.4352 283.238348 
L 400.832 283.382192 
L 401.2288 284.568908 
L 401.6256 283.885648 
L 402.0224 284.137375 
L 402.4192 284.047472 
L 402.816 282.734893 
L 403.2128 285.449955 
L 403.6096 284.209297 
L 404.0064 283.597959 
L 404.4032 283.184406 
L 404.8 283.669881 
L 405.1968 283.579978 
L 405.5936 283.29229 
L 405.9904 282.806815 
L 406.3872 284.62285 
L 406.784 283.094504 
L 407.1808 284.155356 
L 407.5776 283.903628 
L 407.9744 283.400173 
L 408.3712 283.95757 
L 408.768 284.155356 
L 409.1648 284.119395 
L 409.5616 285.162266 
L 409.9584 284.245258 
L 410.3552 284.96448 
L 410.752 284.892558 
L 411.1488 283.97555 
L 411.5456 283.256329 
L 411.9424 285.28813 
L 412.3392 283.813725 
L 412.736 284.371122 
L 413.1328 283.328251 
L 413.5296 284.874577 
L 413.9264 283.615939 
L 414.3232 285.449955 
L 414.72 284.64083 
L 415.1168 283.885648 
L 415.5136 283.454115 
L 415.9104 284.730733 
L 416.3072 284.389103 
L 416.704 284.802655 
L 417.1008 283.741803 
L 417.4976 283.346231 
L 417.8944 284.820636 
L 418.2912 284.568908 
L 418.688 282.051632 
L 419.0848 283.472095 
L 419.4816 283.63392 
L 419.8784 283.813725 
L 420.2752 285.431974 
L 420.672 283.867667 
L 421.0688 282.141535 
L 421.4656 286.097254 
L 421.8624 284.820636 
L 422.2592 283.795745 
L 422.656 284.407083 
L 423.0528 283.040562 
L 423.4496 282.986621 
L 423.8464 284.62285 
L 424.2432 284.083434 
L 424.64 284.874577 
L 425.0368 285.018422 
L 425.4336 283.63392 
L 425.8304 284.425064 
L 426.2272 283.795745 
L 426.624 284.353142 
L 427.0208 283.328251 
L 427.4176 284.263239 
L 427.8144 283.669881 
L 428.2112 285.342071 
L 428.608 282.734893 
L 429.0048 283.544017 
L 429.4016 284.173336 
L 429.7984 283.274309 
L 430.1952 284.119395 
L 430.592 282.914698 
L 430.9888 285.28813 
L 431.3856 283.040562 
L 431.7824 285.611779 
L 432.1792 283.274309 
L 432.576 285.845526 
L 432.9728 282.842776 
L 433.3696 285.647741 
L 433.7664 283.777764 
L 434.1632 283.651901 
L 434.56 283.544017 
L 434.9568 283.364212 
L 435.3536 283.346231 
L 435.7504 283.885648 
L 436.1472 284.532947 
L 436.544 285.863507 
L 436.9408 284.712752 
L 437.3376 283.544017 
L 437.7344 284.586889 
L 438.1312 281.29645 
L 438.528 283.256329 
L 438.9248 282.447204 
L 439.3216 283.705842 
L 439.7184 283.63392 
L 440.1152 283.939589 
L 440.512 283.238348 
L 440.9088 283.759784 
L 441.3056 283.903628 
L 441.7024 283.31027 
L 442.0992 283.454115 
L 442.496 284.281219 
L 442.8928 283.687862 
L 443.2896 284.281219 
L 443.6864 283.544017 
L 444.0832 285.396013 
L 444.48 285.539857 
L 444.8768 283.669881 
L 445.2736 282.069613 
L 445.6704 283.903628 
L 446.0672 285.018422 
L 446.464 283.166426 
L 446.8608 283.238348 
L 447.2576 282.123555 
L 447.6544 283.238348 
L 448.0512 283.705842 
L 448.448 282.896718 
L 448.8448 283.400173 
L 449.2416 283.903628 
L 449.6384 284.62285 
L 450.0352 282.986621 
L 450.432 283.256329 
L 450.8288 283.993531 
L 451.2256 283.759784 
L 451.6224 282.896718 
L 452.0192 283.993531 
L 452.416 284.479005 
L 452.8128 283.202387 
L 453.2096 283.346231 
L 453.6064 282.698932 
L 453.6064 279.875987 
L 453.6064 279.875987 
L 453.2096 281.044722 
L 452.8128 279.030902 
L 452.416 280.001851 
L 452.0192 278.671291 
L 451.6224 275.578638 
L 451.2256 282.806815 
L 450.8288 279.480415 
L 450.432 279.64224 
L 450.0352 280.055792 
L 449.6384 281.548177 
L 449.2416 282.716912 
L 448.8448 275.740463 
L 448.448 277.916108 
L 448.0512 279.156765 
L 447.6544 278.617349 
L 447.2576 279.570318 
L 446.8608 277.700342 
L 446.464 278.31168 
L 446.0672 275.740463 
L 445.6704 279.750123 
L 445.2736 277.592458 
L 444.8768 278.095914 
L 444.48 281.332411 
L 444.0832 273.942409 
L 443.6864 276.765354 
L 443.2896 280.361462 
L 442.8928 279.678201 
L 442.496 279.804065 
L 442.0992 279.804065 
L 441.7024 274.337981 
L 441.3056 279.911948 
L 440.9088 279.120804 
L 440.512 272.64781 
L 440.1152 279.246668 
L 439.7184 278.617349 
L 439.3216 277.286789 
L 438.9248 278.149855 
L 438.528 280.469345 
L 438.1312 277.358711 
L 437.7344 282.501146 
L 437.3376 280.63117 
L 436.9408 282.519126 
L 436.544 282.357302 
L 436.1472 280.019831 
L 435.7504 279.066863 
L 435.3536 278.689271 
L 434.9568 278.833116 
L 434.56 277.466595 
L 434.1632 279.408493 
L 433.7664 276.909198 
L 433.3696 279.480415 
L 432.9728 278.743213 
L 432.576 279.246668 
L 432.1792 279.408493 
L 431.7824 283.004601 
L 431.3856 278.599369 
L 430.9888 282.105574 
L 430.592 279.804065 
L 430.1952 280.145695 
L 429.7984 280.001851 
L 429.4016 281.512216 
L 429.0048 278.617349 
L 428.608 277.98803 
L 428.2112 280.64915 
L 427.8144 278.563408 
L 427.4176 279.570318 
L 427.0208 278.940999 
L 426.624 280.343481 
L 426.2272 280.325501 
L 425.8304 281.692022 
L 425.4336 279.660221 
L 425.0368 282.231438 
L 424.64 282.62701 
L 424.2432 279.570318 
L 423.8464 277.682361 
L 423.4496 276.63949 
L 423.0528 280.019831 
L 422.656 281.332411 
L 422.2592 277.736303 
L 421.8624 280.343481 
L 421.4656 281.494236 
L 421.0688 277.250828 
L 420.672 278.059952 
L 420.2752 278.203797 
L 419.8784 278.347641 
L 419.4816 278.97696 
L 419.0848 277.664381 
L 418.688 280.343481 
L 418.2912 279.64224 
L 417.8944 282.231438 
L 417.4976 274.931338 
L 417.1008 275.578638 
L 416.704 282.339321 
L 416.3072 281.026742 
L 415.9104 279.426474 
L 415.5136 281.134625 
L 415.1168 278.221777 
L 414.72 277.430634 
L 414.3232 279.282629 
L 413.9264 282.447204 
L 413.5296 279.156765 
L 413.1328 280.703092 
L 412.736 281.548177 
L 412.3392 272.342141 
L 411.9424 281.170586 
L 411.5456 280.613189 
L 411.1488 279.98387 
L 410.752 277.628419 
L 410.3552 282.411243 
L 409.9584 281.674041 
L 409.5616 281.799905 
L 409.1648 280.63117 
L 408.768 280.864917 
L 408.3712 280.703092 
L 407.9744 278.940999 
L 407.5776 278.203797 
L 407.1808 282.285379 
L 406.784 279.138785 
L 406.3872 279.588298 
L 405.9904 273.277129 
L 405.5936 280.055792 
L 405.1968 277.718322 
L 404.8 278.940999 
L 404.4032 279.786084 
L 404.0064 274.805475 
L 403.6096 280.181656 
L 403.2128 278.725232 
L 402.816 279.246668 
L 402.4192 280.469345 
L 402.0224 282.339321 
L 401.6256 282.878737 
L 401.2288 277.502556 
L 400.832 281.907788 
L 400.4352 274.607689 
L 400.0384 280.217617 
L 399.6416 281.224528 
L 399.2448 277.32275 
L 398.848 281.745963 
L 398.4512 279.31859 
L 398.0544 279.552337 
L 397.6576 277.880147 
L 397.2608 279.64224 
L 396.864 281.763944 
L 396.4672 278.293699 
L 396.0704 278.671291 
L 395.6736 278.527446 
L 395.2768 278.63533 
L 394.88 278.869077 
L 394.4832 281.548177 
L 394.0864 279.390512 
L 393.6896 273.99635 
L 393.2928 277.286789 
L 392.896 280.846936 
L 392.4992 282.573068 
L 392.1024 281.404333 
L 391.7056 277.106984 
L 391.3088 277.250828 
L 390.912 278.851096 
L 390.5152 282.285379 
L 390.1184 276.963139 
L 389.7216 278.869077 
L 389.3248 280.433384 
L 388.928 279.30061 
L 388.5312 276.837276 
L 388.1344 281.727983 
L 387.7376 278.041972 
L 387.3408 280.559248 
L 386.944 276.010171 
L 386.5472 276.549587 
L 386.1504 281.350391 
L 385.7536 283.220368 
L 385.3568 281.817885 
L 384.96 283.274309 
L 384.5632 277.826205 
L 384.1664 277.574478 
L 383.7696 281.727983 
L 383.3728 280.559248 
L 382.976 275.344891 
L 382.5792 280.667131 
L 382.1824 281.96173 
L 381.7856 275.398832 
L 381.3888 281.494236 
L 380.992 283.112484 
L 380.5952 280.037812 
L 380.1984 281.63808 
L 379.8016 275.165085 
L 379.4048 281.602119 
L 379.008 280.127715 
L 378.6112 280.073773 
L 378.2144 278.203797 
L 377.8176 278.365622 
L 377.4208 281.062703 
L 377.024 280.936839 
L 376.6272 281.727983 
L 376.2304 281.458275 
L 375.8336 279.210707 
L 375.4368 278.581388 
L 375.04 279.408493 
L 374.6432 279.947909 
L 374.2464 282.896718 
L 373.8496 277.214867 
L 373.4528 278.023991 
L 373.056 281.494236 
L 372.6592 279.048882 
L 372.2624 282.393263 
L 371.8656 283.526037 
L 371.4688 280.559248 
L 371.072 278.63533 
L 370.6752 282.537107 
L 370.2784 280.415403 
L 369.8816 280.361462 
L 369.4848 280.721072 
L 369.088 284.029492 
L 368.6912 278.31168 
L 368.2944 279.606279 
L 367.8976 279.138785 
L 367.5008 282.609029 
L 367.104 282.932679 
L 366.7072 280.846936 
L 366.3104 281.31443 
L 365.9136 280.361462 
L 365.5168 282.159516 
L 365.12 281.584138 
L 364.7232 283.597959 
L 364.3264 282.357302 
L 363.9296 281.710002 
L 363.5328 282.465185 
L 363.136 279.588298 
L 362.7392 280.217617 
L 362.3424 281.584138 
L 361.9456 279.606279 
L 361.5488 279.804065 
L 361.152 279.714162 
L 360.7552 280.019831 
L 360.3584 279.246668 
L 359.9616 281.96173 
L 359.5648 278.725232 
L 359.168 283.669881 
L 358.7712 282.680951 
L 358.3744 279.98387 
L 357.9776 277.394672 
L 357.5808 281.656061 
L 357.184 277.106984 
L 356.7872 282.734893 
L 356.3904 279.678201 
L 355.9936 279.354551 
L 355.5968 279.066863 
L 355.2 278.419563 
L 354.8032 277.394672 
L 354.4064 279.462435 
L 354.0096 278.958979 
L 353.6128 282.64499 
L 353.216 278.491485 
L 352.8192 282.249418 
L 352.4224 278.006011 
L 352.0256 282.141535 
L 351.6288 280.433384 
L 351.232 282.141535 
L 350.8352 280.505306 
L 350.4384 277.664381 
L 350.0416 283.004601 
L 349.6448 278.419563 
L 349.248 281.404333 
L 348.8512 280.757034 
L 348.4544 278.383602 
L 348.0576 278.905038 
L 347.6608 276.136035 
L 347.264 279.840026 
L 346.8672 282.860757 
L 346.4704 277.071023 
L 346.0736 276.999101 
L 345.6768 280.487325 
L 345.28 279.516376 
L 344.8832 280.775014 
L 344.4864 276.65747 
L 344.0896 280.145695 
L 343.6928 283.651901 
L 343.296 278.905038 
L 342.8992 280.217617 
L 342.5024 277.700342 
L 342.1056 283.490076 
L 341.7088 281.062703 
L 341.312 279.840026 
L 340.9152 281.548177 
L 340.5184 276.621509 
L 340.1216 282.375282 
L 339.7248 277.178906 
L 339.328 280.810975 
L 338.9312 280.217617 
L 338.5344 281.134625 
L 338.1376 278.491485 
L 337.7408 278.940999 
L 337.344 282.519126 
L 336.9472 277.844186 
L 336.5504 279.282629 
L 336.1536 281.422314 
L 335.7568 281.494236 
L 335.36 281.745963 
L 334.9632 279.696182 
L 334.5664 280.792995 
L 334.1696 280.864917 
L 333.7728 279.174746 
L 333.376 280.433384 
L 332.9792 282.123555 
L 332.5824 280.091754 
L 332.1856 277.898128 
L 331.7888 278.940999 
L 331.392 281.548177 
L 330.9952 277.160925 
L 330.5984 277.376692 
L 330.2016 279.696182 
L 329.8048 278.203797 
L 329.408 281.710002 
L 329.0112 279.228688 
L 328.6144 279.31859 
L 328.2176 279.750123 
L 327.8208 280.181656 
L 327.424 281.31443 
L 327.0272 280.109734 
L 326.6304 282.896718 
L 326.2336 276.855256 
L 325.8368 282.519126 
L 325.44 281.745963 
L 325.0432 278.113894 
L 324.6464 278.167836 
L 324.2496 282.96864 
L 323.8528 277.592458 
L 323.456 280.9728 
L 323.0592 279.768104 
L 322.6624 278.923018 
L 322.2656 282.698932 
L 321.8688 280.30752 
L 321.472 282.591049 
L 321.0752 277.124964 
L 320.6784 278.63533 
L 320.2816 279.858006 
L 319.8848 281.817885 
L 319.488 282.087594 
L 319.0912 278.401583 
L 318.6944 280.918858 
L 318.2976 279.156765 
L 317.9008 279.030902 
L 317.504 282.465185 
L 317.1072 279.012921 
L 316.7104 279.228688 
L 316.3136 277.574478 
L 315.9168 282.501146 
L 315.52 280.523286 
L 315.1232 279.858006 
L 314.7264 278.401583 
L 314.3296 280.721072 
L 313.9328 280.181656 
L 313.536 281.368372 
L 313.1392 280.181656 
L 312.7424 281.152605 
L 312.3456 279.138785 
L 311.9488 280.289539 
L 311.552 282.716912 
L 311.1552 281.63808 
L 310.7584 275.938249 
L 310.3616 278.257738 
L 309.9648 282.986621 
L 309.568 279.624259 
L 309.1712 280.775014 
L 308.7744 278.131875 
L 308.3776 280.253578 
L 307.9808 278.509466 
L 307.584 279.102824 
L 307.1872 280.846936 
L 306.7904 281.835866 
L 306.3936 281.116644 
L 305.9968 279.210707 
L 305.6 278.185816 
L 305.2032 278.761194 
L 304.8064 278.958979 
L 304.4096 278.31168 
L 304.0128 282.519126 
L 303.616 280.145695 
L 303.2192 280.882897 
L 302.8224 282.177496 
L 302.4256 278.958979 
L 302.0288 279.588298 
L 301.632 277.610439 
L 301.2352 281.332411 
L 300.8384 281.422314 
L 300.4416 277.880147 
L 300.0448 278.527446 
L 299.648 279.660221 
L 299.2512 277.934089 
L 298.8544 278.869077 
L 298.4576 279.768104 
L 298.0608 281.925769 
L 297.664 281.548177 
L 297.2672 277.412653 
L 296.8704 282.64499 
L 296.4736 281.692022 
L 296.0768 278.887057 
L 295.68 280.541267 
L 295.2832 280.954819 
L 294.8864 281.278469 
L 294.4896 282.716912 
L 294.0928 283.148445 
L 293.696 281.871827 
L 293.2992 282.339321 
L 292.9024 281.188566 
L 292.5056 279.192726 
L 292.1088 279.624259 
L 291.712 280.001851 
L 291.3152 281.63808 
L 290.9184 280.397423 
L 290.5216 277.106984 
L 290.1248 276.405743 
L 289.728 279.678201 
L 289.3312 279.947909 
L 288.9344 281.674041 
L 288.5376 280.882897 
L 288.1408 280.091754 
L 287.744 280.001851 
L 287.3472 283.094504 
L 286.9504 281.278469 
L 286.5536 281.404333 
L 286.1568 282.411243 
L 285.76 282.609029 
L 285.3632 282.213457 
L 284.9664 282.30336 
L 284.5696 280.846936 
L 284.1728 282.195477 
L 283.776 280.721072 
L 283.3792 282.62701 
L 282.9824 277.808225 
L 282.5856 282.231438 
L 282.1888 280.810975 
L 281.792 281.116644 
L 281.3952 281.458275 
L 280.9984 280.828956 
L 280.6016 279.030902 
L 280.2048 280.613189 
L 279.808 281.620099 
L 279.4112 282.770854 
L 279.0144 281.997691 
L 278.6176 282.231438 
L 278.2208 279.174746 
L 277.824 280.217617 
L 277.4272 278.65331 
L 277.0304 282.30336 
L 276.6336 281.134625 
L 276.2368 282.573068 
L 275.84 281.134625 
L 275.4432 280.397423 
L 275.0464 279.210707 
L 274.6496 279.354551 
L 274.2528 281.440294 
L 273.856 281.889808 
L 273.4592 281.260489 
L 273.0624 282.231438 
L 272.6656 281.134625 
L 272.2688 282.105574 
L 271.872 281.674041 
L 271.4752 283.112484 
L 271.0784 283.148445 
L 270.6816 280.127715 
L 270.2848 278.239758 
L 269.888 277.790244 
L 269.4912 282.249418 
L 269.0944 281.332411 
L 268.6976 279.282629 
L 268.3008 282.501146 
L 267.904 278.905038 
L 267.5072 281.188566 
L 267.1104 280.181656 
L 266.7136 283.076523 
L 266.3168 278.329661 
L 265.92 281.692022 
L 265.5232 281.710002 
L 265.1264 279.426474 
L 264.7296 281.260489 
L 264.3328 280.954819 
L 263.936 281.997691 
L 263.5392 281.889808 
L 263.1424 280.828956 
L 262.7456 282.932679 
L 262.3488 281.997691 
L 261.952 281.404333 
L 261.5552 281.116644 
L 261.1584 281.907788 
L 260.7616 282.321341 
L 260.3648 282.483165 
L 259.968 281.440294 
L 259.5712 279.858006 
L 259.1744 281.224528 
L 258.7776 282.123555 
L 258.3808 282.159516 
L 257.984 280.882897 
L 257.5872 281.97971 
L 257.1904 279.786084 
L 256.7936 282.357302 
L 256.3968 282.123555 
L 256 281.745963 
L 255.6032 282.267399 
L 255.2064 282.537107 
L 254.8096 280.775014 
L 254.4128 283.166426 
L 254.016 278.185816 
L 253.6192 281.494236 
L 253.2224 282.501146 
L 252.8256 280.469345 
L 252.4288 281.350391 
L 252.032 282.842776 
L 251.6352 279.030902 
L 251.2384 280.559248 
L 250.8416 281.278469 
L 250.4448 279.336571 
L 250.048 279.480415 
L 249.6512 281.97971 
L 249.2544 281.152605 
L 248.8576 281.566158 
L 248.4608 281.871827 
L 248.064 281.835866 
L 247.6672 283.31027 
L 247.2704 280.127715 
L 246.8736 282.680951 
L 246.4768 282.033652 
L 246.08 283.004601 
L 245.6832 281.727983 
L 245.2864 278.779174 
L 244.8896 281.925769 
L 244.4928 279.768104 
L 244.096 280.325501 
L 243.6992 282.986621 
L 243.3024 281.763944 
L 242.9056 281.404333 
L 242.5088 282.519126 
L 242.112 282.752874 
L 241.7152 282.662971 
L 241.3184 282.411243 
L 240.9216 277.30477 
L 240.5248 281.332411 
L 240.128 284.209297 
L 239.7312 280.828956 
L 239.3344 281.368372 
L 238.9376 282.698932 
L 238.5408 283.526037 
L 238.144 280.379442 
L 237.7472 280.954819 
L 237.3504 281.799905 
L 236.9536 282.321341 
L 236.5568 278.113894 
L 236.16 281.817885 
L 235.7632 281.889808 
L 235.3664 283.130465 
L 234.9696 280.792995 
L 234.5728 281.188566 
L 234.176 279.552337 
L 233.7792 281.710002 
L 233.3824 279.282629 
L 232.9856 282.680951 
L 232.5888 283.777764 
L 232.192 282.680951 
L 231.7952 282.015671 
L 231.3984 281.997691 
L 231.0016 279.30061 
L 230.6048 282.249418 
L 230.208 281.386352 
L 229.8112 280.541267 
L 229.4144 281.368372 
L 229.0176 281.817885 
L 228.6208 281.368372 
L 228.224 279.947909 
L 227.8272 284.101414 
L 227.4304 281.925769 
L 227.0336 282.285379 
L 226.6368 278.581388 
L 226.24 278.221777 
L 225.8432 281.97971 
L 225.4464 281.710002 
L 225.0496 281.674041 
L 224.6528 282.716912 
L 224.256 277.6464 
L 223.8592 281.008761 
L 223.4624 280.775014 
L 223.0656 282.64499 
L 222.6688 279.534357 
L 222.272 280.595209 
L 221.8752 278.905038 
L 221.4784 280.181656 
L 221.0816 283.29229 
L 220.6848 280.595209 
L 220.288 281.494236 
L 219.8912 282.357302 
L 219.4944 282.96864 
L 219.0976 277.502556 
L 218.7008 283.526037 
L 218.304 282.752874 
L 217.9072 280.559248 
L 217.5104 282.069613 
L 217.1136 280.864917 
L 216.7168 280.487325 
L 216.32 283.454115 
L 215.9232 281.206547 
L 215.5264 282.105574 
L 215.1296 281.368372 
L 214.7328 281.188566 
L 214.336 281.853846 
L 213.9392 279.066863 
L 213.5424 278.958979 
L 213.1456 280.900878 
L 212.7488 280.091754 
L 212.352 280.523286 
L 211.9552 279.714162 
L 211.5584 280.019831 
L 211.1616 282.30336 
L 210.7648 281.422314 
L 210.368 281.763944 
L 209.9712 281.458275 
L 209.5744 280.30752 
L 209.1776 281.692022 
L 208.7808 282.609029 
L 208.384 282.914698 
L 207.9872 281.835866 
L 207.5904 278.63533 
L 207.1936 281.548177 
L 206.7968 280.325501 
L 206.4 278.994941 
L 206.0032 283.63392 
L 205.6064 281.170586 
L 205.2096 283.094504 
L 204.8128 282.914698 
L 204.416 282.051632 
L 204.0192 282.087594 
L 203.6224 279.480415 
L 203.2256 281.925769 
L 202.8288 280.990781 
L 202.432 281.727983 
L 202.0352 281.332411 
L 201.6384 282.680951 
L 201.2416 282.465185 
L 200.8448 278.958979 
L 200.448 283.29229 
L 200.0512 282.896718 
L 199.6544 280.900878 
L 199.2576 282.483165 
L 198.8608 281.710002 
L 198.464 280.703092 
L 198.0672 279.98387 
L 197.6704 284.263239 
L 197.2736 282.537107 
L 196.8768 280.109734 
L 196.48 278.563408 
L 196.0832 282.716912 
L 195.6864 279.444454 
L 195.2896 279.282629 
L 194.8928 281.63808 
L 194.496 280.739053 
L 194.0992 282.914698 
L 193.7024 277.97005 
L 193.3056 280.63117 
L 192.9088 278.365622 
L 192.512 280.217617 
L 192.1152 280.523286 
L 191.7184 281.31443 
L 191.3216 280.990781 
L 190.9248 279.30061 
L 190.528 281.548177 
L 190.1312 282.591049 
L 189.7344 281.260489 
L 189.3376 281.96173 
L 188.9408 280.882897 
L 188.544 281.584138 
L 188.1472 283.597959 
L 187.7504 280.936839 
L 187.3536 278.617349 
L 186.9568 282.734893 
L 186.56 281.062703 
L 186.1632 278.095914 
L 185.7664 280.685111 
L 185.3696 282.609029 
L 184.9728 280.343481 
L 184.576 281.674041 
L 184.1792 280.900878 
L 183.7824 279.462435 
L 183.3856 279.911948 
L 182.9888 281.044722 
L 182.592 281.566158 
L 182.1952 282.806815 
L 181.7984 279.012921 
L 181.4016 281.943749 
L 181.0048 282.285379 
L 180.608 279.228688 
L 180.2112 278.401583 
L 179.8144 282.069613 
L 179.4176 279.624259 
L 179.0208 282.537107 
L 178.624 283.202387 
L 178.2272 283.544017 
L 177.8304 281.368372 
L 177.4336 281.080683 
L 177.0368 282.501146 
L 176.64 278.65331 
L 176.2432 280.63117 
L 175.8464 283.561998 
L 175.4496 283.400173 
L 175.0528 277.682361 
L 174.656 282.878737 
L 174.2592 282.591049 
L 173.8624 278.347641 
L 173.4656 277.556497 
L 173.0688 283.184406 
L 172.672 281.584138 
L 172.2752 281.098664 
L 171.8784 280.739053 
L 171.4816 283.579978 
L 171.0848 283.508056 
L 170.688 283.112484 
L 170.2912 282.555088 
L 169.8944 281.008761 
L 169.4976 282.752874 
L 169.1008 281.835866 
L 168.704 282.339321 
L 168.3072 280.019831 
L 167.9104 279.732143 
L 167.5136 278.887057 
L 167.1168 282.267399 
L 166.72 279.174746 
L 166.3232 280.469345 
L 165.9264 280.954819 
L 165.5296 280.757034 
L 165.1328 279.570318 
L 164.736 281.63808 
L 164.3392 279.084843 
L 163.9424 283.166426 
L 163.5456 281.656061 
L 163.1488 280.864917 
L 162.752 280.271559 
L 162.3552 281.044722 
L 161.9584 282.932679 
L 161.5616 282.483165 
L 161.1648 282.321341 
L 160.768 282.375282 
L 160.3712 281.224528 
L 159.9744 281.350391 
L 159.5776 280.559248 
L 159.1808 280.577228 
L 158.784 281.943749 
L 158.3872 279.929929 
L 157.9904 281.260489 
L 157.5936 281.925769 
L 157.1968 281.512216 
L 156.8 280.918858 
L 156.4032 282.483165 
L 156.0064 282.069613 
L 155.6096 280.289539 
L 155.2128 282.087594 
L 154.816 282.950659 
L 154.4192 281.63808 
L 154.0224 281.602119 
L 153.6256 282.932679 
L 153.2288 279.947909 
L 152.832 280.613189 
L 152.4352 282.123555 
L 152.0384 282.483165 
L 151.6416 282.914698 
L 151.2448 281.332411 
L 150.848 282.141535 
L 150.4512 282.770854 
L 150.0544 282.914698 
L 149.6576 281.96173 
L 149.2608 283.328251 
L 148.864 283.508056 
L 148.4672 282.698932 
L 148.0704 282.087594 
L 147.6736 281.062703 
L 147.2768 281.584138 
L 146.88 282.770854 
L 146.4832 281.512216 
L 146.0864 281.871827 
L 145.6896 281.907788 
L 145.2928 281.620099 
L 144.896 281.674041 
L 144.4992 281.530197 
L 144.1024 282.555088 
L 143.7056 282.896718 
L 143.3088 281.925769 
L 142.912 282.609029 
L 142.5152 282.555088 
L 142.1184 281.656061 
L 141.7216 283.076523 
L 141.3248 283.939589 
L 140.928 282.411243 
L 140.5312 281.062703 
L 140.1344 282.716912 
L 139.7376 282.087594 
L 139.3408 281.116644 
L 138.944 284.227278 
L 138.5472 279.606279 
L 138.1504 279.228688 
L 137.7536 282.896718 
L 137.3568 281.440294 
L 136.96 280.415403 
L 136.5632 282.231438 
L 136.1664 282.357302 
L 135.7696 281.727983 
L 135.3728 281.63808 
L 134.976 283.058543 
L 134.5792 282.195477 
L 134.1824 281.584138 
L 133.7856 281.530197 
L 133.3888 283.544017 
L 132.992 280.163676 
L 132.5952 282.986621 
L 132.1984 281.925769 
L 131.8016 283.238348 
L 131.4048 283.885648 
L 131.008 280.63117 
L 130.6112 281.476255 
L 130.2144 282.195477 
L 129.8176 281.584138 
L 129.4208 282.734893 
L 129.024 282.519126 
L 128.6272 282.447204 
L 128.2304 281.206547 
L 127.8336 283.148445 
L 127.4368 283.364212 
L 127.04 282.357302 
L 126.6432 282.321341 
L 126.2464 281.332411 
L 125.8496 283.508056 
L 125.4528 283.454115 
L 125.056 283.669881 
L 124.6592 282.64499 
L 124.2624 279.372532 
L 123.8656 282.806815 
L 123.4688 284.011511 
L 123.072 283.238348 
L 122.6752 283.436134 
L 122.2784 284.425064 
L 121.8816 284.407083 
L 121.4848 282.447204 
L 121.088 284.838616 
L 120.6912 281.727983 
L 120.2944 284.425064 
L 119.8976 282.932679 
L 119.5008 283.579978 
L 119.104 282.411243 
L 118.7072 282.716912 
L 118.3104 282.393263 
L 117.9136 280.361462 
L 117.5168 281.781924 
L 117.12 282.339321 
L 116.7232 282.267399 
L 116.3264 282.429224 
L 115.9296 283.346231 
L 115.5328 283.328251 
L 115.136 283.202387 
L 114.7392 283.454115 
L 114.3424 281.422314 
L 113.9456 283.166426 
L 113.5488 282.375282 
L 113.152 282.806815 
L 112.7552 282.932679 
L 112.3584 283.759784 
L 111.9616 281.152605 
L 111.5648 282.141535 
L 111.168 282.878737 
L 110.7712 283.29229 
L 110.3744 282.465185 
L 109.9776 281.512216 
L 109.5808 281.674041 
L 109.184 283.867667 
L 108.7872 282.087594 
L 108.3904 282.878737 
L 107.9936 282.195477 
L 107.5968 283.921609 
L 107.2 283.669881 
L 106.8032 281.674041 
L 106.4064 283.651901 
L 106.0096 281.404333 
L 105.6128 282.842776 
L 105.216 283.382192 
L 104.8192 282.177496 
L 104.4224 282.950659 
L 104.0256 280.721072 
L 103.6288 282.662971 
L 103.232 281.548177 
L 102.8352 282.519126 
L 102.4384 282.878737 
L 102.0416 281.97971 
L 101.6448 283.669881 
L 101.248 283.561998 
L 100.8512 281.853846 
L 100.4544 283.364212 
L 100.0576 282.30336 
L 99.6608 283.364212 
L 99.264 281.602119 
L 98.8672 281.674041 
L 98.4704 283.220368 
L 98.0736 283.058543 
L 97.6768 283.130465 
L 97.28 281.062703 
L 96.8832 282.465185 
L 96.4864 281.422314 
L 96.0896 283.849686 
L 95.6928 282.680951 
L 95.296 282.159516 
L 94.8992 281.853846 
L 94.5024 282.231438 
L 94.1056 283.022582 
L 93.7088 282.734893 
L 93.312 282.213457 
L 92.9152 282.842776 
L 92.5184 282.429224 
L 92.1216 280.936839 
L 91.7248 283.076523 
L 91.328 281.494236 
L 90.9312 283.076523 
L 90.5344 281.31443 
L 90.1376 283.63392 
L 89.7408 282.932679 
L 89.344 283.939589 
L 88.9472 281.96173 
L 88.5504 282.770854 
L 88.1536 282.62701 
L 87.7568 282.015671 
L 87.36 283.795745 
L 86.9632 283.723823 
L 86.5664 281.080683 
L 86.1696 281.835866 
L 85.7728 283.076523 
L 85.376 281.817885 
L 84.9792 285.126305 
L 84.5824 283.63392 
L 84.1856 283.561998 
L 83.7888 283.220368 
L 83.392 282.878737 
L 82.9952 282.501146 
L 82.5984 282.159516 
L 82.2016 284.479005 
L 81.8048 282.986621 
L 81.408 284.317181 
L 81.0112 282.932679 
L 80.6144 285.701682 
L 80.2176 282.411243 
L 79.8208 283.238348 
L 79.424 283.29229 
L 79.0272 281.799905 
L 78.6304 283.400173 
L 78.2336 283.97555 
L 77.8368 284.137375 
L 77.44 286.690612 
L 77.0432 283.202387 
L 76.6464 284.712752 
L 76.2496 283.148445 
L 75.8528 284.281219 
L 75.456 282.914698 
L 75.0592 283.741803 
L 74.6624 284.586889 
L 74.2656 285.809565 
L 73.8688 284.784675 
L 73.472 283.166426 
L 73.0752 284.64083 
L 72.6784 282.537107 
L 72.2816 284.047472 
L 71.8848 283.382192 
L 71.488 282.716912 
L 71.0912 284.568908 
L 70.6944 283.97555 
L 70.2976 285.773604 
L 69.9008 284.353142 
L 69.504 283.777764 
L 69.1072 283.490076 
L 68.7104 283.148445 
L 68.3136 284.065453 
L 67.9168 284.407083 
L 67.52 284.047472 
L 67.1232 282.662971 
L 66.7264 283.831706 
L 66.3296 284.389103 
L 65.9328 283.472095 
L 65.536 284.155356 
L 65.1392 283.885648 
L 64.7424 283.561998 
L 64.3456 284.119395 
L 63.9488 285.431974 
L 63.552 285.28813 
L 63.1552 283.400173 
L 62.7584 283.220368 
L 62.3616 282.573068 
L 61.9648 283.63392 
L 61.568 284.658811 
L 61.1712 284.461025 
L 60.7744 285.683702 
L 60.3776 284.784675 
L 59.9808 285.342071 
L 59.584 284.335161 
L 59.1872 283.544017 
L 58.7904 283.220368 
L 58.3936 285.396013 
L 57.9968 283.939589 
z
" style="fill:#1f77b4;fill-opacity:0.25;"/>
   </g>
   <g id="matplotlib.axis_1">
    <g id="xtick_1">
     <g id="line2d_1">
      <defs>
       <path d="M 0 0 
L 0 4.8 
" id="m3fbef15dad" style="stroke:#000000;"/>
      </defs>
      <g>
       <use style="stroke:#000000;" x="57.6" xlink:href="#m3fbef15dad" y="307.584"/>
      </g>
     </g>
     <g id="text_1">
      <!-- 0 -->
      <g transform="translate(54.8005 322.570625)scale(0.088 -0.088)">
       <defs>
        <path d="M 2034 4250 
Q 1547 4250 1301 3770 
Q 1056 3291 1056 2328 
Q 1056 1369 1301 889 
Q 1547 409 2034 409 
Q 2525 409 2770 889 
Q 3016 1369 3016 2328 
Q 3016 3291 2770 3770 
Q 2525 4250 2034 4250 
z
M 2034 4750 
Q 2819 4750 3233 4129 
Q 3647 3509 3647 2328 
Q 3647 1150 3233 529 
Q 2819 -91 2034 -91 
Q 1250 -91 836 529 
Q 422 1150 422 2328 
Q 422 3509 836 4129 
Q 1250 4750 2034 4750 
z
" id="DejaVuSans-30" transform="scale(0.015625)"/>
       </defs>
       <use xlink:href="#DejaVuSans-30"/>
      </g>
     </g>
    </g>
    <g id="xtick_2">
     <g id="line2d_2">
      <g>
       <use style="stroke:#000000;" x="97.28" xlink:href="#m3fbef15dad" y="307.584"/>
      </g>
     </g>
     <g id="text_2">
      <!-- 100 -->
      <g transform="translate(88.8815 322.570625)scale(0.088 -0.088)">
       <defs>
        <path d="M 794 531 
L 1825 531 
L 1825 4091 
L 703 3866 
L 703 4441 
L 1819 4666 
L 2450 4666 
L 2450 531 
L 3481 531 
L 3481 0 
L 794 0 
L 794 531 
z
" id="DejaVuSans-31" transform="scale(0.015625)"/>
       </defs>
       <use xlink:href="#DejaVuSans-31"/>
       <use x="63.623047" xlink:href="#DejaVuSans-30"/>
       <use x="127.246094" xlink:href="#DejaVuSans-30"/>
      </g>
     </g>
    </g>
    <g id="xtick_3">
     <g id="line2d_3">
      <g>
       <use style="stroke:#000000;" x="136.96" xlink:href="#m3fbef15dad" y="307.584"/>
      </g>
     </g>
     <g id="text_3">
      <!-- 200 -->
      <g transform="translate(128.5615 322.570625)scale(0.088 -0.088)">
       <defs>
        <path d="M 1228 531 
L 3431 531 
L 3431 0 
L 469 0 
L 469 531 
Q 828 903 1448 1529 
Q 2069 2156 2228 2338 
Q 2531 2678 2651 2914 
Q 2772 3150 2772 3378 
Q 2772 3750 2511 3984 
Q 2250 4219 1831 4219 
Q 1534 4219 1204 4116 
Q 875 4013 500 3803 
L 500 4441 
Q 881 4594 1212 4672 
Q 1544 4750 1819 4750 
Q 2544 4750 2975 4387 
Q 3406 4025 3406 3419 
Q 3406 3131 3298 2873 
Q 3191 2616 2906 2266 
Q 2828 2175 2409 1742 
Q 1991 1309 1228 531 
z
" id="DejaVuSans-32" transform="scale(0.015625)"/>
       </defs>
       <use xlink:href="#DejaVuSans-32"/>
       <use x="63.623047" xlink:href="#DejaVuSans-30"/>
       <use x="127.246094" xlink:href="#DejaVuSans-30"/>
      </g>
     </g>
    </g>
    <g id="xtick_4">
     <g id="line2d_4">
      <g>
       <use style="stroke:#000000;" x="176.64" xlink:href="#m3fbef15dad" y="307.584"/>
      </g>
     </g>
     <g id="text_4">
      <!-- 300 -->
      <g transform="translate(168.2415 322.570625)scale(0.088 -0.088)">
       <defs>
        <path d="M 2597 2516 
Q 3050 2419 3304 2112 
Q 3559 1806 3559 1356 
Q 3559 666 3084 287 
Q 2609 -91 1734 -91 
Q 1441 -91 1130 -33 
Q 819 25 488 141 
L 488 750 
Q 750 597 1062 519 
Q 1375 441 1716 441 
Q 2309 441 2620 675 
Q 2931 909 2931 1356 
Q 2931 1769 2642 2001 
Q 2353 2234 1838 2234 
L 1294 2234 
L 1294 2753 
L 1863 2753 
Q 2328 2753 2575 2939 
Q 2822 3125 2822 3475 
Q 2822 3834 2567 4026 
Q 2313 4219 1838 4219 
Q 1578 4219 1281 4162 
Q 984 4106 628 3988 
L 628 4550 
Q 988 4650 1302 4700 
Q 1616 4750 1894 4750 
Q 2613 4750 3031 4423 
Q 3450 4097 3450 3541 
Q 3450 3153 3228 2886 
Q 3006 2619 2597 2516 
z
" id="DejaVuSans-33" transform="scale(0.015625)"/>
       </defs>
       <use xlink:href="#DejaVuSans-33"/>
       <use x="63.623047" xlink:href="#DejaVuSans-30"/>
       <use x="127.246094" xlink:href="#DejaVuSans-30"/>
      </g>
     </g>
    </g>
    <g id="xtick_5">
     <g id="line2d_5">
      <g>
       <use style="stroke:#000000;" x="216.32" xlink:href="#m3fbef15dad" y="307.584"/>
      </g>
     </g>
     <g id="text_5">
      <!-- 400 -->
      <g transform="translate(207.9215 322.570625)scale(0.088 -0.088)">
       <defs>
        <path d="M 2419 4116 
L 825 1625 
L 2419 1625 
L 2419 4116 
z
M 2253 4666 
L 3047 4666 
L 3047 1625 
L 3713 1625 
L 3713 1100 
L 3047 1100 
L 3047 0 
L 2419 0 
L 2419 1100 
L 313 1100 
L 313 1709 
L 2253 4666 
z
" id="DejaVuSans-34" transform="scale(0.015625)"/>
       </defs>
       <use xlink:href="#DejaVuSans-34"/>
       <use x="63.623047" xlink:href="#DejaVuSans-30"/>
       <use x="127.246094" xlink:href="#DejaVuSans-30"/>
      </g>
     </g>
    </g>
    <g id="xtick_6">
     <g id="line2d_6">
      <g>
       <use style="stroke:#000000;" x="256" xlink:href="#m3fbef15dad" y="307.584"/>
      </g>
     </g>
     <g id="text_6">
      <!-- 500 -->
      <g transform="translate(247.6015 322.570625)scale(0.088 -0.088)">
       <defs>
        <path d="M 691 4666 
L 3169 4666 
L 3169 4134 
L 1269 4134 
L 1269 2991 
Q 1406 3038 1543 3061 
Q 1681 3084 1819 3084 
Q 2600 3084 3056 2656 
Q 3513 2228 3513 1497 
Q 3513 744 3044 326 
Q 2575 -91 1722 -91 
Q 1428 -91 1123 -41 
Q 819 9 494 109 
L 494 744 
Q 775 591 1075 516 
Q 1375 441 1709 441 
Q 2250 441 2565 725 
Q 2881 1009 2881 1497 
Q 2881 1984 2565 2268 
Q 2250 2553 1709 2553 
Q 1456 2553 1204 2497 
Q 953 2441 691 2322 
L 691 4666 
z
" id="DejaVuSans-35" transform="scale(0.015625)"/>
       </defs>
       <use xlink:href="#DejaVuSans-35"/>
       <use x="63.623047" xlink:href="#DejaVuSans-30"/>
       <use x="127.246094" xlink:href="#DejaVuSans-30"/>
      </g>
     </g>
    </g>
    <g id="xtick_7">
     <g id="line2d_7">
      <g>
       <use style="stroke:#000000;" x="295.68" xlink:href="#m3fbef15dad" y="307.584"/>
      </g>
     </g>
     <g id="text_7">
      <!-- 600 -->
      <g transform="translate(287.2815 322.570625)scale(0.088 -0.088)">
       <defs>
        <path d="M 2113 2584 
Q 1688 2584 1439 2293 
Q 1191 2003 1191 1497 
Q 1191 994 1439 701 
Q 1688 409 2113 409 
Q 2538 409 2786 701 
Q 3034 994 3034 1497 
Q 3034 2003 2786 2293 
Q 2538 2584 2113 2584 
z
M 3366 4563 
L 3366 3988 
Q 3128 4100 2886 4159 
Q 2644 4219 2406 4219 
Q 1781 4219 1451 3797 
Q 1122 3375 1075 2522 
Q 1259 2794 1537 2939 
Q 1816 3084 2150 3084 
Q 2853 3084 3261 2657 
Q 3669 2231 3669 1497 
Q 3669 778 3244 343 
Q 2819 -91 2113 -91 
Q 1303 -91 875 529 
Q 447 1150 447 2328 
Q 447 3434 972 4092 
Q 1497 4750 2381 4750 
Q 2619 4750 2861 4703 
Q 3103 4656 3366 4563 
z
" id="DejaVuSans-36" transform="scale(0.015625)"/>
       </defs>
       <use xlink:href="#DejaVuSans-36"/>
       <use x="63.623047" xlink:href="#DejaVuSans-30"/>
       <use x="127.246094" xlink:href="#DejaVuSans-30"/>
      </g>
     </g>
    </g>
    <g id="xtick_8">
     <g id="line2d_8">
      <g>
       <use style="stroke:#000000;" x="335.36" xlink:href="#m3fbef15dad" y="307.584"/>
      </g>
     </g>
     <g id="text_8">
      <!-- 700 -->
      <g transform="translate(326.9615 322.570625)scale(0.088 -0.088)">
       <defs>
        <path d="M 525 4666 
L 3525 4666 
L 3525 4397 
L 1831 0 
L 1172 0 
L 2766 4134 
L 525 4134 
L 525 4666 
z
" id="DejaVuSans-37" transform="scale(0.015625)"/>
       </defs>
       <use xlink:href="#DejaVuSans-37"/>
       <use x="63.623047" xlink:href="#DejaVuSans-30"/>
       <use x="127.246094" xlink:href="#DejaVuSans-30"/>
      </g>
     </g>
    </g>
    <g id="xtick_9">
     <g id="line2d_9">
      <g>
       <use style="stroke:#000000;" x="375.04" xlink:href="#m3fbef15dad" y="307.584"/>
      </g>
     </g>
     <g id="text_9">
      <!-- 800 -->
      <g transform="translate(366.6415 322.570625)scale(0.088 -0.088)">
       <defs>
        <path d="M 2034 2216 
Q 1584 2216 1326 1975 
Q 1069 1734 1069 1313 
Q 1069 891 1326 650 
Q 1584 409 2034 409 
Q 2484 409 2743 651 
Q 3003 894 3003 1313 
Q 3003 1734 2745 1975 
Q 2488 2216 2034 2216 
z
M 1403 2484 
Q 997 2584 770 2862 
Q 544 3141 544 3541 
Q 544 4100 942 4425 
Q 1341 4750 2034 4750 
Q 2731 4750 3128 4425 
Q 3525 4100 3525 3541 
Q 3525 3141 3298 2862 
Q 3072 2584 2669 2484 
Q 3125 2378 3379 2068 
Q 3634 1759 3634 1313 
Q 3634 634 3220 271 
Q 2806 -91 2034 -91 
Q 1263 -91 848 271 
Q 434 634 434 1313 
Q 434 1759 690 2068 
Q 947 2378 1403 2484 
z
M 1172 3481 
Q 1172 3119 1398 2916 
Q 1625 2713 2034 2713 
Q 2441 2713 2670 2916 
Q 2900 3119 2900 3481 
Q 2900 3844 2670 4047 
Q 2441 4250 2034 4250 
Q 1625 4250 1398 4047 
Q 1172 3844 1172 3481 
z
" id="DejaVuSans-38" transform="scale(0.015625)"/>
       </defs>
       <use xlink:href="#DejaVuSans-38"/>
       <use x="63.623047" xlink:href="#DejaVuSans-30"/>
       <use x="127.246094" xlink:href="#DejaVuSans-30"/>
      </g>
     </g>
    </g>
    <g id="xtick_10">
     <g id="line2d_10">
      <g>
       <use style="stroke:#000000;" x="414.72" xlink:href="#m3fbef15dad" y="307.584"/>
      </g>
     </g>
     <g id="text_10">
      <!-- 900 -->
      <g transform="translate(406.3215 322.570625)scale(0.088 -0.088)">
       <defs>
        <path d="M 703 97 
L 703 672 
Q 941 559 1184 500 
Q 1428 441 1663 441 
Q 2288 441 2617 861 
Q 2947 1281 2994 2138 
Q 2813 1869 2534 1725 
Q 2256 1581 1919 1581 
Q 1219 1581 811 2004 
Q 403 2428 403 3163 
Q 403 3881 828 4315 
Q 1253 4750 1959 4750 
Q 2769 4750 3195 4129 
Q 3622 3509 3622 2328 
Q 3622 1225 3098 567 
Q 2575 -91 1691 -91 
Q 1453 -91 1209 -44 
Q 966 3 703 97 
z
M 1959 2075 
Q 2384 2075 2632 2365 
Q 2881 2656 2881 3163 
Q 2881 3666 2632 3958 
Q 2384 4250 1959 4250 
Q 1534 4250 1286 3958 
Q 1038 3666 1038 3163 
Q 1038 2656 1286 2365 
Q 1534 2075 1959 2075 
z
" id="DejaVuSans-39" transform="scale(0.015625)"/>
       </defs>
       <use xlink:href="#DejaVuSans-39"/>
       <use x="63.623047" xlink:href="#DejaVuSans-30"/>
       <use x="127.246094" xlink:href="#DejaVuSans-30"/>
      </g>
     </g>
    </g>
    <g id="text_11">
     <!-- Timestep -->
     <g transform="translate(214.03275 335.69525)scale(0.096 -0.096)">
      <defs>
       <path d="M -19 4666 
L 3928 4666 
L 3928 4134 
L 2272 4134 
L 2272 0 
L 1638 0 
L 1638 4134 
L -19 4134 
L -19 4666 
z
" id="DejaVuSans-54" transform="scale(0.015625)"/>
       <path d="M 603 3500 
L 1178 3500 
L 1178 0 
L 603 0 
L 603 3500 
z
M 603 4863 
L 1178 4863 
L 1178 4134 
L 603 4134 
L 603 4863 
z
" id="DejaVuSans-69" transform="scale(0.015625)"/>
       <path d="M 3328 2828 
Q 3544 3216 3844 3400 
Q 4144 3584 4550 3584 
Q 5097 3584 5394 3201 
Q 5691 2819 5691 2113 
L 5691 0 
L 5113 0 
L 5113 2094 
Q 5113 2597 4934 2840 
Q 4756 3084 4391 3084 
Q 3944 3084 3684 2787 
Q 3425 2491 3425 1978 
L 3425 0 
L 2847 0 
L 2847 2094 
Q 2847 2600 2669 2842 
Q 2491 3084 2119 3084 
Q 1678 3084 1418 2786 
Q 1159 2488 1159 1978 
L 1159 0 
L 581 0 
L 581 3500 
L 1159 3500 
L 1159 2956 
Q 1356 3278 1631 3431 
Q 1906 3584 2284 3584 
Q 2666 3584 2933 3390 
Q 3200 3197 3328 2828 
z
" id="DejaVuSans-6d" transform="scale(0.015625)"/>
       <path d="M 3597 1894 
L 3597 1613 
L 953 1613 
Q 991 1019 1311 708 
Q 1631 397 2203 397 
Q 2534 397 2845 478 
Q 3156 559 3463 722 
L 3463 178 
Q 3153 47 2828 -22 
Q 2503 -91 2169 -91 
Q 1331 -91 842 396 
Q 353 884 353 1716 
Q 353 2575 817 3079 
Q 1281 3584 2069 3584 
Q 2775 3584 3186 3129 
Q 3597 2675 3597 1894 
z
M 3022 2063 
Q 3016 2534 2758 2815 
Q 2500 3097 2075 3097 
Q 1594 3097 1305 2825 
Q 1016 2553 972 2059 
L 3022 2063 
z
" id="DejaVuSans-65" transform="scale(0.015625)"/>
       <path d="M 2834 3397 
L 2834 2853 
Q 2591 2978 2328 3040 
Q 2066 3103 1784 3103 
Q 1356 3103 1142 2972 
Q 928 2841 928 2578 
Q 928 2378 1081 2264 
Q 1234 2150 1697 2047 
L 1894 2003 
Q 2506 1872 2764 1633 
Q 3022 1394 3022 966 
Q 3022 478 2636 193 
Q 2250 -91 1575 -91 
Q 1294 -91 989 -36 
Q 684 19 347 128 
L 347 722 
Q 666 556 975 473 
Q 1284 391 1588 391 
Q 1994 391 2212 530 
Q 2431 669 2431 922 
Q 2431 1156 2273 1281 
Q 2116 1406 1581 1522 
L 1381 1569 
Q 847 1681 609 1914 
Q 372 2147 372 2553 
Q 372 3047 722 3315 
Q 1072 3584 1716 3584 
Q 2034 3584 2315 3537 
Q 2597 3491 2834 3397 
z
" id="DejaVuSans-73" transform="scale(0.015625)"/>
       <path d="M 1172 4494 
L 1172 3500 
L 2356 3500 
L 2356 3053 
L 1172 3053 
L 1172 1153 
Q 1172 725 1289 603 
Q 1406 481 1766 481 
L 2356 481 
L 2356 0 
L 1766 0 
Q 1100 0 847 248 
Q 594 497 594 1153 
L 594 3053 
L 172 3053 
L 172 3500 
L 594 3500 
L 594 4494 
L 1172 4494 
z
" id="DejaVuSans-74" transform="scale(0.015625)"/>
       <path d="M 1159 525 
L 1159 -1331 
L 581 -1331 
L 581 3500 
L 1159 3500 
L 1159 2969 
Q 1341 3281 1617 3432 
Q 1894 3584 2278 3584 
Q 2916 3584 3314 3078 
Q 3713 2572 3713 1747 
Q 3713 922 3314 415 
Q 2916 -91 2278 -91 
Q 1894 -91 1617 61 
Q 1341 213 1159 525 
z
M 3116 1747 
Q 3116 2381 2855 2742 
Q 2594 3103 2138 3103 
Q 1681 3103 1420 2742 
Q 1159 2381 1159 1747 
Q 1159 1113 1420 752 
Q 1681 391 2138 391 
Q 2594 391 2855 752 
Q 3116 1113 3116 1747 
z
" id="DejaVuSans-70" transform="scale(0.015625)"/>
      </defs>
      <use xlink:href="#DejaVuSans-54"/>
      <use x="57.958984" xlink:href="#DejaVuSans-69"/>
      <use x="85.742188" xlink:href="#DejaVuSans-6d"/>
      <use x="183.154297" xlink:href="#DejaVuSans-65"/>
      <use x="244.677734" xlink:href="#DejaVuSans-73"/>
      <use x="296.777344" xlink:href="#DejaVuSans-74"/>
      <use x="335.986328" xlink:href="#DejaVuSans-65"/>
      <use x="397.509766" xlink:href="#DejaVuSans-70"/>
     </g>
    </g>
   </g>
   <g id="matplotlib.axis_2">
    <g id="ytick_1">
     <g id="line2d_11">
      <defs>
       <path d="M 0 0 
L -4.8 0 
" id="mce238e8a1f" style="stroke:#000000;"/>
      </defs>
      <g>
       <use style="stroke:#000000;" x="57.6" xlink:href="#mce238e8a1f" y="293.199568"/>
      </g>
     </g>
     <g id="text_12">
      <!-- 0 -->
      <g transform="translate(43.701 296.54288)scale(0.088 -0.088)">
       <use xlink:href="#DejaVuSans-30"/>
      </g>
     </g>
    </g>
    <g id="ytick_2">
     <g id="line2d_12">
      <g>
       <use style="stroke:#000000;" x="57.6" xlink:href="#mce238e8a1f" y="257.238486"/>
      </g>
     </g>
     <g id="text_13">
      <!-- 5 -->
      <g transform="translate(43.701 260.581799)scale(0.088 -0.088)">
       <use xlink:href="#DejaVuSans-35"/>
      </g>
     </g>
    </g>
    <g id="ytick_3">
     <g id="line2d_13">
      <g>
       <use style="stroke:#000000;" x="57.6" xlink:href="#mce238e8a1f" y="221.277405"/>
      </g>
     </g>
     <g id="text_14">
      <!-- 10 -->
      <g transform="translate(38.102 224.620718)scale(0.088 -0.088)">
       <use xlink:href="#DejaVuSans-31"/>
       <use x="63.623047" xlink:href="#DejaVuSans-30"/>
      </g>
     </g>
    </g>
    <g id="ytick_4">
     <g id="line2d_14">
      <g>
       <use style="stroke:#000000;" x="57.6" xlink:href="#mce238e8a1f" y="185.316324"/>
      </g>
     </g>
     <g id="text_15">
      <!-- 15 -->
      <g transform="translate(38.102 188.659637)scale(0.088 -0.088)">
       <use xlink:href="#DejaVuSans-31"/>
       <use x="63.623047" xlink:href="#DejaVuSans-35"/>
      </g>
     </g>
    </g>
    <g id="ytick_5">
     <g id="line2d_15">
      <g>
       <use style="stroke:#000000;" x="57.6" xlink:href="#mce238e8a1f" y="149.355243"/>
      </g>
     </g>
     <g id="text_16">
      <!-- 20 -->
      <g transform="translate(38.102 152.698556)scale(0.088 -0.088)">
       <use xlink:href="#DejaVuSans-32"/>
       <use x="63.623047" xlink:href="#DejaVuSans-30"/>
      </g>
     </g>
    </g>
    <g id="ytick_6">
     <g id="line2d_16">
      <g>
       <use style="stroke:#000000;" x="57.6" xlink:href="#mce238e8a1f" y="113.394162"/>
      </g>
     </g>
     <g id="text_17">
      <!-- 25 -->
      <g transform="translate(38.102 116.737475)scale(0.088 -0.088)">
       <use xlink:href="#DejaVuSans-32"/>
       <use x="63.623047" xlink:href="#DejaVuSans-35"/>
      </g>
     </g>
    </g>
    <g id="ytick_7">
     <g id="line2d_17">
      <g>
       <use style="stroke:#000000;" x="57.6" xlink:href="#mce238e8a1f" y="77.433081"/>
      </g>
     </g>
     <g id="text_18">
      <!-- 30 -->
      <g transform="translate(38.102 80.776394)scale(0.088 -0.088)">
       <use xlink:href="#DejaVuSans-33"/>
       <use x="63.623047" xlink:href="#DejaVuSans-30"/>
      </g>
     </g>
    </g>
    <g id="ytick_8">
     <g id="line2d_18">
      <g>
       <use style="stroke:#000000;" x="57.6" xlink:href="#mce238e8a1f" y="41.472"/>
      </g>
     </g>
     <g id="text_19">
      <!-- 35 -->
      <g transform="translate(38.102 44.815313)scale(0.088 -0.088)">
       <use xlink:href="#DejaVuSans-33"/>
       <use x="63.623047" xlink:href="#DejaVuSans-35"/>
      </g>
     </g>
    </g>
    <g id="text_20">
     <!-- Reward -->
     <g transform="translate(32.1055 192.40425)rotate(-90)scale(0.096 -0.096)">
      <defs>
       <path d="M 2841 2188 
Q 3044 2119 3236 1894 
Q 3428 1669 3622 1275 
L 4263 0 
L 3584 0 
L 2988 1197 
Q 2756 1666 2539 1819 
Q 2322 1972 1947 1972 
L 1259 1972 
L 1259 0 
L 628 0 
L 628 4666 
L 2053 4666 
Q 2853 4666 3247 4331 
Q 3641 3997 3641 3322 
Q 3641 2881 3436 2590 
Q 3231 2300 2841 2188 
z
M 1259 4147 
L 1259 2491 
L 2053 2491 
Q 2509 2491 2742 2702 
Q 2975 2913 2975 3322 
Q 2975 3731 2742 3939 
Q 2509 4147 2053 4147 
L 1259 4147 
z
" id="DejaVuSans-52" transform="scale(0.015625)"/>
       <path d="M 269 3500 
L 844 3500 
L 1563 769 
L 2278 3500 
L 2956 3500 
L 3675 769 
L 4391 3500 
L 4966 3500 
L 4050 0 
L 3372 0 
L 2619 2869 
L 1863 0 
L 1184 0 
L 269 3500 
z
" id="DejaVuSans-77" transform="scale(0.015625)"/>
       <path d="M 2194 1759 
Q 1497 1759 1228 1600 
Q 959 1441 959 1056 
Q 959 750 1161 570 
Q 1363 391 1709 391 
Q 2188 391 2477 730 
Q 2766 1069 2766 1631 
L 2766 1759 
L 2194 1759 
z
M 3341 1997 
L 3341 0 
L 2766 0 
L 2766 531 
Q 2569 213 2275 61 
Q 1981 -91 1556 -91 
Q 1019 -91 701 211 
Q 384 513 384 1019 
Q 384 1609 779 1909 
Q 1175 2209 1959 2209 
L 2766 2209 
L 2766 2266 
Q 2766 2663 2505 2880 
Q 2244 3097 1772 3097 
Q 1472 3097 1187 3025 
Q 903 2953 641 2809 
L 641 3341 
Q 956 3463 1253 3523 
Q 1550 3584 1831 3584 
Q 2591 3584 2966 3190 
Q 3341 2797 3341 1997 
z
" id="DejaVuSans-61" transform="scale(0.015625)"/>
       <path d="M 2631 2963 
Q 2534 3019 2420 3045 
Q 2306 3072 2169 3072 
Q 1681 3072 1420 2755 
Q 1159 2438 1159 1844 
L 1159 0 
L 581 0 
L 581 3500 
L 1159 3500 
L 1159 2956 
Q 1341 3275 1631 3429 
Q 1922 3584 2338 3584 
Q 2397 3584 2469 3576 
Q 2541 3569 2628 3553 
L 2631 2963 
z
" id="DejaVuSans-72" transform="scale(0.015625)"/>
       <path d="M 2906 2969 
L 2906 4863 
L 3481 4863 
L 3481 0 
L 2906 0 
L 2906 525 
Q 2725 213 2448 61 
Q 2172 -91 1784 -91 
Q 1150 -91 751 415 
Q 353 922 353 1747 
Q 353 2572 751 3078 
Q 1150 3584 1784 3584 
Q 2172 3584 2448 3432 
Q 2725 3281 2906 2969 
z
M 947 1747 
Q 947 1113 1208 752 
Q 1469 391 1925 391 
Q 2381 391 2643 752 
Q 2906 1113 2906 1747 
Q 2906 2381 2643 2742 
Q 2381 3103 1925 3103 
Q 1469 3103 1208 2742 
Q 947 2381 947 1747 
z
" id="DejaVuSans-64" transform="scale(0.015625)"/>
      </defs>
      <use xlink:href="#DejaVuSans-52"/>
      <use x="64.982422" xlink:href="#DejaVuSans-65"/>
      <use x="126.505859" xlink:href="#DejaVuSans-77"/>
      <use x="208.292969" xlink:href="#DejaVuSans-61"/>
      <use x="269.572266" xlink:href="#DejaVuSans-72"/>
      <use x="308.935547" xlink:href="#DejaVuSans-64"/>
     </g>
    </g>
   </g>
   <g id="line2d_19">
    <path clip-path="url(#p3102775815)" d="M 57.9968 285.611779 
L 58.3936 286.762534 
L 58.7904 286.043312 
L 59.1872 285.575818 
L 59.584 285.431974 
L 59.9808 286.61869 
L 60.3776 286.366962 
L 60.7744 286.762534 
L 61.1712 286.043312 
L 61.568 286.007351 
L 61.9648 286.187157 
L 62.3616 286.187157 
L 62.7584 284.96448 
L 63.1552 285.252169 
L 63.552 287.265989 
L 64.3456 286.151196 
L 64.7424 284.892558 
L 65.1392 284.317181 
L 65.536 285.863507 
L 65.9328 284.604869 
L 66.3296 286.007351 
L 67.1232 284.389103 
L 67.52 284.532947 
L 67.9168 286.115235 
L 68.3136 285.863507 
L 68.7104 284.676791 
L 69.1072 284.532947 
L 69.504 285.000441 
L 69.9008 285.719663 
L 70.2976 287.014262 
L 70.6944 285.216208 
L 71.0912 285.180246 
L 71.488 284.425064 
L 71.8848 284.137375 
L 72.2816 285.036402 
L 72.6784 284.96448 
L 73.0752 285.683702 
L 73.472 284.856597 
L 73.8688 285.899468 
L 74.2656 285.97139 
L 74.6624 285.791585 
L 75.0592 285.431974 
L 75.456 284.676791 
L 75.8528 285.827546 
L 76.2496 285.503896 
L 76.6464 286.762534 
L 77.0432 285.252169 
L 77.44 287.265989 
L 77.8368 285.503896 
L 78.6304 285.072363 
L 79.0272 285.791585 
L 79.424 284.676791 
L 79.8208 286.187157 
L 80.2176 285.144285 
L 80.6144 286.29504 
L 81.0112 283.63392 
L 81.408 285.360052 
L 81.8048 285.467935 
L 82.2016 286.223118 
L 82.5984 284.029492 
L 82.9952 285.216208 
L 83.392 284.496986 
L 84.1856 283.95757 
L 84.5824 286.546768 
L 84.9792 286.187157 
L 85.376 284.389103 
L 85.7728 285.108324 
L 86.1696 283.382192 
L 86.5664 284.425064 
L 86.9632 286.043312 
L 87.36 284.425064 
L 87.7568 283.454115 
L 88.1536 284.389103 
L 88.9472 284.604869 
L 89.344 285.000441 
L 89.7408 284.389103 
L 90.1376 284.892558 
L 90.5344 283.022582 
L 90.9312 284.101414 
L 91.7248 284.496986 
L 92.1216 282.842776 
L 92.5184 285.144285 
L 92.9152 283.454115 
L 93.312 282.62701 
L 93.7088 283.885648 
L 94.1056 284.173336 
L 94.8992 283.63392 
L 95.296 282.950659 
L 96.0896 286.115235 
L 96.4864 285.899468 
L 96.8832 283.526037 
L 97.28 282.806815 
L 97.6768 284.892558 
L 98.0736 285.180246 
L 98.4704 285.611779 
L 98.8672 282.842776 
L 99.264 285.791585 
L 99.6608 285.899468 
L 100.0576 284.137375 
L 100.4544 284.676791 
L 100.8512 285.467935 
L 101.248 284.209297 
L 101.6448 284.065453 
L 102.0416 283.238348 
L 102.4384 283.885648 
L 102.8352 283.813725 
L 103.232 283.274309 
L 103.6288 283.95757 
L 104.0256 283.166426 
L 104.4224 284.784675 
L 104.8192 283.418154 
L 105.216 283.777764 
L 105.6128 283.597959 
L 106.0096 283.166426 
L 106.4064 284.209297 
L 106.8032 284.173336 
L 107.2 284.532947 
L 107.5968 284.568908 
L 107.9936 283.526037 
L 108.3904 285.072363 
L 108.7872 284.748714 
L 109.184 284.676791 
L 109.5808 283.202387 
L 109.9776 282.483165 
L 110.3744 283.885648 
L 111.168 283.454115 
L 111.5648 283.777764 
L 111.9616 283.382192 
L 112.3584 284.892558 
L 112.7552 285.180246 
L 113.152 283.31027 
L 113.5488 283.561998 
L 113.9456 283.418154 
L 114.3424 284.64083 
L 114.7392 284.96448 
L 115.136 284.137375 
L 115.5328 284.101414 
L 115.9296 286.438884 
L 116.3264 283.705842 
L 116.7232 282.914698 
L 117.12 284.173336 
L 117.5168 284.856597 
L 117.9136 282.878737 
L 118.3104 282.842776 
L 118.7072 283.63392 
L 119.104 284.137375 
L 119.5008 285.719663 
L 119.8976 286.151196 
L 120.2944 285.108324 
L 120.6912 282.62701 
L 121.088 286.043312 
L 121.4848 284.784675 
L 121.8816 286.007351 
L 122.2784 285.935429 
L 122.6752 284.317181 
L 123.072 284.029492 
L 123.4688 284.820636 
L 123.8656 283.95757 
L 124.2624 282.734893 
L 124.6592 284.353142 
L 125.056 286.438884 
L 125.4528 284.568908 
L 125.8496 285.252169 
L 126.2464 282.62701 
L 126.6432 284.496986 
L 127.04 284.389103 
L 127.4368 285.360052 
L 127.8336 284.820636 
L 128.2304 283.885648 
L 128.6272 284.461025 
L 129.024 283.813725 
L 129.4208 283.777764 
L 129.8176 285.072363 
L 130.6112 283.526037 
L 131.008 285.360052 
L 131.4048 284.712752 
L 131.8016 284.389103 
L 132.1984 285.431974 
L 132.5952 283.274309 
L 132.992 283.490076 
L 133.3888 284.928519 
L 133.7856 283.346231 
L 134.1824 283.526037 
L 134.5792 284.748714 
L 134.976 285.108324 
L 135.3728 282.842776 
L 135.7696 283.561998 
L 136.1664 283.166426 
L 136.5632 283.382192 
L 136.96 282.986621 
L 137.3568 284.281219 
L 137.7536 285.036402 
L 138.1504 281.835866 
L 138.5472 282.339321 
L 138.944 285.28813 
L 139.3408 283.094504 
L 139.7376 283.382192 
L 140.1344 284.676791 
L 140.5312 283.490076 
L 140.928 284.496986 
L 141.3248 285.072363 
L 141.7216 284.712752 
L 142.1184 284.748714 
L 142.5152 285.216208 
L 142.912 283.166426 
L 143.3088 283.597959 
L 143.7056 284.245258 
L 144.1024 284.317181 
L 144.4992 282.878737 
L 144.896 285.216208 
L 145.2928 283.346231 
L 145.6896 283.022582 
L 146.0864 283.058543 
L 146.4832 283.418154 
L 146.88 285.036402 
L 147.2768 283.382192 
L 147.6736 282.62701 
L 148.0704 283.777764 
L 148.4672 284.281219 
L 148.864 284.425064 
L 149.2608 285.28813 
L 149.6576 282.842776 
L 150.4512 284.029492 
L 150.848 284.892558 
L 151.2448 282.734893 
L 151.6416 283.885648 
L 152.0384 283.777764 
L 152.4352 283.95757 
L 152.832 284.281219 
L 153.2288 281.763944 
L 153.6256 283.993531 
L 154.0224 284.64083 
L 154.4192 283.094504 
L 154.816 283.993531 
L 155.2128 283.597959 
L 155.6096 282.015671 
L 156.0064 283.705842 
L 156.4032 283.669881 
L 156.8 282.878737 
L 157.1968 283.777764 
L 157.5936 283.63392 
L 157.9904 282.447204 
L 158.3872 282.087594 
L 158.784 283.777764 
L 159.5776 280.9728 
L 159.9744 283.202387 
L 160.3712 282.698932 
L 160.768 283.849686 
L 161.1648 283.130465 
L 161.5616 283.885648 
L 162.3552 284.281219 
L 162.752 283.382192 
L 163.1488 283.238348 
L 163.5456 282.555088 
L 163.9424 284.101414 
L 164.3392 282.914698 
L 164.736 283.238348 
L 165.1328 281.943749 
L 165.5296 281.727983 
L 165.9264 282.591049 
L 166.3232 281.584138 
L 166.72 282.62701 
L 167.1168 285.252169 
L 167.5136 281.404333 
L 167.9104 281.584138 
L 168.3072 283.561998 
L 168.704 284.317181 
L 169.1008 283.022582 
L 169.4976 284.712752 
L 169.8944 284.96448 
L 170.2912 283.95757 
L 170.688 284.96448 
L 171.0848 285.28813 
L 171.4816 284.317181 
L 171.8784 282.662971 
L 172.2752 284.029492 
L 172.672 283.454115 
L 173.0688 284.496986 
L 173.4656 280.936839 
L 173.8624 279.570318 
L 174.2592 283.597959 
L 174.656 285.683702 
L 175.0528 281.29645 
L 175.4496 284.101414 
L 175.8464 284.96448 
L 176.2432 284.892558 
L 176.64 281.584138 
L 177.0368 284.532947 
L 177.4336 282.806815 
L 177.8304 283.202387 
L 178.2272 284.496986 
L 178.624 284.64083 
L 179.0208 284.209297 
L 179.4176 282.195477 
L 179.8144 282.806815 
L 180.2112 282.375282 
L 180.608 283.561998 
L 181.0048 283.094504 
L 181.4016 284.928519 
L 181.7984 283.95757 
L 182.592 285.216208 
L 182.9888 282.591049 
L 183.3856 283.454115 
L 183.7824 282.986621 
L 184.1792 283.166426 
L 184.576 284.029492 
L 184.9728 282.914698 
L 185.3696 284.209297 
L 185.7664 282.878737 
L 186.1632 285.072363 
L 186.56 282.231438 
L 186.9568 284.64083 
L 187.3536 282.914698 
L 187.7504 282.555088 
L 188.1472 284.604869 
L 188.544 283.921609 
L 188.9408 282.591049 
L 189.3376 284.137375 
L 189.7344 281.943749 
L 190.1312 283.238348 
L 190.528 282.986621 
L 190.9248 281.512216 
L 191.3216 284.245258 
L 192.1152 282.591049 
L 192.512 281.476255 
L 192.9088 282.806815 
L 193.3056 284.532947 
L 193.7024 280.217617 
L 194.0992 284.065453 
L 194.496 283.777764 
L 194.8928 282.30336 
L 195.2896 281.404333 
L 195.6864 283.741803 
L 196.0832 283.63392 
L 196.48 280.64915 
L 196.8768 283.454115 
L 197.2736 283.094504 
L 197.6704 285.108324 
L 198.464 282.591049 
L 199.2576 284.389103 
L 199.6544 283.993531 
L 200.0512 284.281219 
L 200.448 283.669881 
L 200.8448 281.656061 
L 201.2416 283.705842 
L 201.6384 283.921609 
L 202.0352 282.087594 
L 202.432 283.022582 
L 202.8288 283.094504 
L 203.2256 283.022582 
L 203.6224 282.267399 
L 204.416 283.418154 
L 204.8128 283.238348 
L 205.2096 283.849686 
L 205.6064 283.561998 
L 206.0032 285.108324 
L 206.4 284.389103 
L 206.7968 281.943749 
L 207.5904 283.166426 
L 207.9872 282.806815 
L 208.384 283.777764 
L 209.1776 283.705842 
L 209.5744 284.496986 
L 209.9712 282.878737 
L 210.368 282.770854 
L 210.7648 282.195477 
L 211.1616 284.101414 
L 211.5584 282.339321 
L 211.9552 282.770854 
L 212.352 281.656061 
L 212.7488 283.346231 
L 213.1456 282.878737 
L 213.5424 283.31027 
L 213.9392 281.440294 
L 214.336 284.065453 
L 214.7328 282.483165 
L 215.1296 282.375282 
L 215.5264 283.130465 
L 216.32 285.647741 
L 216.7168 282.195477 
L 217.1136 283.669881 
L 217.5104 284.317181 
L 217.9072 284.676791 
L 218.304 284.568908 
L 218.7008 285.000441 
L 219.0976 281.620099 
L 219.4944 283.418154 
L 219.8912 283.95757 
L 220.288 283.346231 
L 220.6848 283.382192 
L 221.0816 285.324091 
L 221.4784 281.835866 
L 221.8752 282.267399 
L 222.272 281.835866 
L 222.6688 281.188566 
L 223.0656 284.245258 
L 223.4624 282.950659 
L 223.8592 282.411243 
L 224.256 282.411243 
L 224.6528 285.252169 
L 225.0496 283.561998 
L 225.4464 283.454115 
L 225.8432 283.094504 
L 226.24 283.526037 
L 226.6368 281.656061 
L 227.0336 283.921609 
L 227.4304 283.63392 
L 227.8272 284.820636 
L 228.224 281.620099 
L 228.6208 281.548177 
L 229.0176 282.950659 
L 229.4144 282.339321 
L 229.8112 283.63392 
L 230.208 282.62701 
L 230.6048 283.777764 
L 231.0016 282.591049 
L 231.3984 282.555088 
L 231.7952 284.353142 
L 232.192 283.705842 
L 232.5888 284.281219 
L 232.9856 283.885648 
L 233.3824 283.31027 
L 233.7792 283.849686 
L 234.176 283.454115 
L 234.5728 282.734893 
L 234.9696 283.058543 
L 235.3664 284.245258 
L 235.7632 283.094504 
L 236.16 283.058543 
L 236.5568 281.871827 
L 236.9536 284.64083 
L 237.3504 283.346231 
L 237.7472 282.519126 
L 238.144 281.188566 
L 238.5408 285.252169 
L 238.9376 284.209297 
L 239.3344 284.317181 
L 239.7312 281.835866 
L 240.128 285.108324 
L 240.5248 284.317181 
L 240.9216 280.936839 
L 241.3184 283.669881 
L 241.7152 283.705842 
L 242.112 284.820636 
L 242.9056 283.454115 
L 243.3024 283.166426 
L 243.6992 283.993531 
L 244.096 281.97971 
L 244.4928 281.835866 
L 244.8896 283.202387 
L 245.2864 283.382192 
L 246.08 284.353142 
L 246.4768 283.490076 
L 246.8736 284.101414 
L 247.2704 283.490076 
L 247.6672 284.784675 
L 248.064 282.375282 
L 248.4608 282.555088 
L 248.8576 283.63392 
L 249.2544 283.885648 
L 249.6512 283.669881 
L 250.048 281.548177 
L 250.4448 282.555088 
L 250.8416 282.519126 
L 251.2384 283.274309 
L 251.6352 282.770854 
L 252.032 283.885648 
L 252.4288 283.597959 
L 252.8256 283.130465 
L 253.2224 283.094504 
L 253.6192 283.95757 
L 254.016 281.440294 
L 254.4128 284.496986 
L 254.8096 283.094504 
L 255.2064 282.986621 
L 256 284.856597 
L 256.3968 282.698932 
L 256.7936 283.813725 
L 257.1904 284.029492 
L 257.5872 283.202387 
L 257.984 283.669881 
L 258.3808 283.346231 
L 258.7776 283.777764 
L 259.5712 281.620099 
L 259.968 283.849686 
L 260.3648 283.777764 
L 260.7616 284.065453 
L 261.1584 283.885648 
L 261.5552 284.029492 
L 261.952 282.123555 
L 262.3488 283.31027 
L 262.7456 283.777764 
L 263.1424 282.914698 
L 263.5392 282.986621 
L 263.936 284.065453 
L 264.3328 283.993531 
L 264.7296 283.705842 
L 265.1264 282.447204 
L 265.5232 283.597959 
L 265.92 283.058543 
L 266.3168 281.799905 
L 266.7136 284.892558 
L 267.1104 283.705842 
L 267.5072 283.166426 
L 267.904 283.561998 
L 268.3008 284.568908 
L 268.6976 282.231438 
L 269.0944 282.662971 
L 269.4912 283.669881 
L 269.888 280.505306 
L 270.2848 281.584138 
L 270.6816 281.692022 
L 271.0784 283.921609 
L 271.872 283.849686 
L 272.2688 282.591049 
L 272.6656 283.526037 
L 273.4592 283.058543 
L 273.856 284.101414 
L 274.6496 283.202387 
L 275.4432 281.763944 
L 275.84 283.094504 
L 276.2368 282.914698 
L 276.6336 283.274309 
L 277.0304 283.346231 
L 277.4272 282.734893 
L 277.824 283.777764 
L 278.6176 283.382192 
L 279.0144 282.806815 
L 279.4112 283.741803 
L 279.808 282.842776 
L 280.2048 282.950659 
L 280.6016 282.159516 
L 280.9984 284.101414 
L 281.3952 283.418154 
L 281.792 283.849686 
L 282.1888 282.986621 
L 282.5856 282.878737 
L 282.9824 281.799905 
L 283.3792 283.885648 
L 283.776 282.950659 
L 284.1728 283.885648 
L 284.5696 282.591049 
L 284.9664 283.777764 
L 285.3632 283.777764 
L 286.1568 283.130465 
L 286.5536 282.411243 
L 286.9504 284.065453 
L 287.3472 284.245258 
L 287.744 282.195477 
L 288.1408 283.454115 
L 288.5376 283.705842 
L 288.9344 284.532947 
L 289.728 282.123555 
L 290.1248 279.246668 
L 290.9184 284.209297 
L 291.3152 283.31027 
L 291.712 282.123555 
L 292.1088 282.914698 
L 292.5056 284.065453 
L 293.2992 283.346231 
L 293.696 283.885648 
L 294.4896 284.137375 
L 294.8864 282.878737 
L 295.2832 282.015671 
L 295.68 283.058543 
L 296.0768 282.591049 
L 296.8704 283.202387 
L 297.2672 280.469345 
L 297.664 283.31027 
L 298.0608 283.526037 
L 298.4576 284.461025 
L 299.2512 281.584138 
L 299.648 283.274309 
L 300.0448 281.656061 
L 300.4416 283.274309 
L 300.8384 282.483165 
L 301.2352 284.892558 
L 301.632 281.692022 
L 302.0288 281.943749 
L 302.4256 282.770854 
L 302.8224 282.447204 
L 303.2192 282.591049 
L 303.616 282.950659 
L 304.0128 284.173336 
L 304.4096 282.339321 
L 304.8064 283.130465 
L 305.2032 279.893968 
L 305.9968 283.094504 
L 306.3936 283.202387 
L 306.7904 284.173336 
L 307.584 281.332411 
L 307.9808 280.469345 
L 308.3776 282.339321 
L 308.7744 283.202387 
L 309.1712 283.274309 
L 309.568 282.195477 
L 309.9648 284.317181 
L 310.3616 280.864917 
L 310.7584 280.433384 
L 311.1552 282.914698 
L 311.9488 283.130465 
L 312.3456 281.97971 
L 312.7424 282.914698 
L 313.1392 282.30336 
L 313.536 284.676791 
L 313.9328 282.519126 
L 314.3296 281.152605 
L 314.7264 281.656061 
L 315.1232 280.685111 
L 315.52 283.418154 
L 315.9168 283.382192 
L 316.3136 282.015671 
L 316.7104 282.30336 
L 317.1072 283.166426 
L 317.504 283.166426 
L 318.2976 281.080683 
L 318.6944 283.094504 
L 319.0912 282.159516 
L 319.488 283.849686 
L 319.8848 283.993531 
L 320.2816 281.404333 
L 320.6784 282.914698 
L 321.0752 281.368372 
L 321.472 284.245258 
L 321.8688 283.094504 
L 322.2656 283.31027 
L 322.6624 281.907788 
L 323.0592 283.382192 
L 323.456 283.382192 
L 323.8528 281.29645 
L 324.2496 284.137375 
L 324.6464 281.332411 
L 325.0432 280.828956 
L 325.44 283.526037 
L 325.8368 283.490076 
L 326.2336 280.613189 
L 326.6304 283.921609 
L 327.0272 281.116644 
L 327.424 284.245258 
L 327.8208 281.907788 
L 328.2176 280.289539 
L 328.6144 280.541267 
L 329.408 284.065453 
L 329.8048 280.864917 
L 330.2016 281.368372 
L 330.5984 279.714162 
L 330.9952 280.613189 
L 331.392 283.490076 
L 331.7888 282.555088 
L 332.1856 281.008761 
L 332.5824 282.231438 
L 332.9792 282.950659 
L 333.376 282.842776 
L 333.7728 281.692022 
L 334.1696 282.842776 
L 334.9632 284.209297 
L 335.36 283.058543 
L 335.7568 282.591049 
L 336.1536 283.454115 
L 336.5504 281.044722 
L 336.9472 280.217617 
L 337.344 284.676791 
L 337.7408 283.130465 
L 338.1376 282.806815 
L 338.5344 282.339321 
L 338.9312 281.116644 
L 339.328 282.231438 
L 339.7248 282.591049 
L 340.1216 283.238348 
L 340.5184 279.534357 
L 340.9152 284.029492 
L 341.312 281.727983 
L 341.7088 283.130465 
L 342.1056 283.849686 
L 342.5024 281.29645 
L 342.8992 282.231438 
L 343.296 281.584138 
L 343.6928 284.101414 
L 344.4864 280.505306 
L 344.8832 283.346231 
L 345.28 283.561998 
L 345.6768 282.159516 
L 346.0736 283.597959 
L 346.4704 283.058543 
L 346.8672 283.346231 
L 347.264 282.123555 
L 347.6608 282.878737 
L 348.0576 281.907788 
L 348.4544 281.440294 
L 348.8512 283.849686 
L 349.248 284.461025 
L 349.6448 280.828956 
L 350.0416 283.885648 
L 350.4384 280.469345 
L 350.8352 282.411243 
L 351.232 282.806815 
L 351.6288 281.907788 
L 352.0256 283.526037 
L 352.4224 282.339321 
L 352.8192 283.669881 
L 353.216 282.806815 
L 353.6128 283.274309 
L 354.0096 282.662971 
L 354.4064 282.986621 
L 354.8032 282.662971 
L 355.5968 281.656061 
L 355.9936 282.339321 
L 356.3904 282.662971 
L 356.7872 283.813725 
L 357.184 282.734893 
L 357.5808 283.418154 
L 357.9776 281.044722 
L 358.3744 281.727983 
L 358.7712 283.705842 
L 359.168 284.281219 
L 359.5648 279.750123 
L 359.9616 283.777764 
L 360.3584 281.440294 
L 360.7552 282.411243 
L 361.152 280.864917 
L 361.5488 284.281219 
L 361.9456 282.591049 
L 362.3424 283.31027 
L 362.7392 283.058543 
L 363.136 283.95757 
L 363.5328 283.705842 
L 363.9296 283.274309 
L 364.3264 283.741803 
L 364.7232 284.784675 
L 365.5168 282.878737 
L 365.9136 283.669881 
L 366.3104 283.454115 
L 366.7072 282.770854 
L 367.104 283.454115 
L 367.5008 283.418154 
L 367.8976 280.577228 
L 368.2944 283.058543 
L 368.6912 281.008761 
L 369.088 284.389103 
L 369.4848 281.512216 
L 369.8816 283.130465 
L 370.2784 282.519126 
L 370.6752 283.130465 
L 371.072 282.698932 
L 371.4688 283.561998 
L 371.8656 283.885648 
L 372.2624 282.770854 
L 372.6592 282.015671 
L 373.056 282.842776 
L 373.4528 281.368372 
L 373.8496 280.936839 
L 374.2464 283.741803 
L 374.6432 282.950659 
L 375.04 281.548177 
L 375.4368 282.914698 
L 375.8336 281.620099 
L 376.2304 283.274309 
L 376.6272 283.454115 
L 377.024 282.339321 
L 377.4208 282.375282 
L 377.8176 281.008761 
L 378.2144 283.022582 
L 378.6112 283.490076 
L 379.008 283.202387 
L 379.4048 282.519126 
L 379.8016 279.64224 
L 380.1984 283.058543 
L 380.5952 283.022582 
L 380.992 283.993531 
L 381.3888 283.921609 
L 381.7856 281.656061 
L 382.1824 283.741803 
L 382.5792 282.950659 
L 382.976 277.700342 
L 383.3728 282.950659 
L 383.7696 283.202387 
L 384.1664 280.073773 
L 384.5632 280.900878 
L 384.96 283.382192 
L 385.3568 282.698932 
L 385.7536 283.921609 
L 386.1504 283.454115 
L 386.944 280.469345 
L 387.3408 282.519126 
L 387.7376 281.548177 
L 388.1344 282.878737 
L 388.5312 280.253578 
L 389.3248 282.662971 
L 389.7216 280.289539 
L 390.1184 282.267399 
L 390.5152 283.561998 
L 390.912 281.080683 
L 391.3088 282.375282 
L 391.7056 279.858006 
L 392.1024 283.058543 
L 392.4992 283.561998 
L 392.896 283.561998 
L 393.2928 280.433384 
L 393.6896 282.62701 
L 394.0864 281.224528 
L 394.4832 283.058543 
L 394.88 281.260489 
L 395.2768 281.584138 
L 396.0704 281.260489 
L 396.4672 282.231438 
L 396.864 284.281219 
L 397.6576 280.505306 
L 398.0544 281.799905 
L 398.4512 281.943749 
L 398.848 284.317181 
L 399.2448 281.584138 
L 399.6416 283.490076 
L 400.0384 281.260489 
L 400.4352 276.225937 
L 400.832 282.159516 
L 401.2288 282.015671 
L 401.6256 283.31027 
L 402.0224 283.561998 
L 402.816 281.512216 
L 403.6096 282.950659 
L 404.0064 280.864917 
L 404.4032 280.864917 
L 404.8 282.734893 
L 405.1968 280.685111 
L 405.5936 281.97971 
L 405.9904 279.462435 
L 406.3872 283.022582 
L 406.784 281.692022 
L 407.1808 282.806815 
L 407.9744 281.368372 
L 408.3712 282.770854 
L 408.768 282.914698 
L 409.1648 281.799905 
L 409.5616 283.993531 
L 409.9584 282.483165 
L 410.3552 283.597959 
L 410.752 281.871827 
L 411.1488 282.950659 
L 411.5456 282.231438 
L 411.9424 282.662971 
L 412.3392 281.943749 
L 412.736 283.31027 
L 413.1328 282.411243 
L 413.5296 281.97971 
L 413.9264 283.454115 
L 414.3232 282.483165 
L 415.1168 281.548177 
L 415.5136 282.770854 
L 415.9104 282.231438 
L 416.3072 283.31027 
L 416.704 283.813725 
L 417.1008 278.851096 
L 417.4976 282.375282 
L 417.8944 283.741803 
L 418.2912 281.440294 
L 418.688 281.692022 
L 419.0848 278.851096 
L 419.4816 282.267399 
L 419.8784 282.806815 
L 420.672 281.871827 
L 421.0688 280.397423 
L 421.4656 284.029492 
L 421.8624 283.813725 
L 422.2592 281.152605 
L 422.656 283.382192 
L 423.4496 280.469345 
L 423.8464 280.325501 
L 424.2432 282.842776 
L 424.64 284.389103 
L 425.0368 284.604869 
L 425.4336 283.166426 
L 425.8304 283.130465 
L 426.2272 283.31027 
L 426.624 281.368372 
L 427.0208 280.9728 
L 427.4176 283.31027 
L 427.8144 281.97971 
L 428.2112 283.597959 
L 428.608 281.29645 
L 429.0048 281.260489 
L 429.4016 282.30336 
L 429.7984 282.698932 
L 430.1952 282.195477 
L 430.592 280.900878 
L 430.9888 283.705842 
L 431.3856 282.159516 
L 431.7824 284.820636 
L 432.1792 280.864917 
L 432.576 283.202387 
L 432.9728 280.361462 
L 433.3696 282.986621 
L 433.7664 281.692022 
L 434.56 282.447204 
L 434.9568 281.044722 
L 435.3536 280.936839 
L 435.7504 280.361462 
L 436.544 284.101414 
L 436.9408 283.921609 
L 437.3376 282.411243 
L 437.7344 283.166426 
L 438.1312 278.994941 
L 438.528 282.555088 
L 438.9248 279.64224 
L 439.3216 282.015671 
L 440.1152 282.519126 
L 440.512 279.282629 
L 440.9088 280.217617 
L 441.3056 282.231438 
L 441.7024 280.685111 
L 442.0992 282.483165 
L 442.496 282.62701 
L 442.8928 281.404333 
L 443.2896 283.741803 
L 443.6864 278.63533 
L 444.0832 282.62701 
L 444.48 283.454115 
L 444.8768 279.354551 
L 445.2736 279.750123 
L 445.6704 282.195477 
L 446.0672 281.260489 
L 446.464 279.390512 
L 447.2576 281.044722 
L 447.6544 280.685111 
L 448.0512 280.505306 
L 448.448 280.936839 
L 448.8448 279.893968 
L 449.2416 283.561998 
L 449.6384 283.561998 
L 450.0352 281.404333 
L 451.2256 283.63392 
L 451.6224 280.217617 
L 452.0192 281.512216 
L 452.8128 282.914698 
L 453.2096 282.555088 
L 453.6064 281.584138 
L 453.6064 281.584138 
" style="fill:none;stroke:#1f77b4;stroke-linecap:square;stroke-width:1.2;"/>
   </g>
   <g id="patch_3">
    <path d="M 57.6 307.584 
L 57.6 41.472 
" style="fill:none;stroke:#000000;stroke-linecap:square;stroke-linejoin:miter;"/>
   </g>
   <g id="patch_4">
    <path d="M 414.72 307.584 
L 414.72 41.472 
" style="fill:none;stroke:#000000;stroke-linecap:square;stroke-linejoin:miter;"/>
   </g>
   <g id="patch_5">
    <path d="M 57.6 307.584 
L 414.72 307.584 
" style="fill:none;stroke:#000000;stroke-linecap:square;stroke-linejoin:miter;"/>
   </g>
   <g id="patch_6">
    <path d="M 57.6 41.472 
L 414.72 41.472 
" style="fill:none;stroke:#000000;stroke-linecap:square;stroke-linejoin:miter;"/>
   </g>
   <g id="text_21">
    <!-- Training - NSR-ES - Slimevolley -->
    <g transform="translate(162.4815 35.472)scale(0.096 -0.096)">
     <defs>
      <path d="M 3513 2113 
L 3513 0 
L 2938 0 
L 2938 2094 
Q 2938 2591 2744 2837 
Q 2550 3084 2163 3084 
Q 1697 3084 1428 2787 
Q 1159 2491 1159 1978 
L 1159 0 
L 581 0 
L 581 3500 
L 1159 3500 
L 1159 2956 
Q 1366 3272 1645 3428 
Q 1925 3584 2291 3584 
Q 2894 3584 3203 3211 
Q 3513 2838 3513 2113 
z
" id="DejaVuSans-6e" transform="scale(0.015625)"/>
      <path d="M 2906 1791 
Q 2906 2416 2648 2759 
Q 2391 3103 1925 3103 
Q 1463 3103 1205 2759 
Q 947 2416 947 1791 
Q 947 1169 1205 825 
Q 1463 481 1925 481 
Q 2391 481 2648 825 
Q 2906 1169 2906 1791 
z
M 3481 434 
Q 3481 -459 3084 -895 
Q 2688 -1331 1869 -1331 
Q 1566 -1331 1297 -1286 
Q 1028 -1241 775 -1147 
L 775 -588 
Q 1028 -725 1275 -790 
Q 1522 -856 1778 -856 
Q 2344 -856 2625 -561 
Q 2906 -266 2906 331 
L 2906 616 
Q 2728 306 2450 153 
Q 2172 0 1784 0 
Q 1141 0 747 490 
Q 353 981 353 1791 
Q 353 2603 747 3093 
Q 1141 3584 1784 3584 
Q 2172 3584 2450 3431 
Q 2728 3278 2906 2969 
L 2906 3500 
L 3481 3500 
L 3481 434 
z
" id="DejaVuSans-67" transform="scale(0.015625)"/>
      <path id="DejaVuSans-20" transform="scale(0.015625)"/>
      <path d="M 313 2009 
L 1997 2009 
L 1997 1497 
L 313 1497 
L 313 2009 
z
" id="DejaVuSans-2d" transform="scale(0.015625)"/>
      <path d="M 628 4666 
L 1478 4666 
L 3547 763 
L 3547 4666 
L 4159 4666 
L 4159 0 
L 3309 0 
L 1241 3903 
L 1241 0 
L 628 0 
L 628 4666 
z
" id="DejaVuSans-4e" transform="scale(0.015625)"/>
      <path d="M 3425 4513 
L 3425 3897 
Q 3066 4069 2747 4153 
Q 2428 4238 2131 4238 
Q 1616 4238 1336 4038 
Q 1056 3838 1056 3469 
Q 1056 3159 1242 3001 
Q 1428 2844 1947 2747 
L 2328 2669 
Q 3034 2534 3370 2195 
Q 3706 1856 3706 1288 
Q 3706 609 3251 259 
Q 2797 -91 1919 -91 
Q 1588 -91 1214 -16 
Q 841 59 441 206 
L 441 856 
Q 825 641 1194 531 
Q 1563 422 1919 422 
Q 2459 422 2753 634 
Q 3047 847 3047 1241 
Q 3047 1584 2836 1778 
Q 2625 1972 2144 2069 
L 1759 2144 
Q 1053 2284 737 2584 
Q 422 2884 422 3419 
Q 422 4038 858 4394 
Q 1294 4750 2059 4750 
Q 2388 4750 2728 4690 
Q 3069 4631 3425 4513 
z
" id="DejaVuSans-53" transform="scale(0.015625)"/>
      <path d="M 628 4666 
L 3578 4666 
L 3578 4134 
L 1259 4134 
L 1259 2753 
L 3481 2753 
L 3481 2222 
L 1259 2222 
L 1259 531 
L 3634 531 
L 3634 0 
L 628 0 
L 628 4666 
z
" id="DejaVuSans-45" transform="scale(0.015625)"/>
      <path d="M 603 4863 
L 1178 4863 
L 1178 0 
L 603 0 
L 603 4863 
z
" id="DejaVuSans-6c" transform="scale(0.015625)"/>
      <path d="M 191 3500 
L 800 3500 
L 1894 563 
L 2988 3500 
L 3597 3500 
L 2284 0 
L 1503 0 
L 191 3500 
z
" id="DejaVuSans-76" transform="scale(0.015625)"/>
      <path d="M 1959 3097 
Q 1497 3097 1228 2736 
Q 959 2375 959 1747 
Q 959 1119 1226 758 
Q 1494 397 1959 397 
Q 2419 397 2687 759 
Q 2956 1122 2956 1747 
Q 2956 2369 2687 2733 
Q 2419 3097 1959 3097 
z
M 1959 3584 
Q 2709 3584 3137 3096 
Q 3566 2609 3566 1747 
Q 3566 888 3137 398 
Q 2709 -91 1959 -91 
Q 1206 -91 779 398 
Q 353 888 353 1747 
Q 353 2609 779 3096 
Q 1206 3584 1959 3584 
z
" id="DejaVuSans-6f" transform="scale(0.015625)"/>
      <path d="M 2059 -325 
Q 1816 -950 1584 -1140 
Q 1353 -1331 966 -1331 
L 506 -1331 
L 506 -850 
L 844 -850 
Q 1081 -850 1212 -737 
Q 1344 -625 1503 -206 
L 1606 56 
L 191 3500 
L 800 3500 
L 1894 763 
L 2988 3500 
L 3597 3500 
L 2059 -325 
z
" id="DejaVuSans-79" transform="scale(0.015625)"/>
     </defs>
     <use xlink:href="#DejaVuSans-54"/>
     <use x="46.333984" xlink:href="#DejaVuSans-72"/>
     <use x="87.447266" xlink:href="#DejaVuSans-61"/>
     <use x="148.726562" xlink:href="#DejaVuSans-69"/>
     <use x="176.509766" xlink:href="#DejaVuSans-6e"/>
     <use x="239.888672" xlink:href="#DejaVuSans-69"/>
     <use x="267.671875" xlink:href="#DejaVuSans-6e"/>
     <use x="331.050781" xlink:href="#DejaVuSans-67"/>
     <use x="394.527344" xlink:href="#DejaVuSans-20"/>
     <use x="426.314453" xlink:href="#DejaVuSans-2d"/>
     <use x="462.398438" xlink:href="#DejaVuSans-20"/>
     <use x="494.185547" xlink:href="#DejaVuSans-4e"/>
     <use x="568.990234" xlink:href="#DejaVuSans-53"/>
     <use x="632.466797" xlink:href="#DejaVuSans-52"/>
     <use x="697.949219" xlink:href="#DejaVuSans-2d"/>
     <use x="734.033203" xlink:href="#DejaVuSans-45"/>
     <use x="797.216797" xlink:href="#DejaVuSans-53"/>
     <use x="860.693359" xlink:href="#DejaVuSans-20"/>
     <use x="892.480469" xlink:href="#DejaVuSans-2d"/>
     <use x="928.564453" xlink:href="#DejaVuSans-20"/>
     <use x="960.351562" xlink:href="#DejaVuSans-53"/>
     <use x="1023.828125" xlink:href="#DejaVuSans-6c"/>
     <use x="1051.611328" xlink:href="#DejaVuSans-69"/>
     <use x="1079.394531" xlink:href="#DejaVuSans-6d"/>
     <use x="1176.806641" xlink:href="#DejaVuSans-65"/>
     <use x="1238.330078" xlink:href="#DejaVuSans-76"/>
     <use x="1297.509766" xlink:href="#DejaVuSans-6f"/>
     <use x="1358.691406" xlink:href="#DejaVuSans-6c"/>
     <use x="1386.474609" xlink:href="#DejaVuSans-6c"/>
     <use x="1414.257812" xlink:href="#DejaVuSans-65"/>
     <use x="1475.78125" xlink:href="#DejaVuSans-79"/>
    </g>
   </g>
  </g>
 </g>
 <defs>
  <clipPath id="p3102775815">
   <rect height="266.112" width="357.12" x="57.6" y="41.472"/>
  </clipPath>
 </defs>
</svg>
