<?xml version="1.0" encoding="utf-8" standalone="no"?>
<!DOCTYPE svg PUBLIC "-//W3C//DTD SVG 1.1//EN"
  "http://www.w3.org/Graphics/SVG/1.1/DTD/svg11.dtd">
<svg height="345.6pt" version="1.1" viewBox="0 0 460.8 345.6" width="460.8pt" xmlns="http://www.w3.org/2000/svg" xmlns:xlink="http://www.w3.org/1999/xlink">
 <metadata>
  <rdf:RDF xmlns:cc="http://creativecommons.org/ns#" xmlns:dc="http://purl.org/dc/elements/1.1/" xmlns:rdf="http://www.w3.org/1999/02/22-rdf-syntax-ns#">
   <cc:Work>
    <dc:type rdf:resource="http://purl.org/dc/dcmitype/StillImage"/>
    <dc:date>2021-07-22T19:44:20.380407</dc:date>
    <dc:format>image/svg+xml</dc:format>
    <dc:creator>
     <cc:Agent>
      <dc:title>Matplotlib v3.4.2, https://matplotlib.org/</dc:title>
     </cc:Agent>
    </dc:creator>
   </cc:Work>
  </rdf:RDF>
 </metadata>
 <defs>
  <style type="text/css">*{stroke-linecap:butt;stroke-linejoin:round;}</style>
 </defs>
 <g id="figure_1">
  <g id="patch_1">
   <path d="M 0 345.6 
L 460.8 345.6 
L 460.8 0 
L 0 0 
z
" style="fill:#ffffff;"/>
  </g>
  <g id="axes_1">
   <g id="patch_2">
    <path d="M 57.6 307.584 
L 414.72 307.584 
L 414.72 41.472 
L 57.6 41.472 
z
" style="fill:#ffffff;"/>
   </g>
   <g id="PolyCollection_1">
    <path clip-path="url(#p9a390a8c76)" d="M 57.9968 285.252169 
L 57.9968 287.517717 
L 58.3936 287.769444 
L 58.7904 287.248009 
L 59.1872 287.30195 
L 59.584 286.564748 
L 59.9808 287.499736 
L 60.3776 286.187157 
L 60.7744 287.697522 
L 61.1712 287.733483 
L 61.568 286.726573 
L 61.9648 286.834456 
L 62.3616 287.823386 
L 62.7584 286.510806 
L 63.1552 285.683702 
L 63.552 286.313021 
L 63.9488 286.834456 
L 64.3456 287.176086 
L 64.7424 286.402923 
L 65.1392 286.564748 
L 65.536 287.176086 
L 65.9328 286.61869 
L 66.3296 286.331001 
L 66.7264 286.151196 
L 67.1232 285.180246 
L 67.52 286.313021 
L 67.9168 285.503896 
L 68.3136 286.924359 
L 68.7104 286.96032 
L 69.1072 286.852437 
L 69.504 286.151196 
L 69.9008 284.479005 
L 70.2976 287.373872 
L 70.6944 286.492826 
L 71.0912 286.582729 
L 71.488 287.589639 
L 71.8848 286.906378 
L 72.2816 284.353142 
L 72.6784 286.223118 
L 73.0752 285.989371 
L 73.472 285.521877 
L 73.8688 285.467935 
L 74.2656 286.654651 
L 74.6624 283.939589 
L 75.0592 286.438884 
L 75.456 284.119395 
L 75.8528 286.133215 
L 76.2496 285.935429 
L 76.6464 286.366962 
L 77.0432 286.366962 
L 77.44 286.690612 
L 77.8368 285.593799 
L 78.2336 285.036402 
L 78.6304 286.079274 
L 79.0272 283.831706 
L 79.424 285.216208 
L 79.8208 284.389103 
L 80.2176 286.313021 
L 80.6144 284.425064 
L 81.0112 286.456865 
L 81.408 283.903628 
L 81.8048 285.144285 
L 82.2016 285.989371 
L 82.5984 285.252169 
L 82.9952 284.371122 
L 83.392 284.191317 
L 83.7888 284.874577 
L 84.1856 285.611779 
L 84.5824 286.582729 
L 84.9792 284.982461 
L 85.376 282.339321 
L 85.7728 286.151196 
L 86.1696 286.564748 
L 86.5664 284.514966 
L 86.9632 284.335161 
L 87.36 283.436134 
L 87.7568 287.445795 
L 88.1536 285.072363 
L 88.5504 284.371122 
L 88.9472 282.914698 
L 89.344 285.863507 
L 89.7408 286.798495 
L 90.1376 285.198227 
L 90.5344 285.054383 
L 90.9312 286.277059 
L 91.328 285.503896 
L 91.7248 283.795745 
L 92.1216 285.989371 
L 92.5184 286.474845 
L 92.9152 284.245258 
L 93.312 282.96864 
L 93.7088 286.402923 
L 94.1056 285.611779 
L 94.5024 284.209297 
L 94.8992 285.198227 
L 95.296 283.220368 
L 95.6928 286.061293 
L 96.0896 282.752874 
L 96.4864 284.784675 
L 96.8832 286.097254 
L 97.28 283.759784 
L 97.6768 284.496986 
L 98.0736 282.896718 
L 98.4704 284.838616 
L 98.8672 284.766694 
L 99.264 284.335161 
L 99.6608 283.867667 
L 100.0576 283.993531 
L 100.4544 284.119395 
L 100.8512 284.155356 
L 101.248 284.011511 
L 101.6448 283.166426 
L 102.0416 284.928519 
L 102.4384 283.615939 
L 102.8352 283.544017 
L 103.232 284.353142 
L 103.6288 284.838616 
L 104.0256 284.083434 
L 104.4224 284.479005 
L 104.8192 283.346231 
L 105.216 284.479005 
L 105.6128 284.856597 
L 106.0096 285.28813 
L 106.4064 285.557838 
L 106.8032 285.413994 
L 107.2 284.604869 
L 107.5968 283.687862 
L 107.9936 284.2992 
L 108.3904 283.382192 
L 108.7872 283.993531 
L 109.184 283.759784 
L 109.5808 285.467935 
L 109.9776 284.748714 
L 110.3744 285.737643 
L 110.7712 285.036402 
L 111.168 284.96448 
L 111.5648 284.982461 
L 111.9616 283.741803 
L 112.3584 284.263239 
L 112.7552 284.335161 
L 113.152 284.029492 
L 113.5488 286.043312 
L 113.9456 286.133215 
L 114.3424 284.407083 
L 114.7392 283.040562 
L 115.136 284.64083 
L 115.5328 284.604869 
L 115.9296 285.054383 
L 116.3264 285.485916 
L 116.7232 285.30611 
L 117.12 284.479005 
L 117.5168 285.917449 
L 117.9136 284.065453 
L 118.3104 285.252169 
L 118.7072 284.982461 
L 119.104 285.360052 
L 119.5008 287.140125 
L 119.8976 282.249418 
L 120.2944 285.018422 
L 120.6912 285.054383 
L 121.088 284.119395 
L 121.4848 283.076523 
L 121.8816 284.802655 
L 122.2784 286.151196 
L 122.6752 285.485916 
L 123.072 286.259079 
L 123.4688 285.30611 
L 123.8656 284.317181 
L 124.2624 286.762534 
L 124.6592 285.827546 
L 125.056 282.896718 
L 125.4528 286.456865 
L 125.8496 284.263239 
L 126.2464 286.816476 
L 126.6432 284.281219 
L 127.04 284.496986 
L 127.4368 285.989371 
L 127.8336 285.000441 
L 128.2304 286.63667 
L 128.6272 286.420904 
L 129.024 286.510806 
L 129.4208 285.180246 
L 129.8176 285.054383 
L 130.2144 284.748714 
L 130.6112 287.96723 
L 131.008 286.582729 
L 131.4048 285.449955 
L 131.8016 286.420904 
L 132.1984 287.373872 
L 132.5952 286.169176 
L 132.992 287.230028 
L 133.3888 286.277059 
L 133.7856 285.108324 
L 134.1824 286.205137 
L 134.5792 285.539857 
L 134.976 285.935429 
L 135.3728 286.169176 
L 135.7696 286.133215 
L 136.1664 286.420904 
L 136.5632 287.176086 
L 136.96 286.672631 
L 137.3568 286.187157 
L 137.7536 287.050223 
L 138.1504 285.809565 
L 138.5472 284.694772 
L 138.944 286.834456 
L 139.3408 284.802655 
L 139.7376 287.427814 
L 140.1344 286.420904 
L 140.5312 285.036402 
L 140.928 286.63667 
L 141.3248 285.719663 
L 141.7216 285.593799 
L 142.1184 285.62976 
L 142.5152 285.701682 
L 142.912 286.528787 
L 143.3088 286.726573 
L 143.7056 286.708592 
L 144.1024 283.741803 
L 144.4992 283.526037 
L 144.896 286.600709 
L 145.2928 287.337911 
L 145.6896 286.151196 
L 146.0864 286.61869 
L 146.4832 285.863507 
L 146.88 286.007351 
L 147.2768 285.108324 
L 147.6736 287.391853 
L 148.0704 286.708592 
L 148.4672 286.259079 
L 148.864 286.654651 
L 149.2608 286.29504 
L 149.6576 286.402923 
L 150.0544 286.654651 
L 150.4512 286.888398 
L 150.848 284.496986 
L 151.2448 284.766694 
L 151.6416 286.474845 
L 152.0384 285.647741 
L 152.4352 286.384943 
L 152.832 285.018422 
L 153.2288 283.759784 
L 153.6256 285.647741 
L 154.0224 286.061293 
L 154.4192 285.30611 
L 154.816 285.28813 
L 155.2128 286.187157 
L 155.6096 285.234188 
L 156.0064 285.863507 
L 156.4032 284.658811 
L 156.8 286.510806 
L 157.1968 287.733483 
L 157.5936 285.018422 
L 157.9904 286.942339 
L 158.3872 287.248009 
L 158.784 286.29504 
L 159.1808 287.94925 
L 159.5776 286.978301 
L 159.9744 286.079274 
L 160.3712 286.852437 
L 160.768 285.935429 
L 161.1648 285.162266 
L 161.5616 286.61869 
L 161.9584 286.259079 
L 162.3552 285.036402 
L 162.752 284.281219 
L 163.1488 286.762534 
L 163.5456 285.989371 
L 163.9424 283.526037 
L 164.3392 285.216208 
L 164.736 285.090344 
L 165.1328 285.809565 
L 165.5296 285.018422 
L 165.9264 287.715503 
L 166.3232 285.827546 
L 166.72 285.899468 
L 167.1168 286.205137 
L 167.5136 286.834456 
L 167.9104 286.133215 
L 168.3072 286.780515 
L 168.704 286.564748 
L 169.1008 287.140125 
L 169.4976 285.198227 
L 169.8944 285.701682 
L 170.2912 286.96032 
L 170.688 286.331001 
L 171.0848 286.708592 
L 171.4816 287.014262 
L 171.8784 286.870417 
L 172.2752 285.180246 
L 172.672 286.043312 
L 173.0688 286.115235 
L 173.4656 286.474845 
L 173.8624 286.762534 
L 174.2592 284.281219 
L 174.656 285.809565 
L 175.0528 285.791585 
L 175.4496 284.604869 
L 175.8464 285.755624 
L 176.2432 286.63667 
L 176.64 287.032242 
L 177.0368 285.413994 
L 177.4336 286.366962 
L 177.8304 285.611779 
L 178.2272 285.62976 
L 178.624 286.546768 
L 179.0208 286.546768 
L 179.4176 285.180246 
L 179.8144 285.701682 
L 180.2112 285.000441 
L 180.608 285.216208 
L 181.0048 286.780515 
L 181.4016 286.510806 
L 181.7984 287.805405 
L 182.1952 286.708592 
L 182.592 286.259079 
L 182.9888 286.277059 
L 183.3856 285.431974 
L 183.7824 286.259079 
L 184.1792 285.737643 
L 184.576 284.065453 
L 184.9728 285.360052 
L 185.3696 285.162266 
L 185.7664 286.474845 
L 186.1632 286.510806 
L 186.56 284.982461 
L 186.9568 286.29504 
L 187.3536 285.881488 
L 187.7504 286.888398 
L 188.1472 285.665721 
L 188.544 284.96448 
L 188.9408 286.96032 
L 189.3376 287.158106 
L 189.7344 287.032242 
L 190.1312 287.733483 
L 190.528 285.719663 
L 190.9248 286.672631 
L 191.3216 286.438884 
L 191.7184 287.571658 
L 192.1152 285.97139 
L 192.512 286.492826 
L 192.9088 286.996281 
L 193.3056 286.834456 
L 193.7024 286.510806 
L 194.0992 283.094504 
L 194.496 287.086184 
L 194.8928 286.888398 
L 195.2896 287.140125 
L 195.6864 287.014262 
L 196.0832 287.158106 
L 196.48 285.539857 
L 196.8768 285.989371 
L 197.2736 286.313021 
L 197.6704 285.557838 
L 198.0672 286.115235 
L 198.464 285.593799 
L 198.8608 286.241098 
L 199.2576 287.28397 
L 199.6544 286.115235 
L 200.0512 287.769444 
L 200.448 285.018422 
L 200.8448 287.28397 
L 201.2416 286.241098 
L 201.6384 286.600709 
L 202.0352 287.122145 
L 202.432 284.838616 
L 202.8288 285.30611 
L 203.2256 285.863507 
L 203.6224 287.391853 
L 204.0192 287.30195 
L 204.416 286.582729 
L 204.8128 287.661561 
L 205.2096 287.068203 
L 205.6064 287.391853 
L 206.0032 284.766694 
L 206.4 286.402923 
L 206.7968 286.798495 
L 207.1936 285.467935 
L 207.5904 287.050223 
L 207.9872 287.050223 
L 208.384 284.820636 
L 208.7808 287.050223 
L 209.1776 287.068203 
L 209.5744 286.906378 
L 209.9712 286.564748 
L 210.368 283.687862 
L 210.7648 286.996281 
L 211.1616 287.104164 
L 211.5584 287.28397 
L 211.9552 286.852437 
L 212.352 287.28397 
L 212.7488 286.366962 
L 213.1456 287.194067 
L 213.5424 285.575818 
L 213.9392 286.061293 
L 214.336 287.373872 
L 214.7328 287.265989 
L 215.1296 287.265989 
L 215.5264 285.036402 
L 215.9232 286.852437 
L 216.32 285.449955 
L 216.7168 285.755624 
L 217.1136 286.888398 
L 217.5104 287.122145 
L 217.9072 286.366962 
L 218.304 286.007351 
L 218.7008 286.438884 
L 219.0976 286.438884 
L 219.4944 286.870417 
L 219.8912 283.795745 
L 220.288 286.96032 
L 220.6848 286.852437 
L 221.0816 286.546768 
L 221.4784 286.690612 
L 221.8752 286.690612 
L 222.272 286.133215 
L 222.6688 287.086184 
L 223.0656 286.007351 
L 223.4624 285.036402 
L 223.8592 284.96448 
L 224.256 287.30195 
L 224.6528 286.277059 
L 225.0496 285.97139 
L 225.4464 285.647741 
L 225.8432 286.133215 
L 226.24 287.355892 
L 226.6368 286.29504 
L 227.0336 287.104164 
L 227.4304 285.647741 
L 227.8272 285.144285 
L 228.224 286.654651 
L 228.6208 285.665721 
L 229.0176 286.852437 
L 229.4144 286.726573 
L 229.8112 286.277059 
L 230.208 286.61869 
L 230.6048 286.852437 
L 231.0016 286.331001 
L 231.3984 287.050223 
L 231.7952 287.715503 
L 232.192 285.917449 
L 232.5888 287.104164 
L 232.9856 286.942339 
L 233.3824 287.068203 
L 233.7792 287.086184 
L 234.176 286.780515 
L 234.5728 286.115235 
L 234.9696 285.935429 
L 235.3664 286.187157 
L 235.7632 286.834456 
L 236.16 286.384943 
L 236.5568 285.97139 
L 236.9536 286.384943 
L 237.3504 287.068203 
L 237.7472 285.108324 
L 238.144 286.187157 
L 238.5408 286.241098 
L 238.9376 286.420904 
L 239.3344 287.373872 
L 239.7312 286.438884 
L 240.128 287.481756 
L 240.5248 286.348982 
L 240.9216 286.528787 
L 241.3184 284.96448 
L 241.7152 286.366962 
L 242.112 286.798495 
L 242.5088 286.528787 
L 242.9056 285.899468 
L 243.3024 285.647741 
L 243.6992 285.611779 
L 244.096 285.503896 
L 244.4928 287.787425 
L 244.8896 285.863507 
L 245.2864 285.935429 
L 245.6832 287.212048 
L 246.08 286.29504 
L 246.4768 286.708592 
L 246.8736 287.553678 
L 247.2704 287.104164 
L 247.6672 287.373872 
L 248.064 286.888398 
L 248.4608 286.780515 
L 248.8576 286.366962 
L 249.2544 286.492826 
L 249.6512 288.057133 
L 250.048 287.391853 
L 250.4448 287.589639 
L 250.8416 287.355892 
L 251.2384 286.205137 
L 251.6352 286.870417 
L 252.032 286.564748 
L 252.4288 286.151196 
L 252.8256 287.014262 
L 253.2224 286.654651 
L 253.6192 285.827546 
L 254.016 286.61869 
L 254.4128 287.122145 
L 254.8096 286.223118 
L 255.2064 285.791585 
L 255.6032 286.205137 
L 256 285.845526 
L 256.3968 286.348982 
L 256.7936 286.151196 
L 257.1904 287.230028 
L 257.5872 286.29504 
L 257.984 286.798495 
L 258.3808 286.241098 
L 258.7776 285.198227 
L 259.1744 287.28397 
L 259.5712 287.032242 
L 259.968 287.355892 
L 260.3648 286.942339 
L 260.7616 286.942339 
L 261.1584 287.661561 
L 261.5552 286.780515 
L 261.952 286.474845 
L 262.3488 286.726573 
L 262.7456 286.852437 
L 263.1424 285.054383 
L 263.5392 287.409834 
L 263.936 287.769444 
L 264.3328 286.996281 
L 264.7296 286.708592 
L 265.1264 287.158106 
L 265.5232 286.816476 
L 265.92 286.96032 
L 266.3168 285.30611 
L 266.7136 286.942339 
L 267.1104 286.241098 
L 267.5072 286.133215 
L 267.904 284.335161 
L 268.3008 286.870417 
L 268.6976 287.355892 
L 269.0944 286.690612 
L 269.4912 285.791585 
L 269.888 286.29504 
L 270.2848 286.187157 
L 270.6816 286.834456 
L 271.0784 287.194067 
L 271.4752 286.816476 
L 271.872 286.169176 
L 272.2688 285.28813 
L 272.6656 286.582729 
L 273.0624 286.313021 
L 273.4592 287.230028 
L 273.856 285.719663 
L 274.2528 285.881488 
L 274.6496 286.996281 
L 275.0464 287.104164 
L 275.4432 284.874577 
L 275.84 286.420904 
L 276.2368 287.355892 
L 276.6336 286.313021 
L 277.0304 285.413994 
L 277.4272 286.978301 
L 277.824 287.158106 
L 278.2208 288.003191 
L 278.6176 286.133215 
L 279.0144 286.672631 
L 279.4112 287.140125 
L 279.808 286.834456 
L 280.2048 287.697522 
L 280.6016 286.61869 
L 280.9984 285.899468 
L 281.3952 287.248009 
L 281.792 286.924359 
L 282.1888 284.96448 
L 282.5856 287.841366 
L 282.9824 285.809565 
L 283.3792 286.672631 
L 283.776 287.050223 
L 284.1728 286.744554 
L 284.5696 287.535697 
L 284.9664 286.259079 
L 285.3632 286.348982 
L 285.76 286.672631 
L 286.1568 286.313021 
L 286.5536 285.503896 
L 286.9504 286.870417 
L 287.3472 287.050223 
L 287.744 285.827546 
L 288.1408 286.456865 
L 288.5376 285.665721 
L 288.9344 286.456865 
L 289.3312 286.528787 
L 289.728 285.539857 
L 290.1248 285.881488 
L 290.5216 287.481756 
L 290.9184 286.492826 
L 291.3152 286.708592 
L 291.712 285.503896 
L 292.1088 284.694772 
L 292.5056 285.701682 
L 292.9024 285.899468 
L 293.2992 285.773604 
L 293.696 286.906378 
L 294.0928 286.690612 
L 294.4896 287.265989 
L 294.8864 287.176086 
L 295.2832 285.539857 
L 295.68 287.733483 
L 296.0768 286.366962 
L 296.4736 286.726573 
L 296.8704 286.690612 
L 297.2672 285.863507 
L 297.664 287.068203 
L 298.0608 286.798495 
L 298.4576 287.230028 
L 298.8544 286.708592 
L 299.2512 286.510806 
L 299.648 285.935429 
L 300.0448 286.978301 
L 300.4416 286.528787 
L 300.8384 287.014262 
L 301.2352 286.654651 
L 301.632 285.863507 
L 302.0288 286.762534 
L 302.4256 286.29504 
L 302.8224 286.834456 
L 303.2192 285.881488 
L 303.616 285.018422 
L 304.0128 285.324091 
L 304.4096 286.870417 
L 304.8064 284.748714 
L 305.2032 286.438884 
L 305.6 286.762534 
L 305.9968 286.331001 
L 306.3936 285.791585 
L 306.7904 286.546768 
L 307.1872 286.277059 
L 307.584 286.007351 
L 307.9808 287.355892 
L 308.3776 285.30611 
L 308.7744 286.582729 
L 309.1712 286.474845 
L 309.568 286.726573 
L 309.9648 286.996281 
L 310.3616 286.007351 
L 310.7584 285.62976 
L 311.1552 286.690612 
L 311.552 286.492826 
L 311.9488 285.378032 
L 312.3456 286.798495 
L 312.7424 286.582729 
L 313.1392 287.589639 
L 313.536 287.769444 
L 313.9328 286.744554 
L 314.3296 286.582729 
L 314.7264 286.744554 
L 315.1232 286.277059 
L 315.52 286.259079 
L 315.9168 284.96448 
L 316.3136 286.870417 
L 316.7104 286.924359 
L 317.1072 287.553678 
L 317.504 286.187157 
L 317.9008 285.449955 
L 318.2976 287.158106 
L 318.6944 287.086184 
L 319.0912 287.517717 
L 319.488 285.773604 
L 319.8848 286.924359 
L 320.2816 286.600709 
L 320.6784 286.924359 
L 321.0752 287.265989 
L 321.472 287.445795 
L 321.8688 287.265989 
L 322.2656 287.463775 
L 322.6624 285.881488 
L 323.0592 286.996281 
L 323.456 285.270149 
L 323.8528 287.248009 
L 324.2496 286.061293 
L 324.6464 285.683702 
L 325.0432 287.265989 
L 325.44 287.176086 
L 325.8368 287.014262 
L 326.2336 286.564748 
L 326.6304 285.557838 
L 327.0272 287.553678 
L 327.424 287.104164 
L 327.8208 286.510806 
L 328.2176 286.600709 
L 328.6144 286.474845 
L 329.0112 286.366962 
L 329.408 286.151196 
L 329.8048 287.373872 
L 330.2016 287.679542 
L 330.5984 286.708592 
L 330.9952 287.715503 
L 331.392 285.521877 
L 331.7888 286.169176 
L 332.1856 287.248009 
L 332.5824 286.978301 
L 332.9792 285.30611 
L 333.376 285.683702 
L 333.7728 285.917449 
L 334.1696 287.158106 
L 334.5664 286.528787 
L 334.9632 287.014262 
L 335.36 286.402923 
L 335.7568 286.996281 
L 336.1536 286.96032 
L 336.5504 286.978301 
L 336.9472 286.942339 
L 337.344 285.827546 
L 337.7408 286.978301 
L 338.1376 286.726573 
L 338.5344 286.672631 
L 338.9312 287.230028 
L 339.328 286.313021 
L 339.7248 287.355892 
L 340.1216 286.870417 
L 340.5184 286.63667 
L 340.9152 286.924359 
L 341.312 287.337911 
L 341.7088 286.366962 
L 342.1056 286.852437 
L 342.5024 285.144285 
L 342.8992 287.607619 
L 343.296 284.784675 
L 343.6928 286.187157 
L 344.0896 286.169176 
L 344.4864 286.690612 
L 344.8832 286.870417 
L 345.28 284.371122 
L 345.6768 286.798495 
L 346.0736 286.510806 
L 346.4704 286.223118 
L 346.8672 285.575818 
L 347.264 287.158106 
L 347.6608 287.158106 
L 348.0576 285.863507 
L 348.4544 287.230028 
L 348.8512 287.445795 
L 349.248 286.798495 
L 349.6448 286.942339 
L 350.0416 287.661561 
L 350.4384 286.366962 
L 350.8352 287.373872 
L 351.232 287.158106 
L 351.6288 285.791585 
L 352.0256 286.438884 
L 352.4224 287.445795 
L 352.8192 285.719663 
L 353.216 286.366962 
L 353.6128 286.366962 
L 354.0096 285.719663 
L 354.4064 286.223118 
L 354.8032 286.798495 
L 355.2 286.007351 
L 355.5968 286.582729 
L 355.9936 286.007351 
L 356.3904 287.158106 
L 356.7872 286.942339 
L 357.184 285.935429 
L 357.5808 286.654651 
L 357.9776 286.582729 
L 358.3744 286.798495 
L 358.7712 287.733483 
L 359.168 287.086184 
L 359.5648 286.870417 
L 359.9616 286.510806 
L 360.3584 287.230028 
L 360.7552 286.223118 
L 361.152 285.719663 
L 361.5488 286.582729 
L 361.9456 286.798495 
L 362.3424 286.223118 
L 362.7392 287.086184 
L 363.136 287.230028 
L 363.5328 286.151196 
L 363.9296 286.29504 
L 364.3264 286.726573 
L 364.7232 285.503896 
L 365.12 285.935429 
L 365.5168 285.360052 
L 365.9136 286.151196 
L 366.3104 286.223118 
L 366.7072 287.517717 
L 367.104 286.870417 
L 367.5008 286.438884 
L 367.8976 286.438884 
L 368.2944 286.798495 
L 368.6912 286.942339 
L 369.088 287.158106 
L 369.4848 286.151196 
L 369.8816 286.151196 
L 370.2784 286.654651 
L 370.6752 285.935429 
L 371.072 287.230028 
L 371.4688 286.798495 
L 371.8656 286.870417 
L 372.2624 287.373872 
L 372.6592 286.798495 
L 373.056 287.94925 
L 373.4528 285.719663 
L 373.8496 286.870417 
L 374.2464 288.236938 
L 374.6432 285.072363 
L 375.04 286.366962 
L 375.4368 286.151196 
L 375.8336 287.445795 
L 376.2304 285.575818 
L 376.6272 287.014262 
L 377.024 286.654651 
L 377.4208 286.942339 
L 377.8176 286.366962 
L 378.2144 286.582729 
L 378.6112 286.438884 
L 379.008 286.870417 
L 379.4048 286.870417 
L 379.8016 286.438884 
L 380.1984 285.431974 
L 380.5952 286.582729 
L 380.992 285.360052 
L 381.3888 285.575818 
L 381.7856 286.510806 
L 382.1824 286.510806 
L 382.5792 286.366962 
L 382.976 286.438884 
L 383.3728 286.223118 
L 383.7696 286.366962 
L 384.1664 287.014262 
L 384.5632 285.503896 
L 384.96 286.798495 
L 385.3568 287.589639 
L 385.7536 287.733483 
L 386.1504 287.230028 
L 386.5472 287.30195 
L 386.944 288.093094 
L 387.3408 287.014262 
L 387.7376 286.942339 
L 388.1344 287.30195 
L 388.5312 286.29504 
L 388.928 285.719663 
L 389.3248 286.223118 
L 389.7216 286.942339 
L 390.1184 286.870417 
L 390.5152 287.373872 
L 390.912 287.445795 
L 391.3088 286.223118 
L 391.7056 287.445795 
L 392.1024 285.647741 
L 392.4992 286.438884 
L 392.896 286.870417 
L 393.2928 287.373872 
L 393.6896 286.223118 
L 394.0864 286.366962 
L 394.4832 286.223118 
L 394.88 287.086184 
L 395.2768 287.30195 
L 395.6736 286.223118 
L 396.0704 286.29504 
L 396.4672 287.589639 
L 396.864 286.510806 
L 397.2608 287.517717 
L 397.6576 286.223118 
L 398.0544 287.158106 
L 398.4512 287.086184 
L 398.848 286.223118 
L 399.2448 285.647741 
L 399.6416 287.086184 
L 400.0384 287.445795 
L 400.4352 286.582729 
L 400.832 286.870417 
L 401.2288 287.589639 
L 401.6256 287.445795 
L 402.0224 287.014262 
L 402.4192 285.791585 
L 402.816 287.517717 
L 403.2128 287.014262 
L 403.6096 285.719663 
L 404.0064 287.230028 
L 404.4032 287.30195 
L 404.8 286.29504 
L 405.1968 285.935429 
L 405.5936 286.151196 
L 405.9904 287.158106 
L 406.3872 287.30195 
L 406.784 287.445795 
L 407.1808 285.216208 
L 407.5776 287.158106 
L 407.9744 286.223118 
L 408.3712 285.647741 
L 408.768 285.575818 
L 409.1648 286.870417 
L 409.5616 285.719663 
L 409.9584 286.366962 
L 410.3552 286.223118 
L 410.752 287.733483 
L 411.1488 287.014262 
L 411.5456 286.726573 
L 411.9424 287.589639 
L 412.3392 287.086184 
L 412.736 287.30195 
L 413.1328 287.086184 
L 413.5296 286.007351 
L 413.9264 285.935429 
L 414.3232 287.158106 
L 414.72 287.158106 
L 415.1168 287.158106 
L 415.5136 287.230028 
L 415.9104 287.014262 
L 416.3072 286.654651 
L 416.704 287.30195 
L 417.1008 287.661561 
L 417.4976 286.798495 
L 417.8944 287.733483 
L 418.2912 286.366962 
L 418.688 286.510806 
L 419.0848 287.014262 
L 419.4816 286.726573 
L 419.8784 287.014262 
L 420.2752 286.942339 
L 420.672 286.007351 
L 421.0688 286.223118 
L 421.4656 287.877328 
L 421.8624 286.654651 
L 422.2592 286.29504 
L 422.656 285.503896 
L 423.0528 286.870417 
L 423.4496 286.654651 
L 423.8464 287.086184 
L 424.2432 285.791585 
L 424.64 286.798495 
L 425.0368 286.438884 
L 425.4336 286.223118 
L 425.4336 284.928519 
L 425.4336 284.928519 
L 425.0368 283.346231 
L 424.64 284.137375 
L 424.2432 285.216208 
L 423.8464 284.712752 
L 423.4496 284.784675 
L 423.0528 285.431974 
L 422.656 283.777764 
L 422.2592 283.777764 
L 421.8624 284.928519 
L 421.4656 285.216208 
L 421.0688 284.137375 
L 420.672 282.914698 
L 420.2752 285.719663 
L 419.8784 285.431974 
L 419.4816 283.346231 
L 419.0848 283.777764 
L 418.688 286.007351 
L 418.2912 282.914698 
L 417.8944 285.000441 
L 417.4976 285.431974 
L 417.1008 283.849686 
L 416.704 283.777764 
L 416.3072 285.863507 
L 415.9104 285.216208 
L 415.5136 284.496986 
L 415.1168 285.431974 
L 414.72 284.64083 
L 414.3232 285.360052 
L 413.9264 284.281219 
L 413.5296 283.561998 
L 413.1328 283.346231 
L 412.736 284.496986 
L 412.3392 286.366962 
L 411.9424 285.575818 
L 411.5456 282.986621 
L 411.1488 285.144285 
L 410.752 284.137375 
L 410.3552 282.555088 
L 409.9584 284.065453 
L 409.5616 284.065453 
L 409.1648 284.856597 
L 408.768 283.777764 
L 408.3712 282.62701 
L 407.9744 285.072363 
L 407.5776 282.483165 
L 407.1808 282.698932 
L 406.784 285.647741 
L 406.3872 283.274309 
L 405.9904 284.353142 
L 405.5936 283.849686 
L 405.1968 283.490076 
L 404.8 283.490076 
L 404.4032 284.496986 
L 404.0064 284.496986 
L 403.6096 283.849686 
L 403.2128 283.777764 
L 402.816 283.921609 
L 402.4192 282.483165 
L 402.0224 283.202387 
L 401.6256 284.856597 
L 401.2288 284.64083 
L 400.832 283.777764 
L 400.4352 286.151196 
L 400.0384 284.281219 
L 399.6416 286.079274 
L 399.2448 284.065453 
L 398.848 284.856597 
L 398.4512 284.209297 
L 398.0544 285.503896 
L 397.6576 285.144285 
L 397.2608 286.007351 
L 396.864 283.705842 
L 396.4672 284.856597 
L 396.0704 283.705842 
L 395.6736 285.719663 
L 395.2768 283.346231 
L 394.88 285.28813 
L 394.4832 283.777764 
L 394.0864 284.784675 
L 393.6896 284.209297 
L 393.2928 284.281219 
L 392.896 285.28813 
L 392.4992 283.490076 
L 392.1024 283.921609 
L 391.7056 284.64083 
L 391.3088 283.346231 
L 390.912 285.28813 
L 390.5152 284.065453 
L 390.1184 282.986621 
L 389.7216 284.64083 
L 389.3248 284.209297 
L 388.928 283.993531 
L 388.5312 283.921609 
L 388.1344 284.353142 
L 387.7376 285.791585 
L 387.3408 283.777764 
L 386.944 282.842776 
L 386.5472 284.784675 
L 386.1504 286.798495 
L 385.7536 282.842776 
L 385.3568 285.575818 
L 384.96 284.712752 
L 384.5632 283.849686 
L 384.1664 284.928519 
L 383.7696 283.274309 
L 383.3728 284.496986 
L 382.976 283.418154 
L 382.5792 284.209297 
L 382.1824 285.431974 
L 381.7856 284.784675 
L 381.3888 283.705842 
L 380.992 284.353142 
L 380.5952 283.993531 
L 380.1984 284.065453 
L 379.8016 283.274309 
L 379.4048 284.928519 
L 379.008 284.856597 
L 378.6112 284.209297 
L 378.2144 284.928519 
L 377.8176 283.418154 
L 377.4208 284.928519 
L 377.024 284.425064 
L 376.6272 284.281219 
L 376.2304 284.281219 
L 375.8336 285.144285 
L 375.4368 283.777764 
L 375.04 282.195477 
L 374.6432 284.209297 
L 374.2464 283.849686 
L 373.8496 286.007351 
L 373.4528 282.698932 
L 373.056 283.63392 
L 372.6592 284.856597 
L 372.2624 285.647741 
L 371.8656 282.411243 
L 371.4688 284.209297 
L 371.072 285.503896 
L 370.6752 283.561998 
L 370.2784 284.137375 
L 369.8816 283.490076 
L 369.4848 283.921609 
L 369.088 285.072363 
L 368.6912 284.065453 
L 368.2944 282.770854 
L 367.8976 283.561998 
L 367.5008 283.993531 
L 367.104 283.490076 
L 366.7072 285.000441 
L 366.3104 283.346231 
L 365.9136 283.993531 
L 365.5168 284.856597 
L 365.12 282.698932 
L 364.7232 282.339321 
L 364.3264 284.065453 
L 363.9296 282.914698 
L 363.5328 284.64083 
L 363.136 284.784675 
L 362.7392 282.770854 
L 362.3424 283.993531 
L 361.9456 284.496986 
L 361.5488 283.274309 
L 361.152 282.339321 
L 360.7552 284.425064 
L 360.3584 284.568908 
L 359.9616 283.058543 
L 359.5648 285.360052 
L 359.168 285.216208 
L 358.7712 284.928519 
L 358.3744 285.431974 
L 357.9776 283.490076 
L 357.5808 284.712752 
L 357.184 282.62701 
L 356.7872 283.777764 
L 356.3904 283.561998 
L 355.9936 284.065453 
L 355.5968 283.418154 
L 355.2 283.849686 
L 354.8032 285.863507 
L 354.4064 284.712752 
L 354.0096 282.555088 
L 353.6128 283.849686 
L 353.216 281.404333 
L 352.8192 282.986621 
L 352.4224 284.712752 
L 352.0256 285.719663 
L 351.6288 284.928519 
L 351.232 284.209297 
L 350.8352 282.339321 
L 350.4384 283.849686 
L 350.0416 285.431974 
L 349.6448 285.575818 
L 349.248 285.072363 
L 348.8512 284.281219 
L 348.4544 283.130465 
L 348.0576 283.63392 
L 347.6608 282.051632 
L 347.264 283.849686 
L 346.8672 282.123555 
L 346.4704 284.425064 
L 346.0736 284.137375 
L 345.6768 285.144285 
L 345.28 283.184406 
L 344.8832 283.274309 
L 344.4864 285.467935 
L 344.0896 282.788835 
L 343.6928 284.479005 
L 343.296 284.137375 
L 342.8992 285.431974 
L 342.5024 283.813725 
L 342.1056 285.28813 
L 341.7088 284.353142 
L 341.312 281.242508 
L 340.9152 285.62976 
L 340.5184 285.647741 
L 340.1216 285.126305 
L 339.7248 283.418154 
L 339.328 284.227278 
L 338.9312 285.845526 
L 338.5344 284.173336 
L 338.1376 284.083434 
L 337.7408 283.97555 
L 337.344 282.770854 
L 336.9472 284.173336 
L 336.5504 283.597959 
L 336.1536 283.97555 
L 335.7568 285.791585 
L 335.36 282.393263 
L 334.9632 285.665721 
L 334.5664 285.180246 
L 334.1696 283.022582 
L 333.7728 282.950659 
L 333.376 283.346231 
L 332.9792 283.220368 
L 332.5824 284.137375 
L 332.1856 285.108324 
L 331.7888 282.249418 
L 331.392 282.177496 
L 330.9952 284.604869 
L 330.5984 284.155356 
L 330.2016 285.360052 
L 329.8048 283.777764 
L 329.408 283.004601 
L 329.0112 284.532947 
L 328.6144 285.449955 
L 328.2176 284.874577 
L 327.8208 285.180246 
L 327.424 283.382192 
L 327.0272 284.604869 
L 326.6304 281.63808 
L 326.2336 284.604869 
L 325.8368 282.375282 
L 325.44 283.472095 
L 325.0432 284.982461 
L 324.6464 283.364212 
L 324.2496 282.770854 
L 323.8528 285.054383 
L 323.456 282.824796 
L 323.0592 284.514966 
L 322.6624 282.680951 
L 322.2656 284.62285 
L 321.8688 284.748714 
L 321.472 282.734893 
L 321.0752 285.162266 
L 320.6784 284.407083 
L 320.2816 283.166426 
L 319.8848 283.759784 
L 319.488 282.393263 
L 319.0912 285.539857 
L 318.6944 284.784675 
L 318.2976 283.705842 
L 317.9008 283.436134 
L 317.504 284.856597 
L 317.1072 284.712752 
L 316.7104 284.874577 
L 316.3136 284.586889 
L 315.9168 282.878737 
L 315.52 284.137375 
L 315.1232 283.364212 
L 314.7264 282.680951 
L 314.3296 285.467935 
L 313.9328 285.30611 
L 313.536 284.766694 
L 313.1392 283.615939 
L 312.7424 285.036402 
L 312.3456 283.382192 
L 311.9488 281.871827 
L 311.552 282.716912 
L 311.1552 284.784675 
L 310.7584 284.119395 
L 310.3616 282.519126 
L 309.9648 283.939589 
L 309.568 285.95341 
L 309.1712 284.550928 
L 308.7744 284.263239 
L 308.3776 282.932679 
L 307.9808 283.579978 
L 307.584 283.418154 
L 307.1872 283.364212 
L 306.7904 283.759784 
L 306.3936 282.555088 
L 305.9968 283.490076 
L 305.6 283.256329 
L 305.2032 284.62285 
L 304.8064 282.824796 
L 304.4096 285.28813 
L 304.0128 282.932679 
L 303.616 283.418154 
L 303.2192 284.425064 
L 302.8224 283.885648 
L 302.4256 284.874577 
L 302.0288 283.849686 
L 301.632 283.921609 
L 301.2352 284.245258 
L 300.8384 284.712752 
L 300.4416 282.105574 
L 300.0448 283.723823 
L 299.648 284.083434 
L 299.2512 284.496986 
L 298.8544 284.425064 
L 298.4576 284.029492 
L 298.0608 283.669881 
L 297.664 285.198227 
L 297.2672 282.411243 
L 296.8704 283.705842 
L 296.4736 283.436134 
L 296.0768 283.220368 
L 295.68 284.96448 
L 295.2832 282.752874 
L 294.8864 285.216208 
L 294.4896 284.2992 
L 294.0928 283.364212 
L 293.696 284.335161 
L 293.2992 283.597959 
L 292.9024 283.97555 
L 292.5056 283.723823 
L 292.1088 282.123555 
L 291.712 284.479005 
L 291.3152 284.443044 
L 290.9184 282.105574 
L 290.5216 284.2992 
L 290.1248 283.094504 
L 289.728 281.871827 
L 289.3312 283.705842 
L 288.9344 283.022582 
L 288.5376 283.364212 
L 288.1408 284.101414 
L 287.744 284.604869 
L 287.3472 284.443044 
L 286.9504 283.795745 
L 286.5536 282.555088 
L 286.1568 284.856597 
L 285.76 284.155356 
L 285.3632 284.802655 
L 284.9664 281.476255 
L 284.5696 283.867667 
L 284.1728 284.281219 
L 283.776 284.281219 
L 283.3792 285.108324 
L 282.9824 284.802655 
L 282.5856 285.503896 
L 282.1888 282.716912 
L 281.792 285.935429 
L 281.3952 284.083434 
L 280.9984 284.065453 
L 280.6016 285.090344 
L 280.2048 284.479005 
L 279.808 285.539857 
L 279.4112 284.856597 
L 279.0144 282.986621 
L 278.6176 284.047472 
L 278.2208 284.946499 
L 277.824 283.112484 
L 277.4272 283.346231 
L 277.0304 283.130465 
L 276.6336 284.514966 
L 276.2368 282.680951 
L 275.84 284.658811 
L 275.4432 282.842776 
L 275.0464 284.317181 
L 274.6496 285.30611 
L 274.2528 282.752874 
L 273.856 283.274309 
L 273.4592 284.2992 
L 273.0624 285.144285 
L 272.6656 282.501146 
L 272.2688 283.508056 
L 271.872 283.723823 
L 271.4752 285.539857 
L 271.0784 284.119395 
L 270.6816 284.227278 
L 270.2848 285.180246 
L 269.888 282.465185 
L 269.4912 284.119395 
L 269.0944 285.324091 
L 268.6976 285.701682 
L 268.3008 283.97555 
L 267.904 282.411243 
L 267.5072 283.687862 
L 267.1104 284.209297 
L 266.7136 283.328251 
L 266.3168 283.31027 
L 265.92 284.281219 
L 265.5232 284.011511 
L 265.1264 283.921609 
L 264.7296 284.101414 
L 264.3328 285.252169 
L 263.936 284.820636 
L 263.5392 285.521877 
L 263.1424 282.932679 
L 262.7456 284.820636 
L 262.3488 284.910538 
L 261.952 284.676791 
L 261.5552 285.30611 
L 261.1584 284.371122 
L 260.7616 286.115235 
L 260.3648 283.579978 
L 259.968 283.777764 
L 259.5712 283.220368 
L 259.1744 284.532947 
L 258.7776 281.96173 
L 258.3808 284.281219 
L 257.984 284.946499 
L 257.5872 282.177496 
L 257.1904 283.526037 
L 256.7936 284.083434 
L 256.3968 284.317181 
L 256 283.651901 
L 255.6032 282.662971 
L 255.2064 283.202387 
L 254.8096 282.609029 
L 254.4128 285.737643 
L 254.016 283.436134 
L 253.6192 284.730733 
L 253.2224 284.730733 
L 252.8256 282.195477 
L 252.4288 283.004601 
L 252.032 284.155356 
L 251.6352 283.508056 
L 251.2384 284.407083 
L 250.8416 284.910538 
L 250.4448 284.425064 
L 250.048 285.216208 
L 249.6512 284.514966 
L 249.2544 283.022582 
L 248.8576 283.274309 
L 248.4608 284.532947 
L 248.064 285.62976 
L 247.6672 284.856597 
L 247.2704 283.346231 
L 246.8736 285.180246 
L 246.4768 283.058543 
L 246.08 282.177496 
L 245.6832 285.054383 
L 245.2864 283.939589 
L 244.8896 281.656061 
L 244.4928 284.64083 
L 244.096 283.490076 
L 243.6992 280.469345 
L 243.3024 282.950659 
L 242.9056 283.148445 
L 242.5088 284.856597 
L 242.112 283.238348 
L 241.7152 284.568908 
L 241.3184 282.375282 
L 240.9216 285.018422 
L 240.5248 283.723823 
L 240.128 283.885648 
L 239.7312 284.155356 
L 239.3344 283.921609 
L 238.9376 281.494236 
L 238.5408 281.350391 
L 238.144 282.824796 
L 237.7472 282.285379 
L 237.3504 284.550928 
L 236.9536 284.532947 
L 236.5568 283.490076 
L 236.16 283.31027 
L 235.7632 286.133215 
L 235.3664 283.831706 
L 234.9696 283.741803 
L 234.5728 284.62285 
L 234.176 283.400173 
L 233.7792 282.752874 
L 233.3824 285.162266 
L 232.9856 281.97971 
L 232.5888 284.838616 
L 232.192 284.2992 
L 231.7952 285.881488 
L 231.3984 284.371122 
L 231.0016 282.555088 
L 230.6048 284.245258 
L 230.208 283.346231 
L 229.8112 282.806815 
L 229.4144 283.687862 
L 229.0176 283.526037 
L 228.6208 282.96864 
L 228.224 283.723823 
L 227.8272 282.393263 
L 227.4304 284.586889 
L 227.0336 284.532947 
L 226.6368 281.044722 
L 226.24 284.209297 
L 225.8432 283.651901 
L 225.4464 282.950659 
L 225.0496 282.752874 
L 224.6528 282.339321 
L 224.256 285.216208 
L 223.8592 282.914698 
L 223.4624 282.375282 
L 223.0656 282.770854 
L 222.6688 285.018422 
L 222.272 283.184406 
L 221.8752 283.777764 
L 221.4784 281.907788 
L 221.0816 283.436134 
L 220.6848 282.932679 
L 220.288 283.058543 
L 219.8912 281.853846 
L 219.4944 284.96448 
L 219.0976 283.490076 
L 218.7008 281.566158 
L 218.304 282.878737 
L 217.9072 283.813725 
L 217.5104 284.245258 
L 217.1136 284.64083 
L 216.7168 281.817885 
L 216.32 283.022582 
L 215.9232 282.950659 
L 215.5264 281.943749 
L 215.1296 284.389103 
L 214.7328 283.076523 
L 214.336 282.429224 
L 213.9392 283.813725 
L 213.5424 281.763944 
L 213.1456 283.831706 
L 212.7488 283.813725 
L 212.352 285.28813 
L 211.9552 284.281219 
L 211.5584 282.573068 
L 211.1616 282.501146 
L 210.7648 283.490076 
L 210.368 281.781924 
L 209.9712 284.658811 
L 209.5744 284.62285 
L 209.1776 283.202387 
L 208.7808 281.817885 
L 208.384 282.285379 
L 207.9872 282.357302 
L 207.5904 282.537107 
L 207.1936 282.914698 
L 206.7968 283.076523 
L 206.4 282.177496 
L 206.0032 282.662971 
L 205.6064 285.162266 
L 205.2096 285.28813 
L 204.8128 283.849686 
L 204.416 284.317181 
L 204.0192 286.277059 
L 203.6224 286.277059 
L 203.2256 284.119395 
L 202.8288 282.087594 
L 202.432 282.788835 
L 202.0352 281.260489 
L 201.6384 283.741803 
L 201.2416 281.853846 
L 200.8448 281.871827 
L 200.448 282.087594 
L 200.0512 285.593799 
L 199.6544 284.011511 
L 199.2576 285.054383 
L 198.8608 284.335161 
L 198.464 282.321341 
L 198.0672 283.651901 
L 197.6704 282.321341 
L 197.2736 284.586889 
L 196.8768 281.098664 
L 196.48 282.860757 
L 196.0832 285.467935 
L 195.6864 280.954819 
L 195.2896 283.651901 
L 194.8928 280.613189 
L 194.496 280.864917 
L 194.0992 281.098664 
L 193.7024 283.328251 
L 193.3056 283.813725 
L 192.9088 285.413994 
L 192.512 282.213457 
L 192.1152 281.008761 
L 191.7184 283.148445 
L 191.3216 283.849686 
L 190.9248 285.881488 
L 190.528 279.911948 
L 190.1312 284.982461 
L 189.7344 283.741803 
L 189.3376 286.043312 
L 188.9408 281.530197 
L 188.544 283.220368 
L 188.1472 283.346231 
L 187.7504 283.651901 
L 187.3536 283.166426 
L 186.9568 284.083434 
L 186.56 282.375282 
L 186.1632 281.31443 
L 185.7664 283.238348 
L 185.3696 281.242508 
L 184.9728 281.835866 
L 184.576 281.008761 
L 184.1792 281.835866 
L 183.7824 282.680951 
L 183.3856 280.721072 
L 182.9888 283.202387 
L 182.592 281.368372 
L 182.1952 282.716912 
L 181.7984 284.119395 
L 181.4016 284.658811 
L 181.0048 284.371122 
L 180.608 284.532947 
L 180.2112 281.512216 
L 179.8144 282.249418 
L 179.4176 282.249418 
L 179.0208 283.058543 
L 178.624 283.759784 
L 178.2272 279.372532 
L 177.8304 281.224528 
L 177.4336 281.152605 
L 177.0368 282.069613 
L 176.64 285.234188 
L 176.2432 284.083434 
L 175.8464 281.835866 
L 175.4496 280.9728 
L 175.0528 281.152605 
L 174.656 281.530197 
L 174.2592 280.685111 
L 173.8624 281.692022 
L 173.4656 281.476255 
L 173.0688 279.786084 
L 172.672 284.604869 
L 172.2752 282.698932 
L 171.8784 281.116644 
L 171.4816 282.159516 
L 171.0848 282.64499 
L 170.688 281.907788 
L 170.2912 284.586889 
L 169.8944 283.418154 
L 169.4976 280.757034 
L 169.1008 284.083434 
L 168.704 284.281219 
L 168.3072 285.180246 
L 167.9104 283.669881 
L 167.5136 283.472095 
L 167.1168 279.947909 
L 166.72 281.134625 
L 166.3232 283.921609 
L 165.9264 284.838616 
L 165.5296 283.364212 
L 165.1328 282.051632 
L 164.736 281.710002 
L 164.3392 279.102824 
L 163.9424 280.810975 
L 163.5456 280.181656 
L 163.1488 285.072363 
L 162.752 283.148445 
L 162.3552 282.177496 
L 161.9584 282.878737 
L 161.5616 285.360052 
L 161.1648 283.705842 
L 160.768 280.505306 
L 160.3712 285.28813 
L 159.9744 283.112484 
L 159.5776 284.604869 
L 159.1808 283.454115 
L 158.784 282.573068 
L 158.3872 280.523286 
L 157.9904 282.159516 
L 157.5936 282.195477 
L 157.1968 283.022582 
L 156.8 280.864917 
L 156.4032 279.786084 
L 156.0064 280.990781 
L 155.6096 280.433384 
L 155.2128 279.911948 
L 154.816 283.202387 
L 154.4192 283.058543 
L 154.0224 282.375282 
L 153.6256 281.458275 
L 153.2288 280.792995 
L 152.832 280.235598 
L 152.4352 283.939589 
L 152.0384 283.31027 
L 151.6416 284.209297 
L 151.2448 280.613189 
L 150.848 281.727983 
L 150.4512 284.586889 
L 150.0544 284.065453 
L 149.6576 282.950659 
L 149.2608 284.730733 
L 148.864 279.64224 
L 148.4672 281.63808 
L 148.0704 282.788835 
L 147.6736 283.202387 
L 147.2768 280.792995 
L 146.88 279.498396 
L 146.4832 281.871827 
L 146.0864 280.001851 
L 145.6896 281.098664 
L 145.2928 283.112484 
L 144.896 282.698932 
L 144.4992 281.152605 
L 144.1024 281.799905 
L 143.7056 283.526037 
L 143.3088 282.842776 
L 142.912 283.849686 
L 142.5152 283.004601 
L 142.1184 281.692022 
L 141.7216 282.465185 
L 141.3248 281.476255 
L 140.928 281.674041 
L 140.5312 280.685111 
L 140.1344 280.577228 
L 139.7376 282.842776 
L 139.3408 282.986621 
L 138.944 281.422314 
L 138.5472 281.817885 
L 138.1504 282.015671 
L 137.7536 284.101414 
L 137.3568 280.451364 
L 136.96 281.206547 
L 136.5632 282.213457 
L 136.1664 281.152605 
L 135.7696 281.602119 
L 135.3728 281.727983 
L 134.976 281.566158 
L 134.5792 281.871827 
L 134.1824 281.422314 
L 133.7856 281.584138 
L 133.3888 282.680951 
L 132.992 283.274309 
L 132.5952 282.662971 
L 132.1984 283.615939 
L 131.8016 281.242508 
L 131.4048 282.159516 
L 131.008 284.173336 
L 130.6112 281.530197 
L 130.2144 281.206547 
L 129.8176 283.29229 
L 129.4208 279.732143 
L 129.024 283.31027 
L 128.6272 282.483165 
L 128.2304 279.606279 
L 127.8336 282.716912 
L 127.4368 282.860757 
L 127.04 279.947909 
L 126.6432 281.404333 
L 126.2464 281.997691 
L 125.8496 281.098664 
L 125.4528 281.997691 
L 125.056 278.869077 
L 124.6592 282.806815 
L 124.2624 282.411243 
L 123.8656 276.98112 
L 123.4688 280.451364 
L 123.072 282.429224 
L 122.6752 282.62701 
L 122.2784 280.757034 
L 121.8816 281.674041 
L 121.4848 280.757034 
L 121.088 281.799905 
L 120.6912 279.858006 
L 120.2944 282.788835 
L 119.8976 278.383602 
L 119.5008 281.134625 
L 119.104 281.278469 
L 118.7072 281.620099 
L 118.3104 282.716912 
L 117.9136 280.757034 
L 117.5168 282.914698 
L 117.12 281.925769 
L 116.7232 280.846936 
L 116.3264 278.059952 
L 115.9296 282.159516 
L 115.5328 281.368372 
L 115.136 281.440294 
L 114.7392 280.487325 
L 114.3424 281.350391 
L 113.9456 283.687862 
L 113.5488 281.710002 
L 113.152 281.278469 
L 112.7552 281.727983 
L 112.3584 282.177496 
L 111.9616 281.368372 
L 111.5648 282.483165 
L 111.168 280.217617 
L 110.7712 280.487325 
L 110.3744 282.896718 
L 109.9776 278.041972 
L 109.5808 282.573068 
L 109.184 280.415403 
L 108.7872 279.192726 
L 108.3904 280.379442 
L 107.9936 280.037812 
L 107.5968 282.267399 
L 107.2 279.480415 
L 106.8032 282.213457 
L 106.4064 282.213457 
L 106.0096 280.559248 
L 105.6128 282.051632 
L 105.216 280.739053 
L 104.8192 280.936839 
L 104.4224 281.134625 
L 104.0256 281.566158 
L 103.6288 281.763944 
L 103.232 281.907788 
L 102.8352 281.656061 
L 102.4384 281.817885 
L 102.0416 282.123555 
L 101.6448 282.231438 
L 101.248 281.943749 
L 100.8512 280.882897 
L 100.4544 282.878737 
L 100.0576 282.357302 
L 99.6608 279.480415 
L 99.264 282.411243 
L 98.8672 280.846936 
L 98.4704 282.411243 
L 98.0736 280.828956 
L 97.6768 282.429224 
L 97.28 281.422314 
L 96.8832 280.109734 
L 96.4864 282.62701 
L 96.0896 281.260489 
L 95.6928 282.213457 
L 95.296 280.792995 
L 94.8992 280.163676 
L 94.5024 281.907788 
L 94.1056 282.501146 
L 93.7088 282.195477 
L 93.312 280.433384 
L 92.9152 282.051632 
L 92.5184 281.548177 
L 92.1216 282.896718 
L 91.7248 282.339321 
L 91.328 283.058543 
L 90.9312 282.698932 
L 90.5344 283.058543 
L 90.1376 282.519126 
L 89.7408 282.860757 
L 89.344 281.170586 
L 88.9472 279.840026 
L 88.5504 280.810975 
L 88.1536 281.422314 
L 87.7568 283.669881 
L 87.36 281.170586 
L 86.9632 282.716912 
L 86.5664 280.900878 
L 86.1696 281.476255 
L 85.7728 281.656061 
L 85.376 281.242508 
L 84.9792 282.105574 
L 84.5824 283.63392 
L 84.1856 283.202387 
L 83.7888 282.698932 
L 83.392 281.350391 
L 82.9952 281.943749 
L 82.5984 282.698932 
L 82.2016 283.723823 
L 81.8048 282.357302 
L 81.408 282.788835 
L 81.0112 282.555088 
L 80.6144 282.483165 
L 80.2176 281.97971 
L 79.8208 282.519126 
L 79.424 283.400173 
L 79.0272 281.440294 
L 78.6304 282.357302 
L 78.2336 281.31443 
L 77.8368 282.177496 
L 77.44 282.267399 
L 77.0432 284.874577 
L 76.6464 283.561998 
L 76.2496 282.393263 
L 75.8528 282.501146 
L 75.456 280.613189 
L 75.0592 281.404333 
L 74.6624 282.069613 
L 74.2656 282.483165 
L 73.8688 283.705842 
L 73.472 282.878737 
L 73.0752 281.63808 
L 72.6784 282.501146 
L 72.2816 282.770854 
L 71.8848 282.64499 
L 71.488 285.234188 
L 71.0912 283.220368 
L 70.6944 281.943749 
L 70.2976 284.101414 
L 69.9008 283.436134 
L 69.504 284.065453 
L 69.1072 282.878737 
L 68.7104 284.2992 
L 68.3136 283.669881 
L 67.9168 283.094504 
L 67.52 282.105574 
L 67.1232 283.561998 
L 66.7264 283.076523 
L 66.3296 284.245258 
L 65.9328 282.64499 
L 65.536 283.184406 
L 65.1392 283.004601 
L 64.7424 282.555088 
L 64.3456 284.496986 
L 63.9488 283.795745 
L 63.552 284.856597 
L 63.1552 283.274309 
L 62.7584 283.130465 
L 62.3616 283.561998 
L 61.9648 283.382192 
L 61.568 284.335161 
L 61.1712 283.508056 
L 60.7744 284.119395 
L 60.3776 284.011511 
L 59.9808 283.651901 
L 59.584 282.752874 
L 59.1872 285.845526 
L 58.7904 284.425064 
L 58.3936 284.263239 
L 57.9968 285.252169 
z
" style="fill:#1f77b4;fill-opacity:0.25;"/>
   </g>
   <g id="matplotlib.axis_1">
    <g id="xtick_1">
     <g id="line2d_1">
      <defs>
       <path d="M 0 0 
L 0 4.8 
" id="m58190dc51f" style="stroke:#000000;"/>
      </defs>
      <g>
       <use style="stroke:#000000;" x="57.6" xlink:href="#m58190dc51f" y="307.584"/>
      </g>
     </g>
     <g id="text_1">
      <!-- 0 -->
      <g transform="translate(54.8005 322.570625)scale(0.088 -0.088)">
       <defs>
        <path d="M 2034 4250 
Q 1547 4250 1301 3770 
Q 1056 3291 1056 2328 
Q 1056 1369 1301 889 
Q 1547 409 2034 409 
Q 2525 409 2770 889 
Q 3016 1369 3016 2328 
Q 3016 3291 2770 3770 
Q 2525 4250 2034 4250 
z
M 2034 4750 
Q 2819 4750 3233 4129 
Q 3647 3509 3647 2328 
Q 3647 1150 3233 529 
Q 2819 -91 2034 -91 
Q 1250 -91 836 529 
Q 422 1150 422 2328 
Q 422 3509 836 4129 
Q 1250 4750 2034 4750 
z
" id="DejaVuSans-30" transform="scale(0.015625)"/>
       </defs>
       <use xlink:href="#DejaVuSans-30"/>
      </g>
     </g>
    </g>
    <g id="xtick_2">
     <g id="line2d_2">
      <g>
       <use style="stroke:#000000;" x="97.28" xlink:href="#m58190dc51f" y="307.584"/>
      </g>
     </g>
     <g id="text_2">
      <!-- 100 -->
      <g transform="translate(88.8815 322.570625)scale(0.088 -0.088)">
       <defs>
        <path d="M 794 531 
L 1825 531 
L 1825 4091 
L 703 3866 
L 703 4441 
L 1819 4666 
L 2450 4666 
L 2450 531 
L 3481 531 
L 3481 0 
L 794 0 
L 794 531 
z
" id="DejaVuSans-31" transform="scale(0.015625)"/>
       </defs>
       <use xlink:href="#DejaVuSans-31"/>
       <use x="63.623047" xlink:href="#DejaVuSans-30"/>
       <use x="127.246094" xlink:href="#DejaVuSans-30"/>
      </g>
     </g>
    </g>
    <g id="xtick_3">
     <g id="line2d_3">
      <g>
       <use style="stroke:#000000;" x="136.96" xlink:href="#m58190dc51f" y="307.584"/>
      </g>
     </g>
     <g id="text_3">
      <!-- 200 -->
      <g transform="translate(128.5615 322.570625)scale(0.088 -0.088)">
       <defs>
        <path d="M 1228 531 
L 3431 531 
L 3431 0 
L 469 0 
L 469 531 
Q 828 903 1448 1529 
Q 2069 2156 2228 2338 
Q 2531 2678 2651 2914 
Q 2772 3150 2772 3378 
Q 2772 3750 2511 3984 
Q 2250 4219 1831 4219 
Q 1534 4219 1204 4116 
Q 875 4013 500 3803 
L 500 4441 
Q 881 4594 1212 4672 
Q 1544 4750 1819 4750 
Q 2544 4750 2975 4387 
Q 3406 4025 3406 3419 
Q 3406 3131 3298 2873 
Q 3191 2616 2906 2266 
Q 2828 2175 2409 1742 
Q 1991 1309 1228 531 
z
" id="DejaVuSans-32" transform="scale(0.015625)"/>
       </defs>
       <use xlink:href="#DejaVuSans-32"/>
       <use x="63.623047" xlink:href="#DejaVuSans-30"/>
       <use x="127.246094" xlink:href="#DejaVuSans-30"/>
      </g>
     </g>
    </g>
    <g id="xtick_4">
     <g id="line2d_4">
      <g>
       <use style="stroke:#000000;" x="176.64" xlink:href="#m58190dc51f" y="307.584"/>
      </g>
     </g>
     <g id="text_4">
      <!-- 300 -->
      <g transform="translate(168.2415 322.570625)scale(0.088 -0.088)">
       <defs>
        <path d="M 2597 2516 
Q 3050 2419 3304 2112 
Q 3559 1806 3559 1356 
Q 3559 666 3084 287 
Q 2609 -91 1734 -91 
Q 1441 -91 1130 -33 
Q 819 25 488 141 
L 488 750 
Q 750 597 1062 519 
Q 1375 441 1716 441 
Q 2309 441 2620 675 
Q 2931 909 2931 1356 
Q 2931 1769 2642 2001 
Q 2353 2234 1838 2234 
L 1294 2234 
L 1294 2753 
L 1863 2753 
Q 2328 2753 2575 2939 
Q 2822 3125 2822 3475 
Q 2822 3834 2567 4026 
Q 2313 4219 1838 4219 
Q 1578 4219 1281 4162 
Q 984 4106 628 3988 
L 628 4550 
Q 988 4650 1302 4700 
Q 1616 4750 1894 4750 
Q 2613 4750 3031 4423 
Q 3450 4097 3450 3541 
Q 3450 3153 3228 2886 
Q 3006 2619 2597 2516 
z
" id="DejaVuSans-33" transform="scale(0.015625)"/>
       </defs>
       <use xlink:href="#DejaVuSans-33"/>
       <use x="63.623047" xlink:href="#DejaVuSans-30"/>
       <use x="127.246094" xlink:href="#DejaVuSans-30"/>
      </g>
     </g>
    </g>
    <g id="xtick_5">
     <g id="line2d_5">
      <g>
       <use style="stroke:#000000;" x="216.32" xlink:href="#m58190dc51f" y="307.584"/>
      </g>
     </g>
     <g id="text_5">
      <!-- 400 -->
      <g transform="translate(207.9215 322.570625)scale(0.088 -0.088)">
       <defs>
        <path d="M 2419 4116 
L 825 1625 
L 2419 1625 
L 2419 4116 
z
M 2253 4666 
L 3047 4666 
L 3047 1625 
L 3713 1625 
L 3713 1100 
L 3047 1100 
L 3047 0 
L 2419 0 
L 2419 1100 
L 313 1100 
L 313 1709 
L 2253 4666 
z
" id="DejaVuSans-34" transform="scale(0.015625)"/>
       </defs>
       <use xlink:href="#DejaVuSans-34"/>
       <use x="63.623047" xlink:href="#DejaVuSans-30"/>
       <use x="127.246094" xlink:href="#DejaVuSans-30"/>
      </g>
     </g>
    </g>
    <g id="xtick_6">
     <g id="line2d_6">
      <g>
       <use style="stroke:#000000;" x="256" xlink:href="#m58190dc51f" y="307.584"/>
      </g>
     </g>
     <g id="text_6">
      <!-- 500 -->
      <g transform="translate(247.6015 322.570625)scale(0.088 -0.088)">
       <defs>
        <path d="M 691 4666 
L 3169 4666 
L 3169 4134 
L 1269 4134 
L 1269 2991 
Q 1406 3038 1543 3061 
Q 1681 3084 1819 3084 
Q 2600 3084 3056 2656 
Q 3513 2228 3513 1497 
Q 3513 744 3044 326 
Q 2575 -91 1722 -91 
Q 1428 -91 1123 -41 
Q 819 9 494 109 
L 494 744 
Q 775 591 1075 516 
Q 1375 441 1709 441 
Q 2250 441 2565 725 
Q 2881 1009 2881 1497 
Q 2881 1984 2565 2268 
Q 2250 2553 1709 2553 
Q 1456 2553 1204 2497 
Q 953 2441 691 2322 
L 691 4666 
z
" id="DejaVuSans-35" transform="scale(0.015625)"/>
       </defs>
       <use xlink:href="#DejaVuSans-35"/>
       <use x="63.623047" xlink:href="#DejaVuSans-30"/>
       <use x="127.246094" xlink:href="#DejaVuSans-30"/>
      </g>
     </g>
    </g>
    <g id="xtick_7">
     <g id="line2d_7">
      <g>
       <use style="stroke:#000000;" x="295.68" xlink:href="#m58190dc51f" y="307.584"/>
      </g>
     </g>
     <g id="text_7">
      <!-- 600 -->
      <g transform="translate(287.2815 322.570625)scale(0.088 -0.088)">
       <defs>
        <path d="M 2113 2584 
Q 1688 2584 1439 2293 
Q 1191 2003 1191 1497 
Q 1191 994 1439 701 
Q 1688 409 2113 409 
Q 2538 409 2786 701 
Q 3034 994 3034 1497 
Q 3034 2003 2786 2293 
Q 2538 2584 2113 2584 
z
M 3366 4563 
L 3366 3988 
Q 3128 4100 2886 4159 
Q 2644 4219 2406 4219 
Q 1781 4219 1451 3797 
Q 1122 3375 1075 2522 
Q 1259 2794 1537 2939 
Q 1816 3084 2150 3084 
Q 2853 3084 3261 2657 
Q 3669 2231 3669 1497 
Q 3669 778 3244 343 
Q 2819 -91 2113 -91 
Q 1303 -91 875 529 
Q 447 1150 447 2328 
Q 447 3434 972 4092 
Q 1497 4750 2381 4750 
Q 2619 4750 2861 4703 
Q 3103 4656 3366 4563 
z
" id="DejaVuSans-36" transform="scale(0.015625)"/>
       </defs>
       <use xlink:href="#DejaVuSans-36"/>
       <use x="63.623047" xlink:href="#DejaVuSans-30"/>
       <use x="127.246094" xlink:href="#DejaVuSans-30"/>
      </g>
     </g>
    </g>
    <g id="xtick_8">
     <g id="line2d_8">
      <g>
       <use style="stroke:#000000;" x="335.36" xlink:href="#m58190dc51f" y="307.584"/>
      </g>
     </g>
     <g id="text_8">
      <!-- 700 -->
      <g transform="translate(326.9615 322.570625)scale(0.088 -0.088)">
       <defs>
        <path d="M 525 4666 
L 3525 4666 
L 3525 4397 
L 1831 0 
L 1172 0 
L 2766 4134 
L 525 4134 
L 525 4666 
z
" id="DejaVuSans-37" transform="scale(0.015625)"/>
       </defs>
       <use xlink:href="#DejaVuSans-37"/>
       <use x="63.623047" xlink:href="#DejaVuSans-30"/>
       <use x="127.246094" xlink:href="#DejaVuSans-30"/>
      </g>
     </g>
    </g>
    <g id="xtick_9">
     <g id="line2d_9">
      <g>
       <use style="stroke:#000000;" x="375.04" xlink:href="#m58190dc51f" y="307.584"/>
      </g>
     </g>
     <g id="text_9">
      <!-- 800 -->
      <g transform="translate(366.6415 322.570625)scale(0.088 -0.088)">
       <defs>
        <path d="M 2034 2216 
Q 1584 2216 1326 1975 
Q 1069 1734 1069 1313 
Q 1069 891 1326 650 
Q 1584 409 2034 409 
Q 2484 409 2743 651 
Q 3003 894 3003 1313 
Q 3003 1734 2745 1975 
Q 2488 2216 2034 2216 
z
M 1403 2484 
Q 997 2584 770 2862 
Q 544 3141 544 3541 
Q 544 4100 942 4425 
Q 1341 4750 2034 4750 
Q 2731 4750 3128 4425 
Q 3525 4100 3525 3541 
Q 3525 3141 3298 2862 
Q 3072 2584 2669 2484 
Q 3125 2378 3379 2068 
Q 3634 1759 3634 1313 
Q 3634 634 3220 271 
Q 2806 -91 2034 -91 
Q 1263 -91 848 271 
Q 434 634 434 1313 
Q 434 1759 690 2068 
Q 947 2378 1403 2484 
z
M 1172 3481 
Q 1172 3119 1398 2916 
Q 1625 2713 2034 2713 
Q 2441 2713 2670 2916 
Q 2900 3119 2900 3481 
Q 2900 3844 2670 4047 
Q 2441 4250 2034 4250 
Q 1625 4250 1398 4047 
Q 1172 3844 1172 3481 
z
" id="DejaVuSans-38" transform="scale(0.015625)"/>
       </defs>
       <use xlink:href="#DejaVuSans-38"/>
       <use x="63.623047" xlink:href="#DejaVuSans-30"/>
       <use x="127.246094" xlink:href="#DejaVuSans-30"/>
      </g>
     </g>
    </g>
    <g id="xtick_10">
     <g id="line2d_10">
      <g>
       <use style="stroke:#000000;" x="414.72" xlink:href="#m58190dc51f" y="307.584"/>
      </g>
     </g>
     <g id="text_10">
      <!-- 900 -->
      <g transform="translate(406.3215 322.570625)scale(0.088 -0.088)">
       <defs>
        <path d="M 703 97 
L 703 672 
Q 941 559 1184 500 
Q 1428 441 1663 441 
Q 2288 441 2617 861 
Q 2947 1281 2994 2138 
Q 2813 1869 2534 1725 
Q 2256 1581 1919 1581 
Q 1219 1581 811 2004 
Q 403 2428 403 3163 
Q 403 3881 828 4315 
Q 1253 4750 1959 4750 
Q 2769 4750 3195 4129 
Q 3622 3509 3622 2328 
Q 3622 1225 3098 567 
Q 2575 -91 1691 -91 
Q 1453 -91 1209 -44 
Q 966 3 703 97 
z
M 1959 2075 
Q 2384 2075 2632 2365 
Q 2881 2656 2881 3163 
Q 2881 3666 2632 3958 
Q 2384 4250 1959 4250 
Q 1534 4250 1286 3958 
Q 1038 3666 1038 3163 
Q 1038 2656 1286 2365 
Q 1534 2075 1959 2075 
z
" id="DejaVuSans-39" transform="scale(0.015625)"/>
       </defs>
       <use xlink:href="#DejaVuSans-39"/>
       <use x="63.623047" xlink:href="#DejaVuSans-30"/>
       <use x="127.246094" xlink:href="#DejaVuSans-30"/>
      </g>
     </g>
    </g>
    <g id="text_11">
     <!-- Timestep -->
     <g transform="translate(214.03275 335.69525)scale(0.096 -0.096)">
      <defs>
       <path d="M -19 4666 
L 3928 4666 
L 3928 4134 
L 2272 4134 
L 2272 0 
L 1638 0 
L 1638 4134 
L -19 4134 
L -19 4666 
z
" id="DejaVuSans-54" transform="scale(0.015625)"/>
       <path d="M 603 3500 
L 1178 3500 
L 1178 0 
L 603 0 
L 603 3500 
z
M 603 4863 
L 1178 4863 
L 1178 4134 
L 603 4134 
L 603 4863 
z
" id="DejaVuSans-69" transform="scale(0.015625)"/>
       <path d="M 3328 2828 
Q 3544 3216 3844 3400 
Q 4144 3584 4550 3584 
Q 5097 3584 5394 3201 
Q 5691 2819 5691 2113 
L 5691 0 
L 5113 0 
L 5113 2094 
Q 5113 2597 4934 2840 
Q 4756 3084 4391 3084 
Q 3944 3084 3684 2787 
Q 3425 2491 3425 1978 
L 3425 0 
L 2847 0 
L 2847 2094 
Q 2847 2600 2669 2842 
Q 2491 3084 2119 3084 
Q 1678 3084 1418 2786 
Q 1159 2488 1159 1978 
L 1159 0 
L 581 0 
L 581 3500 
L 1159 3500 
L 1159 2956 
Q 1356 3278 1631 3431 
Q 1906 3584 2284 3584 
Q 2666 3584 2933 3390 
Q 3200 3197 3328 2828 
z
" id="DejaVuSans-6d" transform="scale(0.015625)"/>
       <path d="M 3597 1894 
L 3597 1613 
L 953 1613 
Q 991 1019 1311 708 
Q 1631 397 2203 397 
Q 2534 397 2845 478 
Q 3156 559 3463 722 
L 3463 178 
Q 3153 47 2828 -22 
Q 2503 -91 2169 -91 
Q 1331 -91 842 396 
Q 353 884 353 1716 
Q 353 2575 817 3079 
Q 1281 3584 2069 3584 
Q 2775 3584 3186 3129 
Q 3597 2675 3597 1894 
z
M 3022 2063 
Q 3016 2534 2758 2815 
Q 2500 3097 2075 3097 
Q 1594 3097 1305 2825 
Q 1016 2553 972 2059 
L 3022 2063 
z
" id="DejaVuSans-65" transform="scale(0.015625)"/>
       <path d="M 2834 3397 
L 2834 2853 
Q 2591 2978 2328 3040 
Q 2066 3103 1784 3103 
Q 1356 3103 1142 2972 
Q 928 2841 928 2578 
Q 928 2378 1081 2264 
Q 1234 2150 1697 2047 
L 1894 2003 
Q 2506 1872 2764 1633 
Q 3022 1394 3022 966 
Q 3022 478 2636 193 
Q 2250 -91 1575 -91 
Q 1294 -91 989 -36 
Q 684 19 347 128 
L 347 722 
Q 666 556 975 473 
Q 1284 391 1588 391 
Q 1994 391 2212 530 
Q 2431 669 2431 922 
Q 2431 1156 2273 1281 
Q 2116 1406 1581 1522 
L 1381 1569 
Q 847 1681 609 1914 
Q 372 2147 372 2553 
Q 372 3047 722 3315 
Q 1072 3584 1716 3584 
Q 2034 3584 2315 3537 
Q 2597 3491 2834 3397 
z
" id="DejaVuSans-73" transform="scale(0.015625)"/>
       <path d="M 1172 4494 
L 1172 3500 
L 2356 3500 
L 2356 3053 
L 1172 3053 
L 1172 1153 
Q 1172 725 1289 603 
Q 1406 481 1766 481 
L 2356 481 
L 2356 0 
L 1766 0 
Q 1100 0 847 248 
Q 594 497 594 1153 
L 594 3053 
L 172 3053 
L 172 3500 
L 594 3500 
L 594 4494 
L 1172 4494 
z
" id="DejaVuSans-74" transform="scale(0.015625)"/>
       <path d="M 1159 525 
L 1159 -1331 
L 581 -1331 
L 581 3500 
L 1159 3500 
L 1159 2969 
Q 1341 3281 1617 3432 
Q 1894 3584 2278 3584 
Q 2916 3584 3314 3078 
Q 3713 2572 3713 1747 
Q 3713 922 3314 415 
Q 2916 -91 2278 -91 
Q 1894 -91 1617 61 
Q 1341 213 1159 525 
z
M 3116 1747 
Q 3116 2381 2855 2742 
Q 2594 3103 2138 3103 
Q 1681 3103 1420 2742 
Q 1159 2381 1159 1747 
Q 1159 1113 1420 752 
Q 1681 391 2138 391 
Q 2594 391 2855 752 
Q 3116 1113 3116 1747 
z
" id="DejaVuSans-70" transform="scale(0.015625)"/>
      </defs>
      <use xlink:href="#DejaVuSans-54"/>
      <use x="57.958984" xlink:href="#DejaVuSans-69"/>
      <use x="85.742188" xlink:href="#DejaVuSans-6d"/>
      <use x="183.154297" xlink:href="#DejaVuSans-65"/>
      <use x="244.677734" xlink:href="#DejaVuSans-73"/>
      <use x="296.777344" xlink:href="#DejaVuSans-74"/>
      <use x="335.986328" xlink:href="#DejaVuSans-65"/>
      <use x="397.509766" xlink:href="#DejaVuSans-70"/>
     </g>
    </g>
   </g>
   <g id="matplotlib.axis_2">
    <g id="ytick_1">
     <g id="line2d_11">
      <defs>
       <path d="M 0 0 
L -4.8 0 
" id="md07dee0348" style="stroke:#000000;"/>
      </defs>
      <g>
       <use style="stroke:#000000;" x="57.6" xlink:href="#md07dee0348" y="293.199568"/>
      </g>
     </g>
     <g id="text_12">
      <!-- 0 -->
      <g transform="translate(43.701 296.54288)scale(0.088 -0.088)">
       <use xlink:href="#DejaVuSans-30"/>
      </g>
     </g>
    </g>
    <g id="ytick_2">
     <g id="line2d_12">
      <g>
       <use style="stroke:#000000;" x="57.6" xlink:href="#md07dee0348" y="257.238486"/>
      </g>
     </g>
     <g id="text_13">
      <!-- 5 -->
      <g transform="translate(43.701 260.581799)scale(0.088 -0.088)">
       <use xlink:href="#DejaVuSans-35"/>
      </g>
     </g>
    </g>
    <g id="ytick_3">
     <g id="line2d_13">
      <g>
       <use style="stroke:#000000;" x="57.6" xlink:href="#md07dee0348" y="221.277405"/>
      </g>
     </g>
     <g id="text_14">
      <!-- 10 -->
      <g transform="translate(38.102 224.620718)scale(0.088 -0.088)">
       <use xlink:href="#DejaVuSans-31"/>
       <use x="63.623047" xlink:href="#DejaVuSans-30"/>
      </g>
     </g>
    </g>
    <g id="ytick_4">
     <g id="line2d_14">
      <g>
       <use style="stroke:#000000;" x="57.6" xlink:href="#md07dee0348" y="185.316324"/>
      </g>
     </g>
     <g id="text_15">
      <!-- 15 -->
      <g transform="translate(38.102 188.659637)scale(0.088 -0.088)">
       <use xlink:href="#DejaVuSans-31"/>
       <use x="63.623047" xlink:href="#DejaVuSans-35"/>
      </g>
     </g>
    </g>
    <g id="ytick_5">
     <g id="line2d_15">
      <g>
       <use style="stroke:#000000;" x="57.6" xlink:href="#md07dee0348" y="149.355243"/>
      </g>
     </g>
     <g id="text_16">
      <!-- 20 -->
      <g transform="translate(38.102 152.698556)scale(0.088 -0.088)">
       <use xlink:href="#DejaVuSans-32"/>
       <use x="63.623047" xlink:href="#DejaVuSans-30"/>
      </g>
     </g>
    </g>
    <g id="ytick_6">
     <g id="line2d_16">
      <g>
       <use style="stroke:#000000;" x="57.6" xlink:href="#md07dee0348" y="113.394162"/>
      </g>
     </g>
     <g id="text_17">
      <!-- 25 -->
      <g transform="translate(38.102 116.737475)scale(0.088 -0.088)">
       <use xlink:href="#DejaVuSans-32"/>
       <use x="63.623047" xlink:href="#DejaVuSans-35"/>
      </g>
     </g>
    </g>
    <g id="ytick_7">
     <g id="line2d_17">
      <g>
       <use style="stroke:#000000;" x="57.6" xlink:href="#md07dee0348" y="77.433081"/>
      </g>
     </g>
     <g id="text_18">
      <!-- 30 -->
      <g transform="translate(38.102 80.776394)scale(0.088 -0.088)">
       <use xlink:href="#DejaVuSans-33"/>
       <use x="63.623047" xlink:href="#DejaVuSans-30"/>
      </g>
     </g>
    </g>
    <g id="ytick_8">
     <g id="line2d_18">
      <g>
       <use style="stroke:#000000;" x="57.6" xlink:href="#md07dee0348" y="41.472"/>
      </g>
     </g>
     <g id="text_19">
      <!-- 35 -->
      <g transform="translate(38.102 44.815313)scale(0.088 -0.088)">
       <use xlink:href="#DejaVuSans-33"/>
       <use x="63.623047" xlink:href="#DejaVuSans-35"/>
      </g>
     </g>
    </g>
    <g id="text_20">
     <!-- Reward -->
     <g transform="translate(32.1055 192.40425)rotate(-90)scale(0.096 -0.096)">
      <defs>
       <path d="M 2841 2188 
Q 3044 2119 3236 1894 
Q 3428 1669 3622 1275 
L 4263 0 
L 3584 0 
L 2988 1197 
Q 2756 1666 2539 1819 
Q 2322 1972 1947 1972 
L 1259 1972 
L 1259 0 
L 628 0 
L 628 4666 
L 2053 4666 
Q 2853 4666 3247 4331 
Q 3641 3997 3641 3322 
Q 3641 2881 3436 2590 
Q 3231 2300 2841 2188 
z
M 1259 4147 
L 1259 2491 
L 2053 2491 
Q 2509 2491 2742 2702 
Q 2975 2913 2975 3322 
Q 2975 3731 2742 3939 
Q 2509 4147 2053 4147 
L 1259 4147 
z
" id="DejaVuSans-52" transform="scale(0.015625)"/>
       <path d="M 269 3500 
L 844 3500 
L 1563 769 
L 2278 3500 
L 2956 3500 
L 3675 769 
L 4391 3500 
L 4966 3500 
L 4050 0 
L 3372 0 
L 2619 2869 
L 1863 0 
L 1184 0 
L 269 3500 
z
" id="DejaVuSans-77" transform="scale(0.015625)"/>
       <path d="M 2194 1759 
Q 1497 1759 1228 1600 
Q 959 1441 959 1056 
Q 959 750 1161 570 
Q 1363 391 1709 391 
Q 2188 391 2477 730 
Q 2766 1069 2766 1631 
L 2766 1759 
L 2194 1759 
z
M 3341 1997 
L 3341 0 
L 2766 0 
L 2766 531 
Q 2569 213 2275 61 
Q 1981 -91 1556 -91 
Q 1019 -91 701 211 
Q 384 513 384 1019 
Q 384 1609 779 1909 
Q 1175 2209 1959 2209 
L 2766 2209 
L 2766 2266 
Q 2766 2663 2505 2880 
Q 2244 3097 1772 3097 
Q 1472 3097 1187 3025 
Q 903 2953 641 2809 
L 641 3341 
Q 956 3463 1253 3523 
Q 1550 3584 1831 3584 
Q 2591 3584 2966 3190 
Q 3341 2797 3341 1997 
z
" id="DejaVuSans-61" transform="scale(0.015625)"/>
       <path d="M 2631 2963 
Q 2534 3019 2420 3045 
Q 2306 3072 2169 3072 
Q 1681 3072 1420 2755 
Q 1159 2438 1159 1844 
L 1159 0 
L 581 0 
L 581 3500 
L 1159 3500 
L 1159 2956 
Q 1341 3275 1631 3429 
Q 1922 3584 2338 3584 
Q 2397 3584 2469 3576 
Q 2541 3569 2628 3553 
L 2631 2963 
z
" id="DejaVuSans-72" transform="scale(0.015625)"/>
       <path d="M 2906 2969 
L 2906 4863 
L 3481 4863 
L 3481 0 
L 2906 0 
L 2906 525 
Q 2725 213 2448 61 
Q 2172 -91 1784 -91 
Q 1150 -91 751 415 
Q 353 922 353 1747 
Q 353 2572 751 3078 
Q 1150 3584 1784 3584 
Q 2172 3584 2448 3432 
Q 2725 3281 2906 2969 
z
M 947 1747 
Q 947 1113 1208 752 
Q 1469 391 1925 391 
Q 2381 391 2643 752 
Q 2906 1113 2906 1747 
Q 2906 2381 2643 2742 
Q 2381 3103 1925 3103 
Q 1469 3103 1208 2742 
Q 947 2381 947 1747 
z
" id="DejaVuSans-64" transform="scale(0.015625)"/>
      </defs>
      <use xlink:href="#DejaVuSans-52"/>
      <use x="64.982422" xlink:href="#DejaVuSans-65"/>
      <use x="126.505859" xlink:href="#DejaVuSans-77"/>
      <use x="208.292969" xlink:href="#DejaVuSans-61"/>
      <use x="269.572266" xlink:href="#DejaVuSans-72"/>
      <use x="308.935547" xlink:href="#DejaVuSans-64"/>
     </g>
    </g>
   </g>
   <g id="line2d_19">
    <path clip-path="url(#p9a390a8c76)" d="M 57.9968 285.899468 
L 58.3936 286.690612 
L 58.7904 285.467935 
L 59.1872 286.331001 
L 59.584 285.28813 
L 59.9808 285.072363 
L 60.3776 284.461025 
L 60.7744 286.834456 
L 61.1712 283.849686 
L 61.568 285.431974 
L 62.3616 284.281219 
L 62.7584 285.036402 
L 63.1552 284.820636 
L 63.552 285.180246 
L 63.9488 284.496986 
L 64.3456 284.96448 
L 64.7424 283.95757 
L 65.1392 283.921609 
L 65.536 285.791585 
L 65.9328 285.000441 
L 66.3296 284.892558 
L 66.7264 284.496986 
L 67.1232 283.777764 
L 67.52 284.892558 
L 67.9168 284.676791 
L 68.3136 284.856597 
L 68.7104 285.324091 
L 69.1072 285.396013 
L 69.504 285.28813 
L 69.9008 283.885648 
L 70.2976 285.719663 
L 70.6944 283.31027 
L 71.0912 284.137375 
L 71.488 286.798495 
L 71.8848 283.849686 
L 72.2816 283.382192 
L 72.6784 284.029492 
L 73.0752 283.561998 
L 73.472 283.705842 
L 73.8688 284.856597 
L 74.2656 283.95757 
L 74.6624 282.62701 
L 75.0592 283.382192 
L 75.456 281.799905 
L 75.8528 282.770854 
L 76.2496 283.202387 
L 76.6464 284.856597 
L 77.0432 285.935429 
L 77.44 284.568908 
L 77.8368 282.770854 
L 78.2336 283.382192 
L 78.6304 283.130465 
L 79.0272 282.375282 
L 79.424 284.245258 
L 79.8208 283.238348 
L 80.2176 283.95757 
L 80.6144 283.238348 
L 81.0112 284.820636 
L 81.408 283.490076 
L 82.2016 284.425064 
L 82.5984 283.31027 
L 82.9952 284.065453 
L 83.392 281.476255 
L 83.7888 283.705842 
L 84.1856 284.389103 
L 84.5824 284.245258 
L 84.9792 283.346231 
L 85.376 282.123555 
L 85.7728 285.000441 
L 86.1696 283.561998 
L 86.5664 283.454115 
L 87.36 283.022582 
L 87.7568 286.29504 
L 88.1536 282.62701 
L 88.5504 283.202387 
L 88.9472 282.339321 
L 89.344 284.712752 
L 89.7408 284.496986 
L 90.1376 284.568908 
L 90.5344 283.63392 
L 90.9312 283.382192 
L 91.328 284.029492 
L 91.7248 283.094504 
L 92.1216 283.490076 
L 92.5184 282.519126 
L 92.9152 283.130465 
L 93.312 282.519126 
L 93.7088 284.748714 
L 94.1056 283.95757 
L 94.5024 283.490076 
L 94.8992 281.871827 
L 95.296 281.907788 
L 95.6928 284.101414 
L 96.0896 281.835866 
L 96.4864 283.63392 
L 96.8832 283.022582 
L 97.28 282.806815 
L 97.6768 283.490076 
L 98.0736 282.375282 
L 98.4704 284.496986 
L 98.8672 283.597959 
L 99.264 283.921609 
L 99.6608 282.878737 
L 100.0576 282.842776 
L 100.4544 283.777764 
L 100.8512 283.058543 
L 101.248 282.662971 
L 101.6448 282.62701 
L 102.0416 283.63392 
L 102.4384 283.130465 
L 102.8352 282.878737 
L 103.232 283.669881 
L 103.6288 283.418154 
L 104.0256 282.878737 
L 104.4224 283.382192 
L 104.8192 282.842776 
L 105.216 281.907788 
L 106.0096 285.072363 
L 106.4064 284.029492 
L 106.8032 282.62701 
L 107.2 282.195477 
L 107.5968 283.058543 
L 107.9936 282.734893 
L 108.3904 282.159516 
L 108.7872 282.914698 
L 109.184 283.058543 
L 109.5808 282.986621 
L 109.9776 282.015671 
L 110.3744 284.101414 
L 110.7712 281.727983 
L 111.168 283.022582 
L 111.5648 283.238348 
L 111.9616 282.051632 
L 112.7552 283.454115 
L 113.5488 283.705842 
L 113.9456 285.467935 
L 114.3424 283.705842 
L 114.7392 282.62701 
L 115.136 283.490076 
L 115.5328 283.777764 
L 115.9296 284.604869 
L 116.3264 284.209297 
L 117.12 282.591049 
L 117.5168 284.532947 
L 117.9136 282.231438 
L 118.3104 283.382192 
L 118.7072 282.591049 
L 119.104 283.346231 
L 119.5008 284.604869 
L 119.8976 281.763944 
L 120.2944 284.029492 
L 120.6912 283.921609 
L 121.088 282.662971 
L 121.4848 282.231438 
L 121.8816 282.770854 
L 122.2784 283.63392 
L 122.6752 283.274309 
L 123.072 283.31027 
L 123.4688 284.532947 
L 123.8656 282.30336 
L 124.2624 284.101414 
L 124.6592 284.065453 
L 125.056 280.936839 
L 125.4528 283.202387 
L 125.8496 283.202387 
L 126.2464 284.496986 
L 126.6432 282.986621 
L 127.04 283.166426 
L 127.4368 284.748714 
L 128.2304 283.346231 
L 128.6272 285.647741 
L 129.4208 284.461025 
L 129.8176 284.353142 
L 130.2144 283.130465 
L 130.6112 285.719663 
L 131.008 285.000441 
L 131.4048 282.806815 
L 132.1984 285.611779 
L 132.5952 283.849686 
L 132.992 284.784675 
L 133.3888 284.64083 
L 133.7856 283.526037 
L 134.1824 282.914698 
L 134.5792 283.777764 
L 134.976 283.490076 
L 135.3728 284.64083 
L 136.1664 284.245258 
L 136.5632 285.180246 
L 136.96 285.683702 
L 137.3568 282.986621 
L 137.7536 286.582729 
L 138.1504 283.813725 
L 138.5472 283.238348 
L 138.944 284.425064 
L 139.3408 283.31027 
L 139.7376 285.97139 
L 140.1344 281.835866 
L 140.5312 282.015671 
L 140.928 285.863507 
L 141.3248 283.849686 
L 141.7216 284.64083 
L 142.1184 284.64083 
L 142.5152 284.281219 
L 142.912 284.676791 
L 143.3088 284.856597 
L 143.7056 285.863507 
L 144.1024 282.555088 
L 144.4992 282.806815 
L 144.896 283.526037 
L 145.2928 285.791585 
L 145.6896 284.245258 
L 146.0864 281.440294 
L 146.4832 283.993531 
L 146.88 284.496986 
L 147.2768 283.094504 
L 147.6736 285.324091 
L 148.0704 285.683702 
L 148.4672 284.856597 
L 148.864 283.63392 
L 149.2608 285.396013 
L 149.6576 284.96448 
L 150.0544 284.712752 
L 150.4512 285.539857 
L 150.848 282.986621 
L 151.2448 282.123555 
L 151.6416 285.755624 
L 152.0384 285.28813 
L 152.4352 284.64083 
L 152.832 282.986621 
L 153.2288 283.238348 
L 153.6256 282.411243 
L 154.0224 283.238348 
L 154.4192 283.418154 
L 154.816 283.885648 
L 155.2128 283.849686 
L 155.6096 283.166426 
L 156.0064 284.532947 
L 156.4032 282.015671 
L 156.8 285.28813 
L 157.1968 284.96448 
L 157.5936 283.454115 
L 157.9904 285.863507 
L 158.3872 285.396013 
L 158.784 284.245258 
L 159.1808 285.719663 
L 159.5776 286.654651 
L 159.9744 285.575818 
L 160.3712 286.438884 
L 160.768 284.856597 
L 161.1648 284.532947 
L 161.5616 286.115235 
L 161.9584 284.389103 
L 162.3552 283.238348 
L 162.752 283.597959 
L 163.1488 286.151196 
L 163.5456 285.360052 
L 163.9424 282.483165 
L 164.3392 283.95757 
L 165.1328 284.209297 
L 165.5296 283.526037 
L 165.9264 286.115235 
L 166.72 284.892558 
L 167.1168 282.483165 
L 167.5136 285.539857 
L 167.9104 284.425064 
L 168.3072 286.29504 
L 168.704 285.000441 
L 169.1008 285.935429 
L 169.4976 282.411243 
L 169.8944 284.532947 
L 170.2912 285.863507 
L 170.688 284.676791 
L 171.0848 284.856597 
L 171.4816 284.173336 
L 171.8784 284.496986 
L 172.2752 284.281219 
L 172.672 285.180246 
L 173.0688 284.820636 
L 173.4656 282.986621 
L 173.8624 284.317181 
L 174.2592 281.799905 
L 174.656 283.31027 
L 175.4496 283.669881 
L 175.8464 282.878737 
L 176.2432 285.431974 
L 176.64 286.510806 
L 177.0368 283.921609 
L 177.4336 284.281219 
L 178.2272 281.907788 
L 178.624 285.28813 
L 179.0208 285.719663 
L 179.4176 282.770854 
L 179.8144 283.921609 
L 180.2112 283.274309 
L 180.608 285.000441 
L 181.0048 286.079274 
L 181.4016 286.151196 
L 181.7984 285.899468 
L 182.592 282.519126 
L 182.9888 285.503896 
L 183.3856 284.389103 
L 183.7824 284.748714 
L 184.1792 284.389103 
L 184.576 282.231438 
L 184.9728 284.101414 
L 185.3696 282.770854 
L 185.7664 286.079274 
L 186.1632 283.741803 
L 186.56 282.914698 
L 186.9568 285.108324 
L 187.3536 284.712752 
L 187.7504 285.036402 
L 188.1472 284.281219 
L 188.544 283.885648 
L 188.9408 285.719663 
L 189.3376 286.438884 
L 189.7344 285.611779 
L 190.1312 286.61869 
L 190.528 282.62701 
L 190.9248 286.438884 
L 191.3216 285.036402 
L 191.7184 284.748714 
L 192.1152 284.281219 
L 192.9088 286.402923 
L 193.3056 286.151196 
L 193.7024 285.360052 
L 194.0992 281.584138 
L 194.496 284.137375 
L 194.8928 282.806815 
L 195.2896 284.389103 
L 195.6864 284.245258 
L 196.0832 286.582729 
L 196.48 284.532947 
L 196.8768 283.885648 
L 197.2736 285.575818 
L 197.6704 283.058543 
L 198.0672 284.568908 
L 198.464 285.216208 
L 199.2576 285.791585 
L 199.6544 285.180246 
L 200.0512 286.942339 
L 200.448 283.382192 
L 200.8448 285.719663 
L 201.2416 283.705842 
L 201.6384 284.676791 
L 202.0352 286.582729 
L 202.432 284.209297 
L 202.8288 284.065453 
L 203.2256 284.820636 
L 203.6224 286.978301 
L 204.0192 286.942339 
L 204.416 285.252169 
L 204.8128 286.259079 
L 205.2096 286.007351 
L 205.6064 286.115235 
L 206.0032 284.209297 
L 206.4 284.029492 
L 206.7968 285.216208 
L 207.1936 284.461025 
L 207.5904 285.863507 
L 208.384 283.238348 
L 208.7808 284.317181 
L 209.1776 285.935429 
L 209.5744 285.252169 
L 209.9712 285.360052 
L 210.368 282.698932 
L 210.7648 285.000441 
L 211.1616 285.719663 
L 211.9552 285.252169 
L 212.352 286.870417 
L 212.7488 285.863507 
L 213.1456 285.683702 
L 213.5424 284.353142 
L 213.9392 285.431974 
L 214.336 284.568908 
L 214.7328 286.223118 
L 215.1296 286.690612 
L 215.5264 284.029492 
L 215.9232 285.108324 
L 216.32 284.604869 
L 216.7168 284.748714 
L 217.1136 285.575818 
L 217.5104 285.827546 
L 217.9072 285.180246 
L 218.304 285.036402 
L 218.7008 285.575818 
L 219.0976 285.503896 
L 219.4944 286.259079 
L 219.8912 282.519126 
L 220.6848 285.539857 
L 221.8752 284.101414 
L 222.272 284.568908 
L 222.6688 285.611779 
L 223.0656 285.036402 
L 223.4624 283.597959 
L 223.8592 283.490076 
L 224.256 286.690612 
L 224.6528 284.425064 
L 225.0496 285.144285 
L 225.4464 284.748714 
L 225.8432 284.676791 
L 226.24 285.97139 
L 226.6368 283.346231 
L 227.0336 285.863507 
L 227.8272 284.101414 
L 228.224 285.360052 
L 228.6208 284.425064 
L 229.0176 286.007351 
L 229.4144 285.036402 
L 229.8112 285.863507 
L 230.208 285.28813 
L 230.6048 286.115235 
L 231.0016 285.431974 
L 231.3984 285.28813 
L 231.7952 286.582729 
L 232.192 285.360052 
L 232.5888 286.259079 
L 232.9856 285.755624 
L 233.3824 286.798495 
L 233.7792 283.993531 
L 234.176 283.95757 
L 234.5728 285.324091 
L 234.9696 285.719663 
L 235.3664 284.281219 
L 235.7632 286.510806 
L 236.16 285.360052 
L 236.5568 285.108324 
L 236.9536 285.539857 
L 237.3504 285.791585 
L 237.7472 283.741803 
L 238.144 283.95757 
L 238.9376 282.914698 
L 239.3344 284.461025 
L 239.7312 285.431974 
L 240.128 286.043312 
L 240.5248 284.532947 
L 240.9216 285.827546 
L 241.3184 283.777764 
L 241.7152 285.827546 
L 242.112 286.115235 
L 242.5088 285.899468 
L 242.9056 284.101414 
L 243.3024 284.892558 
L 243.6992 283.885648 
L 244.096 284.461025 
L 244.4928 286.61869 
L 244.8896 282.698932 
L 245.2864 285.431974 
L 245.6832 285.575818 
L 246.08 284.029492 
L 246.4768 284.748714 
L 246.8736 286.259079 
L 247.2704 285.252169 
L 247.6672 286.187157 
L 248.064 286.582729 
L 248.4608 285.28813 
L 248.8576 284.712752 
L 249.6512 285.575818 
L 250.048 286.726573 
L 250.4448 286.259079 
L 250.8416 286.115235 
L 251.2384 285.252169 
L 251.6352 285.431974 
L 252.032 284.928519 
L 252.8256 286.079274 
L 254.016 284.712752 
L 254.4128 286.438884 
L 254.8096 285.252169 
L 255.2064 284.496986 
L 255.6032 285.252169 
L 256 284.856597 
L 256.3968 285.575818 
L 256.7936 285.324091 
L 257.1904 285.360052 
L 257.5872 284.820636 
L 257.984 286.115235 
L 258.3808 284.353142 
L 258.7776 283.921609 
L 259.1744 286.187157 
L 259.5712 285.827546 
L 259.968 286.690612 
L 260.3648 284.748714 
L 260.7616 286.546768 
L 261.5552 286.223118 
L 262.3488 285.252169 
L 262.7456 285.252169 
L 263.1424 284.568908 
L 263.5392 286.978301 
L 263.936 286.942339 
L 264.3328 285.97139 
L 264.7296 285.503896 
L 265.1264 285.935429 
L 265.5232 285.503896 
L 265.92 286.29504 
L 266.3168 284.748714 
L 266.7136 284.928519 
L 267.1104 285.755624 
L 267.5072 284.353142 
L 267.904 283.669881 
L 268.6976 286.474845 
L 269.4912 285.000441 
L 269.888 285.000441 
L 270.2848 285.827546 
L 270.6816 285.683702 
L 271.0784 285.935429 
L 271.4752 285.719663 
L 271.872 285.252169 
L 272.2688 284.604869 
L 272.6656 284.820636 
L 273.0624 285.647741 
L 273.4592 284.604869 
L 273.856 284.353142 
L 274.2528 283.849686 
L 274.6496 286.115235 
L 275.0464 286.115235 
L 275.4432 283.63392 
L 275.84 285.503896 
L 276.2368 283.921609 
L 276.6336 284.568908 
L 277.0304 284.353142 
L 277.4272 285.719663 
L 277.824 285.396013 
L 278.2208 286.402923 
L 279.0144 285.036402 
L 279.4112 286.259079 
L 279.808 286.510806 
L 280.2048 286.259079 
L 280.6016 285.431974 
L 280.9984 285.252169 
L 281.3952 285.611779 
L 281.792 286.690612 
L 282.1888 284.353142 
L 282.5856 287.086184 
L 282.9824 285.431974 
L 283.776 286.187157 
L 284.1728 286.438884 
L 284.5696 284.568908 
L 284.9664 283.454115 
L 285.3632 285.719663 
L 285.76 285.683702 
L 286.1568 285.431974 
L 286.5536 283.777764 
L 287.3472 285.683702 
L 287.744 285.431974 
L 288.5376 283.95757 
L 288.9344 284.96448 
L 289.3312 285.180246 
L 289.728 284.425064 
L 290.1248 285.216208 
L 290.5216 285.719663 
L 290.9184 285.935429 
L 291.3152 284.892558 
L 291.712 285.108324 
L 292.1088 283.490076 
L 292.5056 285.036402 
L 292.9024 285.072363 
L 293.2992 284.96448 
L 293.696 286.187157 
L 294.0928 285.575818 
L 294.4896 286.690612 
L 294.8864 286.187157 
L 295.2832 284.748714 
L 295.68 286.546768 
L 296.0768 284.173336 
L 296.4736 285.575818 
L 296.8704 285.396013 
L 297.2672 284.137375 
L 297.664 286.546768 
L 298.0608 284.892558 
L 298.4576 286.043312 
L 298.8544 285.647741 
L 299.2512 285.647741 
L 299.648 285.324091 
L 300.0448 285.575818 
L 300.4416 283.885648 
L 300.8384 285.719663 
L 301.632 284.676791 
L 302.0288 284.928519 
L 302.4256 285.827546 
L 302.8224 285.000441 
L 303.2192 285.360052 
L 303.616 283.993531 
L 304.0128 284.784675 
L 304.4096 286.079274 
L 304.8064 284.389103 
L 305.2032 285.431974 
L 305.6 284.676791 
L 305.9968 284.856597 
L 306.3936 284.712752 
L 306.7904 285.360052 
L 307.1872 284.820636 
L 307.584 285.252169 
L 307.9808 286.402923 
L 308.3776 284.029492 
L 308.7744 285.431974 
L 309.1712 286.079274 
L 309.568 286.043312 
L 309.9648 285.683702 
L 310.3616 284.065453 
L 310.7584 284.64083 
L 311.1552 286.115235 
L 311.552 284.784675 
L 311.9488 284.101414 
L 312.3456 285.000441 
L 312.7424 285.431974 
L 313.1392 285.467935 
L 313.536 286.331001 
L 313.9328 285.899468 
L 314.3296 286.474845 
L 314.7264 284.676791 
L 315.1232 285.575818 
L 315.9168 284.173336 
L 316.3136 285.396013 
L 316.7104 285.539857 
L 317.1072 285.935429 
L 317.504 285.683702 
L 317.9008 284.461025 
L 318.2976 285.755624 
L 318.6944 285.539857 
L 319.0912 286.187157 
L 319.488 283.058543 
L 319.8848 286.115235 
L 320.2816 284.425064 
L 320.6784 286.29504 
L 321.0752 286.331001 
L 321.8688 286.007351 
L 322.2656 286.259079 
L 322.6624 285.000441 
L 323.0592 285.755624 
L 323.456 283.669881 
L 323.8528 286.546768 
L 324.2496 284.209297 
L 324.6464 285.144285 
L 325.0432 285.467935 
L 325.44 284.317181 
L 325.8368 284.820636 
L 326.2336 286.223118 
L 326.6304 284.137375 
L 327.0272 286.29504 
L 327.424 285.216208 
L 327.8208 286.438884 
L 328.2176 285.899468 
L 328.6144 286.115235 
L 329.0112 285.072363 
L 329.408 284.389103 
L 329.8048 286.402923 
L 330.2016 286.331001 
L 330.5984 285.036402 
L 330.9952 285.755624 
L 331.392 284.245258 
L 331.7888 283.921609 
L 332.1856 286.187157 
L 332.5824 285.539857 
L 332.9792 284.496986 
L 333.376 284.64083 
L 333.7728 283.813725 
L 334.1696 285.467935 
L 334.9632 286.438884 
L 335.36 284.425064 
L 335.7568 286.654651 
L 336.5504 284.928519 
L 336.9472 285.683702 
L 337.344 284.137375 
L 338.1376 286.331001 
L 338.5344 285.431974 
L 338.9312 286.582729 
L 339.328 285.863507 
L 339.7248 286.259079 
L 340.1216 285.647741 
L 340.9152 286.61869 
L 341.312 284.532947 
L 341.7088 285.144285 
L 342.1056 286.151196 
L 342.5024 284.856597 
L 342.8992 286.906378 
L 343.296 284.389103 
L 343.6928 285.252169 
L 344.0896 284.892558 
L 344.4864 285.719663 
L 344.8832 285.108324 
L 345.28 283.921609 
L 345.6768 286.223118 
L 346.0736 284.712752 
L 346.4704 285.863507 
L 346.8672 284.281219 
L 347.264 283.921609 
L 347.6608 283.993531 
L 348.0576 284.784675 
L 348.4544 285.072363 
L 348.8512 285.575818 
L 349.248 285.863507 
L 349.6448 286.438884 
L 350.0416 286.438884 
L 350.4384 286.079274 
L 350.8352 283.490076 
L 351.232 285.719663 
L 351.6288 285.503896 
L 352.0256 286.007351 
L 352.4224 286.223118 
L 352.8192 284.065453 
L 353.216 284.784675 
L 353.6128 286.223118 
L 354.0096 285.216208 
L 354.8032 286.510806 
L 355.2 285.935429 
L 355.5968 284.928519 
L 355.9936 285.647741 
L 356.3904 285.647741 
L 356.7872 284.209297 
L 357.184 283.993531 
L 357.5808 284.784675 
L 358.7712 286.29504 
L 359.168 286.151196 
L 359.5648 285.719663 
L 359.9616 283.705842 
L 360.3584 285.503896 
L 360.7552 285.28813 
L 361.152 283.63392 
L 361.5488 285.072363 
L 362.3424 285.791585 
L 362.7392 285.935429 
L 363.136 285.647741 
L 363.5328 285.000441 
L 363.9296 284.568908 
L 364.3264 285.144285 
L 364.7232 285.144285 
L 365.12 284.065453 
L 365.9136 285.719663 
L 366.3104 284.496986 
L 366.7072 286.151196 
L 367.104 286.007351 
L 367.5008 285.28813 
L 367.8976 285.360052 
L 368.2944 285.719663 
L 368.6912 286.29504 
L 369.088 286.438884 
L 369.4848 284.209297 
L 369.8816 285.360052 
L 370.2784 284.353142 
L 370.6752 284.712752 
L 371.072 286.438884 
L 371.4688 285.935429 
L 371.8656 284.928519 
L 372.2624 286.798495 
L 372.6592 285.935429 
L 373.056 285.360052 
L 373.4528 284.065453 
L 373.8496 286.510806 
L 374.2464 287.589639 
L 374.6432 284.496986 
L 375.04 283.490076 
L 375.4368 285.216208 
L 375.8336 286.29504 
L 376.2304 284.712752 
L 376.6272 285.000441 
L 377.024 284.928519 
L 377.4208 285.575818 
L 377.8176 284.64083 
L 378.2144 286.366962 
L 378.6112 284.425064 
L 379.008 285.647741 
L 379.4048 285.503896 
L 379.8016 285.144285 
L 380.1984 285.072363 
L 380.5952 284.856597 
L 380.992 284.856597 
L 381.3888 284.568908 
L 381.7856 285.791585 
L 382.1824 286.007351 
L 382.5792 284.568908 
L 382.976 285.144285 
L 383.3728 285.28813 
L 383.7696 285.935429 
L 384.1664 286.007351 
L 384.5632 284.856597 
L 384.96 286.29504 
L 385.3568 286.223118 
L 385.7536 286.870417 
L 386.1504 286.942339 
L 386.944 284.856597 
L 387.3408 284.568908 
L 387.7376 286.798495 
L 388.1344 284.568908 
L 388.5312 285.072363 
L 388.928 284.64083 
L 389.7216 286.151196 
L 390.5152 284.856597 
L 390.912 287.158106 
L 391.3088 284.425064 
L 391.7056 286.870417 
L 392.1024 284.568908 
L 392.4992 284.928519 
L 392.896 285.791585 
L 393.2928 286.079274 
L 393.6896 285.216208 
L 394.0864 285.28813 
L 394.4832 284.712752 
L 394.88 286.582729 
L 395.2768 286.798495 
L 396.0704 285.072363 
L 396.4672 286.798495 
L 396.864 283.849686 
L 397.2608 286.079274 
L 397.6576 285.791585 
L 398.0544 286.726573 
L 398.4512 286.582729 
L 398.848 285.647741 
L 399.2448 285.000441 
L 399.6416 286.870417 
L 400.4352 286.29504 
L 400.832 285.144285 
L 401.2288 286.438884 
L 402.0224 285.28813 
L 402.4192 284.425064 
L 402.816 286.079274 
L 403.2128 286.798495 
L 403.6096 284.928519 
L 404.0064 286.151196 
L 404.4032 284.856597 
L 404.8 284.64083 
L 405.5936 285.360052 
L 405.9904 285.28813 
L 406.3872 285.575818 
L 406.784 286.079274 
L 407.1808 283.849686 
L 407.5776 286.007351 
L 408.3712 284.856597 
L 408.768 285.216208 
L 409.1648 285.791585 
L 409.5616 285.216208 
L 409.9584 285.791585 
L 410.3552 283.202387 
L 411.1488 286.582729 
L 411.5456 284.712752 
L 411.9424 286.654651 
L 412.3392 286.798495 
L 412.736 285.647741 
L 413.1328 283.993531 
L 413.5296 285.647741 
L 413.9264 285.072363 
L 414.3232 286.942339 
L 414.72 285.647741 
L 415.1168 286.870417 
L 415.5136 286.510806 
L 415.9104 286.798495 
L 416.3072 286.223118 
L 416.704 284.928519 
L 417.1008 286.366962 
L 417.4976 285.935429 
L 417.8944 286.223118 
L 418.2912 285.072363 
L 418.688 286.151196 
L 419.0848 284.281219 
L 419.4816 283.849686 
L 419.8784 286.151196 
L 420.2752 286.438884 
L 420.672 284.712752 
L 421.0688 285.719663 
L 421.4656 286.079274 
L 421.8624 286.079274 
L 422.2592 285.360052 
L 422.656 285.28813 
L 423.0528 285.647741 
L 423.4496 286.438884 
L 423.8464 285.791585 
L 424.2432 285.575818 
L 425.0368 284.209297 
L 425.4336 286.151196 
L 425.4336 286.151196 
" style="fill:none;stroke:#1f77b4;stroke-linecap:square;stroke-width:1.2;"/>
   </g>
   <g id="patch_3">
    <path d="M 57.6 307.584 
L 57.6 41.472 
" style="fill:none;stroke:#000000;stroke-linecap:square;stroke-linejoin:miter;"/>
   </g>
   <g id="patch_4">
    <path d="M 414.72 307.584 
L 414.72 41.472 
" style="fill:none;stroke:#000000;stroke-linecap:square;stroke-linejoin:miter;"/>
   </g>
   <g id="patch_5">
    <path d="M 57.6 307.584 
L 414.72 307.584 
" style="fill:none;stroke:#000000;stroke-linecap:square;stroke-linejoin:miter;"/>
   </g>
   <g id="patch_6">
    <path d="M 57.6 41.472 
L 414.72 41.472 
" style="fill:none;stroke:#000000;stroke-linecap:square;stroke-linejoin:miter;"/>
   </g>
   <g id="text_21">
    <!-- Training - NSRA-ES - Slimevolley (metapopulation size 10) -->
    <g transform="translate(97.57425 35.472)scale(0.096 -0.096)">
     <defs>
      <path d="M 3513 2113 
L 3513 0 
L 2938 0 
L 2938 2094 
Q 2938 2591 2744 2837 
Q 2550 3084 2163 3084 
Q 1697 3084 1428 2787 
Q 1159 2491 1159 1978 
L 1159 0 
L 581 0 
L 581 3500 
L 1159 3500 
L 1159 2956 
Q 1366 3272 1645 3428 
Q 1925 3584 2291 3584 
Q 2894 3584 3203 3211 
Q 3513 2838 3513 2113 
z
" id="DejaVuSans-6e" transform="scale(0.015625)"/>
      <path d="M 2906 1791 
Q 2906 2416 2648 2759 
Q 2391 3103 1925 3103 
Q 1463 3103 1205 2759 
Q 947 2416 947 1791 
Q 947 1169 1205 825 
Q 1463 481 1925 481 
Q 2391 481 2648 825 
Q 2906 1169 2906 1791 
z
M 3481 434 
Q 3481 -459 3084 -895 
Q 2688 -1331 1869 -1331 
Q 1566 -1331 1297 -1286 
Q 1028 -1241 775 -1147 
L 775 -588 
Q 1028 -725 1275 -790 
Q 1522 -856 1778 -856 
Q 2344 -856 2625 -561 
Q 2906 -266 2906 331 
L 2906 616 
Q 2728 306 2450 153 
Q 2172 0 1784 0 
Q 1141 0 747 490 
Q 353 981 353 1791 
Q 353 2603 747 3093 
Q 1141 3584 1784 3584 
Q 2172 3584 2450 3431 
Q 2728 3278 2906 2969 
L 2906 3500 
L 3481 3500 
L 3481 434 
z
" id="DejaVuSans-67" transform="scale(0.015625)"/>
      <path id="DejaVuSans-20" transform="scale(0.015625)"/>
      <path d="M 313 2009 
L 1997 2009 
L 1997 1497 
L 313 1497 
L 313 2009 
z
" id="DejaVuSans-2d" transform="scale(0.015625)"/>
      <path d="M 628 4666 
L 1478 4666 
L 3547 763 
L 3547 4666 
L 4159 4666 
L 4159 0 
L 3309 0 
L 1241 3903 
L 1241 0 
L 628 0 
L 628 4666 
z
" id="DejaVuSans-4e" transform="scale(0.015625)"/>
      <path d="M 3425 4513 
L 3425 3897 
Q 3066 4069 2747 4153 
Q 2428 4238 2131 4238 
Q 1616 4238 1336 4038 
Q 1056 3838 1056 3469 
Q 1056 3159 1242 3001 
Q 1428 2844 1947 2747 
L 2328 2669 
Q 3034 2534 3370 2195 
Q 3706 1856 3706 1288 
Q 3706 609 3251 259 
Q 2797 -91 1919 -91 
Q 1588 -91 1214 -16 
Q 841 59 441 206 
L 441 856 
Q 825 641 1194 531 
Q 1563 422 1919 422 
Q 2459 422 2753 634 
Q 3047 847 3047 1241 
Q 3047 1584 2836 1778 
Q 2625 1972 2144 2069 
L 1759 2144 
Q 1053 2284 737 2584 
Q 422 2884 422 3419 
Q 422 4038 858 4394 
Q 1294 4750 2059 4750 
Q 2388 4750 2728 4690 
Q 3069 4631 3425 4513 
z
" id="DejaVuSans-53" transform="scale(0.015625)"/>
      <path d="M 2188 4044 
L 1331 1722 
L 3047 1722 
L 2188 4044 
z
M 1831 4666 
L 2547 4666 
L 4325 0 
L 3669 0 
L 3244 1197 
L 1141 1197 
L 716 0 
L 50 0 
L 1831 4666 
z
" id="DejaVuSans-41" transform="scale(0.015625)"/>
      <path d="M 628 4666 
L 3578 4666 
L 3578 4134 
L 1259 4134 
L 1259 2753 
L 3481 2753 
L 3481 2222 
L 1259 2222 
L 1259 531 
L 3634 531 
L 3634 0 
L 628 0 
L 628 4666 
z
" id="DejaVuSans-45" transform="scale(0.015625)"/>
      <path d="M 603 4863 
L 1178 4863 
L 1178 0 
L 603 0 
L 603 4863 
z
" id="DejaVuSans-6c" transform="scale(0.015625)"/>
      <path d="M 191 3500 
L 800 3500 
L 1894 563 
L 2988 3500 
L 3597 3500 
L 2284 0 
L 1503 0 
L 191 3500 
z
" id="DejaVuSans-76" transform="scale(0.015625)"/>
      <path d="M 1959 3097 
Q 1497 3097 1228 2736 
Q 959 2375 959 1747 
Q 959 1119 1226 758 
Q 1494 397 1959 397 
Q 2419 397 2687 759 
Q 2956 1122 2956 1747 
Q 2956 2369 2687 2733 
Q 2419 3097 1959 3097 
z
M 1959 3584 
Q 2709 3584 3137 3096 
Q 3566 2609 3566 1747 
Q 3566 888 3137 398 
Q 2709 -91 1959 -91 
Q 1206 -91 779 398 
Q 353 888 353 1747 
Q 353 2609 779 3096 
Q 1206 3584 1959 3584 
z
" id="DejaVuSans-6f" transform="scale(0.015625)"/>
      <path d="M 2059 -325 
Q 1816 -950 1584 -1140 
Q 1353 -1331 966 -1331 
L 506 -1331 
L 506 -850 
L 844 -850 
Q 1081 -850 1212 -737 
Q 1344 -625 1503 -206 
L 1606 56 
L 191 3500 
L 800 3500 
L 1894 763 
L 2988 3500 
L 3597 3500 
L 2059 -325 
z
" id="DejaVuSans-79" transform="scale(0.015625)"/>
      <path d="M 1984 4856 
Q 1566 4138 1362 3434 
Q 1159 2731 1159 2009 
Q 1159 1288 1364 580 
Q 1569 -128 1984 -844 
L 1484 -844 
Q 1016 -109 783 600 
Q 550 1309 550 2009 
Q 550 2706 781 3412 
Q 1013 4119 1484 4856 
L 1984 4856 
z
" id="DejaVuSans-28" transform="scale(0.015625)"/>
      <path d="M 544 1381 
L 544 3500 
L 1119 3500 
L 1119 1403 
Q 1119 906 1312 657 
Q 1506 409 1894 409 
Q 2359 409 2629 706 
Q 2900 1003 2900 1516 
L 2900 3500 
L 3475 3500 
L 3475 0 
L 2900 0 
L 2900 538 
Q 2691 219 2414 64 
Q 2138 -91 1772 -91 
Q 1169 -91 856 284 
Q 544 659 544 1381 
z
M 1991 3584 
L 1991 3584 
z
" id="DejaVuSans-75" transform="scale(0.015625)"/>
      <path d="M 353 3500 
L 3084 3500 
L 3084 2975 
L 922 459 
L 3084 459 
L 3084 0 
L 275 0 
L 275 525 
L 2438 3041 
L 353 3041 
L 353 3500 
z
" id="DejaVuSans-7a" transform="scale(0.015625)"/>
      <path d="M 513 4856 
L 1013 4856 
Q 1481 4119 1714 3412 
Q 1947 2706 1947 2009 
Q 1947 1309 1714 600 
Q 1481 -109 1013 -844 
L 513 -844 
Q 928 -128 1133 580 
Q 1338 1288 1338 2009 
Q 1338 2731 1133 3434 
Q 928 4138 513 4856 
z
" id="DejaVuSans-29" transform="scale(0.015625)"/>
     </defs>
     <use xlink:href="#DejaVuSans-54"/>
     <use x="46.333984" xlink:href="#DejaVuSans-72"/>
     <use x="87.447266" xlink:href="#DejaVuSans-61"/>
     <use x="148.726562" xlink:href="#DejaVuSans-69"/>
     <use x="176.509766" xlink:href="#DejaVuSans-6e"/>
     <use x="239.888672" xlink:href="#DejaVuSans-69"/>
     <use x="267.671875" xlink:href="#DejaVuSans-6e"/>
     <use x="331.050781" xlink:href="#DejaVuSans-67"/>
     <use x="394.527344" xlink:href="#DejaVuSans-20"/>
     <use x="426.314453" xlink:href="#DejaVuSans-2d"/>
     <use x="462.398438" xlink:href="#DejaVuSans-20"/>
     <use x="494.185547" xlink:href="#DejaVuSans-4e"/>
     <use x="568.990234" xlink:href="#DejaVuSans-53"/>
     <use x="632.466797" xlink:href="#DejaVuSans-52"/>
     <use x="697.949219" xlink:href="#DejaVuSans-41"/>
     <use x="764.107422" xlink:href="#DejaVuSans-2d"/>
     <use x="800.191406" xlink:href="#DejaVuSans-45"/>
     <use x="863.375" xlink:href="#DejaVuSans-53"/>
     <use x="926.851562" xlink:href="#DejaVuSans-20"/>
     <use x="958.638672" xlink:href="#DejaVuSans-2d"/>
     <use x="994.722656" xlink:href="#DejaVuSans-20"/>
     <use x="1026.509766" xlink:href="#DejaVuSans-53"/>
     <use x="1089.986328" xlink:href="#DejaVuSans-6c"/>
     <use x="1117.769531" xlink:href="#DejaVuSans-69"/>
     <use x="1145.552734" xlink:href="#DejaVuSans-6d"/>
     <use x="1242.964844" xlink:href="#DejaVuSans-65"/>
     <use x="1304.488281" xlink:href="#DejaVuSans-76"/>
     <use x="1363.667969" xlink:href="#DejaVuSans-6f"/>
     <use x="1424.849609" xlink:href="#DejaVuSans-6c"/>
     <use x="1452.632812" xlink:href="#DejaVuSans-6c"/>
     <use x="1480.416016" xlink:href="#DejaVuSans-65"/>
     <use x="1541.939453" xlink:href="#DejaVuSans-79"/>
     <use x="1601.119141" xlink:href="#DejaVuSans-20"/>
     <use x="1632.90625" xlink:href="#DejaVuSans-28"/>
     <use x="1671.919922" xlink:href="#DejaVuSans-6d"/>
     <use x="1769.332031" xlink:href="#DejaVuSans-65"/>
     <use x="1830.855469" xlink:href="#DejaVuSans-74"/>
     <use x="1870.064453" xlink:href="#DejaVuSans-61"/>
     <use x="1931.34375" xlink:href="#DejaVuSans-70"/>
     <use x="1994.820312" xlink:href="#DejaVuSans-6f"/>
     <use x="2056.001953" xlink:href="#DejaVuSans-70"/>
     <use x="2119.478516" xlink:href="#DejaVuSans-75"/>
     <use x="2182.857422" xlink:href="#DejaVuSans-6c"/>
     <use x="2210.640625" xlink:href="#DejaVuSans-61"/>
     <use x="2271.919922" xlink:href="#DejaVuSans-74"/>
     <use x="2311.128906" xlink:href="#DejaVuSans-69"/>
     <use x="2338.912109" xlink:href="#DejaVuSans-6f"/>
     <use x="2400.09375" xlink:href="#DejaVuSans-6e"/>
     <use x="2463.472656" xlink:href="#DejaVuSans-20"/>
     <use x="2495.259766" xlink:href="#DejaVuSans-73"/>
     <use x="2547.359375" xlink:href="#DejaVuSans-69"/>
     <use x="2575.142578" xlink:href="#DejaVuSans-7a"/>
     <use x="2627.632812" xlink:href="#DejaVuSans-65"/>
     <use x="2689.15625" xlink:href="#DejaVuSans-20"/>
     <use x="2720.943359" xlink:href="#DejaVuSans-31"/>
     <use x="2784.566406" xlink:href="#DejaVuSans-30"/>
     <use x="2848.189453" xlink:href="#DejaVuSans-29"/>
    </g>
   </g>
  </g>
 </g>
 <defs>
  <clipPath id="p9a390a8c76">
   <rect height="266.112" width="357.12" x="57.6" y="41.472"/>
  </clipPath>
 </defs>
</svg>
