<?xml version="1.0" encoding="utf-8" standalone="no"?>
<!DOCTYPE svg PUBLIC "-//W3C//DTD SVG 1.1//EN"
  "http://www.w3.org/Graphics/SVG/1.1/DTD/svg11.dtd">
<svg height="345.6pt" version="1.1" viewBox="0 0 460.8 345.6" width="460.8pt" xmlns="http://www.w3.org/2000/svg" xmlns:xlink="http://www.w3.org/1999/xlink">
 <metadata>
  <rdf:RDF xmlns:cc="http://creativecommons.org/ns#" xmlns:dc="http://purl.org/dc/elements/1.1/" xmlns:rdf="http://www.w3.org/1999/02/22-rdf-syntax-ns#">
   <cc:Work>
    <dc:type rdf:resource="http://purl.org/dc/dcmitype/StillImage"/>
    <dc:date>2021-07-22T00:42:24.492487</dc:date>
    <dc:format>image/svg+xml</dc:format>
    <dc:creator>
     <cc:Agent>
      <dc:title>Matplotlib v3.4.2, https://matplotlib.org/</dc:title>
     </cc:Agent>
    </dc:creator>
   </cc:Work>
  </rdf:RDF>
 </metadata>
 <defs>
  <style type="text/css">*{stroke-linecap:butt;stroke-linejoin:round;}</style>
 </defs>
 <g id="figure_1">
  <g id="patch_1">
   <path d="M 0 345.6 
L 460.8 345.6 
L 460.8 0 
L 0 0 
z
" style="fill:#ffffff;"/>
  </g>
  <g id="axes_1">
   <g id="patch_2">
    <path d="M 57.6 307.584 
L 414.72 307.584 
L 414.72 41.472 
L 57.6 41.472 
z
" style="fill:#ffffff;"/>
   </g>
   <g id="PolyCollection_1">
    <path clip-path="url(#p6ef5c2af7f)" d="M 73.832727 303.570366 
L 73.832727 304.437226 
L 74.157707 305.007371 
L 74.482686 304.496436 
L 74.807666 303.436644 
L 75.132645 302.33361 
L 75.457625 300.310494 
L 75.782604 297.063262 
L 76.107584 294.778691 
L 76.432563 293.923806 
L 76.757543 293.221935 
L 77.082523 291.170212 
L 77.407502 291.419692 
L 77.732482 290.375868 
L 78.057461 289.712583 
L 78.382441 289.222272 
L 78.70742 289.191004 
L 79.0324 287.632918 
L 79.357379 286.775372 
L 79.682359 287.955579 
L 80.007338 284.910592 
L 80.332318 285.496039 
L 80.657297 283.603317 
L 80.982277 283.295958 
L 81.307256 280.79517 
L 81.632236 279.427355 
L 81.957215 276.056381 
L 82.282195 275.957919 
L 82.607174 275.824863 
L 82.932154 275.58004 
L 83.257133 274.656632 
L 83.582113 273.093889 
L 83.907093 271.547113 
L 84.232072 264.728658 
L 84.557052 268.721669 
L 84.882031 266.089156 
L 85.207011 265.465788 
L 85.53199 263.298972 
L 85.85697 262.184628 
L 86.181949 255.535154 
L 86.506929 254.319022 
L 86.831908 250.633371 
L 87.156888 252.039773 
L 87.481867 245.402274 
L 87.806847 244.17949 
L 88.131826 237.152802 
L 88.456806 242.810343 
L 88.781785 236.144903 
L 89.106765 238.535919 
L 89.431744 236.8022 
L 89.756724 239.224484 
L 90.081704 231.532517 
L 90.406683 231.803951 
L 90.731663 229.887279 
L 91.056642 227.745743 
L 91.381622 225.073313 
L 91.706601 228.848112 
L 92.031581 223.872483 
L 92.35656 219.29203 
L 92.68154 223.74608 
L 93.006519 220.815521 
L 93.331499 217.539017 
L 93.656478 217.684714 
L 93.981458 216.020848 
L 94.306437 213.40031 
L 94.631417 215.49062 
L 94.956396 206.226596 
L 95.281376 206.299112 
L 95.606355 209.139857 
L 95.931335 214.26717 
L 96.256314 206.19932 
L 96.581294 200.443982 
L 96.906274 203.984603 
L 97.231253 202.247556 
L 97.556233 201.527724 
L 97.881212 197.536709 
L 98.206192 199.529222 
L 98.531171 202.604147 
L 98.856151 201.884979 
L 99.18113 200.134627 
L 99.50611 204.999155 
L 99.831089 197.638497 
L 100.156069 195.383197 
L 100.481048 197.899952 
L 100.806028 193.103283 
L 101.131007 194.01006 
L 101.455987 195.802989 
L 101.780966 194.976711 
L 102.105946 191.863866 
L 102.430925 192.326236 
L 102.755905 191.845238 
L 103.080885 190.273847 
L 103.405864 194.427855 
L 103.730844 187.501625 
L 104.055823 192.988855 
L 104.380803 189.65048 
L 104.705782 186.731896 
L 105.030762 190.261207 
L 105.355741 185.461212 
L 105.680721 183.388864 
L 106.0057 183.233854 
L 106.33068 179.764419 
L 106.655659 178.687996 
L 106.980639 177.139889 
L 107.305618 177.866375 
L 107.630598 182.374978 
L 107.955577 175.052906 
L 108.280557 179.341966 
L 108.605536 175.796024 
L 108.930516 174.765505 
L 109.255495 175.726835 
L 109.580475 174.128167 
L 109.905455 175.307708 
L 110.230434 173.48218 
L 110.555414 176.47594 
L 110.880393 173.089665 
L 111.205373 174.266545 
L 111.530352 169.774574 
L 111.855332 168.060813 
L 112.180311 170.739896 
L 112.505291 171.698564 
L 112.83027 170.635447 
L 113.15525 171.281434 
L 113.480229 172.142306 
L 113.805209 170.998024 
L 114.130188 172.768334 
L 114.455168 164.456991 
L 114.780147 165.83279 
L 115.105127 162.82639 
L 115.430106 165.482188 
L 115.755086 164.281357 
L 116.080066 164.361191 
L 116.405045 161.027473 
L 116.730025 161.736661 
L 117.055004 158.361696 
L 117.379984 160.608347 
L 117.704963 156.868808 
L 118.029943 155.475711 
L 118.354922 157.446936 
L 118.679902 155.145067 
L 119.004881 160.20186 
L 119.329861 155.443113 
L 119.65484 157.560699 
L 119.97982 153.304903 
L 120.304799 153.938915 
L 120.629779 153.74931 
L 120.954758 153.990141 
L 121.279738 153.728686 
L 121.604717 150.900581 
L 121.929697 153.021493 
L 122.254676 148.515552 
L 122.579656 149.791559 
L 122.904636 149.724366 
L 123.229615 149.40237 
L 123.554595 149.072391 
L 123.879574 149.248691 
L 124.204554 149.505489 
L 124.529533 147.343994 
L 124.854513 144.686866 
L 125.179492 147.711894 
L 125.504472 144.372853 
L 125.829451 144.71015 
L 126.154431 145.90832 
L 126.47941 141.123626 
L 126.80439 141.673147 
L 127.129369 141.277971 
L 127.454349 139.856268 
L 127.779328 136.348911 
L 128.104308 139.022006 
L 128.429287 137.350158 
L 128.754267 139.319387 
L 129.079247 138.834397 
L 129.404226 137.429326 
L 129.729206 138.95947 
L 130.054185 135.471407 
L 130.379165 135.942425 
L 130.704144 134.852697 
L 131.029124 134.677728 
L 131.354103 134.096273 
L 131.679083 132.802304 
L 132.004062 132.489622 
L 132.329042 136.623007 
L 132.654021 132.628666 
L 132.979001 134.444215 
L 133.30398 134.029745 
L 133.62896 131.551577 
L 133.953939 131.881556 
L 134.278919 132.476316 
L 134.603898 131.562887 
L 134.928878 132.93669 
L 135.253857 130.130539 
L 135.578837 131.912159 
L 135.903817 128.839896 
L 136.228796 129.414033 
L 136.553776 128.68289 
L 136.878755 126.396988 
L 137.203735 126.869337 
L 137.528714 127.412205 
L 137.853694 124.931376 
L 138.178673 127.240563 
L 138.503653 128.095448 
L 138.828632 125.433662 
L 139.153612 126.444888 
L 139.478591 126.608547 
L 139.803571 126.512747 
L 140.12855 122.546347 
L 140.45353 125.103018 
L 140.778509 127.309087 
L 141.103489 123.062604 
L 141.428468 125.075076 
L 141.753448 129.330207 
L 142.078428 125.120981 
L 142.403407 125.085721 
L 142.728387 123.177698 
L 143.053366 123.006056 
L 143.378346 121.802564 
L 143.703325 123.449797 
L 144.028305 122.872334 
L 144.353284 122.278239 
L 144.678264 124.051876 
L 145.003243 123.542271 
L 145.328223 121.747346 
L 145.653202 127.316405 
L 145.978182 121.117326 
L 146.303161 123.76514 
L 146.628141 121.43533 
L 146.95312 120.998241 
L 147.2781 121.636909 
L 147.603079 122.702688 
L 147.928059 121.066099 
L 148.253038 119.663024 
L 148.578018 120.02294 
L 148.902998 121.219779 
L 149.227977 120.032254 
L 149.552957 122.217699 
L 149.877936 122.503769 
L 150.202916 118.448888 
L 150.527895 117.05313 
L 150.852875 116.425771 
L 151.177854 117.880739 
L 151.502834 117.073089 
L 151.827813 117.392423 
L 152.152793 118.112921 
L 152.477772 114.299536 
L 152.802752 116.213547 
L 153.127731 113.581699 
L 153.452711 116.184275 
L 153.77769 116.44573 
L 154.10267 119.486724 
L 154.427649 115.104525 
L 154.752629 118.65712 
L 155.077609 114.338788 
L 155.402588 118.91791 
L 155.727568 116.392507 
L 156.052547 120.656952 
L 156.377527 114.888309 
L 156.702506 115.350679 
L 157.027486 115.990678 
L 157.352465 116.689887 
L 157.677445 115.230263 
L 158.002424 113.915004 
L 158.327404 112.288395 
L 158.652383 112.587106 
L 158.977363 112.357584 
L 159.302342 114.173133 
L 159.627322 117.679824 
L 159.952301 122.368052 
L 160.277281 117.892048 
L 160.60226 120.85321 
L 160.92724 121.078074 
L 161.252219 115.324733 
L 161.577199 117.256041 
L 161.902179 122.680068 
L 162.227158 118.978451 
L 162.552138 113.561076 
L 162.877117 115.95941 
L 163.202097 126.349753 
L 163.527076 117.376456 
L 163.852056 112.734132 
L 164.177035 114.768559 
L 164.502015 113.805899 
L 164.826994 113.861117 
L 165.151974 111.068937 
L 165.476953 113.792593 
L 165.801933 108.195592 
L 166.126912 108.349937 
L 166.451892 108.208233 
L 166.776871 108.120416 
L 167.101851 107.387277 
L 167.42683 107.785115 
L 167.75181 107.588857 
L 168.07679 108.304698 
L 168.401769 106.688068 
L 168.726749 107.47709 
L 169.051728 106.660791 
L 169.376708 107.065947 
L 169.701687 106.455885 
L 170.026667 104.80466 
L 170.351646 106.697382 
L 170.676626 106.49181 
L 171.001605 106.164492 
L 171.326585 105.440003 
L 171.651564 105.225117 
L 171.976544 105.755345 
L 172.301523 104.621043 
L 172.626503 104.920419 
L 172.951482 105.450647 
L 173.276462 104.607072 
L 173.601441 105.358838 
L 173.926421 105.911686 
L 174.2514 106.156509 
L 174.57638 105.518506 
L 174.90136 104.937716 
L 175.226339 104.279089 
L 175.551319 105.068111 
L 175.876298 104.162 
L 176.201278 103.762832 
L 176.526257 104.868527 
L 176.851237 107.155094 
L 177.176216 106.929564 
L 177.501196 106.221707 
L 177.826175 104.922415 
L 178.151155 105.318256 
L 178.476134 104.812644 
L 178.801114 106.048068 
L 179.126093 106.605573 
L 179.451073 106.972808 
L 179.776052 106.59892 
L 180.101032 104.672935 
L 180.426011 104.37622 
L 180.750991 107.392599 
L 181.075971 109.607316 
L 181.40095 105.739379 
L 181.72593 104.571147 
L 182.050909 108.313347 
L 182.375889 105.085408 
L 182.700868 104.396178 
L 183.025848 106.421291 
L 183.350827 105.81522 
L 183.675807 103.576553 
L 184.000786 103.147448 
L 184.325766 104.07884 
L 184.650745 103.468113 
L 184.975725 103.796096 
L 185.300704 103.48674 
L 185.625684 103.09356 
L 185.950663 103.682333 
L 186.275643 104.036262 
L 186.600622 103.957759 
L 186.925602 109.313263 
L 187.250581 105.307612 
L 187.575561 114.638164 
L 187.900541 109.910684 
L 188.22552 113.23908 
L 188.5505 114.956833 
L 188.875479 121.188511 
L 189.200459 116.249472 
L 189.525438 113.372136 
L 189.850418 109.071101 
L 190.175397 123.156409 
L 190.500377 118.131549 
L 190.825356 112.244486 
L 191.150336 113.049475 
L 191.475315 119.626433 
L 191.800295 121.758656 
L 192.125274 136.115398 
L 192.450254 126.787507 
L 192.775233 136.09677 
L 193.100213 130.507088 
L 193.425192 132.564133 
L 193.750172 165.985805 
L 194.075152 197.256626 
L 194.400131 237.678373 
L 194.725111 255.62031 
L 195.05009 258.972656 
L 195.37507 258.536232 
L 195.700049 260.08833 
L 196.025029 257.648748 
L 196.350008 258.367251 
L 196.674988 270.084162 
L 196.999967 289.307428 
L 197.324947 303.441301 
L 197.649926 305.110489 
L 197.974906 305.395894 
L 198.299885 305.384584 
L 198.624865 305.408534 
L 198.949844 305.32604 
L 199.274824 305.379927 
L 199.599803 305.376601 
L 199.924783 305.378597 
L 200.249762 305.377932 
L 200.574742 305.405208 
L 200.899722 305.367287 
L 201.224701 305.400551 
L 201.549681 305.392568 
L 201.87466 305.405208 
L 202.19964 305.404543 
L 202.524619 305.42184 
L 202.849599 305.417848 
L 203.174578 305.392568 
L 203.499558 305.428493 
L 203.824537 305.38525 
L 204.149517 305.390572 
L 204.474496 305.401882 
L 204.799476 305.398555 
L 205.124455 305.396559 
L 205.449435 305.391237 
L 205.774414 305.411861 
L 206.099394 305.419179 
L 206.424373 305.395894 
L 206.749353 305.413191 
L 207.074333 305.407204 
L 207.399312 305.401216 
L 207.724292 305.391237 
L 208.049271 305.429823 
L 208.374251 305.391902 
L 208.69923 305.401882 
L 209.02421 305.413857 
L 209.349189 305.407869 
L 209.674169 305.401882 
L 209.999148 305.390572 
L 210.324128 305.401216 
L 210.649107 305.389907 
L 210.974087 305.423836 
L 211.299066 305.403877 
L 211.624046 305.387911 
L 211.949025 305.404543 
L 212.274005 305.404543 
L 212.598984 305.396559 
L 212.923964 305.394564 
L 213.248943 305.395229 
L 213.573923 305.431154 
L 213.898903 305.39789 
L 214.223882 305.4092 
L 214.548862 305.401216 
L 214.873841 305.4571 
L 215.198821 305.409865 
L 215.5238 305.41053 
L 215.84878 305.413857 
L 216.173759 305.403212 
L 216.498739 305.401882 
L 216.823718 305.400551 
L 217.148698 305.415187 
L 217.473677 305.427828 
L 217.798657 305.425832 
L 218.123636 305.436476 
L 218.448616 305.423836 
L 218.773595 305.441133 
L 219.098575 305.419179 
L 219.423554 305.39789 
L 219.748534 305.4092 
L 220.073514 305.425166 
L 220.398493 305.395894 
L 220.723473 305.407204 
L 221.048452 305.417183 
L 221.373432 305.413857 
L 221.698411 305.408534 
L 222.023391 305.372609 
L 222.34837 305.422505 
L 222.67335 305.423836 
L 222.998329 305.409865 
L 223.323309 305.405208 
L 223.648288 305.429823 
L 223.973268 305.411196 
L 224.298247 305.408534 
L 224.623227 305.393233 
L 224.948206 305.419179 
L 225.273186 305.417183 
L 225.598165 305.39922 
L 225.923145 305.404543 
L 226.248124 305.41053 
L 226.573104 305.436476 
L 226.898084 305.396559 
L 227.223063 305.425832 
L 227.548043 305.417183 
L 227.873022 305.408534 
L 228.198002 305.427828 
L 228.522981 305.411861 
L 228.847961 305.42184 
L 229.17294 305.411861 
L 229.49792 305.42184 
L 229.822899 305.405873 
L 230.147879 305.393898 
L 230.472858 305.416518 
L 230.797838 305.427162 
L 231.122817 305.419844 
L 231.447797 305.451112 
L 231.772776 305.437807 
L 232.097756 305.424501 
L 232.422735 305.407204 
L 232.747715 305.438472 
L 233.072695 305.446455 
L 233.397674 305.425832 
L 233.722654 305.406539 
L 234.047633 305.405208 
L 234.372613 305.39789 
L 234.697592 305.418514 
L 235.022572 305.435146 
L 235.347551 305.411861 
L 235.672531 305.411861 
L 235.99751 305.43315 
L 236.32249 305.413191 
L 236.647469 305.415187 
L 236.972449 305.4092 
L 237.297428 305.456435 
L 237.622408 305.435811 
L 237.947387 305.416518 
L 238.272367 305.420509 
L 238.597346 305.422505 
L 238.922326 305.413857 
L 239.247305 305.416518 
L 239.572285 305.412526 
L 239.897265 305.421175 
L 240.222244 305.422505 
L 240.547224 305.431819 
L 240.872203 305.440468 
L 241.197183 305.433815 
L 241.522162 305.433815 
L 241.847142 305.42184 
L 242.172121 305.419179 
L 242.497101 305.394564 
L 242.82208 305.416518 
L 243.14706 305.420509 
L 243.472039 305.411196 
L 243.797019 305.411196 
L 244.121998 305.426497 
L 244.446978 305.431154 
L 244.771957 305.435811 
L 245.096937 305.412526 
L 245.421916 305.439137 
L 245.746896 305.423836 
L 246.071876 305.423171 
L 246.396855 305.401882 
L 246.721835 305.448451 
L 247.046814 305.429823 
L 247.371794 305.454439 
L 247.696773 305.42184 
L 248.021753 305.415852 
L 248.346732 305.436476 
L 248.671712 305.430489 
L 248.996691 305.407869 
L 249.321671 305.43448 
L 249.64665 305.419844 
L 249.97163 305.427828 
L 250.296609 305.405873 
L 250.621589 305.415187 
L 250.946568 305.422505 
L 251.271548 305.415852 
L 251.596527 305.408534 
L 251.921507 305.425832 
L 252.246486 305.431819 
L 252.571466 305.406539 
L 252.896446 305.430489 
L 253.221425 305.440468 
L 253.546405 305.411861 
L 253.871384 305.440468 
L 254.196364 305.463753 
L 254.521343 305.412526 
L 254.846323 305.430489 
L 255.171302 305.422505 
L 255.496282 305.413857 
L 255.821261 305.409865 
L 256.146241 305.411196 
L 256.47122 305.419844 
L 256.7962 305.398555 
L 257.121179 305.424501 
L 257.446159 305.416518 
L 257.771138 305.425832 
L 258.096118 305.421175 
L 258.421097 305.412526 
L 258.746077 305.425166 
L 259.071057 305.407204 
L 259.396036 305.432484 
L 259.721016 305.411861 
L 260.045995 305.425166 
L 260.370975 305.432484 
L 260.695954 305.417183 
L 261.020934 305.433815 
L 261.345913 305.416518 
L 261.670893 305.415187 
L 261.995872 305.411196 
L 262.320852 305.39789 
L 262.645831 305.418514 
L 262.970811 305.431154 
L 263.29579 305.414522 
L 263.62077 305.433815 
L 263.945749 305.429158 
L 264.270729 305.432484 
L 264.595708 305.442464 
L 264.920688 305.418514 
L 265.245667 305.423836 
L 265.570647 305.419844 
L 265.895627 305.422505 
L 266.220606 305.427162 
L 266.545586 305.425166 
L 266.870565 305.419179 
L 267.195545 305.428493 
L 267.520524 305.437141 
L 267.845504 305.414522 
L 268.170483 305.413857 
L 268.495463 305.425832 
L 268.820442 305.423836 
L 269.145422 305.448451 
L 269.470401 305.419844 
L 269.795381 305.427162 
L 270.12036 305.427162 
L 270.44534 305.433815 
L 270.770319 305.412526 
L 271.095299 305.453108 
L 271.420278 305.418514 
L 271.745258 305.425832 
L 272.070238 305.431154 
L 272.395217 305.427828 
L 272.720197 305.431154 
L 273.045176 305.424501 
L 273.370156 305.411861 
L 273.695135 305.423171 
L 274.020115 305.418514 
L 274.345094 305.428493 
L 274.670074 305.450447 
L 274.995053 305.429158 
L 275.320033 305.441133 
L 275.645012 305.406539 
L 275.969992 305.42184 
L 276.294971 305.427828 
L 276.619951 305.413857 
L 276.94493 305.414522 
L 277.26991 305.412526 
L 277.594889 305.420509 
L 277.919869 305.435811 
L 278.244848 305.4092 
L 278.569828 305.417183 
L 278.894808 305.429823 
L 279.219787 305.42184 
L 279.544767 305.435146 
L 279.869746 305.435146 
L 280.194726 305.455104 
L 280.519705 305.415187 
L 280.844685 305.424501 
L 281.169664 305.438472 
L 281.494644 305.424501 
L 281.819623 305.419844 
L 282.144603 305.428493 
L 282.469582 305.438472 
L 282.794562 305.411196 
L 283.119541 305.429823 
L 283.444521 305.415187 
L 283.7695 305.414522 
L 284.09448 305.440468 
L 284.419459 305.419179 
L 284.744439 305.427828 
L 285.069419 305.43315 
L 285.394398 305.430489 
L 285.719378 305.417183 
L 286.044357 305.431154 
L 286.369337 305.427828 
L 286.694316 305.427162 
L 287.019296 305.439803 
L 287.344275 305.427162 
L 287.669255 305.427162 
L 287.994234 305.398555 
L 288.319214 305.404543 
L 288.644193 305.433815 
L 288.969173 305.414522 
L 289.294152 305.436476 
L 289.619132 305.437807 
L 289.944111 305.43448 
L 290.269091 305.419844 
L 290.59407 305.409865 
L 290.91905 305.430489 
L 291.244029 305.435811 
L 291.569009 305.427828 
L 291.893989 305.417183 
L 292.218968 305.433815 
L 292.543948 305.424501 
L 292.868927 305.416518 
L 293.193907 305.423171 
L 293.518886 305.431819 
L 293.843866 305.429823 
L 294.168845 305.426497 
L 294.493825 305.422505 
L 294.818804 305.430489 
L 295.143784 305.435811 
L 295.468763 305.416518 
L 295.793743 305.442464 
L 296.118722 305.411196 
L 296.443702 305.415187 
L 296.768681 305.426497 
L 297.093661 305.436476 
L 297.41864 305.425166 
L 297.74362 305.417848 
L 298.0686 305.419844 
L 298.393579 305.42184 
L 298.718559 305.412526 
L 299.043538 305.43315 
L 299.368518 305.411861 
L 299.693497 305.417183 
L 300.018477 305.43315 
L 300.343456 305.414522 
L 300.668436 305.43315 
L 300.993415 305.411196 
L 301.318395 305.435811 
L 301.643374 305.418514 
L 301.968354 305.430489 
L 302.293333 305.422505 
L 302.618313 305.423836 
L 302.943292 305.436476 
L 303.268272 305.430489 
L 303.593251 305.427828 
L 303.918231 305.428493 
L 304.24321 305.43448 
L 304.56819 305.422505 
L 304.89317 305.439803 
L 305.218149 305.415187 
L 305.543129 305.420509 
L 305.868108 305.411861 
L 306.193088 305.440468 
L 306.518067 305.415187 
L 306.843047 305.414522 
L 307.168026 305.427162 
L 307.493006 305.401216 
L 307.817985 305.440468 
L 308.142965 305.43315 
L 308.467944 305.414522 
L 308.792924 305.420509 
L 309.117903 305.417848 
L 309.442883 305.398555 
L 309.767862 305.414522 
L 310.092842 305.437141 
L 310.417821 305.425832 
L 310.742801 305.438472 
L 311.067781 305.416518 
L 311.39276 305.420509 
L 311.71774 305.417183 
L 312.042719 305.4092 
L 312.367699 305.4092 
L 312.692678 305.418514 
L 313.017658 305.427828 
L 313.342637 305.417848 
L 313.667617 305.43315 
L 313.992596 305.4092 
L 314.317576 305.423171 
L 314.642555 305.441133 
L 314.967535 305.423836 
L 315.292514 305.429823 
L 315.617494 305.413857 
L 315.942473 305.431154 
L 316.267453 305.415187 
L 316.592432 305.423836 
L 316.917412 305.422505 
L 317.242391 305.413857 
L 317.567371 305.416518 
L 317.892351 305.435811 
L 318.21733 305.406539 
L 318.54231 305.429158 
L 318.867289 305.413857 
L 319.192269 305.435811 
L 319.517248 305.423836 
L 319.842228 305.437141 
L 320.167207 305.422505 
L 320.492187 305.408534 
L 320.817166 305.437141 
L 321.142146 305.440468 
L 321.467125 305.423171 
L 321.792105 305.427162 
L 322.117084 305.417848 
L 322.442064 305.407869 
L 322.767043 305.428493 
L 323.092023 305.441133 
L 323.417002 305.411861 
L 323.741982 305.427162 
L 324.066962 305.425166 
L 324.391941 305.423171 
L 324.716921 305.441798 
L 325.0419 305.419179 
L 325.36688 305.425166 
L 325.691859 305.454439 
L 326.016839 305.418514 
L 326.341818 305.426497 
L 326.666798 305.430489 
L 326.991777 305.427828 
L 327.316757 305.416518 
L 327.641736 305.422505 
L 327.966716 305.42184 
L 328.291695 305.430489 
L 328.616675 305.437807 
L 328.941654 305.423171 
L 329.266634 305.401882 
L 329.591613 305.431154 
L 329.916593 305.414522 
L 330.241572 305.431154 
L 330.566552 305.427162 
L 330.891532 305.428493 
L 331.216511 305.417848 
L 331.541491 305.425166 
L 331.86647 305.421175 
L 332.19145 305.437141 
L 332.516429 305.425166 
L 332.841409 305.427162 
L 333.166388 305.418514 
L 333.491368 305.430489 
L 333.816347 305.412526 
L 334.141327 305.427828 
L 334.466306 305.419844 
L 334.791286 305.423171 
L 335.116265 305.448451 
L 335.441245 305.417183 
L 335.766224 305.411861 
L 336.091204 305.415187 
L 336.416183 305.404543 
L 336.741163 305.433815 
L 337.066143 305.419179 
L 337.391122 305.423171 
L 337.716102 305.425832 
L 338.041081 305.430489 
L 338.366061 305.428493 
L 338.69104 305.439137 
L 339.01602 305.426497 
L 339.340999 305.419179 
L 339.665979 305.405873 
L 339.990958 305.412526 
L 340.315938 305.415187 
L 340.640917 305.407204 
L 340.965897 305.423836 
L 341.290876 305.428493 
L 341.615856 305.4092 
L 341.940835 305.43448 
L 342.265815 305.419844 
L 342.590794 305.429823 
L 342.915774 305.412526 
L 343.240753 305.417848 
L 343.565733 305.415187 
L 343.890713 305.42184 
L 344.215692 305.43315 
L 344.540672 305.421175 
L 344.865651 305.425166 
L 345.190631 305.417183 
L 345.51561 305.41053 
L 345.84059 305.415852 
L 346.165569 305.425166 
L 346.490549 305.423836 
L 346.815528 305.432484 
L 347.140508 305.425832 
L 347.465487 305.415187 
L 347.790467 305.430489 
L 348.115446 305.411861 
L 348.440426 305.412526 
L 348.765405 305.430489 
L 349.090385 305.414522 
L 349.415364 305.418514 
L 349.740344 305.431819 
L 350.065324 305.428493 
L 350.390303 305.415852 
L 350.715283 305.420509 
L 351.040262 305.403877 
L 351.365242 305.443129 
L 351.690221 305.41053 
L 352.015201 305.411861 
L 352.34018 305.409865 
L 352.66516 305.408534 
L 352.990139 305.435811 
L 353.315119 305.421175 
L 353.640098 305.440468 
L 353.965078 305.420509 
L 354.290057 305.419179 
L 354.615037 305.413191 
L 354.940016 305.427162 
L 355.264996 305.415187 
L 355.589975 305.411196 
L 355.914955 305.418514 
L 356.239934 305.412526 
L 356.564914 305.429823 
L 356.889894 305.429158 
L 357.214873 305.418514 
L 357.539853 305.416518 
L 357.864832 305.426497 
L 358.189812 305.435811 
L 358.514791 305.429823 
L 358.839771 305.414522 
L 359.16475 305.424501 
L 359.48973 305.42184 
L 359.814709 305.417183 
L 360.139689 305.416518 
L 360.464668 305.442464 
L 360.789648 305.425166 
L 361.114627 305.398555 
L 361.439607 305.414522 
L 361.764586 305.433815 
L 362.089566 305.4092 
L 362.414545 305.41053 
L 362.739525 305.423836 
L 363.064505 305.435811 
L 363.389484 305.439137 
L 363.714464 305.427828 
L 364.039443 305.412526 
L 364.364423 305.437807 
L 364.689402 305.429158 
L 365.014382 305.42184 
L 365.339361 305.424501 
L 365.664341 305.42184 
L 365.98932 305.425832 
L 366.3143 305.419179 
L 366.639279 305.43448 
L 366.964259 305.423836 
L 367.289238 305.427828 
L 367.614218 305.432484 
L 367.939197 305.423171 
L 368.264177 305.423171 
L 368.589156 305.425832 
L 368.914136 305.424501 
L 369.239115 305.4092 
L 369.564095 305.405873 
L 369.889075 305.44579 
L 370.214054 305.403877 
L 370.539034 305.427162 
L 370.864013 305.435811 
L 371.188993 305.414522 
L 371.513972 305.440468 
L 371.838952 305.429158 
L 372.163931 305.425166 
L 372.488911 305.4092 
L 372.81389 305.43315 
L 373.13887 305.446455 
L 373.463849 305.420509 
L 373.788829 305.417848 
L 374.113808 305.426497 
L 374.438788 305.424501 
L 374.763767 305.425166 
L 375.088747 305.425832 
L 375.413726 305.425832 
L 375.738706 305.437807 
L 376.063686 305.403877 
L 376.388665 305.424501 
L 376.713645 305.432484 
L 377.038624 305.418514 
L 377.363604 305.419179 
L 377.688583 305.427162 
L 378.013563 305.424501 
L 378.338542 305.421175 
L 378.663522 305.417848 
L 378.988501 305.411196 
L 379.313481 305.413857 
L 379.63846 305.439137 
L 379.96344 305.44446 
L 380.288419 305.422505 
L 380.613399 305.427162 
L 380.938378 305.425832 
L 381.263358 305.429823 
L 381.588337 305.428493 
L 381.913317 305.417183 
L 382.238296 305.425166 
L 382.563276 305.427828 
L 382.888256 305.445125 
L 383.213235 305.413857 
L 383.538215 305.415187 
L 383.863194 305.407204 
L 384.188174 305.419844 
L 384.513153 305.430489 
L 384.838133 305.424501 
L 385.163112 305.411861 
L 385.488092 305.430489 
L 385.813071 305.42184 
L 386.138051 305.406539 
L 386.46303 305.437141 
L 386.78801 305.427162 
L 387.112989 305.413191 
L 387.437969 305.411196 
L 387.762948 305.413857 
L 388.087928 305.427828 
L 388.412907 305.435811 
L 388.737887 305.417183 
L 389.062867 305.417183 
L 389.387846 305.422505 
L 389.712826 305.427162 
L 390.037805 305.424501 
L 390.362785 305.43315 
L 390.687764 305.435146 
L 391.012744 305.428493 
L 391.337723 305.409865 
L 391.662703 305.426497 
L 391.987682 305.435811 
L 392.312662 305.430489 
L 392.637641 305.420509 
L 392.962621 305.417183 
L 393.2876 305.439137 
L 393.61258 305.446455 
L 393.937559 305.443794 
L 394.262539 305.422505 
L 394.587518 305.404543 
L 394.912498 305.419179 
L 395.237477 305.409865 
L 395.562457 305.439803 
L 395.887437 305.427828 
L 396.212416 305.411861 
L 396.537396 305.422505 
L 396.862375 305.413191 
L 397.187355 305.428493 
L 397.512334 305.431819 
L 397.837314 305.422505 
L 398.162293 305.422505 
L 398.487273 305.415852 
L 398.487273 147.054597 
L 398.487273 147.054597 
L 398.162293 146.697342 
L 397.837314 146.799795 
L 397.512334 148.055178 
L 397.187355 147.223578 
L 396.862375 147.027986 
L 396.537396 146.974098 
L 396.212416 147.535595 
L 395.887437 147.42915 
L 395.562457 147.383911 
L 395.237477 147.365948 
L 394.912498 147.192975 
L 394.587518 147.544243 
L 394.262539 147.018007 
L 393.937559 147.349981 
L 393.61258 147.461083 
L 393.2876 147.473724 
L 392.962621 147.485699 
L 392.637641 147.301416 
L 392.312662 147.226239 
L 391.987682 147.324701 
L 391.662703 147.054597 
L 391.337723 147.507653 
L 391.012744 146.951479 
L 390.687764 147.708567 
L 390.362785 147.393225 
L 390.037805 147.283453 
L 389.712826 147.018672 
L 389.387846 147.665324 
L 389.062867 147.543578 
L 388.737887 147.582829 
L 388.412907 146.936843 
L 388.087928 147.921457 
L 387.762948 147.052601 
L 387.437969 147.622081 
L 387.112989 147.387902 
L 386.78801 147.159046 
L 386.46303 147.357965 
L 386.138051 147.363952 
L 385.813071 147.51364 
L 385.488092 147.443786 
L 385.163112 147.347986 
L 384.838133 147.389233 
L 384.513153 147.198298 
L 384.188174 147.234888 
L 383.863194 146.670731 
L 383.538215 147.723869 
L 383.213235 147.198963 
L 382.888256 147.219587 
L 382.563276 146.851687 
L 382.238296 148.008609 
L 381.913317 147.345324 
L 381.588337 147.200293 
L 381.263358 146.972768 
L 380.938378 147.282123 
L 380.613399 147.222913 
L 380.288419 147.672642 
L 379.96344 147.663994 
L 379.63846 147.338672 
L 379.313481 146.435221 
L 378.988501 147.640044 
L 378.663522 147.580834 
L 378.338542 147.57285 
L 378.013563 147.282123 
L 377.688583 147.709233 
L 377.363604 146.829067 
L 377.038624 147.763786 
L 376.713645 147.15572 
L 376.388665 147.706572 
L 376.063686 147.161042 
L 375.738706 147.215595 
L 375.413726 146.992726 
L 375.088747 147.056593 
L 374.763767 147.864243 
L 374.438788 147.642039 
L 374.113808 147.357965 
L 373.788829 147.521624 
L 373.463849 147.916135 
L 373.13887 147.353308 
L 372.81389 147.805033 
L 372.488911 147.655345 
L 372.163931 147.390564 
L 371.838952 147.794388 
L 371.513972 147.504326 
L 371.188993 147.38125 
L 370.864013 147.424493 
L 370.539034 147.709898 
L 370.214054 147.477715 
L 369.889075 147.473724 
L 369.564095 147.394555 
L 369.239115 147.485699 
L 368.914136 147.082539 
L 368.589156 147.252185 
L 368.264177 147.419836 
L 367.939197 147.00204 
L 367.614218 147.531603 
L 367.289238 147.387237 
L 366.964259 147.192975 
L 366.639279 147.224909 
L 366.3143 147.70258 
L 365.98932 147.793058 
L 365.664341 147.41784 
L 365.339361 147.335345 
L 365.014382 146.847695 
L 364.689402 147.69127 
L 364.364423 147.78574 
L 364.039443 147.894846 
L 363.714464 148.216841 
L 363.389484 147.473724 
L 363.064505 147.72786 
L 362.739525 147.373266 
L 362.414545 147.373266 
L 362.089566 147.051936 
L 361.764586 147.614098 
L 361.439607 147.617424 
L 361.114627 147.241541 
L 360.789648 147.459753 
L 360.464668 147.544908 
L 360.139689 147.372601 
L 359.814709 147.041957 
L 359.48973 146.843703 
L 359.16475 147.149067 
L 358.839771 147.606114 
L 358.514791 147.455761 
L 358.189812 147.54757 
L 357.864832 147.527611 
L 357.539853 148.008609 
L 357.214873 147.485699 
L 356.889894 147.25152 
L 356.564914 146.929524 
L 356.239934 147.418505 
L 355.914955 148.11838 
L 355.589975 147.57285 
L 355.264996 147.366613 
L 354.940016 147.769773 
L 354.615037 147.064576 
L 354.290057 147.455096 
L 353.965078 147.476385 
L 353.640098 147.540252 
L 353.315119 147.109815 
L 352.990139 147.282788 
L 352.66516 147.546239 
L 352.34018 147.424493 
L 352.015201 147.229566 
L 351.690221 147.729191 
L 351.365242 147.359961 
L 351.040262 147.252851 
L 350.715283 147.544243 
L 350.390303 147.368609 
L 350.065324 147.688609 
L 349.740344 147.423162 
L 349.415364 147.583495 
L 349.090385 147.711894 
L 348.765405 148.256093 
L 348.440426 147.675303 
L 348.115446 147.397882 
L 347.790467 147.927444 
L 347.465487 148.200875 
L 347.140508 147.942746 
L 346.815528 148.065157 
L 346.490549 148.159627 
L 346.165569 147.767777 
L 345.84059 147.497008 
L 345.51561 147.836301 
L 345.190631 147.035969 
L 344.865651 147.453765 
L 344.540672 147.802372 
L 344.215692 147.427819 
L 343.890713 147.361291 
L 343.565733 147.549565 
L 343.240753 147.574181 
L 342.915774 147.794388 
L 342.590794 147.737174 
L 342.265815 147.451104 
L 341.940835 147.282788 
L 341.615856 147.743162 
L 341.290876 147.748484 
L 340.965897 147.352643 
L 340.640917 147.507653 
L 340.315938 147.565532 
L 339.990958 147.265491 
L 339.665979 146.831063 
L 339.340999 147.443786 
L 339.01602 147.469067 
L 338.69104 147.614763 
L 338.366061 147.652019 
L 338.041081 147.612767 
L 337.716102 147.631395 
L 337.391122 147.808359 
L 337.066143 147.63073 
L 336.741163 147.884201 
L 336.416183 147.354638 
L 336.091204 147.80969 
L 335.766224 147.318713 
L 335.441245 146.992726 
L 335.116265 147.330688 
L 334.791286 147.667985 
L 334.466306 147.439129 
L 334.141327 148.025241 
L 333.816347 147.888193 
L 333.491368 147.536925 
L 333.166388 147.314056 
L 332.841409 147.205616 
L 332.516429 147.147736 
L 332.19145 147.149732 
L 331.86647 147.161042 
L 331.541491 146.771853 
L 331.216511 147.499004 
L 330.891532 147.362622 
L 330.566552 146.897591 
L 330.241572 147.030647 
L 329.916593 147.310065 
L 329.591613 147.33468 
L 329.266634 147.888193 
L 328.941654 147.530938 
L 328.616675 146.940834 
L 328.291695 147.008028 
L 327.966716 147.286115 
L 327.641736 147.487029 
L 327.316757 147.121125 
L 326.991777 146.938838 
L 326.666798 146.878963 
L 326.341818 147.12046 
L 326.016839 147.814347 
L 325.691859 147.169691 
L 325.36688 147.248194 
L 325.0419 147.47705 
L 324.716921 147.054597 
L 324.391941 147.218256 
L 324.066962 147.294763 
L 323.741982 147.023994 
L 323.417002 147.112476 
L 323.092023 146.922206 
L 322.767043 147.27547 
L 322.442064 147.56021 
L 322.117084 147.225574 
L 321.792105 147.603453 
L 321.467125 146.974098 
L 321.142146 147.39522 
L 320.817166 147.71389 
L 320.492187 146.839046 
L 320.167207 147.483703 
L 319.842228 146.902913 
L 319.517248 147.180335 
L 319.192269 147.040626 
L 318.867289 147.366613 
L 318.54231 147.282788 
L 318.21733 146.825741 
L 317.892351 146.914223 
L 317.567371 147.256842 
L 317.242391 147.419171 
L 316.917412 146.884951 
L 316.592432 146.851687 
L 316.267453 147.32204 
L 315.942473 147.129774 
L 315.617494 147.825657 
L 315.292514 147.091188 
L 314.967535 147.411852 
L 314.642555 147.487694 
L 314.317576 147.922122 
L 313.992596 147.093183 
L 313.667617 147.719877 
L 313.342637 147.276135 
L 313.017658 147.258173 
L 312.692678 147.407196 
L 312.367699 147.225574 
L 312.042719 147.33468 
L 311.71774 146.914888 
L 311.39276 147.550896 
L 311.067781 147.085865 
L 310.742801 147.68994 
L 310.417821 147.407861 
L 310.092842 147.659337 
L 309.767862 147.195636 
L 309.442883 147.350647 
L 309.117903 147.794388 
L 308.792924 147.759794 
L 308.467944 147.098506 
L 308.142965 147.497674 
L 307.817985 147.370605 
L 307.493006 147.125782 
L 307.168026 147.005366 
L 306.843047 147.252185 
L 306.518067 147.005366 
L 306.193088 147.556218 
L 305.868108 147.496343 
L 305.543129 147.871561 
L 305.218149 147.500335 
L 304.89317 147.4052 
L 304.56819 146.984743 
L 304.24321 147.775761 
L 303.918231 147.180335 
L 303.593251 146.952809 
L 303.268272 147.449773 
L 302.943292 147.014015 
L 302.618313 147.570189 
L 302.293333 147.263495 
L 301.968354 147.429815 
L 301.643374 147.926779 
L 301.318395 147.429815 
L 300.993415 147.080543 
L 300.668436 147.481707 
L 300.343456 147.254846 
L 300.018477 147.56021 
L 299.693497 147.185657 
L 299.368518 147.593474 
L 299.043538 147.231562 
L 298.718559 147.610771 
L 298.393579 147.206946 
L 298.0686 147.379919 
L 297.74362 147.741831 
L 297.41864 147.060585 
L 297.093661 147.353973 
L 296.768681 147.420501 
L 296.443702 147.587486 
L 296.118722 147.860251 
L 295.793743 147.759129 
L 295.468763 147.710563 
L 295.143784 147.477715 
L 294.818804 147.346655 
L 294.493825 147.541582 
L 294.168845 147.341333 
L 293.843866 147.655345 
L 293.518886 147.618089 
L 293.193907 147.835636 
L 292.868927 147.592143 
L 292.543948 147.451104 
L 292.218968 147.526946 
L 291.893989 147.364618 
L 291.569009 147.485699 
L 291.244029 146.944826 
L 290.91905 147.448443 
L 290.59407 147.930106 
L 290.269091 147.210938 
L 289.944111 147.753141 
L 289.619132 147.966031 
L 289.294152 147.101832 
L 288.969173 147.439794 
L 288.644193 147.018672 
L 288.319214 147.757133 
L 287.994234 147.526281 
L 287.669255 147.865573 
L 287.344275 147.729856 
L 287.019296 147.587486 
L 286.694316 147.387902 
L 286.369337 147.471062 
L 286.044357 147.293433 
L 285.719378 147.568859 
L 285.394398 147.186988 
L 285.069419 147.031312 
L 284.744439 147.41784 
L 284.419459 147.668651 
L 284.09448 147.452435 
L 283.7695 147.616093 
L 283.444521 147.387237 
L 283.119541 147.485033 
L 282.794562 147.552227 
L 282.469582 146.93152 
L 282.144603 147.354638 
L 281.819623 147.383911 
L 281.494644 147.445116 
L 281.169664 147.347986 
L 280.844685 148.435718 
L 280.519705 147.320709 
L 280.194726 147.181 
L 279.869746 147.312726 
L 279.544767 147.448443 
L 279.219787 147.001375 
L 278.894808 147.735179 
L 278.569828 148.139004 
L 278.244848 147.568193 
L 277.919869 147.675969 
L 277.594889 147.463079 
L 277.26991 147.57152 
L 276.94493 147.470397 
L 276.619951 147.805698 
L 276.294971 147.883536 
L 275.969992 147.644035 
L 275.645012 147.742497 
L 275.320033 147.521624 
L 274.995053 147.467736 
L 274.670074 147.699919 
L 274.345094 147.445116 
L 274.020115 147.77443 
L 273.695135 147.875553 
L 273.370156 147.687944 
L 273.045176 147.90416 
L 272.720197 147.98732 
L 272.395217 147.590148 
L 272.070238 147.867569 
L 271.745258 148.727111 
L 271.420278 147.481707 
L 271.095299 151.211267 
L 270.770319 147.878214 
L 270.44534 147.611436 
L 270.12036 147.598131 
L 269.795381 147.26416 
L 269.470401 152.737419 
L 269.145422 149.596632 
L 268.820442 147.776426 
L 268.495463 154.729932 
L 268.170483 148.78366 
L 267.845504 154.948144 
L 267.520524 147.799711 
L 267.195545 148.065823 
L 266.870565 149.414345 
L 266.545586 147.391229 
L 266.220606 148.591394 
L 265.895627 147.352643 
L 265.570647 147.455096 
L 265.245667 147.679295 
L 264.920688 147.608775 
L 264.595708 148.577423 
L 264.270729 147.707902 
L 263.945749 147.501665 
L 263.62077 147.277466 
L 263.29579 147.756468 
L 262.970811 147.835636 
L 262.645831 149.854761 
L 262.320852 147.628068 
L 261.995872 147.727195 
L 261.670893 147.642039 
L 261.345913 147.445782 
L 261.020934 147.494347 
L 260.695954 147.628068 
L 260.370975 147.88154 
L 260.045995 147.298755 
L 259.721016 147.661998 
L 259.396036 147.751145 
L 259.071057 147.362622 
L 258.746077 148.179586 
L 258.421097 148.139004 
L 258.096118 147.775095 
L 257.771138 147.692601 
L 257.446159 147.327362 
L 257.121179 148.200209 
L 256.7962 148.098421 
L 256.47122 147.964035 
L 256.146241 148.067819 
L 255.821261 147.647362 
L 255.496282 148.611352 
L 255.171302 148.465656 
L 254.846323 147.731852 
L 254.521343 148.195552 
L 254.196364 147.510979 
L 253.871384 148.113723 
L 253.546405 148.116384 
L 253.221425 148.612018 
L 252.896446 147.67863 
L 252.571466 147.780418 
L 252.246486 147.970688 
L 251.921507 148.053848 
L 251.596527 147.882871 
L 251.271548 147.659337 
L 250.946568 148.069814 
L 250.621589 147.730522 
L 250.296609 148.101083 
L 249.97163 147.813682 
L 249.64665 147.832309 
L 249.321671 147.733848 
L 248.996691 148.327278 
L 248.671712 147.648692 
L 248.346732 147.968027 
L 248.021753 147.757798 
L 247.696773 148.532184 
L 247.371794 148.256093 
L 247.046814 148.02391 
L 246.721835 148.294014 
L 246.396855 148.282704 
L 246.071876 148.185573 
L 245.746896 147.588152 
L 245.421916 148.266737 
L 245.096937 148.212184 
L 244.771957 148.167611 
L 244.446978 147.885532 
L 244.121998 148.324617 
L 243.797019 148.762371 
L 243.472039 148.133681 
L 243.14706 147.779087 
L 242.82208 148.065823 
L 242.497101 148.138338 
L 242.172121 148.577423 
L 241.847142 148.530853 
L 241.522162 148.198213 
L 241.197183 148.150979 
L 240.872203 148.390479 
L 240.547224 147.874222 
L 240.222244 147.956052 
L 239.897265 148.156966 
L 239.572285 148.049856 
L 239.247305 147.710563 
L 238.922326 147.73784 
L 238.597346 148.268068 
L 238.272367 147.539586 
L 237.947387 148.411103 
L 237.622408 147.960708 
L 237.297428 148.317299 
L 236.972449 147.711228 
L 236.647469 148.813597 
L 236.32249 147.944076 
L 235.99751 148.101083 
L 235.672531 147.788401 
L 235.347551 148.189565 
L 235.022572 148.377174 
L 234.697592 148.595386 
L 234.372613 148.256758 
L 234.047633 148.301997 
L 233.722654 148.148317 
L 233.397674 147.944742 
L 233.072695 148.312642 
L 232.747715 148.847527 
L 232.422735 148.747069 
L 232.097756 148.423743 
L 231.772776 148.830229 
L 231.447797 149.080375 
L 231.122817 148.876134 
L 230.797838 149.410354 
L 230.472858 148.658587 
L 230.147879 148.773015 
L 229.822899 149.253348 
L 229.49792 148.520209 
L 229.17294 146.344743 
L 228.847961 139.931444 
L 228.522981 132.719144 
L 228.198002 126.515408 
L 227.873022 120.738781 
L 227.548043 117.733712 
L 227.223063 119.51267 
L 226.898084 117.135625 
L 226.573104 125.187509 
L 226.248124 116.310678 
L 225.923145 121.570381 
L 225.598165 120.052878 
L 225.273186 114.951511 
L 224.948206 124.556823 
L 224.623227 123.603477 
L 224.298247 124.063186 
L 223.973268 117.564065 
L 223.648288 114.053383 
L 223.323309 113.595005 
L 222.998329 111.275173 
L 222.67335 110.338459 
L 222.34837 114.169807 
L 222.023391 114.842405 
L 221.698411 115.159078 
L 221.373432 128.253119 
L 221.048452 115.363319 
L 220.723473 116.602736 
L 220.398493 120.919072 
L 220.073514 104.998922 
L 219.748534 120.547181 
L 219.423554 105.95626 
L 219.098575 114.386688 
L 218.773595 108.620041 
L 218.448616 116.919409 
L 218.123636 113.291637 
L 217.798657 113.810556 
L 217.473677 103.525327 
L 217.148698 102.313852 
L 216.823718 100.655309 
L 216.498739 103.223955 
L 216.173759 103.700295 
L 215.84878 101.496888 
L 215.5238 103.683663 
L 215.198821 99.45847 
L 214.873841 97.09473 
L 214.548862 103.341044 
L 214.223882 102.209403 
L 213.898903 102.270609 
L 213.573923 103.816054 
L 213.248943 95.737559 
L 212.923964 97.970904 
L 212.598984 93.346543 
L 212.274005 95.00442 
L 211.949025 93.141636 
L 211.624046 93.94596 
L 211.299066 94.68309 
L 210.974087 96.3576 
L 210.649107 95.621135 
L 210.324128 97.535146 
L 209.999148 95.666374 
L 209.674169 99.733231 
L 209.349189 93.973902 
L 209.02421 94.637851 
L 208.69923 93.443008 
L 208.374251 93.071782 
L 208.049271 95.818723 
L 207.724292 95.411572 
L 207.399312 97.179221 
L 207.074333 92.858227 
L 206.749353 93.712447 
L 206.424373 96.153359 
L 206.099394 94.078351 
L 205.774414 95.331738 
L 205.449435 94.221386 
L 205.124455 92.987292 
L 204.799476 97.752692 
L 204.474496 92.287417 
L 204.149517 96.819304 
L 203.824537 95.275855 
L 203.499558 92.204257 
L 203.174578 92.221554 
L 202.849599 92.791699 
L 202.524619 93.145628 
L 202.19964 93.236772 
L 201.87466 93.164256 
L 201.549681 92.895483 
L 201.224701 92.365255 
L 200.899722 93.160264 
L 200.574742 93.089079 
L 200.249762 93.562093 
L 199.924783 93.401761 
L 199.599803 92.753778 
L 199.274824 90.122596 
L 198.949844 87.786798 
L 198.624865 88.953699 
L 198.299885 88.81399 
L 197.974906 91.741887 
L 197.649926 87.291164 
L 197.324947 95.028371 
L 196.999967 89.797274 
L 196.674988 84.749795 
L 196.350008 85.987215 
L 196.025029 85.516197 
L 195.700049 92.908123 
L 195.37507 91.298811 
L 195.05009 87.416902 
L 194.725111 82.856408 
L 194.400131 87.704968 
L 194.075152 82.112625 
L 193.750172 85.19021 
L 193.425192 87.33973 
L 193.100213 84.137072 
L 192.775233 86.9379 
L 192.450254 92.347957 
L 192.125274 99.716599 
L 191.800295 84.600772 
L 191.475315 91.071285 
L 191.150336 92.351949 
L 190.825356 91.266877 
L 190.500377 93.240098 
L 190.175397 92.91145 
L 189.850418 92.854236 
L 189.525438 97.821881 
L 189.200459 86.836113 
L 188.875479 85.354534 
L 188.5505 87.508711 
L 188.22552 87.082266 
L 187.900541 82.361439 
L 187.575561 86.711705 
L 187.250581 84.802352 
L 186.925602 83.499068 
L 186.600622 89.589041 
L 186.275643 89.463303 
L 185.950663 95.492071 
L 185.625684 92.189621 
L 185.300704 85.146967 
L 184.975725 81.13932 
L 184.650745 85.365179 
L 184.325766 83.503725 
L 184.000786 87.68634 
L 183.675807 91.219643 
L 183.350827 90.804508 
L 183.025848 93.36384 
L 182.700868 85.278692 
L 182.375889 82.737323 
L 182.050909 88.746132 
L 181.72593 88.601766 
L 181.40095 95.800761 
L 181.075971 96.295064 
L 180.750991 83.221646 
L 180.426011 88.407504 
L 180.101032 89.020892 
L 179.776052 87.8979 
L 179.451073 83.42123 
L 179.126093 85.839523 
L 178.801114 92.431783 
L 178.476134 84.864223 
L 178.151155 88.26846 
L 177.826175 81.944309 
L 177.501196 84.361271 
L 177.176216 83.880939 
L 176.851237 87.386299 
L 176.526257 85.660563 
L 176.201278 84.898152 
L 175.876298 81.651586 
L 175.551319 80.048261 
L 175.226339 81.294996 
L 174.90136 76.825644 
L 174.57638 78.731672 
L 174.2514 76.836289 
L 173.926421 78.412337 
L 173.601441 78.889343 
L 173.276462 78.065061 
L 172.951482 80.656327 
L 172.626503 80.844601 
L 172.301523 77.003274 
L 171.976544 80.554539 
L 171.651564 80.762772 
L 171.326585 78.740986 
L 171.001605 87.694989 
L 170.676626 83.984723 
L 170.351646 84.58547 
L 170.026667 80.92643 
L 169.701687 84.781063 
L 169.376708 83.969421 
L 169.051728 85.900729 
L 168.726749 94.480845 
L 168.401769 88.608419 
L 168.07679 87.208004 
L 167.75181 90.208417 
L 167.42683 87.796112 
L 167.101851 85.140314 
L 166.776871 94.339806 
L 166.451892 88.408169 
L 166.126912 91.549621 
L 165.801933 91.595526 
L 165.476953 93.971241 
L 165.151974 90.494487 
L 164.826994 89.528501 
L 164.502015 98.512442 
L 164.177035 95.058973 
L 163.852056 100.886826 
L 163.527076 102.89065 
L 163.202097 92.269454 
L 162.877117 97.5092 
L 162.552138 96.543878 
L 162.227158 98.358762 
L 161.902179 94.806167 
L 161.577199 91.882927 
L 161.252219 96.84392 
L 160.92724 95.33706 
L 160.60226 104.171314 
L 160.277281 102.082334 
L 159.952301 105.897715 
L 159.627322 100.041255 
L 159.302342 103.680337 
L 158.977363 103.311107 
L 158.652383 104.631022 
L 158.327404 106.270272 
L 158.002424 106.0168 
L 157.677445 107.384616 
L 157.352465 99.709281 
L 157.027486 108.92607 
L 156.702506 109.158918 
L 156.377527 104.730149 
L 156.052547 107.226945 
L 155.727568 108.756423 
L 155.402588 110.015798 
L 155.077609 109.488231 
L 154.752629 108.959334 
L 154.427649 105.626946 
L 154.10267 107.236924 
L 153.77769 108.141039 
L 153.452711 109.922659 
L 153.127731 100.342627 
L 152.802752 107.723909 
L 152.477772 107.966071 
L 152.152793 107.166404 
L 151.827813 109.214136 
L 151.502834 109.5674 
L 151.177854 104.010981 
L 150.852875 107.53763 
L 150.527895 108.119085 
L 150.202916 109.597337 
L 149.877936 110.612555 
L 149.552957 109.772306 
L 149.227977 109.72241 
L 148.902998 107.722578 
L 148.578018 108.851558 
L 148.253038 109.371807 
L 147.928059 110.618542 
L 147.603079 111.116172 
L 147.2781 113.137292 
L 146.95312 111.949102 
L 146.628141 112.570474 
L 146.303161 113.435338 
L 145.978182 112.793342 
L 145.653202 113.638913 
L 145.328223 111.977709 
L 145.003243 115.133797 
L 144.678264 112.334964 
L 144.353284 113.424693 
L 144.028305 114.882322 
L 143.703325 115.002072 
L 143.378346 113.858456 
L 143.053366 113.145276 
L 142.728387 112.969642 
L 142.403407 117.124315 
L 142.078428 117.398411 
L 141.753448 116.085148 
L 141.428468 115.821032 
L 141.103489 117.043816 
L 140.778509 115.153756 
L 140.45353 114.908933 
L 140.12855 115.490388 
L 139.803571 115.841655 
L 139.478591 116.395834 
L 139.153612 116.732465 
L 138.828632 117.309928 
L 138.503653 118.725644 
L 138.178673 118.221362 
L 137.853694 117.961903 
L 137.528714 118.641819 
L 137.203735 118.460197 
L 136.878755 119.016372 
L 136.553776 118.673087 
L 136.228796 122.821108 
L 135.903817 124.053206 
L 135.578837 121.737367 
L 135.253857 120.855205 
L 134.928878 121.990173 
L 134.603898 122.487137 
L 134.278919 122.779195 
L 133.953939 122.733291 
L 133.62896 125.975866 
L 133.30398 126.257279 
L 132.979001 127.403556 
L 132.654021 127.453452 
L 132.329042 128.21919 
L 132.004062 127.55391 
L 131.679083 129.378108 
L 131.354103 128.436071 
L 131.029124 128.808628 
L 130.704144 130.271579 
L 130.379165 130.967461 
L 130.054185 130.698688 
L 129.729206 130.532368 
L 129.404226 134.151492 
L 129.079247 133.8275 
L 128.754267 135.079557 
L 128.429287 131.34534 
L 128.104308 131.987336 
L 127.779328 133.530785 
L 127.454349 132.290703 
L 127.129369 134.126876 
L 126.80439 136.801302 
L 126.47941 134.500764 
L 126.154431 135.923132 
L 125.829451 134.5154 
L 125.504472 137.442632 
L 125.179492 137.102674 
L 124.854513 138.749907 
L 124.529533 137.812527 
L 124.204554 137.55706 
L 123.879574 138.500427 
L 123.554595 143.134767 
L 123.229615 139.106497 
L 122.904636 137.232403 
L 122.579656 140.262088 
L 122.254676 141.114312 
L 121.929697 139.088534 
L 121.604717 141.874062 
L 121.279738 144.338924 
L 120.954758 142.750901 
L 120.629779 144.925701 
L 120.304799 144.443373 
L 119.97982 138.957474 
L 119.65484 143.09352 
L 119.329861 143.147408 
L 119.004881 144.714807 
L 118.679902 143.875224 
L 118.354922 148.695843 
L 118.029943 142.971108 
L 117.704963 144.259756 
L 117.379984 144.952978 
L 117.055004 147.154389 
L 116.730025 149.705738 
L 116.405045 147.354638 
L 116.080066 149.484865 
L 115.755086 152.243116 
L 115.430106 151.758792 
L 115.105127 154.185733 
L 114.780147 153.688769 
L 114.455168 157.87205 
L 114.130188 155.051263 
L 113.805209 155.914131 
L 113.480229 158.49076 
L 113.15525 159.160697 
L 112.83027 157.894669 
L 112.505291 158.815417 
L 112.180311 164.449673 
L 111.855332 166.192042 
L 111.530352 160.153295 
L 111.205373 165.828133 
L 110.880393 167.285762 
L 110.555414 162.545642 
L 110.230434 164.981897 
L 109.905455 165.128259 
L 109.580475 166.792789 
L 109.255495 163.723188 
L 108.930516 164.408426 
L 108.605536 165.665805 
L 108.280557 163.49034 
L 107.955577 165.968508 
L 107.630598 168.90838 
L 107.305618 169.343473 
L 106.980639 168.192539 
L 106.655659 172.450996 
L 106.33068 170.265551 
L 106.0057 171.866215 
L 105.680721 174.512033 
L 105.355741 172.848833 
L 105.030762 174.613156 
L 104.705782 176.229121 
L 104.380803 177.710034 
L 104.055823 176.966916 
L 103.730844 180.536144 
L 103.405864 174.893904 
L 103.080885 179.83893 
L 102.755905 182.780133 
L 102.430925 180.178223 
L 102.105946 181.534064 
L 101.780966 186.316762 
L 101.455987 185.650816 
L 101.131007 183.292399 
L 100.806028 183.031609 
L 100.481048 186.309444 
L 100.156069 186.612811 
L 99.831089 188.687154 
L 99.50611 191.460707 
L 99.18113 192.425363 
L 98.856151 191.936382 
L 98.531171 194.711265 
L 98.206192 193.272929 
L 97.881212 190.359003 
L 97.556233 190.806736 
L 97.231253 195.33064 
L 96.906274 196.572718 
L 96.581294 194.503032 
L 96.256314 192.387442 
L 95.931335 198.46677 
L 95.606355 200.398078 
L 95.281376 200.824523 
L 94.956396 198.458787 
L 94.631417 201.03342 
L 94.306437 201.047391 
L 93.981458 204.249384 
L 93.656478 204.22876 
L 93.331499 205.840068 
L 93.006519 208.158569 
L 92.68154 206.685639 
L 92.35656 210.254867 
L 92.031581 211.875489 
L 91.706601 217.721969 
L 91.381622 215.762054 
L 91.056642 215.305672 
L 90.731663 218.503673 
L 90.406683 223.787327 
L 90.081704 220.462258 
L 89.756724 226.97801 
L 89.431744 223.827244 
L 89.106765 225.886951 
L 88.781785 230.89917 
L 88.456806 226.807033 
L 88.131826 228.552062 
L 87.806847 230.817341 
L 87.481867 234.393221 
L 87.156888 237.108894 
L 86.831908 243.318617 
L 86.506929 241.968099 
L 86.181949 244.357785 
L 85.85697 249.340067 
L 85.53199 250.694577 
L 85.207011 256.838437 
L 84.882031 255.289666 
L 84.557052 255.81058 
L 84.232072 253.178067 
L 83.907093 265.401256 
L 83.582113 263.728077 
L 83.257133 269.374308 
L 82.932154 268.79485 
L 82.607174 272.207736 
L 82.282195 271.926323 
L 81.957215 272.25364 
L 81.632236 274.135052 
L 81.307256 275.456964 
L 80.982277 277.303116 
L 80.657297 276.825444 
L 80.332318 278.088146 
L 80.007338 279.867105 
L 79.682359 283.31259 
L 79.357379 282.916083 
L 79.0324 285.940446 
L 78.70742 285.45213 
L 78.382441 287.322898 
L 78.057461 287.326889 
L 77.732482 287.654872 
L 77.407502 287.011547 
L 77.082523 289.947427 
L 76.757543 290.558154 
L 76.432563 290.906096 
L 76.107584 292.004473 
L 75.782604 294.718815 
L 75.457625 297.509 
L 75.132645 299.786253 
L 74.807666 300.529371 
L 74.482686 302.852529 
L 74.157707 303.515813 
L 73.832727 303.570366 
z
" style="fill:#1f77b4;fill-opacity:0.25;"/>
   </g>
   <g id="matplotlib.axis_1">
    <g id="xtick_1">
     <g id="line2d_1">
      <defs>
       <path d="M 0 0 
L 0 3.5 
" id="m659ef076a9" style="stroke:#000000;stroke-width:0.8;"/>
      </defs>
      <g>
       <use style="stroke:#000000;stroke-width:0.8;" x="73.507748" xlink:href="#m659ef076a9" y="307.584"/>
      </g>
     </g>
     <g id="text_1">
      <!-- 0 -->
      <g transform="translate(70.326498 322.182437)scale(0.1 -0.1)">
       <defs>
        <path d="M 2034 4250 
Q 1547 4250 1301 3770 
Q 1056 3291 1056 2328 
Q 1056 1369 1301 889 
Q 1547 409 2034 409 
Q 2525 409 2770 889 
Q 3016 1369 3016 2328 
Q 3016 3291 2770 3770 
Q 2525 4250 2034 4250 
z
M 2034 4750 
Q 2819 4750 3233 4129 
Q 3647 3509 3647 2328 
Q 3647 1150 3233 529 
Q 2819 -91 2034 -91 
Q 1250 -91 836 529 
Q 422 1150 422 2328 
Q 422 3509 836 4129 
Q 1250 4750 2034 4750 
z
" id="DejaVuSans-30" transform="scale(0.015625)"/>
       </defs>
       <use xlink:href="#DejaVuSans-30"/>
      </g>
     </g>
    </g>
    <g id="xtick_2">
     <g id="line2d_2">
      <g>
       <use style="stroke:#000000;stroke-width:0.8;" x="138.503653" xlink:href="#m659ef076a9" y="307.584"/>
      </g>
     </g>
     <g id="text_2">
      <!-- 200 -->
      <g transform="translate(128.959903 322.182437)scale(0.1 -0.1)">
       <defs>
        <path d="M 1228 531 
L 3431 531 
L 3431 0 
L 469 0 
L 469 531 
Q 828 903 1448 1529 
Q 2069 2156 2228 2338 
Q 2531 2678 2651 2914 
Q 2772 3150 2772 3378 
Q 2772 3750 2511 3984 
Q 2250 4219 1831 4219 
Q 1534 4219 1204 4116 
Q 875 4013 500 3803 
L 500 4441 
Q 881 4594 1212 4672 
Q 1544 4750 1819 4750 
Q 2544 4750 2975 4387 
Q 3406 4025 3406 3419 
Q 3406 3131 3298 2873 
Q 3191 2616 2906 2266 
Q 2828 2175 2409 1742 
Q 1991 1309 1228 531 
z
" id="DejaVuSans-32" transform="scale(0.015625)"/>
       </defs>
       <use xlink:href="#DejaVuSans-32"/>
       <use x="63.623047" xlink:href="#DejaVuSans-30"/>
       <use x="127.246094" xlink:href="#DejaVuSans-30"/>
      </g>
     </g>
    </g>
    <g id="xtick_3">
     <g id="line2d_3">
      <g>
       <use style="stroke:#000000;stroke-width:0.8;" x="203.499558" xlink:href="#m659ef076a9" y="307.584"/>
      </g>
     </g>
     <g id="text_3">
      <!-- 400 -->
      <g transform="translate(193.955808 322.182437)scale(0.1 -0.1)">
       <defs>
        <path d="M 2419 4116 
L 825 1625 
L 2419 1625 
L 2419 4116 
z
M 2253 4666 
L 3047 4666 
L 3047 1625 
L 3713 1625 
L 3713 1100 
L 3047 1100 
L 3047 0 
L 2419 0 
L 2419 1100 
L 313 1100 
L 313 1709 
L 2253 4666 
z
" id="DejaVuSans-34" transform="scale(0.015625)"/>
       </defs>
       <use xlink:href="#DejaVuSans-34"/>
       <use x="63.623047" xlink:href="#DejaVuSans-30"/>
       <use x="127.246094" xlink:href="#DejaVuSans-30"/>
      </g>
     </g>
    </g>
    <g id="xtick_4">
     <g id="line2d_4">
      <g>
       <use style="stroke:#000000;stroke-width:0.8;" x="268.495463" xlink:href="#m659ef076a9" y="307.584"/>
      </g>
     </g>
     <g id="text_4">
      <!-- 600 -->
      <g transform="translate(258.951713 322.182437)scale(0.1 -0.1)">
       <defs>
        <path d="M 2113 2584 
Q 1688 2584 1439 2293 
Q 1191 2003 1191 1497 
Q 1191 994 1439 701 
Q 1688 409 2113 409 
Q 2538 409 2786 701 
Q 3034 994 3034 1497 
Q 3034 2003 2786 2293 
Q 2538 2584 2113 2584 
z
M 3366 4563 
L 3366 3988 
Q 3128 4100 2886 4159 
Q 2644 4219 2406 4219 
Q 1781 4219 1451 3797 
Q 1122 3375 1075 2522 
Q 1259 2794 1537 2939 
Q 1816 3084 2150 3084 
Q 2853 3084 3261 2657 
Q 3669 2231 3669 1497 
Q 3669 778 3244 343 
Q 2819 -91 2113 -91 
Q 1303 -91 875 529 
Q 447 1150 447 2328 
Q 447 3434 972 4092 
Q 1497 4750 2381 4750 
Q 2619 4750 2861 4703 
Q 3103 4656 3366 4563 
z
" id="DejaVuSans-36" transform="scale(0.015625)"/>
       </defs>
       <use xlink:href="#DejaVuSans-36"/>
       <use x="63.623047" xlink:href="#DejaVuSans-30"/>
       <use x="127.246094" xlink:href="#DejaVuSans-30"/>
      </g>
     </g>
    </g>
    <g id="xtick_5">
     <g id="line2d_5">
      <g>
       <use style="stroke:#000000;stroke-width:0.8;" x="333.491368" xlink:href="#m659ef076a9" y="307.584"/>
      </g>
     </g>
     <g id="text_5">
      <!-- 800 -->
      <g transform="translate(323.947618 322.182437)scale(0.1 -0.1)">
       <defs>
        <path d="M 2034 2216 
Q 1584 2216 1326 1975 
Q 1069 1734 1069 1313 
Q 1069 891 1326 650 
Q 1584 409 2034 409 
Q 2484 409 2743 651 
Q 3003 894 3003 1313 
Q 3003 1734 2745 1975 
Q 2488 2216 2034 2216 
z
M 1403 2484 
Q 997 2584 770 2862 
Q 544 3141 544 3541 
Q 544 4100 942 4425 
Q 1341 4750 2034 4750 
Q 2731 4750 3128 4425 
Q 3525 4100 3525 3541 
Q 3525 3141 3298 2862 
Q 3072 2584 2669 2484 
Q 3125 2378 3379 2068 
Q 3634 1759 3634 1313 
Q 3634 634 3220 271 
Q 2806 -91 2034 -91 
Q 1263 -91 848 271 
Q 434 634 434 1313 
Q 434 1759 690 2068 
Q 947 2378 1403 2484 
z
M 1172 3481 
Q 1172 3119 1398 2916 
Q 1625 2713 2034 2713 
Q 2441 2713 2670 2916 
Q 2900 3119 2900 3481 
Q 2900 3844 2670 4047 
Q 2441 4250 2034 4250 
Q 1625 4250 1398 4047 
Q 1172 3844 1172 3481 
z
" id="DejaVuSans-38" transform="scale(0.015625)"/>
       </defs>
       <use xlink:href="#DejaVuSans-38"/>
       <use x="63.623047" xlink:href="#DejaVuSans-30"/>
       <use x="127.246094" xlink:href="#DejaVuSans-30"/>
      </g>
     </g>
    </g>
    <g id="xtick_6">
     <g id="line2d_6">
      <g>
       <use style="stroke:#000000;stroke-width:0.8;" x="398.487273" xlink:href="#m659ef076a9" y="307.584"/>
      </g>
     </g>
     <g id="text_6">
      <!-- 1000 -->
      <g transform="translate(385.762273 322.182437)scale(0.1 -0.1)">
       <defs>
        <path d="M 794 531 
L 1825 531 
L 1825 4091 
L 703 3866 
L 703 4441 
L 1819 4666 
L 2450 4666 
L 2450 531 
L 3481 531 
L 3481 0 
L 794 0 
L 794 531 
z
" id="DejaVuSans-31" transform="scale(0.015625)"/>
       </defs>
       <use xlink:href="#DejaVuSans-31"/>
       <use x="63.623047" xlink:href="#DejaVuSans-30"/>
       <use x="127.246094" xlink:href="#DejaVuSans-30"/>
       <use x="190.869141" xlink:href="#DejaVuSans-30"/>
      </g>
     </g>
    </g>
    <g id="text_7">
     <!-- Timestep -->
     <g transform="translate(213.110781 335.860562)scale(0.1 -0.1)">
      <defs>
       <path d="M -19 4666 
L 3928 4666 
L 3928 4134 
L 2272 4134 
L 2272 0 
L 1638 0 
L 1638 4134 
L -19 4134 
L -19 4666 
z
" id="DejaVuSans-54" transform="scale(0.015625)"/>
       <path d="M 603 3500 
L 1178 3500 
L 1178 0 
L 603 0 
L 603 3500 
z
M 603 4863 
L 1178 4863 
L 1178 4134 
L 603 4134 
L 603 4863 
z
" id="DejaVuSans-69" transform="scale(0.015625)"/>
       <path d="M 3328 2828 
Q 3544 3216 3844 3400 
Q 4144 3584 4550 3584 
Q 5097 3584 5394 3201 
Q 5691 2819 5691 2113 
L 5691 0 
L 5113 0 
L 5113 2094 
Q 5113 2597 4934 2840 
Q 4756 3084 4391 3084 
Q 3944 3084 3684 2787 
Q 3425 2491 3425 1978 
L 3425 0 
L 2847 0 
L 2847 2094 
Q 2847 2600 2669 2842 
Q 2491 3084 2119 3084 
Q 1678 3084 1418 2786 
Q 1159 2488 1159 1978 
L 1159 0 
L 581 0 
L 581 3500 
L 1159 3500 
L 1159 2956 
Q 1356 3278 1631 3431 
Q 1906 3584 2284 3584 
Q 2666 3584 2933 3390 
Q 3200 3197 3328 2828 
z
" id="DejaVuSans-6d" transform="scale(0.015625)"/>
       <path d="M 3597 1894 
L 3597 1613 
L 953 1613 
Q 991 1019 1311 708 
Q 1631 397 2203 397 
Q 2534 397 2845 478 
Q 3156 559 3463 722 
L 3463 178 
Q 3153 47 2828 -22 
Q 2503 -91 2169 -91 
Q 1331 -91 842 396 
Q 353 884 353 1716 
Q 353 2575 817 3079 
Q 1281 3584 2069 3584 
Q 2775 3584 3186 3129 
Q 3597 2675 3597 1894 
z
M 3022 2063 
Q 3016 2534 2758 2815 
Q 2500 3097 2075 3097 
Q 1594 3097 1305 2825 
Q 1016 2553 972 2059 
L 3022 2063 
z
" id="DejaVuSans-65" transform="scale(0.015625)"/>
       <path d="M 2834 3397 
L 2834 2853 
Q 2591 2978 2328 3040 
Q 2066 3103 1784 3103 
Q 1356 3103 1142 2972 
Q 928 2841 928 2578 
Q 928 2378 1081 2264 
Q 1234 2150 1697 2047 
L 1894 2003 
Q 2506 1872 2764 1633 
Q 3022 1394 3022 966 
Q 3022 478 2636 193 
Q 2250 -91 1575 -91 
Q 1294 -91 989 -36 
Q 684 19 347 128 
L 347 722 
Q 666 556 975 473 
Q 1284 391 1588 391 
Q 1994 391 2212 530 
Q 2431 669 2431 922 
Q 2431 1156 2273 1281 
Q 2116 1406 1581 1522 
L 1381 1569 
Q 847 1681 609 1914 
Q 372 2147 372 2553 
Q 372 3047 722 3315 
Q 1072 3584 1716 3584 
Q 2034 3584 2315 3537 
Q 2597 3491 2834 3397 
z
" id="DejaVuSans-73" transform="scale(0.015625)"/>
       <path d="M 1172 4494 
L 1172 3500 
L 2356 3500 
L 2356 3053 
L 1172 3053 
L 1172 1153 
Q 1172 725 1289 603 
Q 1406 481 1766 481 
L 2356 481 
L 2356 0 
L 1766 0 
Q 1100 0 847 248 
Q 594 497 594 1153 
L 594 3053 
L 172 3053 
L 172 3500 
L 594 3500 
L 594 4494 
L 1172 4494 
z
" id="DejaVuSans-74" transform="scale(0.015625)"/>
       <path d="M 1159 525 
L 1159 -1331 
L 581 -1331 
L 581 3500 
L 1159 3500 
L 1159 2969 
Q 1341 3281 1617 3432 
Q 1894 3584 2278 3584 
Q 2916 3584 3314 3078 
Q 3713 2572 3713 1747 
Q 3713 922 3314 415 
Q 2916 -91 2278 -91 
Q 1894 -91 1617 61 
Q 1341 213 1159 525 
z
M 3116 1747 
Q 3116 2381 2855 2742 
Q 2594 3103 2138 3103 
Q 1681 3103 1420 2742 
Q 1159 2381 1159 1747 
Q 1159 1113 1420 752 
Q 1681 391 2138 391 
Q 2594 391 2855 752 
Q 3116 1113 3116 1747 
z
" id="DejaVuSans-70" transform="scale(0.015625)"/>
      </defs>
      <use xlink:href="#DejaVuSans-54"/>
      <use x="57.958984" xlink:href="#DejaVuSans-69"/>
      <use x="85.742188" xlink:href="#DejaVuSans-6d"/>
      <use x="183.154297" xlink:href="#DejaVuSans-65"/>
      <use x="244.677734" xlink:href="#DejaVuSans-73"/>
      <use x="296.777344" xlink:href="#DejaVuSans-74"/>
      <use x="335.986328" xlink:href="#DejaVuSans-65"/>
      <use x="397.509766" xlink:href="#DejaVuSans-70"/>
     </g>
    </g>
   </g>
   <g id="matplotlib.axis_2">
    <g id="ytick_1">
     <g id="line2d_7">
      <defs>
       <path d="M 0 0 
L -3.5 0 
" id="m1e2c6f248d" style="stroke:#000000;stroke-width:0.8;"/>
      </defs>
      <g>
       <use style="stroke:#000000;stroke-width:0.8;" x="57.6" xlink:href="#m1e2c6f248d" y="307.584"/>
      </g>
     </g>
     <g id="text_8">
      <!-- 0 -->
      <g transform="translate(44.2375 311.383219)scale(0.1 -0.1)">
       <use xlink:href="#DejaVuSans-30"/>
      </g>
     </g>
    </g>
    <g id="ytick_2">
     <g id="line2d_8">
      <g>
       <use style="stroke:#000000;stroke-width:0.8;" x="57.6" xlink:href="#m1e2c6f248d" y="254.3616"/>
      </g>
     </g>
     <g id="text_9">
      <!-- 200 -->
      <g transform="translate(31.5125 258.160819)scale(0.1 -0.1)">
       <use xlink:href="#DejaVuSans-32"/>
       <use x="63.623047" xlink:href="#DejaVuSans-30"/>
       <use x="127.246094" xlink:href="#DejaVuSans-30"/>
      </g>
     </g>
    </g>
    <g id="ytick_3">
     <g id="line2d_9">
      <g>
       <use style="stroke:#000000;stroke-width:0.8;" x="57.6" xlink:href="#m1e2c6f248d" y="201.1392"/>
      </g>
     </g>
     <g id="text_10">
      <!-- 400 -->
      <g transform="translate(31.5125 204.938419)scale(0.1 -0.1)">
       <use xlink:href="#DejaVuSans-34"/>
       <use x="63.623047" xlink:href="#DejaVuSans-30"/>
       <use x="127.246094" xlink:href="#DejaVuSans-30"/>
      </g>
     </g>
    </g>
    <g id="ytick_4">
     <g id="line2d_10">
      <g>
       <use style="stroke:#000000;stroke-width:0.8;" x="57.6" xlink:href="#m1e2c6f248d" y="147.9168"/>
      </g>
     </g>
     <g id="text_11">
      <!-- 600 -->
      <g transform="translate(31.5125 151.716019)scale(0.1 -0.1)">
       <use xlink:href="#DejaVuSans-36"/>
       <use x="63.623047" xlink:href="#DejaVuSans-30"/>
       <use x="127.246094" xlink:href="#DejaVuSans-30"/>
      </g>
     </g>
    </g>
    <g id="ytick_5">
     <g id="line2d_11">
      <g>
       <use style="stroke:#000000;stroke-width:0.8;" x="57.6" xlink:href="#m1e2c6f248d" y="94.6944"/>
      </g>
     </g>
     <g id="text_12">
      <!-- 800 -->
      <g transform="translate(31.5125 98.493619)scale(0.1 -0.1)">
       <use xlink:href="#DejaVuSans-38"/>
       <use x="63.623047" xlink:href="#DejaVuSans-30"/>
       <use x="127.246094" xlink:href="#DejaVuSans-30"/>
      </g>
     </g>
    </g>
    <g id="ytick_6">
     <g id="line2d_12">
      <g>
       <use style="stroke:#000000;stroke-width:0.8;" x="57.6" xlink:href="#m1e2c6f248d" y="41.472"/>
      </g>
     </g>
     <g id="text_13">
      <!-- 1000 -->
      <g transform="translate(25.15 45.271219)scale(0.1 -0.1)">
       <use xlink:href="#DejaVuSans-31"/>
       <use x="63.623047" xlink:href="#DejaVuSans-30"/>
       <use x="127.246094" xlink:href="#DejaVuSans-30"/>
       <use x="190.869141" xlink:href="#DejaVuSans-30"/>
      </g>
     </g>
    </g>
    <g id="text_14">
     <!-- Reward -->
     <g transform="translate(19.070312 193.149094)rotate(-90)scale(0.1 -0.1)">
      <defs>
       <path d="M 2841 2188 
Q 3044 2119 3236 1894 
Q 3428 1669 3622 1275 
L 4263 0 
L 3584 0 
L 2988 1197 
Q 2756 1666 2539 1819 
Q 2322 1972 1947 1972 
L 1259 1972 
L 1259 0 
L 628 0 
L 628 4666 
L 2053 4666 
Q 2853 4666 3247 4331 
Q 3641 3997 3641 3322 
Q 3641 2881 3436 2590 
Q 3231 2300 2841 2188 
z
M 1259 4147 
L 1259 2491 
L 2053 2491 
Q 2509 2491 2742 2702 
Q 2975 2913 2975 3322 
Q 2975 3731 2742 3939 
Q 2509 4147 2053 4147 
L 1259 4147 
z
" id="DejaVuSans-52" transform="scale(0.015625)"/>
       <path d="M 269 3500 
L 844 3500 
L 1563 769 
L 2278 3500 
L 2956 3500 
L 3675 769 
L 4391 3500 
L 4966 3500 
L 4050 0 
L 3372 0 
L 2619 2869 
L 1863 0 
L 1184 0 
L 269 3500 
z
" id="DejaVuSans-77" transform="scale(0.015625)"/>
       <path d="M 2194 1759 
Q 1497 1759 1228 1600 
Q 959 1441 959 1056 
Q 959 750 1161 570 
Q 1363 391 1709 391 
Q 2188 391 2477 730 
Q 2766 1069 2766 1631 
L 2766 1759 
L 2194 1759 
z
M 3341 1997 
L 3341 0 
L 2766 0 
L 2766 531 
Q 2569 213 2275 61 
Q 1981 -91 1556 -91 
Q 1019 -91 701 211 
Q 384 513 384 1019 
Q 384 1609 779 1909 
Q 1175 2209 1959 2209 
L 2766 2209 
L 2766 2266 
Q 2766 2663 2505 2880 
Q 2244 3097 1772 3097 
Q 1472 3097 1187 3025 
Q 903 2953 641 2809 
L 641 3341 
Q 956 3463 1253 3523 
Q 1550 3584 1831 3584 
Q 2591 3584 2966 3190 
Q 3341 2797 3341 1997 
z
" id="DejaVuSans-61" transform="scale(0.015625)"/>
       <path d="M 2631 2963 
Q 2534 3019 2420 3045 
Q 2306 3072 2169 3072 
Q 1681 3072 1420 2755 
Q 1159 2438 1159 1844 
L 1159 0 
L 581 0 
L 581 3500 
L 1159 3500 
L 1159 2956 
Q 1341 3275 1631 3429 
Q 1922 3584 2338 3584 
Q 2397 3584 2469 3576 
Q 2541 3569 2628 3553 
L 2631 2963 
z
" id="DejaVuSans-72" transform="scale(0.015625)"/>
       <path d="M 2906 2969 
L 2906 4863 
L 3481 4863 
L 3481 0 
L 2906 0 
L 2906 525 
Q 2725 213 2448 61 
Q 2172 -91 1784 -91 
Q 1150 -91 751 415 
Q 353 922 353 1747 
Q 353 2572 751 3078 
Q 1150 3584 1784 3584 
Q 2172 3584 2448 3432 
Q 2725 3281 2906 2969 
z
M 947 1747 
Q 947 1113 1208 752 
Q 1469 391 1925 391 
Q 2381 391 2643 752 
Q 2906 1113 2906 1747 
Q 2906 2381 2643 2742 
Q 2381 3103 1925 3103 
Q 1469 3103 1208 2742 
Q 947 2381 947 1747 
z
" id="DejaVuSans-64" transform="scale(0.015625)"/>
      </defs>
      <use xlink:href="#DejaVuSans-52"/>
      <use x="64.982422" xlink:href="#DejaVuSans-65"/>
      <use x="126.505859" xlink:href="#DejaVuSans-77"/>
      <use x="208.292969" xlink:href="#DejaVuSans-61"/>
      <use x="269.572266" xlink:href="#DejaVuSans-72"/>
      <use x="308.935547" xlink:href="#DejaVuSans-64"/>
     </g>
    </g>
   </g>
   <g id="line2d_13">
    <path clip-path="url(#p6ef5c2af7f)" d="M 73.832727 304.249617 
L 74.157707 304.47182 
L 74.482686 303.320886 
L 75.457625 298.773032 
L 76.107584 293.692954 
L 76.432563 293.237902 
L 76.757543 291.184848 
L 77.082523 290.532874 
L 77.407502 289.158405 
L 77.732482 289.17038 
L 78.057461 288.318822 
L 78.382441 289.106513 
L 78.70742 286.634333 
L 79.0324 287.123979 
L 79.357379 285.400904 
L 79.682359 285.314417 
L 80.007338 282.211551 
L 80.332318 281.809722 
L 80.657297 281.109848 
L 80.982277 279.188519 
L 81.307256 278.664278 
L 81.632236 277.386941 
L 81.957215 274.031268 
L 82.282195 273.087901 
L 82.607174 273.110521 
L 82.932154 272.616883 
L 83.257133 271.716094 
L 83.582113 270.243164 
L 83.907093 269.75884 
L 84.232072 262.98762 
L 84.557052 265.079261 
L 84.882031 259.377811 
L 85.207011 260.25465 
L 85.53199 257.951451 
L 85.85697 252.921934 
L 86.181949 251.290668 
L 86.506929 247.370838 
L 86.831908 247.055495 
L 87.156888 244.019157 
L 87.481867 238.486689 
L 87.806847 238.461408 
L 88.131826 231.370854 
L 88.456806 231.83655 
L 88.781785 232.97817 
L 89.106765 236.474882 
L 89.431744 227.469652 
L 89.756724 231.889772 
L 90.081704 225.984747 
L 90.406683 226.308073 
L 90.731663 225.048033 
L 91.381622 219.307997 
L 91.706601 222.49868 
L 92.031581 215.819268 
L 92.35656 213.344427 
L 92.68154 215.30035 
L 93.006519 214.802721 
L 93.331499 212.084387 
L 93.656478 213.856692 
L 93.981458 214.104177 
L 94.306437 205.934538 
L 94.631417 211.554824 
L 94.956396 202.747847 
L 95.281376 205.000485 
L 95.606355 205.396992 
L 95.931335 206.013041 
L 96.256314 204.27533 
L 96.581294 199.446728 
L 96.906274 200.09471 
L 97.881212 193.097295 
L 98.206192 194.898874 
L 98.531171 201.318826 
L 99.18113 195.876835 
L 99.50611 195.415131 
L 99.831089 193.903615 
L 100.156069 190.859293 
L 100.481048 189.845407 
L 100.806028 189.444908 
L 101.131007 188.159587 
L 101.455987 191.354262 
L 101.780966 189.454222 
L 102.105946 189.161499 
L 102.430925 187.974639 
L 102.755905 186.223622 
L 103.080885 183.563833 
L 103.405864 187.039256 
L 103.730844 183.626369 
L 104.055823 186.785119 
L 104.380803 180.778971 
L 104.705782 180.916019 
L 105.030762 180.309283 
L 105.355741 175.375567 
L 105.680721 179.168993 
L 106.0057 177.111948 
L 106.33068 177.28492 
L 106.655659 175.466045 
L 106.980639 172.852825 
L 107.305618 176.083425 
L 107.630598 175.211908 
L 107.955577 170.633451 
L 108.280557 176.019558 
L 108.605536 167.871208 
L 108.930516 168.150626 
L 109.255495 170.429875 
L 109.905455 169.542392 
L 110.230434 169.243016 
L 110.555414 169.320188 
L 110.880393 169.925593 
L 111.205373 169.89366 
L 111.530352 167.835283 
L 111.855332 166.850669 
L 112.180311 167.545221 
L 112.505291 169.292246 
L 112.83027 166.536657 
L 113.15525 167.418818 
L 113.480229 165.421647 
L 113.805209 161.336828 
L 114.130188 160.883107 
L 114.455168 159.990301 
L 114.780147 160.052838 
L 115.105127 158.198037 
L 115.430106 160.493253 
L 115.755086 161.155872 
L 116.080066 153.481202 
L 116.405045 151.945736 
L 116.730025 151.066236 
L 117.055004 151.331017 
L 117.379984 149.729023 
L 117.704963 154.484444 
L 118.354922 151.320372 
L 118.679902 148.759044 
L 119.004881 152.234467 
L 119.329861 153.288271 
L 119.65484 151.55189 
L 119.97982 147.589482 
L 120.304799 150.040374 
L 120.629779 149.587983 
L 121.279738 147.966031 
L 121.604717 145.592312 
L 121.929697 147.302081 
L 122.254676 145.407364 
L 122.579656 147.004036 
L 122.904636 146.558298 
L 123.229615 142.643791 
L 123.554595 147.404534 
L 123.879574 143.585827 
L 124.204554 141.765621 
L 124.529533 141.177514 
L 124.854513 141.54874 
L 125.179492 140.730445 
L 125.504472 141.275975 
L 125.829451 139.844292 
L 126.154431 140.565456 
L 126.47941 138.762547 
L 127.129369 137.241717 
L 127.454349 134.854692 
L 127.779328 135.41885 
L 128.104308 134.750909 
L 128.429287 135.007707 
L 128.754267 136.837227 
L 129.079247 137.393401 
L 129.729206 132.755069 
L 130.379165 134.617853 
L 130.704144 133.296607 
L 131.029124 130.620851 
L 131.354103 132.326628 
L 131.679083 130.76322 
L 132.004062 130.644801 
L 132.329042 130.212369 
L 132.654021 131.248875 
L 132.979001 129.821184 
L 133.30398 130.328127 
L 133.62896 128.183265 
L 133.953939 126.79416 
L 134.278919 128.668919 
L 134.603898 126.138194 
L 134.928878 127.137444 
L 135.253857 126.379025 
L 135.578837 124.855534 
L 135.903817 125.880065 
L 136.553776 122.222356 
L 136.878755 123.008717 
L 137.853694 119.71292 
L 138.178673 121.416036 
L 138.503653 125.049796 
L 138.828632 118.875997 
L 139.153612 121.647554 
L 139.478591 122.727969 
L 139.803571 122.25562 
L 140.12855 116.969305 
L 140.45353 119.402899 
L 140.778509 119.57055 
L 141.103489 119.35633 
L 141.428468 120.628345 
L 141.753448 120.841235 
L 142.403407 121.546431 
L 143.053366 118.420946 
L 143.378346 118.556663 
L 143.703325 120.933043 
L 144.353284 115.193007 
L 144.678264 119.35633 
L 145.003243 117.473587 
L 145.328223 117.589346 
L 145.978182 115.6281 
L 146.303161 118.130884 
L 146.628141 115.468433 
L 146.95312 115.821032 
L 147.2781 115.833007 
L 147.603079 112.506607 
L 147.928059 114.857706 
L 148.253038 115.17571 
L 148.578018 115.862279 
L 148.902998 115.256874 
L 149.227977 112.34827 
L 149.552957 116.105772 
L 150.202916 113.434007 
L 150.527895 111.966399 
L 150.852875 111.024363 
L 151.177854 110.933885 
L 151.502834 110.537378 
L 151.827813 113.885067 
L 152.477772 109.625944 
L 152.802752 111.000413 
L 153.127731 108.246154 
L 153.452711 112.51326 
L 154.10267 112.494632 
L 154.427649 110.713012 
L 154.752629 112.903114 
L 155.077609 111.644404 
L 155.402588 112.650307 
L 155.727568 112.026275 
L 156.052547 112.639663 
L 156.377527 110.641162 
L 156.702506 110.6385 
L 157.027486 112.607729 
L 157.352465 108.381871 
L 157.677445 109.816214 
L 158.002424 109.478252 
L 158.327404 108.645322 
L 158.652383 108.636008 
L 158.977363 107.584865 
L 159.627322 112.034258 
L 159.952301 112.2538 
L 160.277281 109.229437 
L 160.60226 108.086486 
L 160.92724 109.840164 
L 161.252219 108.279418 
L 161.902179 109.708439 
L 162.227158 109.796256 
L 162.552138 109.660539 
L 162.877117 111.797418 
L 163.202097 109.206818 
L 163.527076 110.118252 
L 163.852056 109.230768 
L 164.502015 111.013718 
L 164.826994 109.177546 
L 165.151974 109.514177 
L 165.476953 108.620041 
L 165.801933 106.773224 
L 166.126912 99.846328 
L 166.451892 101.86878 
L 166.776871 96.774065 
L 167.101851 101.492231 
L 167.42683 103.037011 
L 167.75181 100.488989 
L 168.07679 107.528982 
L 168.401769 103.923164 
L 168.726749 97.620301 
L 169.051728 96.396186 
L 169.376708 95.636436 
L 169.701687 97.975561 
L 170.026667 97.681507 
L 170.676626 95.679014 
L 171.001605 98.350779 
L 171.326585 97.277017 
L 171.651564 94.610575 
L 171.976544 93.804255 
L 172.301523 91.447834 
L 172.626503 94.482841 
L 172.951482 94.607914 
L 173.601441 95.809409 
L 173.926421 92.380556 
L 174.2514 91.644756 
L 174.57638 91.808415 
L 174.90136 94.887331 
L 175.226339 92.795691 
L 175.876298 95.661717 
L 176.201278 95.077601 
L 176.851237 101.621295 
L 177.501196 104.462041 
L 177.826175 100.628698 
L 178.151155 101.32458 
L 178.476134 98.175145 
L 178.801114 100.624706 
L 179.126093 98.731319 
L 179.451073 101.91668 
L 179.776052 99.202337 
L 180.101032 99.545622 
L 180.426011 98.670113 
L 180.750991 97.368826 
L 181.075971 100.019301 
L 181.40095 99.972732 
L 181.72593 103.521335 
L 182.050909 97.145292 
L 182.375889 103.344371 
L 182.700868 97.390115 
L 183.025848 103.831356 
L 183.350827 102.693727 
L 184.000786 97.532484 
L 184.325766 97.866455 
L 184.650745 94.875356 
L 184.975725 99.069281 
L 185.300704 99.294146 
L 185.625684 99.181048 
L 185.950663 99.344707 
L 186.275643 97.125333 
L 186.600622 96.763421 
L 186.925602 99.649405 
L 187.575561 101.572065 
L 187.900541 100.58612 
L 188.22552 100.047243 
L 188.5505 98.490488 
L 188.875479 98.920259 
L 189.200459 101.931316 
L 189.525438 98.698055 
L 189.850418 101.758343 
L 190.175397 101.850152 
L 190.500377 101.319258 
L 190.825356 102.295889 
L 191.150336 102.197428 
L 191.475315 101.594684 
L 191.800295 102.071025 
L 192.125274 103.055639 
L 192.450254 103.65173 
L 192.775233 101.790276 
L 193.100213 101.372481 
L 193.425192 101.635932 
L 193.750172 101.2035 
L 194.075152 100.962668 
L 194.400131 101.404414 
L 194.725111 99.403252 
L 195.05009 99.572233 
L 195.37507 100.928074 
L 195.700049 100.868198 
L 196.025029 102.55801 
L 196.350008 101.059799 
L 196.674988 100.236182 
L 196.999967 97.779969 
L 197.324947 100.986618 
L 197.649926 100.905454 
L 197.974906 106.520417 
L 198.299885 102.802833 
L 198.624865 103.787447 
L 199.274824 108.373887 
L 199.599803 107.755177 
L 200.249762 120.322316 
L 200.574742 121.229758 
L 201.224701 113.338207 
L 201.549681 120.435414 
L 201.87466 111.575215 
L 202.19964 116.788349 
L 202.524619 114.650139 
L 203.174578 132.628666 
L 203.499558 118.844064 
L 203.824537 127.108172 
L 204.149517 120.396828 
L 204.474496 119.103523 
L 204.799476 119.080904 
L 205.124455 115.838329 
L 205.449435 117.921986 
L 206.099394 127.48206 
L 206.424373 128.414782 
L 206.749353 126.486801 
L 207.074333 131.626754 
L 207.399312 125.639234 
L 207.724292 131.517648 
L 208.049271 129.215779 
L 208.374251 129.257027 
L 208.69923 124.582769 
L 209.02421 125.34385 
L 209.349189 118.535374 
L 209.674169 139.941423 
L 210.324128 213.094282 
L 210.649107 223.559136 
L 210.974087 207.024267 
L 211.299066 218.00804 
L 211.624046 221.728285 
L 212.274005 211.846216 
L 212.598984 212.857442 
L 212.923964 216.021514 
L 213.248943 204.823521 
L 213.573923 211.246134 
L 213.898903 208.293621 
L 214.223882 211.892786 
L 214.548862 212.270665 
L 214.873841 205.869341 
L 215.198821 205.494123 
L 215.5238 210.980022 
L 215.84878 212.322557 
L 216.173759 213.119562 
L 216.498739 211.578774 
L 216.823718 213.450872 
L 217.148698 219.293361 
L 217.473677 210.54759 
L 217.798657 215.107419 
L 218.123636 214.669665 
L 218.448616 218.022676 
L 218.773595 214.181349 
L 219.098575 215.53852 
L 219.423554 223.748076 
L 219.748534 222.034314 
L 220.073514 227.089112 
L 220.723473 222.38159 
L 221.048452 221.930531 
L 221.698411 230.899836 
L 222.023391 219.705834 
L 222.34837 225.379342 
L 222.67335 221.997059 
L 222.998329 237.012428 
L 223.323309 265.678013 
L 223.973268 298.999227 
L 224.298247 304.064669 
L 224.623227 304.861674 
L 226.898084 305.385915 
L 230.472858 305.37527 
L 231.772776 305.419179 
L 234.372613 305.380593 
L 236.647469 305.396559 
L 242.172121 305.405873 
L 243.472039 305.389907 
L 246.721835 305.427162 
L 247.696773 305.403212 
L 260.045995 305.391237 
L 261.995872 305.407204 
L 262.970811 305.400551 
L 271.420278 305.39789 
L 279.544767 305.392568 
L 281.169664 305.407204 
L 306.518067 305.405873 
L 307.493006 305.395229 
L 309.117903 305.405873 
L 310.417821 305.403212 
L 311.71774 305.395229 
L 315.942473 305.411196 
L 318.21733 305.380593 
L 319.192269 305.415187 
L 320.817166 305.42184 
L 328.941654 305.417848 
L 329.916593 305.376601 
L 330.891532 305.416518 
L 341.290876 305.393898 
L 355.264996 305.39789 
L 379.313481 305.393898 
L 380.938378 305.408534 
L 384.188174 305.407204 
L 385.163112 305.404543 
L 386.78801 305.411196 
L 388.737887 305.388576 
L 390.687764 305.419179 
L 392.962621 305.395229 
L 394.912498 305.408534 
L 397.837314 305.403212 
L 398.487273 305.401882 
L 398.487273 305.401882 
" style="fill:none;stroke:#1f77b4;stroke-linecap:square;stroke-width:1.5;"/>
   </g>
   <g id="patch_3">
    <path d="M 57.6 307.584 
L 57.6 41.472 
" style="fill:none;stroke:#000000;stroke-linecap:square;stroke-linejoin:miter;stroke-width:0.8;"/>
   </g>
   <g id="patch_4">
    <path d="M 414.72 307.584 
L 414.72 41.472 
" style="fill:none;stroke:#000000;stroke-linecap:square;stroke-linejoin:miter;stroke-width:0.8;"/>
   </g>
   <g id="patch_5">
    <path d="M 57.6 307.584 
L 414.72 307.584 
" style="fill:none;stroke:#000000;stroke-linecap:square;stroke-linejoin:miter;stroke-width:0.8;"/>
   </g>
   <g id="patch_6">
    <path d="M 57.6 41.472 
L 414.72 41.472 
" style="fill:none;stroke:#000000;stroke-linecap:square;stroke-linejoin:miter;stroke-width:0.8;"/>
   </g>
   <g id="text_15">
    <!-- Training - CMA-ES - Cartpole -->
    <g transform="translate(151.906875 35.472)scale(0.12 -0.12)">
     <defs>
      <path d="M 3513 2113 
L 3513 0 
L 2938 0 
L 2938 2094 
Q 2938 2591 2744 2837 
Q 2550 3084 2163 3084 
Q 1697 3084 1428 2787 
Q 1159 2491 1159 1978 
L 1159 0 
L 581 0 
L 581 3500 
L 1159 3500 
L 1159 2956 
Q 1366 3272 1645 3428 
Q 1925 3584 2291 3584 
Q 2894 3584 3203 3211 
Q 3513 2838 3513 2113 
z
" id="DejaVuSans-6e" transform="scale(0.015625)"/>
      <path d="M 2906 1791 
Q 2906 2416 2648 2759 
Q 2391 3103 1925 3103 
Q 1463 3103 1205 2759 
Q 947 2416 947 1791 
Q 947 1169 1205 825 
Q 1463 481 1925 481 
Q 2391 481 2648 825 
Q 2906 1169 2906 1791 
z
M 3481 434 
Q 3481 -459 3084 -895 
Q 2688 -1331 1869 -1331 
Q 1566 -1331 1297 -1286 
Q 1028 -1241 775 -1147 
L 775 -588 
Q 1028 -725 1275 -790 
Q 1522 -856 1778 -856 
Q 2344 -856 2625 -561 
Q 2906 -266 2906 331 
L 2906 616 
Q 2728 306 2450 153 
Q 2172 0 1784 0 
Q 1141 0 747 490 
Q 353 981 353 1791 
Q 353 2603 747 3093 
Q 1141 3584 1784 3584 
Q 2172 3584 2450 3431 
Q 2728 3278 2906 2969 
L 2906 3500 
L 3481 3500 
L 3481 434 
z
" id="DejaVuSans-67" transform="scale(0.015625)"/>
      <path id="DejaVuSans-20" transform="scale(0.015625)"/>
      <path d="M 313 2009 
L 1997 2009 
L 1997 1497 
L 313 1497 
L 313 2009 
z
" id="DejaVuSans-2d" transform="scale(0.015625)"/>
      <path d="M 4122 4306 
L 4122 3641 
Q 3803 3938 3442 4084 
Q 3081 4231 2675 4231 
Q 1875 4231 1450 3742 
Q 1025 3253 1025 2328 
Q 1025 1406 1450 917 
Q 1875 428 2675 428 
Q 3081 428 3442 575 
Q 3803 722 4122 1019 
L 4122 359 
Q 3791 134 3420 21 
Q 3050 -91 2638 -91 
Q 1578 -91 968 557 
Q 359 1206 359 2328 
Q 359 3453 968 4101 
Q 1578 4750 2638 4750 
Q 3056 4750 3426 4639 
Q 3797 4528 4122 4306 
z
" id="DejaVuSans-43" transform="scale(0.015625)"/>
      <path d="M 628 4666 
L 1569 4666 
L 2759 1491 
L 3956 4666 
L 4897 4666 
L 4897 0 
L 4281 0 
L 4281 4097 
L 3078 897 
L 2444 897 
L 1241 4097 
L 1241 0 
L 628 0 
L 628 4666 
z
" id="DejaVuSans-4d" transform="scale(0.015625)"/>
      <path d="M 2188 4044 
L 1331 1722 
L 3047 1722 
L 2188 4044 
z
M 1831 4666 
L 2547 4666 
L 4325 0 
L 3669 0 
L 3244 1197 
L 1141 1197 
L 716 0 
L 50 0 
L 1831 4666 
z
" id="DejaVuSans-41" transform="scale(0.015625)"/>
      <path d="M 628 4666 
L 3578 4666 
L 3578 4134 
L 1259 4134 
L 1259 2753 
L 3481 2753 
L 3481 2222 
L 1259 2222 
L 1259 531 
L 3634 531 
L 3634 0 
L 628 0 
L 628 4666 
z
" id="DejaVuSans-45" transform="scale(0.015625)"/>
      <path d="M 3425 4513 
L 3425 3897 
Q 3066 4069 2747 4153 
Q 2428 4238 2131 4238 
Q 1616 4238 1336 4038 
Q 1056 3838 1056 3469 
Q 1056 3159 1242 3001 
Q 1428 2844 1947 2747 
L 2328 2669 
Q 3034 2534 3370 2195 
Q 3706 1856 3706 1288 
Q 3706 609 3251 259 
Q 2797 -91 1919 -91 
Q 1588 -91 1214 -16 
Q 841 59 441 206 
L 441 856 
Q 825 641 1194 531 
Q 1563 422 1919 422 
Q 2459 422 2753 634 
Q 3047 847 3047 1241 
Q 3047 1584 2836 1778 
Q 2625 1972 2144 2069 
L 1759 2144 
Q 1053 2284 737 2584 
Q 422 2884 422 3419 
Q 422 4038 858 4394 
Q 1294 4750 2059 4750 
Q 2388 4750 2728 4690 
Q 3069 4631 3425 4513 
z
" id="DejaVuSans-53" transform="scale(0.015625)"/>
      <path d="M 1959 3097 
Q 1497 3097 1228 2736 
Q 959 2375 959 1747 
Q 959 1119 1226 758 
Q 1494 397 1959 397 
Q 2419 397 2687 759 
Q 2956 1122 2956 1747 
Q 2956 2369 2687 2733 
Q 2419 3097 1959 3097 
z
M 1959 3584 
Q 2709 3584 3137 3096 
Q 3566 2609 3566 1747 
Q 3566 888 3137 398 
Q 2709 -91 1959 -91 
Q 1206 -91 779 398 
Q 353 888 353 1747 
Q 353 2609 779 3096 
Q 1206 3584 1959 3584 
z
" id="DejaVuSans-6f" transform="scale(0.015625)"/>
      <path d="M 603 4863 
L 1178 4863 
L 1178 0 
L 603 0 
L 603 4863 
z
" id="DejaVuSans-6c" transform="scale(0.015625)"/>
     </defs>
     <use xlink:href="#DejaVuSans-54"/>
     <use x="46.333984" xlink:href="#DejaVuSans-72"/>
     <use x="87.447266" xlink:href="#DejaVuSans-61"/>
     <use x="148.726562" xlink:href="#DejaVuSans-69"/>
     <use x="176.509766" xlink:href="#DejaVuSans-6e"/>
     <use x="239.888672" xlink:href="#DejaVuSans-69"/>
     <use x="267.671875" xlink:href="#DejaVuSans-6e"/>
     <use x="331.050781" xlink:href="#DejaVuSans-67"/>
     <use x="394.527344" xlink:href="#DejaVuSans-20"/>
     <use x="426.314453" xlink:href="#DejaVuSans-2d"/>
     <use x="462.398438" xlink:href="#DejaVuSans-20"/>
     <use x="494.185547" xlink:href="#DejaVuSans-43"/>
     <use x="564.009766" xlink:href="#DejaVuSans-4d"/>
     <use x="650.289062" xlink:href="#DejaVuSans-41"/>
     <use x="716.447266" xlink:href="#DejaVuSans-2d"/>
     <use x="752.53125" xlink:href="#DejaVuSans-45"/>
     <use x="815.714844" xlink:href="#DejaVuSans-53"/>
     <use x="879.191406" xlink:href="#DejaVuSans-20"/>
     <use x="910.978516" xlink:href="#DejaVuSans-2d"/>
     <use x="947.0625" xlink:href="#DejaVuSans-20"/>
     <use x="978.849609" xlink:href="#DejaVuSans-43"/>
     <use x="1048.673828" xlink:href="#DejaVuSans-61"/>
     <use x="1109.953125" xlink:href="#DejaVuSans-72"/>
     <use x="1151.066406" xlink:href="#DejaVuSans-74"/>
     <use x="1190.275391" xlink:href="#DejaVuSans-70"/>
     <use x="1253.751953" xlink:href="#DejaVuSans-6f"/>
     <use x="1314.933594" xlink:href="#DejaVuSans-6c"/>
     <use x="1342.716797" xlink:href="#DejaVuSans-65"/>
    </g>
   </g>
  </g>
 </g>
 <defs>
  <clipPath id="p6ef5c2af7f">
   <rect height="266.112" width="357.12" x="57.6" y="41.472"/>
  </clipPath>
 </defs>
</svg>
