<?xml version="1.0" encoding="utf-8" standalone="no"?>
<!DOCTYPE svg PUBLIC "-//W3C//DTD SVG 1.1//EN"
  "http://www.w3.org/Graphics/SVG/1.1/DTD/svg11.dtd">
<svg height="345.6pt" version="1.1" viewBox="0 0 460.8 345.6" width="460.8pt" xmlns="http://www.w3.org/2000/svg" xmlns:xlink="http://www.w3.org/1999/xlink">
 <metadata>
  <rdf:RDF xmlns:cc="http://creativecommons.org/ns#" xmlns:dc="http://purl.org/dc/elements/1.1/" xmlns:rdf="http://www.w3.org/1999/02/22-rdf-syntax-ns#">
   <cc:Work>
    <dc:type rdf:resource="http://purl.org/dc/dcmitype/StillImage"/>
    <dc:date>2021-07-22T19:44:35.873128</dc:date>
    <dc:format>image/svg+xml</dc:format>
    <dc:creator>
     <cc:Agent>
      <dc:title>Matplotlib v3.4.2, https://matplotlib.org/</dc:title>
     </cc:Agent>
    </dc:creator>
   </cc:Work>
  </rdf:RDF>
 </metadata>
 <defs>
  <style type="text/css">*{stroke-linecap:butt;stroke-linejoin:round;}</style>
 </defs>
 <g id="figure_1">
  <g id="patch_1">
   <path d="M 0 345.6 
L 460.8 345.6 
L 460.8 0 
L 0 0 
z
" style="fill:#ffffff;"/>
  </g>
  <g id="axes_1">
   <g id="patch_2">
    <path d="M 57.6 307.584 
L 414.72 307.584 
L 414.72 41.472 
L 57.6 41.472 
z
" style="fill:#ffffff;"/>
   </g>
   <g id="PolyCollection_1">
    <path clip-path="url(#pad1ab1560e)" d="M 57.9968 304.149159 
L 57.9968 305.95739 
L 58.3936 305.389907 
L 58.7904 306.920051 
L 59.1872 306.618679 
L 59.584 305.022007 
L 59.9808 305.650696 
L 60.3776 304.910905 
L 60.7744 305.300759 
L 61.1712 305.849615 
L 61.568 304.481134 
L 61.9648 305.103171 
L 62.3616 303.873068 
L 62.7584 304.481134 
L 63.1552 304.997391 
L 63.552 304.179097 
L 63.9488 304.421924 
L 64.3456 304.207039 
L 64.7424 304.651446 
L 65.1392 304.600219 
L 65.536 304.358057 
L 65.9328 303.626249 
L 66.3296 304.27024 
L 66.7264 304.143172 
L 67.1232 302.04887 
L 67.52 300.948497 
L 67.9168 303.191156 
L 68.3136 304.193733 
L 68.7104 304.308827 
L 69.1072 300.727624 
L 69.504 303.936935 
L 69.9008 302.819265 
L 70.2976 299.374445 
L 70.6944 303.552403 
L 71.0912 304.030074 
L 71.488 302.142675 
L 71.8848 300.973113 
L 72.2816 303.950241 
L 72.6784 304.018764 
L 73.0752 303.980178 
L 73.472 295.26368 
L 73.8688 291.560066 
L 74.2656 303.189826 
L 74.6624 295.628253 
L 75.0592 304.242964 
L 75.456 303.237726 
L 75.8528 299.859434 
L 76.2496 304.123879 
L 76.6464 300.358394 
L 77.0432 301.720887 
L 77.44 298.42509 
L 77.8368 302.553818 
L 78.2336 296.114573 
L 78.6304 302.408787 
L 79.0272 298.382512 
L 79.424 302.739431 
L 79.8208 304.153816 
L 80.2176 297.991328 
L 80.6144 291.904016 
L 81.0112 290.978611 
L 81.408 301.069578 
L 81.8048 304.035396 
L 82.2016 299.158229 
L 82.5984 294.762059 
L 82.9952 291.739026 
L 83.392 292.065679 
L 83.7888 294.90709 
L 84.1856 303.958889 
L 84.5824 293.476072 
L 84.9792 299.616607 
L 85.376 301.862592 
L 85.7728 303.105335 
L 86.1696 294.668254 
L 86.5664 295.559064 
L 86.9632 295.599646 
L 87.36 290.897447 
L 87.7568 290.76173 
L 88.1536 293.420189 
L 88.5504 304.238972 
L 88.9472 299.883384 
L 89.344 290.186263 
L 89.7408 300.892614 
L 90.1376 293.87391 
L 90.5344 304.21103 
L 90.9312 295.364802 
L 91.328 291.671833 
L 91.7248 296.745924 
L 92.1216 290.957988 
L 92.5184 300.327791 
L 92.9152 304.180428 
L 93.312 295.520478 
L 93.7088 293.687631 
L 94.1056 294.208546 
L 94.5024 303.829825 
L 94.8992 298.487627 
L 95.296 301.464089 
L 95.6928 298.027253 
L 96.0896 303.725376 
L 96.4864 302.602383 
L 96.8832 303.596977 
L 97.28 295.236403 
L 97.6768 295.353492 
L 98.0736 290.757738 
L 98.4704 291.509505 
L 98.8672 290.737115 
L 99.264 300.281887 
L 99.6608 295.401393 
L 100.0576 302.394816 
L 100.4544 296.201059 
L 100.8512 302.080139 
L 101.248 292.066344 
L 101.6448 302.066168 
L 102.0416 294.759397 
L 102.4384 299.512823 
L 102.8352 290.673913 
L 103.232 304.181093 
L 103.6288 304.210365 
L 104.0256 301.861261 
L 104.4224 294.923056 
L 104.8192 293.203308 
L 105.216 293.102185 
L 105.6128 301.765461 
L 106.0096 295.990165 
L 106.4064 302.742092 
L 106.8032 297.430497 
L 107.2 304.204378 
L 107.5968 301.625087 
L 107.9936 302.712155 
L 108.3904 303.399389 
L 108.7872 297.683303 
L 109.184 296.300851 
L 109.5808 297.468418 
L 109.9776 290.437073 
L 110.3744 290.675244 
L 110.7712 298.515568 
L 111.168 302.768703 
L 111.5648 297.822347 
L 111.9616 301.584505 
L 112.3584 294.806632 
L 112.7552 292.462186 
L 113.152 291.311251 
L 113.5488 302.730782 
L 113.9456 301.100846 
L 114.3424 301.442135 
L 114.7392 295.284969 
L 115.136 288.596244 
L 115.5328 291.880066 
L 115.9296 292.725636 
L 116.3264 292.953162 
L 116.7232 295.865093 
L 117.12 304.146498 
L 117.5168 303.050117 
L 117.9136 301.652364 
L 118.3104 302.476645 
L 118.7072 292.830751 
L 119.104 291.103019 
L 119.5008 293.682974 
L 119.8976 304.168452 
L 120.2944 302.817269 
L 120.6912 297.433823 
L 121.088 304.112569 
L 121.4848 294.989584 
L 121.8816 290.504267 
L 122.2784 301.243216 
L 122.6752 295.477235 
L 123.072 288.57695 
L 123.4688 291.311916 
L 123.8656 296.056028 
L 124.2624 293.470085 
L 124.6592 294.377527 
L 125.056 292.68572 
L 125.4528 304.129201 
L 125.8496 302.843215 
L 126.2464 295.551746 
L 126.6432 296.4532 
L 127.04 293.667673 
L 127.4368 296.801142 
L 127.8336 292.635158 
L 128.2304 288.450547 
L 128.6272 290.683227 
L 129.024 295.657525 
L 129.4208 294.15998 
L 129.8176 301.120805 
L 130.2144 293.645719 
L 130.6112 293.797403 
L 131.008 301.991656 
L 131.4048 304.19839 
L 131.8016 293.531956 
L 132.1984 301.515316 
L 132.5952 293.865926 
L 132.992 289.821024 
L 133.3888 289.077906 
L 133.7856 294.776695 
L 134.1824 287.266349 
L 134.5792 288.721316 
L 134.976 292.507425 
L 135.3728 295.771954 
L 135.7696 304.042049 
L 136.1664 294.845884 
L 136.5632 290.767052 
L 136.96 292.815449 
L 137.3568 290.231502 
L 137.7536 300.86068 
L 138.1504 292.985096 
L 138.5472 295.034823 
L 138.944 289.115827 
L 139.3408 289.067262 
L 139.7376 293.852621 
L 140.1344 295.249709 
L 140.5312 290.374537 
L 140.928 294.831248 
L 141.3248 292.417612 
L 141.7216 302.214525 
L 142.1184 295.265676 
L 142.5152 290.771709 
L 142.912 289.25354 
L 143.3088 287.755995 
L 143.7056 300.435566 
L 144.1024 298.522886 
L 144.4992 293.031665 
L 144.896 289.692625 
L 145.2928 301.174027 
L 145.6896 302.465336 
L 146.0864 302.083465 
L 146.4832 296.98609 
L 146.88 301.404879 
L 147.2768 295.419355 
L 147.6736 294.221851 
L 148.0704 295.02684 
L 148.4672 288.969466 
L 148.864 289.926138 
L 149.2608 301.841968 
L 149.6576 304.122548 
L 150.0544 294.829252 
L 150.4512 286.412129 
L 150.848 291.977862 
L 151.2448 293.287798 
L 151.6416 290.647302 
L 152.0384 291.036491 
L 152.4352 290.070504 
L 152.832 301.345004 
L 153.2288 296.777192 
L 153.6256 288.63616 
L 154.0224 288.095953 
L 154.4192 288.582938 
L 154.816 288.926222 
L 155.2128 289.984683 
L 155.6096 288.996077 
L 156.0064 289.469756 
L 156.4032 291.93861 
L 156.8 289.997323 
L 157.1968 302.377519 
L 157.5936 296.646132 
L 157.9904 295.350166 
L 158.3872 290.04855 
L 158.784 287.506515 
L 159.1808 294.382849 
L 159.5776 288.827761 
L 159.9744 288.149841 
L 160.3712 300.397645 
L 160.768 294.525884 
L 161.1648 289.333374 
L 161.5616 288.798489 
L 161.9584 289.689299 
L 162.3552 288.840401 
L 162.752 289.178364 
L 163.1488 287.871088 
L 163.5456 296.640144 
L 163.9424 289.068592 
L 164.3392 292.635158 
L 164.736 288.81379 
L 165.1328 287.613625 
L 165.5296 296.762556 
L 165.9264 295.736694 
L 166.3232 294.448712 
L 166.72 292.924555 
L 167.1168 294.794657 
L 167.5136 290.502271 
L 167.9104 294.923722 
L 168.3072 289.175037 
L 168.704 291.731043 
L 169.1008 290.236159 
L 169.4976 290.545514 
L 169.8944 290.439069 
L 170.2912 295.334865 
L 170.688 296.57162 
L 171.0848 294.223847 
L 171.4816 287.726057 
L 171.8784 297.143761 
L 172.2752 290.1204 
L 172.672 288.248967 
L 173.0688 302.530533 
L 173.4656 299.874735 
L 173.8624 300.593903 
L 174.2592 294.988919 
L 174.656 289.095204 
L 175.0528 289.266846 
L 175.4496 289.434496 
L 175.8464 289.580193 
L 176.2432 288.676077 
L 176.64 289.200318 
L 177.0368 285.992338 
L 177.4336 289.264185 
L 177.8304 288.358073 
L 178.2272 289.344018 
L 178.624 294.321643 
L 179.0208 291.617945 
L 179.4176 291.812207 
L 179.8144 292.895948 
L 180.2112 299.407709 
L 180.608 294.066841 
L 181.0048 293.491374 
L 181.4016 296.057359 
L 181.7984 303.263672 
L 182.1952 298.295361 
L 182.592 302.321635 
L 182.9888 304.085292 
L 183.3856 302.094109 
L 183.7824 298.060517 
L 184.1792 293.456114 
L 184.576 288.042065 
L 184.9728 292.476156 
L 185.3696 301.482052 
L 185.7664 290.253456 
L 186.1632 289.822355 
L 186.56 293.657694 
L 186.9568 289.312085 
L 187.3536 296.605549 
L 187.7504 298.23482 
L 188.1472 293.433494 
L 188.544 296.823761 
L 188.9408 289.934122 
L 189.3376 292.22202 
L 189.7344 290.220192 
L 190.1312 290.170296 
L 190.528 288.517075 
L 190.9248 300.299849 
L 191.3216 300.404964 
L 191.7184 302.053527 
L 192.1152 298.902761 
L 192.512 292.367716 
L 192.9088 297.741848 
L 193.3056 294.356238 
L 193.7024 303.137934 
L 194.0992 300.969786 
L 194.496 302.160637 
L 194.8928 299.922636 
L 195.2896 292.308506 
L 195.6864 288.512418 
L 196.0832 287.386099 
L 196.48 289.259528 
L 196.8768 292.350419 
L 197.2736 299.049788 
L 197.6704 289.732542 
L 198.0672 286.715497 
L 198.464 288.262273 
L 198.8608 300.961138 
L 199.2576 292.417612 
L 199.6544 287.38743 
L 200.0512 286.446724 
L 200.448 292.375699 
L 200.8448 295.159896 
L 201.2416 288.167138 
L 201.6384 292.464181 
L 202.0352 292.369046 
L 202.432 290.047884 
L 202.8288 289.16905 
L 203.2256 293.802725 
L 203.6224 303.641551 
L 204.0192 296.050706 
L 204.416 294.714824 
L 204.8128 288.606223 
L 205.2096 292.379691 
L 205.6064 295.931621 
L 206.0032 294.978275 
L 206.4 289.113831 
L 206.7968 293.643058 
L 207.1936 288.787844 
L 207.5904 290.022604 
L 207.9872 289.921481 
L 208.384 289.296783 
L 208.7808 288.769882 
L 209.1776 297.738521 
L 209.5744 287.54244 
L 209.9712 288.640152 
L 210.368 290.191585 
L 210.7648 289.047969 
L 211.1616 295.93029 
L 211.5584 297.552243 
L 211.9552 297.187004 
L 212.352 295.244387 
L 212.7488 287.621608 
L 213.1456 289.548924 
L 213.5424 289.44381 
L 213.9392 298.264092 
L 214.336 288.250298 
L 214.7328 289.357989 
L 215.1296 302.943007 
L 215.5264 296.324801 
L 215.9232 287.665517 
L 216.32 289.278156 
L 216.7168 289.069923 
L 217.1136 291.370461 
L 217.5104 294.688212 
L 217.9072 289.220276 
L 218.304 293.691623 
L 218.7008 289.916824 
L 219.0976 299.307252 
L 219.4944 296.278897 
L 219.8912 289.429174 
L 220.288 295.840477 
L 220.6848 295.025509 
L 221.0816 296.510414 
L 221.4784 295.843139 
L 221.8752 289.118488 
L 222.272 289.605473 
L 222.6688 288.095288 
L 223.0656 288.616202 
L 223.4624 290.92938 
L 223.8592 302.823922 
L 224.256 299.067085 
L 224.6528 288.767886 
L 225.0496 288.686056 
L 225.4464 289.912167 
L 225.8432 291.069755 
L 226.24 298.227502 
L 226.6368 290.13171 
L 227.0336 289.948758 
L 227.4304 290.509589 
L 227.8272 292.221354 
L 228.224 291.220773 
L 228.6208 289.96672 
L 229.0176 296.777857 
L 229.4144 296.587587 
L 229.8112 303.066084 
L 230.208 295.599646 
L 230.6048 291.340524 
L 231.0016 296.516402 
L 231.3984 289.123145 
L 231.7952 296.69004 
L 232.192 296.009459 
L 232.5888 298.105756 
L 232.9856 294.128712 
L 233.3824 288.645474 
L 233.7792 287.522482 
L 234.176 288.141857 
L 234.5728 290.216866 
L 234.9696 289.896866 
L 235.3664 290.815618 
L 235.7632 291.148258 
L 236.16 289.968051 
L 236.5568 290.79699 
L 236.9536 289.909506 
L 237.3504 301.128788 
L 237.7472 296.654115 
L 238.144 300.436897 
L 238.5408 301.32305 
L 238.9376 296.849042 
L 239.3344 294.026259 
L 239.7312 295.651538 
L 240.128 297.544925 
L 240.5248 294.494616 
L 240.9216 288.515079 
L 241.3184 289.375286 
L 241.7152 287.499197 
L 242.112 294.488628 
L 242.5088 290.741106 
L 242.9056 288.988093 
L 243.3024 304.22101 
L 243.6992 301.279807 
L 244.096 293.299108 
L 244.4928 300.760223 
L 244.8896 292.279899 
L 245.2864 292.609878 
L 245.6832 298.170288 
L 246.08 302.239806 
L 246.4768 297.693948 
L 246.8736 301.559224 
L 247.2704 302.052197 
L 247.6672 300.174111 
L 248.064 288.752584 
L 248.4608 287.775288 
L 248.8576 294.370874 
L 249.2544 291.027177 
L 249.6512 289.599486 
L 250.048 295.744012 
L 250.4448 297.353989 
L 250.8416 297.264177 
L 251.2384 290.325972 
L 251.6352 289.492376 
L 252.032 290.47566 
L 252.4288 289.024019 
L 252.8256 286.46136 
L 253.2224 287.650215 
L 253.6192 286.384188 
L 254.016 298.518895 
L 254.4128 296.038731 
L 254.8096 289.588176 
L 255.2064 288.90959 
L 255.6032 292.157487 
L 256 290.38119 
L 256.3968 288.242315 
L 256.7936 285.11949 
L 257.1904 287.977533 
L 257.5872 298.005299 
L 257.984 287.235081 
L 258.3808 290.351252 
L 258.7776 283.923982 
L 259.1744 290.16697 
L 259.5712 292.169462 
L 259.968 288.424601 
L 260.3648 289.158405 
L 260.7616 296.505092 
L 261.1584 289.037324 
L 261.5552 294.044887 
L 261.952 289.462438 
L 262.3488 289.078572 
L 262.7456 289.916159 
L 263.1424 298.213531 
L 263.5392 295.75266 
L 263.936 296.138523 
L 264.3328 288.815121 
L 264.7296 284.584605 
L 265.1264 288.277574 
L 265.5232 289.135786 
L 265.92 298.469664 
L 266.3168 297.169707 
L 266.7136 288.281566 
L 267.1104 288.867012 
L 267.5072 289.173041 
L 267.904 289.534288 
L 268.3008 287.302274 
L 268.6976 287.306931 
L 269.0944 291.766303 
L 269.4912 287.871754 
L 269.888 286.77138 
L 270.2848 290.743102 
L 270.6816 301.222593 
L 271.0784 298.001307 
L 271.4752 289.530962 
L 271.872 288.821108 
L 272.2688 286.847222 
L 272.6656 290.495618 
L 273.0624 291.988506 
L 273.4592 289.880899 
L 273.856 289.363311 
L 274.2528 291.291293 
L 274.6496 289.246887 
L 275.0464 286.48531 
L 275.4432 285.306434 
L 275.84 288.870339 
L 276.2368 290.756408 
L 276.6336 286.951671 
L 277.0304 287.310923 
L 277.4272 284.625852 
L 277.824 291.568715 
L 278.2208 297.426505 
L 278.6176 294.863181 
L 279.0144 285.996995 
L 279.4112 297.923469 
L 279.808 296.260269 
L 280.2048 289.771128 
L 280.6016 288.062689 
L 280.9984 300.479475 
L 281.3952 295.901018 
L 281.792 291.713746 
L 282.1888 291.979192 
L 282.5856 287.477908 
L 282.9824 287.688136 
L 283.3792 292.081645 
L 283.776 287.098033 
L 284.1728 287.789924 
L 284.5696 289.32406 
L 284.9664 289.206971 
L 285.3632 296.415945 
L 285.76 289.844974 
L 286.1568 290.532874 
L 286.5536 296.246964 
L 286.9504 290.580774 
L 287.3472 292.156822 
L 287.744 291.015202 
L 288.1408 287.456619 
L 288.5376 289.192334 
L 288.9344 287.521151 
L 289.3312 289.353332 
L 289.728 287.131962 
L 290.1248 289.285474 
L 290.5216 290.607385 
L 290.9184 290.967301 
L 291.3152 286.009635 
L 291.712 287.351505 
L 292.1088 290.472998 
L 292.5056 288.040735 
L 292.9024 288.26826 
L 293.2992 288.563645 
L 293.696 290.269423 
L 294.0928 288.506431 
L 294.4896 289.719901 
L 294.8864 287.740693 
L 295.2832 290.423102 
L 295.68 303.013526 
L 296.0768 298.218853 
L 296.4736 290.643975 
L 296.8704 289.035994 
L 297.2672 289.607469 
L 297.664 289.429174 
L 298.0608 291.020524 
L 298.4576 289.864932 
L 298.8544 303.0581 
L 299.2512 300.274569 
L 299.648 297.83166 
L 300.0448 296.833075 
L 300.4416 289.840317 
L 300.8384 289.280817 
L 301.2352 300.049704 
L 301.632 298.102429 
L 302.0288 290.419111 
L 302.4256 289.909506 
L 302.8224 288.154498 
L 303.2192 288.746597 
L 303.616 300.699683 
L 304.0128 293.46942 
L 304.4096 285.811381 
L 304.8064 296.422597 
L 305.2032 290.08381 
L 305.6 287.798573 
L 305.9968 296.011454 
L 306.3936 291.935949 
L 306.7904 296.432577 
L 307.1872 290.808965 
L 307.584 293.853951 
L 307.9808 290.08381 
L 308.3776 288.256285 
L 308.7744 297.066588 
L 309.1712 298.069831 
L 309.568 290.951335 
L 309.9648 289.355993 
L 310.3616 288.684726 
L 310.7584 303.48521 
L 311.1552 297.874904 
L 311.552 285.74818 
L 311.9488 290.854204 
L 312.3456 294.062184 
L 312.7424 297.163719 
L 313.1392 289.239569 
L 313.536 289.465764 
L 313.9328 302.199224 
L 314.3296 292.819441 
L 314.7264 285.087557 
L 315.1232 290.240816 
L 315.52 290.238155 
L 315.9168 287.2098 
L 316.3136 289.488384 
L 316.7104 286.66427 
L 317.1072 286.92506 
L 317.504 289.730546 
L 317.9008 290.368549 
L 318.2976 290.164308 
L 318.6944 297.64006 
L 319.0912 291.002561 
L 319.488 290.522894 
L 319.8848 288.645474 
L 320.2816 289.390588 
L 320.6784 286.563813 
L 321.0752 286.823272 
L 321.472 293.84996 
L 321.8688 290.554828 
L 322.2656 288.652127 
L 322.6624 287.236411 
L 323.0592 284.132215 
L 323.456 284.864688 
L 323.8528 288.116577 
L 324.2496 288.42061 
L 324.6464 286.007639 
L 325.0432 288.863021 
L 325.44 302.179931 
L 325.8368 298.82958 
L 326.2336 288.497782 
L 326.6304 288.779196 
L 327.0272 293.850625 
L 327.424 302.905751 
L 327.8208 298.12638 
L 328.2176 288.233001 
L 328.6144 284.899283 
L 329.0112 290.373206 
L 329.408 295.951579 
L 329.8048 293.448131 
L 330.2016 289.747843 
L 330.5984 289.462438 
L 330.9952 294.112745 
L 331.392 287.462606 
L 331.7888 287.693459 
L 332.1856 289.616118 
L 332.5824 288.044726 
L 332.9792 285.162733 
L 333.376 288.627512 
L 333.7728 287.736702 
L 334.1696 291.035825 
L 334.5664 289.494372 
L 334.9632 296.60688 
L 335.36 288.844393 
L 335.7568 287.864436 
L 336.1536 284.841403 
L 336.5504 287.454623 
L 336.9472 289.158405 
L 337.344 290.294038 
L 337.7408 290.686553 
L 338.1376 287.83982 
L 338.5344 285.476746 
L 338.9312 296.050041 
L 339.328 289.192334 
L 339.7248 297.686629 
L 340.1216 286.724811 
L 340.5184 288.734622 
L 340.9152 286.77138 
L 341.312 290.057198 
L 341.7088 293.313744 
L 342.1056 289.620775 
L 342.5024 300.405629 
L 342.8992 293.885885 
L 343.296 288.893624 
L 343.6928 286.542524 
L 344.0896 287.675496 
L 344.4864 289.428509 
L 344.8832 286.719489 
L 345.28 285.971049 
L 345.6768 285.799406 
L 346.0736 288.229009 
L 346.4704 288.539695 
L 346.8672 290.011959 
L 347.264 288.23167 
L 347.6608 288.499778 
L 348.0576 288.551004 
L 348.4544 287.795912 
L 348.8512 289.388592 
L 349.248 288.918239 
L 349.6448 289.751835 
L 350.0416 294.998233 
L 350.4384 296.421932 
L 350.8352 288.539695 
L 351.232 286.594416 
L 351.6288 292.094286 
L 352.0256 289.233582 
L 352.4224 285.581195 
L 352.8192 280.60357 
L 353.216 284.801486 
L 353.6128 285.494708 
L 354.0096 289.181025 
L 354.4064 288.588925 
L 354.8032 289.611461 
L 355.2 286.823938 
L 355.5968 282.405813 
L 355.9936 272.966155 
L 356.3904 288.874996 
L 356.7872 286.204562 
L 357.184 286.207888 
L 357.5808 289.523644 
L 357.9776 289.504351 
L 358.3744 289.950754 
L 358.7712 288.763229 
L 359.168 288.767886 
L 359.5648 285.159407 
L 359.9616 287.306931 
L 360.3584 286.090799 
L 360.7552 289.733207 
L 361.152 298.422429 
L 361.5488 292.505429 
L 361.9456 301.454775 
L 362.3424 297.267503 
L 362.7392 296.331454 
L 363.136 287.722066 
L 363.5328 289.553581 
L 363.9296 289.905515 
L 364.3264 288.256285 
L 364.7232 285.908512 
L 365.12 285.769469 
L 365.5168 287.751338 
L 365.9136 289.856949 
L 366.3104 287.306931 
L 366.7072 287.722731 
L 367.104 289.379943 
L 367.5008 288.18377 
L 367.8976 287.406058 
L 368.2944 289.112501 
L 368.6912 285.867265 
L 369.088 301.209287 
L 369.4848 296.011454 
L 369.8816 287.55508 
L 370.2784 296.088627 
L 370.6752 292.84206 
L 371.072 285.585852 
L 371.4688 302.686874 
L 371.8656 292.999732 
L 372.2624 287.018199 
L 372.6592 297.853615 
L 373.056 287.096702 
L 373.4528 290.009298 
L 373.8496 287.972211 
L 374.2464 287.147929 
L 374.6432 288.89695 
L 375.04 287.451962 
L 375.4368 288.57695 
L 375.8336 287.765974 
L 376.2304 289.633415 
L 376.6272 292.934534 
L 377.024 286.309676 
L 377.4208 297.662014 
L 377.8176 289.332043 
L 378.2144 286.678241 
L 378.6112 287.123979 
L 379.008 289.128468 
L 379.4048 287.28032 
L 379.8016 288.506431 
L 380.1984 286.705518 
L 380.5952 287.624269 
L 380.992 287.114 
L 381.3888 287.057451 
L 381.7856 284.711674 
L 382.1824 291.493538 
L 382.5792 289.029341 
L 382.976 285.905851 
L 383.3728 285.280488 
L 383.7696 285.208638 
L 384.1664 299.629247 
L 384.5632 296.515071 
L 384.96 289.077241 
L 385.3568 286.404811 
L 385.7536 287.131297 
L 386.1504 286.486641 
L 386.5472 287.607637 
L 386.944 288.86169 
L 387.3408 286.275082 
L 387.7376 290.356574 
L 388.1344 289.302771 
L 388.5312 287.137284 
L 388.928 286.123398 
L 389.3248 295.040146 
L 389.7216 289.923477 
L 390.1184 288.676742 
L 390.5152 289.378613 
L 390.912 297.061932 
L 391.3088 294.59973 
L 391.7056 288.226348 
L 392.1024 286.271755 
L 392.4992 288.511753 
L 392.896 290.753747 
L 393.2928 286.405476 
L 393.6896 286.006308 
L 394.0864 289.409216 
L 394.4832 289.520983 
L 394.88 288.799819 
L 395.2768 286.090799 
L 395.6736 286.81662 
L 396.0704 288.103936 
L 396.4672 290.164308 
L 396.864 288.89562 
L 397.2608 288.931545 
L 397.6576 287.37612 
L 398.0544 288.718655 
L 398.4512 298.384508 
L 398.848 290.825597 
L 399.2448 287.123979 
L 399.6416 286.652961 
L 400.0384 286.075498 
L 400.4352 286.088138 
L 400.832 290.088467 
L 401.2288 285.162068 
L 401.6256 285.389594 
L 402.0224 285.623107 
L 402.4192 298.056525 
L 402.816 288.49246 
L 403.2128 288.928884 
L 403.6096 290.124392 
L 404.0064 287.183854 
L 404.4032 284.759574 
L 404.8 285.327723 
L 405.1968 285.632421 
L 405.5936 281.446479 
L 405.9904 286.148013 
L 406.3872 288.891628 
L 406.784 288.770547 
L 407.1808 287.561068 
L 407.5776 286.149344 
L 407.9744 285.341694 
L 408.3712 286.193252 
L 408.768 284.617869 
L 409.1648 284.877994 
L 409.5616 286.277743 
L 409.9584 284.071009 
L 410.3552 288.504435 
L 410.752 285.44082 
L 411.1488 288.829757 
L 411.5456 286.585767 
L 411.9424 286.394167 
L 412.3392 289.232251 
L 412.736 290.075161 
L 413.1328 289.839652 
L 413.5296 288.846389 
L 413.9264 287.18718 
L 414.3232 286.983605 
L 414.72 288.020776 
L 415.1168 285.978367 
L 415.5136 284.864688 
L 415.9104 285.475415 
L 416.3072 288.089965 
L 416.704 285.860612 
L 417.1008 287.431338 
L 417.4976 288.086639 
L 417.8944 286.594416 
L 418.2912 287.582357 
L 418.688 302.787996 
L 419.0848 295.138607 
L 419.4816 284.776871 
L 419.8784 287.007555 
L 420.2752 290.051876 
L 420.672 286.750092 
L 421.0688 300.001804 
L 421.4656 295.367463 
L 421.8624 288.26826 
L 422.2592 285.128139 
L 422.656 288.06535 
L 423.0528 288.304851 
L 423.4496 285.680321 
L 423.8464 287.286307 
L 424.2432 288.904268 
L 424.64 286.708179 
L 425.0368 278.990931 
L 425.4336 285.446143 
L 425.8304 287.136619 
L 426.2272 287.556411 
L 426.624 284.886642 
L 427.0208 288.572293 
L 427.4176 284.19209 
L 427.8144 294.933701 
L 428.2112 285.744188 
L 428.608 285.227931 
L 429.0048 287.527139 
L 429.4016 285.718908 
L 429.7984 285.919157 
L 430.1952 289.127137 
L 430.592 289.443145 
L 430.9888 287.134623 
L 431.3856 289.51566 
L 431.7824 294.176612 
L 432.1792 289.7046 
L 432.576 290.230836 
L 432.9728 289.049964 
L 433.3696 286.714832 
L 433.7664 288.042731 
L 434.1632 289.940109 
L 434.56 285.871257 
L 434.9568 289.968716 
L 435.3536 286.167306 
L 435.7504 289.232251 
L 436.1472 288.840401 
L 436.544 287.710756 
L 436.9408 287.406058 
L 437.3376 287.97088 
L 437.7344 287.247721 
L 438.1312 288.90826 
L 438.528 288.699362 
L 438.9248 284.67841 
L 439.3216 286.14003 
L 439.7184 284.77554 
L 440.1152 284.122901 
L 440.512 286.184604 
L 440.9088 285.058284 
L 441.3056 285.045644 
L 441.7024 282.444399 
L 442.0992 288.170464 
L 442.496 284.867349 
L 442.8928 285.501361 
L 443.2896 289.179694 
L 443.6864 285.737535 
L 444.0832 284.840738 
L 444.48 284.329803 
L 444.8768 285.44082 
L 445.2736 287.604976 
L 445.6704 283.798244 
L 446.0672 286.214541 
L 446.464 285.466766 
L 446.8608 287.7693 
L 447.2576 286.875164 
L 447.6544 298.671909 
L 448.0512 285.621111 
L 448.448 289.281482 
L 448.8448 286.696204 
L 449.2416 297.354655 
L 449.6384 287.084062 
L 450.0352 286.487306 
L 450.432 285.839323 
L 450.8288 285.713585 
L 451.2256 285.732878 
L 451.6224 289.152418 
L 452.0192 287.160569 
L 452.416 284.471508 
L 452.8128 287.653542 
L 453.2096 288.618863 
L 453.6064 298.30667 
L 453.6064 291.886718 
L 453.6064 291.886718 
L 453.2096 253.392952 
L 452.8128 279.343529 
L 452.416 253.620478 
L 452.0192 278.507272 
L 451.6224 224.366121 
L 451.2256 263.56974 
L 450.8288 280.570971 
L 450.432 279.750681 
L 450.0352 281.439161 
L 449.6384 280.880991 
L 449.2416 282.249472 
L 448.8448 273.1205 
L 448.448 281.167727 
L 448.0512 257.419892 
L 447.6544 279.660868 
L 447.2576 277.1348 
L 446.8608 244.00186 
L 446.464 280.541033 
L 446.0672 242.602776 
L 445.6704 254.348294 
L 445.2736 259.172905 
L 444.8768 244.01317 
L 444.48 265.095893 
L 444.0832 280.928226 
L 443.6864 262.17864 
L 443.2896 279.78594 
L 442.8928 280.204402 
L 442.496 281.544276 
L 442.0992 279.374132 
L 441.7024 219.342591 
L 441.3056 240.275627 
L 440.9088 241.042694 
L 440.512 279.056794 
L 440.1152 274.051227 
L 439.7184 263.418057 
L 439.3216 243.572089 
L 438.9248 251.548796 
L 438.528 267.032523 
L 438.1312 283.282652 
L 437.7344 269.382957 
L 437.3376 264.338804 
L 436.9408 263.236435 
L 436.544 263.463296 
L 436.1472 284.09629 
L 435.7504 283.194835 
L 435.3536 245.058324 
L 434.9568 256.411993 
L 434.56 284.543358 
L 434.1632 283.960572 
L 433.7664 262.505958 
L 433.3696 278.01563 
L 432.9728 276.526734 
L 432.576 263.49656 
L 432.1792 278.718166 
L 431.7824 267.266701 
L 431.3856 281.562903 
L 430.9888 269.02038 
L 430.592 279.885067 
L 430.1952 282.009972 
L 429.7984 276.818792 
L 429.4016 262.743463 
L 429.0048 247.986887 
L 428.608 278.746773 
L 428.2112 250.984639 
L 427.8144 250.116448 
L 427.4176 246.934414 
L 427.0208 279.936294 
L 426.624 262.368245 
L 426.2272 274.403825 
L 425.8304 278.959663 
L 425.4336 233.075301 
L 425.0368 240.594296 
L 424.64 266.840922 
L 424.2432 272.814471 
L 423.8464 282.280075 
L 423.4496 257.143801 
L 423.0528 283.641903 
L 422.656 279.259704 
L 422.2592 264.47186 
L 421.8624 282.269431 
L 421.4656 271.469275 
L 421.0688 282.693879 
L 420.672 268.610567 
L 420.2752 247.524517 
L 419.8784 279.257043 
L 419.4816 280.634838 
L 419.0848 281.141781 
L 418.688 284.2992 
L 418.2912 249.47778 
L 417.8944 278.44141 
L 417.4976 284.251965 
L 417.1008 283.364482 
L 416.704 277.698292 
L 416.3072 283.987849 
L 415.9104 221.206041 
L 415.5136 240.84311 
L 415.1168 269.808736 
L 414.72 286.084812 
L 414.3232 257.298811 
L 413.9264 268.631191 
L 413.5296 260.90729 
L 413.1328 268.088322 
L 412.736 281.869597 
L 412.3392 282.049888 
L 411.9424 260.507457 
L 411.5456 269.721585 
L 411.1488 280.463861 
L 410.752 268.02379 
L 410.3552 282.758412 
L 409.9584 247.064809 
L 409.5616 254.957026 
L 409.1648 229.072311 
L 408.768 255.00426 
L 408.3712 270.658964 
L 407.9744 271.187862 
L 407.5776 263.991528 
L 407.1808 268.163499 
L 406.784 236.037793 
L 406.3872 185.769236 
L 405.9904 211.777692 
L 405.5936 228.579339 
L 405.1968 249.521688 
L 404.8 241.546977 
L 404.4032 251.260065 
L 404.0064 259.989204 
L 403.6096 283.588016 
L 403.2128 264.767244 
L 402.816 269.452146 
L 402.4192 282.59941 
L 402.0224 255.214489 
L 401.6256 262.567829 
L 401.2288 264.725332 
L 400.832 284.063026 
L 400.4352 267.055808 
L 400.0384 268.99776 
L 399.6416 269.975056 
L 399.2448 257.397938 
L 398.848 283.946602 
L 398.4512 261.115523 
L 398.0544 281.502363 
L 397.6576 273.99867 
L 397.2608 280.78386 
L 396.864 274.731143 
L 396.4672 284.745603 
L 396.0704 256.325507 
L 395.6736 220.864087 
L 395.2768 258.156357 
L 394.88 282.389846 
L 394.4832 282.121073 
L 394.0864 285.911173 
L 393.6896 255.467295 
L 393.2928 246.965682 
L 392.896 267.64458 
L 392.4992 279.796585 
L 392.1024 273.030022 
L 391.7056 281.453132 
L 391.3088 274.691892 
L 390.912 258.098478 
L 390.5152 282.146354 
L 390.1184 253.176736 
L 389.7216 283.401072 
L 389.3248 272.089981 
L 388.928 270.014973 
L 388.5312 259.640597 
L 388.1344 271.457965 
L 387.7376 280.8291 
L 387.3408 281.365315 
L 386.944 283.043817 
L 386.5472 259.292655 
L 386.1504 282.846894 
L 385.7536 282.639992 
L 385.3568 279.370806 
L 384.96 283.552091 
L 384.5632 269.422874 
L 384.1664 282.291385 
L 383.7696 251.753037 
L 383.3728 270.25647 
L 382.976 259.741054 
L 382.5792 281.310097 
L 382.1824 271.282332 
L 381.7856 259.460306 
L 381.3888 281.816375 
L 380.992 282.802985 
L 380.5952 263.545125 
L 380.1984 276.832097 
L 379.8016 272.588941 
L 379.4048 282.444399 
L 379.008 270.891147 
L 378.6112 271.346198 
L 378.2144 282.858869 
L 377.8176 254.726173 
L 377.4208 285.356995 
L 377.024 257.51037 
L 376.6272 281.182363 
L 376.2304 269.451481 
L 375.8336 281.156417 
L 375.4368 282.401821 
L 375.04 283.885396 
L 374.6432 224.984166 
L 374.2464 251.857486 
L 373.8496 269.445493 
L 373.4528 276.954509 
L 373.056 281.899535 
L 372.6592 254.802681 
L 372.2624 267.532813 
L 371.8656 284.720322 
L 371.4688 227.159631 
L 371.072 267.544788 
L 370.6752 268.85406 
L 370.2784 284.559324 
L 369.8816 270.37489 
L 369.4848 249.847675 
L 369.088 275.850809 
L 368.6912 267.482252 
L 368.2944 269.809402 
L 367.8976 250.418485 
L 367.5008 269.909194 
L 367.104 271.684161 
L 366.7072 281.936791 
L 366.3104 263.090074 
L 365.9136 276.420954 
L 365.5168 272.179794 
L 365.12 279.736044 
L 364.7232 231.91971 
L 364.3264 272.185116 
L 363.9296 281.976042 
L 363.5328 269.29514 
L 363.136 253.359023 
L 362.7392 270.631022 
L 362.3424 283.353837 
L 361.9456 282.904773 
L 361.5488 284.178119 
L 361.152 273.277506 
L 360.7552 238.711553 
L 360.3584 261.503381 
L 359.9616 279.783945 
L 359.5648 243.594708 
L 359.168 283.182195 
L 358.7712 271.070772 
L 358.3744 279.955587 
L 357.9776 275.59002 
L 357.5808 272.052726 
L 357.184 266.818303 
L 356.7872 277.941119 
L 356.3904 272.343453 
L 355.9936 239.205191 
L 355.5968 268.273935 
L 355.2 279.545109 
L 354.8032 283.611966 
L 354.4064 284.496788 
L 354.0096 266.059218 
L 353.6128 212.348503 
L 353.216 206.985015 
L 352.8192 256.156525 
L 352.4224 247.123354 
L 352.0256 274.774386 
L 351.6288 284.770218 
L 351.232 251.314618 
L 350.8352 269.908528 
L 350.4384 284.444231 
L 350.0416 274.985945 
L 349.6448 281.956749 
L 349.248 271.786614 
L 348.8512 273.890229 
L 348.4544 274.775052 
L 348.0576 273.949439 
L 347.6608 281.510346 
L 347.264 280.252967 
L 346.8672 285.490051 
L 346.4704 285.370966 
L 346.0736 276.227358 
L 345.6768 257.109206 
L 345.28 266.856224 
L 344.8832 260.752945 
L 344.4864 284.224023 
L 344.0896 284.324481 
L 343.6928 256.885672 
L 343.296 277.506691 
L 342.8992 263.088743 
L 342.5024 284.220697 
L 342.1056 273.949439 
L 341.7088 286.278408 
L 341.312 278.746773 
L 340.9152 277.597835 
L 340.5184 283.286644 
L 340.1216 279.137958 
L 339.7248 286.748096 
L 339.328 277.543282 
L 338.9312 275.177546 
L 338.5344 273.205656 
L 338.1376 276.643158 
L 337.7408 279.613633 
L 337.344 278.945027 
L 336.9472 276.67243 
L 336.5504 253.863971 
L 336.1536 255.953615 
L 335.7568 276.100289 
L 335.36 276.49347 
L 334.9632 282.550844 
L 334.5664 272.320834 
L 334.1696 284.356414 
L 333.7728 249.676698 
L 333.376 264.724667 
L 332.9792 269.190026 
L 332.5824 267.421046 
L 332.1856 277.768812 
L 331.7888 281.512342 
L 331.392 284.592588 
L 330.9952 284.084315 
L 330.5984 280.300867 
L 330.2016 280.978122 
L 329.8048 273.127818 
L 329.408 280.62885 
L 329.0112 282.876166 
L 328.6144 269.30645 
L 328.2176 277.261868 
L 327.8208 262.615064 
L 327.424 283.929304 
L 327.0272 280.545025 
L 326.6304 271.15992 
L 326.2336 284.438909 
L 325.8368 282.877497 
L 325.44 265.112525 
L 325.0432 251.147632 
L 324.6464 265.569572 
L 324.2496 284.387017 
L 323.8528 256.146546 
L 323.456 252.561352 
L 323.0592 268.567989 
L 322.6624 280.187104 
L 322.2656 282.916083 
L 321.8688 283.950593 
L 321.472 272.871685 
L 321.0752 260.815481 
L 320.6784 255.857815 
L 320.2816 281.997996 
L 319.8848 284.457537 
L 319.488 286.294375 
L 319.0912 285.589178 
L 318.6944 281.389931 
L 318.2976 285.01105 
L 317.9008 278.619039 
L 317.504 273.3447 
L 317.1072 279.761325 
L 316.7104 262.6297 
L 316.3136 282.639326 
L 315.9168 278.360911 
L 315.52 261.361011 
L 315.1232 263.957599 
L 314.7264 279.029517 
L 314.3296 279.562406 
L 313.9328 284.273919 
L 313.536 247.114705 
L 313.1392 283.900032 
L 312.7424 284.60789 
L 312.3456 285.411548 
L 311.9488 281.455128 
L 311.552 259.751033 
L 311.1552 279.173218 
L 310.7584 286.883813 
L 310.3616 268.762916 
L 309.9648 276.237337 
L 309.568 281.958745 
L 309.1712 279.972884 
L 308.7744 284.460863 
L 308.3776 271.229109 
L 307.9808 269.10487 
L 307.584 279.684153 
L 307.1872 285.112837 
L 306.7904 282.73047 
L 306.3936 280.671428 
L 305.9968 286.712171 
L 305.6 279.245068 
L 305.2032 273.469107 
L 304.8064 258.037272 
L 304.4096 252.547381 
L 304.0128 277.971057 
L 303.616 285.310426 
L 303.2192 273.476425 
L 302.8224 244.932587 
L 302.4256 255.740725 
L 302.0288 285.704271 
L 301.632 285.426184 
L 301.2352 221.817433 
L 300.8384 261.289826 
L 300.4416 262.945708 
L 300.0448 284.734958 
L 299.648 281.137789 
L 299.2512 283.926643 
L 298.8544 273.28549 
L 298.4576 282.212217 
L 298.0608 285.47475 
L 297.664 284.17945 
L 297.2672 270.761417 
L 296.8704 275.051808 
L 296.4736 285.789427 
L 296.0768 278.264445 
L 295.68 283.956581 
L 295.2832 280.37937 
L 294.8864 283.933961 
L 294.4896 267.503541 
L 294.0928 220.904669 
L 293.696 234.135092 
L 293.2992 270.134058 
L 292.9024 270.822623 
L 292.5056 283.465604 
L 292.1088 283.856789 
L 291.712 275.395092 
L 291.3152 268.596596 
L 290.9184 282.891468 
L 290.5216 270.629027 
L 290.1248 282.707185 
L 289.728 267.28799 
L 289.3312 280.102614 
L 288.9344 282.57546 
L 288.5376 275.969229 
L 288.1408 268.795515 
L 287.744 271.085409 
L 287.3472 283.518161 
L 286.9504 279.398748 
L 286.5536 284.740281 
L 286.1568 284.72631 
L 285.76 285.278492 
L 285.3632 283.473588 
L 284.9664 254.167338 
L 284.5696 281.904857 
L 284.1728 268.564663 
L 283.776 282.688557 
L 283.3792 283.994502 
L 282.9824 270.522582 
L 282.5856 267.925329 
L 282.1888 279.278997 
L 281.792 286.532545 
L 281.3952 284.77554 
L 280.9984 265.320757 
L 280.6016 280.262946 
L 280.2048 283.464939 
L 279.808 272.997423 
L 279.4112 284.056373 
L 279.0144 258.564839 
L 278.6176 282.911426 
L 278.2208 284.860696 
L 277.824 233.984739 
L 277.4272 255.094073 
L 277.0304 274.475676 
L 276.6336 284.660447 
L 276.2368 268.092979 
L 275.84 279.804568 
L 275.4432 265.497057 
L 275.0464 272.778546 
L 274.6496 276.079666 
L 274.2528 281.81704 
L 273.856 272.470522 
L 273.4592 270.851895 
L 273.0624 273.535635 
L 272.6656 283.913338 
L 272.2688 273.852308 
L 271.872 283.82286 
L 271.4752 279.635587 
L 271.0784 274.948024 
L 270.6816 285.066933 
L 270.2848 284.522069 
L 269.888 272.686072 
L 269.4912 275.185529 
L 269.0944 284.125562 
L 268.6976 283.832839 
L 268.3008 276.30453 
L 267.904 281.852965 
L 267.5072 261.030367 
L 267.1104 280.184443 
L 266.7136 283.614627 
L 266.3168 283.595334 
L 265.92 285.621777 
L 265.5232 253.606507 
L 265.1264 217.637479 
L 264.7296 253.17474 
L 264.3328 280.219038 
L 263.936 283.522818 
L 263.5392 283.070428 
L 263.1424 283.472257 
L 262.7456 282.737123 
L 262.3488 264.894313 
L 261.952 279.186523 
L 261.5552 256.022139 
L 261.1584 279.398748 
L 260.7616 276.2553 
L 260.3648 281.677332 
L 259.968 282.794337 
L 259.5712 284.040406 
L 259.1744 279.169891 
L 258.7776 263.023546 
L 258.3808 278.60906 
L 257.984 279.777957 
L 257.5872 267.256057 
L 257.1904 265.470445 
L 256.7936 254.243845 
L 256.3968 274.912099 
L 256 284.730967 
L 255.6032 283.782943 
L 255.2064 284.911923 
L 254.8096 284.257287 
L 254.4128 285.194002 
L 254.016 286.652961 
L 253.6192 276.907274 
L 253.2224 280.799827 
L 252.8256 283.001904 
L 252.4288 281.427852 
L 252.032 281.765814 
L 251.6352 282.176292 
L 251.2384 281.637415 
L 250.8416 284.563981 
L 250.4448 285.203981 
L 250.048 272.69339 
L 249.6512 284.82078 
L 249.2544 284.771549 
L 248.8576 285.259864 
L 248.4608 271.889067 
L 248.064 281.862945 
L 247.6672 283.677163 
L 247.2704 285.058284 
L 246.8736 284.139533 
L 246.4768 284.078327 
L 246.08 279.91434 
L 245.6832 277.043656 
L 245.2864 287.469924 
L 244.8896 284.872006 
L 244.4928 285.117494 
L 244.096 284.651133 
L 243.6992 285.031673 
L 243.3024 274.130395 
L 242.9056 282.562819 
L 242.5088 285.140779 
L 242.112 276.334468 
L 241.7152 271.99152 
L 241.3184 283.661862 
L 240.9216 278.424112 
L 240.5248 284.092963 
L 240.128 277.791431 
L 239.7312 284.349096 
L 239.3344 260.864712 
L 238.9376 284.140863 
L 238.5408 271.151271 
L 238.144 283.456956 
L 237.7472 263.966247 
L 237.3504 275.701121 
L 236.9536 278.394175 
L 236.5568 260.061054 
L 236.16 278.028936 
L 235.7632 285.82003 
L 235.3664 285.100197 
L 234.9696 283.005896 
L 234.5728 286.707514 
L 234.176 269.430857 
L 233.7792 272.330148 
L 233.3824 274.845571 
L 232.9856 285.043648 
L 232.5888 284.325811 
L 232.192 284.951174 
L 231.7952 282.769056 
L 231.3984 269.538633 
L 231.0016 285.898533 
L 230.6048 284.44157 
L 230.208 284.329803 
L 229.8112 281.99467 
L 229.4144 284.625187 
L 229.0176 285.699614 
L 228.6208 275.191517 
L 228.224 274.775717 
L 227.8272 253.671705 
L 227.4304 284.144855 
L 227.0336 283.303941 
L 226.6368 279.886398 
L 226.24 278.682906 
L 225.8432 286.064853 
L 225.4464 263.37947 
L 225.0496 284.967806 
L 224.6528 278.616378 
L 224.256 288.097949 
L 223.8592 286.158658 
L 223.4624 285.975706 
L 223.0656 282.520907 
L 222.6688 275.035841 
L 222.272 262.724835 
L 221.8752 281.471095 
L 221.4784 287.7693 
L 221.0816 284.673753 
L 220.6848 256.335486 
L 220.288 258.91145 
L 219.8912 266.445081 
L 219.4944 277.737543 
L 219.0976 272.365407 
L 218.7008 271.678838 
L 218.304 286.319655 
L 217.9072 257.829039 
L 217.5104 285.365644 
L 217.1136 285.134126 
L 216.7168 284.467516 
L 216.32 283.103692 
L 215.9232 282.584773 
L 215.5264 282.969971 
L 215.1296 287.533126 
L 214.7328 282.264108 
L 214.336 278.613052 
L 213.9392 280.451886 
L 213.5424 286.973626 
L 213.1456 269.86595 
L 212.7488 284.094959 
L 212.352 283.261363 
L 211.9552 219.196895 
L 211.5584 263.743379 
L 211.1616 280.517083 
L 210.7648 283.904024 
L 210.368 275.673845 
L 209.9712 276.502118 
L 209.5744 265.856308 
L 209.1776 285.851964 
L 208.7808 286.55716 
L 208.384 284.860696 
L 207.9872 284.930551 
L 207.5904 285.969718 
L 207.1936 272.327486 
L 206.7968 282.989929 
L 206.4 269.536637 
L 206.0032 287.513833 
L 205.6064 282.269431 
L 205.2096 280.781865 
L 204.8128 283.125646 
L 204.416 287.968884 
L 204.0192 279.720078 
L 203.6224 286.698865 
L 203.2256 258.345962 
L 202.8288 278.223863 
L 202.432 280.892966 
L 202.0352 268.505453 
L 201.6384 265.346703 
L 201.2416 285.424854 
L 200.8448 286.935039 
L 200.448 283.243401 
L 200.0512 222.985665 
L 199.6544 248.879693 
L 199.2576 284.963815 
L 198.8608 280.640825 
L 198.464 281.716583 
L 198.0672 263.728077 
L 197.6704 285.1308 
L 197.2736 285.834001 
L 196.8768 283.430344 
L 196.48 280.06935 
L 196.0832 277.696961 
L 195.6864 283.821529 
L 195.2896 285.117494 
L 194.8928 284.198743 
L 194.496 284.239325 
L 194.0992 284.99974 
L 193.7024 285.822026 
L 193.3056 284.458867 
L 192.9088 284.508763 
L 192.512 282.455044 
L 192.1152 289.678654 
L 191.7184 284.141529 
L 191.3216 290.34593 
L 190.9248 270.436095 
L 190.528 284.806809 
L 190.1312 283.948597 
L 189.7344 284.787516 
L 189.3376 284.947183 
L 188.9408 285.41554 
L 188.544 277.343698 
L 188.1472 287.426016 
L 187.7504 281.714587 
L 187.3536 284.530717 
L 186.9568 282.990594 
L 186.56 262.923088 
L 186.1632 272.553016 
L 185.7664 282.943359 
L 185.3696 284.534709 
L 184.9728 285.561236 
L 184.576 272.085324 
L 184.1792 286.831921 
L 183.7824 288.794497 
L 183.3856 286.743439 
L 182.9888 287.93562 
L 182.592 282.369223 
L 182.1952 283.733712 
L 181.7984 287.029509 
L 181.4016 284.454876 
L 181.0048 280.922239 
L 180.608 286.543189 
L 180.2112 283.264024 
L 179.8144 284.943191 
L 179.4176 282.96864 
L 179.0208 285.099532 
L 178.624 287.569051 
L 178.2272 275.326569 
L 177.8304 283.343193 
L 177.4336 281.663361 
L 177.0368 281.073257 
L 176.64 278.154674 
L 176.2432 283.991841 
L 175.8464 282.440408 
L 175.4496 285.859282 
L 175.0528 274.35659 
L 174.656 285.049636 
L 174.2592 281.17571 
L 173.8624 283.418369 
L 173.4656 278.545859 
L 173.0688 281.933464 
L 172.672 273.181706 
L 172.2752 280.099953 
L 171.8784 274.856881 
L 171.4816 286.209219 
L 171.0848 285.058284 
L 170.688 280.602239 
L 170.2912 274.736465 
L 169.8944 282.077165 
L 169.4976 284.740281 
L 169.1008 286.415456 
L 168.704 287.81454 
L 168.3072 285.349012 
L 167.9104 277.730225 
L 167.5136 283.822194 
L 167.1168 281.750512 
L 166.72 284.051051 
L 166.3232 279.960244 
L 165.9264 280.741283 
L 165.5296 280.036086 
L 165.1328 273.8084 
L 164.736 257.9601 
L 164.3392 284.056373 
L 163.9424 285.623107 
L 163.5456 273.690645 
L 163.1488 282.628017 
L 162.752 281.447145 
L 162.3552 281.031345 
L 161.9584 282.04124 
L 161.5616 284.256622 
L 161.1648 286.08082 
L 160.768 286.872503 
L 160.3712 283.405729 
L 159.9744 281.691968 
L 159.5776 282.711842 
L 159.1808 284.324481 
L 158.784 270.589775 
L 158.3872 286.954332 
L 157.9904 284.214044 
L 157.5936 284.530052 
L 157.1968 282.927393 
L 156.8 281.923485 
L 156.4032 284.257953 
L 156.0064 284.624522 
L 155.6096 284.451549 
L 155.2128 285.987015 
L 154.816 280.804484 
L 154.4192 280.431927 
L 154.0224 284.152838 
L 153.6256 286.237161 
L 153.2288 287.454623 
L 152.832 284.953836 
L 152.4352 285.255873 
L 152.0384 285.08423 
L 151.6416 284.690385 
L 151.2448 281.393257 
L 150.848 285.823356 
L 150.4512 283.071093 
L 150.0544 287.726723 
L 149.6576 286.979613 
L 149.2608 281.140451 
L 148.864 283.164232 
L 148.4672 287.610964 
L 148.0704 282.062529 
L 147.6736 284.16814 
L 147.2768 287.013542 
L 146.88 286.786682 
L 146.4832 287.979529 
L 146.0864 287.029509 
L 145.6896 285.403565 
L 145.2928 284.638493 
L 144.896 287.058781 
L 144.4992 288.817116 
L 144.1024 268.476846 
L 143.7056 286.604395 
L 143.3088 280.83043 
L 142.912 285.593835 
L 142.5152 285.299781 
L 142.1184 287.418033 
L 141.7216 285.055623 
L 141.3248 285.326392 
L 140.928 285.492047 
L 140.5312 283.780282 
L 140.1344 288.61088 
L 139.7376 286.984935 
L 139.3408 283.911342 
L 138.944 284.593254 
L 138.5472 285.470093 
L 138.1504 284.632505 
L 137.7536 286.418782 
L 137.3568 287.079405 
L 136.96 287.267679 
L 136.5632 286.834582 
L 136.1664 285.327058 
L 135.7696 284.106934 
L 135.3728 286.204562 
L 134.976 286.156662 
L 134.5792 283.530136 
L 134.1824 269.019714 
L 133.7856 267.684497 
L 133.3888 283.402403 
L 132.992 286.72348 
L 132.5952 285.838658 
L 132.1984 286.892461 
L 131.8016 286.732129 
L 131.4048 288.866347 
L 131.008 286.013627 
L 130.6112 286.621692 
L 130.2144 285.596496 
L 129.8176 287.314249 
L 129.4208 284.138202 
L 129.024 274.882827 
L 128.6272 284.768888 
L 128.2304 278.788686 
L 127.8336 286.907098 
L 127.4368 285.804063 
L 127.04 289.85961 
L 126.6432 279.216461 
L 126.2464 286.705518 
L 125.8496 286.997576 
L 125.4528 286.667597 
L 125.056 286.966308 
L 124.6592 287.219779 
L 124.2624 287.048802 
L 123.8656 284.981112 
L 123.4688 286.08082 
L 123.072 283.804232 
L 122.6752 287.207804 
L 122.2784 289.22959 
L 121.8816 285.109511 
L 121.4848 288.348094 
L 121.088 287.837824 
L 120.6912 285.885228 
L 120.2944 289.02801 
L 119.8976 288.151836 
L 119.5008 289.406555 
L 119.104 282.958661 
L 118.7072 289.075245 
L 118.3104 287.544436 
L 117.9136 287.292295 
L 117.5168 288.523063 
L 117.12 287.942939 
L 116.7232 285.575207 
L 116.3264 288.168468 
L 115.9296 288.668094 
L 115.5328 275.693138 
L 115.136 285.324396 
L 114.7392 287.345517 
L 114.3424 284.196082 
L 113.9456 273.703951 
L 113.5488 287.680153 
L 113.152 287.050798 
L 112.7552 286.898449 
L 112.3584 283.558078 
L 111.9616 287.005559 
L 111.5648 290.73911 
L 111.168 284.633171 
L 110.7712 286.25978 
L 110.3744 284.391674 
L 109.9776 277.040995 
L 109.5808 285.043648 
L 109.184 286.470674 
L 108.7872 287.640901 
L 108.3904 288.912252 
L 107.9936 285.024355 
L 107.5968 287.284977 
L 107.2 287.510507 
L 106.8032 286.945019 
L 106.4064 287.022191 
L 106.0096 288.981441 
L 105.6128 285.58319 
L 105.216 287.592336 
L 104.8192 286.346932 
L 104.4224 289.721897 
L 104.0256 289.49038 
L 103.6288 289.82302 
L 103.232 284.709012 
L 102.8352 286.14136 
L 102.4384 287.010881 
L 102.0416 288.005475 
L 101.6448 287.278989 
L 101.248 282.180283 
L 100.8512 288.799154 
L 100.4544 290.39383 
L 100.0576 287.529134 
L 99.6608 281.223611 
L 99.264 285.339033 
L 98.8672 287.908344 
L 98.4704 283.972548 
L 98.0736 286.122732 
L 97.6768 288.249633 
L 97.28 275.443658 
L 96.8832 288.058697 
L 96.4864 274.421788 
L 96.0896 287.243064 
L 95.6928 289.165723 
L 95.296 289.036659 
L 94.8992 288.398655 
L 94.5024 288.466514 
L 94.1056 287.847138 
L 93.7088 288.644809 
L 93.312 288.906264 
L 92.9152 286.169967 
L 92.5184 282.157664 
L 92.1216 288.415287 
L 91.7248 287.312253 
L 91.328 289.154413 
L 90.9312 290.548175 
L 90.5344 282.786353 
L 90.1376 289.489715 
L 89.7408 287.143272 
L 89.344 286.441402 
L 88.9472 289.079237 
L 88.5504 288.708011 
L 88.1536 285.824687 
L 87.7568 287.656203 
L 87.36 287.492544 
L 86.9632 288.216369 
L 86.5664 290.491626 
L 86.1696 286.716828 
L 85.7728 291.232083 
L 85.376 289.241565 
L 84.9792 288.031421 
L 84.5824 289.463769 
L 84.1856 292.009795 
L 83.7888 288.847054 
L 83.392 287.593001 
L 82.9952 288.519736 
L 82.5984 285.205311 
L 82.2016 288.734622 
L 81.8048 289.591502 
L 81.408 288.597574 
L 81.0112 285.615789 
L 80.6144 288.88564 
L 80.2176 290.472333 
L 79.8208 286.493959 
L 79.424 288.163812 
L 79.0272 289.314746 
L 78.6304 289.319403 
L 78.2336 283.536789 
L 77.8368 287.146598 
L 77.44 289.872916 
L 77.0432 291.091709 
L 76.6464 286.748761 
L 76.2496 288.686056 
L 75.8528 287.236411 
L 75.456 288.738613 
L 75.0592 288.7293 
L 74.6624 284.996413 
L 74.2656 288.443229 
L 73.8688 286.321651 
L 73.472 284.134876 
L 73.0752 290.835576 
L 72.6784 291.142935 
L 72.2816 288.005475 
L 71.8848 283.499533 
L 71.488 288.544352 
L 71.0912 291.255368 
L 70.6944 286.31899 
L 70.2976 288.470506 
L 69.9008 290.158986 
L 69.504 289.914163 
L 69.1072 291.415035 
L 68.7104 290.597406 
L 68.3136 288.554331 
L 67.9168 289.089881 
L 67.52 287.131962 
L 67.1232 291.323226 
L 66.7264 294.343597 
L 66.3296 294.606383 
L 65.9328 291.216781 
L 65.536 293.267174 
L 65.1392 297.226256 
L 64.7424 288.711337 
L 64.3456 295.706091 
L 63.9488 296.972119 
L 63.552 299.491534 
L 63.1552 299.859434 
L 62.7584 291.302603 
L 62.3616 295.663513 
L 61.9648 302.193901 
L 61.568 289.424517 
L 61.1712 296.434572 
L 60.7744 296.2137 
L 60.3776 303.750657 
L 59.9808 298.667917 
L 59.584 300.981096 
L 59.1872 304.15049 
L 58.7904 303.715397 
L 58.3936 302.549826 
L 57.9968 304.149159 
z
" style="fill:#1f77b4;fill-opacity:0.25;"/>
   </g>
   <g id="matplotlib.axis_1">
    <g id="xtick_1">
     <g id="line2d_1">
      <defs>
       <path d="M 0 0 
L 0 4.8 
" id="m4565a80051" style="stroke:#000000;"/>
      </defs>
      <g>
       <use style="stroke:#000000;" x="57.6" xlink:href="#m4565a80051" y="307.584"/>
      </g>
     </g>
     <g id="text_1">
      <!-- 0 -->
      <g transform="translate(54.8005 322.570625)scale(0.088 -0.088)">
       <defs>
        <path d="M 2034 4250 
Q 1547 4250 1301 3770 
Q 1056 3291 1056 2328 
Q 1056 1369 1301 889 
Q 1547 409 2034 409 
Q 2525 409 2770 889 
Q 3016 1369 3016 2328 
Q 3016 3291 2770 3770 
Q 2525 4250 2034 4250 
z
M 2034 4750 
Q 2819 4750 3233 4129 
Q 3647 3509 3647 2328 
Q 3647 1150 3233 529 
Q 2819 -91 2034 -91 
Q 1250 -91 836 529 
Q 422 1150 422 2328 
Q 422 3509 836 4129 
Q 1250 4750 2034 4750 
z
" id="DejaVuSans-30" transform="scale(0.015625)"/>
       </defs>
       <use xlink:href="#DejaVuSans-30"/>
      </g>
     </g>
    </g>
    <g id="xtick_2">
     <g id="line2d_2">
      <g>
       <use style="stroke:#000000;" x="97.28" xlink:href="#m4565a80051" y="307.584"/>
      </g>
     </g>
     <g id="text_2">
      <!-- 100 -->
      <g transform="translate(88.8815 322.570625)scale(0.088 -0.088)">
       <defs>
        <path d="M 794 531 
L 1825 531 
L 1825 4091 
L 703 3866 
L 703 4441 
L 1819 4666 
L 2450 4666 
L 2450 531 
L 3481 531 
L 3481 0 
L 794 0 
L 794 531 
z
" id="DejaVuSans-31" transform="scale(0.015625)"/>
       </defs>
       <use xlink:href="#DejaVuSans-31"/>
       <use x="63.623047" xlink:href="#DejaVuSans-30"/>
       <use x="127.246094" xlink:href="#DejaVuSans-30"/>
      </g>
     </g>
    </g>
    <g id="xtick_3">
     <g id="line2d_3">
      <g>
       <use style="stroke:#000000;" x="136.96" xlink:href="#m4565a80051" y="307.584"/>
      </g>
     </g>
     <g id="text_3">
      <!-- 200 -->
      <g transform="translate(128.5615 322.570625)scale(0.088 -0.088)">
       <defs>
        <path d="M 1228 531 
L 3431 531 
L 3431 0 
L 469 0 
L 469 531 
Q 828 903 1448 1529 
Q 2069 2156 2228 2338 
Q 2531 2678 2651 2914 
Q 2772 3150 2772 3378 
Q 2772 3750 2511 3984 
Q 2250 4219 1831 4219 
Q 1534 4219 1204 4116 
Q 875 4013 500 3803 
L 500 4441 
Q 881 4594 1212 4672 
Q 1544 4750 1819 4750 
Q 2544 4750 2975 4387 
Q 3406 4025 3406 3419 
Q 3406 3131 3298 2873 
Q 3191 2616 2906 2266 
Q 2828 2175 2409 1742 
Q 1991 1309 1228 531 
z
" id="DejaVuSans-32" transform="scale(0.015625)"/>
       </defs>
       <use xlink:href="#DejaVuSans-32"/>
       <use x="63.623047" xlink:href="#DejaVuSans-30"/>
       <use x="127.246094" xlink:href="#DejaVuSans-30"/>
      </g>
     </g>
    </g>
    <g id="xtick_4">
     <g id="line2d_4">
      <g>
       <use style="stroke:#000000;" x="176.64" xlink:href="#m4565a80051" y="307.584"/>
      </g>
     </g>
     <g id="text_4">
      <!-- 300 -->
      <g transform="translate(168.2415 322.570625)scale(0.088 -0.088)">
       <defs>
        <path d="M 2597 2516 
Q 3050 2419 3304 2112 
Q 3559 1806 3559 1356 
Q 3559 666 3084 287 
Q 2609 -91 1734 -91 
Q 1441 -91 1130 -33 
Q 819 25 488 141 
L 488 750 
Q 750 597 1062 519 
Q 1375 441 1716 441 
Q 2309 441 2620 675 
Q 2931 909 2931 1356 
Q 2931 1769 2642 2001 
Q 2353 2234 1838 2234 
L 1294 2234 
L 1294 2753 
L 1863 2753 
Q 2328 2753 2575 2939 
Q 2822 3125 2822 3475 
Q 2822 3834 2567 4026 
Q 2313 4219 1838 4219 
Q 1578 4219 1281 4162 
Q 984 4106 628 3988 
L 628 4550 
Q 988 4650 1302 4700 
Q 1616 4750 1894 4750 
Q 2613 4750 3031 4423 
Q 3450 4097 3450 3541 
Q 3450 3153 3228 2886 
Q 3006 2619 2597 2516 
z
" id="DejaVuSans-33" transform="scale(0.015625)"/>
       </defs>
       <use xlink:href="#DejaVuSans-33"/>
       <use x="63.623047" xlink:href="#DejaVuSans-30"/>
       <use x="127.246094" xlink:href="#DejaVuSans-30"/>
      </g>
     </g>
    </g>
    <g id="xtick_5">
     <g id="line2d_5">
      <g>
       <use style="stroke:#000000;" x="216.32" xlink:href="#m4565a80051" y="307.584"/>
      </g>
     </g>
     <g id="text_5">
      <!-- 400 -->
      <g transform="translate(207.9215 322.570625)scale(0.088 -0.088)">
       <defs>
        <path d="M 2419 4116 
L 825 1625 
L 2419 1625 
L 2419 4116 
z
M 2253 4666 
L 3047 4666 
L 3047 1625 
L 3713 1625 
L 3713 1100 
L 3047 1100 
L 3047 0 
L 2419 0 
L 2419 1100 
L 313 1100 
L 313 1709 
L 2253 4666 
z
" id="DejaVuSans-34" transform="scale(0.015625)"/>
       </defs>
       <use xlink:href="#DejaVuSans-34"/>
       <use x="63.623047" xlink:href="#DejaVuSans-30"/>
       <use x="127.246094" xlink:href="#DejaVuSans-30"/>
      </g>
     </g>
    </g>
    <g id="xtick_6">
     <g id="line2d_6">
      <g>
       <use style="stroke:#000000;" x="256" xlink:href="#m4565a80051" y="307.584"/>
      </g>
     </g>
     <g id="text_6">
      <!-- 500 -->
      <g transform="translate(247.6015 322.570625)scale(0.088 -0.088)">
       <defs>
        <path d="M 691 4666 
L 3169 4666 
L 3169 4134 
L 1269 4134 
L 1269 2991 
Q 1406 3038 1543 3061 
Q 1681 3084 1819 3084 
Q 2600 3084 3056 2656 
Q 3513 2228 3513 1497 
Q 3513 744 3044 326 
Q 2575 -91 1722 -91 
Q 1428 -91 1123 -41 
Q 819 9 494 109 
L 494 744 
Q 775 591 1075 516 
Q 1375 441 1709 441 
Q 2250 441 2565 725 
Q 2881 1009 2881 1497 
Q 2881 1984 2565 2268 
Q 2250 2553 1709 2553 
Q 1456 2553 1204 2497 
Q 953 2441 691 2322 
L 691 4666 
z
" id="DejaVuSans-35" transform="scale(0.015625)"/>
       </defs>
       <use xlink:href="#DejaVuSans-35"/>
       <use x="63.623047" xlink:href="#DejaVuSans-30"/>
       <use x="127.246094" xlink:href="#DejaVuSans-30"/>
      </g>
     </g>
    </g>
    <g id="xtick_7">
     <g id="line2d_7">
      <g>
       <use style="stroke:#000000;" x="295.68" xlink:href="#m4565a80051" y="307.584"/>
      </g>
     </g>
     <g id="text_7">
      <!-- 600 -->
      <g transform="translate(287.2815 322.570625)scale(0.088 -0.088)">
       <defs>
        <path d="M 2113 2584 
Q 1688 2584 1439 2293 
Q 1191 2003 1191 1497 
Q 1191 994 1439 701 
Q 1688 409 2113 409 
Q 2538 409 2786 701 
Q 3034 994 3034 1497 
Q 3034 2003 2786 2293 
Q 2538 2584 2113 2584 
z
M 3366 4563 
L 3366 3988 
Q 3128 4100 2886 4159 
Q 2644 4219 2406 4219 
Q 1781 4219 1451 3797 
Q 1122 3375 1075 2522 
Q 1259 2794 1537 2939 
Q 1816 3084 2150 3084 
Q 2853 3084 3261 2657 
Q 3669 2231 3669 1497 
Q 3669 778 3244 343 
Q 2819 -91 2113 -91 
Q 1303 -91 875 529 
Q 447 1150 447 2328 
Q 447 3434 972 4092 
Q 1497 4750 2381 4750 
Q 2619 4750 2861 4703 
Q 3103 4656 3366 4563 
z
" id="DejaVuSans-36" transform="scale(0.015625)"/>
       </defs>
       <use xlink:href="#DejaVuSans-36"/>
       <use x="63.623047" xlink:href="#DejaVuSans-30"/>
       <use x="127.246094" xlink:href="#DejaVuSans-30"/>
      </g>
     </g>
    </g>
    <g id="xtick_8">
     <g id="line2d_8">
      <g>
       <use style="stroke:#000000;" x="335.36" xlink:href="#m4565a80051" y="307.584"/>
      </g>
     </g>
     <g id="text_8">
      <!-- 700 -->
      <g transform="translate(326.9615 322.570625)scale(0.088 -0.088)">
       <defs>
        <path d="M 525 4666 
L 3525 4666 
L 3525 4397 
L 1831 0 
L 1172 0 
L 2766 4134 
L 525 4134 
L 525 4666 
z
" id="DejaVuSans-37" transform="scale(0.015625)"/>
       </defs>
       <use xlink:href="#DejaVuSans-37"/>
       <use x="63.623047" xlink:href="#DejaVuSans-30"/>
       <use x="127.246094" xlink:href="#DejaVuSans-30"/>
      </g>
     </g>
    </g>
    <g id="xtick_9">
     <g id="line2d_9">
      <g>
       <use style="stroke:#000000;" x="375.04" xlink:href="#m4565a80051" y="307.584"/>
      </g>
     </g>
     <g id="text_9">
      <!-- 800 -->
      <g transform="translate(366.6415 322.570625)scale(0.088 -0.088)">
       <defs>
        <path d="M 2034 2216 
Q 1584 2216 1326 1975 
Q 1069 1734 1069 1313 
Q 1069 891 1326 650 
Q 1584 409 2034 409 
Q 2484 409 2743 651 
Q 3003 894 3003 1313 
Q 3003 1734 2745 1975 
Q 2488 2216 2034 2216 
z
M 1403 2484 
Q 997 2584 770 2862 
Q 544 3141 544 3541 
Q 544 4100 942 4425 
Q 1341 4750 2034 4750 
Q 2731 4750 3128 4425 
Q 3525 4100 3525 3541 
Q 3525 3141 3298 2862 
Q 3072 2584 2669 2484 
Q 3125 2378 3379 2068 
Q 3634 1759 3634 1313 
Q 3634 634 3220 271 
Q 2806 -91 2034 -91 
Q 1263 -91 848 271 
Q 434 634 434 1313 
Q 434 1759 690 2068 
Q 947 2378 1403 2484 
z
M 1172 3481 
Q 1172 3119 1398 2916 
Q 1625 2713 2034 2713 
Q 2441 2713 2670 2916 
Q 2900 3119 2900 3481 
Q 2900 3844 2670 4047 
Q 2441 4250 2034 4250 
Q 1625 4250 1398 4047 
Q 1172 3844 1172 3481 
z
" id="DejaVuSans-38" transform="scale(0.015625)"/>
       </defs>
       <use xlink:href="#DejaVuSans-38"/>
       <use x="63.623047" xlink:href="#DejaVuSans-30"/>
       <use x="127.246094" xlink:href="#DejaVuSans-30"/>
      </g>
     </g>
    </g>
    <g id="xtick_10">
     <g id="line2d_10">
      <g>
       <use style="stroke:#000000;" x="414.72" xlink:href="#m4565a80051" y="307.584"/>
      </g>
     </g>
     <g id="text_10">
      <!-- 900 -->
      <g transform="translate(406.3215 322.570625)scale(0.088 -0.088)">
       <defs>
        <path d="M 703 97 
L 703 672 
Q 941 559 1184 500 
Q 1428 441 1663 441 
Q 2288 441 2617 861 
Q 2947 1281 2994 2138 
Q 2813 1869 2534 1725 
Q 2256 1581 1919 1581 
Q 1219 1581 811 2004 
Q 403 2428 403 3163 
Q 403 3881 828 4315 
Q 1253 4750 1959 4750 
Q 2769 4750 3195 4129 
Q 3622 3509 3622 2328 
Q 3622 1225 3098 567 
Q 2575 -91 1691 -91 
Q 1453 -91 1209 -44 
Q 966 3 703 97 
z
M 1959 2075 
Q 2384 2075 2632 2365 
Q 2881 2656 2881 3163 
Q 2881 3666 2632 3958 
Q 2384 4250 1959 4250 
Q 1534 4250 1286 3958 
Q 1038 3666 1038 3163 
Q 1038 2656 1286 2365 
Q 1534 2075 1959 2075 
z
" id="DejaVuSans-39" transform="scale(0.015625)"/>
       </defs>
       <use xlink:href="#DejaVuSans-39"/>
       <use x="63.623047" xlink:href="#DejaVuSans-30"/>
       <use x="127.246094" xlink:href="#DejaVuSans-30"/>
      </g>
     </g>
    </g>
    <g id="text_11">
     <!-- Timestep -->
     <g transform="translate(214.03275 335.69525)scale(0.096 -0.096)">
      <defs>
       <path d="M -19 4666 
L 3928 4666 
L 3928 4134 
L 2272 4134 
L 2272 0 
L 1638 0 
L 1638 4134 
L -19 4134 
L -19 4666 
z
" id="DejaVuSans-54" transform="scale(0.015625)"/>
       <path d="M 603 3500 
L 1178 3500 
L 1178 0 
L 603 0 
L 603 3500 
z
M 603 4863 
L 1178 4863 
L 1178 4134 
L 603 4134 
L 603 4863 
z
" id="DejaVuSans-69" transform="scale(0.015625)"/>
       <path d="M 3328 2828 
Q 3544 3216 3844 3400 
Q 4144 3584 4550 3584 
Q 5097 3584 5394 3201 
Q 5691 2819 5691 2113 
L 5691 0 
L 5113 0 
L 5113 2094 
Q 5113 2597 4934 2840 
Q 4756 3084 4391 3084 
Q 3944 3084 3684 2787 
Q 3425 2491 3425 1978 
L 3425 0 
L 2847 0 
L 2847 2094 
Q 2847 2600 2669 2842 
Q 2491 3084 2119 3084 
Q 1678 3084 1418 2786 
Q 1159 2488 1159 1978 
L 1159 0 
L 581 0 
L 581 3500 
L 1159 3500 
L 1159 2956 
Q 1356 3278 1631 3431 
Q 1906 3584 2284 3584 
Q 2666 3584 2933 3390 
Q 3200 3197 3328 2828 
z
" id="DejaVuSans-6d" transform="scale(0.015625)"/>
       <path d="M 3597 1894 
L 3597 1613 
L 953 1613 
Q 991 1019 1311 708 
Q 1631 397 2203 397 
Q 2534 397 2845 478 
Q 3156 559 3463 722 
L 3463 178 
Q 3153 47 2828 -22 
Q 2503 -91 2169 -91 
Q 1331 -91 842 396 
Q 353 884 353 1716 
Q 353 2575 817 3079 
Q 1281 3584 2069 3584 
Q 2775 3584 3186 3129 
Q 3597 2675 3597 1894 
z
M 3022 2063 
Q 3016 2534 2758 2815 
Q 2500 3097 2075 3097 
Q 1594 3097 1305 2825 
Q 1016 2553 972 2059 
L 3022 2063 
z
" id="DejaVuSans-65" transform="scale(0.015625)"/>
       <path d="M 2834 3397 
L 2834 2853 
Q 2591 2978 2328 3040 
Q 2066 3103 1784 3103 
Q 1356 3103 1142 2972 
Q 928 2841 928 2578 
Q 928 2378 1081 2264 
Q 1234 2150 1697 2047 
L 1894 2003 
Q 2506 1872 2764 1633 
Q 3022 1394 3022 966 
Q 3022 478 2636 193 
Q 2250 -91 1575 -91 
Q 1294 -91 989 -36 
Q 684 19 347 128 
L 347 722 
Q 666 556 975 473 
Q 1284 391 1588 391 
Q 1994 391 2212 530 
Q 2431 669 2431 922 
Q 2431 1156 2273 1281 
Q 2116 1406 1581 1522 
L 1381 1569 
Q 847 1681 609 1914 
Q 372 2147 372 2553 
Q 372 3047 722 3315 
Q 1072 3584 1716 3584 
Q 2034 3584 2315 3537 
Q 2597 3491 2834 3397 
z
" id="DejaVuSans-73" transform="scale(0.015625)"/>
       <path d="M 1172 4494 
L 1172 3500 
L 2356 3500 
L 2356 3053 
L 1172 3053 
L 1172 1153 
Q 1172 725 1289 603 
Q 1406 481 1766 481 
L 2356 481 
L 2356 0 
L 1766 0 
Q 1100 0 847 248 
Q 594 497 594 1153 
L 594 3053 
L 172 3053 
L 172 3500 
L 594 3500 
L 594 4494 
L 1172 4494 
z
" id="DejaVuSans-74" transform="scale(0.015625)"/>
       <path d="M 1159 525 
L 1159 -1331 
L 581 -1331 
L 581 3500 
L 1159 3500 
L 1159 2969 
Q 1341 3281 1617 3432 
Q 1894 3584 2278 3584 
Q 2916 3584 3314 3078 
Q 3713 2572 3713 1747 
Q 3713 922 3314 415 
Q 2916 -91 2278 -91 
Q 1894 -91 1617 61 
Q 1341 213 1159 525 
z
M 3116 1747 
Q 3116 2381 2855 2742 
Q 2594 3103 2138 3103 
Q 1681 3103 1420 2742 
Q 1159 2381 1159 1747 
Q 1159 1113 1420 752 
Q 1681 391 2138 391 
Q 2594 391 2855 752 
Q 3116 1113 3116 1747 
z
" id="DejaVuSans-70" transform="scale(0.015625)"/>
      </defs>
      <use xlink:href="#DejaVuSans-54"/>
      <use x="57.958984" xlink:href="#DejaVuSans-69"/>
      <use x="85.742188" xlink:href="#DejaVuSans-6d"/>
      <use x="183.154297" xlink:href="#DejaVuSans-65"/>
      <use x="244.677734" xlink:href="#DejaVuSans-73"/>
      <use x="296.777344" xlink:href="#DejaVuSans-74"/>
      <use x="335.986328" xlink:href="#DejaVuSans-65"/>
      <use x="397.509766" xlink:href="#DejaVuSans-70"/>
     </g>
    </g>
   </g>
   <g id="matplotlib.axis_2">
    <g id="ytick_1">
     <g id="line2d_11">
      <defs>
       <path d="M 0 0 
L -4.8 0 
" id="m51155a4416" style="stroke:#000000;"/>
      </defs>
      <g>
       <use style="stroke:#000000;" x="57.6" xlink:href="#m51155a4416" y="307.584"/>
      </g>
     </g>
     <g id="text_12">
      <!-- 0 -->
      <g transform="translate(43.701 310.927312)scale(0.088 -0.088)">
       <use xlink:href="#DejaVuSans-30"/>
      </g>
     </g>
    </g>
    <g id="ytick_2">
     <g id="line2d_12">
      <g>
       <use style="stroke:#000000;" x="57.6" xlink:href="#m51155a4416" y="254.3616"/>
      </g>
     </g>
     <g id="text_13">
      <!-- 200 -->
      <g transform="translate(32.503 257.704912)scale(0.088 -0.088)">
       <use xlink:href="#DejaVuSans-32"/>
       <use x="63.623047" xlink:href="#DejaVuSans-30"/>
       <use x="127.246094" xlink:href="#DejaVuSans-30"/>
      </g>
     </g>
    </g>
    <g id="ytick_3">
     <g id="line2d_13">
      <g>
       <use style="stroke:#000000;" x="57.6" xlink:href="#m51155a4416" y="201.1392"/>
      </g>
     </g>
     <g id="text_14">
      <!-- 400 -->
      <g transform="translate(32.503 204.482512)scale(0.088 -0.088)">
       <use xlink:href="#DejaVuSans-34"/>
       <use x="63.623047" xlink:href="#DejaVuSans-30"/>
       <use x="127.246094" xlink:href="#DejaVuSans-30"/>
      </g>
     </g>
    </g>
    <g id="ytick_4">
     <g id="line2d_14">
      <g>
       <use style="stroke:#000000;" x="57.6" xlink:href="#m51155a4416" y="147.9168"/>
      </g>
     </g>
     <g id="text_15">
      <!-- 600 -->
      <g transform="translate(32.503 151.260112)scale(0.088 -0.088)">
       <use xlink:href="#DejaVuSans-36"/>
       <use x="63.623047" xlink:href="#DejaVuSans-30"/>
       <use x="127.246094" xlink:href="#DejaVuSans-30"/>
      </g>
     </g>
    </g>
    <g id="ytick_5">
     <g id="line2d_15">
      <g>
       <use style="stroke:#000000;" x="57.6" xlink:href="#m51155a4416" y="94.6944"/>
      </g>
     </g>
     <g id="text_16">
      <!-- 800 -->
      <g transform="translate(32.503 98.037712)scale(0.088 -0.088)">
       <use xlink:href="#DejaVuSans-38"/>
       <use x="63.623047" xlink:href="#DejaVuSans-30"/>
       <use x="127.246094" xlink:href="#DejaVuSans-30"/>
      </g>
     </g>
    </g>
    <g id="ytick_6">
     <g id="line2d_16">
      <g>
       <use style="stroke:#000000;" x="57.6" xlink:href="#m51155a4416" y="41.472"/>
      </g>
     </g>
     <g id="text_17">
      <!-- 1000 -->
      <g transform="translate(26.904 44.815313)scale(0.088 -0.088)">
       <use xlink:href="#DejaVuSans-31"/>
       <use x="63.623047" xlink:href="#DejaVuSans-30"/>
       <use x="127.246094" xlink:href="#DejaVuSans-30"/>
       <use x="190.869141" xlink:href="#DejaVuSans-30"/>
      </g>
     </g>
    </g>
    <g id="text_18">
     <!-- Reward -->
     <g transform="translate(20.9075 192.40425)rotate(-90)scale(0.096 -0.096)">
      <defs>
       <path d="M 2841 2188 
Q 3044 2119 3236 1894 
Q 3428 1669 3622 1275 
L 4263 0 
L 3584 0 
L 2988 1197 
Q 2756 1666 2539 1819 
Q 2322 1972 1947 1972 
L 1259 1972 
L 1259 0 
L 628 0 
L 628 4666 
L 2053 4666 
Q 2853 4666 3247 4331 
Q 3641 3997 3641 3322 
Q 3641 2881 3436 2590 
Q 3231 2300 2841 2188 
z
M 1259 4147 
L 1259 2491 
L 2053 2491 
Q 2509 2491 2742 2702 
Q 2975 2913 2975 3322 
Q 2975 3731 2742 3939 
Q 2509 4147 2053 4147 
L 1259 4147 
z
" id="DejaVuSans-52" transform="scale(0.015625)"/>
       <path d="M 269 3500 
L 844 3500 
L 1563 769 
L 2278 3500 
L 2956 3500 
L 3675 769 
L 4391 3500 
L 4966 3500 
L 4050 0 
L 3372 0 
L 2619 2869 
L 1863 0 
L 1184 0 
L 269 3500 
z
" id="DejaVuSans-77" transform="scale(0.015625)"/>
       <path d="M 2194 1759 
Q 1497 1759 1228 1600 
Q 959 1441 959 1056 
Q 959 750 1161 570 
Q 1363 391 1709 391 
Q 2188 391 2477 730 
Q 2766 1069 2766 1631 
L 2766 1759 
L 2194 1759 
z
M 3341 1997 
L 3341 0 
L 2766 0 
L 2766 531 
Q 2569 213 2275 61 
Q 1981 -91 1556 -91 
Q 1019 -91 701 211 
Q 384 513 384 1019 
Q 384 1609 779 1909 
Q 1175 2209 1959 2209 
L 2766 2209 
L 2766 2266 
Q 2766 2663 2505 2880 
Q 2244 3097 1772 3097 
Q 1472 3097 1187 3025 
Q 903 2953 641 2809 
L 641 3341 
Q 956 3463 1253 3523 
Q 1550 3584 1831 3584 
Q 2591 3584 2966 3190 
Q 3341 2797 3341 1997 
z
" id="DejaVuSans-61" transform="scale(0.015625)"/>
       <path d="M 2631 2963 
Q 2534 3019 2420 3045 
Q 2306 3072 2169 3072 
Q 1681 3072 1420 2755 
Q 1159 2438 1159 1844 
L 1159 0 
L 581 0 
L 581 3500 
L 1159 3500 
L 1159 2956 
Q 1341 3275 1631 3429 
Q 1922 3584 2338 3584 
Q 2397 3584 2469 3576 
Q 2541 3569 2628 3553 
L 2631 2963 
z
" id="DejaVuSans-72" transform="scale(0.015625)"/>
       <path d="M 2906 2969 
L 2906 4863 
L 3481 4863 
L 3481 0 
L 2906 0 
L 2906 525 
Q 2725 213 2448 61 
Q 2172 -91 1784 -91 
Q 1150 -91 751 415 
Q 353 922 353 1747 
Q 353 2572 751 3078 
Q 1150 3584 1784 3584 
Q 2172 3584 2448 3432 
Q 2725 3281 2906 2969 
z
M 947 1747 
Q 947 1113 1208 752 
Q 1469 391 1925 391 
Q 2381 391 2643 752 
Q 2906 1113 2906 1747 
Q 2906 2381 2643 2742 
Q 2381 3103 1925 3103 
Q 1469 3103 1208 2742 
Q 947 2381 947 1747 
z
" id="DejaVuSans-64" transform="scale(0.015625)"/>
      </defs>
      <use xlink:href="#DejaVuSans-52"/>
      <use x="64.982422" xlink:href="#DejaVuSans-65"/>
      <use x="126.505859" xlink:href="#DejaVuSans-77"/>
      <use x="208.292969" xlink:href="#DejaVuSans-61"/>
      <use x="269.572266" xlink:href="#DejaVuSans-72"/>
      <use x="308.935547" xlink:href="#DejaVuSans-64"/>
     </g>
    </g>
   </g>
   <g id="line2d_17">
    <path clip-path="url(#pad1ab1560e)" d="M 57.9968 305.179678 
L 58.3936 304.348078 
L 58.7904 305.258181 
L 59.1872 304.953483 
L 59.584 304.308161 
L 60.3776 304.28155 
L 60.7744 303.052113 
L 61.1712 302.812612 
L 61.568 304.269575 
L 61.9648 303.847788 
L 62.3616 302.263091 
L 62.7584 303.64022 
L 63.552 304.089949 
L 63.9488 303.952902 
L 64.7424 294.390167 
L 65.1392 304.183089 
L 65.536 302.896437 
L 65.9328 294.955655 
L 66.3296 304.149825 
L 66.7264 301.005711 
L 67.1232 294.293036 
L 67.52 290.119069 
L 67.9168 293.989668 
L 68.3136 292.114909 
L 68.7104 297.687295 
L 69.1072 295.781933 
L 69.504 294.939688 
L 69.9008 293.56522 
L 70.2976 290.620691 
L 70.6944 295.292287 
L 71.0912 296.215695 
L 71.488 292.645803 
L 71.8848 291.667841 
L 72.6784 299.683135 
L 73.472 289.315411 
L 73.8688 289.785099 
L 74.2656 292.59125 
L 74.6624 291.279318 
L 75.0592 297.169707 
L 75.456 298.235485 
L 75.8528 292.621853 
L 76.2496 296.995404 
L 76.6464 290.901439 
L 77.0432 292.913245 
L 77.44 293.774118 
L 77.8368 289.868924 
L 78.2336 287.813209 
L 78.6304 291.683808 
L 79.424 290.189589 
L 79.8208 297.6527 
L 80.2176 296.01212 
L 80.6144 290.123061 
L 81.0112 288.686056 
L 81.408 289.775785 
L 81.8048 297.857606 
L 82.5984 288.940193 
L 82.9952 289.589507 
L 83.392 289.299444 
L 83.7888 291.146262 
L 84.1856 298.775693 
L 84.5824 290.699194 
L 84.9792 291.079734 
L 85.376 296.806464 
L 85.7728 299.508831 
L 86.1696 289.139777 
L 86.5664 294.04156 
L 86.9632 290.314662 
L 87.36 288.583603 
L 87.7568 289.270172 
L 88.1536 289.045308 
L 88.5504 292.339774 
L 88.9472 291.315243 
L 89.344 288.542356 
L 89.7408 290.47699 
L 90.1376 290.890794 
L 90.5344 294.454034 
L 90.9312 293.810043 
L 91.328 290.124392 
L 91.7248 287.909009 
L 92.1216 289.182355 
L 92.5184 288.429258 
L 92.9152 292.137529 
L 93.312 290.080483 
L 93.7088 291.305929 
L 94.1056 289.757157 
L 94.5024 292.359732 
L 94.8992 291.154245 
L 95.6928 293.606467 
L 96.0896 290.141689 
L 96.4864 289.900858 
L 96.8832 293.983016 
L 97.6768 292.245304 
L 98.0736 288.559653 
L 98.4704 288.994746 
L 98.8672 288.507761 
L 99.264 287.654872 
L 100.4544 291.912664 
L 100.8512 290.787011 
L 101.248 287.206474 
L 101.6448 289.02668 
L 102.0416 290.297364 
L 102.4384 290.005972 
L 102.8352 288.618198 
L 103.232 289.55092 
L 103.6288 297.729873 
L 104.0256 293.506675 
L 104.4224 291.210129 
L 104.8192 289.580193 
L 105.216 290.967967 
L 105.6128 290.894786 
L 106.0096 292.494119 
L 106.4064 288.442564 
L 106.8032 288.125891 
L 107.2 292.532705 
L 107.5968 292.16414 
L 108.3904 295.473243 
L 108.7872 289.05063 
L 109.184 289.381939 
L 109.5808 287.845142 
L 109.9776 287.974207 
L 110.3744 287.609633 
L 110.7712 290.137697 
L 111.168 288.345433 
L 111.5648 292.864015 
L 111.9616 290.145681 
L 112.7552 288.393333 
L 113.152 289.379278 
L 113.5488 291.968548 
L 113.9456 296.270248 
L 114.3424 290.337281 
L 114.7392 289.481731 
L 115.136 287.970215 
L 115.5328 288.325475 
L 115.9296 289.726554 
L 116.3264 288.651462 
L 116.7232 288.703354 
L 117.12 289.944766 
L 117.5168 290.033914 
L 117.9136 291.039817 
L 118.3104 291.35516 
L 118.7072 290.173622 
L 119.104 286.565144 
L 119.5008 290.281398 
L 119.8976 291.119651 
L 120.2944 293.23391 
L 120.6912 291.454952 
L 121.088 297.103179 
L 121.8816 289.09853 
L 122.2784 291.280648 
L 122.6752 288.704684 
L 123.072 287.330216 
L 123.4688 288.610214 
L 123.8656 288.257616 
L 124.2624 290.390504 
L 124.6592 289.88223 
L 125.056 288.023437 
L 125.8496 295.377443 
L 126.2464 289.81038 
L 126.6432 289.742521 
L 127.04 291.296615 
L 127.4368 288.215038 
L 127.8336 287.298282 
L 128.2304 285.093544 
L 128.6272 288.413292 
L 129.024 288.558323 
L 129.4208 287.975537 
L 129.8176 289.021357 
L 130.2144 287.831837 
L 130.6112 288.546348 
L 131.008 292.451541 
L 131.4048 292.776198 
L 131.8016 288.67009 
L 132.1984 290.419776 
L 132.5952 288.256285 
L 132.992 288.216369 
L 133.3888 285.359656 
L 133.7856 286.456038 
L 134.1824 284.236664 
L 134.5792 287.375455 
L 134.976 287.676161 
L 135.7696 290.775036 
L 136.1664 290.441065 
L 136.5632 288.878988 
L 136.96 288.559653 
L 137.7536 288.753915 
L 138.1504 289.500359 
L 138.5472 288.966804 
L 138.944 287.154582 
L 139.3408 287.737367 
L 140.1344 290.449048 
L 140.5312 288.916243 
L 140.928 288.52772 
L 141.3248 288.349425 
L 141.7216 288.518406 
L 142.1184 290.395826 
L 142.5152 288.449217 
L 142.912 287.67217 
L 143.3088 285.55791 
L 144.1024 292.255949 
L 144.4992 289.097199 
L 144.896 288.986763 
L 145.2928 287.383438 
L 145.6896 291.956573 
L 146.0864 292.902601 
L 146.4832 290.898778 
L 146.88 291.605305 
L 147.2768 289.433831 
L 147.6736 288.108593 
L 148.4672 287.913001 
L 148.864 287.291629 
L 149.2608 287.004228 
L 149.6576 292.266593 
L 150.0544 290.623352 
L 150.4512 285.572546 
L 150.848 286.921734 
L 151.2448 287.580361 
L 151.6416 289.033332 
L 152.0384 287.914332 
L 152.4352 287.708095 
L 153.2288 290.236159 
L 153.6256 287.608303 
L 154.0224 287.092045 
L 154.4192 287.045476 
L 154.816 286.647638 
L 155.2128 287.783937 
L 156.0064 286.700861 
L 156.4032 289.476409 
L 156.8 284.872671 
L 157.1968 287.493875 
L 157.5936 288.088635 
L 157.9904 287.408719 
L 158.3872 288.753915 
L 158.784 282.7318 
L 159.1808 286.663605 
L 159.5776 285.889219 
L 159.9744 285.41687 
L 160.3712 288.827096 
L 160.768 288.660776 
L 161.1648 286.732794 
L 161.5616 288.011462 
L 161.9584 287.559072 
L 162.3552 285.411548 
L 162.752 287.134623 
L 163.1488 285.20132 
L 163.5456 288.894954 
L 163.9424 287.987512 
L 164.3392 288.635495 
L 164.736 283.430344 
L 165.1328 283.15891 
L 165.5296 285.620446 
L 165.9264 286.486641 
L 166.3232 284.831424 
L 166.72 287.952918 
L 167.1168 288.928218 
L 167.5136 287.69745 
L 167.9104 288.011462 
L 168.3072 286.614374 
L 168.704 289.326056 
L 169.1008 288.298863 
L 169.4976 288.59957 
L 169.8944 286.040903 
L 170.2912 288.530381 
L 170.688 288.438572 
L 171.0848 289.318072 
L 171.4816 287.179862 
L 171.8784 288.546348 
L 172.2752 284.237994 
L 172.672 287.327555 
L 173.0688 287.629592 
L 173.4656 289.698612 
L 173.8624 287.847804 
L 174.2592 288.93354 
L 174.656 287.210465 
L 175.0528 288.332127 
L 175.4496 288.129882 
L 175.8464 287.135954 
L 176.2432 286.503938 
L 176.64 287.034831 
L 177.0368 284.063691 
L 177.4336 287.680153 
L 177.8304 286.679572 
L 178.2272 287.012212 
L 178.624 289.868924 
L 179.0208 287.55508 
L 179.4176 287.998157 
L 179.8144 287.79192 
L 180.2112 291.107676 
L 181.0048 286.780694 
L 181.7984 295.34684 
L 182.1952 289.730546 
L 182.592 288.845724 
L 182.9888 294.592412 
L 183.3856 288.93354 
L 183.7824 292.4715 
L 184.1792 288.109924 
L 184.576 282.182279 
L 185.3696 292.652456 
L 185.7664 287.761317 
L 186.56 283.877412 
L 187.3536 288.256285 
L 187.7504 287.642897 
L 188.1472 290.419776 
L 188.544 285.965061 
L 188.9408 289.286139 
L 189.3376 287.4819 
L 189.7344 287.688136 
L 190.1312 288.232335 
L 190.528 285.9624 
L 190.9248 286.903106 
L 191.3216 293.119482 
L 191.7184 290.618029 
L 192.1152 295.000894 
L 192.512 288.418614 
L 192.9088 287.431338 
L 193.3056 287.155912 
L 193.7024 291.031834 
L 194.0992 288.59957 
L 194.496 292.035076 
L 194.8928 290.861522 
L 195.2896 288.450547 
L 195.6864 286.825933 
L 196.0832 285.741527 
L 196.48 286.10477 
L 196.8768 288.24431 
L 197.2736 287.773292 
L 197.6704 286.964312 
L 198.0672 285.451465 
L 198.464 287.306266 
L 198.8608 286.17662 
L 199.2576 285.564563 
L 199.6544 282.653297 
L 200.0512 283.099035 
L 200.448 286.790008 
L 200.8448 288.664767 
L 201.6384 284.026435 
L 202.0352 284.260614 
L 202.432 287.19849 
L 202.8288 287.273002 
L 203.2256 285.456787 
L 203.6224 289.00406 
L 204.0192 287.669508 
L 204.416 290.213539 
L 204.8128 285.539282 
L 205.2096 286.606391 
L 205.6064 287.17321 
L 206.0032 288.447886 
L 206.4 287.105351 
L 206.7968 288.874996 
L 207.1936 287.632253 
L 207.5904 288.010132 
L 207.9872 287.646889 
L 208.7808 287.620278 
L 209.1776 289.920816 
L 209.5744 279.672843 
L 209.9712 285.746849 
L 210.368 288.482481 
L 210.7648 286.269759 
L 211.1616 288.302855 
L 211.5584 280.539037 
L 211.9552 288.817782 
L 212.352 287.36348 
L 212.7488 286.392171 
L 213.1456 286.493293 
L 213.5424 288.216369 
L 213.9392 286.750092 
L 214.336 286.486641 
L 214.7328 287.094707 
L 215.1296 290.612707 
L 215.5264 289.911502 
L 215.9232 285.451465 
L 216.7168 285.617785 
L 217.1136 289.226264 
L 217.5104 288.595578 
L 217.9072 279.901699 
L 218.304 287.320902 
L 218.7008 288.64614 
L 219.4944 284.405645 
L 219.8912 280.472509 
L 220.288 286.330965 
L 220.6848 276.426276 
L 221.0816 287.576369 
L 221.4784 290.916075 
L 221.8752 287.025517 
L 222.6688 287.286307 
L 223.0656 285.655041 
L 223.4624 287.430008 
L 223.8592 292.289213 
L 224.256 289.719901 
L 224.6528 285.040322 
L 225.0496 286.98294 
L 225.4464 287.012212 
L 226.24 288.93354 
L 226.6368 285.746849 
L 227.0336 284.929885 
L 227.4304 286.679572 
L 227.8272 287.38876 
L 228.224 287.190507 
L 228.6208 286.441402 
L 229.0176 288.325475 
L 229.4144 287.783937 
L 229.8112 286.442732 
L 230.208 288.031421 
L 230.6048 287.34086 
L 231.0016 290.164308 
L 231.3984 286.353585 
L 231.7952 287.967554 
L 232.192 287.43666 
L 232.5888 288.825765 
L 232.9856 288.81246 
L 233.3824 288.034082 
L 233.7792 285.721569 
L 234.176 284.947183 
L 234.5728 288.659445 
L 234.9696 288.167138 
L 235.3664 285.887889 
L 235.7632 288.497117 
L 236.16 285.941111 
L 236.5568 287.740028 
L 236.9536 286.43874 
L 237.3504 287.38876 
L 237.7472 286.169967 
L 238.144 285.878575 
L 238.5408 284.643815 
L 238.9376 287.516494 
L 239.3344 288.152502 
L 239.7312 286.91375 
L 240.128 284.881985 
L 240.5248 291.454952 
L 240.9216 286.502607 
L 241.3184 286.656952 
L 241.7152 283.692465 
L 242.112 289.545598 
L 242.5088 288.151171 
L 242.9056 285.285145 
L 243.3024 297.830995 
L 243.6992 297.260185 
L 244.096 288.354747 
L 244.4928 288.567636 
L 244.8896 287.378116 
L 245.2864 289.33537 
L 245.6832 285.989011 
L 246.08 284.325811 
L 246.8736 289.733207 
L 247.2704 297.636733 
L 247.6672 287.115996 
L 248.064 283.816207 
L 248.4608 284.498784 
L 248.8576 289.123811 
L 249.2544 286.738116 
L 249.6512 287.094707 
L 250.048 286.43741 
L 250.4448 287.097368 
L 250.8416 286.08215 
L 251.2384 285.887889 
L 251.6352 285.019033 
L 252.032 287.857117 
L 252.4288 284.677079 
L 252.8256 284.836746 
L 253.2224 284.533379 
L 253.6192 283.913338 
L 254.016 289.105183 
L 254.8096 286.219198 
L 255.2064 287.370132 
L 255.6032 285.673668 
L 256 287.110673 
L 256.3968 284.675748 
L 256.7936 279.857791 
L 257.5872 283.94261 
L 257.984 285.241236 
L 258.3808 285.286476 
L 258.7776 282.228849 
L 259.1744 287.127971 
L 259.5712 288.47982 
L 259.968 285.541943 
L 260.3648 285.074916 
L 260.7616 284.055708 
L 261.1584 285.673668 
L 261.5552 286.601069 
L 261.952 284.404314 
L 262.3488 285.242567 
L 262.7456 288.073999 
L 263.1424 287.257035 
L 263.5392 285.149428 
L 263.936 286.824603 
L 264.3328 286.904436 
L 264.7296 275.741038 
L 265.1264 283.484897 
L 265.92 288.180444 
L 266.3168 288.07799 
L 266.7136 286.24847 
L 267.5072 285.51001 
L 267.904 286.064853 
L 268.3008 285.829344 
L 268.6976 286.680902 
L 269.0944 288.892293 
L 269.4912 280.939536 
L 269.888 281.816375 
L 270.2848 287.783937 
L 270.6816 286.096787 
L 271.0784 287.283646 
L 271.4752 286.707514 
L 271.872 284.82078 
L 272.2688 284.477495 
L 272.6656 287.347513 
L 273.0624 288.570298 
L 273.4592 284.834085 
L 273.856 287.761317 
L 274.2528 285.20265 
L 274.6496 283.653878 
L 275.0464 284.830093 
L 275.4432 277.927148 
L 275.84 285.346351 
L 276.2368 284.971133 
L 276.6336 286.050217 
L 277.0304 282.154337 
L 277.4272 279.579704 
L 277.824 282.834253 
L 278.2208 288.859029 
L 278.6176 285.72423 
L 279.0144 279.164569 
L 279.4112 286.569135 
L 279.808 284.3471 
L 280.2048 286.825933 
L 280.6016 284.587932 
L 280.9984 286.899114 
L 281.3952 285.353004 
L 281.792 289.634746 
L 282.1888 286.807306 
L 282.5856 280.256959 
L 283.3792 286.944353 
L 283.776 285.810716 
L 284.1728 281.145773 
L 284.5696 285.206642 
L 284.9664 276.973137 
L 285.3632 288.658115 
L 285.76 288.309508 
L 286.1568 286.233834 
L 286.5536 287.206474 
L 286.9504 286.46136 
L 287.3472 288.519736 
L 288.1408 284.429595 
L 288.5376 285.031008 
L 288.9344 284.931216 
L 289.3312 286.285726 
L 289.728 281.077914 
L 290.1248 285.698949 
L 290.5216 282.687892 
L 290.9184 285.628429 
L 291.3152 283.484897 
L 291.712 284.368389 
L 292.1088 287.183854 
L 292.5056 285.528637 
L 292.9024 284.864688 
L 293.696 284.216705 
L 294.0928 283.860115 
L 294.4896 286.583772 
L 294.8864 284.891299 
L 295.2832 285.595165 
L 295.68 290.292042 
L 296.0768 285.472754 
L 296.4736 288.547678 
L 296.8704 286.039572 
L 297.664 285.176039 
L 298.0608 287.048137 
L 298.4576 286.871172 
L 298.8544 287.774623 
L 299.2512 287.885059 
L 299.648 283.391758 
L 300.0448 286.740778 
L 300.4416 273.697298 
L 300.8384 287.234415 
L 301.2352 273.448483 
L 301.632 286.615705 
L 302.0288 288.232335 
L 302.4256 274.618045 
L 302.8224 283.571384 
L 303.2192 284.591923 
L 303.616 290.135036 
L 304.0128 285.568554 
L 304.4096 284.430925 
L 304.8064 285.877244 
L 305.2032 285.031008 
L 305.6 285.954417 
L 305.9968 289.674662 
L 306.7904 286.066184 
L 307.1872 286.115414 
L 307.584 284.871341 
L 307.9808 281.675336 
L 309.1712 288.115246 
L 309.568 287.628261 
L 309.9648 287.338199 
L 310.3616 284.206061 
L 310.7584 290.084475 
L 311.552 283.526145 
L 311.9488 286.119406 
L 312.3456 286.338948 
L 312.7424 288.423936 
L 313.1392 285.289137 
L 313.536 284.911258 
L 313.9328 285.480737 
L 314.3296 284.351092 
L 314.7264 283.665853 
L 315.1232 285.298451 
L 315.52 284.098285 
L 315.9168 284.494792 
L 316.3136 287.819862 
L 316.7104 278.466025 
L 317.1072 284.381695 
L 317.504 284.587932 
L 317.9008 284.961819 
L 318.2976 287.378116 
L 318.6944 287.214457 
L 319.0912 289.102522 
L 319.488 289.649382 
L 319.8848 286.332296 
L 320.2816 286.107431 
L 320.6784 282.453713 
L 321.0752 282.260782 
L 321.472 284.999075 
L 321.8688 285.466101 
L 322.2656 284.603898 
L 322.6624 283.363816 
L 323.0592 279.199164 
L 323.456 273.062621 
L 324.2496 285.156081 
L 324.6464 282.033256 
L 325.0432 283.858785 
L 325.44 286.743439 
L 325.8368 287.678822 
L 326.2336 286.098117 
L 326.6304 283.475583 
L 327.0272 285.51001 
L 327.424 292.933204 
L 328.2176 286.211215 
L 328.6144 278.702865 
L 329.0112 286.337618 
L 329.408 285.134792 
L 329.8048 284.466851 
L 330.2016 286.546516 
L 330.5984 285.016372 
L 331.392 285.911839 
L 331.7888 285.536621 
L 332.1856 285.970383 
L 332.5824 281.027353 
L 332.9792 280.516418 
L 333.376 283.782943 
L 333.7728 275.952597 
L 334.1696 287.763978 
L 334.5664 283.568723 
L 334.9632 289.826346 
L 335.36 282.35126 
L 335.7568 281.692633 
L 336.1536 282.16099 
L 336.5504 277.02769 
L 336.9472 282.77837 
L 337.344 286.614374 
L 337.7408 288.33745 
L 338.5344 281.232259 
L 338.9312 286.980278 
L 339.328 286.690216 
L 339.7248 291.484224 
L 340.1216 285.942442 
L 340.5184 285.331715 
L 340.9152 283.70577 
L 341.7088 288.055371 
L 342.1056 286.374874 
L 342.5024 287.167887 
L 342.8992 287.661525 
L 343.296 285.121486 
L 343.6928 278.100121 
L 344.0896 285.983689 
L 344.4864 285.166725 
L 344.8832 281.427852 
L 345.28 283.661862 
L 345.6768 277.690308 
L 346.0736 284.605229 
L 346.4704 286.974956 
L 346.8672 287.931629 
L 347.264 283.695126 
L 347.6608 284.603898 
L 348.0576 286.244479 
L 348.4544 282.942029 
L 348.8512 287.000237 
L 349.248 284.341778 
L 349.6448 283.676498 
L 350.0416 285.25055 
L 350.4384 286.171298 
L 350.8352 285.129469 
L 351.232 284.409636 
L 351.6288 289.622771 
L 352.0256 283.676498 
L 352.4224 284.325811 
L 352.8192 266.401837 
L 353.216 237.94249 
L 353.6128 270.676927 
L 354.0096 285.374292 
L 354.4064 285.475415 
L 354.8032 286.997576 
L 355.2 284.933877 
L 355.5968 275.478918 
L 355.9936 263.054148 
L 356.3904 285.166725 
L 356.7872 284.469512 
L 357.184 284.51209 
L 357.5808 284.388348 
L 357.9776 286.225851 
L 358.3744 285.514001 
L 358.7712 278.520578 
L 359.168 284.049055 
L 359.5648 279.938955 
L 359.9616 285.549926 
L 360.3584 268.955182 
L 360.7552 286.168637 
L 361.152 289.31275 
L 361.5488 287.821192 
L 361.9456 287.893043 
L 362.3424 287.137284 
L 362.7392 282.51625 
L 363.136 279.420036 
L 363.9296 285.322401 
L 365.12 283.818868 
L 365.5168 285.410218 
L 365.9136 285.850633 
L 366.3104 284.219366 
L 366.7072 284.563981 
L 367.104 285.366309 
L 367.5008 277.957751 
L 367.8976 285.886558 
L 368.2944 286.57978 
L 368.6912 282.047892 
L 369.088 288.063354 
L 369.4848 286.613044 
L 369.8816 283.655209 
L 370.2784 286.092795 
L 371.072 278.640328 
L 371.4688 282.186271 
L 371.8656 287.223771 
L 372.2624 276.738958 
L 372.6592 284.265936 
L 373.056 284.076996 
L 373.4528 285.160072 
L 373.8496 284.754252 
L 374.2464 281.9002 
L 375.04 285.161403 
L 375.4368 284.049055 
L 375.8336 284.590593 
L 376.2304 284.337786 
L 376.6272 286.245809 
L 377.024 284.220697 
L 377.4208 286.589094 
L 377.8176 284.456206 
L 378.2144 285.644396 
L 378.6112 283.233421 
L 379.008 283.947932 
L 379.4048 283.877412 
L 379.8016 282.142362 
L 380.1984 283.897371 
L 380.992 285.693627 
L 381.3888 283.092382 
L 381.7856 276.471516 
L 382.1824 286.026267 
L 382.5792 285.100197 
L 383.3728 281.856292 
L 383.7696 278.360911 
L 384.1664 285.784105 
L 384.5632 281.974712 
L 384.96 287.823853 
L 385.3568 284.981777 
L 385.7536 283.63392 
L 386.1504 285.93978 
L 386.5472 283.204149 
L 386.944 285.133461 
L 387.3408 284.642484 
L 387.7376 287.594997 
L 388.1344 285.403565 
L 388.5312 283.974543 
L 388.928 284.146186 
L 389.3248 285.01105 
L 389.7216 286.996245 
L 390.1184 282.115751 
L 390.5152 287.138615 
L 390.912 279.485234 
L 391.3088 284.211383 
L 391.7056 286.273751 
L 392.1024 281.956084 
L 392.4992 285.870591 
L 392.896 286.972295 
L 393.2928 283.125646 
L 393.6896 275.831516 
L 394.0864 287.028179 
L 394.4832 286.147348 
L 394.88 284.720988 
L 395.2768 268.955182 
L 395.6736 283.184191 
L 396.0704 275.115675 
L 396.4672 286.277743 
L 396.864 284.674418 
L 397.2608 285.016372 
L 397.6576 283.641903 
L 398.0544 284.847391 
L 398.4512 282.572133 
L 398.848 285.1787 
L 399.2448 279.208477 
L 399.6416 283.926643 
L 400.0384 283.574045 
L 400.4352 283.474253 
L 400.832 287.24506 
L 401.2288 284.27658 
L 401.6256 284.606559 
L 402.0224 282.548183 
L 402.4192 287.195829 
L 402.816 280.601574 
L 403.6096 287.318241 
L 404.0064 274.51027 
L 404.4032 280.880991 
L 404.8 280.980783 
L 405.1968 275.36449 
L 405.5936 255.940975 
L 405.9904 283.393089 
L 406.3872 256.867044 
L 406.784 284.956497 
L 407.1808 284.875332 
L 407.5776 280.548351 
L 407.9744 280.079994 
L 408.3712 283.079076 
L 408.768 262.8213 
L 409.5616 282.985937 
L 409.9584 275.838169 
L 410.3552 283.639242 
L 410.752 281.322737 
L 411.1488 284.659782 
L 411.9424 281.736541 
L 412.3392 282.878162 
L 413.1328 286.748761 
L 413.5296 283.774959 
L 413.9264 282.963318 
L 414.3232 283.06444 
L 414.72 287.468594 
L 415.1168 284.662443 
L 415.5136 277.52665 
L 415.9104 255.249084 
L 416.3072 284.943191 
L 416.704 284.216705 
L 417.1008 285.753502 
L 417.4976 284.401653 
L 417.8944 285.346351 
L 418.2912 284.787516 
L 418.688 290.351917 
L 419.0848 284.752921 
L 419.4816 283.736373 
L 419.8784 283.34785 
L 420.2752 282.673256 
L 420.672 285.049636 
L 421.0688 285.301112 
L 421.4656 285.165395 
L 421.8624 284.231341 
L 422.2592 284.3471 
L 422.656 283.298619 
L 423.0528 286.764728 
L 423.4496 283.345188 
L 424.2432 285.547265 
L 424.64 278.823946 
L 425.0368 264.229033 
L 425.4336 261.30047 
L 425.8304 282.734461 
L 426.2272 281.434504 
L 426.624 282.035917 
L 427.0208 285.113503 
L 427.4176 267.979882 
L 427.8144 283.861446 
L 428.2112 278.798665 
L 428.608 282.437747 
L 429.0048 283.732381 
L 429.4016 277.440163 
L 430.1952 286.686225 
L 430.9888 282.460366 
L 431.3856 285.422193 
L 431.7824 285.678991 
L 432.1792 282.803651 
L 432.576 288.83774 
L 433.7664 281.443818 
L 434.1632 286.209884 
L 434.56 285.25055 
L 434.9568 274.495634 
L 435.3536 267.150943 
L 435.7504 283.789596 
L 436.1472 284.638493 
L 436.544 275.854136 
L 436.9408 285.1308 
L 437.3376 286.893792 
L 437.7344 281.026022 
L 438.1312 285.804063 
L 438.528 281.414546 
L 438.9248 279.566398 
L 439.3216 257.162429 
L 439.7184 283.132299 
L 440.1152 281.419868 
L 440.512 282.831592 
L 440.9088 271.314265 
L 441.3056 282.643983 
L 441.7024 262.640344 
L 442.0992 284.058369 
L 442.496 284.123566 
L 442.8928 283.387766 
L 443.2896 285.91583 
L 443.6864 283.166893 
L 444.0832 283.782943 
L 444.8768 275.772972 
L 445.2736 284.03708 
L 446.0672 268.68907 
L 446.464 283.748348 
L 446.8608 283.013879 
L 447.2576 283.889388 
L 447.6544 282.96864 
L 448.0512 279.3096 
L 448.448 286.307015 
L 448.8448 282.432424 
L 449.2416 286.364229 
L 449.6384 285.386268 
L 450.0352 282.766395 
L 450.432 282.558828 
L 450.8288 284.015791 
L 451.6224 280.294214 
L 452.0192 284.406975 
L 452.416 279.153924 
L 452.8128 285.44082 
L 453.2096 279.59434 
L 453.6064 295.096694 
L 453.6064 295.096694 
" style="fill:none;stroke:#1f77b4;stroke-linecap:square;stroke-width:1.2;"/>
   </g>
   <g id="patch_3">
    <path d="M 57.6 307.584 
L 57.6 41.472 
" style="fill:none;stroke:#000000;stroke-linecap:square;stroke-linejoin:miter;"/>
   </g>
   <g id="patch_4">
    <path d="M 414.72 307.584 
L 414.72 41.472 
" style="fill:none;stroke:#000000;stroke-linecap:square;stroke-linejoin:miter;"/>
   </g>
   <g id="patch_5">
    <path d="M 57.6 307.584 
L 414.72 307.584 
" style="fill:none;stroke:#000000;stroke-linecap:square;stroke-linejoin:miter;"/>
   </g>
   <g id="patch_6">
    <path d="M 57.6 41.472 
L 414.72 41.472 
" style="fill:none;stroke:#000000;stroke-linecap:square;stroke-linejoin:miter;"/>
   </g>
   <g id="text_19">
    <!-- Training - NSR-ES - Cartpole -->
    <g transform="translate(169.64475 35.472)scale(0.096 -0.096)">
     <defs>
      <path d="M 3513 2113 
L 3513 0 
L 2938 0 
L 2938 2094 
Q 2938 2591 2744 2837 
Q 2550 3084 2163 3084 
Q 1697 3084 1428 2787 
Q 1159 2491 1159 1978 
L 1159 0 
L 581 0 
L 581 3500 
L 1159 3500 
L 1159 2956 
Q 1366 3272 1645 3428 
Q 1925 3584 2291 3584 
Q 2894 3584 3203 3211 
Q 3513 2838 3513 2113 
z
" id="DejaVuSans-6e" transform="scale(0.015625)"/>
      <path d="M 2906 1791 
Q 2906 2416 2648 2759 
Q 2391 3103 1925 3103 
Q 1463 3103 1205 2759 
Q 947 2416 947 1791 
Q 947 1169 1205 825 
Q 1463 481 1925 481 
Q 2391 481 2648 825 
Q 2906 1169 2906 1791 
z
M 3481 434 
Q 3481 -459 3084 -895 
Q 2688 -1331 1869 -1331 
Q 1566 -1331 1297 -1286 
Q 1028 -1241 775 -1147 
L 775 -588 
Q 1028 -725 1275 -790 
Q 1522 -856 1778 -856 
Q 2344 -856 2625 -561 
Q 2906 -266 2906 331 
L 2906 616 
Q 2728 306 2450 153 
Q 2172 0 1784 0 
Q 1141 0 747 490 
Q 353 981 353 1791 
Q 353 2603 747 3093 
Q 1141 3584 1784 3584 
Q 2172 3584 2450 3431 
Q 2728 3278 2906 2969 
L 2906 3500 
L 3481 3500 
L 3481 434 
z
" id="DejaVuSans-67" transform="scale(0.015625)"/>
      <path id="DejaVuSans-20" transform="scale(0.015625)"/>
      <path d="M 313 2009 
L 1997 2009 
L 1997 1497 
L 313 1497 
L 313 2009 
z
" id="DejaVuSans-2d" transform="scale(0.015625)"/>
      <path d="M 628 4666 
L 1478 4666 
L 3547 763 
L 3547 4666 
L 4159 4666 
L 4159 0 
L 3309 0 
L 1241 3903 
L 1241 0 
L 628 0 
L 628 4666 
z
" id="DejaVuSans-4e" transform="scale(0.015625)"/>
      <path d="M 3425 4513 
L 3425 3897 
Q 3066 4069 2747 4153 
Q 2428 4238 2131 4238 
Q 1616 4238 1336 4038 
Q 1056 3838 1056 3469 
Q 1056 3159 1242 3001 
Q 1428 2844 1947 2747 
L 2328 2669 
Q 3034 2534 3370 2195 
Q 3706 1856 3706 1288 
Q 3706 609 3251 259 
Q 2797 -91 1919 -91 
Q 1588 -91 1214 -16 
Q 841 59 441 206 
L 441 856 
Q 825 641 1194 531 
Q 1563 422 1919 422 
Q 2459 422 2753 634 
Q 3047 847 3047 1241 
Q 3047 1584 2836 1778 
Q 2625 1972 2144 2069 
L 1759 2144 
Q 1053 2284 737 2584 
Q 422 2884 422 3419 
Q 422 4038 858 4394 
Q 1294 4750 2059 4750 
Q 2388 4750 2728 4690 
Q 3069 4631 3425 4513 
z
" id="DejaVuSans-53" transform="scale(0.015625)"/>
      <path d="M 628 4666 
L 3578 4666 
L 3578 4134 
L 1259 4134 
L 1259 2753 
L 3481 2753 
L 3481 2222 
L 1259 2222 
L 1259 531 
L 3634 531 
L 3634 0 
L 628 0 
L 628 4666 
z
" id="DejaVuSans-45" transform="scale(0.015625)"/>
      <path d="M 4122 4306 
L 4122 3641 
Q 3803 3938 3442 4084 
Q 3081 4231 2675 4231 
Q 1875 4231 1450 3742 
Q 1025 3253 1025 2328 
Q 1025 1406 1450 917 
Q 1875 428 2675 428 
Q 3081 428 3442 575 
Q 3803 722 4122 1019 
L 4122 359 
Q 3791 134 3420 21 
Q 3050 -91 2638 -91 
Q 1578 -91 968 557 
Q 359 1206 359 2328 
Q 359 3453 968 4101 
Q 1578 4750 2638 4750 
Q 3056 4750 3426 4639 
Q 3797 4528 4122 4306 
z
" id="DejaVuSans-43" transform="scale(0.015625)"/>
      <path d="M 1959 3097 
Q 1497 3097 1228 2736 
Q 959 2375 959 1747 
Q 959 1119 1226 758 
Q 1494 397 1959 397 
Q 2419 397 2687 759 
Q 2956 1122 2956 1747 
Q 2956 2369 2687 2733 
Q 2419 3097 1959 3097 
z
M 1959 3584 
Q 2709 3584 3137 3096 
Q 3566 2609 3566 1747 
Q 3566 888 3137 398 
Q 2709 -91 1959 -91 
Q 1206 -91 779 398 
Q 353 888 353 1747 
Q 353 2609 779 3096 
Q 1206 3584 1959 3584 
z
" id="DejaVuSans-6f" transform="scale(0.015625)"/>
      <path d="M 603 4863 
L 1178 4863 
L 1178 0 
L 603 0 
L 603 4863 
z
" id="DejaVuSans-6c" transform="scale(0.015625)"/>
     </defs>
     <use xlink:href="#DejaVuSans-54"/>
     <use x="46.333984" xlink:href="#DejaVuSans-72"/>
     <use x="87.447266" xlink:href="#DejaVuSans-61"/>
     <use x="148.726562" xlink:href="#DejaVuSans-69"/>
     <use x="176.509766" xlink:href="#DejaVuSans-6e"/>
     <use x="239.888672" xlink:href="#DejaVuSans-69"/>
     <use x="267.671875" xlink:href="#DejaVuSans-6e"/>
     <use x="331.050781" xlink:href="#DejaVuSans-67"/>
     <use x="394.527344" xlink:href="#DejaVuSans-20"/>
     <use x="426.314453" xlink:href="#DejaVuSans-2d"/>
     <use x="462.398438" xlink:href="#DejaVuSans-20"/>
     <use x="494.185547" xlink:href="#DejaVuSans-4e"/>
     <use x="568.990234" xlink:href="#DejaVuSans-53"/>
     <use x="632.466797" xlink:href="#DejaVuSans-52"/>
     <use x="697.949219" xlink:href="#DejaVuSans-2d"/>
     <use x="734.033203" xlink:href="#DejaVuSans-45"/>
     <use x="797.216797" xlink:href="#DejaVuSans-53"/>
     <use x="860.693359" xlink:href="#DejaVuSans-20"/>
     <use x="892.480469" xlink:href="#DejaVuSans-2d"/>
     <use x="928.564453" xlink:href="#DejaVuSans-20"/>
     <use x="960.351562" xlink:href="#DejaVuSans-43"/>
     <use x="1030.175781" xlink:href="#DejaVuSans-61"/>
     <use x="1091.455078" xlink:href="#DejaVuSans-72"/>
     <use x="1132.568359" xlink:href="#DejaVuSans-74"/>
     <use x="1171.777344" xlink:href="#DejaVuSans-70"/>
     <use x="1235.253906" xlink:href="#DejaVuSans-6f"/>
     <use x="1296.435547" xlink:href="#DejaVuSans-6c"/>
     <use x="1324.21875" xlink:href="#DejaVuSans-65"/>
    </g>
   </g>
  </g>
 </g>
 <defs>
  <clipPath id="pad1ab1560e">
   <rect height="266.112" width="357.12" x="57.6" y="41.472"/>
  </clipPath>
 </defs>
</svg>
