<?xml version="1.0" encoding="utf-8" standalone="no"?>
<!DOCTYPE svg PUBLIC "-//W3C//DTD SVG 1.1//EN"
  "http://www.w3.org/Graphics/SVG/1.1/DTD/svg11.dtd">
<svg height="345.6pt" version="1.1" viewBox="0 0 460.8 345.6" width="460.8pt" xmlns="http://www.w3.org/2000/svg" xmlns:xlink="http://www.w3.org/1999/xlink">
 <metadata>
  <rdf:RDF xmlns:cc="http://creativecommons.org/ns#" xmlns:dc="http://purl.org/dc/elements/1.1/" xmlns:rdf="http://www.w3.org/1999/02/22-rdf-syntax-ns#">
   <cc:Work>
    <dc:type rdf:resource="http://purl.org/dc/dcmitype/StillImage"/>
    <dc:date>2021-07-22T19:44:13.504496</dc:date>
    <dc:format>image/svg+xml</dc:format>
    <dc:creator>
     <cc:Agent>
      <dc:title>Matplotlib v3.4.2, https://matplotlib.org/</dc:title>
     </cc:Agent>
    </dc:creator>
   </cc:Work>
  </rdf:RDF>
 </metadata>
 <defs>
  <style type="text/css">*{stroke-linecap:butt;stroke-linejoin:round;}</style>
 </defs>
 <g id="figure_1">
  <g id="patch_1">
   <path d="M 0 345.6 
L 460.8 345.6 
L 460.8 0 
L 0 0 
z
" style="fill:#ffffff;"/>
  </g>
  <g id="axes_1">
   <g id="patch_2">
    <path d="M 57.6 307.584 
L 414.72 307.584 
L 414.72 41.472 
L 57.6 41.472 
z
" style="fill:#ffffff;"/>
   </g>
   <g id="PolyCollection_1">
    <path clip-path="url(#p1aae467506)" d="M 57.95712 285.899468 
L 57.95712 286.906378 
L 58.31424 285.863507 
L 58.67136 284.820636 
L 59.02848 283.993531 
L 59.3856 283.687862 
L 59.74272 283.112484 
L 60.09984 283.022582 
L 60.45696 282.896718 
L 60.81408 282.96864 
L 61.1712 283.400173 
L 61.52832 283.597959 
L 61.88544 283.418154 
L 62.24256 282.824796 
L 62.59968 283.490076 
L 62.9568 283.238348 
L 63.31392 283.328251 
L 63.67104 283.382192 
L 64.02816 283.094504 
L 64.38528 284.047472 
L 64.7424 283.202387 
L 65.09952 283.094504 
L 65.45664 283.130465 
L 65.81376 283.022582 
L 66.17088 283.058543 
L 66.528 283.184406 
L 66.88512 283.238348 
L 67.24224 283.202387 
L 67.59936 282.950659 
L 67.95648 282.914698 
L 68.3136 283.130465 
L 68.67072 283.184406 
L 69.02784 282.96864 
L 69.38496 282.878737 
L 69.74208 283.040562 
L 70.0992 282.716912 
L 70.45632 282.752874 
L 70.81344 283.130465 
L 71.17056 282.788835 
L 71.52768 282.842776 
L 71.8848 282.824796 
L 72.24192 282.896718 
L 72.59904 282.591049 
L 72.95616 283.238348 
L 73.31328 283.31027 
L 73.6704 283.274309 
L 74.02752 283.022582 
L 74.38464 282.896718 
L 74.74176 282.842776 
L 75.09888 283.184406 
L 75.456 282.914698 
L 75.81312 282.878737 
L 76.17024 282.878737 
L 76.52736 282.662971 
L 76.88448 282.842776 
L 77.2416 282.806815 
L 77.59872 283.346231 
L 77.95584 283.040562 
L 78.31296 282.96864 
L 78.67008 283.130465 
L 79.0272 282.411243 
L 79.38432 282.824796 
L 79.74144 282.64499 
L 80.09856 283.040562 
L 80.45568 282.986621 
L 80.8128 282.986621 
L 81.16992 283.490076 
L 81.52704 282.465185 
L 81.88416 283.058543 
L 82.24128 283.328251 
L 82.5984 282.591049 
L 82.95552 283.274309 
L 83.31264 283.112484 
L 83.66976 282.411243 
L 84.02688 282.609029 
L 84.384 282.285379 
L 84.74112 283.166426 
L 85.09824 282.698932 
L 85.45536 282.914698 
L 85.81248 282.842776 
L 86.1696 283.508056 
L 86.52672 282.806815 
L 86.88384 283.238348 
L 87.24096 283.31027 
L 87.59808 283.202387 
L 87.9552 283.328251 
L 88.31232 283.400173 
L 88.66944 282.96864 
L 89.02656 283.418154 
L 89.38368 283.29229 
L 89.7408 283.31027 
L 90.09792 283.526037 
L 90.45504 283.094504 
L 90.81216 282.914698 
L 91.16928 283.364212 
L 91.5264 283.058543 
L 91.88352 282.519126 
L 92.24064 283.382192 
L 92.59776 283.328251 
L 92.95488 283.238348 
L 93.312 283.148445 
L 93.66912 282.96864 
L 94.02624 282.519126 
L 94.38336 283.274309 
L 94.74048 282.752874 
L 95.0976 283.004601 
L 95.45472 283.004601 
L 95.81184 283.004601 
L 96.16896 282.680951 
L 96.52608 282.860757 
L 96.8832 283.256329 
L 97.24032 283.130465 
L 97.59744 282.986621 
L 97.95456 283.561998 
L 98.31168 282.591049 
L 98.6688 282.177496 
L 99.02592 282.986621 
L 99.38304 282.788835 
L 99.74016 283.094504 
L 100.09728 283.29229 
L 100.4544 282.878737 
L 100.81152 282.950659 
L 101.16864 282.591049 
L 101.52576 283.040562 
L 101.88288 283.166426 
L 102.24 283.184406 
L 102.59712 282.932679 
L 102.95424 283.220368 
L 103.31136 283.400173 
L 103.66848 282.770854 
L 104.0256 282.986621 
L 104.38272 282.537107 
L 104.73984 282.411243 
L 105.09696 282.662971 
L 105.45408 282.770854 
L 105.8112 283.256329 
L 106.16832 282.662971 
L 106.52544 282.483165 
L 106.88256 282.30336 
L 107.23968 282.393263 
L 107.5968 282.806815 
L 107.95392 282.429224 
L 108.31104 282.465185 
L 108.66816 282.357302 
L 109.02528 282.842776 
L 109.3824 282.537107 
L 109.73952 282.177496 
L 110.09664 282.177496 
L 110.45376 281.889808 
L 110.81088 282.680951 
L 111.168 283.094504 
L 111.52512 282.698932 
L 111.88224 282.483165 
L 112.23936 283.004601 
L 112.59648 282.555088 
L 112.9536 282.177496 
L 113.31072 282.483165 
L 113.66784 282.483165 
L 114.02496 281.97971 
L 114.38208 282.770854 
L 114.7392 281.97971 
L 115.09632 283.202387 
L 115.45344 282.123555 
L 115.81056 282.842776 
L 116.16768 282.123555 
L 116.5248 282.123555 
L 116.88192 283.130465 
L 117.23904 282.770854 
L 117.59616 282.842776 
L 117.95328 282.267399 
L 118.3104 282.267399 
L 118.66752 282.483165 
L 119.02464 282.123555 
L 119.38176 282.842776 
L 119.73888 282.555088 
L 120.096 282.698932 
L 120.45312 282.339321 
L 120.81024 282.267399 
L 121.16736 283.705842 
L 121.52448 281.907788 
L 121.8816 282.770854 
L 122.23872 282.483165 
L 122.59584 282.62701 
L 122.95296 282.339321 
L 123.31008 282.914698 
L 123.6672 282.051632 
L 124.02432 282.123555 
L 124.38144 282.770854 
L 124.73856 282.123555 
L 125.09568 282.411243 
L 125.4528 282.123555 
L 125.80992 282.914698 
L 126.16704 282.555088 
L 126.52416 282.339321 
L 126.88128 282.339321 
L 127.2384 282.339321 
L 127.59552 282.411243 
L 127.95264 282.842776 
L 128.30976 282.339321 
L 128.66688 282.195477 
L 129.024 282.195477 
L 129.38112 282.411243 
L 129.73824 283.130465 
L 130.09536 282.339321 
L 130.45248 282.339321 
L 130.8096 282.339321 
L 131.16672 281.692022 
L 131.52384 282.339321 
L 131.88096 282.483165 
L 132.23808 283.274309 
L 132.5952 282.195477 
L 132.95232 282.267399 
L 133.30944 282.339321 
L 133.66656 282.195477 
L 134.02368 282.483165 
L 134.3808 282.555088 
L 134.73792 282.698932 
L 135.09504 282.483165 
L 135.45216 282.698932 
L 135.80928 282.698932 
L 136.1664 282.339321 
L 136.52352 282.411243 
L 136.88064 282.555088 
L 137.23776 282.698932 
L 137.59488 282.555088 
L 137.952 282.483165 
L 138.30912 282.555088 
L 138.66624 282.914698 
L 139.02336 282.267399 
L 139.38048 282.986621 
L 139.7376 281.97971 
L 140.09472 282.411243 
L 140.45184 281.907788 
L 140.80896 282.914698 
L 141.16608 282.123555 
L 141.5232 281.692022 
L 141.88032 282.698932 
L 142.23744 282.051632 
L 142.59456 281.907788 
L 142.95168 281.692022 
L 143.3088 282.339321 
L 143.66592 282.483165 
L 144.02304 282.62701 
L 144.38016 282.842776 
L 144.73728 282.411243 
L 145.0944 282.195477 
L 145.45152 282.770854 
L 145.80864 281.97971 
L 146.16576 282.555088 
L 146.52288 282.411243 
L 146.88 283.058543 
L 147.23712 282.770854 
L 147.59424 281.835866 
L 147.95136 282.555088 
L 148.30848 281.907788 
L 148.6656 282.411243 
L 149.02272 282.123555 
L 149.37984 282.770854 
L 149.73696 282.770854 
L 150.09408 282.914698 
L 150.4512 282.267399 
L 150.80832 282.698932 
L 151.16544 282.195477 
L 151.52256 283.130465 
L 151.87968 282.339321 
L 152.2368 283.130465 
L 152.59392 281.97971 
L 152.95104 282.770854 
L 153.30816 283.202387 
L 153.66528 282.62701 
L 154.0224 282.123555 
L 154.37952 282.698932 
L 154.73664 282.411243 
L 155.09376 282.555088 
L 155.45088 282.986621 
L 155.808 282.62701 
L 156.16512 282.770854 
L 156.52224 283.202387 
L 156.87936 282.195477 
L 157.23648 282.62701 
L 157.5936 282.842776 
L 157.95072 282.267399 
L 158.30784 282.914698 
L 158.66496 282.62701 
L 159.02208 282.986621 
L 159.3792 283.274309 
L 159.73632 281.332411 
L 160.09344 282.770854 
L 160.45056 282.267399 
L 160.80768 282.123555 
L 161.1648 282.698932 
L 161.52192 281.97971 
L 161.87904 282.411243 
L 162.23616 281.97971 
L 162.59328 282.555088 
L 162.9504 282.411243 
L 163.30752 282.842776 
L 163.66464 282.483165 
L 164.02176 282.698932 
L 164.37888 282.698932 
L 164.736 282.770854 
L 165.09312 282.770854 
L 165.45024 282.555088 
L 165.80736 282.986621 
L 166.16448 282.770854 
L 166.5216 283.274309 
L 166.87872 282.914698 
L 167.23584 282.555088 
L 167.59296 282.986621 
L 167.95008 282.698932 
L 168.3072 282.62701 
L 168.66432 283.058543 
L 169.02144 283.346231 
L 169.37856 282.770854 
L 169.73568 283.274309 
L 170.0928 283.058543 
L 170.44992 283.274309 
L 170.80704 283.63392 
L 171.16416 282.842776 
L 171.52128 282.842776 
L 171.8784 283.561998 
L 172.23552 282.339321 
L 172.59264 283.849686 
L 172.94976 282.483165 
L 173.30688 282.770854 
L 173.664 283.346231 
L 174.02112 282.986621 
L 174.37824 282.62701 
L 174.73536 282.914698 
L 175.09248 283.130465 
L 175.4496 282.555088 
L 175.80672 282.914698 
L 176.16384 282.555088 
L 176.52096 282.411243 
L 176.87808 282.770854 
L 177.2352 281.548177 
L 177.59232 282.411243 
L 177.94944 282.986621 
L 178.30656 282.770854 
L 178.66368 282.555088 
L 179.0208 282.986621 
L 179.37792 282.483165 
L 179.73504 282.051632 
L 180.09216 282.195477 
L 180.44928 282.483165 
L 180.8064 283.561998 
L 181.16352 282.555088 
L 181.52064 282.62701 
L 181.87776 282.914698 
L 182.23488 282.770854 
L 182.592 282.770854 
L 182.94912 283.705842 
L 183.30624 282.555088 
L 183.66336 283.202387 
L 184.02048 282.267399 
L 184.3776 282.842776 
L 184.73472 283.561998 
L 185.09184 282.555088 
L 185.44896 282.62701 
L 185.80608 283.849686 
L 186.1632 283.130465 
L 186.52032 282.986621 
L 186.87744 282.842776 
L 187.23456 282.411243 
L 187.59168 282.62701 
L 187.9488 282.267399 
L 188.30592 283.490076 
L 188.66304 282.914698 
L 189.02016 283.346231 
L 189.37728 282.914698 
L 189.7344 282.914698 
L 190.09152 284.353142 
L 190.44864 282.62701 
L 190.80576 283.274309 
L 191.16288 283.418154 
L 191.52 282.62701 
L 191.87712 282.555088 
L 192.23424 283.202387 
L 192.59136 283.274309 
L 192.94848 283.849686 
L 193.3056 282.842776 
L 193.66272 282.914698 
L 194.01984 283.202387 
L 194.37696 283.561998 
L 194.73408 283.274309 
L 195.0912 283.63392 
L 195.44832 282.986621 
L 195.80544 283.058543 
L 196.16256 283.561998 
L 196.51968 283.346231 
L 196.8768 283.130465 
L 197.23392 283.202387 
L 197.59104 283.561998 
L 197.94816 283.849686 
L 198.30528 283.058543 
L 198.6624 283.274309 
L 199.01952 283.274309 
L 199.37664 282.986621 
L 199.73376 283.561998 
L 200.09088 283.346231 
L 200.448 283.274309 
L 200.80512 283.490076 
L 201.16224 282.411243 
L 201.51936 283.058543 
L 201.87648 283.921609 
L 202.2336 283.130465 
L 202.59072 283.274309 
L 202.94784 283.130465 
L 203.30496 282.914698 
L 203.66208 282.986621 
L 204.0192 283.130465 
L 204.37632 282.770854 
L 204.73344 283.705842 
L 205.09056 283.849686 
L 205.44768 282.770854 
L 205.8048 283.130465 
L 206.16192 284.137375 
L 206.51904 283.202387 
L 206.87616 283.058543 
L 207.23328 283.490076 
L 207.5904 282.555088 
L 207.94752 283.490076 
L 208.30464 283.202387 
L 208.66176 283.130465 
L 209.01888 283.490076 
L 209.376 283.418154 
L 209.73312 283.346231 
L 210.09024 282.698932 
L 210.44736 283.777764 
L 210.80448 284.065453 
L 211.1616 283.346231 
L 211.51872 283.058543 
L 211.87584 284.065453 
L 212.23296 282.698932 
L 212.59008 284.281219 
L 212.9472 283.993531 
L 213.30432 283.63392 
L 213.66144 283.490076 
L 214.01856 283.705842 
L 214.37568 284.065453 
L 214.7328 283.63392 
L 215.08992 284.64083 
L 215.44704 283.705842 
L 215.80416 283.490076 
L 216.16128 283.849686 
L 216.5184 283.921609 
L 216.87552 283.63392 
L 217.23264 284.065453 
L 217.58976 283.63392 
L 217.94688 284.065453 
L 218.304 283.490076 
L 218.66112 283.058543 
L 219.01824 283.490076 
L 219.37536 283.130465 
L 219.73248 283.346231 
L 220.0896 283.705842 
L 220.44672 283.490076 
L 220.80384 283.993531 
L 221.16096 283.490076 
L 221.51808 283.058543 
L 221.8752 282.914698 
L 222.23232 283.202387 
L 222.58944 283.561998 
L 222.94656 283.418154 
L 223.30368 283.346231 
L 223.6608 283.705842 
L 224.01792 284.353142 
L 224.37504 283.490076 
L 224.73216 283.777764 
L 225.08928 283.849686 
L 225.4464 283.490076 
L 225.80352 283.849686 
L 226.16064 283.63392 
L 226.51776 283.130465 
L 226.87488 283.705842 
L 227.232 282.698932 
L 227.58912 283.561998 
L 227.94624 283.202387 
L 228.30336 283.274309 
L 228.66048 283.490076 
L 229.0176 283.705842 
L 229.37472 283.418154 
L 229.73184 283.202387 
L 230.08896 283.274309 
L 230.44608 283.993531 
L 230.8032 283.130465 
L 231.16032 283.202387 
L 231.51744 282.842776 
L 231.87456 283.418154 
L 232.23168 283.561998 
L 232.5888 283.777764 
L 232.94592 282.914698 
L 233.30304 283.130465 
L 233.66016 283.274309 
L 234.01728 283.346231 
L 234.3744 282.986621 
L 234.73152 283.993531 
L 235.08864 283.130465 
L 235.44576 283.63392 
L 235.80288 283.993531 
L 236.16 282.914698 
L 236.51712 283.849686 
L 236.87424 283.777764 
L 237.23136 283.058543 
L 237.58848 282.698932 
L 237.9456 283.63392 
L 238.30272 282.986621 
L 238.65984 282.770854 
L 239.01696 284.137375 
L 239.37408 282.986621 
L 239.7312 283.993531 
L 240.08832 284.137375 
L 240.44544 283.921609 
L 240.80256 283.777764 
L 241.15968 283.346231 
L 241.5168 283.705842 
L 241.87392 283.849686 
L 242.23104 283.63392 
L 242.58816 284.137375 
L 242.94528 283.63392 
L 243.3024 283.63392 
L 243.65952 282.986621 
L 244.01664 284.496986 
L 244.37376 282.986621 
L 244.73088 283.849686 
L 245.088 283.849686 
L 245.44512 283.490076 
L 245.80224 283.993531 
L 246.15936 283.490076 
L 246.51648 283.490076 
L 246.8736 283.561998 
L 247.23072 283.705842 
L 247.58784 284.209297 
L 247.94496 283.705842 
L 248.30208 283.777764 
L 248.6592 283.490076 
L 249.01632 283.777764 
L 249.37344 284.137375 
L 249.73056 283.63392 
L 250.08768 284.137375 
L 250.4448 283.63392 
L 250.80192 284.64083 
L 251.15904 283.849686 
L 251.51616 284.137375 
L 251.87328 283.418154 
L 252.2304 284.496986 
L 252.58752 284.065453 
L 252.94464 283.274309 
L 253.30176 284.065453 
L 253.65888 283.849686 
L 254.016 284.065453 
L 254.37312 284.209297 
L 254.73024 284.496986 
L 255.08736 283.849686 
L 255.44448 283.346231 
L 255.8016 284.496986 
L 256.15872 283.490076 
L 256.51584 284.425064 
L 256.87296 283.63392 
L 257.23008 283.63392 
L 257.5872 283.921609 
L 257.94432 283.561998 
L 258.30144 283.849686 
L 258.65856 283.705842 
L 259.01568 283.921609 
L 259.3728 284.209297 
L 259.72992 283.921609 
L 260.08704 283.490076 
L 260.44416 283.274309 
L 260.80128 284.568908 
L 261.1584 283.849686 
L 261.51552 284.784675 
L 261.87264 283.921609 
L 262.22976 283.993531 
L 262.58688 283.705842 
L 262.944 283.849686 
L 263.30112 284.137375 
L 263.65824 283.921609 
L 264.01536 284.496986 
L 264.37248 283.418154 
L 264.7296 283.274309 
L 265.08672 283.777764 
L 265.44384 284.137375 
L 265.80096 283.058543 
L 266.15808 283.346231 
L 266.5152 283.561998 
L 266.87232 283.777764 
L 267.22944 283.418154 
L 267.58656 283.63392 
L 267.94368 283.921609 
L 268.3008 283.561998 
L 268.65792 283.993531 
L 269.01504 283.921609 
L 269.37216 283.130465 
L 269.72928 283.561998 
L 270.0864 283.993531 
L 270.44352 283.921609 
L 270.80064 283.490076 
L 271.15776 283.561998 
L 271.51488 283.346231 
L 271.872 284.065453 
L 272.22912 283.993531 
L 272.58624 283.561998 
L 272.94336 283.490076 
L 273.30048 284.137375 
L 273.6576 283.274309 
L 274.01472 283.561998 
L 274.37184 283.346231 
L 274.72896 283.849686 
L 275.08608 284.137375 
L 275.4432 283.849686 
L 275.80032 284.209297 
L 276.15744 282.914698 
L 276.51456 283.561998 
L 276.87168 283.346231 
L 277.2288 283.993531 
L 277.58592 282.842776 
L 277.94304 283.418154 
L 278.30016 283.490076 
L 278.65728 283.63392 
L 279.0144 282.986621 
L 279.37152 284.281219 
L 279.72864 283.202387 
L 280.08576 283.777764 
L 280.44288 283.849686 
L 280.8 283.490076 
L 281.15712 283.490076 
L 281.51424 284.281219 
L 281.87136 283.058543 
L 282.22848 284.137375 
L 282.5856 283.63392 
L 282.94272 283.561998 
L 283.29984 283.561998 
L 283.65696 283.777764 
L 284.01408 283.777764 
L 284.3712 283.418154 
L 284.72832 283.705842 
L 285.08544 284.065453 
L 285.44256 283.346231 
L 285.79968 282.914698 
L 286.1568 283.63392 
L 286.51392 283.418154 
L 286.87104 283.849686 
L 287.22816 283.705842 
L 287.58528 283.63392 
L 287.9424 284.065453 
L 288.29952 283.63392 
L 288.65664 283.63392 
L 289.01376 283.490076 
L 289.37088 283.561998 
L 289.728 283.63392 
L 290.08512 283.849686 
L 290.44224 283.921609 
L 290.79936 283.274309 
L 291.15648 282.986621 
L 291.5136 282.986621 
L 291.87072 283.561998 
L 292.22784 283.490076 
L 292.58496 282.986621 
L 292.94208 283.346231 
L 293.2992 283.490076 
L 293.65632 283.418154 
L 294.01344 283.058543 
L 294.37056 283.058543 
L 294.72768 283.561998 
L 295.0848 283.274309 
L 295.44192 283.490076 
L 295.79904 283.202387 
L 296.15616 283.130465 
L 296.51328 282.986621 
L 296.8704 284.065453 
L 297.22752 283.274309 
L 297.58464 282.267399 
L 297.94176 283.202387 
L 298.29888 283.130465 
L 298.656 283.346231 
L 299.01312 282.62701 
L 299.37024 282.770854 
L 299.72736 283.490076 
L 300.08448 283.561998 
L 300.4416 282.770854 
L 300.79872 282.483165 
L 301.15584 282.986621 
L 301.51296 283.346231 
L 301.87008 283.63392 
L 302.2272 282.62701 
L 302.58432 283.274309 
L 302.94144 283.058543 
L 303.29856 284.209297 
L 303.65568 283.130465 
L 304.0128 282.986621 
L 304.36992 282.914698 
L 304.72704 283.058543 
L 305.08416 283.418154 
L 305.44128 283.202387 
L 305.7984 282.698932 
L 306.15552 283.130465 
L 306.51264 283.346231 
L 306.86976 282.842776 
L 307.22688 282.555088 
L 307.584 283.63392 
L 307.94112 282.842776 
L 308.29824 283.705842 
L 308.65536 283.561998 
L 309.01248 283.130465 
L 309.3696 283.561998 
L 309.72672 281.97971 
L 310.08384 283.058543 
L 310.44096 283.921609 
L 310.79808 283.058543 
L 311.1552 283.63392 
L 311.51232 283.490076 
L 311.86944 284.065453 
L 312.22656 284.137375 
L 312.58368 284.64083 
L 312.9408 283.418154 
L 313.29792 283.346231 
L 313.65504 283.849686 
L 314.01216 283.777764 
L 314.36928 283.058543 
L 314.7264 283.849686 
L 315.08352 283.130465 
L 315.44064 282.986621 
L 315.79776 284.209297 
L 316.15488 283.63392 
L 316.512 283.705842 
L 316.86912 283.705842 
L 317.22624 283.777764 
L 317.58336 283.130465 
L 317.94048 283.346231 
L 318.2976 283.561998 
L 318.65472 283.130465 
L 319.01184 283.274309 
L 319.36896 284.137375 
L 319.72608 284.137375 
L 320.0832 282.698932 
L 320.44032 283.561998 
L 320.79744 283.418154 
L 321.15456 283.705842 
L 321.51168 283.346231 
L 321.8688 283.63392 
L 322.22592 283.849686 
L 322.58304 282.914698 
L 322.94016 283.274309 
L 323.29728 284.137375 
L 323.6544 282.986621 
L 324.01152 283.346231 
L 324.36864 283.777764 
L 324.72576 283.346231 
L 325.08288 283.058543 
L 325.44 283.490076 
L 325.79712 283.274309 
L 326.15424 283.777764 
L 326.51136 283.777764 
L 326.86848 283.63392 
L 327.2256 283.130465 
L 327.58272 283.63392 
L 327.93984 284.065453 
L 328.29696 283.274309 
L 328.65408 283.490076 
L 329.0112 283.418154 
L 329.36832 284.065453 
L 329.72544 283.490076 
L 330.08256 283.418154 
L 330.43968 283.561998 
L 330.7968 283.993531 
L 331.15392 283.274309 
L 331.51104 283.490076 
L 331.86816 283.63392 
L 332.22528 283.993531 
L 332.5824 284.856597 
L 332.93952 283.849686 
L 333.29664 283.705842 
L 333.65376 282.483165 
L 334.01088 283.346231 
L 334.368 283.993531 
L 334.72512 284.065453 
L 335.08224 283.705842 
L 335.43936 283.418154 
L 335.79648 283.849686 
L 336.1536 284.065453 
L 336.51072 283.921609 
L 336.86784 283.274309 
L 337.22496 283.63392 
L 337.58208 283.561998 
L 337.9392 284.137375 
L 338.29632 283.561998 
L 338.65344 283.561998 
L 339.01056 283.418154 
L 339.36768 284.281219 
L 339.7248 283.202387 
L 340.08192 283.418154 
L 340.43904 283.921609 
L 340.79616 283.490076 
L 341.15328 283.777764 
L 341.5104 283.561998 
L 341.86752 283.058543 
L 342.22464 283.561998 
L 342.58176 282.914698 
L 342.93888 283.705842 
L 343.296 283.63392 
L 343.65312 283.418154 
L 344.01024 283.63392 
L 344.36736 283.202387 
L 344.72448 283.705842 
L 345.0816 282.986621 
L 345.43872 283.490076 
L 345.79584 283.346231 
L 346.15296 282.914698 
L 346.51008 283.921609 
L 346.8672 283.346231 
L 347.22432 283.63392 
L 347.58144 283.705842 
L 347.93856 282.62701 
L 348.29568 282.842776 
L 348.6528 283.130465 
L 349.00992 283.777764 
L 349.36704 283.418154 
L 349.72416 283.346231 
L 350.08128 283.849686 
L 350.4384 283.346231 
L 350.79552 283.777764 
L 351.15264 282.842776 
L 351.50976 283.346231 
L 351.86688 283.63392 
L 352.224 283.130465 
L 352.58112 282.914698 
L 352.93824 283.705842 
L 353.29536 283.130465 
L 353.65248 282.914698 
L 354.0096 283.346231 
L 354.36672 283.921609 
L 354.72384 283.058543 
L 355.08096 283.058543 
L 355.43808 283.63392 
L 355.7952 283.058543 
L 356.15232 282.698932 
L 356.50944 283.058543 
L 356.86656 283.705842 
L 357.22368 282.770854 
L 357.5808 283.418154 
L 357.93792 283.561998 
L 358.29504 283.63392 
L 358.65216 283.202387 
L 359.00928 282.698932 
L 359.3664 283.346231 
L 359.72352 283.130465 
L 360.08064 282.555088 
L 360.43776 283.561998 
L 360.79488 284.065453 
L 361.152 283.202387 
L 361.50912 282.842776 
L 361.86624 282.842776 
L 362.22336 283.418154 
L 362.58048 282.842776 
L 362.9376 283.202387 
L 363.29472 283.202387 
L 363.65184 283.418154 
L 364.00896 283.202387 
L 364.36608 283.346231 
L 364.7232 283.63392 
L 365.08032 283.490076 
L 365.43744 282.267399 
L 365.79456 282.770854 
L 366.15168 283.202387 
L 366.5088 283.202387 
L 366.86592 283.63392 
L 367.22304 283.058543 
L 367.58016 283.346231 
L 367.93728 283.993531 
L 368.2944 283.418154 
L 368.65152 282.483165 
L 369.00864 282.914698 
L 369.36576 282.842776 
L 369.72288 283.202387 
L 370.08 283.490076 
L 370.43712 283.346231 
L 370.79424 283.130465 
L 371.15136 283.202387 
L 371.50848 283.202387 
L 371.8656 282.914698 
L 372.22272 283.058543 
L 372.57984 283.274309 
L 372.93696 282.842776 
L 373.29408 282.914698 
L 373.6512 283.130465 
L 374.00832 283.705842 
L 374.36544 282.914698 
L 374.72256 282.698932 
L 375.07968 282.62701 
L 375.4368 283.058543 
L 375.79392 283.561998 
L 376.15104 282.842776 
L 376.50816 282.698932 
L 376.86528 282.842776 
L 377.2224 283.058543 
L 377.57952 282.986621 
L 377.93664 282.770854 
L 378.29376 283.346231 
L 378.65088 283.777764 
L 379.008 282.914698 
L 379.36512 282.267399 
L 379.72224 283.274309 
L 380.07936 283.705842 
L 380.43648 283.202387 
L 380.7936 282.842776 
L 381.15072 282.986621 
L 381.50784 283.418154 
L 381.86496 282.698932 
L 382.22208 283.058543 
L 382.5792 282.842776 
L 382.93632 283.63392 
L 383.29344 282.914698 
L 383.65056 282.986621 
L 384.00768 283.418154 
L 384.3648 283.346231 
L 384.72192 283.346231 
L 385.07904 282.555088 
L 385.43616 282.770854 
L 385.79328 282.986621 
L 386.1504 283.490076 
L 386.50752 283.849686 
L 386.86464 283.63392 
L 387.22176 283.418154 
L 387.57888 283.561998 
L 387.936 283.346231 
L 388.29312 283.346231 
L 388.65024 282.770854 
L 389.00736 283.202387 
L 389.36448 283.346231 
L 389.7216 283.490076 
L 390.07872 283.490076 
L 390.43584 283.274309 
L 390.79296 283.274309 
L 391.15008 283.561998 
L 391.5072 282.914698 
L 391.86432 283.63392 
L 392.22144 283.777764 
L 392.57856 283.346231 
L 392.93568 282.483165 
L 393.2928 283.274309 
L 393.64992 283.63392 
L 394.00704 283.274309 
L 394.36416 283.346231 
L 394.72128 283.418154 
L 395.0784 283.274309 
L 395.43552 283.202387 
L 395.79264 283.849686 
L 396.14976 283.418154 
L 396.50688 283.346231 
L 396.864 283.274309 
L 397.22112 283.130465 
L 397.57824 283.274309 
L 397.93536 282.842776 
L 398.29248 283.058543 
L 398.6496 283.346231 
L 399.00672 283.130465 
L 399.36384 283.849686 
L 399.72096 283.490076 
L 400.07808 283.346231 
L 400.4352 283.63392 
L 400.79232 283.993531 
L 401.14944 283.561998 
L 401.50656 283.274309 
L 401.86368 283.130465 
L 402.2208 283.130465 
L 402.57792 282.62701 
L 402.93504 283.274309 
L 403.29216 283.202387 
L 403.64928 283.058543 
L 404.0064 283.058543 
L 404.36352 283.490076 
L 404.72064 283.63392 
L 405.07776 283.058543 
L 405.43488 283.202387 
L 405.792 282.411243 
L 406.14912 283.130465 
L 406.50624 283.058543 
L 406.86336 283.849686 
L 407.22048 283.274309 
L 407.5776 283.130465 
L 407.93472 283.274309 
L 408.29184 283.63392 
L 408.64896 283.561998 
L 409.00608 283.274309 
L 409.3632 282.914698 
L 409.72032 282.842776 
L 410.07744 283.058543 
L 410.43456 283.058543 
L 410.79168 283.63392 
L 411.1488 282.555088 
L 411.50592 283.130465 
L 411.86304 283.346231 
L 412.22016 283.777764 
L 412.57728 283.490076 
L 412.9344 283.561998 
L 413.29152 283.490076 
L 413.64864 282.986621 
L 414.00576 283.490076 
L 414.36288 282.914698 
L 414.72 283.274309 
L 414.72 282.051632 
L 414.72 282.051632 
L 414.36288 281.260489 
L 414.00576 282.267399 
L 413.64864 281.548177 
L 413.29152 282.123555 
L 412.9344 281.548177 
L 412.57728 281.188566 
L 412.22016 281.404333 
L 411.86304 281.620099 
L 411.50592 281.476255 
L 411.1488 281.188566 
L 410.79168 282.411243 
L 410.43456 281.332411 
L 410.07744 282.698932 
L 409.72032 281.692022 
L 409.3632 281.835866 
L 409.00608 282.339321 
L 408.64896 281.404333 
L 408.29184 281.620099 
L 407.93472 282.411243 
L 407.5776 280.900878 
L 407.22048 282.123555 
L 406.86336 281.97971 
L 406.50624 281.835866 
L 406.14912 281.763944 
L 405.792 281.332411 
L 405.43488 281.332411 
L 405.07776 282.195477 
L 404.72064 282.267399 
L 404.36352 282.195477 
L 404.0064 281.620099 
L 403.64928 281.260489 
L 403.29216 281.404333 
L 402.93504 282.123555 
L 402.57792 280.757034 
L 402.2208 281.260489 
L 401.86368 281.907788 
L 401.50656 281.548177 
L 401.14944 281.044722 
L 400.79232 281.620099 
L 400.4352 281.835866 
L 400.07808 280.325501 
L 399.72096 281.692022 
L 399.36384 280.541267 
L 399.00672 281.404333 
L 398.6496 281.116644 
L 398.29248 281.835866 
L 397.93536 281.116644 
L 397.57824 281.404333 
L 397.22112 282.62701 
L 396.864 281.835866 
L 396.50688 281.332411 
L 396.14976 281.620099 
L 395.79264 279.678201 
L 395.43552 281.332411 
L 395.0784 281.260489 
L 394.72128 281.404333 
L 394.36416 280.541267 
L 394.00704 280.9728 
L 393.64992 282.267399 
L 393.2928 281.907788 
L 392.93568 280.757034 
L 392.57856 281.835866 
L 392.22144 281.404333 
L 391.86432 280.469345 
L 391.5072 281.044722 
L 391.15008 281.476255 
L 390.79296 280.469345 
L 390.43584 281.404333 
L 390.07872 281.692022 
L 389.7216 282.411243 
L 389.36448 280.325501 
L 389.00736 281.835866 
L 388.65024 281.332411 
L 388.29312 281.332411 
L 387.936 281.763944 
L 387.57888 281.763944 
L 387.22176 281.620099 
L 386.86464 282.051632 
L 386.50752 281.692022 
L 386.1504 282.195477 
L 385.79328 281.97971 
L 385.43616 281.476255 
L 385.07904 280.828956 
L 384.72192 281.620099 
L 384.3648 281.620099 
L 384.00768 281.763944 
L 383.65056 280.9728 
L 383.29344 281.260489 
L 382.93632 281.260489 
L 382.5792 281.476255 
L 382.22208 280.541267 
L 381.86496 281.97971 
L 381.50784 281.260489 
L 381.15072 281.548177 
L 380.7936 281.404333 
L 380.43648 281.548177 
L 380.07936 282.698932 
L 379.72224 280.541267 
L 379.36512 281.332411 
L 379.008 281.763944 
L 378.65088 281.188566 
L 378.29376 281.332411 
L 377.93664 281.332411 
L 377.57952 281.620099 
L 377.2224 280.757034 
L 376.86528 280.613189 
L 376.50816 281.476255 
L 376.15104 281.260489 
L 375.79392 280.613189 
L 375.4368 281.548177 
L 375.07968 281.692022 
L 374.72256 280.900878 
L 374.36544 280.181656 
L 374.00832 280.541267 
L 373.6512 282.195477 
L 373.29408 281.188566 
L 372.93696 281.116644 
L 372.57984 281.116644 
L 372.22272 282.267399 
L 371.8656 281.260489 
L 371.50848 282.051632 
L 371.15136 281.907788 
L 370.79424 281.907788 
L 370.43712 282.051632 
L 370.08 280.757034 
L 369.72288 281.404333 
L 369.36576 281.404333 
L 369.00864 280.613189 
L 368.65152 281.260489 
L 368.2944 281.907788 
L 367.93728 282.195477 
L 367.58016 281.907788 
L 367.22304 282.483165 
L 366.86592 281.835866 
L 366.5088 280.9728 
L 366.15168 281.332411 
L 365.79456 281.188566 
L 365.43744 281.260489 
L 365.08032 281.260489 
L 364.7232 282.195477 
L 364.36608 280.900878 
L 364.00896 281.835866 
L 363.65184 281.835866 
L 363.29472 281.835866 
L 362.9376 281.907788 
L 362.58048 282.339321 
L 362.22336 282.339321 
L 361.86624 281.548177 
L 361.50912 281.835866 
L 361.152 282.267399 
L 360.79488 281.188566 
L 360.43776 281.907788 
L 360.08064 281.97971 
L 359.72352 281.835866 
L 359.3664 282.339321 
L 359.00928 282.051632 
L 358.65216 281.620099 
L 358.29504 281.332411 
L 357.93792 281.907788 
L 357.5808 281.97971 
L 357.22368 281.044722 
L 356.86656 282.555088 
L 356.50944 282.339321 
L 356.15232 280.9728 
L 355.7952 282.123555 
L 355.43808 281.476255 
L 355.08096 282.123555 
L 354.72384 282.411243 
L 354.36672 282.483165 
L 354.0096 282.195477 
L 353.65248 282.123555 
L 353.29536 281.763944 
L 352.93824 280.828956 
L 352.58112 281.907788 
L 352.224 282.123555 
L 351.86688 282.195477 
L 351.50976 281.907788 
L 351.15264 280.685111 
L 350.79552 281.835866 
L 350.4384 282.267399 
L 350.08128 282.267399 
L 349.72416 281.188566 
L 349.36704 281.260489 
L 349.00992 281.763944 
L 348.6528 281.835866 
L 348.29568 281.835866 
L 347.93856 281.692022 
L 347.58144 282.339321 
L 347.22432 281.692022 
L 346.8672 281.260489 
L 346.51008 281.620099 
L 346.15296 282.195477 
L 345.79584 281.404333 
L 345.43872 282.339321 
L 345.0816 282.195477 
L 344.72448 281.692022 
L 344.36736 281.044722 
L 344.01024 282.195477 
L 343.65312 281.404333 
L 343.296 281.332411 
L 342.93888 282.195477 
L 342.58176 282.123555 
L 342.22464 281.692022 
L 341.86752 281.692022 
L 341.5104 281.692022 
L 341.15328 281.97971 
L 340.79616 281.97971 
L 340.43904 282.62701 
L 340.08192 282.483165 
L 339.7248 281.404333 
L 339.36768 281.97971 
L 339.01056 282.195477 
L 338.65344 281.620099 
L 338.29632 281.907788 
L 337.9392 282.267399 
L 337.58208 281.404333 
L 337.22496 281.97971 
L 336.86784 281.763944 
L 336.51072 280.9728 
L 336.1536 281.548177 
L 335.79648 282.770854 
L 335.43936 282.195477 
L 335.08224 282.195477 
L 334.72512 281.620099 
L 334.368 281.97971 
L 334.01088 281.97971 
L 333.65376 281.907788 
L 333.29664 282.770854 
L 332.93952 282.483165 
L 332.5824 281.907788 
L 332.22528 282.195477 
L 331.86816 281.548177 
L 331.51104 282.339321 
L 331.15392 282.411243 
L 330.7968 282.051632 
L 330.43968 282.411243 
L 330.08256 282.051632 
L 329.72544 281.907788 
L 329.36832 281.835866 
L 329.0112 282.051632 
L 328.65408 282.483165 
L 328.29696 281.620099 
L 327.93984 281.188566 
L 327.58272 281.835866 
L 327.2256 281.044722 
L 326.86848 282.123555 
L 326.51136 282.411243 
L 326.15424 282.411243 
L 325.79712 281.260489 
L 325.44 282.123555 
L 325.08288 281.548177 
L 324.72576 281.332411 
L 324.36864 281.97971 
L 324.01152 282.195477 
L 323.6544 282.411243 
L 323.29728 281.404333 
L 322.94016 282.411243 
L 322.58304 281.188566 
L 322.22592 282.339321 
L 321.8688 281.97971 
L 321.51168 281.404333 
L 321.15456 280.757034 
L 320.79744 281.548177 
L 320.44032 280.181656 
L 320.0832 281.907788 
L 319.72608 280.469345 
L 319.36896 281.835866 
L 319.01184 281.620099 
L 318.65472 282.698932 
L 318.2976 280.757034 
L 317.94048 281.835866 
L 317.58336 282.411243 
L 317.22624 279.750123 
L 316.86912 280.900878 
L 316.512 280.685111 
L 316.15488 281.97971 
L 315.79776 280.397423 
L 315.44064 281.476255 
L 315.08352 281.548177 
L 314.7264 280.037812 
L 314.36928 279.96589 
L 314.01216 280.469345 
L 313.65504 280.613189 
L 313.29792 281.260489 
L 312.9408 280.900878 
L 312.58368 281.044722 
L 312.22656 280.541267 
L 311.86944 281.332411 
L 311.51232 281.332411 
L 311.1552 280.828956 
L 310.79808 280.037812 
L 310.44096 280.037812 
L 310.08384 281.763944 
L 309.72672 280.828956 
L 309.3696 279.96589 
L 309.01248 281.332411 
L 308.65536 280.469345 
L 308.29824 280.685111 
L 307.94112 280.9728 
L 307.584 281.476255 
L 307.22688 280.325501 
L 306.86976 280.469345 
L 306.51264 280.685111 
L 306.15552 281.332411 
L 305.7984 280.469345 
L 305.44128 280.9728 
L 305.08416 280.541267 
L 304.72704 281.188566 
L 304.36992 280.469345 
L 304.0128 281.260489 
L 303.65568 280.325501 
L 303.29856 279.678201 
L 302.94144 280.541267 
L 302.58432 280.181656 
L 302.2272 280.613189 
L 301.87008 281.763944 
L 301.51296 280.109734 
L 301.15584 280.253578 
L 300.79872 279.822045 
L 300.4416 281.116644 
L 300.08448 280.541267 
L 299.72736 281.188566 
L 299.37024 280.685111 
L 299.01312 281.116644 
L 298.656 281.260489 
L 298.29888 280.397423 
L 297.94176 280.757034 
L 297.58464 280.397423 
L 297.22752 280.9728 
L 296.8704 281.620099 
L 296.51328 281.260489 
L 296.15616 280.9728 
L 295.79904 281.116644 
L 295.44192 280.397423 
L 295.0848 281.188566 
L 294.72768 281.404333 
L 294.37056 282.411243 
L 294.01344 281.404333 
L 293.65632 281.116644 
L 293.2992 281.763944 
L 292.94208 280.828956 
L 292.58496 281.116644 
L 292.22784 281.044722 
L 291.87072 282.411243 
L 291.5136 280.9728 
L 291.15648 281.260489 
L 290.79936 281.476255 
L 290.44224 280.541267 
L 290.08512 281.835866 
L 289.728 282.267399 
L 289.37088 281.692022 
L 289.01376 281.548177 
L 288.65664 281.404333 
L 288.29952 281.404333 
L 287.9424 280.685111 
L 287.58528 280.613189 
L 287.22816 281.692022 
L 286.87104 280.900878 
L 286.51392 281.548177 
L 286.1568 280.9728 
L 285.79968 282.411243 
L 285.44256 281.692022 
L 285.08544 280.828956 
L 284.72832 281.835866 
L 284.3712 282.051632 
L 284.01408 280.541267 
L 283.65696 280.181656 
L 283.29984 280.469345 
L 282.94272 281.835866 
L 282.5856 279.31859 
L 282.22848 280.9728 
L 281.87136 280.253578 
L 281.51424 280.9728 
L 281.15712 281.404333 
L 280.8 279.893968 
L 280.44288 280.469345 
L 280.08576 281.692022 
L 279.72864 280.828956 
L 279.37152 281.116644 
L 279.0144 279.96589 
L 278.65728 280.469345 
L 278.30016 280.469345 
L 277.94304 280.037812 
L 277.58592 278.671291 
L 277.2288 280.685111 
L 276.87168 280.253578 
L 276.51456 280.541267 
L 276.15744 279.606279 
L 275.80032 280.037812 
L 275.4432 279.678201 
L 275.08608 280.181656 
L 274.72896 280.685111 
L 274.37184 279.893968 
L 274.01472 279.462435 
L 273.6576 280.037812 
L 273.30048 280.685111 
L 272.94336 279.606279 
L 272.58624 279.390512 
L 272.22912 280.325501 
L 271.872 280.828956 
L 271.51488 280.9728 
L 271.15776 281.116644 
L 270.80064 281.188566 
L 270.44352 281.044722 
L 270.0864 280.037812 
L 269.72928 280.469345 
L 269.37216 280.325501 
L 269.01504 281.044722 
L 268.65792 279.822045 
L 268.3008 279.606279 
L 267.94368 280.325501 
L 267.58656 279.534357 
L 267.22944 279.606279 
L 266.87232 280.253578 
L 266.5152 279.96589 
L 266.15808 281.332411 
L 265.80096 281.188566 
L 265.44384 281.044722 
L 265.08672 280.109734 
L 264.7296 279.246668 
L 264.37248 280.541267 
L 264.01536 281.332411 
L 263.65824 281.260489 
L 263.30112 281.620099 
L 262.944 280.181656 
L 262.58688 281.332411 
L 262.22976 281.188566 
L 261.87264 280.757034 
L 261.51552 281.044722 
L 261.1584 279.750123 
L 260.80128 279.174746 
L 260.44416 281.044722 
L 260.08704 280.469345 
L 259.72992 280.397423 
L 259.3728 280.541267 
L 259.01568 280.613189 
L 258.65856 281.116644 
L 258.30144 280.828956 
L 257.94432 280.9728 
L 257.5872 280.757034 
L 257.23008 280.900878 
L 256.87296 281.188566 
L 256.51584 280.037812 
L 256.15872 280.181656 
L 255.8016 281.907788 
L 255.44448 281.044722 
L 255.08736 280.757034 
L 254.73024 280.685111 
L 254.37312 281.620099 
L 254.016 282.267399 
L 253.65888 281.620099 
L 253.30176 281.835866 
L 252.94464 280.9728 
L 252.58752 281.835866 
L 252.2304 281.620099 
L 251.87328 282.411243 
L 251.51616 281.907788 
L 251.15904 282.123555 
L 250.80192 282.123555 
L 250.4448 282.123555 
L 250.08768 282.267399 
L 249.73056 281.476255 
L 249.37344 282.986621 
L 249.01632 281.620099 
L 248.6592 280.828956 
L 248.30208 281.97971 
L 247.94496 281.97971 
L 247.58784 281.548177 
L 247.23072 281.835866 
L 246.8736 281.763944 
L 246.51648 281.97971 
L 246.15936 281.97971 
L 245.80224 282.483165 
L 245.44512 281.692022 
L 245.088 281.116644 
L 244.73088 282.842776 
L 244.37376 281.332411 
L 244.01664 282.483165 
L 243.65952 281.692022 
L 243.3024 281.548177 
L 242.94528 281.620099 
L 242.58816 281.835866 
L 242.23104 281.907788 
L 241.87392 282.123555 
L 241.5168 281.907788 
L 241.15968 281.548177 
L 240.80256 281.835866 
L 240.44544 281.548177 
L 240.08832 282.123555 
L 239.7312 281.835866 
L 239.37408 281.044722 
L 239.01696 280.685111 
L 238.65984 281.332411 
L 238.30272 281.835866 
L 237.9456 281.907788 
L 237.58848 281.692022 
L 237.23136 281.260489 
L 236.87424 282.842776 
L 236.51712 282.411243 
L 236.16 281.835866 
L 235.80288 281.907788 
L 235.44576 281.97971 
L 235.08864 281.548177 
L 234.73152 282.051632 
L 234.3744 281.835866 
L 234.01728 282.195477 
L 233.66016 281.907788 
L 233.30304 281.332411 
L 232.94592 282.195477 
L 232.5888 281.763944 
L 232.23168 282.123555 
L 231.87456 282.483165 
L 231.51744 281.835866 
L 231.16032 282.051632 
L 230.8032 282.411243 
L 230.44608 283.058543 
L 230.08896 281.044722 
L 229.73184 281.835866 
L 229.37472 282.698932 
L 229.0176 281.188566 
L 228.66048 281.692022 
L 228.30336 281.763944 
L 227.94624 282.195477 
L 227.58912 281.763944 
L 227.232 281.97971 
L 226.87488 282.051632 
L 226.51776 281.692022 
L 226.16064 281.476255 
L 225.80352 282.267399 
L 225.4464 281.907788 
L 225.08928 281.332411 
L 224.73216 282.62701 
L 224.37504 281.97971 
L 224.01792 281.116644 
L 223.6608 281.476255 
L 223.30368 280.253578 
L 222.94656 281.763944 
L 222.58944 281.404333 
L 222.23232 281.907788 
L 221.8752 282.051632 
L 221.51808 281.116644 
L 221.16096 281.260489 
L 220.80384 280.9728 
L 220.44672 282.267399 
L 220.0896 282.123555 
L 219.73248 281.548177 
L 219.37536 282.195477 
L 219.01824 280.757034 
L 218.66112 280.900878 
L 218.304 281.692022 
L 217.94688 280.900878 
L 217.58976 281.692022 
L 217.23264 281.620099 
L 216.87552 280.613189 
L 216.5184 281.260489 
L 216.16128 281.620099 
L 215.80416 281.332411 
L 215.44704 280.541267 
L 215.08992 282.051632 
L 214.7328 282.051632 
L 214.37568 281.116644 
L 214.01856 280.541267 
L 213.66144 280.181656 
L 213.30432 281.044722 
L 212.9472 281.476255 
L 212.59008 281.620099 
L 212.23296 281.548177 
L 211.87584 281.692022 
L 211.51872 281.332411 
L 211.1616 280.181656 
L 210.80448 280.685111 
L 210.44736 282.051632 
L 210.09024 280.757034 
L 209.73312 281.404333 
L 209.376 280.397423 
L 209.01888 280.181656 
L 208.66176 280.757034 
L 208.30464 281.692022 
L 207.94752 281.404333 
L 207.5904 280.9728 
L 207.23328 281.476255 
L 206.87616 280.109734 
L 206.51904 280.397423 
L 206.16192 280.828956 
L 205.8048 279.822045 
L 205.44768 281.692022 
L 205.09056 280.9728 
L 204.73344 279.822045 
L 204.37632 281.692022 
L 204.0192 280.828956 
L 203.66208 281.044722 
L 203.30496 280.757034 
L 202.94784 280.9728 
L 202.59072 281.044722 
L 202.2336 280.900878 
L 201.87648 281.260489 
L 201.51936 281.332411 
L 201.16224 280.828956 
L 200.80512 280.757034 
L 200.448 281.763944 
L 200.09088 280.9728 
L 199.73376 280.109734 
L 199.37664 281.692022 
L 199.01952 281.116644 
L 198.6624 281.404333 
L 198.30528 280.9728 
L 197.94816 281.404333 
L 197.59104 281.116644 
L 197.23392 281.404333 
L 196.8768 281.763944 
L 196.51968 281.476255 
L 196.16256 281.044722 
L 195.80544 281.620099 
L 195.44832 281.476255 
L 195.0912 281.476255 
L 194.73408 281.97971 
L 194.37696 281.188566 
L 194.01984 280.109734 
L 193.66272 280.325501 
L 193.3056 281.116644 
L 192.94848 280.613189 
L 192.59136 281.188566 
L 192.23424 281.835866 
L 191.87712 281.116644 
L 191.52 281.907788 
L 191.16288 281.188566 
L 190.80576 280.9728 
L 190.44864 280.9728 
L 190.09152 280.397423 
L 189.7344 281.404333 
L 189.37728 280.109734 
L 189.02016 281.116644 
L 188.66304 280.9728 
L 188.30592 280.613189 
L 187.9488 280.325501 
L 187.59168 281.692022 
L 187.23456 281.692022 
L 186.87744 280.613189 
L 186.52032 280.900878 
L 186.1632 280.613189 
L 185.80608 280.828956 
L 185.44896 280.253578 
L 185.09184 280.325501 
L 184.73472 280.828956 
L 184.3776 279.606279 
L 184.02048 280.685111 
L 183.66336 280.9728 
L 183.30624 280.037812 
L 182.94912 281.620099 
L 182.592 280.037812 
L 182.23488 280.613189 
L 181.87776 280.828956 
L 181.52064 280.613189 
L 181.16352 279.750123 
L 180.8064 280.9728 
L 180.44928 279.822045 
L 180.09216 280.109734 
L 179.73504 280.253578 
L 179.37792 280.828956 
L 179.0208 281.044722 
L 178.66368 280.037812 
L 178.30656 281.476255 
L 177.94944 280.757034 
L 177.59232 280.469345 
L 177.2352 279.893968 
L 176.87808 281.116644 
L 176.52096 280.397423 
L 176.16384 279.893968 
L 175.80672 279.822045 
L 175.4496 280.253578 
L 175.09248 279.822045 
L 174.73536 281.116644 
L 174.37824 280.253578 
L 174.02112 279.678201 
L 173.664 280.253578 
L 173.30688 281.044722 
L 172.94976 280.469345 
L 172.59264 280.181656 
L 172.23552 279.893968 
L 171.8784 280.900878 
L 171.52128 280.900878 
L 171.16416 280.613189 
L 170.80704 278.743213 
L 170.44992 280.685111 
L 170.0928 280.037812 
L 169.73568 280.397423 
L 169.37856 281.044722 
L 169.02144 280.613189 
L 168.66432 280.469345 
L 168.3072 280.900878 
L 167.95008 280.469345 
L 167.59296 280.541267 
L 167.23584 280.613189 
L 166.87872 279.534357 
L 166.5216 280.541267 
L 166.16448 279.246668 
L 165.80736 280.900878 
L 165.45024 279.678201 
L 165.09312 279.893968 
L 164.736 280.397423 
L 164.37888 281.548177 
L 164.02176 280.037812 
L 163.66464 280.253578 
L 163.30752 280.900878 
L 162.9504 279.102824 
L 162.59328 280.325501 
L 162.23616 281.116644 
L 161.87904 280.541267 
L 161.52192 280.685111 
L 161.1648 280.685111 
L 160.80768 280.253578 
L 160.45056 279.822045 
L 160.09344 280.037812 
L 159.73632 280.037812 
L 159.3792 280.828956 
L 159.02208 281.260489 
L 158.66496 281.907788 
L 158.30784 280.9728 
L 157.95072 279.678201 
L 157.5936 280.613189 
L 157.23648 279.534357 
L 156.87936 280.469345 
L 156.52224 280.037812 
L 156.16512 281.476255 
L 155.808 280.685111 
L 155.45088 281.692022 
L 155.09376 279.893968 
L 154.73664 280.541267 
L 154.37952 281.332411 
L 154.0224 280.9728 
L 153.66528 280.900878 
L 153.30816 280.613189 
L 152.95104 280.9728 
L 152.59392 280.757034 
L 152.2368 281.260489 
L 151.87968 280.757034 
L 151.52256 280.397423 
L 151.16544 280.541267 
L 150.80832 280.253578 
L 150.4512 280.181656 
L 150.09408 281.404333 
L 149.73696 281.763944 
L 149.37984 280.181656 
L 149.02272 279.534357 
L 148.6656 281.476255 
L 148.30848 280.181656 
L 147.95136 280.685111 
L 147.59424 280.9728 
L 147.23712 280.253578 
L 146.88 281.548177 
L 146.52288 281.044722 
L 146.16576 280.900878 
L 145.80864 281.260489 
L 145.45152 281.260489 
L 145.0944 280.325501 
L 144.73728 279.606279 
L 144.38016 281.116644 
L 144.02304 279.102824 
L 143.66592 281.404333 
L 143.3088 280.109734 
L 142.95168 280.469345 
L 142.59456 281.044722 
L 142.23744 280.397423 
L 141.88032 280.9728 
L 141.5232 280.325501 
L 141.16608 281.116644 
L 140.80896 281.548177 
L 140.45184 280.9728 
L 140.09472 280.253578 
L 139.7376 280.181656 
L 139.38048 279.96589 
L 139.02336 281.476255 
L 138.66624 281.548177 
L 138.30912 281.188566 
L 137.952 281.548177 
L 137.59488 281.260489 
L 137.23776 281.116644 
L 136.88064 280.397423 
L 136.52352 281.404333 
L 136.1664 280.469345 
L 135.80928 280.325501 
L 135.45216 281.188566 
L 135.09504 280.9728 
L 134.73792 280.613189 
L 134.3808 281.260489 
L 134.02368 281.404333 
L 133.66656 281.692022 
L 133.30944 280.828956 
L 132.95232 281.620099 
L 132.5952 281.260489 
L 132.23808 282.051632 
L 131.88096 280.685111 
L 131.52384 281.260489 
L 131.16672 280.828956 
L 130.8096 280.613189 
L 130.45248 281.332411 
L 130.09536 280.9728 
L 129.73824 282.051632 
L 129.38112 281.044722 
L 129.024 281.620099 
L 128.66688 281.044722 
L 128.30976 281.188566 
L 127.95264 281.476255 
L 127.59552 281.332411 
L 127.2384 281.332411 
L 126.88128 281.332411 
L 126.52416 281.404333 
L 126.16704 281.476255 
L 125.80992 281.404333 
L 125.4528 280.9728 
L 125.09568 281.188566 
L 124.73856 280.325501 
L 124.38144 280.9728 
L 124.02432 281.404333 
L 123.6672 280.9728 
L 123.31008 282.123555 
L 122.95296 281.404333 
L 122.59584 281.404333 
L 122.23872 281.260489 
L 121.8816 281.404333 
L 121.52448 280.9728 
L 121.16736 281.188566 
L 120.81024 281.620099 
L 120.45312 281.188566 
L 120.096 281.620099 
L 119.73888 281.692022 
L 119.38176 281.188566 
L 119.02464 280.900878 
L 118.66752 280.685111 
L 118.3104 281.476255 
L 117.95328 281.188566 
L 117.59616 281.548177 
L 117.23904 281.620099 
L 116.88192 281.332411 
L 116.5248 281.260489 
L 116.16768 280.181656 
L 115.81056 280.469345 
L 115.45344 281.116644 
L 115.09632 281.332411 
L 114.7392 281.044722 
L 114.38208 280.9728 
L 114.02496 281.332411 
L 113.66784 280.541267 
L 113.31072 281.476255 
L 112.9536 280.828956 
L 112.59648 281.278469 
L 112.23936 280.864917 
L 111.88224 281.188566 
L 111.52512 281.332411 
L 111.168 281.386352 
L 110.81088 281.548177 
L 110.45376 281.080683 
L 110.09664 280.523286 
L 109.73952 281.080683 
L 109.3824 281.97971 
L 109.02528 281.853846 
L 108.66816 281.350391 
L 108.31104 281.170586 
L 107.95392 281.692022 
L 107.5968 281.943749 
L 107.23968 281.692022 
L 106.88256 281.188566 
L 106.52544 281.386352 
L 106.16832 282.015671 
L 105.8112 281.710002 
L 105.45408 280.810975 
L 105.09696 281.692022 
L 104.73984 281.530197 
L 104.38272 281.530197 
L 104.0256 281.224528 
L 103.66848 282.033652 
L 103.31136 281.710002 
L 102.95424 281.925769 
L 102.59712 281.152605 
L 102.24 282.357302 
L 101.88288 281.332411 
L 101.52576 281.620099 
L 101.16864 281.925769 
L 100.81152 282.033652 
L 100.4544 282.087594 
L 100.09728 282.267399 
L 99.74016 280.757034 
L 99.38304 281.925769 
L 99.02592 281.332411 
L 98.6688 281.997691 
L 98.31168 281.224528 
L 97.95456 281.530197 
L 97.59744 281.494236 
L 97.24032 281.332411 
L 96.8832 281.889808 
L 96.52608 281.080683 
L 96.16896 282.105574 
L 95.81184 281.422314 
L 95.45472 282.141535 
L 95.0976 281.584138 
L 94.74048 281.404333 
L 94.38336 281.853846 
L 94.02624 281.817885 
L 93.66912 281.530197 
L 93.312 281.97971 
L 92.95488 281.835866 
L 92.59776 282.159516 
L 92.24064 281.96173 
L 91.88352 281.63808 
L 91.5264 281.584138 
L 91.16928 281.710002 
L 90.81216 281.692022 
L 90.45504 281.584138 
L 90.09792 282.267399 
L 89.7408 282.141535 
L 89.38368 281.997691 
L 89.02656 281.871827 
L 88.66944 282.087594 
L 88.31232 281.871827 
L 87.9552 282.213457 
L 87.59808 282.213457 
L 87.24096 281.997691 
L 86.88384 281.763944 
L 86.52672 282.087594 
L 86.1696 282.321341 
L 85.81248 281.584138 
L 85.45536 281.799905 
L 85.09824 281.63808 
L 84.74112 282.555088 
L 84.384 281.422314 
L 84.02688 282.015671 
L 83.66976 281.674041 
L 83.31264 282.015671 
L 82.95552 282.285379 
L 82.5984 281.943749 
L 82.24128 281.242508 
L 81.88416 281.566158 
L 81.52704 281.512216 
L 81.16992 282.195477 
L 80.8128 282.033652 
L 80.45568 282.105574 
L 80.09856 281.781924 
L 79.74144 282.087594 
L 79.38432 281.799905 
L 79.0272 281.763944 
L 78.67008 281.943749 
L 78.31296 282.105574 
L 77.95584 281.620099 
L 77.59872 281.674041 
L 77.2416 281.530197 
L 76.88448 282.159516 
L 76.52736 281.745963 
L 76.17024 281.188566 
L 75.81312 281.799905 
L 75.456 282.177496 
L 75.09888 281.835866 
L 74.74176 281.152605 
L 74.38464 282.195477 
L 74.02752 282.051632 
L 73.6704 282.465185 
L 73.31328 282.159516 
L 72.95616 282.195477 
L 72.59904 281.692022 
L 72.24192 281.692022 
L 71.8848 282.285379 
L 71.52768 281.692022 
L 71.17056 282.213457 
L 70.81344 282.159516 
L 70.45632 281.332411 
L 70.0992 282.051632 
L 69.74208 282.141535 
L 69.38496 281.584138 
L 69.02784 281.710002 
L 68.67072 282.069613 
L 68.3136 282.069613 
L 67.95648 281.799905 
L 67.59936 282.141535 
L 67.24224 281.745963 
L 66.88512 282.411243 
L 66.528 282.429224 
L 66.17088 282.30336 
L 65.81376 282.213457 
L 65.45664 282.321341 
L 65.09952 282.429224 
L 64.7424 282.483165 
L 64.38528 282.105574 
L 64.02816 282.231438 
L 63.67104 281.548177 
L 63.31392 282.141535 
L 62.9568 282.177496 
L 62.59968 282.878737 
L 62.24256 281.781924 
L 61.88544 281.835866 
L 61.52832 282.716912 
L 61.1712 282.698932 
L 60.81408 282.213457 
L 60.45696 282.033652 
L 60.09984 282.573068 
L 59.74272 282.411243 
L 59.3856 282.734893 
L 59.02848 283.040562 
L 58.67136 283.561998 
L 58.31424 284.928519 
L 57.95712 285.899468 
z
" style="fill:#1f77b4;fill-opacity:0.25;"/>
   </g>
   <g id="matplotlib.axis_1">
    <g id="xtick_1">
     <g id="line2d_1">
      <defs>
       <path d="M 0 0 
L 0 4.8 
" id="ma37da4222e" style="stroke:#000000;"/>
      </defs>
      <g>
       <use style="stroke:#000000;" x="57.6" xlink:href="#ma37da4222e" y="307.584"/>
      </g>
     </g>
     <g id="text_1">
      <!-- 0 -->
      <g transform="translate(54.8005 322.570625)scale(0.088 -0.088)">
       <defs>
        <path d="M 2034 4250 
Q 1547 4250 1301 3770 
Q 1056 3291 1056 2328 
Q 1056 1369 1301 889 
Q 1547 409 2034 409 
Q 2525 409 2770 889 
Q 3016 1369 3016 2328 
Q 3016 3291 2770 3770 
Q 2525 4250 2034 4250 
z
M 2034 4750 
Q 2819 4750 3233 4129 
Q 3647 3509 3647 2328 
Q 3647 1150 3233 529 
Q 2819 -91 2034 -91 
Q 1250 -91 836 529 
Q 422 1150 422 2328 
Q 422 3509 836 4129 
Q 1250 4750 2034 4750 
z
" id="DejaVuSans-30" transform="scale(0.015625)"/>
       </defs>
       <use xlink:href="#DejaVuSans-30"/>
      </g>
     </g>
    </g>
    <g id="xtick_2">
     <g id="line2d_2">
      <g>
       <use style="stroke:#000000;" x="129.024" xlink:href="#ma37da4222e" y="307.584"/>
      </g>
     </g>
     <g id="text_2">
      <!-- 200 -->
      <g transform="translate(120.6255 322.570625)scale(0.088 -0.088)">
       <defs>
        <path d="M 1228 531 
L 3431 531 
L 3431 0 
L 469 0 
L 469 531 
Q 828 903 1448 1529 
Q 2069 2156 2228 2338 
Q 2531 2678 2651 2914 
Q 2772 3150 2772 3378 
Q 2772 3750 2511 3984 
Q 2250 4219 1831 4219 
Q 1534 4219 1204 4116 
Q 875 4013 500 3803 
L 500 4441 
Q 881 4594 1212 4672 
Q 1544 4750 1819 4750 
Q 2544 4750 2975 4387 
Q 3406 4025 3406 3419 
Q 3406 3131 3298 2873 
Q 3191 2616 2906 2266 
Q 2828 2175 2409 1742 
Q 1991 1309 1228 531 
z
" id="DejaVuSans-32" transform="scale(0.015625)"/>
       </defs>
       <use xlink:href="#DejaVuSans-32"/>
       <use x="63.623047" xlink:href="#DejaVuSans-30"/>
       <use x="127.246094" xlink:href="#DejaVuSans-30"/>
      </g>
     </g>
    </g>
    <g id="xtick_3">
     <g id="line2d_3">
      <g>
       <use style="stroke:#000000;" x="200.448" xlink:href="#ma37da4222e" y="307.584"/>
      </g>
     </g>
     <g id="text_3">
      <!-- 400 -->
      <g transform="translate(192.0495 322.570625)scale(0.088 -0.088)">
       <defs>
        <path d="M 2419 4116 
L 825 1625 
L 2419 1625 
L 2419 4116 
z
M 2253 4666 
L 3047 4666 
L 3047 1625 
L 3713 1625 
L 3713 1100 
L 3047 1100 
L 3047 0 
L 2419 0 
L 2419 1100 
L 313 1100 
L 313 1709 
L 2253 4666 
z
" id="DejaVuSans-34" transform="scale(0.015625)"/>
       </defs>
       <use xlink:href="#DejaVuSans-34"/>
       <use x="63.623047" xlink:href="#DejaVuSans-30"/>
       <use x="127.246094" xlink:href="#DejaVuSans-30"/>
      </g>
     </g>
    </g>
    <g id="xtick_4">
     <g id="line2d_4">
      <g>
       <use style="stroke:#000000;" x="271.872" xlink:href="#ma37da4222e" y="307.584"/>
      </g>
     </g>
     <g id="text_4">
      <!-- 600 -->
      <g transform="translate(263.4735 322.570625)scale(0.088 -0.088)">
       <defs>
        <path d="M 2113 2584 
Q 1688 2584 1439 2293 
Q 1191 2003 1191 1497 
Q 1191 994 1439 701 
Q 1688 409 2113 409 
Q 2538 409 2786 701 
Q 3034 994 3034 1497 
Q 3034 2003 2786 2293 
Q 2538 2584 2113 2584 
z
M 3366 4563 
L 3366 3988 
Q 3128 4100 2886 4159 
Q 2644 4219 2406 4219 
Q 1781 4219 1451 3797 
Q 1122 3375 1075 2522 
Q 1259 2794 1537 2939 
Q 1816 3084 2150 3084 
Q 2853 3084 3261 2657 
Q 3669 2231 3669 1497 
Q 3669 778 3244 343 
Q 2819 -91 2113 -91 
Q 1303 -91 875 529 
Q 447 1150 447 2328 
Q 447 3434 972 4092 
Q 1497 4750 2381 4750 
Q 2619 4750 2861 4703 
Q 3103 4656 3366 4563 
z
" id="DejaVuSans-36" transform="scale(0.015625)"/>
       </defs>
       <use xlink:href="#DejaVuSans-36"/>
       <use x="63.623047" xlink:href="#DejaVuSans-30"/>
       <use x="127.246094" xlink:href="#DejaVuSans-30"/>
      </g>
     </g>
    </g>
    <g id="xtick_5">
     <g id="line2d_5">
      <g>
       <use style="stroke:#000000;" x="343.296" xlink:href="#ma37da4222e" y="307.584"/>
      </g>
     </g>
     <g id="text_5">
      <!-- 800 -->
      <g transform="translate(334.8975 322.570625)scale(0.088 -0.088)">
       <defs>
        <path d="M 2034 2216 
Q 1584 2216 1326 1975 
Q 1069 1734 1069 1313 
Q 1069 891 1326 650 
Q 1584 409 2034 409 
Q 2484 409 2743 651 
Q 3003 894 3003 1313 
Q 3003 1734 2745 1975 
Q 2488 2216 2034 2216 
z
M 1403 2484 
Q 997 2584 770 2862 
Q 544 3141 544 3541 
Q 544 4100 942 4425 
Q 1341 4750 2034 4750 
Q 2731 4750 3128 4425 
Q 3525 4100 3525 3541 
Q 3525 3141 3298 2862 
Q 3072 2584 2669 2484 
Q 3125 2378 3379 2068 
Q 3634 1759 3634 1313 
Q 3634 634 3220 271 
Q 2806 -91 2034 -91 
Q 1263 -91 848 271 
Q 434 634 434 1313 
Q 434 1759 690 2068 
Q 947 2378 1403 2484 
z
M 1172 3481 
Q 1172 3119 1398 2916 
Q 1625 2713 2034 2713 
Q 2441 2713 2670 2916 
Q 2900 3119 2900 3481 
Q 2900 3844 2670 4047 
Q 2441 4250 2034 4250 
Q 1625 4250 1398 4047 
Q 1172 3844 1172 3481 
z
" id="DejaVuSans-38" transform="scale(0.015625)"/>
       </defs>
       <use xlink:href="#DejaVuSans-38"/>
       <use x="63.623047" xlink:href="#DejaVuSans-30"/>
       <use x="127.246094" xlink:href="#DejaVuSans-30"/>
      </g>
     </g>
    </g>
    <g id="xtick_6">
     <g id="line2d_6">
      <g>
       <use style="stroke:#000000;" x="414.72" xlink:href="#ma37da4222e" y="307.584"/>
      </g>
     </g>
     <g id="text_6">
      <!-- 1000 -->
      <g transform="translate(403.522 322.570625)scale(0.088 -0.088)">
       <defs>
        <path d="M 794 531 
L 1825 531 
L 1825 4091 
L 703 3866 
L 703 4441 
L 1819 4666 
L 2450 4666 
L 2450 531 
L 3481 531 
L 3481 0 
L 794 0 
L 794 531 
z
" id="DejaVuSans-31" transform="scale(0.015625)"/>
       </defs>
       <use xlink:href="#DejaVuSans-31"/>
       <use x="63.623047" xlink:href="#DejaVuSans-30"/>
       <use x="127.246094" xlink:href="#DejaVuSans-30"/>
       <use x="190.869141" xlink:href="#DejaVuSans-30"/>
      </g>
     </g>
    </g>
    <g id="text_7">
     <!-- Timestep -->
     <g transform="translate(214.03275 335.69525)scale(0.096 -0.096)">
      <defs>
       <path d="M -19 4666 
L 3928 4666 
L 3928 4134 
L 2272 4134 
L 2272 0 
L 1638 0 
L 1638 4134 
L -19 4134 
L -19 4666 
z
" id="DejaVuSans-54" transform="scale(0.015625)"/>
       <path d="M 603 3500 
L 1178 3500 
L 1178 0 
L 603 0 
L 603 3500 
z
M 603 4863 
L 1178 4863 
L 1178 4134 
L 603 4134 
L 603 4863 
z
" id="DejaVuSans-69" transform="scale(0.015625)"/>
       <path d="M 3328 2828 
Q 3544 3216 3844 3400 
Q 4144 3584 4550 3584 
Q 5097 3584 5394 3201 
Q 5691 2819 5691 2113 
L 5691 0 
L 5113 0 
L 5113 2094 
Q 5113 2597 4934 2840 
Q 4756 3084 4391 3084 
Q 3944 3084 3684 2787 
Q 3425 2491 3425 1978 
L 3425 0 
L 2847 0 
L 2847 2094 
Q 2847 2600 2669 2842 
Q 2491 3084 2119 3084 
Q 1678 3084 1418 2786 
Q 1159 2488 1159 1978 
L 1159 0 
L 581 0 
L 581 3500 
L 1159 3500 
L 1159 2956 
Q 1356 3278 1631 3431 
Q 1906 3584 2284 3584 
Q 2666 3584 2933 3390 
Q 3200 3197 3328 2828 
z
" id="DejaVuSans-6d" transform="scale(0.015625)"/>
       <path d="M 3597 1894 
L 3597 1613 
L 953 1613 
Q 991 1019 1311 708 
Q 1631 397 2203 397 
Q 2534 397 2845 478 
Q 3156 559 3463 722 
L 3463 178 
Q 3153 47 2828 -22 
Q 2503 -91 2169 -91 
Q 1331 -91 842 396 
Q 353 884 353 1716 
Q 353 2575 817 3079 
Q 1281 3584 2069 3584 
Q 2775 3584 3186 3129 
Q 3597 2675 3597 1894 
z
M 3022 2063 
Q 3016 2534 2758 2815 
Q 2500 3097 2075 3097 
Q 1594 3097 1305 2825 
Q 1016 2553 972 2059 
L 3022 2063 
z
" id="DejaVuSans-65" transform="scale(0.015625)"/>
       <path d="M 2834 3397 
L 2834 2853 
Q 2591 2978 2328 3040 
Q 2066 3103 1784 3103 
Q 1356 3103 1142 2972 
Q 928 2841 928 2578 
Q 928 2378 1081 2264 
Q 1234 2150 1697 2047 
L 1894 2003 
Q 2506 1872 2764 1633 
Q 3022 1394 3022 966 
Q 3022 478 2636 193 
Q 2250 -91 1575 -91 
Q 1294 -91 989 -36 
Q 684 19 347 128 
L 347 722 
Q 666 556 975 473 
Q 1284 391 1588 391 
Q 1994 391 2212 530 
Q 2431 669 2431 922 
Q 2431 1156 2273 1281 
Q 2116 1406 1581 1522 
L 1381 1569 
Q 847 1681 609 1914 
Q 372 2147 372 2553 
Q 372 3047 722 3315 
Q 1072 3584 1716 3584 
Q 2034 3584 2315 3537 
Q 2597 3491 2834 3397 
z
" id="DejaVuSans-73" transform="scale(0.015625)"/>
       <path d="M 1172 4494 
L 1172 3500 
L 2356 3500 
L 2356 3053 
L 1172 3053 
L 1172 1153 
Q 1172 725 1289 603 
Q 1406 481 1766 481 
L 2356 481 
L 2356 0 
L 1766 0 
Q 1100 0 847 248 
Q 594 497 594 1153 
L 594 3053 
L 172 3053 
L 172 3500 
L 594 3500 
L 594 4494 
L 1172 4494 
z
" id="DejaVuSans-74" transform="scale(0.015625)"/>
       <path d="M 1159 525 
L 1159 -1331 
L 581 -1331 
L 581 3500 
L 1159 3500 
L 1159 2969 
Q 1341 3281 1617 3432 
Q 1894 3584 2278 3584 
Q 2916 3584 3314 3078 
Q 3713 2572 3713 1747 
Q 3713 922 3314 415 
Q 2916 -91 2278 -91 
Q 1894 -91 1617 61 
Q 1341 213 1159 525 
z
M 3116 1747 
Q 3116 2381 2855 2742 
Q 2594 3103 2138 3103 
Q 1681 3103 1420 2742 
Q 1159 2381 1159 1747 
Q 1159 1113 1420 752 
Q 1681 391 2138 391 
Q 2594 391 2855 752 
Q 3116 1113 3116 1747 
z
" id="DejaVuSans-70" transform="scale(0.015625)"/>
      </defs>
      <use xlink:href="#DejaVuSans-54"/>
      <use x="57.958984" xlink:href="#DejaVuSans-69"/>
      <use x="85.742188" xlink:href="#DejaVuSans-6d"/>
      <use x="183.154297" xlink:href="#DejaVuSans-65"/>
      <use x="244.677734" xlink:href="#DejaVuSans-73"/>
      <use x="296.777344" xlink:href="#DejaVuSans-74"/>
      <use x="335.986328" xlink:href="#DejaVuSans-65"/>
      <use x="397.509766" xlink:href="#DejaVuSans-70"/>
     </g>
    </g>
   </g>
   <g id="matplotlib.axis_2">
    <g id="ytick_1">
     <g id="line2d_7">
      <defs>
       <path d="M 0 0 
L -4.8 0 
" id="m9f397265c0" style="stroke:#000000;"/>
      </defs>
      <g>
       <use style="stroke:#000000;" x="57.6" xlink:href="#m9f397265c0" y="293.199568"/>
      </g>
     </g>
     <g id="text_8">
      <!-- 0 -->
      <g transform="translate(43.701 296.54288)scale(0.088 -0.088)">
       <use xlink:href="#DejaVuSans-30"/>
      </g>
     </g>
    </g>
    <g id="ytick_2">
     <g id="line2d_8">
      <g>
       <use style="stroke:#000000;" x="57.6" xlink:href="#m9f397265c0" y="257.238486"/>
      </g>
     </g>
     <g id="text_9">
      <!-- 5 -->
      <g transform="translate(43.701 260.581799)scale(0.088 -0.088)">
       <defs>
        <path d="M 691 4666 
L 3169 4666 
L 3169 4134 
L 1269 4134 
L 1269 2991 
Q 1406 3038 1543 3061 
Q 1681 3084 1819 3084 
Q 2600 3084 3056 2656 
Q 3513 2228 3513 1497 
Q 3513 744 3044 326 
Q 2575 -91 1722 -91 
Q 1428 -91 1123 -41 
Q 819 9 494 109 
L 494 744 
Q 775 591 1075 516 
Q 1375 441 1709 441 
Q 2250 441 2565 725 
Q 2881 1009 2881 1497 
Q 2881 1984 2565 2268 
Q 2250 2553 1709 2553 
Q 1456 2553 1204 2497 
Q 953 2441 691 2322 
L 691 4666 
z
" id="DejaVuSans-35" transform="scale(0.015625)"/>
       </defs>
       <use xlink:href="#DejaVuSans-35"/>
      </g>
     </g>
    </g>
    <g id="ytick_3">
     <g id="line2d_9">
      <g>
       <use style="stroke:#000000;" x="57.6" xlink:href="#m9f397265c0" y="221.277405"/>
      </g>
     </g>
     <g id="text_10">
      <!-- 10 -->
      <g transform="translate(38.102 224.620718)scale(0.088 -0.088)">
       <use xlink:href="#DejaVuSans-31"/>
       <use x="63.623047" xlink:href="#DejaVuSans-30"/>
      </g>
     </g>
    </g>
    <g id="ytick_4">
     <g id="line2d_10">
      <g>
       <use style="stroke:#000000;" x="57.6" xlink:href="#m9f397265c0" y="185.316324"/>
      </g>
     </g>
     <g id="text_11">
      <!-- 15 -->
      <g transform="translate(38.102 188.659637)scale(0.088 -0.088)">
       <use xlink:href="#DejaVuSans-31"/>
       <use x="63.623047" xlink:href="#DejaVuSans-35"/>
      </g>
     </g>
    </g>
    <g id="ytick_5">
     <g id="line2d_11">
      <g>
       <use style="stroke:#000000;" x="57.6" xlink:href="#m9f397265c0" y="149.355243"/>
      </g>
     </g>
     <g id="text_12">
      <!-- 20 -->
      <g transform="translate(38.102 152.698556)scale(0.088 -0.088)">
       <use xlink:href="#DejaVuSans-32"/>
       <use x="63.623047" xlink:href="#DejaVuSans-30"/>
      </g>
     </g>
    </g>
    <g id="ytick_6">
     <g id="line2d_12">
      <g>
       <use style="stroke:#000000;" x="57.6" xlink:href="#m9f397265c0" y="113.394162"/>
      </g>
     </g>
     <g id="text_13">
      <!-- 25 -->
      <g transform="translate(38.102 116.737475)scale(0.088 -0.088)">
       <use xlink:href="#DejaVuSans-32"/>
       <use x="63.623047" xlink:href="#DejaVuSans-35"/>
      </g>
     </g>
    </g>
    <g id="ytick_7">
     <g id="line2d_13">
      <g>
       <use style="stroke:#000000;" x="57.6" xlink:href="#m9f397265c0" y="77.433081"/>
      </g>
     </g>
     <g id="text_14">
      <!-- 30 -->
      <g transform="translate(38.102 80.776394)scale(0.088 -0.088)">
       <defs>
        <path d="M 2597 2516 
Q 3050 2419 3304 2112 
Q 3559 1806 3559 1356 
Q 3559 666 3084 287 
Q 2609 -91 1734 -91 
Q 1441 -91 1130 -33 
Q 819 25 488 141 
L 488 750 
Q 750 597 1062 519 
Q 1375 441 1716 441 
Q 2309 441 2620 675 
Q 2931 909 2931 1356 
Q 2931 1769 2642 2001 
Q 2353 2234 1838 2234 
L 1294 2234 
L 1294 2753 
L 1863 2753 
Q 2328 2753 2575 2939 
Q 2822 3125 2822 3475 
Q 2822 3834 2567 4026 
Q 2313 4219 1838 4219 
Q 1578 4219 1281 4162 
Q 984 4106 628 3988 
L 628 4550 
Q 988 4650 1302 4700 
Q 1616 4750 1894 4750 
Q 2613 4750 3031 4423 
Q 3450 4097 3450 3541 
Q 3450 3153 3228 2886 
Q 3006 2619 2597 2516 
z
" id="DejaVuSans-33" transform="scale(0.015625)"/>
       </defs>
       <use xlink:href="#DejaVuSans-33"/>
       <use x="63.623047" xlink:href="#DejaVuSans-30"/>
      </g>
     </g>
    </g>
    <g id="ytick_8">
     <g id="line2d_14">
      <g>
       <use style="stroke:#000000;" x="57.6" xlink:href="#m9f397265c0" y="41.472"/>
      </g>
     </g>
     <g id="text_15">
      <!-- 35 -->
      <g transform="translate(38.102 44.815313)scale(0.088 -0.088)">
       <use xlink:href="#DejaVuSans-33"/>
       <use x="63.623047" xlink:href="#DejaVuSans-35"/>
      </g>
     </g>
    </g>
    <g id="text_16">
     <!-- Reward -->
     <g transform="translate(32.1055 192.40425)rotate(-90)scale(0.096 -0.096)">
      <defs>
       <path d="M 2841 2188 
Q 3044 2119 3236 1894 
Q 3428 1669 3622 1275 
L 4263 0 
L 3584 0 
L 2988 1197 
Q 2756 1666 2539 1819 
Q 2322 1972 1947 1972 
L 1259 1972 
L 1259 0 
L 628 0 
L 628 4666 
L 2053 4666 
Q 2853 4666 3247 4331 
Q 3641 3997 3641 3322 
Q 3641 2881 3436 2590 
Q 3231 2300 2841 2188 
z
M 1259 4147 
L 1259 2491 
L 2053 2491 
Q 2509 2491 2742 2702 
Q 2975 2913 2975 3322 
Q 2975 3731 2742 3939 
Q 2509 4147 2053 4147 
L 1259 4147 
z
" id="DejaVuSans-52" transform="scale(0.015625)"/>
       <path d="M 269 3500 
L 844 3500 
L 1563 769 
L 2278 3500 
L 2956 3500 
L 3675 769 
L 4391 3500 
L 4966 3500 
L 4050 0 
L 3372 0 
L 2619 2869 
L 1863 0 
L 1184 0 
L 269 3500 
z
" id="DejaVuSans-77" transform="scale(0.015625)"/>
       <path d="M 2194 1759 
Q 1497 1759 1228 1600 
Q 959 1441 959 1056 
Q 959 750 1161 570 
Q 1363 391 1709 391 
Q 2188 391 2477 730 
Q 2766 1069 2766 1631 
L 2766 1759 
L 2194 1759 
z
M 3341 1997 
L 3341 0 
L 2766 0 
L 2766 531 
Q 2569 213 2275 61 
Q 1981 -91 1556 -91 
Q 1019 -91 701 211 
Q 384 513 384 1019 
Q 384 1609 779 1909 
Q 1175 2209 1959 2209 
L 2766 2209 
L 2766 2266 
Q 2766 2663 2505 2880 
Q 2244 3097 1772 3097 
Q 1472 3097 1187 3025 
Q 903 2953 641 2809 
L 641 3341 
Q 956 3463 1253 3523 
Q 1550 3584 1831 3584 
Q 2591 3584 2966 3190 
Q 3341 2797 3341 1997 
z
" id="DejaVuSans-61" transform="scale(0.015625)"/>
       <path d="M 2631 2963 
Q 2534 3019 2420 3045 
Q 2306 3072 2169 3072 
Q 1681 3072 1420 2755 
Q 1159 2438 1159 1844 
L 1159 0 
L 581 0 
L 581 3500 
L 1159 3500 
L 1159 2956 
Q 1341 3275 1631 3429 
Q 1922 3584 2338 3584 
Q 2397 3584 2469 3576 
Q 2541 3569 2628 3553 
L 2631 2963 
z
" id="DejaVuSans-72" transform="scale(0.015625)"/>
       <path d="M 2906 2969 
L 2906 4863 
L 3481 4863 
L 3481 0 
L 2906 0 
L 2906 525 
Q 2725 213 2448 61 
Q 2172 -91 1784 -91 
Q 1150 -91 751 415 
Q 353 922 353 1747 
Q 353 2572 751 3078 
Q 1150 3584 1784 3584 
Q 2172 3584 2448 3432 
Q 2725 3281 2906 2969 
z
M 947 1747 
Q 947 1113 1208 752 
Q 1469 391 1925 391 
Q 2381 391 2643 752 
Q 2906 1113 2906 1747 
Q 2906 2381 2643 2742 
Q 2381 3103 1925 3103 
Q 1469 3103 1208 2742 
Q 947 2381 947 1747 
z
" id="DejaVuSans-64" transform="scale(0.015625)"/>
      </defs>
      <use xlink:href="#DejaVuSans-52"/>
      <use x="64.982422" xlink:href="#DejaVuSans-65"/>
      <use x="126.505859" xlink:href="#DejaVuSans-77"/>
      <use x="208.292969" xlink:href="#DejaVuSans-61"/>
      <use x="269.572266" xlink:href="#DejaVuSans-72"/>
      <use x="308.935547" xlink:href="#DejaVuSans-64"/>
     </g>
    </g>
   </g>
   <g id="line2d_15">
    <path clip-path="url(#p1aae467506)" d="M 57.95712 286.151196 
L 58.31424 285.503896 
L 58.67136 284.065453 
L 59.02848 283.346231 
L 59.3856 283.238348 
L 59.74272 282.878737 
L 60.09984 282.842776 
L 60.45696 282.267399 
L 60.81408 282.483165 
L 61.1712 283.202387 
L 61.52832 283.31027 
L 61.88544 282.267399 
L 62.24256 282.591049 
L 62.59968 283.454115 
L 62.9568 282.878737 
L 63.31392 282.698932 
L 63.67104 281.97971 
L 64.02816 282.734893 
L 64.7424 283.094504 
L 65.09952 282.734893 
L 65.81376 282.483165 
L 66.17088 282.483165 
L 66.88512 282.878737 
L 67.59936 282.555088 
L 67.95648 282.087594 
L 68.3136 282.447204 
L 68.67072 282.591049 
L 69.02784 282.267399 
L 69.38496 282.231438 
L 69.74208 282.447204 
L 70.0992 282.483165 
L 70.45632 282.375282 
L 70.81344 282.770854 
L 71.17056 282.447204 
L 72.24192 282.770854 
L 72.59904 282.339321 
L 72.95616 282.662971 
L 73.6704 282.914698 
L 74.02752 282.483165 
L 74.38464 282.62701 
L 74.74176 282.123555 
L 75.456 282.591049 
L 76.17024 282.231438 
L 76.52736 282.483165 
L 77.59872 282.914698 
L 77.95584 282.447204 
L 78.67008 282.662971 
L 79.0272 282.159516 
L 79.38432 282.339321 
L 79.74144 282.375282 
L 80.09856 282.914698 
L 80.45568 282.447204 
L 81.16992 282.878737 
L 81.52704 282.231438 
L 82.24128 282.698932 
L 82.5984 282.375282 
L 82.95552 282.734893 
L 83.31264 282.30336 
L 83.66976 282.267399 
L 84.02688 282.483165 
L 84.384 281.97971 
L 84.74112 282.842776 
L 85.09824 282.375282 
L 85.45536 282.411243 
L 85.81248 282.195477 
L 86.1696 282.842776 
L 86.52672 282.30336 
L 86.88384 282.267399 
L 87.24096 282.806815 
L 87.9552 282.806815 
L 88.31232 282.555088 
L 89.7408 282.770854 
L 90.09792 282.878737 
L 90.45504 282.159516 
L 90.81216 282.591049 
L 91.16928 282.62701 
L 91.88352 282.051632 
L 92.24064 282.734893 
L 92.59776 282.375282 
L 92.95488 282.447204 
L 93.312 282.806815 
L 93.66912 282.447204 
L 94.02624 282.267399 
L 94.38336 282.698932 
L 94.74048 282.375282 
L 95.0976 282.591049 
L 95.45472 282.30336 
L 95.81184 282.662971 
L 96.52608 281.943749 
L 96.8832 282.447204 
L 97.24032 282.231438 
L 97.59744 281.763944 
L 97.95456 282.555088 
L 98.31168 282.159516 
L 99.02592 282.087594 
L 99.74016 282.123555 
L 100.09728 283.022582 
L 100.4544 282.267399 
L 100.81152 282.662971 
L 101.16864 282.267399 
L 101.52576 282.734893 
L 101.88288 282.770854 
L 102.24 282.986621 
L 102.59712 281.512216 
L 102.95424 282.447204 
L 103.66848 282.62701 
L 104.0256 282.051632 
L 104.73984 281.799905 
L 105.09696 282.411243 
L 105.45408 281.943749 
L 105.8112 282.555088 
L 106.52544 282.015671 
L 106.88256 281.871827 
L 107.5968 282.231438 
L 107.95392 281.907788 
L 108.31104 282.159516 
L 109.3824 282.159516 
L 109.73952 281.548177 
L 110.09664 281.512216 
L 110.81088 282.123555 
L 111.168 282.555088 
L 111.52512 282.051632 
L 111.88224 281.943749 
L 112.23936 282.231438 
L 112.59648 281.97971 
L 112.9536 281.476255 
L 113.31072 282.195477 
L 113.66784 282.123555 
L 114.02496 281.404333 
L 114.38208 281.907788 
L 114.7392 281.835866 
L 115.09632 282.051632 
L 115.45344 281.835866 
L 115.81056 281.97971 
L 116.16768 281.620099 
L 116.88192 282.267399 
L 117.23904 281.763944 
L 117.59616 282.411243 
L 117.95328 281.620099 
L 118.3104 282.051632 
L 118.66752 281.692022 
L 119.02464 281.763944 
L 119.38176 282.339321 
L 119.73888 282.555088 
L 120.096 282.267399 
L 120.45312 281.763944 
L 120.81024 281.907788 
L 121.16736 282.195477 
L 121.52448 281.404333 
L 121.8816 281.835866 
L 122.23872 281.692022 
L 122.59584 282.411243 
L 122.95296 281.620099 
L 123.31008 282.195477 
L 123.6672 281.907788 
L 124.02432 281.763944 
L 124.38144 281.835866 
L 124.73856 281.332411 
L 125.09568 282.123555 
L 125.4528 281.404333 
L 125.80992 281.97971 
L 126.16704 281.835866 
L 126.52416 282.123555 
L 127.2384 281.835866 
L 127.59552 281.476255 
L 127.95264 281.692022 
L 128.30976 281.548177 
L 128.66688 281.260489 
L 129.38112 281.835866 
L 129.73824 282.62701 
L 130.09536 281.692022 
L 130.45248 281.620099 
L 130.8096 281.835866 
L 131.16672 281.620099 
L 131.52384 281.907788 
L 131.88096 281.188566 
L 132.23808 282.411243 
L 132.5952 281.97971 
L 133.66656 281.97971 
L 134.02368 281.835866 
L 134.3808 282.123555 
L 134.73792 281.260489 
L 135.09504 281.97971 
L 135.45216 281.907788 
L 135.80928 282.123555 
L 136.1664 281.692022 
L 136.52352 282.195477 
L 136.88064 281.404333 
L 137.23776 281.907788 
L 137.59488 282.123555 
L 137.952 281.97971 
L 138.30912 281.97971 
L 138.66624 282.483165 
L 139.38048 281.476255 
L 139.7376 281.763944 
L 140.09472 282.267399 
L 140.45184 281.763944 
L 141.16608 281.835866 
L 141.5232 281.548177 
L 141.88032 282.267399 
L 142.23744 281.548177 
L 142.59456 281.260489 
L 143.3088 281.620099 
L 143.66592 282.051632 
L 144.02304 282.051632 
L 144.38016 281.907788 
L 145.0944 281.835866 
L 145.45152 282.411243 
L 145.80864 281.620099 
L 146.16576 282.051632 
L 146.52288 281.692022 
L 146.88 281.907788 
L 147.23712 281.97971 
L 147.59424 281.476255 
L 147.95136 281.763944 
L 148.30848 281.044722 
L 148.6656 282.267399 
L 149.02272 281.907788 
L 149.73696 282.339321 
L 150.09408 282.123555 
L 150.4512 281.620099 
L 150.80832 282.62701 
L 151.16544 281.692022 
L 151.52256 282.842776 
L 151.87968 281.620099 
L 152.2368 281.97971 
L 152.59392 281.763944 
L 152.95104 281.763944 
L 153.30816 281.907788 
L 153.66528 281.404333 
L 154.0224 281.907788 
L 154.37952 281.548177 
L 154.73664 282.051632 
L 155.45088 282.123555 
L 155.808 282.051632 
L 156.16512 281.763944 
L 156.52224 282.483165 
L 156.87936 281.404333 
L 157.23648 281.97971 
L 157.5936 281.97971 
L 158.30784 282.195477 
L 158.66496 282.051632 
L 159.02208 282.411243 
L 159.3792 282.483165 
L 159.73632 281.044722 
L 160.09344 281.692022 
L 160.45056 281.404333 
L 161.1648 281.97971 
L 161.52192 281.404333 
L 161.87904 282.339321 
L 162.23616 281.835866 
L 162.9504 281.763944 
L 163.30752 281.97971 
L 164.02176 281.97971 
L 164.736 282.483165 
L 165.09312 281.548177 
L 165.45024 281.835866 
L 165.80736 281.548177 
L 166.87872 282.698932 
L 167.23584 281.907788 
L 167.59296 281.404333 
L 167.95008 282.62701 
L 168.3072 281.620099 
L 169.02144 282.339321 
L 169.37856 281.476255 
L 170.80704 282.555088 
L 171.16416 282.123555 
L 171.52128 281.260489 
L 171.8784 281.763944 
L 172.23552 282.051632 
L 172.59264 281.188566 
L 172.94976 282.123555 
L 173.30688 281.835866 
L 173.664 282.195477 
L 174.02112 281.476255 
L 174.37824 282.267399 
L 174.73536 281.907788 
L 175.09248 282.62701 
L 175.4496 282.411243 
L 175.80672 281.692022 
L 176.16384 281.97971 
L 176.52096 281.907788 
L 176.87808 281.97971 
L 177.2352 281.260489 
L 177.59232 282.123555 
L 177.94944 281.907788 
L 178.30656 282.483165 
L 179.0208 282.195477 
L 179.73504 281.548177 
L 180.09216 281.548177 
L 180.44928 281.404333 
L 180.8064 282.842776 
L 181.16352 282.267399 
L 181.52064 281.260489 
L 181.87776 282.267399 
L 182.23488 282.195477 
L 182.592 281.548177 
L 182.94912 282.123555 
L 183.30624 282.195477 
L 183.66336 282.483165 
L 184.02048 281.97971 
L 184.3776 282.339321 
L 184.73472 281.763944 
L 185.09184 282.123555 
L 185.44896 282.267399 
L 185.80608 283.202387 
L 186.1632 281.692022 
L 186.87744 282.555088 
L 187.23456 282.195477 
L 187.59168 282.411243 
L 188.30592 281.692022 
L 188.66304 281.692022 
L 189.02016 282.267399 
L 189.37728 280.900878 
L 189.7344 282.555088 
L 190.09152 282.339321 
L 190.44864 282.411243 
L 190.80576 281.97971 
L 191.16288 282.62701 
L 191.52 281.97971 
L 192.23424 282.051632 
L 192.59136 282.483165 
L 192.94848 282.483165 
L 193.3056 282.267399 
L 193.66272 282.62701 
L 194.01984 282.123555 
L 194.37696 282.555088 
L 195.0912 282.555088 
L 195.80544 282.051632 
L 196.16256 282.842776 
L 196.51968 282.770854 
L 196.8768 282.123555 
L 197.23392 282.914698 
L 197.59104 282.555088 
L 197.94816 282.411243 
L 198.30528 282.411243 
L 198.6624 282.123555 
L 199.01952 282.411243 
L 199.37664 282.267399 
L 199.73376 282.555088 
L 200.09088 282.195477 
L 200.448 282.62701 
L 200.80512 282.555088 
L 201.16224 282.123555 
L 201.51936 282.770854 
L 201.87648 282.483165 
L 202.2336 282.770854 
L 202.59072 282.411243 
L 202.94784 283.058543 
L 203.30496 282.267399 
L 204.0192 282.483165 
L 204.37632 281.907788 
L 204.73344 282.770854 
L 205.09056 283.130465 
L 205.44768 282.267399 
L 205.8048 282.62701 
L 206.16192 283.346231 
L 206.51904 282.770854 
L 206.87616 282.411243 
L 207.23328 282.555088 
L 207.5904 282.051632 
L 207.94752 282.986621 
L 208.30464 282.698932 
L 208.66176 282.698932 
L 209.01888 282.555088 
L 209.376 282.698932 
L 209.73312 282.62701 
L 210.09024 282.411243 
L 210.44736 282.483165 
L 210.80448 282.770854 
L 211.1616 282.339321 
L 211.51872 282.698932 
L 211.87584 282.62701 
L 212.59008 282.123555 
L 212.9472 282.555088 
L 213.30432 282.483165 
L 213.66144 282.195477 
L 214.01856 283.274309 
L 214.37568 283.346231 
L 214.7328 282.842776 
L 215.08992 283.63392 
L 215.44704 282.411243 
L 215.80416 283.418154 
L 216.16128 283.130465 
L 216.5184 282.411243 
L 216.87552 282.914698 
L 217.23264 282.770854 
L 217.58976 282.339321 
L 217.94688 282.914698 
L 218.66112 282.555088 
L 219.01824 283.058543 
L 219.37536 282.62701 
L 219.73248 282.411243 
L 220.44672 283.202387 
L 220.80384 282.555088 
L 221.16096 282.411243 
L 221.51808 282.914698 
L 221.8752 282.770854 
L 222.23232 282.914698 
L 222.94656 282.62701 
L 223.6608 282.914698 
L 224.01792 282.267399 
L 224.37504 282.770854 
L 224.73216 283.705842 
L 225.08928 282.698932 
L 225.4464 282.195477 
L 225.80352 282.770854 
L 226.87488 282.914698 
L 227.232 282.483165 
L 227.58912 282.914698 
L 227.94624 282.555088 
L 228.30336 282.842776 
L 228.66048 282.411243 
L 229.0176 282.986621 
L 229.37472 283.058543 
L 229.73184 282.051632 
L 230.08896 282.842776 
L 230.44608 283.346231 
L 230.8032 282.483165 
L 231.16032 283.058543 
L 231.51744 282.770854 
L 232.23168 282.555088 
L 232.5888 283.058543 
L 232.94592 282.555088 
L 233.66016 282.555088 
L 234.3744 282.339321 
L 234.73152 283.058543 
L 235.08864 281.97971 
L 235.44576 282.411243 
L 235.80288 282.123555 
L 236.16 282.555088 
L 236.51712 283.274309 
L 236.87424 283.130465 
L 237.23136 282.195477 
L 237.58848 282.267399 
L 237.9456 282.842776 
L 238.30272 282.555088 
L 238.65984 282.698932 
L 239.01696 282.62701 
L 239.37408 282.411243 
L 240.08832 282.986621 
L 240.44544 282.986621 
L 240.80256 282.698932 
L 241.15968 282.267399 
L 241.5168 282.842776 
L 241.87392 282.914698 
L 242.23104 282.267399 
L 242.58816 282.195477 
L 242.94528 282.986621 
L 243.65952 282.770854 
L 244.01664 282.698932 
L 244.37376 282.123555 
L 244.73088 283.346231 
L 245.088 282.339321 
L 245.44512 283.418154 
L 245.80224 283.202387 
L 246.15936 282.411243 
L 246.51648 282.698932 
L 246.8736 282.555088 
L 247.23072 283.63392 
L 247.58784 282.698932 
L 247.94496 283.561998 
L 248.30208 282.411243 
L 248.6592 282.411243 
L 249.01632 282.770854 
L 249.37344 283.561998 
L 249.73056 281.97971 
L 250.08768 283.130465 
L 250.4448 282.698932 
L 250.80192 282.698932 
L 251.15904 282.339321 
L 251.51616 282.986621 
L 252.58752 282.555088 
L 253.30176 282.914698 
L 253.65888 282.62701 
L 254.016 282.986621 
L 254.37312 282.411243 
L 254.73024 282.555088 
L 255.08736 282.986621 
L 255.44448 282.051632 
L 255.8016 282.339321 
L 256.15872 282.195477 
L 256.51584 282.555088 
L 256.87296 281.907788 
L 257.23008 283.058543 
L 257.5872 281.835866 
L 257.94432 282.339321 
L 258.30144 281.044722 
L 258.65856 282.195477 
L 259.01568 281.260489 
L 259.3728 282.698932 
L 259.72992 282.842776 
L 260.08704 282.411243 
L 260.44416 282.267399 
L 260.80128 282.267399 
L 261.1584 281.907788 
L 261.51552 281.97971 
L 261.87264 282.842776 
L 262.22976 282.339321 
L 262.58688 282.914698 
L 262.944 281.620099 
L 263.30112 282.698932 
L 264.01536 284.065453 
L 264.37248 282.267399 
L 264.7296 281.97971 
L 265.08672 282.339321 
L 265.80096 282.698932 
L 266.15808 283.202387 
L 266.5152 282.555088 
L 266.87232 282.483165 
L 267.22944 282.195477 
L 267.58656 282.770854 
L 267.94368 283.058543 
L 268.3008 282.339321 
L 268.65792 282.555088 
L 269.01504 282.986621 
L 269.37216 282.842776 
L 269.72928 282.986621 
L 270.0864 282.770854 
L 270.44352 282.051632 
L 270.80064 282.62701 
L 271.51488 282.411243 
L 271.872 283.418154 
L 272.22912 282.770854 
L 272.58624 282.411243 
L 273.30048 283.202387 
L 274.01472 282.483165 
L 274.37184 283.274309 
L 274.72896 283.561998 
L 275.08608 282.555088 
L 275.4432 283.130465 
L 275.80032 282.842776 
L 276.15744 282.051632 
L 276.51456 282.914698 
L 276.87168 282.698932 
L 277.2288 282.914698 
L 277.58592 282.555088 
L 278.65728 282.986621 
L 279.0144 282.051632 
L 279.37152 282.411243 
L 279.72864 281.620099 
L 280.08576 282.62701 
L 280.44288 282.986621 
L 280.8 283.058543 
L 281.15712 282.195477 
L 281.51424 283.921609 
L 281.87136 282.62701 
L 282.22848 282.483165 
L 282.5856 282.698932 
L 282.94272 282.411243 
L 283.29984 282.698932 
L 283.65696 282.698932 
L 284.01408 283.346231 
L 284.3712 283.202387 
L 284.72832 283.202387 
L 285.08544 282.986621 
L 285.44256 283.130465 
L 285.79968 282.483165 
L 286.1568 282.62701 
L 286.51392 282.195477 
L 286.87104 282.842776 
L 287.22816 282.195477 
L 287.58528 282.914698 
L 288.29952 282.555088 
L 288.65664 282.842776 
L 289.01376 282.770854 
L 289.37088 282.555088 
L 289.728 283.346231 
L 290.08512 282.483165 
L 290.44224 283.130465 
L 290.79936 282.339321 
L 291.15648 282.267399 
L 291.5136 282.411243 
L 291.87072 283.346231 
L 292.22784 282.986621 
L 292.58496 281.97971 
L 292.94208 282.267399 
L 293.2992 282.267399 
L 293.65632 282.555088 
L 294.01344 282.051632 
L 294.72768 283.202387 
L 295.0848 282.62701 
L 295.44192 282.483165 
L 295.79904 281.907788 
L 296.51328 282.770854 
L 296.8704 282.555088 
L 297.22752 281.907788 
L 297.58464 282.051632 
L 297.94176 281.404333 
L 298.29888 282.411243 
L 298.656 282.411243 
L 299.01312 282.123555 
L 299.72736 282.339321 
L 300.08448 281.692022 
L 300.4416 282.195477 
L 300.79872 282.051632 
L 301.15584 282.123555 
L 301.51296 282.051632 
L 301.87008 282.483165 
L 302.2272 281.260489 
L 302.58432 282.483165 
L 302.94144 281.404333 
L 303.29856 282.411243 
L 303.65568 282.555088 
L 304.0128 282.483165 
L 304.36992 281.763944 
L 304.72704 281.835866 
L 305.08416 281.692022 
L 305.44128 282.698932 
L 305.7984 282.051632 
L 306.15552 282.483165 
L 306.51264 282.483165 
L 306.86976 281.835866 
L 307.22688 282.267399 
L 307.584 283.130465 
L 307.94112 282.339321 
L 308.29824 282.555088 
L 308.65536 282.483165 
L 309.01248 282.986621 
L 309.3696 282.555088 
L 309.72672 281.835866 
L 310.08384 282.555088 
L 310.79808 282.051632 
L 311.1552 283.346231 
L 311.51232 283.130465 
L 311.86944 282.339321 
L 312.22656 282.195477 
L 312.58368 283.490076 
L 312.9408 281.692022 
L 313.29792 282.986621 
L 313.65504 281.763944 
L 314.01216 282.62701 
L 314.36928 282.483165 
L 314.7264 282.123555 
L 315.08352 282.339321 
L 315.79776 282.051632 
L 316.15488 282.698932 
L 316.512 282.770854 
L 316.86912 281.692022 
L 317.22624 282.555088 
L 317.94048 282.770854 
L 318.2976 282.339321 
L 318.65472 282.842776 
L 319.01184 283.058543 
L 319.36896 283.777764 
L 319.72608 282.051632 
L 320.0832 282.267399 
L 320.44032 283.130465 
L 320.79744 282.698932 
L 321.15456 282.483165 
L 321.51168 283.058543 
L 321.8688 282.62701 
L 322.22592 282.411243 
L 322.58304 282.483165 
L 322.94016 283.130465 
L 323.29728 282.123555 
L 323.6544 282.62701 
L 324.01152 282.339321 
L 324.36864 282.483165 
L 324.72576 282.770854 
L 325.08288 282.267399 
L 325.44 282.914698 
L 325.79712 282.986621 
L 326.15424 283.418154 
L 326.51136 282.842776 
L 326.86848 282.483165 
L 327.2256 282.339321 
L 327.58272 282.986621 
L 327.93984 282.914698 
L 328.29696 283.130465 
L 328.65408 282.986621 
L 329.0112 282.339321 
L 329.36832 282.339321 
L 329.72544 282.483165 
L 330.08256 283.130465 
L 330.43968 283.058543 
L 330.7968 283.202387 
L 331.15392 282.555088 
L 331.86816 282.698932 
L 332.22528 283.130465 
L 332.5824 282.770854 
L 332.93952 282.698932 
L 333.29664 282.914698 
L 333.65376 282.123555 
L 334.01088 282.483165 
L 334.368 283.202387 
L 335.08224 283.346231 
L 335.43936 282.698932 
L 335.79648 282.986621 
L 336.1536 282.986621 
L 336.51072 283.202387 
L 336.86784 282.555088 
L 337.22496 282.62701 
L 337.58208 282.555088 
L 337.9392 283.274309 
L 338.29632 282.62701 
L 338.65344 283.202387 
L 339.01056 282.62701 
L 339.7248 282.914698 
L 340.08192 282.555088 
L 340.43904 282.914698 
L 340.79616 282.195477 
L 341.15328 282.195477 
L 341.5104 283.490076 
L 341.86752 281.97971 
L 342.22464 282.770854 
L 342.58176 282.483165 
L 342.93888 283.130465 
L 343.296 282.195477 
L 343.65312 282.195477 
L 344.01024 282.842776 
L 344.36736 282.555088 
L 345.0816 282.411243 
L 345.43872 283.130465 
L 345.79584 282.698932 
L 346.15296 282.698932 
L 346.51008 283.058543 
L 346.8672 282.339321 
L 347.22432 282.986621 
L 347.58144 283.274309 
L 347.93856 281.97971 
L 348.6528 282.770854 
L 349.36704 282.195477 
L 349.72416 282.986621 
L 350.08128 283.274309 
L 350.4384 282.914698 
L 350.79552 282.267399 
L 351.15264 282.267399 
L 351.86688 282.842776 
L 352.224 282.986621 
L 352.58112 282.051632 
L 352.93824 282.483165 
L 353.65248 282.267399 
L 354.0096 282.986621 
L 354.36672 282.555088 
L 355.08096 283.058543 
L 355.43808 282.842776 
L 355.7952 282.411243 
L 356.86656 282.914698 
L 357.22368 282.195477 
L 357.5808 282.62701 
L 357.93792 282.842776 
L 358.29504 282.483165 
L 358.65216 282.914698 
L 359.00928 282.483165 
L 359.3664 283.130465 
L 359.72352 282.267399 
L 360.08064 282.123555 
L 360.43776 282.195477 
L 360.79488 281.97971 
L 361.152 282.770854 
L 361.86624 282.555088 
L 362.22336 282.986621 
L 362.58048 282.770854 
L 362.9376 282.267399 
L 363.29472 282.051632 
L 363.65184 282.555088 
L 364.36608 282.770854 
L 364.7232 282.698932 
L 365.08032 282.483165 
L 365.43744 281.692022 
L 365.79456 282.770854 
L 366.15168 283.058543 
L 366.5088 282.411243 
L 366.86592 282.483165 
L 367.22304 282.698932 
L 367.58016 282.267399 
L 367.93728 282.555088 
L 368.2944 283.346231 
L 368.65152 281.835866 
L 369.00864 281.404333 
L 369.72288 282.770854 
L 370.08 283.058543 
L 370.43712 283.202387 
L 370.79424 282.123555 
L 371.15136 282.123555 
L 371.50848 282.62701 
L 371.8656 281.907788 
L 372.22272 282.914698 
L 372.93696 282.267399 
L 373.29408 282.770854 
L 373.6512 282.986621 
L 374.00832 282.483165 
L 374.36544 282.555088 
L 374.72256 281.620099 
L 375.07968 282.195477 
L 375.4368 282.411243 
L 375.79392 282.483165 
L 376.15104 281.835866 
L 376.50816 282.483165 
L 376.86528 282.051632 
L 377.2224 282.555088 
L 377.57952 282.555088 
L 377.93664 282.339321 
L 378.29376 282.339321 
L 378.65088 281.907788 
L 379.008 282.267399 
L 379.36512 281.907788 
L 379.72224 282.483165 
L 380.07936 283.346231 
L 380.43648 282.267399 
L 380.7936 282.62701 
L 381.50784 281.763944 
L 381.86496 282.411243 
L 382.22208 282.195477 
L 382.5792 282.267399 
L 382.93632 283.058543 
L 383.29344 282.483165 
L 383.65056 282.62701 
L 384.00768 282.914698 
L 384.3648 282.555088 
L 384.72192 283.058543 
L 385.07904 281.763944 
L 385.43616 282.698932 
L 385.79328 282.411243 
L 386.50752 283.202387 
L 386.86464 282.339321 
L 387.22176 282.770854 
L 387.936 282.267399 
L 388.29312 282.195477 
L 389.00736 282.842776 
L 389.36448 282.698932 
L 389.7216 282.698932 
L 390.07872 282.842776 
L 390.43584 282.411243 
L 391.15008 283.202387 
L 391.5072 282.411243 
L 391.86432 283.202387 
L 392.22144 282.698932 
L 392.57856 282.842776 
L 393.2928 282.267399 
L 393.64992 283.058543 
L 394.00704 282.842776 
L 394.36416 282.842776 
L 394.72128 283.130465 
L 395.0784 282.123555 
L 395.43552 282.698932 
L 396.14976 282.339321 
L 396.50688 283.202387 
L 396.864 282.123555 
L 397.22112 282.914698 
L 397.57824 282.914698 
L 397.93536 282.555088 
L 398.6496 282.555088 
L 399.00672 282.770854 
L 399.36384 282.051632 
L 399.72096 282.62701 
L 400.07808 282.770854 
L 400.4352 282.267399 
L 400.79232 283.058543 
L 401.14944 282.770854 
L 401.50656 282.698932 
L 401.86368 282.483165 
L 402.2208 282.770854 
L 402.57792 281.907788 
L 402.93504 282.698932 
L 403.29216 282.698932 
L 403.64928 282.842776 
L 404.0064 282.411243 
L 404.36352 283.058543 
L 404.72064 282.483165 
L 405.07776 282.698932 
L 405.43488 282.123555 
L 405.792 282.195477 
L 406.14912 282.555088 
L 406.50624 282.339321 
L 407.22048 283.058543 
L 407.93472 282.698932 
L 408.29184 283.058543 
L 408.64896 282.483165 
L 409.00608 282.698932 
L 409.3632 282.411243 
L 409.72032 282.411243 
L 410.07744 282.770854 
L 410.43456 282.914698 
L 410.79168 282.914698 
L 411.50592 282.051632 
L 411.86304 282.339321 
L 412.22016 282.123555 
L 412.57728 283.058543 
L 412.9344 282.555088 
L 413.29152 282.411243 
L 413.64864 282.411243 
L 414.00576 282.986621 
L 414.36288 282.195477 
L 414.72 282.842776 
L 414.72 282.842776 
" style="fill:none;stroke:#1f77b4;stroke-linecap:square;stroke-width:1.2;"/>
   </g>
   <g id="patch_3">
    <path d="M 57.6 307.584 
L 57.6 41.472 
" style="fill:none;stroke:#000000;stroke-linecap:square;stroke-linejoin:miter;"/>
   </g>
   <g id="patch_4">
    <path d="M 414.72 307.584 
L 414.72 41.472 
" style="fill:none;stroke:#000000;stroke-linecap:square;stroke-linejoin:miter;"/>
   </g>
   <g id="patch_5">
    <path d="M 57.6 307.584 
L 414.72 307.584 
" style="fill:none;stroke:#000000;stroke-linecap:square;stroke-linejoin:miter;"/>
   </g>
   <g id="patch_6">
    <path d="M 57.6 41.472 
L 414.72 41.472 
" style="fill:none;stroke:#000000;stroke-linecap:square;stroke-linejoin:miter;"/>
   </g>
   <g id="text_17">
    <!-- Training - OpenAI-ES - Slimevolley -->
    <g transform="translate(154.74225 35.472)scale(0.096 -0.096)">
     <defs>
      <path d="M 3513 2113 
L 3513 0 
L 2938 0 
L 2938 2094 
Q 2938 2591 2744 2837 
Q 2550 3084 2163 3084 
Q 1697 3084 1428 2787 
Q 1159 2491 1159 1978 
L 1159 0 
L 581 0 
L 581 3500 
L 1159 3500 
L 1159 2956 
Q 1366 3272 1645 3428 
Q 1925 3584 2291 3584 
Q 2894 3584 3203 3211 
Q 3513 2838 3513 2113 
z
" id="DejaVuSans-6e" transform="scale(0.015625)"/>
      <path d="M 2906 1791 
Q 2906 2416 2648 2759 
Q 2391 3103 1925 3103 
Q 1463 3103 1205 2759 
Q 947 2416 947 1791 
Q 947 1169 1205 825 
Q 1463 481 1925 481 
Q 2391 481 2648 825 
Q 2906 1169 2906 1791 
z
M 3481 434 
Q 3481 -459 3084 -895 
Q 2688 -1331 1869 -1331 
Q 1566 -1331 1297 -1286 
Q 1028 -1241 775 -1147 
L 775 -588 
Q 1028 -725 1275 -790 
Q 1522 -856 1778 -856 
Q 2344 -856 2625 -561 
Q 2906 -266 2906 331 
L 2906 616 
Q 2728 306 2450 153 
Q 2172 0 1784 0 
Q 1141 0 747 490 
Q 353 981 353 1791 
Q 353 2603 747 3093 
Q 1141 3584 1784 3584 
Q 2172 3584 2450 3431 
Q 2728 3278 2906 2969 
L 2906 3500 
L 3481 3500 
L 3481 434 
z
" id="DejaVuSans-67" transform="scale(0.015625)"/>
      <path id="DejaVuSans-20" transform="scale(0.015625)"/>
      <path d="M 313 2009 
L 1997 2009 
L 1997 1497 
L 313 1497 
L 313 2009 
z
" id="DejaVuSans-2d" transform="scale(0.015625)"/>
      <path d="M 2522 4238 
Q 1834 4238 1429 3725 
Q 1025 3213 1025 2328 
Q 1025 1447 1429 934 
Q 1834 422 2522 422 
Q 3209 422 3611 934 
Q 4013 1447 4013 2328 
Q 4013 3213 3611 3725 
Q 3209 4238 2522 4238 
z
M 2522 4750 
Q 3503 4750 4090 4092 
Q 4678 3434 4678 2328 
Q 4678 1225 4090 567 
Q 3503 -91 2522 -91 
Q 1538 -91 948 565 
Q 359 1222 359 2328 
Q 359 3434 948 4092 
Q 1538 4750 2522 4750 
z
" id="DejaVuSans-4f" transform="scale(0.015625)"/>
      <path d="M 2188 4044 
L 1331 1722 
L 3047 1722 
L 2188 4044 
z
M 1831 4666 
L 2547 4666 
L 4325 0 
L 3669 0 
L 3244 1197 
L 1141 1197 
L 716 0 
L 50 0 
L 1831 4666 
z
" id="DejaVuSans-41" transform="scale(0.015625)"/>
      <path d="M 628 4666 
L 1259 4666 
L 1259 0 
L 628 0 
L 628 4666 
z
" id="DejaVuSans-49" transform="scale(0.015625)"/>
      <path d="M 628 4666 
L 3578 4666 
L 3578 4134 
L 1259 4134 
L 1259 2753 
L 3481 2753 
L 3481 2222 
L 1259 2222 
L 1259 531 
L 3634 531 
L 3634 0 
L 628 0 
L 628 4666 
z
" id="DejaVuSans-45" transform="scale(0.015625)"/>
      <path d="M 3425 4513 
L 3425 3897 
Q 3066 4069 2747 4153 
Q 2428 4238 2131 4238 
Q 1616 4238 1336 4038 
Q 1056 3838 1056 3469 
Q 1056 3159 1242 3001 
Q 1428 2844 1947 2747 
L 2328 2669 
Q 3034 2534 3370 2195 
Q 3706 1856 3706 1288 
Q 3706 609 3251 259 
Q 2797 -91 1919 -91 
Q 1588 -91 1214 -16 
Q 841 59 441 206 
L 441 856 
Q 825 641 1194 531 
Q 1563 422 1919 422 
Q 2459 422 2753 634 
Q 3047 847 3047 1241 
Q 3047 1584 2836 1778 
Q 2625 1972 2144 2069 
L 1759 2144 
Q 1053 2284 737 2584 
Q 422 2884 422 3419 
Q 422 4038 858 4394 
Q 1294 4750 2059 4750 
Q 2388 4750 2728 4690 
Q 3069 4631 3425 4513 
z
" id="DejaVuSans-53" transform="scale(0.015625)"/>
      <path d="M 603 4863 
L 1178 4863 
L 1178 0 
L 603 0 
L 603 4863 
z
" id="DejaVuSans-6c" transform="scale(0.015625)"/>
      <path d="M 191 3500 
L 800 3500 
L 1894 563 
L 2988 3500 
L 3597 3500 
L 2284 0 
L 1503 0 
L 191 3500 
z
" id="DejaVuSans-76" transform="scale(0.015625)"/>
      <path d="M 1959 3097 
Q 1497 3097 1228 2736 
Q 959 2375 959 1747 
Q 959 1119 1226 758 
Q 1494 397 1959 397 
Q 2419 397 2687 759 
Q 2956 1122 2956 1747 
Q 2956 2369 2687 2733 
Q 2419 3097 1959 3097 
z
M 1959 3584 
Q 2709 3584 3137 3096 
Q 3566 2609 3566 1747 
Q 3566 888 3137 398 
Q 2709 -91 1959 -91 
Q 1206 -91 779 398 
Q 353 888 353 1747 
Q 353 2609 779 3096 
Q 1206 3584 1959 3584 
z
" id="DejaVuSans-6f" transform="scale(0.015625)"/>
      <path d="M 2059 -325 
Q 1816 -950 1584 -1140 
Q 1353 -1331 966 -1331 
L 506 -1331 
L 506 -850 
L 844 -850 
Q 1081 -850 1212 -737 
Q 1344 -625 1503 -206 
L 1606 56 
L 191 3500 
L 800 3500 
L 1894 763 
L 2988 3500 
L 3597 3500 
L 2059 -325 
z
" id="DejaVuSans-79" transform="scale(0.015625)"/>
     </defs>
     <use xlink:href="#DejaVuSans-54"/>
     <use x="46.333984" xlink:href="#DejaVuSans-72"/>
     <use x="87.447266" xlink:href="#DejaVuSans-61"/>
     <use x="148.726562" xlink:href="#DejaVuSans-69"/>
     <use x="176.509766" xlink:href="#DejaVuSans-6e"/>
     <use x="239.888672" xlink:href="#DejaVuSans-69"/>
     <use x="267.671875" xlink:href="#DejaVuSans-6e"/>
     <use x="331.050781" xlink:href="#DejaVuSans-67"/>
     <use x="394.527344" xlink:href="#DejaVuSans-20"/>
     <use x="426.314453" xlink:href="#DejaVuSans-2d"/>
     <use x="462.398438" xlink:href="#DejaVuSans-20"/>
     <use x="494.185547" xlink:href="#DejaVuSans-4f"/>
     <use x="572.896484" xlink:href="#DejaVuSans-70"/>
     <use x="636.373047" xlink:href="#DejaVuSans-65"/>
     <use x="697.896484" xlink:href="#DejaVuSans-6e"/>
     <use x="761.275391" xlink:href="#DejaVuSans-41"/>
     <use x="829.683594" xlink:href="#DejaVuSans-49"/>
     <use x="859.175781" xlink:href="#DejaVuSans-2d"/>
     <use x="895.259766" xlink:href="#DejaVuSans-45"/>
     <use x="958.443359" xlink:href="#DejaVuSans-53"/>
     <use x="1021.919922" xlink:href="#DejaVuSans-20"/>
     <use x="1053.707031" xlink:href="#DejaVuSans-2d"/>
     <use x="1089.791016" xlink:href="#DejaVuSans-20"/>
     <use x="1121.578125" xlink:href="#DejaVuSans-53"/>
     <use x="1185.054688" xlink:href="#DejaVuSans-6c"/>
     <use x="1212.837891" xlink:href="#DejaVuSans-69"/>
     <use x="1240.621094" xlink:href="#DejaVuSans-6d"/>
     <use x="1338.033203" xlink:href="#DejaVuSans-65"/>
     <use x="1399.556641" xlink:href="#DejaVuSans-76"/>
     <use x="1458.736328" xlink:href="#DejaVuSans-6f"/>
     <use x="1519.917969" xlink:href="#DejaVuSans-6c"/>
     <use x="1547.701172" xlink:href="#DejaVuSans-6c"/>
     <use x="1575.484375" xlink:href="#DejaVuSans-65"/>
     <use x="1637.007812" xlink:href="#DejaVuSans-79"/>
    </g>
   </g>
  </g>
 </g>
 <defs>
  <clipPath id="p1aae467506">
   <rect height="266.112" width="357.12" x="57.6" y="41.472"/>
  </clipPath>
 </defs>
</svg>
