<?xml version="1.0" encoding="utf-8" standalone="no"?>
<!DOCTYPE svg PUBLIC "-//W3C//DTD SVG 1.1//EN"
  "http://www.w3.org/Graphics/SVG/1.1/DTD/svg11.dtd">
<svg height="345.6pt" version="1.1" viewBox="0 0 460.8 345.6" width="460.8pt" xmlns="http://www.w3.org/2000/svg" xmlns:xlink="http://www.w3.org/1999/xlink">
 <metadata>
  <rdf:RDF xmlns:cc="http://creativecommons.org/ns#" xmlns:dc="http://purl.org/dc/elements/1.1/" xmlns:rdf="http://www.w3.org/1999/02/22-rdf-syntax-ns#">
   <cc:Work>
    <dc:type rdf:resource="http://purl.org/dc/dcmitype/StillImage"/>
    <dc:date>2021-07-22T00:42:19.576672</dc:date>
    <dc:format>image/svg+xml</dc:format>
    <dc:creator>
     <cc:Agent>
      <dc:title>Matplotlib v3.4.2, https://matplotlib.org/</dc:title>
     </cc:Agent>
    </dc:creator>
   </cc:Work>
  </rdf:RDF>
 </metadata>
 <defs>
  <style type="text/css">*{stroke-linecap:butt;stroke-linejoin:round;}</style>
 </defs>
 <g id="figure_1">
  <g id="patch_1">
   <path d="M 0 345.6 
L 460.8 345.6 
L 460.8 0 
L 0 0 
z
" style="fill:#ffffff;"/>
  </g>
  <g id="axes_1">
   <g id="patch_2">
    <path d="M 57.6 307.584 
L 414.72 307.584 
L 414.72 41.472 
L 57.6 41.472 
z
" style="fill:#ffffff;"/>
   </g>
   <g id="PolyCollection_1">
    <path clip-path="url(#p99220212ec)" d="M 73.832727 275.1824 
L 73.832727 279.27264 
L 74.158359 280.13504 
L 74.48399 278.632 
L 74.809622 278.31168 
L 75.135253 279.6176 
L 75.460884 280.20896 
L 75.786516 279.88864 
L 76.112147 279.39584 
L 76.437779 277.32608 
L 76.76341 279.27264 
L 77.089042 279.3712 
L 77.414673 279.7408 
L 77.740305 277.17824 
L 78.065936 277.7696 
L 78.391567 279.96256 
L 78.717199 280.28288 
L 79.04283 280.30752 
L 79.368462 279.54368 
L 79.694093 276.61152 
L 80.019725 275.33024 
L 80.345356 277.47392 
L 80.670988 274.71424 
L 80.996619 278.632 
L 81.32225 276.83328 
L 81.647882 274.78816 
L 81.973513 277.5232 
L 82.299145 278.60736 
L 82.624776 278.70592 
L 82.950408 275.552 
L 83.276039 274.17216 
L 83.60167 279.4944 
L 83.927302 278.21312 
L 84.252933 277.91744 
L 84.578565 277.22752 
L 84.904196 276.43904 
L 85.229828 279.0016 
L 85.555459 279.19872 
L 85.881091 275.84768 
L 86.206722 280.08576 
L 86.532353 276.63616 
L 86.857985 276.0448 
L 87.183616 278.41024 
L 87.509248 279.39584 
L 87.834879 279.29728 
L 88.160511 278.21312 
L 88.486142 277.0304 
L 88.811774 278.11456 
L 89.137405 280.08576 
L 89.463036 275.65056 
L 89.788668 278.70592 
L 90.114299 274.66496 
L 90.439931 275.35488 
L 90.765562 275.84768 
L 91.091194 274.0736 
L 91.416825 274.0736 
L 91.742456 275.552 
L 92.068088 274.27072 
L 92.393719 279.19872 
L 92.719351 277.81888 
L 93.044982 273.48224 
L 93.370614 275.35488 
L 93.696245 273.5808 
L 94.021877 273.28512 
L 94.347508 279.59296 
L 94.673139 278.016 
L 94.998771 273.67936 
L 95.324402 275.552 
L 95.650034 279.59296 
L 95.975665 276.73472 
L 96.301297 278.70592 
L 96.626928 277.62176 
L 96.952559 279.10016 
L 97.278191 275.94624 
L 97.603822 275.552 
L 97.929454 274.86208 
L 98.255085 274.0736 
L 98.580717 279.59296 
L 98.906348 273.87648 
L 99.23198 274.76352 
L 99.557611 274.96064 
L 99.883242 275.84768 
L 100.208874 277.62176 
L 100.534505 274.36928 
L 100.860137 277.0304 
L 101.185768 273.97504 
L 101.5114 275.15776 
L 101.837031 274.0736 
L 102.162663 274.27072 
L 102.488294 274.86208 
L 102.813925 274.36928 
L 103.139557 277.22752 
L 103.465188 273.87648 
L 103.79082 273.87648 
L 104.116451 276.14336 
L 104.442083 272.98944 
L 104.767714 276.83328 
L 105.093345 276.34048 
L 105.418977 272.98944 
L 105.744608 279.29728 
L 106.07024 277.5232 
L 106.395871 278.90304 
L 106.721503 273.67936 
L 107.047134 273.5808 
L 107.372766 274.5664 
L 107.698397 279.88864 
L 108.024028 276.73472 
L 108.34966 278.016 
L 108.675291 275.25632 
L 109.000923 275.84768 
L 109.326554 275.552 
L 109.652186 278.80448 
L 109.977817 276.34048 
L 110.303449 276.93184 
L 110.62908 275.65056 
L 110.954711 274.5664 
L 111.280343 274.27072 
L 111.605974 274.66496 
L 111.931606 273.97504 
L 112.257237 275.35488 
L 112.582869 274.46784 
L 112.9085 277.72032 
L 113.234131 276.14336 
L 113.559763 276.63616 
L 113.885394 274.17216 
L 114.211026 276.24192 
L 114.536657 274.76352 
L 114.862289 274.86208 
L 115.18792 274.66496 
L 115.513552 278.90304 
L 115.839183 273.67936 
L 116.164814 274.86208 
L 116.490446 274.0736 
L 116.816077 276.73472 
L 117.141709 275.94624 
L 117.46734 274.96064 
L 117.792972 277.12896 
L 118.118603 274.17216 
L 118.444235 274.27072 
L 118.769866 274.5664 
L 119.095497 276.83328 
L 119.421129 275.15776 
L 119.74676 278.016 
L 120.072392 274.0736 
L 120.398023 276.43904 
L 120.723655 277.32608 
L 121.049286 276.24192 
L 121.374917 275.0592 
L 121.700549 275.65056 
L 122.02618 278.60736 
L 122.351812 273.87648 
L 122.677443 275.15776 
L 123.003075 276.73472 
L 123.328706 274.27072 
L 123.654338 273.77792 
L 123.979969 274.27072 
L 124.3056 275.552 
L 124.631232 275.552 
L 124.956863 277.0304 
L 125.282495 275.84768 
L 125.608126 275.35488 
L 125.933758 274.66496 
L 126.259389 275.94624 
L 126.585021 275.74912 
L 126.910652 274.86208 
L 127.236283 274.66496 
L 127.561915 275.74912 
L 127.887546 276.5376 
L 128.213178 276.83328 
L 128.538809 275.25632 
L 128.864441 274.5664 
L 129.190072 275.0592 
L 129.515703 276.43904 
L 129.841335 276.43904 
L 130.166966 275.15776 
L 130.492598 275.15776 
L 130.818229 276.14336 
L 131.143861 275.45344 
L 131.469492 276.14336 
L 131.795124 275.25632 
L 132.120755 278.31168 
L 132.446386 273.77792 
L 132.772018 276.83328 
L 133.097649 275.65056 
L 133.423281 275.0592 
L 133.748912 276.43904 
L 134.074544 277.62176 
L 134.400175 277.81888 
L 134.725807 276.34048 
L 135.051438 275.84768 
L 135.377069 277.12896 
L 135.702701 279.29728 
L 136.028332 274.76352 
L 136.353964 276.24192 
L 136.679595 275.0592 
L 137.005227 276.34048 
L 137.330858 278.11456 
L 137.656489 276.24192 
L 137.982121 276.0448 
L 138.307752 274.27072 
L 138.633384 273.48224 
L 138.959015 276.63616 
L 139.284647 278.11456 
L 139.610278 274.27072 
L 139.93591 275.0592 
L 140.261541 275.74912 
L 140.587172 275.15776 
L 140.912804 276.73472 
L 141.238435 277.22752 
L 141.564067 275.35488 
L 141.889698 279.9872 
L 142.21533 276.24192 
L 142.540961 279.10016 
L 142.866593 276.14336 
L 143.192224 279.88864 
L 143.517855 275.0592 
L 143.843487 275.552 
L 144.169118 275.35488 
L 144.49475 276.73472 
L 144.820381 276.34048 
L 145.146013 277.32608 
L 145.471644 278.016 
L 145.797275 275.94624 
L 146.122907 275.84768 
L 146.448538 273.48224 
L 146.77417 277.0304 
L 147.099801 277.42464 
L 147.425433 276.93184 
L 147.751064 279.10016 
L 148.076696 279.39584 
L 148.402327 277.32608 
L 148.727958 276.24192 
L 149.05359 278.90304 
L 149.379221 276.73472 
L 149.704853 276.0448 
L 150.030484 276.93184 
L 150.356116 275.552 
L 150.681747 276.93184 
L 151.007378 276.0448 
L 151.33301 278.60736 
L 151.658641 278.016 
L 151.984273 275.84768 
L 152.309904 277.22752 
L 152.635536 279.0016 
L 152.961167 277.62176 
L 153.286799 278.70592 
L 153.61243 277.81888 
L 153.938061 276.14336 
L 154.263693 275.15776 
L 154.589324 278.41024 
L 154.914956 277.91744 
L 155.240587 279.29728 
L 155.566219 279.4944 
L 155.89185 279.0016 
L 156.217482 275.45344 
L 156.543113 279.29728 
L 156.868744 276.14336 
L 157.194376 277.42464 
L 157.520007 277.81888 
L 157.845639 279.29728 
L 158.17127 274.76352 
L 158.496902 278.60736 
L 158.822533 278.31168 
L 159.148164 277.32608 
L 159.473796 280.08576 
L 159.799427 278.80448 
L 160.125059 278.11456 
L 160.45069 276.14336 
L 160.776322 277.72032 
L 161.101953 278.21312 
L 161.427585 279.39584 
L 161.753216 274.86208 
L 162.078847 277.0304 
L 162.404479 278.90304 
L 162.73011 280.38144 
L 163.055742 279.10016 
L 163.381373 276.5376 
L 163.707005 277.5232 
L 164.032636 276.0448 
L 164.358268 279.10016 
L 164.683899 279.88864 
L 165.00953 274.86208 
L 165.335162 279.69152 
L 165.660793 277.72032 
L 165.986425 280.67712 
L 166.312056 279.69152 
L 166.637688 279.4944 
L 166.963319 276.34048 
L 167.28895 278.41024 
L 167.614582 276.83328 
L 167.940213 277.5232 
L 168.265845 279.79008 
L 168.591476 276.14336 
L 168.917108 279.10016 
L 169.242739 278.41024 
L 169.568371 279.88864 
L 169.894002 278.60736 
L 170.219633 276.34048 
L 170.545265 278.80448 
L 170.870896 280.18432 
L 171.196528 279.88864 
L 171.522159 280.67712 
L 171.847791 279.39584 
L 172.173422 276.24192 
L 172.499054 278.016 
L 172.824685 279.10016 
L 173.150316 277.32608 
L 173.475948 278.60736 
L 173.801579 279.39584 
L 174.127211 278.21312 
L 174.452842 277.5232 
L 174.778474 277.12896 
L 175.104105 277.32608 
L 175.429736 281.66272 
L 175.755368 275.35488 
L 176.080999 278.80448 
L 176.406631 277.42464 
L 176.732262 277.42464 
L 177.057894 278.21312 
L 177.383525 278.80448 
L 177.709157 279.59296 
L 178.034788 278.60736 
L 178.360419 279.9872 
L 178.686051 278.70592 
L 179.011682 279.79008 
L 179.337314 278.21312 
L 179.662945 276.24192 
L 179.988577 276.5376 
L 180.314208 278.11456 
L 180.63984 277.0304 
L 180.965471 278.90304 
L 181.291102 279.19872 
L 181.616734 277.72032 
L 181.942365 278.21312 
L 182.267997 278.60736 
L 182.593628 275.65056 
L 182.91926 278.60736 
L 183.244891 278.80448 
L 183.570522 276.93184 
L 183.896154 277.0304 
L 184.221785 280.18432 
L 184.547417 277.22752 
L 184.873048 279.10016 
L 185.19868 279.10016 
L 185.524311 280.18432 
L 185.849943 277.42464 
L 186.175574 278.11456 
L 186.501205 278.11456 
L 186.826837 279.4944 
L 187.152468 277.22752 
L 187.4781 278.80448 
L 187.803731 276.43904 
L 188.129363 279.4944 
L 188.454994 279.79008 
L 188.780626 280.67712 
L 189.106257 277.72032 
L 189.431888 278.70592 
L 189.75752 276.93184 
L 190.083151 276.34048 
L 190.408783 278.31168 
L 190.734414 278.11456 
L 191.060046 276.5376 
L 191.385677 274.86208 
L 191.711308 281.26848 
L 192.03694 279.39584 
L 192.362571 276.5376 
L 192.688203 279.0016 
L 193.013834 277.42464 
L 193.339466 278.60736 
L 193.665097 279.88864 
L 193.990729 278.70592 
L 194.31636 275.74912 
L 194.641991 280.87424 
L 194.967623 278.21312 
L 195.293254 278.5088 
L 195.618886 276.73472 
L 195.944517 277.91744 
L 196.270149 278.21312 
L 196.59578 277.12896 
L 196.921412 278.5088 
L 197.247043 275.74912 
L 197.572674 276.24192 
L 197.898306 277.12896 
L 198.223937 279.69152 
L 198.549569 278.5088 
L 198.8752 278.70592 
L 199.200832 278.80448 
L 199.526463 276.24192 
L 199.852094 276.5376 
L 200.177726 279.39584 
L 200.503357 278.31168 
L 200.828989 278.11456 
L 201.15462 278.90304 
L 201.480252 278.70592 
L 201.805883 276.34048 
L 202.131515 278.70592 
L 202.457146 276.14336 
L 202.782777 279.4944 
L 203.108409 277.81888 
L 203.43404 277.5232 
L 203.759672 279.0016 
L 204.085303 276.63616 
L 204.410935 278.31168 
L 204.736566 277.62176 
L 205.062198 276.0448 
L 205.387829 278.41024 
L 205.71346 277.72032 
L 206.039092 278.016 
L 206.364723 274.96064 
L 206.690355 278.60736 
L 207.015986 276.34048 
L 207.341618 278.31168 
L 207.667249 276.5376 
L 207.99288 276.34048 
L 208.318512 277.72032 
L 208.644143 276.5376 
L 208.969775 277.72032 
L 209.295406 278.5088 
L 209.621038 276.34048 
L 209.946669 276.63616 
L 210.272301 274.76352 
L 210.597932 277.0304 
L 210.923563 277.81888 
L 211.249195 277.91744 
L 211.574826 277.42464 
L 211.900458 276.43904 
L 212.226089 276.93184 
L 212.551721 280.38144 
L 212.877352 276.5376 
L 213.202983 277.42464 
L 213.528615 278.11456 
L 213.854246 275.65056 
L 214.179878 278.80448 
L 214.505509 274.76352 
L 214.831141 278.70592 
L 215.156772 275.65056 
L 215.482404 277.81888 
L 215.808035 279.59296 
L 216.133666 276.43904 
L 216.459298 278.31168 
L 216.784929 276.14336 
L 217.110561 279.29728 
L 217.436192 276.14336 
L 217.761824 278.80448 
L 218.087455 279.9872 
L 218.413087 277.32608 
L 218.738718 276.73472 
L 219.064349 277.42464 
L 219.389981 278.31168 
L 219.715612 276.83328 
L 220.041244 275.65056 
L 220.366875 277.32608 
L 220.692507 277.32608 
L 221.018138 278.70592 
L 221.343769 279.19872 
L 221.669401 279.0016 
L 221.995032 279.19872 
L 222.320664 278.21312 
L 222.646295 279.88864 
L 222.971927 279.59296 
L 223.297558 276.73472 
L 223.62319 280.08576 
L 223.948821 277.5232 
L 224.274452 277.91744 
L 224.600084 277.81888 
L 224.925715 279.10016 
L 225.251347 278.11456 
L 225.576978 277.0304 
L 225.90261 278.31168 
L 226.228241 277.91744 
L 226.553873 277.12896 
L 226.879504 279.4944 
L 227.205135 277.42464 
L 227.530767 277.91744 
L 227.856398 278.21312 
L 228.18203 277.42464 
L 228.507661 279.59296 
L 228.833293 277.22752 
L 229.158924 280.9728 
L 229.484555 278.41024 
L 229.810187 279.0016 
L 230.135818 276.63616 
L 230.46145 276.73472 
L 230.787081 278.60736 
L 231.112713 277.5232 
L 231.438344 280.77568 
L 231.763976 278.90304 
L 232.089607 278.60736 
L 232.415238 278.11456 
L 232.74087 278.21312 
L 233.066501 277.91744 
L 233.392133 279.0016 
L 233.717764 277.81888 
L 234.043396 275.84768 
L 234.369027 277.32608 
L 234.694659 276.93184 
L 235.02029 277.12896 
L 235.345921 277.0304 
L 235.671553 276.0448 
L 235.997184 277.12896 
L 236.322816 279.10016 
L 236.648447 275.45344 
L 236.974079 279.39584 
L 237.29971 278.31168 
L 237.625341 276.63616 
L 237.950973 279.29728 
L 238.276604 276.63616 
L 238.602236 278.21312 
L 238.927867 275.94624 
L 239.253499 278.31168 
L 239.57913 277.42464 
L 239.904762 277.81888 
L 240.230393 276.14336 
L 240.556024 279.9872 
L 240.881656 276.93184 
L 241.207287 277.0304 
L 241.532919 277.22752 
L 241.85855 276.93184 
L 242.184182 277.42464 
L 242.509813 277.32608 
L 242.835445 277.91744 
L 243.161076 279.29728 
L 243.486707 279.19872 
L 243.812339 278.21312 
L 244.13797 277.0304 
L 244.463602 279.4944 
L 244.789233 277.91744 
L 245.114865 279.19872 
L 245.440496 276.73472 
L 245.766127 277.42464 
L 246.091759 279.29728 
L 246.41739 281.26848 
L 246.743022 278.60736 
L 247.068653 278.80448 
L 247.394285 278.90304 
L 247.719916 278.5088 
L 248.045548 278.80448 
L 248.371179 278.41024 
L 248.69681 276.93184 
L 249.022442 279.0016 
L 249.348073 277.91744 
L 249.673705 277.12896 
L 249.999336 279.19872 
L 250.324968 276.43904 
L 250.650599 275.94624 
L 250.976231 279.29728 
L 251.301862 280.18432 
L 251.627493 277.62176 
L 251.953125 278.60736 
L 252.278756 278.70592 
L 252.604388 279.39584 
L 252.930019 280.28288 
L 253.255651 277.91744 
L 253.581282 276.24192 
L 253.906913 280.08576 
L 254.232545 278.016 
L 254.558176 277.72032 
L 254.883808 278.90304 
L 255.209439 277.5232 
L 255.535071 278.21312 
L 255.860702 279.19872 
L 256.186334 275.94624 
L 256.511965 278.31168 
L 256.837596 279.10016 
L 257.163228 277.62176 
L 257.488859 278.70592 
L 257.814491 279.59296 
L 258.140122 279.4944 
L 258.465754 279.0016 
L 258.791385 278.11456 
L 259.117017 279.29728 
L 259.442648 279.10016 
L 259.768279 276.93184 
L 260.093911 279.39584 
L 260.419542 279.19872 
L 260.745174 278.70592 
L 261.070805 278.80448 
L 261.396437 279.4944 
L 261.722068 281.36704 
L 262.047699 278.80448 
L 262.373331 278.016 
L 262.698962 274.46784 
L 263.024594 277.22752 
L 263.350225 278.80448 
L 263.675857 279.0016 
L 264.001488 278.80448 
L 264.32712 279.29728 
L 264.652751 280.08576 
L 264.978382 281.07136 
L 265.304014 279.4944 
L 265.629645 278.016 
L 265.955277 277.0304 
L 266.280908 277.72032 
L 266.60654 276.73472 
L 266.932171 279.39584 
L 267.257802 279.10016 
L 267.583434 278.60736 
L 267.909065 279.39584 
L 268.234697 279.88864 
L 268.560328 277.0304 
L 268.88596 278.80448 
L 269.211591 278.11456 
L 269.537223 279.19872 
L 269.862854 278.90304 
L 270.188485 276.93184 
L 270.514117 279.10016 
L 270.839748 278.5088 
L 271.16538 279.19872 
L 271.491011 276.73472 
L 271.816643 279.0016 
L 272.142274 278.31168 
L 272.467906 279.39584 
L 272.793537 277.91744 
L 273.119168 278.90304 
L 273.4448 279.79008 
L 273.770431 279.0016 
L 274.096063 279.29728 
L 274.421694 279.10016 
L 274.747326 280.28288 
L 275.072957 277.12896 
L 275.398588 278.21312 
L 275.72422 280.48 
L 276.049851 278.60736 
L 276.375483 278.70592 
L 276.701114 278.41024 
L 277.026746 277.62176 
L 277.352377 279.59296 
L 277.678009 280.28288 
L 278.00364 279.4944 
L 278.329271 277.22752 
L 278.654903 277.72032 
L 278.980534 280.38144 
L 279.306166 278.80448 
L 279.631797 279.9872 
L 279.957429 279.10016 
L 280.28306 278.31168 
L 280.608692 279.39584 
L 280.934323 279.19872 
L 281.259954 277.5232 
L 281.585586 277.5232 
L 281.911217 277.81888 
L 282.236849 275.84768 
L 282.56248 278.80448 
L 282.888112 278.31168 
L 283.213743 278.11456 
L 283.539374 279.59296 
L 283.865006 277.32608 
L 284.190637 278.70592 
L 284.516269 278.60736 
L 284.8419 277.42464 
L 285.167532 276.83328 
L 285.493163 279.19872 
L 285.818795 279.39584 
L 286.144426 279.0016 
L 286.470057 279.69152 
L 286.795689 279.0016 
L 287.12132 279.0016 
L 287.446952 276.93184 
L 287.772583 277.81888 
L 288.098215 279.88864 
L 288.423846 278.80448 
L 288.749478 278.80448 
L 289.075109 276.73472 
L 289.40074 278.5088 
L 289.726372 279.39584 
L 290.052003 279.19872 
L 290.377635 278.60736 
L 290.703266 279.79008 
L 291.028898 279.0016 
L 291.354529 279.79008 
L 291.68016 279.4944 
L 292.005792 278.11456 
L 292.331423 277.62176 
L 292.657055 278.90304 
L 292.982686 277.62176 
L 293.308318 277.81888 
L 293.633949 277.22752 
L 293.959581 279.79008 
L 294.285212 278.016 
L 294.610843 278.90304 
L 294.936475 278.90304 
L 295.262106 278.80448 
L 295.587738 279.19872 
L 295.913369 279.19872 
L 296.239001 277.91744 
L 296.564632 278.80448 
L 296.890264 276.83328 
L 297.215895 277.0304 
L 297.541526 278.80448 
L 297.867158 277.22752 
L 298.192789 280.9728 
L 298.518421 279.39584 
L 298.844052 279.69152 
L 299.169684 279.4944 
L 299.495315 278.90304 
L 299.820946 278.21312 
L 300.146578 278.41024 
L 300.472209 278.21312 
L 300.797841 279.39584 
L 301.123472 279.29728 
L 301.449104 280.77568 
L 301.774735 278.11456 
L 302.100367 279.19872 
L 302.425998 279.4944 
L 302.751629 278.70592 
L 303.077261 277.42464 
L 303.402892 279.4944 
L 303.728524 279.88864 
L 304.054155 277.42464 
L 304.379787 277.22752 
L 304.705418 281.07136 
L 305.03105 279.9872 
L 305.356681 278.70592 
L 305.682312 279.19872 
L 306.007944 278.70592 
L 306.333575 280.28288 
L 306.659207 279.10016 
L 306.984838 279.59296 
L 307.31047 279.79008 
L 307.636101 278.31168 
L 307.961732 278.70592 
L 308.287364 279.29728 
L 308.612995 279.19872 
L 308.938627 278.11456 
L 309.264258 279.0016 
L 309.58989 277.91744 
L 309.915521 280.67712 
L 310.241153 278.60736 
L 310.566784 278.60736 
L 310.892415 278.70592 
L 311.218047 277.62176 
L 311.543678 278.60736 
L 311.86931 279.29728 
L 312.194941 277.12896 
L 312.520573 280.28288 
L 312.846204 279.59296 
L 313.171836 278.70592 
L 313.497467 278.80448 
L 313.823098 278.80448 
L 314.14873 276.24192 
L 314.474361 279.19872 
L 314.799993 279.9872 
L 315.125624 279.19872 
L 315.451256 280.08576 
L 315.776887 278.31168 
L 316.102518 279.69152 
L 316.42815 278.41024 
L 316.753781 277.72032 
L 317.079413 279.19872 
L 317.405044 281.07136 
L 317.730676 280.28288 
L 318.056307 278.90304 
L 318.381939 279.19872 
L 318.70757 280.08576 
L 319.033201 280.57856 
L 319.358833 279.39584 
L 319.684464 277.91744 
L 320.010096 279.4944 
L 320.335727 278.31168 
L 320.661359 278.90304 
L 320.98699 279.4944 
L 321.312622 279.79008 
L 321.638253 279.9872 
L 321.963884 277.81888 
L 322.289516 278.11456 
L 322.615147 276.73472 
L 322.940779 278.80448 
L 323.26641 277.32608 
L 323.592042 276.63616 
L 323.917673 278.80448 
L 324.243304 279.59296 
L 324.568936 278.90304 
L 324.894567 278.70592 
L 325.220199 279.69152 
L 325.54583 279.59296 
L 325.871462 278.41024 
L 326.197093 277.81888 
L 326.522725 278.60736 
L 326.848356 278.90304 
L 327.173987 278.60736 
L 327.499619 278.31168 
L 327.82525 279.88864 
L 328.150882 278.90304 
L 328.476513 279.19872 
L 328.802145 278.016 
L 329.127776 278.60736 
L 329.453407 276.43904 
L 329.779039 279.69152 
L 330.10467 277.22752 
L 330.430302 279.39584 
L 330.755933 279.9872 
L 331.081565 278.31168 
L 331.407196 280.67712 
L 331.732828 277.91744 
L 332.058459 280.08576 
L 332.38409 278.80448 
L 332.709722 278.31168 
L 333.035353 277.72032 
L 333.360985 280.08576 
L 333.686616 278.11456 
L 334.012248 278.80448 
L 334.337879 279.59296 
L 334.663511 279.10016 
L 334.989142 277.12896 
L 335.314773 278.60736 
L 335.640405 280.18432 
L 335.966036 278.11456 
L 336.291668 277.22752 
L 336.617299 278.11456 
L 336.942931 280.67712 
L 337.268562 277.12896 
L 337.594193 277.5232 
L 337.919825 276.73472 
L 338.245456 278.31168 
L 338.571088 278.90304 
L 338.896719 277.81888 
L 339.222351 279.4944 
L 339.547982 276.83328 
L 339.873614 278.016 
L 340.199245 278.21312 
L 340.524876 278.41024 
L 340.850508 279.29728 
L 341.176139 279.0016 
L 341.501771 279.59296 
L 341.827402 276.0448 
L 342.153034 279.4944 
L 342.478665 278.41024 
L 342.804297 280.38144 
L 343.129928 278.41024 
L 343.455559 278.60736 
L 343.781191 278.21312 
L 344.106822 280.48 
L 344.432454 278.41024 
L 344.758085 276.63616 
L 345.083717 278.70592 
L 345.409348 279.39584 
L 345.734979 278.11456 
L 346.060611 278.90304 
L 346.386242 278.5088 
L 346.711874 277.32608 
L 347.037505 280.08576 
L 347.363137 279.9872 
L 347.688768 276.14336 
L 348.0144 279.29728 
L 348.340031 277.91744 
L 348.665662 278.5088 
L 348.991294 280.38144 
L 349.316925 278.016 
L 349.642557 279.88864 
L 349.968188 277.91744 
L 350.29382 277.72032 
L 350.619451 277.91744 
L 350.945083 279.10016 
L 351.270714 278.90304 
L 351.596345 279.79008 
L 351.921977 279.29728 
L 352.247608 279.29728 
L 352.57324 279.19872 
L 352.898871 278.90304 
L 353.224503 276.43904 
L 353.550134 280.38144 
L 353.875765 279.19872 
L 354.201397 278.90304 
L 354.527028 278.21312 
L 354.85266 279.39584 
L 355.178291 276.0448 
L 355.503923 279.79008 
L 355.829554 279.19872 
L 356.155186 278.11456 
L 356.480817 279.19872 
L 356.806448 280.18432 
L 357.13208 278.41024 
L 357.457711 277.22752 
L 357.783343 278.016 
L 358.108974 277.81888 
L 358.434606 279.4944 
L 358.760237 276.83328 
L 359.085869 278.70592 
L 359.4115 278.60736 
L 359.737131 279.69152 
L 360.062763 275.65056 
L 360.388394 277.5232 
L 360.714026 279.4944 
L 361.039657 278.60736 
L 361.365289 278.21312 
L 361.69092 279.10016 
L 362.016551 277.72032 
L 362.342183 278.60736 
L 362.667814 279.19872 
L 362.993446 279.10016 
L 363.319077 278.5088 
L 363.644709 277.32608 
L 363.97034 279.0016 
L 364.295972 277.32608 
L 364.621603 278.11456 
L 364.947234 278.016 
L 365.272866 276.83328 
L 365.598497 279.4944 
L 365.924129 278.31168 
L 366.24976 280.38144 
L 366.575392 279.19872 
L 366.901023 278.60736 
L 367.226655 278.31168 
L 367.552286 278.90304 
L 367.877917 279.0016 
L 368.203549 278.31168 
L 368.52918 279.9872 
L 368.854812 277.81888 
L 369.180443 278.31168 
L 369.506075 279.39584 
L 369.831706 278.11456 
L 370.157337 278.5088 
L 370.482969 276.63616 
L 370.8086 278.90304 
L 371.134232 277.62176 
L 371.459863 279.39584 
L 371.785495 279.10016 
L 372.111126 279.69152 
L 372.436758 278.016 
L 372.762389 279.29728 
L 373.08802 280.08576 
L 373.413652 277.22752 
L 373.739283 280.87424 
L 374.064915 279.19872 
L 374.390546 278.60736 
L 374.716178 279.79008 
L 375.041809 278.31168 
L 375.367441 279.10016 
L 375.693072 279.39584 
L 376.018703 280.18432 
L 376.344335 279.29728 
L 376.669966 276.0448 
L 376.995598 279.29728 
L 377.321229 279.4944 
L 377.646861 277.81888 
L 377.972492 278.31168 
L 378.298123 279.19872 
L 378.623755 277.5232 
L 378.949386 279.0016 
L 379.275018 279.29728 
L 379.600649 277.81888 
L 379.926281 279.19872 
L 380.251912 277.12896 
L 380.577544 279.59296 
L 380.903175 278.80448 
L 381.228806 279.39584 
L 381.554438 279.0016 
L 381.880069 278.80448 
L 382.205701 278.5088 
L 382.531332 279.29728 
L 382.856964 279.69152 
L 383.182595 279.39584 
L 383.508226 278.41024 
L 383.833858 278.41024 
L 384.159489 276.24192 
L 384.485121 279.29728 
L 384.810752 279.0016 
L 385.136384 279.29728 
L 385.462015 278.11456 
L 385.787647 279.39584 
L 386.113278 279.59296 
L 386.438909 277.62176 
L 386.764541 278.90304 
L 387.090172 280.38144 
L 387.415804 279.29728 
L 387.741435 279.9872 
L 388.067067 278.60736 
L 388.392698 276.93184 
L 388.71833 279.29728 
L 389.043961 279.29728 
L 389.369592 279.0016 
L 389.695224 276.63616 
L 390.020855 276.73472 
L 390.346487 279.69152 
L 390.672118 280.08576 
L 390.99775 278.60736 
L 391.323381 280.28288 
L 391.649012 278.21312 
L 391.974644 276.0448 
L 392.300275 278.21312 
L 392.625907 277.12896 
L 392.951538 279.0016 
L 393.27717 277.91744 
L 393.602801 277.81888 
L 393.928433 280.77568 
L 394.254064 279.0016 
L 394.579695 279.19872 
L 394.905327 278.80448 
L 395.230958 280.38144 
L 395.55659 278.41024 
L 395.882221 278.11456 
L 396.207853 279.19872 
L 396.533484 279.88864 
L 396.859116 278.5088 
L 397.184747 278.70592 
L 397.510378 279.9872 
L 397.83601 278.016 
L 398.161641 277.99136 
L 398.487273 273.38368 
L 398.487273 273.38368 
L 398.487273 273.38368 
L 398.161641 274.5664 
L 397.83601 274.66496 
L 397.510378 275.45344 
L 397.184747 274.17216 
L 396.859116 273.48224 
L 396.533484 273.088 
L 396.207853 274.76352 
L 395.882221 272.69376 
L 395.55659 276.14336 
L 395.230958 272.69376 
L 394.905327 274.17216 
L 394.579695 273.38368 
L 394.254064 275.65056 
L 393.928433 274.0736 
L 393.602801 273.77792 
L 393.27717 272.89088 
L 392.951538 273.48224 
L 392.625907 272.98944 
L 392.300275 275.65056 
L 391.974644 273.18656 
L 391.649012 273.77792 
L 391.323381 274.0736 
L 390.99775 271.70816 
L 390.672118 278.11456 
L 390.346487 277.5232 
L 390.020855 273.67936 
L 389.695224 273.18656 
L 389.369592 275.45344 
L 389.043961 273.77792 
L 388.71833 276.14336 
L 388.392698 273.5808 
L 388.067067 274.5664 
L 387.741435 276.63616 
L 387.415804 274.66496 
L 387.090172 277.22752 
L 386.764541 277.0304 
L 386.438909 274.36928 
L 386.113278 277.91744 
L 385.787647 277.12896 
L 385.462015 272.5952 
L 385.136384 274.46784 
L 384.810752 276.73472 
L 384.485121 275.65056 
L 384.159489 274.46784 
L 383.833858 274.27072 
L 383.508226 276.14336 
L 383.182595 274.76352 
L 382.856964 275.74912 
L 382.531332 275.552 
L 382.205701 274.0736 
L 381.880069 273.77792 
L 381.554438 274.36928 
L 381.228806 276.24192 
L 380.903175 274.86208 
L 380.577544 278.11456 
L 380.251912 274.17216 
L 379.926281 275.15776 
L 379.600649 273.87648 
L 379.275018 275.45344 
L 378.949386 277.62176 
L 378.623755 275.0592 
L 378.298123 277.32608 
L 377.972492 276.0448 
L 377.646861 274.46784 
L 377.321229 274.5664 
L 376.995598 273.48224 
L 376.669966 272.5952 
L 376.344335 274.27072 
L 376.018703 275.84768 
L 375.693072 274.76352 
L 375.367441 277.12896 
L 375.041809 277.42464 
L 374.716178 276.5376 
L 374.390546 273.77792 
L 374.064915 273.87648 
L 373.739283 278.11456 
L 373.413652 275.84768 
L 373.08802 275.25632 
L 372.762389 273.38368 
L 372.436758 275.25632 
L 372.111126 276.93184 
L 371.785495 275.35488 
L 371.459863 272.39808 
L 371.134232 274.76352 
L 370.8086 272.39808 
L 370.482969 273.28512 
L 370.157337 273.088 
L 369.831706 274.96064 
L 369.506075 274.36928 
L 369.180443 274.17216 
L 368.854812 273.5808 
L 368.52918 276.73472 
L 368.203549 276.93184 
L 367.877917 277.22752 
L 367.552286 274.27072 
L 367.226655 275.25632 
L 366.901023 272.79232 
L 366.575392 272.98944 
L 366.24976 273.77792 
L 365.924129 273.48224 
L 365.598497 275.25632 
L 365.272866 273.77792 
L 364.947234 275.15776 
L 364.621603 275.65056 
L 364.295972 274.96064 
L 363.97034 275.65056 
L 363.644709 276.43904 
L 363.319077 273.18656 
L 362.993446 274.27072 
L 362.667814 276.0448 
L 362.342183 276.34048 
L 362.016551 274.5664 
L 361.69092 274.66496 
L 361.365289 276.24192 
L 361.039657 273.18656 
L 360.714026 277.0304 
L 360.388394 275.552 
L 360.062763 274.5664 
L 359.737131 276.83328 
L 359.4115 275.74912 
L 359.085869 275.65056 
L 358.760237 274.46784 
L 358.434606 276.0448 
L 358.108974 273.38368 
L 357.783343 273.87648 
L 357.457711 273.38368 
L 357.13208 275.15776 
L 356.806448 276.34048 
L 356.480817 275.35488 
L 356.155186 275.74912 
L 355.829554 274.0736 
L 355.503923 278.70592 
L 355.178291 273.5808 
L 354.85266 274.0736 
L 354.527028 273.5808 
L 354.201397 274.96064 
L 353.875765 276.24192 
L 353.550134 277.91744 
L 353.224503 273.77792 
L 352.898871 277.32608 
L 352.57324 274.36928 
L 352.247608 274.96064 
L 351.921977 275.35488 
L 351.596345 274.5664 
L 351.270714 273.18656 
L 350.945083 276.0448 
L 350.619451 274.5664 
L 350.29382 274.27072 
L 349.968188 274.66496 
L 349.642557 277.0304 
L 349.316925 275.84768 
L 348.991294 277.12896 
L 348.665662 274.46784 
L 348.340031 274.5664 
L 348.0144 274.96064 
L 347.688768 274.27072 
L 347.363137 274.17216 
L 347.037505 276.5376 
L 346.711874 274.5664 
L 346.386242 274.17216 
L 346.060611 273.67936 
L 345.734979 274.17216 
L 345.409348 275.84768 
L 345.083717 274.36928 
L 344.758085 273.088 
L 344.432454 273.67936 
L 344.106822 275.45344 
L 343.781191 273.77792 
L 343.455559 272.69376 
L 343.129928 275.35488 
L 342.804297 277.81888 
L 342.478665 272.29952 
L 342.153034 274.86208 
L 341.827402 274.0736 
L 341.501771 277.62176 
L 341.176139 273.48224 
L 340.850508 276.5376 
L 340.524876 273.48224 
L 340.199245 272.20096 
L 339.873614 275.74912 
L 339.547982 275.15776 
L 339.222351 276.43904 
L 338.896719 273.97504 
L 338.571088 277.12896 
L 338.245456 274.0736 
L 337.919825 273.87648 
L 337.594193 272.98944 
L 337.268562 273.77792 
L 336.942931 274.17216 
L 336.617299 275.45344 
L 336.291668 275.15776 
L 335.966036 275.45344 
L 335.640405 275.84768 
L 335.314773 274.96064 
L 334.989142 274.96064 
L 334.663511 274.86208 
L 334.337879 274.5664 
L 334.012248 277.91744 
L 333.686616 273.67936 
L 333.360985 275.84768 
L 333.035353 272.49664 
L 332.709722 275.15776 
L 332.38409 274.46784 
L 332.058459 273.48224 
L 331.732828 273.48224 
L 331.407196 278.31168 
L 331.081565 275.15776 
L 330.755933 273.77792 
L 330.430302 276.73472 
L 330.10467 271.1168 
L 329.779039 273.48224 
L 329.453407 274.36928 
L 329.127776 277.22752 
L 328.802145 274.66496 
L 328.476513 276.34048 
L 328.150882 273.088 
L 327.82525 276.24192 
L 327.499619 272.39808 
L 327.173987 274.66496 
L 326.848356 274.36928 
L 326.522725 275.0592 
L 326.197093 272.98944 
L 325.871462 275.35488 
L 325.54583 278.70592 
L 325.220199 274.86208 
L 324.894567 275.552 
L 324.568936 273.87648 
L 324.243304 277.0304 
L 323.917673 272.89088 
L 323.592042 273.18656 
L 323.26641 274.76352 
L 322.940779 275.84768 
L 322.615147 274.86208 
L 322.289516 273.088 
L 321.963884 273.77792 
L 321.638253 276.83328 
L 321.312622 275.0592 
L 320.98699 273.87648 
L 320.661359 275.552 
L 320.335727 275.0592 
L 320.010096 276.14336 
L 319.684464 275.552 
L 319.358833 275.0592 
L 319.033201 275.15776 
L 318.70757 278.11456 
L 318.381939 276.63616 
L 318.056307 276.5376 
L 317.730676 278.90304 
L 317.405044 273.97504 
L 317.079413 275.84768 
L 316.753781 273.77792 
L 316.42815 274.46784 
L 316.102518 273.67936 
L 315.776887 275.35488 
L 315.451256 274.5664 
L 315.125624 275.65056 
L 314.799993 276.0448 
L 314.474361 274.76352 
L 314.14873 272.98944 
L 313.823098 275.25632 
L 313.497467 276.5376 
L 313.171836 274.46784 
L 312.846204 276.83328 
L 312.520573 275.25632 
L 312.194941 272.20096 
L 311.86931 275.94624 
L 311.543678 275.45344 
L 311.218047 274.36928 
L 310.892415 277.12896 
L 310.566784 273.87648 
L 310.241153 274.0736 
L 309.915521 276.43904 
L 309.58989 275.0592 
L 309.264258 276.43904 
L 308.938627 273.18656 
L 308.612995 274.76352 
L 308.287364 276.34048 
L 307.961732 273.18656 
L 307.636101 275.74912 
L 307.31047 276.73472 
L 306.984838 277.12896 
L 306.659207 277.32608 
L 306.333575 276.43904 
L 306.007944 275.0592 
L 305.682312 274.0736 
L 305.356681 275.45344 
L 305.03105 275.84768 
L 304.705418 278.21312 
L 304.379787 274.17216 
L 304.054155 276.14336 
L 303.728524 274.17216 
L 303.402892 273.97504 
L 303.077261 274.96064 
L 302.751629 276.0448 
L 302.425998 274.96064 
L 302.100367 275.84768 
L 301.774735 273.088 
L 301.449104 274.76352 
L 301.123472 275.94624 
L 300.797841 273.97504 
L 300.472209 274.0736 
L 300.146578 273.67936 
L 299.820946 274.36928 
L 299.495315 274.17216 
L 299.169684 274.96064 
L 298.844052 275.35488 
L 298.518421 274.66496 
L 298.192789 273.87648 
L 297.867158 274.76352 
L 297.541526 274.66496 
L 297.215895 274.66496 
L 296.890264 273.5808 
L 296.564632 276.14336 
L 296.239001 274.0736 
L 295.913369 277.0304 
L 295.587738 275.45344 
L 295.262106 275.65056 
L 294.936475 275.45344 
L 294.610843 276.34048 
L 294.285212 273.28512 
L 293.959581 274.27072 
L 293.633949 273.18656 
L 293.308318 276.34048 
L 292.982686 274.86208 
L 292.657055 273.38368 
L 292.331423 274.66496 
L 292.005792 275.74912 
L 291.68016 278.11456 
L 291.354529 277.81888 
L 291.028898 274.36928 
L 290.703266 276.14336 
L 290.377635 275.65056 
L 290.052003 275.25632 
L 289.726372 275.74912 
L 289.40074 272.98944 
L 289.075109 272.29952 
L 288.749478 274.76352 
L 288.423846 276.24192 
L 288.098215 277.0304 
L 287.772583 273.38368 
L 287.446952 274.76352 
L 287.12132 277.5232 
L 286.795689 274.5664 
L 286.470057 274.36928 
L 286.144426 273.97504 
L 285.818795 275.45344 
L 285.493163 277.91744 
L 285.167532 275.552 
L 284.8419 274.46784 
L 284.516269 275.84768 
L 284.190637 275.45344 
L 283.865006 271.6096 
L 283.539374 275.0592 
L 283.213743 271.51104 
L 282.888112 275.35488 
L 282.56248 275.94624 
L 282.236849 273.5808 
L 281.911217 274.66496 
L 281.585586 274.46784 
L 281.259954 275.84768 
L 280.934323 278.41024 
L 280.608692 275.65056 
L 280.28306 274.96064 
L 279.957429 274.86208 
L 279.631797 275.45344 
L 279.306166 274.5664 
L 278.980534 275.552 
L 278.654903 273.5808 
L 278.329271 274.5664 
L 278.00364 273.5808 
L 277.678009 275.84768 
L 277.352377 274.96064 
L 277.026746 275.35488 
L 276.701114 276.34048 
L 276.375483 274.76352 
L 276.049851 276.5376 
L 275.72422 275.74912 
L 275.398588 276.0448 
L 275.072957 273.77792 
L 274.747326 279.0016 
L 274.421694 274.5664 
L 274.096063 277.62176 
L 273.770431 275.552 
L 273.4448 275.74912 
L 273.119168 276.93184 
L 272.793537 275.94624 
L 272.467906 273.48224 
L 272.142274 274.0736 
L 271.816643 273.77792 
L 271.491011 274.27072 
L 271.16538 276.24192 
L 270.839748 275.65056 
L 270.514117 274.86208 
L 270.188485 275.35488 
L 269.862854 273.48224 
L 269.537223 276.63616 
L 269.211591 272.69376 
L 268.88596 276.0448 
L 268.560328 272.49664 
L 268.234697 274.5664 
L 267.909065 272.89088 
L 267.583434 274.76352 
L 267.257802 274.96064 
L 266.932171 274.66496 
L 266.60654 274.17216 
L 266.280908 272.89088 
L 265.955277 273.87648 
L 265.629645 272.39808 
L 265.304014 275.94624 
L 264.978382 278.60736 
L 264.652751 276.83328 
L 264.32712 274.76352 
L 264.001488 272.69376 
L 263.675857 274.36928 
L 263.350225 274.17216 
L 263.024594 275.65056 
L 262.698962 272.1024 
L 262.373331 273.48224 
L 262.047699 273.28512 
L 261.722068 276.24192 
L 261.396437 275.74912 
L 261.070805 278.016 
L 260.745174 273.67936 
L 260.419542 274.76352 
L 260.093911 276.83328 
L 259.768279 275.0592 
L 259.442648 275.94624 
L 259.117017 276.83328 
L 258.791385 275.0592 
L 258.465754 274.96064 
L 258.140122 274.0736 
L 257.814491 275.94624 
L 257.488859 276.43904 
L 257.163228 273.38368 
L 256.837596 272.79232 
L 256.511965 274.46784 
L 256.186334 273.18656 
L 255.860702 277.12896 
L 255.535071 271.70816 
L 255.209439 274.66496 
L 254.883808 274.96064 
L 254.558176 274.5664 
L 254.232545 274.46784 
L 253.906913 275.552 
L 253.581282 272.89088 
L 253.255651 272.5952 
L 252.930019 276.43904 
L 252.604388 276.43904 
L 252.278756 273.77792 
L 251.953125 275.65056 
L 251.627493 274.96064 
L 251.301862 277.0304 
L 250.976231 274.17216 
L 250.650599 274.46784 
L 250.324968 274.0736 
L 249.999336 276.0448 
L 249.673705 273.38368 
L 249.348073 272.79232 
L 249.022442 276.14336 
L 248.69681 275.84768 
L 248.371179 272.29952 
L 248.045548 273.67936 
L 247.719916 276.14336 
L 247.394285 277.0304 
L 247.068653 275.552 
L 246.743022 274.76352 
L 246.41739 276.63616 
L 246.091759 276.0448 
L 245.766127 275.35488 
L 245.440496 272.49664 
L 245.114865 272.98944 
L 244.789233 274.27072 
L 244.463602 277.12896 
L 244.13797 273.088 
L 243.812339 274.86208 
L 243.486707 275.35488 
L 243.161076 277.32608 
L 242.835445 273.48224 
L 242.509813 274.5664 
L 242.184182 275.25632 
L 241.85855 273.28512 
L 241.532919 274.5664 
L 241.207287 273.97504 
L 240.881656 274.0736 
L 240.556024 271.41248 
L 240.230393 274.46784 
L 239.904762 274.36928 
L 239.57913 273.38368 
L 239.253499 272.49664 
L 238.927867 274.96064 
L 238.602236 276.5376 
L 238.276604 274.17216 
L 237.950973 273.87648 
L 237.625341 275.74912 
L 237.29971 273.87648 
L 236.974079 274.17216 
L 236.648447 272.69376 
L 236.322816 274.46784 
L 235.997184 273.67936 
L 235.671553 272.49664 
L 235.345921 273.87648 
L 235.02029 270.72256 
L 234.694659 273.088 
L 234.369027 274.0736 
L 234.043396 273.38368 
L 233.717764 273.97504 
L 233.392133 273.97504 
L 233.066501 275.45344 
L 232.74087 275.15776 
L 232.415238 273.77792 
L 232.089607 274.76352 
L 231.763976 272.98944 
L 231.438344 274.46784 
L 231.112713 273.48224 
L 230.787081 275.35488 
L 230.46145 273.87648 
L 230.135818 274.27072 
L 229.810187 272.98944 
L 229.484555 274.86208 
L 229.158924 273.5808 
L 228.833293 273.48224 
L 228.507661 275.25632 
L 228.18203 272.29952 
L 227.856398 274.0736 
L 227.530767 275.84768 
L 227.205135 275.35488 
L 226.879504 273.088 
L 226.553873 274.36928 
L 226.228241 273.77792 
L 225.90261 275.15776 
L 225.576978 272.79232 
L 225.251347 272.1024 
L 224.925715 273.77792 
L 224.600084 272.29952 
L 224.274452 272.5952 
L 223.948821 271.01824 
L 223.62319 276.93184 
L 223.297558 272.1024 
L 222.971927 275.74912 
L 222.646295 275.84768 
L 222.320664 272.5952 
L 221.995032 274.27072 
L 221.669401 272.98944 
L 221.343769 275.74912 
L 221.018138 273.48224 
L 220.692507 274.27072 
L 220.366875 271.80672 
L 220.041244 274.36928 
L 219.715612 273.87648 
L 219.389981 273.088 
L 219.064349 275.94624 
L 218.738718 274.5664 
L 218.413087 275.65056 
L 218.087455 275.35488 
L 217.761824 272.89088 
L 217.436192 273.97504 
L 217.110561 273.97504 
L 216.784929 272.98944 
L 216.459298 273.28512 
L 216.133666 274.36928 
L 215.808035 274.86208 
L 215.482404 273.28512 
L 215.156772 274.17216 
L 214.831141 277.22752 
L 214.505509 272.69376 
L 214.179878 275.25632 
L 213.854246 271.90528 
L 213.528615 272.69376 
L 213.202983 274.36928 
L 212.877352 275.552 
L 212.551721 274.96064 
L 212.226089 273.18656 
L 211.900458 274.76352 
L 211.574826 271.90528 
L 211.249195 274.86208 
L 210.923563 274.0736 
L 210.597932 274.36928 
L 210.272301 272.69376 
L 209.946669 272.98944 
L 209.621038 273.18656 
L 209.295406 274.86208 
L 208.969775 273.77792 
L 208.644143 272.29952 
L 208.318512 272.00384 
L 207.99288 274.5664 
L 207.667249 271.90528 
L 207.341618 276.14336 
L 207.015986 273.87648 
L 206.690355 273.97504 
L 206.364723 273.38368 
L 206.039092 272.00384 
L 205.71346 272.39808 
L 205.387829 274.0736 
L 205.062198 273.5808 
L 204.736566 274.86208 
L 204.410935 272.69376 
L 204.085303 274.36928 
L 203.759672 272.98944 
L 203.43404 271.80672 
L 203.108409 275.45344 
L 202.782777 272.89088 
L 202.457146 270.91968 
L 202.131515 271.90528 
L 201.805883 272.5952 
L 201.480252 271.1168 
L 201.15462 273.87648 
L 200.828989 272.39808 
L 200.503357 273.87648 
L 200.177726 272.79232 
L 199.852094 274.76352 
L 199.526463 272.98944 
L 199.200832 273.38368 
L 198.8752 272.1024 
L 198.549569 273.77792 
L 198.223937 273.28512 
L 197.898306 274.17216 
L 197.572674 273.18656 
L 197.247043 273.18656 
L 196.921412 275.35488 
L 196.59578 274.0736 
L 196.270149 276.0448 
L 195.944517 271.70816 
L 195.618886 272.89088 
L 195.293254 273.87648 
L 194.967623 275.65056 
L 194.641991 273.67936 
L 194.31636 273.5808 
L 193.990729 276.43904 
L 193.665097 272.79232 
L 193.339466 274.17216 
L 193.013834 274.66496 
L 192.688203 272.29952 
L 192.362571 273.77792 
L 192.03694 273.97504 
L 191.711308 272.98944 
L 191.385677 273.088 
L 191.060046 271.80672 
L 190.734414 275.552 
L 190.408783 275.74912 
L 190.083151 273.97504 
L 189.75752 272.5952 
L 189.431888 274.76352 
L 189.106257 275.25632 
L 188.780626 277.12896 
L 188.454994 275.94624 
L 188.129363 271.1168 
L 187.803731 273.38368 
L 187.4781 275.74912 
L 187.152468 274.0736 
L 186.826837 275.65056 
L 186.501205 275.25632 
L 186.175574 275.35488 
L 185.849943 272.69376 
L 185.524311 273.38368 
L 185.19868 274.46784 
L 184.873048 274.27072 
L 184.547417 273.77792 
L 184.221785 274.5664 
L 183.896154 273.97504 
L 183.570522 274.76352 
L 183.244891 273.97504 
L 182.91926 274.86208 
L 182.593628 273.87648 
L 182.267997 274.27072 
L 181.942365 273.67936 
L 181.616734 274.46784 
L 181.291102 274.66496 
L 180.965471 273.28512 
L 180.63984 272.1024 
L 180.314208 274.17216 
L 179.988577 275.15776 
L 179.662945 271.31392 
L 179.337314 274.86208 
L 179.011682 274.76352 
L 178.686051 275.25632 
L 178.360419 274.96064 
L 178.034788 273.77792 
L 177.709157 274.66496 
L 177.383525 270.82112 
L 177.057894 275.15776 
L 176.732262 272.39808 
L 176.406631 272.39808 
L 176.080999 273.97504 
L 175.755368 270.82112 
L 175.429736 276.34048 
L 175.104105 274.76352 
L 174.778474 274.17216 
L 174.452842 274.46784 
L 174.127211 273.5808 
L 173.801579 273.38368 
L 173.475948 272.98944 
L 173.150316 272.89088 
L 172.824685 275.94624 
L 172.499054 272.1024 
L 172.173422 272.49664 
L 171.847791 272.49664 
L 171.522159 277.12896 
L 171.196528 274.86208 
L 170.870896 276.73472 
L 170.545265 272.89088 
L 170.219633 269.93408 
L 169.894002 275.25632 
L 169.568371 272.79232 
L 169.242739 272.98944 
L 168.917108 272.89088 
L 168.591476 272.20096 
L 168.265845 277.22752 
L 167.940213 270.42688 
L 167.614582 272.20096 
L 167.28895 275.552 
L 166.963319 272.98944 
L 166.637688 273.87648 
L 166.312056 272.5952 
L 165.986425 275.15776 
L 165.660793 275.15776 
L 165.335162 272.98944 
L 165.00953 272.89088 
L 164.683899 273.87648 
L 164.358268 276.14336 
L 164.032636 273.77792 
L 163.707005 275.35488 
L 163.381373 269.83552 
L 163.055742 274.17216 
L 162.73011 272.49664 
L 162.404479 274.86208 
L 162.078847 272.89088 
L 161.753216 272.69376 
L 161.427585 276.14336 
L 161.101953 272.29952 
L 160.776322 273.87648 
L 160.45069 273.38368 
L 160.125059 272.98944 
L 159.799427 275.25632 
L 159.473796 275.74912 
L 159.148164 272.1024 
L 158.822533 273.088 
L 158.496902 273.5808 
L 158.17127 273.088 
L 157.845639 273.088 
L 157.520007 274.76352 
L 157.194376 274.5664 
L 156.868744 273.088 
L 156.543113 276.0448 
L 156.217482 273.48224 
L 155.89185 274.0736 
L 155.566219 276.5376 
L 155.240587 270.1312 
L 154.914956 272.69376 
L 154.589324 275.65056 
L 154.263693 268.75136 
L 153.938061 272.5952 
L 153.61243 274.17216 
L 153.286799 273.5808 
L 152.961167 273.77792 
L 152.635536 270.22976 
L 152.309904 274.36928 
L 151.984273 273.77792 
L 151.658641 272.5952 
L 151.33301 275.35488 
L 151.007378 272.69376 
L 150.681747 272.69376 
L 150.356116 270.91968 
L 150.030484 271.31392 
L 149.704853 273.48224 
L 149.379221 275.25632 
L 149.05359 275.0592 
L 148.727958 272.89088 
L 148.402327 273.088 
L 148.076696 273.87648 
L 147.751064 274.0736 
L 147.425433 267.6672 
L 147.099801 272.98944 
L 146.77417 273.28512 
L 146.448538 272.89088 
L 146.122907 273.088 
L 145.797275 272.29952 
L 145.471644 274.46784 
L 145.146013 274.27072 
L 144.820381 272.20096 
L 144.49475 273.77792 
L 144.169118 271.80672 
L 143.843487 272.39808 
L 143.517855 274.27072 
L 143.192224 275.552 
L 142.866593 273.97504 
L 142.540961 273.97504 
L 142.21533 270.22976 
L 141.889698 273.87648 
L 141.564067 267.76576 
L 141.238435 274.36928 
L 140.912804 273.77792 
L 140.587172 273.18656 
L 140.261541 270.52544 
L 139.93591 269.44128 
L 139.610278 267.27296 
L 139.284647 275.0592 
L 138.959015 271.90528 
L 138.633384 271.1168 
L 138.307752 270.1312 
L 137.982121 273.5808 
L 137.656489 269.6384 
L 137.330858 273.87648 
L 137.005227 273.67936 
L 136.679595 268.6528 
L 136.353964 274.66496 
L 136.028332 273.18656 
L 135.702701 274.86208 
L 135.377069 266.58304 
L 135.051438 272.49664 
L 134.725807 269.83552 
L 134.400175 272.69376 
L 134.074544 274.36928 
L 133.748912 271.21536 
L 133.423281 267.1744 
L 133.097649 273.48224 
L 132.772018 271.51104 
L 132.446386 267.76576 
L 132.120755 273.77792 
L 131.795124 273.28512 
L 131.469492 267.86432 
L 131.143861 272.49664 
L 130.818229 266.38592 
L 130.492598 266.58304 
L 130.166966 272.5952 
L 129.841335 272.39808 
L 129.515703 273.18656 
L 129.190072 273.38368 
L 128.864441 269.6384 
L 128.538809 271.90528 
L 128.213178 273.5808 
L 127.887546 274.27072 
L 127.561915 273.18656 
L 127.236283 270.42688 
L 126.910652 267.27296 
L 126.585021 273.48224 
L 126.259389 269.1456 
L 125.933758 266.87872 
L 125.608126 272.69376 
L 125.282495 273.18656 
L 124.956863 273.18656 
L 124.631232 272.5952 
L 124.3056 273.87648 
L 123.979969 271.90528 
L 123.654338 268.6528 
L 123.328706 272.69376 
L 123.003075 272.29952 
L 122.677443 266.97728 
L 122.351812 270.1312 
L 122.02618 275.15776 
L 121.700549 272.69376 
L 121.374917 272.5952 
L 121.049286 273.088 
L 120.723655 273.38368 
L 120.398023 272.29952 
L 120.072392 269.6384 
L 119.74676 269.04704 
L 119.421129 272.89088 
L 119.095497 272.69376 
L 118.769866 269.73696 
L 118.444235 270.52544 
L 118.118603 269.44128 
L 117.792972 271.80672 
L 117.46734 271.6096 
L 117.141709 272.69376 
L 116.816077 272.20096 
L 116.490446 271.31392 
L 116.164814 272.1024 
L 115.839183 272.1024 
L 115.513552 271.41248 
L 115.18792 270.72256 
L 114.862289 269.34272 
L 114.536657 271.70816 
L 114.211026 270.1312 
L 113.885394 271.01824 
L 113.559763 271.80672 
L 113.234131 270.22976 
L 112.9085 271.80672 
L 112.582869 271.21536 
L 112.257237 269.93408 
L 111.931606 272.29952 
L 111.605974 269.83552 
L 111.280343 270.42688 
L 110.954711 270.82112 
L 110.62908 273.67936 
L 110.303449 270.72256 
L 109.977817 271.21536 
L 109.652186 273.67936 
L 109.326554 272.49664 
L 109.000923 271.21536 
L 108.675291 272.98944 
L 108.34966 272.39808 
L 108.024028 272.5952 
L 107.698397 271.70816 
L 107.372766 267.56864 
L 107.047134 269.83552 
L 106.721503 269.04704 
L 106.395871 272.39808 
L 106.07024 269.6384 
L 105.744608 273.48224 
L 105.418977 270.03264 
L 105.093345 270.72256 
L 104.767714 271.6096 
L 104.442083 270.82112 
L 104.116451 273.088 
L 103.79082 272.89088 
L 103.465188 271.6096 
L 103.139557 272.69376 
L 102.813925 271.01824 
L 102.488294 272.1024 
L 102.162663 270.82112 
L 101.837031 269.6384 
L 101.5114 270.624 
L 101.185768 271.21536 
L 100.860137 273.088 
L 100.534505 272.69376 
L 100.208874 273.87648 
L 99.883242 272.49664 
L 99.557611 272.79232 
L 99.23198 272.39808 
L 98.906348 272.00384 
L 98.580717 272.89088 
L 98.255085 272.89088 
L 97.929454 271.70816 
L 97.603822 272.89088 
L 97.278191 271.1168 
L 96.952559 273.77792 
L 96.626928 273.67936 
L 96.301297 272.49664 
L 95.975665 271.41248 
L 95.650034 272.79232 
L 95.324402 273.18656 
L 94.998771 271.41248 
L 94.673139 274.36928 
L 94.347508 272.89088 
L 94.021877 272.1024 
L 93.696245 272.29952 
L 93.370614 274.0736 
L 93.044982 272.00384 
L 92.719351 273.48224 
L 92.393719 274.17216 
L 92.068088 272.79232 
L 91.742456 273.28512 
L 91.416825 271.80672 
L 91.091194 271.41248 
L 90.765562 272.89088 
L 90.439931 272.1024 
L 90.114299 271.1168 
L 89.788668 275.94624 
L 89.463036 273.48224 
L 89.137405 274.17216 
L 88.811774 273.87648 
L 88.486142 273.28512 
L 88.160511 274.27072 
L 87.834879 274.36928 
L 87.509248 272.49664 
L 87.183616 273.5808 
L 86.857985 273.77792 
L 86.532353 272.79232 
L 86.206722 275.0592 
L 85.881091 273.088 
L 85.555459 271.90528 
L 85.229828 273.97504 
L 84.904196 272.5952 
L 84.578565 274.0736 
L 84.252933 273.088 
L 83.927302 274.86208 
L 83.60167 272.79232 
L 83.276039 272.29952 
L 82.950408 271.31392 
L 82.624776 270.32832 
L 82.299145 273.97504 
L 81.973513 273.87648 
L 81.647882 273.55616 
L 81.32225 272.66912 
L 80.996619 274.0736 
L 80.670988 272.69376 
L 80.345356 273.55616 
L 80.019725 271.7328 
L 79.694093 274.12288 
L 79.368462 273.8272 
L 79.04283 274.66496 
L 78.717199 275.40416 
L 78.391567 276.68544 
L 78.065936 273.85184 
L 77.740305 273.90112 
L 77.414673 274.04896 
L 77.089042 273.01408 
L 76.76341 275.87232 
L 76.437779 274.04896 
L 76.112147 273.99968 
L 75.786516 276.43904 
L 75.460884 278.08992 
L 75.135253 275.89696 
L 74.809622 274.14752 
L 74.48399 273.97504 
L 74.158359 277.17824 
L 73.832727 275.1824 
z
" style="fill:#1f77b4;fill-opacity:0.25;"/>
   </g>
   <g id="matplotlib.axis_1">
    <g id="xtick_1">
     <g id="line2d_1">
      <defs>
       <path d="M 0 0 
L 0 3.5 
" id="m9920d60257" style="stroke:#000000;stroke-width:0.8;"/>
      </defs>
      <g>
       <use style="stroke:#000000;stroke-width:0.8;" x="73.507096" xlink:href="#m9920d60257" y="307.584"/>
      </g>
     </g>
     <g id="text_1">
      <!-- 0 -->
      <g transform="translate(70.325846 322.182437)scale(0.1 -0.1)">
       <defs>
        <path d="M 2034 4250 
Q 1547 4250 1301 3770 
Q 1056 3291 1056 2328 
Q 1056 1369 1301 889 
Q 1547 409 2034 409 
Q 2525 409 2770 889 
Q 3016 1369 3016 2328 
Q 3016 3291 2770 3770 
Q 2525 4250 2034 4250 
z
M 2034 4750 
Q 2819 4750 3233 4129 
Q 3647 3509 3647 2328 
Q 3647 1150 3233 529 
Q 2819 -91 2034 -91 
Q 1250 -91 836 529 
Q 422 1150 422 2328 
Q 422 3509 836 4129 
Q 1250 4750 2034 4750 
z
" id="DejaVuSans-30" transform="scale(0.015625)"/>
       </defs>
       <use xlink:href="#DejaVuSans-30"/>
      </g>
     </g>
    </g>
    <g id="xtick_2">
     <g id="line2d_2">
      <g>
       <use style="stroke:#000000;stroke-width:0.8;" x="138.633384" xlink:href="#m9920d60257" y="307.584"/>
      </g>
     </g>
     <g id="text_2">
      <!-- 200 -->
      <g transform="translate(129.089634 322.182437)scale(0.1 -0.1)">
       <defs>
        <path d="M 1228 531 
L 3431 531 
L 3431 0 
L 469 0 
L 469 531 
Q 828 903 1448 1529 
Q 2069 2156 2228 2338 
Q 2531 2678 2651 2914 
Q 2772 3150 2772 3378 
Q 2772 3750 2511 3984 
Q 2250 4219 1831 4219 
Q 1534 4219 1204 4116 
Q 875 4013 500 3803 
L 500 4441 
Q 881 4594 1212 4672 
Q 1544 4750 1819 4750 
Q 2544 4750 2975 4387 
Q 3406 4025 3406 3419 
Q 3406 3131 3298 2873 
Q 3191 2616 2906 2266 
Q 2828 2175 2409 1742 
Q 1991 1309 1228 531 
z
" id="DejaVuSans-32" transform="scale(0.015625)"/>
       </defs>
       <use xlink:href="#DejaVuSans-32"/>
       <use x="63.623047" xlink:href="#DejaVuSans-30"/>
       <use x="127.246094" xlink:href="#DejaVuSans-30"/>
      </g>
     </g>
    </g>
    <g id="xtick_3">
     <g id="line2d_3">
      <g>
       <use style="stroke:#000000;stroke-width:0.8;" x="203.759672" xlink:href="#m9920d60257" y="307.584"/>
      </g>
     </g>
     <g id="text_3">
      <!-- 400 -->
      <g transform="translate(194.215922 322.182437)scale(0.1 -0.1)">
       <defs>
        <path d="M 2419 4116 
L 825 1625 
L 2419 1625 
L 2419 4116 
z
M 2253 4666 
L 3047 4666 
L 3047 1625 
L 3713 1625 
L 3713 1100 
L 3047 1100 
L 3047 0 
L 2419 0 
L 2419 1100 
L 313 1100 
L 313 1709 
L 2253 4666 
z
" id="DejaVuSans-34" transform="scale(0.015625)"/>
       </defs>
       <use xlink:href="#DejaVuSans-34"/>
       <use x="63.623047" xlink:href="#DejaVuSans-30"/>
       <use x="127.246094" xlink:href="#DejaVuSans-30"/>
      </g>
     </g>
    </g>
    <g id="xtick_4">
     <g id="line2d_4">
      <g>
       <use style="stroke:#000000;stroke-width:0.8;" x="268.88596" xlink:href="#m9920d60257" y="307.584"/>
      </g>
     </g>
     <g id="text_4">
      <!-- 600 -->
      <g transform="translate(259.34221 322.182437)scale(0.1 -0.1)">
       <defs>
        <path d="M 2113 2584 
Q 1688 2584 1439 2293 
Q 1191 2003 1191 1497 
Q 1191 994 1439 701 
Q 1688 409 2113 409 
Q 2538 409 2786 701 
Q 3034 994 3034 1497 
Q 3034 2003 2786 2293 
Q 2538 2584 2113 2584 
z
M 3366 4563 
L 3366 3988 
Q 3128 4100 2886 4159 
Q 2644 4219 2406 4219 
Q 1781 4219 1451 3797 
Q 1122 3375 1075 2522 
Q 1259 2794 1537 2939 
Q 1816 3084 2150 3084 
Q 2853 3084 3261 2657 
Q 3669 2231 3669 1497 
Q 3669 778 3244 343 
Q 2819 -91 2113 -91 
Q 1303 -91 875 529 
Q 447 1150 447 2328 
Q 447 3434 972 4092 
Q 1497 4750 2381 4750 
Q 2619 4750 2861 4703 
Q 3103 4656 3366 4563 
z
" id="DejaVuSans-36" transform="scale(0.015625)"/>
       </defs>
       <use xlink:href="#DejaVuSans-36"/>
       <use x="63.623047" xlink:href="#DejaVuSans-30"/>
       <use x="127.246094" xlink:href="#DejaVuSans-30"/>
      </g>
     </g>
    </g>
    <g id="xtick_5">
     <g id="line2d_5">
      <g>
       <use style="stroke:#000000;stroke-width:0.8;" x="334.012248" xlink:href="#m9920d60257" y="307.584"/>
      </g>
     </g>
     <g id="text_5">
      <!-- 800 -->
      <g transform="translate(324.468498 322.182437)scale(0.1 -0.1)">
       <defs>
        <path d="M 2034 2216 
Q 1584 2216 1326 1975 
Q 1069 1734 1069 1313 
Q 1069 891 1326 650 
Q 1584 409 2034 409 
Q 2484 409 2743 651 
Q 3003 894 3003 1313 
Q 3003 1734 2745 1975 
Q 2488 2216 2034 2216 
z
M 1403 2484 
Q 997 2584 770 2862 
Q 544 3141 544 3541 
Q 544 4100 942 4425 
Q 1341 4750 2034 4750 
Q 2731 4750 3128 4425 
Q 3525 4100 3525 3541 
Q 3525 3141 3298 2862 
Q 3072 2584 2669 2484 
Q 3125 2378 3379 2068 
Q 3634 1759 3634 1313 
Q 3634 634 3220 271 
Q 2806 -91 2034 -91 
Q 1263 -91 848 271 
Q 434 634 434 1313 
Q 434 1759 690 2068 
Q 947 2378 1403 2484 
z
M 1172 3481 
Q 1172 3119 1398 2916 
Q 1625 2713 2034 2713 
Q 2441 2713 2670 2916 
Q 2900 3119 2900 3481 
Q 2900 3844 2670 4047 
Q 2441 4250 2034 4250 
Q 1625 4250 1398 4047 
Q 1172 3844 1172 3481 
z
" id="DejaVuSans-38" transform="scale(0.015625)"/>
       </defs>
       <use xlink:href="#DejaVuSans-38"/>
       <use x="63.623047" xlink:href="#DejaVuSans-30"/>
       <use x="127.246094" xlink:href="#DejaVuSans-30"/>
      </g>
     </g>
    </g>
    <g id="xtick_6">
     <g id="line2d_6">
      <g>
       <use style="stroke:#000000;stroke-width:0.8;" x="399.138536" xlink:href="#m9920d60257" y="307.584"/>
      </g>
     </g>
     <g id="text_6">
      <!-- 1000 -->
      <g transform="translate(386.413536 322.182437)scale(0.1 -0.1)">
       <defs>
        <path d="M 794 531 
L 1825 531 
L 1825 4091 
L 703 3866 
L 703 4441 
L 1819 4666 
L 2450 4666 
L 2450 531 
L 3481 531 
L 3481 0 
L 794 0 
L 794 531 
z
" id="DejaVuSans-31" transform="scale(0.015625)"/>
       </defs>
       <use xlink:href="#DejaVuSans-31"/>
       <use x="63.623047" xlink:href="#DejaVuSans-30"/>
       <use x="127.246094" xlink:href="#DejaVuSans-30"/>
       <use x="190.869141" xlink:href="#DejaVuSans-30"/>
      </g>
     </g>
    </g>
    <g id="text_7">
     <!-- Timestep -->
     <g transform="translate(213.110781 335.860562)scale(0.1 -0.1)">
      <defs>
       <path d="M -19 4666 
L 3928 4666 
L 3928 4134 
L 2272 4134 
L 2272 0 
L 1638 0 
L 1638 4134 
L -19 4134 
L -19 4666 
z
" id="DejaVuSans-54" transform="scale(0.015625)"/>
       <path d="M 603 3500 
L 1178 3500 
L 1178 0 
L 603 0 
L 603 3500 
z
M 603 4863 
L 1178 4863 
L 1178 4134 
L 603 4134 
L 603 4863 
z
" id="DejaVuSans-69" transform="scale(0.015625)"/>
       <path d="M 3328 2828 
Q 3544 3216 3844 3400 
Q 4144 3584 4550 3584 
Q 5097 3584 5394 3201 
Q 5691 2819 5691 2113 
L 5691 0 
L 5113 0 
L 5113 2094 
Q 5113 2597 4934 2840 
Q 4756 3084 4391 3084 
Q 3944 3084 3684 2787 
Q 3425 2491 3425 1978 
L 3425 0 
L 2847 0 
L 2847 2094 
Q 2847 2600 2669 2842 
Q 2491 3084 2119 3084 
Q 1678 3084 1418 2786 
Q 1159 2488 1159 1978 
L 1159 0 
L 581 0 
L 581 3500 
L 1159 3500 
L 1159 2956 
Q 1356 3278 1631 3431 
Q 1906 3584 2284 3584 
Q 2666 3584 2933 3390 
Q 3200 3197 3328 2828 
z
" id="DejaVuSans-6d" transform="scale(0.015625)"/>
       <path d="M 3597 1894 
L 3597 1613 
L 953 1613 
Q 991 1019 1311 708 
Q 1631 397 2203 397 
Q 2534 397 2845 478 
Q 3156 559 3463 722 
L 3463 178 
Q 3153 47 2828 -22 
Q 2503 -91 2169 -91 
Q 1331 -91 842 396 
Q 353 884 353 1716 
Q 353 2575 817 3079 
Q 1281 3584 2069 3584 
Q 2775 3584 3186 3129 
Q 3597 2675 3597 1894 
z
M 3022 2063 
Q 3016 2534 2758 2815 
Q 2500 3097 2075 3097 
Q 1594 3097 1305 2825 
Q 1016 2553 972 2059 
L 3022 2063 
z
" id="DejaVuSans-65" transform="scale(0.015625)"/>
       <path d="M 2834 3397 
L 2834 2853 
Q 2591 2978 2328 3040 
Q 2066 3103 1784 3103 
Q 1356 3103 1142 2972 
Q 928 2841 928 2578 
Q 928 2378 1081 2264 
Q 1234 2150 1697 2047 
L 1894 2003 
Q 2506 1872 2764 1633 
Q 3022 1394 3022 966 
Q 3022 478 2636 193 
Q 2250 -91 1575 -91 
Q 1294 -91 989 -36 
Q 684 19 347 128 
L 347 722 
Q 666 556 975 473 
Q 1284 391 1588 391 
Q 1994 391 2212 530 
Q 2431 669 2431 922 
Q 2431 1156 2273 1281 
Q 2116 1406 1581 1522 
L 1381 1569 
Q 847 1681 609 1914 
Q 372 2147 372 2553 
Q 372 3047 722 3315 
Q 1072 3584 1716 3584 
Q 2034 3584 2315 3537 
Q 2597 3491 2834 3397 
z
" id="DejaVuSans-73" transform="scale(0.015625)"/>
       <path d="M 1172 4494 
L 1172 3500 
L 2356 3500 
L 2356 3053 
L 1172 3053 
L 1172 1153 
Q 1172 725 1289 603 
Q 1406 481 1766 481 
L 2356 481 
L 2356 0 
L 1766 0 
Q 1100 0 847 248 
Q 594 497 594 1153 
L 594 3053 
L 172 3053 
L 172 3500 
L 594 3500 
L 594 4494 
L 1172 4494 
z
" id="DejaVuSans-74" transform="scale(0.015625)"/>
       <path d="M 1159 525 
L 1159 -1331 
L 581 -1331 
L 581 3500 
L 1159 3500 
L 1159 2969 
Q 1341 3281 1617 3432 
Q 1894 3584 2278 3584 
Q 2916 3584 3314 3078 
Q 3713 2572 3713 1747 
Q 3713 922 3314 415 
Q 2916 -91 2278 -91 
Q 1894 -91 1617 61 
Q 1341 213 1159 525 
z
M 3116 1747 
Q 3116 2381 2855 2742 
Q 2594 3103 2138 3103 
Q 1681 3103 1420 2742 
Q 1159 2381 1159 1747 
Q 1159 1113 1420 752 
Q 1681 391 2138 391 
Q 2594 391 2855 752 
Q 3116 1113 3116 1747 
z
" id="DejaVuSans-70" transform="scale(0.015625)"/>
      </defs>
      <use xlink:href="#DejaVuSans-54"/>
      <use x="57.958984" xlink:href="#DejaVuSans-69"/>
      <use x="85.742188" xlink:href="#DejaVuSans-6d"/>
      <use x="183.154297" xlink:href="#DejaVuSans-65"/>
      <use x="244.677734" xlink:href="#DejaVuSans-73"/>
      <use x="296.777344" xlink:href="#DejaVuSans-74"/>
      <use x="335.986328" xlink:href="#DejaVuSans-65"/>
      <use x="397.509766" xlink:href="#DejaVuSans-70"/>
     </g>
    </g>
   </g>
   <g id="matplotlib.axis_2">
    <g id="ytick_1">
     <g id="line2d_7">
      <defs>
       <path d="M 0 0 
L -3.5 0 
" id="m90bcdc8b6d" style="stroke:#000000;stroke-width:0.8;"/>
      </defs>
      <g>
       <use style="stroke:#000000;stroke-width:0.8;" x="57.6" xlink:href="#m90bcdc8b6d" y="287.872"/>
      </g>
     </g>
     <g id="text_8">
      <!-- 0 -->
      <g transform="translate(44.2375 291.671219)scale(0.1 -0.1)">
       <use xlink:href="#DejaVuSans-30"/>
      </g>
     </g>
    </g>
    <g id="ytick_2">
     <g id="line2d_8">
      <g>
       <use style="stroke:#000000;stroke-width:0.8;" x="57.6" xlink:href="#m90bcdc8b6d" y="238.592"/>
      </g>
     </g>
     <g id="text_9">
      <!-- 5 -->
      <g transform="translate(44.2375 242.391219)scale(0.1 -0.1)">
       <defs>
        <path d="M 691 4666 
L 3169 4666 
L 3169 4134 
L 1269 4134 
L 1269 2991 
Q 1406 3038 1543 3061 
Q 1681 3084 1819 3084 
Q 2600 3084 3056 2656 
Q 3513 2228 3513 1497 
Q 3513 744 3044 326 
Q 2575 -91 1722 -91 
Q 1428 -91 1123 -41 
Q 819 9 494 109 
L 494 744 
Q 775 591 1075 516 
Q 1375 441 1709 441 
Q 2250 441 2565 725 
Q 2881 1009 2881 1497 
Q 2881 1984 2565 2268 
Q 2250 2553 1709 2553 
Q 1456 2553 1204 2497 
Q 953 2441 691 2322 
L 691 4666 
z
" id="DejaVuSans-35" transform="scale(0.015625)"/>
       </defs>
       <use xlink:href="#DejaVuSans-35"/>
      </g>
     </g>
    </g>
    <g id="ytick_3">
     <g id="line2d_9">
      <g>
       <use style="stroke:#000000;stroke-width:0.8;" x="57.6" xlink:href="#m90bcdc8b6d" y="189.312"/>
      </g>
     </g>
     <g id="text_10">
      <!-- 10 -->
      <g transform="translate(37.875 193.111219)scale(0.1 -0.1)">
       <use xlink:href="#DejaVuSans-31"/>
       <use x="63.623047" xlink:href="#DejaVuSans-30"/>
      </g>
     </g>
    </g>
    <g id="ytick_4">
     <g id="line2d_10">
      <g>
       <use style="stroke:#000000;stroke-width:0.8;" x="57.6" xlink:href="#m90bcdc8b6d" y="140.032"/>
      </g>
     </g>
     <g id="text_11">
      <!-- 15 -->
      <g transform="translate(37.875 143.831219)scale(0.1 -0.1)">
       <use xlink:href="#DejaVuSans-31"/>
       <use x="63.623047" xlink:href="#DejaVuSans-35"/>
      </g>
     </g>
    </g>
    <g id="ytick_5">
     <g id="line2d_11">
      <g>
       <use style="stroke:#000000;stroke-width:0.8;" x="57.6" xlink:href="#m90bcdc8b6d" y="90.752"/>
      </g>
     </g>
     <g id="text_12">
      <!-- 20 -->
      <g transform="translate(37.875 94.551219)scale(0.1 -0.1)">
       <use xlink:href="#DejaVuSans-32"/>
       <use x="63.623047" xlink:href="#DejaVuSans-30"/>
      </g>
     </g>
    </g>
    <g id="ytick_6">
     <g id="line2d_12">
      <g>
       <use style="stroke:#000000;stroke-width:0.8;" x="57.6" xlink:href="#m90bcdc8b6d" y="41.472"/>
      </g>
     </g>
     <g id="text_13">
      <!-- 25 -->
      <g transform="translate(37.875 45.271219)scale(0.1 -0.1)">
       <use xlink:href="#DejaVuSans-32"/>
       <use x="63.623047" xlink:href="#DejaVuSans-35"/>
      </g>
     </g>
    </g>
    <g id="text_14">
     <!-- Reward -->
     <g transform="translate(31.795312 193.149094)rotate(-90)scale(0.1 -0.1)">
      <defs>
       <path d="M 2841 2188 
Q 3044 2119 3236 1894 
Q 3428 1669 3622 1275 
L 4263 0 
L 3584 0 
L 2988 1197 
Q 2756 1666 2539 1819 
Q 2322 1972 1947 1972 
L 1259 1972 
L 1259 0 
L 628 0 
L 628 4666 
L 2053 4666 
Q 2853 4666 3247 4331 
Q 3641 3997 3641 3322 
Q 3641 2881 3436 2590 
Q 3231 2300 2841 2188 
z
M 1259 4147 
L 1259 2491 
L 2053 2491 
Q 2509 2491 2742 2702 
Q 2975 2913 2975 3322 
Q 2975 3731 2742 3939 
Q 2509 4147 2053 4147 
L 1259 4147 
z
" id="DejaVuSans-52" transform="scale(0.015625)"/>
       <path d="M 269 3500 
L 844 3500 
L 1563 769 
L 2278 3500 
L 2956 3500 
L 3675 769 
L 4391 3500 
L 4966 3500 
L 4050 0 
L 3372 0 
L 2619 2869 
L 1863 0 
L 1184 0 
L 269 3500 
z
" id="DejaVuSans-77" transform="scale(0.015625)"/>
       <path d="M 2194 1759 
Q 1497 1759 1228 1600 
Q 959 1441 959 1056 
Q 959 750 1161 570 
Q 1363 391 1709 391 
Q 2188 391 2477 730 
Q 2766 1069 2766 1631 
L 2766 1759 
L 2194 1759 
z
M 3341 1997 
L 3341 0 
L 2766 0 
L 2766 531 
Q 2569 213 2275 61 
Q 1981 -91 1556 -91 
Q 1019 -91 701 211 
Q 384 513 384 1019 
Q 384 1609 779 1909 
Q 1175 2209 1959 2209 
L 2766 2209 
L 2766 2266 
Q 2766 2663 2505 2880 
Q 2244 3097 1772 3097 
Q 1472 3097 1187 3025 
Q 903 2953 641 2809 
L 641 3341 
Q 956 3463 1253 3523 
Q 1550 3584 1831 3584 
Q 2591 3584 2966 3190 
Q 3341 2797 3341 1997 
z
" id="DejaVuSans-61" transform="scale(0.015625)"/>
       <path d="M 2631 2963 
Q 2534 3019 2420 3045 
Q 2306 3072 2169 3072 
Q 1681 3072 1420 2755 
Q 1159 2438 1159 1844 
L 1159 0 
L 581 0 
L 581 3500 
L 1159 3500 
L 1159 2956 
Q 1341 3275 1631 3429 
Q 1922 3584 2338 3584 
Q 2397 3584 2469 3576 
Q 2541 3569 2628 3553 
L 2631 2963 
z
" id="DejaVuSans-72" transform="scale(0.015625)"/>
       <path d="M 2906 2969 
L 2906 4863 
L 3481 4863 
L 3481 0 
L 2906 0 
L 2906 525 
Q 2725 213 2448 61 
Q 2172 -91 1784 -91 
Q 1150 -91 751 415 
Q 353 922 353 1747 
Q 353 2572 751 3078 
Q 1150 3584 1784 3584 
Q 2172 3584 2448 3432 
Q 2725 3281 2906 2969 
z
M 947 1747 
Q 947 1113 1208 752 
Q 1469 391 1925 391 
Q 2381 391 2643 752 
Q 2906 1113 2906 1747 
Q 2906 2381 2643 2742 
Q 2381 3103 1925 3103 
Q 1469 3103 1208 2742 
Q 947 2381 947 1747 
z
" id="DejaVuSans-64" transform="scale(0.015625)"/>
      </defs>
      <use xlink:href="#DejaVuSans-52"/>
      <use x="64.982422" xlink:href="#DejaVuSans-65"/>
      <use x="126.505859" xlink:href="#DejaVuSans-77"/>
      <use x="208.292969" xlink:href="#DejaVuSans-61"/>
      <use x="269.572266" xlink:href="#DejaVuSans-72"/>
      <use x="308.935547" xlink:href="#DejaVuSans-64"/>
     </g>
    </g>
   </g>
   <g id="line2d_13">
    <path clip-path="url(#p99220212ec)" d="M 73.832727 277.47392 
L 74.158359 279.05088 
L 74.48399 277.91744 
L 74.809622 277.47392 
L 75.135253 278.70592 
L 75.786516 279.05088 
L 76.112147 278.2624 
L 76.437779 276.24192 
L 76.76341 278.36096 
L 77.089042 276.5376 
L 77.414673 276.14336 
L 77.740305 275.15776 
L 78.065936 276.14336 
L 78.391567 279.19872 
L 78.717199 277.32608 
L 79.04283 276.88256 
L 79.368462 275.69984 
L 79.694093 275.84768 
L 80.019725 274.46784 
L 80.345356 274.51712 
L 80.670988 273.23584 
L 80.996619 277.17824 
L 81.32225 274.71424 
L 81.647882 274.22144 
L 81.973513 276.24192 
L 82.299145 274.36928 
L 82.624776 273.87648 
L 82.950408 272.79232 
L 83.276039 272.69376 
L 83.927302 275.65056 
L 84.252933 274.76352 
L 84.578565 275.25632 
L 84.904196 273.088 
L 85.229828 274.76352 
L 85.555459 278.016 
L 85.881091 274.66496 
L 86.206722 275.74912 
L 86.532353 275.45344 
L 86.857985 274.46784 
L 87.183616 275.552 
L 87.509248 273.97504 
L 87.834879 278.70592 
L 88.160511 277.0304 
L 88.486142 273.77792 
L 88.811774 275.94624 
L 89.137405 275.35488 
L 89.463036 274.0736 
L 89.788668 276.83328 
L 90.114299 272.89088 
L 90.439931 274.17216 
L 90.765562 274.86208 
L 91.416825 272.69376 
L 91.742456 273.97504 
L 92.068088 273.97504 
L 92.393719 274.5664 
L 92.719351 275.45344 
L 93.044982 272.79232 
L 93.370614 274.76352 
L 93.696245 273.28512 
L 94.021877 272.49664 
L 94.673139 276.63616 
L 94.998771 272.69376 
L 95.324402 274.96064 
L 95.650034 274.5664 
L 95.975665 274.46784 
L 96.626928 276.14336 
L 97.278191 273.088 
L 97.603822 273.48224 
L 97.929454 273.48224 
L 98.255085 273.18656 
L 98.580717 275.45344 
L 98.906348 273.48224 
L 99.23198 274.5664 
L 99.557611 273.87648 
L 99.883242 273.5808 
L 100.208874 276.14336 
L 100.534505 273.67936 
L 100.860137 274.66496 
L 101.185768 272.39808 
L 101.5114 274.46784 
L 101.837031 271.70816 
L 102.162663 273.088 
L 102.488294 273.87648 
L 102.813925 273.18656 
L 103.139557 274.76352 
L 103.465188 273.28512 
L 104.116451 273.97504 
L 104.442083 272.89088 
L 104.767714 273.38368 
L 105.093345 272.49664 
L 105.418977 272.79232 
L 105.744608 277.42464 
L 106.07024 274.27072 
L 106.395871 272.89088 
L 107.047134 271.80672 
L 107.372766 268.94848 
L 108.024028 275.74912 
L 108.34966 274.27072 
L 108.675291 273.87648 
L 109.326554 275.25632 
L 109.652186 274.5664 
L 109.977817 272.5952 
L 110.303449 272.29952 
L 110.62908 274.96064 
L 110.954711 271.6096 
L 111.280343 273.088 
L 111.605974 272.5952 
L 111.931606 272.98944 
L 112.257237 272.79232 
L 112.582869 273.38368 
L 112.9085 274.86208 
L 113.234131 273.87648 
L 113.559763 273.77792 
L 113.885394 272.49664 
L 114.211026 274.96064 
L 114.536657 272.5952 
L 114.862289 272.89088 
L 115.18792 273.77792 
L 115.513552 273.67936 
L 115.839183 272.89088 
L 116.164814 274.76352 
L 116.490446 273.77792 
L 116.816077 275.65056 
L 117.141709 274.46784 
L 117.46734 273.87648 
L 117.792972 274.36928 
L 118.118603 272.89088 
L 118.769866 271.6096 
L 119.095497 273.77792 
L 119.421129 273.87648 
L 119.74676 274.27072 
L 120.072392 272.20096 
L 120.723655 274.86208 
L 121.049286 274.86208 
L 121.374917 273.28512 
L 122.02618 275.84768 
L 122.351812 273.5808 
L 122.677443 274.66496 
L 123.003075 274.76352 
L 123.328706 273.5808 
L 123.654338 271.1168 
L 123.979969 273.28512 
L 124.3056 274.5664 
L 124.631232 273.38368 
L 124.956863 274.5664 
L 125.282495 274.46784 
L 125.608126 275.15776 
L 125.933758 274.17216 
L 126.259389 274.96064 
L 126.585021 273.67936 
L 126.910652 274.76352 
L 127.236283 272.39808 
L 127.561915 274.5664 
L 127.887546 275.15776 
L 128.538809 274.36928 
L 128.864441 273.28512 
L 129.190072 274.0736 
L 129.515703 273.77792 
L 129.841335 273.87648 
L 130.166966 274.46784 
L 130.818229 271.6096 
L 131.143861 275.0592 
L 131.469492 274.36928 
L 131.795124 274.17216 
L 132.120755 275.0592 
L 132.446386 269.04704 
L 132.772018 272.1024 
L 133.097649 273.97504 
L 133.423281 273.18656 
L 133.748912 274.86208 
L 134.074544 275.25632 
L 134.400175 274.96064 
L 134.725807 273.97504 
L 135.051438 274.86208 
L 135.377069 274.36928 
L 135.702701 275.94624 
L 136.028332 274.0736 
L 136.353964 275.65056 
L 136.679595 273.77792 
L 137.005227 274.96064 
L 137.330858 275.65056 
L 137.656489 272.49664 
L 137.982121 274.17216 
L 138.307752 271.80672 
L 138.633384 272.20096 
L 138.959015 273.18656 
L 139.284647 276.24192 
L 139.610278 268.55424 
L 139.93591 272.69376 
L 140.261541 274.96064 
L 140.587172 274.27072 
L 140.912804 274.66496 
L 141.238435 274.76352 
L 141.564067 272.5952 
L 141.889698 278.31168 
L 142.21533 275.35488 
L 142.540961 277.62176 
L 142.866593 275.74912 
L 143.192224 276.43904 
L 143.517855 274.96064 
L 143.843487 274.36928 
L 144.169118 273.088 
L 144.820381 275.94624 
L 145.146013 276.5376 
L 145.471644 276.73472 
L 145.797275 273.67936 
L 146.122907 273.97504 
L 146.448538 273.088 
L 146.77417 275.94624 
L 147.099801 273.48224 
L 147.425433 272.1024 
L 148.076696 278.5088 
L 148.402327 275.45344 
L 148.727958 275.15776 
L 149.05359 275.94624 
L 149.379221 275.45344 
L 149.704853 275.94624 
L 150.030484 275.15776 
L 150.356116 273.18656 
L 150.681747 274.46784 
L 151.007378 274.76352 
L 151.33301 276.93184 
L 151.658641 275.15776 
L 151.984273 274.76352 
L 152.309904 275.15776 
L 152.635536 274.66496 
L 152.961167 276.83328 
L 153.286799 277.42464 
L 153.61243 276.14336 
L 153.938061 273.28512 
L 154.263693 272.69376 
L 154.589324 276.14336 
L 154.914956 274.0736 
L 155.240587 277.42464 
L 155.566219 277.22752 
L 155.89185 277.62176 
L 156.217482 274.17216 
L 156.543113 277.12896 
L 156.868744 273.97504 
L 157.194376 275.74912 
L 157.520007 276.63616 
L 157.845639 274.96064 
L 158.17127 274.46784 
L 158.496902 275.15776 
L 158.822533 276.63616 
L 159.148164 275.74912 
L 159.473796 278.016 
L 159.799427 278.21312 
L 160.45069 274.46784 
L 160.776322 277.42464 
L 161.101953 274.96064 
L 161.427585 277.12896 
L 161.753216 273.97504 
L 162.078847 273.48224 
L 162.404479 277.62176 
L 162.73011 274.86208 
L 163.055742 276.5376 
L 163.381373 274.27072 
L 163.707005 276.63616 
L 164.032636 274.0736 
L 164.358268 277.91744 
L 164.683899 279.19872 
L 165.00953 273.5808 
L 165.335162 278.80448 
L 165.660793 276.34048 
L 165.986425 278.016 
L 166.312056 278.21312 
L 166.637688 278.70592 
L 166.963319 274.66496 
L 167.28895 277.62176 
L 167.940213 273.67936 
L 168.265845 278.5088 
L 168.591476 274.0736 
L 169.242739 275.84768 
L 169.568371 277.42464 
L 169.894002 277.81888 
L 170.219633 272.69376 
L 170.545265 278.5088 
L 170.870896 277.42464 
L 171.196528 275.74912 
L 171.522159 279.19872 
L 171.847791 275.84768 
L 172.499054 272.20096 
L 172.824685 277.0304 
L 173.150316 275.35488 
L 173.475948 275.94624 
L 173.801579 277.32608 
L 174.127211 277.81888 
L 174.452842 276.83328 
L 174.778474 276.73472 
L 175.104105 275.552 
L 175.429736 279.39584 
L 175.755368 274.66496 
L 176.080999 276.73472 
L 176.732262 274.0736 
L 177.057894 276.14336 
L 177.383525 274.36928 
L 178.034788 276.43904 
L 178.360419 279.10016 
L 178.686051 277.22752 
L 179.011682 277.91744 
L 179.337314 277.5232 
L 179.662945 275.25632 
L 179.988577 276.14336 
L 180.314208 275.552 
L 180.63984 276.43904 
L 180.965471 275.15776 
L 181.291102 277.12896 
L 181.616734 276.24192 
L 181.942365 274.96064 
L 182.267997 277.91744 
L 182.593628 274.76352 
L 182.91926 275.94624 
L 183.244891 276.0448 
L 183.570522 275.35488 
L 183.896154 275.74912 
L 184.221785 278.80448 
L 184.547417 275.35488 
L 184.873048 278.016 
L 185.19868 276.83328 
L 185.524311 277.62176 
L 185.849943 275.0592 
L 186.175574 277.0304 
L 186.501205 275.84768 
L 186.826837 276.83328 
L 187.152468 276.0448 
L 187.4781 277.81888 
L 187.803731 273.97504 
L 188.129363 274.17216 
L 188.454994 277.91744 
L 188.780626 279.79008 
L 189.106257 276.73472 
L 189.431888 276.73472 
L 189.75752 274.5664 
L 190.083151 275.74912 
L 190.408783 276.24192 
L 190.734414 276.0448 
L 191.060046 272.69376 
L 191.385677 273.77792 
L 191.711308 277.81888 
L 192.03694 275.74912 
L 192.362571 275.94624 
L 192.688203 274.5664 
L 193.339466 278.11456 
L 193.665097 277.0304 
L 193.990729 277.32608 
L 194.31636 275.45344 
L 194.641991 277.72032 
L 194.967623 276.83328 
L 195.293254 277.32608 
L 195.618886 275.84768 
L 195.944517 275.0592 
L 196.270149 277.12896 
L 196.59578 275.65056 
L 196.921412 276.73472 
L 197.247043 274.76352 
L 197.572674 275.552 
L 197.898306 275.15776 
L 198.223937 278.11456 
L 198.549569 276.43904 
L 198.8752 273.87648 
L 199.200832 277.5232 
L 199.526463 274.5664 
L 199.852094 275.84768 
L 200.177726 274.5664 
L 200.503357 277.5232 
L 200.828989 275.65056 
L 201.15462 277.42464 
L 201.480252 274.17216 
L 201.805883 275.65056 
L 202.131515 274.86208 
L 202.457146 271.90528 
L 202.782777 276.24192 
L 203.108409 276.93184 
L 203.43404 274.0736 
L 203.759672 274.36928 
L 204.085303 275.552 
L 204.410935 274.0736 
L 204.736566 276.0448 
L 205.062198 274.36928 
L 205.387829 276.24192 
L 205.71346 275.15776 
L 206.039092 276.83328 
L 206.364723 274.46784 
L 206.690355 277.91744 
L 207.015986 275.65056 
L 207.341618 277.5232 
L 207.667249 274.0736 
L 207.99288 275.35488 
L 208.318512 273.67936 
L 208.644143 273.87648 
L 208.969775 276.5376 
L 209.295406 276.5376 
L 209.621038 274.96064 
L 209.946669 274.0736 
L 210.272301 273.67936 
L 210.597932 274.46784 
L 210.923563 274.5664 
L 211.249195 277.22752 
L 211.574826 273.67936 
L 211.900458 275.94624 
L 212.226089 275.45344 
L 212.551721 277.91744 
L 212.877352 276.14336 
L 213.202983 276.83328 
L 213.528615 276.63616 
L 213.854246 274.17216 
L 214.179878 276.43904 
L 214.505509 273.28512 
L 214.831141 278.016 
L 215.156772 274.86208 
L 215.482404 276.14336 
L 215.808035 278.21312 
L 216.133666 274.96064 
L 216.459298 275.65056 
L 216.784929 274.76352 
L 217.436192 275.94624 
L 218.087455 277.91744 
L 218.413087 276.24192 
L 218.738718 275.94624 
L 219.064349 276.0448 
L 219.389981 275.45344 
L 220.041244 274.76352 
L 220.366875 276.63616 
L 220.692507 276.73472 
L 221.018138 274.86208 
L 221.343769 277.5232 
L 221.669401 277.22752 
L 221.995032 277.42464 
L 222.320664 275.15776 
L 222.646295 277.42464 
L 222.971927 278.21312 
L 223.297558 273.77792 
L 223.62319 277.81888 
L 223.948821 273.87648 
L 224.274452 274.5664 
L 224.600084 273.87648 
L 224.925715 275.15776 
L 225.251347 277.81888 
L 225.576978 274.5664 
L 225.90261 276.63616 
L 226.228241 276.34048 
L 226.553873 276.5376 
L 226.879504 278.11456 
L 227.205135 276.73472 
L 227.530767 277.62176 
L 227.856398 275.65056 
L 228.18203 276.73472 
L 228.833293 275.74912 
L 229.158924 276.34048 
L 229.810187 275.0592 
L 230.135818 275.94624 
L 230.46145 274.76352 
L 230.787081 276.43904 
L 231.112713 273.77792 
L 231.438344 277.81888 
L 231.763976 277.5232 
L 232.089607 276.63616 
L 232.415238 277.12896 
L 232.74087 277.12896 
L 233.066501 277.42464 
L 233.392133 276.14336 
L 233.717764 277.22752 
L 234.043396 274.76352 
L 234.369027 274.86208 
L 234.694659 276.5376 
L 235.02029 275.552 
L 235.345921 274.96064 
L 235.671553 273.38368 
L 235.997184 276.14336 
L 236.322816 274.5664 
L 236.648447 274.27072 
L 236.974079 275.552 
L 237.29971 275.552 
L 237.625341 276.24192 
L 237.950973 275.45344 
L 238.276604 274.96064 
L 238.602236 277.62176 
L 238.927867 275.552 
L 239.253499 276.34048 
L 239.57913 275.45344 
L 239.904762 276.83328 
L 240.230393 274.5664 
L 240.556024 276.93184 
L 240.881656 276.5376 
L 241.207287 276.73472 
L 241.85855 274.66496 
L 242.184182 275.84768 
L 242.509813 275.45344 
L 242.835445 276.24192 
L 243.161076 278.80448 
L 243.486707 278.70592 
L 243.812339 275.65056 
L 244.13797 275.45344 
L 244.463602 278.11456 
L 244.789233 276.43904 
L 245.114865 276.34048 
L 245.440496 273.87648 
L 246.091759 277.81888 
L 246.41739 278.31168 
L 246.743022 278.016 
L 247.068653 276.93184 
L 247.394285 278.016 
L 247.719916 277.0304 
L 248.045548 275.35488 
L 248.371179 275.84768 
L 248.69681 275.94624 
L 249.022442 277.5232 
L 249.348073 273.38368 
L 249.673705 273.97504 
L 249.999336 277.91744 
L 250.324968 275.45344 
L 250.650599 275.25632 
L 250.976231 276.24192 
L 251.301862 278.90304 
L 251.627493 276.34048 
L 251.953125 277.32608 
L 252.278756 275.552 
L 252.604388 277.5232 
L 252.930019 277.42464 
L 253.255651 276.83328 
L 253.581282 275.552 
L 253.906913 277.91744 
L 254.232545 276.34048 
L 254.558176 275.65056 
L 254.883808 276.73472 
L 255.209439 276.73472 
L 255.535071 277.91744 
L 255.860702 278.016 
L 256.186334 274.5664 
L 256.511965 275.45344 
L 256.837596 276.73472 
L 257.163228 275.65056 
L 257.488859 278.21312 
L 257.814491 276.93184 
L 258.140122 276.14336 
L 258.465754 278.21312 
L 258.791385 276.63616 
L 259.117017 278.80448 
L 259.768279 276.14336 
L 260.093911 278.11456 
L 260.419542 278.80448 
L 260.745174 275.94624 
L 261.070805 278.21312 
L 261.396437 277.22752 
L 261.722068 279.29728 
L 262.047699 275.35488 
L 262.373331 277.5232 
L 262.698962 272.98944 
L 263.024594 276.73472 
L 263.350225 276.83328 
L 263.675857 277.62176 
L 264.001488 277.12896 
L 264.32712 277.12896 
L 264.652751 279.79008 
L 264.978382 279.29728 
L 265.304014 278.5088 
L 265.955277 274.86208 
L 266.280908 275.94624 
L 266.60654 276.0448 
L 266.932171 275.45344 
L 267.257802 278.21312 
L 267.583434 275.25632 
L 267.909065 276.34048 
L 268.234697 278.70592 
L 268.560328 274.17216 
L 268.88596 277.22752 
L 269.211591 276.73472 
L 269.537223 278.41024 
L 269.862854 276.83328 
L 270.514117 275.84768 
L 271.16538 278.21312 
L 271.491011 275.552 
L 271.816643 276.73472 
L 272.142274 276.5376 
L 272.467906 275.45344 
L 272.793537 277.22752 
L 273.119168 277.72032 
L 273.4448 278.90304 
L 273.770431 278.90304 
L 274.096063 277.91744 
L 274.421694 277.72032 
L 274.747326 279.88864 
L 275.072957 276.34048 
L 275.398588 276.24192 
L 275.72422 277.42464 
L 276.049851 277.22752 
L 276.375483 275.552 
L 276.701114 277.22752 
L 277.026746 276.0448 
L 277.352377 278.41024 
L 277.678009 278.90304 
L 278.00364 277.32608 
L 278.329271 277.12896 
L 278.654903 276.73472 
L 278.980534 277.81888 
L 279.306166 276.5376 
L 279.631797 277.32608 
L 279.957429 277.12896 
L 280.28306 277.12896 
L 280.608692 278.90304 
L 280.934323 279.10016 
L 281.259954 276.63616 
L 281.585586 276.43904 
L 282.236849 275.0592 
L 282.56248 277.42464 
L 282.888112 275.45344 
L 283.539374 277.72032 
L 283.865006 274.46784 
L 284.190637 276.73472 
L 284.516269 276.63616 
L 284.8419 276.24192 
L 285.167532 276.43904 
L 285.493163 278.41024 
L 285.818795 277.12896 
L 286.144426 277.5232 
L 286.470057 279.10016 
L 287.12132 278.016 
L 287.446952 276.14336 
L 287.772583 276.5376 
L 288.098215 277.72032 
L 288.423846 277.5232 
L 288.749478 276.43904 
L 289.075109 276.43904 
L 289.40074 277.62176 
L 289.726372 278.016 
L 290.052003 276.43904 
L 290.377635 276.0448 
L 290.703266 277.91744 
L 291.028898 276.63616 
L 291.354529 278.90304 
L 291.68016 278.80448 
L 292.331423 276.43904 
L 292.657055 277.62176 
L 292.982686 276.24192 
L 293.308318 277.22752 
L 293.633949 274.5664 
L 294.285212 276.14336 
L 294.610843 278.11456 
L 294.936475 277.0304 
L 295.262106 277.62176 
L 295.587738 277.72032 
L 295.913369 277.62176 
L 296.239001 277.32608 
L 296.564632 277.5232 
L 296.890264 276.24192 
L 297.215895 276.73472 
L 297.541526 276.63616 
L 297.867158 275.45344 
L 298.192789 278.80448 
L 298.518421 277.5232 
L 298.844052 279.4944 
L 299.169684 278.41024 
L 299.495315 278.11456 
L 300.146578 275.94624 
L 300.472209 277.22752 
L 300.797841 276.63616 
L 301.123472 278.5088 
L 301.449104 276.63616 
L 301.774735 276.83328 
L 302.100367 276.63616 
L 302.425998 276.14336 
L 302.751629 277.91744 
L 303.077261 276.34048 
L 303.402892 278.11456 
L 303.728524 278.41024 
L 304.054155 276.63616 
L 304.379787 276.43904 
L 304.705418 279.4944 
L 305.03105 279.0016 
L 305.356681 277.62176 
L 305.682312 277.12896 
L 306.007944 276.34048 
L 306.333575 279.0016 
L 306.659207 278.016 
L 306.984838 278.60736 
L 307.31047 277.91744 
L 307.961732 275.65056 
L 308.287364 278.016 
L 308.612995 276.24192 
L 308.938627 276.5376 
L 309.264258 278.5088 
L 309.58989 276.93184 
L 309.915521 278.60736 
L 310.241153 276.34048 
L 310.892415 277.62176 
L 311.218047 276.93184 
L 311.543678 277.32608 
L 311.86931 278.41024 
L 312.194941 273.77792 
L 312.846204 278.21312 
L 313.171836 278.21312 
L 313.497467 277.42464 
L 313.823098 277.32608 
L 314.14873 274.66496 
L 314.474361 277.12896 
L 314.799993 277.72032 
L 315.125624 277.91744 
L 315.451256 276.83328 
L 315.776887 277.0304 
L 316.102518 278.31168 
L 316.42815 276.73472 
L 316.753781 277.22752 
L 317.079413 278.016 
L 317.405044 280.28288 
L 317.730676 279.59296 
L 318.056307 277.0304 
L 318.381939 278.31168 
L 318.70757 278.60736 
L 319.033201 277.72032 
L 319.358833 276.24192 
L 319.684464 277.0304 
L 320.010096 277.5232 
L 320.661359 277.22752 
L 320.98699 276.34048 
L 321.312622 277.12896 
L 321.638253 278.41024 
L 321.963884 274.36928 
L 322.289516 275.552 
L 322.615147 275.35488 
L 322.940779 277.12896 
L 323.26641 276.0448 
L 323.592042 275.552 
L 323.917673 276.0448 
L 324.243304 278.11456 
L 324.568936 278.31168 
L 324.894567 276.0448 
L 325.220199 278.90304 
L 325.54583 278.90304 
L 325.871462 277.72032 
L 326.197093 273.87648 
L 326.522725 276.73472 
L 326.848356 276.34048 
L 327.173987 275.35488 
L 327.499619 275.0592 
L 327.82525 278.80448 
L 328.150882 276.5376 
L 328.476513 278.21312 
L 328.802145 276.14336 
L 329.127776 278.11456 
L 329.453407 275.65056 
L 329.779039 275.94624 
L 330.10467 273.5808 
L 330.430302 277.91744 
L 330.755933 279.10016 
L 331.081565 276.24192 
L 331.407196 278.90304 
L 331.732828 277.32608 
L 332.058459 279.10016 
L 332.38409 277.32608 
L 332.709722 276.83328 
L 333.035353 273.87648 
L 333.360985 276.83328 
L 333.686616 275.65056 
L 334.012248 278.31168 
L 334.337879 276.63616 
L 334.663511 278.016 
L 334.989142 275.94624 
L 335.314773 275.94624 
L 335.640405 279.0016 
L 335.966036 277.5232 
L 336.291668 275.35488 
L 336.617299 277.91744 
L 337.268562 275.552 
L 337.594193 276.24192 
L 337.919825 275.45344 
L 338.245456 277.81888 
L 338.571088 278.31168 
L 338.896719 275.25632 
L 339.222351 277.5232 
L 339.547982 276.73472 
L 339.873614 276.34048 
L 340.199245 277.22752 
L 340.524876 276.73472 
L 340.850508 278.11456 
L 341.176139 278.90304 
L 341.501771 278.41024 
L 341.827402 274.46784 
L 342.153034 277.32608 
L 342.478665 274.86208 
L 342.804297 278.31168 
L 343.129928 278.31168 
L 343.455559 275.15776 
L 343.781191 277.32608 
L 344.106822 276.83328 
L 344.432454 275.35488 
L 344.758085 275.74912 
L 345.083717 275.94624 
L 345.409348 277.72032 
L 345.734979 276.73472 
L 346.060611 275.15776 
L 346.386242 277.32608 
L 346.711874 276.43904 
L 347.037505 278.11456 
L 347.363137 279.10016 
L 347.688768 275.94624 
L 348.0144 277.5232 
L 348.340031 276.34048 
L 348.665662 277.22752 
L 348.991294 278.5088 
L 349.316925 277.32608 
L 349.642557 278.70592 
L 349.968188 275.15776 
L 350.29382 276.93184 
L 350.619451 275.65056 
L 350.945083 277.91744 
L 351.270714 278.11456 
L 351.596345 277.32608 
L 351.921977 277.62176 
L 352.57324 277.12896 
L 352.898871 278.016 
L 353.224503 274.76352 
L 353.550134 279.19872 
L 353.875765 278.11456 
L 354.201397 278.60736 
L 354.527028 275.552 
L 354.85266 276.63616 
L 355.178291 274.96064 
L 355.503923 278.90304 
L 355.829554 277.62176 
L 356.155186 277.12896 
L 356.480817 277.12896 
L 356.806448 276.83328 
L 357.13208 275.74912 
L 357.457711 275.25632 
L 357.783343 275.84768 
L 358.434606 279.0016 
L 358.760237 276.34048 
L 359.085869 276.43904 
L 359.4115 277.42464 
L 359.737131 278.016 
L 360.062763 275.35488 
L 360.388394 276.34048 
L 360.714026 279.0016 
L 361.039657 277.62176 
L 362.016551 275.65056 
L 362.342183 277.5232 
L 362.667814 277.81888 
L 362.993446 275.15776 
L 363.319077 277.12896 
L 363.644709 276.73472 
L 363.97034 277.81888 
L 364.295972 275.35488 
L 364.621603 275.94624 
L 364.947234 277.91744 
L 365.272866 275.45344 
L 365.598497 279.0016 
L 365.924129 277.0304 
L 366.24976 278.31168 
L 366.575392 278.21312 
L 366.901023 273.77792 
L 367.226655 276.0448 
L 367.552286 277.5232 
L 367.877917 277.91744 
L 368.203549 277.62176 
L 368.52918 278.21312 
L 368.854812 275.45344 
L 369.506075 278.21312 
L 369.831706 277.42464 
L 370.157337 276.93184 
L 370.482969 275.45344 
L 370.8086 274.76352 
L 371.134232 275.65056 
L 371.459863 277.62176 
L 371.785495 276.93184 
L 372.111126 278.70592 
L 372.436758 276.43904 
L 372.762389 278.11456 
L 373.08802 278.11456 
L 373.413652 276.5376 
L 373.739283 279.19872 
L 374.064915 277.0304 
L 374.390546 276.73472 
L 375.367441 278.70592 
L 375.693072 277.32608 
L 376.018703 279.59296 
L 376.344335 277.91744 
L 376.669966 274.5664 
L 376.995598 278.21312 
L 377.321229 277.91744 
L 377.646861 277.22752 
L 377.972492 277.91744 
L 378.298123 278.016 
L 378.623755 275.65056 
L 378.949386 278.31168 
L 379.275018 278.016 
L 379.600649 275.15776 
L 379.926281 276.5376 
L 380.251912 275.15776 
L 380.577544 278.5088 
L 380.903175 276.24192 
L 381.228806 277.81888 
L 381.554438 276.63616 
L 381.880069 278.016 
L 382.205701 276.43904 
L 382.531332 277.5232 
L 382.856964 277.42464 
L 383.182595 278.41024 
L 383.833858 275.45344 
L 384.159489 275.552 
L 384.485121 278.21312 
L 384.810752 277.91744 
L 385.136384 276.83328 
L 385.462015 277.32608 
L 385.787647 279.10016 
L 386.113278 278.016 
L 386.438909 275.552 
L 386.764541 278.21312 
L 387.090172 278.21312 
L 387.415804 277.81888 
L 387.741435 279.0016 
L 388.067067 278.11456 
L 388.392698 275.25632 
L 388.71833 277.72032 
L 389.043961 274.5664 
L 389.369592 277.72032 
L 389.695224 274.76352 
L 390.020855 275.0592 
L 390.346487 278.60736 
L 390.672118 278.80448 
L 390.99775 278.016 
L 391.323381 278.90304 
L 391.974644 275.84768 
L 392.300275 275.94624 
L 392.625907 275.45344 
L 392.951538 277.0304 
L 393.27717 275.0592 
L 393.602801 276.93184 
L 393.928433 277.72032 
L 394.254064 278.016 
L 394.579695 279.10016 
L 394.905327 276.73472 
L 395.230958 277.81888 
L 395.55659 277.91744 
L 395.882221 274.17216 
L 396.533484 279.0016 
L 396.859116 276.5376 
L 397.184747 278.41024 
L 397.510378 278.41024 
L 397.83601 276.73472 
L 398.161641 276.14336 
L 398.487273 273.38368 
L 398.487273 273.38368 
" style="fill:none;stroke:#1f77b4;stroke-linecap:square;stroke-width:1.5;"/>
   </g>
   <g id="patch_3">
    <path d="M 57.6 307.584 
L 57.6 41.472 
" style="fill:none;stroke:#000000;stroke-linecap:square;stroke-linejoin:miter;stroke-width:0.8;"/>
   </g>
   <g id="patch_4">
    <path d="M 414.72 307.584 
L 414.72 41.472 
" style="fill:none;stroke:#000000;stroke-linecap:square;stroke-linejoin:miter;stroke-width:0.8;"/>
   </g>
   <g id="patch_5">
    <path d="M 57.6 307.584 
L 414.72 307.584 
" style="fill:none;stroke:#000000;stroke-linecap:square;stroke-linejoin:miter;stroke-width:0.8;"/>
   </g>
   <g id="patch_6">
    <path d="M 57.6 41.472 
L 414.72 41.472 
" style="fill:none;stroke:#000000;stroke-linecap:square;stroke-linejoin:miter;stroke-width:0.8;"/>
   </g>
   <g id="text_15">
    <!-- Training - NSRA-ES - Slimevolley -->
    <g transform="translate(140.0925 35.472)scale(0.12 -0.12)">
     <defs>
      <path d="M 3513 2113 
L 3513 0 
L 2938 0 
L 2938 2094 
Q 2938 2591 2744 2837 
Q 2550 3084 2163 3084 
Q 1697 3084 1428 2787 
Q 1159 2491 1159 1978 
L 1159 0 
L 581 0 
L 581 3500 
L 1159 3500 
L 1159 2956 
Q 1366 3272 1645 3428 
Q 1925 3584 2291 3584 
Q 2894 3584 3203 3211 
Q 3513 2838 3513 2113 
z
" id="DejaVuSans-6e" transform="scale(0.015625)"/>
      <path d="M 2906 1791 
Q 2906 2416 2648 2759 
Q 2391 3103 1925 3103 
Q 1463 3103 1205 2759 
Q 947 2416 947 1791 
Q 947 1169 1205 825 
Q 1463 481 1925 481 
Q 2391 481 2648 825 
Q 2906 1169 2906 1791 
z
M 3481 434 
Q 3481 -459 3084 -895 
Q 2688 -1331 1869 -1331 
Q 1566 -1331 1297 -1286 
Q 1028 -1241 775 -1147 
L 775 -588 
Q 1028 -725 1275 -790 
Q 1522 -856 1778 -856 
Q 2344 -856 2625 -561 
Q 2906 -266 2906 331 
L 2906 616 
Q 2728 306 2450 153 
Q 2172 0 1784 0 
Q 1141 0 747 490 
Q 353 981 353 1791 
Q 353 2603 747 3093 
Q 1141 3584 1784 3584 
Q 2172 3584 2450 3431 
Q 2728 3278 2906 2969 
L 2906 3500 
L 3481 3500 
L 3481 434 
z
" id="DejaVuSans-67" transform="scale(0.015625)"/>
      <path id="DejaVuSans-20" transform="scale(0.015625)"/>
      <path d="M 313 2009 
L 1997 2009 
L 1997 1497 
L 313 1497 
L 313 2009 
z
" id="DejaVuSans-2d" transform="scale(0.015625)"/>
      <path d="M 628 4666 
L 1478 4666 
L 3547 763 
L 3547 4666 
L 4159 4666 
L 4159 0 
L 3309 0 
L 1241 3903 
L 1241 0 
L 628 0 
L 628 4666 
z
" id="DejaVuSans-4e" transform="scale(0.015625)"/>
      <path d="M 3425 4513 
L 3425 3897 
Q 3066 4069 2747 4153 
Q 2428 4238 2131 4238 
Q 1616 4238 1336 4038 
Q 1056 3838 1056 3469 
Q 1056 3159 1242 3001 
Q 1428 2844 1947 2747 
L 2328 2669 
Q 3034 2534 3370 2195 
Q 3706 1856 3706 1288 
Q 3706 609 3251 259 
Q 2797 -91 1919 -91 
Q 1588 -91 1214 -16 
Q 841 59 441 206 
L 441 856 
Q 825 641 1194 531 
Q 1563 422 1919 422 
Q 2459 422 2753 634 
Q 3047 847 3047 1241 
Q 3047 1584 2836 1778 
Q 2625 1972 2144 2069 
L 1759 2144 
Q 1053 2284 737 2584 
Q 422 2884 422 3419 
Q 422 4038 858 4394 
Q 1294 4750 2059 4750 
Q 2388 4750 2728 4690 
Q 3069 4631 3425 4513 
z
" id="DejaVuSans-53" transform="scale(0.015625)"/>
      <path d="M 2188 4044 
L 1331 1722 
L 3047 1722 
L 2188 4044 
z
M 1831 4666 
L 2547 4666 
L 4325 0 
L 3669 0 
L 3244 1197 
L 1141 1197 
L 716 0 
L 50 0 
L 1831 4666 
z
" id="DejaVuSans-41" transform="scale(0.015625)"/>
      <path d="M 628 4666 
L 3578 4666 
L 3578 4134 
L 1259 4134 
L 1259 2753 
L 3481 2753 
L 3481 2222 
L 1259 2222 
L 1259 531 
L 3634 531 
L 3634 0 
L 628 0 
L 628 4666 
z
" id="DejaVuSans-45" transform="scale(0.015625)"/>
      <path d="M 603 4863 
L 1178 4863 
L 1178 0 
L 603 0 
L 603 4863 
z
" id="DejaVuSans-6c" transform="scale(0.015625)"/>
      <path d="M 191 3500 
L 800 3500 
L 1894 563 
L 2988 3500 
L 3597 3500 
L 2284 0 
L 1503 0 
L 191 3500 
z
" id="DejaVuSans-76" transform="scale(0.015625)"/>
      <path d="M 1959 3097 
Q 1497 3097 1228 2736 
Q 959 2375 959 1747 
Q 959 1119 1226 758 
Q 1494 397 1959 397 
Q 2419 397 2687 759 
Q 2956 1122 2956 1747 
Q 2956 2369 2687 2733 
Q 2419 3097 1959 3097 
z
M 1959 3584 
Q 2709 3584 3137 3096 
Q 3566 2609 3566 1747 
Q 3566 888 3137 398 
Q 2709 -91 1959 -91 
Q 1206 -91 779 398 
Q 353 888 353 1747 
Q 353 2609 779 3096 
Q 1206 3584 1959 3584 
z
" id="DejaVuSans-6f" transform="scale(0.015625)"/>
      <path d="M 2059 -325 
Q 1816 -950 1584 -1140 
Q 1353 -1331 966 -1331 
L 506 -1331 
L 506 -850 
L 844 -850 
Q 1081 -850 1212 -737 
Q 1344 -625 1503 -206 
L 1606 56 
L 191 3500 
L 800 3500 
L 1894 763 
L 2988 3500 
L 3597 3500 
L 2059 -325 
z
" id="DejaVuSans-79" transform="scale(0.015625)"/>
     </defs>
     <use xlink:href="#DejaVuSans-54"/>
     <use x="46.333984" xlink:href="#DejaVuSans-72"/>
     <use x="87.447266" xlink:href="#DejaVuSans-61"/>
     <use x="148.726562" xlink:href="#DejaVuSans-69"/>
     <use x="176.509766" xlink:href="#DejaVuSans-6e"/>
     <use x="239.888672" xlink:href="#DejaVuSans-69"/>
     <use x="267.671875" xlink:href="#DejaVuSans-6e"/>
     <use x="331.050781" xlink:href="#DejaVuSans-67"/>
     <use x="394.527344" xlink:href="#DejaVuSans-20"/>
     <use x="426.314453" xlink:href="#DejaVuSans-2d"/>
     <use x="462.398438" xlink:href="#DejaVuSans-20"/>
     <use x="494.185547" xlink:href="#DejaVuSans-4e"/>
     <use x="568.990234" xlink:href="#DejaVuSans-53"/>
     <use x="632.466797" xlink:href="#DejaVuSans-52"/>
     <use x="697.949219" xlink:href="#DejaVuSans-41"/>
     <use x="764.107422" xlink:href="#DejaVuSans-2d"/>
     <use x="800.191406" xlink:href="#DejaVuSans-45"/>
     <use x="863.375" xlink:href="#DejaVuSans-53"/>
     <use x="926.851562" xlink:href="#DejaVuSans-20"/>
     <use x="958.638672" xlink:href="#DejaVuSans-2d"/>
     <use x="994.722656" xlink:href="#DejaVuSans-20"/>
     <use x="1026.509766" xlink:href="#DejaVuSans-53"/>
     <use x="1089.986328" xlink:href="#DejaVuSans-6c"/>
     <use x="1117.769531" xlink:href="#DejaVuSans-69"/>
     <use x="1145.552734" xlink:href="#DejaVuSans-6d"/>
     <use x="1242.964844" xlink:href="#DejaVuSans-65"/>
     <use x="1304.488281" xlink:href="#DejaVuSans-76"/>
     <use x="1363.667969" xlink:href="#DejaVuSans-6f"/>
     <use x="1424.849609" xlink:href="#DejaVuSans-6c"/>
     <use x="1452.632812" xlink:href="#DejaVuSans-6c"/>
     <use x="1480.416016" xlink:href="#DejaVuSans-65"/>
     <use x="1541.939453" xlink:href="#DejaVuSans-79"/>
    </g>
   </g>
  </g>
 </g>
 <defs>
  <clipPath id="p99220212ec">
   <rect height="266.112" width="357.12" x="57.6" y="41.472"/>
  </clipPath>
 </defs>
</svg>
