<?xml version="1.0" encoding="utf-8" standalone="no"?>
<!DOCTYPE svg PUBLIC "-//W3C//DTD SVG 1.1//EN"
  "http://www.w3.org/Graphics/SVG/1.1/DTD/svg11.dtd">
<svg height="345.6pt" version="1.1" viewBox="0 0 460.8 345.6" width="460.8pt" xmlns="http://www.w3.org/2000/svg" xmlns:xlink="http://www.w3.org/1999/xlink">
 <metadata>
  <rdf:RDF xmlns:cc="http://creativecommons.org/ns#" xmlns:dc="http://purl.org/dc/elements/1.1/" xmlns:rdf="http://www.w3.org/1999/02/22-rdf-syntax-ns#">
   <cc:Work>
    <dc:type rdf:resource="http://purl.org/dc/dcmitype/StillImage"/>
    <dc:date>2021-07-22T17:33:54.069917</dc:date>
    <dc:format>image/svg+xml</dc:format>
    <dc:creator>
     <cc:Agent>
      <dc:title>Matplotlib v3.4.2, https://matplotlib.org/</dc:title>
     </cc:Agent>
    </dc:creator>
   </cc:Work>
  </rdf:RDF>
 </metadata>
 <defs>
  <style type="text/css">*{stroke-linecap:butt;stroke-linejoin:round;}</style>
 </defs>
 <g id="figure_1">
  <g id="patch_1">
   <path d="M 0 345.6 
L 460.8 345.6 
L 460.8 0 
L 0 0 
z
" style="fill:#ffffff;"/>
  </g>
  <g id="axes_1">
   <g id="patch_2">
    <path d="M 57.6 307.584 
L 414.72 307.584 
L 414.72 41.472 
L 57.6 41.472 
z
" style="fill:#ffffff;"/>
   </g>
   <g id="PolyCollection_1">
    <path clip-path="url(#p8622676030)" d="M 57.95712 303.541093 
L 57.95712 304.347413 
L 58.31424 305.143088 
L 58.67136 305.185 
L 59.02848 304.920219 
L 59.3856 305.456435 
L 59.74272 305.18367 
L 60.09984 305.179678 
L 60.45696 305.240884 
L 60.81408 305.212942 
L 61.1712 304.952152 
L 61.52832 304.791155 
L 61.88544 305.027329 
L 62.24256 304.843712 
L 62.59968 304.797807 
L 62.9568 304.805125 
L 63.31392 304.6734 
L 63.67104 304.596228 
L 64.02816 304.533026 
L 64.38528 304.4013 
L 64.7424 304.462506 
L 65.09952 304.36471 
L 65.45664 304.318806 
L 65.81376 304.248951 
L 66.17088 304.268244 
L 66.528 304.260926 
L 66.88512 304.272236 
L 67.24224 304.247621 
L 67.59936 304.165791 
L 67.95648 304.232985 
L 68.3136 304.219679 
L 68.67072 304.219014 
L 69.02784 304.2097 
L 69.38496 304.187746 
L 69.74208 304.228328 
L 70.0992 304.183089 
L 70.45632 304.185084 
L 70.81344 304.055355 
L 71.17056 303.893027 
L 71.52768 304.145168 
L 71.8848 304.076644 
L 72.24192 304.010116 
L 72.59904 304.122548 
L 72.95616 303.943588 
L 73.31328 304.092611 
L 73.6704 303.837808 
L 74.02752 303.857767 
L 74.38464 303.628245 
L 74.74176 303.605626 
L 75.09888 303.007539 
L 75.456 302.822591 
L 75.81312 302.38151 
L 76.17024 301.838642 
L 76.52736 300.113571 
L 76.88448 298.717148 
L 77.2416 297.919477 
L 77.59872 297.279478 
L 77.95584 293.560563 
L 78.31296 294.607048 
L 78.67008 293.070917 
L 79.0272 291.645222 
L 79.38432 292.188756 
L 79.74144 291.349172 
L 80.09856 291.142935 
L 80.45568 292.298527 
L 80.8128 291.865429 
L 81.16992 289.711253 
L 81.52704 290.114412 
L 81.88416 289.815702 
L 82.24128 289.742521 
L 82.5984 291.067093 
L 82.95552 289.568883 
L 83.31264 287.92298 
L 83.66976 287.914332 
L 84.02688 287.596993 
L 84.384 288.106597 
L 84.74112 288.181774 
L 85.09824 287.405392 
L 85.45536 287.45928 
L 85.81248 287.464602 
L 86.1696 287.333542 
L 86.52672 287.147264 
L 86.88384 287.655538 
L 87.24096 287.360819 
L 87.59808 287.451297 
L 87.9552 286.728137 
L 88.31232 287.004894 
L 88.66944 286.163315 
L 89.02656 286.425435 
L 89.38368 285.961735 
L 89.7408 286.08082 
L 90.09792 285.933793 
L 90.45504 286.122732 
L 90.81216 285.555914 
L 91.16928 285.77213 
L 91.5264 285.644396 
L 91.88352 285.201985 
L 92.24064 285.839988 
L 92.59776 285.616454 
L 92.95488 285.906516 
L 93.312 284.992422 
L 93.66912 284.92922 
L 94.02624 285.704937 
L 94.38336 284.901944 
L 94.74048 285.383606 
L 95.0976 285.04764 
L 95.45472 285.182027 
L 95.81184 285.410883 
L 96.16896 285.223274 
L 96.52608 285.418201 
L 96.8832 284.943191 
L 97.24032 284.814792 
L 97.59744 284.69105 
L 97.95456 284.72631 
L 98.31168 284.2034 
L 98.6688 283.830843 
L 99.02592 284.569304 
L 99.38304 283.452964 
L 99.74016 283.531467 
L 100.09728 283.591342 
L 100.4544 283.083733 
L 100.81152 282.759742 
L 101.16864 282.843567 
L 101.52576 282.634004 
L 101.88288 282.36257 
L 102.24 280.946189 
L 102.59712 282.19625 
L 102.95424 282.496956 
L 103.31136 281.948766 
L 103.66848 282.199576 
L 104.0256 281.705273 
L 104.38272 282.513588 
L 104.73984 281.17571 
L 105.09696 282.870844 
L 105.45408 281.680658 
L 105.8112 281.232924 
L 106.16832 281.842986 
L 106.52544 281.980699 
L 106.88256 281.024692 
L 107.23968 281.321407 
L 107.5968 280.927561 
L 107.95392 280.557665 
L 108.31104 281.268184 
L 108.66816 280.791179 
L 109.02528 280.420618 
L 109.3824 279.922988 
L 109.73952 280.24831 
L 110.09664 279.731388 
L 110.45376 279.865109 
L 110.81088 280.532385 
L 111.168 279.876419 
L 111.52512 279.558415 
L 111.88224 278.816628 
L 112.23936 278.789351 
L 112.59648 278.92906 
L 112.9536 279.139288 
L 113.31072 278.676253 
L 113.66784 278.295048 
L 114.02496 278.807314 
L 114.38208 278.676919 
L 114.7392 277.885901 
L 115.09632 278.125402 
L 115.45344 279.823861 
L 115.81056 278.376212 
L 116.16768 278.410807 
L 116.5248 278.9417 
L 116.88192 278.945692 
L 117.23904 279.181201 
L 117.59616 279.294964 
L 117.95328 277.832013 
L 118.3104 279.153259 
L 118.66752 278.58511 
L 119.02464 278.859871 
L 119.38176 279.310265 
L 119.73888 278.555838 
L 120.096 279.275671 
L 120.45312 279.261035 
L 120.81024 278.802657 
L 121.16736 278.88116 
L 121.52448 277.836005 
L 121.8816 279.70145 
L 122.23872 279.90436 
L 122.59584 279.293633 
L 122.95296 277.242575 
L 123.31008 275.782951 
L 123.6672 276.004489 
L 124.02432 275.515508 
L 124.38144 275.633263 
L 124.73856 276.724322 
L 125.09568 277.39692 
L 125.4528 275.653221 
L 125.80992 275.958585 
L 126.16704 275.653221 
L 126.52416 276.341121 
L 126.88128 276.122909 
L 127.2384 275.4237 
L 127.59552 275.470269 
L 127.95264 275.916672 
L 128.30976 275.623284 
L 128.66688 275.797587 
L 129.024 275.717088 
L 129.38112 275.995175 
L 129.73824 277.154093 
L 130.09536 275.569396 
L 130.45248 276.228688 
L 130.8096 276.31584 
L 131.16672 276.134884 
L 131.52384 275.672514 
L 131.88096 276.460206 
L 132.23808 276.246651 
L 132.5952 276.300539 
L 132.95232 275.617961 
L 133.30944 277.501369 
L 133.66656 275.979208 
L 134.02368 278.100786 
L 134.3808 278.573135 
L 134.73792 278.711513 
L 135.09504 279.966231 
L 135.45216 279.839828 
L 135.80928 279.59434 
L 136.1664 279.739371 
L 136.52352 281.741864 
L 136.88064 279.826523 
L 137.23776 281.475752 
L 137.59488 281.350679 
L 137.952 281.833672 
L 138.30912 280.740617 
L 138.66624 280.346772 
L 139.02336 281.921489 
L 139.38048 281.848974 
L 139.7376 282.30336 
L 140.09472 281.737872 
L 140.45184 281.760492 
L 140.80896 281.173049 
L 141.16608 280.99675 
L 141.5232 282.192924 
L 141.88032 281.967394 
L 142.23744 282.054545 
L 142.59456 282.364566 
L 142.95168 283.085064 
L 143.3088 283.077081 
L 143.66592 282.756416 
L 144.02304 282.876166 
L 144.38016 283.290636 
L 144.73728 282.79101 
L 145.0944 282.56548 
L 145.45152 282.403817 
L 145.80864 282.59941 
L 146.16576 282.83891 
L 146.52288 282.374545 
L 146.88 282.693214 
L 147.23712 282.85022 
L 147.59424 283.297954 
L 147.95136 282.851551 
L 148.30848 283.035833 
L 148.6656 282.40914 
L 149.02272 283.194835 
L 149.37984 282.34993 
L 149.73696 282.460366 
L 150.09408 282.779035 
L 150.4512 282.651967 
L 150.80832 282.902777 
L 151.16544 282.355917 
L 151.52256 282.735792 
L 151.87968 282.858869 
L 152.2368 282.425772 
L 152.59392 282.590096 
L 152.95104 282.234171 
L 153.30816 282.033922 
L 153.66528 282.021947 
L 154.0224 283.050469 
L 154.37952 282.618037 
L 154.73664 282.587435 
L 155.09376 282.212882 
L 155.45088 282.535543 
L 155.808 282.294046 
L 156.16512 282.60074 
L 156.52224 282.632008 
L 156.87936 282.340616 
L 157.23648 282.530886 
L 157.5936 282.204233 
L 157.95072 282.174296 
L 158.30784 281.515668 
L 158.66496 282.23151 
L 159.02208 282.10178 
L 159.3792 281.67334 
L 159.73632 281.92282 
L 160.09344 281.84099 
L 160.45056 282.230844 
L 160.80768 281.930803 
L 161.1648 282.037248 
L 161.52192 281.988683 
L 161.87904 282.473006 
L 162.23616 282.449056 
L 162.59328 282.726478 
L 162.9504 281.86494 
L 163.30752 282.325314 
L 163.66464 282.12573 
L 164.02176 281.772467 
L 164.37888 282.215543 
L 164.736 282.149015 
L 165.09312 282.376541 
L 165.45024 282.167643 
L 165.80736 282.058537 
L 166.16448 281.487061 
L 166.5216 282.144358 
L 166.87872 282.009972 
L 167.23584 282.34993 
L 167.59296 281.589515 
L 167.95008 281.725897 
L 168.3072 281.568226 
L 168.66432 281.952757 
L 169.02144 282.490304 
L 169.37856 282.407144 
L 169.73568 281.761157 
L 170.0928 281.772467 
L 170.44992 282.475002 
L 170.80704 282.218204 
L 171.16416 281.721905 
L 171.52128 281.98336 
L 171.8784 282.217539 
L 172.23552 281.741864 
L 172.59264 282.691218 
L 172.94976 281.904857 
L 173.30688 282.038579 
L 173.664 282.248142 
L 174.02112 281.540284 
L 174.37824 282.364566 
L 174.73536 281.645398 
L 175.09248 282.254129 
L 175.4496 282.486312 
L 175.80672 281.218288 
L 176.16384 282.1723 
L 176.52096 281.069266 
L 176.87808 281.598163 
L 177.2352 282.266104 
L 177.59232 282.301364 
L 177.94944 282.368557 
L 178.30656 282.430428 
L 178.66368 282.450387 
L 179.0208 282.323318 
L 179.37792 282.143693 
L 179.73504 282.26677 
L 180.09216 282.376541 
L 180.44928 282.520907 
L 180.8064 281.866936 
L 181.16352 282.419784 
L 181.52064 282.423776 
L 181.87776 282.75442 
L 182.23488 282.107102 
L 182.592 281.914171 
L 182.94912 281.882238 
L 183.30624 281.86361 
L 183.66336 282.37521 
L 184.02048 282.117082 
L 184.3776 282.524233 
L 184.73472 281.89887 
L 185.09184 282.200907 
L 185.44896 282.56415 
L 185.80608 283.007892 
L 186.1632 282.357913 
L 186.52032 282.165647 
L 186.87744 282.869513 
L 187.23456 282.537539 
L 187.59168 282.027269 
L 187.9488 282.007976 
L 188.30592 282.876831 
L 188.66304 282.258121 
L 189.02016 282.268765 
L 189.37728 282.538869 
L 189.7344 282.053215 
L 190.09152 281.868932 
L 190.44864 281.823028 
L 190.80576 281.356667 
L 191.16288 281.905523 
L 191.52 281.933464 
L 191.87712 281.737207 
L 192.23424 282.224857 
L 192.59136 281.60149 
L 192.94848 280.78386 
L 193.3056 280.837083 
L 193.66272 280.753258 
L 194.01984 280.420618 
L 194.37696 280.738621 
L 194.73408 279.318914 
L 195.0912 280.083321 
L 195.44832 279.668186 
L 195.80544 279.398082 
L 196.16256 279.947604 
L 196.51968 279.718747 
L 196.8768 279.068769 
L 197.23392 279.858456 
L 197.59104 279.644901 
L 197.94816 279.538456 
L 198.30528 280.360742 
L 198.6624 279.775961 
L 199.01952 279.689475 
L 199.37664 279.624943 
L 199.73376 279.827853 
L 200.09088 279.813882 
L 200.448 279.133301 
L 200.80512 279.104028 
L 201.16224 279.750681 
L 201.51936 279.70145 
L 201.87648 279.58303 
L 202.2336 279.223114 
L 202.59072 279.502531 
L 202.94784 279.201159 
L 203.30496 279.65488 
L 203.66208 279.001575 
L 204.0192 279.175879 
L 204.37632 278.961659 
L 204.73344 279.302282 
L 205.09056 278.746773 
L 205.44768 278.856544 
L 205.8048 278.120745 
L 206.16192 279.39276 
L 206.51904 279.335546 
L 206.87616 278.446732 
L 207.23328 278.726815 
L 207.5904 278.955006 
L 207.94752 279.028852 
L 208.30464 279.006898 
L 208.66176 278.67958 
L 209.01888 278.836586 
L 209.376 278.409476 
L 209.73312 278.45538 
L 210.09024 278.662283 
L 210.44736 278.760744 
L 210.80448 279.348186 
L 211.1616 278.774715 
L 211.51872 278.599081 
L 211.87584 278.805983 
L 212.23296 278.774715 
L 212.59008 278.373551 
L 212.9472 279.009559 
L 213.30432 278.924403 
L 213.66144 278.836586 
L 214.01856 278.626357 
L 214.37568 278.888478 
L 214.7328 278.629684 
L 215.08992 278.581118 
L 215.44704 278.434757 
L 215.80416 278.529892 
L 216.16128 278.421451 
L 216.5184 278.34827 
L 216.87552 278.855214 
L 217.23264 278.35958 
L 217.58976 277.877917 
L 217.94688 278.429435 
L 218.304 277.766816 
L 218.66112 278.354258 
L 219.01824 278.523239 
L 219.37536 278.400828 
L 219.73248 278.486649 
L 220.0896 278.550516 
L 220.44672 277.200662 
L 220.80384 278.114092 
L 221.16096 278.698873 
L 221.51808 277.514009 
L 221.8752 277.80141 
L 222.23232 278.33563 
L 222.58944 277.373635 
L 222.94656 277.922491 
L 223.30368 278.368894 
L 223.6608 276.877336 
L 224.01792 278.545193 
L 224.37504 277.505361 
L 224.73216 278.024279 
L 225.08928 277.668354 
L 225.4464 277.279165 
L 225.80352 277.985028 
L 226.16064 278.0622 
L 226.51776 277.645069 
L 226.87488 277.848645 
L 227.232 277.446151 
L 227.58912 277.201993 
L 227.94624 277.751514 
L 228.30336 277.376296 
L 228.66048 277.613136 
L 229.0176 278.048894 
L 229.37472 277.362991 
L 229.73184 278.085485 
L 230.08896 277.201993 
L 230.44608 277.102866 
L 230.8032 277.545277 
L 231.16032 277.33638 
L 231.51744 277.223947 
L 231.87456 276.77821 
L 232.23168 276.794842 
L 232.5888 276.70769 
L 232.94592 276.70769 
L 233.30304 277.104197 
L 233.66016 277.338375 
L 234.01728 277.35035 
L 234.3744 277.031016 
L 234.73152 277.660371 
L 235.08864 277.332388 
L 235.44576 277.275839 
L 235.80288 277.49139 
L 236.16 277.680329 
L 236.51712 277.481411 
L 236.87424 277.905859 
L 237.23136 277.492055 
L 237.58848 277.39692 
L 237.9456 277.761493 
L 238.30272 277.263864 
L 238.65984 278.102117 
L 239.01696 277.754841 
L 239.37408 277.486068 
L 239.7312 277.602492 
L 240.08832 277.597169 
L 240.44544 277.768812 
L 240.80256 277.803406 
L 241.15968 278.046899 
L 241.5168 277.653718 
L 241.87392 277.964404 
L 242.23104 277.889227 
L 242.58816 277.879248 
L 242.94528 277.466109 
L 243.3024 277.700288 
L 243.65952 277.793427 
L 244.01664 277.854633 
L 244.37376 278.18195 
L 244.73088 277.927148 
L 245.088 277.668354 
L 245.44512 277.529976 
L 245.80224 277.259872 
L 246.15936 277.955755 
L 246.51648 277.689643 
L 246.8736 277.500704 
L 247.23072 277.563905 
L 247.58784 277.981701 
L 247.94496 277.838001 
L 248.30208 277.5985 
L 248.6592 277.720911 
L 249.01632 278.04956 
L 249.37344 277.97904 
L 249.73056 278.21588 
L 250.08768 277.62378 
L 250.4448 277.531307 
L 250.80192 277.977709 
L 251.15904 278.616378 
L 251.51616 278.521243 
L 251.87328 278.046233 
L 252.2304 278.54985 
L 252.58752 278.542532 
L 252.94464 278.587771 
L 253.30176 278.7501 
L 253.65888 278.291056 
L 254.016 277.925152 
L 254.37312 277.671015 
L 254.73024 277.675007 
L 255.08736 278.149352 
L 255.44448 278.02561 
L 255.8016 277.656379 
L 256.15872 277.692304 
L 256.51584 277.02902 
L 256.87296 277.881244 
L 257.23008 277.04033 
L 257.5872 277.97904 
L 257.94432 276.329146 
L 258.30144 277.589851 
L 258.65856 276.954509 
L 259.01568 277.41954 
L 259.3728 277.146775 
L 259.72992 277.89588 
L 260.08704 277.943115 
L 260.44416 278.002325 
L 260.80128 276.17214 
L 261.1584 277.880579 
L 261.51552 276.891972 
L 261.87264 277.732221 
L 262.22976 277.421535 
L 262.58688 278.024279 
L 262.944 278.107439 
L 263.30112 277.619789 
L 263.65824 278.146691 
L 264.01536 278.140703 
L 264.37248 278.249809 
L 264.7296 277.977044 
L 265.08672 277.933801 
L 265.44384 278.478 
L 265.80096 278.318333 
L 266.15808 278.154009 
L 266.5152 278.428769 
L 266.87232 278.056212 
L 267.22944 278.641659 
L 267.58656 277.909851 
L 267.94368 278.225859 
L 268.3008 278.354923 
L 268.65792 277.94245 
L 269.01504 277.99168 
L 269.37216 278.384196 
L 269.72928 278.909101 
L 270.0864 278.124736 
L 270.44352 278.148021 
L 270.80064 277.916504 
L 271.15776 278.234508 
L 271.51488 278.256462 
L 271.872 278.436753 
L 272.22912 278.182616 
L 272.58624 277.968396 
L 272.94336 278.456711 
L 273.30048 277.46744 
L 273.6576 278.057543 
L 274.01472 278.213884 
L 274.37184 277.698957 
L 274.72896 277.998998 
L 275.08608 277.724903 
L 275.4432 277.615797 
L 275.80032 277.019041 
L 276.15744 278.386191 
L 276.51456 277.941784 
L 276.87168 278.219871 
L 277.2288 277.798749 
L 277.58592 278.005651 
L 277.94304 277.57588 
L 278.30016 277.43218 
L 278.65728 277.479415 
L 279.0144 277.347689 
L 279.37152 277.640412 
L 279.72864 277.726899 
L 280.08576 277.506691 
L 280.44288 278.066192 
L 280.8 277.61114 
L 281.15712 277.593178 
L 281.51424 277.080247 
L 281.87136 277.909851 
L 282.22848 277.643074 
L 282.5856 277.590516 
L 282.94272 277.916504 
L 283.29984 277.463448 
L 283.65696 278.109435 
L 284.01408 277.61114 
L 284.3712 278.15667 
L 284.72832 277.232596 
L 285.08544 277.363656 
L 285.44256 276.905943 
L 285.79968 277.621785 
L 286.1568 277.68166 
L 286.51392 277.746192 
L 286.87104 277.880579 
L 287.22816 278.161992 
L 287.58528 277.733552 
L 287.9424 278.319663 
L 288.29952 278.111431 
L 288.65664 278.012969 
L 289.01376 278.645651 
L 289.37088 279.972219 
L 289.728 280.941532 
L 290.08512 279.398748 
L 290.44224 279.807229 
L 290.79936 281.295461 
L 291.15648 281.177706 
L 291.5136 280.258955 
L 291.87072 279.145941 
L 292.22784 278.835255 
L 292.58496 280.746605 
L 292.94208 280.494464 
L 293.2992 280.368726 
L 293.65632 280.016793 
L 294.01344 280.817124 
L 294.37056 280.447894 
L 294.72768 281.101199 
L 295.0848 281.030014 
L 295.44192 280.338123 
L 295.79904 280.363404 
L 296.15616 280.621532 
L 296.51328 280.872343 
L 296.8704 281.166396 
L 297.22752 281.002072 
L 297.58464 280.888975 
L 297.94176 280.788517 
L 298.29888 279.597666 
L 298.656 281.47176 
L 299.01312 281.342696 
L 299.37024 280.286231 
L 299.72736 280.614214 
L 300.08448 280.877 
L 300.4416 281.360658 
L 300.79872 281.926146 
L 301.15584 280.768559 
L 301.51296 282.033256 
L 301.87008 281.351344 
L 302.2272 280.173799 
L 302.58432 280.843736 
L 302.94144 281.45912 
L 303.29856 281.528974 
L 303.65568 280.428601 
L 304.0128 280.679412 
L 304.36992 281.616126 
L 304.72704 281.562903 
L 305.08416 280.271595 
L 305.44128 280.867686 
L 305.7984 281.538288 
L 306.15552 280.287562 
L 306.51264 280.357416 
L 306.86976 280.68673 
L 307.22688 280.703362 
L 307.584 280.107936 
L 307.94112 280.808476 
L 308.29824 281.74519 
L 308.65536 281.12648 
L 309.01248 280.584276 
L 309.3696 280.590264 
L 309.72672 280.314173 
L 310.08384 280.803154 
L 310.44096 281.188351 
L 310.79808 280.947519 
L 311.1552 281.142446 
L 311.51232 279.271679 
L 311.86944 280.096626 
L 312.22656 281.275502 
L 312.58368 279.995504 
L 312.9408 280.08199 
L 313.29792 281.071927 
L 313.65504 280.908268 
L 314.01216 279.602323 
L 314.36928 280.539037 
L 314.7264 280.346772 
L 315.08352 280.305524 
L 315.44064 279.888394 
L 315.79776 279.83118 
L 316.15488 279.849142 
L 316.512 280.314838 
L 316.86912 281.034671 
L 317.22624 280.671428 
L 317.58336 280.835752 
L 317.94048 279.42802 
L 318.2976 280.399329 
L 318.65472 280.679412 
L 319.01184 280.545025 
L 319.36896 279.659537 
L 319.72608 281.655377 
L 320.0832 280.320826 
L 320.44032 279.756668 
L 320.79744 280.493133 
L 321.15456 280.249641 
L 321.51168 280.161824 
L 321.8688 281.002738 
L 322.22592 279.393425 
L 322.58304 280.160493 
L 322.94016 281.793756 
L 323.29728 280.354755 
L 323.6544 280.097292 
L 324.01152 280.458539 
L 324.36864 280.282905 
L 324.72576 280.433923 
L 325.08288 280.007479 
L 325.44 280.696044 
L 325.79712 280.972135 
L 326.15424 280.514422 
L 326.51136 280.12989 
L 326.86848 279.610972 
L 327.2256 280.362073 
L 327.58272 279.480577 
L 327.93984 280.433258 
L 328.29696 280.27093 
L 328.65408 280.575628 
L 329.0112 281.165066 
L 329.36832 279.953591 
L 329.72544 280.988101 
L 330.08256 279.539787 
L 330.43968 281.1165 
L 330.7968 279.577043 
L 331.15392 280.026772 
L 331.51104 279.985524 
L 331.86816 280.821116 
L 332.22528 280.194422 
L 332.5824 281.274172 
L 332.93952 280.99542 
L 333.29664 279.726731 
L 333.65376 280.158497 
L 334.01088 279.954256 
L 334.368 280.031429 
L 334.72512 281.419203 
L 335.08224 281.204317 
L 335.43936 282.785688 
L 335.79648 282.719825 
L 336.1536 280.811802 
L 336.51072 282.679908 
L 336.86784 282.296042 
L 337.22496 282.488973 
L 337.58208 280.459869 
L 337.9392 282.384524 
L 338.29632 281.868267 
L 338.65344 281.84099 
L 339.01056 282.052549 
L 339.36768 281.212301 
L 339.7248 282.380532 
L 340.08192 282.367892 
L 340.43904 281.296791 
L 340.79616 282.220865 
L 341.15328 282.983276 
L 341.5104 281.120492 
L 341.86752 281.905523 
L 342.22464 282.961987 
L 342.58176 281.524982 
L 342.93888 282.585439 
L 343.296 281.855627 
L 343.65312 281.611469 
L 344.01024 281.797082 
L 344.36736 281.719244 
L 344.72448 282.077165 
L 345.0816 281.670679 
L 345.43872 283.080407 
L 345.79584 281.830346 
L 346.15296 283.242735 
L 346.51008 281.214962 
L 346.8672 281.419203 
L 347.22432 281.771136 
L 347.58144 282.333298 
L 347.93856 280.402655 
L 348.29568 280.553008 
L 348.6528 280.684734 
L 349.00992 280.92623 
L 349.36704 278.794008 
L 349.72416 280.000161 
L 350.08128 279.944942 
L 350.4384 279.827188 
L 350.79552 279.764652 
L 351.15264 279.909017 
L 351.50976 280.805815 
L 351.86688 281.15176 
L 352.224 281.507685 
L 352.58112 280.417291 
L 352.93824 280.402655 
L 353.29536 280.232343 
L 353.65248 280.586272 
L 354.0096 280.133217 
L 354.36672 281.319411 
L 354.72384 280.185108 
L 355.08096 280.105275 
L 355.43808 279.748685 
L 355.7952 280.090639 
L 356.15232 280.319495 
L 356.50944 281.00939 
L 356.86656 280.240992 
L 357.22368 280.525067 
L 357.5808 280.532385 
L 357.93792 280.103279 
L 358.29504 279.934298 
L 358.65216 280.449225 
L 359.00928 280.412634 
L 359.3664 280.365399 
L 359.72352 280.718663 
L 360.08064 280.472509 
L 360.43776 280.613549 
L 360.79488 280.031429 
L 361.152 280.803154 
L 361.50912 280.300202 
L 361.86624 280.417291 
L 362.22336 280.33014 
L 362.58048 280.590264 
L 362.9376 279.803238 
L 363.29472 281.132467 
L 363.65184 279.394091 
L 364.00896 279.473924 
L 364.36608 280.547686 
L 364.7232 280.099287 
L 365.08032 280.919578 
L 365.43744 280.610222 
L 365.79456 280.301532 
L 366.15168 278.817958 
L 366.5088 279.840493 
L 366.86592 280.335462 
L 367.22304 280.27093 
L 367.58016 279.956917 
L 367.93728 280.713341 
L 368.2944 279.606315 
L 368.65152 279.935628 
L 369.00864 279.668851 
L 369.36576 281.503693 
L 369.72288 280.766563 
L 370.08 280.779204 
L 370.43712 280.064028 
L 370.79424 280.489141 
L 371.15136 279.657541 
L 371.50848 280.113924 
L 371.8656 280.567644 
L 372.22272 280.392676 
L 372.57984 279.266357 
L 372.93696 280.678081 
L 373.29408 280.002156 
L 373.6512 280.521075 
L 374.00832 280.359412 
L 374.36544 280.429266 
L 374.72256 280.581615 
L 375.07968 280.632177 
L 375.4368 280.440576 
L 375.79392 280.394006 
L 376.15104 280.219703 
L 376.50816 279.980868 
L 376.86528 280.65147 
L 377.2224 280.116585 
L 377.57952 280.440576 
L 377.93664 279.223779 
L 378.29376 280.250971 
L 378.65088 280.543029 
L 379.008 280.315503 
L 379.36512 280.020784 
L 379.72224 279.663529 
L 380.07936 280.159828 
L 380.43648 280.75991 
L 380.7936 279.302947 
L 381.15072 278.992927 
L 381.50784 281.006729 
L 381.86496 280.795836 
L 382.22208 279.581034 
L 382.5792 280.364069 
L 382.93632 279.438664 
L 383.29344 281.323403 
L 383.65056 280.048726 
L 384.00768 280.403986 
L 384.3648 280.750596 
L 384.72192 279.766647 
L 385.07904 280.952842 
L 385.43616 281.101864 
L 385.79328 279.109351 
L 386.1504 280.72332 
L 386.50752 280.088643 
L 386.86464 279.643571 
L 387.22176 280.252302 
L 387.57888 280.52041 
L 387.936 279.834506 
L 388.29312 279.638914 
L 388.65024 279.857791 
L 389.00736 280.103944 
L 389.36448 280.041408 
L 389.7216 279.897708 
L 390.07872 279.658872 
L 390.43584 280.199079 
L 390.79296 279.84515 
L 391.15008 280.297541 
L 391.5072 279.32224 
L 391.86432 279.791263 
L 392.22144 279.427355 
L 392.57856 280.667436 
L 392.93568 281.165066 
L 393.2928 279.644901 
L 393.64992 279.294964 
L 394.00704 279.929641 
L 394.36416 279.899038 
L 394.72128 280.390015 
L 395.0784 279.860452 
L 395.43552 280.124568 
L 395.79264 280.389349 
L 396.14976 280.857707 
L 396.50688 280.644817 
L 396.864 281.35201 
L 397.22112 281.088559 
L 397.57824 281.882903 
L 397.93536 282.215543 
L 398.29248 282.357248 
L 398.6496 282.230844 
L 399.00672 281.397249 
L 399.36384 282.846228 
L 399.72096 281.909514 
L 400.07808 282.276749 
L 400.4352 281.221615 
L 400.79232 282.353256 
L 401.14944 281.879577 
L 401.50656 281.138455 
L 401.86368 281.290804 
L 402.2208 282.928723 
L 402.57792 281.356667 
L 402.93504 281.961406 
L 403.29216 281.310762 
L 403.64928 282.677913 
L 404.0064 282.371884 
L 404.36352 281.936125 
L 404.72064 281.886229 
L 405.07776 281.503693 
L 405.43488 281.742529 
L 405.792 282.39783 
L 406.14912 281.502363 
L 406.50624 282.198911 
L 406.86336 281.060617 
L 407.22048 281.23492 
L 407.5776 281.637415 
L 407.93472 282.294046 
L 408.29184 282.272092 
L 408.64896 281.86494 
L 409.00608 281.633423 
L 409.3632 281.937456 
L 409.72032 281.497706 
L 410.07744 283.070428 
L 410.43456 282.377206 
L 410.79168 281.792425 
L 411.1488 282.413796 
L 411.50592 282.029265 
L 411.86304 281.387935 
L 412.22016 281.584192 
L 412.57728 281.004733 
L 412.9344 282.118412 
L 413.29152 281.497706 
L 413.64864 282.275418 
L 414.00576 282.901447 
L 414.36288 280.911594 
L 414.72 281.964732 
L 414.72 267.399092 
L 414.72 267.399092 
L 414.36288 267.692481 
L 414.00576 267.822876 
L 413.64864 267.706452 
L 413.29152 269.256554 
L 412.9344 266.570819 
L 412.57728 265.65872 
L 412.22016 266.338636 
L 411.86304 267.761004 
L 411.50592 267.06246 
L 411.1488 268.991107 
L 410.79168 268.401669 
L 410.43456 269.641086 
L 410.07744 267.004581 
L 409.72032 266.458386 
L 409.3632 266.755101 
L 409.00608 266.005996 
L 408.64896 267.266036 
L 408.29184 269.14013 
L 407.93472 268.09564 
L 407.5776 270.51726 
L 407.22048 267.778302 
L 406.86336 266.76375 
L 406.50624 267.509529 
L 406.14912 267.348531 
L 405.792 267.091068 
L 405.43488 265.710612 
L 405.07776 267.436348 
L 404.72064 268.686409 
L 404.36352 268.232023 
L 404.0064 269.098883 
L 403.64928 268.267283 
L 403.29216 268.05905 
L 402.93504 268.623873 
L 402.57792 266.548199 
L 402.2208 266.180299 
L 401.86368 268.872687 
L 401.50656 268.592604 
L 401.14944 267.56142 
L 400.79232 266.495642 
L 400.4352 266.707866 
L 400.07808 266.932731 
L 399.72096 268.114268 
L 399.36384 266.252149 
L 399.00672 267.793603 
L 398.6496 265.818387 
L 398.29248 267.824871 
L 397.93536 268.083665 
L 397.57824 269.267864 
L 397.22112 266.500964 
L 396.864 268.180796 
L 396.50688 268.168156 
L 396.14976 266.461047 
L 395.79264 267.858801 
L 395.43552 268.386368 
L 395.0784 269.587863 
L 394.72128 270.13805 
L 394.36416 269.977052 
L 394.00704 267.033853 
L 393.64992 267.753021 
L 393.2928 269.790774 
L 392.93568 266.186287 
L 392.57856 267.473604 
L 392.22144 265.684 
L 391.86432 266.999924 
L 391.5072 266.630694 
L 391.15008 266.638012 
L 390.79296 266.219551 
L 390.43584 268.269944 
L 390.07872 265.558262 
L 389.7216 264.801174 
L 389.36448 266.21822 
L 389.00736 265.381963 
L 388.65024 264.510446 
L 388.29312 267.148282 
L 387.936 266.0519 
L 387.57888 266.702544 
L 387.22176 266.035933 
L 386.86464 268.459548 
L 386.50752 266.922086 
L 386.1504 269.402916 
L 385.79328 267.575391 
L 385.43616 267.577387 
L 385.07904 266.738469 
L 384.72192 267.077097 
L 384.3648 266.452399 
L 384.00768 267.23876 
L 383.65056 268.047075 
L 383.29344 268.09431 
L 382.93632 267.380464 
L 382.5792 267.101712 
L 382.22208 267.899383 
L 381.86496 266.952689 
L 381.50784 265.994686 
L 381.15072 267.444996 
L 380.7936 269.796096 
L 380.43648 268.715016 
L 380.07936 268.218717 
L 379.72224 266.699883 
L 379.36512 268.197428 
L 379.008 268.336472 
L 378.65088 267.013895 
L 378.29376 267.794934 
L 377.93664 268.341794 
L 377.57952 267.697803 
L 377.2224 267.906701 
L 376.86528 268.494808 
L 376.50816 269.072937 
L 376.15104 267.613978 
L 375.79392 267.448323 
L 375.4368 268.314517 
L 375.07968 268.786866 
L 374.72256 268.693727 
L 374.36544 269.801418 
L 374.00832 268.661128 
L 373.6512 269.290483 
L 373.29408 267.830194 
L 372.93696 268.695058 
L 372.57984 270.154682 
L 372.22272 267.851483 
L 371.8656 267.472938 
L 371.50848 269.396263 
L 371.15136 269.196679 
L 370.79424 268.789527 
L 370.43712 268.48749 
L 370.08 270.040919 
L 369.72288 268.038426 
L 369.36576 269.145452 
L 369.00864 267.453645 
L 368.65152 268.013146 
L 368.2944 269.836013 
L 367.93728 267.401088 
L 367.58016 267.288656 
L 367.22304 269.272521 
L 366.86592 267.921337 
L 366.5088 269.714267 
L 366.15168 268.400339 
L 365.79456 266.076516 
L 365.43744 267.490236 
L 365.08032 268.687074 
L 364.7232 268.634517 
L 364.36608 269.247905 
L 364.00896 268.800837 
L 363.65184 267.971233 
L 363.29472 266.610735 
L 362.9376 268.065703 
L 362.58048 267.188198 
L 362.22336 267.554768 
L 361.86624 268.058385 
L 361.50912 268.042418 
L 361.152 269.321086 
L 360.79488 267.177554 
L 360.43776 267.986534 
L 360.08064 266.932731 
L 359.72352 268.152854 
L 359.3664 267.966576 
L 359.00928 266.488989 
L 358.65216 266.980631 
L 358.29504 266.991276 
L 357.93792 268.839423 
L 357.5808 264.622879 
L 357.22368 266.201588 
L 356.86656 265.528325 
L 356.50944 268.742292 
L 356.15232 267.518177 
L 355.7952 265.412566 
L 355.43808 267.558759 
L 355.08096 265.399926 
L 354.72384 264.683419 
L 354.36672 264.900966 
L 354.0096 264.771236 
L 353.65248 266.385205 
L 353.29536 265.528325 
L 352.93824 264.985456 
L 352.58112 267.60666 
L 352.224 267.113022 
L 351.86688 267.291317 
L 351.50976 269.689651 
L 351.15264 268.080339 
L 350.79552 269.24724 
L 350.4384 268.403 
L 350.08128 269.893892 
L 349.72416 268.24932 
L 349.36704 267.069113 
L 349.00992 267.704456 
L 348.6528 268.820796 
L 348.29568 266.655309 
L 347.93856 269.291814 
L 347.58144 268.502126 
L 347.22432 268.051732 
L 346.8672 269.529319 
L 346.51008 266.558178 
L 346.15296 267.54878 
L 345.79584 268.622542 
L 345.43872 268.09564 
L 345.0816 268.293228 
L 344.72448 268.420297 
L 344.36736 267.609986 
L 344.01024 269.679007 
L 343.65312 265.973397 
L 343.296 268.504122 
L 342.93888 266.787035 
L 342.58176 268.512106 
L 342.22464 267.206826 
L 341.86752 269.384288 
L 341.5104 268.728322 
L 341.15328 268.079674 
L 340.79616 269.024371 
L 340.43904 267.994518 
L 340.08192 269.956428 
L 339.7248 267.562086 
L 339.36768 269.155431 
L 339.01056 268.34512 
L 338.65344 267.910027 
L 338.29632 267.08508 
L 337.9392 269.649734 
L 337.58208 267.083749 
L 337.22496 268.7709 
L 336.86784 267.600672 
L 336.51072 267.236764 
L 336.1536 268.472854 
L 335.79648 267.860131 
L 335.43936 268.265287 
L 335.08224 269.89988 
L 334.72512 270.049568 
L 334.368 266.070528 
L 334.01088 263.502547 
L 333.65376 262.748785 
L 333.29664 263.191196 
L 332.93952 265.089905 
L 332.5824 264.077349 
L 332.22528 266.554852 
L 331.86816 261.072945 
L 331.51104 256.645506 
L 331.15392 246.315704 
L 330.7968 247.313624 
L 330.43968 248.282271 
L 330.08256 250.291417 
L 329.72544 247.109383 
L 329.36832 248.505805 
L 329.0112 251.635948 
L 328.65408 246.700901 
L 328.29696 252.587298 
L 327.93984 249.789796 
L 327.58272 248.823809 
L 327.2256 251.160273 
L 326.86848 253.14946 
L 326.51136 255.730746 
L 326.15424 256.930246 
L 325.79712 257.981388 
L 325.44 259.822884 
L 325.08288 261.444836 
L 324.72576 262.200594 
L 324.36864 263.480593 
L 324.01152 263.68683 
L 323.6544 265.169739 
L 323.29728 263.54446 
L 322.94016 265.62346 
L 322.58304 264.928908 
L 322.22592 266.503625 
L 321.8688 266.750444 
L 321.51168 267.790277 
L 321.15456 267.135641 
L 320.79744 266.142378 
L 320.44032 266.461047 
L 320.0832 265.377972 
L 319.72608 266.258137 
L 319.36896 268.721669 
L 319.01184 267.594019 
L 318.65472 267.455641 
L 318.2976 267.37115 
L 317.94048 267.249404 
L 317.58336 267.421712 
L 317.22624 267.224789 
L 316.86912 267.685163 
L 316.512 267.645911 
L 316.15488 266.930735 
L 315.79776 268.795515 
L 315.44064 269.46146 
L 315.08352 269.054309 
L 314.7264 268.915265 
L 314.36928 267.967907 
L 314.01216 267.8109 
L 313.65504 268.184788 
L 313.29792 268.418966 
L 312.9408 266.260133 
L 312.58368 267.625287 
L 312.22656 267.652564 
L 311.86944 266.96666 
L 311.51232 266.45639 
L 311.1552 267.991857 
L 310.79808 267.333229 
L 310.44096 267.872772 
L 310.08384 268.440255 
L 309.72672 267.912023 
L 309.3696 267.934643 
L 309.01248 267.148282 
L 308.65536 266.89614 
L 308.29824 268.36907 
L 307.94112 268.615889 
L 307.584 267.282003 
L 307.22688 266.665288 
L 306.86976 264.15053 
L 306.51264 267.007908 
L 306.15552 268.369736 
L 305.7984 266.601421 
L 305.44128 268.092314 
L 305.08416 266.208241 
L 304.72704 267.415724 
L 304.36992 266.916099 
L 304.0128 266.386536 
L 303.65568 267.271358 
L 303.29856 268.067033 
L 302.94144 266.47901 
L 302.58432 267.071109 
L 302.2272 267.665204 
L 301.87008 266.804997 
L 301.51296 267.625287 
L 301.15584 268.065037 
L 300.79872 269.147448 
L 300.4416 267.755682 
L 300.08448 266.410486 
L 299.72736 267.814892 
L 299.37024 266.890818 
L 299.01312 267.13298 
L 298.656 267.439674 
L 298.29888 266.874852 
L 297.94176 267.139633 
L 297.58464 266.848906 
L 297.22752 266.977305 
L 296.8704 266.763084 
L 296.51328 265.643418 
L 296.15616 269.476096 
L 295.79904 266.716515 
L 295.44192 266.214894 
L 295.0848 264.629532 
L 294.72768 267.255392 
L 294.37056 267.867449 
L 294.01344 266.397846 
L 293.65632 268.502126 
L 293.2992 265.731235 
L 292.94208 266.50296 
L 292.58496 265.787119 
L 292.22784 266.996598 
L 291.87072 267.38246 
L 291.5136 266.904789 
L 291.15648 266.862876 
L 290.79936 267.011234 
L 290.44224 264.417972 
L 290.08512 265.729905 
L 289.728 267.056473 
L 289.37088 267.356514 
L 289.01376 267.1077 
L 288.65664 267.1556 
L 288.29952 266.685247 
L 287.9424 266.254145 
L 287.58528 264.246996 
L 287.22816 267.621296 
L 286.87104 266.889488 
L 286.51392 267.741046 
L 286.1568 267.264706 
L 285.79968 266.926743 
L 285.44256 265.685331 
L 285.08544 266.285413 
L 284.72832 264.829781 
L 284.3712 266.836265 
L 284.01408 266.797679 
L 283.65696 263.756019 
L 283.29984 264.897639 
L 282.94272 265.823709 
L 282.5856 266.013979 
L 282.22848 263.31893 
L 281.87136 263.635603 
L 281.51424 265.812399 
L 281.15712 264.201756 
L 280.8 264.695394 
L 280.44288 264.384043 
L 280.08576 263.529158 
L 279.72864 263.21182 
L 279.37152 263.241757 
L 279.0144 262.151364 
L 278.65728 261.152778 
L 278.30016 260.839431 
L 277.94304 260.603257 
L 277.58592 259.155608 
L 277.2288 258.813654 
L 276.87168 257.292824 
L 276.51456 257.471119 
L 276.15744 255.778646 
L 275.80032 255.054156 
L 275.4432 253.838025 
L 275.08608 252.522101 
L 274.72896 252.030459 
L 274.37184 250.005347 
L 274.01472 249.90755 
L 273.6576 247.700817 
L 273.30048 249.005431 
L 272.94336 249.079277 
L 272.58624 249.676698 
L 272.22912 249.759193 
L 271.872 251.077778 
L 271.51488 250.234203 
L 271.15776 249.753205 
L 270.80064 250.485679 
L 270.44352 251.379815 
L 270.0864 250.685263 
L 269.72928 251.578734 
L 269.37216 251.713786 
L 269.01504 252.220064 
L 268.65792 252.24734 
L 268.3008 252.738982 
L 267.94368 253.264553 
L 267.58656 251.657902 
L 267.22944 252.977152 
L 266.87232 252.527423 
L 266.5152 253.625135 
L 266.15808 254.506631 
L 265.80096 253.950457 
L 265.44384 254.273783 
L 265.08672 254.058898 
L 264.7296 256.557689 
L 264.37248 256.457897 
L 264.01536 257.027377 
L 263.65824 258.765088 
L 263.30112 259.508206 
L 262.944 259.716439 
L 262.58688 260.70438 
L 262.22976 259.809578 
L 261.87264 262.579804 
L 261.51552 261.292487 
L 261.1584 261.542632 
L 260.80128 259.45831 
L 260.44416 262.34496 
L 260.08704 262.676935 
L 259.72992 262.734149 
L 259.3728 264.162505 
L 259.01568 257.53299 
L 258.65856 256.604259 
L 258.30144 256.98746 
L 257.94432 256.998105 
L 257.5872 257.481763 
L 257.23008 257.566254 
L 256.87296 257.924174 
L 256.51584 257.825048 
L 256.15872 257.86563 
L 255.8016 258.712531 
L 255.44448 258.677271 
L 255.08736 258.773737 
L 254.73024 258.182303 
L 254.37312 257.789788 
L 254.016 257.922179 
L 253.65888 257.768499 
L 253.30176 258.309372 
L 252.94464 258.339974 
L 252.58752 257.969413 
L 252.2304 258.60276 
L 251.87328 258.443758 
L 251.51616 258.744465 
L 251.15904 259.019225 
L 250.80192 259.408414 
L 250.4448 259.222136 
L 250.08768 259.539474 
L 249.73056 259.428372 
L 249.37344 258.99461 
L 249.01632 259.205504 
L 248.6592 259.519516 
L 248.30208 259.6233 
L 247.94496 258.916107 
L 247.58784 259.607998 
L 247.23072 259.736397 
L 246.8736 259.896064 
L 246.51648 259.374485 
L 246.15936 258.55619 
L 245.80224 259.674526 
L 245.44512 259.142967 
L 245.088 260.242675 
L 244.73088 259.774983 
L 244.37376 259.788289 
L 244.01664 259.776979 
L 243.65952 259.346543 
L 243.3024 259.478934 
L 242.94528 259.804921 
L 242.58816 260.249993 
L 242.23104 259.655898 
L 241.87392 259.983216 
L 241.5168 260.261968 
L 241.15968 260.696396 
L 240.80256 260.453569 
L 240.44544 259.688497 
L 240.08832 259.985877 
L 239.7312 258.977313 
L 239.37408 259.918019 
L 239.01696 259.452323 
L 238.65984 260.58596 
L 238.30272 260.268621 
L 237.9456 261.044338 
L 237.58848 260.065711 
L 237.23136 260.01648 
L 236.87424 260.190783 
L 236.51712 260.311864 
L 236.16 259.926002 
L 235.80288 259.757021 
L 235.44576 260.542716 
L 235.08864 260.019806 
L 234.73152 259.742385 
L 234.3744 258.988622 
L 234.01728 257.646087 
L 233.66016 258.834943 
L 233.30304 258.536897 
L 232.94592 257.074612 
L 232.5888 255.819228 
L 232.23168 255.344219 
L 231.87456 253.592536 
L 231.51744 251.632621 
L 231.16032 250.395201 
L 230.8032 250.16834 
L 230.44608 248.650171 
L 230.08896 247.665557 
L 229.73184 247.348884 
L 229.37472 245.349717 
L 229.0176 243.808263 
L 228.66048 242.002028 
L 228.30336 240.532425 
L 227.94624 236.55405 
L 227.58912 234.155051 
L 227.232 229.50807 
L 226.87488 225.300174 
L 226.51776 222.317724 
L 226.16064 219.87282 
L 225.80352 216.85644 
L 225.4464 206.799402 
L 225.08928 207.579776 
L 224.73216 206.55591 
L 224.37504 201.948846 
L 224.01792 200.535791 
L 223.6608 199.680241 
L 223.30368 196.041159 
L 222.94656 193.999415 
L 222.58944 193.763241 
L 222.23232 191.911101 
L 221.8752 188.804244 
L 221.51808 183.731484 
L 221.16096 184.683499 
L 220.80384 186.972062 
L 220.44672 189.310522 
L 220.0896 191.428108 
L 219.73248 191.796008 
L 219.37536 191.499293 
L 219.01824 194.125153 
L 218.66112 193.320829 
L 218.304 197.131553 
L 217.94688 195.910764 
L 217.58976 198.29912 
L 217.23264 198.356334 
L 216.87552 200.850468 
L 216.5184 204.42901 
L 216.16128 205.317158 
L 215.80416 206.994995 
L 215.44704 209.801811 
L 215.08992 213.012452 
L 214.7328 214.04164 
L 214.37568 216.446628 
L 214.01856 219.786998 
L 213.66144 219.733776 
L 213.30432 221.877308 
L 212.9472 223.81926 
L 212.59008 224.811858 
L 212.23296 225.539009 
L 211.87584 226.629403 
L 211.51872 227.802957 
L 211.1616 227.707822 
L 210.80448 228.265992 
L 210.44736 229.295845 
L 210.09024 231.23181 
L 209.73312 231.414097 
L 209.376 230.806031 
L 209.01888 230.470065 
L 208.66176 230.724867 
L 208.30464 231.958961 
L 207.94752 230.618422 
L 207.5904 231.311644 
L 207.23328 232.440624 
L 206.87616 231.995552 
L 206.51904 232.945572 
L 206.16192 231.80129 
L 205.8048 231.085449 
L 205.44768 231.117382 
L 205.09056 231.438047 
L 204.73344 229.451521 
L 204.37632 236.735672 
L 204.0192 233.616839 
L 203.66208 234.898834 
L 203.30496 235.837544 
L 202.94784 236.894008 
L 202.59072 237.244611 
L 202.2336 241.005439 
L 201.87648 233.884282 
L 201.51936 238.270473 
L 201.16224 238.934422 
L 200.80512 238.52594 
L 200.448 232.588316 
L 200.09088 231.53917 
L 199.73376 232.500499 
L 199.37664 230.490688 
L 199.01952 228.701085 
L 198.6624 218.351989 
L 198.30528 221.732942 
L 197.94816 216.25037 
L 197.59104 211.74709 
L 197.23392 215.551161 
L 196.8768 214.15873 
L 196.51968 207.837904 
L 196.16256 206.945099 
L 195.80544 204.788261 
L 195.44832 202.674666 
L 195.0912 201.177121 
L 194.73408 199.612382 
L 194.37696 197.721657 
L 194.01984 200.432007 
L 193.66272 199.338952 
L 193.3056 195.704528 
L 192.94848 200.955583 
L 192.59136 194.547606 
L 192.23424 195.800993 
L 191.87712 196.382448 
L 191.52 196.35251 
L 191.16288 195.265443 
L 190.80576 198.432841 
L 190.44864 198.357664 
L 190.09152 206.468758 
L 189.7344 206.124143 
L 189.37728 208.589671 
L 189.02016 213.005799 
L 188.66304 216.682137 
L 188.30592 220.049119 
L 187.9488 222.712235 
L 187.59168 223.28371 
L 187.23456 222.977016 
L 186.87744 224.275643 
L 186.52032 223.405456 
L 186.1632 224.199135 
L 185.80608 224.137264 
L 185.44896 224.110653 
L 185.09184 224.932274 
L 184.73472 224.119302 
L 184.3776 224.72005 
L 184.02048 224.511152 
L 183.66336 222.947744 
L 183.30624 224.44795 
L 182.94912 223.173939 
L 182.592 224.332191 
L 182.23488 229.213351 
L 181.87776 232.01418 
L 181.52064 232.461248 
L 181.16352 234.695923 
L 180.8064 235.297336 
L 180.44928 236.531431 
L 180.09216 237.950473 
L 179.73504 241.568931 
L 179.37792 243.886766 
L 179.0208 239.27305 
L 178.66368 240.691427 
L 178.30656 237.249268 
L 177.94944 241.073297 
L 177.59232 241.984066 
L 177.2352 246.516618 
L 176.87808 245.689675 
L 176.52096 246.395537 
L 176.16384 243.898741 
L 175.80672 246.729508 
L 175.4496 244.53741 
L 175.09248 242.288099 
L 174.73536 242.725853 
L 174.37824 241.692673 
L 174.02112 242.948056 
L 173.664 241.788473 
L 173.30688 238.213259 
L 172.94976 237.430224 
L 172.59264 235.894092 
L 172.23552 232.256341 
L 171.8784 230.704908 
L 171.52128 228.870066 
L 171.16416 227.866824 
L 170.80704 224.952232 
L 170.44992 225.101255 
L 170.0928 217.868996 
L 169.73568 215.462013 
L 169.37856 214.157399 
L 169.02144 208.43466 
L 168.66432 203.203564 
L 168.3072 202.897535 
L 167.95008 201.413295 
L 167.59296 200.749346 
L 167.23584 200.870427 
L 166.87872 202.878242 
L 166.5216 200.3555 
L 166.16448 202.236912 
L 165.80736 201.759241 
L 165.45024 204.150257 
L 165.09312 202.774458 
L 164.736 205.550006 
L 164.37888 205.971794 
L 164.02176 208.65886 
L 163.66464 208.467924 
L 163.30752 209.892954 
L 162.9504 210.919481 
L 162.59328 214.464758 
L 162.23616 214.101516 
L 161.87904 215.623676 
L 161.52192 218.06858 
L 161.1648 220.453609 
L 160.80768 222.266497 
L 160.45056 223.066829 
L 160.09344 225.453853 
L 159.73632 226.191649 
L 159.3792 225.359384 
L 159.02208 231.456675 
L 158.66496 231.900417 
L 158.30784 229.897259 
L 157.95072 233.403284 
L 157.5936 235.875465 
L 157.23648 236.365776 
L 156.87936 235.992554 
L 156.52224 231.905074 
L 156.16512 236.28062 
L 155.808 234.752472 
L 155.45088 233.880955 
L 155.09376 235.023241 
L 154.73664 234.428481 
L 154.37952 233.169106 
L 154.0224 232.256341 
L 153.66528 231.389482 
L 153.30816 231.448026 
L 152.95104 231.720126 
L 152.59392 228.760295 
L 152.2368 230.407528 
L 151.87968 229.053684 
L 151.52256 229.364369 
L 151.16544 228.967862 
L 150.80832 227.169611 
L 150.4512 226.641378 
L 150.09408 227.134351 
L 149.73696 227.77302 
L 149.37984 225.467159 
L 149.02272 224.644873 
L 148.6656 222.943752 
L 148.30848 221.444876 
L 147.95136 220.387746 
L 147.59424 217.847707 
L 147.23712 218.03332 
L 146.88 216.404715 
L 146.52288 211.465011 
L 146.16576 209.968796 
L 145.80864 208.988839 
L 145.45152 207.762728 
L 145.0944 206.517324 
L 144.73728 205.063021 
L 144.38016 203.975289 
L 144.02304 206.257199 
L 143.66592 208.360814 
L 143.3088 205.146847 
L 142.95168 208.632249 
L 142.59456 211.328628 
L 142.23744 218.479058 
L 141.88032 219.616687 
L 141.5232 221.32313 
L 141.16608 224.348158 
L 140.80896 226.326701 
L 140.45184 230.070231 
L 140.09472 231.304326 
L 139.7376 234.725861 
L 139.38048 237.02906 
L 139.02336 238.47804 
L 138.66624 241.215002 
L 138.30912 243.840197 
L 137.952 246.424144 
L 137.59488 247.130006 
L 137.23776 249.256907 
L 136.88064 251.59337 
L 136.52352 251.493578 
L 136.1664 252.975822 
L 135.80928 254.260477 
L 135.45216 255.266381 
L 135.09504 255.81191 
L 134.73792 256.473864 
L 134.3808 256.89166 
L 134.02368 254.640352 
L 133.66656 255.410747 
L 133.30944 254.892493 
L 132.95232 253.525343 
L 132.5952 253.927172 
L 132.23808 249.655409 
L 131.88096 245.173418 
L 131.52384 238.719537 
L 131.16672 232.103992 
L 130.8096 226.214934 
L 130.45248 225.801795 
L 130.09536 223.85452 
L 129.73824 221.222007 
L 129.38112 221.744252 
L 129.024 220.250699 
L 128.66688 220.928619 
L 128.30976 221.816102 
L 127.95264 223.203211 
L 127.59552 221.645125 
L 127.2384 222.311071 
L 126.88128 220.636561 
L 126.52416 221.720967 
L 126.16704 221.214689 
L 125.80992 220.97785 
L 125.4528 219.717144 
L 125.09568 222.577848 
L 124.73856 222.140759 
L 124.38144 223.849863 
L 124.02432 232.167194 
L 123.6672 233.690685 
L 123.31008 235.184904 
L 122.95296 242.104481 
L 122.59584 247.171254 
L 122.23872 248.609589 
L 121.8816 249.596199 
L 121.52448 249.12252 
L 121.16736 250.184972 
L 120.81024 250.381895 
L 120.45312 249.604183 
L 120.096 248.823144 
L 119.73888 249.082603 
L 119.38176 247.75537 
L 119.02464 249.100566 
L 118.66752 248.305556 
L 118.3104 244.872711 
L 117.95328 248.317531 
L 117.59616 245.495413 
L 117.23904 246.545891 
L 116.88192 242.109804 
L 116.5248 243.973918 
L 116.16768 244.152878 
L 115.81056 241.07862 
L 115.45344 239.481282 
L 115.09632 238.410847 
L 114.7392 237.674382 
L 114.38208 236.25534 
L 114.02496 233.217671 
L 113.66784 232.044782 
L 113.31072 234.262826 
L 112.9536 236.762283 
L 112.59648 232.469896 
L 112.23936 234.186319 
L 111.88224 234.243533 
L 111.52512 239.182572 
L 111.168 235.168937 
L 110.81088 237.50274 
L 110.45376 239.917706 
L 110.09664 240.475876 
L 109.73952 238.313051 
L 109.3824 235.966608 
L 109.02528 235.947315 
L 108.66816 238.653674 
L 108.31104 238.842613 
L 107.95392 241.24494 
L 107.5968 243.745727 
L 107.23968 247.053499 
L 106.88256 251.566759 
L 106.52544 257.622137 
L 106.16832 260.986458 
L 105.8112 258.982635 
L 105.45408 261.849326 
L 105.09696 262.713525 
L 104.73984 262.110116 
L 104.38272 263.306955 
L 104.0256 263.183878 
L 103.66848 265.314105 
L 103.31136 265.602836 
L 102.95424 264.414646 
L 102.59712 265.593522 
L 102.24 265.946786 
L 101.88288 267.135641 
L 101.52576 264.404667 
L 101.16864 265.06662 
L 100.81152 266.11111 
L 100.4544 265.864956 
L 100.09728 265.580882 
L 99.74016 264.415311 
L 99.38304 265.455809 
L 99.02592 263.897724 
L 98.6688 265.870944 
L 98.31168 265.836349 
L 97.95456 263.154606 
L 97.59744 264.647494 
L 97.24032 265.534312 
L 96.8832 264.13922 
L 96.52608 265.584208 
L 96.16896 263.334231 
L 95.81184 265.644749 
L 95.45472 265.98138 
L 95.0976 264.820467 
L 94.74048 264.404002 
L 94.38336 266.17032 
L 94.02624 264.368742 
L 93.66912 266.108449 
L 93.312 266.504956 
L 92.95488 264.410654 
L 92.59776 266.006661 
L 92.24064 265.390612 
L 91.88352 265.04134 
L 91.5264 265.463127 
L 91.16928 265.721256 
L 90.81216 266.239509 
L 90.45504 265.770487 
L 90.09792 265.687327 
L 89.7408 266.02795 
L 89.38368 265.143128 
L 89.02656 264.657473 
L 88.66944 264.674771 
L 88.31232 263.983545 
L 87.9552 262.616394 
L 87.59808 262.639679 
L 87.24096 261.547289 
L 86.88384 264.094646 
L 86.52672 262.294399 
L 86.1696 266.21689 
L 85.81248 266.575476 
L 85.45536 270.378216 
L 85.09824 274.54553 
L 84.74112 274.371227 
L 84.384 278.504611 
L 84.02688 281.510346 
L 83.66976 281.930803 
L 83.31264 281.868267 
L 82.95552 282.577455 
L 82.5984 282.669264 
L 82.24128 283.192839 
L 81.88416 282.860865 
L 81.52704 282.890802 
L 81.16992 282.500283 
L 80.8128 283.615292 
L 80.45568 283.234087 
L 80.09856 283.498203 
L 79.74144 284.074335 
L 79.38432 284.534709 
L 79.0272 283.560739 
L 78.67008 282.594087 
L 78.31296 281.136459 
L 77.95584 281.7086 
L 77.59872 279.910348 
L 77.2416 274.500291 
L 76.88448 273.894221 
L 76.52736 270.597093 
L 76.17024 274.468357 
L 75.81312 274.420457 
L 75.456 276.402326 
L 75.09888 276.480829 
L 74.74176 275.556756 
L 74.38464 277.76615 
L 74.02752 277.975714 
L 73.6704 278.148686 
L 73.31328 276.217379 
L 72.95616 277.57455 
L 72.59904 278.313676 
L 72.24192 278.787355 
L 71.8848 280.721989 
L 71.52768 279.179205 
L 71.17056 280.068019 
L 70.81344 280.49646 
L 70.45632 280.570306 
L 70.0992 281.255544 
L 69.74208 280.91359 
L 69.38496 281.706604 
L 69.02784 281.660034 
L 68.67072 282.157664 
L 68.3136 281.520325 
L 67.95648 283.006561 
L 67.59936 283.192839 
L 67.24224 282.961987 
L 66.88512 282.952673 
L 66.528 284.54868 
L 66.17088 284.247308 
L 65.81376 284.131549 
L 65.45664 284.691715 
L 65.09952 284.878659 
L 64.7424 285.215291 
L 64.38528 284.270593 
L 64.02816 285.601818 
L 63.67104 286.407472 
L 63.31392 285.098867 
L 62.9568 288.155828 
L 62.59968 290.484308 
L 62.24256 291.9273 
L 61.88544 295.459272 
L 61.52832 296.483803 
L 61.1712 298.341265 
L 60.81408 299.959226 
L 60.45696 299.929288 
L 60.09984 302.231822 
L 59.74272 302.513901 
L 59.3856 303.787912 
L 59.02848 303.759971 
L 58.67136 304.317475 
L 58.31424 303.012196 
L 57.95712 303.541093 
z
" style="fill:#1f77b4;fill-opacity:0.25;"/>
   </g>
   <g id="matplotlib.axis_1">
    <g id="xtick_1">
     <g id="line2d_1">
      <defs>
       <path d="M 0 0 
L 0 4.8 
" id="mf8b0df3049" style="stroke:#000000;"/>
      </defs>
      <g>
       <use style="stroke:#000000;" x="57.6" xlink:href="#mf8b0df3049" y="307.584"/>
      </g>
     </g>
     <g id="text_1">
      <!-- 0 -->
      <g transform="translate(54.8005 322.570625)scale(0.088 -0.088)">
       <defs>
        <path d="M 2034 4250 
Q 1547 4250 1301 3770 
Q 1056 3291 1056 2328 
Q 1056 1369 1301 889 
Q 1547 409 2034 409 
Q 2525 409 2770 889 
Q 3016 1369 3016 2328 
Q 3016 3291 2770 3770 
Q 2525 4250 2034 4250 
z
M 2034 4750 
Q 2819 4750 3233 4129 
Q 3647 3509 3647 2328 
Q 3647 1150 3233 529 
Q 2819 -91 2034 -91 
Q 1250 -91 836 529 
Q 422 1150 422 2328 
Q 422 3509 836 4129 
Q 1250 4750 2034 4750 
z
" id="DejaVuSans-30" transform="scale(0.015625)"/>
       </defs>
       <use xlink:href="#DejaVuSans-30"/>
      </g>
     </g>
    </g>
    <g id="xtick_2">
     <g id="line2d_2">
      <g>
       <use style="stroke:#000000;" x="129.024" xlink:href="#mf8b0df3049" y="307.584"/>
      </g>
     </g>
     <g id="text_2">
      <!-- 200 -->
      <g transform="translate(120.6255 322.570625)scale(0.088 -0.088)">
       <defs>
        <path d="M 1228 531 
L 3431 531 
L 3431 0 
L 469 0 
L 469 531 
Q 828 903 1448 1529 
Q 2069 2156 2228 2338 
Q 2531 2678 2651 2914 
Q 2772 3150 2772 3378 
Q 2772 3750 2511 3984 
Q 2250 4219 1831 4219 
Q 1534 4219 1204 4116 
Q 875 4013 500 3803 
L 500 4441 
Q 881 4594 1212 4672 
Q 1544 4750 1819 4750 
Q 2544 4750 2975 4387 
Q 3406 4025 3406 3419 
Q 3406 3131 3298 2873 
Q 3191 2616 2906 2266 
Q 2828 2175 2409 1742 
Q 1991 1309 1228 531 
z
" id="DejaVuSans-32" transform="scale(0.015625)"/>
       </defs>
       <use xlink:href="#DejaVuSans-32"/>
       <use x="63.623047" xlink:href="#DejaVuSans-30"/>
       <use x="127.246094" xlink:href="#DejaVuSans-30"/>
      </g>
     </g>
    </g>
    <g id="xtick_3">
     <g id="line2d_3">
      <g>
       <use style="stroke:#000000;" x="200.448" xlink:href="#mf8b0df3049" y="307.584"/>
      </g>
     </g>
     <g id="text_3">
      <!-- 400 -->
      <g transform="translate(192.0495 322.570625)scale(0.088 -0.088)">
       <defs>
        <path d="M 2419 4116 
L 825 1625 
L 2419 1625 
L 2419 4116 
z
M 2253 4666 
L 3047 4666 
L 3047 1625 
L 3713 1625 
L 3713 1100 
L 3047 1100 
L 3047 0 
L 2419 0 
L 2419 1100 
L 313 1100 
L 313 1709 
L 2253 4666 
z
" id="DejaVuSans-34" transform="scale(0.015625)"/>
       </defs>
       <use xlink:href="#DejaVuSans-34"/>
       <use x="63.623047" xlink:href="#DejaVuSans-30"/>
       <use x="127.246094" xlink:href="#DejaVuSans-30"/>
      </g>
     </g>
    </g>
    <g id="xtick_4">
     <g id="line2d_4">
      <g>
       <use style="stroke:#000000;" x="271.872" xlink:href="#mf8b0df3049" y="307.584"/>
      </g>
     </g>
     <g id="text_4">
      <!-- 600 -->
      <g transform="translate(263.4735 322.570625)scale(0.088 -0.088)">
       <defs>
        <path d="M 2113 2584 
Q 1688 2584 1439 2293 
Q 1191 2003 1191 1497 
Q 1191 994 1439 701 
Q 1688 409 2113 409 
Q 2538 409 2786 701 
Q 3034 994 3034 1497 
Q 3034 2003 2786 2293 
Q 2538 2584 2113 2584 
z
M 3366 4563 
L 3366 3988 
Q 3128 4100 2886 4159 
Q 2644 4219 2406 4219 
Q 1781 4219 1451 3797 
Q 1122 3375 1075 2522 
Q 1259 2794 1537 2939 
Q 1816 3084 2150 3084 
Q 2853 3084 3261 2657 
Q 3669 2231 3669 1497 
Q 3669 778 3244 343 
Q 2819 -91 2113 -91 
Q 1303 -91 875 529 
Q 447 1150 447 2328 
Q 447 3434 972 4092 
Q 1497 4750 2381 4750 
Q 2619 4750 2861 4703 
Q 3103 4656 3366 4563 
z
" id="DejaVuSans-36" transform="scale(0.015625)"/>
       </defs>
       <use xlink:href="#DejaVuSans-36"/>
       <use x="63.623047" xlink:href="#DejaVuSans-30"/>
       <use x="127.246094" xlink:href="#DejaVuSans-30"/>
      </g>
     </g>
    </g>
    <g id="xtick_5">
     <g id="line2d_5">
      <g>
       <use style="stroke:#000000;" x="343.296" xlink:href="#mf8b0df3049" y="307.584"/>
      </g>
     </g>
     <g id="text_5">
      <!-- 800 -->
      <g transform="translate(334.8975 322.570625)scale(0.088 -0.088)">
       <defs>
        <path d="M 2034 2216 
Q 1584 2216 1326 1975 
Q 1069 1734 1069 1313 
Q 1069 891 1326 650 
Q 1584 409 2034 409 
Q 2484 409 2743 651 
Q 3003 894 3003 1313 
Q 3003 1734 2745 1975 
Q 2488 2216 2034 2216 
z
M 1403 2484 
Q 997 2584 770 2862 
Q 544 3141 544 3541 
Q 544 4100 942 4425 
Q 1341 4750 2034 4750 
Q 2731 4750 3128 4425 
Q 3525 4100 3525 3541 
Q 3525 3141 3298 2862 
Q 3072 2584 2669 2484 
Q 3125 2378 3379 2068 
Q 3634 1759 3634 1313 
Q 3634 634 3220 271 
Q 2806 -91 2034 -91 
Q 1263 -91 848 271 
Q 434 634 434 1313 
Q 434 1759 690 2068 
Q 947 2378 1403 2484 
z
M 1172 3481 
Q 1172 3119 1398 2916 
Q 1625 2713 2034 2713 
Q 2441 2713 2670 2916 
Q 2900 3119 2900 3481 
Q 2900 3844 2670 4047 
Q 2441 4250 2034 4250 
Q 1625 4250 1398 4047 
Q 1172 3844 1172 3481 
z
" id="DejaVuSans-38" transform="scale(0.015625)"/>
       </defs>
       <use xlink:href="#DejaVuSans-38"/>
       <use x="63.623047" xlink:href="#DejaVuSans-30"/>
       <use x="127.246094" xlink:href="#DejaVuSans-30"/>
      </g>
     </g>
    </g>
    <g id="xtick_6">
     <g id="line2d_6">
      <g>
       <use style="stroke:#000000;" x="414.72" xlink:href="#mf8b0df3049" y="307.584"/>
      </g>
     </g>
     <g id="text_6">
      <!-- 1000 -->
      <g transform="translate(403.522 322.570625)scale(0.088 -0.088)">
       <defs>
        <path d="M 794 531 
L 1825 531 
L 1825 4091 
L 703 3866 
L 703 4441 
L 1819 4666 
L 2450 4666 
L 2450 531 
L 3481 531 
L 3481 0 
L 794 0 
L 794 531 
z
" id="DejaVuSans-31" transform="scale(0.015625)"/>
       </defs>
       <use xlink:href="#DejaVuSans-31"/>
       <use x="63.623047" xlink:href="#DejaVuSans-30"/>
       <use x="127.246094" xlink:href="#DejaVuSans-30"/>
       <use x="190.869141" xlink:href="#DejaVuSans-30"/>
      </g>
     </g>
    </g>
    <g id="text_7">
     <!-- Timestep -->
     <g transform="translate(214.03275 335.69525)scale(0.096 -0.096)">
      <defs>
       <path d="M -19 4666 
L 3928 4666 
L 3928 4134 
L 2272 4134 
L 2272 0 
L 1638 0 
L 1638 4134 
L -19 4134 
L -19 4666 
z
" id="DejaVuSans-54" transform="scale(0.015625)"/>
       <path d="M 603 3500 
L 1178 3500 
L 1178 0 
L 603 0 
L 603 3500 
z
M 603 4863 
L 1178 4863 
L 1178 4134 
L 603 4134 
L 603 4863 
z
" id="DejaVuSans-69" transform="scale(0.015625)"/>
       <path d="M 3328 2828 
Q 3544 3216 3844 3400 
Q 4144 3584 4550 3584 
Q 5097 3584 5394 3201 
Q 5691 2819 5691 2113 
L 5691 0 
L 5113 0 
L 5113 2094 
Q 5113 2597 4934 2840 
Q 4756 3084 4391 3084 
Q 3944 3084 3684 2787 
Q 3425 2491 3425 1978 
L 3425 0 
L 2847 0 
L 2847 2094 
Q 2847 2600 2669 2842 
Q 2491 3084 2119 3084 
Q 1678 3084 1418 2786 
Q 1159 2488 1159 1978 
L 1159 0 
L 581 0 
L 581 3500 
L 1159 3500 
L 1159 2956 
Q 1356 3278 1631 3431 
Q 1906 3584 2284 3584 
Q 2666 3584 2933 3390 
Q 3200 3197 3328 2828 
z
" id="DejaVuSans-6d" transform="scale(0.015625)"/>
       <path d="M 3597 1894 
L 3597 1613 
L 953 1613 
Q 991 1019 1311 708 
Q 1631 397 2203 397 
Q 2534 397 2845 478 
Q 3156 559 3463 722 
L 3463 178 
Q 3153 47 2828 -22 
Q 2503 -91 2169 -91 
Q 1331 -91 842 396 
Q 353 884 353 1716 
Q 353 2575 817 3079 
Q 1281 3584 2069 3584 
Q 2775 3584 3186 3129 
Q 3597 2675 3597 1894 
z
M 3022 2063 
Q 3016 2534 2758 2815 
Q 2500 3097 2075 3097 
Q 1594 3097 1305 2825 
Q 1016 2553 972 2059 
L 3022 2063 
z
" id="DejaVuSans-65" transform="scale(0.015625)"/>
       <path d="M 2834 3397 
L 2834 2853 
Q 2591 2978 2328 3040 
Q 2066 3103 1784 3103 
Q 1356 3103 1142 2972 
Q 928 2841 928 2578 
Q 928 2378 1081 2264 
Q 1234 2150 1697 2047 
L 1894 2003 
Q 2506 1872 2764 1633 
Q 3022 1394 3022 966 
Q 3022 478 2636 193 
Q 2250 -91 1575 -91 
Q 1294 -91 989 -36 
Q 684 19 347 128 
L 347 722 
Q 666 556 975 473 
Q 1284 391 1588 391 
Q 1994 391 2212 530 
Q 2431 669 2431 922 
Q 2431 1156 2273 1281 
Q 2116 1406 1581 1522 
L 1381 1569 
Q 847 1681 609 1914 
Q 372 2147 372 2553 
Q 372 3047 722 3315 
Q 1072 3584 1716 3584 
Q 2034 3584 2315 3537 
Q 2597 3491 2834 3397 
z
" id="DejaVuSans-73" transform="scale(0.015625)"/>
       <path d="M 1172 4494 
L 1172 3500 
L 2356 3500 
L 2356 3053 
L 1172 3053 
L 1172 1153 
Q 1172 725 1289 603 
Q 1406 481 1766 481 
L 2356 481 
L 2356 0 
L 1766 0 
Q 1100 0 847 248 
Q 594 497 594 1153 
L 594 3053 
L 172 3053 
L 172 3500 
L 594 3500 
L 594 4494 
L 1172 4494 
z
" id="DejaVuSans-74" transform="scale(0.015625)"/>
       <path d="M 1159 525 
L 1159 -1331 
L 581 -1331 
L 581 3500 
L 1159 3500 
L 1159 2969 
Q 1341 3281 1617 3432 
Q 1894 3584 2278 3584 
Q 2916 3584 3314 3078 
Q 3713 2572 3713 1747 
Q 3713 922 3314 415 
Q 2916 -91 2278 -91 
Q 1894 -91 1617 61 
Q 1341 213 1159 525 
z
M 3116 1747 
Q 3116 2381 2855 2742 
Q 2594 3103 2138 3103 
Q 1681 3103 1420 2742 
Q 1159 2381 1159 1747 
Q 1159 1113 1420 752 
Q 1681 391 2138 391 
Q 2594 391 2855 752 
Q 3116 1113 3116 1747 
z
" id="DejaVuSans-70" transform="scale(0.015625)"/>
      </defs>
      <use xlink:href="#DejaVuSans-54"/>
      <use x="57.958984" xlink:href="#DejaVuSans-69"/>
      <use x="85.742188" xlink:href="#DejaVuSans-6d"/>
      <use x="183.154297" xlink:href="#DejaVuSans-65"/>
      <use x="244.677734" xlink:href="#DejaVuSans-73"/>
      <use x="296.777344" xlink:href="#DejaVuSans-74"/>
      <use x="335.986328" xlink:href="#DejaVuSans-65"/>
      <use x="397.509766" xlink:href="#DejaVuSans-70"/>
     </g>
    </g>
   </g>
   <g id="matplotlib.axis_2">
    <g id="ytick_1">
     <g id="line2d_7">
      <defs>
       <path d="M 0 0 
L -4.8 0 
" id="m43b7ef5059" style="stroke:#000000;"/>
      </defs>
      <g>
       <use style="stroke:#000000;" x="57.6" xlink:href="#m43b7ef5059" y="307.584"/>
      </g>
     </g>
     <g id="text_8">
      <!-- 0 -->
      <g transform="translate(43.701 310.927312)scale(0.088 -0.088)">
       <use xlink:href="#DejaVuSans-30"/>
      </g>
     </g>
    </g>
    <g id="ytick_2">
     <g id="line2d_8">
      <g>
       <use style="stroke:#000000;" x="57.6" xlink:href="#m43b7ef5059" y="254.3616"/>
      </g>
     </g>
     <g id="text_9">
      <!-- 200 -->
      <g transform="translate(32.503 257.704912)scale(0.088 -0.088)">
       <use xlink:href="#DejaVuSans-32"/>
       <use x="63.623047" xlink:href="#DejaVuSans-30"/>
       <use x="127.246094" xlink:href="#DejaVuSans-30"/>
      </g>
     </g>
    </g>
    <g id="ytick_3">
     <g id="line2d_9">
      <g>
       <use style="stroke:#000000;" x="57.6" xlink:href="#m43b7ef5059" y="201.1392"/>
      </g>
     </g>
     <g id="text_10">
      <!-- 400 -->
      <g transform="translate(32.503 204.482512)scale(0.088 -0.088)">
       <use xlink:href="#DejaVuSans-34"/>
       <use x="63.623047" xlink:href="#DejaVuSans-30"/>
       <use x="127.246094" xlink:href="#DejaVuSans-30"/>
      </g>
     </g>
    </g>
    <g id="ytick_4">
     <g id="line2d_10">
      <g>
       <use style="stroke:#000000;" x="57.6" xlink:href="#m43b7ef5059" y="147.9168"/>
      </g>
     </g>
     <g id="text_11">
      <!-- 600 -->
      <g transform="translate(32.503 151.260112)scale(0.088 -0.088)">
       <use xlink:href="#DejaVuSans-36"/>
       <use x="63.623047" xlink:href="#DejaVuSans-30"/>
       <use x="127.246094" xlink:href="#DejaVuSans-30"/>
      </g>
     </g>
    </g>
    <g id="ytick_5">
     <g id="line2d_11">
      <g>
       <use style="stroke:#000000;" x="57.6" xlink:href="#m43b7ef5059" y="94.6944"/>
      </g>
     </g>
     <g id="text_12">
      <!-- 800 -->
      <g transform="translate(32.503 98.037712)scale(0.088 -0.088)">
       <use xlink:href="#DejaVuSans-38"/>
       <use x="63.623047" xlink:href="#DejaVuSans-30"/>
       <use x="127.246094" xlink:href="#DejaVuSans-30"/>
      </g>
     </g>
    </g>
    <g id="ytick_6">
     <g id="line2d_12">
      <g>
       <use style="stroke:#000000;" x="57.6" xlink:href="#m43b7ef5059" y="41.472"/>
      </g>
     </g>
     <g id="text_13">
      <!-- 1000 -->
      <g transform="translate(26.904 44.815313)scale(0.088 -0.088)">
       <use xlink:href="#DejaVuSans-31"/>
       <use x="63.623047" xlink:href="#DejaVuSans-30"/>
       <use x="127.246094" xlink:href="#DejaVuSans-30"/>
       <use x="190.869141" xlink:href="#DejaVuSans-30"/>
      </g>
     </g>
    </g>
    <g id="text_14">
     <!-- Reward -->
     <g transform="translate(20.9075 192.40425)rotate(-90)scale(0.096 -0.096)">
      <defs>
       <path d="M 2841 2188 
Q 3044 2119 3236 1894 
Q 3428 1669 3622 1275 
L 4263 0 
L 3584 0 
L 2988 1197 
Q 2756 1666 2539 1819 
Q 2322 1972 1947 1972 
L 1259 1972 
L 1259 0 
L 628 0 
L 628 4666 
L 2053 4666 
Q 2853 4666 3247 4331 
Q 3641 3997 3641 3322 
Q 3641 2881 3436 2590 
Q 3231 2300 2841 2188 
z
M 1259 4147 
L 1259 2491 
L 2053 2491 
Q 2509 2491 2742 2702 
Q 2975 2913 2975 3322 
Q 2975 3731 2742 3939 
Q 2509 4147 2053 4147 
L 1259 4147 
z
" id="DejaVuSans-52" transform="scale(0.015625)"/>
       <path d="M 269 3500 
L 844 3500 
L 1563 769 
L 2278 3500 
L 2956 3500 
L 3675 769 
L 4391 3500 
L 4966 3500 
L 4050 0 
L 3372 0 
L 2619 2869 
L 1863 0 
L 1184 0 
L 269 3500 
z
" id="DejaVuSans-77" transform="scale(0.015625)"/>
       <path d="M 2194 1759 
Q 1497 1759 1228 1600 
Q 959 1441 959 1056 
Q 959 750 1161 570 
Q 1363 391 1709 391 
Q 2188 391 2477 730 
Q 2766 1069 2766 1631 
L 2766 1759 
L 2194 1759 
z
M 3341 1997 
L 3341 0 
L 2766 0 
L 2766 531 
Q 2569 213 2275 61 
Q 1981 -91 1556 -91 
Q 1019 -91 701 211 
Q 384 513 384 1019 
Q 384 1609 779 1909 
Q 1175 2209 1959 2209 
L 2766 2209 
L 2766 2266 
Q 2766 2663 2505 2880 
Q 2244 3097 1772 3097 
Q 1472 3097 1187 3025 
Q 903 2953 641 2809 
L 641 3341 
Q 956 3463 1253 3523 
Q 1550 3584 1831 3584 
Q 2591 3584 2966 3190 
Q 3341 2797 3341 1997 
z
" id="DejaVuSans-61" transform="scale(0.015625)"/>
       <path d="M 2631 2963 
Q 2534 3019 2420 3045 
Q 2306 3072 2169 3072 
Q 1681 3072 1420 2755 
Q 1159 2438 1159 1844 
L 1159 0 
L 581 0 
L 581 3500 
L 1159 3500 
L 1159 2956 
Q 1341 3275 1631 3429 
Q 1922 3584 2338 3584 
Q 2397 3584 2469 3576 
Q 2541 3569 2628 3553 
L 2631 2963 
z
" id="DejaVuSans-72" transform="scale(0.015625)"/>
       <path d="M 2906 2969 
L 2906 4863 
L 3481 4863 
L 3481 0 
L 2906 0 
L 2906 525 
Q 2725 213 2448 61 
Q 2172 -91 1784 -91 
Q 1150 -91 751 415 
Q 353 922 353 1747 
Q 353 2572 751 3078 
Q 1150 3584 1784 3584 
Q 2172 3584 2448 3432 
Q 2725 3281 2906 2969 
z
M 947 1747 
Q 947 1113 1208 752 
Q 1469 391 1925 391 
Q 2381 391 2643 752 
Q 2906 1113 2906 1747 
Q 2906 2381 2643 2742 
Q 2381 3103 1925 3103 
Q 1469 3103 1208 2742 
Q 947 2381 947 1747 
z
" id="DejaVuSans-64" transform="scale(0.015625)"/>
      </defs>
      <use xlink:href="#DejaVuSans-52"/>
      <use x="64.982422" xlink:href="#DejaVuSans-65"/>
      <use x="126.505859" xlink:href="#DejaVuSans-77"/>
      <use x="208.292969" xlink:href="#DejaVuSans-61"/>
      <use x="269.572266" xlink:href="#DejaVuSans-72"/>
      <use x="308.935547" xlink:href="#DejaVuSans-64"/>
     </g>
    </g>
   </g>
   <g id="line2d_13">
    <path clip-path="url(#p8622676030)" d="M 57.95712 304.16313 
L 58.31424 304.018099 
L 58.67136 304.497101 
L 59.02848 304.533026 
L 59.3856 304.976102 
L 59.74272 304.571612 
L 60.09984 304.912236 
L 60.45696 303.982174 
L 60.81408 304.844377 
L 61.1712 304.604876 
L 61.88544 303.465917 
L 62.24256 304.313484 
L 62.59968 304.250947 
L 62.9568 303.464586 
L 63.31392 304.37735 
L 63.67104 304.236311 
L 64.02816 304.344086 
L 64.38528 303.757309 
L 64.7424 304.125875 
L 67.59936 304.042049 
L 67.95648 304.159139 
L 68.3136 303.966207 
L 68.67072 303.963546 
L 69.02784 304.119222 
L 69.38496 303.999471 
L 69.74208 304.096602 
L 70.0992 303.90101 
L 70.45632 304.014108 
L 71.17056 303.644212 
L 71.52768 303.726707 
L 72.24192 302.646292 
L 72.95616 301.556563 
L 73.6704 298.69719 
L 74.02752 297.989332 
L 74.38464 297.592825 
L 74.74176 295.65553 
L 75.09888 296.106589 
L 75.81312 292.849379 
L 76.52736 292.150835 
L 77.2416 290.162978 
L 77.59872 289.770463 
L 77.95584 288.236327 
L 78.31296 288.394664 
L 78.67008 287.918323 
L 79.0272 289.239569 
L 79.38432 289.625432 
L 80.09856 287.737367 
L 80.8128 288.309508 
L 81.16992 287.416702 
L 81.52704 288.546348 
L 81.88416 288.121899 
L 82.24128 286.993584 
L 82.5984 286.932378 
L 82.95552 287.455288 
L 83.66976 285.042983 
L 84.02688 284.635832 
L 84.74112 285.65238 
L 85.09824 284.158161 
L 85.81248 284.208722 
L 86.1696 284.534709 
L 86.52672 283.991841 
L 86.88384 284.605229 
L 87.24096 284.126227 
L 87.59808 283.346519 
L 88.31232 283.27866 
L 88.66944 282.950012 
L 89.02656 282.993921 
L 89.38368 283.556748 
L 89.7408 283.224108 
L 90.09792 283.524814 
L 90.45504 282.919409 
L 91.16928 283.152257 
L 91.5264 282.484316 
L 91.88352 282.532216 
L 92.24064 282.7318 
L 92.59776 281.606147 
L 92.95488 281.737872 
L 93.312 282.393838 
L 93.66912 281.04332 
L 94.38336 282.200907 
L 94.74048 281.40124 
L 95.0976 281.454463 
L 95.45472 281.723236 
L 95.81184 280.576293 
L 96.16896 281.075253 
L 96.52608 280.352759 
L 96.8832 280.025441 
L 97.24032 280.492468 
L 97.59744 280.155836 
L 97.95456 280.33147 
L 98.31168 279.623612 
L 98.6688 279.502531 
L 99.02592 278.886482 
L 99.38304 278.873176 
L 99.74016 279.163238 
L 100.09728 279.306939 
L 101.16864 277.593178 
L 101.52576 278.886482 
L 101.88288 277.558583 
L 102.24 276.965153 
L 102.59712 277.853967 
L 102.95424 276.669769 
L 103.31136 277.436172 
L 103.66848 276.805486 
L 104.0256 276.498127 
L 104.38272 275.605321 
L 104.73984 275.1995 
L 105.09696 276.697711 
L 105.45408 275.961911 
L 105.8112 276.19742 
L 106.16832 275.180872 
L 106.52544 276.353096 
L 106.88256 274.351933 
L 107.23968 276.652472 
L 107.95392 273.431186 
L 108.31104 276.138876 
L 108.66816 275.838169 
L 109.02528 274.779043 
L 109.3824 275.593346 
L 109.73952 272.868359 
L 110.09664 275.039833 
L 110.45376 274.252141 
L 110.81088 275.155592 
L 111.168 275.078419 
L 111.52512 273.661373 
L 111.88224 272.760584 
L 112.23936 274.301372 
L 112.9536 273.240916 
L 113.31072 274.901455 
L 113.66784 271.9689 
L 114.02496 272.654139 
L 114.38208 271.901042 
L 114.7392 272.405324 
L 115.09632 271.44599 
L 115.45344 273.348691 
L 115.81056 272.580958 
L 116.16768 269.215972 
L 116.5248 269.772146 
L 116.88192 268.541378 
L 117.23904 266.641338 
L 117.59616 269.499381 
L 117.95328 269.871938 
L 118.3104 269.580545 
L 118.66752 270.180628 
L 119.02464 267.390444 
L 119.38176 266.090486 
L 119.73888 266.424457 
L 120.45312 268.847407 
L 120.81024 264.020135 
L 121.16736 264.55502 
L 121.52448 262.658972 
L 121.8816 262.34496 
L 122.23872 261.10887 
L 122.59584 263.32026 
L 122.95296 262.44076 
L 123.31008 264.543045 
L 123.6672 263.369491 
L 124.02432 263.495894 
L 124.38144 264.782546 
L 124.73856 264.734646 
L 125.09568 264.847743 
L 125.4528 265.145789 
L 125.80992 264.060052 
L 126.16704 264.896974 
L 126.52416 264.03078 
L 126.88128 265.850986 
L 127.2384 265.168408 
L 127.59552 265.900216 
L 127.95264 266.078511 
L 128.30976 265.193689 
L 128.66688 267.487574 
L 129.024 267.23876 
L 129.38112 268.742292 
L 130.09536 265.463793 
L 130.45248 267.132315 
L 130.8096 265.781796 
L 131.16672 268.923249 
L 131.52384 266.879508 
L 131.88096 268.147532 
L 132.23808 266.33664 
L 132.5952 267.301296 
L 132.95232 271.158589 
L 134.02368 274.745779 
L 134.3808 274.314678 
L 134.73792 275.101039 
L 135.09504 274.966652 
L 135.45216 273.477756 
L 135.80928 273.657381 
L 136.1664 274.709854 
L 136.88064 274.892141 
L 137.23776 273.073265 
L 137.59488 273.870271 
L 137.952 273.742537 
L 138.30912 274.681912 
L 138.66624 273.415219 
L 139.02336 273.300791 
L 139.38048 274.886819 
L 139.7376 273.761165 
L 140.09472 273.948774 
L 140.45184 273.743868 
L 140.80896 274.999916 
L 141.16608 273.922163 
L 141.5232 274.262786 
L 141.88032 273.958088 
L 142.23744 274.298711 
L 142.59456 273.040001 
L 142.95168 273.770479 
L 143.3088 273.500375 
L 143.66592 272.933556 
L 144.02304 272.886987 
L 144.38016 273.231602 
L 144.73728 274.121747 
L 145.0944 273.359336 
L 145.45152 274.925405 
L 146.16576 273.566903 
L 146.52288 274.574137 
L 147.23712 273.354013 
L 147.59424 272.771228 
L 147.95136 273.935468 
L 148.6656 273.827693 
L 149.02272 273.585531 
L 149.37984 273.770479 
L 149.73696 273.757173 
L 150.09408 274.109772 
L 150.4512 275.196839 
L 150.80832 274.24948 
L 151.16544 272.639503 
L 151.52256 274.250811 
L 151.87968 273.650728 
L 152.2368 273.385947 
L 152.59392 273.883576 
L 152.95104 273.145116 
L 153.30816 273.480417 
L 153.66528 274.963991 
L 154.0224 273.883576 
L 154.37952 274.208233 
L 154.73664 272.572975 
L 155.09376 273.617464 
L 155.45088 273.437839 
L 155.808 272.224368 
L 156.16512 273.745198 
L 156.52224 272.82312 
L 156.87936 273.170396 
L 157.23648 273.115843 
L 157.5936 273.578878 
L 157.95072 273.74919 
L 158.30784 273.055968 
L 158.66496 273.926154 
L 159.02208 273.383286 
L 159.3792 273.170396 
L 159.73632 272.262954 
L 160.09344 273.483078 
L 160.45056 273.509689 
L 160.80768 273.879585 
L 161.52192 273.022704 
L 161.87904 272.288235 
L 162.23616 272.938879 
L 162.59328 272.353432 
L 162.9504 272.788525 
L 163.30752 272.958837 
L 163.66464 272.46786 
L 164.02176 273.284824 
L 164.37888 272.648817 
L 165.09312 273.122496 
L 165.45024 272.720667 
L 166.16448 273.004076 
L 166.5216 272.674097 
L 166.87872 271.378132 
L 167.59296 273.311436 
L 167.95008 271.964909 
L 169.02144 272.244326 
L 169.37856 270.811313 
L 169.73568 273.153099 
L 170.0928 271.673516 
L 170.44992 270.730149 
L 170.80704 272.254971 
L 171.16416 271.712102 
L 171.52128 272.937548 
L 171.8784 272.421291 
L 172.23552 273.054637 
L 172.59264 270.643663 
L 172.94976 272.270938 
L 173.30688 271.551105 
L 174.02112 271.915678 
L 174.37824 271.750689 
L 174.73536 272.636842 
L 175.4496 271.835844 
L 175.80672 271.859795 
L 176.16384 271.46861 
L 176.52096 271.306282 
L 176.87808 271.306282 
L 177.2352 269.647073 
L 177.59232 270.772727 
L 177.94944 270.813974 
L 178.30656 272.136551 
L 178.66368 272.242996 
L 179.0208 270.939047 
L 179.37792 272.027445 
L 179.73504 271.917009 
L 180.09216 270.635679 
L 180.44928 271.684161 
L 180.8064 271.942289 
L 181.16352 270.082166 
L 181.52064 271.512518 
L 181.87776 270.73148 
L 182.23488 271.748028 
L 182.592 270.563829 
L 183.30624 270.334973 
L 183.66336 270.481334 
L 184.02048 270.829941 
L 184.73472 270.642332 
L 185.09184 270.04225 
L 185.44896 271.048153 
L 185.80608 270.162 
L 186.1632 270.173975 
L 186.52032 271.062789 
L 186.87744 271.306282 
L 187.23456 270.193933 
L 187.59168 270.428112 
L 187.9488 269.893227 
L 188.30592 270.103455 
L 189.02016 270.8499 
L 189.37728 270.634349 
L 190.44864 268.325827 
L 190.80576 269.765493 
L 191.16288 270.199256 
L 191.87712 270.573143 
L 192.23424 269.524662 
L 192.59136 270.326989 
L 192.94848 269.455473 
L 193.66272 270.212561 
L 194.01984 270.071522 
L 194.37696 270.495971 
L 195.44832 266.451068 
L 195.80544 267.079092 
L 196.16256 266.900797 
L 196.51968 262.575147 
L 196.8768 264.395353 
L 197.23392 264.900966 
L 197.59104 263.626289 
L 197.94816 265.459801 
L 198.30528 264.580301 
L 198.6624 264.799843 
L 199.01952 266.325996 
L 199.37664 266.412482 
L 199.73376 266.327326 
L 200.448 268.083665 
L 200.80512 266.848906 
L 201.51936 266.065206 
L 201.87648 266.610735 
L 202.2336 264.922255 
L 202.59072 264.378056 
L 202.94784 266.59876 
L 203.30496 263.205832 
L 204.0192 265.109864 
L 204.37632 264.565665 
L 204.73344 262.097476 
L 205.09056 265.156433 
L 205.44768 264.161174 
L 205.8048 263.816559 
L 206.16192 263.807245 
L 206.87616 265.850986 
L 207.23328 266.472357 
L 207.5904 266.114436 
L 207.94752 265.352026 
L 208.30464 266.723833 
L 208.66176 266.025289 
L 209.01888 266.476349 
L 209.376 264.970155 
L 209.73312 265.866952 
L 210.09024 264.789199 
L 210.44736 265.571568 
L 210.80448 262.780053 
L 211.1616 263.731404 
L 211.51872 263.968243 
L 211.87584 260.790866 
L 212.23296 261.621135 
L 212.59008 260.06305 
L 212.9472 259.42172 
L 213.66144 255.737399 
L 214.01856 255.729416 
L 214.37568 257.16642 
L 214.7328 257.397938 
L 215.08992 253.432869 
L 215.44704 255.803927 
L 215.80416 255.505882 
L 216.16128 254.448086 
L 216.5184 255.859811 
L 216.87552 255.005591 
L 217.23264 256.490496 
L 217.58976 255.117358 
L 217.94688 256.392035 
L 218.304 255.873116 
L 218.66112 256.070039 
L 219.01824 254.968335 
L 219.37536 256.360101 
L 219.73248 256.95087 
L 220.0896 255.814572 
L 220.44672 255.149292 
L 220.80384 255.532493 
L 221.16096 256.151203 
L 221.51808 257.928831 
L 221.8752 256.26164 
L 222.23232 255.963594 
L 222.58944 258.097812 
L 222.94656 256.724675 
L 223.30368 257.131826 
L 223.6608 256.606255 
L 224.01792 256.676774 
L 224.37504 258.684589 
L 224.73216 258.065879 
L 225.08928 263.398764 
L 225.4464 266.424457 
L 225.80352 265.026038 
L 226.16064 266.843583 
L 226.51776 267.389113 
L 226.87488 267.047159 
L 227.232 267.729736 
L 227.58912 267.502211 
L 227.94624 269.3783 
L 228.66048 267.945287 
L 229.0176 268.150193 
L 229.37472 268.650484 
L 229.73184 270.691563 
L 230.08896 270.239172 
L 230.44608 269.082916 
L 230.8032 269.035016 
L 231.16032 267.68982 
L 231.51744 270.462707 
L 231.87456 267.95327 
L 232.23168 269.02038 
L 232.5888 269.274516 
L 232.94592 269.349028 
L 233.30304 268.651814 
L 233.66016 268.707698 
L 234.01728 269.152105 
L 234.3744 269.004413 
L 234.73152 272.249649 
L 235.08864 269.802749 
L 235.44576 270.743455 
L 235.80288 271.246406 
L 236.16 271.295637 
L 236.87424 271.728069 
L 237.23136 272.478505 
L 237.58848 272.729981 
L 238.30272 272.784534 
L 238.65984 273.404575 
L 239.01696 272.37206 
L 239.37408 273.244908 
L 240.08832 273.315427 
L 240.44544 274.217547 
L 240.80256 274.250811 
L 241.15968 274.622037 
L 241.5168 274.81896 
L 241.87392 274.385197 
L 242.23104 274.645987 
L 242.58816 275.259375 
L 242.94528 274.664615 
L 243.3024 274.971974 
L 243.65952 275.445654 
L 244.01664 275.621288 
L 244.37376 275.054469 
L 245.088 275.760996 
L 245.44512 275.262036 
L 245.80224 275.790269 
L 246.51648 275.216797 
L 246.8736 276.184115 
L 247.23072 276.059042 
L 247.58784 276.355757 
L 247.94496 275.328564 
L 248.30208 275.844822 
L 248.6592 275.933969 
L 249.01632 275.224781 
L 249.37344 275.395092 
L 249.73056 275.296631 
L 250.08768 276.319832 
L 250.80192 275.516173 
L 251.15904 275.549437 
L 251.51616 275.931308 
L 251.87328 274.784365 
L 252.2304 274.208233 
L 252.58752 276.008481 
L 252.94464 275.81688 
L 253.30176 274.926735 
L 253.65888 276.194759 
L 254.016 275.691807 
L 254.37312 274.793679 
L 254.73024 274.749771 
L 255.08736 275.351184 
L 255.44448 274.161663 
L 255.8016 274.407817 
L 256.15872 275.091725 
L 256.51584 274.241497 
L 256.87296 272.427944 
L 257.23008 272.338796 
L 257.94432 268.682417 
L 258.30144 268.810151 
L 258.65856 267.923998 
L 259.01568 267.338552 
L 259.3728 269.571231 
L 259.72992 269.718924 
L 260.08704 272.200418 
L 260.44416 272.876342 
L 261.1584 272.990771 
L 261.51552 273.600167 
L 262.22976 273.777132 
L 262.58688 274.10578 
L 262.944 274.023285 
L 263.30112 273.359336 
L 263.65824 274.921413 
L 264.01536 274.504948 
L 264.37248 273.246238 
L 264.7296 274.149688 
L 265.08672 273.785115 
L 265.44384 273.733223 
L 265.80096 272.920251 
L 266.15808 273.364658 
L 266.5152 273.55892 
L 266.87232 273.475094 
L 267.22944 273.962079 
L 267.58656 272.974804 
L 267.94368 273.376633 
L 268.3008 272.743286 
L 268.65792 273.602828 
L 269.01504 272.913598 
L 269.37216 273.453805 
L 269.72928 272.650147 
L 270.44352 272.145865 
L 270.80064 272.914929 
L 271.15776 272.694056 
L 271.51488 272.94287 
L 271.872 273.55892 
L 272.22912 272.737964 
L 272.58624 272.977465 
L 272.94336 271.921 
L 273.30048 272.46786 
L 273.6576 272.000834 
L 274.37184 272.385366 
L 274.72896 271.980876 
L 275.08608 272.620875 
L 276.15744 271.685491 
L 276.51456 272.290896 
L 277.58592 271.818547 
L 277.94304 272.128568 
L 278.30016 271.024203 
L 278.65728 271.84782 
L 279.0144 271.91967 
L 279.37152 271.370148 
L 279.72864 269.756179 
L 280.08576 270.959005 
L 280.44288 270.820627 
L 280.8 270.082166 
L 281.51424 270.730149 
L 281.87136 269.462125 
L 282.22848 269.669693 
L 282.5856 269.697635 
L 282.94272 269.555265 
L 283.65696 269.452812 
L 284.01408 270.01963 
L 284.3712 269.716262 
L 284.72832 270.658299 
L 285.08544 270.699546 
L 285.79968 271.20649 
L 286.1568 271.946281 
L 286.51392 273.098546 
L 287.22816 273.594845 
L 287.58528 274.844241 
L 287.9424 275.196839 
L 288.29952 274.752432 
L 288.65664 275.730394 
L 289.01376 275.442993 
L 289.37088 276.019125 
L 289.728 275.923325 
L 290.08512 276.358418 
L 290.44224 276.056381 
L 290.79936 276.325154 
L 291.15648 276.375715 
L 291.5136 276.949187 
L 291.87072 276.770892 
L 292.22784 276.424946 
L 292.94208 277.00374 
L 293.2992 277.305777 
L 293.65632 276.906609 
L 294.37056 277.397585 
L 295.0848 277.329727 
L 295.44192 277.152762 
L 295.79904 276.484821 
L 296.15616 277.12349 
L 296.51328 277.074259 
L 297.58464 277.569228 
L 297.94176 277.225943 
L 298.29888 277.449477 
L 298.656 277.529311 
L 299.01312 276.681744 
L 299.37024 277.696961 
L 299.72736 276.676422 
L 300.08448 276.516755 
L 300.4416 276.813469 
L 301.15584 277.082243 
L 301.51296 276.967814 
L 301.87008 277.118168 
L 302.2272 277.078251 
L 302.58432 277.251224 
L 302.94144 277.102201 
L 303.29856 277.691639 
L 303.65568 277.587855 
L 304.0128 276.927898 
L 304.36992 276.719 
L 304.72704 276.746941 
L 305.08416 277.17139 
L 305.44128 277.252554 
L 305.7984 276.471516 
L 306.15552 276.979789 
L 306.51264 276.329146 
L 306.86976 277.362991 
L 307.22688 277.303116 
L 307.584 276.697711 
L 307.94112 277.339041 
L 308.29824 276.120248 
L 308.65536 277.590516 
L 309.01248 276.88665 
L 309.3696 276.961162 
L 309.72672 276.439582 
L 310.08384 277.728895 
L 310.44096 276.977128 
L 310.79808 276.55401 
L 311.1552 276.997087 
L 311.51232 276.90927 
L 312.22656 277.17006 
L 312.58368 277.05297 
L 312.9408 277.136796 
L 313.29792 276.687066 
L 313.65504 276.74295 
L 314.01216 276.949187 
L 314.36928 275.915341 
L 314.7264 276.953178 
L 315.08352 276.369062 
L 315.44064 276.184115 
L 315.79776 276.994426 
L 316.15488 276.247981 
L 316.512 275.969894 
L 316.86912 276.555341 
L 317.22624 275.60266 
L 317.58336 275.780955 
L 317.94048 275.663866 
L 318.2976 275.316589 
L 318.65472 275.150269 
L 319.01184 275.925986 
L 319.36896 275.387109 
L 320.0832 275.645238 
L 320.44032 274.626029 
L 320.79744 275.462951 
L 321.15456 275.490893 
L 321.8688 275.001247 
L 322.22592 275.961911 
L 322.58304 275.844822 
L 322.94016 275.03185 
L 323.29728 275.275342 
L 323.6544 275.067775 
L 324.01152 274.576798 
L 324.36864 274.413139 
L 324.72576 275.795591 
L 325.08288 276.209395 
L 325.44 275.784947 
L 325.79712 276.297212 
L 326.15424 274.971974 
L 326.51136 274.954677 
L 326.86848 275.242078 
L 327.2256 275.086403 
L 327.93984 275.753013 
L 328.29696 274.776382 
L 328.65408 274.952016 
L 329.0112 276.064364 
L 329.36832 276.236006 
L 329.72544 275.316589 
L 330.08256 276.166817 
L 330.43968 276.032431 
L 330.7968 276.515424 
L 331.15392 275.743699 
L 331.51104 276.161495 
L 331.86816 275.814219 
L 332.22528 276.443574 
L 332.5824 276.705694 
L 332.93952 275.802244 
L 333.29664 275.614635 
L 333.65376 275.758335 
L 334.01088 275.74503 
L 334.368 275.558751 
L 334.72512 277.179373 
L 335.79648 276.810808 
L 336.1536 277.055631 
L 336.51072 276.560663 
L 336.86784 276.659124 
L 337.22496 277.227274 
L 337.58208 276.628522 
L 337.9392 276.69505 
L 338.29632 276.977128 
L 338.65344 276.740289 
L 339.01056 276.945195 
L 339.36768 276.581952 
L 339.7248 276.990434 
L 340.08192 276.842742 
L 340.43904 276.935881 
L 340.79616 277.235257 
L 341.15328 277.070268 
L 341.5104 276.591266 
L 341.86752 276.789519 
L 342.22464 276.798833 
L 342.93888 277.047648 
L 343.296 277.424196 
L 343.65312 277.167398 
L 344.01024 277.348355 
L 344.72448 277.164737 
L 345.0816 277.304446 
L 345.43872 277.022367 
L 345.79584 277.200662 
L 346.15296 277.110184 
L 346.51008 277.369644 
L 346.8672 276.303865 
L 347.22432 276.995756 
L 347.93856 277.127482 
L 348.29568 276.67243 
L 348.6528 276.845403 
L 349.36704 276.850725 
L 349.72416 277.33638 
L 350.08128 276.334468 
L 350.4384 276.064364 
L 350.79552 276.567316 
L 351.15264 275.681163 
L 351.50976 276.373054 
L 351.86688 276.50478 
L 352.224 276.094967 
L 352.58112 276.222701 
L 352.93824 275.749021 
L 353.29536 275.831516 
L 353.65248 276.665777 
L 354.0096 275.878086 
L 354.36672 276.657794 
L 354.72384 275.9353 
L 355.08096 276.350435 
L 355.43808 275.545446 
L 355.7952 276.146859 
L 356.15232 275.665196 
L 356.50944 275.799583 
L 357.22368 276.419624 
L 357.5808 275.379126 
L 358.29504 275.431018 
L 358.65216 276.021786 
L 359.00928 275.654552 
L 359.3664 276.112264 
L 359.72352 275.054469 
L 360.08064 276.114925 
L 360.43776 276.522077 
L 360.79488 276.496796 
L 361.152 275.703782 
L 361.50912 275.46162 
L 361.86624 275.729063 
L 362.22336 276.685736 
L 362.58048 276.282576 
L 362.9376 276.547357 
L 363.29472 276.238668 
L 363.65184 276.470185 
L 364.00896 276.278584 
L 365.08032 276.322493 
L 365.43744 275.848813 
L 366.15168 276.480829 
L 366.5088 276.548688 
L 366.86592 275.659874 
L 367.22304 277.284488 
L 367.58016 276.162826 
L 367.93728 276.092306 
L 368.2944 276.161495 
L 368.65152 276.679083 
L 369.00864 276.057711 
L 369.36576 276.772222 
L 370.43712 276.33846 
L 370.79424 276.881328 
L 371.50848 276.67243 
L 372.22272 277.577211 
L 372.57984 276.265279 
L 372.93696 276.753594 
L 373.29408 276.923906 
L 373.6512 276.242659 
L 374.00832 277.023698 
L 374.36544 275.985861 
L 375.07968 276.9106 
L 375.4368 276.382368 
L 376.15104 276.032431 
L 376.50816 276.88665 
L 376.86528 276.69505 
L 377.2224 276.19742 
L 377.57952 276.358418 
L 378.29376 275.902036 
L 378.65088 275.979208 
L 379.008 275.303284 
L 379.36512 276.620538 
L 379.72224 276.400996 
L 380.07936 276.754925 
L 380.43648 275.327234 
L 381.15072 276.447565 
L 381.50784 276.281245 
L 381.86496 275.339209 
L 382.22208 276.399665 
L 382.5792 276.701702 
L 382.93632 276.67243 
L 383.29344 276.044406 
L 383.65056 275.798252 
L 384.00768 276.571308 
L 384.72192 275.658543 
L 385.07904 276.039084 
L 385.43616 277.201993 
L 386.50752 276.009811 
L 386.86464 276.137545 
L 387.57888 276.049728 
L 387.936 276.067025 
L 388.29312 276.229354 
L 388.65024 275.806236 
L 389.00736 276.165487 
L 389.36448 275.163575 
L 389.7216 276.185445 
L 390.43584 275.445654 
L 390.79296 275.424365 
L 391.15008 276.230684 
L 391.5072 276.052389 
L 391.86432 276.106942 
L 392.22144 275.815549 
L 392.57856 276.373054 
L 392.93568 275.9832 
L 393.2928 276.358418 
L 393.64992 276.378376 
L 394.36416 276.108273 
L 394.72128 276.660455 
L 395.0784 276.691058 
L 395.43552 277.233926 
L 395.79264 277.382949 
L 396.14976 277.17006 
L 396.50688 277.167398 
L 396.864 277.71692 
L 397.22112 277.292471 
L 397.57824 277.613136 
L 398.29248 276.836089 
L 398.6496 277.335049 
L 399.00672 277.24191 
L 399.36384 277.019706 
L 399.72096 276.599249 
L 400.79232 277.112845 
L 401.14944 276.982451 
L 401.50656 277.257876 
L 401.86368 276.985112 
L 402.2208 277.120829 
L 402.57792 276.865361 
L 402.93504 277.388271 
L 404.0064 277.054301 
L 404.36352 276.850725 
L 404.72064 277.295132 
L 405.07776 276.591266 
L 405.792 277.438833 
L 406.14912 276.990434 
L 406.50624 277.014384 
L 406.86336 277.377627 
L 407.22048 276.705694 
L 407.5776 277.223282 
L 407.93472 277.412221 
L 408.64896 276.848064 
L 409.00608 277.358999 
L 409.3632 276.460871 
L 409.72032 277.178043 
L 410.07744 276.785528 
L 410.79168 277.203324 
L 411.1488 276.342451 
L 411.50592 277.26586 
L 411.86304 277.034342 
L 412.22016 277.055631 
L 412.57728 276.785528 
L 412.9344 276.776214 
L 413.29152 277.365652 
L 413.64864 276.760247 
L 414.00576 277.12349 
L 414.36288 276.657794 
L 414.72 276.664447 
L 414.72 276.664447 
" style="fill:none;stroke:#1f77b4;stroke-linecap:square;stroke-width:1.2;"/>
   </g>
   <g id="patch_3">
    <path d="M 57.6 307.584 
L 57.6 41.472 
" style="fill:none;stroke:#000000;stroke-linecap:square;stroke-linejoin:miter;"/>
   </g>
   <g id="patch_4">
    <path d="M 414.72 307.584 
L 414.72 41.472 
" style="fill:none;stroke:#000000;stroke-linecap:square;stroke-linejoin:miter;"/>
   </g>
   <g id="patch_5">
    <path d="M 57.6 307.584 
L 414.72 307.584 
" style="fill:none;stroke:#000000;stroke-linecap:square;stroke-linejoin:miter;"/>
   </g>
   <g id="patch_6">
    <path d="M 57.6 41.472 
L 414.72 41.472 
" style="fill:none;stroke:#000000;stroke-linecap:square;stroke-linejoin:miter;"/>
   </g>
   <g id="text_15">
    <!-- Training - PEPG - Cartpole -->
    <g transform="translate(174.6975 35.472)scale(0.096 -0.096)">
     <defs>
      <path d="M 3513 2113 
L 3513 0 
L 2938 0 
L 2938 2094 
Q 2938 2591 2744 2837 
Q 2550 3084 2163 3084 
Q 1697 3084 1428 2787 
Q 1159 2491 1159 1978 
L 1159 0 
L 581 0 
L 581 3500 
L 1159 3500 
L 1159 2956 
Q 1366 3272 1645 3428 
Q 1925 3584 2291 3584 
Q 2894 3584 3203 3211 
Q 3513 2838 3513 2113 
z
" id="DejaVuSans-6e" transform="scale(0.015625)"/>
      <path d="M 2906 1791 
Q 2906 2416 2648 2759 
Q 2391 3103 1925 3103 
Q 1463 3103 1205 2759 
Q 947 2416 947 1791 
Q 947 1169 1205 825 
Q 1463 481 1925 481 
Q 2391 481 2648 825 
Q 2906 1169 2906 1791 
z
M 3481 434 
Q 3481 -459 3084 -895 
Q 2688 -1331 1869 -1331 
Q 1566 -1331 1297 -1286 
Q 1028 -1241 775 -1147 
L 775 -588 
Q 1028 -725 1275 -790 
Q 1522 -856 1778 -856 
Q 2344 -856 2625 -561 
Q 2906 -266 2906 331 
L 2906 616 
Q 2728 306 2450 153 
Q 2172 0 1784 0 
Q 1141 0 747 490 
Q 353 981 353 1791 
Q 353 2603 747 3093 
Q 1141 3584 1784 3584 
Q 2172 3584 2450 3431 
Q 2728 3278 2906 2969 
L 2906 3500 
L 3481 3500 
L 3481 434 
z
" id="DejaVuSans-67" transform="scale(0.015625)"/>
      <path id="DejaVuSans-20" transform="scale(0.015625)"/>
      <path d="M 313 2009 
L 1997 2009 
L 1997 1497 
L 313 1497 
L 313 2009 
z
" id="DejaVuSans-2d" transform="scale(0.015625)"/>
      <path d="M 1259 4147 
L 1259 2394 
L 2053 2394 
Q 2494 2394 2734 2622 
Q 2975 2850 2975 3272 
Q 2975 3691 2734 3919 
Q 2494 4147 2053 4147 
L 1259 4147 
z
M 628 4666 
L 2053 4666 
Q 2838 4666 3239 4311 
Q 3641 3956 3641 3272 
Q 3641 2581 3239 2228 
Q 2838 1875 2053 1875 
L 1259 1875 
L 1259 0 
L 628 0 
L 628 4666 
z
" id="DejaVuSans-50" transform="scale(0.015625)"/>
      <path d="M 628 4666 
L 3578 4666 
L 3578 4134 
L 1259 4134 
L 1259 2753 
L 3481 2753 
L 3481 2222 
L 1259 2222 
L 1259 531 
L 3634 531 
L 3634 0 
L 628 0 
L 628 4666 
z
" id="DejaVuSans-45" transform="scale(0.015625)"/>
      <path d="M 3809 666 
L 3809 1919 
L 2778 1919 
L 2778 2438 
L 4434 2438 
L 4434 434 
Q 4069 175 3628 42 
Q 3188 -91 2688 -91 
Q 1594 -91 976 548 
Q 359 1188 359 2328 
Q 359 3472 976 4111 
Q 1594 4750 2688 4750 
Q 3144 4750 3555 4637 
Q 3966 4525 4313 4306 
L 4313 3634 
Q 3963 3931 3569 4081 
Q 3175 4231 2741 4231 
Q 1884 4231 1454 3753 
Q 1025 3275 1025 2328 
Q 1025 1384 1454 906 
Q 1884 428 2741 428 
Q 3075 428 3337 486 
Q 3600 544 3809 666 
z
" id="DejaVuSans-47" transform="scale(0.015625)"/>
      <path d="M 4122 4306 
L 4122 3641 
Q 3803 3938 3442 4084 
Q 3081 4231 2675 4231 
Q 1875 4231 1450 3742 
Q 1025 3253 1025 2328 
Q 1025 1406 1450 917 
Q 1875 428 2675 428 
Q 3081 428 3442 575 
Q 3803 722 4122 1019 
L 4122 359 
Q 3791 134 3420 21 
Q 3050 -91 2638 -91 
Q 1578 -91 968 557 
Q 359 1206 359 2328 
Q 359 3453 968 4101 
Q 1578 4750 2638 4750 
Q 3056 4750 3426 4639 
Q 3797 4528 4122 4306 
z
" id="DejaVuSans-43" transform="scale(0.015625)"/>
      <path d="M 1959 3097 
Q 1497 3097 1228 2736 
Q 959 2375 959 1747 
Q 959 1119 1226 758 
Q 1494 397 1959 397 
Q 2419 397 2687 759 
Q 2956 1122 2956 1747 
Q 2956 2369 2687 2733 
Q 2419 3097 1959 3097 
z
M 1959 3584 
Q 2709 3584 3137 3096 
Q 3566 2609 3566 1747 
Q 3566 888 3137 398 
Q 2709 -91 1959 -91 
Q 1206 -91 779 398 
Q 353 888 353 1747 
Q 353 2609 779 3096 
Q 1206 3584 1959 3584 
z
" id="DejaVuSans-6f" transform="scale(0.015625)"/>
      <path d="M 603 4863 
L 1178 4863 
L 1178 0 
L 603 0 
L 603 4863 
z
" id="DejaVuSans-6c" transform="scale(0.015625)"/>
     </defs>
     <use xlink:href="#DejaVuSans-54"/>
     <use x="46.333984" xlink:href="#DejaVuSans-72"/>
     <use x="87.447266" xlink:href="#DejaVuSans-61"/>
     <use x="148.726562" xlink:href="#DejaVuSans-69"/>
     <use x="176.509766" xlink:href="#DejaVuSans-6e"/>
     <use x="239.888672" xlink:href="#DejaVuSans-69"/>
     <use x="267.671875" xlink:href="#DejaVuSans-6e"/>
     <use x="331.050781" xlink:href="#DejaVuSans-67"/>
     <use x="394.527344" xlink:href="#DejaVuSans-20"/>
     <use x="426.314453" xlink:href="#DejaVuSans-2d"/>
     <use x="462.398438" xlink:href="#DejaVuSans-20"/>
     <use x="494.185547" xlink:href="#DejaVuSans-50"/>
     <use x="554.488281" xlink:href="#DejaVuSans-45"/>
     <use x="617.671875" xlink:href="#DejaVuSans-50"/>
     <use x="677.974609" xlink:href="#DejaVuSans-47"/>
     <use x="755.464844" xlink:href="#DejaVuSans-20"/>
     <use x="787.251953" xlink:href="#DejaVuSans-2d"/>
     <use x="823.335938" xlink:href="#DejaVuSans-20"/>
     <use x="855.123047" xlink:href="#DejaVuSans-43"/>
     <use x="924.947266" xlink:href="#DejaVuSans-61"/>
     <use x="986.226562" xlink:href="#DejaVuSans-72"/>
     <use x="1027.339844" xlink:href="#DejaVuSans-74"/>
     <use x="1066.548828" xlink:href="#DejaVuSans-70"/>
     <use x="1130.025391" xlink:href="#DejaVuSans-6f"/>
     <use x="1191.207031" xlink:href="#DejaVuSans-6c"/>
     <use x="1218.990234" xlink:href="#DejaVuSans-65"/>
    </g>
   </g>
  </g>
 </g>
 <defs>
  <clipPath id="p8622676030">
   <rect height="266.112" width="357.12" x="57.6" y="41.472"/>
  </clipPath>
 </defs>
</svg>
