<?xml version="1.0" encoding="utf-8" standalone="no"?>
<!DOCTYPE svg PUBLIC "-//W3C//DTD SVG 1.1//EN"
  "http://www.w3.org/Graphics/SVG/1.1/DTD/svg11.dtd">
<svg height="345.6pt" version="1.1" viewBox="0 0 460.8 345.6" width="460.8pt" xmlns="http://www.w3.org/2000/svg" xmlns:xlink="http://www.w3.org/1999/xlink">
 <metadata>
  <rdf:RDF xmlns:cc="http://creativecommons.org/ns#" xmlns:dc="http://purl.org/dc/elements/1.1/" xmlns:rdf="http://www.w3.org/1999/02/22-rdf-syntax-ns#">
   <cc:Work>
    <dc:type rdf:resource="http://purl.org/dc/dcmitype/StillImage"/>
    <dc:date>2021-07-22T19:44:37.607734</dc:date>
    <dc:format>image/svg+xml</dc:format>
    <dc:creator>
     <cc:Agent>
      <dc:title>Matplotlib v3.4.2, https://matplotlib.org/</dc:title>
     </cc:Agent>
    </dc:creator>
   </cc:Work>
  </rdf:RDF>
 </metadata>
 <defs>
  <style type="text/css">*{stroke-linecap:butt;stroke-linejoin:round;}</style>
 </defs>
 <g id="figure_1">
  <g id="patch_1">
   <path d="M 0 345.6 
L 460.8 345.6 
L 460.8 0 
L 0 0 
z
" style="fill:#ffffff;"/>
  </g>
  <g id="axes_1">
   <g id="patch_2">
    <path d="M 57.6 307.584 
L 414.72 307.584 
L 414.72 41.472 
L 57.6 41.472 
z
" style="fill:#ffffff;"/>
   </g>
   <g id="PolyCollection_1">
    <path clip-path="url(#p69d0690dcb)" d="M 57.9968 304.149159 
L 57.9968 305.95739 
L 58.3936 305.753149 
L 58.7904 305.995977 
L 59.1872 306.675228 
L 59.584 304.288868 
L 59.9808 306.279386 
L 60.3776 304.905583 
L 60.7744 304.448535 
L 61.1712 306.544167 
L 61.568 306.659926 
L 61.9648 306.666579 
L 62.3616 303.957559 
L 62.7584 305.582172 
L 63.1552 304.720635 
L 63.552 306.46633 
L 63.9488 305.471736 
L 64.3456 305.455104 
L 64.7424 306.648616 
L 65.1392 305.033982 
L 65.536 306.284043 
L 65.9328 305.681964 
L 66.3296 305.801715 
L 66.7264 304.391321 
L 67.1232 305.342672 
L 67.52 305.62475 
L 67.9168 305.605457 
L 68.3136 305.674646 
L 68.7104 305.836309 
L 69.1072 305.705249 
L 69.504 305.887536 
L 69.9008 305.546913 
L 70.2976 305.022007 
L 70.6944 305.376601 
L 71.0912 305.643378 
L 71.488 305.755811 
L 71.8848 306.148991 
L 72.2816 305.894854 
L 72.6784 306.113731 
L 73.0752 305.769116 
L 73.472 303.14126 
L 73.8688 303.404711 
L 74.2656 306.01527 
L 74.6624 305.731195 
L 75.0592 306.05186 
L 75.456 305.23157 
L 75.8528 305.273483 
L 76.2496 306.224168 
L 76.6464 306.335935 
L 77.0432 306.637307 
L 77.44 305.727869 
L 77.8368 305.709906 
L 78.2336 305.920135 
L 78.6304 305.79107 
L 79.0272 305.218264 
L 79.424 305.638721 
L 79.8208 305.936101 
L 80.2176 306.134355 
L 80.6144 305.875561 
L 81.0112 306.363211 
L 81.408 305.913482 
L 81.8048 306.14766 
L 82.2016 305.814355 
L 82.5984 305.123129 
L 82.9952 303.752652 
L 83.392 306.110405 
L 83.7888 304.231654 
L 84.1856 305.834314 
L 84.5824 305.185666 
L 84.9792 305.928118 
L 85.376 305.033982 
L 85.7728 305.753149 
L 86.1696 305.775104 
L 86.5664 305.946081 
L 86.9632 305.417848 
L 87.36 306.148326 
L 87.7568 305.813025 
L 88.1536 306.506912 
L 88.5504 305.975353 
L 88.9472 305.988659 
L 89.344 304.988743 
L 89.7408 305.934771 
L 90.1376 305.811029 
L 90.5344 305.906829 
L 90.9312 305.983336 
L 91.328 305.516975 
L 91.7248 305.864251 
L 92.1216 305.758472 
L 92.5184 306.250114 
L 92.9152 305.583503 
L 93.312 306.296018 
L 93.7088 305.471736 
L 94.1056 305.486372 
L 94.5024 306.261423 
L 94.8992 305.184335 
L 95.296 305.37527 
L 95.6928 306.073814 
L 96.0896 306.187577 
L 96.4864 305.876892 
L 96.8832 305.664002 
L 97.28 305.801715 
L 97.6768 306.174937 
L 98.0736 303.344836 
L 98.4704 305.793066 
L 98.8672 302.860512 
L 99.264 305.087869 
L 99.6608 305.783087 
L 100.0576 306.132359 
L 100.4544 306.173606 
L 100.8512 305.708576 
L 101.248 305.753815 
L 101.6448 305.838305 
L 102.0416 306.415768 
L 102.4384 304.930198 
L 102.8352 305.313399 
L 103.232 306.240134 
L 103.6288 305.964043 
L 104.0256 305.963378 
L 104.4224 306.159636 
L 104.8192 305.930114 
L 105.216 306.355228 
L 105.6128 306.272733 
L 106.0096 306.115727 
L 106.4064 306.021257 
L 106.8032 305.687952 
L 107.2 305.27947 
L 107.5968 306.067827 
L 107.9936 305.883544 
L 108.3904 306.069823 
L 108.7872 300.635816 
L 109.184 306.061174 
L 109.5808 306.07448 
L 109.9776 305.167038 
L 110.3744 306.002629 
L 110.7712 306.113066 
L 111.168 306.041216 
L 111.5648 306.114396 
L 111.9616 305.953399 
L 112.3584 305.407869 
L 112.7552 305.916143 
L 113.152 305.779761 
L 113.5488 306.104417 
L 113.9456 305.840966 
L 114.3424 305.550239 
L 114.7392 303.735355 
L 115.136 303.728702 
L 115.5328 305.80105 
L 115.9296 305.918139 
L 116.3264 305.852941 
L 116.7232 305.846289 
L 117.12 306.311319 
L 117.5168 305.93344 
L 117.9136 305.446455 
L 118.3104 305.826996 
L 118.7072 303.236395 
L 119.104 305.330697 
L 119.5008 304.271571 
L 119.8976 306.023918 
L 120.2944 305.775104 
L 120.6912 305.76579 
L 121.088 305.894854 
L 121.4848 298.550828 
L 121.8816 300.527375 
L 122.2784 306.091112 
L 122.6752 305.150406 
L 123.072 304.79182 
L 123.4688 304.276228 
L 123.8656 306.155644 
L 124.2624 305.914147 
L 124.6592 305.30209 
L 125.056 306.065831 
L 125.4528 306.186247 
L 125.8496 305.918139 
L 126.2464 305.419179 
L 126.6432 302.924379 
L 127.04 305.702588 
L 127.4368 305.68263 
L 127.8336 305.404543 
L 128.2304 306.20554 
L 128.6272 305.728534 
L 129.024 306.126372 
L 129.4208 305.985997 
L 129.8176 306.131694 
L 130.2144 304.936186 
L 130.6112 305.65868 
L 131.008 305.459096 
L 131.4048 306.224833 
L 131.8016 305.413191 
L 132.1984 306.23082 
L 132.5952 305.655353 
L 132.992 306.232151 
L 133.3888 305.808368 
L 133.7856 306.246122 
L 134.1824 306.138347 
L 134.5792 303.978848 
L 134.976 305.774438 
L 135.3728 305.81502 
L 135.7696 305.789075 
L 136.1664 305.83764 
L 136.5632 306.222837 
L 136.96 305.913482 
L 137.3568 306.160301 
L 137.7536 305.904168 
L 138.1504 306.353897 
L 138.5472 304.457184 
L 138.944 304.01943 
L 139.3408 306.00396 
L 139.7376 306.183586 
L 140.1344 306.13369 
L 140.5312 305.934771 
L 140.928 305.965374 
L 141.3248 306.037889 
L 141.7216 306.000634 
L 142.1184 306.090446 
L 142.5152 305.820343 
L 142.912 306.097099 
L 143.3088 305.611445 
L 143.7056 306.06317 
L 144.1024 305.664667 
L 144.4992 305.983336 
L 144.896 306.237473 
L 145.2928 306.036559 
L 145.6896 305.887536 
L 146.0864 306.217515 
L 146.4832 305.117142 
L 146.88 306.182255 
L 147.2768 306.292026 
L 147.6736 306.137681 
L 148.0704 305.047953 
L 148.4672 305.332027 
L 148.864 306.053191 
L 149.2608 305.888201 
L 149.6576 305.99132 
L 150.0544 305.459761 
L 150.4512 306.154313 
L 150.848 305.510988 
L 151.2448 305.915478 
L 151.6416 306.136351 
L 152.0384 305.785083 
L 152.4352 305.904168 
L 152.832 305.707245 
L 153.2288 305.740509 
L 153.6256 305.93211 
L 154.0224 304.266249 
L 154.4192 306.256101 
L 154.816 306.202879 
L 155.2128 305.951403 
L 155.6096 305.49369 
L 156.0064 304.972776 
L 156.4032 305.794397 
L 156.8 306.079802 
L 157.1968 305.024003 
L 157.5936 305.984667 
L 157.9904 306.05186 
L 158.3872 306.101756 
L 158.784 302.440055 
L 159.1808 305.989324 
L 159.5776 306.02791 
L 159.9744 305.994646 
L 160.3712 306.118388 
L 160.768 305.999968 
L 161.1648 304.244294 
L 161.5616 306.101091 
L 161.9584 303.834482 
L 162.3552 306.069157 
L 162.752 304.419928 
L 163.1488 305.930779 
L 163.5456 306.148326 
L 163.9424 306.081132 
L 164.3392 306.0645 
L 164.736 305.6487 
L 165.1328 306.202879 
L 165.5296 306.025914 
L 165.9264 306.019261 
L 166.3232 306.06317 
L 166.72 306.2408 
L 167.1168 306.01527 
L 167.5136 304.202382 
L 167.9104 305.659345 
L 168.3072 304.24496 
L 168.704 306.221507 
L 169.1008 301.835981 
L 169.4976 306.0645 
L 169.8944 306.115062 
L 170.2912 305.9687 
L 170.688 306.044542 
L 171.0848 305.823004 
L 171.4816 304.12787 
L 171.8784 306.214188 
L 172.2752 305.786413 
L 172.672 305.931444 
L 173.0688 306.156974 
L 173.4656 306.094438 
L 173.8624 305.930779 
L 174.2592 306.091777 
L 174.656 306.085124 
L 175.0528 305.753815 
L 175.4496 306.143669 
L 175.8464 305.811029 
L 176.2432 304.21103 
L 176.64 303.357476 
L 177.0368 305.777765 
L 177.4336 305.964708 
L 177.8304 304.546332 
L 178.2272 305.927453 
L 178.624 306.072484 
L 179.0208 303.431988 
L 179.4176 305.978014 
L 179.8144 305.705249 
L 180.2112 306.184916 
L 180.608 306.059844 
L 181.0048 306.49161 
L 181.4016 306.073814 
L 181.7984 306.264084 
L 182.1952 305.509657 
L 182.592 305.675312 
L 182.9888 306.116392 
L 183.3856 306.321299 
L 183.7824 305.878887 
L 184.1792 305.918804 
L 184.576 306.211527 
L 184.9728 306.035893 
L 185.3696 306.182255 
L 185.7664 306.313315 
L 186.1632 306.071819 
L 186.56 306.055852 
L 186.9568 305.757806 
L 187.3536 305.950072 
L 187.7504 306.234812 
L 188.1472 305.584168 
L 188.544 306.134355 
L 188.9408 303.932943 
L 189.3376 306.348575 
L 189.7344 305.828991 
L 190.1312 305.846954 
L 190.528 305.348659 
L 190.9248 306.069823 
L 191.3216 305.681964 
L 191.7184 306.202879 
L 192.1152 306.274064 
L 192.512 306.093773 
L 192.9088 306.176268 
L 193.3056 305.977349 
L 193.7024 306.131028 
L 194.0992 306.073149 
L 194.496 306.265415 
L 194.8928 306.031902 
L 195.2896 306.468991 
L 195.6864 305.56421 
L 196.0832 304.497101 
L 196.48 306.233482 
L 196.8768 305.132443 
L 197.2736 306.012609 
L 197.6704 305.63606 
L 198.0672 306.274064 
L 198.464 305.464418 
L 198.8608 306.119719 
L 199.2576 305.768451 
L 199.6544 305.948076 
L 200.0512 305.968035 
L 200.448 306.038555 
L 200.8448 305.906829 
L 201.2416 306.330612 
L 201.6384 305.485707 
L 202.0352 306.20687 
L 202.432 306.389822 
L 202.8288 306.329947 
L 203.2256 305.934771 
L 203.6224 304.754564 
L 204.0192 305.886871 
L 204.416 306.218845 
L 204.8128 306.030571 
L 205.2096 305.556892 
L 205.6064 306.153648 
L 206.0032 302.845211 
L 206.4 305.415852 
L 206.7968 305.530946 
L 207.1936 306.162297 
L 207.5904 306.18159 
L 207.9872 303.88837 
L 208.384 306.13369 
L 208.7808 306.047203 
L 209.1776 306.248118 
L 209.5744 306.091112 
L 209.9712 304.48446 
L 210.368 306.09843 
L 210.7648 305.431154 
L 211.1616 302.334276 
L 211.5584 305.751154 
L 211.9552 305.960052 
L 212.352 306.033898 
L 212.7488 306.113066 
L 213.1456 303.036811 
L 213.5424 306.065166 
L 213.9392 306.068492 
L 214.336 299.812199 
L 214.7328 304.889616 
L 215.1296 306.105083 
L 215.5264 304.764543 
L 215.9232 305.357308 
L 216.32 305.457765 
L 216.7168 305.378597 
L 217.1136 305.880218 
L 217.5104 305.870904 
L 217.9072 305.686621 
L 218.304 303.388079 
L 218.7008 305.059262 
L 219.0976 305.852941 
L 219.4944 305.825 
L 219.8912 305.718555 
L 220.288 302.636978 
L 220.6848 305.777765 
L 221.0816 305.94475 
L 221.4784 304.576934 
L 221.8752 304.012112 
L 222.272 306.047868 
L 222.6688 306.043212 
L 223.0656 305.808368 
L 223.4624 305.803045 
L 223.8592 306.40845 
L 224.256 305.898846 
L 224.6528 305.395229 
L 225.0496 306.041881 
L 225.4464 305.965374 
L 225.8432 305.912817 
L 226.24 306.107078 
L 226.6368 305.85028 
L 227.0336 302.926375 
L 227.4304 305.215603 
L 227.8272 305.919469 
L 228.224 306.231486 
L 228.6208 306.13369 
L 229.0176 305.949407 
L 229.4144 305.937432 
L 229.8112 305.941424 
L 230.208 305.335354 
L 230.6048 306.097764 
L 231.0016 305.785083 
L 231.3984 306.156309 
L 231.7952 305.364626 
L 232.192 305.93211 
L 232.5888 306.443045 
L 232.9856 305.494356 
L 233.3824 306.145665 
L 233.7792 305.289449 
L 234.176 306.127037 
L 234.5728 305.924792 
L 234.9696 306.138347 
L 235.3664 305.947411 
L 235.7632 305.641382 
L 236.16 305.966704 
L 236.5568 306.057182 
L 236.9536 306.023918 
L 237.3504 306.073149 
L 237.7472 305.906164 
L 238.144 305.991985 
L 238.5408 305.952733 
L 238.9376 305.59947 
L 239.3344 304.957475 
L 239.7312 305.556892 
L 240.128 304.276228 
L 240.5248 305.986663 
L 240.9216 305.678638 
L 241.3184 306.212858 
L 241.7152 305.990654 
L 242.112 304.913566 
L 242.5088 306.218845 
L 242.9056 305.678638 
L 243.3024 305.857598 
L 243.6992 306.017266 
L 244.096 305.715228 
L 244.4928 306.13502 
L 244.8896 305.74184 
L 245.2864 306.222837 
L 245.6832 305.733856 
L 246.08 305.934106 
L 246.4768 306.182255 
L 246.8736 306.057848 
L 247.2704 305.524293 
L 247.6672 306.272068 
L 248.064 303.869076 
L 248.4608 305.999303 
L 248.8576 306.062505 
L 249.2544 303.827829 
L 249.6512 305.475728 
L 250.048 304.248286 
L 250.4448 305.777765 
L 250.8416 305.844958 
L 251.2384 306.029906 
L 251.6352 303.463256 
L 252.032 306.184251 
L 252.4288 305.926122 
L 252.8256 306.120384 
L 253.2224 300.951158 
L 253.6192 303.730698 
L 254.016 305.845623 
L 254.4128 305.033316 
L 254.8096 306.088451 
L 255.2064 305.228909 
L 255.6032 305.910821 
L 256 306.023253 
L 256.3968 305.840966 
L 256.7936 305.424501 
L 257.1904 305.817016 
L 257.5872 306.019261 
L 257.984 305.679969 
L 258.3808 305.471736 
L 258.7776 306.084459 
L 259.1744 306.089116 
L 259.5712 306.013274 
L 259.968 305.196975 
L 260.3648 305.780426 
L 260.7616 305.555561 
L 261.1584 305.938097 
L 261.5552 305.95739 
L 261.952 305.940093 
L 262.3488 306.011943 
L 262.7456 306.123045 
L 263.1424 306.068492 
L 263.5392 306.077806 
L 263.936 305.545582 
L 264.3328 303.740012 
L 264.7296 302.684878 
L 265.1264 306.0166 
L 265.5232 305.877557 
L 265.92 305.491694 
L 266.3168 298.854196 
L 266.7136 306.086455 
L 267.1104 305.755145 
L 267.5072 306.018596 
L 267.904 305.389907 
L 268.3008 305.557557 
L 268.6976 304.658764 
L 269.0944 305.791736 
L 269.4912 306.183586 
L 269.888 305.740509 
L 270.2848 303.400054 
L 270.6816 305.751154 
L 271.0784 303.509825 
L 271.4752 306.020592 
L 271.872 305.934771 
L 272.2688 302.672903 
L 272.6656 305.85028 
L 273.0624 305.300094 
L 273.4592 305.995311 
L 273.856 306.117723 
L 274.2528 303.571031 
L 274.6496 306.121049 
L 275.0464 305.753815 
L 275.4432 305.783752 
L 275.84 305.895519 
L 276.2368 306.006621 
L 276.6336 305.272152 
L 277.0304 306.010613 
L 277.4272 305.705915 
L 277.824 305.56421 
L 278.2208 306.003295 
L 278.6176 305.952068 
L 279.0144 305.941424 
L 279.4112 305.940093 
L 279.808 305.723212 
L 280.2048 306.059844 
L 280.6016 305.807702 
L 280.9984 306.03922 
L 281.3952 305.11315 
L 281.792 306.071153 
L 282.1888 305.687952 
L 282.5856 305.554896 
L 282.9824 305.237557 
L 283.3792 306.086455 
L 283.776 305.912151 
L 284.1728 305.656019 
L 284.5696 299.450952 
L 284.9664 305.677308 
L 285.3632 306.403128 
L 285.76 304.11523 
L 286.1568 305.912817 
L 286.5536 306.053191 
L 286.9504 304.806456 
L 287.3472 305.725208 
L 287.744 306.002629 
L 288.1408 306.084459 
L 288.5376 305.648035 
L 288.9344 306.142338 
L 289.3312 305.270821 
L 289.728 305.877557 
L 290.1248 305.671985 
L 290.5216 305.989324 
L 290.9184 305.769781 
L 291.3152 306.250114 
L 291.712 306.007952 
L 292.1088 305.718555 
L 292.5056 302.235814 
L 292.9024 306.053856 
L 293.2992 301.752821 
L 293.696 306.095769 
L 294.0928 305.758472 
L 294.4896 305.904833 
L 294.8864 305.30342 
L 295.2832 305.698596 
L 295.68 305.297433 
L 296.0768 305.927453 
L 296.4736 306.03922 
L 296.8704 306.041881 
L 297.2672 306.343253 
L 297.664 306.220841 
L 298.0608 305.919469 
L 298.4576 305.485042 
L 298.8544 305.999968 
L 299.2512 305.972692 
L 299.648 306.116392 
L 300.0448 303.054108 
L 300.4416 306.390488 
L 300.8384 303.934939 
L 301.2352 306.302671 
L 301.632 304.203712 
L 302.0288 304.370032 
L 302.4256 305.843628 
L 302.8224 306.164292 
L 303.2192 305.894189 
L 303.616 305.16105 
L 304.0128 303.441967 
L 304.4096 305.753815 
L 304.8064 305.94342 
L 305.2032 306.003295 
L 305.6 306.067827 
L 305.9968 305.698596 
L 306.3936 305.760468 
L 306.7904 304.916227 
L 307.1872 305.495021 
L 307.584 305.862255 
L 307.9808 306.014604 
L 308.3776 305.683295 
L 308.7744 305.794397 
L 309.1712 306.021923 
L 309.568 305.381923 
L 309.9648 305.970031 
L 310.3616 306.027245 
L 310.7584 305.455104 
L 311.1552 306.214854 
L 311.552 305.344668 
L 311.9488 305.569532 
L 312.3456 305.429823 
L 312.7424 305.773773 
L 313.1392 306.244126 
L 313.536 305.725208 
L 313.9328 306.351236 
L 314.3296 304.962797 
L 314.7264 305.794397 
L 315.1232 306.009948 
L 315.52 303.990823 
L 315.9168 305.840966 
L 316.3136 306.265415 
L 316.7104 305.993316 
L 317.1072 305.812359 
L 317.504 305.932775 
L 317.9008 300.831408 
L 318.2976 304.296186 
L 318.6944 305.69394 
L 319.0912 305.77843 
L 319.488 305.882879 
L 319.8848 306.353232 
L 320.2816 303.90234 
L 320.6784 305.580842 
L 321.0752 305.886871 
L 321.472 306.176933 
L 321.8688 306.106413 
L 322.2656 305.512983 
L 322.6624 301.718892 
L 323.0592 306.138347 
L 323.456 305.942089 
L 323.8528 298.394487 
L 324.2496 306.079802 
L 324.6464 305.744501 
L 325.0432 306.018596 
L 325.44 306.47897 
L 325.8368 305.667994 
L 326.2336 305.954064 
L 326.6304 305.635395 
L 327.0272 306.134355 
L 327.424 305.663337 
L 327.8208 305.758472 
L 328.2176 303.118641 
L 328.6144 304.667412 
L 329.0112 306.219511 
L 329.408 304.455853 
L 329.8048 305.990654 
L 330.2016 305.397225 
L 330.5984 306.062505 
L 330.9952 305.76712 
L 331.392 305.751154 
L 331.7888 305.745831 
L 332.1856 306.109074 
L 332.5824 305.515644 
L 332.9792 304.870988 
L 333.376 305.638056 
L 333.7728 305.379262 
L 334.1696 305.573524 
L 334.5664 304.546332 
L 334.9632 306.057848 
L 335.36 296.745924 
L 335.7568 305.150406 
L 336.1536 306.023253 
L 336.5504 305.871569 
L 336.9472 305.994646 
L 337.344 305.700592 
L 337.7408 305.797058 
L 338.1376 306.127702 
L 338.5344 303.773941 
L 338.9312 303.799887 
L 339.328 305.717224 
L 339.7248 305.904833 
L 340.1216 305.900176 
L 340.5184 306.036559 
L 340.9152 305.715228 
L 341.312 306.162297 
L 341.7088 304.313484 
L 342.1056 305.947411 
L 342.5024 305.972027 
L 342.8992 305.714563 
L 343.296 305.980675 
L 343.6928 306.391153 
L 344.0896 306.042546 
L 344.4864 304.827745 
L 344.8832 306.232151 
L 345.28 306.001299 
L 345.6768 306.048534 
L 346.0736 305.781756 
L 346.4704 305.562214 
L 346.8672 304.342756 
L 347.264 303.451946 
L 347.6608 304.38866 
L 348.0576 305.61078 
L 348.4544 303.968868 
L 348.8512 306.141008 
L 349.248 305.320717 
L 349.6448 306.088451 
L 350.0416 305.326705 
L 350.4384 305.832983 
L 350.8352 305.977349 
L 351.232 305.179013 
L 351.6288 305.439137 
L 352.0256 305.854272 
L 352.4224 305.129782 
L 352.8192 305.959386 
L 353.216 303.941592 
L 353.6128 305.360634 
L 354.0096 305.762463 
L 354.4064 303.278308 
L 354.8032 305.904168 
L 355.2 300.235982 
L 355.5968 306.013939 
L 355.9936 306.080467 
L 356.3904 305.874896 
L 356.7872 305.093192 
L 357.184 305.818347 
L 357.5808 305.677973 
L 357.9776 305.959386 
L 358.3744 305.095188 
L 358.7712 305.078556 
L 359.168 304.328785 
L 359.5648 305.67132 
L 359.9616 305.450447 
L 360.3584 305.745831 
L 360.7552 305.879553 
L 361.152 305.380593 
L 361.5488 305.378597 
L 361.9456 305.406539 
L 362.3424 305.925457 
L 362.7392 305.907494 
L 363.136 305.926788 
L 363.5328 305.74184 
L 363.9296 305.097183 
L 364.3264 305.139096 
L 364.7232 300.953154 
L 365.12 305.324709 
L 365.5168 305.763794 
L 365.9136 305.695935 
L 366.3104 305.809033 
L 366.7072 304.059347 
L 367.104 306.079802 
L 367.5008 305.11315 
L 367.8976 305.749823 
L 368.2944 303.254358 
L 368.6912 302.354234 
L 369.088 305.95739 
L 369.4848 306.221507 
L 369.8816 305.971361 
L 370.2784 306.086455 
L 370.6752 302.336937 
L 371.072 305.958056 
L 371.4688 306.088451 
L 371.8656 302.649618 
L 372.2624 305.194314 
L 372.6592 305.783752 
L 373.056 303.185169 
L 373.4528 305.82633 
L 373.8496 305.731195 
L 374.2464 306.106413 
L 374.6432 305.737183 
L 375.04 305.147079 
L 375.4368 306.17028 
L 375.8336 300.974443 
L 376.2304 306.439053 
L 376.6272 306.008617 
L 377.024 306.216184 
L 377.4208 305.643378 
L 377.8176 305.74317 
L 378.2144 303.440636 
L 378.6112 305.642713 
L 379.008 305.850946 
L 379.4048 305.566206 
L 379.8016 306.105083 
L 380.1984 306.029906 
L 380.5952 305.382588 
L 380.992 304.550323 
L 381.3888 305.573524 
L 381.7856 305.972692 
L 382.1824 305.687287 
L 382.5792 306.192234 
L 382.976 305.705249 
L 383.3728 306.107744 
L 383.7696 303.302258 
L 384.1664 305.750488 
L 384.5632 305.715894 
L 384.96 303.052778 
L 385.3568 304.417932 
L 385.7536 305.94342 
L 386.1504 305.586829 
L 386.5472 305.151071 
L 386.944 305.366622 
L 387.3408 304.267579 
L 387.7376 305.594813 
L 388.1344 306.037224 
L 388.5312 306.267411 
L 388.928 305.548908 
L 389.3248 304.499097 
L 389.7216 306.18159 
L 390.1184 305.745831 
L 390.5152 305.799054 
L 390.912 306.322629 
L 391.3088 305.598804 
L 391.7056 306.164958 
L 392.1024 305.910821 
L 392.4992 305.713233 
L 392.896 305.977349 
L 393.2928 306.005956 
L 393.6896 304.513733 
L 394.0864 304.415937 
L 394.4832 305.522963 
L 394.88 305.74317 
L 395.2768 305.961382 
L 395.6736 305.375936 
L 396.0704 305.948742 
L 396.4672 306.138347 
L 396.864 304.552319 
L 397.2608 305.574189 
L 397.6576 303.875729 
L 398.0544 306.054521 
L 398.4512 306.252775 
L 398.848 306.230155 
L 399.2448 305.099844 
L 399.6416 304.082631 
L 400.0384 305.974022 
L 400.4352 304.04338 
L 400.832 306.169615 
L 401.2288 303.94758 
L 401.6256 305.95606 
L 402.0224 306.034563 
L 402.4192 306.319968 
L 402.816 304.256935 
L 403.2128 306.104417 
L 403.6096 305.426497 
L 404.0064 304.221675 
L 404.4032 305.745831 
L 404.8 305.319387 
L 405.1968 306.023253 
L 405.5936 306.280051 
L 405.9904 306.080467 
L 406.3872 304.528369 
L 406.784 305.676642 
L 407.1808 305.948742 
L 407.5776 305.904168 
L 407.9744 305.07656 
L 408.3712 303.719388 
L 408.768 305.081882 
L 409.1648 305.938097 
L 409.5616 305.103171 
L 409.9584 305.993316 
L 410.3552 305.54159 
L 410.752 306.09843 
L 411.1488 305.970696 
L 411.5456 306.057182 
L 411.9424 305.591486 
L 412.3392 306.057182 
L 412.736 305.061258 
L 413.1328 301.726875 
L 413.5296 305.011362 
L 413.9264 305.848284 
L 414.3232 306.085124 
L 414.72 305.937432 
L 415.1168 306.144999 
L 415.5136 306.086455 
L 415.9104 303.054108 
L 416.3072 306.037889 
L 416.704 305.964708 
L 417.1008 305.828991 
L 417.4976 304.380677 
L 417.8944 305.98134 
L 418.2912 305.389241 
L 418.688 306.255436 
L 419.0848 305.70658 
L 419.4816 306.286704 
L 419.8784 305.603461 
L 420.2752 303.857767 
L 420.672 305.878222 
L 421.0688 305.938763 
L 421.4656 305.819012 
L 421.8624 305.226913 
L 422.2592 305.481715 
L 422.656 306.335935 
L 423.0528 305.285458 
L 423.4496 306.090446 
L 423.8464 306.067162 
L 424.2432 306.072484 
L 424.64 305.216934 
L 425.0368 306.034563 
L 425.4336 306.175602 
L 425.8304 305.968035 
L 426.2272 305.571528 
L 426.624 305.944085 
L 427.0208 305.360634 
L 427.4176 305.262838 
L 427.8144 305.475728 
L 428.2112 303.303588 
L 428.608 302.408122 
L 429.0048 306.07581 
L 429.4016 302.738766 
L 429.7984 305.380593 
L 430.1952 304.073983 
L 430.592 303.094025 
L 430.9888 305.141092 
L 431.3856 305.928118 
L 431.7824 306.091777 
L 432.1792 306.154979 
L 432.576 305.913482 
L 432.9728 305.718555 
L 433.3696 304.550323 
L 433.7664 305.321383 
L 434.1632 305.989324 
L 434.56 305.536933 
L 434.9568 306.167619 
L 435.3536 306.306662 
L 435.7504 305.132443 
L 436.1472 306.086455 
L 436.544 305.379927 
L 436.9408 305.48238 
L 437.3376 304.209035 
L 437.7344 305.476393 
L 438.1312 305.877557 
L 438.528 305.701258 
L 438.9248 306.224833 
L 439.3216 302.695523 
L 439.7184 302.368205 
L 440.1152 304.215022 
L 440.512 306.449032 
L 440.9088 305.337349 
L 441.3056 306.02658 
L 441.7024 305.88554 
L 442.0992 305.173025 
L 442.496 306.484292 
L 442.8928 305.266164 
L 443.2896 305.555561 
L 443.6864 306.015935 
L 444.0832 305.418514 
L 444.48 305.4092 
L 444.8768 306.015935 
L 445.2736 306.079137 
L 445.6704 306.134355 
L 446.0672 305.950738 
L 446.464 306.230155 
L 446.8608 305.596143 
L 447.2576 304.688701 
L 447.6544 302.489286 
L 448.0512 305.497682 
L 448.448 305.296767 
L 448.8448 304.570947 
L 449.2416 305.921465 
L 449.6384 306.23082 
L 450.0352 305.344668 
L 450.432 305.685956 
L 450.8288 305.254855 
L 451.2256 297.719228 
L 451.6224 301.484713 
L 452.0192 306.048534 
L 452.416 305.638721 
L 452.8128 305.412526 
L 453.2096 305.572193 
L 453.2096 295.406715 
L 453.2096 295.406715 
L 452.8128 295.332204 
L 452.416 294.39815 
L 452.0192 297.093865 
L 451.6224 293.243224 
L 451.2256 293.775448 
L 450.8288 292.327134 
L 450.432 293.878567 
L 450.0352 294.638982 
L 449.6384 296.507088 
L 449.2416 295.933617 
L 448.8448 294.525884 
L 448.448 295.201809 
L 448.0512 294.244471 
L 447.6544 293.37628 
L 447.2576 293.490043 
L 446.8608 294.601726 
L 446.464 297.303428 
L 446.0672 295.372786 
L 445.6704 296.278232 
L 445.2736 301.034318 
L 444.8768 295.87108 
L 444.48 294.559813 
L 444.0832 294.476653 
L 443.6864 294.487963 
L 443.2896 295.658856 
L 442.8928 294.662932 
L 442.496 299.053115 
L 442.0992 297.928126 
L 441.7024 295.364802 
L 441.3056 297.076568 
L 440.9088 298.82958 
L 440.512 304.159804 
L 440.1152 293.378941 
L 439.7184 294.12339 
L 439.3216 296.135862 
L 438.9248 298.282055 
L 438.528 296.175113 
L 438.1312 293.823348 
L 437.7344 293.446135 
L 437.3376 293.857943 
L 436.9408 294.84921 
L 436.544 293.880563 
L 436.1472 296.295529 
L 435.7504 297.360642 
L 435.3536 293.931124 
L 434.9568 295.559729 
L 434.56 294.462017 
L 434.1632 296.252951 
L 433.7664 294.40813 
L 433.3696 295.554407 
L 432.9728 296.147837 
L 432.576 294.965634 
L 432.1792 296.588252 
L 431.7824 295.338856 
L 431.3856 296.848377 
L 430.9888 295.318898 
L 430.592 294.193909 
L 430.1952 295.577692 
L 429.7984 293.691623 
L 429.4016 293.676322 
L 429.0048 296.698023 
L 428.608 294.165968 
L 428.2112 294.956986 
L 427.8144 293.503349 
L 427.4176 296.189084 
L 427.0208 294.525884 
L 426.624 297.510996 
L 426.2272 296.276901 
L 425.8304 299.209455 
L 425.4336 298.725797 
L 425.0368 294.36156 
L 424.64 296.210373 
L 424.2432 297.067254 
L 423.8464 296.455861 
L 423.4496 297.544925 
L 423.0528 297.930787 
L 422.656 304.586914 
L 422.2592 295.183181 
L 421.8624 300.097604 
L 421.4656 297.026006 
L 421.0688 296.198398 
L 420.672 294.534533 
L 420.2752 295.459937 
L 419.8784 296.240976 
L 419.4816 305.702588 
L 419.0848 296.485799 
L 418.688 305.737848 
L 418.2912 304.133858 
L 417.8944 298.189581 
L 417.4976 295.726049 
L 417.1008 296.254282 
L 416.704 297.156401 
L 416.3072 300.625171 
L 415.9104 294.48131 
L 415.5136 296.318148 
L 415.1168 301.773444 
L 414.72 297.251536 
L 414.3232 300.274569 
L 413.9264 296.103263 
L 413.5296 294.141352 
L 413.1328 294.591747 
L 412.736 296.348751 
L 412.3392 294.477319 
L 411.9424 296.058689 
L 411.5456 302.830574 
L 411.1488 298.246795 
L 410.752 296.7732 
L 410.3552 294.782017 
L 409.9584 298.41245 
L 409.5616 297.301432 
L 409.1648 302.398142 
L 408.768 297.921473 
L 408.3712 295.270332 
L 407.9744 296.959478 
L 407.5776 297.622097 
L 407.1808 296.952826 
L 406.784 299.068416 
L 406.3872 297.567544 
L 405.9904 295.742681 
L 405.5936 296.165799 
L 405.1968 298.288708 
L 404.8 294.440728 
L 404.4032 295.996818 
L 404.0064 295.985508 
L 403.6096 294.289044 
L 403.2128 299.16089 
L 402.816 294.215864 
L 402.4192 297.135778 
L 402.0224 296.972119 
L 401.6256 293.901186 
L 401.2288 294.519231 
L 400.832 297.680642 
L 400.4352 295.101351 
L 400.0384 297.799727 
L 399.6416 294.68156 
L 399.2448 297.471079 
L 398.848 301.675648 
L 398.4512 304.360053 
L 398.0544 299.899351 
L 397.6576 294.584429 
L 397.2608 298.653281 
L 396.864 294.6942 
L 396.4672 296.567628 
L 396.0704 297.95008 
L 395.6736 296.411288 
L 395.2768 297.906837 
L 394.88 296.607545 
L 394.4832 297.670663 
L 394.0864 295.577027 
L 393.6896 295.125301 
L 393.2928 298.61403 
L 392.896 298.941348 
L 392.4992 294.700188 
L 392.1024 297.39058 
L 391.7056 297.656692 
L 391.3088 296.505757 
L 390.912 294.29104 
L 390.5152 293.007715 
L 390.1184 294.423431 
L 389.7216 302.221843 
L 389.3248 292.711666 
L 388.928 293.209295 
L 388.5312 297.564218 
L 388.1344 296.486464 
L 387.7376 295.973533 
L 387.3408 294.459356 
L 386.944 295.406715 
L 386.5472 293.307091 
L 386.1504 293.09021 
L 385.7536 296.966131 
L 385.3568 293.247881 
L 384.96 294.901767 
L 384.5632 297.304093 
L 384.1664 304.208369 
L 383.7696 292.693703 
L 383.3728 295.102017 
L 382.976 296.356069 
L 382.5792 299.260017 
L 382.1824 294.968961 
L 381.7856 297.572867 
L 381.3888 295.702764 
L 380.992 298.379186 
L 380.5952 295.056778 
L 380.1984 297.270164 
L 379.8016 304.226997 
L 379.4048 295.692785 
L 379.008 303.594981 
L 378.6112 299.695775 
L 378.2144 293.708255 
L 377.8176 296.283554 
L 377.4208 292.867341 
L 377.024 297.964051 
L 376.6272 297.003387 
L 376.2304 298.131702 
L 375.8336 295.545093 
L 375.4368 295.658191 
L 375.04 295.411372 
L 374.6432 297.130455 
L 374.2464 304.604876 
L 373.8496 295.493201 
L 373.4528 296.211038 
L 373.056 294.299689 
L 372.6592 294.303681 
L 372.2624 294.994241 
L 371.8656 295.324885 
L 371.4688 298.103095 
L 371.072 292.903932 
L 370.6752 295.322224 
L 370.2784 293.839315 
L 369.8816 296.852368 
L 369.4848 299.732365 
L 369.088 303.725376 
L 368.6912 294.822599 
L 368.2944 297.025341 
L 367.8976 297.261516 
L 367.5008 295.914989 
L 367.104 299.072408 
L 366.7072 295.059439 
L 366.3104 297.848958 
L 365.9136 296.877649 
L 365.5168 294.34892 
L 365.12 295.014865 
L 364.7232 293.453453 
L 364.3264 294.248462 
L 363.9296 295.602972 
L 363.5328 298.035901 
L 363.136 294.791331 
L 362.7392 302.484629 
L 362.3424 304.515063 
L 361.9456 294.700853 
L 361.5488 293.730209 
L 361.152 294.972287 
L 360.7552 296.916235 
L 360.3584 298.177606 
L 359.9616 294.443389 
L 359.5648 295.010208 
L 359.168 300.20671 
L 358.7712 294.897776 
L 358.3744 293.830001 
L 357.9776 298.029914 
L 357.5808 296.964135 
L 357.184 295.021518 
L 356.7872 296.63083 
L 356.3904 297.271495 
L 355.9936 298.958645 
L 355.5968 299.216773 
L 355.2 294.424762 
L 354.8032 295.805883 
L 354.4064 297.432492 
L 354.0096 298.284716 
L 353.6128 294.710832 
L 353.216 294.949668 
L 352.8192 296.139188 
L 352.4224 294.364886 
L 352.0256 296.423263 
L 351.6288 296.151163 
L 351.232 296.274905 
L 350.8352 301.446792 
L 350.4384 301.541262 
L 350.0416 292.410294 
L 349.6448 298.315319 
L 349.248 296.819104 
L 348.8512 299.366461 
L 348.4544 295.717401 
L 348.0576 300.200723 
L 347.6608 296.689375 
L 347.264 295.484553 
L 346.8672 295.985508 
L 346.4704 296.822431 
L 346.0736 296.153159 
L 345.6768 295.678814 
L 345.28 296.703346 
L 344.8832 303.410033 
L 344.4864 294.816612 
L 344.0896 300.49145 
L 343.6928 299.151576 
L 343.296 296.112577 
L 342.8992 300.311159 
L 342.5024 297.320725 
L 342.1056 296.354739 
L 341.7088 294.464013 
L 341.312 295.361476 
L 340.9152 295.785259 
L 340.5184 295.028171 
L 340.1216 297.260185 
L 339.7248 296.803138 
L 339.328 294.523888 
L 338.9312 293.844637 
L 338.5344 295.292287 
L 338.1376 295.710748 
L 337.7408 295.84713 
L 337.344 296.277566 
L 336.9472 298.942013 
L 336.5504 295.670166 
L 336.1536 295.532453 
L 335.7568 294.95632 
L 335.36 295.686132 
L 334.9632 297.392576 
L 334.5664 295.662182 
L 334.1696 297.930122 
L 333.7728 296.056028 
L 333.376 301.405545 
L 332.9792 294.95499 
L 332.5824 295.803222 
L 332.1856 304.880302 
L 331.7888 293.7189 
L 331.392 296.993408 
L 330.9952 296.593574 
L 330.5984 296.715986 
L 330.2016 297.29478 
L 329.8048 301.622426 
L 329.408 297.914155 
L 329.0112 294.362891 
L 328.6144 296.584926 
L 328.2176 297.061932 
L 327.8208 296.019438 
L 327.424 297.519644 
L 327.0272 298.536192 
L 326.6304 300.012448 
L 326.2336 297.139769 
L 325.8368 296.539687 
L 325.44 297.384592 
L 325.0432 297.638729 
L 324.6464 298.155652 
L 324.2496 297.570871 
L 323.8528 294.666258 
L 323.456 297.246214 
L 323.0592 295.804552 
L 322.6624 295.221767 
L 322.2656 297.802388 
L 321.8688 298.680558 
L 321.472 294.408795 
L 321.0752 294.629003 
L 320.6784 293.881893 
L 320.2816 293.973036 
L 319.8848 296.055363 
L 319.488 300.720306 
L 319.0912 301.172031 
L 318.6944 295.260353 
L 318.2976 293.599814 
L 317.9008 295.027505 
L 317.504 297.458438 
L 317.1072 298.2927 
L 316.7104 304.181758 
L 316.3136 296.099271 
L 315.9168 296.28555 
L 315.52 295.877068 
L 315.1232 303.24837 
L 314.7264 291.629255 
L 314.3296 296.66742 
L 313.9328 300.275899 
L 313.536 296.284219 
L 313.1392 304.51839 
L 312.7424 296.315487 
L 312.3456 293.533286 
L 311.9488 293.161395 
L 311.552 295.823845 
L 311.1552 294.301685 
L 310.7584 296.25162 
L 310.3616 297.232908 
L 309.9648 297.61611 
L 309.568 295.047464 
L 309.1712 297.169042 
L 308.7744 296.51108 
L 308.3776 297.47374 
L 307.9808 295.115322 
L 307.584 295.730706 
L 307.1872 293.818692 
L 306.7904 294.956986 
L 306.3936 297.524966 
L 305.9968 296.672743 
L 305.6 295.723388 
L 305.2032 304.530365 
L 304.8064 295.426008 
L 304.4096 297.376609 
L 304.0128 295.179189 
L 303.616 294.917734 
L 303.2192 296.461184 
L 302.8224 295.117983 
L 302.4256 298.037897 
L 302.0288 294.686217 
L 301.632 295.018857 
L 301.2352 304.423255 
L 300.8384 296.208377 
L 300.4416 305.638721 
L 300.0448 292.369046 
L 299.648 295.472578 
L 299.2512 299.973197 
L 298.8544 301.279141 
L 298.4576 294.533202 
L 298.0608 295.266341 
L 297.664 300.303176 
L 297.2672 300.989745 
L 296.8704 296.089292 
L 296.4736 297.64139 
L 296.0768 297.658688 
L 295.68 294.607714 
L 295.2832 296.071995 
L 294.8864 298.558146 
L 294.4896 297.483719 
L 294.0928 298.288708 
L 293.696 295.942931 
L 293.2992 295.236403 
L 292.9024 302.45203 
L 292.5056 293.357652 
L 292.1088 295.30027 
L 291.712 295.41869 
L 291.3152 299.753654 
L 290.9184 297.165715 
L 290.5216 302.534525 
L 290.1248 292.975782 
L 289.728 298.117066 
L 289.3312 295.233077 
L 288.9344 302.662924 
L 288.5376 296.109916 
L 288.1408 304.227662 
L 287.744 297.501016 
L 287.3472 296.115903 
L 286.9504 297.091869 
L 286.5536 301.717561 
L 286.1568 294.496612 
L 285.76 295.219771 
L 285.3632 296.710664 
L 284.9664 295.716735 
L 284.5696 293.247216 
L 284.1728 296.731953 
L 283.776 296.209708 
L 283.3792 295.598981 
L 282.9824 293.587174 
L 282.5856 295.212453 
L 282.1888 293.999648 
L 281.792 300.731616 
L 281.3952 297.261516 
L 280.9984 299.14825 
L 280.6016 295.236403 
L 280.2048 297.363969 
L 279.808 296.72663 
L 279.4112 298.872158 
L 279.0144 301.581844 
L 278.6176 301.527956 
L 278.2208 295.35948 
L 277.824 294.179939 
L 277.4272 293.94576 
L 277.0304 294.852537 
L 276.6336 293.068921 
L 276.2368 296.462514 
L 275.84 298.713822 
L 275.4432 294.538524 
L 275.0464 297.325382 
L 274.6496 304.312153 
L 274.2528 293.24389 
L 273.856 304.927537 
L 273.4592 294.636986 
L 273.0624 299.31457 
L 272.6656 304.44654 
L 272.2688 293.722891 
L 271.872 294.178608 
L 271.4752 295.306923 
L 271.0784 293.079565 
L 270.6816 300.638477 
L 270.2848 294.066841 
L 269.888 292.678402 
L 269.4912 294.963638 
L 269.0944 296.112577 
L 268.6976 293.204638 
L 268.3008 292.150835 
L 267.904 293.43416 
L 267.5072 294.279065 
L 267.1104 295.066092 
L 266.7136 298.369207 
L 266.3168 292.928547 
L 265.92 293.18601 
L 265.5232 301.627748 
L 265.1264 299.858769 
L 264.7296 294.964304 
L 264.3328 292.709004 
L 263.936 294.621019 
L 263.5392 293.67233 
L 263.1424 294.015614 
L 262.7456 299.134279 
L 262.3488 294.664928 
L 261.952 294.964969 
L 261.5552 295.914324 
L 261.1584 300.678394 
L 260.7616 295.226424 
L 260.3648 293.271831 
L 259.968 294.072828 
L 259.5712 294.945011 
L 259.1744 305.238223 
L 258.7776 299.105006 
L 258.3808 295.75133 
L 257.984 295.718731 
L 257.5872 295.531788 
L 257.1904 298.085132 
L 256.7936 294.362891 
L 256.3968 295.641559 
L 256 295.970207 
L 255.6032 297.102514 
L 255.2064 295.571039 
L 254.8096 296.001475 
L 254.4128 295.867089 
L 254.016 296.252286 
L 253.6192 294.461352 
L 253.2224 294.75474 
L 252.8256 301.06093 
L 252.4288 294.519897 
L 252.032 301.451449 
L 251.6352 293.398235 
L 251.2384 296.240976 
L 250.8416 295.950249 
L 250.4448 295.702764 
L 250.048 294.528545 
L 249.6512 294.121394 
L 249.2544 294.704179 
L 248.8576 296.109251 
L 248.4608 296.348751 
L 248.064 295.683471 
L 247.6672 297.287461 
L 247.2704 294.360895 
L 246.8736 294.703514 
L 246.4768 297.922139 
L 246.08 295.464594 
L 245.6832 294.318982 
L 245.2864 300.581928 
L 244.8896 294.486633 
L 244.4928 294.611705 
L 244.096 300.346419 
L 243.6992 298.706504 
L 243.3024 298.107752 
L 242.9056 293.751498 
L 242.5088 300.429579 
L 242.112 295.209792 
L 241.7152 300.162136 
L 241.3184 295.719396 
L 240.9216 298.165631 
L 240.5248 300.456855 
L 240.128 296.091953 
L 239.7312 294.348254 
L 239.3344 296.567628 
L 238.9376 296.552327 
L 238.5408 296.01345 
L 238.144 300.577936 
L 237.7472 295.970872 
L 237.3504 294.541186 
L 236.9536 296.064012 
L 236.5568 293.939772 
L 236.16 295.008877 
L 235.7632 296.509084 
L 235.3664 296.449874 
L 234.9696 304.254939 
L 234.5728 301.318393 
L 234.176 300.303176 
L 233.7792 294.595073 
L 233.3824 304.821757 
L 232.9856 296.648127 
L 232.5888 299.519476 
L 232.192 300.676398 
L 231.7952 293.152746 
L 231.3984 296.803138 
L 231.0016 293.151416 
L 230.6048 296.007463 
L 230.208 296.548335 
L 229.8112 304.833067 
L 229.4144 298.08114 
L 229.0176 294.826591 
L 228.6208 296.145176 
L 228.224 305.694605 
L 227.8272 297.879561 
L 227.4304 295.028836 
L 227.0336 292.194743 
L 226.6368 295.316902 
L 226.24 295.618274 
L 225.8432 295.555738 
L 225.4464 297.333366 
L 225.0496 296.955487 
L 224.6528 293.869918 
L 224.256 296.533034 
L 223.8592 298.79166 
L 223.4624 298.1643 
L 223.0656 297.232243 
L 222.6688 294.95499 
L 222.272 296.007463 
L 221.8752 293.502684 
L 221.4784 292.174119 
L 221.0816 294.483306 
L 220.6848 294.116072 
L 220.288 293.484721 
L 219.8912 295.304262 
L 219.4944 293.215948 
L 219.0976 296.026091 
L 218.7008 297.278813 
L 218.304 294.929044 
L 217.9072 295.501185 
L 217.5104 297.558896 
L 217.1136 299.553405 
L 216.7168 292.700356 
L 216.32 291.901355 
L 215.9232 292.303184 
L 215.5264 294.125386 
L 215.1296 305.851611 
L 214.7328 292.572622 
L 214.336 292.715657 
L 213.9392 296.505757 
L 213.5424 299.201472 
L 213.1456 292.682393 
L 212.7488 305.71922 
L 212.352 294.649626 
L 211.9552 294.173286 
L 211.5584 292.418277 
L 211.1616 291.174204 
L 210.7648 294.24181 
L 210.368 297.405216 
L 209.9712 295.027505 
L 209.5744 295.811205 
L 209.1776 304.490448 
L 208.7808 295.54842 
L 208.384 292.657113 
L 207.9872 295.096029 
L 207.5904 300.350411 
L 207.1936 291.62992 
L 206.7968 301.663673 
L 206.4 292.549337 
L 206.0032 293.560563 
L 205.6064 300.436897 
L 205.2096 294.669585 
L 204.8128 293.50601 
L 204.416 297.888209 
L 204.0192 291.081064 
L 203.6224 291.788922 
L 203.2256 300.188748 
L 202.8288 294.591747 
L 202.432 294.521227 
L 202.0352 292.090294 
L 201.6384 291.85545 
L 201.2416 304.76787 
L 200.8448 298.1164 
L 200.448 301.580513 
L 200.0512 292.760896 
L 199.6544 304.477808 
L 199.2576 295.269667 
L 198.8608 295.87108 
L 198.464 295.243056 
L 198.0672 297.793074 
L 197.6704 299.186171 
L 197.2736 298.406462 
L 196.8768 303.147248 
L 196.48 304.650115 
L 196.0832 301.395565 
L 195.6864 291.369131 
L 195.2896 298.655277 
L 194.8928 304.443213 
L 194.496 295.382765 
L 194.0992 304.26891 
L 193.7024 305.024003 
L 193.3056 292.649795 
L 192.9088 300.668414 
L 192.512 301.660347 
L 192.1152 295.8458 
L 191.7184 304.239637 
L 191.3216 294.079481 
L 190.9248 292.862019 
L 190.528 294.88447 
L 190.1312 295.136611 
L 189.7344 294.161976 
L 189.3376 304.91157 
L 188.9408 292.720314 
L 188.544 304.500427 
L 188.1472 301.010368 
L 187.7504 304.570947 
L 187.3536 293.591166 
L 186.9568 294.048213 
L 186.56 302.142675 
L 186.1632 292.943848 
L 185.7664 291.035825 
L 185.3696 295.53711 
L 184.9728 297.360642 
L 184.576 294.662267 
L 184.1792 304.499097 
L 183.7824 294.181269 
L 183.3856 305.614106 
L 182.9888 300.158145 
L 182.592 293.57653 
L 182.1952 291.695783 
L 181.7984 298.501597 
L 181.4016 299.307252 
L 181.0048 306.146995 
L 180.608 296.550996 
L 180.2112 301.728871 
L 179.8144 295.447297 
L 179.4176 293.332372 
L 179.0208 292.70967 
L 178.624 300.399641 
L 178.2272 301.994317 
L 177.8304 291.341854 
L 177.4336 297.084551 
L 177.0368 291.174869 
L 176.64 292.112248 
L 176.2432 293.7189 
L 175.8464 292.631167 
L 175.4496 296.908917 
L 175.0528 293.092871 
L 174.656 293.370958 
L 174.2592 293.318401 
L 173.8624 290.658612 
L 173.4656 295.143264 
L 173.0688 293.300438 
L 172.672 295.962224 
L 172.2752 293.408214 
L 171.8784 295.494532 
L 171.4816 295.511829 
L 171.0848 296.804468 
L 170.688 295.255031 
L 170.2912 291.607301 
L 169.8944 300.645795 
L 169.4976 296.636818 
L 169.1008 292.860688 
L 168.704 296.626173 
L 168.3072 301.885212 
L 167.9104 299.031826 
L 167.5136 292.047716 
L 167.1168 294.541186 
L 166.72 299.488873 
L 166.3232 297.178356 
L 165.9264 291.217447 
L 165.5296 292.517404 
L 165.1328 293.434825 
L 164.736 292.273246 
L 164.3392 294.511913 
L 163.9424 294.008296 
L 163.5456 302.958973 
L 163.1488 299.7796 
L 162.752 293.426842 
L 162.3552 290.5362 
L 161.9584 295.565717 
L 161.5616 295.670166 
L 161.1648 293.150085 
L 160.768 298.17561 
L 160.3712 305.737848 
L 159.9744 297.524966 
L 159.5776 299.103011 
L 159.1808 297.656692 
L 158.784 293.249877 
L 158.3872 300.356398 
L 157.9904 295.743347 
L 157.5936 301.734858 
L 157.1968 295.779272 
L 156.8 298.178271 
L 156.4032 304.124544 
L 156.0064 292.500772 
L 155.6096 292.927882 
L 155.2128 294.287049 
L 154.816 295.139272 
L 154.4192 300.33644 
L 154.0224 296.81977 
L 153.6256 299.705089 
L 153.2288 298.681223 
L 152.832 298.848874 
L 152.4352 299.651867 
L 152.0384 295.367463 
L 151.6416 302.767373 
L 151.2448 304.217018 
L 150.848 294.994241 
L 150.4512 301.076896 
L 150.0544 301.170036 
L 149.6576 297.572201 
L 149.2608 295.493867 
L 148.864 294.478649 
L 148.4672 295.618939 
L 148.0704 294.070167 
L 147.6736 302.940346 
L 147.2768 299.091701 
L 146.88 304.013442 
L 146.4832 299.715068 
L 146.0864 298.952657 
L 145.6896 300.255276 
L 145.2928 303.008204 
L 144.896 301.891864 
L 144.4992 299.6838 
L 144.1024 299.919974 
L 143.7056 297.912825 
L 143.3088 296.562306 
L 142.912 298.17561 
L 142.5152 297.032659 
L 142.1184 303.494524 
L 141.7216 294.998898 
L 141.3248 299.737022 
L 140.928 296.449209 
L 140.5312 301.959058 
L 140.1344 301.085545 
L 139.7376 297.147087 
L 139.3408 294.50526 
L 138.944 295.367463 
L 138.5472 297.445798 
L 138.1504 299.807542 
L 137.7536 297.528958 
L 137.3568 303.324877 
L 136.96 298.620017 
L 136.5632 305.896185 
L 136.1664 299.355817 
L 135.7696 299.224757 
L 135.3728 297.870247 
L 134.976 299.884715 
L 134.5792 296.41661 
L 134.1824 299.312574 
L 133.7856 298.700516 
L 133.3888 304.213692 
L 132.992 296.816443 
L 132.5952 298.606712 
L 132.1984 298.679227 
L 131.8016 295.23973 
L 131.4048 301.996979 
L 131.008 296.628169 
L 130.6112 298.701181 
L 130.2144 295.981517 
L 129.8176 296.559645 
L 129.4208 297.61611 
L 129.024 297.055944 
L 128.6272 298.655942 
L 128.2304 297.725881 
L 127.8336 296.480477 
L 127.4368 298.538188 
L 127.04 292.503433 
L 126.6432 293.604471 
L 126.2464 298.005299 
L 125.8496 304.16313 
L 125.4528 294.394159 
L 125.056 296.370706 
L 124.6592 295.471912 
L 124.2624 301.060264 
L 123.8656 302.936354 
L 123.4688 294.237818 
L 123.072 296.497109 
L 122.6752 294.76472 
L 122.2784 299.935276 
L 121.8816 291.4636 
L 121.4848 295.639563 
L 121.088 301.63307 
L 120.6912 298.197564 
L 120.2944 295.709417 
L 119.8976 301.387582 
L 119.5008 301.241886 
L 119.104 294.067506 
L 118.7072 292.037072 
L 118.3104 303.974191 
L 117.9136 295.74002 
L 117.5168 295.473243 
L 117.12 301.174027 
L 116.7232 294.446051 
L 116.3264 299.422345 
L 115.9296 295.86975 
L 115.5328 296.97611 
L 115.136 291.718403 
L 114.7392 295.054116 
L 114.3424 296.688044 
L 113.9456 300.650452 
L 113.5488 304.572943 
L 113.152 296.098606 
L 112.7552 296.053367 
L 112.3584 294.583098 
L 111.9616 300.43224 
L 111.5648 305.764459 
L 111.168 302.710159 
L 110.7712 305.591486 
L 110.3744 296.684718 
L 109.9776 295.624927 
L 109.5808 297.276152 
L 109.184 298.308001 
L 108.7872 293.594492 
L 108.3904 298.392492 
L 107.9936 293.626426 
L 107.5968 301.295108 
L 107.2 299.560058 
L 106.8032 300.496772 
L 106.4064 301.908496 
L 106.0096 302.790658 
L 105.6128 296.690705 
L 105.216 303.077393 
L 104.8192 290.966636 
L 104.4224 302.763381 
L 104.0256 295.982182 
L 103.6288 297.114489 
L 103.232 301.752156 
L 102.8352 299.689122 
L 102.4384 294.940354 
L 102.0416 302.149328 
L 101.6448 296.090623 
L 101.248 296.765882 
L 100.8512 299.122969 
L 100.4544 299.269331 
L 100.0576 295.87108 
L 99.6608 300.712323 
L 99.264 294.342932 
L 98.8672 294.677568 
L 98.4704 296.847711 
L 98.0736 293.967714 
L 97.6768 295.87108 
L 97.28 294.665593 
L 96.8832 296.828418 
L 96.4864 304.189076 
L 96.0896 299.967875 
L 95.6928 296.284884 
L 95.296 295.207131 
L 94.8992 297.855611 
L 94.5024 295.91898 
L 94.1056 294.115406 
L 93.7088 295.967546 
L 93.312 303.531114 
L 92.9152 296.607545 
L 92.5184 296.864343 
L 92.1216 292.919898 
L 91.7248 300.304506 
L 91.328 299.353821 
L 90.9312 304.240303 
L 90.5344 304.200386 
L 90.1376 294.086134 
L 89.7408 302.968287 
L 89.344 295.010208 
L 88.9472 296.622181 
L 88.5504 302.716812 
L 88.1536 305.523628 
L 87.7568 299.413696 
L 87.36 304.001467 
L 86.9632 292.289213 
L 86.5664 294.456695 
L 86.1696 300.114901 
L 85.7728 298.457024 
L 85.376 300.498768 
L 84.9792 293.665677 
L 84.5824 292.643142 
L 84.1856 296.004136 
L 83.7888 292.300523 
L 83.392 304.545001 
L 82.9952 290.91674 
L 82.5984 293.405553 
L 82.2016 298.489622 
L 81.8048 304.128536 
L 81.408 297.850288 
L 81.0112 297.564883 
L 80.6144 293.078235 
L 80.2176 303.493859 
L 79.8208 293.808047 
L 79.424 291.991833 
L 79.0272 297.322721 
L 78.6304 301.565877 
L 78.2336 293.715573 
L 77.8368 298.667917 
L 77.44 295.563056 
L 77.0432 291.55807 
L 76.6464 298.331951 
L 76.2496 302.513901 
L 75.8528 295.914989 
L 75.456 293.671665 
L 75.0592 298.681223 
L 74.6624 290.685888 
L 74.2656 305.601466 
L 73.8688 290.760399 
L 73.472 293.331707 
L 73.0752 299.505505 
L 72.6784 298.343261 
L 72.2816 291.373788 
L 71.8848 299.233405 
L 71.488 291.52281 
L 71.0912 302.06018 
L 70.6944 301.783424 
L 70.2976 301.053612 
L 69.9008 298.641306 
L 69.504 300.68172 
L 69.1072 299.120973 
L 68.7104 295.517817 
L 68.3136 301.100846 
L 67.9168 302.231157 
L 67.52 296.209043 
L 67.1232 295.239064 
L 66.7264 299.770286 
L 66.3296 304.207039 
L 65.9328 297.835652 
L 65.536 303.555064 
L 65.1392 297.215611 
L 64.7424 299.939933 
L 64.3456 298.731784 
L 63.9488 297.459104 
L 63.552 303.280969 
L 63.1552 303.498516 
L 62.7584 303.076728 
L 62.3616 294.120063 
L 61.9648 303.404711 
L 61.568 300.245962 
L 61.1712 301.74018 
L 60.7744 300.350411 
L 60.3776 303.722715 
L 59.9808 303.360803 
L 59.584 300.607874 
L 59.1872 304.149825 
L 58.7904 303.645542 
L 58.3936 302.576437 
L 57.9968 304.149159 
z
" style="fill:#1f77b4;fill-opacity:0.25;"/>
   </g>
   <g id="matplotlib.axis_1">
    <g id="xtick_1">
     <g id="line2d_1">
      <defs>
       <path d="M 0 0 
L 0 4.8 
" id="mb789ae8b23" style="stroke:#000000;"/>
      </defs>
      <g>
       <use style="stroke:#000000;" x="57.6" xlink:href="#mb789ae8b23" y="307.584"/>
      </g>
     </g>
     <g id="text_1">
      <!-- 0 -->
      <g transform="translate(54.8005 322.570625)scale(0.088 -0.088)">
       <defs>
        <path d="M 2034 4250 
Q 1547 4250 1301 3770 
Q 1056 3291 1056 2328 
Q 1056 1369 1301 889 
Q 1547 409 2034 409 
Q 2525 409 2770 889 
Q 3016 1369 3016 2328 
Q 3016 3291 2770 3770 
Q 2525 4250 2034 4250 
z
M 2034 4750 
Q 2819 4750 3233 4129 
Q 3647 3509 3647 2328 
Q 3647 1150 3233 529 
Q 2819 -91 2034 -91 
Q 1250 -91 836 529 
Q 422 1150 422 2328 
Q 422 3509 836 4129 
Q 1250 4750 2034 4750 
z
" id="DejaVuSans-30" transform="scale(0.015625)"/>
       </defs>
       <use xlink:href="#DejaVuSans-30"/>
      </g>
     </g>
    </g>
    <g id="xtick_2">
     <g id="line2d_2">
      <g>
       <use style="stroke:#000000;" x="97.28" xlink:href="#mb789ae8b23" y="307.584"/>
      </g>
     </g>
     <g id="text_2">
      <!-- 100 -->
      <g transform="translate(88.8815 322.570625)scale(0.088 -0.088)">
       <defs>
        <path d="M 794 531 
L 1825 531 
L 1825 4091 
L 703 3866 
L 703 4441 
L 1819 4666 
L 2450 4666 
L 2450 531 
L 3481 531 
L 3481 0 
L 794 0 
L 794 531 
z
" id="DejaVuSans-31" transform="scale(0.015625)"/>
       </defs>
       <use xlink:href="#DejaVuSans-31"/>
       <use x="63.623047" xlink:href="#DejaVuSans-30"/>
       <use x="127.246094" xlink:href="#DejaVuSans-30"/>
      </g>
     </g>
    </g>
    <g id="xtick_3">
     <g id="line2d_3">
      <g>
       <use style="stroke:#000000;" x="136.96" xlink:href="#mb789ae8b23" y="307.584"/>
      </g>
     </g>
     <g id="text_3">
      <!-- 200 -->
      <g transform="translate(128.5615 322.570625)scale(0.088 -0.088)">
       <defs>
        <path d="M 1228 531 
L 3431 531 
L 3431 0 
L 469 0 
L 469 531 
Q 828 903 1448 1529 
Q 2069 2156 2228 2338 
Q 2531 2678 2651 2914 
Q 2772 3150 2772 3378 
Q 2772 3750 2511 3984 
Q 2250 4219 1831 4219 
Q 1534 4219 1204 4116 
Q 875 4013 500 3803 
L 500 4441 
Q 881 4594 1212 4672 
Q 1544 4750 1819 4750 
Q 2544 4750 2975 4387 
Q 3406 4025 3406 3419 
Q 3406 3131 3298 2873 
Q 3191 2616 2906 2266 
Q 2828 2175 2409 1742 
Q 1991 1309 1228 531 
z
" id="DejaVuSans-32" transform="scale(0.015625)"/>
       </defs>
       <use xlink:href="#DejaVuSans-32"/>
       <use x="63.623047" xlink:href="#DejaVuSans-30"/>
       <use x="127.246094" xlink:href="#DejaVuSans-30"/>
      </g>
     </g>
    </g>
    <g id="xtick_4">
     <g id="line2d_4">
      <g>
       <use style="stroke:#000000;" x="176.64" xlink:href="#mb789ae8b23" y="307.584"/>
      </g>
     </g>
     <g id="text_4">
      <!-- 300 -->
      <g transform="translate(168.2415 322.570625)scale(0.088 -0.088)">
       <defs>
        <path d="M 2597 2516 
Q 3050 2419 3304 2112 
Q 3559 1806 3559 1356 
Q 3559 666 3084 287 
Q 2609 -91 1734 -91 
Q 1441 -91 1130 -33 
Q 819 25 488 141 
L 488 750 
Q 750 597 1062 519 
Q 1375 441 1716 441 
Q 2309 441 2620 675 
Q 2931 909 2931 1356 
Q 2931 1769 2642 2001 
Q 2353 2234 1838 2234 
L 1294 2234 
L 1294 2753 
L 1863 2753 
Q 2328 2753 2575 2939 
Q 2822 3125 2822 3475 
Q 2822 3834 2567 4026 
Q 2313 4219 1838 4219 
Q 1578 4219 1281 4162 
Q 984 4106 628 3988 
L 628 4550 
Q 988 4650 1302 4700 
Q 1616 4750 1894 4750 
Q 2613 4750 3031 4423 
Q 3450 4097 3450 3541 
Q 3450 3153 3228 2886 
Q 3006 2619 2597 2516 
z
" id="DejaVuSans-33" transform="scale(0.015625)"/>
       </defs>
       <use xlink:href="#DejaVuSans-33"/>
       <use x="63.623047" xlink:href="#DejaVuSans-30"/>
       <use x="127.246094" xlink:href="#DejaVuSans-30"/>
      </g>
     </g>
    </g>
    <g id="xtick_5">
     <g id="line2d_5">
      <g>
       <use style="stroke:#000000;" x="216.32" xlink:href="#mb789ae8b23" y="307.584"/>
      </g>
     </g>
     <g id="text_5">
      <!-- 400 -->
      <g transform="translate(207.9215 322.570625)scale(0.088 -0.088)">
       <defs>
        <path d="M 2419 4116 
L 825 1625 
L 2419 1625 
L 2419 4116 
z
M 2253 4666 
L 3047 4666 
L 3047 1625 
L 3713 1625 
L 3713 1100 
L 3047 1100 
L 3047 0 
L 2419 0 
L 2419 1100 
L 313 1100 
L 313 1709 
L 2253 4666 
z
" id="DejaVuSans-34" transform="scale(0.015625)"/>
       </defs>
       <use xlink:href="#DejaVuSans-34"/>
       <use x="63.623047" xlink:href="#DejaVuSans-30"/>
       <use x="127.246094" xlink:href="#DejaVuSans-30"/>
      </g>
     </g>
    </g>
    <g id="xtick_6">
     <g id="line2d_6">
      <g>
       <use style="stroke:#000000;" x="256" xlink:href="#mb789ae8b23" y="307.584"/>
      </g>
     </g>
     <g id="text_6">
      <!-- 500 -->
      <g transform="translate(247.6015 322.570625)scale(0.088 -0.088)">
       <defs>
        <path d="M 691 4666 
L 3169 4666 
L 3169 4134 
L 1269 4134 
L 1269 2991 
Q 1406 3038 1543 3061 
Q 1681 3084 1819 3084 
Q 2600 3084 3056 2656 
Q 3513 2228 3513 1497 
Q 3513 744 3044 326 
Q 2575 -91 1722 -91 
Q 1428 -91 1123 -41 
Q 819 9 494 109 
L 494 744 
Q 775 591 1075 516 
Q 1375 441 1709 441 
Q 2250 441 2565 725 
Q 2881 1009 2881 1497 
Q 2881 1984 2565 2268 
Q 2250 2553 1709 2553 
Q 1456 2553 1204 2497 
Q 953 2441 691 2322 
L 691 4666 
z
" id="DejaVuSans-35" transform="scale(0.015625)"/>
       </defs>
       <use xlink:href="#DejaVuSans-35"/>
       <use x="63.623047" xlink:href="#DejaVuSans-30"/>
       <use x="127.246094" xlink:href="#DejaVuSans-30"/>
      </g>
     </g>
    </g>
    <g id="xtick_7">
     <g id="line2d_7">
      <g>
       <use style="stroke:#000000;" x="295.68" xlink:href="#mb789ae8b23" y="307.584"/>
      </g>
     </g>
     <g id="text_7">
      <!-- 600 -->
      <g transform="translate(287.2815 322.570625)scale(0.088 -0.088)">
       <defs>
        <path d="M 2113 2584 
Q 1688 2584 1439 2293 
Q 1191 2003 1191 1497 
Q 1191 994 1439 701 
Q 1688 409 2113 409 
Q 2538 409 2786 701 
Q 3034 994 3034 1497 
Q 3034 2003 2786 2293 
Q 2538 2584 2113 2584 
z
M 3366 4563 
L 3366 3988 
Q 3128 4100 2886 4159 
Q 2644 4219 2406 4219 
Q 1781 4219 1451 3797 
Q 1122 3375 1075 2522 
Q 1259 2794 1537 2939 
Q 1816 3084 2150 3084 
Q 2853 3084 3261 2657 
Q 3669 2231 3669 1497 
Q 3669 778 3244 343 
Q 2819 -91 2113 -91 
Q 1303 -91 875 529 
Q 447 1150 447 2328 
Q 447 3434 972 4092 
Q 1497 4750 2381 4750 
Q 2619 4750 2861 4703 
Q 3103 4656 3366 4563 
z
" id="DejaVuSans-36" transform="scale(0.015625)"/>
       </defs>
       <use xlink:href="#DejaVuSans-36"/>
       <use x="63.623047" xlink:href="#DejaVuSans-30"/>
       <use x="127.246094" xlink:href="#DejaVuSans-30"/>
      </g>
     </g>
    </g>
    <g id="xtick_8">
     <g id="line2d_8">
      <g>
       <use style="stroke:#000000;" x="335.36" xlink:href="#mb789ae8b23" y="307.584"/>
      </g>
     </g>
     <g id="text_8">
      <!-- 700 -->
      <g transform="translate(326.9615 322.570625)scale(0.088 -0.088)">
       <defs>
        <path d="M 525 4666 
L 3525 4666 
L 3525 4397 
L 1831 0 
L 1172 0 
L 2766 4134 
L 525 4134 
L 525 4666 
z
" id="DejaVuSans-37" transform="scale(0.015625)"/>
       </defs>
       <use xlink:href="#DejaVuSans-37"/>
       <use x="63.623047" xlink:href="#DejaVuSans-30"/>
       <use x="127.246094" xlink:href="#DejaVuSans-30"/>
      </g>
     </g>
    </g>
    <g id="xtick_9">
     <g id="line2d_9">
      <g>
       <use style="stroke:#000000;" x="375.04" xlink:href="#mb789ae8b23" y="307.584"/>
      </g>
     </g>
     <g id="text_9">
      <!-- 800 -->
      <g transform="translate(366.6415 322.570625)scale(0.088 -0.088)">
       <defs>
        <path d="M 2034 2216 
Q 1584 2216 1326 1975 
Q 1069 1734 1069 1313 
Q 1069 891 1326 650 
Q 1584 409 2034 409 
Q 2484 409 2743 651 
Q 3003 894 3003 1313 
Q 3003 1734 2745 1975 
Q 2488 2216 2034 2216 
z
M 1403 2484 
Q 997 2584 770 2862 
Q 544 3141 544 3541 
Q 544 4100 942 4425 
Q 1341 4750 2034 4750 
Q 2731 4750 3128 4425 
Q 3525 4100 3525 3541 
Q 3525 3141 3298 2862 
Q 3072 2584 2669 2484 
Q 3125 2378 3379 2068 
Q 3634 1759 3634 1313 
Q 3634 634 3220 271 
Q 2806 -91 2034 -91 
Q 1263 -91 848 271 
Q 434 634 434 1313 
Q 434 1759 690 2068 
Q 947 2378 1403 2484 
z
M 1172 3481 
Q 1172 3119 1398 2916 
Q 1625 2713 2034 2713 
Q 2441 2713 2670 2916 
Q 2900 3119 2900 3481 
Q 2900 3844 2670 4047 
Q 2441 4250 2034 4250 
Q 1625 4250 1398 4047 
Q 1172 3844 1172 3481 
z
" id="DejaVuSans-38" transform="scale(0.015625)"/>
       </defs>
       <use xlink:href="#DejaVuSans-38"/>
       <use x="63.623047" xlink:href="#DejaVuSans-30"/>
       <use x="127.246094" xlink:href="#DejaVuSans-30"/>
      </g>
     </g>
    </g>
    <g id="xtick_10">
     <g id="line2d_10">
      <g>
       <use style="stroke:#000000;" x="414.72" xlink:href="#mb789ae8b23" y="307.584"/>
      </g>
     </g>
     <g id="text_10">
      <!-- 900 -->
      <g transform="translate(406.3215 322.570625)scale(0.088 -0.088)">
       <defs>
        <path d="M 703 97 
L 703 672 
Q 941 559 1184 500 
Q 1428 441 1663 441 
Q 2288 441 2617 861 
Q 2947 1281 2994 2138 
Q 2813 1869 2534 1725 
Q 2256 1581 1919 1581 
Q 1219 1581 811 2004 
Q 403 2428 403 3163 
Q 403 3881 828 4315 
Q 1253 4750 1959 4750 
Q 2769 4750 3195 4129 
Q 3622 3509 3622 2328 
Q 3622 1225 3098 567 
Q 2575 -91 1691 -91 
Q 1453 -91 1209 -44 
Q 966 3 703 97 
z
M 1959 2075 
Q 2384 2075 2632 2365 
Q 2881 2656 2881 3163 
Q 2881 3666 2632 3958 
Q 2384 4250 1959 4250 
Q 1534 4250 1286 3958 
Q 1038 3666 1038 3163 
Q 1038 2656 1286 2365 
Q 1534 2075 1959 2075 
z
" id="DejaVuSans-39" transform="scale(0.015625)"/>
       </defs>
       <use xlink:href="#DejaVuSans-39"/>
       <use x="63.623047" xlink:href="#DejaVuSans-30"/>
       <use x="127.246094" xlink:href="#DejaVuSans-30"/>
      </g>
     </g>
    </g>
    <g id="text_11">
     <!-- Timestep -->
     <g transform="translate(214.03275 335.69525)scale(0.096 -0.096)">
      <defs>
       <path d="M -19 4666 
L 3928 4666 
L 3928 4134 
L 2272 4134 
L 2272 0 
L 1638 0 
L 1638 4134 
L -19 4134 
L -19 4666 
z
" id="DejaVuSans-54" transform="scale(0.015625)"/>
       <path d="M 603 3500 
L 1178 3500 
L 1178 0 
L 603 0 
L 603 3500 
z
M 603 4863 
L 1178 4863 
L 1178 4134 
L 603 4134 
L 603 4863 
z
" id="DejaVuSans-69" transform="scale(0.015625)"/>
       <path d="M 3328 2828 
Q 3544 3216 3844 3400 
Q 4144 3584 4550 3584 
Q 5097 3584 5394 3201 
Q 5691 2819 5691 2113 
L 5691 0 
L 5113 0 
L 5113 2094 
Q 5113 2597 4934 2840 
Q 4756 3084 4391 3084 
Q 3944 3084 3684 2787 
Q 3425 2491 3425 1978 
L 3425 0 
L 2847 0 
L 2847 2094 
Q 2847 2600 2669 2842 
Q 2491 3084 2119 3084 
Q 1678 3084 1418 2786 
Q 1159 2488 1159 1978 
L 1159 0 
L 581 0 
L 581 3500 
L 1159 3500 
L 1159 2956 
Q 1356 3278 1631 3431 
Q 1906 3584 2284 3584 
Q 2666 3584 2933 3390 
Q 3200 3197 3328 2828 
z
" id="DejaVuSans-6d" transform="scale(0.015625)"/>
       <path d="M 3597 1894 
L 3597 1613 
L 953 1613 
Q 991 1019 1311 708 
Q 1631 397 2203 397 
Q 2534 397 2845 478 
Q 3156 559 3463 722 
L 3463 178 
Q 3153 47 2828 -22 
Q 2503 -91 2169 -91 
Q 1331 -91 842 396 
Q 353 884 353 1716 
Q 353 2575 817 3079 
Q 1281 3584 2069 3584 
Q 2775 3584 3186 3129 
Q 3597 2675 3597 1894 
z
M 3022 2063 
Q 3016 2534 2758 2815 
Q 2500 3097 2075 3097 
Q 1594 3097 1305 2825 
Q 1016 2553 972 2059 
L 3022 2063 
z
" id="DejaVuSans-65" transform="scale(0.015625)"/>
       <path d="M 2834 3397 
L 2834 2853 
Q 2591 2978 2328 3040 
Q 2066 3103 1784 3103 
Q 1356 3103 1142 2972 
Q 928 2841 928 2578 
Q 928 2378 1081 2264 
Q 1234 2150 1697 2047 
L 1894 2003 
Q 2506 1872 2764 1633 
Q 3022 1394 3022 966 
Q 3022 478 2636 193 
Q 2250 -91 1575 -91 
Q 1294 -91 989 -36 
Q 684 19 347 128 
L 347 722 
Q 666 556 975 473 
Q 1284 391 1588 391 
Q 1994 391 2212 530 
Q 2431 669 2431 922 
Q 2431 1156 2273 1281 
Q 2116 1406 1581 1522 
L 1381 1569 
Q 847 1681 609 1914 
Q 372 2147 372 2553 
Q 372 3047 722 3315 
Q 1072 3584 1716 3584 
Q 2034 3584 2315 3537 
Q 2597 3491 2834 3397 
z
" id="DejaVuSans-73" transform="scale(0.015625)"/>
       <path d="M 1172 4494 
L 1172 3500 
L 2356 3500 
L 2356 3053 
L 1172 3053 
L 1172 1153 
Q 1172 725 1289 603 
Q 1406 481 1766 481 
L 2356 481 
L 2356 0 
L 1766 0 
Q 1100 0 847 248 
Q 594 497 594 1153 
L 594 3053 
L 172 3053 
L 172 3500 
L 594 3500 
L 594 4494 
L 1172 4494 
z
" id="DejaVuSans-74" transform="scale(0.015625)"/>
       <path d="M 1159 525 
L 1159 -1331 
L 581 -1331 
L 581 3500 
L 1159 3500 
L 1159 2969 
Q 1341 3281 1617 3432 
Q 1894 3584 2278 3584 
Q 2916 3584 3314 3078 
Q 3713 2572 3713 1747 
Q 3713 922 3314 415 
Q 2916 -91 2278 -91 
Q 1894 -91 1617 61 
Q 1341 213 1159 525 
z
M 3116 1747 
Q 3116 2381 2855 2742 
Q 2594 3103 2138 3103 
Q 1681 3103 1420 2742 
Q 1159 2381 1159 1747 
Q 1159 1113 1420 752 
Q 1681 391 2138 391 
Q 2594 391 2855 752 
Q 3116 1113 3116 1747 
z
" id="DejaVuSans-70" transform="scale(0.015625)"/>
      </defs>
      <use xlink:href="#DejaVuSans-54"/>
      <use x="57.958984" xlink:href="#DejaVuSans-69"/>
      <use x="85.742188" xlink:href="#DejaVuSans-6d"/>
      <use x="183.154297" xlink:href="#DejaVuSans-65"/>
      <use x="244.677734" xlink:href="#DejaVuSans-73"/>
      <use x="296.777344" xlink:href="#DejaVuSans-74"/>
      <use x="335.986328" xlink:href="#DejaVuSans-65"/>
      <use x="397.509766" xlink:href="#DejaVuSans-70"/>
     </g>
    </g>
   </g>
   <g id="matplotlib.axis_2">
    <g id="ytick_1">
     <g id="line2d_11">
      <defs>
       <path d="M 0 0 
L -4.8 0 
" id="m611c84aeca" style="stroke:#000000;"/>
      </defs>
      <g>
       <use style="stroke:#000000;" x="57.6" xlink:href="#m611c84aeca" y="307.584"/>
      </g>
     </g>
     <g id="text_12">
      <!-- 0 -->
      <g transform="translate(43.701 310.927312)scale(0.088 -0.088)">
       <use xlink:href="#DejaVuSans-30"/>
      </g>
     </g>
    </g>
    <g id="ytick_2">
     <g id="line2d_12">
      <g>
       <use style="stroke:#000000;" x="57.6" xlink:href="#m611c84aeca" y="254.3616"/>
      </g>
     </g>
     <g id="text_13">
      <!-- 200 -->
      <g transform="translate(32.503 257.704912)scale(0.088 -0.088)">
       <use xlink:href="#DejaVuSans-32"/>
       <use x="63.623047" xlink:href="#DejaVuSans-30"/>
       <use x="127.246094" xlink:href="#DejaVuSans-30"/>
      </g>
     </g>
    </g>
    <g id="ytick_3">
     <g id="line2d_13">
      <g>
       <use style="stroke:#000000;" x="57.6" xlink:href="#m611c84aeca" y="201.1392"/>
      </g>
     </g>
     <g id="text_14">
      <!-- 400 -->
      <g transform="translate(32.503 204.482512)scale(0.088 -0.088)">
       <use xlink:href="#DejaVuSans-34"/>
       <use x="63.623047" xlink:href="#DejaVuSans-30"/>
       <use x="127.246094" xlink:href="#DejaVuSans-30"/>
      </g>
     </g>
    </g>
    <g id="ytick_4">
     <g id="line2d_14">
      <g>
       <use style="stroke:#000000;" x="57.6" xlink:href="#m611c84aeca" y="147.9168"/>
      </g>
     </g>
     <g id="text_15">
      <!-- 600 -->
      <g transform="translate(32.503 151.260112)scale(0.088 -0.088)">
       <use xlink:href="#DejaVuSans-36"/>
       <use x="63.623047" xlink:href="#DejaVuSans-30"/>
       <use x="127.246094" xlink:href="#DejaVuSans-30"/>
      </g>
     </g>
    </g>
    <g id="ytick_5">
     <g id="line2d_15">
      <g>
       <use style="stroke:#000000;" x="57.6" xlink:href="#m611c84aeca" y="94.6944"/>
      </g>
     </g>
     <g id="text_16">
      <!-- 800 -->
      <g transform="translate(32.503 98.037712)scale(0.088 -0.088)">
       <use xlink:href="#DejaVuSans-38"/>
       <use x="63.623047" xlink:href="#DejaVuSans-30"/>
       <use x="127.246094" xlink:href="#DejaVuSans-30"/>
      </g>
     </g>
    </g>
    <g id="ytick_6">
     <g id="line2d_16">
      <g>
       <use style="stroke:#000000;" x="57.6" xlink:href="#m611c84aeca" y="41.472"/>
      </g>
     </g>
     <g id="text_17">
      <!-- 1000 -->
      <g transform="translate(26.904 44.815313)scale(0.088 -0.088)">
       <use xlink:href="#DejaVuSans-31"/>
       <use x="63.623047" xlink:href="#DejaVuSans-30"/>
       <use x="127.246094" xlink:href="#DejaVuSans-30"/>
       <use x="190.869141" xlink:href="#DejaVuSans-30"/>
      </g>
     </g>
    </g>
    <g id="text_18">
     <!-- Reward -->
     <g transform="translate(20.9075 192.40425)rotate(-90)scale(0.096 -0.096)">
      <defs>
       <path d="M 2841 2188 
Q 3044 2119 3236 1894 
Q 3428 1669 3622 1275 
L 4263 0 
L 3584 0 
L 2988 1197 
Q 2756 1666 2539 1819 
Q 2322 1972 1947 1972 
L 1259 1972 
L 1259 0 
L 628 0 
L 628 4666 
L 2053 4666 
Q 2853 4666 3247 4331 
Q 3641 3997 3641 3322 
Q 3641 2881 3436 2590 
Q 3231 2300 2841 2188 
z
M 1259 4147 
L 1259 2491 
L 2053 2491 
Q 2509 2491 2742 2702 
Q 2975 2913 2975 3322 
Q 2975 3731 2742 3939 
Q 2509 4147 2053 4147 
L 1259 4147 
z
" id="DejaVuSans-52" transform="scale(0.015625)"/>
       <path d="M 269 3500 
L 844 3500 
L 1563 769 
L 2278 3500 
L 2956 3500 
L 3675 769 
L 4391 3500 
L 4966 3500 
L 4050 0 
L 3372 0 
L 2619 2869 
L 1863 0 
L 1184 0 
L 269 3500 
z
" id="DejaVuSans-77" transform="scale(0.015625)"/>
       <path d="M 2194 1759 
Q 1497 1759 1228 1600 
Q 959 1441 959 1056 
Q 959 750 1161 570 
Q 1363 391 1709 391 
Q 2188 391 2477 730 
Q 2766 1069 2766 1631 
L 2766 1759 
L 2194 1759 
z
M 3341 1997 
L 3341 0 
L 2766 0 
L 2766 531 
Q 2569 213 2275 61 
Q 1981 -91 1556 -91 
Q 1019 -91 701 211 
Q 384 513 384 1019 
Q 384 1609 779 1909 
Q 1175 2209 1959 2209 
L 2766 2209 
L 2766 2266 
Q 2766 2663 2505 2880 
Q 2244 3097 1772 3097 
Q 1472 3097 1187 3025 
Q 903 2953 641 2809 
L 641 3341 
Q 956 3463 1253 3523 
Q 1550 3584 1831 3584 
Q 2591 3584 2966 3190 
Q 3341 2797 3341 1997 
z
" id="DejaVuSans-61" transform="scale(0.015625)"/>
       <path d="M 2631 2963 
Q 2534 3019 2420 3045 
Q 2306 3072 2169 3072 
Q 1681 3072 1420 2755 
Q 1159 2438 1159 1844 
L 1159 0 
L 581 0 
L 581 3500 
L 1159 3500 
L 1159 2956 
Q 1341 3275 1631 3429 
Q 1922 3584 2338 3584 
Q 2397 3584 2469 3576 
Q 2541 3569 2628 3553 
L 2631 2963 
z
" id="DejaVuSans-72" transform="scale(0.015625)"/>
       <path d="M 2906 2969 
L 2906 4863 
L 3481 4863 
L 3481 0 
L 2906 0 
L 2906 525 
Q 2725 213 2448 61 
Q 2172 -91 1784 -91 
Q 1150 -91 751 415 
Q 353 922 353 1747 
Q 353 2572 751 3078 
Q 1150 3584 1784 3584 
Q 2172 3584 2448 3432 
Q 2725 3281 2906 2969 
z
M 947 1747 
Q 947 1113 1208 752 
Q 1469 391 1925 391 
Q 2381 391 2643 752 
Q 2906 1113 2906 1747 
Q 2906 2381 2643 2742 
Q 2381 3103 1925 3103 
Q 1469 3103 1208 2742 
Q 947 2381 947 1747 
z
" id="DejaVuSans-64" transform="scale(0.015625)"/>
      </defs>
      <use xlink:href="#DejaVuSans-52"/>
      <use x="64.982422" xlink:href="#DejaVuSans-65"/>
      <use x="126.505859" xlink:href="#DejaVuSans-77"/>
      <use x="208.292969" xlink:href="#DejaVuSans-61"/>
      <use x="269.572266" xlink:href="#DejaVuSans-72"/>
      <use x="308.935547" xlink:href="#DejaVuSans-64"/>
     </g>
    </g>
   </g>
   <g id="line2d_17">
    <path clip-path="url(#p69d0690dcb)" d="M 57.9968 305.179678 
L 58.3936 304.928202 
L 58.7904 304.336103 
L 59.1872 305.534938 
L 59.584 303.254358 
L 59.9808 304.318806 
L 60.3776 304.196394 
L 60.7744 303.777268 
L 61.1712 304.111238 
L 61.568 304.89893 
L 61.9648 305.94342 
L 62.3616 301.414193 
L 62.7584 304.21103 
L 63.1552 304.042049 
L 63.552 305.0413 
L 63.9488 301.992987 
L 64.3456 301.97569 
L 64.7424 306.112401 
L 65.1392 304.262922 
L 65.536 304.889616 
L 65.9328 302.457352 
L 66.3296 305.455104 
L 66.7264 304.088619 
L 67.1232 304.107247 
L 67.52 303.773276 
L 67.9168 304.753899 
L 68.3136 303.543089 
L 68.7104 304.913566 
L 69.1072 305.158389 
L 69.9008 304.179097 
L 70.2976 303.286291 
L 70.6944 303.793235 
L 71.0912 303.862424 
L 71.488 300.760888 
L 71.8848 304.683379 
L 72.2816 304.04338 
L 72.6784 305.463087 
L 73.0752 304.148494 
L 73.472 300.840722 
L 73.8688 294.949002 
L 74.2656 305.817016 
L 74.6624 294.785343 
L 75.0592 304.918888 
L 75.456 302.131365 
L 75.8528 303.773276 
L 76.2496 304.177766 
L 76.6464 304.18708 
L 77.0432 302.212529 
L 77.44 304.568951 
L 77.8368 305.185 
L 78.2336 302.719473 
L 78.6304 304.784502 
L 79.0272 303.153235 
L 79.424 304.168452 
L 79.8208 300.895275 
L 80.2176 305.887536 
L 80.6144 305.495021 
L 81.0112 302.541178 
L 81.408 304.765874 
L 81.8048 304.739263 
L 82.2016 303.958224 
L 82.5984 297.966712 
L 82.9952 294.327631 
L 83.392 305.866247 
L 83.7888 297.298771 
L 84.1856 305.542921 
L 84.5824 303.564378 
L 84.9792 304.079305 
L 85.376 303.206458 
L 85.7728 304.819096 
L 86.1696 304.032735 
L 86.9632 299.122969 
L 87.36 305.642713 
L 87.7568 305.485707 
L 88.1536 305.859594 
L 88.5504 305.01735 
L 88.9472 304.61419 
L 89.344 301.275815 
L 89.7408 305.554896 
L 90.1376 304.180428 
L 90.5344 305.179678 
L 90.9312 305.250198 
L 91.328 304.181758 
L 91.7248 304.658099 
L 92.1216 302.211199 
L 92.5184 305.761133 
L 92.9152 304.785832 
L 93.312 305.734522 
L 94.1056 298.639976 
L 94.5024 305.431154 
L 94.8992 299.252033 
L 95.6928 304.547662 
L 96.0896 305.669324 
L 96.4864 305.433815 
L 96.8832 304.799138 
L 97.6768 302.5465 
L 98.0736 297.619436 
L 98.4704 304.801799 
L 98.8672 299.254694 
L 99.264 303.001551 
L 99.6608 305.25552 
L 100.0576 304.800468 
L 100.4544 305.629407 
L 100.8512 303.485875 
L 101.248 304.78051 
L 101.6448 300.412282 
L 102.0416 305.823669 
L 102.4384 300.601221 
L 102.8352 304.196394 
L 103.232 305.846289 
L 103.6288 304.889616 
L 104.0256 301.360971 
L 104.4224 305.838305 
L 104.8192 303.2823 
L 105.216 305.918139 
L 106.4064 305.75448 
L 106.8032 304.816435 
L 107.2 302.495939 
L 107.5968 305.097183 
L 107.9936 300.033072 
L 108.3904 300.993736 
L 108.7872 296.63083 
L 109.184 305.70658 
L 109.5808 305.079886 
L 109.9776 302.972279 
L 110.3744 303.576353 
L 110.7712 306.031236 
L 111.168 305.705249 
L 111.5648 306.045873 
L 111.9616 304.889616 
L 112.3584 300.947167 
L 112.7552 300.727624 
L 113.152 303.936935 
L 113.5488 306.017931 
L 113.9456 305.522963 
L 114.7392 299.091036 
L 115.136 298.726462 
L 115.5328 300.732947 
L 115.9296 304.823088 
L 116.3264 303.030824 
L 116.7232 304.965458 
L 117.12 306.186912 
L 117.5168 301.372946 
L 117.9136 301.323715 
L 118.3104 304.769866 
L 118.7072 299.889372 
L 119.104 296.988751 
L 119.5008 303.028163 
L 119.8976 304.990739 
L 120.2944 299.78958 
L 121.088 305.725208 
L 121.4848 297.027337 
L 121.8816 294.726799 
L 122.2784 305.046622 
L 122.6752 299.306586 
L 123.072 298.83956 
L 123.4688 296.706672 
L 123.8656 305.886205 
L 124.2624 304.241633 
L 124.6592 299.544756 
L 125.056 300.233987 
L 125.4528 305.067911 
L 125.8496 305.783752 
L 126.2464 299.816191 
L 126.6432 297.359977 
L 127.04 302.301677 
L 127.4368 301.764131 
L 127.8336 304.183089 
L 128.2304 300.770202 
L 128.6272 304.652776 
L 129.024 301.23989 
L 129.4208 305.312734 
L 129.8176 305.308742 
L 130.2144 300.792822 
L 130.6112 301.749494 
L 131.008 304.201716 
L 131.4048 305.725208 
L 131.8016 298.848874 
L 132.1984 304.757891 
L 132.5952 304.720635 
L 133.7856 305.805041 
L 134.1824 305.512318 
L 134.5792 300.333779 
L 134.976 304.490448 
L 135.3728 302.426749 
L 135.7696 304.840385 
L 136.1664 303.094691 
L 136.5632 305.959386 
L 136.96 304.442548 
L 137.3568 305.902172 
L 137.7536 305.146414 
L 138.1504 305.993981 
L 138.5472 298.852865 
L 138.944 299.023177 
L 139.3408 304.929533 
L 139.7376 303.887704 
L 140.1344 305.029325 
L 140.5312 305.046622 
L 140.928 302.829909 
L 141.3248 305.908825 
L 141.7216 303.706748 
L 142.1184 305.781091 
L 143.3088 301.017686 
L 143.7056 302.996229 
L 144.1024 304.197725 
L 144.4992 303.692112 
L 144.896 305.987328 
L 145.2928 304.795146 
L 145.6896 304.208369 
L 146.0864 305.145084 
L 146.4832 301.065587 
L 146.88 305.996642 
L 147.2768 305.123795 
L 147.6736 305.815686 
L 148.0704 300.332448 
L 148.4672 301.657686 
L 148.864 302.366874 
L 149.2608 304.905583 
L 149.6576 305.077225 
L 150.0544 304.152486 
L 150.4512 305.697266 
L 150.848 301.245212 
L 151.2448 305.586829 
L 151.6416 305.899511 
L 152.0384 302.229827 
L 152.4352 304.278889 
L 153.2288 304.293525 
L 153.6256 304.143172 
L 154.0224 301.0749 
L 154.4192 305.939428 
L 154.816 305.855603 
L 155.2128 302.650284 
L 156.0064 294.51657 
L 156.4032 304.997391 
L 156.8 305.06658 
L 157.1968 303.765293 
L 157.5936 305.681299 
L 157.9904 298.715818 
L 158.3872 305.021341 
L 158.784 294.621684 
L 159.1808 303.875729 
L 159.5776 304.040719 
L 159.9744 300.9791 
L 160.3712 305.960717 
L 160.768 302.374858 
L 161.1648 296.040061 
L 161.5616 305.8729 
L 161.9584 297.399894 
L 162.3552 304.651446 
L 162.752 299.120308 
L 163.1488 305.56554 
L 163.5456 305.924792 
L 163.9424 299.95723 
L 164.3392 304.112569 
L 164.736 299.657854 
L 165.1328 304.966788 
L 165.5296 298.421764 
L 165.9264 297.922804 
L 166.3232 305.689283 
L 166.72 305.854272 
L 167.1168 297.290788 
L 167.5136 295.650207 
L 167.9104 304.238972 
L 168.3072 302.686209 
L 168.704 305.143753 
L 169.1008 295.047464 
L 169.4976 304.928202 
L 169.8944 303.416686 
L 170.2912 304.337434 
L 170.688 302.724795 
L 171.0848 304.866996 
L 171.4816 299.559393 
L 171.8784 305.939428 
L 172.2752 298.875485 
L 173.0688 304.080636 
L 173.4656 302.876479 
L 173.8624 297.751162 
L 174.2592 305.139761 
L 174.656 304.784502 
L 175.0528 301.072239 
L 175.4496 303.179846 
L 175.8464 301.197312 
L 176.2432 301.846625 
L 176.64 295.624927 
L 177.0368 296.870331 
L 177.4336 301.269162 
L 177.8304 295.695446 
L 178.2272 305.628077 
L 178.624 304.926872 
L 179.0208 294.285053 
L 179.4176 297.861598 
L 179.8144 302.889784 
L 180.2112 304.868327 
L 180.608 302.321635 
L 181.0048 306.307993 
L 181.4016 302.691531 
L 181.7984 306.108409 
L 182.1952 304.016769 
L 182.592 299.713738 
L 182.9888 304.910905 
L 183.3856 306.124376 
L 183.7824 301.52596 
L 184.1792 305.742505 
L 184.576 305.387245 
L 184.9728 302.670242 
L 185.3696 306.065831 
L 185.7664 302.823256 
L 186.1632 301.625752 
L 186.56 305.01735 
L 186.9568 304.273567 
L 187.3536 302.558475 
L 187.7504 306.04055 
L 188.1472 304.191072 
L 188.544 305.82633 
L 188.9408 297.268168 
L 189.3376 305.608118 
L 189.7344 302.027581 
L 190.1312 302.30966 
L 190.9248 305.513649 
L 191.3216 302.470658 
L 191.7184 306.045873 
L 192.1152 302.372196 
L 192.512 305.750488 
L 192.9088 305.811694 
L 193.3056 301.595149 
L 193.7024 306.012609 
L 194.0992 305.721216 
L 194.496 305.912817 
L 194.8928 305.596143 
L 195.2896 305.739844 
L 195.6864 298.892782 
L 196.0832 304.226997 
L 196.48 305.923461 
L 196.8768 304.238972 
L 197.2736 301.774775 
L 197.6704 304.260261 
L 198.0672 305.84895 
L 198.464 300.343092 
L 198.8608 305.876892 
L 199.2576 304.372028 
L 199.6544 305.687952 
L 200.0512 303.09336 
L 200.448 305.836975 
L 200.8448 304.165791 
L 201.2416 305.914147 
L 201.6384 300.798144 
L 202.0352 304.944169 
L 202.432 302.251116 
L 202.8288 306.055187 
L 203.2256 304.796477 
L 203.6224 297.696609 
L 204.0192 298.216858 
L 204.416 305.935436 
L 204.8128 304.220344 
L 205.2096 304.055355 
L 205.6064 305.936767 
L 206.0032 296.492452 
L 206.7968 303.886374 
L 207.1936 300.578602 
L 207.5904 305.847619 
L 207.9872 300.634485 
L 208.384 299.266669 
L 208.7808 301.156065 
L 209.1776 305.899511 
L 209.9712 301.195981 
L 210.368 303.849118 
L 210.7648 296.718647 
L 211.1616 295.449293 
L 211.5584 300.980431 
L 211.9552 300.210036 
L 212.352 305.069242 
L 212.7488 306.004625 
L 213.1456 296.372701 
L 213.5424 303.326208 
L 213.9392 302.248454 
L 214.336 294.114741 
L 214.7328 296.8211 
L 215.1296 306.056517 
L 215.5264 297.949415 
L 215.9232 296.244968 
L 216.32 301.235898 
L 216.7168 300.176772 
L 217.1136 304.4013 
L 217.5104 299.236067 
L 217.9072 302.579764 
L 218.304 298.03324 
L 218.7008 300.236648 
L 219.0976 303.315564 
L 219.4944 299.507501 
L 219.8912 302.096771 
L 220.288 296.576277 
L 220.6848 298.139685 
L 221.0816 302.18991 
L 221.4784 296.718647 
L 221.8752 297.701931 
L 222.272 302.460013 
L 222.6688 302.811281 
L 223.0656 299.31457 
L 223.4624 302.992237 
L 223.8592 304.705999 
L 224.256 296.923553 
L 224.6528 298.860849 
L 225.0496 301.631075 
L 225.4464 305.479054 
L 225.8432 304.680718 
L 226.24 305.836975 
L 227.0336 295.910997 
L 227.4304 298.685215 
L 227.8272 304.973441 
L 228.224 305.955395 
L 229.0176 297.481058 
L 229.4144 304.345417 
L 229.8112 305.834314 
L 230.208 299.462262 
L 230.6048 303.088038 
L 231.0016 300.71831 
L 231.3984 302.056854 
L 231.7952 295.535779 
L 232.192 304.859013 
L 232.5888 305.934106 
L 232.9856 302.416105 
L 233.3824 305.922131 
L 233.7792 299.616607 
L 234.176 305.239553 
L 234.5728 305.753149 
L 234.9696 305.179678 
L 235.3664 304.348078 
L 235.7632 299.735027 
L 236.16 300.138186 
L 236.5568 305.521632 
L 236.9536 302.485294 
L 237.3504 301.490035 
L 237.7472 305.726538 
L 238.144 305.758472 
L 238.5408 299.374445 
L 238.9376 301.821345 
L 239.3344 300.394984 
L 239.7312 301.861261 
L 240.128 302.388163 
L 240.5248 305.775769 
L 240.9216 302.068829 
L 241.3184 305.594813 
L 241.7152 304.865666 
L 242.112 299.663176 
L 242.5088 305.886205 
L 242.9056 299.07906 
L 243.3024 305.703919 
L 243.6992 305.809033 
L 244.096 304.716643 
L 244.4928 300.603882 
L 244.8896 298.928707 
L 245.2864 306.003295 
L 245.6832 304.18575 
L 246.08 304.226997 
L 246.4768 306.065831 
L 246.8736 305.61078 
L 247.2704 298.172949 
L 247.6672 305.055936 
L 248.064 297.944093 
L 248.4608 304.205708 
L 248.8576 304.252278 
L 249.2544 296.336776 
L 249.6512 298.691868 
L 250.048 297.120476 
L 250.4448 296.923553 
L 250.8416 298.747751 
L 251.2384 304.918888 
L 251.6352 295.32422 
L 252.032 305.521632 
L 252.4288 297.906837 
L 252.8256 305.711902 
L 253.2224 296.256943 
L 253.6192 294.980936 
L 254.016 304.316145 
L 254.4128 302.758059 
L 254.8096 304.763213 
L 255.2064 297.519644 
L 255.6032 304.763213 
L 256 302.78467 
L 256.7936 301.189329 
L 257.1904 304.716643 
L 257.5872 304.340095 
L 257.984 301.765461 
L 258.3808 301.648372 
L 258.7776 303.312902 
L 259.1744 305.858264 
L 259.5712 301.946417 
L 259.968 301.756147 
L 260.3648 303.314233 
L 260.7616 304.308161 
L 261.1584 304.917558 
L 261.5552 304.94683 
L 261.952 303.057435 
L 262.3488 302.95099 
L 262.7456 304.683379 
L 263.1424 301.894525 
L 263.5392 300.164797 
L 263.936 297.116484 
L 264.3328 296.127878 
L 264.7296 296.290207 
L 265.1264 304.861674 
L 265.5232 304.429242 
L 266.3168 297.151079 
L 266.7136 305.054605 
L 267.1104 301.92912 
L 267.5072 305.866247 
L 267.904 302.07282 
L 268.3008 301.165379 
L 268.6976 298.312658 
L 269.0944 303.412694 
L 269.888 298.101099 
L 270.2848 298.461681 
L 270.6816 304.32812 
L 271.0784 296.72663 
L 271.4752 305.443129 
L 271.872 297.531619 
L 272.2688 297.221599 
L 272.6656 305.729199 
L 273.0624 304.18708 
L 273.4592 301.364963 
L 273.856 305.99132 
L 274.2528 298.105091 
L 274.6496 306.005956 
L 275.0464 304.908244 
L 275.4432 301.913153 
L 276.2368 304.760552 
L 276.6336 300.206045 
L 277.0304 301.6191 
L 277.4272 297.020684 
L 277.824 301.122801 
L 278.2208 300.649121 
L 278.6176 305.749158 
L 279.4112 303.873068 
L 279.808 301.937103 
L 280.2048 305.365956 
L 280.6016 300.554652 
L 280.9984 305.815686 
L 281.3952 302.442716 
L 281.792 305.582838 
L 282.1888 302.471988 
L 282.5856 302.393485 
L 282.9824 298.212866 
L 283.3792 305.522963 
L 283.776 304.611529 
L 284.1728 302.817934 
L 284.5696 296.087962 
L 285.3632 305.39789 
L 285.76 296.537691 
L 286.1568 302.730117 
L 286.5536 305.175686 
L 286.9504 298.930038 
L 287.3472 300.115567 
L 287.744 305.214273 
L 288.1408 305.620093 
L 288.5376 300.364381 
L 288.9344 305.770447 
L 289.3312 300.114236 
L 289.728 304.92288 
L 290.1248 301.45278 
L 290.5216 305.679969 
L 290.9184 303.13993 
L 291.3152 306.107078 
L 291.712 300.497437 
L 292.1088 305.311404 
L 292.5056 294.388836 
L 292.9024 305.331362 
L 293.2992 297.737856 
L 293.696 305.339345 
L 294.0928 304.51839 
L 294.4896 302.091448 
L 294.8864 303.370116 
L 295.2832 299.846794 
L 295.68 300.424257 
L 296.0768 302.35756 
L 296.4736 304.904252 
L 296.8704 302.780678 
L 297.2672 305.75448 
L 297.664 305.443129 
L 298.0608 304.610198 
L 298.4576 300.997728 
L 298.8544 305.457765 
L 299.2512 303.632237 
L 299.648 305.274148 
L 300.0448 294.39682 
L 300.4416 305.775769 
L 300.8384 299.353156 
L 301.2352 305.870239 
L 301.632 298.55615 
L 302.0288 299.257356 
L 302.4256 305.671985 
L 302.8224 298.439061 
L 303.2192 301.631075 
L 303.616 301.197312 
L 304.0128 299.132283 
L 304.4096 305.30209 
L 304.8064 300.686377 
L 305.2032 305.675977 
L 305.6 305.23157 
L 305.9968 302.448038 
L 306.3936 302.156646 
L 306.7904 300.017105 
L 307.1872 302.33228 
L 307.584 300.540015 
L 307.9808 300.815441 
L 308.3776 302.724795 
L 308.7744 302.394816 
L 309.1712 304.937516 
L 309.568 299.535443 
L 309.9648 305.263503 
L 310.3616 305.762463 
L 310.7584 299.572698 
L 311.1552 305.932775 
L 311.552 298.965963 
L 311.9488 302.326957 
L 312.3456 299.33852 
L 312.7424 301.269162 
L 313.1392 305.73053 
L 313.536 301.460763 
L 313.9328 304.51972 
L 314.3296 297.615444 
L 314.7264 296.115903 
L 315.1232 305.758472 
L 315.52 298.375194 
L 315.9168 302.719473 
L 316.3136 304.973441 
L 316.7104 305.648035 
L 317.1072 303.018849 
L 317.504 303.335522 
L 317.9008 298.465672 
L 318.2976 296.479146 
L 318.6944 299.208125 
L 319.0912 304.928202 
L 319.488 304.78051 
L 319.8848 304.961466 
L 320.2816 295.841808 
L 320.6784 300.304506 
L 321.0752 298.932699 
L 321.472 303.275647 
L 321.8688 305.532276 
L 322.2656 304.357392 
L 322.6624 298.196899 
L 323.0592 305.079886 
L 323.456 302.550492 
L 323.8528 297.003387 
L 324.2496 302.613028 
L 324.6464 301.925128 
L 325.0432 305.134439 
L 325.44 304.82708 
L 325.8368 302.718142 
L 326.2336 302.058184 
L 326.6304 304.425251 
L 327.0272 304.441217 
L 327.424 304.191072 
L 327.8208 300.469496 
L 328.2176 298.855526 
L 328.6144 298.328625 
L 329.0112 297.029998 
L 329.8048 305.609449 
L 330.2016 301.817353 
L 330.5984 304.658099 
L 330.9952 300.826086 
L 331.392 300.952489 
L 331.7888 296.980767 
L 332.1856 305.767786 
L 332.5824 302.400138 
L 332.9792 296.782514 
L 333.376 304.374689 
L 333.7728 298.512242 
L 334.1696 303.147913 
L 334.5664 298.718479 
L 334.9632 305.831652 
L 335.36 296.622847 
L 335.7568 297.81769 
L 336.1536 301.400888 
L 336.5504 302.444047 
L 336.9472 304.974772 
L 337.7408 302.545169 
L 338.1376 297.86559 
L 338.5344 296.097276 
L 338.9312 296.803803 
L 339.328 299.994486 
L 339.7248 298.441722 
L 340.1216 304.344086 
L 340.5184 304.554315 
L 341.312 296.93952 
L 341.7088 296.300851 
L 342.1056 301.133445 
L 342.8992 304.910905 
L 343.296 305.666663 
L 343.6928 305.119803 
L 344.0896 305.723877 
L 344.4864 297.269499 
L 344.8832 305.82633 
L 345.28 303.979513 
L 345.6768 299.914652 
L 346.0736 304.514398 
L 346.4704 300.83673 
L 346.8672 299.237397 
L 347.264 299.076399 
L 347.6608 298.160974 
L 348.0576 304.481134 
L 348.4544 300.783508 
L 348.8512 305.713233 
L 349.248 303.94758 
L 349.6448 304.791155 
L 350.0416 297.20031 
L 350.4384 304.580926 
L 350.8352 305.715894 
L 351.232 300.759558 
L 351.6288 298.525548 
L 352.0256 300.26592 
L 352.4224 298.973946 
L 352.8192 300.822094 
L 353.216 297.712575 
L 353.6128 299.2201 
L 354.0096 301.720222 
L 354.4064 300.561304 
L 354.8032 301.165379 
L 355.2 295.820519 
L 355.5968 304.952152 
L 355.9936 305.192984 
L 356.7872 301.424838 
L 357.184 302.432072 
L 357.5808 302.30833 
L 357.9776 304.635479 
L 358.3744 296.96347 
L 358.7712 296.287546 
L 359.168 303.358141 
L 359.5648 300.653113 
L 359.9616 302.754067 
L 360.3584 303.225085 
L 360.7552 304.559637 
L 361.152 302.360221 
L 361.5488 303.71074 
L 361.9456 299.518145 
L 362.3424 305.685291 
L 362.7392 304.976102 
L 363.136 302.864504 
L 363.5328 301.971698 
L 363.9296 299.842802 
L 364.3264 300.460182 
L 364.7232 296.500435 
L 365.12 299.717729 
L 365.5168 297.434488 
L 365.9136 303.086707 
L 366.3104 305.095853 
L 366.7072 297.864259 
L 367.104 305.718555 
L 367.5008 298.215527 
L 367.8976 305.617432 
L 368.2944 299.041805 
L 368.6912 297.62875 
L 369.088 305.190323 
L 369.4848 305.739844 
L 369.8816 305.067911 
L 370.2784 305.810364 
L 370.6752 296.666755 
L 371.072 300.128872 
L 371.4688 305.597474 
L 371.8656 298.509581 
L 372.2624 298.931368 
L 372.6592 305.703919 
L 373.056 295.434657 
L 373.4528 301.416854 
L 373.8496 304.768535 
L 374.2464 305.959386 
L 374.6432 301.411532 
L 375.04 302.718142 
L 375.4368 304.437226 
L 375.8336 298.187585 
L 376.2304 304.462506 
L 376.6272 304.461176 
L 377.024 305.900842 
L 377.4208 299.845463 
L 377.8176 304.127205 
L 378.2144 301.970367 
L 378.6112 303.895688 
L 379.008 304.958805 
L 379.4048 304.768535 
L 379.8016 305.762463 
L 380.1984 304.844377 
L 380.5952 299.50484 
L 380.992 304.064669 
L 381.3888 302.414774 
L 381.7856 305.710572 
L 382.1824 296.397982 
L 382.5792 304.799138 
L 382.976 301.194651 
L 383.3728 300.041055 
L 383.7696 296.622847 
L 384.1664 304.976102 
L 384.5632 304.77918 
L 384.96 295.25237 
L 385.3568 299.118977 
L 385.7536 304.711321 
L 386.1504 298.391161 
L 386.5472 297.623428 
L 386.944 299.954569 
L 387.3408 301.541927 
L 387.7376 302.136687 
L 388.1344 305.098514 
L 388.5312 304.173775 
L 388.928 298.164966 
L 389.3248 294.30235 
L 389.7216 304.87631 
L 390.1184 299.523468 
L 390.912 305.01735 
L 391.3088 304.345417 
L 391.7056 303.287622 
L 392.1024 304.882963 
L 392.4992 296.379354 
L 392.896 305.155728 
L 393.2928 305.401882 
L 393.6896 298.137024 
L 394.0864 298.657273 
L 394.4832 302.6423 
L 394.88 302.840554 
L 395.2768 305.162381 
L 395.6736 301.601802 
L 396.0704 305.681299 
L 396.4672 303.596312 
L 396.864 300.514735 
L 397.2608 304.591571 
L 397.6576 300.373695 
L 398.0544 305.32604 
L 398.4512 306.057848 
L 398.848 305.01735 
L 399.2448 302.786001 
L 399.6416 299.355817 
L 400.0384 305.000052 
L 400.4352 297.904176 
L 400.832 305.109158 
L 401.2288 296.809125 
L 402.0224 305.755811 
L 402.4192 305.143753 
L 402.816 297.954737 
L 403.2128 305.85028 
L 404.0064 297.253532 
L 404.4032 301.14542 
L 404.8 297.635403 
L 405.1968 305.761133 
L 405.5936 300.546668 
L 405.9904 302.933693 
L 406.3872 300.127542 
L 406.784 303.227747 
L 407.1808 303.783921 
L 407.5776 304.882963 
L 407.9744 302.534525 
L 408.3712 297.988001 
L 408.768 303.017518 
L 409.1648 304.847038 
L 409.5616 302.537186 
L 409.9584 305.456435 
L 410.3552 302.354899 
L 410.752 305.262173 
L 411.1488 304.515729 
L 411.5456 305.678638 
L 411.9424 296.576277 
L 412.3392 304.92288 
L 412.736 302.719473 
L 413.1328 299.81486 
L 413.5296 299.892033 
L 414.3232 304.917558 
L 414.72 302.187249 
L 415.1168 305.85028 
L 415.9104 296.420602 
L 416.3072 305.006705 
L 416.704 304.950822 
L 417.1008 304.297517 
L 417.4976 298.272741 
L 417.8944 305.629407 
L 418.2912 304.23365 
L 418.688 306.055187 
L 419.0848 304.757891 
L 419.4816 306.055187 
L 420.2752 298.125049 
L 421.0688 305.449782 
L 421.4656 302.184588 
L 421.8624 302.341594 
L 422.2592 301.019017 
L 422.656 305.746497 
L 423.0528 300.263259 
L 423.4496 302.094109 
L 423.8464 302.554483 
L 424.2432 301.899848 
L 424.64 297.986671 
L 425.0368 303.016188 
L 425.4336 305.701258 
L 425.8304 305.464418 
L 426.2272 302.565128 
L 426.624 303.154566 
L 427.0208 299.154902 
L 427.4176 296.51108 
L 427.8144 299.516815 
L 428.2112 297.469083 
L 428.608 296.521724 
L 429.0048 304.767204 
L 429.4016 297.379935 
L 429.7984 304.116561 
L 430.1952 299.918644 
L 430.592 298.630662 
L 431.3856 302.153985 
L 431.7824 305.006705 
L 432.1792 305.782422 
L 432.576 305.472401 
L 432.9728 305.435146 
L 433.3696 299.519476 
L 434.1632 303.060096 
L 434.56 304.085958 
L 434.9568 305.670655 
L 435.3536 305.807702 
L 435.7504 302.372196 
L 436.1472 302.067498 
L 436.544 296.585591 
L 436.9408 300.81278 
L 437.3376 299.756316 
L 437.7344 296.645466 
L 438.1312 301.577852 
L 438.528 302.07282 
L 438.9248 304.465167 
L 439.7184 295.781933 
L 440.1152 297.298771 
L 440.512 304.719304 
L 440.9088 304.056685 
L 441.3056 304.889616 
L 441.7024 304.183089 
L 442.0992 302.181926 
L 442.496 305.653357 
L 442.8928 297.375944 
L 443.2896 302.646292 
L 443.6864 300.830077 
L 444.0832 301.222593 
L 444.48 297.112493 
L 445.2736 305.134439 
L 445.6704 304.133858 
L 446.0672 301.484713 
L 446.464 301.423507 
L 446.8608 295.647546 
L 447.2576 297.241557 
L 447.6544 297.175029 
L 448.0512 298.659934 
L 448.448 302.123382 
L 448.8448 299.950577 
L 449.2416 304.932194 
L 449.6384 299.798893 
L 450.0352 300.14617 
L 450.432 302.711489 
L 450.8288 294.656279 
L 451.2256 295.412037 
L 451.6224 295.082058 
L 452.0192 301.157395 
L 452.416 294.999564 
L 452.8128 299.03116 
L 453.2096 300.071658 
L 453.2096 300.071658 
" style="fill:none;stroke:#1f77b4;stroke-linecap:square;stroke-width:1.2;"/>
   </g>
   <g id="patch_3">
    <path d="M 57.6 307.584 
L 57.6 41.472 
" style="fill:none;stroke:#000000;stroke-linecap:square;stroke-linejoin:miter;"/>
   </g>
   <g id="patch_4">
    <path d="M 414.72 307.584 
L 414.72 41.472 
" style="fill:none;stroke:#000000;stroke-linecap:square;stroke-linejoin:miter;"/>
   </g>
   <g id="patch_5">
    <path d="M 57.6 307.584 
L 414.72 307.584 
" style="fill:none;stroke:#000000;stroke-linecap:square;stroke-linejoin:miter;"/>
   </g>
   <g id="patch_6">
    <path d="M 57.6 41.472 
L 414.72 41.472 
" style="fill:none;stroke:#000000;stroke-linecap:square;stroke-linejoin:miter;"/>
   </g>
   <g id="text_19">
    <!-- Training - NS-ES - Cartpole -->
    <g transform="translate(172.788 35.472)scale(0.096 -0.096)">
     <defs>
      <path d="M 3513 2113 
L 3513 0 
L 2938 0 
L 2938 2094 
Q 2938 2591 2744 2837 
Q 2550 3084 2163 3084 
Q 1697 3084 1428 2787 
Q 1159 2491 1159 1978 
L 1159 0 
L 581 0 
L 581 3500 
L 1159 3500 
L 1159 2956 
Q 1366 3272 1645 3428 
Q 1925 3584 2291 3584 
Q 2894 3584 3203 3211 
Q 3513 2838 3513 2113 
z
" id="DejaVuSans-6e" transform="scale(0.015625)"/>
      <path d="M 2906 1791 
Q 2906 2416 2648 2759 
Q 2391 3103 1925 3103 
Q 1463 3103 1205 2759 
Q 947 2416 947 1791 
Q 947 1169 1205 825 
Q 1463 481 1925 481 
Q 2391 481 2648 825 
Q 2906 1169 2906 1791 
z
M 3481 434 
Q 3481 -459 3084 -895 
Q 2688 -1331 1869 -1331 
Q 1566 -1331 1297 -1286 
Q 1028 -1241 775 -1147 
L 775 -588 
Q 1028 -725 1275 -790 
Q 1522 -856 1778 -856 
Q 2344 -856 2625 -561 
Q 2906 -266 2906 331 
L 2906 616 
Q 2728 306 2450 153 
Q 2172 0 1784 0 
Q 1141 0 747 490 
Q 353 981 353 1791 
Q 353 2603 747 3093 
Q 1141 3584 1784 3584 
Q 2172 3584 2450 3431 
Q 2728 3278 2906 2969 
L 2906 3500 
L 3481 3500 
L 3481 434 
z
" id="DejaVuSans-67" transform="scale(0.015625)"/>
      <path id="DejaVuSans-20" transform="scale(0.015625)"/>
      <path d="M 313 2009 
L 1997 2009 
L 1997 1497 
L 313 1497 
L 313 2009 
z
" id="DejaVuSans-2d" transform="scale(0.015625)"/>
      <path d="M 628 4666 
L 1478 4666 
L 3547 763 
L 3547 4666 
L 4159 4666 
L 4159 0 
L 3309 0 
L 1241 3903 
L 1241 0 
L 628 0 
L 628 4666 
z
" id="DejaVuSans-4e" transform="scale(0.015625)"/>
      <path d="M 3425 4513 
L 3425 3897 
Q 3066 4069 2747 4153 
Q 2428 4238 2131 4238 
Q 1616 4238 1336 4038 
Q 1056 3838 1056 3469 
Q 1056 3159 1242 3001 
Q 1428 2844 1947 2747 
L 2328 2669 
Q 3034 2534 3370 2195 
Q 3706 1856 3706 1288 
Q 3706 609 3251 259 
Q 2797 -91 1919 -91 
Q 1588 -91 1214 -16 
Q 841 59 441 206 
L 441 856 
Q 825 641 1194 531 
Q 1563 422 1919 422 
Q 2459 422 2753 634 
Q 3047 847 3047 1241 
Q 3047 1584 2836 1778 
Q 2625 1972 2144 2069 
L 1759 2144 
Q 1053 2284 737 2584 
Q 422 2884 422 3419 
Q 422 4038 858 4394 
Q 1294 4750 2059 4750 
Q 2388 4750 2728 4690 
Q 3069 4631 3425 4513 
z
" id="DejaVuSans-53" transform="scale(0.015625)"/>
      <path d="M 628 4666 
L 3578 4666 
L 3578 4134 
L 1259 4134 
L 1259 2753 
L 3481 2753 
L 3481 2222 
L 1259 2222 
L 1259 531 
L 3634 531 
L 3634 0 
L 628 0 
L 628 4666 
z
" id="DejaVuSans-45" transform="scale(0.015625)"/>
      <path d="M 4122 4306 
L 4122 3641 
Q 3803 3938 3442 4084 
Q 3081 4231 2675 4231 
Q 1875 4231 1450 3742 
Q 1025 3253 1025 2328 
Q 1025 1406 1450 917 
Q 1875 428 2675 428 
Q 3081 428 3442 575 
Q 3803 722 4122 1019 
L 4122 359 
Q 3791 134 3420 21 
Q 3050 -91 2638 -91 
Q 1578 -91 968 557 
Q 359 1206 359 2328 
Q 359 3453 968 4101 
Q 1578 4750 2638 4750 
Q 3056 4750 3426 4639 
Q 3797 4528 4122 4306 
z
" id="DejaVuSans-43" transform="scale(0.015625)"/>
      <path d="M 1959 3097 
Q 1497 3097 1228 2736 
Q 959 2375 959 1747 
Q 959 1119 1226 758 
Q 1494 397 1959 397 
Q 2419 397 2687 759 
Q 2956 1122 2956 1747 
Q 2956 2369 2687 2733 
Q 2419 3097 1959 3097 
z
M 1959 3584 
Q 2709 3584 3137 3096 
Q 3566 2609 3566 1747 
Q 3566 888 3137 398 
Q 2709 -91 1959 -91 
Q 1206 -91 779 398 
Q 353 888 353 1747 
Q 353 2609 779 3096 
Q 1206 3584 1959 3584 
z
" id="DejaVuSans-6f" transform="scale(0.015625)"/>
      <path d="M 603 4863 
L 1178 4863 
L 1178 0 
L 603 0 
L 603 4863 
z
" id="DejaVuSans-6c" transform="scale(0.015625)"/>
     </defs>
     <use xlink:href="#DejaVuSans-54"/>
     <use x="46.333984" xlink:href="#DejaVuSans-72"/>
     <use x="87.447266" xlink:href="#DejaVuSans-61"/>
     <use x="148.726562" xlink:href="#DejaVuSans-69"/>
     <use x="176.509766" xlink:href="#DejaVuSans-6e"/>
     <use x="239.888672" xlink:href="#DejaVuSans-69"/>
     <use x="267.671875" xlink:href="#DejaVuSans-6e"/>
     <use x="331.050781" xlink:href="#DejaVuSans-67"/>
     <use x="394.527344" xlink:href="#DejaVuSans-20"/>
     <use x="426.314453" xlink:href="#DejaVuSans-2d"/>
     <use x="462.398438" xlink:href="#DejaVuSans-20"/>
     <use x="494.185547" xlink:href="#DejaVuSans-4e"/>
     <use x="568.990234" xlink:href="#DejaVuSans-53"/>
     <use x="632.466797" xlink:href="#DejaVuSans-2d"/>
     <use x="668.550781" xlink:href="#DejaVuSans-45"/>
     <use x="731.734375" xlink:href="#DejaVuSans-53"/>
     <use x="795.210938" xlink:href="#DejaVuSans-20"/>
     <use x="826.998047" xlink:href="#DejaVuSans-2d"/>
     <use x="863.082031" xlink:href="#DejaVuSans-20"/>
     <use x="894.869141" xlink:href="#DejaVuSans-43"/>
     <use x="964.693359" xlink:href="#DejaVuSans-61"/>
     <use x="1025.972656" xlink:href="#DejaVuSans-72"/>
     <use x="1067.085938" xlink:href="#DejaVuSans-74"/>
     <use x="1106.294922" xlink:href="#DejaVuSans-70"/>
     <use x="1169.771484" xlink:href="#DejaVuSans-6f"/>
     <use x="1230.953125" xlink:href="#DejaVuSans-6c"/>
     <use x="1258.736328" xlink:href="#DejaVuSans-65"/>
    </g>
   </g>
  </g>
 </g>
 <defs>
  <clipPath id="p69d0690dcb">
   <rect height="266.112" width="357.12" x="57.6" y="41.472"/>
  </clipPath>
 </defs>
</svg>
