<?xml version="1.0" encoding="utf-8" standalone="no"?>
<!DOCTYPE svg PUBLIC "-//W3C//DTD SVG 1.1//EN"
  "http://www.w3.org/Graphics/SVG/1.1/DTD/svg11.dtd">
<svg height="345.6pt" version="1.1" viewBox="0 0 460.8 345.6" width="460.8pt" xmlns="http://www.w3.org/2000/svg" xmlns:xlink="http://www.w3.org/1999/xlink">
 <metadata>
  <rdf:RDF xmlns:cc="http://creativecommons.org/ns#" xmlns:dc="http://purl.org/dc/elements/1.1/" xmlns:rdf="http://www.w3.org/1999/02/22-rdf-syntax-ns#">
   <cc:Work>
    <dc:type rdf:resource="http://purl.org/dc/dcmitype/StillImage"/>
    <dc:date>2021-07-22T00:42:22.805619</dc:date>
    <dc:format>image/svg+xml</dc:format>
    <dc:creator>
     <cc:Agent>
      <dc:title>Matplotlib v3.4.2, https://matplotlib.org/</dc:title>
     </cc:Agent>
    </dc:creator>
   </cc:Work>
  </rdf:RDF>
 </metadata>
 <defs>
  <style type="text/css">*{stroke-linecap:butt;stroke-linejoin:round;}</style>
 </defs>
 <g id="figure_1">
  <g id="patch_1">
   <path d="M 0 345.6 
L 460.8 345.6 
L 460.8 0 
L 0 0 
z
" style="fill:#ffffff;"/>
  </g>
  <g id="axes_1">
   <g id="patch_2">
    <path d="M 57.6 307.584 
L 414.72 307.584 
L 414.72 41.472 
L 57.6 41.472 
z
" style="fill:#ffffff;"/>
   </g>
   <g id="PolyCollection_1">
    <path clip-path="url(#p6b24120da2)" d="M 73.832727 303.689451 
L 73.832727 304.391321 
L 74.157707 305.119803 
L 74.482686 303.011531 
L 74.807666 300.464173 
L 75.132645 297.658022 
L 75.457625 292.649795 
L 75.782604 289.011378 
L 76.107584 287.86377 
L 76.432563 287.439322 
L 76.757543 286.607056 
L 77.082523 289.012044 
L 77.407502 289.290796 
L 77.732482 287.784602 
L 78.057461 287.354166 
L 78.382441 286.837243 
L 78.70742 277.933136 
L 79.0324 277.078251 
L 79.357379 276.449561 
L 79.682359 276.166152 
L 80.007338 273.851643 
L 80.332318 275.766319 
L 80.657297 272.877673 
L 80.982277 270.691563 
L 81.307256 269.29514 
L 81.632236 268.466201 
L 81.957215 268.09431 
L 82.282195 267.180215 
L 82.607174 264.237016 
L 82.932154 262.089492 
L 83.257133 261.830699 
L 83.582113 259.032531 
L 83.907093 258.421139 
L 84.232072 258.853571 
L 84.557052 250.692581 
L 84.882031 247.482605 
L 85.207011 251.433037 
L 85.53199 243.640613 
L 85.85697 239.114713 
L 86.181949 239.396792 
L 86.506929 227.934683 
L 86.831908 224.009531 
L 87.156888 226.481711 
L 87.481867 220.391073 
L 87.806847 217.763217 
L 88.131826 217.491117 
L 88.456806 215.6443 
L 88.781785 207.547842 
L 89.106765 201.319491 
L 89.431744 202.454459 
L 89.756724 201.012797 
L 90.081704 195.965983 
L 90.406683 196.052469 
L 90.731663 190.718919 
L 91.056642 188.192186 
L 91.381622 188.109691 
L 91.706601 189.893307 
L 92.031581 187.494972 
L 92.35656 182.73689 
L 92.68154 183.610403 
L 93.006519 181.559344 
L 93.331499 177.775897 
L 93.656478 175.766751 
L 93.981458 172.490913 
L 94.306437 171.839604 
L 94.631417 168.483266 
L 94.956396 168.782642 
L 95.281376 169.994782 
L 95.606355 169.878358 
L 95.931335 168.400771 
L 96.256314 168.342892 
L 96.581294 167.208589 
L 96.906274 163.916119 
L 97.231253 165.768924 
L 97.556233 163.785059 
L 97.881212 161.582316 
L 98.206192 163.370589 
L 98.531171 163.076535 
L 98.856151 161.273627 
L 99.18113 160.344896 
L 99.50611 159.264481 
L 99.831089 159.64236 
L 100.156069 159.201279 
L 100.481048 158.95446 
L 100.806028 158.165438 
L 101.131007 158.11022 
L 101.455987 159.092173 
L 101.780966 157.776915 
L 102.105946 155.801699 
L 102.430925 155.990638 
L 102.755905 154.763196 
L 103.080885 154.656752 
L 103.405864 154.685359 
L 103.730844 155.474381 
L 104.055823 153.623572 
L 104.380803 153.410682 
L 104.705782 153.58432 
L 105.030762 154.196378 
L 105.355741 154.125193 
L 105.680721 154.907562 
L 106.0057 152.102076 
L 106.33068 151.549894 
L 106.655659 151.906484 
L 106.980639 151.703574 
L 107.305618 152.003615 
L 107.630598 152.417419 
L 107.955577 151.054926 
L 108.280557 151.35031 
L 108.605536 154.081284 
L 108.930516 152.694176 
L 109.255495 150.743575 
L 109.580475 150.136839 
L 109.905455 150.504739 
L 110.230434 150.446195 
L 110.555414 149.68711 
L 110.880393 158.661072 
L 111.205373 153.259664 
L 111.530352 163.231546 
L 111.855332 161.090675 
L 112.180311 152.958292 
L 112.505291 155.734505 
L 112.83027 152.235798 
L 113.15525 159.579824 
L 113.480229 148.548151 
L 113.805209 149.118296 
L 114.130188 147.899503 
L 114.455168 147.864908 
L 114.780147 147.783079 
L 115.105127 146.659421 
L 115.430106 148.500916 
L 115.755086 145.569692 
L 116.080066 146.640128 
L 116.405045 145.633559 
L 116.730025 145.764619 
L 117.055004 144.384828 
L 117.379984 142.801462 
L 117.704963 142.385662 
L 118.029943 144.111398 
L 118.354922 141.856764 
L 118.679902 142.505412 
L 119.004881 142.006452 
L 119.329861 142.67772 
L 119.65484 141.158886 
L 119.97982 141.024499 
L 120.304799 142.751566 
L 120.629779 141.443626 
L 120.954758 142.695017 
L 121.279738 141.591983 
L 121.604717 141.37111 
L 121.929697 141.61926 
L 122.254676 141.573355 
L 122.579656 141.498179 
L 122.904636 140.162296 
L 123.229615 140.167619 
L 123.554595 140.435726 
L 123.879574 139.867577 
L 124.204554 140.025249 
L 124.529533 139.670654 
L 124.854513 139.022006 
L 125.179492 137.718723 
L 125.504472 138.743254 
L 125.829451 139.122464 
L 126.154431 139.61211 
L 126.47941 141.921962 
L 126.80439 142.883957 
L 127.129369 141.190819 
L 127.454349 139.714563 
L 127.779328 139.64737 
L 128.104308 138.916227 
L 128.429287 139.003379 
L 128.754267 136.283714 
L 129.079247 137.262341 
L 129.404226 137.367455 
L 129.729206 136.617019 
L 130.054185 137.394732 
L 130.379165 135.534609 
L 130.704144 135.209952 
L 131.029124 136.199889 
L 131.354103 138.335437 
L 131.679083 133.882718 
L 132.004062 138.018764 
L 132.329042 138.357392 
L 132.654021 135.841968 
L 132.979001 140.228824 
L 133.30398 139.156393 
L 133.62896 139.946746 
L 133.953939 135.748829 
L 134.278919 146.908901 
L 134.603898 138.912235 
L 134.928878 138.714647 
L 135.253857 138.133858 
L 135.578837 136.728121 
L 135.903817 136.611697 
L 136.228796 136.979597 
L 136.553776 134.108248 
L 136.878755 134.819433 
L 137.203735 133.836814 
L 137.528714 133.941263 
L 137.853694 133.069081 
L 138.178673 133.667833 
L 138.503653 131.890205 
L 138.828632 131.350663 
L 139.153612 131.355985 
L 139.478591 131.716567 
L 139.803571 130.230331 
L 140.12855 131.092534 
L 140.45353 131.691286 
L 140.778509 131.558895 
L 141.103489 132.325298 
L 141.428468 131.187004 
L 141.753448 132.099768 
L 142.078428 131.612118 
L 142.403407 129.757317 
L 142.728387 130.914239 
L 143.053366 129.631579 
L 143.378346 132.616691 
L 143.703325 129.992161 
L 144.028305 132.35324 
L 144.353284 131.509665 
L 144.678264 135.338351 
L 145.003243 130.467836 
L 145.328223 134.746252 
L 145.653202 134.343757 
L 145.978182 134.247292 
L 146.303161 134.15881 
L 146.628141 132.623343 
L 146.95312 131.433823 
L 147.2781 130.704011 
L 147.603079 126.907923 
L 147.928059 129.618939 
L 148.253038 128.129377 
L 148.578018 126.92522 
L 148.902998 126.157487 
L 149.227977 125.385762 
L 149.552957 127.299108 
L 149.877936 126.617196 
L 150.202916 125.655201 
L 150.527895 126.321811 
L 150.852875 125.397737 
L 151.177854 124.302021 
L 151.502834 126.088963 
L 151.827813 125.157571 
L 152.152793 125.492207 
L 152.477772 126.780854 
L 152.802752 124.570794 
L 153.127731 126.623183 
L 153.452711 126.231998 
L 153.77769 125.243392 
L 154.10267 126.217362 
L 154.427649 125.26069 
L 154.752629 124.573455 
L 155.077609 124.663933 
L 155.402588 124.787676 
L 155.727568 124.616699 
L 156.052547 123.811044 
L 156.377527 123.96672 
L 156.702506 124.344599 
L 157.027486 124.882811 
L 157.352465 126.060356 
L 157.677445 125.567384 
L 158.002424 124.452374 
L 158.327404 125.295284 
L 158.652383 125.522145 
L 158.977363 124.683892 
L 159.302342 123.760483 
L 159.627322 125.155575 
L 159.952301 124.082479 
L 160.277281 123.657365 
L 160.60226 123.588841 
L 160.92724 123.636741 
L 161.252219 123.208301 
L 161.577199 122.938197 
L 161.902179 123.889548 
L 162.227158 126.076323 
L 162.552138 124.781023 
L 162.877117 122.995411 
L 163.202097 124.174287 
L 163.527076 124.065181 
L 163.852056 124.415784 
L 164.177035 124.999235 
L 164.502015 122.549008 
L 164.826994 125.354494 
L 165.151974 123.77645 
L 165.476953 123.844974 
L 165.801933 124.012624 
L 166.126912 123.495036 
L 166.451892 123.443145 
L 166.776871 123.220941 
L 167.101851 122.57695 
L 167.42683 123.410546 
L 167.75181 123.445806 
L 168.07679 123.115827 
L 168.401769 124.055868 
L 168.726749 122.670089 
L 169.051728 123.139112 
L 169.376708 122.930214 
L 169.701687 123.207636 
L 170.026667 125.817529 
L 170.351646 122.651461 
L 170.676626 123.254205 
L 171.001605 124.134371 
L 171.326585 123.735868 
L 171.651564 124.018612 
L 171.976544 122.00614 
L 172.301523 121.896369 
L 172.626503 121.221109 
L 172.951482 121.905017 
L 173.276462 123.258862 
L 173.601441 121.952252 
L 173.926421 122.564975 
L 174.2514 122.768551 
L 174.57638 124.119069 
L 174.90136 122.615536 
L 175.226339 123.062604 
L 175.551319 122.552335 
L 175.876298 124.738445 
L 176.201278 121.796577 
L 176.526257 123.619444 
L 176.851237 126.186094 
L 177.176216 123.986013 
L 177.501196 123.279486 
L 177.826175 122.823769 
L 178.151155 123.469756 
L 178.476134 124.915409 
L 178.801114 123.934121 
L 179.126093 122.241649 
L 179.451073 120.748095 
L 179.776052 122.667428 
L 180.101032 121.854456 
L 180.426011 122.865016 
L 180.750991 121.775288 
L 181.075971 120.958989 
L 181.40095 118.2992 
L 181.72593 118.992421 
L 182.050909 119.812712 
L 182.375889 120.196578 
L 182.700868 118.995083 
L 183.025848 119.254542 
L 183.350827 119.780778 
L 183.675807 120.201235 
L 184.000786 118.708347 
L 184.325766 120.35425 
L 184.650745 121.471255 
L 184.975725 119.205976 
L 185.300704 120.03425 
L 185.625684 118.660447 
L 185.950663 117.786269 
L 186.275643 119.926475 
L 186.600622 118.069678 
L 186.925602 121.021525 
L 187.250581 119.595165 
L 187.575561 121.071421 
L 187.900541 119.359656 
L 188.22552 122.242314 
L 188.5505 123.209631 
L 188.875479 121.211796 
L 189.200459 121.996161 
L 189.525438 121.117326 
L 189.850418 119.909177 
L 190.175397 120.472004 
L 190.500377 118.6671 
L 190.825356 117.910676 
L 191.150336 117.933961 
L 191.475315 118.293212 
L 191.800295 118.479491 
L 192.125274 118.114917 
L 192.450254 117.116332 
L 192.775233 117.841487 
L 193.100213 117.72972 
L 193.425192 117.639242 
L 193.750172 117.146269 
L 194.075152 117.68315 
L 194.400131 116.57679 
L 194.725111 117.015209 
L 195.05009 118.053046 
L 195.37507 117.605313 
L 195.700049 117.31392 
L 196.025029 116.475667 
L 196.350008 117.277995 
L 196.674988 117.745021 
L 196.999967 117.316581 
L 197.324947 116.660615 
L 197.649926 116.677247 
L 197.974906 117.068432 
L 198.299885 117.381779 
L 198.624865 116.723817 
L 198.949844 117.252714 
L 199.274824 116.314669 
L 199.599803 117.093047 
L 199.924783 116.103776 
L 200.249762 116.843567 
L 200.574742 117.416373 
L 200.899722 116.769721 
L 201.224701 117.911341 
L 201.549681 117.745687 
L 201.87466 116.855542 
L 202.19964 117.274668 
L 202.524619 118.244647 
L 202.849599 117.381113 
L 203.174578 117.905354 
L 203.499558 116.92074 
L 203.824537 116.096458 
L 204.149517 115.920158 
L 204.474496 116.064524 
L 204.799476 114.286896 
L 205.124455 114.572966 
L 205.449435 115.154421 
L 205.774414 114.821781 
L 206.099394 117.343858 
L 206.424373 115.503028 
L 206.749353 114.328809 
L 207.074333 115.409889 
L 207.399312 115.315419 
L 207.724292 115.296791 
L 208.049271 115.513007 
L 208.374251 114.949515 
L 208.69923 115.541614 
L 209.02421 115.166396 
L 209.349189 113.962905 
L 209.674169 115.371302 
L 209.999148 114.382696 
L 210.324128 114.423944 
L 210.649107 114.731303 
L 210.974087 114.274921 
L 211.299066 114.576958 
L 211.624046 114.739286 
L 211.949025 114.921573 
L 212.274005 115.162404 
L 212.598984 114.668767 
L 212.923964 114.437249 
L 213.248943 115.50835 
L 213.573923 115.293465 
L 213.898903 115.999327 
L 214.223882 115.596832 
L 214.548862 115.324068 
L 214.873841 116.014628 
L 215.198821 115.411884 
L 215.5238 115.833672 
L 215.84878 115.457789 
L 216.173759 114.638164 
L 216.498739 114.459869 
L 216.823718 114.198414 
L 217.148698 114.394671 
L 217.473677 116.180948 
L 217.798657 114.785856 
L 218.123636 117.607974 
L 218.448616 114.739286 
L 218.773595 116.070512 
L 219.098575 114.821116 
L 219.423554 113.666855 
L 219.748534 114.711345 
L 220.073514 114.465191 
L 220.398493 114.560326 
L 220.723473 114.367395 
L 221.048452 115.048642 
L 221.373432 114.346106 
L 221.698411 114.842405 
L 222.023391 114.10594 
L 222.34837 115.202987 
L 222.67335 114.290222 
L 222.998329 113.921657 
L 223.323309 115.789764 
L 223.648288 114.567644 
L 223.973268 114.060701 
L 224.298247 115.668683 
L 224.623227 116.329971 
L 224.948206 115.056625 
L 225.273186 116.333297 
L 225.598165 116.00731 
L 225.923145 115.671344 
L 226.248124 115.811052 
L 226.573104 115.940782 
L 226.898084 115.123153 
L 227.223063 114.980783 
L 227.548043 114.578954 
L 227.873022 113.306273 
L 228.198002 113.634256 
L 228.522981 113.577042 
L 228.847961 112.2059 
L 229.17294 113.953591 
L 229.49792 111.868603 
L 229.822899 113.629599 
L 230.147879 111.45746 
L 230.472858 113.245733 
L 230.797838 113.972219 
L 231.122817 111.449477 
L 231.447797 113.245068 
L 231.772776 112.668935 
L 232.097756 112.349601 
L 232.422735 112.076836 
L 232.747715 112.529892 
L 233.072695 113.188519 
L 233.397674 112.319663 
L 233.722654 111.30378 
L 234.047633 112.331638 
L 234.372613 110.282576 
L 234.697592 112.901118 
L 235.022572 111.6464 
L 235.347551 110.885985 
L 235.672531 112.760078 
L 235.99751 112.440079 
L 236.32249 111.355007 
L 236.647469 111.050309 
L 236.972449 112.91775 
L 237.297428 112.199913 
L 237.622408 112.328977 
L 237.947387 110.414966 
L 238.272367 110.586609 
L 238.597346 111.364321 
L 238.922326 111.690308 
L 239.247305 111.03035 
L 239.572285 111.791431 
L 239.897265 111.324404 
L 240.222244 110.830766 
L 240.547224 111.761493 
L 240.872203 111.158084 
L 241.197183 110.738292 
L 241.522162 110.466193 
L 241.847142 109.900705 
L 242.172121 110.067025 
L 242.497101 108.870186 
L 242.82208 109.731059 
L 243.14706 109.816214 
L 243.472039 110.420289 
L 243.797019 109.82952 
L 244.121998 109.214801 
L 244.446978 110.454883 
L 244.771957 109.439666 
L 245.096937 108.688565 
L 245.421916 108.610062 
L 245.746896 109.043159 
L 246.071876 107.799751 
L 246.396855 108.069854 
L 246.721835 111.013718 
L 247.046814 112.404154 
L 247.371794 109.559416 
L 247.696773 108.230187 
L 248.021753 109.262701 
L 248.346732 110.337129 
L 248.671712 108.111767 
L 248.996691 108.562827 
L 249.321671 107.636757 
L 249.64665 108.357255 
L 249.97163 108.126403 
L 250.296609 107.461788 
L 250.621589 106.934887 
L 250.946568 107.290146 
L 251.271548 106.879003 
L 251.596527 106.79917 
L 251.921507 106.278921 
L 252.246486 107.151103 
L 252.571466 107.636757 
L 252.896446 106.587611 
L 253.221425 108.612058 
L 253.546405 107.853638 
L 253.871384 106.210397 
L 254.196364 107.419876 
L 254.521343 107.331394 
L 254.846323 106.179129 
L 255.171302 106.91892 
L 255.496282 107.487734 
L 255.821261 107.638088 
L 256.146241 107.020708 
L 256.47122 106.419295 
L 256.7962 107.123161 
L 257.121179 107.112516 
L 257.446159 106.937548 
L 257.771138 105.587029 
L 258.096118 107.389938 
L 258.421097 106.136551 
L 258.746077 106.705365 
L 259.071057 106.407985 
L 259.396036 106.333474 
L 259.721016 106.889648 
L 260.045995 105.962247 
L 260.370975 106.228359 
L 260.695954 107.388608 
L 261.020934 106.473848 
L 261.345913 107.165074 
L 261.670893 105.772643 
L 261.995872 106.449232 
L 262.320852 105.687487 
L 262.645831 105.951603 
L 262.970811 105.881083 
L 263.29579 105.875096 
L 263.62077 105.114681 
L 263.945749 105.286323 
L 264.270729 105.648235 
L 264.595708 105.096718 
L 264.920688 105.365491 
L 265.245667 104.678257 
L 265.570647 104.496636 
L 265.895627 104.412145 
L 266.220606 104.89913 
L 266.545586 104.436095 
L 266.870565 103.580545 
L 267.195545 103.459464 
L 267.520524 104.3057 
L 267.845504 104.136719 
L 268.170483 104.38886 
L 268.495463 104.573143 
L 268.820442 103.667697 
L 269.145422 104.442083 
L 269.470401 103.344371 
L 269.795381 104.219214 
L 270.12036 104.054224 
L 270.44534 104.233185 
L 270.770319 103.03435 
L 271.095299 103.529984 
L 271.420278 103.368321 
L 271.745258 102.626533 
L 272.070238 104.018299 
L 272.395217 103.694308 
L 272.720197 102.771564 
L 273.045176 103.04566 
L 273.370156 102.730982 
L 273.695135 103.573892 
L 274.020115 106.846404 
L 274.345094 104.684244 
L 274.670074 103.774807 
L 274.995053 103.261876 
L 275.320033 103.249236 
L 275.645012 103.48674 
L 275.969992 102.009819 
L 276.294971 102.406326 
L 276.619951 101.408406 
L 276.94493 101.656555 
L 277.26991 101.956596 
L 277.594889 101.960588 
L 277.919869 101.657886 
L 278.244848 99.867617 
L 278.569828 100.266785 
L 278.894808 99.593522 
L 279.219787 99.157098 
L 279.544767 98.97082 
L 279.869746 99.928823 
L 280.194726 99.864956 
L 280.519705 100.830943 
L 280.844685 99.117181 
L 281.169664 98.768575 
L 281.494644 99.369988 
L 281.819623 101.397761 
L 282.144603 99.212982 
L 282.469582 101.102377 
L 282.794562 100.309363 
L 283.119541 100.884165 
L 283.444521 98.063378 
L 283.7695 98.691402 
L 284.09448 99.742545 
L 284.419459 99.103876 
L 284.744439 97.738721 
L 285.069419 99.170404 
L 285.394398 97.986205 
L 285.719378 98.66213 
L 286.044357 97.770655 
L 286.369337 98.217723 
L 286.694316 97.286331 
L 287.019296 98.23369 
L 287.344275 97.092069 
L 287.669255 96.937724 
L 287.994234 95.907871 
L 288.319214 96.352278 
L 288.644193 96.219222 
L 288.969173 95.053651 
L 289.294152 96.107455 
L 289.619132 97.155936 
L 289.944111 97.238431 
L 290.269091 96.392195 
L 290.59407 94.513444 
L 290.91905 94.476188 
L 291.244029 94.359099 
L 291.569009 94.367082 
L 291.893989 94.675772 
L 292.218968 96.573151 
L 292.543948 96.719512 
L 292.868927 97.097391 
L 293.193907 96.913774 
L 293.518886 92.762427 
L 293.843866 92.456398 
L 294.168845 95.471447 
L 294.493825 91.79644 
L 294.818804 91.996024 
L 295.143784 91.594195 
L 295.468763 95.57257 
L 295.793743 93.579391 
L 296.118722 94.031781 
L 296.443702 97.967578 
L 296.768681 96.267122 
L 297.093661 97.33157 
L 297.41864 94.476188 
L 297.74362 94.556022 
L 298.0686 93.818892 
L 298.393579 94.928579 
L 298.718559 93.113695 
L 299.043538 92.72251 
L 299.368518 92.208914 
L 299.693497 92.395192 
L 300.018477 90.095985 
L 300.343456 91.006088 
L 300.668436 90.39403 
L 300.993415 89.483927 
L 301.318395 92.624049 
L 301.643374 90.731992 
L 301.968354 90.503136 
L 302.293333 93.829536 
L 302.618313 93.60068 
L 302.943292 98.204417 
L 303.268272 97.406081 
L 303.593251 95.671031 
L 303.918231 97.35552 
L 304.24321 93.898725 
L 304.56819 92.381887 
L 304.89317 93.685836 
L 305.218149 95.412902 
L 305.543129 93.656563 
L 305.868108 96.740801 
L 306.193088 98.113939 
L 306.518067 97.265042 
L 306.843047 97.065458 
L 307.168026 97.690821 
L 307.493006 97.879761 
L 307.817985 95.985043 
L 308.142965 95.394275 
L 308.467944 92.847583 
L 308.792924 93.669869 
L 309.117903 92.8875 
L 309.442883 93.983881 
L 309.767862 92.852905 
L 310.092842 91.642095 
L 310.417821 92.977978 
L 310.742801 93.222801 
L 311.067781 90.146546 
L 311.39276 92.381887 
L 311.71774 91.972074 
L 312.042719 92.349953 
L 312.367699 91.711284 
L 312.692678 92.477687 
L 313.017658 93.50754 
L 313.342637 94.441594 
L 313.667617 94.260637 
L 313.992596 92.065213 
L 314.317576 90.449914 
L 314.642555 86.317194 
L 314.967535 84.685928 
L 315.292514 94.00517 
L 315.617494 93.142967 
L 315.942473 93.693819 
L 316.267453 93.092406 
L 316.592432 88.552535 
L 316.917412 84.504972 
L 317.242391 79.573916 
L 317.567371 79.978406 
L 317.892351 78.091672 
L 318.21733 81.247761 
L 318.54231 80.028968 
L 318.867289 79.706972 
L 319.192269 81.402106 
L 319.517248 80.840609 
L 319.842228 86.2347 
L 320.167207 92.296731 
L 320.492187 79.241276 
L 320.817166 91.352033 
L 321.142146 86.801518 
L 321.467125 90.032118 
L 321.792105 79.776161 
L 322.117084 79.020403 
L 322.442064 79.459488 
L 322.767043 79.251921 
L 323.092023 78.725019 
L 323.417002 78.333834 
L 323.741982 81.843852 
L 324.066962 78.884686 
L 324.391941 78.219406 
L 324.716921 79.062981 
L 325.0419 80.587803 
L 325.36688 78.669135 
L 325.691859 83.895575 
L 326.016839 87.698316 
L 326.341818 86.961185 
L 326.666798 86.812163 
L 326.991777 82.756616 
L 327.316757 89.27636 
L 327.641736 83.091917 
L 327.966716 87.112869 
L 328.291695 85.854159 
L 328.616675 82.181814 
L 328.941654 79.709633 
L 329.266634 80.656992 
L 329.591613 79.267887 
L 329.916593 80.305724 
L 330.241572 84.598111 
L 330.566552 83.884931 
L 330.891532 81.849174 
L 331.216511 85.462975 
L 331.541491 82.31487 
L 331.86647 84.023309 
L 332.19145 82.12593 
L 332.516429 84.254826 
L 332.841409 79.219987 
L 333.166388 81.420733 
L 333.491368 81.130671 
L 333.816347 82.50647 
L 334.141327 83.762519 
L 334.466306 89.028876 
L 334.791286 86.412995 
L 335.116265 81.394122 
L 335.441245 88.717524 
L 335.766224 87.288503 
L 336.091204 88.632369 
L 336.416183 88.222556 
L 336.741163 87.953783 
L 337.066143 85.122351 
L 337.391122 88.028294 
L 337.716102 88.762764 
L 338.041081 87.227297 
L 338.366061 88.0895 
L 338.69104 87.283181 
L 339.01602 80.885848 
L 339.340999 86.987796 
L 339.665979 86.138899 
L 339.990958 77.979905 
L 340.315938 79.39296 
L 340.640917 78.802191 
L 340.965897 79.800111 
L 341.290876 78.13425 
L 341.615856 78.629219 
L 341.940835 75.821737 
L 342.265815 77.631299 
L 342.590794 77.362525 
L 342.915774 78.84743 
L 343.240753 76.646684 
L 343.565733 75.207018 
L 343.890713 74.818495 
L 344.215692 73.788641 
L 344.540672 71.122199 
L 344.865651 72.817332 
L 345.190631 71.013093 
L 345.51561 71.034382 
L 345.84059 71.736918 
L 346.165569 71.217999 
L 346.490549 72.234547 
L 346.815528 71.045027 
L 347.140508 75.930843 
L 347.465487 71.912552 
L 347.790467 74.028142 
L 348.115446 76.119782 
L 348.440426 78.096995 
L 348.765405 78.384396 
L 349.090385 74.749306 
L 349.415364 81.923685 
L 349.740344 79.251921 
L 350.065324 77.04053 
L 350.390303 77.200197 
L 350.715283 80.255163 
L 351.040262 78.733002 
L 351.365242 80.026307 
L 351.690221 84.542227 
L 352.015201 84.659316 
L 352.34018 81.660234 
L 352.66516 86.229377 
L 352.990139 84.446427 
L 353.315119 80.095496 
L 353.640098 82.541065 
L 353.965078 80.955037 
L 354.290057 86.383722 
L 354.615037 80.135412 
L 354.940016 80.782065 
L 355.264996 83.823725 
L 355.589975 83.552291 
L 355.914955 78.897992 
L 356.239934 82.352125 
L 356.564914 79.057659 
L 356.889894 78.288595 
L 357.214873 79.27321 
L 357.539853 76.742484 
L 357.864832 76.77974 
L 358.189812 74.163859 
L 358.514791 75.417247 
L 358.839771 74.294254 
L 359.16475 73.205856 
L 359.48973 72.652343 
L 359.814709 72.873216 
L 360.139689 71.736918 
L 360.464668 74.714711 
L 360.789648 72.921116 
L 361.114627 71.244611 
L 361.439607 73.227145 
L 361.764586 73.376168 
L 362.089566 74.906312 
L 362.414545 78.102317 
L 362.739525 77.644604 
L 363.064505 73.160617 
L 363.389484 76.271466 
L 363.714464 75.917537 
L 364.039443 79.619155 
L 364.364423 75.755209 
L 364.689402 78.879364 
L 365.014382 80.15404 
L 365.339361 85.101062 
L 365.664341 86.942557 
L 365.98932 86.607256 
L 366.3143 86.931913 
L 366.639279 87.088919 
L 366.964259 82.109964 
L 367.289238 79.086931 
L 367.614218 86.918607 
L 367.939197 87.461476 
L 368.264177 83.90622 
L 368.589156 78.796869 
L 368.914136 87.075613 
L 369.239115 86.011165 
L 369.564095 83.637446 
L 369.889075 85.654575 
L 370.214054 85.561436 
L 370.539034 87.022391 
L 370.864013 82.572998 
L 371.188993 84.917445 
L 371.513972 79.762856 
L 371.838952 80.380236 
L 372.163931 81.67354 
L 372.488911 85.619981 
L 372.81389 77.700488 
L 373.13887 77.703149 
L 373.463849 71.617167 
L 373.788829 73.509224 
L 374.113808 72.463404 
L 374.438788 73.847186 
L 374.763767 75.571592 
L 375.088747 73.42939 
L 375.413726 76.790385 
L 375.738706 73.243112 
L 376.063686 75.816415 
L 376.388665 76.130427 
L 376.713645 76.194294 
L 377.038624 70.882698 
L 377.363604 69.456338 
L 377.688583 71.05301 
L 378.013563 69.844861 
L 378.338542 68.876214 
L 378.663522 70.821492 
L 378.988501 70.060412 
L 379.313481 71.728934 
L 379.63846 68.67663 
L 379.96344 69.759706 
L 380.288419 72.037624 
L 380.613399 71.973757 
L 380.938378 71.702323 
L 381.263358 75.103235 
L 381.588337 75.704648 
L 381.913317 78.341818 
L 382.238296 81.447345 
L 382.563276 84.866884 
L 382.888256 84.99994 
L 383.213235 82.511793 
L 383.538215 81.95828 
L 383.863194 78.506807 
L 384.188174 79.518033 
L 384.513153 84.771084 
L 384.838133 79.188054 
L 385.163112 79.672378 
L 385.488092 79.906556 
L 385.813071 76.758451 
L 386.138051 76.133088 
L 386.46303 70.653842 
L 386.78801 70.784237 
L 387.112989 70.259996 
L 387.437969 69.477627 
L 387.762948 69.304654 
L 388.087928 68.759124 
L 388.412907 69.435049 
L 388.737887 70.550058 
L 389.062867 70.430308 
L 389.387846 72.724193 
L 389.712826 72.902488 
L 390.037805 72.508643 
L 390.362785 75.081946 
L 390.687764 74.187809 
L 391.012744 72.910472 
L 391.337723 72.524609 
L 391.662703 77.120364 
L 391.987682 76.234211 
L 392.312662 74.967517 
L 392.637641 73.200534 
L 392.962621 73.908392 
L 393.2876 75.42523 
L 393.61258 72.197292 
L 393.937559 75.949471 
L 394.262539 77.774999 
L 394.587518 78.022483 
L 394.912498 76.630717 
L 395.237477 75.262902 
L 395.562457 76.077204 
L 395.887437 69.325943 
L 396.212416 70.374424 
L 396.537396 68.783075 
L 396.862375 69.27006 
L 397.187355 73.0249 
L 397.512334 70.826815 
L 397.837314 70.486191 
L 398.162293 73.69018 
L 398.487273 79.315788 
L 398.487273 67.231642 
L 398.487273 67.231642 
L 398.162293 66.257672 
L 397.837314 65.871809 
L 397.512334 65.837215 
L 397.187355 66.531767 
L 396.862375 65.06549 
L 396.537396 66.071393 
L 396.212416 65.08944 
L 395.887437 65.347569 
L 395.562457 65.619003 
L 395.237477 66.678129 
L 394.912498 69.216837 
L 394.587518 66.89634 
L 394.262539 67.644115 
L 393.937559 66.60894 
L 393.61258 66.986819 
L 393.2876 68.056589 
L 392.962621 68.77243 
L 392.637641 67.67871 
L 392.312662 66.986819 
L 391.987682 66.13526 
L 391.662703 65.770687 
L 391.337723 65.813265 
L 391.012744 66.459917 
L 390.687764 66.710062 
L 390.362785 67.143825 
L 390.037805 66.683451 
L 389.712826 67.425903 
L 389.387846 65.241124 
L 389.062867 65.73077 
L 388.737887 67.452515 
L 388.412907 64.94574 
L 388.087928 66.3242 
L 387.762948 65.922371 
L 387.437969 65.68287 
L 387.112989 66.521123 
L 386.78801 66.77659 
L 386.46303 65.020251 
L 386.138051 66.611601 
L 385.813071 65.877132 
L 385.488092 64.42416 
L 385.163112 65.485947 
L 384.838133 65.640292 
L 384.513153 65.701498 
L 384.188174 66.196466 
L 383.863194 65.640292 
L 383.538215 67.753221 
L 383.213235 67.553637 
L 382.888256 66.145905 
L 382.563276 67.718627 
L 382.238296 66.076716 
L 381.913317 66.412017 
L 381.588337 67.495092 
L 381.263358 68.173678 
L 380.938378 67.053347 
L 380.613399 66.098004 
L 380.288419 68.232223 
L 379.96344 65.842537 
L 379.63846 65.464658 
L 379.313481 65.158629 
L 378.988501 65.030895 
L 378.663522 65.390147 
L 378.338542 64.778089 
L 378.013563 64.940417 
L 377.688583 64.799378 
L 377.363604 64.740833 
L 377.038624 66.906985 
L 376.713645 67.665404 
L 376.388665 68.157711 
L 376.063686 65.195885 
L 375.738706 67.734593 
L 375.413726 68.445112 
L 375.088747 67.479126 
L 374.763767 69.017253 
L 374.438788 67.739916 
L 374.113808 68.338668 
L 373.788829 67.902244 
L 373.463849 67.617504 
L 373.13887 67.787816 
L 372.81389 68.306734 
L 372.488911 67.934177 
L 372.163931 66.845779 
L 371.838952 66.696756 
L 371.513972 67.247608 
L 371.188993 66.821829 
L 370.864013 68.1311 
L 370.539034 68.109811 
L 370.214054 67.936838 
L 369.889075 68.061911 
L 369.564095 67.841038 
L 369.239115 68.208273 
L 368.914136 69.062492 
L 368.589156 67.359375 
L 368.264177 68.333345 
L 367.939197 68.336006 
L 367.614218 68.298751 
L 367.289238 68.53559 
L 366.964259 68.450435 
L 366.639279 69.666566 
L 366.3143 68.93742 
L 365.98932 68.74848 
L 365.664341 67.931516 
L 365.339361 68.833636 
L 365.014382 67.628148 
L 364.689402 67.008108 
L 364.364423 67.572265 
L 364.039443 69.067814 
L 363.714464 68.663324 
L 363.389484 68.857586 
L 363.064505 68.05925 
L 362.739525 68.445112 
L 362.414545 68.375923 
L 362.089566 67.790477 
L 361.764586 69.288687 
L 361.439607 67.223658 
L 361.114627 67.079958 
L 360.789648 66.249688 
L 360.464668 66.305572 
L 360.139689 67.574926 
L 359.814709 68.173678 
L 359.48973 66.978835 
L 359.16475 65.241124 
L 358.839771 66.542412 
L 358.514791 67.96345 
L 358.189812 67.737254 
L 357.864832 68.72453 
L 357.539853 68.854925 
L 357.214873 68.051267 
L 356.889894 67.558959 
L 356.564914 68.841619 
L 356.239934 69.027898 
L 355.914955 67.412598 
L 355.589975 67.117213 
L 355.264996 67.282203 
L 354.940016 67.03738 
L 354.615037 67.199708 
L 354.290057 67.191725 
L 353.965078 67.548315 
L 353.640098 67.412598 
L 353.315119 67.016091 
L 352.990139 67.431226 
L 352.66516 66.981496 
L 352.34018 67.098586 
L 352.015201 67.271558 
L 351.690221 67.268897 
L 351.365242 67.39397 
L 351.040262 67.095924 
L 350.715283 67.628148 
L 350.390303 66.888357 
L 350.065324 65.842537 
L 349.740344 67.199708 
L 349.415364 66.129938 
L 349.090385 68.109811 
L 348.765405 68.591474 
L 348.440426 68.780413 
L 348.115446 68.248189 
L 347.790467 69.041203 
L 347.465487 68.785736 
L 347.140508 68.301412 
L 346.815528 66.741996 
L 346.490549 67.119875 
L 346.165569 68.841619 
L 345.84059 65.818587 
L 345.51561 67.636132 
L 345.190631 67.588232 
L 344.865651 67.401953 
L 344.540672 67.793138 
L 344.215692 68.125778 
L 343.890713 66.473222 
L 343.565733 69.091764 
L 343.240753 66.662162 
L 342.915774 66.196466 
L 342.590794 66.140582 
L 342.265815 66.70474 
L 341.940835 67.966111 
L 341.615856 68.644696 
L 341.290876 67.590893 
L 340.965897 69.773011 
L 340.640917 68.101828 
L 340.315938 68.210934 
L 339.990958 69.035881 
L 339.665979 69.690516 
L 339.340999 71.228644 
L 339.01602 69.360538 
L 338.69104 70.212096 
L 338.366061 73.71413 
L 338.041081 68.708563 
L 337.716102 73.014255 
L 337.391122 70.715048 
L 337.066143 73.155295 
L 336.741163 72.372925 
L 336.416183 72.018996 
L 336.091204 74.312882 
L 335.766224 71.768851 
L 335.441245 70.661825 
L 335.116265 70.512803 
L 334.791286 70.909309 
L 334.466306 70.393052 
L 334.141327 73.461324 
L 333.816347 73.554463 
L 333.491368 78.339156 
L 333.166388 70.302574 
L 332.841409 73.602363 
L 332.516429 73.203195 
L 332.19145 70.850765 
L 331.86647 74.650844 
L 331.541491 74.581655 
L 331.216511 73.338912 
L 330.891532 70.930598 
L 330.566552 68.663324 
L 330.241572 72.314381 
L 329.916593 69.12902 
L 329.591613 69.874134 
L 329.266634 71.007771 
L 328.941654 70.180163 
L 328.616675 70.345152 
L 328.291695 70.805526 
L 327.966716 70.049768 
L 327.641736 70.385069 
L 327.316757 72.021658 
L 326.991777 71.353716 
L 326.666798 71.414922 
L 326.341818 69.812928 
L 326.016839 69.182243 
L 325.691859 66.329522 
L 325.36688 67.657421 
L 325.0419 71.603862 
L 324.716921 69.820911 
L 324.391941 73.00095 
L 324.066962 72.657665 
L 323.741982 73.517207 
L 323.417002 71.569267 
L 323.092023 69.919373 
L 322.767043 72.229225 
L 322.442064 73.070139 
L 322.117084 72.508643 
L 321.792105 73.980242 
L 321.467125 73.977581 
L 321.142146 74.66415 
L 320.817166 72.372925 
L 320.492187 73.171261 
L 320.167207 72.601782 
L 319.842228 73.495918 
L 319.517248 71.292511 
L 319.192269 76.119782 
L 318.867289 76.18631 
L 318.54231 75.010095 
L 318.21733 74.408682 
L 317.892351 74.690761 
L 317.567371 73.754047 
L 317.242391 75.827059 
L 316.917412 72.306397 
L 316.592432 68.900164 
L 316.267453 70.621908 
L 315.942473 70.76827 
L 315.617494 73.243112 
L 315.292514 75.457164 
L 314.967535 70.834798 
L 314.642555 70.017834 
L 314.317576 74.845106 
L 313.992596 72.694921 
L 313.667617 71.654423 
L 313.342637 71.207355 
L 313.017658 72.492676 
L 312.692678 71.779496 
L 312.367699 72.657665 
L 312.042719 71.135505 
L 311.71774 74.068059 
L 311.39276 73.83388 
L 311.067781 77.410426 
L 310.742801 73.945647 
L 310.417821 73.514546 
L 310.092842 74.837123 
L 309.767862 75.912215 
L 309.442883 75.61417 
L 309.117903 76.063899 
L 308.792924 75.063318 
L 308.467944 73.565107 
L 308.142965 73.1207 
L 307.817985 70.778915 
L 307.493006 72.250514 
L 307.168026 72.104152 
L 306.843047 71.050349 
L 306.518067 72.090847 
L 306.193088 71.316461 
L 305.868108 71.673051 
L 305.543129 71.508061 
L 305.218149 72.234547 
L 304.89317 71.747562 
L 304.56819 71.236627 
L 304.24321 70.81617 
L 303.918231 71.944485 
L 303.593251 70.797542 
L 303.268272 72.149391 
L 302.943292 74.47521 
L 302.618313 78.714374 
L 302.293333 81.894413 
L 301.968354 82.487843 
L 301.643374 82.36277 
L 301.318395 80.292419 
L 300.993415 79.214665 
L 300.668436 83.467135 
L 300.343456 80.249841 
L 300.018477 81.391461 
L 299.693497 78.626557 
L 299.368518 79.313126 
L 299.043538 78.546724 
L 298.718559 77.830883 
L 298.393579 78.815497 
L 298.0686 78.87138 
L 297.74362 74.517788 
L 297.41864 74.424649 
L 297.093661 73.296334 
L 296.768681 72.604443 
L 296.443702 72.35962 
L 296.118722 73.179245 
L 295.793743 72.085524 
L 295.468763 72.191969 
L 295.143784 72.652343 
L 294.818804 73.432051 
L 294.493825 73.240451 
L 294.168845 72.655004 
L 293.843866 73.107395 
L 293.518886 72.822655 
L 293.193907 73.256417 
L 292.868927 73.067478 
L 292.543948 73.50124 
L 292.218968 73.522529 
L 291.893989 73.376168 
L 291.569009 73.421407 
L 291.244029 73.043528 
L 290.91905 73.362862 
L 290.59407 73.575752 
L 290.269091 73.80993 
L 289.944111 74.129265 
L 289.619132 73.692841 
L 289.294152 73.38149 
L 288.969173 73.493257 
L 288.644193 73.775336 
L 288.319214 73.993548 
L 287.994234 73.97492 
L 287.669255 74.400699 
L 287.344275 74.916956 
L 287.019296 73.706147 
L 286.694316 73.76203 
L 286.369337 73.679535 
L 286.044357 73.644941 
L 285.719378 74.602944 
L 285.394398 74.384732 
L 285.069419 74.089348 
L 284.744439 74.161198 
L 284.419459 74.19047 
L 284.09448 74.384732 
L 283.7695 74.493838 
L 283.444521 74.847767 
L 283.119541 74.496499 
L 282.794562 74.09467 
L 282.469582 75.310802 
L 282.144603 76.178327 
L 281.819623 75.890926 
L 281.494644 75.470469 
L 281.169664 75.731259 
L 280.844685 76.023982 
L 280.519705 76.721196 
L 280.194726 78.82348 
L 279.869746 76.407183 
L 279.544767 75.670053 
L 279.219787 78.128928 
L 278.894808 75.419908 
L 278.569828 77.673876 
L 278.244848 76.165021 
L 277.919869 79.551962 
L 277.594889 79.993043 
L 277.26991 79.404935 
L 276.94493 79.478116 
L 276.619951 79.661733 
L 276.294971 80.10481 
L 275.969992 80.217907 
L 275.645012 80.003022 
L 275.320033 79.96244 
L 274.995053 80.029633 
L 274.670074 79.589883 
L 274.345094 80.142731 
L 274.020115 81.696159 
L 273.695135 81.961606 
L 273.370156 80.954372 
L 273.045176 81.116035 
L 272.720197 82.342146 
L 272.395217 81.268384 
L 272.070238 79.767513 
L 271.745258 80.456743 
L 271.420278 79.126183 
L 271.095299 79.502731 
L 270.770319 79.857325 
L 270.44534 79.758864 
L 270.12036 79.271214 
L 269.795381 80.056244 
L 269.470401 80.575828 
L 269.145422 80.421483 
L 268.820442 79.934498 
L 268.495463 81.224476 
L 268.170483 80.888509 
L 267.845504 81.712126 
L 267.520524 82.282936 
L 267.195545 81.695494 
L 266.870565 82.737988 
L 266.545586 81.465307 
L 266.220606 81.256409 
L 265.895627 81.127345 
L 265.570647 82.058737 
L 265.245667 82.01749 
L 264.920688 81.49591 
L 264.595708 82.269631 
L 264.270729 82.093332 
L 263.945749 82.431294 
L 263.62077 82.855077 
L 263.29579 82.348134 
L 262.970811 82.474537 
L 262.645831 82.87437 
L 262.320852 82.528425 
L 261.995872 82.927593 
L 261.670893 84.043267 
L 261.345913 83.47911 
L 261.020934 85.400438 
L 260.695954 83.715949 
L 260.370975 86.262641 
L 260.045995 87.146133 
L 259.721016 87.84002 
L 259.396036 88.63636 
L 259.071057 92.137064 
L 258.746077 87.615821 
L 258.421097 87.060312 
L 258.096118 85.335906 
L 257.771138 85.313287 
L 257.446159 84.324681 
L 257.121179 86.078359 
L 256.7962 86.466882 
L 256.47122 87.184054 
L 256.146241 86.419647 
L 255.821261 88.013658 
L 255.496282 87.14946 
L 255.171302 87.337068 
L 254.846323 85.451 
L 254.521343 84.807674 
L 254.196364 85.631956 
L 253.871384 88.809998 
L 253.546405 86.756279 
L 253.221425 86.939896 
L 252.896446 86.703057 
L 252.571466 86.743639 
L 252.246486 86.882017 
L 251.921507 85.387798 
L 251.596527 85.450334 
L 251.271548 85.506883 
L 250.946568 85.955947 
L 250.621589 87.042349 
L 250.296609 87.119522 
L 249.97163 88.225217 
L 249.64665 87.661725 
L 249.321671 88.16135 
L 248.996691 86.795531 
L 248.671712 86.469543 
L 248.346732 87.140811 
L 248.021753 87.042349 
L 247.696773 87.322432 
L 247.371794 87.308461 
L 247.046814 87.973076 
L 246.721835 88.332993 
L 246.396855 88.015654 
L 246.071876 89.06347 
L 245.746896 88.854572 
L 245.421916 88.572493 
L 245.096937 88.354947 
L 244.771957 89.310289 
L 244.446978 89.762679 
L 244.121998 89.409416 
L 243.797019 90.360101 
L 243.472039 89.739395 
L 243.14706 90.919601 
L 242.82208 90.75062 
L 242.497101 90.694737 
L 242.172121 90.457232 
L 241.847142 89.738064 
L 241.522162 90.948208 
L 241.197183 89.797274 
L 240.872203 89.269707 
L 240.547224 90.084675 
L 240.222244 89.509873 
L 239.897265 89.901058 
L 239.572285 90.4885 
L 239.247305 89.446671 
L 238.922326 90.879019 
L 238.597346 90.149207 
L 238.272367 90.460558 
L 237.947387 91.572906 
L 237.622408 90.576982 
L 237.297428 89.839187 
L 236.972449 91.294154 
L 236.647469 90.456566 
L 236.32249 90.133906 
L 235.99751 90.724674 
L 235.672531 92.18829 
L 235.347551 92.237521 
L 235.022572 92.272781 
L 234.697592 91.07195 
L 234.372613 90.036775 
L 234.047633 90.087336 
L 233.722654 92.272781 
L 233.397674 92.506294 
L 233.072695 92.172989 
L 232.747715 92.490993 
L 232.422735 97.378805 
L 232.097756 92.452406 
L 231.772776 97.050156 
L 231.447797 96.662298 
L 231.122817 98.81714 
L 230.797838 101.353853 
L 230.472858 103.082916 
L 230.147879 99.151776 
L 229.822899 98.0687 
L 229.49792 96.994273 
L 229.17294 96.724169 
L 228.847961 94.842757 
L 228.522981 95.449493 
L 228.198002 94.155523 
L 227.873022 94.168164 
L 227.548043 94.851406 
L 227.223063 93.939972 
L 226.898084 93.405087 
L 226.573104 94.170825 
L 226.248124 93.725752 
L 225.923145 94.215398 
L 225.598165 95.818723 
L 225.273186 95.838682 
L 224.948206 94.059723 
L 224.623227 96.089492 
L 224.298247 96.197933 
L 223.973268 97.040843 
L 223.648288 97.796601 
L 223.323309 96.355604 
L 222.998329 94.796853 
L 222.67335 94.766916 
L 222.34837 98.096642 
L 222.023391 94.688412 
L 221.698411 96.489991 
L 221.373432 97.151279 
L 221.048452 97.857141 
L 220.723473 96.480012 
L 220.398493 98.370737 
L 220.073514 97.672859 
L 219.748534 97.244418 
L 219.423554 98.50845 
L 219.098575 98.099968 
L 218.773595 97.089408 
L 218.448616 97.363503 
L 218.123636 97.570405 
L 217.798657 99.05398 
L 217.473677 98.421299 
L 217.148698 100.481671 
L 216.823718 98.326164 
L 216.498739 100.57481 
L 216.173759 102.079008 
L 215.84878 99.94612 
L 215.5238 99.529655 
L 215.198821 102.168156 
L 214.873841 99.044001 
L 214.548862 100.486328 
L 214.223882 99.377306 
L 213.898903 103.725576 
L 213.573923 101.3472 
L 213.248943 102.433602 
L 212.923964 101.950609 
L 212.598984 101.089737 
L 212.274005 100.065871 
L 211.949025 101.095724 
L 211.624046 101.167574 
L 211.299066 98.448575 
L 210.974087 99.448491 
L 210.649107 100.341297 
L 210.324128 98.351444 
L 209.999148 99.159759 
L 209.674169 101.421711 
L 209.349189 102.222708 
L 209.02421 99.866287 
L 208.69923 101.392439 
L 208.374251 101.700464 
L 208.049271 101.238759 
L 207.724292 101.985869 
L 207.399312 102.454891 
L 207.074333 101.015891 
L 206.749353 101.309279 
L 206.424373 101.026535 
L 206.099394 100.310028 
L 205.774414 99.748532 
L 205.449435 100.661296 
L 205.124455 102.564662 
L 204.799476 102.124912 
L 204.474496 103.489402 
L 204.149517 102.942541 
L 203.824537 102.616554 
L 203.499558 103.607821 
L 203.174578 103.263872 
L 202.849599 103.995014 
L 202.524619 104.149359 
L 202.19964 105.626281 
L 201.87466 106.14653 
L 201.549681 105.344868 
L 201.224701 105.306947 
L 200.899722 105.487903 
L 200.574742 104.388195 
L 200.249762 106.038089 
L 199.924783 106.059378 
L 199.599803 105.484576 
L 199.274824 105.90969 
L 198.949844 106.483827 
L 198.624865 105.000918 
L 198.299885 105.555761 
L 197.974906 103.941127 
L 197.649926 104.253143 
L 197.324947 105.001583 
L 196.999967 104.994265 
L 196.674988 105.295637 
L 196.350008 104.662956 
L 196.025029 105.114015 
L 195.700049 105.282331 
L 195.37507 105.344868 
L 195.05009 107.040666 
L 194.725111 106.792517 
L 194.400131 106.855053 
L 194.075152 109.132972 
L 193.750172 108.243492 
L 193.425192 106.464534 
L 193.100213 107.993347 
L 192.775233 108.359251 
L 192.450254 103.515348 
L 192.125274 106.454555 
L 191.800295 106.540376 
L 191.475315 107.565572 
L 191.150336 108.049231 
L 190.825356 110.399 
L 190.500377 108.485654 
L 190.175397 107.874927 
L 189.850418 107.756508 
L 189.525438 107.280167 
L 189.200459 106.523078 
L 188.875479 105.805907 
L 188.5505 106.276925 
L 188.22552 106.492476 
L 187.900541 105.618963 
L 187.575561 108.044574 
L 187.250581 106.453889 
L 186.925602 107.855634 
L 186.600622 108.463035 
L 186.275643 109.739042 
L 185.950663 108.733804 
L 185.625684 108.430436 
L 185.300704 107.582869 
L 184.975725 107.191685 
L 184.650745 107.022038 
L 184.325766 106.412642 
L 184.000786 107.889564 
L 183.675807 105.978879 
L 183.350827 106.274264 
L 183.025848 108.358586 
L 182.700868 107.102537 
L 182.375889 106.630188 
L 182.050909 106.13389 
L 181.72593 108.146362 
L 181.40095 107.633431 
L 181.075971 105.678173 
L 180.750991 108.701205 
L 180.426011 106.887652 
L 180.101032 106.664118 
L 179.776052 107.727235 
L 179.451073 107.79842 
L 179.126093 108.769064 
L 178.801114 106.387361 
L 178.476134 108.16632 
L 178.151155 108.058545 
L 177.826175 112.466025 
L 177.501196 109.659208 
L 177.176216 109.384448 
L 176.851237 108.926735 
L 176.526257 109.025862 
L 176.201278 108.5116 
L 175.876298 108.981288 
L 175.551319 109.684489 
L 175.226339 111.10087 
L 174.90136 110.425611 
L 174.57638 110.16216 
L 174.2514 110.05638 
L 173.926421 109.392431 
L 173.601441 110.985111 
L 173.276462 109.881412 
L 172.951482 108.786361 
L 172.626503 110.2227 
L 172.301523 109.055134 
L 171.976544 110.687066 
L 171.651564 109.73372 
L 171.326585 110.059707 
L 171.001605 110.930558 
L 170.676626 109.346527 
L 170.351646 111.879913 
L 170.026667 112.080828 
L 169.701687 110.836089 
L 169.376708 111.465444 
L 169.051728 111.644404 
L 168.726749 111.54062 
L 168.401769 112.574465 
L 168.07679 110.992429 
L 167.75181 113.092053 
L 167.42683 112.18062 
L 167.101851 111.308437 
L 166.776871 112.491305 
L 166.451892 112.733467 
L 166.126912 111.477419 
L 165.801933 111.502034 
L 165.476953 111.491389 
L 165.151974 111.662366 
L 164.826994 110.77954 
L 164.502015 111.207315 
L 164.177035 111.506026 
L 163.852056 112.673592 
L 163.527076 111.81272 
L 163.202097 112.901783 
L 162.877117 112.21721 
L 162.552138 111.590516 
L 162.227158 112.587771 
L 161.902179 112.255796 
L 161.577199 113.088727 
L 161.252219 113.125982 
L 160.92724 114.566979 
L 160.60226 115.186355 
L 160.277281 114.779868 
L 159.952301 116.504274 
L 159.627322 115.821697 
L 159.302342 114.356085 
L 158.977363 114.823112 
L 158.652383 115.189681 
L 158.327404 115.181698 
L 158.002424 115.52099 
L 157.677445 113.924984 
L 157.352465 114.173798 
L 157.027486 115.117831 
L 156.702506 115.202321 
L 156.377527 114.688725 
L 156.052547 115.214962 
L 155.727568 114.760575 
L 155.402588 116.666603 
L 155.077609 115.603485 
L 154.752629 116.428432 
L 154.427649 114.47384 
L 154.10267 115.464442 
L 153.77769 116.711842 
L 153.452711 118.70502 
L 153.127731 117.067101 
L 152.802752 116.456374 
L 152.477772 116.890802 
L 152.152793 118.271923 
L 151.827813 117.449637 
L 151.502834 116.905438 
L 151.177854 117.700448 
L 150.852875 117.827516 
L 150.527895 117.43234 
L 150.202916 116.604066 
L 149.877936 118.09895 
L 149.552957 117.547433 
L 149.227977 118.746268 
L 148.902998 117.770967 
L 148.578018 117.182195 
L 148.253038 117.048473 
L 147.928059 119.565893 
L 147.603079 117.436332 
L 147.2781 119.233918 
L 146.95312 117.399076 
L 146.628141 117.200822 
L 146.303161 119.20398 
L 145.978182 117.989844 
L 145.653202 117.733046 
L 145.328223 118.116913 
L 145.003243 117.553421 
L 144.678264 117.709762 
L 144.353284 118.181445 
L 144.028305 118.893295 
L 143.703325 117.473587 
L 143.378346 119.090218 
L 143.053366 120.036911 
L 142.728387 118.987764 
L 142.403407 119.222608 
L 142.078428 119.79741 
L 141.753448 119.538616 
L 141.428468 121.720735 
L 141.103489 118.842068 
L 140.778509 120.236495 
L 140.45353 121.549758 
L 140.12855 120.631006 
L 139.803571 118.955166 
L 139.478591 119.774125 
L 139.153612 119.77213 
L 138.828632 119.663689 
L 138.503653 118.87001 
L 138.178673 119.324396 
L 137.853694 119.625768 
L 137.528714 120.828594 
L 137.203735 119.031673 
L 136.878755 120.09346 
L 136.553776 121.17587 
L 136.228796 120.807305 
L 135.903817 121.727388 
L 135.578837 120.710174 
L 135.253857 122.234331 
L 134.928878 121.861774 
L 134.603898 123.212958 
L 134.278919 123.386596 
L 133.953939 121.499862 
L 133.62896 123.329382 
L 133.30398 123.377947 
L 132.979001 123.528966 
L 132.654021 124.492291 
L 132.329042 123.57487 
L 132.004062 124.130379 
L 131.679083 125.906676 
L 131.354103 124.250129 
L 131.029124 125.826178 
L 130.704144 127.081561 
L 130.379165 126.283225 
L 130.054185 127.168047 
L 129.729206 127.970375 
L 129.404226 127.050293 
L 129.079247 126.063017 
L 128.754267 128.784678 
L 128.429287 126.381021 
L 128.104308 128.579772 
L 127.779328 127.984346 
L 127.454349 127.932454 
L 127.129369 126.55732 
L 126.80439 129.082723 
L 126.47941 128.033577 
L 126.154431 128.52788 
L 125.829451 130.73927 
L 125.504472 128.236487 
L 125.179492 129.626922 
L 124.854513 130.125217 
L 124.529533 130.570289 
L 124.204554 130.294863 
L 123.879574 131.713906 
L 123.554595 131.35665 
L 123.229615 130.703345 
L 122.904636 133.620598 
L 122.579656 134.289204 
L 122.254676 134.065005 
L 121.929697 135.214609 
L 121.604717 133.981845 
L 121.279738 133.451617 
L 120.954758 132.720474 
L 120.629779 133.787583 
L 120.304799 134.239974 
L 119.97982 133.104341 
L 119.65484 134.907915 
L 119.329861 133.973196 
L 119.004881 137.23706 
L 118.679902 137.801218 
L 118.354922 135.532613 
L 118.029943 136.651614 
L 117.704963 137.09336 
L 117.379984 136.495273 
L 117.055004 136.253111 
L 116.730025 133.766294 
L 116.405045 136.02492 
L 116.080066 133.661845 
L 115.755086 133.510827 
L 115.430106 132.582761 
L 115.105127 136.374857 
L 114.780147 139.68396 
L 114.455168 140.052525 
L 114.130188 138.600884 
L 113.805209 139.879552 
L 113.480229 141.602628 
L 113.15525 142.245288 
L 112.83027 140.496267 
L 112.505291 140.761714 
L 112.180311 141.804207 
L 111.855332 141.409696 
L 111.530352 141.617264 
L 111.205373 139.774438 
L 110.880393 141.394395 
L 110.555414 140.072484 
L 110.230434 140.960632 
L 109.905455 140.735768 
L 109.580475 140.495602 
L 109.255495 141.973854 
L 108.930516 141.795559 
L 108.605536 141.496183 
L 108.280557 141.495517 
L 107.955577 142.761545 
L 107.630598 142.933188 
L 107.305618 141.627243 
L 106.980639 142.931192 
L 106.655659 143.632397 
L 106.33068 143.183333 
L 106.0057 143.164705 
L 105.680721 144.203207 
L 105.355741 144.384828 
L 105.030762 145.819172 
L 104.705782 145.155223 
L 104.380803 143.541919 
L 104.055823 148.011935 
L 103.730844 147.202289 
L 103.405864 147.568193 
L 103.080885 146.547654 
L 102.755905 146.515055 
L 102.430925 148.281373 
L 102.105946 148.128359 
L 101.780966 145.727364 
L 101.455987 146.513724 
L 101.131007 146.881624 
L 100.806028 147.588817 
L 100.481048 150.025072 
L 100.156069 151.780081 
L 99.831089 150.580581 
L 99.50611 151.328356 
L 99.18113 151.460081 
L 98.856151 152.285028 
L 98.531171 152.885111 
L 98.206192 153.952885 
L 97.881212 151.414177 
L 97.556233 153.71405 
L 97.231253 151.375591 
L 96.906274 152.940995 
L 96.581294 154.324777 
L 96.256314 156.697831 
L 95.931335 158.303151 
L 95.606355 157.550054 
L 95.281376 156.646604 
L 94.956396 160.962276 
L 94.631417 160.927681 
L 94.306437 158.216 
L 93.981458 162.051339 
L 93.656478 160.53317 
L 93.331499 159.10814 
L 93.006519 161.610258 
L 92.68154 162.391297 
L 92.35656 163.294747 
L 92.031581 163.596784 
L 91.706601 164.73907 
L 91.381622 162.906889 
L 91.056642 166.620482 
L 90.731663 165.382396 
L 90.406683 167.137404 
L 90.081704 165.719693 
L 89.756724 167.430128 
L 89.431744 166.433538 
L 89.106765 166.731584 
L 88.781785 168.423391 
L 88.456806 168.32759 
L 88.131826 168.855823 
L 87.806847 167.835283 
L 87.481867 172.025882 
L 87.156888 170.695987 
L 86.831908 174.148125 
L 86.506929 174.822719 
L 86.181949 174.568582 
L 85.85697 178.343381 
L 85.53199 181.35976 
L 85.207011 185.926242 
L 84.882031 184.586368 
L 84.557052 186.255556 
L 84.232072 191.105447 
L 83.907093 191.463368 
L 83.582113 196.930639 
L 83.257133 197.837415 
L 82.932154 200.106685 
L 82.607174 201.41263 
L 82.282195 205.285225 
L 81.957215 214.597149 
L 81.632236 214.977689 
L 81.307256 212.924635 
L 80.982277 219.653942 
L 80.657297 221.512069 
L 80.332318 226.183 
L 80.007338 236.581327 
L 79.682359 238.446107 
L 79.357379 248.762604 
L 79.0324 246.456078 
L 78.70742 251.328588 
L 78.382441 256.41798 
L 78.057461 262.384212 
L 77.732482 273.570229 
L 77.407502 277.760828 
L 77.082523 280.797831 
L 76.757543 282.198246 
L 76.432563 283.256706 
L 76.107584 283.755001 
L 75.782604 285.442816 
L 75.457625 286.436079 
L 75.132645 287.171879 
L 74.807666 287.643563 
L 74.482686 292.529379 
L 74.157707 303.139264 
L 73.832727 303.689451 
z
" style="fill:#1f77b4;fill-opacity:0.25;"/>
   </g>
   <g id="matplotlib.axis_1">
    <g id="xtick_1">
     <g id="line2d_1">
      <defs>
       <path d="M 0 0 
L 0 3.5 
" id="mffc7d9ddff" style="stroke:#000000;stroke-width:0.8;"/>
      </defs>
      <g>
       <use style="stroke:#000000;stroke-width:0.8;" x="73.507748" xlink:href="#mffc7d9ddff" y="307.584"/>
      </g>
     </g>
     <g id="text_1">
      <!-- 0 -->
      <g transform="translate(70.326498 322.182437)scale(0.1 -0.1)">
       <defs>
        <path d="M 2034 4250 
Q 1547 4250 1301 3770 
Q 1056 3291 1056 2328 
Q 1056 1369 1301 889 
Q 1547 409 2034 409 
Q 2525 409 2770 889 
Q 3016 1369 3016 2328 
Q 3016 3291 2770 3770 
Q 2525 4250 2034 4250 
z
M 2034 4750 
Q 2819 4750 3233 4129 
Q 3647 3509 3647 2328 
Q 3647 1150 3233 529 
Q 2819 -91 2034 -91 
Q 1250 -91 836 529 
Q 422 1150 422 2328 
Q 422 3509 836 4129 
Q 1250 4750 2034 4750 
z
" id="DejaVuSans-30" transform="scale(0.015625)"/>
       </defs>
       <use xlink:href="#DejaVuSans-30"/>
      </g>
     </g>
    </g>
    <g id="xtick_2">
     <g id="line2d_2">
      <g>
       <use style="stroke:#000000;stroke-width:0.8;" x="138.503653" xlink:href="#mffc7d9ddff" y="307.584"/>
      </g>
     </g>
     <g id="text_2">
      <!-- 200 -->
      <g transform="translate(128.959903 322.182437)scale(0.1 -0.1)">
       <defs>
        <path d="M 1228 531 
L 3431 531 
L 3431 0 
L 469 0 
L 469 531 
Q 828 903 1448 1529 
Q 2069 2156 2228 2338 
Q 2531 2678 2651 2914 
Q 2772 3150 2772 3378 
Q 2772 3750 2511 3984 
Q 2250 4219 1831 4219 
Q 1534 4219 1204 4116 
Q 875 4013 500 3803 
L 500 4441 
Q 881 4594 1212 4672 
Q 1544 4750 1819 4750 
Q 2544 4750 2975 4387 
Q 3406 4025 3406 3419 
Q 3406 3131 3298 2873 
Q 3191 2616 2906 2266 
Q 2828 2175 2409 1742 
Q 1991 1309 1228 531 
z
" id="DejaVuSans-32" transform="scale(0.015625)"/>
       </defs>
       <use xlink:href="#DejaVuSans-32"/>
       <use x="63.623047" xlink:href="#DejaVuSans-30"/>
       <use x="127.246094" xlink:href="#DejaVuSans-30"/>
      </g>
     </g>
    </g>
    <g id="xtick_3">
     <g id="line2d_3">
      <g>
       <use style="stroke:#000000;stroke-width:0.8;" x="203.499558" xlink:href="#mffc7d9ddff" y="307.584"/>
      </g>
     </g>
     <g id="text_3">
      <!-- 400 -->
      <g transform="translate(193.955808 322.182437)scale(0.1 -0.1)">
       <defs>
        <path d="M 2419 4116 
L 825 1625 
L 2419 1625 
L 2419 4116 
z
M 2253 4666 
L 3047 4666 
L 3047 1625 
L 3713 1625 
L 3713 1100 
L 3047 1100 
L 3047 0 
L 2419 0 
L 2419 1100 
L 313 1100 
L 313 1709 
L 2253 4666 
z
" id="DejaVuSans-34" transform="scale(0.015625)"/>
       </defs>
       <use xlink:href="#DejaVuSans-34"/>
       <use x="63.623047" xlink:href="#DejaVuSans-30"/>
       <use x="127.246094" xlink:href="#DejaVuSans-30"/>
      </g>
     </g>
    </g>
    <g id="xtick_4">
     <g id="line2d_4">
      <g>
       <use style="stroke:#000000;stroke-width:0.8;" x="268.495463" xlink:href="#mffc7d9ddff" y="307.584"/>
      </g>
     </g>
     <g id="text_4">
      <!-- 600 -->
      <g transform="translate(258.951713 322.182437)scale(0.1 -0.1)">
       <defs>
        <path d="M 2113 2584 
Q 1688 2584 1439 2293 
Q 1191 2003 1191 1497 
Q 1191 994 1439 701 
Q 1688 409 2113 409 
Q 2538 409 2786 701 
Q 3034 994 3034 1497 
Q 3034 2003 2786 2293 
Q 2538 2584 2113 2584 
z
M 3366 4563 
L 3366 3988 
Q 3128 4100 2886 4159 
Q 2644 4219 2406 4219 
Q 1781 4219 1451 3797 
Q 1122 3375 1075 2522 
Q 1259 2794 1537 2939 
Q 1816 3084 2150 3084 
Q 2853 3084 3261 2657 
Q 3669 2231 3669 1497 
Q 3669 778 3244 343 
Q 2819 -91 2113 -91 
Q 1303 -91 875 529 
Q 447 1150 447 2328 
Q 447 3434 972 4092 
Q 1497 4750 2381 4750 
Q 2619 4750 2861 4703 
Q 3103 4656 3366 4563 
z
" id="DejaVuSans-36" transform="scale(0.015625)"/>
       </defs>
       <use xlink:href="#DejaVuSans-36"/>
       <use x="63.623047" xlink:href="#DejaVuSans-30"/>
       <use x="127.246094" xlink:href="#DejaVuSans-30"/>
      </g>
     </g>
    </g>
    <g id="xtick_5">
     <g id="line2d_5">
      <g>
       <use style="stroke:#000000;stroke-width:0.8;" x="333.491368" xlink:href="#mffc7d9ddff" y="307.584"/>
      </g>
     </g>
     <g id="text_5">
      <!-- 800 -->
      <g transform="translate(323.947618 322.182437)scale(0.1 -0.1)">
       <defs>
        <path d="M 2034 2216 
Q 1584 2216 1326 1975 
Q 1069 1734 1069 1313 
Q 1069 891 1326 650 
Q 1584 409 2034 409 
Q 2484 409 2743 651 
Q 3003 894 3003 1313 
Q 3003 1734 2745 1975 
Q 2488 2216 2034 2216 
z
M 1403 2484 
Q 997 2584 770 2862 
Q 544 3141 544 3541 
Q 544 4100 942 4425 
Q 1341 4750 2034 4750 
Q 2731 4750 3128 4425 
Q 3525 4100 3525 3541 
Q 3525 3141 3298 2862 
Q 3072 2584 2669 2484 
Q 3125 2378 3379 2068 
Q 3634 1759 3634 1313 
Q 3634 634 3220 271 
Q 2806 -91 2034 -91 
Q 1263 -91 848 271 
Q 434 634 434 1313 
Q 434 1759 690 2068 
Q 947 2378 1403 2484 
z
M 1172 3481 
Q 1172 3119 1398 2916 
Q 1625 2713 2034 2713 
Q 2441 2713 2670 2916 
Q 2900 3119 2900 3481 
Q 2900 3844 2670 4047 
Q 2441 4250 2034 4250 
Q 1625 4250 1398 4047 
Q 1172 3844 1172 3481 
z
" id="DejaVuSans-38" transform="scale(0.015625)"/>
       </defs>
       <use xlink:href="#DejaVuSans-38"/>
       <use x="63.623047" xlink:href="#DejaVuSans-30"/>
       <use x="127.246094" xlink:href="#DejaVuSans-30"/>
      </g>
     </g>
    </g>
    <g id="xtick_6">
     <g id="line2d_6">
      <g>
       <use style="stroke:#000000;stroke-width:0.8;" x="398.487273" xlink:href="#mffc7d9ddff" y="307.584"/>
      </g>
     </g>
     <g id="text_6">
      <!-- 1000 -->
      <g transform="translate(385.762273 322.182437)scale(0.1 -0.1)">
       <defs>
        <path d="M 794 531 
L 1825 531 
L 1825 4091 
L 703 3866 
L 703 4441 
L 1819 4666 
L 2450 4666 
L 2450 531 
L 3481 531 
L 3481 0 
L 794 0 
L 794 531 
z
" id="DejaVuSans-31" transform="scale(0.015625)"/>
       </defs>
       <use xlink:href="#DejaVuSans-31"/>
       <use x="63.623047" xlink:href="#DejaVuSans-30"/>
       <use x="127.246094" xlink:href="#DejaVuSans-30"/>
       <use x="190.869141" xlink:href="#DejaVuSans-30"/>
      </g>
     </g>
    </g>
    <g id="text_7">
     <!-- Timestep -->
     <g transform="translate(213.110781 335.860562)scale(0.1 -0.1)">
      <defs>
       <path d="M -19 4666 
L 3928 4666 
L 3928 4134 
L 2272 4134 
L 2272 0 
L 1638 0 
L 1638 4134 
L -19 4134 
L -19 4666 
z
" id="DejaVuSans-54" transform="scale(0.015625)"/>
       <path d="M 603 3500 
L 1178 3500 
L 1178 0 
L 603 0 
L 603 3500 
z
M 603 4863 
L 1178 4863 
L 1178 4134 
L 603 4134 
L 603 4863 
z
" id="DejaVuSans-69" transform="scale(0.015625)"/>
       <path d="M 3328 2828 
Q 3544 3216 3844 3400 
Q 4144 3584 4550 3584 
Q 5097 3584 5394 3201 
Q 5691 2819 5691 2113 
L 5691 0 
L 5113 0 
L 5113 2094 
Q 5113 2597 4934 2840 
Q 4756 3084 4391 3084 
Q 3944 3084 3684 2787 
Q 3425 2491 3425 1978 
L 3425 0 
L 2847 0 
L 2847 2094 
Q 2847 2600 2669 2842 
Q 2491 3084 2119 3084 
Q 1678 3084 1418 2786 
Q 1159 2488 1159 1978 
L 1159 0 
L 581 0 
L 581 3500 
L 1159 3500 
L 1159 2956 
Q 1356 3278 1631 3431 
Q 1906 3584 2284 3584 
Q 2666 3584 2933 3390 
Q 3200 3197 3328 2828 
z
" id="DejaVuSans-6d" transform="scale(0.015625)"/>
       <path d="M 3597 1894 
L 3597 1613 
L 953 1613 
Q 991 1019 1311 708 
Q 1631 397 2203 397 
Q 2534 397 2845 478 
Q 3156 559 3463 722 
L 3463 178 
Q 3153 47 2828 -22 
Q 2503 -91 2169 -91 
Q 1331 -91 842 396 
Q 353 884 353 1716 
Q 353 2575 817 3079 
Q 1281 3584 2069 3584 
Q 2775 3584 3186 3129 
Q 3597 2675 3597 1894 
z
M 3022 2063 
Q 3016 2534 2758 2815 
Q 2500 3097 2075 3097 
Q 1594 3097 1305 2825 
Q 1016 2553 972 2059 
L 3022 2063 
z
" id="DejaVuSans-65" transform="scale(0.015625)"/>
       <path d="M 2834 3397 
L 2834 2853 
Q 2591 2978 2328 3040 
Q 2066 3103 1784 3103 
Q 1356 3103 1142 2972 
Q 928 2841 928 2578 
Q 928 2378 1081 2264 
Q 1234 2150 1697 2047 
L 1894 2003 
Q 2506 1872 2764 1633 
Q 3022 1394 3022 966 
Q 3022 478 2636 193 
Q 2250 -91 1575 -91 
Q 1294 -91 989 -36 
Q 684 19 347 128 
L 347 722 
Q 666 556 975 473 
Q 1284 391 1588 391 
Q 1994 391 2212 530 
Q 2431 669 2431 922 
Q 2431 1156 2273 1281 
Q 2116 1406 1581 1522 
L 1381 1569 
Q 847 1681 609 1914 
Q 372 2147 372 2553 
Q 372 3047 722 3315 
Q 1072 3584 1716 3584 
Q 2034 3584 2315 3537 
Q 2597 3491 2834 3397 
z
" id="DejaVuSans-73" transform="scale(0.015625)"/>
       <path d="M 1172 4494 
L 1172 3500 
L 2356 3500 
L 2356 3053 
L 1172 3053 
L 1172 1153 
Q 1172 725 1289 603 
Q 1406 481 1766 481 
L 2356 481 
L 2356 0 
L 1766 0 
Q 1100 0 847 248 
Q 594 497 594 1153 
L 594 3053 
L 172 3053 
L 172 3500 
L 594 3500 
L 594 4494 
L 1172 4494 
z
" id="DejaVuSans-74" transform="scale(0.015625)"/>
       <path d="M 1159 525 
L 1159 -1331 
L 581 -1331 
L 581 3500 
L 1159 3500 
L 1159 2969 
Q 1341 3281 1617 3432 
Q 1894 3584 2278 3584 
Q 2916 3584 3314 3078 
Q 3713 2572 3713 1747 
Q 3713 922 3314 415 
Q 2916 -91 2278 -91 
Q 1894 -91 1617 61 
Q 1341 213 1159 525 
z
M 3116 1747 
Q 3116 2381 2855 2742 
Q 2594 3103 2138 3103 
Q 1681 3103 1420 2742 
Q 1159 2381 1159 1747 
Q 1159 1113 1420 752 
Q 1681 391 2138 391 
Q 2594 391 2855 752 
Q 3116 1113 3116 1747 
z
" id="DejaVuSans-70" transform="scale(0.015625)"/>
      </defs>
      <use xlink:href="#DejaVuSans-54"/>
      <use x="57.958984" xlink:href="#DejaVuSans-69"/>
      <use x="85.742188" xlink:href="#DejaVuSans-6d"/>
      <use x="183.154297" xlink:href="#DejaVuSans-65"/>
      <use x="244.677734" xlink:href="#DejaVuSans-73"/>
      <use x="296.777344" xlink:href="#DejaVuSans-74"/>
      <use x="335.986328" xlink:href="#DejaVuSans-65"/>
      <use x="397.509766" xlink:href="#DejaVuSans-70"/>
     </g>
    </g>
   </g>
   <g id="matplotlib.axis_2">
    <g id="ytick_1">
     <g id="line2d_7">
      <defs>
       <path d="M 0 0 
L -3.5 0 
" id="m4439f98340" style="stroke:#000000;stroke-width:0.8;"/>
      </defs>
      <g>
       <use style="stroke:#000000;stroke-width:0.8;" x="57.6" xlink:href="#m4439f98340" y="307.584"/>
      </g>
     </g>
     <g id="text_8">
      <!-- 0 -->
      <g transform="translate(44.2375 311.383219)scale(0.1 -0.1)">
       <use xlink:href="#DejaVuSans-30"/>
      </g>
     </g>
    </g>
    <g id="ytick_2">
     <g id="line2d_8">
      <g>
       <use style="stroke:#000000;stroke-width:0.8;" x="57.6" xlink:href="#m4439f98340" y="254.3616"/>
      </g>
     </g>
     <g id="text_9">
      <!-- 200 -->
      <g transform="translate(31.5125 258.160819)scale(0.1 -0.1)">
       <use xlink:href="#DejaVuSans-32"/>
       <use x="63.623047" xlink:href="#DejaVuSans-30"/>
       <use x="127.246094" xlink:href="#DejaVuSans-30"/>
      </g>
     </g>
    </g>
    <g id="ytick_3">
     <g id="line2d_9">
      <g>
       <use style="stroke:#000000;stroke-width:0.8;" x="57.6" xlink:href="#m4439f98340" y="201.1392"/>
      </g>
     </g>
     <g id="text_10">
      <!-- 400 -->
      <g transform="translate(31.5125 204.938419)scale(0.1 -0.1)">
       <use xlink:href="#DejaVuSans-34"/>
       <use x="63.623047" xlink:href="#DejaVuSans-30"/>
       <use x="127.246094" xlink:href="#DejaVuSans-30"/>
      </g>
     </g>
    </g>
    <g id="ytick_4">
     <g id="line2d_10">
      <g>
       <use style="stroke:#000000;stroke-width:0.8;" x="57.6" xlink:href="#m4439f98340" y="147.9168"/>
      </g>
     </g>
     <g id="text_11">
      <!-- 600 -->
      <g transform="translate(31.5125 151.716019)scale(0.1 -0.1)">
       <use xlink:href="#DejaVuSans-36"/>
       <use x="63.623047" xlink:href="#DejaVuSans-30"/>
       <use x="127.246094" xlink:href="#DejaVuSans-30"/>
      </g>
     </g>
    </g>
    <g id="ytick_5">
     <g id="line2d_11">
      <g>
       <use style="stroke:#000000;stroke-width:0.8;" x="57.6" xlink:href="#m4439f98340" y="94.6944"/>
      </g>
     </g>
     <g id="text_12">
      <!-- 800 -->
      <g transform="translate(31.5125 98.493619)scale(0.1 -0.1)">
       <use xlink:href="#DejaVuSans-38"/>
       <use x="63.623047" xlink:href="#DejaVuSans-30"/>
       <use x="127.246094" xlink:href="#DejaVuSans-30"/>
      </g>
     </g>
    </g>
    <g id="ytick_6">
     <g id="line2d_12">
      <g>
       <use style="stroke:#000000;stroke-width:0.8;" x="57.6" xlink:href="#m4439f98340" y="41.472"/>
      </g>
     </g>
     <g id="text_13">
      <!-- 1000 -->
      <g transform="translate(25.15 45.271219)scale(0.1 -0.1)">
       <use xlink:href="#DejaVuSans-31"/>
       <use x="63.623047" xlink:href="#DejaVuSans-30"/>
       <use x="127.246094" xlink:href="#DejaVuSans-30"/>
       <use x="190.869141" xlink:href="#DejaVuSans-30"/>
      </g>
     </g>
    </g>
    <g id="text_14">
     <!-- Reward -->
     <g transform="translate(19.070312 193.149094)rotate(-90)scale(0.1 -0.1)">
      <defs>
       <path d="M 2841 2188 
Q 3044 2119 3236 1894 
Q 3428 1669 3622 1275 
L 4263 0 
L 3584 0 
L 2988 1197 
Q 2756 1666 2539 1819 
Q 2322 1972 1947 1972 
L 1259 1972 
L 1259 0 
L 628 0 
L 628 4666 
L 2053 4666 
Q 2853 4666 3247 4331 
Q 3641 3997 3641 3322 
Q 3641 2881 3436 2590 
Q 3231 2300 2841 2188 
z
M 1259 4147 
L 1259 2491 
L 2053 2491 
Q 2509 2491 2742 2702 
Q 2975 2913 2975 3322 
Q 2975 3731 2742 3939 
Q 2509 4147 2053 4147 
L 1259 4147 
z
" id="DejaVuSans-52" transform="scale(0.015625)"/>
       <path d="M 269 3500 
L 844 3500 
L 1563 769 
L 2278 3500 
L 2956 3500 
L 3675 769 
L 4391 3500 
L 4966 3500 
L 4050 0 
L 3372 0 
L 2619 2869 
L 1863 0 
L 1184 0 
L 269 3500 
z
" id="DejaVuSans-77" transform="scale(0.015625)"/>
       <path d="M 2194 1759 
Q 1497 1759 1228 1600 
Q 959 1441 959 1056 
Q 959 750 1161 570 
Q 1363 391 1709 391 
Q 2188 391 2477 730 
Q 2766 1069 2766 1631 
L 2766 1759 
L 2194 1759 
z
M 3341 1997 
L 3341 0 
L 2766 0 
L 2766 531 
Q 2569 213 2275 61 
Q 1981 -91 1556 -91 
Q 1019 -91 701 211 
Q 384 513 384 1019 
Q 384 1609 779 1909 
Q 1175 2209 1959 2209 
L 2766 2209 
L 2766 2266 
Q 2766 2663 2505 2880 
Q 2244 3097 1772 3097 
Q 1472 3097 1187 3025 
Q 903 2953 641 2809 
L 641 3341 
Q 956 3463 1253 3523 
Q 1550 3584 1831 3584 
Q 2591 3584 2966 3190 
Q 3341 2797 3341 1997 
z
" id="DejaVuSans-61" transform="scale(0.015625)"/>
       <path d="M 2631 2963 
Q 2534 3019 2420 3045 
Q 2306 3072 2169 3072 
Q 1681 3072 1420 2755 
Q 1159 2438 1159 1844 
L 1159 0 
L 581 0 
L 581 3500 
L 1159 3500 
L 1159 2956 
Q 1341 3275 1631 3429 
Q 1922 3584 2338 3584 
Q 2397 3584 2469 3576 
Q 2541 3569 2628 3553 
L 2631 2963 
z
" id="DejaVuSans-72" transform="scale(0.015625)"/>
       <path d="M 2906 2969 
L 2906 4863 
L 3481 4863 
L 3481 0 
L 2906 0 
L 2906 525 
Q 2725 213 2448 61 
Q 2172 -91 1784 -91 
Q 1150 -91 751 415 
Q 353 922 353 1747 
Q 353 2572 751 3078 
Q 1150 3584 1784 3584 
Q 2172 3584 2448 3432 
Q 2725 3281 2906 2969 
z
M 947 1747 
Q 947 1113 1208 752 
Q 1469 391 1925 391 
Q 2381 391 2643 752 
Q 2906 1113 2906 1747 
Q 2906 2381 2643 2742 
Q 2381 3103 1925 3103 
Q 1469 3103 1208 2742 
Q 947 2381 947 1747 
z
" id="DejaVuSans-64" transform="scale(0.015625)"/>
      </defs>
      <use xlink:href="#DejaVuSans-52"/>
      <use x="64.982422" xlink:href="#DejaVuSans-65"/>
      <use x="126.505859" xlink:href="#DejaVuSans-77"/>
      <use x="208.292969" xlink:href="#DejaVuSans-61"/>
      <use x="269.572266" xlink:href="#DejaVuSans-72"/>
      <use x="308.935547" xlink:href="#DejaVuSans-64"/>
     </g>
    </g>
   </g>
   <g id="line2d_13">
    <path clip-path="url(#p6b24120da2)" d="M 73.832727 304.172444 
L 74.157707 303.946249 
L 74.482686 301.408871 
L 74.807666 296.890289 
L 75.132645 288.878988 
L 75.457625 288.184435 
L 76.432563 285.160072 
L 77.082523 284.058369 
L 77.407502 282.11442 
L 78.70742 271.930314 
L 79.0324 270.329651 
L 79.357379 269.364995 
L 79.682359 265.627452 
L 80.007338 257.549622 
L 80.332318 254.67029 
L 80.657297 253.439522 
L 80.982277 248.781231 
L 81.307256 237.91987 
L 81.632236 232.66948 
L 81.957215 229.220669 
L 82.282195 235.232139 
L 82.607174 229.631812 
L 83.257133 210.638068 
L 83.907093 197.292551 
L 84.232072 193.810476 
L 84.557052 193.609561 
L 84.882031 188.715761 
L 85.207011 190.01971 
L 86.181949 183.840589 
L 86.506929 184.088074 
L 87.156888 177.867706 
L 87.481867 176.702135 
L 87.806847 175.085505 
L 88.131826 176.1433 
L 88.456806 172.512202 
L 88.781785 174.645089 
L 89.106765 174.090246 
L 89.431744 174.31378 
L 89.756724 172.630621 
L 90.081704 168.110709 
L 90.406683 169.576986 
L 90.731663 168.467299 
L 91.056642 169.400022 
L 91.381622 169.046093 
L 91.706601 167.806011 
L 92.35656 167.631708 
L 92.68154 167.358943 
L 93.006519 167.491999 
L 93.331499 164.446347 
L 93.656478 164.206846 
L 93.981458 163.762439 
L 94.306437 163.069217 
L 94.631417 163.625391 
L 94.956396 163.300735 
L 95.281376 161.41267 
L 95.606355 162.546307 
L 95.931335 162.655413 
L 96.256314 163.009342 
L 96.581294 160.812588 
L 96.906274 161.187805 
L 97.231253 158.952465 
L 97.556233 157.574004 
L 97.881212 158.711633 
L 98.206192 157.049764 
L 98.531171 157.624566 
L 98.856151 155.769765 
L 99.18113 155.096502 
L 99.50611 153.711389 
L 99.831089 155.409183 
L 100.156069 154.492428 
L 100.806028 154.68935 
L 101.131007 153.683447 
L 101.455987 153.887023 
L 101.780966 151.829977 
L 102.105946 150.846693 
L 102.430925 150.343741 
L 102.755905 150.83871 
L 103.080885 149.355135 
L 103.405864 151.235217 
L 103.730844 150.953138 
L 104.055823 149.98449 
L 104.380803 148.394471 
L 104.705782 150.303825 
L 105.030762 148.555469 
L 105.355741 150.535342 
L 105.680721 149.156882 
L 106.0057 148.67788 
L 106.33068 147.694596 
L 106.655659 150.619167 
L 106.980639 147.653349 
L 107.305618 147.111811 
L 107.630598 145.709401 
L 107.955577 147.75048 
L 108.280557 147.617424 
L 108.605536 146.248278 
L 108.930516 146.080627 
L 109.255495 147.027986 
L 109.580475 143.887864 
L 109.905455 146.128527 
L 110.230434 145.491189 
L 110.555414 148.733764 
L 110.880393 147.827652 
L 111.205373 147.847611 
L 111.530352 148.095095 
L 111.855332 150.134844 
L 112.180311 146.976094 
L 112.83027 149.259335 
L 113.15525 148.43971 
L 113.480229 145.625576 
L 113.805209 146.801791 
L 114.130188 145.500503 
L 114.455168 142.959133 
L 114.780147 144.964287 
L 115.105127 141.069738 
L 115.430106 142.590568 
L 115.755086 141.349156 
L 116.080066 141.563376 
L 116.405045 141.157555 
L 116.730025 139.801715 
L 117.055004 140.198221 
L 117.704963 139.812359 
L 118.029943 140.920716 
L 118.354922 139.453108 
L 118.679902 140.192899 
L 119.329861 139.926787 
L 119.65484 140.501589 
L 119.97982 139.230904 
L 120.304799 139.562214 
L 120.629779 139.075229 
L 120.954758 140.143668 
L 121.279738 138.632152 
L 121.929697 137.950906 
L 122.254676 138.38999 
L 122.579656 138.597558 
L 122.904636 138.621508 
L 123.229615 137.942922 
L 123.554595 137.775272 
L 123.879574 136.601718 
L 124.204554 136.279722 
L 124.529533 137.815188 
L 124.854513 135.768787 
L 125.179492 135.068913 
L 125.504472 135.130118 
L 126.154431 136.34625 
L 126.47941 135.446792 
L 127.129369 135.091532 
L 127.454349 135.476064 
L 128.104308 133.822178 
L 128.754267 133.70775 
L 129.079247 134.579267 
L 129.404226 133.476232 
L 129.729206 133.135609 
L 130.054185 130.502431 
L 130.379165 132.017939 
L 130.704144 130.431911 
L 131.029124 131.612118 
L 131.354103 134.423591 
L 131.679083 129.795903 
L 132.004062 128.998898 
L 132.329042 128.936362 
L 132.654021 128.724803 
L 132.979001 129.594989 
L 133.30398 128.609044 
L 133.62896 128.751414 
L 133.953939 128.292371 
L 134.603898 129.362141 
L 134.928878 128.621019 
L 135.578837 128.491955 
L 135.903817 128.208545 
L 136.228796 127.64838 
L 136.553776 127.817361 
L 136.878755 126.86601 
L 137.203735 127.915822 
L 137.528714 127.323723 
L 137.853694 128.631663 
L 138.503653 127.125469 
L 138.828632 128.805967 
L 139.153612 127.705594 
L 139.478591 128.610374 
L 140.12855 126.838068 
L 140.45353 125.105679 
L 140.778509 126.464181 
L 141.103489 126.059691 
L 141.428468 125.007218 
L 141.753448 126.062352 
L 142.403407 124.812956 
L 142.728387 126.501437 
L 143.053366 124.473663 
L 143.378346 123.711252 
L 143.703325 124.494952 
L 144.028305 123.964059 
L 144.678264 122.608218 
L 145.003243 123.970712 
L 145.328223 123.693955 
L 145.653202 122.311503 
L 145.978182 122.417948 
L 146.303161 123.218945 
L 146.95312 124.134371 
L 147.2781 124.029256 
L 147.603079 125.114993 
L 147.928059 123.32406 
L 148.253038 122.527054 
L 148.578018 123.821689 
L 148.902998 122.545682 
L 149.227977 122.70801 
L 149.552957 123.055286 
L 150.202916 121.232419 
L 150.527895 122.503104 
L 150.852875 122.378031 
L 151.177854 122.632168 
L 151.502834 121.962897 
L 151.827813 122.27957 
L 152.152793 121.340195 
L 152.477772 121.973541 
L 152.802752 120.704187 
L 153.127731 122.009466 
L 153.452711 121.522481 
L 153.77769 122.799819 
L 154.10267 121.481234 
L 154.427649 123.193665 
L 154.752629 121.213791 
L 155.077609 122.356742 
L 155.402588 120.677576 
L 155.727568 122.830422 
L 156.052547 121.438656 
L 156.377527 121.088719 
L 156.702506 122.250298 
L 157.027486 120.979613 
L 157.352465 120.368886 
L 157.677445 121.982855 
L 158.002424 120.454042 
L 158.327404 120.674915 
L 158.652383 121.579695 
L 158.977363 120.128054 
L 159.302342 121.453292 
L 159.627322 122.270256 
L 159.952301 119.747514 
L 160.277281 120.833251 
L 160.60226 120.962316 
L 160.92724 120.947679 
L 161.577199 118.793503 
L 161.902179 118.895956 
L 162.227158 118.547349 
L 162.552138 119.621111 
L 162.877117 118.942525 
L 163.202097 119.497369 
L 163.527076 120.491297 
L 163.852056 118.403649 
L 164.177035 120.02161 
L 164.502015 118.865353 
L 164.826994 118.162817 
L 165.151974 117.848805 
L 165.476953 117.912672 
L 165.801933 116.74311 
L 166.126912 118.35974 
L 166.776871 118.645811 
L 167.101851 118.200073 
L 167.42683 117.953919 
L 167.75181 117.453629 
L 168.07679 118.172131 
L 168.401769 117.880739 
L 168.726749 116.588765 
L 169.051728 116.361239 
L 169.376708 116.675251 
L 169.701687 116.056541 
L 170.026667 116.567476 
L 170.351646 116.358578 
L 170.676626 115.312758 
L 171.001605 115.368641 
L 171.326585 114.934879 
L 171.651564 115.416541 
L 171.976544 116.1723 
L 172.301523 115.757165 
L 172.626503 114.7965 
L 172.951482 114.885648 
L 173.276462 115.654712 
L 173.601441 115.433839 
L 174.2514 114.667436 
L 174.57638 115.93546 
L 174.90136 115.397914 
L 175.226339 114.427935 
L 175.551319 115.228932 
L 175.876298 114.868351 
L 176.201278 114.797831 
L 176.526257 115.014712 
L 176.851237 116.013963 
L 177.176216 115.272841 
L 177.501196 115.306105 
L 177.826175 113.992842 
L 178.151155 114.213715 
L 178.476134 115.785107 
L 178.801114 114.688725 
L 179.126093 114.356085 
L 179.451073 115.034671 
L 180.101032 114.184443 
L 180.426011 114.345441 
L 180.750991 114.29621 
L 181.075971 114.727311 
L 181.40095 114.172468 
L 181.72593 113.905025 
L 182.050909 113.862447 
L 182.375889 114.809806 
L 182.700868 114.238996 
L 183.350827 113.93962 
L 184.325766 114.784525 
L 184.650745 113.922323 
L 184.975725 115.154421 
L 185.300704 114.148518 
L 185.625684 114.111262 
L 185.950663 114.618205 
L 186.275643 114.612883 
L 186.600622 112.852552 
L 186.925602 114.34278 
L 187.250581 113.561741 
L 187.575561 113.976876 
L 187.900541 113.469932 
L 188.22552 114.215046 
L 188.5505 114.260285 
L 188.875479 114.028767 
L 189.525438 113.947603 
L 189.850418 112.686232 
L 190.175397 112.974964 
L 190.500377 114.442572 
L 190.825356 113.453965 
L 191.150336 112.94303 
L 191.475315 112.772719 
L 191.800295 113.343529 
L 192.125274 113.0375 
L 192.450254 112.118083 
L 192.775233 112.498623 
L 193.100213 112.096794 
L 193.425192 112.472012 
L 193.750172 112.360245 
L 194.075152 111.828021 
L 194.400131 112.450723 
L 194.725111 112.404154 
L 195.05009 112.565151 
L 195.37507 112.211222 
L 195.700049 113.190515 
L 196.025029 112.767396 
L 196.350008 111.80274 
L 196.674988 111.692304 
L 196.999967 113.830514 
L 197.324947 111.981036 
L 197.649926 112.960328 
L 197.974906 112.694216 
L 198.299885 111.154758 
L 198.624865 111.118833 
L 198.949844 111.651057 
L 199.274824 110.049062 
L 199.599803 109.92532 
L 199.924783 110.944529 
L 200.249762 110.891307 
L 200.574742 110.595923 
L 200.899722 109.861453 
L 201.224701 109.548772 
L 201.549681 111.677668 
L 201.87466 109.94927 
L 202.19964 110.674426 
L 202.524619 109.756339 
L 202.849599 110.175466 
L 203.174578 110.198085 
L 203.499558 111.58719 
L 203.824537 110.183449 
L 204.149517 111.028355 
L 204.474496 109.814884 
L 204.799476 109.680497 
L 205.124455 109.043159 
L 205.449435 110.047732 
L 205.774414 109.406402 
L 206.099394 109.224115 
L 206.424373 109.365155 
L 206.749353 109.731059 
L 207.074333 109.462285 
L 207.399312 109.841495 
L 207.724292 109.438335 
L 208.049271 110.082326 
L 208.374251 107.650063 
L 208.69923 108.703866 
L 209.02421 108.172973 
L 209.349189 108.682577 
L 209.674169 109.548772 
L 209.999148 108.679916 
L 210.324128 108.810311 
L 210.649107 107.969397 
L 210.974087 108.719833 
L 211.299066 108.35659 
L 211.624046 110.082326 
L 211.949025 108.999251 
L 212.274005 110.112929 
L 212.598984 109.613969 
L 212.923964 108.766403 
L 213.248943 109.438335 
L 213.573923 108.775716 
L 213.898903 108.544199 
L 214.223882 109.459624 
L 214.548862 108.968648 
L 214.873841 109.882742 
L 215.198821 110.150185 
L 215.5238 108.703866 
L 215.84878 108.505613 
L 216.173759 108.574802 
L 216.498739 107.946778 
L 216.823718 108.528232 
L 217.798657 109.570061 
L 218.123636 108.981953 
L 218.448616 108.770394 
L 218.773595 109.019209 
L 219.098575 108.915425 
L 219.423554 108.325987 
L 219.748534 108.399168 
L 220.073514 107.489065 
L 220.398493 107.527651 
L 220.723473 109.072431 
L 221.373432 107.906861 
L 221.698411 108.038586 
L 222.023391 109.017878 
L 222.34837 108.409812 
L 222.67335 108.673263 
L 222.998329 108.255468 
L 223.323309 108.835592 
L 223.648288 108.898128 
L 223.973268 109.115009 
L 224.298247 108.042578 
L 224.623227 108.049231 
L 224.948206 107.864283 
L 225.273186 108.8795 
L 225.598165 107.522329 
L 225.923145 107.176383 
L 226.248124 108.256798 
L 226.573104 108.464365 
L 226.898084 107.827027 
L 227.223063 109.049812 
L 227.873022 108.035925 
L 228.198002 108.976631 
L 228.847961 107.779127 
L 229.17294 107.83368 
L 229.49792 107.578212 
L 229.822899 108.220873 
L 230.147879 107.630104 
L 230.472858 107.503701 
L 230.797838 107.829688 
L 231.122817 107.084575 
L 231.447797 107.063286 
L 231.772776 107.365323 
L 232.097756 108.204906 
L 232.422735 106.086655 
L 232.747715 107.76183 
L 233.072695 107.422537 
L 233.397674 107.958753 
L 233.722654 107.183036 
L 234.047633 106.887652 
L 234.372613 109.027192 
L 234.697592 106.429939 
L 235.022572 106.246322 
L 235.347551 105.286988 
L 235.672531 106.215719 
L 235.99751 106.187777 
L 236.32249 106.519087 
L 236.647469 106.190438 
L 236.972449 105.365491 
L 237.297428 105.519836 
L 237.622408 106.020127 
L 237.947387 105.140627 
L 238.272367 105.080751 
L 238.597346 104.472685 
L 239.247305 104.941043 
L 239.572285 104.487322 
L 239.897265 105.259046 
L 240.222244 105.293641 
L 240.547224 105.212477 
L 240.872203 105.57705 
L 241.197183 104.632353 
L 241.522162 105.236427 
L 241.847142 104.576469 
L 242.497101 104.798673 
L 242.82208 105.127321 
L 243.14706 104.761417 
L 243.472039 104.774723 
L 243.797019 104.641667 
L 244.121998 104.022956 
L 244.446978 104.938381 
L 244.771957 104.621708 
L 245.746896 105.777965 
L 246.071876 104.266449 
L 246.396855 104.758756 
L 247.046814 104.408819 
L 247.371794 104.605741 
L 247.696773 103.847322 
L 248.021753 104.662956 
L 248.346732 104.925076 
L 248.671712 104.420794 
L 248.996691 104.945034 
L 249.321671 104.275763 
L 249.97163 102.362417 
L 250.296609 103.46146 
L 250.621589 102.263956 
L 250.946568 103.146117 
L 251.596527 103.72225 
L 251.921507 102.825452 
L 252.246486 102.905286 
L 252.571466 101.948613 
L 252.896446 102.423623 
L 253.221425 102.185453 
L 253.546405 102.593935 
L 253.871384 102.475515 
L 254.196364 102.907947 
L 254.521343 103.131481 
L 254.846323 102.237345 
L 255.171302 102.377053 
L 256.146241 100.700548 
L 256.47122 100.383875 
L 256.7962 101.387117 
L 257.121179 100.438428 
L 257.446159 101.015891 
L 257.771138 101.025204 
L 258.096118 101.850152 
L 258.421097 101.400422 
L 258.746077 102.15485 
L 259.071057 100.725828 
L 259.396036 101.404414 
L 259.721016 100.550195 
L 260.045995 101.191524 
L 260.370975 101.308614 
L 261.020934 100.002004 
L 261.345913 100.386536 
L 261.670893 100.418469 
L 261.995872 100.027284 
L 262.320852 99.852981 
L 262.645831 99.117181 
L 262.970811 100.391858 
L 263.29579 99.695975 
L 263.62077 100.072524 
L 263.945749 100.672606 
L 264.595708 100.068532 
L 265.245667 100.096474 
L 265.570647 99.85032 
L 266.220606 98.743294 
L 266.545586 99.111859 
L 266.870565 97.992858 
L 267.195545 99.053315 
L 267.520524 98.143212 
L 267.845504 98.392026 
L 268.170483 98.019469 
L 268.495463 97.42737 
L 268.820442 98.175145 
L 269.145422 97.11735 
L 269.470401 97.909033 
L 269.795381 97.444668 
L 270.12036 98.149864 
L 270.44534 98.012817 
L 271.420278 96.783379 
L 271.745258 97.065458 
L 272.070238 97.610988 
L 272.395217 96.517267 
L 273.370156 98.20974 
L 273.695135 97.841174 
L 274.345094 97.560426 
L 274.670074 97.693482 
L 274.995053 99.336724 
L 275.320033 97.994189 
L 275.645012 99.847659 
L 275.969992 99.888906 
L 276.294971 99.365996 
L 276.619951 98.253648 
L 276.94493 98.767244 
L 277.26991 99.838345 
L 277.594889 98.604916 
L 277.919869 98.620883 
L 278.894808 96.022299 
L 279.219787 93.983881 
L 279.544767 97.057475 
L 279.869746 94.228704 
L 280.194726 94.14887 
L 280.519705 92.613404 
L 280.844685 92.043924 
L 281.169664 92.360598 
L 281.494644 90.98746 
L 281.819623 93.898725 
L 282.144603 93.374484 
L 282.469582 93.989203 
L 282.794562 95.149452 
L 283.119541 95.197352 
L 283.444521 91.514362 
L 283.7695 90.894321 
L 284.09448 91.594195 
L 284.419459 92.584132 
L 284.744439 93.951948 
L 285.069419 95.955771 
L 285.394398 95.016396 
L 285.719378 92.275442 
L 286.044357 94.303215 
L 286.369337 90.479186 
L 286.694316 91.338728 
L 287.019296 90.737315 
L 287.344275 89.601016 
L 287.669255 91.839018 
L 287.994234 89.590372 
L 288.319214 92.283425 
L 288.644193 89.18322 
L 288.969173 89.137981 
L 289.294152 88.078856 
L 289.619132 88.592452 
L 289.944111 88.603096 
L 290.269091 87.530665 
L 290.59407 90.55902 
L 290.91905 91.165755 
L 291.244029 90.992782 
L 291.569009 91.458478 
L 292.218968 89.920351 
L 292.543948 90.747959 
L 292.868927 89.696817 
L 293.193907 89.143304 
L 293.518886 89.539811 
L 293.843866 88.51794 
L 294.168845 89.98954 
L 294.493825 89.050164 
L 294.818804 88.496652 
L 295.143784 87.440187 
L 295.468763 87.152786 
L 295.793743 88.35029 
L 296.118722 86.955863 
L 296.443702 90.404675 
L 296.768681 91.429206 
L 297.093661 90.89166 
L 297.41864 91.061971 
L 297.74362 90.332824 
L 298.0686 86.727007 
L 298.393579 87.25657 
L 298.718559 85.899398 
L 299.043538 85.066468 
L 299.368518 83.839692 
L 299.693497 83.546968 
L 300.018477 82.745971 
L 300.668436 87.504054 
L 300.993415 86.530084 
L 301.318395 87.315114 
L 301.643374 87.017069 
L 301.968354 84.369254 
L 302.293333 83.376657 
L 302.618313 93.095067 
L 302.943292 90.660142 
L 303.268272 85.252746 
L 303.593251 82.902977 
L 303.918231 82.745971 
L 304.24321 83.315451 
L 304.89317 80.521275 
L 305.218149 83.086595 
L 305.543129 82.349464 
L 305.868108 82.160525 
L 306.193088 80.84327 
L 306.518067 80.952376 
L 306.843047 82.117947 
L 307.168026 80.303063 
L 307.493006 80.609092 
L 307.817985 80.611753 
L 308.142965 80.265807 
L 308.467944 79.169426 
L 308.792924 79.198698 
L 309.117903 76.864896 
L 309.442883 78.248678 
L 309.767862 78.27529 
L 310.092842 78.120945 
L 310.742801 85.09574 
L 311.067781 85.231457 
L 311.39276 86.73499 
L 311.71774 86.732329 
L 312.042719 85.431041 
L 312.367699 84.882851 
L 312.692678 80.638364 
L 313.017658 78.754291 
L 313.667617 77.266725 
L 313.992596 77.58606 
L 314.317576 80.170007 
L 314.642555 78.674458 
L 314.967535 78.34714 
L 315.292514 78.953875 
L 315.617494 77.700488 
L 315.942473 79.251921 
L 316.267453 75.906893 
L 316.592432 76.981985 
L 316.917412 82.596948 
L 317.242391 77.013919 
L 317.892351 76.393878 
L 318.21733 76.564189 
L 318.54231 77.08843 
L 318.867289 77.317286 
L 319.192269 78.067722 
L 319.517248 77.897411 
L 319.842228 78.277951 
L 320.167207 78.288595 
L 320.492187 77.013919 
L 320.817166 76.864896 
L 321.142146 77.655249 
L 321.467125 76.928763 
L 321.792105 76.564189 
L 322.117084 76.641362 
L 322.442064 76.143732 
L 322.767043 73.45334 
L 323.092023 74.408682 
L 323.417002 74.563027 
L 323.741982 77.258742 
L 324.066962 74.42731 
L 324.391941 76.638701 
L 324.716921 72.745482 
L 325.0419 73.200534 
L 325.36688 72.969016 
L 325.691859 73.620991 
L 326.016839 73.605024 
L 326.341818 73.341573 
L 326.666798 73.863153 
L 326.991777 73.533174 
L 327.641736 77.210842 
L 327.966716 77.338575 
L 328.291695 78.687763 
L 328.616675 74.352799 
L 328.941654 72.282447 
L 329.266634 74.182487 
L 329.916593 72.564526 
L 330.241572 77.226808 
L 330.566552 74.674794 
L 330.891532 77.546143 
L 331.216511 76.846268 
L 331.86647 81.713457 
L 332.19145 79.792128 
L 332.516429 76.734501 
L 332.841409 77.043191 
L 333.166388 77.950633 
L 333.491368 80.29508 
L 333.816347 77.61001 
L 334.141327 82.070047 
L 334.466306 84.339982 
L 334.791286 81.497906 
L 335.116265 76.545562 
L 335.441245 75.539658 
L 335.766224 73.953631 
L 336.091204 75.276207 
L 336.416183 78.261984 
L 336.741163 75.100573 
L 337.066143 83.397946 
L 337.716102 78.075706 
L 338.041081 80.215246 
L 338.366061 79.137492 
L 338.69104 74.328849 
L 339.340999 73.958953 
L 339.665979 74.299576 
L 339.990958 73.450679 
L 340.315938 73.022239 
L 340.640917 74.648183 
L 340.965897 72.561865 
L 341.290876 74.584316 
L 341.615856 74.350138 
L 341.940835 74.406021 
L 342.265815 73.304317 
L 342.590794 73.0728 
L 342.915774 74.299576 
L 343.240753 73.424068 
L 343.565733 73.437373 
L 343.890713 74.155876 
L 344.215692 72.769432 
L 344.540672 70.337169 
L 344.865651 70.406358 
L 345.190631 68.942742 
L 345.51561 69.190226 
L 345.84059 70.286607 
L 346.165569 69.458999 
L 346.490549 71.047688 
L 346.815528 70.254674 
L 347.140508 69.807606 
L 347.465487 70.893343 
L 347.790467 70.675131 
L 348.115446 70.039123 
L 348.440426 70.374424 
L 348.765405 70.10299 
L 349.415364 68.588813 
L 349.740344 69.03322 
L 350.065324 68.362618 
L 350.715283 68.775091 
L 351.040262 67.612182 
L 351.365242 69.307315 
L 351.690221 70.121618 
L 352.015201 67.660082 
L 352.34018 69.717128 
L 352.66516 69.214176 
L 352.990139 69.690516 
L 353.315119 72.029641 
L 353.640098 69.911389 
L 353.965078 71.377667 
L 354.290057 68.817669 
L 354.615037 67.811766 
L 354.940016 67.385987 
L 355.264996 67.70266 
L 355.589975 68.55954 
L 355.914955 70.709725 
L 356.239934 70.946565 
L 356.564914 70.454258 
L 357.214873 72.07488 
L 357.539853 71.518706 
L 357.864832 72.340992 
L 358.189812 72.639037 
L 358.514791 71.763529 
L 358.839771 72.197292 
L 359.16475 71.949807 
L 359.48973 69.267398 
L 359.814709 70.829476 
L 360.464668 68.032639 
L 360.789648 70.725692 
L 361.114627 69.581411 
L 361.439607 70.009851 
L 362.089566 71.880618 
L 362.414545 69.874134 
L 362.739525 69.384488 
L 363.064505 71.816751 
L 363.389484 69.977917 
L 363.714464 71.763529 
L 364.039443 69.852845 
L 364.364423 70.432969 
L 364.689402 70.063073 
L 365.014382 71.154132 
L 365.339361 70.773592 
L 365.98932 70.536753 
L 366.3143 72.330348 
L 366.639279 71.806107 
L 366.964259 70.621908 
L 367.289238 71.047688 
L 367.939197 68.615424 
L 368.589156 68.655341 
L 368.914136 70.052429 
L 369.239115 70.105651 
L 369.564095 68.293428 
L 370.214054 73.905731 
L 370.539034 68.767108 
L 370.864013 70.789559 
L 371.188993 68.546235 
L 371.513972 70.592636 
L 371.838952 68.554218 
L 372.163931 69.733094 
L 372.488911 69.501577 
L 372.81389 70.619247 
L 373.13887 69.142326 
L 373.463849 70.901326 
L 373.788829 69.083781 
L 374.113808 69.568105 
L 374.438788 70.640536 
L 374.763767 70.129601 
L 375.088747 69.070476 
L 375.413726 72.857249 
L 375.738706 68.865569 
L 376.063686 69.198209 
L 376.388665 68.900164 
L 376.713645 67.77451 
L 377.038624 69.264737 
L 377.363604 67.923533 
L 377.688583 69.017253 
L 378.013563 67.457837 
L 378.338542 66.646195 
L 378.663522 67.801121 
L 378.988501 69.466982 
L 379.313481 67.505737 
L 379.63846 68.181661 
L 380.288419 68.905486 
L 380.938378 68.48769 
L 381.263358 70.134924 
L 381.588337 68.945403 
L 382.238296 69.501577 
L 382.563276 68.615424 
L 382.888256 69.102409 
L 383.213235 67.926194 
L 383.538215 68.370601 
L 383.863194 66.813846 
L 384.188174 67.359375 
L 384.513153 68.453096 
L 384.838133 66.071393 
L 385.163112 67.628148 
L 385.488092 65.823909 
L 385.813071 67.763866 
L 386.138051 67.564282 
L 386.46303 67.069313 
L 386.78801 67.912888 
L 387.112989 67.952805 
L 387.437969 68.293428 
L 387.762948 67.979416 
L 388.087928 66.678129 
L 388.412907 68.245528 
L 388.737887 67.896922 
L 389.062867 66.970852 
L 389.387846 68.485029 
L 389.712826 68.993303 
L 390.037805 69.168937 
L 390.362785 67.692015 
L 390.687764 67.902244 
L 391.012744 68.697919 
L 391.662703 66.499834 
L 391.987682 69.466982 
L 392.312662 69.541494 
L 392.637641 69.20087 
L 392.962621 69.775672 
L 393.2876 69.884778 
L 393.61258 70.914632 
L 393.937559 68.410518 
L 394.262539 68.594135 
L 394.587518 69.347232 
L 394.912498 69.717128 
L 395.237477 68.29609 
L 395.562457 68.469062 
L 395.887437 67.936838 
L 396.212416 65.725448 
L 396.537396 67.290186 
L 396.862375 66.18316 
L 397.187355 68.689935 
L 397.512334 67.590893 
L 397.837314 68.285445 
L 398.162293 71.86199 
L 398.487273 71.702323 
L 398.487273 71.702323 
" style="fill:none;stroke:#1f77b4;stroke-linecap:square;stroke-width:1.5;"/>
   </g>
   <g id="patch_3">
    <path d="M 57.6 307.584 
L 57.6 41.472 
" style="fill:none;stroke:#000000;stroke-linecap:square;stroke-linejoin:miter;stroke-width:0.8;"/>
   </g>
   <g id="patch_4">
    <path d="M 414.72 307.584 
L 414.72 41.472 
" style="fill:none;stroke:#000000;stroke-linecap:square;stroke-linejoin:miter;stroke-width:0.8;"/>
   </g>
   <g id="patch_5">
    <path d="M 57.6 307.584 
L 414.72 307.584 
" style="fill:none;stroke:#000000;stroke-linecap:square;stroke-linejoin:miter;stroke-width:0.8;"/>
   </g>
   <g id="patch_6">
    <path d="M 57.6 41.472 
L 414.72 41.472 
" style="fill:none;stroke:#000000;stroke-linecap:square;stroke-linejoin:miter;stroke-width:0.8;"/>
   </g>
   <g id="text_15">
    <!-- Training - OpenAI-ES - Cartpole -->
    <g transform="translate(143.341875 35.472)scale(0.12 -0.12)">
     <defs>
      <path d="M 3513 2113 
L 3513 0 
L 2938 0 
L 2938 2094 
Q 2938 2591 2744 2837 
Q 2550 3084 2163 3084 
Q 1697 3084 1428 2787 
Q 1159 2491 1159 1978 
L 1159 0 
L 581 0 
L 581 3500 
L 1159 3500 
L 1159 2956 
Q 1366 3272 1645 3428 
Q 1925 3584 2291 3584 
Q 2894 3584 3203 3211 
Q 3513 2838 3513 2113 
z
" id="DejaVuSans-6e" transform="scale(0.015625)"/>
      <path d="M 2906 1791 
Q 2906 2416 2648 2759 
Q 2391 3103 1925 3103 
Q 1463 3103 1205 2759 
Q 947 2416 947 1791 
Q 947 1169 1205 825 
Q 1463 481 1925 481 
Q 2391 481 2648 825 
Q 2906 1169 2906 1791 
z
M 3481 434 
Q 3481 -459 3084 -895 
Q 2688 -1331 1869 -1331 
Q 1566 -1331 1297 -1286 
Q 1028 -1241 775 -1147 
L 775 -588 
Q 1028 -725 1275 -790 
Q 1522 -856 1778 -856 
Q 2344 -856 2625 -561 
Q 2906 -266 2906 331 
L 2906 616 
Q 2728 306 2450 153 
Q 2172 0 1784 0 
Q 1141 0 747 490 
Q 353 981 353 1791 
Q 353 2603 747 3093 
Q 1141 3584 1784 3584 
Q 2172 3584 2450 3431 
Q 2728 3278 2906 2969 
L 2906 3500 
L 3481 3500 
L 3481 434 
z
" id="DejaVuSans-67" transform="scale(0.015625)"/>
      <path id="DejaVuSans-20" transform="scale(0.015625)"/>
      <path d="M 313 2009 
L 1997 2009 
L 1997 1497 
L 313 1497 
L 313 2009 
z
" id="DejaVuSans-2d" transform="scale(0.015625)"/>
      <path d="M 2522 4238 
Q 1834 4238 1429 3725 
Q 1025 3213 1025 2328 
Q 1025 1447 1429 934 
Q 1834 422 2522 422 
Q 3209 422 3611 934 
Q 4013 1447 4013 2328 
Q 4013 3213 3611 3725 
Q 3209 4238 2522 4238 
z
M 2522 4750 
Q 3503 4750 4090 4092 
Q 4678 3434 4678 2328 
Q 4678 1225 4090 567 
Q 3503 -91 2522 -91 
Q 1538 -91 948 565 
Q 359 1222 359 2328 
Q 359 3434 948 4092 
Q 1538 4750 2522 4750 
z
" id="DejaVuSans-4f" transform="scale(0.015625)"/>
      <path d="M 2188 4044 
L 1331 1722 
L 3047 1722 
L 2188 4044 
z
M 1831 4666 
L 2547 4666 
L 4325 0 
L 3669 0 
L 3244 1197 
L 1141 1197 
L 716 0 
L 50 0 
L 1831 4666 
z
" id="DejaVuSans-41" transform="scale(0.015625)"/>
      <path d="M 628 4666 
L 1259 4666 
L 1259 0 
L 628 0 
L 628 4666 
z
" id="DejaVuSans-49" transform="scale(0.015625)"/>
      <path d="M 628 4666 
L 3578 4666 
L 3578 4134 
L 1259 4134 
L 1259 2753 
L 3481 2753 
L 3481 2222 
L 1259 2222 
L 1259 531 
L 3634 531 
L 3634 0 
L 628 0 
L 628 4666 
z
" id="DejaVuSans-45" transform="scale(0.015625)"/>
      <path d="M 3425 4513 
L 3425 3897 
Q 3066 4069 2747 4153 
Q 2428 4238 2131 4238 
Q 1616 4238 1336 4038 
Q 1056 3838 1056 3469 
Q 1056 3159 1242 3001 
Q 1428 2844 1947 2747 
L 2328 2669 
Q 3034 2534 3370 2195 
Q 3706 1856 3706 1288 
Q 3706 609 3251 259 
Q 2797 -91 1919 -91 
Q 1588 -91 1214 -16 
Q 841 59 441 206 
L 441 856 
Q 825 641 1194 531 
Q 1563 422 1919 422 
Q 2459 422 2753 634 
Q 3047 847 3047 1241 
Q 3047 1584 2836 1778 
Q 2625 1972 2144 2069 
L 1759 2144 
Q 1053 2284 737 2584 
Q 422 2884 422 3419 
Q 422 4038 858 4394 
Q 1294 4750 2059 4750 
Q 2388 4750 2728 4690 
Q 3069 4631 3425 4513 
z
" id="DejaVuSans-53" transform="scale(0.015625)"/>
      <path d="M 4122 4306 
L 4122 3641 
Q 3803 3938 3442 4084 
Q 3081 4231 2675 4231 
Q 1875 4231 1450 3742 
Q 1025 3253 1025 2328 
Q 1025 1406 1450 917 
Q 1875 428 2675 428 
Q 3081 428 3442 575 
Q 3803 722 4122 1019 
L 4122 359 
Q 3791 134 3420 21 
Q 3050 -91 2638 -91 
Q 1578 -91 968 557 
Q 359 1206 359 2328 
Q 359 3453 968 4101 
Q 1578 4750 2638 4750 
Q 3056 4750 3426 4639 
Q 3797 4528 4122 4306 
z
" id="DejaVuSans-43" transform="scale(0.015625)"/>
      <path d="M 1959 3097 
Q 1497 3097 1228 2736 
Q 959 2375 959 1747 
Q 959 1119 1226 758 
Q 1494 397 1959 397 
Q 2419 397 2687 759 
Q 2956 1122 2956 1747 
Q 2956 2369 2687 2733 
Q 2419 3097 1959 3097 
z
M 1959 3584 
Q 2709 3584 3137 3096 
Q 3566 2609 3566 1747 
Q 3566 888 3137 398 
Q 2709 -91 1959 -91 
Q 1206 -91 779 398 
Q 353 888 353 1747 
Q 353 2609 779 3096 
Q 1206 3584 1959 3584 
z
" id="DejaVuSans-6f" transform="scale(0.015625)"/>
      <path d="M 603 4863 
L 1178 4863 
L 1178 0 
L 603 0 
L 603 4863 
z
" id="DejaVuSans-6c" transform="scale(0.015625)"/>
     </defs>
     <use xlink:href="#DejaVuSans-54"/>
     <use x="46.333984" xlink:href="#DejaVuSans-72"/>
     <use x="87.447266" xlink:href="#DejaVuSans-61"/>
     <use x="148.726562" xlink:href="#DejaVuSans-69"/>
     <use x="176.509766" xlink:href="#DejaVuSans-6e"/>
     <use x="239.888672" xlink:href="#DejaVuSans-69"/>
     <use x="267.671875" xlink:href="#DejaVuSans-6e"/>
     <use x="331.050781" xlink:href="#DejaVuSans-67"/>
     <use x="394.527344" xlink:href="#DejaVuSans-20"/>
     <use x="426.314453" xlink:href="#DejaVuSans-2d"/>
     <use x="462.398438" xlink:href="#DejaVuSans-20"/>
     <use x="494.185547" xlink:href="#DejaVuSans-4f"/>
     <use x="572.896484" xlink:href="#DejaVuSans-70"/>
     <use x="636.373047" xlink:href="#DejaVuSans-65"/>
     <use x="697.896484" xlink:href="#DejaVuSans-6e"/>
     <use x="761.275391" xlink:href="#DejaVuSans-41"/>
     <use x="829.683594" xlink:href="#DejaVuSans-49"/>
     <use x="859.175781" xlink:href="#DejaVuSans-2d"/>
     <use x="895.259766" xlink:href="#DejaVuSans-45"/>
     <use x="958.443359" xlink:href="#DejaVuSans-53"/>
     <use x="1021.919922" xlink:href="#DejaVuSans-20"/>
     <use x="1053.707031" xlink:href="#DejaVuSans-2d"/>
     <use x="1089.791016" xlink:href="#DejaVuSans-20"/>
     <use x="1121.578125" xlink:href="#DejaVuSans-43"/>
     <use x="1191.402344" xlink:href="#DejaVuSans-61"/>
     <use x="1252.681641" xlink:href="#DejaVuSans-72"/>
     <use x="1293.794922" xlink:href="#DejaVuSans-74"/>
     <use x="1333.003906" xlink:href="#DejaVuSans-70"/>
     <use x="1396.480469" xlink:href="#DejaVuSans-6f"/>
     <use x="1457.662109" xlink:href="#DejaVuSans-6c"/>
     <use x="1485.445312" xlink:href="#DejaVuSans-65"/>
    </g>
   </g>
  </g>
 </g>
 <defs>
  <clipPath id="p6b24120da2">
   <rect height="266.112" width="357.12" x="57.6" y="41.472"/>
  </clipPath>
 </defs>
</svg>
