<?xml version="1.0" encoding="utf-8" standalone="no"?>
<!DOCTYPE svg PUBLIC "-//W3C//DTD SVG 1.1//EN"
  "http://www.w3.org/Graphics/SVG/1.1/DTD/svg11.dtd">
<svg height="345.6pt" version="1.1" viewBox="0 0 460.8 345.6" width="460.8pt" xmlns="http://www.w3.org/2000/svg" xmlns:xlink="http://www.w3.org/1999/xlink">
 <metadata>
  <rdf:RDF xmlns:cc="http://creativecommons.org/ns#" xmlns:dc="http://purl.org/dc/elements/1.1/" xmlns:rdf="http://www.w3.org/1999/02/22-rdf-syntax-ns#">
   <cc:Work>
    <dc:type rdf:resource="http://purl.org/dc/dcmitype/StillImage"/>
    <dc:date>2021-07-22T00:42:17.922802</dc:date>
    <dc:format>image/svg+xml</dc:format>
    <dc:creator>
     <cc:Agent>
      <dc:title>Matplotlib v3.4.2, https://matplotlib.org/</dc:title>
     </cc:Agent>
    </dc:creator>
   </cc:Work>
  </rdf:RDF>
 </metadata>
 <defs>
  <style type="text/css">*{stroke-linecap:butt;stroke-linejoin:round;}</style>
 </defs>
 <g id="figure_1">
  <g id="patch_1">
   <path d="M 0 345.6 
L 460.8 345.6 
L 460.8 0 
L 0 0 
z
" style="fill:#ffffff;"/>
  </g>
  <g id="axes_1">
   <g id="patch_2">
    <path d="M 57.6 307.584 
L 414.72 307.584 
L 414.72 41.472 
L 57.6 41.472 
z
" style="fill:#ffffff;"/>
   </g>
   <g id="PolyCollection_1">
    <path clip-path="url(#pb730798676)" d="M 73.832727 277.37536 
L 73.832727 278.3856 
L 74.157707 278.28704 
L 74.482686 278.23776 
L 74.807666 278.41024 
L 75.132645 277.84352 
L 75.457625 276.56224 
L 75.782604 275.82304 
L 76.107584 275.52736 
L 76.432563 275.74912 
L 76.757543 275.03456 
L 77.082523 274.34464 
L 77.407502 276.14336 
L 77.732482 275.3056 
L 78.057461 275.13312 
L 78.382441 274.96064 
L 78.70742 274.4432 
L 79.0324 273.97504 
L 79.357379 274.88672 
L 79.682359 275.60128 
L 80.007338 273.2112 
L 80.332318 275.15776 
L 80.657297 275.20704 
L 80.982277 274.32 
L 81.307256 274.8128 
L 81.632236 274.41856 
L 81.957215 275.13312 
L 82.282195 274.96064 
L 82.607174 273.90112 
L 82.932154 273.11264 
L 83.257133 274.73888 
L 83.582113 274.24608 
L 83.907093 274.88672 
L 84.232072 274.09824 
L 84.557052 275.15776 
L 84.882031 274.46784 
L 85.207011 273.11264 
L 85.53199 274.41856 
L 85.85697 274.36928 
L 86.181949 274.24608 
L 86.506929 274.51712 
L 86.831908 273.85184 
L 87.156888 275.52736 
L 87.481867 274.936 
L 87.806847 274.14752 
L 88.131826 275.52736 
L 88.456806 274.936 
L 88.781785 274.0736 
L 89.106765 274.59104 
L 89.431744 275.03456 
L 89.756724 274.34464 
L 90.081704 273.67936 
L 90.406683 273.72864 
L 90.731663 275.10848 
L 91.056642 274.76352 
L 91.381622 274.14752 
L 91.706601 274.09824 
L 92.031581 273.77792 
L 92.35656 272.91552 
L 92.68154 274.8128 
L 93.006519 274.66496 
L 93.331499 274.09824 
L 93.656478 274.71424 
L 93.981458 274.49248 
L 94.306437 274.51712 
L 94.631417 272.44736 
L 94.956396 274.17216 
L 95.281376 274.8128 
L 95.606355 274.17216 
L 95.931335 273.65472 
L 96.256314 273.40832 
L 96.581294 274.02432 
L 96.906274 273.67936 
L 97.231253 274.59104 
L 97.556233 273.80256 
L 97.881212 272.54592 
L 98.206192 274.39392 
L 98.531171 273.11264 
L 98.856151 273.87648 
L 99.18113 274.27072 
L 99.50611 274.936 
L 99.831089 273.90112 
L 100.156069 275.03456 
L 100.481048 274.12288 
L 100.806028 273.50688 
L 101.131007 274.17216 
L 101.455987 274.22144 
L 101.780966 274.88672 
L 102.105946 274.76352 
L 102.430925 275.1824 
L 102.755905 272.61984 
L 103.080885 275.40416 
L 103.405864 275.40416 
L 103.730844 274.83744 
L 104.055823 274.39392 
L 104.380803 274.936 
L 104.705782 273.23584 
L 105.030762 273.9504 
L 105.355741 274.36928 
L 105.680721 273.85184 
L 106.0057 274.76352 
L 106.33068 273.03872 
L 106.655659 273.8272 
L 106.980639 273.72864 
L 107.305618 274.49248 
L 107.630598 273.40832 
L 107.955577 275.0592 
L 108.280557 274.59104 
L 108.605536 274.5664 
L 108.930516 274.41856 
L 109.255495 273.8272 
L 109.580475 273.35904 
L 109.905455 274.59104 
L 110.230434 273.87648 
L 110.555414 273.87648 
L 110.880393 273.8272 
L 111.205373 273.85184 
L 111.530352 273.87648 
L 111.855332 275.25632 
L 112.180311 274.39392 
L 112.505291 273.87648 
L 112.83027 274.24608 
L 113.15525 274.71424 
L 113.480229 273.99968 
L 113.805209 273.75328 
L 114.130188 274.39392 
L 114.455168 273.13728 
L 114.780147 273.9504 
L 115.105127 273.43296 
L 115.430106 274.17216 
L 115.755086 273.9504 
L 116.080066 274.09824 
L 116.405045 275.1824 
L 116.730025 273.99968 
L 117.055004 274.83744 
L 117.379984 273.8272 
L 117.704963 274.17216 
L 118.029943 273.13728 
L 118.354922 272.52128 
L 118.679902 273.77792 
L 119.004881 273.23584 
L 119.329861 272.7184 
L 119.65484 273.4576 
L 119.97982 273.9504 
L 120.304799 274.0736 
L 120.629779 272.9648 
L 120.954758 274.12288 
L 121.279738 271.46176 
L 121.604717 273.28512 
L 121.929697 274.73888 
L 122.254676 273.03872 
L 122.579656 272.32416 
L 122.904636 273.38368 
L 123.229615 272.8416 
L 123.554595 272.32416 
L 123.879574 273.65472 
L 124.204554 273.28512 
L 124.529533 273.43296 
L 124.854513 273.13728 
L 125.179492 273.75328 
L 125.504472 272.79232 
L 125.829451 272.79232 
L 126.154431 273.80256 
L 126.47941 274.54176 
L 126.80439 274.6896 
L 127.129369 273.3344 
L 127.454349 273.92576 
L 127.779328 273.704 
L 128.104308 275.28096 
L 128.429287 274.41856 
L 128.754267 273.35904 
L 129.079247 274.64032 
L 129.404226 273.60544 
L 129.729206 273.63008 
L 130.054185 273.99968 
L 130.379165 272.44736 
L 130.704144 273.67936 
L 131.029124 273.06336 
L 131.354103 272.29952 
L 131.679083 273.72864 
L 132.004062 274.36928 
L 132.329042 272.52128 
L 132.654021 273.48224 
L 132.979001 273.06336 
L 133.30398 273.72864 
L 133.62896 273.92576 
L 133.953939 273.704 
L 134.278919 273.80256 
L 134.603898 271.65888 
L 134.928878 273.03872 
L 135.253857 273.30976 
L 135.578837 271.19072 
L 135.903817 273.63008 
L 136.228796 273.35904 
L 136.553776 273.40832 
L 136.878755 272.86624 
L 137.203735 272.472 
L 137.528714 272.42272 
L 137.853694 273.26048 
L 138.178673 271.75744 
L 138.503653 272.52128 
L 138.828632 272.44736 
L 139.153612 273.87648 
L 139.478591 272.64448 
L 139.803571 272.94016 
L 140.12855 273.55616 
L 140.45353 272.7184 
L 140.778509 271.7328 
L 141.103489 273.06336 
L 141.428468 274.17216 
L 141.753448 273.65472 
L 142.078428 273.9504 
L 142.403407 273.63008 
L 142.728387 272.86624 
L 143.053366 273.97504 
L 143.378346 272.89088 
L 143.703325 272.86624 
L 144.028305 272.9648 
L 144.353284 273.38368 
L 144.678264 272.39808 
L 145.003243 273.26048 
L 145.328223 272.64448 
L 145.653202 272.66912 
L 145.978182 272.39808 
L 146.303161 273.2112 
L 146.628141 271.06752 
L 146.95312 272.12704 
L 147.2781 273.26048 
L 147.603079 273.30976 
L 147.928059 272.79232 
L 148.253038 272.3488 
L 148.578018 272.8416 
L 148.902998 272.89088 
L 149.227977 272.69376 
L 149.552957 271.90528 
L 149.877936 271.70816 
L 150.202916 272.98944 
L 150.527895 274.27072 
L 150.852875 270.624 
L 151.177854 273.28512 
L 151.502834 271.21536 
L 151.827813 272.89088 
L 152.152793 271.31392 
L 152.477772 272.89088 
L 152.802752 271.70816 
L 153.127731 271.80672 
L 153.452711 272.00384 
L 153.77769 271.1168 
L 154.10267 272.29952 
L 154.427649 272.98944 
L 154.752629 272.20096 
L 155.077609 273.088 
L 155.402588 273.5808 
L 155.727568 271.70816 
L 156.052547 271.6096 
L 156.377527 269.83552 
L 156.702506 272.89088 
L 157.027486 272.49664 
L 157.352465 272.49664 
L 157.677445 271.6096 
L 158.002424 272.89088 
L 158.327404 272.79232 
L 158.652383 271.41248 
L 158.977363 271.6096 
L 159.302342 273.77792 
L 159.627322 272.89088 
L 159.952301 272.89088 
L 160.277281 273.87648 
L 160.60226 270.91968 
L 160.92724 272.20096 
L 161.252219 273.38368 
L 161.577199 271.70816 
L 161.902179 273.48224 
L 162.227158 272.39808 
L 162.552138 271.90528 
L 162.877117 273.97504 
L 163.202097 272.89088 
L 163.527076 273.48224 
L 163.852056 270.91968 
L 164.177035 271.6096 
L 164.502015 273.38368 
L 164.826994 271.90528 
L 165.151974 270.82112 
L 165.476953 272.20096 
L 165.801933 271.41248 
L 166.126912 269.93408 
L 166.451892 270.1312 
L 166.776871 272.29952 
L 167.101851 271.80672 
L 167.42683 271.90528 
L 167.75181 271.1168 
L 168.07679 272.89088 
L 168.401769 269.04704 
L 168.726749 271.1168 
L 169.051728 270.72256 
L 169.376708 272.79232 
L 169.701687 273.67936 
L 170.026667 272.20096 
L 170.351646 270.624 
L 170.676626 271.90528 
L 171.001605 270.91968 
L 171.326585 272.00384 
L 171.651564 272.98944 
L 171.976544 271.6096 
L 172.301523 271.90528 
L 172.626503 270.91968 
L 172.951482 270.624 
L 173.276462 269.53984 
L 173.601441 269.24416 
L 173.926421 270.624 
L 174.2514 269.6384 
L 174.57638 271.01824 
L 174.90136 270.72256 
L 175.226339 273.48224 
L 175.551319 270.624 
L 175.876298 269.83552 
L 176.201278 272.00384 
L 176.526257 271.90528 
L 176.851237 270.91968 
L 177.176216 270.52544 
L 177.501196 272.39808 
L 177.826175 270.624 
L 178.151155 270.52544 
L 178.476134 269.24416 
L 178.801114 270.22976 
L 179.126093 270.72256 
L 179.451073 269.93408 
L 179.776052 269.93408 
L 180.101032 271.01824 
L 180.426011 271.51104 
L 180.750991 268.84992 
L 181.075971 270.22976 
L 181.40095 271.21536 
L 181.72593 269.44128 
L 182.050909 271.31392 
L 182.375889 267.47008 
L 182.700868 271.90528 
L 183.025848 269.34272 
L 183.350827 269.6384 
L 183.675807 268.94848 
L 184.000786 269.24416 
L 184.325766 272.1024 
L 184.650745 268.16 
L 184.975725 271.80672 
L 185.300704 270.42688 
L 185.625684 271.51104 
L 185.950663 268.94848 
L 186.275643 270.42688 
L 186.600622 270.22976 
L 186.925602 271.80672 
L 187.250581 267.07584 
L 187.575561 271.1168 
L 187.900541 272.39808 
L 188.22552 271.31392 
L 188.5505 271.31392 
L 188.875479 270.32832 
L 189.200459 270.32832 
L 189.525438 271.01824 
L 189.850418 272.00384 
L 190.175397 270.72256 
L 190.500377 271.01824 
L 190.825356 268.84992 
L 191.150336 269.6384 
L 191.475315 269.53984 
L 191.800295 270.32832 
L 192.125274 269.53984 
L 192.450254 270.91968 
L 192.775233 268.55424 
L 193.100213 270.03264 
L 193.425192 273.48224 
L 193.750172 272.79232 
L 194.075152 269.83552 
L 194.400131 271.90528 
L 194.725111 269.24416 
L 195.05009 269.83552 
L 195.37507 266.87872 
L 195.700049 267.76576 
L 196.025029 268.75136 
L 196.350008 268.45568 
L 196.674988 266.97728 
L 196.999967 269.83552 
L 197.324947 268.06144 
L 197.649926 265.40032 
L 197.974906 270.22976 
L 198.299885 268.55424 
L 198.624865 267.76576 
L 198.949844 269.53984 
L 199.274824 268.55424 
L 199.599803 270.52544 
L 199.924783 271.51104 
L 200.249762 271.51104 
L 200.574742 269.6384 
L 200.899722 270.32832 
L 201.224701 267.6672 
L 201.549681 269.83552 
L 201.87466 271.41248 
L 202.19964 269.34272 
L 202.524619 271.90528 
L 202.849599 271.90528 
L 203.174578 268.55424 
L 203.499558 270.22976 
L 203.824537 267.27296 
L 204.149517 269.24416 
L 204.474496 269.34272 
L 204.799476 271.01824 
L 205.124455 269.44128 
L 205.449435 267.1744 
L 205.774414 272.5952 
L 206.099394 269.83552 
L 206.424373 269.83552 
L 206.749353 269.34272 
L 207.074333 268.94848 
L 207.399312 267.86432 
L 207.724292 268.35712 
L 208.049271 269.73696 
L 208.374251 269.73696 
L 208.69923 269.73696 
L 209.02421 268.84992 
L 209.349189 269.93408 
L 209.674169 271.6096 
L 209.999148 266.87872 
L 210.324128 271.41248 
L 210.649107 267.47008 
L 210.974087 267.37152 
L 211.299066 268.6528 
L 211.624046 267.6672 
L 211.949025 269.04704 
L 212.274005 270.03264 
L 212.598984 267.1744 
L 212.923964 268.84992 
L 213.248943 269.44128 
L 213.573923 268.06144 
L 213.898903 271.51104 
L 214.223882 267.76576 
L 214.548862 269.53984 
L 214.873841 270.1312 
L 215.198821 268.75136 
L 215.5238 270.1312 
L 215.84878 270.42688 
L 216.173759 270.32832 
L 216.498739 272.29952 
L 216.823718 269.73696 
L 217.148698 270.32832 
L 217.473677 270.32832 
L 217.798657 269.44128 
L 218.123636 270.42688 
L 218.448616 271.51104 
L 218.773595 269.53984 
L 219.098575 266.58304 
L 219.423554 271.1168 
L 219.748534 270.42688 
L 220.073514 270.82112 
L 220.398493 270.624 
L 220.723473 265.00608 
L 221.048452 267.37152 
L 221.373432 268.16 
L 221.698411 268.25856 
L 222.023391 269.44128 
L 222.34837 269.04704 
L 222.67335 268.75136 
L 222.998329 270.91968 
L 223.323309 269.53984 
L 223.648288 267.76576 
L 223.973268 270.1312 
L 224.298247 268.16 
L 224.623227 269.34272 
L 224.948206 271.01824 
L 225.273186 271.41248 
L 225.598165 270.52544 
L 225.923145 269.44128 
L 226.248124 270.22976 
L 226.573104 269.34272 
L 226.898084 271.80672 
L 227.223063 270.1312 
L 227.548043 269.44128 
L 227.873022 269.34272 
L 228.198002 269.93408 
L 228.522981 269.04704 
L 228.847961 271.51104 
L 229.17294 268.84992 
L 229.49792 268.84992 
L 229.822899 270.72256 
L 230.147879 270.32832 
L 230.472858 269.83552 
L 230.797838 269.83552 
L 231.122817 269.83552 
L 231.447797 270.42688 
L 231.772776 268.84992 
L 232.097756 269.1456 
L 232.422735 271.01824 
L 232.747715 268.45568 
L 233.072695 269.53984 
L 233.397674 267.86432 
L 233.722654 270.624 
L 234.047633 268.35712 
L 234.372613 267.47008 
L 234.697592 270.42688 
L 235.022572 269.1456 
L 235.347551 272.20096 
L 235.672531 265.99168 
L 235.99751 266.97728 
L 236.32249 267.96288 
L 236.647469 269.73696 
L 236.972449 268.94848 
L 237.297428 269.34272 
L 237.622408 269.44128 
L 237.947387 269.83552 
L 238.272367 271.51104 
L 238.597346 269.93408 
L 238.922326 270.1312 
L 239.247305 270.1312 
L 239.572285 268.6528 
L 239.897265 268.35712 
L 240.222244 270.52544 
L 240.547224 269.24416 
L 240.872203 267.86432 
L 241.197183 269.83552 
L 241.522162 267.76576 
L 241.847142 267.56864 
L 242.172121 267.37152 
L 242.497101 268.16 
L 242.82208 270.32832 
L 243.14706 268.55424 
L 243.472039 270.42688 
L 243.797019 270.32832 
L 244.121998 269.93408 
L 244.446978 267.76576 
L 244.771957 268.45568 
L 245.096937 268.84992 
L 245.421916 269.24416 
L 245.746896 269.1456 
L 246.071876 269.6384 
L 246.396855 268.16 
L 246.721835 270.32832 
L 247.046814 270.52544 
L 247.371794 270.22976 
L 247.696773 269.44128 
L 248.021753 270.624 
L 248.346732 269.53984 
L 248.671712 271.51104 
L 248.996691 270.42688 
L 249.321671 268.35712 
L 249.64665 270.32832 
L 249.97163 268.55424 
L 250.296609 269.83552 
L 250.621589 270.624 
L 250.946568 272.00384 
L 251.271548 271.1168 
L 251.596527 270.03264 
L 251.921507 268.75136 
L 252.246486 268.25856 
L 252.571466 272.00384 
L 252.896446 270.03264 
L 253.221425 270.91968 
L 253.546405 268.55424 
L 253.871384 269.44128 
L 254.196364 268.35712 
L 254.521343 268.35712 
L 254.846323 269.6384 
L 255.171302 270.624 
L 255.496282 270.03264 
L 255.821261 269.24416 
L 256.146241 270.32832 
L 256.47122 272.5952 
L 256.7962 268.6528 
L 257.121179 270.32832 
L 257.446159 270.82112 
L 257.771138 268.84992 
L 258.096118 269.83552 
L 258.421097 267.96288 
L 258.746077 269.73696 
L 259.071057 267.07584 
L 259.396036 269.73696 
L 259.721016 268.25856 
L 260.045995 269.24416 
L 260.370975 267.76576 
L 260.695954 268.06144 
L 261.020934 269.04704 
L 261.345913 268.25856 
L 261.670893 272.39808 
L 261.995872 267.47008 
L 262.320852 269.34272 
L 262.645831 269.73696 
L 262.970811 270.1312 
L 263.29579 267.07584 
L 263.62077 269.83552 
L 263.945749 269.53984 
L 264.270729 269.04704 
L 264.595708 269.6384 
L 264.920688 270.1312 
L 265.245667 269.53984 
L 265.570647 269.83552 
L 265.895627 270.32832 
L 266.220606 268.84992 
L 266.545586 269.44128 
L 266.870565 267.56864 
L 267.195545 270.72256 
L 267.520524 270.03264 
L 267.845504 269.53984 
L 268.170483 267.1744 
L 268.495463 269.1456 
L 268.820442 269.73696 
L 269.145422 268.6528 
L 269.470401 264.7104 
L 269.795381 269.83552 
L 270.12036 267.6672 
L 270.44534 269.53984 
L 270.770319 268.06144 
L 271.095299 269.1456 
L 271.420278 267.6672 
L 271.745258 269.53984 
L 272.070238 268.84992 
L 272.395217 270.03264 
L 272.720197 267.47008 
L 273.045176 269.53984 
L 273.370156 268.35712 
L 273.695135 269.1456 
L 274.020115 269.34272 
L 274.345094 268.75136 
L 274.670074 267.96288 
L 274.995053 266.78016 
L 275.320033 268.55424 
L 275.645012 267.27296 
L 275.969992 268.6528 
L 276.294971 268.6528 
L 276.619951 267.86432 
L 276.94493 268.75136 
L 277.26991 267.47008 
L 277.594889 267.96288 
L 277.919869 267.96288 
L 278.244848 269.53984 
L 278.569828 268.06144 
L 278.894808 268.35712 
L 279.219787 270.42688 
L 279.544767 270.1312 
L 279.869746 266.78016 
L 280.194726 268.06144 
L 280.519705 266.97728 
L 280.844685 268.35712 
L 281.169664 267.07584 
L 281.494644 268.06144 
L 281.819623 270.1312 
L 282.144603 268.6528 
L 282.469582 266.38592 
L 282.794562 267.37152 
L 283.119541 269.04704 
L 283.444521 268.75136 
L 283.7695 269.83552 
L 284.09448 268.6528 
L 284.419459 267.47008 
L 284.744439 269.1456 
L 285.069419 265.79456 
L 285.394398 267.6672 
L 285.719378 267.37152 
L 286.044357 269.34272 
L 286.369337 269.1456 
L 286.694316 267.56864 
L 287.019296 269.6384 
L 287.344275 268.6528 
L 287.669255 266.6816 
L 287.994234 269.44128 
L 288.319214 269.1456 
L 288.644193 268.45568 
L 288.969173 268.35712 
L 289.294152 270.1312 
L 289.619132 268.94848 
L 289.944111 269.53984 
L 290.269091 269.44128 
L 290.59407 269.73696 
L 290.91905 269.34272 
L 291.244029 268.25856 
L 291.569009 268.16 
L 291.893989 268.84992 
L 292.218968 270.1312 
L 292.543948 268.84992 
L 292.868927 267.6672 
L 293.193907 267.07584 
L 293.518886 269.93408 
L 293.843866 269.83552 
L 294.168845 268.94848 
L 294.493825 269.93408 
L 294.818804 268.6528 
L 295.143784 267.27296 
L 295.468763 268.55424 
L 295.793743 268.94848 
L 296.118722 269.44128 
L 296.443702 266.97728 
L 296.768681 269.44128 
L 297.093661 270.82112 
L 297.41864 268.94848 
L 297.74362 266.87872 
L 298.0686 269.34272 
L 298.393579 267.37152 
L 298.718559 264.61184 
L 299.043538 265.99168 
L 299.368518 266.78016 
L 299.693497 264.7104 
L 300.018477 269.04704 
L 300.343456 268.35712 
L 300.668436 267.96288 
L 300.993415 270.42688 
L 301.318395 267.6672 
L 301.643374 267.6672 
L 301.968354 266.1888 
L 302.293333 267.56864 
L 302.618313 267.07584 
L 302.943292 267.96288 
L 303.268272 268.75136 
L 303.593251 267.6672 
L 303.918231 269.53984 
L 304.24321 267.56864 
L 304.56819 267.86432 
L 304.89317 267.07584 
L 305.218149 264.51328 
L 305.543129 266.97728 
L 305.868108 268.16 
L 306.193088 268.75136 
L 306.518067 269.1456 
L 306.843047 266.48448 
L 307.168026 264.80896 
L 307.493006 268.16 
L 307.817985 266.58304 
L 308.142965 265.59744 
L 308.467944 269.34272 
L 308.792924 267.86432 
L 309.117903 266.97728 
L 309.442883 267.96288 
L 309.767862 267.37152 
L 310.092842 268.06144 
L 310.417821 267.76576 
L 310.742801 267.27296 
L 311.067781 266.1888 
L 311.39276 268.75136 
L 311.71774 267.76576 
L 312.042719 270.624 
L 312.367699 265.10464 
L 312.692678 269.04704 
L 313.017658 265.99168 
L 313.342637 266.58304 
L 313.667617 268.84992 
L 313.992596 267.86432 
L 314.317576 264.61184 
L 314.642555 269.24416 
L 314.967535 267.76576 
L 315.292514 267.86432 
L 315.617494 267.37152 
L 315.942473 266.38592 
L 316.267453 266.78016 
L 316.592432 267.86432 
L 316.917412 266.87872 
L 317.242391 267.27296 
L 317.567371 266.48448 
L 317.892351 265.79456 
L 318.21733 268.6528 
L 318.54231 265.99168 
L 318.867289 266.78016 
L 319.192269 268.55424 
L 319.517248 268.6528 
L 319.842228 269.44128 
L 320.167207 268.16 
L 320.492187 267.37152 
L 320.817166 268.94848 
L 321.142146 267.07584 
L 321.467125 269.73696 
L 321.792105 267.37152 
L 322.117084 266.87872 
L 322.442064 265.89312 
L 322.767043 268.25856 
L 323.092023 266.6816 
L 323.417002 266.87872 
L 323.741982 265.99168 
L 324.066962 265.30176 
L 324.391941 268.45568 
L 324.716921 266.38592 
L 325.0419 269.83552 
L 325.36688 268.25856 
L 325.691859 267.47008 
L 326.016839 268.94848 
L 326.341818 265.696 
L 326.666798 267.76576 
L 326.991777 267.07584 
L 327.316757 268.06144 
L 327.641736 266.58304 
L 327.966716 267.56864 
L 328.291695 266.28736 
L 328.616675 268.16 
L 328.941654 267.37152 
L 329.266634 268.35712 
L 329.591613 269.24416 
L 329.916593 265.79456 
L 330.241572 267.6672 
L 330.566552 265.99168 
L 330.891532 270.03264 
L 331.216511 269.04704 
L 331.541491 265.696 
L 331.86647 268.75136 
L 332.19145 266.09024 
L 332.516429 267.1744 
L 332.841409 268.55424 
L 333.166388 268.06144 
L 333.491368 266.58304 
L 333.816347 266.58304 
L 334.141327 267.47008 
L 334.466306 267.96288 
L 334.791286 267.47008 
L 335.116265 267.56864 
L 335.441245 267.56864 
L 335.766224 268.16 
L 336.091204 265.40032 
L 336.416183 267.07584 
L 336.741163 265.79456 
L 337.066143 268.16 
L 337.391122 266.48448 
L 337.716102 266.48448 
L 338.041081 268.45568 
L 338.366061 269.24416 
L 338.69104 267.6672 
L 339.01602 269.83552 
L 339.340999 269.83552 
L 339.665979 268.06144 
L 339.990958 266.58304 
L 340.315938 265.30176 
L 340.640917 267.47008 
L 340.965897 266.97728 
L 341.290876 268.75136 
L 341.615856 267.96288 
L 341.940835 266.97728 
L 342.265815 268.35712 
L 342.590794 268.45568 
L 342.915774 268.6528 
L 343.240753 268.45568 
L 343.565733 266.97728 
L 343.890713 266.48448 
L 344.215692 268.45568 
L 344.540672 266.58304 
L 344.865651 267.6672 
L 345.190631 268.25856 
L 345.51561 266.28736 
L 345.84059 268.25856 
L 346.165569 267.37152 
L 346.490549 266.6816 
L 346.815528 269.73696 
L 347.140508 269.6384 
L 347.465487 268.25856 
L 347.790467 266.28736 
L 348.115446 269.1456 
L 348.440426 268.06144 
L 348.765405 266.58304 
L 349.090385 268.6528 
L 349.415364 266.97728 
L 349.740344 265.49888 
L 350.065324 265.2032 
L 350.390303 269.6384 
L 350.715283 268.45568 
L 351.040262 267.47008 
L 351.365242 270.624 
L 351.690221 268.06144 
L 352.015201 267.56864 
L 352.34018 266.97728 
L 352.66516 269.24416 
L 352.990139 268.35712 
L 353.315119 267.27296 
L 353.640098 267.76576 
L 353.965078 270.42688 
L 354.290057 268.06144 
L 354.615037 267.27296 
L 354.940016 267.76576 
L 355.264996 266.28736 
L 355.589975 268.45568 
L 355.914955 266.09024 
L 356.239934 266.97728 
L 356.564914 268.55424 
L 356.889894 269.1456 
L 357.214873 265.99168 
L 357.539853 266.78016 
L 357.864832 268.35712 
L 358.189812 265.40032 
L 358.514791 265.59744 
L 358.839771 267.37152 
L 359.16475 266.1888 
L 359.48973 268.16 
L 359.814709 267.07584 
L 360.139689 267.27296 
L 360.464668 265.40032 
L 360.789648 269.04704 
L 361.114627 266.97728 
L 361.439607 265.79456 
L 361.764586 266.6816 
L 362.089566 268.25856 
L 362.414545 266.87872 
L 362.739525 267.86432 
L 363.064505 268.45568 
L 363.389484 265.2032 
L 363.714464 268.16 
L 364.039443 268.55424 
L 364.364423 268.16 
L 364.689402 270.52544 
L 365.014382 266.28736 
L 365.339361 266.78016 
L 365.664341 266.87872 
L 365.98932 269.1456 
L 366.3143 269.83552 
L 366.639279 268.06144 
L 366.964259 267.76576 
L 367.289238 268.35712 
L 367.614218 267.27296 
L 367.939197 267.27296 
L 368.264177 267.96288 
L 368.589156 267.86432 
L 368.914136 265.49888 
L 369.239115 270.1312 
L 369.564095 268.25856 
L 369.889075 266.58304 
L 370.214054 265.59744 
L 370.539034 264.51328 
L 370.864013 268.94848 
L 371.188993 268.45568 
L 371.513972 269.24416 
L 371.838952 266.78016 
L 372.163931 268.55424 
L 372.488911 269.24416 
L 372.81389 269.34272 
L 373.13887 268.45568 
L 373.463849 268.45568 
L 373.788829 268.55424 
L 374.113808 269.04704 
L 374.438788 267.27296 
L 374.763767 268.94848 
L 375.088747 268.25856 
L 375.413726 270.1312 
L 375.738706 267.86432 
L 376.063686 269.1456 
L 376.388665 270.91968 
L 376.713645 266.09024 
L 377.038624 267.96288 
L 377.363604 267.6672 
L 377.688583 267.37152 
L 378.013563 267.27296 
L 378.338542 265.49888 
L 378.663522 267.27296 
L 378.988501 265.89312 
L 379.313481 269.24416 
L 379.63846 267.6672 
L 379.96344 267.1744 
L 380.288419 267.37152 
L 380.613399 269.73696 
L 380.938378 268.45568 
L 381.263358 268.94848 
L 381.588337 266.78016 
L 381.913317 265.40032 
L 382.238296 267.86432 
L 382.563276 267.96288 
L 382.888256 267.86432 
L 383.213235 266.28736 
L 383.538215 266.1888 
L 383.863194 266.58304 
L 384.188174 268.16 
L 384.513153 267.47008 
L 384.838133 267.37152 
L 385.163112 268.94848 
L 385.488092 269.44128 
L 385.813071 265.89312 
L 386.138051 266.1888 
L 386.46303 267.86432 
L 386.78801 268.45568 
L 387.112989 269.6384 
L 387.437969 269.34272 
L 387.762948 266.38592 
L 388.087928 266.58304 
L 388.412907 268.84992 
L 388.737887 266.78016 
L 389.062867 265.59744 
L 389.387846 269.04704 
L 389.712826 264.41472 
L 390.037805 267.76576 
L 390.362785 265.40032 
L 390.687764 268.84992 
L 391.012744 268.84992 
L 391.337723 267.47008 
L 391.662703 266.87872 
L 391.987682 268.94848 
L 392.312662 267.37152 
L 392.637641 267.56864 
L 392.962621 267.27296 
L 393.2876 267.1744 
L 393.61258 266.1888 
L 393.937559 265.59744 
L 394.262539 266.38592 
L 394.587518 266.87872 
L 394.912498 269.6384 
L 395.237477 268.6528 
L 395.562457 269.93408 
L 395.887437 268.06144 
L 396.212416 269.34272 
L 396.537396 267.96288 
L 396.862375 268.55424 
L 397.187355 266.6816 
L 397.512334 268.16 
L 397.837314 270.32832 
L 398.162293 264.41472 
L 398.487273 268.6528 
L 398.487273 73.79968 
L 398.487273 73.79968 
L 398.162293 78.13632 
L 397.837314 76.4608 
L 397.512334 69.26592 
L 397.187355 57.34016 
L 396.862375 63.84512 
L 396.537396 69.95584 
L 396.212416 61.77536 
L 395.887437 76.75648 
L 395.562457 65.71776 
L 395.237477 80.896 
L 394.912498 87.89376 
L 394.587518 78.9248 
L 394.262539 84.8384 
L 393.937559 69.16736 
L 393.61258 82.07872 
L 393.2876 82.67008 
L 392.962621 63.25376 
L 392.637641 75.4752 
L 392.312662 72.32128 
L 391.987682 60.98688 
L 391.662703 69.46304 
L 391.337723 73.10976 
L 391.012744 57.53728 
L 390.687764 63.74656 
L 390.362785 58.72 
L 390.037805 63.05664 
L 389.712826 55.46752 
L 389.387846 72.12416 
L 389.062867 66.99904 
L 388.737887 79.51616 
L 388.412907 67.0976 
L 388.087928 61.08544 
L 387.762948 73.10976 
L 387.437969 73.79968 
L 387.112989 84.14848 
L 386.78801 68.18176 
L 386.46303 64.1408 
L 386.138051 74.39104 
L 385.813071 86.51392 
L 385.488092 71.43424 
L 385.163112 70.74432 
L 384.838133 74.29248 
L 384.513153 71.33568 
L 384.188174 76.55936 
L 383.863194 75.4752 
L 383.538215 94.79296 
L 383.213235 71.5328 
L 382.888256 86.41536 
L 382.563276 80.896 
L 382.238296 83.8528 
L 381.913317 81.3888 
L 381.588337 82.8672 
L 381.263358 66.90048 
L 380.938378 74.78528 
L 380.613399 94.2016 
L 380.288419 80.00896 
L 379.96344 82.96576 
L 379.63846 77.9392 
L 379.313481 66.80192 
L 378.988501 73.30688 
L 378.663522 73.79968 
L 378.338542 80.10752 
L 378.013563 79.31904 
L 377.688583 78.82624 
L 377.363604 89.56928 
L 377.038624 75.37664 
L 376.713645 91.34336 
L 376.388665 85.92256 
L 376.063686 74.39104 
L 375.738706 93.01888 
L 375.413726 95.68 
L 375.088747 75.27808 
L 374.763767 79.9104 
L 374.438788 77.05216 
L 374.113808 76.75648 
L 373.788829 80.896 
L 373.463849 83.95136 
L 373.13887 99.42528 
L 372.81389 82.27584 
L 372.488911 93.31456 
L 372.163931 92.03328 
L 371.838952 83.26144 
L 371.513972 73.30688 
L 371.188993 86.02112 
L 370.864013 96.96128 
L 370.539034 79.9104 
L 370.214054 94.30016 
L 369.889075 94.6944 
L 369.564095 106.22592 
L 369.239115 95.97568 
L 368.914136 70.25152 
L 368.589156 78.82624 
L 368.264177 109.28128 
L 367.939197 95.38432 
L 367.614218 111.9424 
L 367.289238 94.6944 
L 366.964259 98.53824 
L 366.639279 90.752 
L 366.3143 100.31232 
L 365.98932 96.46848 
L 365.664341 76.36224 
L 365.339361 94.10304 
L 365.014382 84.93696 
L 364.689402 108.09856 
L 364.364423 95.58144 
L 364.039443 96.46848 
L 363.714464 107.60576 
L 363.389484 94.39872 
L 363.064505 87.49952 
L 362.739525 92.92032 
L 362.414545 107.70432 
L 362.089566 102.97344 
L 361.764586 107.70432 
L 361.439607 102.0864 
L 361.114627 93.90592 
L 360.789648 97.1584 
L 360.464668 115.68768 
L 360.139689 92.92032 
L 359.814709 102.5792 
L 359.48973 89.47072 
L 359.16475 92.2304 
L 358.839771 109.67552 
L 358.514791 97.94688 
L 358.189812 107.31008 
L 357.864832 88.288 
L 357.539853 100.80512 
L 357.214873 96.27136 
L 356.889894 98.43968 
L 356.564914 112.63232 
L 356.239934 94.79296 
L 355.914955 94.39872 
L 355.589975 86.3168 
L 355.264996 88.87936 
L 354.940016 94.10304 
L 354.615037 87.3024 
L 354.290057 106.71872 
L 353.965078 105.0432 
L 353.640098 85.13408 
L 353.315119 102.18496 
L 352.990139 108.19712 
L 352.66516 89.7664 
L 352.34018 88.38656 
L 352.015201 99.52384 
L 351.690221 104.5504 
L 351.365242 84.64128 
L 351.040262 91.44192 
L 350.715283 97.25696 
L 350.390303 93.61024 
L 350.065324 83.65568 
L 349.740344 112.13952 
L 349.415364 86.51392 
L 349.090385 96.27136 
L 348.765405 103.95904 
L 348.440426 106.42304 
L 348.115446 94.30016 
L 347.790467 98.24256 
L 347.465487 94.30016 
L 347.140508 108.59136 
L 346.815528 91.14624 
L 346.490549 85.62688 
L 346.165569 92.42752 
L 345.84059 98.93248 
L 345.51561 83.26144 
L 345.190631 120.51712 
L 344.865651 99.22816 
L 344.540672 99.1296 
L 344.215692 107.31008 
L 343.890713 92.82176 
L 343.565733 99.91808 
L 343.240753 97.1584 
L 342.915774 95.1872 
L 342.590794 101.00224 
L 342.265815 107.31008 
L 341.940835 114.60352 
L 341.615856 97.45408 
L 341.290876 103.072 
L 340.965897 88.7808 
L 340.640917 124.7552 
L 340.315938 110.75968 
L 339.990958 113.61792 
L 339.665979 105.24032 
L 339.340999 102.77632 
L 339.01602 117.856 
L 338.69104 103.072 
L 338.366061 113.22368 
L 338.041081 102.48064 
L 337.716102 132.1472 
L 337.391122 115.392 
L 337.066143 123.47392 
L 336.741163 110.85824 
L 336.416183 110.56256 
L 336.091204 103.76192 
L 335.766224 117.16608 
L 335.441245 114.11072 
L 335.116265 108.19712 
L 334.791286 121.3056 
L 334.466306 114.50496 
L 334.141327 112.13952 
L 333.816347 104.64896 
L 333.491368 116.96896 
L 333.166388 102.97344 
L 332.841409 122.68544 
L 332.516429 106.91584 
L 332.19145 100.608 
L 331.86647 115.8848 
L 331.541491 112.13952 
L 331.216511 120.91136 
L 330.891532 118.54592 
L 330.566552 121.3056 
L 330.241572 113.9136 
L 329.916593 123.37536 
L 329.591613 112.73088 
L 329.266634 114.70208 
L 328.941654 101.29792 
L 328.616675 120.02432 
L 328.291695 115.29344 
L 327.966716 109.9712 
L 327.641736 119.63008 
L 327.316757 112.33664 
L 326.991777 127.2192 
L 326.666798 116.18048 
L 326.341818 119.8272 
L 326.016839 115.29344 
L 325.691859 122.38976 
L 325.36688 129.09184 
L 325.0419 121.60128 
L 324.716921 123.07968 
L 324.391941 125.248 
L 324.066962 132.93568 
L 323.741982 118.64448 
L 323.417002 122.88256 
L 323.092023 125.44512 
L 322.767043 130.47168 
L 322.442064 138.75072 
L 322.117084 131.1616 
L 321.792105 137.568 
L 321.467125 123.17824 
L 321.142146 128.59904 
L 320.817166 127.712 
L 320.492187 139.93344 
L 320.167207 136.87808 
L 319.842228 134.90688 
L 319.517248 123.07968 
L 319.192269 137.46944 
L 318.867289 135.99104 
L 318.54231 147.52256 
L 318.21733 128.99328 
L 317.892351 131.75296 
L 317.567371 120.8128 
L 317.242391 133.23136 
L 316.917412 137.0752 
L 316.592432 130.6688 
L 316.267453 130.47168 
L 315.942473 141.31328 
L 315.617494 141.31328 
L 315.292514 120.71424 
L 314.967535 135.49824 
L 314.642555 137.96224 
L 314.317576 135.104 
L 313.992596 141.90464 
L 313.667617 132.24576 
L 313.342637 150.47936 
L 313.017658 156.59008 
L 312.692678 142.69312 
L 312.367699 140.42624 
L 312.042719 140.032 
L 311.71774 139.63776 
L 311.39276 137.76512 
L 311.067781 145.74848 
L 310.742801 141.90464 
L 310.417821 155.8016 
L 310.092842 161.91232 
L 309.767862 139.63776 
L 309.442883 146.33984 
L 309.117903 144.07296 
L 308.792924 154.91456 
L 308.467944 136.38528 
L 308.142965 143.9744 
L 307.817985 156.39296 
L 307.493006 155.01312 
L 307.168026 165.06624 
L 306.843047 148.01536 
L 306.518067 150.47936 
L 306.193088 162.7008 
L 305.868108 154.816 
L 305.543129 159.744 
L 305.218149 152.54912 
L 304.89317 147.32544 
L 304.56819 153.43616 
L 304.24321 148.60672 
L 303.918231 160.53248 
L 303.593251 168.1216 
L 303.268272 139.5392 
L 302.943292 152.94336 
L 302.618313 149.59232 
L 302.293333 151.8592 
L 301.968354 163.39072 
L 301.643374 147.71968 
L 301.318395 155.40736 
L 300.993415 161.41952 
L 300.668436 168.81152 
L 300.343456 150.08512 
L 300.018477 178.37184 
L 299.693497 160.13824 
L 299.368518 182.11712 
L 299.043538 162.79936 
L 298.718559 168.6144 
L 298.393579 157.57568 
L 298.0686 155.60448 
L 297.74362 159.84256 
L 297.41864 167.136 
L 297.093661 168.31872 
L 296.768681 166.44608 
L 296.443702 176.20352 
L 296.118722 154.61888 
L 295.793743 160.03968 
L 295.468763 156.98432 
L 295.143784 154.71744 
L 294.818804 159.744 
L 294.493825 147.22688 
L 294.168845 160.82816 
L 293.843866 158.16704 
L 293.518886 147.62112 
L 293.193907 143.87584 
L 292.868927 160.63104 
L 292.543948 156.88576 
L 292.218968 168.71296 
L 291.893989 159.54688 
L 291.569009 152.8448 
L 291.244029 160.13824 
L 290.91905 143.87584 
L 290.59407 160.33536 
L 290.269091 165.46048 
L 289.944111 155.01312 
L 289.619132 157.47712 
L 289.294152 166.84032 
L 288.969173 174.13376 
L 288.644193 165.06624 
L 288.319214 159.2512 
L 287.994234 176.79488 
L 287.669255 167.03744 
L 287.344275 164.77056 
L 287.019296 156.2944 
L 286.694316 162.79936 
L 286.369337 159.05408 
L 286.044357 164.1792 
L 285.719378 169.99424 
L 285.394398 170.38848 
L 285.069419 156.39296 
L 284.744439 157.08288 
L 284.419459 163.58784 
L 284.09448 171.0784 
L 283.7695 165.95328 
L 283.444521 172.16256 
L 283.119541 160.43392 
L 282.794562 172.45824 
L 282.469582 169.79712 
L 282.144603 173.73952 
L 281.819623 174.92224 
L 281.494644 178.9632 
L 281.169664 171.47264 
L 280.844685 172.16256 
L 280.519705 175.71072 
L 280.194726 164.57344 
L 279.869746 173.64096 
L 279.544767 150.28224 
L 279.219787 187.43936 
L 278.894808 161.7152 
L 278.569828 175.5136 
L 278.244848 176.89344 
L 277.919869 166.93888 
L 277.594889 177.38624 
L 277.26991 172.5568 
L 276.94493 193.94432 
L 276.619951 172.75392 
L 276.294971 176.20352 
L 275.969992 197.09824 
L 275.645012 179.9488 
L 275.320033 181.03296 
L 274.995053 170.0928 
L 274.670074 183.49696 
L 274.345094 174.42944 
L 274.020115 175.5136 
L 273.695135 179.75168 
L 273.370156 178.86464 
L 273.045176 170.38848 
L 272.720197 187.93216 
L 272.395217 185.17248 
L 272.070238 186.65088 
L 271.745258 165.75616 
L 271.420278 181.23008 
L 271.095299 189.70624 
L 270.770319 173.14816 
L 270.44534 183.98976 
L 270.12036 185.76384 
L 269.795381 181.72288 
L 269.470401 183.00416 
L 269.145422 197.39392 
L 268.820442 189.11488 
L 268.495463 188.42496 
L 268.170483 192.2688 
L 267.845504 178.07616 
L 267.520524 173.0496 
L 267.195545 176.30208 
L 266.870565 184.77824 
L 266.545586 194.92992 
L 266.220606 179.16032 
L 265.895627 186.25664 
L 265.570647 189.01632 
L 265.245667 185.3696 
L 264.920688 190.49472 
L 264.595708 190.19904 
L 264.270729 184.384 
L 263.945749 193.2544 
L 263.62077 193.94432 
L 263.29579 185.66528 
L 262.970811 195.2256 
L 262.645831 188.12928 
L 262.320852 189.21344 
L 261.995872 183.69408 
L 261.670893 193.15584 
L 261.345913 189.312 
L 261.020934 186.74944 
L 260.695954 182.21568 
L 260.370975 186.848 
L 260.045995 199.06944 
L 259.721016 194.14144 
L 259.396036 191.57888 
L 259.071057 194.53568 
L 258.746077 185.76384 
L 258.421097 188.22784 
L 258.096118 196.11264 
L 257.771138 201.04064 
L 257.446159 199.26656 
L 257.121179 204.39168 
L 256.7962 188.12928 
L 256.47122 194.83136 
L 256.146241 198.77376 
L 255.821261 203.89888 
L 255.496282 196.704 
L 255.171302 196.30976 
L 254.846323 198.1824 
L 254.521343 203.6032 
L 254.196364 191.776 
L 253.871384 208.92544 
L 253.546405 202.22336 
L 253.221425 189.70624 
L 252.896446 210.30528 
L 252.571466 201.33632 
L 252.246486 199.06944 
L 251.921507 210.20672 
L 251.596527 221.24544 
L 251.271548 195.91552 
L 250.946568 192.56448 
L 250.621589 207.34848 
L 250.296609 191.48032 
L 249.97163 203.70176 
L 249.64665 197.09824 
L 249.321671 205.67296 
L 248.996691 194.7328 
L 248.671712 191.776 
L 248.346732 197.6896 
L 248.021753 203.30752 
L 247.696773 200.44928 
L 247.371794 202.32192 
L 247.046814 201.92768 
L 246.721835 191.38176 
L 246.396855 202.02624 
L 246.071876 199.46368 
L 245.746896 201.23776 
L 245.421916 197.49248 
L 245.096937 210.20672 
L 244.771957 214.83904 
L 244.446978 210.0096 
L 244.121998 217.79584 
L 243.797019 216.71168 
L 243.472039 204.096 
L 243.14706 210.0096 
L 242.82208 216.81024 
L 242.497101 201.82912 
L 242.172121 206.56 
L 241.847142 217.99296 
L 241.522162 212.57216 
L 241.197183 208.82688 
L 240.872203 211.78368 
L 240.547224 205.47584 
L 240.222244 207.64416 
L 239.897265 215.62752 
L 239.572285 218.19008 
L 239.247305 209.024 
L 238.922326 212.86784 
L 238.597346 221.63968 
L 238.272367 216.9088 
L 237.947387 215.52896 
L 237.622408 223.70944 
L 237.297428 228.53888 
L 236.972449 217.20448 
L 236.647469 215.13472 
L 236.32249 215.03616 
L 235.99751 217.50016 
L 235.672531 213.85344 
L 235.347551 211.78368 
L 235.022572 217.79584 
L 234.697592 211.9808 
L 234.372613 218.09152 
L 234.047633 217.20448 
L 233.722654 222.13248 
L 233.397674 214.74048 
L 233.072695 219.66848 
L 232.747715 216.71168 
L 232.422735 224.89216 
L 232.097756 214.64192 
L 231.772776 226.17344 
L 231.447797 221.44256 
L 231.122817 222.23104 
L 230.797838 222.3296 
L 230.472858 219.07712 
L 230.147879 220.8512 
L 229.822899 219.47136 
L 229.49792 218.19008 
L 229.17294 218.48576 
L 228.847961 220.45696 
L 228.522981 219.17568 
L 228.198002 229.32736 
L 227.873022 231.88992 
L 227.548043 231.2 
L 227.223063 220.55552 
L 226.898084 228.736 
L 226.573104 224.3008 
L 226.248124 224.59648 
L 225.923145 222.03392 
L 225.598165 214.54336 
L 225.273186 226.7648 
L 224.948206 217.8944 
L 224.623227 223.3152 
L 224.298247 234.94528 
L 223.973268 225.48352 
L 223.648288 226.56768 
L 223.323309 228.93312 
L 222.998329 227.55328 
L 222.67335 232.08704 
L 222.34837 224.00512 
L 222.023391 227.84896 
L 221.698411 230.7072 
L 221.373432 229.91872 
L 221.048452 229.52448 
L 220.723473 223.21664 
L 220.398493 223.41376 
L 220.073514 222.52672 
L 219.748534 225.08928 
L 219.423554 231.59424 
L 219.098575 237.31072 
L 218.773595 233.07264 
L 218.448616 229.32736 
L 218.123636 232.57984 
L 217.798657 229.62304 
L 217.473677 226.96192 
L 217.148698 232.57984 
L 216.823718 232.28416 
L 216.498739 233.95968 
L 216.173759 227.2576 
L 215.84878 228.04608 
L 215.5238 225.7792 
L 215.198821 226.37056 
L 214.873841 234.35392 
L 214.548862 237.01504 
L 214.223882 238.0992 
L 213.898903 230.51008 
L 213.573923 233.76256 
L 213.248943 240.66176 
L 212.923964 238.98624 
L 212.598984 231.49568 
L 212.274005 234.1568 
L 211.949025 230.7072 
L 211.624046 239.28192 
L 211.299066 243.71712 
L 210.974087 232.48128 
L 210.649107 235.04384 
L 210.324128 236.32512 
L 209.999148 234.94528 
L 209.674169 232.77696 
L 209.349189 235.93088 
L 209.02421 230.90432 
L 208.69923 231.00288 
L 208.374251 236.81792 
L 208.049271 232.38272 
L 207.724292 235.1424 
L 207.399312 229.13024 
L 207.074333 231.49568 
L 206.749353 236.52224 
L 206.424373 231.6928 
L 206.099394 236.128 
L 205.774414 233.1712 
L 205.449435 231.6928 
L 205.124455 236.6208 
L 204.799476 234.94528 
L 204.474496 233.76256 
L 204.149517 234.74816 
L 203.824537 233.95968 
L 203.499558 229.13024 
L 203.174578 229.91872 
L 202.849599 237.40928 
L 202.524619 240.85888 
L 202.19964 237.1136 
L 201.87466 238.00064 
L 201.549681 240.0704 
L 201.224701 234.05824 
L 200.899722 240.36608 
L 200.574742 236.32512 
L 200.249762 242.23872 
L 199.924783 242.92864 
L 199.599803 238.78912 
L 199.274824 245.39264 
L 198.949844 242.73152 
L 198.624865 244.40704 
L 198.299885 241.5488 
L 197.974906 239.47904 
L 197.649926 246.08256 
L 197.324947 242.23872 
L 196.999967 242.5344 
L 196.674988 247.36384 
L 196.350008 244.9984 
L 196.025029 245.39264 
L 195.700049 247.85664 
L 195.37507 241.84448 
L 195.05009 246.77248 
L 194.725111 245.19552 
L 194.400131 244.70272 
L 194.075152 240.85888 
L 193.750172 246.27968 
L 193.425192 246.08256 
L 193.100213 246.67392 
L 192.775233 248.25088 
L 192.450254 245.88544 
L 192.125274 245.88544 
L 191.800295 246.87104 
L 191.475315 243.81568 
L 191.150336 243.81568 
L 190.825356 249.82784 
L 190.500377 246.77248 
L 190.175397 248.54656 
L 189.850418 250.02496 
L 189.525438 246.4768 
L 189.200459 245.58976 
L 188.875479 249.03936 
L 188.5505 245.29408 
L 188.22552 246.87104 
L 187.900541 245.58976 
L 187.575561 245.58976 
L 187.250581 245.29408 
L 186.925602 248.25088 
L 186.600622 246.37824 
L 186.275643 245.4912 
L 185.950663 249.4336 
L 185.625684 248.448 
L 185.300704 248.64512 
L 184.975725 246.18112 
L 184.650745 252.78464 
L 184.325766 247.65952 
L 184.000786 246.87104 
L 183.675807 252.78464 
L 183.350827 253.08032 
L 183.025848 252.98176 
L 182.700868 251.99616 
L 182.375889 251.30624 
L 182.050909 258.40256 
L 181.72593 249.4336 
L 181.40095 254.55872 
L 181.075971 254.26304 
L 180.750991 250.61632 
L 180.426011 250.912 
L 180.101032 252.19328 
L 179.776052 251.50336 
L 179.451073 255.84 
L 179.126093 253.77024 
L 178.801114 253.376 
L 178.476134 251.50336 
L 178.151155 252.68608 
L 177.826175 254.75584 
L 177.501196 254.65728 
L 177.176216 254.55872 
L 176.851237 254.16448 
L 176.526257 256.92416 
L 176.201278 255.05152 
L 175.876298 258.304 
L 175.551319 254.75584 
L 175.226339 252.58752 
L 174.90136 256.8256 
L 174.57638 259.38816 
L 174.2514 258.7968 
L 173.926421 257.71264 
L 173.601441 260.07808 
L 173.276462 258.7968 
L 172.951482 258.69824 
L 172.626503 260.57088 
L 172.301523 257.51552 
L 171.976544 259.19104 
L 171.651564 261.55648 
L 171.326585 260.47232 
L 171.001605 257.51552 
L 170.676626 259.48672 
L 170.351646 258.40256 
L 170.026667 257.51552 
L 169.701687 260.768 
L 169.376708 261.16224 
L 169.051728 259.2896 
L 168.726749 259.68384 
L 168.401769 259.7824 
L 168.07679 260.57088 
L 167.75181 262.44352 
L 167.42683 262.64064 
L 167.101851 260.17664 
L 166.776871 260.66944 
L 166.451892 260.768 
L 166.126912 260.768 
L 165.801933 258.20544 
L 165.476953 259.48672 
L 165.151974 264.02048 
L 164.826994 259.88096 
L 164.502015 258.40256 
L 164.177035 260.2752 
L 163.852056 258.10688 
L 163.527076 261.85216 
L 163.202097 263.7248 
L 162.877117 261.2608 
L 162.552138 262.34496 
L 162.227158 263.03488 
L 161.902179 265.2032 
L 161.577199 263.62624 
L 161.252219 262.83776 
L 160.92724 262.04928 
L 160.60226 264.90752 
L 160.277281 263.62624 
L 159.952301 265.2032 
L 159.627322 266.58304 
L 159.302342 262.04928 
L 158.977363 265.49888 
L 158.652383 262.7392 
L 158.327404 263.62624 
L 158.002424 264.11904 
L 157.677445 265.99168 
L 157.352465 265.696 
L 157.027486 263.03488 
L 156.702506 265.00608 
L 156.377527 265.59744 
L 156.052547 266.1888 
L 155.727568 268.55424 
L 155.402588 265.696 
L 155.077609 264.7104 
L 154.752629 267.07584 
L 154.427649 264.61184 
L 154.10267 266.09024 
L 153.77769 268.6528 
L 153.452711 268.6528 
L 153.127731 267.76576 
L 152.802752 268.55424 
L 152.477772 268.45568 
L 152.152793 268.6528 
L 151.827813 269.1456 
L 151.502834 266.97728 
L 151.177854 267.1744 
L 150.852875 268.25856 
L 150.527895 267.1744 
L 150.202916 267.86432 
L 149.877936 268.35712 
L 149.552957 270.91968 
L 149.227977 268.84992 
L 148.902998 269.6384 
L 148.578018 269.98336 
L 148.253038 271.41248 
L 147.928059 268.94848 
L 147.603079 269.34272 
L 147.2781 269.8848 
L 146.95312 270.22976 
L 146.628141 268.99776 
L 146.303161 270.18048 
L 145.978182 269.7616 
L 145.653202 271.65888 
L 145.328223 269.17024 
L 145.003243 270.47616 
L 144.678264 269.90944 
L 144.353284 267.71648 
L 144.028305 270.40224 
L 143.703325 271.26464 
L 143.378346 271.63424 
L 143.053366 270.18048 
L 142.728387 272.32416 
L 142.403407 269.2688 
L 142.078428 270.45152 
L 141.753448 269.41664 
L 141.428468 271.46176 
L 141.103489 270.05728 
L 140.778509 268.99776 
L 140.45353 269.81088 
L 140.12855 270.69792 
L 139.803571 270.2544 
L 139.478591 269.46592 
L 139.153612 272.29952 
L 138.828632 271.90528 
L 138.503653 271.28928 
L 138.178673 270.2544 
L 137.853694 270.30368 
L 137.528714 268.70208 
L 137.203735 271.04288 
L 136.878755 269.7616 
L 136.553776 269.86016 
L 136.228796 271.14144 
L 135.903817 271.26464 
L 135.578837 270.5008 
L 135.253857 272.29952 
L 134.928878 271.9792 
L 134.603898 270.55008 
L 134.278919 270.624 
L 133.953939 271.51104 
L 133.62896 269.68768 
L 133.30398 271.83136 
L 132.979001 271.46176 
L 132.654021 271.04288 
L 132.329042 269.98336 
L 132.004062 270.8704 
L 131.679083 271.63424 
L 131.354103 268.94848 
L 131.029124 272.54592 
L 130.704144 271.78208 
L 130.379165 269.31808 
L 130.054185 271.19072 
L 129.729206 270.59936 
L 129.404226 270.8704 
L 129.079247 272.57056 
L 128.754267 270.8704 
L 128.429287 271.1168 
L 128.104308 272.1024 
L 127.779328 271.04288 
L 127.454349 271.63424 
L 127.129369 271.09216 
L 126.80439 273.18656 
L 126.47941 272.1024 
L 126.154431 271.68352 
L 125.829451 271.88064 
L 125.504472 270.03264 
L 125.179492 271.14144 
L 124.854513 270.67328 
L 124.529533 271.38784 
L 124.204554 272.42272 
L 123.879574 271.31392 
L 123.554595 271.7328 
L 123.229615 271.83136 
L 122.904636 272.57056 
L 122.579656 270.57472 
L 122.254676 271.80672 
L 121.929697 271.80672 
L 121.604717 270.5008 
L 121.279738 269.6384 
L 120.954758 273.06336 
L 120.629779 271.06752 
L 120.304799 271.90528 
L 119.97982 271.41248 
L 119.65484 270.7472 
L 119.329861 271.41248 
L 119.004881 269.95872 
L 118.679902 270.82112 
L 118.354922 271.46176 
L 118.029943 272.37344 
L 117.704963 272.79232 
L 117.379984 273.01408 
L 117.055004 272.81696 
L 116.730025 273.13728 
L 116.405045 272.81696 
L 116.080066 270.624 
L 115.755086 272.5952 
L 115.430106 272.86624 
L 115.105127 273.03872 
L 114.780147 272.49664 
L 114.455168 272.07776 
L 114.130188 272.05312 
L 113.805209 272.76768 
L 113.480229 272.57056 
L 113.15525 272.74304 
L 112.83027 272.49664 
L 112.505291 271.65888 
L 112.180311 273.55616 
L 111.855332 273.40832 
L 111.530352 273.50688 
L 111.205373 272.32416 
L 110.880393 272.42272 
L 110.555414 273.06336 
L 110.230434 272.98944 
L 109.905455 272.79232 
L 109.580475 272.12704 
L 109.255495 273.23584 
L 108.930516 273.03872 
L 108.605536 272.44736 
L 108.280557 272.8416 
L 107.955577 272.94016 
L 107.630598 272.91552 
L 107.305618 273.63008 
L 106.980639 272.1024 
L 106.655659 272.64448 
L 106.33068 272.64448 
L 106.0057 273.18656 
L 105.680721 273.06336 
L 105.355741 272.7184 
L 105.030762 273.18656 
L 104.705782 272.05312 
L 104.380803 272.07776 
L 104.055823 273.43296 
L 103.730844 273.26048 
L 103.405864 273.18656 
L 103.080885 273.30976 
L 102.755905 271.856 
L 102.430925 273.2112 
L 102.105946 274.32 
L 101.780966 273.23584 
L 101.455987 273.03872 
L 101.131007 273.23584 
L 100.806028 271.4864 
L 100.481048 273.40832 
L 100.156069 274.0736 
L 99.831089 273.088 
L 99.50611 273.2112 
L 99.18113 272.8416 
L 98.856151 272.52128 
L 98.531171 272.07776 
L 98.206192 273.088 
L 97.881212 271.78208 
L 97.556233 272.81696 
L 97.231253 273.01408 
L 96.906274 272.57056 
L 96.581294 272.81696 
L 96.256314 272.81696 
L 95.931335 271.28928 
L 95.606355 273.60544 
L 95.281376 272.76768 
L 94.956396 272.49664 
L 94.631417 271.53568 
L 94.306437 272.5952 
L 93.981458 272.98944 
L 93.656478 273.55616 
L 93.331499 271.56032 
L 93.006519 273.99968 
L 92.68154 272.74304 
L 92.35656 272.02848 
L 92.031581 273.11264 
L 91.706601 273.01408 
L 91.381622 272.42272 
L 91.056642 273.5808 
L 90.731663 271.92992 
L 90.406683 272.74304 
L 90.081704 273.30976 
L 89.756724 273.088 
L 89.431744 273.40832 
L 89.106765 272.91552 
L 88.781785 271.28928 
L 88.456806 273.48224 
L 88.131826 273.75328 
L 87.806847 273.26048 
L 87.481867 273.704 
L 87.156888 274.04896 
L 86.831908 273.03872 
L 86.506929 272.89088 
L 86.181949 272.69376 
L 85.85697 274.0736 
L 85.53199 271.9792 
L 85.207011 271.78208 
L 84.882031 272.89088 
L 84.557052 273.4576 
L 84.232072 273.72864 
L 83.907093 273.63008 
L 83.582113 273.088 
L 83.257133 273.80256 
L 82.932154 272.3488 
L 82.607174 272.52128 
L 82.282195 273.35904 
L 81.957215 273.50688 
L 81.632236 273.35904 
L 81.307256 273.3344 
L 80.982277 271.95456 
L 80.657297 272.69376 
L 80.332318 273.38368 
L 80.007338 272.64448 
L 79.682359 273.43296 
L 79.357379 273.8272 
L 79.0324 273.03872 
L 78.70742 273.92576 
L 78.382441 272.89088 
L 78.057461 273.97504 
L 77.732482 274.24608 
L 77.407502 273.35904 
L 77.082523 273.40832 
L 76.757543 274.27072 
L 76.432563 274.73888 
L 76.107584 275.08384 
L 75.782604 274.96064 
L 75.457625 276.168 
L 75.132645 275.84768 
L 74.807666 276.24192 
L 74.482686 276.43904 
L 74.157707 276.71008 
L 73.832727 277.37536 
z
" style="fill:#1f77b4;fill-opacity:0.25;"/>
   </g>
   <g id="matplotlib.axis_1">
    <g id="xtick_1">
     <g id="line2d_1">
      <defs>
       <path d="M 0 0 
L 0 3.5 
" id="m48508f85bc" style="stroke:#000000;stroke-width:0.8;"/>
      </defs>
      <g>
       <use style="stroke:#000000;stroke-width:0.8;" x="73.507748" xlink:href="#m48508f85bc" y="307.584"/>
      </g>
     </g>
     <g id="text_1">
      <!-- 0 -->
      <g transform="translate(70.326498 322.182437)scale(0.1 -0.1)">
       <defs>
        <path d="M 2034 4250 
Q 1547 4250 1301 3770 
Q 1056 3291 1056 2328 
Q 1056 1369 1301 889 
Q 1547 409 2034 409 
Q 2525 409 2770 889 
Q 3016 1369 3016 2328 
Q 3016 3291 2770 3770 
Q 2525 4250 2034 4250 
z
M 2034 4750 
Q 2819 4750 3233 4129 
Q 3647 3509 3647 2328 
Q 3647 1150 3233 529 
Q 2819 -91 2034 -91 
Q 1250 -91 836 529 
Q 422 1150 422 2328 
Q 422 3509 836 4129 
Q 1250 4750 2034 4750 
z
" id="DejaVuSans-30" transform="scale(0.015625)"/>
       </defs>
       <use xlink:href="#DejaVuSans-30"/>
      </g>
     </g>
    </g>
    <g id="xtick_2">
     <g id="line2d_2">
      <g>
       <use style="stroke:#000000;stroke-width:0.8;" x="138.503653" xlink:href="#m48508f85bc" y="307.584"/>
      </g>
     </g>
     <g id="text_2">
      <!-- 200 -->
      <g transform="translate(128.959903 322.182437)scale(0.1 -0.1)">
       <defs>
        <path d="M 1228 531 
L 3431 531 
L 3431 0 
L 469 0 
L 469 531 
Q 828 903 1448 1529 
Q 2069 2156 2228 2338 
Q 2531 2678 2651 2914 
Q 2772 3150 2772 3378 
Q 2772 3750 2511 3984 
Q 2250 4219 1831 4219 
Q 1534 4219 1204 4116 
Q 875 4013 500 3803 
L 500 4441 
Q 881 4594 1212 4672 
Q 1544 4750 1819 4750 
Q 2544 4750 2975 4387 
Q 3406 4025 3406 3419 
Q 3406 3131 3298 2873 
Q 3191 2616 2906 2266 
Q 2828 2175 2409 1742 
Q 1991 1309 1228 531 
z
" id="DejaVuSans-32" transform="scale(0.015625)"/>
       </defs>
       <use xlink:href="#DejaVuSans-32"/>
       <use x="63.623047" xlink:href="#DejaVuSans-30"/>
       <use x="127.246094" xlink:href="#DejaVuSans-30"/>
      </g>
     </g>
    </g>
    <g id="xtick_3">
     <g id="line2d_3">
      <g>
       <use style="stroke:#000000;stroke-width:0.8;" x="203.499558" xlink:href="#m48508f85bc" y="307.584"/>
      </g>
     </g>
     <g id="text_3">
      <!-- 400 -->
      <g transform="translate(193.955808 322.182437)scale(0.1 -0.1)">
       <defs>
        <path d="M 2419 4116 
L 825 1625 
L 2419 1625 
L 2419 4116 
z
M 2253 4666 
L 3047 4666 
L 3047 1625 
L 3713 1625 
L 3713 1100 
L 3047 1100 
L 3047 0 
L 2419 0 
L 2419 1100 
L 313 1100 
L 313 1709 
L 2253 4666 
z
" id="DejaVuSans-34" transform="scale(0.015625)"/>
       </defs>
       <use xlink:href="#DejaVuSans-34"/>
       <use x="63.623047" xlink:href="#DejaVuSans-30"/>
       <use x="127.246094" xlink:href="#DejaVuSans-30"/>
      </g>
     </g>
    </g>
    <g id="xtick_4">
     <g id="line2d_4">
      <g>
       <use style="stroke:#000000;stroke-width:0.8;" x="268.495463" xlink:href="#m48508f85bc" y="307.584"/>
      </g>
     </g>
     <g id="text_4">
      <!-- 600 -->
      <g transform="translate(258.951713 322.182437)scale(0.1 -0.1)">
       <defs>
        <path d="M 2113 2584 
Q 1688 2584 1439 2293 
Q 1191 2003 1191 1497 
Q 1191 994 1439 701 
Q 1688 409 2113 409 
Q 2538 409 2786 701 
Q 3034 994 3034 1497 
Q 3034 2003 2786 2293 
Q 2538 2584 2113 2584 
z
M 3366 4563 
L 3366 3988 
Q 3128 4100 2886 4159 
Q 2644 4219 2406 4219 
Q 1781 4219 1451 3797 
Q 1122 3375 1075 2522 
Q 1259 2794 1537 2939 
Q 1816 3084 2150 3084 
Q 2853 3084 3261 2657 
Q 3669 2231 3669 1497 
Q 3669 778 3244 343 
Q 2819 -91 2113 -91 
Q 1303 -91 875 529 
Q 447 1150 447 2328 
Q 447 3434 972 4092 
Q 1497 4750 2381 4750 
Q 2619 4750 2861 4703 
Q 3103 4656 3366 4563 
z
" id="DejaVuSans-36" transform="scale(0.015625)"/>
       </defs>
       <use xlink:href="#DejaVuSans-36"/>
       <use x="63.623047" xlink:href="#DejaVuSans-30"/>
       <use x="127.246094" xlink:href="#DejaVuSans-30"/>
      </g>
     </g>
    </g>
    <g id="xtick_5">
     <g id="line2d_5">
      <g>
       <use style="stroke:#000000;stroke-width:0.8;" x="333.491368" xlink:href="#m48508f85bc" y="307.584"/>
      </g>
     </g>
     <g id="text_5">
      <!-- 800 -->
      <g transform="translate(323.947618 322.182437)scale(0.1 -0.1)">
       <defs>
        <path d="M 2034 2216 
Q 1584 2216 1326 1975 
Q 1069 1734 1069 1313 
Q 1069 891 1326 650 
Q 1584 409 2034 409 
Q 2484 409 2743 651 
Q 3003 894 3003 1313 
Q 3003 1734 2745 1975 
Q 2488 2216 2034 2216 
z
M 1403 2484 
Q 997 2584 770 2862 
Q 544 3141 544 3541 
Q 544 4100 942 4425 
Q 1341 4750 2034 4750 
Q 2731 4750 3128 4425 
Q 3525 4100 3525 3541 
Q 3525 3141 3298 2862 
Q 3072 2584 2669 2484 
Q 3125 2378 3379 2068 
Q 3634 1759 3634 1313 
Q 3634 634 3220 271 
Q 2806 -91 2034 -91 
Q 1263 -91 848 271 
Q 434 634 434 1313 
Q 434 1759 690 2068 
Q 947 2378 1403 2484 
z
M 1172 3481 
Q 1172 3119 1398 2916 
Q 1625 2713 2034 2713 
Q 2441 2713 2670 2916 
Q 2900 3119 2900 3481 
Q 2900 3844 2670 4047 
Q 2441 4250 2034 4250 
Q 1625 4250 1398 4047 
Q 1172 3844 1172 3481 
z
" id="DejaVuSans-38" transform="scale(0.015625)"/>
       </defs>
       <use xlink:href="#DejaVuSans-38"/>
       <use x="63.623047" xlink:href="#DejaVuSans-30"/>
       <use x="127.246094" xlink:href="#DejaVuSans-30"/>
      </g>
     </g>
    </g>
    <g id="xtick_6">
     <g id="line2d_6">
      <g>
       <use style="stroke:#000000;stroke-width:0.8;" x="398.487273" xlink:href="#m48508f85bc" y="307.584"/>
      </g>
     </g>
     <g id="text_6">
      <!-- 1000 -->
      <g transform="translate(385.762273 322.182437)scale(0.1 -0.1)">
       <defs>
        <path d="M 794 531 
L 1825 531 
L 1825 4091 
L 703 3866 
L 703 4441 
L 1819 4666 
L 2450 4666 
L 2450 531 
L 3481 531 
L 3481 0 
L 794 0 
L 794 531 
z
" id="DejaVuSans-31" transform="scale(0.015625)"/>
       </defs>
       <use xlink:href="#DejaVuSans-31"/>
       <use x="63.623047" xlink:href="#DejaVuSans-30"/>
       <use x="127.246094" xlink:href="#DejaVuSans-30"/>
       <use x="190.869141" xlink:href="#DejaVuSans-30"/>
      </g>
     </g>
    </g>
    <g id="text_7">
     <!-- Timestep -->
     <g transform="translate(213.110781 335.860562)scale(0.1 -0.1)">
      <defs>
       <path d="M -19 4666 
L 3928 4666 
L 3928 4134 
L 2272 4134 
L 2272 0 
L 1638 0 
L 1638 4134 
L -19 4134 
L -19 4666 
z
" id="DejaVuSans-54" transform="scale(0.015625)"/>
       <path d="M 603 3500 
L 1178 3500 
L 1178 0 
L 603 0 
L 603 3500 
z
M 603 4863 
L 1178 4863 
L 1178 4134 
L 603 4134 
L 603 4863 
z
" id="DejaVuSans-69" transform="scale(0.015625)"/>
       <path d="M 3328 2828 
Q 3544 3216 3844 3400 
Q 4144 3584 4550 3584 
Q 5097 3584 5394 3201 
Q 5691 2819 5691 2113 
L 5691 0 
L 5113 0 
L 5113 2094 
Q 5113 2597 4934 2840 
Q 4756 3084 4391 3084 
Q 3944 3084 3684 2787 
Q 3425 2491 3425 1978 
L 3425 0 
L 2847 0 
L 2847 2094 
Q 2847 2600 2669 2842 
Q 2491 3084 2119 3084 
Q 1678 3084 1418 2786 
Q 1159 2488 1159 1978 
L 1159 0 
L 581 0 
L 581 3500 
L 1159 3500 
L 1159 2956 
Q 1356 3278 1631 3431 
Q 1906 3584 2284 3584 
Q 2666 3584 2933 3390 
Q 3200 3197 3328 2828 
z
" id="DejaVuSans-6d" transform="scale(0.015625)"/>
       <path d="M 3597 1894 
L 3597 1613 
L 953 1613 
Q 991 1019 1311 708 
Q 1631 397 2203 397 
Q 2534 397 2845 478 
Q 3156 559 3463 722 
L 3463 178 
Q 3153 47 2828 -22 
Q 2503 -91 2169 -91 
Q 1331 -91 842 396 
Q 353 884 353 1716 
Q 353 2575 817 3079 
Q 1281 3584 2069 3584 
Q 2775 3584 3186 3129 
Q 3597 2675 3597 1894 
z
M 3022 2063 
Q 3016 2534 2758 2815 
Q 2500 3097 2075 3097 
Q 1594 3097 1305 2825 
Q 1016 2553 972 2059 
L 3022 2063 
z
" id="DejaVuSans-65" transform="scale(0.015625)"/>
       <path d="M 2834 3397 
L 2834 2853 
Q 2591 2978 2328 3040 
Q 2066 3103 1784 3103 
Q 1356 3103 1142 2972 
Q 928 2841 928 2578 
Q 928 2378 1081 2264 
Q 1234 2150 1697 2047 
L 1894 2003 
Q 2506 1872 2764 1633 
Q 3022 1394 3022 966 
Q 3022 478 2636 193 
Q 2250 -91 1575 -91 
Q 1294 -91 989 -36 
Q 684 19 347 128 
L 347 722 
Q 666 556 975 473 
Q 1284 391 1588 391 
Q 1994 391 2212 530 
Q 2431 669 2431 922 
Q 2431 1156 2273 1281 
Q 2116 1406 1581 1522 
L 1381 1569 
Q 847 1681 609 1914 
Q 372 2147 372 2553 
Q 372 3047 722 3315 
Q 1072 3584 1716 3584 
Q 2034 3584 2315 3537 
Q 2597 3491 2834 3397 
z
" id="DejaVuSans-73" transform="scale(0.015625)"/>
       <path d="M 1172 4494 
L 1172 3500 
L 2356 3500 
L 2356 3053 
L 1172 3053 
L 1172 1153 
Q 1172 725 1289 603 
Q 1406 481 1766 481 
L 2356 481 
L 2356 0 
L 1766 0 
Q 1100 0 847 248 
Q 594 497 594 1153 
L 594 3053 
L 172 3053 
L 172 3500 
L 594 3500 
L 594 4494 
L 1172 4494 
z
" id="DejaVuSans-74" transform="scale(0.015625)"/>
       <path d="M 1159 525 
L 1159 -1331 
L 581 -1331 
L 581 3500 
L 1159 3500 
L 1159 2969 
Q 1341 3281 1617 3432 
Q 1894 3584 2278 3584 
Q 2916 3584 3314 3078 
Q 3713 2572 3713 1747 
Q 3713 922 3314 415 
Q 2916 -91 2278 -91 
Q 1894 -91 1617 61 
Q 1341 213 1159 525 
z
M 3116 1747 
Q 3116 2381 2855 2742 
Q 2594 3103 2138 3103 
Q 1681 3103 1420 2742 
Q 1159 2381 1159 1747 
Q 1159 1113 1420 752 
Q 1681 391 2138 391 
Q 2594 391 2855 752 
Q 3116 1113 3116 1747 
z
" id="DejaVuSans-70" transform="scale(0.015625)"/>
      </defs>
      <use xlink:href="#DejaVuSans-54"/>
      <use x="57.958984" xlink:href="#DejaVuSans-69"/>
      <use x="85.742188" xlink:href="#DejaVuSans-6d"/>
      <use x="183.154297" xlink:href="#DejaVuSans-65"/>
      <use x="244.677734" xlink:href="#DejaVuSans-73"/>
      <use x="296.777344" xlink:href="#DejaVuSans-74"/>
      <use x="335.986328" xlink:href="#DejaVuSans-65"/>
      <use x="397.509766" xlink:href="#DejaVuSans-70"/>
     </g>
    </g>
   </g>
   <g id="matplotlib.axis_2">
    <g id="ytick_1">
     <g id="line2d_7">
      <defs>
       <path d="M 0 0 
L -3.5 0 
" id="m8388220585" style="stroke:#000000;stroke-width:0.8;"/>
      </defs>
      <g>
       <use style="stroke:#000000;stroke-width:0.8;" x="57.6" xlink:href="#m8388220585" y="287.872"/>
      </g>
     </g>
     <g id="text_8">
      <!-- 0 -->
      <g transform="translate(44.2375 291.671219)scale(0.1 -0.1)">
       <use xlink:href="#DejaVuSans-30"/>
      </g>
     </g>
    </g>
    <g id="ytick_2">
     <g id="line2d_8">
      <g>
       <use style="stroke:#000000;stroke-width:0.8;" x="57.6" xlink:href="#m8388220585" y="238.592"/>
      </g>
     </g>
     <g id="text_9">
      <!-- 5 -->
      <g transform="translate(44.2375 242.391219)scale(0.1 -0.1)">
       <defs>
        <path d="M 691 4666 
L 3169 4666 
L 3169 4134 
L 1269 4134 
L 1269 2991 
Q 1406 3038 1543 3061 
Q 1681 3084 1819 3084 
Q 2600 3084 3056 2656 
Q 3513 2228 3513 1497 
Q 3513 744 3044 326 
Q 2575 -91 1722 -91 
Q 1428 -91 1123 -41 
Q 819 9 494 109 
L 494 744 
Q 775 591 1075 516 
Q 1375 441 1709 441 
Q 2250 441 2565 725 
Q 2881 1009 2881 1497 
Q 2881 1984 2565 2268 
Q 2250 2553 1709 2553 
Q 1456 2553 1204 2497 
Q 953 2441 691 2322 
L 691 4666 
z
" id="DejaVuSans-35" transform="scale(0.015625)"/>
       </defs>
       <use xlink:href="#DejaVuSans-35"/>
      </g>
     </g>
    </g>
    <g id="ytick_3">
     <g id="line2d_9">
      <g>
       <use style="stroke:#000000;stroke-width:0.8;" x="57.6" xlink:href="#m8388220585" y="189.312"/>
      </g>
     </g>
     <g id="text_10">
      <!-- 10 -->
      <g transform="translate(37.875 193.111219)scale(0.1 -0.1)">
       <use xlink:href="#DejaVuSans-31"/>
       <use x="63.623047" xlink:href="#DejaVuSans-30"/>
      </g>
     </g>
    </g>
    <g id="ytick_4">
     <g id="line2d_10">
      <g>
       <use style="stroke:#000000;stroke-width:0.8;" x="57.6" xlink:href="#m8388220585" y="140.032"/>
      </g>
     </g>
     <g id="text_11">
      <!-- 15 -->
      <g transform="translate(37.875 143.831219)scale(0.1 -0.1)">
       <use xlink:href="#DejaVuSans-31"/>
       <use x="63.623047" xlink:href="#DejaVuSans-35"/>
      </g>
     </g>
    </g>
    <g id="ytick_5">
     <g id="line2d_11">
      <g>
       <use style="stroke:#000000;stroke-width:0.8;" x="57.6" xlink:href="#m8388220585" y="90.752"/>
      </g>
     </g>
     <g id="text_12">
      <!-- 20 -->
      <g transform="translate(37.875 94.551219)scale(0.1 -0.1)">
       <use xlink:href="#DejaVuSans-32"/>
       <use x="63.623047" xlink:href="#DejaVuSans-30"/>
      </g>
     </g>
    </g>
    <g id="ytick_6">
     <g id="line2d_12">
      <g>
       <use style="stroke:#000000;stroke-width:0.8;" x="57.6" xlink:href="#m8388220585" y="41.472"/>
      </g>
     </g>
     <g id="text_13">
      <!-- 25 -->
      <g transform="translate(37.875 45.271219)scale(0.1 -0.1)">
       <use xlink:href="#DejaVuSans-32"/>
       <use x="63.623047" xlink:href="#DejaVuSans-35"/>
      </g>
     </g>
    </g>
    <g id="text_14">
     <!-- Reward -->
     <g transform="translate(31.795312 193.149094)rotate(-90)scale(0.1 -0.1)">
      <defs>
       <path d="M 2841 2188 
Q 3044 2119 3236 1894 
Q 3428 1669 3622 1275 
L 4263 0 
L 3584 0 
L 2988 1197 
Q 2756 1666 2539 1819 
Q 2322 1972 1947 1972 
L 1259 1972 
L 1259 0 
L 628 0 
L 628 4666 
L 2053 4666 
Q 2853 4666 3247 4331 
Q 3641 3997 3641 3322 
Q 3641 2881 3436 2590 
Q 3231 2300 2841 2188 
z
M 1259 4147 
L 1259 2491 
L 2053 2491 
Q 2509 2491 2742 2702 
Q 2975 2913 2975 3322 
Q 2975 3731 2742 3939 
Q 2509 4147 2053 4147 
L 1259 4147 
z
" id="DejaVuSans-52" transform="scale(0.015625)"/>
       <path d="M 269 3500 
L 844 3500 
L 1563 769 
L 2278 3500 
L 2956 3500 
L 3675 769 
L 4391 3500 
L 4966 3500 
L 4050 0 
L 3372 0 
L 2619 2869 
L 1863 0 
L 1184 0 
L 269 3500 
z
" id="DejaVuSans-77" transform="scale(0.015625)"/>
       <path d="M 2194 1759 
Q 1497 1759 1228 1600 
Q 959 1441 959 1056 
Q 959 750 1161 570 
Q 1363 391 1709 391 
Q 2188 391 2477 730 
Q 2766 1069 2766 1631 
L 2766 1759 
L 2194 1759 
z
M 3341 1997 
L 3341 0 
L 2766 0 
L 2766 531 
Q 2569 213 2275 61 
Q 1981 -91 1556 -91 
Q 1019 -91 701 211 
Q 384 513 384 1019 
Q 384 1609 779 1909 
Q 1175 2209 1959 2209 
L 2766 2209 
L 2766 2266 
Q 2766 2663 2505 2880 
Q 2244 3097 1772 3097 
Q 1472 3097 1187 3025 
Q 903 2953 641 2809 
L 641 3341 
Q 956 3463 1253 3523 
Q 1550 3584 1831 3584 
Q 2591 3584 2966 3190 
Q 3341 2797 3341 1997 
z
" id="DejaVuSans-61" transform="scale(0.015625)"/>
       <path d="M 2631 2963 
Q 2534 3019 2420 3045 
Q 2306 3072 2169 3072 
Q 1681 3072 1420 2755 
Q 1159 2438 1159 1844 
L 1159 0 
L 581 0 
L 581 3500 
L 1159 3500 
L 1159 2956 
Q 1341 3275 1631 3429 
Q 1922 3584 2338 3584 
Q 2397 3584 2469 3576 
Q 2541 3569 2628 3553 
L 2631 2963 
z
" id="DejaVuSans-72" transform="scale(0.015625)"/>
       <path d="M 2906 2969 
L 2906 4863 
L 3481 4863 
L 3481 0 
L 2906 0 
L 2906 525 
Q 2725 213 2448 61 
Q 2172 -91 1784 -91 
Q 1150 -91 751 415 
Q 353 922 353 1747 
Q 353 2572 751 3078 
Q 1150 3584 1784 3584 
Q 2172 3584 2448 3432 
Q 2725 3281 2906 2969 
z
M 947 1747 
Q 947 1113 1208 752 
Q 1469 391 1925 391 
Q 2381 391 2643 752 
Q 2906 1113 2906 1747 
Q 2906 2381 2643 2742 
Q 2381 3103 1925 3103 
Q 1469 3103 1208 2742 
Q 947 2381 947 1747 
z
" id="DejaVuSans-64" transform="scale(0.015625)"/>
      </defs>
      <use xlink:href="#DejaVuSans-52"/>
      <use x="64.982422" xlink:href="#DejaVuSans-65"/>
      <use x="126.505859" xlink:href="#DejaVuSans-77"/>
      <use x="208.292969" xlink:href="#DejaVuSans-61"/>
      <use x="269.572266" xlink:href="#DejaVuSans-72"/>
      <use x="308.935547" xlink:href="#DejaVuSans-64"/>
     </g>
    </g>
   </g>
   <g id="line2d_13">
    <path clip-path="url(#pb730798676)" d="M 73.832727 277.62176 
L 74.157707 277.2768 
L 74.482686 277.5232 
L 74.807666 277.47392 
L 75.457625 276.2912 
L 75.782604 275.35488 
L 76.432563 275.35488 
L 77.082523 273.87648 
L 77.732482 274.8128 
L 78.057461 274.51712 
L 78.382441 273.18656 
L 78.70742 274.22144 
L 79.0324 273.43296 
L 79.357379 274.02432 
L 79.682359 274.36928 
L 80.007338 272.89088 
L 80.332318 274.12288 
L 80.657297 273.5808 
L 80.982277 273.5808 
L 81.307256 273.92576 
L 81.632236 273.92576 
L 81.957215 274.17216 
L 82.282195 274.12288 
L 82.607174 273.13728 
L 82.932154 272.54592 
L 83.257133 274.27072 
L 83.582113 273.48224 
L 83.907093 273.92576 
L 84.232072 273.87648 
L 84.557052 274.12288 
L 84.882031 273.8272 
L 85.207011 272.74304 
L 85.53199 273.23584 
L 85.85697 274.22144 
L 86.181949 273.28512 
L 86.506929 273.92576 
L 86.831908 273.63008 
L 87.156888 274.71424 
L 87.481867 273.87648 
L 87.806847 273.92576 
L 88.131826 274.5664 
L 88.456806 274.46784 
L 88.781785 273.38368 
L 89.106765 273.8272 
L 89.431744 273.77792 
L 89.756724 274.12288 
L 90.406683 273.088 
L 90.731663 274.0736 
L 91.381622 273.5808 
L 91.706601 273.77792 
L 92.031581 273.3344 
L 92.35656 272.1024 
L 92.68154 274.51712 
L 93.006519 274.22144 
L 93.331499 272.94016 
L 93.656478 273.87648 
L 93.981458 273.63008 
L 94.306437 273.63008 
L 94.631417 272.1024 
L 94.956396 273.77792 
L 95.281376 274.27072 
L 95.606355 273.92576 
L 95.931335 272.69376 
L 96.256314 273.03872 
L 96.581294 273.67936 
L 96.906274 273.088 
L 97.231253 273.5808 
L 97.556233 272.94016 
L 97.881212 272.05312 
L 98.206192 273.77792 
L 98.531171 272.5952 
L 99.18113 273.92576 
L 99.831089 273.53152 
L 100.156069 274.66496 
L 100.481048 273.87648 
L 100.806028 272.05312 
L 101.131007 273.92576 
L 101.780966 273.87648 
L 102.105946 274.61568 
L 102.430925 274.12288 
L 102.755905 272.3488 
L 103.080885 274.46784 
L 103.405864 273.92576 
L 103.730844 274.12288 
L 104.055823 274.02432 
L 104.705782 272.49664 
L 105.030762 273.8272 
L 105.355741 273.28512 
L 105.680721 273.53152 
L 106.0057 274.12288 
L 106.33068 272.8416 
L 106.655659 273.38368 
L 106.980639 272.54592 
L 107.305618 273.87648 
L 107.630598 273.088 
L 107.955577 274.36928 
L 108.280557 273.67936 
L 108.605536 273.87648 
L 108.930516 273.87648 
L 109.580475 273.18656 
L 109.905455 273.72864 
L 110.230434 273.28512 
L 110.555414 273.43296 
L 110.880393 273.38368 
L 111.205373 273.088 
L 111.855332 274.51712 
L 112.180311 274.12288 
L 112.505291 273.28512 
L 113.15525 274.46784 
L 113.480229 272.98944 
L 114.130188 273.77792 
L 114.455168 272.64448 
L 114.780147 273.3344 
L 115.105127 273.23584 
L 115.430106 274.0736 
L 115.755086 273.38368 
L 116.080066 272.39808 
L 116.405045 273.77792 
L 116.730025 273.53152 
L 117.055004 273.8272 
L 117.379984 273.088 
L 118.029943 272.94016 
L 118.354922 272.25024 
L 118.679902 272.5952 
L 119.004881 271.41248 
L 119.329861 271.95456 
L 119.65484 271.65888 
L 119.97982 272.05312 
L 120.304799 273.13728 
L 120.629779 271.90528 
L 120.954758 273.77792 
L 121.279738 270.91968 
L 121.604717 272.89088 
L 121.929697 273.8272 
L 122.254676 272.79232 
L 122.579656 271.26464 
L 122.904636 272.79232 
L 123.554595 271.95456 
L 123.879574 272.5952 
L 124.204554 272.89088 
L 124.529533 272.74304 
L 125.179492 272.74304 
L 125.504472 272.74304 
L 125.829451 272.29952 
L 126.47941 273.72864 
L 126.80439 274.12288 
L 127.129369 272.98944 
L 127.454349 272.89088 
L 127.779328 272.5952 
L 128.104308 273.5808 
L 128.429287 272.39808 
L 128.754267 272.29952 
L 129.079247 273.97504 
L 129.404226 272.79232 
L 130.054185 272.89088 
L 130.379165 271.51104 
L 130.704144 272.98944 
L 131.029124 272.69376 
L 131.354103 271.51104 
L 131.679083 272.79232 
L 132.004062 273.28512 
L 132.329042 271.06752 
L 132.654021 272.15168 
L 133.30398 272.74304 
L 133.62896 272.25024 
L 133.953939 273.23584 
L 134.278919 272.8416 
L 134.603898 271.06752 
L 134.928878 272.25024 
L 135.253857 272.69376 
L 135.578837 271.06752 
L 135.903817 272.29952 
L 136.228796 271.51104 
L 136.553776 271.70816 
L 136.878755 271.16608 
L 137.203735 272.20096 
L 137.528714 270.96896 
L 137.853694 272.44736 
L 138.178673 270.82112 
L 138.503653 271.75744 
L 138.828632 272.25024 
L 139.153612 272.49664 
L 139.478591 270.8704 
L 139.803571 272.5952 
L 140.12855 271.46176 
L 140.45353 272.00384 
L 140.778509 270.03264 
L 141.103489 272.00384 
L 141.428468 272.00384 
L 141.753448 271.46176 
L 142.078428 272.20096 
L 142.403407 270.96896 
L 142.728387 272.5952 
L 143.053366 271.56032 
L 143.378346 272.5952 
L 143.703325 272.1024 
L 144.028305 272.20096 
L 144.353284 272.1024 
L 144.678264 272.15168 
L 145.003243 271.16608 
L 145.328223 270.8704 
L 145.653202 272.20096 
L 145.978182 271.856 
L 146.303161 271.80672 
L 146.628141 270.03264 
L 146.95312 271.06752 
L 147.2781 272.64448 
L 147.603079 271.06752 
L 147.928059 271.31392 
L 148.253038 271.80672 
L 148.578018 272.00384 
L 148.902998 271.21536 
L 149.227977 271.80672 
L 149.552957 271.01824 
L 149.877936 271.21536 
L 150.202916 270.91968 
L 150.527895 269.44128 
L 150.852875 270.22976 
L 151.177854 269.24416 
L 151.502834 270.03264 
L 151.827813 271.1168 
L 152.152793 271.31392 
L 152.477772 270.91968 
L 152.802752 270.91968 
L 153.127731 271.80672 
L 153.452711 271.31392 
L 153.77769 270.03264 
L 154.10267 270.624 
L 154.427649 266.38592 
L 154.752629 271.31392 
L 155.077609 268.6528 
L 155.402588 273.48224 
L 155.727568 269.1456 
L 156.052547 271.01824 
L 156.377527 268.84992 
L 156.702506 269.04704 
L 157.027486 271.51104 
L 157.352465 270.32832 
L 157.677445 271.51104 
L 158.652383 270.72256 
L 158.977363 267.1744 
L 159.302342 272.79232 
L 159.627322 269.34272 
L 159.952301 270.82112 
L 160.277281 270.91968 
L 160.60226 270.72256 
L 160.92724 271.01824 
L 161.252219 269.34272 
L 161.577199 269.53984 
L 161.902179 269.93408 
L 162.227158 271.21536 
L 162.877117 270.624 
L 163.202097 268.84992 
L 163.527076 272.29952 
L 164.177035 267.86432 
L 164.502015 270.91968 
L 164.826994 268.84992 
L 165.151974 270.72256 
L 165.476953 271.90528 
L 165.801933 269.1456 
L 166.126912 269.44128 
L 166.451892 268.16 
L 166.776871 269.34272 
L 167.101851 266.48448 
L 167.42683 270.1312 
L 167.75181 267.37152 
L 168.07679 269.83552 
L 168.401769 268.84992 
L 168.726749 271.01824 
L 169.051728 269.34272 
L 169.376708 268.55424 
L 169.701687 270.42688 
L 170.026667 269.34272 
L 170.351646 270.03264 
L 170.676626 271.70816 
L 171.001605 267.6672 
L 171.326585 270.72256 
L 171.651564 267.6672 
L 172.301523 271.01824 
L 172.626503 270.1312 
L 172.951482 270.32832 
L 173.276462 267.07584 
L 173.601441 268.55424 
L 173.926421 269.1456 
L 174.2514 268.35712 
L 174.57638 271.01824 
L 175.226339 268.6528 
L 175.551319 269.53984 
L 175.876298 269.04704 
L 176.526257 270.22976 
L 176.851237 268.55424 
L 177.176216 269.1456 
L 177.501196 270.22976 
L 177.826175 265.99168 
L 178.151155 268.35712 
L 178.476134 268.75136 
L 178.801114 270.03264 
L 179.126093 267.47008 
L 179.776052 269.83552 
L 180.101032 269.24416 
L 180.426011 267.6672 
L 180.750991 267.76576 
L 181.075971 268.84992 
L 181.40095 269.53984 
L 181.72593 267.07584 
L 182.050909 269.1456 
L 182.375889 266.38592 
L 182.700868 270.624 
L 183.350827 266.28736 
L 184.000786 268.84992 
L 184.325766 268.84992 
L 184.650745 267.37152 
L 184.975725 268.35712 
L 185.300704 267.37152 
L 185.625684 268.25856 
L 185.950663 266.78016 
L 186.275643 270.03264 
L 186.600622 268.25856 
L 186.925602 269.24416 
L 187.250581 266.87872 
L 187.575561 268.94848 
L 187.900541 266.78016 
L 188.22552 266.97728 
L 188.875479 269.73696 
L 189.200459 267.27296 
L 189.525438 267.76576 
L 189.850418 268.6528 
L 190.500377 266.6816 
L 190.825356 265.30176 
L 191.150336 267.6672 
L 191.475315 265.89312 
L 191.800295 267.37152 
L 192.450254 267.47008 
L 192.775233 265.00608 
L 193.425192 268.75136 
L 194.075152 267.56864 
L 194.400131 267.47008 
L 194.725111 267.6672 
L 195.05009 268.6528 
L 195.37507 266.1888 
L 195.700049 265.89312 
L 196.025029 268.35712 
L 196.350008 266.48448 
L 196.674988 265.49888 
L 196.999967 266.48448 
L 197.324947 266.78016 
L 197.649926 265.30176 
L 197.974906 269.34272 
L 198.299885 267.1744 
L 198.624865 266.97728 
L 198.949844 269.34272 
L 199.274824 265.40032 
L 199.599803 264.11904 
L 199.924783 267.76576 
L 200.249762 264.51328 
L 200.574742 268.25856 
L 200.899722 267.6672 
L 201.224701 263.92192 
L 201.549681 266.09024 
L 201.87466 263.52768 
L 202.19964 264.61184 
L 202.524619 262.14784 
L 202.849599 265.49888 
L 203.174578 265.40032 
L 203.499558 267.76576 
L 203.824537 262.93632 
L 204.149517 266.48448 
L 204.474496 264.41472 
L 204.799476 265.59744 
L 205.124455 263.232 
L 205.449435 264.51328 
L 205.774414 264.41472 
L 206.099394 265.79456 
L 206.424373 264.2176 
L 206.749353 263.42912 
L 207.074333 261.95072 
L 207.399312 262.64064 
L 207.724292 259.68384 
L 208.049271 261.65504 
L 208.374251 265.89312 
L 208.69923 264.11904 
L 209.02421 260.86656 
L 209.674169 264.31616 
L 209.999148 259.48672 
L 210.324128 257.51552 
L 210.649107 260.17664 
L 210.974087 261.65504 
L 211.299066 260.96512 
L 211.949025 257.12128 
L 212.274005 261.16224 
L 213.248943 258.20544 
L 213.573923 262.7392 
L 213.898903 262.2464 
L 214.223882 258.20544 
L 214.548862 259.97952 
L 214.873841 257.51552 
L 215.198821 258.89536 
L 215.5238 257.71264 
L 215.84878 253.17888 
L 216.173759 255.24864 
L 216.498739 254.95296 
L 216.823718 258.69824 
L 217.148698 258.10688 
L 217.473677 257.12128 
L 217.798657 257.90976 
L 218.123636 257.61408 
L 218.448616 255.44576 
L 218.773595 254.65728 
L 219.098575 260.47232 
L 219.423554 254.95296 
L 219.748534 255.54432 
L 220.073514 255.54432 
L 220.398493 256.43136 
L 221.048452 253.77024 
L 221.373432 253.8688 
L 221.698411 254.46016 
L 222.023391 254.65728 
L 222.34837 253.08032 
L 222.67335 255.15008 
L 222.998329 260.57088 
L 223.323309 255.05152 
L 223.648288 256.52992 
L 224.298247 253.57312 
L 224.623227 255.93856 
L 224.948206 259.19104 
L 225.273186 257.51552 
L 225.923145 253.57312 
L 226.248124 255.44576 
L 226.573104 254.55872 
L 226.898084 249.72928 
L 227.223063 258.00832 
L 227.548043 253.96736 
L 227.873022 256.03712 
L 228.198002 254.46016 
L 228.522981 258.10688 
L 228.847961 257.71264 
L 229.17294 253.47456 
L 229.822899 255.05152 
L 230.147879 251.30624 
L 230.472858 254.8544 
L 230.797838 255.44576 
L 231.447797 249.03936 
L 231.772776 253.08032 
L 232.097756 254.65728 
L 232.422735 249.82784 
L 232.747715 252.3904 
L 233.072695 251.01056 
L 233.397674 254.16448 
L 233.722654 253.57312 
L 234.372613 248.54656 
L 234.697592 252.09472 
L 235.022572 250.71488 
L 235.672531 252.48896 
L 235.99751 247.36384 
L 236.32249 249.53216 
L 236.647469 249.23648 
L 236.972449 252.78464 
L 237.297428 247.06816 
L 237.622408 250.71488 
L 238.272367 249.33504 
L 238.597346 249.82784 
L 238.922326 248.448 
L 239.247305 244.0128 
L 239.572285 249.23648 
L 239.897265 246.27968 
L 240.222244 249.9264 
L 240.547224 250.51776 
L 240.872203 252.09472 
L 241.197183 249.4336 
L 241.522162 250.12352 
L 241.847142 248.448 
L 242.172121 249.53216 
L 242.497101 245.88544 
L 242.82208 245.19552 
L 243.472039 248.9408 
L 244.121998 245.68832 
L 244.446978 247.26528 
L 244.771957 250.4192 
L 245.096937 245.78688 
L 245.421916 248.05376 
L 245.746896 242.0416 
L 246.071876 247.36384 
L 246.396855 245.984 
L 246.721835 243.32288 
L 247.046814 244.89984 
L 247.371794 247.75808 
L 247.696773 246.9696 
L 248.021753 243.42144 
L 248.346732 246.4768 
L 248.671712 245.4912 
L 248.996691 249.03936 
L 249.64665 245.19552 
L 249.97163 247.65952 
L 250.296609 248.9408 
L 250.621589 244.20992 
L 250.946568 244.30848 
L 251.271548 239.77472 
L 251.596527 244.5056 
L 251.921507 245.19552 
L 252.246486 244.5056 
L 252.571466 245.29408 
L 252.896446 239.87328 
L 253.221425 239.28192 
L 253.546405 242.43584 
L 253.871384 242.83008 
L 254.196364 246.4768 
L 254.521343 238.49344 
L 254.846323 241.35168 
L 255.171302 242.83008 
L 255.496282 240.85888 
L 255.821261 242.0416 
L 256.146241 240.0704 
L 256.47122 244.60416 
L 256.7962 240.26752 
L 257.121179 244.80128 
L 257.446159 238.49344 
L 257.771138 241.64736 
L 258.421097 236.6208 
L 258.746077 238.00064 
L 259.071057 240.76032 
L 259.396036 239.87328 
L 259.721016 238.592 
L 260.045995 239.67616 
L 260.370975 235.1424 
L 260.695954 232.28416 
L 261.020934 238.592 
L 261.345913 237.90208 
L 261.670893 232.08704 
L 261.995872 239.87328 
L 262.320852 238.00064 
L 262.645831 231.2 
L 262.970811 232.6784 
L 263.29579 227.55328 
L 263.945749 234.55104 
L 264.270729 235.83232 
L 264.920688 230.51008 
L 265.245667 238.39488 
L 265.895627 227.2576 
L 266.220606 233.86112 
L 266.545586 230.90432 
L 266.870565 237.1136 
L 267.195545 223.11808 
L 267.520524 225.97632 
L 267.845504 235.93088 
L 268.170483 226.56768 
L 268.495463 226.7648 
L 268.820442 224.00512 
L 269.470401 229.32736 
L 269.795381 216.71168 
L 270.12036 225.2864 
L 270.44534 221.54112 
L 270.770319 221.04832 
L 271.095299 227.06048 
L 271.420278 215.03616 
L 272.070238 233.76256 
L 272.395217 226.96192 
L 272.720197 230.01728 
L 273.045176 220.65408 
L 273.370156 224.20224 
L 274.020115 228.2432 
L 274.345094 219.07712 
L 274.670074 226.17344 
L 274.995053 230.80576 
L 275.320033 218.19008 
L 275.645012 228.83456 
L 275.969992 222.3296 
L 276.294971 234.05824 
L 276.619951 220.25984 
L 277.26991 233.26976 
L 277.919869 226.272 
L 278.244848 228.63744 
L 278.569828 227.2576 
L 278.894808 224.3008 
L 279.219787 230.7072 
L 279.544767 224.49792 
L 279.869746 227.35616 
L 280.194726 227.7504 
L 280.519705 223.51232 
L 280.844685 222.52672 
L 281.169664 225.58208 
L 281.494644 225.2864 
L 281.819623 219.66848 
L 282.469582 221.24544 
L 282.794562 223.01952 
L 283.119541 223.3152 
L 283.444521 219.56992 
L 283.7695 219.66848 
L 284.09448 217.8944 
L 284.419459 218.09152 
L 284.744439 214.9376 
L 285.069419 224.59648 
L 285.394398 228.04608 
L 285.719378 221.04832 
L 286.044357 227.15904 
L 286.369337 218.68288 
L 286.694316 225.08928 
L 287.344275 224.99072 
L 287.669255 225.08928 
L 287.994234 218.48576 
L 288.319214 221.73824 
L 288.644193 220.75264 
L 288.969173 226.07488 
L 289.294152 224.39936 
L 289.619132 228.2432 
L 289.944111 216.51456 
L 290.269091 215.72608 
L 290.59407 217.20448 
L 290.91905 220.16128 
L 291.244029 221.04832 
L 291.569009 217.50016 
L 291.893989 217.69728 
L 292.218968 215.23328 
L 292.543948 216.51456 
L 292.868927 211.09376 
L 293.193907 214.74048 
L 293.518886 210.20672 
L 293.843866 210.40384 
L 294.168845 210.9952 
L 294.493825 221.04832 
L 294.818804 218.58432 
L 295.143784 219.56992 
L 295.468763 217.99296 
L 295.793743 223.11808 
L 296.118722 212.57216 
L 296.443702 209.41824 
L 296.768681 211.78368 
L 297.093661 216.61312 
L 297.41864 217.8944 
L 297.74362 203.1104 
L 298.0686 204.39168 
L 298.393579 215.03616 
L 298.718559 213.26208 
L 299.043538 218.78144 
L 299.368518 204.49024 
L 299.693497 212.37504 
L 300.018477 203.50464 
L 300.343456 203.70176 
L 300.668436 186.94656 
L 300.993415 195.61984 
L 301.318395 207.44704 
L 301.968354 211.29088 
L 302.293333 198.87232 
L 302.618313 209.22112 
L 302.943292 196.2112 
L 303.268272 200.94208 
L 303.918231 216.61312 
L 304.24321 205.18016 
L 304.56819 198.77376 
L 304.89317 201.33632 
L 305.218149 190.88896 
L 305.543129 205.77152 
L 305.868108 204.39168 
L 306.193088 190.00192 
L 306.518067 207.44704 
L 306.843047 196.50688 
L 307.168026 197.49248 
L 307.493006 202.02624 
L 307.817985 191.18464 
L 308.142965 198.28096 
L 308.467944 199.75936 
L 308.792924 191.57888 
L 309.117903 194.92992 
L 309.442883 194.43712 
L 309.767862 195.52128 
L 310.092842 190.88896 
L 310.417821 191.38176 
L 310.742801 195.7184 
L 311.067781 202.02624 
L 311.39276 190.49472 
L 311.71774 201.73056 
L 312.042719 191.18464 
L 312.367699 197.1968 
L 312.692678 199.56224 
L 313.342637 190.7904 
L 313.667617 195.12704 
L 313.992596 194.14144 
L 314.317576 194.43712 
L 314.642555 196.60544 
L 314.967535 181.03296 
L 315.292514 191.97312 
L 315.617494 207.24992 
L 315.942473 191.57888 
L 316.267453 195.52128 
L 316.592432 193.2544 
L 316.917412 200.1536 
L 317.567371 195.61984 
L 317.892351 196.99968 
L 318.21733 192.95872 
L 318.54231 201.43488 
L 318.867289 198.08384 
L 319.192269 205.0816 
L 319.517248 204.98304 
L 319.842228 189.312 
L 320.167207 187.73504 
L 320.817166 200.44928 
L 321.142146 196.60544 
L 321.467125 183.79264 
L 321.792105 197.78816 
L 322.117084 186.55232 
L 322.442064 188.52352 
L 323.092023 204.29312 
L 323.417002 185.46816 
L 323.741982 185.66528 
L 324.066962 177.38624 
L 324.391941 190.2976 
L 325.0419 200.84352 
L 325.36688 183.29984 
L 325.691859 179.85024 
L 326.016839 184.58112 
L 326.341818 193.2544 
L 326.666798 188.3264 
L 326.991777 189.312 
L 327.316757 191.67744 
L 327.641736 180.73728 
L 327.966716 186.45376 
L 328.291695 180.9344 
L 328.616675 186.65088 
L 328.941654 189.90336 
L 329.266634 179.16032 
L 329.591613 183.29984 
L 329.916593 197.98528 
L 330.241572 182.70848 
L 330.891532 186.25664 
L 331.216511 179.75168 
L 331.541491 180.83584 
L 331.86647 183.98976 
L 332.19145 194.83136 
L 332.516429 172.26112 
L 332.841409 174.23232 
L 333.491368 187.14368 
L 333.816347 171.66976 
L 334.141327 173.93664 
L 334.466306 181.72288 
L 334.791286 166.1504 
L 335.116265 171.47264 
L 335.441245 184.08832 
L 335.766224 186.45376 
L 336.091204 176.992 
L 336.416183 175.21792 
L 336.741163 194.33856 
L 337.066143 186.05952 
L 337.391122 188.12928 
L 337.716102 184.58112 
L 338.041081 196.50688 
L 338.366061 186.3552 
L 338.69104 183.10272 
L 339.01602 175.61216 
L 339.340999 187.24224 
L 339.665979 175.11936 
L 339.990958 174.42944 
L 340.315938 188.91776 
L 340.640917 170.5856 
L 340.965897 162.50368 
L 341.290876 163.6864 
L 341.940835 173.5424 
L 342.265815 184.18688 
L 342.590794 180.4416 
L 342.915774 162.89792 
L 343.240753 165.95328 
L 343.565733 179.25888 
L 343.890713 155.60448 
L 344.215692 164.37632 
L 344.540672 167.43168 
L 344.865651 159.94112 
L 345.190631 164.96768 
L 345.51561 166.84032 
L 345.84059 163.29216 
L 346.165569 164.672 
L 346.490549 170.5856 
L 346.815528 158.65984 
L 347.140508 166.34752 
L 347.465487 157.57568 
L 347.790467 158.65984 
L 348.115446 166.05184 
L 348.440426 160.33536 
L 348.765405 167.33312 
L 349.090385 144.96 
L 349.415364 145.15712 
L 350.065324 151.76064 
L 350.390303 157.18144 
L 350.715283 159.2512 
L 351.040262 145.9456 
L 351.365242 148.9024 
L 351.690221 135.89248 
L 352.34018 155.90016 
L 352.66516 149.3952 
L 352.990139 157.67424 
L 353.315119 122.19264 
L 353.640098 149.3952 
L 353.965078 140.32768 
L 354.290057 163.88352 
L 354.940016 148.70528 
L 355.264996 142.89024 
L 355.589975 142.39744 
L 355.914955 139.14496 
L 356.239934 160.63104 
L 356.564914 144.86144 
L 356.889894 144.4672 
L 357.214873 146.53696 
L 357.539853 128.10624 
L 358.189812 140.32768 
L 358.514791 132.64 
L 358.839771 139.14496 
L 359.16475 135.104 
L 359.48973 133.52704 
L 359.814709 149.888 
L 360.139689 133.82272 
L 360.464668 134.31552 
L 360.789648 116.18048 
L 361.114627 134.41408 
L 361.439607 141.0176 
L 361.764586 117.95456 
L 362.089566 130.57024 
L 362.414545 130.47168 
L 362.739525 129.09184 
L 363.064505 120.41856 
L 363.389484 134.41408 
L 364.039443 127.2192 
L 364.364423 146.14272 
L 364.689402 150.57792 
L 365.014382 150.3808 
L 365.339361 130.47168 
L 365.664341 124.85376 
L 365.98932 127.2192 
L 366.3143 123.86816 
L 366.639279 131.35872 
L 366.964259 134.1184 
L 367.289238 129.97888 
L 367.614218 141.31328 
L 367.939197 117.56032 
L 368.264177 124.55808 
L 368.589156 122.68544 
L 368.914136 129.97888 
L 369.239115 126.82496 
L 369.564095 122.2912 
L 369.889075 137.27232 
L 370.214054 101.79072 
L 370.539034 131.35872 
L 370.864013 122.58688 
L 371.188993 123.2768 
L 371.513972 110.56256 
L 371.838952 114.50496 
L 372.163931 115.29344 
L 372.488911 119.23584 
L 372.81389 108.19712 
L 373.13887 127.81056 
L 373.463849 99.22816 
L 373.788829 110.75968 
L 374.113808 113.02656 
L 374.438788 106.91584 
L 374.763767 128.2048 
L 375.088747 125.83936 
L 375.413726 107.60576 
L 375.738706 104.74752 
L 376.063686 144.27008 
L 376.713645 116.77184 
L 377.038624 130.6688 
L 377.363604 109.4784 
L 377.688583 133.32992 
L 378.013563 112.53376 
L 378.338542 109.67552 
L 378.988501 143.67872 
L 379.63846 126.33216 
L 379.96344 144.36864 
L 380.288419 115.98336 
L 380.938378 104.35328 
L 381.263358 126.7264 
L 381.588337 125.64224 
L 381.913317 128.30336 
L 382.238296 114.4064 
L 382.563276 120.71424 
L 382.888256 120.12288 
L 383.213235 125.05088 
L 383.538215 113.22368 
L 383.863194 116.77184 
L 384.188174 104.84608 
L 384.513153 131.6544 
L 384.838133 101.69216 
L 385.163112 126.82496 
L 385.488092 106.91584 
L 385.813071 120.71424 
L 386.138051 119.53152 
L 386.46303 113.4208 
L 386.78801 120.91136 
L 387.112989 118.15168 
L 387.437969 112.23808 
L 387.762948 103.46624 
L 388.087928 117.46176 
L 388.412907 96.96128 
L 388.737887 114.30784 
L 389.062867 112.04096 
L 389.387846 103.66336 
L 389.712826 88.58368 
L 390.037805 125.14944 
L 390.362785 96.76416 
L 390.687764 88.09088 
L 391.012744 101.88928 
L 391.337723 94.79296 
L 391.662703 102.77632 
L 391.987682 101.88928 
L 392.312662 114.50496 
L 392.637641 89.56928 
L 392.962621 99.1296 
L 393.2876 114.20928 
L 393.61258 101.1008 
L 393.937559 103.17056 
L 394.262539 95.08864 
L 394.587518 96.1728 
L 394.912498 109.9712 
L 395.237477 93.90592 
L 395.562457 86.02112 
L 395.887437 84.44416 
L 396.212416 93.7088 
L 396.537396 81.78304 
L 397.187355 92.7232 
L 397.512334 81.48736 
L 397.837314 98.83392 
L 398.162293 81.3888 
L 398.487273 91.54048 
L 398.487273 91.54048 
" style="fill:none;stroke:#1f77b4;stroke-linecap:square;stroke-width:1.5;"/>
   </g>
   <g id="patch_3">
    <path d="M 57.6 307.584 
L 57.6 41.472 
" style="fill:none;stroke:#000000;stroke-linecap:square;stroke-linejoin:miter;stroke-width:0.8;"/>
   </g>
   <g id="patch_4">
    <path d="M 414.72 307.584 
L 414.72 41.472 
" style="fill:none;stroke:#000000;stroke-linecap:square;stroke-linejoin:miter;stroke-width:0.8;"/>
   </g>
   <g id="patch_5">
    <path d="M 57.6 307.584 
L 414.72 307.584 
" style="fill:none;stroke:#000000;stroke-linecap:square;stroke-linejoin:miter;stroke-width:0.8;"/>
   </g>
   <g id="patch_6">
    <path d="M 57.6 41.472 
L 414.72 41.472 
" style="fill:none;stroke:#000000;stroke-linecap:square;stroke-linejoin:miter;stroke-width:0.8;"/>
   </g>
   <g id="text_15">
    <!-- Training - CMA-ES - Slimevolley -->
    <g transform="translate(142.952812 35.472)scale(0.12 -0.12)">
     <defs>
      <path d="M 3513 2113 
L 3513 0 
L 2938 0 
L 2938 2094 
Q 2938 2591 2744 2837 
Q 2550 3084 2163 3084 
Q 1697 3084 1428 2787 
Q 1159 2491 1159 1978 
L 1159 0 
L 581 0 
L 581 3500 
L 1159 3500 
L 1159 2956 
Q 1366 3272 1645 3428 
Q 1925 3584 2291 3584 
Q 2894 3584 3203 3211 
Q 3513 2838 3513 2113 
z
" id="DejaVuSans-6e" transform="scale(0.015625)"/>
      <path d="M 2906 1791 
Q 2906 2416 2648 2759 
Q 2391 3103 1925 3103 
Q 1463 3103 1205 2759 
Q 947 2416 947 1791 
Q 947 1169 1205 825 
Q 1463 481 1925 481 
Q 2391 481 2648 825 
Q 2906 1169 2906 1791 
z
M 3481 434 
Q 3481 -459 3084 -895 
Q 2688 -1331 1869 -1331 
Q 1566 -1331 1297 -1286 
Q 1028 -1241 775 -1147 
L 775 -588 
Q 1028 -725 1275 -790 
Q 1522 -856 1778 -856 
Q 2344 -856 2625 -561 
Q 2906 -266 2906 331 
L 2906 616 
Q 2728 306 2450 153 
Q 2172 0 1784 0 
Q 1141 0 747 490 
Q 353 981 353 1791 
Q 353 2603 747 3093 
Q 1141 3584 1784 3584 
Q 2172 3584 2450 3431 
Q 2728 3278 2906 2969 
L 2906 3500 
L 3481 3500 
L 3481 434 
z
" id="DejaVuSans-67" transform="scale(0.015625)"/>
      <path id="DejaVuSans-20" transform="scale(0.015625)"/>
      <path d="M 313 2009 
L 1997 2009 
L 1997 1497 
L 313 1497 
L 313 2009 
z
" id="DejaVuSans-2d" transform="scale(0.015625)"/>
      <path d="M 4122 4306 
L 4122 3641 
Q 3803 3938 3442 4084 
Q 3081 4231 2675 4231 
Q 1875 4231 1450 3742 
Q 1025 3253 1025 2328 
Q 1025 1406 1450 917 
Q 1875 428 2675 428 
Q 3081 428 3442 575 
Q 3803 722 4122 1019 
L 4122 359 
Q 3791 134 3420 21 
Q 3050 -91 2638 -91 
Q 1578 -91 968 557 
Q 359 1206 359 2328 
Q 359 3453 968 4101 
Q 1578 4750 2638 4750 
Q 3056 4750 3426 4639 
Q 3797 4528 4122 4306 
z
" id="DejaVuSans-43" transform="scale(0.015625)"/>
      <path d="M 628 4666 
L 1569 4666 
L 2759 1491 
L 3956 4666 
L 4897 4666 
L 4897 0 
L 4281 0 
L 4281 4097 
L 3078 897 
L 2444 897 
L 1241 4097 
L 1241 0 
L 628 0 
L 628 4666 
z
" id="DejaVuSans-4d" transform="scale(0.015625)"/>
      <path d="M 2188 4044 
L 1331 1722 
L 3047 1722 
L 2188 4044 
z
M 1831 4666 
L 2547 4666 
L 4325 0 
L 3669 0 
L 3244 1197 
L 1141 1197 
L 716 0 
L 50 0 
L 1831 4666 
z
" id="DejaVuSans-41" transform="scale(0.015625)"/>
      <path d="M 628 4666 
L 3578 4666 
L 3578 4134 
L 1259 4134 
L 1259 2753 
L 3481 2753 
L 3481 2222 
L 1259 2222 
L 1259 531 
L 3634 531 
L 3634 0 
L 628 0 
L 628 4666 
z
" id="DejaVuSans-45" transform="scale(0.015625)"/>
      <path d="M 3425 4513 
L 3425 3897 
Q 3066 4069 2747 4153 
Q 2428 4238 2131 4238 
Q 1616 4238 1336 4038 
Q 1056 3838 1056 3469 
Q 1056 3159 1242 3001 
Q 1428 2844 1947 2747 
L 2328 2669 
Q 3034 2534 3370 2195 
Q 3706 1856 3706 1288 
Q 3706 609 3251 259 
Q 2797 -91 1919 -91 
Q 1588 -91 1214 -16 
Q 841 59 441 206 
L 441 856 
Q 825 641 1194 531 
Q 1563 422 1919 422 
Q 2459 422 2753 634 
Q 3047 847 3047 1241 
Q 3047 1584 2836 1778 
Q 2625 1972 2144 2069 
L 1759 2144 
Q 1053 2284 737 2584 
Q 422 2884 422 3419 
Q 422 4038 858 4394 
Q 1294 4750 2059 4750 
Q 2388 4750 2728 4690 
Q 3069 4631 3425 4513 
z
" id="DejaVuSans-53" transform="scale(0.015625)"/>
      <path d="M 603 4863 
L 1178 4863 
L 1178 0 
L 603 0 
L 603 4863 
z
" id="DejaVuSans-6c" transform="scale(0.015625)"/>
      <path d="M 191 3500 
L 800 3500 
L 1894 563 
L 2988 3500 
L 3597 3500 
L 2284 0 
L 1503 0 
L 191 3500 
z
" id="DejaVuSans-76" transform="scale(0.015625)"/>
      <path d="M 1959 3097 
Q 1497 3097 1228 2736 
Q 959 2375 959 1747 
Q 959 1119 1226 758 
Q 1494 397 1959 397 
Q 2419 397 2687 759 
Q 2956 1122 2956 1747 
Q 2956 2369 2687 2733 
Q 2419 3097 1959 3097 
z
M 1959 3584 
Q 2709 3584 3137 3096 
Q 3566 2609 3566 1747 
Q 3566 888 3137 398 
Q 2709 -91 1959 -91 
Q 1206 -91 779 398 
Q 353 888 353 1747 
Q 353 2609 779 3096 
Q 1206 3584 1959 3584 
z
" id="DejaVuSans-6f" transform="scale(0.015625)"/>
      <path d="M 2059 -325 
Q 1816 -950 1584 -1140 
Q 1353 -1331 966 -1331 
L 506 -1331 
L 506 -850 
L 844 -850 
Q 1081 -850 1212 -737 
Q 1344 -625 1503 -206 
L 1606 56 
L 191 3500 
L 800 3500 
L 1894 763 
L 2988 3500 
L 3597 3500 
L 2059 -325 
z
" id="DejaVuSans-79" transform="scale(0.015625)"/>
     </defs>
     <use xlink:href="#DejaVuSans-54"/>
     <use x="46.333984" xlink:href="#DejaVuSans-72"/>
     <use x="87.447266" xlink:href="#DejaVuSans-61"/>
     <use x="148.726562" xlink:href="#DejaVuSans-69"/>
     <use x="176.509766" xlink:href="#DejaVuSans-6e"/>
     <use x="239.888672" xlink:href="#DejaVuSans-69"/>
     <use x="267.671875" xlink:href="#DejaVuSans-6e"/>
     <use x="331.050781" xlink:href="#DejaVuSans-67"/>
     <use x="394.527344" xlink:href="#DejaVuSans-20"/>
     <use x="426.314453" xlink:href="#DejaVuSans-2d"/>
     <use x="462.398438" xlink:href="#DejaVuSans-20"/>
     <use x="494.185547" xlink:href="#DejaVuSans-43"/>
     <use x="564.009766" xlink:href="#DejaVuSans-4d"/>
     <use x="650.289062" xlink:href="#DejaVuSans-41"/>
     <use x="716.447266" xlink:href="#DejaVuSans-2d"/>
     <use x="752.53125" xlink:href="#DejaVuSans-45"/>
     <use x="815.714844" xlink:href="#DejaVuSans-53"/>
     <use x="879.191406" xlink:href="#DejaVuSans-20"/>
     <use x="910.978516" xlink:href="#DejaVuSans-2d"/>
     <use x="947.0625" xlink:href="#DejaVuSans-20"/>
     <use x="978.849609" xlink:href="#DejaVuSans-53"/>
     <use x="1042.326172" xlink:href="#DejaVuSans-6c"/>
     <use x="1070.109375" xlink:href="#DejaVuSans-69"/>
     <use x="1097.892578" xlink:href="#DejaVuSans-6d"/>
     <use x="1195.304688" xlink:href="#DejaVuSans-65"/>
     <use x="1256.828125" xlink:href="#DejaVuSans-76"/>
     <use x="1316.007812" xlink:href="#DejaVuSans-6f"/>
     <use x="1377.189453" xlink:href="#DejaVuSans-6c"/>
     <use x="1404.972656" xlink:href="#DejaVuSans-6c"/>
     <use x="1432.755859" xlink:href="#DejaVuSans-65"/>
     <use x="1494.279297" xlink:href="#DejaVuSans-79"/>
    </g>
   </g>
  </g>
 </g>
 <defs>
  <clipPath id="pb730798676">
   <rect height="266.112" width="357.12" x="57.6" y="41.472"/>
  </clipPath>
 </defs>
</svg>
