<?xml version="1.0" encoding="utf-8" standalone="no"?>
<!DOCTYPE svg PUBLIC "-//W3C//DTD SVG 1.1//EN"
  "http://www.w3.org/Graphics/SVG/1.1/DTD/svg11.dtd">
<svg height="345.6pt" version="1.1" viewBox="0 0 460.8 345.6" width="460.8pt" xmlns="http://www.w3.org/2000/svg" xmlns:xlink="http://www.w3.org/1999/xlink">
 <metadata>
  <rdf:RDF xmlns:cc="http://creativecommons.org/ns#" xmlns:dc="http://purl.org/dc/elements/1.1/" xmlns:rdf="http://www.w3.org/1999/02/22-rdf-syntax-ns#">
   <cc:Work>
    <dc:type rdf:resource="http://purl.org/dc/dcmitype/StillImage"/>
    <dc:date>2021-07-22T00:42:26.096470</dc:date>
    <dc:format>image/svg+xml</dc:format>
    <dc:creator>
     <cc:Agent>
      <dc:title>Matplotlib v3.4.2, https://matplotlib.org/</dc:title>
     </cc:Agent>
    </dc:creator>
   </cc:Work>
  </rdf:RDF>
 </metadata>
 <defs>
  <style type="text/css">*{stroke-linecap:butt;stroke-linejoin:round;}</style>
 </defs>
 <g id="figure_1">
  <g id="patch_1">
   <path d="M 0 345.6 
L 460.8 345.6 
L 460.8 0 
L 0 0 
z
" style="fill:#ffffff;"/>
  </g>
  <g id="axes_1">
   <g id="patch_2">
    <path d="M 57.6 307.584 
L 414.72 307.584 
L 414.72 41.472 
L 57.6 41.472 
z
" style="fill:#ffffff;"/>
   </g>
   <g id="PolyCollection_1">
    <path clip-path="url(#p02b5ef5b0d)" d="M 73.832727 304.149159 
L 73.832727 305.95739 
L 74.158359 305.397225 
L 74.48399 306.247452 
L 74.809622 306.618679 
L 75.135253 304.203047 
L 75.460884 305.07656 
L 75.786516 305.352651 
L 76.112147 305.65868 
L 76.437779 306.20554 
L 76.76341 304.582257 
L 77.089042 304.278889 
L 77.414673 303.746 
L 77.740305 304.238972 
L 78.065936 304.523047 
L 78.391567 304.203712 
L 78.717199 297.319395 
L 79.04283 302.923714 
L 79.368462 304.283546 
L 79.694093 304.438556 
L 80.019725 304.266249 
L 80.345356 297.589499 
L 80.670988 304.404627 
L 80.996619 302.670907 
L 81.32225 294.024263 
L 81.647882 288.443229 
L 81.973513 304.229658 
L 82.299145 304.143172 
L 82.624776 302.426749 
L 82.950408 302.295024 
L 83.276039 293.48206 
L 83.60167 304.143172 
L 83.927302 301.494027 
L 84.252933 304.156477 
L 84.578565 304.225667 
L 84.904196 301.761469 
L 85.229828 297.715902 
L 85.555459 291.821521 
L 85.881091 292.381687 
L 86.206722 292.728963 
L 86.532353 290.691876 
L 86.857985 288.466514 
L 87.183616 290.213539 
L 87.509248 288.529716 
L 87.834879 296.363388 
L 88.160511 295.751995 
L 88.486142 293.406883 
L 88.811774 301.647707 
L 89.137405 301.815357 
L 89.463036 304.148494 
L 89.788668 296.600227 
L 90.114299 300.848705 
L 90.439931 294.984262 
L 90.765562 297.062597 
L 91.091194 304.153151 
L 91.416825 294.393493 
L 91.742456 294.307007 
L 92.068088 304.052028 
L 92.393719 296.172452 
L 92.719351 291.921313 
L 93.044982 294.471331 
L 93.370614 301.605794 
L 93.696245 304.070656 
L 94.021877 293.514659 
L 94.347508 289.435162 
L 94.673139 288.946846 
L 94.998771 288.328801 
L 95.324402 295.910332 
L 95.650034 287.51849 
L 95.975665 287.664852 
L 96.301297 293.936446 
L 96.626928 292.180772 
L 96.952559 288.998073 
L 97.278191 291.745014 
L 97.603822 289.002064 
L 97.929454 288.733291 
L 98.255085 302.631656 
L 98.580717 298.444383 
L 98.906348 298.11507 
L 99.23198 290.054537 
L 99.557611 289.373291 
L 99.883242 288.038739 
L 100.208874 301.336356 
L 100.534505 298.808957 
L 100.860137 303.117975 
L 101.185768 292.355741 
L 101.5114 302.591074 
L 101.837031 292.219358 
L 102.162663 292.824763 
L 102.488294 302.774026 
L 102.813925 294.902433 
L 103.139557 292.660439 
L 103.465188 290.621356 
L 103.79082 301.512655 
L 104.116451 297.552908 
L 104.442083 304.218348 
L 104.767714 302.80729 
L 105.093345 304.115895 
L 105.418977 302.71282 
L 105.744608 302.71415 
L 106.07024 294.154658 
L 106.395871 290.968632 
L 106.721503 293.306426 
L 107.047134 304.191072 
L 107.372766 295.411372 
L 107.698397 300.520057 
L 108.024028 300.645795 
L 108.34966 302.148662 
L 108.675291 304.116561 
L 109.000923 293.349669 
L 109.326554 300.609204 
L 109.652186 301.846625 
L 109.977817 302.555814 
L 110.303449 293.593162 
L 110.62908 293.581187 
L 110.954711 302.283049 
L 111.280343 301.587166 
L 111.605974 295.948253 
L 111.931606 294.192579 
L 112.257237 289.978695 
L 112.582869 291.556074 
L 112.9085 301.332364 
L 113.234131 291.906012 
L 113.559763 297.886213 
L 113.885394 294.23183 
L 114.211026 300.498768 
L 114.536657 294.084138 
L 114.862289 304.133193 
L 115.18792 294.662267 
L 115.513552 288.46851 
L 115.839183 304.121883 
L 116.164814 293.845303 
L 116.490446 292.422269 
L 116.816077 290.164974 
L 117.141709 300.281221 
L 117.46734 297.854945 
L 117.792972 292.902601 
L 118.118603 286.583772 
L 118.444235 288.958156 
L 118.769866 293.171374 
L 119.095497 293.733536 
L 119.421129 293.480064 
L 119.74676 301.38359 
L 120.072392 302.608371 
L 120.398023 295.179189 
L 120.723655 293.168048 
L 121.049286 296.417275 
L 121.374917 297.222929 
L 121.700549 289.701274 
L 122.02618 300.533363 
L 122.351812 294.280396 
L 122.677443 289.139112 
L 123.003075 294.448712 
L 123.328706 301.463424 
L 123.654338 288.496452 
L 123.979969 289.485058 
L 124.3056 297.687295 
L 124.631232 303.922964 
L 124.956863 297.95008 
L 125.282495 288.397325 
L 125.608126 299.812199 
L 125.933758 293.559232 
L 126.259389 293.774118 
L 126.585021 301.43016 
L 126.910652 291.457613 
L 127.236283 289.478405 
L 127.561915 289.179694 
L 127.887546 304.109243 
L 128.213178 294.255115 
L 128.538809 301.345669 
L 128.864441 300.050369 
L 129.190072 297.898854 
L 129.515703 301.295773 
L 129.841335 300.659766 
L 130.166966 293.561893 
L 130.492598 287.752003 
L 130.818229 286.850549 
L 131.143861 304.031405 
L 131.469492 292.2952 
L 131.795124 289.410546 
L 132.120755 302.057519 
L 132.446386 290.82094 
L 132.772018 301.271158 
L 133.097649 293.987673 
L 133.423281 300.114901 
L 133.748912 292.919898 
L 134.074544 302.841884 
L 134.400175 292.744264 
L 134.725807 300.928539 
L 135.051438 296.966131 
L 135.377069 299.273988 
L 135.702701 303.962216 
L 136.028332 296.893616 
L 136.353964 285.629095 
L 136.679595 285.994999 
L 137.005227 287.825184 
L 137.330858 291.762311 
L 137.656489 297.172368 
L 137.982121 291.141605 
L 138.307752 304.119887 
L 138.633384 294.068837 
L 138.959015 297.401224 
L 139.284647 302.563797 
L 139.610278 294.851206 
L 139.93591 291.391085 
L 140.261541 291.289962 
L 140.587172 293.366301 
L 140.912804 295.155239 
L 141.238435 304.255604 
L 141.564067 301.728205 
L 141.889698 297.80638 
L 142.21533 303.887039 
L 142.540961 303.54575 
L 142.866593 302.521219 
L 143.192224 294.236487 
L 143.517855 285.557244 
L 143.843487 284.65579 
L 144.169118 289.522313 
L 144.49475 300.684381 
L 144.820381 296.189749 
L 145.146013 289.572875 
L 145.471644 295.714074 
L 145.797275 294.189918 
L 146.122907 292.550003 
L 146.448538 286.545851 
L 146.77417 303.61627 
L 147.099801 300.599891 
L 147.425433 287.443313 
L 147.751064 289.038655 
L 148.076696 292.989753 
L 148.402327 284.50211 
L 148.727958 289.472417 
L 149.05359 297.733199 
L 149.379221 295.104012 
L 149.704853 291.400399 
L 150.030484 299.674486 
L 150.356116 301.650368 
L 150.681747 292.962476 
L 151.007378 288.8251 
L 151.33301 287.664186 
L 151.658641 301.212613 
L 151.984273 302.283049 
L 152.309904 300.013114 
L 152.635536 291.22543 
L 152.961167 294.030251 
L 153.286799 294.838566 
L 153.61243 292.011126 
L 153.938061 289.363311 
L 154.263693 290.56015 
L 154.589324 292.196739 
L 154.914956 292.387009 
L 155.240587 288.27824 
L 155.566219 292.998401 
L 155.89185 288.61088 
L 156.217482 290.787011 
L 156.543113 284.816123 
L 156.868744 292.6631 
L 157.194376 292.41362 
L 157.520007 291.795575 
L 157.845639 295.437983 
L 158.17127 292.092955 
L 158.496902 290.825597 
L 158.822533 294.572454 
L 159.148164 285.821361 
L 159.473796 289.171711 
L 159.799427 291.394411 
L 160.125059 301.600472 
L 160.45069 298.138355 
L 160.776322 295.907005 
L 161.101953 291.126303 
L 161.427585 297.519644 
L 161.753216 304.169783 
L 162.078847 296.751246 
L 162.404479 296.258273 
L 162.73011 300.335774 
L 163.055742 294.12339 
L 163.381373 292.358402 
L 163.707005 293.893868 
L 164.032636 293.554575 
L 164.358268 300.600556 
L 164.683899 299.758977 
L 165.00953 299.906669 
L 165.335162 291.20148 
L 165.660793 303.756644 
L 165.986425 294.859855 
L 166.312056 294.438067 
L 166.637688 293.985677 
L 166.963319 295.121975 
L 167.28895 293.822683 
L 167.614582 293.880563 
L 167.940213 294.256446 
L 168.265845 302.299681 
L 168.591476 294.788004 
L 168.917108 296.887628 
L 169.242739 291.104349 
L 169.568371 301.592488 
L 169.894002 292.955158 
L 170.219633 291.285305 
L 170.545265 289.69329 
L 170.870896 292.04439 
L 171.196528 295.694116 
L 171.522159 292.719649 
L 171.847791 294.50393 
L 172.173422 288.056701 
L 172.499054 295.106008 
L 172.824685 296.311496 
L 173.150316 292.031084 
L 173.475948 296.410622 
L 173.801579 302.750076 
L 174.127211 299.344507 
L 174.452842 296.0853 
L 174.778474 298.984591 
L 175.104105 294.724138 
L 175.429736 291.10568 
L 175.755368 288.731961 
L 176.080999 292.088298 
L 176.406631 298.081806 
L 176.732262 294.273743 
L 177.057894 286.28373 
L 177.383525 292.190086 
L 177.709157 291.266012 
L 178.034788 292.051043 
L 178.360419 299.733696 
L 178.686051 298.997231 
L 179.011682 302.599057 
L 179.337314 296.931537 
L 179.662945 293.999648 
L 179.988577 291.17886 
L 180.314208 295.522474 
L 180.63984 289.141108 
L 180.965471 297.030663 
L 181.291102 288.843728 
L 181.616734 295.744012 
L 181.942365 287.247721 
L 182.267997 292.881312 
L 182.593628 296.682722 
L 182.91926 300.841387 
L 183.244891 300.671741 
L 183.570522 302.297685 
L 183.896154 293.392247 
L 184.221785 289.179029 
L 184.547417 295.865093 
L 184.873048 299.344507 
L 185.19868 296.056028 
L 185.524311 298.109082 
L 185.849943 300.351076 
L 186.175574 296.696693 
L 186.501205 298.512242 
L 186.826837 297.356651 
L 187.152468 297.942762 
L 187.4781 301.71623 
L 187.803731 301.942426 
L 188.129363 297.811037 
L 188.454994 294.252454 
L 188.780626 301.358975 
L 189.106257 298.710495 
L 189.431888 302.565128 
L 189.75752 298.859518 
L 190.083151 304.242299 
L 190.408783 300.967125 
L 190.734414 298.655942 
L 191.060046 299.545422 
L 191.385677 297.12979 
L 191.711308 299.46958 
L 192.03694 304.162465 
L 192.362571 301.21594 
L 192.688203 298.160309 
L 193.013834 294.241144 
L 193.339466 297.938105 
L 193.665097 295.738024 
L 193.990729 290.889464 
L 194.31636 299.405048 
L 194.641991 298.164966 
L 194.967623 296.978772 
L 195.293254 302.126708 
L 195.618886 304.262257 
L 195.944517 303.511156 
L 196.270149 300.037064 
L 196.59578 297.914155 
L 196.921412 304.01943 
L 197.247043 293.645053 
L 197.572674 303.023506 
L 197.898306 301.980347 
L 198.223937 303.593651 
L 198.549569 301.303092 
L 198.8752 302.823922 
L 199.200832 296.996069 
L 199.526463 293.612455 
L 199.852094 301.53727 
L 200.177726 302.301677 
L 200.503357 297.341349 
L 200.828989 295.342183 
L 201.15462 293.267174 
L 201.480252 295.219771 
L 201.805883 300.997728 
L 202.131515 303.929617 
L 202.457146 301.364963 
L 202.782777 292.678402 
L 203.108409 304.065334 
L 203.43404 299.451617 
L 203.759672 303.41469 
L 204.085303 304.666082 
L 204.410935 301.134776 
L 204.736566 295.215114 
L 205.062198 302.260429 
L 205.387829 294.284388 
L 205.71346 301.331699 
L 206.039092 302.151324 
L 206.364723 300.188748 
L 206.690355 295.960893 
L 207.015986 303.123298 
L 207.341618 294.465344 
L 207.667249 302.339598 
L 207.99288 304.077974 
L 208.318512 292.867341 
L 208.644143 297.934114 
L 208.969775 294.891788 
L 209.295406 299.132283 
L 209.621038 303.475231 
L 209.946669 303.042799 
L 210.272301 297.548916 
L 210.597932 297.538937 
L 210.923563 297.190996 
L 211.249195 301.790742 
L 211.574826 300.925878 
L 211.900458 298.546171 
L 212.226089 296.559645 
L 212.551721 303.103339 
L 212.877352 299.758977 
L 213.202983 297.537607 
L 213.528615 296.669416 
L 213.854246 295.979521 
L 214.179878 303.238391 
L 214.505509 300.583924 
L 214.831141 304.162465 
L 215.156772 300.221346 
L 215.482404 297.966712 
L 215.808035 304.262922 
L 216.133666 300.701678 
L 216.459298 294.928379 
L 216.784929 305.177682 
L 217.110561 299.836149 
L 217.436192 303.511156 
L 217.761824 303.062757 
L 218.087455 293.210626 
L 218.413087 304.093941 
L 218.738718 295.734033 
L 219.064349 304.006789 
L 219.389981 303.677476 
L 219.715612 299.738353 
L 220.041244 304.184419 
L 220.366875 301.490035 
L 220.692507 302.632321 
L 221.018138 304.205708 
L 221.343769 302.108746 
L 221.669401 293.634409 
L 221.995032 299.263343 
L 222.320664 303.062757 
L 222.646295 296.374032 
L 222.971927 295.585675 
L 223.297558 294.054866 
L 223.62319 297.091869 
L 223.948821 295.817858 
L 224.274452 302.03623 
L 224.600084 294.472662 
L 224.925715 297.153075 
L 225.251347 298.101099 
L 225.576978 304.283546 
L 225.90261 302.334276 
L 226.228241 304.216353 
L 226.553873 299.405713 
L 226.879504 304.083962 
L 227.205135 297.712575 
L 227.530767 302.1786 
L 227.856398 304.086623 
L 228.18203 305.389241 
L 228.507661 304.04338 
L 228.833293 304.881633 
L 229.158924 304.301508 
L 229.484555 303.634898 
L 229.810187 302.030908 
L 230.135818 301.684297 
L 230.46145 299.743675 
L 230.787081 305.266164 
L 231.112713 302.729452 
L 231.438344 304.74525 
L 231.763976 303.051447 
L 232.089607 295.245717 
L 232.415238 297.755153 
L 232.74087 298.089124 
L 233.066501 292.945179 
L 233.392133 294.875821 
L 233.717764 304.255604 
L 234.043396 302.090118 
L 234.369027 300.079642 
L 234.694659 299.812199 
L 235.02029 304.271571 
L 235.345921 304.247621 
L 235.671553 302.709493 
L 235.997184 294.952329 
L 236.322816 300.179434 
L 236.648447 297.487045 
L 236.974079 294.593743 
L 237.29971 304.199721 
L 237.625341 304.038058 
L 237.950973 300.635816 
L 238.276604 304.380677 
L 238.602236 299.020516 
L 238.927867 293.804721 
L 239.253499 295.171206 
L 239.57913 302.577103 
L 239.904762 300.755566 
L 240.230393 303.887704 
L 240.556024 302.964961 
L 240.881656 302.613028 
L 241.207287 302.565128 
L 241.532919 304.028744 
L 241.85855 296.446548 
L 242.184182 302.961635 
L 242.509813 303.11598 
L 242.835445 299.195484 
L 243.161076 297.159062 
L 243.486707 301.615773 
L 243.812339 301.830659 
L 244.13797 298.027253 
L 244.463602 304.217018 
L 244.789233 302.909077 
L 245.114865 302.735439 
L 245.440496 297.918147 
L 245.766127 302.065502 
L 246.091759 300.149496 
L 246.41739 300.228664 
L 246.743022 300.043051 
L 247.068653 300.022428 
L 247.394285 300.451533 
L 247.719916 298.328625 
L 248.045548 292.974451 
L 248.371179 297.614779 
L 248.69681 301.772779 
L 249.022442 300.633155 
L 249.348073 296.863013 
L 249.673705 297.976692 
L 249.999336 304.223671 
L 250.324968 299.558727 
L 250.650599 297.465091 
L 250.976231 303.972195 
L 251.301862 300.810784 
L 251.627493 304.175771 
L 251.953125 303.278973 
L 252.278756 302.070825 
L 252.604388 301.315732 
L 252.930019 303.762632 
L 253.255651 303.920968 
L 253.581282 300.790161 
L 253.906913 304.168452 
L 254.232545 298.293365 
L 254.558176 303.612944 
L 254.883808 303.764628 
L 255.209439 305.511653 
L 255.535071 300.648456 
L 255.860702 303.274316 
L 256.186334 300.248623 
L 256.511965 300.031741 
L 256.837596 304.19839 
L 257.163228 303.052778 
L 257.488859 300.250619 
L 257.814491 301.468081 
L 258.140122 303.812528 
L 258.465754 303.882382 
L 258.791385 301.180015 
L 259.117017 303.504503 
L 259.442648 303.754648 
L 259.768279 295.819854 
L 260.093911 303.912985 
L 260.419542 294.825925 
L 260.745174 300.856023 
L 261.070805 304.180428 
L 261.396437 302.497269 
L 261.722068 303.867081 
L 262.047699 303.686124 
L 262.373331 303.871738 
L 262.698962 303.763962 
L 263.024594 300.751574 
L 263.350225 300.588581 
L 263.675857 304.169783 
L 264.001488 303.65286 
L 264.32712 300.019766 
L 264.652751 303.990157 
L 264.978382 298.909414 
L 265.304014 302.851863 
L 265.629645 303.942257 
L 265.955277 303.934274 
L 266.280908 303.590989 
L 266.60654 304.260261 
L 266.932171 302.406126 
L 267.257802 302.179931 
L 267.583434 299.415692 
L 267.909065 294.97894 
L 268.234697 302.529203 
L 268.560328 302.950325 
L 268.88596 303.24837 
L 269.211591 303.881717 
L 269.537223 299.782927 
L 269.862854 294.665593 
L 270.188485 296.946838 
L 270.514117 303.477892 
L 270.839748 302.621011 
L 271.16538 292.894618 
L 271.491011 303.827829 
L 271.816643 304.212361 
L 272.142274 304.10392 
L 272.467906 302.976936 
L 272.793537 298.707834 
L 273.119168 300.142178 
L 273.4448 304.03207 
L 273.770431 301.092863 
L 274.096063 301.347665 
L 274.421694 304.159139 
L 274.747326 302.763381 
L 275.072957 304.209035 
L 275.398588 303.887039 
L 275.72422 303.512486 
L 276.049851 297.610788 
L 276.375483 304.188411 
L 276.701114 299.574694 
L 277.026746 303.980844 
L 277.352377 303.547746 
L 277.678009 301.951074 
L 278.00364 304.177766 
L 278.329271 302.678225 
L 278.654903 302.709493 
L 278.980534 305.425832 
L 279.306166 304.216353 
L 279.631797 303.835147 
L 279.957429 304.231654 
L 280.28306 303.617601 
L 280.608692 302.933028 
L 280.934323 299.999143 
L 281.259954 302.076147 
L 281.585586 304.219014 
L 281.911217 303.883047 
L 282.236849 304.844377 
L 282.56248 299.814195 
L 282.888112 304.604211 
L 283.213743 300.615192 
L 283.539374 302.78334 
L 283.865006 301.579848 
L 284.190637 299.157564 
L 284.516269 305.789075 
L 284.8419 295.852452 
L 285.167532 305.684626 
L 285.493163 296.386007 
L 285.818795 295.028171 
L 286.144426 303.317559 
L 286.470057 305.475728 
L 286.795689 300.253945 
L 287.12132 303.554399 
L 287.446952 299.996482 
L 287.772583 294.303015 
L 288.098215 300.092947 
L 288.423846 301.793403 
L 288.749478 299.794236 
L 289.075109 304.052028 
L 289.40074 305.846954 
L 289.726372 302.49993 
L 290.052003 303.545085 
L 290.377635 303.335522 
L 290.703266 301.877893 
L 291.028898 300.748248 
L 291.354529 305.660676 
L 291.68016 303.751322 
L 292.005792 297.896858 
L 292.331423 297.503677 
L 292.657055 301.239225 
L 292.982686 304.219014 
L 293.308318 297.358646 
L 293.633949 297.400559 
L 293.959581 300.519392 
L 294.285212 301.492696 
L 294.610843 303.208453 
L 294.936475 304.18575 
L 295.262106 305.329366 
L 295.587738 301.492696 
L 295.913369 303.437975 
L 296.239001 299.23274 
L 296.564632 302.024255 
L 296.890264 303.658183 
L 297.215895 294.362225 
L 297.541526 304.641467 
L 297.867158 298.706504 
L 298.192789 300.614527 
L 298.518421 301.388913 
L 298.844052 304.244294 
L 299.169684 305.340676 
L 299.495315 302.045544 
L 299.820946 302.019598 
L 300.146578 305.438472 
L 300.472209 298.258105 
L 300.797841 299.241389 
L 301.123472 304.308827 
L 301.449104 302.779348 
L 301.774735 304.148494 
L 302.100367 301.570534 
L 302.425998 304.244294 
L 302.751629 303.867746 
L 303.077261 304.058681 
L 303.402892 295.696777 
L 303.728524 305.537599 
L 304.054155 304.031405 
L 304.379787 302.89178 
L 304.705418 299.772948 
L 305.03105 299.816191 
L 305.356681 296.090623 
L 305.682312 301.529952 
L 306.007944 301.470742 
L 306.333575 303.140595 
L 306.659207 298.021931 
L 306.984838 303.879721 
L 307.31047 302.673568 
L 307.636101 296.960809 
L 307.961732 300.915899 
L 308.287364 302.827913 
L 308.612995 302.999556 
L 308.938627 297.523636 
L 309.264258 304.242964 
L 309.58989 301.732862 
L 309.915521 295.283638 
L 310.241153 302.607706 
L 310.566784 302.519889 
L 310.892415 302.197893 
L 311.218047 298.526213 
L 311.543678 302.553153 
L 311.86931 301.944421 
L 312.194941 297.150414 
L 312.520573 303.46259 
L 312.846204 304.259596 
L 313.171836 301.028996 
L 313.497467 304.193733 
L 313.823098 303.966873 
L 314.14873 300.643134 
L 314.474361 301.259848 
L 314.799993 301.569869 
L 315.125624 302.957643 
L 315.451256 298.894778 
L 315.776887 303.028828 
L 316.102518 305.357308 
L 316.42815 306.002629 
L 316.753781 304.070656 
L 317.079413 303.745334 
L 317.405044 298.510911 
L 317.730676 302.996229 
L 318.056307 303.052113 
L 318.381939 303.990823 
L 318.70757 302.041552 
L 319.033201 299.233405 
L 319.358833 301.446792 
L 319.684464 298.387835 
L 320.010096 302.577768 
L 320.335727 304.179762 
L 320.661359 298.200891 
L 320.98699 304.089949 
L 321.312622 303.879056 
L 321.638253 300.845379 
L 321.963884 299.078395 
L 322.289516 304.320136 
L 322.615147 305.810364 
L 322.940779 303.008869 
L 323.26641 304.258931 
L 323.592042 304.026748 
L 323.917673 304.172444 
L 324.243304 303.926291 
L 324.568936 304.140511 
L 324.894567 300.89594 
L 325.220199 299.596648 
L 325.54583 297.299436 
L 325.871462 298.739768 
L 326.197093 301.428164 
L 326.522725 304.334772 
L 326.848356 298.437731 
L 327.173987 303.106666 
L 327.499619 301.550576 
L 327.82525 301.978351 
L 328.150882 295.867089 
L 328.476513 302.394816 
L 328.802145 304.423255 
L 329.127776 304.133193 
L 329.453407 304.234315 
L 329.779039 303.027497 
L 330.10467 304.133858 
L 330.430302 304.195729 
L 330.755933 301.105503 
L 331.081565 304.216353 
L 331.407196 301.15806 
L 331.732828 304.153816 
L 332.058459 304.284876 
L 332.38409 297.080559 
L 332.709722 304.171779 
L 333.035353 303.023506 
L 333.360985 304.841051 
L 333.686616 303.787912 
L 334.012248 305.620093 
L 334.337879 301.301096 
L 334.663511 303.386083 
L 334.989142 298.539518 
L 335.314773 302.827248 
L 335.640405 300.856023 
L 335.966036 304.254939 
L 336.291668 305.343337 
L 336.617299 300.570618 
L 336.942931 302.454026 
L 337.268562 303.349493 
L 337.594193 300.2433 
L 337.919825 300.299184 
L 338.245456 300.826751 
L 338.571088 304.267579 
L 338.896719 303.968868 
L 339.222351 298.9959 
L 339.547982 303.316229 
L 339.873614 298.548167 
L 340.199245 297.338688 
L 340.524876 299.78958 
L 340.850508 299.318561 
L 341.176139 303.796561 
L 341.501771 296.661433 
L 341.827402 297.603469 
L 342.153034 303.537767 
L 342.478665 305.87423 
L 342.804297 300.274569 
L 343.129928 298.349914 
L 343.455559 304.179097 
L 343.781191 301.333029 
L 344.106822 305.463087 
L 344.432454 303.314898 
L 344.758085 305.251528 
L 345.083717 300.689703 
L 345.409348 302.994233 
L 345.734979 303.976187 
L 346.060611 294.891788 
L 346.386242 298.860849 
L 346.711874 298.322637 
L 347.037505 304.344086 
L 347.363137 305.902172 
L 347.688768 300.593238 
L 348.0144 303.264337 
L 348.340031 300.737604 
L 348.665662 304.157143 
L 348.991294 303.906332 
L 349.316925 306.226829 
L 349.642557 300.348415 
L 349.968188 299.869413 
L 350.29382 298.568791 
L 350.619451 304.191072 
L 350.945083 304.237642 
L 351.270714 300.537354 
L 351.596345 302.768703 
L 351.921977 304.520386 
L 352.247608 302.9623 
L 352.57324 302.5465 
L 352.898871 300.251284 
L 353.224503 303.207788 
L 353.550134 300.780181 
L 353.875765 301.872571 
L 354.201397 304.037392 
L 354.527028 300.446211 
L 354.85266 300.156814 
L 355.178291 299.593322 
L 355.503923 302.390824 
L 355.829554 305.613441 
L 356.155186 304.678722 
L 356.480817 304.008785 
L 356.806448 304.141841 
L 357.13208 304.240303 
L 357.457711 304.881633 
L 357.783343 299.354486 
L 358.108974 302.485294 
L 358.434606 303.43864 
L 358.760237 304.326124 
L 359.085869 303.459264 
L 359.4115 304.338764 
L 359.737131 300.410951 
L 360.062763 298.551493 
L 360.388394 300.393654 
L 360.714026 301.088206 
L 361.039657 299.432324 
L 361.365289 305.592152 
L 361.69092 304.548327 
L 362.016551 303.060096 
L 362.342183 302.929701 
L 362.667814 300.17145 
L 362.993446 305.190323 
L 363.319077 303.251031 
L 363.644709 303.276312 
L 363.97034 299.536108 
L 364.295972 305.538929 
L 364.621603 303.507829 
L 364.947234 303.752652 
L 365.272866 304.49577 
L 365.598497 299.194154 
L 365.924129 298.93536 
L 366.24976 304.228993 
L 366.575392 302.680221 
L 366.901023 303.798557 
L 367.226655 299.599975 
L 367.552286 304.107247 
L 367.877917 303.100678 
L 368.203549 297.601474 
L 368.52918 302.205876 
L 368.854812 299.388416 
L 369.180443 299.164882 
L 369.506075 304.13785 
L 369.831706 303.906332 
L 370.157337 302.443381 
L 370.482969 303.054108 
L 370.8086 302.131365 
L 371.134232 298.10376 
L 371.459863 302.658267 
L 371.785495 303.451281 
L 372.111126 300.878643 
L 372.436758 304.240968 
L 372.762389 303.07074 
L 373.08802 304.119887 
L 373.413652 304.069326 
L 373.739283 303.386748 
L 374.064915 298.964632 
L 374.390546 305.866247 
L 374.716178 304.002798 
L 375.041809 303.408037 
L 375.367441 302.43939 
L 375.693072 305.720551 
L 376.018703 304.380677 
L 376.344335 302.223839 
L 376.669966 299.169539 
L 376.995598 301.118144 
L 377.321229 303.505168 
L 377.646861 303.611613 
L 377.972492 298.210205 
L 378.298123 305.105832 
L 378.623755 299.174861 
L 378.949386 304.209035 
L 379.275018 305.378597 
L 379.600649 305.17236 
L 379.926281 303.286291 
L 380.251912 303.845792 
L 380.577544 303.088703 
L 380.903175 305.236892 
L 381.228806 304.19839 
L 381.554438 299.009871 
L 381.880069 303.455272 
L 382.205701 302.879805 
L 382.531332 298.538188 
L 382.856964 303.002217 
L 383.182595 305.342672 
L 383.508226 297.397898 
L 383.833858 297.000726 
L 384.159489 297.838979 
L 384.485121 299.016524 
L 384.810752 304.287538 
L 385.136384 303.982174 
L 385.462015 304.38866 
L 385.787647 298.37586 
L 386.113278 303.694108 
L 386.438909 304.215687 
L 386.764541 303.119971 
L 387.090172 305.986663 
L 387.415804 300.658435 
L 387.741435 300.553321 
L 388.067067 303.624919 
L 388.392698 301.972363 
L 388.71833 300.214693 
L 389.043961 298.419768 
L 389.369592 302.462009 
L 389.695224 304.440552 
L 390.020855 302.586417 
L 390.346487 305.115146 
L 390.672118 297.31873 
L 390.99775 299.74434 
L 391.323381 301.050285 
L 391.649012 302.702841 
L 391.974644 303.768619 
L 392.300275 305.986663 
L 392.625907 294.579107 
L 392.951538 302.663589 
L 393.27717 301.373611 
L 393.602801 301.317062 
L 393.928433 300.647125 
L 394.254064 300.172781 
L 394.579695 304.234315 
L 394.905327 304.787828 
L 395.230958 303.343505 
L 395.55659 306.123045 
L 395.882221 304.371363 
L 396.207853 304.190407 
L 396.533484 302.865169 
L 396.859116 303.713401 
L 397.184747 303.494524 
L 397.510378 305.353981 
L 397.83601 301.351657 
L 398.161641 302.944337 
L 398.487273 298.584757 
L 398.487273 281.741198 
L 398.487273 281.741198 
L 398.161641 292.344431 
L 397.83601 293.989003 
L 397.510378 295.131954 
L 397.184747 293.080896 
L 396.859116 294.675572 
L 396.533484 293.421519 
L 396.207853 296.193076 
L 395.882221 291.459609 
L 395.55659 291.804224 
L 395.230958 294.26709 
L 394.905327 296.932202 
L 394.579695 294.5505 
L 394.254064 293.545927 
L 393.928433 292.499441 
L 393.602801 292.401645 
L 393.27717 292.367051 
L 392.951538 292.812788 
L 392.625907 289.63275 
L 392.300275 298.049872 
L 391.974644 292.614535 
L 391.649012 293.52996 
L 391.323381 291.957238 
L 390.99775 290.415119 
L 390.672118 290.045223 
L 390.346487 298.903427 
L 390.020855 291.758319 
L 389.695224 292.801478 
L 389.369592 291.784931 
L 389.043961 291.216781 
L 388.71833 290.602728 
L 388.392698 292.072332 
L 388.067067 297.971369 
L 387.741435 292.577279 
L 387.415804 292.940522 
L 387.090172 293.238567 
L 386.764541 290.851543 
L 386.438909 297.944093 
L 386.113278 291.754328 
L 385.787647 292.512082 
L 385.462015 297.117815 
L 385.136384 298.461681 
L 384.810752 297.618771 
L 384.485121 291.679816 
L 384.159489 291.490877 
L 383.833858 290.797655 
L 383.508226 293.305095 
L 383.182595 294.0063 
L 382.856964 293.24522 
L 382.531332 291.731043 
L 382.205701 294.939688 
L 381.880069 291.937945 
L 381.554438 292.795491 
L 381.228806 293.737527 
L 380.903175 292.879316 
L 380.577544 294.266425 
L 380.251912 293.546592 
L 379.926281 291.599983 
L 379.600649 291.547426 
L 379.275018 291.220773 
L 378.949386 294.36156 
L 378.623755 291.162894 
L 378.298123 291.480898 
L 377.972492 292.269254 
L 377.646861 292.641811 
L 377.321229 293.395573 
L 376.995598 291.203476 
L 376.669966 296.83374 
L 376.344335 290.473664 
L 376.018703 298.465007 
L 375.693072 292.512082 
L 375.367441 295.532453 
L 375.041809 293.447465 
L 374.716178 293.547257 
L 374.390546 294.040895 
L 374.064915 290.665264 
L 373.739283 293.762808 
L 373.413652 293.168713 
L 373.08802 296.17844 
L 372.762389 293.105511 
L 372.436758 293.828671 
L 372.111126 292.620522 
L 371.785495 291.930627 
L 371.459863 293.013037 
L 371.134232 291.800232 
L 370.8086 298.071827 
L 370.482969 292.570626 
L 370.157337 294.251124 
L 369.831706 297.661349 
L 369.506075 295.00422 
L 369.180443 293.028339 
L 368.854812 291.363808 
L 368.52918 294.75341 
L 368.203549 292.289213 
L 367.877917 295.18185 
L 367.552286 293.394243 
L 367.226655 291.401729 
L 366.901023 291.799567 
L 366.575392 292.99574 
L 366.24976 291.8794 
L 365.924129 291.688465 
L 365.598497 293.66102 
L 365.272866 293.41154 
L 364.947234 293.472746 
L 364.621603 292.034411 
L 364.295972 295.036154 
L 363.97034 291.14227 
L 363.644709 293.937111 
L 363.319077 293.420854 
L 362.993446 290.01329 
L 362.667814 291.102353 
L 362.342183 292.969129 
L 362.016551 296.31083 
L 361.69092 297.905507 
L 361.365289 295.492536 
L 361.039657 296.340103 
L 360.714026 293.655033 
L 360.388394 293.609128 
L 360.062763 290.849547 
L 359.737131 297.365964 
L 359.4115 298.66326 
L 359.085869 292.589254 
L 358.760237 292.957154 
L 358.434606 292.468173 
L 358.108974 290.825597 
L 357.783343 290.0246 
L 357.457711 292.552664 
L 357.13208 295.827172 
L 356.806448 294.152662 
L 356.480817 297.393241 
L 356.155186 291.301272 
L 355.829554 293.356987 
L 355.503923 292.997071 
L 355.178291 292.216697 
L 354.85266 292.645803 
L 354.527028 292.05703 
L 354.201397 291.40306 
L 353.875765 292.202726 
L 353.550134 290.898112 
L 353.224503 293.349669 
L 352.898871 291.327883 
L 352.57324 291.003892 
L 352.247608 291.135617 
L 351.921977 294.29104 
L 351.596345 292.22335 
L 351.270714 290.771709 
L 350.945083 296.640809 
L 350.619451 291.281979 
L 350.29382 289.338031 
L 349.968188 292.041063 
L 349.642557 291.105014 
L 349.316925 298.143012 
L 348.991294 294.546508 
L 348.665662 292.954493 
L 348.340031 291.210129 
L 348.0144 294.245136 
L 347.688768 289.285474 
L 347.363137 298.610703 
L 347.037505 290.859526 
L 346.711874 290.248134 
L 346.386242 290.596075 
L 346.060611 291.906012 
L 345.734979 291.882061 
L 345.409348 295.793243 
L 345.083717 293.754825 
L 344.758085 294.555156 
L 344.432454 297.500351 
L 344.106822 292.516073 
L 343.781191 293.151416 
L 343.455559 299.703093 
L 343.129928 287.600985 
L 342.804297 292.613869 
L 342.478665 289.794413 
L 342.153034 292.202061 
L 341.827402 290.149672 
L 341.501771 287.726723 
L 341.176139 290.256782 
L 340.850508 292.102934 
L 340.524876 290.229506 
L 340.199245 290.435743 
L 339.873614 286.927721 
L 339.547982 291.586012 
L 339.222351 291.360482 
L 338.896719 296.625508 
L 338.571088 294.674907 
L 338.245456 293.851956 
L 337.919825 291.342519 
L 337.594193 292.155492 
L 337.268562 289.332043 
L 336.942931 290.294703 
L 336.617299 289.675993 
L 336.291668 294.755406 
L 335.966036 291.977196 
L 335.640405 294.531206 
L 335.314773 293.736197 
L 334.989142 289.144434 
L 334.663511 292.629171 
L 334.337879 290.816948 
L 334.012248 294.976944 
L 333.686616 298.218853 
L 333.360985 301.436813 
L 333.035353 291.682477 
L 332.709722 296.611537 
L 332.38409 294.002309 
L 332.058459 297.89087 
L 331.732828 292.786177 
L 331.407196 291.749005 
L 331.081565 297.54559 
L 330.755933 293.778109 
L 330.430302 296.771869 
L 330.10467 295.726049 
L 329.779039 291.282644 
L 329.453407 296.169126 
L 329.127776 294.994907 
L 328.802145 296.004802 
L 328.476513 289.63275 
L 328.150882 289.771128 
L 327.82525 290.951335 
L 327.499619 290.865514 
L 327.173987 291.325222 
L 326.848356 289.641398 
L 326.522725 294.439398 
L 326.197093 290.913414 
L 325.871462 289.495037 
L 325.54583 286.862524 
L 325.220199 289.407885 
L 324.894567 289.061274 
L 324.568936 292.652456 
L 324.243304 292.897279 
L 323.917673 290.765056 
L 323.592042 293.851956 
L 323.26641 291.68913 
L 322.940779 291.969878 
L 322.615147 295.130624 
L 322.289516 296.836402 
L 321.963884 289.600816 
L 321.638253 293.991664 
L 321.312622 294.949668 
L 320.98699 292.193412 
L 320.661359 291.039152 
L 320.335727 295.240395 
L 320.010096 292.871998 
L 319.684464 291.388424 
L 319.358833 291.013206 
L 319.033201 289.923477 
L 318.70757 292.521396 
L 318.381939 290.33462 
L 318.056307 293.632413 
L 317.730676 289.598155 
L 317.405044 290.402479 
L 317.079413 291.120981 
L 316.753781 293.921145 
L 316.42815 297.916151 
L 316.102518 292.911915 
L 315.776887 290.387843 
L 315.451256 290.961314 
L 315.125624 293.372289 
L 314.799993 290.36988 
L 314.474361 288.981441 
L 314.14873 291.752997 
L 313.823098 292.053704 
L 313.497467 295.616278 
L 313.171836 290.20356 
L 312.846204 296.944842 
L 312.520573 289.89354 
L 312.194941 290.549506 
L 311.86931 291.340524 
L 311.543678 290.065182 
L 311.218047 293.873244 
L 310.892415 291.707093 
L 310.566784 290.117074 
L 310.241153 290.0725 
L 309.915521 290.601397 
L 309.58989 291.220108 
L 309.264258 291.465596 
L 308.938627 288.659445 
L 308.612995 292.383017 
L 308.287364 291.579359 
L 307.961732 290.583435 
L 307.636101 290.517572 
L 307.31047 291.176199 
L 306.984838 289.686637 
L 306.659207 291.992498 
L 306.333575 290.444391 
L 306.007944 291.299941 
L 305.682312 292.715657 
L 305.356681 288.755245 
L 305.03105 290.27541 
L 304.705418 291.287966 
L 304.379787 293.686301 
L 304.054155 294.144679 
L 303.728524 292.478818 
L 303.402892 290.556158 
L 303.077261 291.240066 
L 302.751629 292.322477 
L 302.425998 292.883308 
L 302.100367 290.254787 
L 301.774735 291.008549 
L 301.449104 292.013787 
L 301.123472 299.621264 
L 300.797841 289.37196 
L 300.472209 292.55599 
L 300.146578 292.750917 
L 299.820946 292.411624 
L 299.495315 290.160317 
L 299.169684 295.176528 
L 298.844052 295.593659 
L 298.518421 291.073746 
L 298.192789 291.398403 
L 297.867158 291.028507 
L 297.541526 288.157824 
L 297.215895 291.196158 
L 296.890264 290.775036 
L 296.564632 291.603309 
L 296.239001 293.941768 
L 295.913369 292.808796 
L 295.587738 293.087549 
L 295.262106 292.996405 
L 294.936475 293.207964 
L 294.610843 291.853454 
L 294.285212 291.384432 
L 293.959581 292.48547 
L 293.633949 290.187593 
L 293.308318 290.095119 
L 292.982686 291.62992 
L 292.657055 291.015202 
L 292.331423 291.814203 
L 292.005792 290.473664 
L 291.68016 291.043143 
L 291.354529 290.893455 
L 291.028898 291.209463 
L 290.703266 291.396407 
L 290.377635 290.709838 
L 290.052003 292.845387 
L 289.726372 293.565885 
L 289.40074 294.219855 
L 289.075109 291.713746 
L 288.749478 293.547923 
L 288.423846 291.4636 
L 288.098215 291.118985 
L 287.772583 291.16489 
L 287.446952 289.383935 
L 287.12132 291.255368 
L 286.795689 291.942602 
L 286.470057 298.037232 
L 286.144426 292.334452 
L 285.818795 290.160317 
L 285.493163 287.622274 
L 285.167532 288.71799 
L 284.8419 289.759818 
L 284.516269 291.816199 
L 284.190637 285.30976 
L 283.865006 291.240732 
L 283.539374 288.529716 
L 283.213743 291.242062 
L 282.888112 289.367968 
L 282.56248 289.736533 
L 282.236849 293.415532 
L 281.911217 292.200065 
L 281.585586 291.456282 
L 281.259954 290.848882 
L 280.934323 290.786345 
L 280.608692 292.756239 
L 280.28306 291.888714 
L 279.957429 292.716323 
L 279.631797 292.742934 
L 279.306166 295.207796 
L 278.980534 288.504435 
L 278.654903 294.950333 
L 278.329271 292.308506 
L 278.00364 292.846717 
L 277.678009 289.874912 
L 277.352377 290.410462 
L 277.026746 288.427928 
L 276.701114 290.938694 
L 276.375483 291.852789 
L 276.049851 291.222769 
L 275.72422 292.09229 
L 275.398588 294.056862 
L 275.072957 291.055784 
L 274.747326 294.322974 
L 274.421694 290.70252 
L 274.096063 289.89354 
L 273.770431 293.06626 
L 273.4448 290.850212 
L 273.119168 286.695539 
L 272.793537 292.265263 
L 272.467906 292.331791 
L 272.142274 294.488628 
L 271.816643 292.705013 
L 271.491011 298.218188 
L 271.16538 288.821773 
L 270.839748 290.355244 
L 270.514117 294.193244 
L 270.188485 290.84489 
L 269.862854 287.813209 
L 269.537223 289.812375 
L 269.211591 292.325138 
L 268.88596 290.701855 
L 268.560328 295.334865 
L 268.234697 290.578113 
L 267.909065 290.045223 
L 267.583434 293.476072 
L 267.257802 292.635158 
L 266.932171 292.999067 
L 266.60654 292.861354 
L 266.280908 293.062933 
L 265.955277 289.575536 
L 265.629645 290.498944 
L 265.304014 291.90202 
L 264.978382 295.005551 
L 264.652751 294.157984 
L 264.32712 293.116821 
L 264.001488 293.055615 
L 263.675857 294.613701 
L 263.350225 290.405805 
L 263.024594 293.698941 
L 262.698962 291.273996 
L 262.373331 293.055615 
L 262.047699 295.684137 
L 261.722068 291.416365 
L 261.396437 293.177362 
L 261.070805 292.794826 
L 260.745174 292.679067 
L 260.419542 289.872251 
L 260.093911 292.57994 
L 259.768279 290.906761 
L 259.442648 295.199813 
L 259.117017 294.601061 
L 258.791385 291.05778 
L 258.465754 293.676987 
L 258.140122 293.092206 
L 257.814491 290.228841 
L 257.488859 290.35724 
L 257.163228 291.76098 
L 256.837596 293.193328 
L 256.511965 294.532537 
L 256.186334 291.7836 
L 255.860702 291.876074 
L 255.535071 291.269339 
L 255.209439 294.696861 
L 254.883808 294.940354 
L 254.558176 290.4404 
L 254.232545 290.532208 
L 253.906913 292.565969 
L 253.581282 290.76306 
L 253.255651 292.002477 
L 252.930019 292.455533 
L 252.604388 292.28256 
L 252.278756 292.98443 
L 251.953125 293.667008 
L 251.627493 292.375034 
L 251.301862 290.313996 
L 250.976231 291.657862 
L 250.650599 293.144763 
L 250.324968 288.684726 
L 249.999336 292.736281 
L 249.673705 290.470337 
L 249.348073 291.965221 
L 249.022442 291.406386 
L 248.69681 291.564723 
L 248.371179 291.993828 
L 248.045548 290.481647 
L 247.719916 288.27957 
L 247.394285 290.799651 
L 247.068653 289.8004 
L 246.743022 290.428425 
L 246.41739 296.659437 
L 246.091759 292.379691 
L 245.766127 293.58917 
L 245.440496 291.484889 
L 245.114865 293.58917 
L 244.789233 291.446303 
L 244.463602 290.422437 
L 244.13797 293.172039 
L 243.812339 292.62784 
L 243.486707 287.744685 
L 243.161076 288.961482 
L 242.835445 290.350587 
L 242.509813 294.342932 
L 242.184182 291.377779 
L 241.85855 290.213539 
L 241.532919 294.149336 
L 241.207287 294.33894 
L 240.881656 290.647302 
L 240.556024 286.050882 
L 240.230393 287.075413 
L 239.904762 293.462767 
L 239.57913 294.282392 
L 239.253499 290.066512 
L 238.927867 288.283562 
L 238.602236 290.745763 
L 238.276604 299.154902 
L 237.950973 294.019606 
L 237.625341 294.213868 
L 237.29971 293.776114 
L 236.974079 290.325306 
L 236.648447 292.27125 
L 236.322816 288.185766 
L 235.997184 292.856031 
L 235.671553 292.108922 
L 235.345921 288.266265 
L 235.02029 292.786842 
L 234.694659 288.875661 
L 234.369027 292.210044 
L 234.043396 297.994654 
L 233.717764 292.786842 
L 233.392133 290.886803 
L 233.066501 289.686637 
L 232.74087 283.947267 
L 232.415238 291.365139 
L 232.089607 290.770379 
L 231.763976 291.850793 
L 231.438344 290.75042 
L 231.112713 288.757241 
L 230.787081 291.12963 
L 230.46145 289.909506 
L 230.135818 288.384684 
L 229.810187 292.350419 
L 229.484555 292.743599 
L 229.158924 292.723641 
L 228.833293 288.290215 
L 228.507661 288.549674 
L 228.18203 290.387843 
L 227.856398 291.150919 
L 227.530767 290.326637 
L 227.205135 293.124804 
L 226.879504 289.642729 
L 226.553873 289.585515 
L 226.228241 288.320818 
L 225.90261 287.86377 
L 225.576978 289.352667 
L 225.251347 289.703935 
L 224.925715 286.821942 
L 224.600084 289.166388 
L 224.274452 289.753165 
L 223.948821 288.979445 
L 223.62319 289.782438 
L 223.297558 275.431683 
L 222.971927 288.446556 
L 222.646295 290.884807 
L 222.320664 289.461108 
L 221.995032 290.467011 
L 221.669401 288.625516 
L 221.343769 290.210213 
L 221.018138 290.04855 
L 220.692507 289.688633 
L 220.366875 289.100526 
L 220.041244 289.72722 
L 219.715612 289.734538 
L 219.389981 292.089629 
L 219.064349 291.898693 
L 218.738718 290.551501 
L 218.413087 291.693787 
L 218.087455 290.506928 
L 217.761824 290.293373 
L 217.436192 288.692709 
L 217.110561 288.253624 
L 216.784929 289.414538 
L 216.459298 289.892209 
L 216.133666 291.150253 
L 215.808035 289.448467 
L 215.482404 289.953415 
L 215.156772 288.493125 
L 214.831141 288.234996 
L 214.505509 288.432585 
L 214.179878 291.719733 
L 213.854246 289.594164 
L 213.528615 290.034579 
L 213.202983 288.13587 
L 212.877352 289.374621 
L 212.551721 288.81246 
L 212.226089 287.525808 
L 211.900458 272.9768 
L 211.574826 289.206971 
L 211.249195 289.638072 
L 210.923563 290.35857 
L 210.597932 290.501605 
L 210.272301 272.412642 
L 209.946669 287.551089 
L 209.621038 289.131129 
L 209.295406 276.526068 
L 208.969775 288.913582 
L 208.644143 288.222356 
L 208.318512 288.643478 
L 207.99288 290.128383 
L 207.667249 288.66011 
L 207.341618 286.10477 
L 207.015986 289.795743 
L 206.690355 291.172208 
L 206.364723 290.215535 
L 206.039092 290.152999 
L 205.71346 290.411793 
L 205.387829 289.327386 
L 205.062198 291.611958 
L 204.736566 288.86036 
L 204.410935 287.944269 
L 204.085303 293.064929 
L 203.759672 289.447137 
L 203.43404 283.344523 
L 203.108409 277.277835 
L 202.782777 290.246138 
L 202.457146 291.861438 
L 202.131515 292.625844 
L 201.805883 289.757822 
L 201.480252 263.996185 
L 201.15462 285.38028 
L 200.828989 288.629508 
L 200.503357 269.667697 
L 200.177726 291.671833 
L 199.852094 288.563645 
L 199.526463 272.046073 
L 199.200832 288.334788 
L 198.8752 290.055203 
L 198.549569 290.902104 
L 198.223937 291.359817 
L 197.898306 279.201825 
L 197.572674 290.394495 
L 197.247043 289.811045 
L 196.921412 291.208133 
L 196.59578 290.60672 
L 196.270149 289.12248 
L 195.944517 288.801815 
L 195.618886 290.796324 
L 195.293254 283.765645 
L 194.967623 275.60266 
L 194.641991 271.131313 
L 194.31636 289.150422 
L 193.990729 276.844738 
L 193.665097 289.461773 
L 193.339466 289.079237 
L 193.013834 287.167222 
L 192.688203 288.324144 
L 192.362571 290.669921 
L 192.03694 290.332624 
L 191.711308 288.042731 
L 191.385677 267.96458 
L 191.060046 282.354587 
L 190.734414 269.740878 
L 190.408783 290.09645 
L 190.083151 286.380861 
L 189.75752 288.723977 
L 189.431888 233.329438 
L 189.106257 268.365079 
L 188.780626 274.993263 
L 188.454994 287.453292 
L 188.129363 288.680734 
L 187.803731 291.317239 
L 187.4781 279.946938 
L 187.152468 288.773873 
L 186.826837 277.751514 
L 186.501205 275.44898 
L 186.175574 284.665769 
L 185.849943 289.524309 
L 185.524311 284.663773 
L 185.19868 263.713441 
L 184.873048 254.615737 
L 184.547417 260.588621 
L 184.221785 259.491574 
L 183.896154 259.187541 
L 183.570522 270.935055 
L 183.244891 275.858793 
L 182.91926 288.811129 
L 182.593628 281.936125 
L 182.267997 269.583206 
L 181.942365 281.919493 
L 181.616734 285.680987 
L 181.291102 279.706772 
L 180.965471 282.060533 
L 180.63984 269.488737 
L 180.314208 266.347284 
L 179.988577 265.197681 
L 179.662945 279.251721 
L 179.337314 285.649053 
L 179.011682 283.053796 
L 178.686051 261.667705 
L 178.360419 281.145108 
L 178.034788 276.509436 
L 177.709157 275.684489 
L 177.383525 275.584032 
L 177.057894 280.01147 
L 176.732262 281.757165 
L 176.406631 269.3783 
L 176.080999 280.594921 
L 175.755368 274.454387 
L 175.429736 276.943199 
L 175.104105 283.518827 
L 174.778474 289.258197 
L 174.452842 280.469183 
L 174.127211 277.486733 
L 173.801579 279.066108 
L 173.475948 266.459717 
L 173.150316 264.213732 
L 172.824685 272.721332 
L 172.499054 268.861378 
L 172.173422 269.93647 
L 171.847791 284.396331 
L 171.522159 272.416634 
L 171.196528 274.586777 
L 170.870896 258.573488 
L 170.545265 263.697474 
L 170.219633 268.008489 
L 169.894002 279.324901 
L 169.568371 270.831937 
L 169.242739 270.399505 
L 168.917108 270.643663 
L 168.591476 283.435001 
L 168.265845 273.835676 
L 167.940213 268.043748 
L 167.614582 272.950854 
L 167.28895 264.693398 
L 166.963319 287.771296 
L 166.637688 265.091236 
L 166.312056 277.915838 
L 165.986425 279.185858 
L 165.660793 287.859779 
L 165.335162 273.759834 
L 165.00953 278.913758 
L 164.683899 272.380709 
L 164.358268 286.875164 
L 164.032636 273.546279 
L 163.707005 284.509428 
L 163.381373 261.206666 
L 163.055742 260.235357 
L 162.73011 268.945868 
L 162.404479 253.965093 
L 162.078847 268.241337 
L 161.753216 287.875745 
L 161.427585 263.885083 
L 161.101953 276.299208 
L 160.776322 285.560571 
L 160.45069 277.319748 
L 160.125059 271.830522 
L 159.799427 284.967806 
L 159.473796 236.417003 
L 159.148164 234.29609 
L 158.822533 261.598516 
L 158.496902 264.481839 
L 158.17127 281.139785 
L 157.845639 228.02383 
L 157.520007 232.205115 
L 157.194376 237.412261 
L 156.868744 263.338223 
L 156.543113 265.699967 
L 156.217482 283.42103 
L 155.89185 239.297665 
L 155.566219 270.40017 
L 155.240587 276.809478 
L 154.914956 265.152442 
L 154.589324 286.242483 
L 154.263693 218.181678 
L 153.938061 244.547389 
L 153.61243 268.512106 
L 153.286799 231.407444 
L 152.961167 257.398603 
L 152.635536 243.000613 
L 152.309904 250.105804 
L 151.984273 268.580629 
L 151.658641 267.954601 
L 151.33301 270.166657 
L 151.007378 277.474758 
L 150.681747 264.561673 
L 150.356116 280.060036 
L 150.030484 285.748845 
L 149.704853 261.664379 
L 149.379221 280.323487 
L 149.05359 268.215391 
L 148.727958 249.892249 
L 148.402327 267.376473 
L 148.076696 260.76492 
L 147.751064 275.88873 
L 147.425433 262.45207 
L 147.099801 285.015707 
L 146.77417 246.375579 
L 146.448538 265.602171 
L 146.122907 262.089492 
L 145.797275 278.017626 
L 145.471644 268.951856 
L 145.146013 270.692893 
L 144.820381 286.493959 
L 144.49475 286.316994 
L 144.169118 259.051824 
L 143.843487 259.832197 
L 143.517855 277.53929 
L 143.192224 285.909843 
L 142.866593 292.050377 
L 142.540961 280.872343 
L 142.21533 271.430024 
L 141.889698 271.261708 
L 141.564067 283.756332 
L 141.238435 288.771877 
L 140.912804 262.732153 
L 140.587172 274.898794 
L 140.261541 265.10055 
L 139.93591 273.258213 
L 139.610278 274.809646 
L 139.284647 278.161327 
L 138.959015 280.362073 
L 138.633384 285.450134 
L 138.307752 285.352338 
L 137.982121 269.398924 
L 137.656489 273.411893 
L 137.330858 267.218801 
L 137.005227 251.443017 
L 136.679595 271.698132 
L 136.353964 262.300386 
L 136.028332 227.370525 
L 135.702701 261.675688 
L 135.377069 282.189597 
L 135.051438 271.37281 
L 134.725807 272.719336 
L 134.400175 285.810716 
L 134.074544 269.3304 
L 133.748912 275.238086 
L 133.423281 284.027766 
L 133.097649 282.543526 
L 132.772018 280.682073 
L 132.446386 268.424954 
L 132.120755 280.912925 
L 131.795124 270.350274 
L 131.469492 262.013651 
L 131.143861 281.812383 
L 130.818229 270.650981 
L 130.492598 280.637499 
L 130.166966 285.029012 
L 129.841335 271.668859 
L 129.515703 252.164845 
L 129.190072 265.813065 
L 128.864441 281.940117 
L 128.538809 286.900445 
L 128.213178 283.483567 
L 127.887546 279.151263 
L 127.561915 278.635671 
L 127.236283 278.921742 
L 126.910652 271.495886 
L 126.585021 282.789014 
L 126.259389 280.504443 
L 125.933758 284.683732 
L 125.608126 277.348355 
L 125.282495 282.521572 
L 124.956863 285.841319 
L 124.631232 283.289305 
L 124.3056 246.696244 
L 123.979969 264.448575 
L 123.654338 265.105872 
L 123.328706 278.862532 
L 123.003075 268.377719 
L 122.677443 271.803246 
L 122.351812 268.494808 
L 122.02618 264.074688 
L 121.700549 278.196587 
L 121.374917 286.114084 
L 121.049286 266.808324 
L 120.723655 277.104197 
L 120.398023 273.159086 
L 120.072392 259.790285 
L 119.74676 271.125325 
L 119.421129 276.339125 
L 119.095497 277.215299 
L 118.769866 270.990939 
L 118.444235 276.504114 
L 118.118603 273.793098 
L 117.792972 285.281153 
L 117.46734 283.949928 
L 117.141709 241.851675 
L 116.816077 257.062637 
L 116.490446 278.397501 
L 116.164814 284.520073 
L 115.839183 278.020287 
L 115.513552 263.788618 
L 115.18792 273.166404 
L 114.862289 281.821697 
L 114.536657 281.831011 
L 114.211026 280.228352 
L 113.885394 267.635267 
L 113.559763 276.148855 
L 113.234131 276.911266 
L 112.9085 272.024784 
L 112.582869 280.26095 
L 112.257237 278.65563 
L 111.931606 287.031505 
L 111.605974 275.034511 
L 111.280343 268.421628 
L 110.954711 276.540705 
L 110.62908 279.324236 
L 110.303449 279.157251 
L 109.977817 275.987192 
L 109.652186 268.092314 
L 109.326554 279.837167 
L 109.000923 270.64965 
L 108.675291 280.135878 
L 108.34966 282.288724 
L 108.024028 274.168316 
L 107.698397 285.366974 
L 107.372766 288.90826 
L 107.047134 280.479828 
L 106.721503 265.938137 
L 106.395871 260.577976 
L 106.07024 278.45405 
L 105.744608 280.956833 
L 105.418977 283.272673 
L 105.093345 283.639242 
L 104.767714 283.136291 
L 104.442083 290.858861 
L 104.116451 283.600656 
L 103.79082 266.36059 
L 103.465188 279.502531 
L 103.139557 281.588184 
L 102.813925 283.586685 
L 102.488294 267.797595 
L 102.162663 277.440163 
L 101.837031 281.700616 
L 101.5114 270.213892 
L 101.185768 275.892722 
L 100.860137 277.002409 
L 100.534505 286.054209 
L 100.208874 287.928302 
L 99.883242 266.524914 
L 99.557611 284.776871 
L 99.23198 279.952926 
L 98.906348 276.438917 
L 98.580717 277.256546 
L 98.255085 285.376954 
L 97.929454 264.167162 
L 97.603822 267.033853 
L 97.278191 277.313095 
L 96.952559 283.572714 
L 96.626928 244.858075 
L 96.301297 268.244663 
L 95.975665 271.963578 
L 95.650034 276.078335 
L 95.324402 281.611469 
L 94.998771 279.746689 
L 94.673139 267.564747 
L 94.347508 284.142194 
L 94.021877 270.48333 
L 93.696245 277.028355 
L 93.370614 280.600243 
L 93.044982 266.093148 
L 92.719351 277.701618 
L 92.393719 281.844982 
L 92.068088 285.713585 
L 91.742456 282.655293 
L 91.416825 286.202566 
L 91.091194 291.804889 
L 90.765562 287.643563 
L 90.439931 279.242407 
L 90.114299 284.361736 
L 89.788668 287.894373 
L 89.463036 289.285474 
L 89.137405 288.091296 
L 88.811774 288.803811 
L 88.486142 287.598324 
L 88.160511 284.781528 
L 87.834879 273.248899 
L 87.509248 269.478757 
L 87.183616 278.543197 
L 86.857985 282.907434 
L 86.532353 283.897371 
L 86.206722 277.390267 
L 85.881091 278.225194 
L 85.555459 286.843896 
L 85.229828 283.125646 
L 84.904196 287.001567 
L 84.578565 289.16905 
L 84.252933 289.314746 
L 83.927302 284.585936 
L 83.60167 278.873842 
L 83.276039 278.724154 
L 82.950408 289.781107 
L 82.624776 287.051463 
L 82.299145 288.946846 
L 81.973513 287.858448 
L 81.647882 278.748104 
L 81.32225 284.555998 
L 80.996619 287.219779 
L 80.670988 286.867846 
L 80.345356 288.663437 
L 80.019725 291.837488 
L 79.694093 287.565725 
L 79.368462 289.663353 
L 79.04283 287.741359 
L 78.717199 287.062108 
L 78.391567 295.12264 
L 78.065936 294.834574 
L 77.740305 289.596825 
L 77.414673 293.403557 
L 77.089042 298.667252 
L 76.76341 290.897447 
L 76.437779 297.423844 
L 76.112147 293.032996 
L 75.786516 304.10259 
L 75.460884 302.40546 
L 75.135253 298.215527 
L 74.809622 304.151155 
L 74.48399 300.311824 
L 74.158359 302.241802 
L 73.832727 304.149159 
z
" style="fill:#1f77b4;fill-opacity:0.25;"/>
   </g>
   <g id="matplotlib.axis_1">
    <g id="xtick_1">
     <g id="line2d_1">
      <defs>
       <path d="M 0 0 
L 0 3.5 
" id="m26aa53f64a" style="stroke:#000000;stroke-width:0.8;"/>
      </defs>
      <g>
       <use style="stroke:#000000;stroke-width:0.8;" x="73.507096" xlink:href="#m26aa53f64a" y="307.584"/>
      </g>
     </g>
     <g id="text_1">
      <!-- 0 -->
      <g transform="translate(70.325846 322.182437)scale(0.1 -0.1)">
       <defs>
        <path d="M 2034 4250 
Q 1547 4250 1301 3770 
Q 1056 3291 1056 2328 
Q 1056 1369 1301 889 
Q 1547 409 2034 409 
Q 2525 409 2770 889 
Q 3016 1369 3016 2328 
Q 3016 3291 2770 3770 
Q 2525 4250 2034 4250 
z
M 2034 4750 
Q 2819 4750 3233 4129 
Q 3647 3509 3647 2328 
Q 3647 1150 3233 529 
Q 2819 -91 2034 -91 
Q 1250 -91 836 529 
Q 422 1150 422 2328 
Q 422 3509 836 4129 
Q 1250 4750 2034 4750 
z
" id="DejaVuSans-30" transform="scale(0.015625)"/>
       </defs>
       <use xlink:href="#DejaVuSans-30"/>
      </g>
     </g>
    </g>
    <g id="xtick_2">
     <g id="line2d_2">
      <g>
       <use style="stroke:#000000;stroke-width:0.8;" x="138.633384" xlink:href="#m26aa53f64a" y="307.584"/>
      </g>
     </g>
     <g id="text_2">
      <!-- 200 -->
      <g transform="translate(129.089634 322.182437)scale(0.1 -0.1)">
       <defs>
        <path d="M 1228 531 
L 3431 531 
L 3431 0 
L 469 0 
L 469 531 
Q 828 903 1448 1529 
Q 2069 2156 2228 2338 
Q 2531 2678 2651 2914 
Q 2772 3150 2772 3378 
Q 2772 3750 2511 3984 
Q 2250 4219 1831 4219 
Q 1534 4219 1204 4116 
Q 875 4013 500 3803 
L 500 4441 
Q 881 4594 1212 4672 
Q 1544 4750 1819 4750 
Q 2544 4750 2975 4387 
Q 3406 4025 3406 3419 
Q 3406 3131 3298 2873 
Q 3191 2616 2906 2266 
Q 2828 2175 2409 1742 
Q 1991 1309 1228 531 
z
" id="DejaVuSans-32" transform="scale(0.015625)"/>
       </defs>
       <use xlink:href="#DejaVuSans-32"/>
       <use x="63.623047" xlink:href="#DejaVuSans-30"/>
       <use x="127.246094" xlink:href="#DejaVuSans-30"/>
      </g>
     </g>
    </g>
    <g id="xtick_3">
     <g id="line2d_3">
      <g>
       <use style="stroke:#000000;stroke-width:0.8;" x="203.759672" xlink:href="#m26aa53f64a" y="307.584"/>
      </g>
     </g>
     <g id="text_3">
      <!-- 400 -->
      <g transform="translate(194.215922 322.182437)scale(0.1 -0.1)">
       <defs>
        <path d="M 2419 4116 
L 825 1625 
L 2419 1625 
L 2419 4116 
z
M 2253 4666 
L 3047 4666 
L 3047 1625 
L 3713 1625 
L 3713 1100 
L 3047 1100 
L 3047 0 
L 2419 0 
L 2419 1100 
L 313 1100 
L 313 1709 
L 2253 4666 
z
" id="DejaVuSans-34" transform="scale(0.015625)"/>
       </defs>
       <use xlink:href="#DejaVuSans-34"/>
       <use x="63.623047" xlink:href="#DejaVuSans-30"/>
       <use x="127.246094" xlink:href="#DejaVuSans-30"/>
      </g>
     </g>
    </g>
    <g id="xtick_4">
     <g id="line2d_4">
      <g>
       <use style="stroke:#000000;stroke-width:0.8;" x="268.88596" xlink:href="#m26aa53f64a" y="307.584"/>
      </g>
     </g>
     <g id="text_4">
      <!-- 600 -->
      <g transform="translate(259.34221 322.182437)scale(0.1 -0.1)">
       <defs>
        <path d="M 2113 2584 
Q 1688 2584 1439 2293 
Q 1191 2003 1191 1497 
Q 1191 994 1439 701 
Q 1688 409 2113 409 
Q 2538 409 2786 701 
Q 3034 994 3034 1497 
Q 3034 2003 2786 2293 
Q 2538 2584 2113 2584 
z
M 3366 4563 
L 3366 3988 
Q 3128 4100 2886 4159 
Q 2644 4219 2406 4219 
Q 1781 4219 1451 3797 
Q 1122 3375 1075 2522 
Q 1259 2794 1537 2939 
Q 1816 3084 2150 3084 
Q 2853 3084 3261 2657 
Q 3669 2231 3669 1497 
Q 3669 778 3244 343 
Q 2819 -91 2113 -91 
Q 1303 -91 875 529 
Q 447 1150 447 2328 
Q 447 3434 972 4092 
Q 1497 4750 2381 4750 
Q 2619 4750 2861 4703 
Q 3103 4656 3366 4563 
z
" id="DejaVuSans-36" transform="scale(0.015625)"/>
       </defs>
       <use xlink:href="#DejaVuSans-36"/>
       <use x="63.623047" xlink:href="#DejaVuSans-30"/>
       <use x="127.246094" xlink:href="#DejaVuSans-30"/>
      </g>
     </g>
    </g>
    <g id="xtick_5">
     <g id="line2d_5">
      <g>
       <use style="stroke:#000000;stroke-width:0.8;" x="334.012248" xlink:href="#m26aa53f64a" y="307.584"/>
      </g>
     </g>
     <g id="text_5">
      <!-- 800 -->
      <g transform="translate(324.468498 322.182437)scale(0.1 -0.1)">
       <defs>
        <path d="M 2034 2216 
Q 1584 2216 1326 1975 
Q 1069 1734 1069 1313 
Q 1069 891 1326 650 
Q 1584 409 2034 409 
Q 2484 409 2743 651 
Q 3003 894 3003 1313 
Q 3003 1734 2745 1975 
Q 2488 2216 2034 2216 
z
M 1403 2484 
Q 997 2584 770 2862 
Q 544 3141 544 3541 
Q 544 4100 942 4425 
Q 1341 4750 2034 4750 
Q 2731 4750 3128 4425 
Q 3525 4100 3525 3541 
Q 3525 3141 3298 2862 
Q 3072 2584 2669 2484 
Q 3125 2378 3379 2068 
Q 3634 1759 3634 1313 
Q 3634 634 3220 271 
Q 2806 -91 2034 -91 
Q 1263 -91 848 271 
Q 434 634 434 1313 
Q 434 1759 690 2068 
Q 947 2378 1403 2484 
z
M 1172 3481 
Q 1172 3119 1398 2916 
Q 1625 2713 2034 2713 
Q 2441 2713 2670 2916 
Q 2900 3119 2900 3481 
Q 2900 3844 2670 4047 
Q 2441 4250 2034 4250 
Q 1625 4250 1398 4047 
Q 1172 3844 1172 3481 
z
" id="DejaVuSans-38" transform="scale(0.015625)"/>
       </defs>
       <use xlink:href="#DejaVuSans-38"/>
       <use x="63.623047" xlink:href="#DejaVuSans-30"/>
       <use x="127.246094" xlink:href="#DejaVuSans-30"/>
      </g>
     </g>
    </g>
    <g id="xtick_6">
     <g id="line2d_6">
      <g>
       <use style="stroke:#000000;stroke-width:0.8;" x="399.138536" xlink:href="#m26aa53f64a" y="307.584"/>
      </g>
     </g>
     <g id="text_6">
      <!-- 1000 -->
      <g transform="translate(386.413536 322.182437)scale(0.1 -0.1)">
       <defs>
        <path d="M 794 531 
L 1825 531 
L 1825 4091 
L 703 3866 
L 703 4441 
L 1819 4666 
L 2450 4666 
L 2450 531 
L 3481 531 
L 3481 0 
L 794 0 
L 794 531 
z
" id="DejaVuSans-31" transform="scale(0.015625)"/>
       </defs>
       <use xlink:href="#DejaVuSans-31"/>
       <use x="63.623047" xlink:href="#DejaVuSans-30"/>
       <use x="127.246094" xlink:href="#DejaVuSans-30"/>
       <use x="190.869141" xlink:href="#DejaVuSans-30"/>
      </g>
     </g>
    </g>
    <g id="text_7">
     <!-- Timestep -->
     <g transform="translate(213.110781 335.860562)scale(0.1 -0.1)">
      <defs>
       <path d="M -19 4666 
L 3928 4666 
L 3928 4134 
L 2272 4134 
L 2272 0 
L 1638 0 
L 1638 4134 
L -19 4134 
L -19 4666 
z
" id="DejaVuSans-54" transform="scale(0.015625)"/>
       <path d="M 603 3500 
L 1178 3500 
L 1178 0 
L 603 0 
L 603 3500 
z
M 603 4863 
L 1178 4863 
L 1178 4134 
L 603 4134 
L 603 4863 
z
" id="DejaVuSans-69" transform="scale(0.015625)"/>
       <path d="M 3328 2828 
Q 3544 3216 3844 3400 
Q 4144 3584 4550 3584 
Q 5097 3584 5394 3201 
Q 5691 2819 5691 2113 
L 5691 0 
L 5113 0 
L 5113 2094 
Q 5113 2597 4934 2840 
Q 4756 3084 4391 3084 
Q 3944 3084 3684 2787 
Q 3425 2491 3425 1978 
L 3425 0 
L 2847 0 
L 2847 2094 
Q 2847 2600 2669 2842 
Q 2491 3084 2119 3084 
Q 1678 3084 1418 2786 
Q 1159 2488 1159 1978 
L 1159 0 
L 581 0 
L 581 3500 
L 1159 3500 
L 1159 2956 
Q 1356 3278 1631 3431 
Q 1906 3584 2284 3584 
Q 2666 3584 2933 3390 
Q 3200 3197 3328 2828 
z
" id="DejaVuSans-6d" transform="scale(0.015625)"/>
       <path d="M 3597 1894 
L 3597 1613 
L 953 1613 
Q 991 1019 1311 708 
Q 1631 397 2203 397 
Q 2534 397 2845 478 
Q 3156 559 3463 722 
L 3463 178 
Q 3153 47 2828 -22 
Q 2503 -91 2169 -91 
Q 1331 -91 842 396 
Q 353 884 353 1716 
Q 353 2575 817 3079 
Q 1281 3584 2069 3584 
Q 2775 3584 3186 3129 
Q 3597 2675 3597 1894 
z
M 3022 2063 
Q 3016 2534 2758 2815 
Q 2500 3097 2075 3097 
Q 1594 3097 1305 2825 
Q 1016 2553 972 2059 
L 3022 2063 
z
" id="DejaVuSans-65" transform="scale(0.015625)"/>
       <path d="M 2834 3397 
L 2834 2853 
Q 2591 2978 2328 3040 
Q 2066 3103 1784 3103 
Q 1356 3103 1142 2972 
Q 928 2841 928 2578 
Q 928 2378 1081 2264 
Q 1234 2150 1697 2047 
L 1894 2003 
Q 2506 1872 2764 1633 
Q 3022 1394 3022 966 
Q 3022 478 2636 193 
Q 2250 -91 1575 -91 
Q 1294 -91 989 -36 
Q 684 19 347 128 
L 347 722 
Q 666 556 975 473 
Q 1284 391 1588 391 
Q 1994 391 2212 530 
Q 2431 669 2431 922 
Q 2431 1156 2273 1281 
Q 2116 1406 1581 1522 
L 1381 1569 
Q 847 1681 609 1914 
Q 372 2147 372 2553 
Q 372 3047 722 3315 
Q 1072 3584 1716 3584 
Q 2034 3584 2315 3537 
Q 2597 3491 2834 3397 
z
" id="DejaVuSans-73" transform="scale(0.015625)"/>
       <path d="M 1172 4494 
L 1172 3500 
L 2356 3500 
L 2356 3053 
L 1172 3053 
L 1172 1153 
Q 1172 725 1289 603 
Q 1406 481 1766 481 
L 2356 481 
L 2356 0 
L 1766 0 
Q 1100 0 847 248 
Q 594 497 594 1153 
L 594 3053 
L 172 3053 
L 172 3500 
L 594 3500 
L 594 4494 
L 1172 4494 
z
" id="DejaVuSans-74" transform="scale(0.015625)"/>
       <path d="M 1159 525 
L 1159 -1331 
L 581 -1331 
L 581 3500 
L 1159 3500 
L 1159 2969 
Q 1341 3281 1617 3432 
Q 1894 3584 2278 3584 
Q 2916 3584 3314 3078 
Q 3713 2572 3713 1747 
Q 3713 922 3314 415 
Q 2916 -91 2278 -91 
Q 1894 -91 1617 61 
Q 1341 213 1159 525 
z
M 3116 1747 
Q 3116 2381 2855 2742 
Q 2594 3103 2138 3103 
Q 1681 3103 1420 2742 
Q 1159 2381 1159 1747 
Q 1159 1113 1420 752 
Q 1681 391 2138 391 
Q 2594 391 2855 752 
Q 3116 1113 3116 1747 
z
" id="DejaVuSans-70" transform="scale(0.015625)"/>
      </defs>
      <use xlink:href="#DejaVuSans-54"/>
      <use x="57.958984" xlink:href="#DejaVuSans-69"/>
      <use x="85.742188" xlink:href="#DejaVuSans-6d"/>
      <use x="183.154297" xlink:href="#DejaVuSans-65"/>
      <use x="244.677734" xlink:href="#DejaVuSans-73"/>
      <use x="296.777344" xlink:href="#DejaVuSans-74"/>
      <use x="335.986328" xlink:href="#DejaVuSans-65"/>
      <use x="397.509766" xlink:href="#DejaVuSans-70"/>
     </g>
    </g>
   </g>
   <g id="matplotlib.axis_2">
    <g id="ytick_1">
     <g id="line2d_7">
      <defs>
       <path d="M 0 0 
L -3.5 0 
" id="m4278b856d7" style="stroke:#000000;stroke-width:0.8;"/>
      </defs>
      <g>
       <use style="stroke:#000000;stroke-width:0.8;" x="57.6" xlink:href="#m4278b856d7" y="307.584"/>
      </g>
     </g>
     <g id="text_8">
      <!-- 0 -->
      <g transform="translate(44.2375 311.383219)scale(0.1 -0.1)">
       <use xlink:href="#DejaVuSans-30"/>
      </g>
     </g>
    </g>
    <g id="ytick_2">
     <g id="line2d_8">
      <g>
       <use style="stroke:#000000;stroke-width:0.8;" x="57.6" xlink:href="#m4278b856d7" y="254.3616"/>
      </g>
     </g>
     <g id="text_9">
      <!-- 200 -->
      <g transform="translate(31.5125 258.160819)scale(0.1 -0.1)">
       <use xlink:href="#DejaVuSans-32"/>
       <use x="63.623047" xlink:href="#DejaVuSans-30"/>
       <use x="127.246094" xlink:href="#DejaVuSans-30"/>
      </g>
     </g>
    </g>
    <g id="ytick_3">
     <g id="line2d_9">
      <g>
       <use style="stroke:#000000;stroke-width:0.8;" x="57.6" xlink:href="#m4278b856d7" y="201.1392"/>
      </g>
     </g>
     <g id="text_10">
      <!-- 400 -->
      <g transform="translate(31.5125 204.938419)scale(0.1 -0.1)">
       <use xlink:href="#DejaVuSans-34"/>
       <use x="63.623047" xlink:href="#DejaVuSans-30"/>
       <use x="127.246094" xlink:href="#DejaVuSans-30"/>
      </g>
     </g>
    </g>
    <g id="ytick_4">
     <g id="line2d_10">
      <g>
       <use style="stroke:#000000;stroke-width:0.8;" x="57.6" xlink:href="#m4278b856d7" y="147.9168"/>
      </g>
     </g>
     <g id="text_11">
      <!-- 600 -->
      <g transform="translate(31.5125 151.716019)scale(0.1 -0.1)">
       <use xlink:href="#DejaVuSans-36"/>
       <use x="63.623047" xlink:href="#DejaVuSans-30"/>
       <use x="127.246094" xlink:href="#DejaVuSans-30"/>
      </g>
     </g>
    </g>
    <g id="ytick_5">
     <g id="line2d_11">
      <g>
       <use style="stroke:#000000;stroke-width:0.8;" x="57.6" xlink:href="#m4278b856d7" y="94.6944"/>
      </g>
     </g>
     <g id="text_12">
      <!-- 800 -->
      <g transform="translate(31.5125 98.493619)scale(0.1 -0.1)">
       <use xlink:href="#DejaVuSans-38"/>
       <use x="63.623047" xlink:href="#DejaVuSans-30"/>
       <use x="127.246094" xlink:href="#DejaVuSans-30"/>
      </g>
     </g>
    </g>
    <g id="ytick_6">
     <g id="line2d_12">
      <g>
       <use style="stroke:#000000;stroke-width:0.8;" x="57.6" xlink:href="#m4278b856d7" y="41.472"/>
      </g>
     </g>
     <g id="text_13">
      <!-- 1000 -->
      <g transform="translate(25.15 45.271219)scale(0.1 -0.1)">
       <use xlink:href="#DejaVuSans-31"/>
       <use x="63.623047" xlink:href="#DejaVuSans-30"/>
       <use x="127.246094" xlink:href="#DejaVuSans-30"/>
       <use x="190.869141" xlink:href="#DejaVuSans-30"/>
      </g>
     </g>
    </g>
    <g id="text_14">
     <!-- Reward -->
     <g transform="translate(19.070312 193.149094)rotate(-90)scale(0.1 -0.1)">
      <defs>
       <path d="M 2841 2188 
Q 3044 2119 3236 1894 
Q 3428 1669 3622 1275 
L 4263 0 
L 3584 0 
L 2988 1197 
Q 2756 1666 2539 1819 
Q 2322 1972 1947 1972 
L 1259 1972 
L 1259 0 
L 628 0 
L 628 4666 
L 2053 4666 
Q 2853 4666 3247 4331 
Q 3641 3997 3641 3322 
Q 3641 2881 3436 2590 
Q 3231 2300 2841 2188 
z
M 1259 4147 
L 1259 2491 
L 2053 2491 
Q 2509 2491 2742 2702 
Q 2975 2913 2975 3322 
Q 2975 3731 2742 3939 
Q 2509 4147 2053 4147 
L 1259 4147 
z
" id="DejaVuSans-52" transform="scale(0.015625)"/>
       <path d="M 269 3500 
L 844 3500 
L 1563 769 
L 2278 3500 
L 2956 3500 
L 3675 769 
L 4391 3500 
L 4966 3500 
L 4050 0 
L 3372 0 
L 2619 2869 
L 1863 0 
L 1184 0 
L 269 3500 
z
" id="DejaVuSans-77" transform="scale(0.015625)"/>
       <path d="M 2194 1759 
Q 1497 1759 1228 1600 
Q 959 1441 959 1056 
Q 959 750 1161 570 
Q 1363 391 1709 391 
Q 2188 391 2477 730 
Q 2766 1069 2766 1631 
L 2766 1759 
L 2194 1759 
z
M 3341 1997 
L 3341 0 
L 2766 0 
L 2766 531 
Q 2569 213 2275 61 
Q 1981 -91 1556 -91 
Q 1019 -91 701 211 
Q 384 513 384 1019 
Q 384 1609 779 1909 
Q 1175 2209 1959 2209 
L 2766 2209 
L 2766 2266 
Q 2766 2663 2505 2880 
Q 2244 3097 1772 3097 
Q 1472 3097 1187 3025 
Q 903 2953 641 2809 
L 641 3341 
Q 956 3463 1253 3523 
Q 1550 3584 1831 3584 
Q 2591 3584 2966 3190 
Q 3341 2797 3341 1997 
z
" id="DejaVuSans-61" transform="scale(0.015625)"/>
       <path d="M 2631 2963 
Q 2534 3019 2420 3045 
Q 2306 3072 2169 3072 
Q 1681 3072 1420 2755 
Q 1159 2438 1159 1844 
L 1159 0 
L 581 0 
L 581 3500 
L 1159 3500 
L 1159 2956 
Q 1341 3275 1631 3429 
Q 1922 3584 2338 3584 
Q 2397 3584 2469 3576 
Q 2541 3569 2628 3553 
L 2631 2963 
z
" id="DejaVuSans-72" transform="scale(0.015625)"/>
       <path d="M 2906 2969 
L 2906 4863 
L 3481 4863 
L 3481 0 
L 2906 0 
L 2906 525 
Q 2725 213 2448 61 
Q 2172 -91 1784 -91 
Q 1150 -91 751 415 
Q 353 922 353 1747 
Q 353 2572 751 3078 
Q 1150 3584 1784 3584 
Q 2172 3584 2448 3432 
Q 2725 3281 2906 2969 
z
M 947 1747 
Q 947 1113 1208 752 
Q 1469 391 1925 391 
Q 2381 391 2643 752 
Q 2906 1113 2906 1747 
Q 2906 2381 2643 2742 
Q 2381 3103 1925 3103 
Q 1469 3103 1208 2742 
Q 947 2381 947 1747 
z
" id="DejaVuSans-64" transform="scale(0.015625)"/>
      </defs>
      <use xlink:href="#DejaVuSans-52"/>
      <use x="64.982422" xlink:href="#DejaVuSans-65"/>
      <use x="126.505859" xlink:href="#DejaVuSans-77"/>
      <use x="208.292969" xlink:href="#DejaVuSans-61"/>
      <use x="269.572266" xlink:href="#DejaVuSans-72"/>
      <use x="308.935547" xlink:href="#DejaVuSans-64"/>
     </g>
    </g>
   </g>
   <g id="line2d_13">
    <path clip-path="url(#p02b5ef5b0d)" d="M 73.832727 305.179678 
L 74.158359 304.176436 
L 74.48399 305.061258 
L 74.809622 304.785832 
L 75.135253 302.152654 
L 75.460884 304.316145 
L 75.786516 304.716643 
L 76.112147 304.3055 
L 76.437779 305.009366 
L 76.76341 304.272236 
L 77.089042 304.135188 
L 77.414673 297.348002 
L 77.740305 302.843215 
L 78.065936 303.509825 
L 78.391567 301.166709 
L 78.717199 292.254618 
L 79.04283 293.561228 
L 79.368462 292.934534 
L 79.694093 304.21103 
L 80.019725 294.181269 
L 80.345356 292.385013 
L 80.670988 296.550996 
L 80.996619 295.378773 
L 81.32225 288.344102 
L 81.647882 286.328304 
L 81.973513 289.304767 
L 82.299145 295.668835 
L 82.624776 295.365468 
L 82.950408 292.703017 
L 83.276039 285.431507 
L 83.60167 289.428509 
L 83.927302 291.701105 
L 84.252933 292.534036 
L 84.578565 295.889708 
L 84.904196 294.037569 
L 85.229828 289.475078 
L 85.555459 287.905018 
L 85.881091 287.171879 
L 86.532353 288.365391 
L 86.857985 286.586433 
L 87.183616 286.400154 
L 87.509248 287.092045 
L 87.834879 289.737199 
L 88.160511 288.000818 
L 88.811774 290.221523 
L 89.463036 293.798068 
L 90.114299 290.105764 
L 90.439931 288.62352 
L 90.765562 290.2162 
L 91.091194 300.815441 
L 91.416825 293.271166 
L 91.742456 288.384019 
L 92.068088 295.615613 
L 92.393719 287.013542 
L 92.719351 285.922483 
L 93.044982 274.560831 
L 93.370614 291.33254 
L 93.696245 298.646628 
L 94.021877 289.09986 
L 94.347508 287.068095 
L 94.673139 276.655133 
L 94.998771 285.180031 
L 95.324402 288.916243 
L 95.650034 280.267603 
L 95.975665 283.736373 
L 96.301297 285.712255 
L 96.626928 273.906196 
L 96.952559 286.340279 
L 97.278191 288.905599 
L 97.603822 282.118412 
L 98.255085 290.012625 
L 98.580717 293.436156 
L 98.906348 289.855619 
L 99.23198 288.592917 
L 99.557611 288.036743 
L 99.883242 280.018788 
L 100.208874 289.778446 
L 100.534505 293.01969 
L 101.185768 285.863939 
L 101.5114 287.778614 
L 101.837031 286.124728 
L 102.488294 292.246635 
L 103.139557 289.24223 
L 103.79082 286.824603 
L 104.116451 289.445806 
L 104.442083 300.968456 
L 104.767714 295.44264 
L 105.093345 299.532781 
L 105.418977 295.9895 
L 106.07024 284.100947 
L 106.395871 287.766639 
L 106.721503 287.585683 
L 107.047134 295.734033 
L 107.698397 287.855787 
L 108.024028 284.75159 
L 108.34966 292.891956 
L 108.675291 293.545261 
L 109.000923 289.872916 
L 109.326554 282.431094 
L 109.652186 291.57071 
L 109.977817 288.104602 
L 110.303449 289.043977 
L 110.62908 287.291629 
L 110.954711 288.650131 
L 111.280343 285.215956 
L 111.605974 288.332127 
L 111.931606 289.436492 
L 112.257237 288.211046 
L 112.582869 288.498447 
L 112.9085 290.398487 
L 113.234131 288.141857 
L 113.559763 287.278324 
L 113.885394 287.464602 
L 114.211026 288.627512 
L 114.536657 287.802564 
L 114.862289 290.508924 
L 115.18792 289.910172 
L 115.513552 282.079826 
L 115.839183 291.014536 
L 116.164814 290.970628 
L 116.816077 283.500864 
L 117.46734 288.157824 
L 117.792972 287.612294 
L 118.118603 280.565649 
L 118.444235 286.022275 
L 118.769866 285.412879 
L 119.095497 287.379446 
L 119.421129 287.010881 
L 119.74676 287.422024 
L 120.072392 293.70892 
L 120.398023 288.340111 
L 120.723655 285.48606 
L 121.049286 284.051716 
L 121.374917 289.819693 
L 121.700549 288.084643 
L 122.02618 287.334207 
L 122.677443 283.567392 
L 123.003075 288.278905 
L 123.328706 286.016953 
L 123.654338 287.475247 
L 123.979969 276.536713 
L 124.631232 291.981853 
L 125.608126 283.619284 
L 125.933758 288.208385 
L 126.259389 287.36348 
L 126.585021 289.147761 
L 127.236283 284.454876 
L 127.561915 283.764315 
L 127.887546 289.660026 
L 128.213178 290.454371 
L 128.538809 291.989837 
L 128.864441 292.467508 
L 129.190072 284.758243 
L 129.515703 288.793832 
L 129.841335 288.392003 
L 130.166966 286.655622 
L 130.492598 284.297869 
L 130.818229 285.383606 
L 131.143861 287.741359 
L 131.469492 275.154261 
L 131.795124 282.363235 
L 132.120755 294.148005 
L 132.446386 277.309768 
L 132.772018 287.017534 
L 133.097649 287.346182 
L 133.423281 287.123979 
L 133.748912 283.724398 
L 134.725807 292.54468 
L 135.051438 287.479238 
L 135.377069 288.793832 
L 135.702701 292.809462 
L 136.028332 293.633078 
L 136.353964 281.699286 
L 136.679595 280.068019 
L 137.005227 280.391345 
L 137.330858 276.777544 
L 137.656489 285.133461 
L 137.982121 284.697037 
L 138.307752 296.613533 
L 138.633384 290.447718 
L 138.959015 292.097612 
L 139.284647 292.42626 
L 139.610278 287.036162 
L 139.93591 285.705602 
L 140.261541 283.552756 
L 140.587172 279.542448 
L 140.912804 290.703185 
L 141.238435 294.432745 
L 141.564067 291.120981 
L 141.889698 282.033256 
L 142.866593 295.714074 
L 143.192224 291.204806 
L 143.843487 277.441494 
L 144.49475 291.49753 
L 144.820381 292.406302 
L 145.471644 283.222777 
L 145.797275 288.78984 
L 146.122907 279.294964 
L 146.448538 279.116669 
L 146.77417 294.11208 
L 147.099801 294.881144 
L 147.425433 282.357913 
L 147.751064 283.011218 
L 148.402327 281.179037 
L 148.727958 281.909514 
L 149.05359 278.774715 
L 149.379221 288.208385 
L 149.704853 271.843828 
L 150.030484 290.149672 
L 150.356116 288.607553 
L 150.681747 280.833091 
L 151.007378 286.776703 
L 151.33301 279.426689 
L 151.658641 288.518406 
L 151.984273 286.829925 
L 152.309904 288.950838 
L 152.635536 280.223695 
L 152.961167 284.410967 
L 153.286799 281.000742 
L 153.61243 285.072255 
L 153.938061 274.204241 
L 154.263693 279.881741 
L 154.589324 288.395994 
L 154.914956 276.535382 
L 155.566219 286.72348 
L 155.89185 281.607477 
L 156.217482 287.708095 
L 156.543113 272.522413 
L 157.194376 286.986931 
L 157.520007 264.704043 
L 157.845639 289.556243 
L 158.17127 288.747262 
L 158.496902 286.655622 
L 158.822533 282.87284 
L 159.148164 273.802412 
L 159.473796 277.150101 
L 159.799427 289.421856 
L 160.125059 289.844974 
L 160.45069 289.757157 
L 160.776322 292.229338 
L 161.101953 286.50793 
L 161.427585 288.466514 
L 161.753216 294.82393 
L 162.078847 292.182768 
L 162.404479 285.697619 
L 162.73011 286.808636 
L 163.055742 288.453208 
L 163.381373 284.372381 
L 163.707005 291.57071 
L 164.032636 285.117494 
L 164.358268 289.956741 
L 164.683899 291.420357 
L 165.335162 283.202819 
L 165.660793 293.098193 
L 165.986425 293.810043 
L 166.312056 286.876495 
L 166.637688 283.315916 
L 166.963319 289.203644 
L 167.28895 282.601405 
L 167.614582 282.355252 
L 168.265845 293.100854 
L 168.591476 288.116577 
L 168.917108 287.472586 
L 169.568371 275.050477 
L 169.894002 286.622358 
L 170.219633 281.816375 
L 170.545265 285.930467 
L 170.870896 285.400904 
L 171.196528 287.88639 
L 171.522159 281.600824 
L 171.847791 289.073249 
L 172.173422 283.341197 
L 172.499054 287.135954 
L 172.824685 289.481731 
L 173.150316 277.754175 
L 173.475948 291.264682 
L 173.801579 290.105764 
L 174.127211 289.745182 
L 174.452842 290.265431 
L 174.778474 294.408795 
L 175.104105 288.422605 
L 175.429736 289.388592 
L 176.080999 286.787347 
L 176.406631 288.308177 
L 176.732262 291.029172 
L 177.057894 282.75575 
L 177.383525 288.348094 
L 177.709157 284.317828 
L 178.034788 285.195997 
L 178.360419 282.864856 
L 178.686051 289.467095 
L 179.011682 289.356659 
L 179.337314 287.618947 
L 179.662945 286.710175 
L 179.988577 283.358494 
L 180.314208 291.033164 
L 180.63984 285.003066 
L 180.965471 291.396407 
L 181.291102 284.876663 
L 181.616734 291.776947 
L 181.942365 283.652548 
L 182.267997 280.183778 
L 182.593628 290.229506 
L 182.91926 291.872748 
L 183.244891 291.425679 
L 183.570522 290.363892 
L 184.221785 287.624269 
L 184.547417 287.443313 
L 184.873048 285.442151 
L 185.19868 288.969466 
L 185.524311 289.658696 
L 185.849943 295.686132 
L 186.175574 292.345096 
L 186.501205 290.33462 
L 186.826837 286.594416 
L 187.152468 292.224015 
L 187.4781 292.055034 
L 187.803731 292.774867 
L 188.454994 290.441065 
L 188.780626 289.852957 
L 189.106257 289.979361 
L 189.431888 296.543013 
L 189.75752 291.989837 
L 190.083151 293.521311 
L 190.408783 295.664844 
L 190.734414 290.986595 
L 191.060046 291.425679 
L 191.385677 291.276657 
L 191.711308 289.533623 
L 192.03694 296.13187 
L 192.362571 295.86975 
L 192.688203 290.393165 
L 193.013834 290.512915 
L 193.339466 292.841395 
L 193.990729 289.57354 
L 194.31636 292.54335 
L 194.641991 293.73154 
L 194.967623 292.607217 
L 195.293254 293.16073 
L 195.618886 303.199805 
L 195.944517 297.950746 
L 196.59578 294.68156 
L 196.921412 294.905094 
L 197.247043 291.472249 
L 197.572674 291.544099 
L 197.898306 291.425679 
L 198.223937 299.57669 
L 199.200832 291.456282 
L 199.526463 291.16489 
L 199.852094 291.321896 
L 200.177726 296.126548 
L 200.503357 290.696532 
L 201.15462 291.465596 
L 201.480252 290.71383 
L 201.805883 291.079734 
L 202.131515 297.598147 
L 202.782777 291.376449 
L 203.108409 296.70268 
L 203.43404 290.963975 
L 203.759672 292.80414 
L 204.085303 300.086294 
L 204.410935 294.054866 
L 204.736566 290.592749 
L 205.062198 292.929212 
L 205.387829 291.147592 
L 205.71346 293.716904 
L 206.039092 293.975032 
L 206.364723 292.99441 
L 206.690355 292.366385 
L 207.015986 296.163804 
L 207.341618 290.954661 
L 207.667249 295.002225 
L 207.99288 294.846549 
L 208.318512 291.122312 
L 208.969775 291.038486 
L 209.295406 289.81038 
L 209.621038 295.369459 
L 209.946669 294.585759 
L 210.272301 291.363143 
L 210.597932 292.683059 
L 210.923563 292.802809 
L 211.249195 292.373038 
L 211.574826 293.251208 
L 212.226089 291.281979 
L 212.551721 295.03948 
L 212.877352 292.500772 
L 213.202983 291.940606 
L 213.528615 292.205388 
L 213.854246 292.257279 
L 214.179878 294.976944 
L 214.505509 295.008877 
L 214.831141 291.722394 
L 215.156772 291.375118 
L 215.482404 292.580605 
L 215.808035 298.586753 
L 216.459298 291.107676 
L 216.784929 291.123642 
L 217.110561 292.063018 
L 217.436192 298.57877 
L 217.761824 293.247216 
L 218.087455 291.49886 
L 218.413087 298.005299 
L 218.738718 293.965718 
L 219.389981 298.129041 
L 219.715612 293.142102 
L 220.041244 296.201059 
L 220.366875 292.355741 
L 220.692507 293.617112 
L 221.018138 295.494532 
L 221.343769 292.342435 
L 221.669401 291.058445 
L 221.995032 292.609878 
L 222.320664 296.071995 
L 222.646295 294.217194 
L 222.971927 291.168881 
L 223.297558 290.989256 
L 223.62319 292.049712 
L 223.948821 291.953912 
L 224.274452 292.178776 
L 224.600084 291.856781 
L 224.925715 292.486136 
L 225.251347 291.66518 
L 225.576978 294.195905 
L 225.90261 290.644641 
L 226.228241 293.563889 
L 226.553873 294.686882 
L 226.879504 296.769208 
L 227.205135 293.869918 
L 227.530767 292.331791 
L 227.856398 292.359732 
L 228.18203 304.18575 
L 228.507661 296.729292 
L 228.833293 299.00721 
L 229.158924 303.749326 
L 229.810187 292.975782 
L 230.135818 293.740854 
L 230.46145 292.711 
L 230.787081 296.554988 
L 231.112713 295.070083 
L 231.438344 297.024676 
L 231.763976 295.469251 
L 232.089607 293.026343 
L 232.415238 291.944598 
L 232.74087 293.305761 
L 233.066501 291.07042 
L 233.392133 292.452872 
L 233.717764 298.05719 
L 234.043396 299.937272 
L 234.369027 294.303681 
L 235.02029 297.753823 
L 235.345921 296.336776 
L 235.671553 296.717316 
L 235.997184 293.522642 
L 236.322816 294.08946 
L 236.648447 294.415448 
L 236.974079 293.064929 
L 237.29971 299.154902 
L 237.625341 301.431491 
L 237.950973 296.044053 
L 238.276604 301.73885 
L 238.602236 293.203308 
L 238.927867 290.614038 
L 239.253499 292.017779 
L 239.57913 299.150911 
L 240.230393 293.839315 
L 240.556024 295.390748 
L 240.881656 298.562803 
L 241.207287 296.770539 
L 241.532919 298.359228 
L 241.85855 292.588589 
L 242.184182 295.386756 
L 242.509813 300.655774 
L 243.161076 293.04231 
L 243.486707 296.459188 
L 243.812339 298.423094 
L 244.13797 294.941019 
L 244.463602 296.831745 
L 244.789233 298.030579 
L 245.114865 300.45619 
L 245.440496 295.502515 
L 245.766127 297.002056 
L 246.091759 296.585591 
L 246.41739 298.679892 
L 246.743022 293.750168 
L 247.068653 298.604051 
L 247.394285 297.304093 
L 247.719916 293.530625 
L 248.045548 292.208049 
L 248.371179 295.825841 
L 248.69681 294.347589 
L 249.022442 293.820687 
L 249.348073 294.274408 
L 249.673705 292.454202 
L 249.999336 296.770539 
L 250.650599 294.404803 
L 250.976231 303.034815 
L 251.301862 294.178608 
L 251.627493 298.946004 
L 251.953125 297.736525 
L 252.278756 297.544925 
L 252.604388 297.12979 
L 252.930019 294.355572 
L 253.255651 296.22634 
L 253.581282 293.727548 
L 253.906913 297.829665 
L 254.232545 293.583848 
L 254.558176 295.209792 
L 255.209439 304.274897 
L 255.535071 294.247797 
L 255.860702 296.711994 
L 256.186334 293.68497 
L 256.511965 296.252951 
L 256.837596 299.91066 
L 257.163228 294.945011 
L 257.488859 291.791583 
L 257.814491 294.149336 
L 258.140122 299.02983 
L 258.465754 300.831408 
L 258.791385 293.815365 
L 259.117017 295.623596 
L 259.442648 300.635816 
L 259.768279 294.375531 
L 260.093911 295.03948 
L 260.419542 292.028423 
L 260.745174 295.829833 
L 261.070805 303.362133 
L 261.396437 298.46035 
L 261.722068 297.717898 
L 262.047699 299.832157 
L 262.373331 295.197817 
L 262.698962 296.849042 
L 263.024594 296.991412 
L 263.350225 291.344515 
L 263.675857 300.025089 
L 264.001488 299.063094 
L 264.32712 294.769377 
L 264.652751 299.605962 
L 264.978382 295.362806 
L 265.304014 296.586922 
L 265.629645 298.520225 
L 265.955277 297.455777 
L 266.280908 301.258518 
L 266.60654 297.642056 
L 266.932171 297.474405 
L 267.257802 297.612783 
L 267.583434 297.031329 
L 267.909065 291.971209 
L 268.560328 299.140266 
L 268.88596 298.134363 
L 269.211591 299.285297 
L 269.862854 291.031834 
L 270.188485 293.486717 
L 270.514117 299.978519 
L 270.839748 297.850954 
L 271.16538 291.621272 
L 271.491011 298.999227 
L 271.816643 298.463011 
L 272.142274 301.045628 
L 273.119168 291.037156 
L 273.4448 293.187341 
L 273.770431 297.260185 
L 274.096063 293.312413 
L 274.421694 293.37628 
L 274.747326 299.185505 
L 275.072957 297.62742 
L 275.398588 298.295361 
L 275.72422 297.932118 
L 276.049851 292.031084 
L 276.375483 304.1139 
L 276.701114 293.288463 
L 277.026746 293.25653 
L 277.352377 295.474573 
L 277.678009 293.917818 
L 278.00364 300.308498 
L 278.329271 300.88463 
L 278.654903 299.369123 
L 278.980534 302.565128 
L 279.631797 299.612615 
L 279.957429 302.220513 
L 280.28306 297.157732 
L 280.608692 298.411119 
L 280.934323 293.85129 
L 281.259954 295.036819 
L 281.911217 299.939933 
L 282.236849 300.130203 
L 282.56248 292.772206 
L 282.888112 296.972784 
L 283.213743 298.178271 
L 283.539374 296.622847 
L 283.865006 299.828166 
L 284.190637 291.256698 
L 284.516269 299.248042 
L 284.8419 292.125554 
L 285.167532 296.686714 
L 285.493163 291.556074 
L 285.818795 292.365055 
L 286.144426 296.982098 
L 286.470057 304.16313 
L 286.795689 295.402723 
L 287.446952 294.366217 
L 287.772583 292.339774 
L 288.098215 293.432164 
L 288.423846 297.976026 
L 289.075109 295.067422 
L 289.40074 302.430741 
L 289.726372 297.96006 
L 290.052003 297.326713 
L 290.377635 293.096863 
L 290.703266 294.569793 
L 291.028898 293.534617 
L 291.354529 303.90234 
L 291.68016 295.600977 
L 292.005792 293.545261 
L 292.331423 293.998982 
L 292.657055 293.221935 
L 292.982686 296.930206 
L 293.308318 292.231999 
L 293.633949 295.724719 
L 293.959581 297.252202 
L 294.285212 293.002393 
L 294.610843 295.265676 
L 294.936475 300.595899 
L 295.262106 302.860512 
L 295.587738 294.592412 
L 295.913369 296.735944 
L 296.239001 296.902264 
L 296.564632 294.045552 
L 296.890264 296.523055 
L 297.215895 292.136198 
L 297.541526 296.401974 
L 297.867158 293.144763 
L 298.192789 293.880563 
L 298.518421 293.389586 
L 298.844052 303.786582 
L 299.169684 298.444383 
L 299.495315 297.588833 
L 299.820946 294.388836 
L 300.146578 303.762632 
L 300.472209 293.438817 
L 300.797841 293.09154 
L 301.123472 303.90234 
L 301.449104 295.450623 
L 301.774735 293.973702 
L 302.100367 293.438817 
L 302.425998 298.139685 
L 302.751629 297.091204 
L 303.077261 299.351825 
L 303.402892 292.475491 
L 303.728524 298.331286 
L 304.054155 300.686377 
L 304.379787 300.95382 
L 304.705418 293.244555 
L 305.03105 296.103928 
L 305.356681 292.102934 
L 305.682312 296.415279 
L 306.007944 293.297777 
L 306.333575 292.957154 
L 306.659207 292.873329 
L 306.984838 296.238315 
L 307.31047 296.455196 
L 307.636101 292.953162 
L 307.961732 293.123474 
L 308.287364 295.340187 
L 308.612995 295.765966 
L 308.938627 294.738774 
L 309.264258 299.104341 
L 309.58989 293.806051 
L 310.241153 293.405553 
L 310.566784 294.171955 
L 310.892415 298.101099 
L 311.218047 295.662182 
L 311.543678 296.34609 
L 311.86931 296.217026 
L 312.520573 291.981853 
L 312.846204 303.004212 
L 313.171836 296.014781 
L 313.497467 301.8586 
L 314.474361 292.834742 
L 314.799993 298.585423 
L 315.125624 298.879476 
L 315.451256 291.906012 
L 315.776887 292.821437 
L 316.102518 299.88538 
L 316.42815 303.899679 
L 316.753781 298.331286 
L 317.405044 296.038731 
L 317.730676 293.291124 
L 318.056307 296.794489 
L 318.381939 293.167382 
L 318.70757 297.104509 
L 319.033201 294.009627 
L 319.358833 294.376861 
L 319.684464 293.841976 
L 320.010096 294.589751 
L 320.335727 301.094859 
L 320.661359 294.056196 
L 320.98699 295.720727 
L 321.312622 299.589996 
L 321.638253 298.319311 
L 321.963884 293.505345 
L 322.289516 303.35548 
L 322.615147 302.756728 
L 322.940779 293.587839 
L 323.26641 301.254526 
L 323.592042 297.131121 
L 323.917673 297.642056 
L 324.243304 297.084551 
L 324.568936 297.172368 
L 324.894567 291.887384 
L 325.220199 292.090959 
L 325.54583 292.963807 
L 325.871462 295.282973 
L 326.197093 295.912328 
L 326.522725 299.845463 
L 326.848356 294.118733 
L 327.173987 297.466422 
L 327.499619 297.905507 
L 327.82525 297.719228 
L 328.150882 291.393746 
L 328.476513 296.988751 
L 328.802145 300.659766 
L 329.127776 302.795315 
L 329.453407 302.674234 
L 329.779039 295.706091 
L 330.430302 303.053443 
L 330.755933 296.225009 
L 331.081565 301.034984 
L 331.407196 293.972371 
L 332.058459 301.607124 
L 332.38409 296.793158 
L 332.709722 301.761469 
L 333.035353 293.965718 
L 333.360985 303.455272 
L 333.686616 302.509244 
L 334.012248 302.626333 
L 334.337879 294.243805 
L 334.663511 299.041805 
L 334.989142 294.89711 
L 335.314773 296.48713 
L 335.640405 299.532781 
L 335.966036 297.353324 
L 336.291668 302.345585 
L 336.617299 297.495694 
L 336.942931 295.686132 
L 337.268562 292.677736 
L 337.594193 294.077485 
L 337.919825 297.725881 
L 338.245456 299.269331 
L 338.571088 299.268 
L 338.896719 300.045047 
L 339.222351 296.024095 
L 339.547982 295.718066 
L 339.873614 294.334284 
L 340.199245 292.299857 
L 340.524876 298.4843 
L 340.850508 297.015362 
L 341.176139 297.32006 
L 341.501771 291.864764 
L 341.827402 291.767633 
L 342.153034 299.331867 
L 342.478665 297.381266 
L 342.804297 298.290038 
L 343.129928 293.972371 
L 343.455559 301.424838 
L 343.781191 297.470413 
L 344.106822 299.205464 
L 344.432454 300.275234 
L 344.758085 300.207375 
L 345.083717 299.108333 
L 345.409348 299.761638 
L 345.734979 299.385089 
L 346.060611 292.954493 
L 346.386242 295.161892 
L 346.711874 292.59125 
L 347.037505 299.152241 
L 347.363137 301.794733 
L 347.688768 298.928707 
L 348.0144 299.55407 
L 348.340031 297.242888 
L 348.665662 301.35964 
L 348.991294 300.594568 
L 349.316925 305.73186 
L 349.642557 297.019354 
L 349.968188 297.289457 
L 350.29382 293.599814 
L 350.619451 295.711413 
L 350.945083 299.166877 
L 351.270714 292.460855 
L 351.596345 296.091953 
L 351.921977 301.195981 
L 352.247608 298.597398 
L 352.57324 295.028836 
L 352.898871 294.733452 
L 353.224503 299.402387 
L 353.550134 294.829252 
L 354.201397 296.444552 
L 354.527028 297.804384 
L 354.85266 294.929044 
L 355.178291 294.501934 
L 355.503923 296.624177 
L 355.829554 301.938434 
L 356.155186 299.189497 
L 356.480817 298.407128 
L 356.806448 301.030992 
L 357.13208 301.794733 
L 357.457711 296.708003 
L 357.783343 295.672827 
L 358.108974 295.570374 
L 358.434606 298.29403 
L 358.760237 298.320641 
L 359.4115 301.102842 
L 359.737131 299.542095 
L 360.062763 292.307841 
L 360.388394 296.662764 
L 360.714026 298.663926 
L 361.039657 297.447794 
L 361.365289 302.102093 
L 361.69092 301.99964 
L 362.016551 298.771701 
L 362.342183 298.69719 
L 362.667814 294.827921 
L 363.319077 299.834819 
L 363.644709 298.026588 
L 363.97034 294.962308 
L 364.295972 301.277146 
L 364.621603 296.447213 
L 364.947234 301.710908 
L 365.272866 298.095777 
L 365.598497 297.981348 
L 365.924129 295.848461 
L 366.24976 296.548335 
L 366.575392 297.966712 
L 366.901023 298.291369 
L 367.226655 292.587258 
L 367.552286 298.546836 
L 367.877917 298.622678 
L 368.203549 292.889295 
L 368.52918 299.904008 
L 368.854812 297.133782 
L 369.180443 297.715236 
L 369.506075 300.151492 
L 369.831706 301.069578 
L 370.157337 300.734277 
L 370.482969 298.971285 
L 370.8086 299.45694 
L 371.134232 294.70551 
L 371.459863 298.727793 
L 371.785495 297.060601 
L 372.111126 296.681391 
L 372.762389 298.67457 
L 373.08802 298.790329 
L 373.413652 296.783844 
L 373.739283 298.568125 
L 374.064915 293.885885 
L 374.390546 301.700264 
L 374.716178 300.762219 
L 375.041809 300.705005 
L 375.693072 296.525716 
L 376.018703 302.731448 
L 376.344335 296.870331 
L 376.669966 298.159644 
L 376.995598 297.393241 
L 377.646861 300.542676 
L 377.972492 296.967462 
L 378.298123 299.842802 
L 378.623755 294.470001 
L 378.949386 302.764712 
L 379.275018 301.753486 
L 379.600649 294.690874 
L 379.926281 293.695615 
L 380.251912 300.667749 
L 380.577544 297.789748 
L 380.903175 299.414362 
L 381.228806 300.071658 
L 381.554438 293.515989 
L 381.880069 298.844882 
L 382.205701 298.569456 
L 382.531332 295.192495 
L 382.856964 297.642056 
L 383.182595 303.209119 
L 383.508226 295.765966 
L 383.833858 293.663681 
L 384.485121 297.004717 
L 384.810752 304.191072 
L 385.136384 300.542676 
L 385.462015 302.245793 
L 385.787647 296.51241 
L 386.113278 295.555738 
L 386.438909 300.026419 
L 386.764541 299.876066 
L 387.090172 301.729536 
L 387.415804 297.572867 
L 387.741435 295.768627 
L 388.067067 300.778186 
L 388.392698 293.735532 
L 388.71833 295.63291 
L 389.043961 294.814616 
L 389.369592 292.989087 
L 389.695224 300.520057 
L 390.020855 295.13262 
L 390.346487 300.444215 
L 390.99775 292.269254 
L 391.323381 297.261516 
L 391.649012 295.558399 
L 392.300275 304.4013 
L 392.625907 292.943848 
L 392.951538 296.657441 
L 393.27717 296.374032 
L 393.602801 294.874491 
L 393.928433 297.518314 
L 394.254064 297.087212 
L 394.579695 300.945836 
L 394.905327 300.175442 
L 395.230958 299.967875 
L 395.55659 296.84505 
L 396.207853 300.783508 
L 396.533484 295.128628 
L 396.859116 298.071827 
L 397.184747 299.476898 
L 397.510378 301.713569 
L 397.83601 297.253532 
L 398.161641 300.236648 
L 398.487273 291.983184 
L 398.487273 291.983184 
" style="fill:none;stroke:#1f77b4;stroke-linecap:square;stroke-width:1.5;"/>
   </g>
   <g id="patch_3">
    <path d="M 57.6 307.584 
L 57.6 41.472 
" style="fill:none;stroke:#000000;stroke-linecap:square;stroke-linejoin:miter;stroke-width:0.8;"/>
   </g>
   <g id="patch_4">
    <path d="M 414.72 307.584 
L 414.72 41.472 
" style="fill:none;stroke:#000000;stroke-linecap:square;stroke-linejoin:miter;stroke-width:0.8;"/>
   </g>
   <g id="patch_5">
    <path d="M 57.6 307.584 
L 414.72 307.584 
" style="fill:none;stroke:#000000;stroke-linecap:square;stroke-linejoin:miter;stroke-width:0.8;"/>
   </g>
   <g id="patch_6">
    <path d="M 57.6 41.472 
L 414.72 41.472 
" style="fill:none;stroke:#000000;stroke-linecap:square;stroke-linejoin:miter;stroke-width:0.8;"/>
   </g>
   <g id="text_15">
    <!-- Training - NSRA-ES - Cartpole -->
    <g transform="translate(149.046562 35.472)scale(0.12 -0.12)">
     <defs>
      <path d="M 3513 2113 
L 3513 0 
L 2938 0 
L 2938 2094 
Q 2938 2591 2744 2837 
Q 2550 3084 2163 3084 
Q 1697 3084 1428 2787 
Q 1159 2491 1159 1978 
L 1159 0 
L 581 0 
L 581 3500 
L 1159 3500 
L 1159 2956 
Q 1366 3272 1645 3428 
Q 1925 3584 2291 3584 
Q 2894 3584 3203 3211 
Q 3513 2838 3513 2113 
z
" id="DejaVuSans-6e" transform="scale(0.015625)"/>
      <path d="M 2906 1791 
Q 2906 2416 2648 2759 
Q 2391 3103 1925 3103 
Q 1463 3103 1205 2759 
Q 947 2416 947 1791 
Q 947 1169 1205 825 
Q 1463 481 1925 481 
Q 2391 481 2648 825 
Q 2906 1169 2906 1791 
z
M 3481 434 
Q 3481 -459 3084 -895 
Q 2688 -1331 1869 -1331 
Q 1566 -1331 1297 -1286 
Q 1028 -1241 775 -1147 
L 775 -588 
Q 1028 -725 1275 -790 
Q 1522 -856 1778 -856 
Q 2344 -856 2625 -561 
Q 2906 -266 2906 331 
L 2906 616 
Q 2728 306 2450 153 
Q 2172 0 1784 0 
Q 1141 0 747 490 
Q 353 981 353 1791 
Q 353 2603 747 3093 
Q 1141 3584 1784 3584 
Q 2172 3584 2450 3431 
Q 2728 3278 2906 2969 
L 2906 3500 
L 3481 3500 
L 3481 434 
z
" id="DejaVuSans-67" transform="scale(0.015625)"/>
      <path id="DejaVuSans-20" transform="scale(0.015625)"/>
      <path d="M 313 2009 
L 1997 2009 
L 1997 1497 
L 313 1497 
L 313 2009 
z
" id="DejaVuSans-2d" transform="scale(0.015625)"/>
      <path d="M 628 4666 
L 1478 4666 
L 3547 763 
L 3547 4666 
L 4159 4666 
L 4159 0 
L 3309 0 
L 1241 3903 
L 1241 0 
L 628 0 
L 628 4666 
z
" id="DejaVuSans-4e" transform="scale(0.015625)"/>
      <path d="M 3425 4513 
L 3425 3897 
Q 3066 4069 2747 4153 
Q 2428 4238 2131 4238 
Q 1616 4238 1336 4038 
Q 1056 3838 1056 3469 
Q 1056 3159 1242 3001 
Q 1428 2844 1947 2747 
L 2328 2669 
Q 3034 2534 3370 2195 
Q 3706 1856 3706 1288 
Q 3706 609 3251 259 
Q 2797 -91 1919 -91 
Q 1588 -91 1214 -16 
Q 841 59 441 206 
L 441 856 
Q 825 641 1194 531 
Q 1563 422 1919 422 
Q 2459 422 2753 634 
Q 3047 847 3047 1241 
Q 3047 1584 2836 1778 
Q 2625 1972 2144 2069 
L 1759 2144 
Q 1053 2284 737 2584 
Q 422 2884 422 3419 
Q 422 4038 858 4394 
Q 1294 4750 2059 4750 
Q 2388 4750 2728 4690 
Q 3069 4631 3425 4513 
z
" id="DejaVuSans-53" transform="scale(0.015625)"/>
      <path d="M 2188 4044 
L 1331 1722 
L 3047 1722 
L 2188 4044 
z
M 1831 4666 
L 2547 4666 
L 4325 0 
L 3669 0 
L 3244 1197 
L 1141 1197 
L 716 0 
L 50 0 
L 1831 4666 
z
" id="DejaVuSans-41" transform="scale(0.015625)"/>
      <path d="M 628 4666 
L 3578 4666 
L 3578 4134 
L 1259 4134 
L 1259 2753 
L 3481 2753 
L 3481 2222 
L 1259 2222 
L 1259 531 
L 3634 531 
L 3634 0 
L 628 0 
L 628 4666 
z
" id="DejaVuSans-45" transform="scale(0.015625)"/>
      <path d="M 4122 4306 
L 4122 3641 
Q 3803 3938 3442 4084 
Q 3081 4231 2675 4231 
Q 1875 4231 1450 3742 
Q 1025 3253 1025 2328 
Q 1025 1406 1450 917 
Q 1875 428 2675 428 
Q 3081 428 3442 575 
Q 3803 722 4122 1019 
L 4122 359 
Q 3791 134 3420 21 
Q 3050 -91 2638 -91 
Q 1578 -91 968 557 
Q 359 1206 359 2328 
Q 359 3453 968 4101 
Q 1578 4750 2638 4750 
Q 3056 4750 3426 4639 
Q 3797 4528 4122 4306 
z
" id="DejaVuSans-43" transform="scale(0.015625)"/>
      <path d="M 1959 3097 
Q 1497 3097 1228 2736 
Q 959 2375 959 1747 
Q 959 1119 1226 758 
Q 1494 397 1959 397 
Q 2419 397 2687 759 
Q 2956 1122 2956 1747 
Q 2956 2369 2687 2733 
Q 2419 3097 1959 3097 
z
M 1959 3584 
Q 2709 3584 3137 3096 
Q 3566 2609 3566 1747 
Q 3566 888 3137 398 
Q 2709 -91 1959 -91 
Q 1206 -91 779 398 
Q 353 888 353 1747 
Q 353 2609 779 3096 
Q 1206 3584 1959 3584 
z
" id="DejaVuSans-6f" transform="scale(0.015625)"/>
      <path d="M 603 4863 
L 1178 4863 
L 1178 0 
L 603 0 
L 603 4863 
z
" id="DejaVuSans-6c" transform="scale(0.015625)"/>
     </defs>
     <use xlink:href="#DejaVuSans-54"/>
     <use x="46.333984" xlink:href="#DejaVuSans-72"/>
     <use x="87.447266" xlink:href="#DejaVuSans-61"/>
     <use x="148.726562" xlink:href="#DejaVuSans-69"/>
     <use x="176.509766" xlink:href="#DejaVuSans-6e"/>
     <use x="239.888672" xlink:href="#DejaVuSans-69"/>
     <use x="267.671875" xlink:href="#DejaVuSans-6e"/>
     <use x="331.050781" xlink:href="#DejaVuSans-67"/>
     <use x="394.527344" xlink:href="#DejaVuSans-20"/>
     <use x="426.314453" xlink:href="#DejaVuSans-2d"/>
     <use x="462.398438" xlink:href="#DejaVuSans-20"/>
     <use x="494.185547" xlink:href="#DejaVuSans-4e"/>
     <use x="568.990234" xlink:href="#DejaVuSans-53"/>
     <use x="632.466797" xlink:href="#DejaVuSans-52"/>
     <use x="697.949219" xlink:href="#DejaVuSans-41"/>
     <use x="764.107422" xlink:href="#DejaVuSans-2d"/>
     <use x="800.191406" xlink:href="#DejaVuSans-45"/>
     <use x="863.375" xlink:href="#DejaVuSans-53"/>
     <use x="926.851562" xlink:href="#DejaVuSans-20"/>
     <use x="958.638672" xlink:href="#DejaVuSans-2d"/>
     <use x="994.722656" xlink:href="#DejaVuSans-20"/>
     <use x="1026.509766" xlink:href="#DejaVuSans-43"/>
     <use x="1096.333984" xlink:href="#DejaVuSans-61"/>
     <use x="1157.613281" xlink:href="#DejaVuSans-72"/>
     <use x="1198.726562" xlink:href="#DejaVuSans-74"/>
     <use x="1237.935547" xlink:href="#DejaVuSans-70"/>
     <use x="1301.412109" xlink:href="#DejaVuSans-6f"/>
     <use x="1362.59375" xlink:href="#DejaVuSans-6c"/>
     <use x="1390.376953" xlink:href="#DejaVuSans-65"/>
    </g>
   </g>
  </g>
 </g>
 <defs>
  <clipPath id="p02b5ef5b0d">
   <rect height="266.112" width="357.12" x="57.6" y="41.472"/>
  </clipPath>
 </defs>
</svg>
