<?xml version="1.0" encoding="utf-8" standalone="no"?>
<!DOCTYPE svg PUBLIC "-//W3C//DTD SVG 1.1//EN"
  "http://www.w3.org/Graphics/SVG/1.1/DTD/svg11.dtd">
<svg height="345.6pt" version="1.1" viewBox="0 0 460.8 345.6" width="460.8pt" xmlns="http://www.w3.org/2000/svg" xmlns:xlink="http://www.w3.org/1999/xlink">
 <metadata>
  <rdf:RDF xmlns:cc="http://creativecommons.org/ns#" xmlns:dc="http://purl.org/dc/elements/1.1/" xmlns:rdf="http://www.w3.org/1999/02/22-rdf-syntax-ns#">
   <cc:Work>
    <dc:type rdf:resource="http://purl.org/dc/dcmitype/StillImage"/>
    <dc:date>2021-07-22T17:33:57.388872</dc:date>
    <dc:format>image/svg+xml</dc:format>
    <dc:creator>
     <cc:Agent>
      <dc:title>Matplotlib v3.4.2, https://matplotlib.org/</dc:title>
     </cc:Agent>
    </dc:creator>
   </cc:Work>
  </rdf:RDF>
 </metadata>
 <defs>
  <style type="text/css">*{stroke-linecap:butt;stroke-linejoin:round;}</style>
 </defs>
 <g id="figure_1">
  <g id="patch_1">
   <path d="M 0 345.6 
L 460.8 345.6 
L 460.8 0 
L 0 0 
z
" style="fill:#ffffff;"/>
  </g>
  <g id="axes_1">
   <g id="patch_2">
    <path d="M 57.6 307.584 
L 414.72 307.584 
L 414.72 41.472 
L 57.6 41.472 
z
" style="fill:#ffffff;"/>
   </g>
   <g id="PolyCollection_1">
    <path clip-path="url(#p437e5eb674)" d="M 57.95712 303.570366 
L 57.95712 304.437226 
L 58.31424 305.007371 
L 58.67136 304.496436 
L 59.02848 303.436644 
L 59.3856 302.33361 
L 59.74272 300.310494 
L 60.09984 297.063262 
L 60.45696 294.778691 
L 60.81408 293.923806 
L 61.1712 293.221935 
L 61.52832 291.170212 
L 61.88544 291.419692 
L 62.24256 290.375868 
L 62.59968 289.712583 
L 62.9568 289.222272 
L 63.31392 289.191004 
L 63.67104 287.632918 
L 64.02816 286.775372 
L 64.38528 287.955579 
L 64.7424 284.910592 
L 65.09952 285.496039 
L 65.45664 283.603317 
L 65.81376 283.295958 
L 66.17088 280.79517 
L 66.528 279.427355 
L 66.88512 276.056381 
L 67.24224 275.957919 
L 67.59936 275.824863 
L 67.95648 275.58004 
L 68.3136 274.656632 
L 68.67072 273.093889 
L 69.02784 271.547113 
L 69.38496 264.728658 
L 69.74208 268.721669 
L 70.0992 266.089156 
L 70.45632 265.465788 
L 70.81344 263.298972 
L 71.17056 262.184628 
L 71.52768 255.535154 
L 71.8848 254.319022 
L 72.24192 250.633371 
L 72.59904 252.039773 
L 72.95616 245.402274 
L 73.31328 244.17949 
L 73.6704 237.152802 
L 74.02752 242.810343 
L 74.38464 236.144903 
L 74.74176 238.535919 
L 75.09888 236.8022 
L 75.456 239.224484 
L 75.81312 231.532517 
L 76.17024 231.803951 
L 76.52736 229.887279 
L 76.88448 227.745743 
L 77.2416 225.073313 
L 77.59872 228.848112 
L 77.95584 223.872483 
L 78.31296 219.29203 
L 78.67008 223.74608 
L 79.0272 220.815521 
L 79.38432 217.539017 
L 79.74144 217.684714 
L 80.09856 216.020848 
L 80.45568 213.40031 
L 80.8128 215.49062 
L 81.16992 206.226596 
L 81.52704 206.299112 
L 81.88416 209.139857 
L 82.24128 214.26717 
L 82.5984 206.19932 
L 82.95552 200.443982 
L 83.31264 203.984603 
L 83.66976 202.247556 
L 84.02688 201.527724 
L 84.384 197.536709 
L 84.74112 199.529222 
L 85.09824 202.604147 
L 85.45536 201.884979 
L 85.81248 200.134627 
L 86.1696 204.999155 
L 86.52672 197.638497 
L 86.88384 195.383197 
L 87.24096 197.899952 
L 87.59808 193.103283 
L 87.9552 194.01006 
L 88.31232 195.802989 
L 88.66944 194.976711 
L 89.02656 191.863866 
L 89.38368 192.326236 
L 89.7408 191.845238 
L 90.09792 190.273847 
L 90.45504 194.427855 
L 90.81216 187.501625 
L 91.16928 192.988855 
L 91.5264 189.65048 
L 91.88352 186.731896 
L 92.24064 190.261207 
L 92.59776 185.461212 
L 92.95488 183.388864 
L 93.312 183.233854 
L 93.66912 179.764419 
L 94.02624 178.687996 
L 94.38336 177.139889 
L 94.74048 177.866375 
L 95.0976 182.374978 
L 95.45472 175.052906 
L 95.81184 179.341966 
L 96.16896 175.796024 
L 96.52608 174.765505 
L 96.8832 175.726835 
L 97.24032 174.128167 
L 97.59744 175.307708 
L 97.95456 173.48218 
L 98.31168 176.47594 
L 98.6688 173.089665 
L 99.02592 174.266545 
L 99.38304 169.774574 
L 99.74016 168.060813 
L 100.09728 170.739896 
L 100.4544 171.698564 
L 100.81152 170.635447 
L 101.16864 171.281434 
L 101.52576 172.142306 
L 101.88288 170.998024 
L 102.24 172.768334 
L 102.59712 164.456991 
L 102.95424 165.83279 
L 103.31136 162.82639 
L 103.66848 165.482188 
L 104.0256 164.281357 
L 104.38272 164.361191 
L 104.73984 161.027473 
L 105.09696 161.736661 
L 105.45408 158.361696 
L 105.8112 160.608347 
L 106.16832 156.868808 
L 106.52544 155.475711 
L 106.88256 157.446936 
L 107.23968 155.145067 
L 107.5968 160.20186 
L 107.95392 155.443113 
L 108.31104 157.560699 
L 108.66816 153.304903 
L 109.02528 153.938915 
L 109.3824 153.74931 
L 109.73952 153.990141 
L 110.09664 153.728686 
L 110.45376 150.900581 
L 110.81088 153.021493 
L 111.168 148.515552 
L 111.52512 149.791559 
L 111.88224 149.724366 
L 112.23936 149.40237 
L 112.59648 149.072391 
L 112.9536 149.248691 
L 113.31072 149.505489 
L 113.66784 147.343994 
L 114.02496 144.686866 
L 114.38208 147.711894 
L 114.7392 144.372853 
L 115.09632 144.71015 
L 115.45344 145.90832 
L 115.81056 141.123626 
L 116.16768 141.673147 
L 116.5248 141.277971 
L 116.88192 139.856268 
L 117.23904 136.348911 
L 117.59616 139.022006 
L 117.95328 137.350158 
L 118.3104 139.319387 
L 118.66752 138.834397 
L 119.02464 137.429326 
L 119.38176 138.95947 
L 119.73888 135.471407 
L 120.096 135.942425 
L 120.45312 134.852697 
L 120.81024 134.677728 
L 121.16736 134.096273 
L 121.52448 132.802304 
L 121.8816 132.489622 
L 122.23872 136.623007 
L 122.59584 132.628666 
L 122.95296 134.444215 
L 123.31008 134.029745 
L 123.6672 131.551577 
L 124.02432 131.881556 
L 124.38144 132.476316 
L 124.73856 131.562887 
L 125.09568 132.93669 
L 125.4528 130.130539 
L 125.80992 131.912159 
L 126.16704 128.839896 
L 126.52416 129.414033 
L 126.88128 128.68289 
L 127.2384 126.396988 
L 127.59552 126.869337 
L 127.95264 127.412205 
L 128.30976 124.931376 
L 128.66688 127.240563 
L 129.024 128.095448 
L 129.38112 125.433662 
L 129.73824 126.444888 
L 130.09536 126.608547 
L 130.45248 126.512747 
L 130.8096 122.546347 
L 131.16672 125.103018 
L 131.52384 127.309087 
L 131.88096 123.062604 
L 132.23808 125.075076 
L 132.5952 129.330207 
L 132.95232 125.120981 
L 133.30944 125.085721 
L 133.66656 123.177698 
L 134.02368 123.006056 
L 134.3808 121.802564 
L 134.73792 123.449797 
L 135.09504 122.872334 
L 135.45216 122.278239 
L 135.80928 124.051876 
L 136.1664 123.542271 
L 136.52352 121.747346 
L 136.88064 127.316405 
L 137.23776 121.117326 
L 137.59488 123.76514 
L 137.952 121.43533 
L 138.30912 120.998241 
L 138.66624 121.636909 
L 139.02336 122.702688 
L 139.38048 121.066099 
L 139.7376 119.663024 
L 140.09472 120.02294 
L 140.45184 121.219779 
L 140.80896 120.032254 
L 141.16608 122.217699 
L 141.5232 122.503769 
L 141.88032 118.448888 
L 142.23744 117.05313 
L 142.59456 116.425771 
L 142.95168 117.880739 
L 143.3088 117.073089 
L 143.66592 117.392423 
L 144.02304 118.112921 
L 144.38016 114.299536 
L 144.73728 116.213547 
L 145.0944 113.581699 
L 145.45152 116.184275 
L 145.80864 116.44573 
L 146.16576 119.486724 
L 146.52288 115.104525 
L 146.88 118.65712 
L 147.23712 114.338788 
L 147.59424 118.91791 
L 147.95136 116.392507 
L 148.30848 120.656952 
L 148.6656 114.888309 
L 149.02272 115.350679 
L 149.37984 115.990678 
L 149.73696 116.689887 
L 150.09408 115.230263 
L 150.4512 113.915004 
L 150.80832 112.288395 
L 151.16544 112.587106 
L 151.52256 112.357584 
L 151.87968 114.173133 
L 152.2368 117.679824 
L 152.59392 122.368052 
L 152.95104 117.892048 
L 153.30816 120.85321 
L 153.66528 121.078074 
L 154.0224 115.324733 
L 154.37952 117.256041 
L 154.73664 122.680068 
L 155.09376 118.978451 
L 155.45088 113.561076 
L 155.808 115.95941 
L 156.16512 126.349753 
L 156.52224 117.376456 
L 156.87936 112.734132 
L 157.23648 114.768559 
L 157.5936 113.805899 
L 157.95072 113.861117 
L 158.30784 111.068937 
L 158.66496 113.792593 
L 159.02208 108.195592 
L 159.3792 108.349937 
L 159.73632 108.208233 
L 160.09344 108.120416 
L 160.45056 107.387277 
L 160.80768 107.785115 
L 161.1648 107.588857 
L 161.52192 108.304698 
L 161.87904 106.688068 
L 162.23616 107.47709 
L 162.59328 106.660791 
L 162.9504 107.065947 
L 163.30752 106.455885 
L 163.66464 104.80466 
L 164.02176 106.697382 
L 164.37888 106.49181 
L 164.736 106.164492 
L 165.09312 105.440003 
L 165.45024 105.225117 
L 165.80736 105.755345 
L 166.16448 104.621043 
L 166.5216 104.920419 
L 166.87872 105.450647 
L 167.23584 104.607072 
L 167.59296 105.358838 
L 167.95008 105.911686 
L 168.3072 106.156509 
L 168.66432 105.518506 
L 169.02144 104.937716 
L 169.37856 104.279089 
L 169.73568 105.068111 
L 170.0928 104.162 
L 170.44992 103.762832 
L 170.80704 104.868527 
L 171.16416 107.155094 
L 171.52128 106.929564 
L 171.8784 106.221707 
L 172.23552 104.922415 
L 172.59264 105.318256 
L 172.94976 104.812644 
L 173.30688 106.048068 
L 173.664 106.605573 
L 174.02112 106.972808 
L 174.37824 106.59892 
L 174.73536 104.672935 
L 175.09248 104.37622 
L 175.4496 107.392599 
L 175.80672 109.607316 
L 176.16384 105.739379 
L 176.52096 104.571147 
L 176.87808 108.313347 
L 177.2352 105.085408 
L 177.59232 104.396178 
L 177.94944 106.421291 
L 178.30656 105.81522 
L 178.66368 103.576553 
L 179.0208 103.147448 
L 179.37792 104.07884 
L 179.73504 103.468113 
L 180.09216 103.796096 
L 180.44928 103.48674 
L 180.8064 103.09356 
L 181.16352 103.682333 
L 181.52064 104.036262 
L 181.87776 103.957759 
L 182.23488 109.313263 
L 182.592 105.307612 
L 182.94912 114.638164 
L 183.30624 109.910684 
L 183.66336 113.23908 
L 184.02048 114.956833 
L 184.3776 121.188511 
L 184.73472 116.249472 
L 185.09184 113.372136 
L 185.44896 109.071101 
L 185.80608 123.156409 
L 186.1632 118.131549 
L 186.52032 112.244486 
L 186.87744 113.049475 
L 187.23456 119.626433 
L 187.59168 121.758656 
L 187.9488 136.115398 
L 188.30592 126.787507 
L 188.66304 136.09677 
L 189.02016 130.507088 
L 189.37728 132.564133 
L 189.7344 165.985805 
L 190.09152 197.256626 
L 190.44864 237.678373 
L 190.80576 255.62031 
L 191.16288 258.972656 
L 191.52 258.536232 
L 191.87712 260.08833 
L 192.23424 257.648748 
L 192.59136 258.367251 
L 192.94848 270.084162 
L 193.3056 289.307428 
L 193.66272 303.441301 
L 194.01984 305.110489 
L 194.37696 305.395894 
L 194.73408 305.384584 
L 195.0912 305.408534 
L 195.44832 305.32604 
L 195.80544 305.379927 
L 196.16256 305.376601 
L 196.51968 305.378597 
L 196.8768 305.377932 
L 197.23392 305.405208 
L 197.59104 305.367287 
L 197.94816 305.400551 
L 198.30528 305.392568 
L 198.6624 305.405208 
L 199.01952 305.404543 
L 199.37664 305.42184 
L 199.73376 305.417848 
L 200.09088 305.392568 
L 200.448 305.428493 
L 200.80512 305.38525 
L 201.16224 305.390572 
L 201.51936 305.401882 
L 201.87648 305.398555 
L 202.2336 305.396559 
L 202.59072 305.391237 
L 202.94784 305.411861 
L 203.30496 305.419179 
L 203.66208 305.395894 
L 204.0192 305.413191 
L 204.37632 305.407204 
L 204.73344 305.401216 
L 205.09056 305.391237 
L 205.44768 305.429823 
L 205.8048 305.391902 
L 206.16192 305.401882 
L 206.51904 305.413857 
L 206.87616 305.407869 
L 207.23328 305.401882 
L 207.5904 305.390572 
L 207.94752 305.401216 
L 208.30464 305.389907 
L 208.66176 305.423836 
L 209.01888 305.403877 
L 209.376 305.387911 
L 209.73312 305.404543 
L 210.09024 305.404543 
L 210.44736 305.396559 
L 210.80448 305.394564 
L 211.1616 305.395229 
L 211.51872 305.431154 
L 211.87584 305.39789 
L 212.23296 305.4092 
L 212.59008 305.401216 
L 212.9472 305.4571 
L 213.30432 305.409865 
L 213.66144 305.41053 
L 214.01856 305.413857 
L 214.37568 305.403212 
L 214.7328 305.401882 
L 215.08992 305.400551 
L 215.44704 305.415187 
L 215.80416 305.427828 
L 216.16128 305.425832 
L 216.5184 305.436476 
L 216.87552 305.423836 
L 217.23264 305.441133 
L 217.58976 305.419179 
L 217.94688 305.39789 
L 218.304 305.4092 
L 218.66112 305.425166 
L 219.01824 305.395894 
L 219.37536 305.407204 
L 219.73248 305.417183 
L 220.0896 305.413857 
L 220.44672 305.408534 
L 220.80384 305.372609 
L 221.16096 305.422505 
L 221.51808 305.423836 
L 221.8752 305.409865 
L 222.23232 305.405208 
L 222.58944 305.429823 
L 222.94656 305.411196 
L 223.30368 305.408534 
L 223.6608 305.393233 
L 224.01792 305.419179 
L 224.37504 305.417183 
L 224.73216 305.39922 
L 225.08928 305.404543 
L 225.4464 305.41053 
L 225.80352 305.436476 
L 226.16064 305.396559 
L 226.51776 305.425832 
L 226.87488 305.417183 
L 227.232 305.408534 
L 227.58912 305.427828 
L 227.94624 305.411861 
L 228.30336 305.42184 
L 228.66048 305.411861 
L 229.0176 305.42184 
L 229.37472 305.405873 
L 229.73184 305.393898 
L 230.08896 305.416518 
L 230.44608 305.427162 
L 230.8032 305.419844 
L 231.16032 305.451112 
L 231.51744 305.437807 
L 231.87456 305.424501 
L 232.23168 305.407204 
L 232.5888 305.438472 
L 232.94592 305.446455 
L 233.30304 305.425832 
L 233.66016 305.406539 
L 234.01728 305.405208 
L 234.3744 305.39789 
L 234.73152 305.418514 
L 235.08864 305.435146 
L 235.44576 305.411861 
L 235.80288 305.411861 
L 236.16 305.43315 
L 236.51712 305.413191 
L 236.87424 305.415187 
L 237.23136 305.4092 
L 237.58848 305.456435 
L 237.9456 305.435811 
L 238.30272 305.416518 
L 238.65984 305.420509 
L 239.01696 305.422505 
L 239.37408 305.413857 
L 239.7312 305.416518 
L 240.08832 305.412526 
L 240.44544 305.421175 
L 240.80256 305.422505 
L 241.15968 305.431819 
L 241.5168 305.440468 
L 241.87392 305.433815 
L 242.23104 305.433815 
L 242.58816 305.42184 
L 242.94528 305.419179 
L 243.3024 305.394564 
L 243.65952 305.416518 
L 244.01664 305.420509 
L 244.37376 305.411196 
L 244.73088 305.411196 
L 245.088 305.426497 
L 245.44512 305.431154 
L 245.80224 305.435811 
L 246.15936 305.412526 
L 246.51648 305.439137 
L 246.8736 305.423836 
L 247.23072 305.423171 
L 247.58784 305.401882 
L 247.94496 305.448451 
L 248.30208 305.429823 
L 248.6592 305.454439 
L 249.01632 305.42184 
L 249.37344 305.415852 
L 249.73056 305.436476 
L 250.08768 305.430489 
L 250.4448 305.407869 
L 250.80192 305.43448 
L 251.15904 305.419844 
L 251.51616 305.427828 
L 251.87328 305.405873 
L 252.2304 305.415187 
L 252.58752 305.422505 
L 252.94464 305.415852 
L 253.30176 305.408534 
L 253.65888 305.425832 
L 254.016 305.431819 
L 254.37312 305.406539 
L 254.73024 305.430489 
L 255.08736 305.440468 
L 255.44448 305.411861 
L 255.8016 305.440468 
L 256.15872 305.463753 
L 256.51584 305.412526 
L 256.87296 305.430489 
L 257.23008 305.422505 
L 257.5872 305.413857 
L 257.94432 305.409865 
L 258.30144 305.411196 
L 258.65856 305.419844 
L 259.01568 305.398555 
L 259.3728 305.424501 
L 259.72992 305.416518 
L 260.08704 305.425832 
L 260.44416 305.421175 
L 260.80128 305.412526 
L 261.1584 305.425166 
L 261.51552 305.407204 
L 261.87264 305.432484 
L 262.22976 305.411861 
L 262.58688 305.425166 
L 262.944 305.432484 
L 263.30112 305.417183 
L 263.65824 305.433815 
L 264.01536 305.416518 
L 264.37248 305.415187 
L 264.7296 305.411196 
L 265.08672 305.39789 
L 265.44384 305.418514 
L 265.80096 305.431154 
L 266.15808 305.414522 
L 266.5152 305.433815 
L 266.87232 305.429158 
L 267.22944 305.432484 
L 267.58656 305.442464 
L 267.94368 305.418514 
L 268.3008 305.423836 
L 268.65792 305.419844 
L 269.01504 305.422505 
L 269.37216 305.427162 
L 269.72928 305.425166 
L 270.0864 305.419179 
L 270.44352 305.428493 
L 270.80064 305.437141 
L 271.15776 305.414522 
L 271.51488 305.413857 
L 271.872 305.425832 
L 272.22912 305.423836 
L 272.58624 305.448451 
L 272.94336 305.419844 
L 273.30048 305.427162 
L 273.6576 305.427162 
L 274.01472 305.433815 
L 274.37184 305.412526 
L 274.72896 305.453108 
L 275.08608 305.418514 
L 275.4432 305.425832 
L 275.80032 305.431154 
L 276.15744 305.427828 
L 276.51456 305.431154 
L 276.87168 305.424501 
L 277.2288 305.411861 
L 277.58592 305.423171 
L 277.94304 305.418514 
L 278.30016 305.428493 
L 278.65728 305.450447 
L 279.0144 305.429158 
L 279.37152 305.441133 
L 279.72864 305.406539 
L 280.08576 305.42184 
L 280.44288 305.427828 
L 280.8 305.413857 
L 281.15712 305.414522 
L 281.51424 305.412526 
L 281.87136 305.420509 
L 282.22848 305.435811 
L 282.5856 305.4092 
L 282.94272 305.417183 
L 283.29984 305.429823 
L 283.65696 305.42184 
L 284.01408 305.435146 
L 284.3712 305.435146 
L 284.72832 305.455104 
L 285.08544 305.415187 
L 285.44256 305.424501 
L 285.79968 305.438472 
L 286.1568 305.424501 
L 286.51392 305.419844 
L 286.87104 305.428493 
L 287.22816 305.438472 
L 287.58528 305.411196 
L 287.9424 305.429823 
L 288.29952 305.415187 
L 288.65664 305.414522 
L 289.01376 305.440468 
L 289.37088 305.419179 
L 289.728 305.427828 
L 290.08512 305.43315 
L 290.44224 305.430489 
L 290.79936 305.417183 
L 291.15648 305.431154 
L 291.5136 305.427828 
L 291.87072 305.427162 
L 292.22784 305.439803 
L 292.58496 305.427162 
L 292.94208 305.427162 
L 293.2992 305.398555 
L 293.65632 305.404543 
L 294.01344 305.433815 
L 294.37056 305.414522 
L 294.72768 305.436476 
L 295.0848 305.437807 
L 295.44192 305.43448 
L 295.79904 305.419844 
L 296.15616 305.409865 
L 296.51328 305.430489 
L 296.8704 305.435811 
L 297.22752 305.427828 
L 297.58464 305.417183 
L 297.94176 305.433815 
L 298.29888 305.424501 
L 298.656 305.416518 
L 299.01312 305.423171 
L 299.37024 305.431819 
L 299.72736 305.429823 
L 300.08448 305.426497 
L 300.4416 305.422505 
L 300.79872 305.430489 
L 301.15584 305.435811 
L 301.51296 305.416518 
L 301.87008 305.442464 
L 302.2272 305.411196 
L 302.58432 305.415187 
L 302.94144 305.426497 
L 303.29856 305.436476 
L 303.65568 305.425166 
L 304.0128 305.417848 
L 304.36992 305.419844 
L 304.72704 305.42184 
L 305.08416 305.412526 
L 305.44128 305.43315 
L 305.7984 305.411861 
L 306.15552 305.417183 
L 306.51264 305.43315 
L 306.86976 305.414522 
L 307.22688 305.43315 
L 307.584 305.411196 
L 307.94112 305.435811 
L 308.29824 305.418514 
L 308.65536 305.430489 
L 309.01248 305.422505 
L 309.3696 305.423836 
L 309.72672 305.436476 
L 310.08384 305.430489 
L 310.44096 305.427828 
L 310.79808 305.428493 
L 311.1552 305.43448 
L 311.51232 305.422505 
L 311.86944 305.439803 
L 312.22656 305.415187 
L 312.58368 305.420509 
L 312.9408 305.411861 
L 313.29792 305.440468 
L 313.65504 305.415187 
L 314.01216 305.414522 
L 314.36928 305.427162 
L 314.7264 305.401216 
L 315.08352 305.440468 
L 315.44064 305.43315 
L 315.79776 305.414522 
L 316.15488 305.420509 
L 316.512 305.417848 
L 316.86912 305.398555 
L 317.22624 305.414522 
L 317.58336 305.437141 
L 317.94048 305.425832 
L 318.2976 305.438472 
L 318.65472 305.416518 
L 319.01184 305.420509 
L 319.36896 305.417183 
L 319.72608 305.4092 
L 320.0832 305.4092 
L 320.44032 305.418514 
L 320.79744 305.427828 
L 321.15456 305.417848 
L 321.51168 305.43315 
L 321.8688 305.4092 
L 322.22592 305.423171 
L 322.58304 305.441133 
L 322.94016 305.423836 
L 323.29728 305.429823 
L 323.6544 305.413857 
L 324.01152 305.431154 
L 324.36864 305.415187 
L 324.72576 305.423836 
L 325.08288 305.422505 
L 325.44 305.413857 
L 325.79712 305.416518 
L 326.15424 305.435811 
L 326.51136 305.406539 
L 326.86848 305.429158 
L 327.2256 305.413857 
L 327.58272 305.435811 
L 327.93984 305.423836 
L 328.29696 305.437141 
L 328.65408 305.422505 
L 329.0112 305.408534 
L 329.36832 305.437141 
L 329.72544 305.440468 
L 330.08256 305.423171 
L 330.43968 305.427162 
L 330.7968 305.417848 
L 331.15392 305.407869 
L 331.51104 305.428493 
L 331.86816 305.441133 
L 332.22528 305.411861 
L 332.5824 305.427162 
L 332.93952 305.425166 
L 333.29664 305.423171 
L 333.65376 305.441798 
L 334.01088 305.419179 
L 334.368 305.425166 
L 334.72512 305.454439 
L 335.08224 305.418514 
L 335.43936 305.426497 
L 335.79648 305.430489 
L 336.1536 305.427828 
L 336.51072 305.416518 
L 336.86784 305.422505 
L 337.22496 305.42184 
L 337.58208 305.430489 
L 337.9392 305.437807 
L 338.29632 305.423171 
L 338.65344 305.401882 
L 339.01056 305.431154 
L 339.36768 305.414522 
L 339.7248 305.431154 
L 340.08192 305.427162 
L 340.43904 305.428493 
L 340.79616 305.417848 
L 341.15328 305.425166 
L 341.5104 305.421175 
L 341.86752 305.437141 
L 342.22464 305.425166 
L 342.58176 305.427162 
L 342.93888 305.418514 
L 343.296 305.430489 
L 343.65312 305.412526 
L 344.01024 305.427828 
L 344.36736 305.419844 
L 344.72448 305.423171 
L 345.0816 305.448451 
L 345.43872 305.417183 
L 345.79584 305.411861 
L 346.15296 305.415187 
L 346.51008 305.404543 
L 346.8672 305.433815 
L 347.22432 305.419179 
L 347.58144 305.423171 
L 347.93856 305.425832 
L 348.29568 305.430489 
L 348.6528 305.428493 
L 349.00992 305.439137 
L 349.36704 305.426497 
L 349.72416 305.419179 
L 350.08128 305.405873 
L 350.4384 305.412526 
L 350.79552 305.415187 
L 351.15264 305.407204 
L 351.50976 305.423836 
L 351.86688 305.428493 
L 352.224 305.4092 
L 352.58112 305.43448 
L 352.93824 305.419844 
L 353.29536 305.429823 
L 353.65248 305.412526 
L 354.0096 305.417848 
L 354.36672 305.415187 
L 354.72384 305.42184 
L 355.08096 305.43315 
L 355.43808 305.421175 
L 355.7952 305.425166 
L 356.15232 305.417183 
L 356.50944 305.41053 
L 356.86656 305.415852 
L 357.22368 305.425166 
L 357.5808 305.423836 
L 357.93792 305.432484 
L 358.29504 305.425832 
L 358.65216 305.415187 
L 359.00928 305.430489 
L 359.3664 305.411861 
L 359.72352 305.412526 
L 360.08064 305.430489 
L 360.43776 305.414522 
L 360.79488 305.418514 
L 361.152 305.431819 
L 361.50912 305.428493 
L 361.86624 305.415852 
L 362.22336 305.420509 
L 362.58048 305.403877 
L 362.9376 305.443129 
L 363.29472 305.41053 
L 363.65184 305.411861 
L 364.00896 305.409865 
L 364.36608 305.408534 
L 364.7232 305.435811 
L 365.08032 305.421175 
L 365.43744 305.440468 
L 365.79456 305.420509 
L 366.15168 305.419179 
L 366.5088 305.413191 
L 366.86592 305.427162 
L 367.22304 305.415187 
L 367.58016 305.411196 
L 367.93728 305.418514 
L 368.2944 305.412526 
L 368.65152 305.429823 
L 369.00864 305.429158 
L 369.36576 305.418514 
L 369.72288 305.416518 
L 370.08 305.426497 
L 370.43712 305.435811 
L 370.79424 305.429823 
L 371.15136 305.414522 
L 371.50848 305.424501 
L 371.8656 305.42184 
L 372.22272 305.417183 
L 372.57984 305.416518 
L 372.93696 305.442464 
L 373.29408 305.425166 
L 373.6512 305.398555 
L 374.00832 305.414522 
L 374.36544 305.433815 
L 374.72256 305.4092 
L 375.07968 305.41053 
L 375.4368 305.423836 
L 375.79392 305.435811 
L 376.15104 305.439137 
L 376.50816 305.427828 
L 376.86528 305.412526 
L 377.2224 305.437807 
L 377.57952 305.429158 
L 377.93664 305.42184 
L 378.29376 305.424501 
L 378.65088 305.42184 
L 379.008 305.425832 
L 379.36512 305.419179 
L 379.72224 305.43448 
L 380.07936 305.423836 
L 380.43648 305.427828 
L 380.7936 305.432484 
L 381.15072 305.423171 
L 381.50784 305.423171 
L 381.86496 305.425832 
L 382.22208 305.424501 
L 382.5792 305.4092 
L 382.93632 305.405873 
L 383.29344 305.44579 
L 383.65056 305.403877 
L 384.00768 305.427162 
L 384.3648 305.435811 
L 384.72192 305.414522 
L 385.07904 305.440468 
L 385.43616 305.429158 
L 385.79328 305.425166 
L 386.1504 305.4092 
L 386.50752 305.43315 
L 386.86464 305.446455 
L 387.22176 305.420509 
L 387.57888 305.417848 
L 387.936 305.426497 
L 388.29312 305.424501 
L 388.65024 305.425166 
L 389.00736 305.425832 
L 389.36448 305.425832 
L 389.7216 305.437807 
L 390.07872 305.403877 
L 390.43584 305.424501 
L 390.79296 305.432484 
L 391.15008 305.418514 
L 391.5072 305.419179 
L 391.86432 305.427162 
L 392.22144 305.424501 
L 392.57856 305.421175 
L 392.93568 305.417848 
L 393.2928 305.411196 
L 393.64992 305.413857 
L 394.00704 305.439137 
L 394.36416 305.44446 
L 394.72128 305.422505 
L 395.0784 305.427162 
L 395.43552 305.425832 
L 395.79264 305.429823 
L 396.14976 305.428493 
L 396.50688 305.417183 
L 396.864 305.425166 
L 397.22112 305.427828 
L 397.57824 305.445125 
L 397.93536 305.413857 
L 398.29248 305.415187 
L 398.6496 305.407204 
L 399.00672 305.419844 
L 399.36384 305.430489 
L 399.72096 305.424501 
L 400.07808 305.411861 
L 400.4352 305.430489 
L 400.79232 305.42184 
L 401.14944 305.406539 
L 401.50656 305.437141 
L 401.86368 305.427162 
L 402.2208 305.413191 
L 402.57792 305.411196 
L 402.93504 305.413857 
L 403.29216 305.427828 
L 403.64928 305.435811 
L 404.0064 305.417183 
L 404.36352 305.417183 
L 404.72064 305.422505 
L 405.07776 305.427162 
L 405.43488 305.424501 
L 405.792 305.43315 
L 406.14912 305.435146 
L 406.50624 305.428493 
L 406.86336 305.409865 
L 407.22048 305.426497 
L 407.5776 305.435811 
L 407.93472 305.430489 
L 408.29184 305.420509 
L 408.64896 305.417183 
L 409.00608 305.439137 
L 409.3632 305.446455 
L 409.72032 305.443794 
L 410.07744 305.422505 
L 410.43456 305.404543 
L 410.79168 305.419179 
L 411.1488 305.409865 
L 411.50592 305.439803 
L 411.86304 305.427828 
L 412.22016 305.411861 
L 412.57728 305.422505 
L 412.9344 305.413191 
L 413.29152 305.428493 
L 413.64864 305.431819 
L 414.00576 305.422505 
L 414.36288 305.422505 
L 414.72 305.415852 
L 414.72 147.054597 
L 414.72 147.054597 
L 414.36288 146.697342 
L 414.00576 146.799795 
L 413.64864 148.055178 
L 413.29152 147.223578 
L 412.9344 147.027986 
L 412.57728 146.974098 
L 412.22016 147.535595 
L 411.86304 147.42915 
L 411.50592 147.383911 
L 411.1488 147.365948 
L 410.79168 147.192975 
L 410.43456 147.544243 
L 410.07744 147.018007 
L 409.72032 147.349981 
L 409.3632 147.461083 
L 409.00608 147.473724 
L 408.64896 147.485699 
L 408.29184 147.301416 
L 407.93472 147.226239 
L 407.5776 147.324701 
L 407.22048 147.054597 
L 406.86336 147.507653 
L 406.50624 146.951479 
L 406.14912 147.708567 
L 405.792 147.393225 
L 405.43488 147.283453 
L 405.07776 147.018672 
L 404.72064 147.665324 
L 404.36352 147.543578 
L 404.0064 147.582829 
L 403.64928 146.936843 
L 403.29216 147.921457 
L 402.93504 147.052601 
L 402.57792 147.622081 
L 402.2208 147.387902 
L 401.86368 147.159046 
L 401.50656 147.357965 
L 401.14944 147.363952 
L 400.79232 147.51364 
L 400.4352 147.443786 
L 400.07808 147.347986 
L 399.72096 147.389233 
L 399.36384 147.198298 
L 399.00672 147.234888 
L 398.6496 146.670731 
L 398.29248 147.723869 
L 397.93536 147.198963 
L 397.57824 147.219587 
L 397.22112 146.851687 
L 396.864 148.008609 
L 396.50688 147.345324 
L 396.14976 147.200293 
L 395.79264 146.972768 
L 395.43552 147.282123 
L 395.0784 147.222913 
L 394.72128 147.672642 
L 394.36416 147.663994 
L 394.00704 147.338672 
L 393.64992 146.435221 
L 393.2928 147.640044 
L 392.93568 147.580834 
L 392.57856 147.57285 
L 392.22144 147.282123 
L 391.86432 147.709233 
L 391.5072 146.829067 
L 391.15008 147.763786 
L 390.79296 147.15572 
L 390.43584 147.706572 
L 390.07872 147.161042 
L 389.7216 147.215595 
L 389.36448 146.992726 
L 389.00736 147.056593 
L 388.65024 147.864243 
L 388.29312 147.642039 
L 387.936 147.357965 
L 387.57888 147.521624 
L 387.22176 147.916135 
L 386.86464 147.353308 
L 386.50752 147.805033 
L 386.1504 147.655345 
L 385.79328 147.390564 
L 385.43616 147.794388 
L 385.07904 147.504326 
L 384.72192 147.38125 
L 384.3648 147.424493 
L 384.00768 147.709898 
L 383.65056 147.477715 
L 383.29344 147.473724 
L 382.93632 147.394555 
L 382.5792 147.485699 
L 382.22208 147.082539 
L 381.86496 147.252185 
L 381.50784 147.419836 
L 381.15072 147.00204 
L 380.7936 147.531603 
L 380.43648 147.387237 
L 380.07936 147.192975 
L 379.72224 147.224909 
L 379.36512 147.70258 
L 379.008 147.793058 
L 378.65088 147.41784 
L 378.29376 147.335345 
L 377.93664 146.847695 
L 377.57952 147.69127 
L 377.2224 147.78574 
L 376.86528 147.894846 
L 376.50816 148.216841 
L 376.15104 147.473724 
L 375.79392 147.72786 
L 375.4368 147.373266 
L 375.07968 147.373266 
L 374.72256 147.051936 
L 374.36544 147.614098 
L 374.00832 147.617424 
L 373.6512 147.241541 
L 373.29408 147.459753 
L 372.93696 147.544908 
L 372.57984 147.372601 
L 372.22272 147.041957 
L 371.8656 146.843703 
L 371.50848 147.149067 
L 371.15136 147.606114 
L 370.79424 147.455761 
L 370.43712 147.54757 
L 370.08 147.527611 
L 369.72288 148.008609 
L 369.36576 147.485699 
L 369.00864 147.25152 
L 368.65152 146.929524 
L 368.2944 147.418505 
L 367.93728 148.11838 
L 367.58016 147.57285 
L 367.22304 147.366613 
L 366.86592 147.769773 
L 366.5088 147.064576 
L 366.15168 147.455096 
L 365.79456 147.476385 
L 365.43744 147.540252 
L 365.08032 147.109815 
L 364.7232 147.282788 
L 364.36608 147.546239 
L 364.00896 147.424493 
L 363.65184 147.229566 
L 363.29472 147.729191 
L 362.9376 147.359961 
L 362.58048 147.252851 
L 362.22336 147.544243 
L 361.86624 147.368609 
L 361.50912 147.688609 
L 361.152 147.423162 
L 360.79488 147.583495 
L 360.43776 147.711894 
L 360.08064 148.256093 
L 359.72352 147.675303 
L 359.3664 147.397882 
L 359.00928 147.927444 
L 358.65216 148.200875 
L 358.29504 147.942746 
L 357.93792 148.065157 
L 357.5808 148.159627 
L 357.22368 147.767777 
L 356.86656 147.497008 
L 356.50944 147.836301 
L 356.15232 147.035969 
L 355.7952 147.453765 
L 355.43808 147.802372 
L 355.08096 147.427819 
L 354.72384 147.361291 
L 354.36672 147.549565 
L 354.0096 147.574181 
L 353.65248 147.794388 
L 353.29536 147.737174 
L 352.93824 147.451104 
L 352.58112 147.282788 
L 352.224 147.743162 
L 351.86688 147.748484 
L 351.50976 147.352643 
L 351.15264 147.507653 
L 350.79552 147.565532 
L 350.4384 147.265491 
L 350.08128 146.831063 
L 349.72416 147.443786 
L 349.36704 147.469067 
L 349.00992 147.614763 
L 348.6528 147.652019 
L 348.29568 147.612767 
L 347.93856 147.631395 
L 347.58144 147.808359 
L 347.22432 147.63073 
L 346.8672 147.884201 
L 346.51008 147.354638 
L 346.15296 147.80969 
L 345.79584 147.318713 
L 345.43872 146.992726 
L 345.0816 147.330688 
L 344.72448 147.667985 
L 344.36736 147.439129 
L 344.01024 148.025241 
L 343.65312 147.888193 
L 343.296 147.536925 
L 342.93888 147.314056 
L 342.58176 147.205616 
L 342.22464 147.147736 
L 341.86752 147.149732 
L 341.5104 147.161042 
L 341.15328 146.771853 
L 340.79616 147.499004 
L 340.43904 147.362622 
L 340.08192 146.897591 
L 339.7248 147.030647 
L 339.36768 147.310065 
L 339.01056 147.33468 
L 338.65344 147.888193 
L 338.29632 147.530938 
L 337.9392 146.940834 
L 337.58208 147.008028 
L 337.22496 147.286115 
L 336.86784 147.487029 
L 336.51072 147.121125 
L 336.1536 146.938838 
L 335.79648 146.878963 
L 335.43936 147.12046 
L 335.08224 147.814347 
L 334.72512 147.169691 
L 334.368 147.248194 
L 334.01088 147.47705 
L 333.65376 147.054597 
L 333.29664 147.218256 
L 332.93952 147.294763 
L 332.5824 147.023994 
L 332.22528 147.112476 
L 331.86816 146.922206 
L 331.51104 147.27547 
L 331.15392 147.56021 
L 330.7968 147.225574 
L 330.43968 147.603453 
L 330.08256 146.974098 
L 329.72544 147.39522 
L 329.36832 147.71389 
L 329.0112 146.839046 
L 328.65408 147.483703 
L 328.29696 146.902913 
L 327.93984 147.180335 
L 327.58272 147.040626 
L 327.2256 147.366613 
L 326.86848 147.282788 
L 326.51136 146.825741 
L 326.15424 146.914223 
L 325.79712 147.256842 
L 325.44 147.419171 
L 325.08288 146.884951 
L 324.72576 146.851687 
L 324.36864 147.32204 
L 324.01152 147.129774 
L 323.6544 147.825657 
L 323.29728 147.091188 
L 322.94016 147.411852 
L 322.58304 147.487694 
L 322.22592 147.922122 
L 321.8688 147.093183 
L 321.51168 147.719877 
L 321.15456 147.276135 
L 320.79744 147.258173 
L 320.44032 147.407196 
L 320.0832 147.225574 
L 319.72608 147.33468 
L 319.36896 146.914888 
L 319.01184 147.550896 
L 318.65472 147.085865 
L 318.2976 147.68994 
L 317.94048 147.407861 
L 317.58336 147.659337 
L 317.22624 147.195636 
L 316.86912 147.350647 
L 316.512 147.794388 
L 316.15488 147.759794 
L 315.79776 147.098506 
L 315.44064 147.497674 
L 315.08352 147.370605 
L 314.7264 147.125782 
L 314.36928 147.005366 
L 314.01216 147.252185 
L 313.65504 147.005366 
L 313.29792 147.556218 
L 312.9408 147.496343 
L 312.58368 147.871561 
L 312.22656 147.500335 
L 311.86944 147.4052 
L 311.51232 146.984743 
L 311.1552 147.775761 
L 310.79808 147.180335 
L 310.44096 146.952809 
L 310.08384 147.449773 
L 309.72672 147.014015 
L 309.3696 147.570189 
L 309.01248 147.263495 
L 308.65536 147.429815 
L 308.29824 147.926779 
L 307.94112 147.429815 
L 307.584 147.080543 
L 307.22688 147.481707 
L 306.86976 147.254846 
L 306.51264 147.56021 
L 306.15552 147.185657 
L 305.7984 147.593474 
L 305.44128 147.231562 
L 305.08416 147.610771 
L 304.72704 147.206946 
L 304.36992 147.379919 
L 304.0128 147.741831 
L 303.65568 147.060585 
L 303.29856 147.353973 
L 302.94144 147.420501 
L 302.58432 147.587486 
L 302.2272 147.860251 
L 301.87008 147.759129 
L 301.51296 147.710563 
L 301.15584 147.477715 
L 300.79872 147.346655 
L 300.4416 147.541582 
L 300.08448 147.341333 
L 299.72736 147.655345 
L 299.37024 147.618089 
L 299.01312 147.835636 
L 298.656 147.592143 
L 298.29888 147.451104 
L 297.94176 147.526946 
L 297.58464 147.364618 
L 297.22752 147.485699 
L 296.8704 146.944826 
L 296.51328 147.448443 
L 296.15616 147.930106 
L 295.79904 147.210938 
L 295.44192 147.753141 
L 295.0848 147.966031 
L 294.72768 147.101832 
L 294.37056 147.439794 
L 294.01344 147.018672 
L 293.65632 147.757133 
L 293.2992 147.526281 
L 292.94208 147.865573 
L 292.58496 147.729856 
L 292.22784 147.587486 
L 291.87072 147.387902 
L 291.5136 147.471062 
L 291.15648 147.293433 
L 290.79936 147.568859 
L 290.44224 147.186988 
L 290.08512 147.031312 
L 289.728 147.41784 
L 289.37088 147.668651 
L 289.01376 147.452435 
L 288.65664 147.616093 
L 288.29952 147.387237 
L 287.9424 147.485033 
L 287.58528 147.552227 
L 287.22816 146.93152 
L 286.87104 147.354638 
L 286.51392 147.383911 
L 286.1568 147.445116 
L 285.79968 147.347986 
L 285.44256 148.435718 
L 285.08544 147.320709 
L 284.72832 147.181 
L 284.3712 147.312726 
L 284.01408 147.448443 
L 283.65696 147.001375 
L 283.29984 147.735179 
L 282.94272 148.139004 
L 282.5856 147.568193 
L 282.22848 147.675969 
L 281.87136 147.463079 
L 281.51424 147.57152 
L 281.15712 147.470397 
L 280.8 147.805698 
L 280.44288 147.883536 
L 280.08576 147.644035 
L 279.72864 147.742497 
L 279.37152 147.521624 
L 279.0144 147.467736 
L 278.65728 147.699919 
L 278.30016 147.445116 
L 277.94304 147.77443 
L 277.58592 147.875553 
L 277.2288 147.687944 
L 276.87168 147.90416 
L 276.51456 147.98732 
L 276.15744 147.590148 
L 275.80032 147.867569 
L 275.4432 148.727111 
L 275.08608 147.481707 
L 274.72896 151.211267 
L 274.37184 147.878214 
L 274.01472 147.611436 
L 273.6576 147.598131 
L 273.30048 147.26416 
L 272.94336 152.737419 
L 272.58624 149.596632 
L 272.22912 147.776426 
L 271.872 154.729932 
L 271.51488 148.78366 
L 271.15776 154.948144 
L 270.80064 147.799711 
L 270.44352 148.065823 
L 270.0864 149.414345 
L 269.72928 147.391229 
L 269.37216 148.591394 
L 269.01504 147.352643 
L 268.65792 147.455096 
L 268.3008 147.679295 
L 267.94368 147.608775 
L 267.58656 148.577423 
L 267.22944 147.707902 
L 266.87232 147.501665 
L 266.5152 147.277466 
L 266.15808 147.756468 
L 265.80096 147.835636 
L 265.44384 149.854761 
L 265.08672 147.628068 
L 264.7296 147.727195 
L 264.37248 147.642039 
L 264.01536 147.445782 
L 263.65824 147.494347 
L 263.30112 147.628068 
L 262.944 147.88154 
L 262.58688 147.298755 
L 262.22976 147.661998 
L 261.87264 147.751145 
L 261.51552 147.362622 
L 261.1584 148.179586 
L 260.80128 148.139004 
L 260.44416 147.775095 
L 260.08704 147.692601 
L 259.72992 147.327362 
L 259.3728 148.200209 
L 259.01568 148.098421 
L 258.65856 147.964035 
L 258.30144 148.067819 
L 257.94432 147.647362 
L 257.5872 148.611352 
L 257.23008 148.465656 
L 256.87296 147.731852 
L 256.51584 148.195552 
L 256.15872 147.510979 
L 255.8016 148.113723 
L 255.44448 148.116384 
L 255.08736 148.612018 
L 254.73024 147.67863 
L 254.37312 147.780418 
L 254.016 147.970688 
L 253.65888 148.053848 
L 253.30176 147.882871 
L 252.94464 147.659337 
L 252.58752 148.069814 
L 252.2304 147.730522 
L 251.87328 148.101083 
L 251.51616 147.813682 
L 251.15904 147.832309 
L 250.80192 147.733848 
L 250.4448 148.327278 
L 250.08768 147.648692 
L 249.73056 147.968027 
L 249.37344 147.757798 
L 249.01632 148.532184 
L 248.6592 148.256093 
L 248.30208 148.02391 
L 247.94496 148.294014 
L 247.58784 148.282704 
L 247.23072 148.185573 
L 246.8736 147.588152 
L 246.51648 148.266737 
L 246.15936 148.212184 
L 245.80224 148.167611 
L 245.44512 147.885532 
L 245.088 148.324617 
L 244.73088 148.762371 
L 244.37376 148.133681 
L 244.01664 147.779087 
L 243.65952 148.065823 
L 243.3024 148.138338 
L 242.94528 148.577423 
L 242.58816 148.530853 
L 242.23104 148.198213 
L 241.87392 148.150979 
L 241.5168 148.390479 
L 241.15968 147.874222 
L 240.80256 147.956052 
L 240.44544 148.156966 
L 240.08832 148.049856 
L 239.7312 147.710563 
L 239.37408 147.73784 
L 239.01696 148.268068 
L 238.65984 147.539586 
L 238.30272 148.411103 
L 237.9456 147.960708 
L 237.58848 148.317299 
L 237.23136 147.711228 
L 236.87424 148.813597 
L 236.51712 147.944076 
L 236.16 148.101083 
L 235.80288 147.788401 
L 235.44576 148.189565 
L 235.08864 148.377174 
L 234.73152 148.595386 
L 234.3744 148.256758 
L 234.01728 148.301997 
L 233.66016 148.148317 
L 233.30304 147.944742 
L 232.94592 148.312642 
L 232.5888 148.847527 
L 232.23168 148.747069 
L 231.87456 148.423743 
L 231.51744 148.830229 
L 231.16032 149.080375 
L 230.8032 148.876134 
L 230.44608 149.410354 
L 230.08896 148.658587 
L 229.73184 148.773015 
L 229.37472 149.253348 
L 229.0176 148.520209 
L 228.66048 146.344743 
L 228.30336 139.931444 
L 227.94624 132.719144 
L 227.58912 126.515408 
L 227.232 120.738781 
L 226.87488 117.733712 
L 226.51776 119.51267 
L 226.16064 117.135625 
L 225.80352 125.187509 
L 225.4464 116.310678 
L 225.08928 121.570381 
L 224.73216 120.052878 
L 224.37504 114.951511 
L 224.01792 124.556823 
L 223.6608 123.603477 
L 223.30368 124.063186 
L 222.94656 117.564065 
L 222.58944 114.053383 
L 222.23232 113.595005 
L 221.8752 111.275173 
L 221.51808 110.338459 
L 221.16096 114.169807 
L 220.80384 114.842405 
L 220.44672 115.159078 
L 220.0896 128.253119 
L 219.73248 115.363319 
L 219.37536 116.602736 
L 219.01824 120.919072 
L 218.66112 104.998922 
L 218.304 120.547181 
L 217.94688 105.95626 
L 217.58976 114.386688 
L 217.23264 108.620041 
L 216.87552 116.919409 
L 216.5184 113.291637 
L 216.16128 113.810556 
L 215.80416 103.525327 
L 215.44704 102.313852 
L 215.08992 100.655309 
L 214.7328 103.223955 
L 214.37568 103.700295 
L 214.01856 101.496888 
L 213.66144 103.683663 
L 213.30432 99.45847 
L 212.9472 97.09473 
L 212.59008 103.341044 
L 212.23296 102.209403 
L 211.87584 102.270609 
L 211.51872 103.816054 
L 211.1616 95.737559 
L 210.80448 97.970904 
L 210.44736 93.346543 
L 210.09024 95.00442 
L 209.73312 93.141636 
L 209.376 93.94596 
L 209.01888 94.68309 
L 208.66176 96.3576 
L 208.30464 95.621135 
L 207.94752 97.535146 
L 207.5904 95.666374 
L 207.23328 99.733231 
L 206.87616 93.973902 
L 206.51904 94.637851 
L 206.16192 93.443008 
L 205.8048 93.071782 
L 205.44768 95.818723 
L 205.09056 95.411572 
L 204.73344 97.179221 
L 204.37632 92.858227 
L 204.0192 93.712447 
L 203.66208 96.153359 
L 203.30496 94.078351 
L 202.94784 95.331738 
L 202.59072 94.221386 
L 202.2336 92.987292 
L 201.87648 97.752692 
L 201.51936 92.287417 
L 201.16224 96.819304 
L 200.80512 95.275855 
L 200.448 92.204257 
L 200.09088 92.221554 
L 199.73376 92.791699 
L 199.37664 93.145628 
L 199.01952 93.236772 
L 198.6624 93.164256 
L 198.30528 92.895483 
L 197.94816 92.365255 
L 197.59104 93.160264 
L 197.23392 93.089079 
L 196.8768 93.562093 
L 196.51968 93.401761 
L 196.16256 92.753778 
L 195.80544 90.122596 
L 195.44832 87.786798 
L 195.0912 88.953699 
L 194.73408 88.81399 
L 194.37696 91.741887 
L 194.01984 87.291164 
L 193.66272 95.028371 
L 193.3056 89.797274 
L 192.94848 84.749795 
L 192.59136 85.987215 
L 192.23424 85.516197 
L 191.87712 92.908123 
L 191.52 91.298811 
L 191.16288 87.416902 
L 190.80576 82.856408 
L 190.44864 87.704968 
L 190.09152 82.112625 
L 189.7344 85.19021 
L 189.37728 87.33973 
L 189.02016 84.137072 
L 188.66304 86.9379 
L 188.30592 92.347957 
L 187.9488 99.716599 
L 187.59168 84.600772 
L 187.23456 91.071285 
L 186.87744 92.351949 
L 186.52032 91.266877 
L 186.1632 93.240098 
L 185.80608 92.91145 
L 185.44896 92.854236 
L 185.09184 97.821881 
L 184.73472 86.836113 
L 184.3776 85.354534 
L 184.02048 87.508711 
L 183.66336 87.082266 
L 183.30624 82.361439 
L 182.94912 86.711705 
L 182.592 84.802352 
L 182.23488 83.499068 
L 181.87776 89.589041 
L 181.52064 89.463303 
L 181.16352 95.492071 
L 180.8064 92.189621 
L 180.44928 85.146967 
L 180.09216 81.13932 
L 179.73504 85.365179 
L 179.37792 83.503725 
L 179.0208 87.68634 
L 178.66368 91.219643 
L 178.30656 90.804508 
L 177.94944 93.36384 
L 177.59232 85.278692 
L 177.2352 82.737323 
L 176.87808 88.746132 
L 176.52096 88.601766 
L 176.16384 95.800761 
L 175.80672 96.295064 
L 175.4496 83.221646 
L 175.09248 88.407504 
L 174.73536 89.020892 
L 174.37824 87.8979 
L 174.02112 83.42123 
L 173.664 85.839523 
L 173.30688 92.431783 
L 172.94976 84.864223 
L 172.59264 88.26846 
L 172.23552 81.944309 
L 171.8784 84.361271 
L 171.52128 83.880939 
L 171.16416 87.386299 
L 170.80704 85.660563 
L 170.44992 84.898152 
L 170.0928 81.651586 
L 169.73568 80.048261 
L 169.37856 81.294996 
L 169.02144 76.825644 
L 168.66432 78.731672 
L 168.3072 76.836289 
L 167.95008 78.412337 
L 167.59296 78.889343 
L 167.23584 78.065061 
L 166.87872 80.656327 
L 166.5216 80.844601 
L 166.16448 77.003274 
L 165.80736 80.554539 
L 165.45024 80.762772 
L 165.09312 78.740986 
L 164.736 87.694989 
L 164.37888 83.984723 
L 164.02176 84.58547 
L 163.66464 80.92643 
L 163.30752 84.781063 
L 162.9504 83.969421 
L 162.59328 85.900729 
L 162.23616 94.480845 
L 161.87904 88.608419 
L 161.52192 87.208004 
L 161.1648 90.208417 
L 160.80768 87.796112 
L 160.45056 85.140314 
L 160.09344 94.339806 
L 159.73632 88.408169 
L 159.3792 91.549621 
L 159.02208 91.595526 
L 158.66496 93.971241 
L 158.30784 90.494487 
L 157.95072 89.528501 
L 157.5936 98.512442 
L 157.23648 95.058973 
L 156.87936 100.886826 
L 156.52224 102.89065 
L 156.16512 92.269454 
L 155.808 97.5092 
L 155.45088 96.543878 
L 155.09376 98.358762 
L 154.73664 94.806167 
L 154.37952 91.882927 
L 154.0224 96.84392 
L 153.66528 95.33706 
L 153.30816 104.171314 
L 152.95104 102.082334 
L 152.59392 105.897715 
L 152.2368 100.041255 
L 151.87968 103.680337 
L 151.52256 103.311107 
L 151.16544 104.631022 
L 150.80832 106.270272 
L 150.4512 106.0168 
L 150.09408 107.384616 
L 149.73696 99.709281 
L 149.37984 108.92607 
L 149.02272 109.158918 
L 148.6656 104.730149 
L 148.30848 107.226945 
L 147.95136 108.756423 
L 147.59424 110.015798 
L 147.23712 109.488231 
L 146.88 108.959334 
L 146.52288 105.626946 
L 146.16576 107.236924 
L 145.80864 108.141039 
L 145.45152 109.922659 
L 145.0944 100.342627 
L 144.73728 107.723909 
L 144.38016 107.966071 
L 144.02304 107.166404 
L 143.66592 109.214136 
L 143.3088 109.5674 
L 142.95168 104.010981 
L 142.59456 107.53763 
L 142.23744 108.119085 
L 141.88032 109.597337 
L 141.5232 110.612555 
L 141.16608 109.772306 
L 140.80896 109.72241 
L 140.45184 107.722578 
L 140.09472 108.851558 
L 139.7376 109.371807 
L 139.38048 110.618542 
L 139.02336 111.116172 
L 138.66624 113.137292 
L 138.30912 111.949102 
L 137.952 112.570474 
L 137.59488 113.435338 
L 137.23776 112.793342 
L 136.88064 113.638913 
L 136.52352 111.977709 
L 136.1664 115.133797 
L 135.80928 112.334964 
L 135.45216 113.424693 
L 135.09504 114.882322 
L 134.73792 115.002072 
L 134.3808 113.858456 
L 134.02368 113.145276 
L 133.66656 112.969642 
L 133.30944 117.124315 
L 132.95232 117.398411 
L 132.5952 116.085148 
L 132.23808 115.821032 
L 131.88096 117.043816 
L 131.52384 115.153756 
L 131.16672 114.908933 
L 130.8096 115.490388 
L 130.45248 115.841655 
L 130.09536 116.395834 
L 129.73824 116.732465 
L 129.38112 117.309928 
L 129.024 118.725644 
L 128.66688 118.221362 
L 128.30976 117.961903 
L 127.95264 118.641819 
L 127.59552 118.460197 
L 127.2384 119.016372 
L 126.88128 118.673087 
L 126.52416 122.821108 
L 126.16704 124.053206 
L 125.80992 121.737367 
L 125.4528 120.855205 
L 125.09568 121.990173 
L 124.73856 122.487137 
L 124.38144 122.779195 
L 124.02432 122.733291 
L 123.6672 125.975866 
L 123.31008 126.257279 
L 122.95296 127.403556 
L 122.59584 127.453452 
L 122.23872 128.21919 
L 121.8816 127.55391 
L 121.52448 129.378108 
L 121.16736 128.436071 
L 120.81024 128.808628 
L 120.45312 130.271579 
L 120.096 130.967461 
L 119.73888 130.698688 
L 119.38176 130.532368 
L 119.02464 134.151492 
L 118.66752 133.8275 
L 118.3104 135.079557 
L 117.95328 131.34534 
L 117.59616 131.987336 
L 117.23904 133.530785 
L 116.88192 132.290703 
L 116.5248 134.126876 
L 116.16768 136.801302 
L 115.81056 134.500764 
L 115.45344 135.923132 
L 115.09632 134.5154 
L 114.7392 137.442632 
L 114.38208 137.102674 
L 114.02496 138.749907 
L 113.66784 137.812527 
L 113.31072 137.55706 
L 112.9536 138.500427 
L 112.59648 143.134767 
L 112.23936 139.106497 
L 111.88224 137.232403 
L 111.52512 140.262088 
L 111.168 141.114312 
L 110.81088 139.088534 
L 110.45376 141.874062 
L 110.09664 144.338924 
L 109.73952 142.750901 
L 109.3824 144.925701 
L 109.02528 144.443373 
L 108.66816 138.957474 
L 108.31104 143.09352 
L 107.95392 143.147408 
L 107.5968 144.714807 
L 107.23968 143.875224 
L 106.88256 148.695843 
L 106.52544 142.971108 
L 106.16832 144.259756 
L 105.8112 144.952978 
L 105.45408 147.154389 
L 105.09696 149.705738 
L 104.73984 147.354638 
L 104.38272 149.484865 
L 104.0256 152.243116 
L 103.66848 151.758792 
L 103.31136 154.185733 
L 102.95424 153.688769 
L 102.59712 157.87205 
L 102.24 155.051263 
L 101.88288 155.914131 
L 101.52576 158.49076 
L 101.16864 159.160697 
L 100.81152 157.894669 
L 100.4544 158.815417 
L 100.09728 164.449673 
L 99.74016 166.192042 
L 99.38304 160.153295 
L 99.02592 165.828133 
L 98.6688 167.285762 
L 98.31168 162.545642 
L 97.95456 164.981897 
L 97.59744 165.128259 
L 97.24032 166.792789 
L 96.8832 163.723188 
L 96.52608 164.408426 
L 96.16896 165.665805 
L 95.81184 163.49034 
L 95.45472 165.968508 
L 95.0976 168.90838 
L 94.74048 169.343473 
L 94.38336 168.192539 
L 94.02624 172.450996 
L 93.66912 170.265551 
L 93.312 171.866215 
L 92.95488 174.512033 
L 92.59776 172.848833 
L 92.24064 174.613156 
L 91.88352 176.229121 
L 91.5264 177.710034 
L 91.16928 176.966916 
L 90.81216 180.536144 
L 90.45504 174.893904 
L 90.09792 179.83893 
L 89.7408 182.780133 
L 89.38368 180.178223 
L 89.02656 181.534064 
L 88.66944 186.316762 
L 88.31232 185.650816 
L 87.9552 183.292399 
L 87.59808 183.031609 
L 87.24096 186.309444 
L 86.88384 186.612811 
L 86.52672 188.687154 
L 86.1696 191.460707 
L 85.81248 192.425363 
L 85.45536 191.936382 
L 85.09824 194.711265 
L 84.74112 193.272929 
L 84.384 190.359003 
L 84.02688 190.806736 
L 83.66976 195.33064 
L 83.31264 196.572718 
L 82.95552 194.503032 
L 82.5984 192.387442 
L 82.24128 198.46677 
L 81.88416 200.398078 
L 81.52704 200.824523 
L 81.16992 198.458787 
L 80.8128 201.03342 
L 80.45568 201.047391 
L 80.09856 204.249384 
L 79.74144 204.22876 
L 79.38432 205.840068 
L 79.0272 208.158569 
L 78.67008 206.685639 
L 78.31296 210.254867 
L 77.95584 211.875489 
L 77.59872 217.721969 
L 77.2416 215.762054 
L 76.88448 215.305672 
L 76.52736 218.503673 
L 76.17024 223.787327 
L 75.81312 220.462258 
L 75.456 226.97801 
L 75.09888 223.827244 
L 74.74176 225.886951 
L 74.38464 230.89917 
L 74.02752 226.807033 
L 73.6704 228.552062 
L 73.31328 230.817341 
L 72.95616 234.393221 
L 72.59904 237.108894 
L 72.24192 243.318617 
L 71.8848 241.968099 
L 71.52768 244.357785 
L 71.17056 249.340067 
L 70.81344 250.694577 
L 70.45632 256.838437 
L 70.0992 255.289666 
L 69.74208 255.81058 
L 69.38496 253.178067 
L 69.02784 265.401256 
L 68.67072 263.728077 
L 68.3136 269.374308 
L 67.95648 268.79485 
L 67.59936 272.207736 
L 67.24224 271.926323 
L 66.88512 272.25364 
L 66.528 274.135052 
L 66.17088 275.456964 
L 65.81376 277.303116 
L 65.45664 276.825444 
L 65.09952 278.088146 
L 64.7424 279.867105 
L 64.38528 283.31259 
L 64.02816 282.916083 
L 63.67104 285.940446 
L 63.31392 285.45213 
L 62.9568 287.322898 
L 62.59968 287.326889 
L 62.24256 287.654872 
L 61.88544 287.011547 
L 61.52832 289.947427 
L 61.1712 290.558154 
L 60.81408 290.906096 
L 60.45696 292.004473 
L 60.09984 294.718815 
L 59.74272 297.509 
L 59.3856 299.786253 
L 59.02848 300.529371 
L 58.67136 302.852529 
L 58.31424 303.515813 
L 57.95712 303.570366 
z
" style="fill:#1f77b4;fill-opacity:0.25;"/>
   </g>
   <g id="matplotlib.axis_1">
    <g id="xtick_1">
     <g id="line2d_1">
      <defs>
       <path d="M 0 0 
L 0 4.8 
" id="m5355ae6556" style="stroke:#000000;"/>
      </defs>
      <g>
       <use style="stroke:#000000;" x="57.6" xlink:href="#m5355ae6556" y="307.584"/>
      </g>
     </g>
     <g id="text_1">
      <!-- 0 -->
      <g transform="translate(54.8005 322.570625)scale(0.088 -0.088)">
       <defs>
        <path d="M 2034 4250 
Q 1547 4250 1301 3770 
Q 1056 3291 1056 2328 
Q 1056 1369 1301 889 
Q 1547 409 2034 409 
Q 2525 409 2770 889 
Q 3016 1369 3016 2328 
Q 3016 3291 2770 3770 
Q 2525 4250 2034 4250 
z
M 2034 4750 
Q 2819 4750 3233 4129 
Q 3647 3509 3647 2328 
Q 3647 1150 3233 529 
Q 2819 -91 2034 -91 
Q 1250 -91 836 529 
Q 422 1150 422 2328 
Q 422 3509 836 4129 
Q 1250 4750 2034 4750 
z
" id="DejaVuSans-30" transform="scale(0.015625)"/>
       </defs>
       <use xlink:href="#DejaVuSans-30"/>
      </g>
     </g>
    </g>
    <g id="xtick_2">
     <g id="line2d_2">
      <g>
       <use style="stroke:#000000;" x="129.024" xlink:href="#m5355ae6556" y="307.584"/>
      </g>
     </g>
     <g id="text_2">
      <!-- 200 -->
      <g transform="translate(120.6255 322.570625)scale(0.088 -0.088)">
       <defs>
        <path d="M 1228 531 
L 3431 531 
L 3431 0 
L 469 0 
L 469 531 
Q 828 903 1448 1529 
Q 2069 2156 2228 2338 
Q 2531 2678 2651 2914 
Q 2772 3150 2772 3378 
Q 2772 3750 2511 3984 
Q 2250 4219 1831 4219 
Q 1534 4219 1204 4116 
Q 875 4013 500 3803 
L 500 4441 
Q 881 4594 1212 4672 
Q 1544 4750 1819 4750 
Q 2544 4750 2975 4387 
Q 3406 4025 3406 3419 
Q 3406 3131 3298 2873 
Q 3191 2616 2906 2266 
Q 2828 2175 2409 1742 
Q 1991 1309 1228 531 
z
" id="DejaVuSans-32" transform="scale(0.015625)"/>
       </defs>
       <use xlink:href="#DejaVuSans-32"/>
       <use x="63.623047" xlink:href="#DejaVuSans-30"/>
       <use x="127.246094" xlink:href="#DejaVuSans-30"/>
      </g>
     </g>
    </g>
    <g id="xtick_3">
     <g id="line2d_3">
      <g>
       <use style="stroke:#000000;" x="200.448" xlink:href="#m5355ae6556" y="307.584"/>
      </g>
     </g>
     <g id="text_3">
      <!-- 400 -->
      <g transform="translate(192.0495 322.570625)scale(0.088 -0.088)">
       <defs>
        <path d="M 2419 4116 
L 825 1625 
L 2419 1625 
L 2419 4116 
z
M 2253 4666 
L 3047 4666 
L 3047 1625 
L 3713 1625 
L 3713 1100 
L 3047 1100 
L 3047 0 
L 2419 0 
L 2419 1100 
L 313 1100 
L 313 1709 
L 2253 4666 
z
" id="DejaVuSans-34" transform="scale(0.015625)"/>
       </defs>
       <use xlink:href="#DejaVuSans-34"/>
       <use x="63.623047" xlink:href="#DejaVuSans-30"/>
       <use x="127.246094" xlink:href="#DejaVuSans-30"/>
      </g>
     </g>
    </g>
    <g id="xtick_4">
     <g id="line2d_4">
      <g>
       <use style="stroke:#000000;" x="271.872" xlink:href="#m5355ae6556" y="307.584"/>
      </g>
     </g>
     <g id="text_4">
      <!-- 600 -->
      <g transform="translate(263.4735 322.570625)scale(0.088 -0.088)">
       <defs>
        <path d="M 2113 2584 
Q 1688 2584 1439 2293 
Q 1191 2003 1191 1497 
Q 1191 994 1439 701 
Q 1688 409 2113 409 
Q 2538 409 2786 701 
Q 3034 994 3034 1497 
Q 3034 2003 2786 2293 
Q 2538 2584 2113 2584 
z
M 3366 4563 
L 3366 3988 
Q 3128 4100 2886 4159 
Q 2644 4219 2406 4219 
Q 1781 4219 1451 3797 
Q 1122 3375 1075 2522 
Q 1259 2794 1537 2939 
Q 1816 3084 2150 3084 
Q 2853 3084 3261 2657 
Q 3669 2231 3669 1497 
Q 3669 778 3244 343 
Q 2819 -91 2113 -91 
Q 1303 -91 875 529 
Q 447 1150 447 2328 
Q 447 3434 972 4092 
Q 1497 4750 2381 4750 
Q 2619 4750 2861 4703 
Q 3103 4656 3366 4563 
z
" id="DejaVuSans-36" transform="scale(0.015625)"/>
       </defs>
       <use xlink:href="#DejaVuSans-36"/>
       <use x="63.623047" xlink:href="#DejaVuSans-30"/>
       <use x="127.246094" xlink:href="#DejaVuSans-30"/>
      </g>
     </g>
    </g>
    <g id="xtick_5">
     <g id="line2d_5">
      <g>
       <use style="stroke:#000000;" x="343.296" xlink:href="#m5355ae6556" y="307.584"/>
      </g>
     </g>
     <g id="text_5">
      <!-- 800 -->
      <g transform="translate(334.8975 322.570625)scale(0.088 -0.088)">
       <defs>
        <path d="M 2034 2216 
Q 1584 2216 1326 1975 
Q 1069 1734 1069 1313 
Q 1069 891 1326 650 
Q 1584 409 2034 409 
Q 2484 409 2743 651 
Q 3003 894 3003 1313 
Q 3003 1734 2745 1975 
Q 2488 2216 2034 2216 
z
M 1403 2484 
Q 997 2584 770 2862 
Q 544 3141 544 3541 
Q 544 4100 942 4425 
Q 1341 4750 2034 4750 
Q 2731 4750 3128 4425 
Q 3525 4100 3525 3541 
Q 3525 3141 3298 2862 
Q 3072 2584 2669 2484 
Q 3125 2378 3379 2068 
Q 3634 1759 3634 1313 
Q 3634 634 3220 271 
Q 2806 -91 2034 -91 
Q 1263 -91 848 271 
Q 434 634 434 1313 
Q 434 1759 690 2068 
Q 947 2378 1403 2484 
z
M 1172 3481 
Q 1172 3119 1398 2916 
Q 1625 2713 2034 2713 
Q 2441 2713 2670 2916 
Q 2900 3119 2900 3481 
Q 2900 3844 2670 4047 
Q 2441 4250 2034 4250 
Q 1625 4250 1398 4047 
Q 1172 3844 1172 3481 
z
" id="DejaVuSans-38" transform="scale(0.015625)"/>
       </defs>
       <use xlink:href="#DejaVuSans-38"/>
       <use x="63.623047" xlink:href="#DejaVuSans-30"/>
       <use x="127.246094" xlink:href="#DejaVuSans-30"/>
      </g>
     </g>
    </g>
    <g id="xtick_6">
     <g id="line2d_6">
      <g>
       <use style="stroke:#000000;" x="414.72" xlink:href="#m5355ae6556" y="307.584"/>
      </g>
     </g>
     <g id="text_6">
      <!-- 1000 -->
      <g transform="translate(403.522 322.570625)scale(0.088 -0.088)">
       <defs>
        <path d="M 794 531 
L 1825 531 
L 1825 4091 
L 703 3866 
L 703 4441 
L 1819 4666 
L 2450 4666 
L 2450 531 
L 3481 531 
L 3481 0 
L 794 0 
L 794 531 
z
" id="DejaVuSans-31" transform="scale(0.015625)"/>
       </defs>
       <use xlink:href="#DejaVuSans-31"/>
       <use x="63.623047" xlink:href="#DejaVuSans-30"/>
       <use x="127.246094" xlink:href="#DejaVuSans-30"/>
       <use x="190.869141" xlink:href="#DejaVuSans-30"/>
      </g>
     </g>
    </g>
    <g id="text_7">
     <!-- Timestep -->
     <g transform="translate(214.03275 335.69525)scale(0.096 -0.096)">
      <defs>
       <path d="M -19 4666 
L 3928 4666 
L 3928 4134 
L 2272 4134 
L 2272 0 
L 1638 0 
L 1638 4134 
L -19 4134 
L -19 4666 
z
" id="DejaVuSans-54" transform="scale(0.015625)"/>
       <path d="M 603 3500 
L 1178 3500 
L 1178 0 
L 603 0 
L 603 3500 
z
M 603 4863 
L 1178 4863 
L 1178 4134 
L 603 4134 
L 603 4863 
z
" id="DejaVuSans-69" transform="scale(0.015625)"/>
       <path d="M 3328 2828 
Q 3544 3216 3844 3400 
Q 4144 3584 4550 3584 
Q 5097 3584 5394 3201 
Q 5691 2819 5691 2113 
L 5691 0 
L 5113 0 
L 5113 2094 
Q 5113 2597 4934 2840 
Q 4756 3084 4391 3084 
Q 3944 3084 3684 2787 
Q 3425 2491 3425 1978 
L 3425 0 
L 2847 0 
L 2847 2094 
Q 2847 2600 2669 2842 
Q 2491 3084 2119 3084 
Q 1678 3084 1418 2786 
Q 1159 2488 1159 1978 
L 1159 0 
L 581 0 
L 581 3500 
L 1159 3500 
L 1159 2956 
Q 1356 3278 1631 3431 
Q 1906 3584 2284 3584 
Q 2666 3584 2933 3390 
Q 3200 3197 3328 2828 
z
" id="DejaVuSans-6d" transform="scale(0.015625)"/>
       <path d="M 3597 1894 
L 3597 1613 
L 953 1613 
Q 991 1019 1311 708 
Q 1631 397 2203 397 
Q 2534 397 2845 478 
Q 3156 559 3463 722 
L 3463 178 
Q 3153 47 2828 -22 
Q 2503 -91 2169 -91 
Q 1331 -91 842 396 
Q 353 884 353 1716 
Q 353 2575 817 3079 
Q 1281 3584 2069 3584 
Q 2775 3584 3186 3129 
Q 3597 2675 3597 1894 
z
M 3022 2063 
Q 3016 2534 2758 2815 
Q 2500 3097 2075 3097 
Q 1594 3097 1305 2825 
Q 1016 2553 972 2059 
L 3022 2063 
z
" id="DejaVuSans-65" transform="scale(0.015625)"/>
       <path d="M 2834 3397 
L 2834 2853 
Q 2591 2978 2328 3040 
Q 2066 3103 1784 3103 
Q 1356 3103 1142 2972 
Q 928 2841 928 2578 
Q 928 2378 1081 2264 
Q 1234 2150 1697 2047 
L 1894 2003 
Q 2506 1872 2764 1633 
Q 3022 1394 3022 966 
Q 3022 478 2636 193 
Q 2250 -91 1575 -91 
Q 1294 -91 989 -36 
Q 684 19 347 128 
L 347 722 
Q 666 556 975 473 
Q 1284 391 1588 391 
Q 1994 391 2212 530 
Q 2431 669 2431 922 
Q 2431 1156 2273 1281 
Q 2116 1406 1581 1522 
L 1381 1569 
Q 847 1681 609 1914 
Q 372 2147 372 2553 
Q 372 3047 722 3315 
Q 1072 3584 1716 3584 
Q 2034 3584 2315 3537 
Q 2597 3491 2834 3397 
z
" id="DejaVuSans-73" transform="scale(0.015625)"/>
       <path d="M 1172 4494 
L 1172 3500 
L 2356 3500 
L 2356 3053 
L 1172 3053 
L 1172 1153 
Q 1172 725 1289 603 
Q 1406 481 1766 481 
L 2356 481 
L 2356 0 
L 1766 0 
Q 1100 0 847 248 
Q 594 497 594 1153 
L 594 3053 
L 172 3053 
L 172 3500 
L 594 3500 
L 594 4494 
L 1172 4494 
z
" id="DejaVuSans-74" transform="scale(0.015625)"/>
       <path d="M 1159 525 
L 1159 -1331 
L 581 -1331 
L 581 3500 
L 1159 3500 
L 1159 2969 
Q 1341 3281 1617 3432 
Q 1894 3584 2278 3584 
Q 2916 3584 3314 3078 
Q 3713 2572 3713 1747 
Q 3713 922 3314 415 
Q 2916 -91 2278 -91 
Q 1894 -91 1617 61 
Q 1341 213 1159 525 
z
M 3116 1747 
Q 3116 2381 2855 2742 
Q 2594 3103 2138 3103 
Q 1681 3103 1420 2742 
Q 1159 2381 1159 1747 
Q 1159 1113 1420 752 
Q 1681 391 2138 391 
Q 2594 391 2855 752 
Q 3116 1113 3116 1747 
z
" id="DejaVuSans-70" transform="scale(0.015625)"/>
      </defs>
      <use xlink:href="#DejaVuSans-54"/>
      <use x="57.958984" xlink:href="#DejaVuSans-69"/>
      <use x="85.742188" xlink:href="#DejaVuSans-6d"/>
      <use x="183.154297" xlink:href="#DejaVuSans-65"/>
      <use x="244.677734" xlink:href="#DejaVuSans-73"/>
      <use x="296.777344" xlink:href="#DejaVuSans-74"/>
      <use x="335.986328" xlink:href="#DejaVuSans-65"/>
      <use x="397.509766" xlink:href="#DejaVuSans-70"/>
     </g>
    </g>
   </g>
   <g id="matplotlib.axis_2">
    <g id="ytick_1">
     <g id="line2d_7">
      <defs>
       <path d="M 0 0 
L -4.8 0 
" id="me6a369647a" style="stroke:#000000;"/>
      </defs>
      <g>
       <use style="stroke:#000000;" x="57.6" xlink:href="#me6a369647a" y="307.584"/>
      </g>
     </g>
     <g id="text_8">
      <!-- 0 -->
      <g transform="translate(43.701 310.927312)scale(0.088 -0.088)">
       <use xlink:href="#DejaVuSans-30"/>
      </g>
     </g>
    </g>
    <g id="ytick_2">
     <g id="line2d_8">
      <g>
       <use style="stroke:#000000;" x="57.6" xlink:href="#me6a369647a" y="254.3616"/>
      </g>
     </g>
     <g id="text_9">
      <!-- 200 -->
      <g transform="translate(32.503 257.704912)scale(0.088 -0.088)">
       <use xlink:href="#DejaVuSans-32"/>
       <use x="63.623047" xlink:href="#DejaVuSans-30"/>
       <use x="127.246094" xlink:href="#DejaVuSans-30"/>
      </g>
     </g>
    </g>
    <g id="ytick_3">
     <g id="line2d_9">
      <g>
       <use style="stroke:#000000;" x="57.6" xlink:href="#me6a369647a" y="201.1392"/>
      </g>
     </g>
     <g id="text_10">
      <!-- 400 -->
      <g transform="translate(32.503 204.482512)scale(0.088 -0.088)">
       <use xlink:href="#DejaVuSans-34"/>
       <use x="63.623047" xlink:href="#DejaVuSans-30"/>
       <use x="127.246094" xlink:href="#DejaVuSans-30"/>
      </g>
     </g>
    </g>
    <g id="ytick_4">
     <g id="line2d_10">
      <g>
       <use style="stroke:#000000;" x="57.6" xlink:href="#me6a369647a" y="147.9168"/>
      </g>
     </g>
     <g id="text_11">
      <!-- 600 -->
      <g transform="translate(32.503 151.260112)scale(0.088 -0.088)">
       <use xlink:href="#DejaVuSans-36"/>
       <use x="63.623047" xlink:href="#DejaVuSans-30"/>
       <use x="127.246094" xlink:href="#DejaVuSans-30"/>
      </g>
     </g>
    </g>
    <g id="ytick_5">
     <g id="line2d_11">
      <g>
       <use style="stroke:#000000;" x="57.6" xlink:href="#me6a369647a" y="94.6944"/>
      </g>
     </g>
     <g id="text_12">
      <!-- 800 -->
      <g transform="translate(32.503 98.037712)scale(0.088 -0.088)">
       <use xlink:href="#DejaVuSans-38"/>
       <use x="63.623047" xlink:href="#DejaVuSans-30"/>
       <use x="127.246094" xlink:href="#DejaVuSans-30"/>
      </g>
     </g>
    </g>
    <g id="ytick_6">
     <g id="line2d_12">
      <g>
       <use style="stroke:#000000;" x="57.6" xlink:href="#me6a369647a" y="41.472"/>
      </g>
     </g>
     <g id="text_13">
      <!-- 1000 -->
      <g transform="translate(26.904 44.815313)scale(0.088 -0.088)">
       <use xlink:href="#DejaVuSans-31"/>
       <use x="63.623047" xlink:href="#DejaVuSans-30"/>
       <use x="127.246094" xlink:href="#DejaVuSans-30"/>
       <use x="190.869141" xlink:href="#DejaVuSans-30"/>
      </g>
     </g>
    </g>
    <g id="text_14">
     <!-- Reward -->
     <g transform="translate(20.9075 192.40425)rotate(-90)scale(0.096 -0.096)">
      <defs>
       <path d="M 2841 2188 
Q 3044 2119 3236 1894 
Q 3428 1669 3622 1275 
L 4263 0 
L 3584 0 
L 2988 1197 
Q 2756 1666 2539 1819 
Q 2322 1972 1947 1972 
L 1259 1972 
L 1259 0 
L 628 0 
L 628 4666 
L 2053 4666 
Q 2853 4666 3247 4331 
Q 3641 3997 3641 3322 
Q 3641 2881 3436 2590 
Q 3231 2300 2841 2188 
z
M 1259 4147 
L 1259 2491 
L 2053 2491 
Q 2509 2491 2742 2702 
Q 2975 2913 2975 3322 
Q 2975 3731 2742 3939 
Q 2509 4147 2053 4147 
L 1259 4147 
z
" id="DejaVuSans-52" transform="scale(0.015625)"/>
       <path d="M 269 3500 
L 844 3500 
L 1563 769 
L 2278 3500 
L 2956 3500 
L 3675 769 
L 4391 3500 
L 4966 3500 
L 4050 0 
L 3372 0 
L 2619 2869 
L 1863 0 
L 1184 0 
L 269 3500 
z
" id="DejaVuSans-77" transform="scale(0.015625)"/>
       <path d="M 2194 1759 
Q 1497 1759 1228 1600 
Q 959 1441 959 1056 
Q 959 750 1161 570 
Q 1363 391 1709 391 
Q 2188 391 2477 730 
Q 2766 1069 2766 1631 
L 2766 1759 
L 2194 1759 
z
M 3341 1997 
L 3341 0 
L 2766 0 
L 2766 531 
Q 2569 213 2275 61 
Q 1981 -91 1556 -91 
Q 1019 -91 701 211 
Q 384 513 384 1019 
Q 384 1609 779 1909 
Q 1175 2209 1959 2209 
L 2766 2209 
L 2766 2266 
Q 2766 2663 2505 2880 
Q 2244 3097 1772 3097 
Q 1472 3097 1187 3025 
Q 903 2953 641 2809 
L 641 3341 
Q 956 3463 1253 3523 
Q 1550 3584 1831 3584 
Q 2591 3584 2966 3190 
Q 3341 2797 3341 1997 
z
" id="DejaVuSans-61" transform="scale(0.015625)"/>
       <path d="M 2631 2963 
Q 2534 3019 2420 3045 
Q 2306 3072 2169 3072 
Q 1681 3072 1420 2755 
Q 1159 2438 1159 1844 
L 1159 0 
L 581 0 
L 581 3500 
L 1159 3500 
L 1159 2956 
Q 1341 3275 1631 3429 
Q 1922 3584 2338 3584 
Q 2397 3584 2469 3576 
Q 2541 3569 2628 3553 
L 2631 2963 
z
" id="DejaVuSans-72" transform="scale(0.015625)"/>
       <path d="M 2906 2969 
L 2906 4863 
L 3481 4863 
L 3481 0 
L 2906 0 
L 2906 525 
Q 2725 213 2448 61 
Q 2172 -91 1784 -91 
Q 1150 -91 751 415 
Q 353 922 353 1747 
Q 353 2572 751 3078 
Q 1150 3584 1784 3584 
Q 2172 3584 2448 3432 
Q 2725 3281 2906 2969 
z
M 947 1747 
Q 947 1113 1208 752 
Q 1469 391 1925 391 
Q 2381 391 2643 752 
Q 2906 1113 2906 1747 
Q 2906 2381 2643 2742 
Q 2381 3103 1925 3103 
Q 1469 3103 1208 2742 
Q 947 2381 947 1747 
z
" id="DejaVuSans-64" transform="scale(0.015625)"/>
      </defs>
      <use xlink:href="#DejaVuSans-52"/>
      <use x="64.982422" xlink:href="#DejaVuSans-65"/>
      <use x="126.505859" xlink:href="#DejaVuSans-77"/>
      <use x="208.292969" xlink:href="#DejaVuSans-61"/>
      <use x="269.572266" xlink:href="#DejaVuSans-72"/>
      <use x="308.935547" xlink:href="#DejaVuSans-64"/>
     </g>
    </g>
   </g>
   <g id="line2d_13">
    <path clip-path="url(#p437e5eb674)" d="M 57.95712 304.249617 
L 58.31424 304.47182 
L 58.67136 303.320886 
L 59.74272 298.773032 
L 60.45696 293.692954 
L 60.81408 293.237902 
L 61.1712 291.184848 
L 61.52832 290.532874 
L 61.88544 289.158405 
L 62.24256 289.17038 
L 62.59968 288.318822 
L 62.9568 289.106513 
L 63.31392 286.634333 
L 63.67104 287.123979 
L 64.02816 285.400904 
L 64.38528 285.314417 
L 64.7424 282.211551 
L 65.09952 281.809722 
L 65.45664 281.109848 
L 65.81376 279.188519 
L 66.17088 278.664278 
L 66.528 277.386941 
L 66.88512 274.031268 
L 67.24224 273.087901 
L 67.59936 273.110521 
L 67.95648 272.616883 
L 68.3136 271.716094 
L 68.67072 270.243164 
L 69.02784 269.75884 
L 69.38496 262.98762 
L 69.74208 265.079261 
L 70.0992 259.377811 
L 70.45632 260.25465 
L 70.81344 257.951451 
L 71.17056 252.921934 
L 71.52768 251.290668 
L 71.8848 247.370838 
L 72.24192 247.055495 
L 72.59904 244.019157 
L 72.95616 238.486689 
L 73.31328 238.461408 
L 73.6704 231.370854 
L 74.02752 231.83655 
L 74.38464 232.97817 
L 74.74176 236.474882 
L 75.09888 227.469652 
L 75.456 231.889772 
L 75.81312 225.984747 
L 76.17024 226.308073 
L 76.52736 225.048033 
L 76.88448 221.623171 
L 77.2416 219.307997 
L 77.59872 222.49868 
L 77.95584 215.819268 
L 78.31296 213.344427 
L 78.67008 215.30035 
L 79.0272 214.802721 
L 79.38432 212.084387 
L 79.74144 213.856692 
L 80.09856 214.104177 
L 80.45568 205.934538 
L 80.8128 211.554824 
L 81.16992 202.747847 
L 81.52704 205.000485 
L 81.88416 205.396992 
L 82.24128 206.013041 
L 82.5984 204.27533 
L 82.95552 199.446728 
L 83.31264 200.09471 
L 84.384 193.097295 
L 84.74112 194.898874 
L 85.09824 201.318826 
L 85.81248 195.876835 
L 86.1696 195.415131 
L 86.52672 193.903615 
L 86.88384 190.859293 
L 87.24096 189.845407 
L 87.59808 189.444908 
L 87.9552 188.159587 
L 88.31232 191.354262 
L 88.66944 189.454222 
L 89.02656 189.161499 
L 89.38368 187.974639 
L 89.7408 186.223622 
L 90.09792 183.563833 
L 90.45504 187.039256 
L 90.81216 183.626369 
L 91.16928 186.785119 
L 91.5264 180.778971 
L 91.88352 180.916019 
L 92.24064 180.309283 
L 92.59776 175.375567 
L 92.95488 179.168993 
L 93.312 177.111948 
L 93.66912 177.28492 
L 94.02624 175.466045 
L 94.38336 172.852825 
L 94.74048 176.083425 
L 95.0976 175.211908 
L 95.45472 170.633451 
L 95.81184 176.019558 
L 96.16896 167.871208 
L 96.52608 168.150626 
L 96.8832 170.429875 
L 97.59744 169.542392 
L 97.95456 169.243016 
L 98.31168 169.320188 
L 98.6688 169.925593 
L 99.02592 169.89366 
L 99.38304 167.835283 
L 99.74016 166.850669 
L 100.09728 167.545221 
L 100.4544 169.292246 
L 100.81152 166.536657 
L 101.16864 167.418818 
L 101.52576 165.421647 
L 101.88288 161.336828 
L 102.24 160.883107 
L 102.59712 159.990301 
L 102.95424 160.052838 
L 103.31136 158.198037 
L 103.66848 160.493253 
L 104.0256 161.155872 
L 104.38272 153.481202 
L 104.73984 151.945736 
L 105.09696 151.066236 
L 105.45408 151.331017 
L 105.8112 149.729023 
L 106.16832 154.484444 
L 106.88256 151.320372 
L 107.23968 148.759044 
L 107.5968 152.234467 
L 107.95392 153.288271 
L 108.31104 151.55189 
L 108.66816 147.589482 
L 109.02528 150.040374 
L 109.3824 149.587983 
L 110.09664 147.966031 
L 110.45376 145.592312 
L 110.81088 147.302081 
L 111.168 145.407364 
L 111.52512 147.004036 
L 111.88224 146.558298 
L 112.23936 142.643791 
L 112.59648 147.404534 
L 112.9536 143.585827 
L 113.31072 141.765621 
L 113.66784 141.177514 
L 114.02496 141.54874 
L 114.38208 140.730445 
L 114.7392 141.275975 
L 115.09632 139.844292 
L 115.45344 140.565456 
L 115.81056 138.762547 
L 116.5248 137.241717 
L 116.88192 134.854692 
L 117.23904 135.41885 
L 117.59616 134.750909 
L 117.95328 135.007707 
L 118.3104 136.837227 
L 118.66752 137.393401 
L 119.38176 132.755069 
L 119.73888 133.550744 
L 120.096 134.617853 
L 120.45312 133.296607 
L 120.81024 130.620851 
L 121.16736 132.326628 
L 121.52448 130.76322 
L 121.8816 130.644801 
L 122.23872 130.212369 
L 122.59584 131.248875 
L 122.95296 129.821184 
L 123.31008 130.328127 
L 123.6672 128.183265 
L 124.02432 126.79416 
L 124.38144 128.668919 
L 124.73856 126.138194 
L 125.09568 127.137444 
L 125.4528 126.379025 
L 125.80992 124.855534 
L 126.16704 125.880065 
L 126.88128 122.222356 
L 127.2384 123.008717 
L 128.30976 119.71292 
L 128.66688 121.416036 
L 129.024 125.049796 
L 129.38112 118.875997 
L 129.73824 121.647554 
L 130.09536 122.727969 
L 130.45248 122.25562 
L 130.8096 116.969305 
L 131.16672 119.402899 
L 131.52384 119.57055 
L 131.88096 119.35633 
L 132.23808 120.628345 
L 132.5952 120.841235 
L 133.30944 121.546431 
L 134.02368 118.420946 
L 134.3808 118.556663 
L 134.73792 120.933043 
L 135.45216 115.193007 
L 135.80928 119.35633 
L 136.1664 117.473587 
L 136.52352 117.589346 
L 137.23776 115.6281 
L 137.59488 118.130884 
L 137.952 115.468433 
L 138.30912 115.821032 
L 138.66624 115.833007 
L 139.02336 112.506607 
L 139.38048 114.857706 
L 139.7376 115.17571 
L 140.09472 115.862279 
L 140.45184 115.256874 
L 140.80896 112.34827 
L 141.16608 116.105772 
L 141.5232 114.957498 
L 142.23744 111.966399 
L 142.59456 111.024363 
L 142.95168 110.933885 
L 143.3088 110.537378 
L 143.66592 113.885067 
L 144.38016 109.625944 
L 144.73728 111.000413 
L 145.0944 108.246154 
L 145.45152 112.51326 
L 146.16576 112.494632 
L 146.52288 110.713012 
L 146.88 112.903114 
L 147.23712 111.644404 
L 147.59424 112.650307 
L 147.95136 112.026275 
L 148.30848 112.639663 
L 148.6656 110.641162 
L 149.02272 110.6385 
L 149.37984 112.607729 
L 149.73696 108.381871 
L 150.09408 109.816214 
L 150.4512 109.478252 
L 150.80832 108.645322 
L 151.16544 108.636008 
L 151.52256 107.584865 
L 152.2368 112.034258 
L 152.59392 112.2538 
L 152.95104 109.229437 
L 153.30816 108.086486 
L 153.66528 109.840164 
L 154.0224 108.279418 
L 154.73664 109.708439 
L 155.09376 109.796256 
L 155.45088 109.660539 
L 155.808 111.797418 
L 156.16512 109.206818 
L 156.52224 110.118252 
L 156.87936 109.230768 
L 157.5936 111.013718 
L 157.95072 109.177546 
L 158.30784 109.514177 
L 158.66496 108.620041 
L 159.02208 106.773224 
L 159.3792 99.846328 
L 159.73632 101.86878 
L 160.09344 96.774065 
L 160.45056 101.492231 
L 160.80768 103.037011 
L 161.1648 100.488989 
L 161.52192 107.528982 
L 161.87904 103.923164 
L 162.23616 97.620301 
L 162.59328 96.396186 
L 162.9504 95.636436 
L 163.30752 97.975561 
L 163.66464 97.681507 
L 164.37888 95.679014 
L 164.736 98.350779 
L 165.09312 97.277017 
L 165.45024 94.610575 
L 165.80736 93.804255 
L 166.16448 91.447834 
L 166.5216 94.482841 
L 166.87872 94.607914 
L 167.59296 95.809409 
L 167.95008 92.380556 
L 168.3072 91.644756 
L 168.66432 91.808415 
L 169.02144 94.887331 
L 169.37856 92.795691 
L 170.0928 95.661717 
L 170.44992 95.077601 
L 171.16416 101.621295 
L 171.8784 104.462041 
L 172.23552 100.628698 
L 172.59264 101.32458 
L 172.94976 98.175145 
L 173.30688 100.624706 
L 173.664 98.731319 
L 174.02112 101.91668 
L 174.37824 99.202337 
L 174.73536 99.545622 
L 175.09248 98.670113 
L 175.4496 97.368826 
L 175.80672 100.019301 
L 176.16384 99.972732 
L 176.52096 103.521335 
L 176.87808 97.145292 
L 177.2352 103.344371 
L 177.59232 97.390115 
L 177.94944 103.831356 
L 178.30656 102.693727 
L 179.0208 97.532484 
L 179.37792 97.866455 
L 179.73504 94.875356 
L 180.09216 99.069281 
L 180.44928 99.294146 
L 180.8064 99.181048 
L 181.16352 99.344707 
L 181.52064 97.125333 
L 181.87776 96.763421 
L 182.23488 99.649405 
L 182.94912 101.572065 
L 183.30624 100.58612 
L 183.66336 100.047243 
L 184.02048 98.490488 
L 184.3776 98.920259 
L 184.73472 101.931316 
L 185.09184 98.698055 
L 185.44896 101.758343 
L 185.80608 101.850152 
L 186.1632 101.319258 
L 186.52032 102.295889 
L 186.87744 102.197428 
L 187.23456 101.594684 
L 187.59168 102.071025 
L 187.9488 103.055639 
L 188.30592 103.65173 
L 188.66304 101.790276 
L 189.02016 101.372481 
L 189.37728 101.635932 
L 189.7344 101.2035 
L 190.09152 100.962668 
L 190.44864 101.404414 
L 190.80576 99.403252 
L 191.16288 99.572233 
L 191.52 100.928074 
L 191.87712 100.868198 
L 192.23424 102.55801 
L 192.59136 101.059799 
L 192.94848 100.236182 
L 193.3056 97.779969 
L 193.66272 100.986618 
L 194.01984 100.905454 
L 194.37696 106.520417 
L 194.73408 102.802833 
L 195.0912 103.787447 
L 195.44832 106.517756 
L 195.80544 108.373887 
L 196.16256 107.755177 
L 196.8768 120.322316 
L 197.23392 121.229758 
L 197.94816 113.338207 
L 198.30528 120.435414 
L 198.6624 111.575215 
L 199.01952 116.788349 
L 199.37664 114.650139 
L 200.09088 132.628666 
L 200.448 118.844064 
L 200.80512 127.108172 
L 201.16224 120.396828 
L 201.51936 119.103523 
L 201.87648 119.080904 
L 202.2336 115.838329 
L 202.59072 117.921986 
L 203.30496 127.48206 
L 203.66208 128.414782 
L 204.0192 126.486801 
L 204.37632 131.626754 
L 204.73344 125.639234 
L 205.09056 131.517648 
L 205.44768 129.215779 
L 205.8048 129.257027 
L 206.16192 124.582769 
L 206.51904 125.34385 
L 206.87616 118.535374 
L 207.23328 139.941423 
L 207.5904 183.904456 
L 207.94752 213.094282 
L 208.30464 223.559136 
L 208.66176 207.024267 
L 209.01888 218.00804 
L 209.376 221.728285 
L 210.09024 211.846216 
L 210.44736 212.857442 
L 210.80448 216.021514 
L 211.1616 204.823521 
L 211.51872 211.246134 
L 211.87584 208.293621 
L 212.23296 211.892786 
L 212.59008 212.270665 
L 212.9472 205.869341 
L 213.30432 205.494123 
L 213.66144 210.980022 
L 214.01856 212.322557 
L 214.37568 213.119562 
L 214.7328 211.578774 
L 215.08992 213.450872 
L 215.44704 219.293361 
L 215.80416 210.54759 
L 216.16128 215.107419 
L 216.5184 214.669665 
L 216.87552 218.022676 
L 217.23264 214.181349 
L 217.58976 215.53852 
L 217.94688 223.748076 
L 218.304 222.034314 
L 218.66112 227.089112 
L 219.01824 224.292275 
L 219.37536 222.38159 
L 219.73248 221.930531 
L 220.44672 230.899836 
L 220.80384 219.705834 
L 221.16096 225.379342 
L 221.51808 221.997059 
L 221.8752 237.012428 
L 222.23232 265.678013 
L 222.94656 298.999227 
L 223.30368 304.064669 
L 223.6608 304.861674 
L 226.16064 305.385915 
L 230.08896 305.37527 
L 231.51744 305.419179 
L 234.3744 305.380593 
L 236.87424 305.396559 
L 242.94528 305.405873 
L 244.37376 305.389907 
L 247.94496 305.427162 
L 249.01632 305.403212 
L 262.58688 305.391237 
L 264.7296 305.407204 
L 265.80096 305.400551 
L 275.08608 305.39789 
L 284.01408 305.392568 
L 285.79968 305.407204 
L 313.65504 305.405873 
L 314.7264 305.395229 
L 316.512 305.405873 
L 317.94048 305.403212 
L 319.36896 305.395229 
L 324.01152 305.411196 
L 326.51136 305.380593 
L 327.58272 305.415187 
L 329.36832 305.42184 
L 338.29632 305.417848 
L 339.36768 305.376601 
L 340.43904 305.416518 
L 351.86688 305.393898 
L 367.22304 305.39789 
L 393.64992 305.393898 
L 395.43552 305.408534 
L 399.00672 305.407204 
L 400.07808 305.404543 
L 401.86368 305.411196 
L 404.0064 305.388576 
L 406.14912 305.419179 
L 408.64896 305.395229 
L 410.79168 305.408534 
L 414.00576 305.403212 
L 414.72 305.401882 
L 414.72 305.401882 
" style="fill:none;stroke:#1f77b4;stroke-linecap:square;stroke-width:1.2;"/>
   </g>
   <g id="patch_3">
    <path d="M 57.6 307.584 
L 57.6 41.472 
" style="fill:none;stroke:#000000;stroke-linecap:square;stroke-linejoin:miter;"/>
   </g>
   <g id="patch_4">
    <path d="M 414.72 307.584 
L 414.72 41.472 
" style="fill:none;stroke:#000000;stroke-linecap:square;stroke-linejoin:miter;"/>
   </g>
   <g id="patch_5">
    <path d="M 57.6 307.584 
L 414.72 307.584 
" style="fill:none;stroke:#000000;stroke-linecap:square;stroke-linejoin:miter;"/>
   </g>
   <g id="patch_6">
    <path d="M 57.6 41.472 
L 414.72 41.472 
" style="fill:none;stroke:#000000;stroke-linecap:square;stroke-linejoin:miter;"/>
   </g>
   <g id="text_15">
    <!-- Training - CMA-ES - Cartpole -->
    <g transform="translate(168.7575 35.472)scale(0.096 -0.096)">
     <defs>
      <path d="M 3513 2113 
L 3513 0 
L 2938 0 
L 2938 2094 
Q 2938 2591 2744 2837 
Q 2550 3084 2163 3084 
Q 1697 3084 1428 2787 
Q 1159 2491 1159 1978 
L 1159 0 
L 581 0 
L 581 3500 
L 1159 3500 
L 1159 2956 
Q 1366 3272 1645 3428 
Q 1925 3584 2291 3584 
Q 2894 3584 3203 3211 
Q 3513 2838 3513 2113 
z
" id="DejaVuSans-6e" transform="scale(0.015625)"/>
      <path d="M 2906 1791 
Q 2906 2416 2648 2759 
Q 2391 3103 1925 3103 
Q 1463 3103 1205 2759 
Q 947 2416 947 1791 
Q 947 1169 1205 825 
Q 1463 481 1925 481 
Q 2391 481 2648 825 
Q 2906 1169 2906 1791 
z
M 3481 434 
Q 3481 -459 3084 -895 
Q 2688 -1331 1869 -1331 
Q 1566 -1331 1297 -1286 
Q 1028 -1241 775 -1147 
L 775 -588 
Q 1028 -725 1275 -790 
Q 1522 -856 1778 -856 
Q 2344 -856 2625 -561 
Q 2906 -266 2906 331 
L 2906 616 
Q 2728 306 2450 153 
Q 2172 0 1784 0 
Q 1141 0 747 490 
Q 353 981 353 1791 
Q 353 2603 747 3093 
Q 1141 3584 1784 3584 
Q 2172 3584 2450 3431 
Q 2728 3278 2906 2969 
L 2906 3500 
L 3481 3500 
L 3481 434 
z
" id="DejaVuSans-67" transform="scale(0.015625)"/>
      <path id="DejaVuSans-20" transform="scale(0.015625)"/>
      <path d="M 313 2009 
L 1997 2009 
L 1997 1497 
L 313 1497 
L 313 2009 
z
" id="DejaVuSans-2d" transform="scale(0.015625)"/>
      <path d="M 4122 4306 
L 4122 3641 
Q 3803 3938 3442 4084 
Q 3081 4231 2675 4231 
Q 1875 4231 1450 3742 
Q 1025 3253 1025 2328 
Q 1025 1406 1450 917 
Q 1875 428 2675 428 
Q 3081 428 3442 575 
Q 3803 722 4122 1019 
L 4122 359 
Q 3791 134 3420 21 
Q 3050 -91 2638 -91 
Q 1578 -91 968 557 
Q 359 1206 359 2328 
Q 359 3453 968 4101 
Q 1578 4750 2638 4750 
Q 3056 4750 3426 4639 
Q 3797 4528 4122 4306 
z
" id="DejaVuSans-43" transform="scale(0.015625)"/>
      <path d="M 628 4666 
L 1569 4666 
L 2759 1491 
L 3956 4666 
L 4897 4666 
L 4897 0 
L 4281 0 
L 4281 4097 
L 3078 897 
L 2444 897 
L 1241 4097 
L 1241 0 
L 628 0 
L 628 4666 
z
" id="DejaVuSans-4d" transform="scale(0.015625)"/>
      <path d="M 2188 4044 
L 1331 1722 
L 3047 1722 
L 2188 4044 
z
M 1831 4666 
L 2547 4666 
L 4325 0 
L 3669 0 
L 3244 1197 
L 1141 1197 
L 716 0 
L 50 0 
L 1831 4666 
z
" id="DejaVuSans-41" transform="scale(0.015625)"/>
      <path d="M 628 4666 
L 3578 4666 
L 3578 4134 
L 1259 4134 
L 1259 2753 
L 3481 2753 
L 3481 2222 
L 1259 2222 
L 1259 531 
L 3634 531 
L 3634 0 
L 628 0 
L 628 4666 
z
" id="DejaVuSans-45" transform="scale(0.015625)"/>
      <path d="M 3425 4513 
L 3425 3897 
Q 3066 4069 2747 4153 
Q 2428 4238 2131 4238 
Q 1616 4238 1336 4038 
Q 1056 3838 1056 3469 
Q 1056 3159 1242 3001 
Q 1428 2844 1947 2747 
L 2328 2669 
Q 3034 2534 3370 2195 
Q 3706 1856 3706 1288 
Q 3706 609 3251 259 
Q 2797 -91 1919 -91 
Q 1588 -91 1214 -16 
Q 841 59 441 206 
L 441 856 
Q 825 641 1194 531 
Q 1563 422 1919 422 
Q 2459 422 2753 634 
Q 3047 847 3047 1241 
Q 3047 1584 2836 1778 
Q 2625 1972 2144 2069 
L 1759 2144 
Q 1053 2284 737 2584 
Q 422 2884 422 3419 
Q 422 4038 858 4394 
Q 1294 4750 2059 4750 
Q 2388 4750 2728 4690 
Q 3069 4631 3425 4513 
z
" id="DejaVuSans-53" transform="scale(0.015625)"/>
      <path d="M 1959 3097 
Q 1497 3097 1228 2736 
Q 959 2375 959 1747 
Q 959 1119 1226 758 
Q 1494 397 1959 397 
Q 2419 397 2687 759 
Q 2956 1122 2956 1747 
Q 2956 2369 2687 2733 
Q 2419 3097 1959 3097 
z
M 1959 3584 
Q 2709 3584 3137 3096 
Q 3566 2609 3566 1747 
Q 3566 888 3137 398 
Q 2709 -91 1959 -91 
Q 1206 -91 779 398 
Q 353 888 353 1747 
Q 353 2609 779 3096 
Q 1206 3584 1959 3584 
z
" id="DejaVuSans-6f" transform="scale(0.015625)"/>
      <path d="M 603 4863 
L 1178 4863 
L 1178 0 
L 603 0 
L 603 4863 
z
" id="DejaVuSans-6c" transform="scale(0.015625)"/>
     </defs>
     <use xlink:href="#DejaVuSans-54"/>
     <use x="46.333984" xlink:href="#DejaVuSans-72"/>
     <use x="87.447266" xlink:href="#DejaVuSans-61"/>
     <use x="148.726562" xlink:href="#DejaVuSans-69"/>
     <use x="176.509766" xlink:href="#DejaVuSans-6e"/>
     <use x="239.888672" xlink:href="#DejaVuSans-69"/>
     <use x="267.671875" xlink:href="#DejaVuSans-6e"/>
     <use x="331.050781" xlink:href="#DejaVuSans-67"/>
     <use x="394.527344" xlink:href="#DejaVuSans-20"/>
     <use x="426.314453" xlink:href="#DejaVuSans-2d"/>
     <use x="462.398438" xlink:href="#DejaVuSans-20"/>
     <use x="494.185547" xlink:href="#DejaVuSans-43"/>
     <use x="564.009766" xlink:href="#DejaVuSans-4d"/>
     <use x="650.289062" xlink:href="#DejaVuSans-41"/>
     <use x="716.447266" xlink:href="#DejaVuSans-2d"/>
     <use x="752.53125" xlink:href="#DejaVuSans-45"/>
     <use x="815.714844" xlink:href="#DejaVuSans-53"/>
     <use x="879.191406" xlink:href="#DejaVuSans-20"/>
     <use x="910.978516" xlink:href="#DejaVuSans-2d"/>
     <use x="947.0625" xlink:href="#DejaVuSans-20"/>
     <use x="978.849609" xlink:href="#DejaVuSans-43"/>
     <use x="1048.673828" xlink:href="#DejaVuSans-61"/>
     <use x="1109.953125" xlink:href="#DejaVuSans-72"/>
     <use x="1151.066406" xlink:href="#DejaVuSans-74"/>
     <use x="1190.275391" xlink:href="#DejaVuSans-70"/>
     <use x="1253.751953" xlink:href="#DejaVuSans-6f"/>
     <use x="1314.933594" xlink:href="#DejaVuSans-6c"/>
     <use x="1342.716797" xlink:href="#DejaVuSans-65"/>
    </g>
   </g>
  </g>
 </g>
 <defs>
  <clipPath id="p437e5eb674">
   <rect height="266.112" width="357.12" x="57.6" y="41.472"/>
  </clipPath>
 </defs>
</svg>
