<?xml version="1.0" encoding="utf-8" standalone="no"?>
<!DOCTYPE svg PUBLIC "-//W3C//DTD SVG 1.1//EN"
  "http://www.w3.org/Graphics/SVG/1.1/DTD/svg11.dtd">
<svg height="345.6pt" version="1.1" viewBox="0 0 460.8 345.6" width="460.8pt" xmlns="http://www.w3.org/2000/svg" xmlns:xlink="http://www.w3.org/1999/xlink">
 <metadata>
  <rdf:RDF xmlns:cc="http://creativecommons.org/ns#" xmlns:dc="http://purl.org/dc/elements/1.1/" xmlns:rdf="http://www.w3.org/1999/02/22-rdf-syntax-ns#">
   <cc:Work>
    <dc:type rdf:resource="http://purl.org/dc/dcmitype/StillImage"/>
    <dc:date>2021-07-22T19:44:30.721740</dc:date>
    <dc:format>image/svg+xml</dc:format>
    <dc:creator>
     <cc:Agent>
      <dc:title>Matplotlib v3.4.2, https://matplotlib.org/</dc:title>
     </cc:Agent>
    </dc:creator>
   </cc:Work>
  </rdf:RDF>
 </metadata>
 <defs>
  <style type="text/css">*{stroke-linecap:butt;stroke-linejoin:round;}</style>
 </defs>
 <g id="figure_1">
  <g id="patch_1">
   <path d="M 0 345.6 
L 460.8 345.6 
L 460.8 0 
L 0 0 
z
" style="fill:#ffffff;"/>
  </g>
  <g id="axes_1">
   <g id="patch_2">
    <path d="M 57.6 307.584 
L 414.72 307.584 
L 414.72 41.472 
L 57.6 41.472 
z
" style="fill:#ffffff;"/>
   </g>
   <g id="PolyCollection_1">
    <path clip-path="url(#p33bdcefe98)" d="M 57.9968 304.149159 
L 57.9968 305.95739 
L 58.3936 305.397225 
L 58.7904 306.247452 
L 59.1872 306.618679 
L 59.584 304.203047 
L 59.9808 305.07656 
L 60.3776 305.352651 
L 60.7744 305.65868 
L 61.1712 306.20554 
L 61.568 304.582257 
L 61.9648 304.278889 
L 62.3616 303.746 
L 62.7584 304.238972 
L 63.1552 304.523047 
L 63.552 304.203712 
L 63.9488 297.319395 
L 64.3456 302.923714 
L 64.7424 304.283546 
L 65.1392 304.438556 
L 65.536 304.266249 
L 65.9328 297.589499 
L 66.3296 304.404627 
L 66.7264 302.670907 
L 67.1232 294.024263 
L 67.52 288.443229 
L 67.9168 304.229658 
L 68.3136 304.143172 
L 68.7104 302.426749 
L 69.1072 302.295024 
L 69.504 293.48206 
L 69.9008 304.143172 
L 70.2976 301.494027 
L 70.6944 304.156477 
L 71.0912 304.225667 
L 71.488 301.761469 
L 71.8848 297.715902 
L 72.2816 291.821521 
L 72.6784 292.381687 
L 73.0752 292.728963 
L 73.472 290.691876 
L 73.8688 288.466514 
L 74.2656 290.213539 
L 74.6624 288.529716 
L 75.0592 296.363388 
L 75.456 295.751995 
L 75.8528 293.406883 
L 76.2496 301.647707 
L 76.6464 301.815357 
L 77.0432 304.148494 
L 77.44 296.600227 
L 77.8368 300.848705 
L 78.2336 294.984262 
L 78.6304 297.062597 
L 79.0272 304.153151 
L 79.424 294.393493 
L 79.8208 294.307007 
L 80.2176 304.052028 
L 80.6144 296.172452 
L 81.0112 291.921313 
L 81.408 294.471331 
L 81.8048 301.605794 
L 82.2016 304.070656 
L 82.5984 293.514659 
L 82.9952 289.435162 
L 83.392 288.946846 
L 83.7888 288.328801 
L 84.1856 295.910332 
L 84.5824 287.51849 
L 84.9792 287.664852 
L 85.376 293.936446 
L 85.7728 292.180772 
L 86.1696 288.998073 
L 86.5664 291.745014 
L 86.9632 289.002064 
L 87.36 288.733291 
L 87.7568 302.631656 
L 88.1536 298.444383 
L 88.5504 298.11507 
L 88.9472 290.054537 
L 89.344 289.373291 
L 89.7408 288.038739 
L 90.1376 301.336356 
L 90.5344 298.808957 
L 90.9312 303.117975 
L 91.328 292.355741 
L 91.7248 302.591074 
L 92.1216 292.219358 
L 92.5184 292.824763 
L 92.9152 302.774026 
L 93.312 294.902433 
L 93.7088 292.660439 
L 94.1056 290.621356 
L 94.5024 301.512655 
L 94.8992 297.552908 
L 95.296 304.218348 
L 95.6928 302.80729 
L 96.0896 304.115895 
L 96.4864 302.71282 
L 96.8832 302.71415 
L 97.28 294.154658 
L 97.6768 290.968632 
L 98.0736 293.306426 
L 98.4704 304.191072 
L 98.8672 295.411372 
L 99.264 300.520057 
L 99.6608 300.645795 
L 100.0576 302.148662 
L 100.4544 304.116561 
L 100.8512 293.349669 
L 101.248 300.609204 
L 101.6448 301.846625 
L 102.0416 302.555814 
L 102.4384 293.593162 
L 102.8352 293.581187 
L 103.232 302.283049 
L 103.6288 301.587166 
L 104.0256 295.948253 
L 104.4224 294.192579 
L 104.8192 289.978695 
L 105.216 291.556074 
L 105.6128 301.332364 
L 106.0096 291.906012 
L 106.4064 297.886213 
L 106.8032 294.23183 
L 107.2 300.498768 
L 107.5968 294.084138 
L 107.9936 304.133193 
L 108.3904 294.662267 
L 108.7872 288.46851 
L 109.184 304.121883 
L 109.5808 293.845303 
L 109.9776 292.422269 
L 110.3744 290.164974 
L 110.7712 300.281221 
L 111.168 297.854945 
L 111.5648 292.902601 
L 111.9616 286.583772 
L 112.3584 288.958156 
L 112.7552 293.171374 
L 113.152 293.733536 
L 113.5488 293.480064 
L 113.9456 301.38359 
L 114.3424 302.608371 
L 114.7392 295.179189 
L 115.136 293.168048 
L 115.5328 296.417275 
L 115.9296 297.222929 
L 116.3264 289.701274 
L 116.7232 300.533363 
L 117.12 294.280396 
L 117.5168 289.139112 
L 117.9136 294.448712 
L 118.3104 301.463424 
L 118.7072 288.496452 
L 119.104 289.485058 
L 119.5008 297.687295 
L 119.8976 303.922964 
L 120.2944 297.95008 
L 120.6912 288.397325 
L 121.088 299.812199 
L 121.4848 293.559232 
L 121.8816 293.774118 
L 122.2784 301.43016 
L 122.6752 291.457613 
L 123.072 289.478405 
L 123.4688 289.179694 
L 123.8656 304.109243 
L 124.2624 294.255115 
L 124.6592 301.345669 
L 125.056 300.050369 
L 125.4528 297.898854 
L 125.8496 301.295773 
L 126.2464 300.659766 
L 126.6432 293.561893 
L 127.04 287.752003 
L 127.4368 286.850549 
L 127.8336 304.031405 
L 128.2304 292.2952 
L 128.6272 289.410546 
L 129.024 302.057519 
L 129.4208 290.82094 
L 129.8176 301.271158 
L 130.2144 293.987673 
L 130.6112 300.114901 
L 131.008 292.919898 
L 131.4048 302.841884 
L 131.8016 292.744264 
L 132.1984 300.928539 
L 132.5952 296.966131 
L 132.992 299.273988 
L 133.3888 303.962216 
L 133.7856 296.893616 
L 134.1824 285.629095 
L 134.5792 285.994999 
L 134.976 287.825184 
L 135.3728 291.762311 
L 135.7696 297.172368 
L 136.1664 291.141605 
L 136.5632 304.119887 
L 136.96 294.068837 
L 137.3568 297.401224 
L 137.7536 302.563797 
L 138.1504 294.851206 
L 138.5472 291.391085 
L 138.944 291.289962 
L 139.3408 293.366301 
L 139.7376 295.155239 
L 140.1344 304.255604 
L 140.5312 301.728205 
L 140.928 297.80638 
L 141.3248 303.887039 
L 141.7216 303.54575 
L 142.1184 302.521219 
L 142.5152 294.236487 
L 142.912 285.557244 
L 143.3088 284.65579 
L 143.7056 289.522313 
L 144.1024 300.684381 
L 144.4992 296.189749 
L 144.896 289.572875 
L 145.2928 295.714074 
L 145.6896 294.189918 
L 146.0864 292.550003 
L 146.4832 286.545851 
L 146.88 303.61627 
L 147.2768 300.599891 
L 147.6736 287.443313 
L 148.0704 289.038655 
L 148.4672 292.989753 
L 148.864 284.50211 
L 149.2608 289.472417 
L 149.6576 297.733199 
L 150.0544 295.104012 
L 150.4512 291.400399 
L 150.848 299.674486 
L 151.2448 301.650368 
L 151.6416 292.962476 
L 152.0384 288.8251 
L 152.4352 287.664186 
L 152.832 301.212613 
L 153.2288 302.283049 
L 153.6256 300.013114 
L 154.0224 291.22543 
L 154.4192 294.030251 
L 154.816 294.838566 
L 155.2128 292.011126 
L 155.6096 289.363311 
L 156.0064 290.56015 
L 156.4032 292.196739 
L 156.8 292.387009 
L 157.1968 288.27824 
L 157.5936 292.998401 
L 157.9904 288.61088 
L 158.3872 290.787011 
L 158.784 284.816123 
L 159.1808 292.6631 
L 159.5776 292.41362 
L 159.9744 291.795575 
L 160.3712 295.437983 
L 160.768 292.092955 
L 161.1648 290.825597 
L 161.5616 294.572454 
L 161.9584 285.821361 
L 162.3552 289.171711 
L 162.752 291.394411 
L 163.1488 301.600472 
L 163.5456 298.138355 
L 163.9424 295.907005 
L 164.3392 291.126303 
L 164.736 297.519644 
L 165.1328 304.169783 
L 165.5296 296.751246 
L 165.9264 296.258273 
L 166.3232 300.335774 
L 166.72 294.12339 
L 167.1168 292.358402 
L 167.5136 293.893868 
L 167.9104 293.554575 
L 168.3072 300.600556 
L 168.704 299.758977 
L 169.1008 299.906669 
L 169.4976 291.20148 
L 169.8944 303.756644 
L 170.2912 294.859855 
L 170.688 294.438067 
L 171.0848 293.985677 
L 171.4816 295.121975 
L 171.8784 293.822683 
L 172.2752 293.880563 
L 172.672 294.256446 
L 173.0688 302.299681 
L 173.4656 294.788004 
L 173.8624 296.887628 
L 174.2592 291.104349 
L 174.656 301.592488 
L 175.0528 292.955158 
L 175.4496 291.285305 
L 175.8464 289.69329 
L 176.2432 292.04439 
L 176.64 295.694116 
L 177.0368 292.719649 
L 177.4336 294.50393 
L 177.8304 288.056701 
L 178.2272 295.106008 
L 178.624 296.311496 
L 179.0208 292.031084 
L 179.4176 296.410622 
L 179.8144 302.750076 
L 180.2112 299.344507 
L 180.608 296.0853 
L 181.0048 298.984591 
L 181.4016 294.724138 
L 181.7984 291.10568 
L 182.1952 288.731961 
L 182.592 292.088298 
L 182.9888 298.081806 
L 183.3856 294.273743 
L 183.7824 286.28373 
L 184.1792 292.190086 
L 184.576 291.266012 
L 184.9728 292.051043 
L 185.3696 299.733696 
L 185.7664 298.997231 
L 186.1632 302.599057 
L 186.56 296.931537 
L 186.9568 293.999648 
L 187.3536 291.17886 
L 187.7504 295.522474 
L 188.1472 289.141108 
L 188.544 297.030663 
L 188.9408 288.843728 
L 189.3376 295.744012 
L 189.7344 287.247721 
L 190.1312 292.881312 
L 190.528 296.682722 
L 190.9248 300.841387 
L 191.3216 300.671741 
L 191.7184 302.297685 
L 192.1152 293.392247 
L 192.512 289.179029 
L 192.9088 295.865093 
L 193.3056 299.344507 
L 193.7024 296.056028 
L 194.0992 298.109082 
L 194.496 300.351076 
L 194.8928 296.696693 
L 195.2896 298.512242 
L 195.6864 297.356651 
L 196.0832 297.942762 
L 196.48 301.71623 
L 196.8768 301.942426 
L 197.2736 297.811037 
L 197.6704 294.252454 
L 198.0672 301.358975 
L 198.464 298.710495 
L 198.8608 302.565128 
L 199.2576 298.859518 
L 199.6544 304.242299 
L 200.0512 300.967125 
L 200.448 298.655942 
L 200.8448 299.545422 
L 201.2416 297.12979 
L 201.6384 299.46958 
L 202.0352 304.162465 
L 202.432 301.21594 
L 202.8288 298.160309 
L 203.2256 294.241144 
L 203.6224 297.938105 
L 204.0192 295.738024 
L 204.416 290.889464 
L 204.8128 299.405048 
L 205.2096 298.164966 
L 205.6064 296.978772 
L 206.0032 302.126708 
L 206.4 304.262257 
L 206.7968 303.511156 
L 207.1936 300.037064 
L 207.5904 297.914155 
L 207.9872 304.01943 
L 208.384 293.645053 
L 208.7808 303.023506 
L 209.1776 301.980347 
L 209.5744 303.593651 
L 209.9712 301.303092 
L 210.368 302.823922 
L 210.7648 296.996069 
L 211.1616 293.612455 
L 211.5584 301.53727 
L 211.9552 302.301677 
L 212.352 297.341349 
L 212.7488 295.342183 
L 213.1456 293.267174 
L 213.5424 295.219771 
L 213.9392 300.997728 
L 214.336 303.929617 
L 214.7328 301.364963 
L 215.1296 292.678402 
L 215.5264 304.065334 
L 215.9232 299.451617 
L 216.32 303.41469 
L 216.7168 304.666082 
L 217.1136 301.134776 
L 217.5104 295.215114 
L 217.9072 302.260429 
L 218.304 294.284388 
L 218.7008 301.331699 
L 219.0976 302.151324 
L 219.4944 300.188748 
L 219.8912 295.960893 
L 220.288 303.123298 
L 220.6848 294.465344 
L 221.0816 302.339598 
L 221.4784 304.077974 
L 221.8752 292.867341 
L 222.272 297.934114 
L 222.6688 294.891788 
L 223.0656 299.132283 
L 223.4624 303.475231 
L 223.8592 303.042799 
L 224.256 297.548916 
L 224.6528 297.538937 
L 225.0496 297.190996 
L 225.4464 301.790742 
L 225.8432 300.925878 
L 226.24 298.546171 
L 226.6368 296.559645 
L 227.0336 303.103339 
L 227.4304 299.758977 
L 227.8272 297.537607 
L 228.224 296.669416 
L 228.6208 295.979521 
L 229.0176 303.238391 
L 229.4144 300.583924 
L 229.8112 304.162465 
L 230.208 300.221346 
L 230.6048 297.966712 
L 231.0016 304.262922 
L 231.3984 300.701678 
L 231.7952 294.928379 
L 232.192 305.177682 
L 232.5888 299.836149 
L 232.9856 303.511156 
L 233.3824 303.062757 
L 233.7792 293.210626 
L 234.176 304.093941 
L 234.5728 295.734033 
L 234.9696 304.006789 
L 235.3664 303.677476 
L 235.7632 299.738353 
L 236.16 304.184419 
L 236.5568 301.490035 
L 236.9536 302.632321 
L 237.3504 304.205708 
L 237.7472 302.108746 
L 238.144 293.634409 
L 238.5408 299.263343 
L 238.9376 303.062757 
L 239.3344 296.374032 
L 239.7312 295.585675 
L 240.128 294.054866 
L 240.5248 297.091869 
L 240.9216 295.817858 
L 241.3184 302.03623 
L 241.7152 294.472662 
L 242.112 297.153075 
L 242.5088 298.101099 
L 242.9056 304.283546 
L 243.3024 302.334276 
L 243.6992 304.216353 
L 244.096 299.405713 
L 244.4928 304.083962 
L 244.8896 297.712575 
L 245.2864 302.1786 
L 245.6832 304.086623 
L 246.08 305.389241 
L 246.4768 304.04338 
L 246.8736 304.881633 
L 247.2704 304.301508 
L 247.6672 303.634898 
L 248.064 302.030908 
L 248.4608 301.684297 
L 248.8576 299.743675 
L 249.2544 305.266164 
L 249.6512 302.729452 
L 250.048 304.74525 
L 250.4448 303.051447 
L 250.8416 295.245717 
L 251.2384 297.755153 
L 251.6352 298.089124 
L 252.032 292.945179 
L 252.4288 294.875821 
L 252.8256 304.255604 
L 253.2224 302.090118 
L 253.6192 300.079642 
L 254.016 299.812199 
L 254.4128 304.271571 
L 254.8096 304.247621 
L 255.2064 302.709493 
L 255.6032 294.952329 
L 256 300.179434 
L 256.3968 297.487045 
L 256.7936 294.593743 
L 257.1904 304.199721 
L 257.5872 304.038058 
L 257.984 300.635816 
L 258.3808 304.380677 
L 258.7776 299.020516 
L 259.1744 293.804721 
L 259.5712 295.171206 
L 259.968 302.577103 
L 260.3648 300.755566 
L 260.7616 303.887704 
L 261.1584 302.964961 
L 261.5552 302.613028 
L 261.952 302.565128 
L 262.3488 304.028744 
L 262.7456 296.446548 
L 263.1424 302.961635 
L 263.5392 303.11598 
L 263.936 299.195484 
L 264.3328 297.159062 
L 264.7296 301.615773 
L 265.1264 301.830659 
L 265.5232 298.027253 
L 265.92 304.217018 
L 266.3168 302.909077 
L 266.7136 302.735439 
L 267.1104 297.918147 
L 267.5072 302.065502 
L 267.904 300.149496 
L 268.3008 300.228664 
L 268.6976 300.043051 
L 269.0944 300.022428 
L 269.4912 300.451533 
L 269.888 298.328625 
L 270.2848 292.974451 
L 270.6816 297.614779 
L 271.0784 301.772779 
L 271.4752 300.633155 
L 271.872 296.863013 
L 272.2688 297.976692 
L 272.6656 304.223671 
L 273.0624 299.558727 
L 273.4592 297.465091 
L 273.856 303.972195 
L 274.2528 300.810784 
L 274.6496 304.175771 
L 275.0464 303.278973 
L 275.4432 302.070825 
L 275.84 301.315732 
L 276.2368 303.762632 
L 276.6336 303.920968 
L 277.0304 300.790161 
L 277.4272 304.168452 
L 277.824 298.293365 
L 278.2208 303.612944 
L 278.6176 303.764628 
L 279.0144 305.511653 
L 279.4112 300.648456 
L 279.808 303.274316 
L 280.2048 300.248623 
L 280.6016 300.031741 
L 280.9984 304.19839 
L 281.3952 303.052778 
L 281.792 300.250619 
L 282.1888 301.468081 
L 282.5856 303.812528 
L 282.9824 303.882382 
L 283.3792 301.180015 
L 283.776 303.504503 
L 284.1728 303.754648 
L 284.5696 295.819854 
L 284.9664 303.912985 
L 285.3632 294.825925 
L 285.76 300.856023 
L 286.1568 304.180428 
L 286.5536 302.497269 
L 286.9504 303.867081 
L 287.3472 303.686124 
L 287.744 303.871738 
L 288.1408 303.763962 
L 288.5376 300.751574 
L 288.9344 300.588581 
L 289.3312 304.169783 
L 289.728 303.65286 
L 290.1248 300.019766 
L 290.5216 303.990157 
L 290.9184 298.909414 
L 291.3152 302.851863 
L 291.712 303.942257 
L 292.1088 303.934274 
L 292.5056 303.590989 
L 292.9024 304.260261 
L 293.2992 302.406126 
L 293.696 302.179931 
L 294.0928 299.415692 
L 294.4896 294.97894 
L 294.8864 302.529203 
L 295.2832 302.950325 
L 295.68 303.24837 
L 296.0768 303.881717 
L 296.4736 299.782927 
L 296.8704 294.665593 
L 297.2672 296.946838 
L 297.664 303.477892 
L 298.0608 302.621011 
L 298.4576 292.894618 
L 298.8544 303.827829 
L 299.2512 304.212361 
L 299.648 304.10392 
L 300.0448 302.976936 
L 300.4416 298.707834 
L 300.8384 300.142178 
L 301.2352 304.03207 
L 301.632 301.092863 
L 302.0288 301.347665 
L 302.4256 304.159139 
L 302.8224 302.763381 
L 303.2192 304.209035 
L 303.616 303.887039 
L 304.0128 303.512486 
L 304.4096 297.610788 
L 304.8064 304.188411 
L 305.2032 299.574694 
L 305.6 303.980844 
L 305.9968 303.547746 
L 306.3936 301.951074 
L 306.7904 304.177766 
L 307.1872 302.678225 
L 307.584 302.709493 
L 307.9808 305.425832 
L 308.3776 304.216353 
L 308.7744 303.835147 
L 309.1712 304.231654 
L 309.568 303.617601 
L 309.9648 302.933028 
L 310.3616 299.999143 
L 310.7584 302.076147 
L 311.1552 304.219014 
L 311.552 303.883047 
L 311.9488 304.844377 
L 312.3456 299.814195 
L 312.7424 304.604211 
L 313.1392 300.615192 
L 313.536 302.78334 
L 313.9328 301.579848 
L 314.3296 299.157564 
L 314.7264 305.789075 
L 315.1232 295.852452 
L 315.52 305.684626 
L 315.9168 296.386007 
L 316.3136 295.028171 
L 316.7104 303.317559 
L 317.1072 305.475728 
L 317.504 300.253945 
L 317.9008 303.554399 
L 318.2976 299.996482 
L 318.6944 294.303015 
L 319.0912 300.092947 
L 319.488 301.793403 
L 319.8848 299.794236 
L 320.2816 304.052028 
L 320.6784 305.846954 
L 321.0752 302.49993 
L 321.472 303.545085 
L 321.8688 303.335522 
L 322.2656 301.877893 
L 322.6624 300.748248 
L 323.0592 305.660676 
L 323.456 303.751322 
L 323.8528 297.896858 
L 324.2496 297.503677 
L 324.6464 301.239225 
L 325.0432 304.219014 
L 325.44 297.358646 
L 325.8368 297.400559 
L 326.2336 300.519392 
L 326.6304 301.492696 
L 327.0272 303.208453 
L 327.424 304.18575 
L 327.8208 305.329366 
L 328.2176 301.492696 
L 328.6144 303.437975 
L 329.0112 299.23274 
L 329.408 302.024255 
L 329.8048 303.658183 
L 330.2016 294.362225 
L 330.5984 304.641467 
L 330.9952 298.706504 
L 331.392 300.614527 
L 331.7888 301.388913 
L 332.1856 304.244294 
L 332.5824 305.340676 
L 332.9792 302.045544 
L 333.376 302.019598 
L 333.7728 305.438472 
L 334.1696 298.258105 
L 334.5664 299.241389 
L 334.9632 304.308827 
L 335.36 302.779348 
L 335.7568 304.148494 
L 336.1536 301.570534 
L 336.5504 304.244294 
L 336.9472 303.867746 
L 337.344 304.058681 
L 337.7408 295.696777 
L 338.1376 305.537599 
L 338.5344 304.031405 
L 338.9312 302.89178 
L 339.328 299.772948 
L 339.7248 299.816191 
L 340.1216 296.090623 
L 340.5184 301.529952 
L 340.9152 301.470742 
L 341.312 303.140595 
L 341.7088 298.021931 
L 342.1056 303.879721 
L 342.5024 302.673568 
L 342.8992 296.960809 
L 343.296 300.915899 
L 343.6928 302.827913 
L 344.0896 302.999556 
L 344.4864 297.523636 
L 344.8832 304.242964 
L 345.28 301.732862 
L 345.6768 295.283638 
L 346.0736 302.607706 
L 346.4704 302.519889 
L 346.8672 302.197893 
L 347.264 298.526213 
L 347.6608 302.553153 
L 348.0576 301.944421 
L 348.4544 297.150414 
L 348.8512 303.46259 
L 349.248 304.259596 
L 349.6448 301.028996 
L 350.0416 304.193733 
L 350.4384 303.966873 
L 350.8352 300.643134 
L 351.232 301.259848 
L 351.6288 301.569869 
L 352.0256 302.957643 
L 352.4224 298.894778 
L 352.8192 303.028828 
L 353.216 305.357308 
L 353.6128 306.002629 
L 354.0096 304.070656 
L 354.4064 303.745334 
L 354.8032 298.510911 
L 355.2 302.996229 
L 355.5968 303.052113 
L 355.9936 303.990823 
L 356.3904 302.041552 
L 356.7872 299.233405 
L 357.184 301.446792 
L 357.5808 298.387835 
L 357.9776 302.577768 
L 358.3744 304.179762 
L 358.7712 298.200891 
L 359.168 304.089949 
L 359.5648 303.879056 
L 359.9616 300.845379 
L 360.3584 299.078395 
L 360.7552 304.320136 
L 361.152 305.810364 
L 361.5488 303.008869 
L 361.9456 304.258931 
L 362.3424 304.026748 
L 362.7392 304.172444 
L 363.136 303.926291 
L 363.5328 304.140511 
L 363.9296 300.89594 
L 364.3264 299.596648 
L 364.7232 297.299436 
L 365.12 298.739768 
L 365.5168 301.428164 
L 365.9136 304.334772 
L 366.3104 298.437731 
L 366.7072 303.106666 
L 367.104 301.550576 
L 367.5008 301.978351 
L 367.8976 295.867089 
L 368.2944 302.394816 
L 368.6912 304.423255 
L 369.088 304.133193 
L 369.4848 304.234315 
L 369.8816 303.027497 
L 370.2784 304.133858 
L 370.6752 304.195729 
L 371.072 301.105503 
L 371.4688 304.216353 
L 371.8656 301.15806 
L 372.2624 304.153816 
L 372.6592 304.284876 
L 373.056 297.080559 
L 373.4528 304.171779 
L 373.8496 303.023506 
L 374.2464 304.841051 
L 374.6432 303.787912 
L 375.04 305.620093 
L 375.4368 301.301096 
L 375.8336 303.386083 
L 376.2304 298.539518 
L 376.6272 302.827248 
L 377.024 300.856023 
L 377.4208 304.254939 
L 377.8176 305.343337 
L 378.2144 300.570618 
L 378.6112 302.454026 
L 379.008 303.349493 
L 379.4048 300.2433 
L 379.8016 300.299184 
L 380.1984 300.826751 
L 380.5952 304.267579 
L 380.992 303.968868 
L 381.3888 298.9959 
L 381.7856 303.316229 
L 382.1824 298.548167 
L 382.5792 297.338688 
L 382.976 299.78958 
L 383.3728 299.318561 
L 383.7696 303.796561 
L 384.1664 296.661433 
L 384.5632 297.603469 
L 384.96 303.537767 
L 385.3568 305.87423 
L 385.7536 300.274569 
L 386.1504 298.349914 
L 386.5472 304.179097 
L 386.944 301.333029 
L 387.3408 305.463087 
L 387.7376 303.314898 
L 388.1344 305.251528 
L 388.5312 300.689703 
L 388.928 302.994233 
L 389.3248 303.976187 
L 389.7216 294.891788 
L 390.1184 298.860849 
L 390.5152 298.322637 
L 390.912 304.344086 
L 391.3088 305.902172 
L 391.7056 300.593238 
L 392.1024 303.264337 
L 392.4992 300.737604 
L 392.896 304.157143 
L 393.2928 303.906332 
L 393.6896 306.226829 
L 394.0864 300.348415 
L 394.4832 299.869413 
L 394.88 298.568791 
L 395.2768 304.191072 
L 395.6736 304.237642 
L 396.0704 300.537354 
L 396.4672 302.768703 
L 396.864 304.520386 
L 397.2608 302.9623 
L 397.6576 302.5465 
L 398.0544 300.251284 
L 398.4512 303.207788 
L 398.848 300.780181 
L 399.2448 301.872571 
L 399.6416 304.037392 
L 400.0384 300.446211 
L 400.4352 300.156814 
L 400.832 299.593322 
L 401.2288 302.390824 
L 401.6256 305.613441 
L 402.0224 304.678722 
L 402.4192 304.008785 
L 402.816 304.141841 
L 403.2128 304.240303 
L 403.6096 304.881633 
L 404.0064 299.354486 
L 404.4032 302.485294 
L 404.8 303.43864 
L 405.1968 304.326124 
L 405.5936 303.459264 
L 405.9904 304.338764 
L 406.3872 300.410951 
L 406.784 298.551493 
L 407.1808 300.393654 
L 407.5776 301.088206 
L 407.9744 299.432324 
L 408.3712 305.592152 
L 408.768 304.548327 
L 409.1648 303.060096 
L 409.5616 302.929701 
L 409.9584 300.17145 
L 410.3552 305.190323 
L 410.752 303.251031 
L 411.1488 303.276312 
L 411.5456 299.536108 
L 411.9424 305.538929 
L 412.3392 303.507829 
L 412.736 303.752652 
L 413.1328 304.49577 
L 413.5296 299.194154 
L 413.9264 298.93536 
L 414.3232 304.228993 
L 414.72 302.680221 
L 415.1168 303.798557 
L 415.5136 299.599975 
L 415.9104 304.107247 
L 416.3072 303.100678 
L 416.704 297.601474 
L 417.1008 302.205876 
L 417.4976 299.388416 
L 417.8944 299.164882 
L 418.2912 304.13785 
L 418.688 303.906332 
L 419.0848 302.443381 
L 419.4816 303.054108 
L 419.8784 302.131365 
L 420.2752 298.10376 
L 420.672 302.658267 
L 421.0688 303.451281 
L 421.4656 300.878643 
L 421.8624 304.240968 
L 422.2592 303.07074 
L 422.656 304.119887 
L 423.0528 304.069326 
L 423.4496 303.386748 
L 423.8464 298.964632 
L 424.2432 305.866247 
L 424.64 304.002798 
L 425.0368 303.408037 
L 425.4336 302.43939 
L 425.8304 305.720551 
L 426.2272 304.380677 
L 426.624 302.223839 
L 427.0208 299.169539 
L 427.4176 301.118144 
L 427.8144 303.505168 
L 428.2112 303.611613 
L 428.608 298.210205 
L 429.0048 305.105832 
L 429.4016 299.174861 
L 429.7984 304.209035 
L 430.1952 305.378597 
L 430.592 305.17236 
L 430.9888 303.286291 
L 431.3856 303.845792 
L 431.7824 303.088703 
L 432.1792 305.236892 
L 432.576 304.19839 
L 432.9728 299.009871 
L 433.3696 303.455272 
L 433.7664 302.879805 
L 434.1632 298.538188 
L 434.56 303.002217 
L 434.9568 305.342672 
L 435.3536 297.397898 
L 435.7504 297.000726 
L 436.1472 297.838979 
L 436.544 299.016524 
L 436.9408 304.287538 
L 437.3376 303.982174 
L 437.7344 304.38866 
L 438.1312 298.37586 
L 438.528 303.694108 
L 438.9248 304.215687 
L 439.3216 303.119971 
L 439.7184 305.986663 
L 440.1152 300.658435 
L 440.512 300.553321 
L 440.9088 303.624919 
L 441.3056 301.972363 
L 441.7024 300.214693 
L 442.0992 298.419768 
L 442.496 302.462009 
L 442.8928 304.440552 
L 443.2896 302.586417 
L 443.6864 305.115146 
L 444.0832 297.31873 
L 444.48 299.74434 
L 444.8768 301.050285 
L 445.2736 302.702841 
L 445.6704 303.768619 
L 446.0672 305.986663 
L 446.464 294.579107 
L 446.8608 302.663589 
L 447.2576 301.373611 
L 447.6544 301.317062 
L 448.0512 300.647125 
L 448.448 300.172781 
L 448.8448 304.234315 
L 449.2416 304.787828 
L 449.6384 303.343505 
L 450.0352 306.123045 
L 450.432 304.371363 
L 450.8288 304.190407 
L 451.2256 302.865169 
L 451.6224 303.713401 
L 452.0192 303.494524 
L 452.416 305.353981 
L 452.8128 301.351657 
L 453.2096 302.944337 
L 453.6064 298.584757 
L 453.6064 281.741198 
L 453.6064 281.741198 
L 453.2096 292.344431 
L 452.8128 293.989003 
L 452.416 295.131954 
L 452.0192 293.080896 
L 451.6224 294.675572 
L 451.2256 293.421519 
L 450.8288 296.193076 
L 450.432 291.459609 
L 450.0352 291.804224 
L 449.6384 294.26709 
L 449.2416 296.932202 
L 448.8448 294.5505 
L 448.448 293.545927 
L 448.0512 292.499441 
L 447.6544 292.401645 
L 447.2576 292.367051 
L 446.8608 292.812788 
L 446.464 289.63275 
L 446.0672 298.049872 
L 445.6704 292.614535 
L 445.2736 293.52996 
L 444.8768 291.957238 
L 444.48 290.415119 
L 444.0832 290.045223 
L 443.6864 298.903427 
L 443.2896 291.758319 
L 442.8928 292.801478 
L 442.496 291.784931 
L 442.0992 291.216781 
L 441.7024 290.602728 
L 441.3056 292.072332 
L 440.9088 297.971369 
L 440.512 292.577279 
L 440.1152 292.940522 
L 439.7184 293.238567 
L 439.3216 290.851543 
L 438.9248 297.944093 
L 438.528 291.754328 
L 438.1312 292.512082 
L 437.7344 297.117815 
L 437.3376 298.461681 
L 436.9408 297.618771 
L 436.544 291.679816 
L 436.1472 291.490877 
L 435.7504 290.797655 
L 435.3536 293.305095 
L 434.9568 294.0063 
L 434.56 293.24522 
L 434.1632 291.731043 
L 433.7664 294.939688 
L 433.3696 291.937945 
L 432.9728 292.795491 
L 432.576 293.737527 
L 432.1792 292.879316 
L 431.7824 294.266425 
L 431.3856 293.546592 
L 430.9888 291.599983 
L 430.592 291.547426 
L 430.1952 291.220773 
L 429.7984 294.36156 
L 429.4016 291.162894 
L 429.0048 291.480898 
L 428.608 292.269254 
L 428.2112 292.641811 
L 427.8144 293.395573 
L 427.4176 291.203476 
L 427.0208 296.83374 
L 426.624 290.473664 
L 426.2272 298.465007 
L 425.8304 292.512082 
L 425.4336 295.532453 
L 425.0368 293.447465 
L 424.64 293.547257 
L 424.2432 294.040895 
L 423.8464 290.665264 
L 423.4496 293.762808 
L 423.0528 293.168713 
L 422.656 296.17844 
L 422.2592 293.105511 
L 421.8624 293.828671 
L 421.4656 292.620522 
L 421.0688 291.930627 
L 420.672 293.013037 
L 420.2752 291.800232 
L 419.8784 298.071827 
L 419.4816 292.570626 
L 419.0848 294.251124 
L 418.688 297.661349 
L 418.2912 295.00422 
L 417.8944 293.028339 
L 417.4976 291.363808 
L 417.1008 294.75341 
L 416.704 292.289213 
L 416.3072 295.18185 
L 415.9104 293.394243 
L 415.5136 291.401729 
L 415.1168 291.799567 
L 414.72 292.99574 
L 414.3232 291.8794 
L 413.9264 291.688465 
L 413.5296 293.66102 
L 413.1328 293.41154 
L 412.736 293.472746 
L 412.3392 292.034411 
L 411.9424 295.036154 
L 411.5456 291.14227 
L 411.1488 293.937111 
L 410.752 293.420854 
L 410.3552 290.01329 
L 409.9584 291.102353 
L 409.5616 292.969129 
L 409.1648 296.31083 
L 408.768 297.905507 
L 408.3712 295.492536 
L 407.9744 296.340103 
L 407.5776 293.655033 
L 407.1808 293.609128 
L 406.784 290.849547 
L 406.3872 297.365964 
L 405.9904 298.66326 
L 405.5936 292.589254 
L 405.1968 292.957154 
L 404.8 292.468173 
L 404.4032 290.825597 
L 404.0064 290.0246 
L 403.6096 292.552664 
L 403.2128 295.827172 
L 402.816 294.152662 
L 402.4192 297.393241 
L 402.0224 291.301272 
L 401.6256 293.356987 
L 401.2288 292.997071 
L 400.832 292.216697 
L 400.4352 292.645803 
L 400.0384 292.05703 
L 399.6416 291.40306 
L 399.2448 292.202726 
L 398.848 290.898112 
L 398.4512 293.349669 
L 398.0544 291.327883 
L 397.6576 291.003892 
L 397.2608 291.135617 
L 396.864 294.29104 
L 396.4672 292.22335 
L 396.0704 290.771709 
L 395.6736 296.640809 
L 395.2768 291.281979 
L 394.88 289.338031 
L 394.4832 292.041063 
L 394.0864 291.105014 
L 393.6896 298.143012 
L 393.2928 294.546508 
L 392.896 292.954493 
L 392.4992 291.210129 
L 392.1024 294.245136 
L 391.7056 289.285474 
L 391.3088 298.610703 
L 390.912 290.859526 
L 390.5152 290.248134 
L 390.1184 290.596075 
L 389.7216 291.906012 
L 389.3248 291.882061 
L 388.928 295.793243 
L 388.5312 293.754825 
L 388.1344 294.555156 
L 387.7376 297.500351 
L 387.3408 292.516073 
L 386.944 293.151416 
L 386.5472 299.703093 
L 386.1504 287.600985 
L 385.7536 292.613869 
L 385.3568 289.794413 
L 384.96 292.202061 
L 384.5632 290.149672 
L 384.1664 287.726723 
L 383.7696 290.256782 
L 383.3728 292.102934 
L 382.976 290.229506 
L 382.5792 290.435743 
L 382.1824 286.927721 
L 381.7856 291.586012 
L 381.3888 291.360482 
L 380.992 296.625508 
L 380.5952 294.674907 
L 380.1984 293.851956 
L 379.8016 291.342519 
L 379.4048 292.155492 
L 379.008 289.332043 
L 378.6112 290.294703 
L 378.2144 289.675993 
L 377.8176 294.755406 
L 377.4208 291.977196 
L 377.024 294.531206 
L 376.6272 293.736197 
L 376.2304 289.144434 
L 375.8336 292.629171 
L 375.4368 290.816948 
L 375.04 294.976944 
L 374.6432 298.218853 
L 374.2464 301.436813 
L 373.8496 291.682477 
L 373.4528 296.611537 
L 373.056 294.002309 
L 372.6592 297.89087 
L 372.2624 292.786177 
L 371.8656 291.749005 
L 371.4688 297.54559 
L 371.072 293.778109 
L 370.6752 296.771869 
L 370.2784 295.726049 
L 369.8816 291.282644 
L 369.4848 296.169126 
L 369.088 294.994907 
L 368.6912 296.004802 
L 368.2944 289.63275 
L 367.8976 289.771128 
L 367.5008 290.951335 
L 367.104 290.865514 
L 366.7072 291.325222 
L 366.3104 289.641398 
L 365.9136 294.439398 
L 365.5168 290.913414 
L 365.12 289.495037 
L 364.7232 286.862524 
L 364.3264 289.407885 
L 363.9296 289.061274 
L 363.5328 292.652456 
L 363.136 292.897279 
L 362.7392 290.765056 
L 362.3424 293.851956 
L 361.9456 291.68913 
L 361.5488 291.969878 
L 361.152 295.130624 
L 360.7552 296.836402 
L 360.3584 289.600816 
L 359.9616 293.991664 
L 359.5648 294.949668 
L 359.168 292.193412 
L 358.7712 291.039152 
L 358.3744 295.240395 
L 357.9776 292.871998 
L 357.5808 291.388424 
L 357.184 291.013206 
L 356.7872 289.923477 
L 356.3904 292.521396 
L 355.9936 290.33462 
L 355.5968 293.632413 
L 355.2 289.598155 
L 354.8032 290.402479 
L 354.4064 291.120981 
L 354.0096 293.921145 
L 353.6128 297.916151 
L 353.216 292.911915 
L 352.8192 290.387843 
L 352.4224 290.961314 
L 352.0256 293.372289 
L 351.6288 290.36988 
L 351.232 288.981441 
L 350.8352 291.752997 
L 350.4384 292.053704 
L 350.0416 295.616278 
L 349.6448 290.20356 
L 349.248 296.944842 
L 348.8512 289.89354 
L 348.4544 290.549506 
L 348.0576 291.340524 
L 347.6608 290.065182 
L 347.264 293.873244 
L 346.8672 291.707093 
L 346.4704 290.117074 
L 346.0736 290.0725 
L 345.6768 290.601397 
L 345.28 291.220108 
L 344.8832 291.465596 
L 344.4864 288.659445 
L 344.0896 292.383017 
L 343.6928 291.579359 
L 343.296 290.583435 
L 342.8992 290.517572 
L 342.5024 291.176199 
L 342.1056 289.686637 
L 341.7088 291.992498 
L 341.312 290.444391 
L 340.9152 291.299941 
L 340.5184 292.715657 
L 340.1216 288.755245 
L 339.7248 290.27541 
L 339.328 291.287966 
L 338.9312 293.686301 
L 338.5344 294.144679 
L 338.1376 292.478818 
L 337.7408 290.556158 
L 337.344 291.240066 
L 336.9472 292.322477 
L 336.5504 292.883308 
L 336.1536 290.254787 
L 335.7568 291.008549 
L 335.36 292.013787 
L 334.9632 299.621264 
L 334.5664 289.37196 
L 334.1696 292.55599 
L 333.7728 292.750917 
L 333.376 292.411624 
L 332.9792 290.160317 
L 332.5824 295.176528 
L 332.1856 295.593659 
L 331.7888 291.073746 
L 331.392 291.398403 
L 330.9952 291.028507 
L 330.5984 288.157824 
L 330.2016 291.196158 
L 329.8048 290.775036 
L 329.408 291.603309 
L 329.0112 293.941768 
L 328.6144 292.808796 
L 328.2176 293.087549 
L 327.8208 292.996405 
L 327.424 293.207964 
L 327.0272 291.853454 
L 326.6304 291.384432 
L 326.2336 292.48547 
L 325.8368 290.187593 
L 325.44 290.095119 
L 325.0432 291.62992 
L 324.6464 291.015202 
L 324.2496 291.814203 
L 323.8528 290.473664 
L 323.456 291.043143 
L 323.0592 290.893455 
L 322.6624 291.209463 
L 322.2656 291.396407 
L 321.8688 290.709838 
L 321.472 292.845387 
L 321.0752 293.565885 
L 320.6784 294.219855 
L 320.2816 291.713746 
L 319.8848 293.547923 
L 319.488 291.4636 
L 319.0912 291.118985 
L 318.6944 291.16489 
L 318.2976 289.383935 
L 317.9008 291.255368 
L 317.504 291.942602 
L 317.1072 298.037232 
L 316.7104 292.334452 
L 316.3136 290.160317 
L 315.9168 287.622274 
L 315.52 288.71799 
L 315.1232 289.759818 
L 314.7264 291.816199 
L 314.3296 285.30976 
L 313.9328 291.240732 
L 313.536 288.529716 
L 313.1392 291.242062 
L 312.7424 289.367968 
L 312.3456 289.736533 
L 311.9488 293.415532 
L 311.552 292.200065 
L 311.1552 291.456282 
L 310.7584 290.848882 
L 310.3616 290.786345 
L 309.9648 292.756239 
L 309.568 291.888714 
L 309.1712 292.716323 
L 308.7744 292.742934 
L 308.3776 295.207796 
L 307.9808 288.504435 
L 307.584 294.950333 
L 307.1872 292.308506 
L 306.7904 292.846717 
L 306.3936 289.874912 
L 305.9968 290.410462 
L 305.6 288.427928 
L 305.2032 290.938694 
L 304.8064 291.852789 
L 304.4096 291.222769 
L 304.0128 292.09229 
L 303.616 294.056862 
L 303.2192 291.055784 
L 302.8224 294.322974 
L 302.4256 290.70252 
L 302.0288 289.89354 
L 301.632 293.06626 
L 301.2352 290.850212 
L 300.8384 286.695539 
L 300.4416 292.265263 
L 300.0448 292.331791 
L 299.648 294.488628 
L 299.2512 292.705013 
L 298.8544 298.218188 
L 298.4576 288.821773 
L 298.0608 290.355244 
L 297.664 294.193244 
L 297.2672 290.84489 
L 296.8704 287.813209 
L 296.4736 289.812375 
L 296.0768 292.325138 
L 295.68 290.701855 
L 295.2832 295.334865 
L 294.8864 290.578113 
L 294.4896 290.045223 
L 294.0928 293.476072 
L 293.696 292.635158 
L 293.2992 292.999067 
L 292.9024 292.861354 
L 292.5056 293.062933 
L 292.1088 289.575536 
L 291.712 290.498944 
L 291.3152 291.90202 
L 290.9184 295.005551 
L 290.5216 294.157984 
L 290.1248 293.116821 
L 289.728 293.055615 
L 289.3312 294.613701 
L 288.9344 290.405805 
L 288.5376 293.698941 
L 288.1408 291.273996 
L 287.744 293.055615 
L 287.3472 295.684137 
L 286.9504 291.416365 
L 286.5536 293.177362 
L 286.1568 292.794826 
L 285.76 292.679067 
L 285.3632 289.872251 
L 284.9664 292.57994 
L 284.5696 290.906761 
L 284.1728 295.199813 
L 283.776 294.601061 
L 283.3792 291.05778 
L 282.9824 293.676987 
L 282.5856 293.092206 
L 282.1888 290.228841 
L 281.792 290.35724 
L 281.3952 291.76098 
L 280.9984 293.193328 
L 280.6016 294.532537 
L 280.2048 291.7836 
L 279.808 291.876074 
L 279.4112 291.269339 
L 279.0144 294.696861 
L 278.6176 294.940354 
L 278.2208 290.4404 
L 277.824 290.532208 
L 277.4272 292.565969 
L 277.0304 290.76306 
L 276.6336 292.002477 
L 276.2368 292.455533 
L 275.84 292.28256 
L 275.4432 292.98443 
L 275.0464 293.667008 
L 274.6496 292.375034 
L 274.2528 290.313996 
L 273.856 291.657862 
L 273.4592 293.144763 
L 273.0624 288.684726 
L 272.6656 292.736281 
L 272.2688 290.470337 
L 271.872 291.965221 
L 271.4752 291.406386 
L 271.0784 291.564723 
L 270.6816 291.993828 
L 270.2848 290.481647 
L 269.888 288.27957 
L 269.4912 290.799651 
L 269.0944 289.8004 
L 268.6976 290.428425 
L 268.3008 296.659437 
L 267.904 292.379691 
L 267.5072 293.58917 
L 267.1104 291.484889 
L 266.7136 293.58917 
L 266.3168 291.446303 
L 265.92 290.422437 
L 265.5232 293.172039 
L 265.1264 292.62784 
L 264.7296 287.744685 
L 264.3328 288.961482 
L 263.936 290.350587 
L 263.5392 294.342932 
L 263.1424 291.377779 
L 262.7456 290.213539 
L 262.3488 294.149336 
L 261.952 294.33894 
L 261.5552 290.647302 
L 261.1584 286.050882 
L 260.7616 287.075413 
L 260.3648 293.462767 
L 259.968 294.282392 
L 259.5712 290.066512 
L 259.1744 288.283562 
L 258.7776 290.745763 
L 258.3808 299.154902 
L 257.984 294.019606 
L 257.5872 294.213868 
L 257.1904 293.776114 
L 256.7936 290.325306 
L 256.3968 292.27125 
L 256 288.185766 
L 255.6032 292.856031 
L 255.2064 292.108922 
L 254.8096 288.266265 
L 254.4128 292.786842 
L 254.016 288.875661 
L 253.6192 292.210044 
L 253.2224 297.994654 
L 252.8256 292.786842 
L 252.4288 290.886803 
L 252.032 289.686637 
L 251.6352 283.947267 
L 251.2384 291.365139 
L 250.8416 290.770379 
L 250.4448 291.850793 
L 250.048 290.75042 
L 249.6512 288.757241 
L 249.2544 291.12963 
L 248.8576 289.909506 
L 248.4608 288.384684 
L 248.064 292.350419 
L 247.6672 292.743599 
L 247.2704 292.723641 
L 246.8736 288.290215 
L 246.4768 288.549674 
L 246.08 290.387843 
L 245.6832 291.150919 
L 245.2864 290.326637 
L 244.8896 293.124804 
L 244.4928 289.642729 
L 244.096 289.585515 
L 243.6992 288.320818 
L 243.3024 287.86377 
L 242.9056 289.352667 
L 242.5088 289.703935 
L 242.112 286.821942 
L 241.7152 289.166388 
L 241.3184 289.753165 
L 240.9216 288.979445 
L 240.5248 289.782438 
L 240.128 275.431683 
L 239.7312 288.446556 
L 239.3344 290.884807 
L 238.9376 289.461108 
L 238.5408 290.467011 
L 238.144 288.625516 
L 237.7472 290.210213 
L 237.3504 290.04855 
L 236.9536 289.688633 
L 236.5568 289.100526 
L 236.16 289.72722 
L 235.7632 289.734538 
L 235.3664 292.089629 
L 234.9696 291.898693 
L 234.5728 290.551501 
L 234.176 291.693787 
L 233.7792 290.506928 
L 233.3824 290.293373 
L 232.9856 288.692709 
L 232.5888 288.253624 
L 232.192 289.414538 
L 231.7952 289.892209 
L 231.3984 291.150253 
L 231.0016 289.448467 
L 230.6048 289.953415 
L 230.208 288.493125 
L 229.8112 288.234996 
L 229.4144 288.432585 
L 229.0176 291.719733 
L 228.6208 289.594164 
L 228.224 290.034579 
L 227.8272 288.13587 
L 227.4304 289.374621 
L 227.0336 288.81246 
L 226.6368 287.525808 
L 226.24 272.9768 
L 225.8432 289.206971 
L 225.4464 289.638072 
L 225.0496 290.35857 
L 224.6528 290.501605 
L 224.256 272.412642 
L 223.8592 287.551089 
L 223.4624 289.131129 
L 223.0656 276.526068 
L 222.6688 288.913582 
L 222.272 288.222356 
L 221.8752 288.643478 
L 221.4784 290.128383 
L 221.0816 288.66011 
L 220.6848 286.10477 
L 220.288 289.795743 
L 219.8912 291.172208 
L 219.4944 290.215535 
L 219.0976 290.152999 
L 218.7008 290.411793 
L 218.304 289.327386 
L 217.9072 291.611958 
L 217.5104 288.86036 
L 217.1136 287.944269 
L 216.7168 293.064929 
L 216.32 289.447137 
L 215.9232 283.344523 
L 215.5264 277.277835 
L 215.1296 290.246138 
L 214.7328 291.861438 
L 214.336 292.625844 
L 213.9392 289.757822 
L 213.5424 263.996185 
L 213.1456 285.38028 
L 212.7488 288.629508 
L 212.352 269.667697 
L 211.9552 291.671833 
L 211.5584 288.563645 
L 211.1616 272.046073 
L 210.7648 288.334788 
L 210.368 290.055203 
L 209.9712 290.902104 
L 209.5744 291.359817 
L 209.1776 279.201825 
L 208.7808 290.394495 
L 208.384 289.811045 
L 207.9872 291.208133 
L 207.5904 290.60672 
L 207.1936 289.12248 
L 206.7968 288.801815 
L 206.4 290.796324 
L 206.0032 283.765645 
L 205.6064 275.60266 
L 205.2096 271.131313 
L 204.8128 289.150422 
L 204.416 276.844738 
L 204.0192 289.461773 
L 203.6224 289.079237 
L 203.2256 287.167222 
L 202.8288 288.324144 
L 202.432 290.669921 
L 202.0352 290.332624 
L 201.6384 288.042731 
L 201.2416 267.96458 
L 200.8448 282.354587 
L 200.448 269.740878 
L 200.0512 290.09645 
L 199.6544 286.380861 
L 199.2576 288.723977 
L 198.8608 233.329438 
L 198.464 268.365079 
L 198.0672 274.993263 
L 197.6704 287.453292 
L 197.2736 288.680734 
L 196.8768 291.317239 
L 196.48 279.946938 
L 196.0832 288.773873 
L 195.6864 277.751514 
L 195.2896 275.44898 
L 194.8928 284.665769 
L 194.496 289.524309 
L 194.0992 284.663773 
L 193.7024 263.713441 
L 193.3056 254.615737 
L 192.9088 260.588621 
L 192.512 259.491574 
L 192.1152 259.187541 
L 191.7184 270.935055 
L 191.3216 275.858793 
L 190.9248 288.811129 
L 190.528 281.936125 
L 190.1312 269.583206 
L 189.7344 281.919493 
L 189.3376 285.680987 
L 188.9408 279.706772 
L 188.544 282.060533 
L 188.1472 269.488737 
L 187.7504 266.347284 
L 187.3536 265.197681 
L 186.9568 279.251721 
L 186.56 285.649053 
L 186.1632 283.053796 
L 185.7664 261.667705 
L 185.3696 281.145108 
L 184.9728 276.509436 
L 184.576 275.684489 
L 184.1792 275.584032 
L 183.7824 280.01147 
L 183.3856 281.757165 
L 182.9888 269.3783 
L 182.592 280.594921 
L 182.1952 274.454387 
L 181.7984 276.943199 
L 181.4016 283.518827 
L 181.0048 289.258197 
L 180.608 280.469183 
L 180.2112 277.486733 
L 179.8144 279.066108 
L 179.4176 266.459717 
L 179.0208 264.213732 
L 178.624 272.721332 
L 178.2272 268.861378 
L 177.8304 269.93647 
L 177.4336 284.396331 
L 177.0368 272.416634 
L 176.64 274.586777 
L 176.2432 258.573488 
L 175.8464 263.697474 
L 175.4496 268.008489 
L 175.0528 279.324901 
L 174.656 270.831937 
L 174.2592 270.399505 
L 173.8624 270.643663 
L 173.4656 283.435001 
L 173.0688 273.835676 
L 172.672 268.043748 
L 172.2752 272.950854 
L 171.8784 264.693398 
L 171.4816 287.771296 
L 171.0848 265.091236 
L 170.688 277.915838 
L 170.2912 279.185858 
L 169.8944 287.859779 
L 169.4976 273.759834 
L 169.1008 278.913758 
L 168.704 272.380709 
L 168.3072 286.875164 
L 167.9104 273.546279 
L 167.5136 284.509428 
L 167.1168 261.206666 
L 166.72 260.235357 
L 166.3232 268.945868 
L 165.9264 253.965093 
L 165.5296 268.241337 
L 165.1328 287.875745 
L 164.736 263.885083 
L 164.3392 276.299208 
L 163.9424 285.560571 
L 163.5456 277.319748 
L 163.1488 271.830522 
L 162.752 284.967806 
L 162.3552 236.417003 
L 161.9584 234.29609 
L 161.5616 261.598516 
L 161.1648 264.481839 
L 160.768 281.139785 
L 160.3712 228.02383 
L 159.9744 232.205115 
L 159.5776 237.412261 
L 159.1808 263.338223 
L 158.784 265.699967 
L 158.3872 283.42103 
L 157.9904 239.297665 
L 157.5936 270.40017 
L 157.1968 276.809478 
L 156.8 265.152442 
L 156.4032 286.242483 
L 156.0064 218.181678 
L 155.6096 244.547389 
L 155.2128 268.512106 
L 154.816 231.407444 
L 154.4192 257.398603 
L 154.0224 243.000613 
L 153.6256 250.105804 
L 153.2288 268.580629 
L 152.832 267.954601 
L 152.4352 270.166657 
L 152.0384 277.474758 
L 151.6416 264.561673 
L 151.2448 280.060036 
L 150.848 285.748845 
L 150.4512 261.664379 
L 150.0544 280.323487 
L 149.6576 268.215391 
L 149.2608 249.892249 
L 148.864 267.376473 
L 148.4672 260.76492 
L 148.0704 275.88873 
L 147.6736 262.45207 
L 147.2768 285.015707 
L 146.88 246.375579 
L 146.4832 265.602171 
L 146.0864 262.089492 
L 145.6896 278.017626 
L 145.2928 268.951856 
L 144.896 270.692893 
L 144.4992 286.493959 
L 144.1024 286.316994 
L 143.7056 259.051824 
L 143.3088 259.832197 
L 142.912 277.53929 
L 142.5152 285.909843 
L 142.1184 292.050377 
L 141.7216 280.872343 
L 141.3248 271.430024 
L 140.928 271.261708 
L 140.5312 283.756332 
L 140.1344 288.771877 
L 139.7376 262.732153 
L 139.3408 274.898794 
L 138.944 265.10055 
L 138.5472 273.258213 
L 138.1504 274.809646 
L 137.7536 278.161327 
L 137.3568 280.362073 
L 136.96 285.450134 
L 136.5632 285.352338 
L 136.1664 269.398924 
L 135.7696 273.411893 
L 135.3728 267.218801 
L 134.976 251.443017 
L 134.5792 271.698132 
L 134.1824 262.300386 
L 133.7856 227.370525 
L 133.3888 261.675688 
L 132.992 282.189597 
L 132.5952 271.37281 
L 132.1984 272.719336 
L 131.8016 285.810716 
L 131.4048 269.3304 
L 131.008 275.238086 
L 130.6112 284.027766 
L 130.2144 282.543526 
L 129.8176 280.682073 
L 129.4208 268.424954 
L 129.024 280.912925 
L 128.6272 270.350274 
L 128.2304 262.013651 
L 127.8336 281.812383 
L 127.4368 270.650981 
L 127.04 280.637499 
L 126.6432 285.029012 
L 126.2464 271.668859 
L 125.8496 252.164845 
L 125.4528 265.813065 
L 125.056 281.940117 
L 124.6592 286.900445 
L 124.2624 283.483567 
L 123.8656 279.151263 
L 123.4688 278.635671 
L 123.072 278.921742 
L 122.6752 271.495886 
L 122.2784 282.789014 
L 121.8816 280.504443 
L 121.4848 284.683732 
L 121.088 277.348355 
L 120.6912 282.521572 
L 120.2944 285.841319 
L 119.8976 283.289305 
L 119.5008 246.696244 
L 119.104 264.448575 
L 118.7072 265.105872 
L 118.3104 278.862532 
L 117.9136 268.377719 
L 117.5168 271.803246 
L 117.12 268.494808 
L 116.7232 264.074688 
L 116.3264 278.196587 
L 115.9296 286.114084 
L 115.5328 266.808324 
L 115.136 277.104197 
L 114.7392 273.159086 
L 114.3424 259.790285 
L 113.9456 271.125325 
L 113.5488 276.339125 
L 113.152 277.215299 
L 112.7552 270.990939 
L 112.3584 276.504114 
L 111.9616 273.793098 
L 111.5648 285.281153 
L 111.168 283.949928 
L 110.7712 241.851675 
L 110.3744 257.062637 
L 109.9776 278.397501 
L 109.5808 284.520073 
L 109.184 278.020287 
L 108.7872 263.788618 
L 108.3904 273.166404 
L 107.9936 281.821697 
L 107.5968 281.831011 
L 107.2 280.228352 
L 106.8032 267.635267 
L 106.4064 276.148855 
L 106.0096 276.911266 
L 105.6128 272.024784 
L 105.216 280.26095 
L 104.8192 278.65563 
L 104.4224 287.031505 
L 104.0256 275.034511 
L 103.6288 268.421628 
L 103.232 276.540705 
L 102.8352 279.324236 
L 102.4384 279.157251 
L 102.0416 275.987192 
L 101.6448 268.092314 
L 101.248 279.837167 
L 100.8512 270.64965 
L 100.4544 280.135878 
L 100.0576 282.288724 
L 99.6608 274.168316 
L 99.264 285.366974 
L 98.8672 288.90826 
L 98.4704 280.479828 
L 98.0736 265.938137 
L 97.6768 260.577976 
L 97.28 278.45405 
L 96.8832 280.956833 
L 96.4864 283.272673 
L 96.0896 283.639242 
L 95.6928 283.136291 
L 95.296 290.858861 
L 94.8992 283.600656 
L 94.5024 266.36059 
L 94.1056 279.502531 
L 93.7088 281.588184 
L 93.312 283.586685 
L 92.9152 267.797595 
L 92.5184 277.440163 
L 92.1216 281.700616 
L 91.7248 270.213892 
L 91.328 275.892722 
L 90.9312 277.002409 
L 90.5344 286.054209 
L 90.1376 287.928302 
L 89.7408 266.524914 
L 89.344 284.776871 
L 88.9472 279.952926 
L 88.5504 276.438917 
L 88.1536 277.256546 
L 87.7568 285.376954 
L 87.36 264.167162 
L 86.9632 267.033853 
L 86.5664 277.313095 
L 86.1696 283.572714 
L 85.7728 244.858075 
L 85.376 268.244663 
L 84.9792 271.963578 
L 84.5824 276.078335 
L 84.1856 281.611469 
L 83.7888 279.746689 
L 83.392 267.564747 
L 82.9952 284.142194 
L 82.5984 270.48333 
L 82.2016 277.028355 
L 81.8048 280.600243 
L 81.408 266.093148 
L 81.0112 277.701618 
L 80.6144 281.844982 
L 80.2176 285.713585 
L 79.8208 282.655293 
L 79.424 286.202566 
L 79.0272 291.804889 
L 78.6304 287.643563 
L 78.2336 279.242407 
L 77.8368 284.361736 
L 77.44 287.894373 
L 77.0432 289.285474 
L 76.6464 288.091296 
L 76.2496 288.803811 
L 75.8528 287.598324 
L 75.456 284.781528 
L 75.0592 273.248899 
L 74.6624 269.478757 
L 74.2656 278.543197 
L 73.8688 282.907434 
L 73.472 283.897371 
L 73.0752 277.390267 
L 72.6784 278.225194 
L 72.2816 286.843896 
L 71.8848 283.125646 
L 71.488 287.001567 
L 71.0912 289.16905 
L 70.6944 289.314746 
L 70.2976 284.585936 
L 69.9008 278.873842 
L 69.504 278.724154 
L 69.1072 289.781107 
L 68.7104 287.051463 
L 68.3136 288.946846 
L 67.9168 287.858448 
L 67.52 278.748104 
L 67.1232 284.555998 
L 66.7264 287.219779 
L 66.3296 286.867846 
L 65.9328 288.663437 
L 65.536 291.837488 
L 65.1392 287.565725 
L 64.7424 289.663353 
L 64.3456 287.741359 
L 63.9488 287.062108 
L 63.552 295.12264 
L 63.1552 294.834574 
L 62.7584 289.596825 
L 62.3616 293.403557 
L 61.9648 298.667252 
L 61.568 290.897447 
L 61.1712 297.423844 
L 60.7744 293.032996 
L 60.3776 304.10259 
L 59.9808 302.40546 
L 59.584 298.215527 
L 59.1872 304.151155 
L 58.7904 300.311824 
L 58.3936 302.241802 
L 57.9968 304.149159 
z
" style="fill:#1f77b4;fill-opacity:0.25;"/>
   </g>
   <g id="matplotlib.axis_1">
    <g id="xtick_1">
     <g id="line2d_1">
      <defs>
       <path d="M 0 0 
L 0 4.8 
" id="m37282b7bbd" style="stroke:#000000;"/>
      </defs>
      <g>
       <use style="stroke:#000000;" x="57.6" xlink:href="#m37282b7bbd" y="307.584"/>
      </g>
     </g>
     <g id="text_1">
      <!-- 0 -->
      <g transform="translate(54.8005 322.570625)scale(0.088 -0.088)">
       <defs>
        <path d="M 2034 4250 
Q 1547 4250 1301 3770 
Q 1056 3291 1056 2328 
Q 1056 1369 1301 889 
Q 1547 409 2034 409 
Q 2525 409 2770 889 
Q 3016 1369 3016 2328 
Q 3016 3291 2770 3770 
Q 2525 4250 2034 4250 
z
M 2034 4750 
Q 2819 4750 3233 4129 
Q 3647 3509 3647 2328 
Q 3647 1150 3233 529 
Q 2819 -91 2034 -91 
Q 1250 -91 836 529 
Q 422 1150 422 2328 
Q 422 3509 836 4129 
Q 1250 4750 2034 4750 
z
" id="DejaVuSans-30" transform="scale(0.015625)"/>
       </defs>
       <use xlink:href="#DejaVuSans-30"/>
      </g>
     </g>
    </g>
    <g id="xtick_2">
     <g id="line2d_2">
      <g>
       <use style="stroke:#000000;" x="97.28" xlink:href="#m37282b7bbd" y="307.584"/>
      </g>
     </g>
     <g id="text_2">
      <!-- 100 -->
      <g transform="translate(88.8815 322.570625)scale(0.088 -0.088)">
       <defs>
        <path d="M 794 531 
L 1825 531 
L 1825 4091 
L 703 3866 
L 703 4441 
L 1819 4666 
L 2450 4666 
L 2450 531 
L 3481 531 
L 3481 0 
L 794 0 
L 794 531 
z
" id="DejaVuSans-31" transform="scale(0.015625)"/>
       </defs>
       <use xlink:href="#DejaVuSans-31"/>
       <use x="63.623047" xlink:href="#DejaVuSans-30"/>
       <use x="127.246094" xlink:href="#DejaVuSans-30"/>
      </g>
     </g>
    </g>
    <g id="xtick_3">
     <g id="line2d_3">
      <g>
       <use style="stroke:#000000;" x="136.96" xlink:href="#m37282b7bbd" y="307.584"/>
      </g>
     </g>
     <g id="text_3">
      <!-- 200 -->
      <g transform="translate(128.5615 322.570625)scale(0.088 -0.088)">
       <defs>
        <path d="M 1228 531 
L 3431 531 
L 3431 0 
L 469 0 
L 469 531 
Q 828 903 1448 1529 
Q 2069 2156 2228 2338 
Q 2531 2678 2651 2914 
Q 2772 3150 2772 3378 
Q 2772 3750 2511 3984 
Q 2250 4219 1831 4219 
Q 1534 4219 1204 4116 
Q 875 4013 500 3803 
L 500 4441 
Q 881 4594 1212 4672 
Q 1544 4750 1819 4750 
Q 2544 4750 2975 4387 
Q 3406 4025 3406 3419 
Q 3406 3131 3298 2873 
Q 3191 2616 2906 2266 
Q 2828 2175 2409 1742 
Q 1991 1309 1228 531 
z
" id="DejaVuSans-32" transform="scale(0.015625)"/>
       </defs>
       <use xlink:href="#DejaVuSans-32"/>
       <use x="63.623047" xlink:href="#DejaVuSans-30"/>
       <use x="127.246094" xlink:href="#DejaVuSans-30"/>
      </g>
     </g>
    </g>
    <g id="xtick_4">
     <g id="line2d_4">
      <g>
       <use style="stroke:#000000;" x="176.64" xlink:href="#m37282b7bbd" y="307.584"/>
      </g>
     </g>
     <g id="text_4">
      <!-- 300 -->
      <g transform="translate(168.2415 322.570625)scale(0.088 -0.088)">
       <defs>
        <path d="M 2597 2516 
Q 3050 2419 3304 2112 
Q 3559 1806 3559 1356 
Q 3559 666 3084 287 
Q 2609 -91 1734 -91 
Q 1441 -91 1130 -33 
Q 819 25 488 141 
L 488 750 
Q 750 597 1062 519 
Q 1375 441 1716 441 
Q 2309 441 2620 675 
Q 2931 909 2931 1356 
Q 2931 1769 2642 2001 
Q 2353 2234 1838 2234 
L 1294 2234 
L 1294 2753 
L 1863 2753 
Q 2328 2753 2575 2939 
Q 2822 3125 2822 3475 
Q 2822 3834 2567 4026 
Q 2313 4219 1838 4219 
Q 1578 4219 1281 4162 
Q 984 4106 628 3988 
L 628 4550 
Q 988 4650 1302 4700 
Q 1616 4750 1894 4750 
Q 2613 4750 3031 4423 
Q 3450 4097 3450 3541 
Q 3450 3153 3228 2886 
Q 3006 2619 2597 2516 
z
" id="DejaVuSans-33" transform="scale(0.015625)"/>
       </defs>
       <use xlink:href="#DejaVuSans-33"/>
       <use x="63.623047" xlink:href="#DejaVuSans-30"/>
       <use x="127.246094" xlink:href="#DejaVuSans-30"/>
      </g>
     </g>
    </g>
    <g id="xtick_5">
     <g id="line2d_5">
      <g>
       <use style="stroke:#000000;" x="216.32" xlink:href="#m37282b7bbd" y="307.584"/>
      </g>
     </g>
     <g id="text_5">
      <!-- 400 -->
      <g transform="translate(207.9215 322.570625)scale(0.088 -0.088)">
       <defs>
        <path d="M 2419 4116 
L 825 1625 
L 2419 1625 
L 2419 4116 
z
M 2253 4666 
L 3047 4666 
L 3047 1625 
L 3713 1625 
L 3713 1100 
L 3047 1100 
L 3047 0 
L 2419 0 
L 2419 1100 
L 313 1100 
L 313 1709 
L 2253 4666 
z
" id="DejaVuSans-34" transform="scale(0.015625)"/>
       </defs>
       <use xlink:href="#DejaVuSans-34"/>
       <use x="63.623047" xlink:href="#DejaVuSans-30"/>
       <use x="127.246094" xlink:href="#DejaVuSans-30"/>
      </g>
     </g>
    </g>
    <g id="xtick_6">
     <g id="line2d_6">
      <g>
       <use style="stroke:#000000;" x="256" xlink:href="#m37282b7bbd" y="307.584"/>
      </g>
     </g>
     <g id="text_6">
      <!-- 500 -->
      <g transform="translate(247.6015 322.570625)scale(0.088 -0.088)">
       <defs>
        <path d="M 691 4666 
L 3169 4666 
L 3169 4134 
L 1269 4134 
L 1269 2991 
Q 1406 3038 1543 3061 
Q 1681 3084 1819 3084 
Q 2600 3084 3056 2656 
Q 3513 2228 3513 1497 
Q 3513 744 3044 326 
Q 2575 -91 1722 -91 
Q 1428 -91 1123 -41 
Q 819 9 494 109 
L 494 744 
Q 775 591 1075 516 
Q 1375 441 1709 441 
Q 2250 441 2565 725 
Q 2881 1009 2881 1497 
Q 2881 1984 2565 2268 
Q 2250 2553 1709 2553 
Q 1456 2553 1204 2497 
Q 953 2441 691 2322 
L 691 4666 
z
" id="DejaVuSans-35" transform="scale(0.015625)"/>
       </defs>
       <use xlink:href="#DejaVuSans-35"/>
       <use x="63.623047" xlink:href="#DejaVuSans-30"/>
       <use x="127.246094" xlink:href="#DejaVuSans-30"/>
      </g>
     </g>
    </g>
    <g id="xtick_7">
     <g id="line2d_7">
      <g>
       <use style="stroke:#000000;" x="295.68" xlink:href="#m37282b7bbd" y="307.584"/>
      </g>
     </g>
     <g id="text_7">
      <!-- 600 -->
      <g transform="translate(287.2815 322.570625)scale(0.088 -0.088)">
       <defs>
        <path d="M 2113 2584 
Q 1688 2584 1439 2293 
Q 1191 2003 1191 1497 
Q 1191 994 1439 701 
Q 1688 409 2113 409 
Q 2538 409 2786 701 
Q 3034 994 3034 1497 
Q 3034 2003 2786 2293 
Q 2538 2584 2113 2584 
z
M 3366 4563 
L 3366 3988 
Q 3128 4100 2886 4159 
Q 2644 4219 2406 4219 
Q 1781 4219 1451 3797 
Q 1122 3375 1075 2522 
Q 1259 2794 1537 2939 
Q 1816 3084 2150 3084 
Q 2853 3084 3261 2657 
Q 3669 2231 3669 1497 
Q 3669 778 3244 343 
Q 2819 -91 2113 -91 
Q 1303 -91 875 529 
Q 447 1150 447 2328 
Q 447 3434 972 4092 
Q 1497 4750 2381 4750 
Q 2619 4750 2861 4703 
Q 3103 4656 3366 4563 
z
" id="DejaVuSans-36" transform="scale(0.015625)"/>
       </defs>
       <use xlink:href="#DejaVuSans-36"/>
       <use x="63.623047" xlink:href="#DejaVuSans-30"/>
       <use x="127.246094" xlink:href="#DejaVuSans-30"/>
      </g>
     </g>
    </g>
    <g id="xtick_8">
     <g id="line2d_8">
      <g>
       <use style="stroke:#000000;" x="335.36" xlink:href="#m37282b7bbd" y="307.584"/>
      </g>
     </g>
     <g id="text_8">
      <!-- 700 -->
      <g transform="translate(326.9615 322.570625)scale(0.088 -0.088)">
       <defs>
        <path d="M 525 4666 
L 3525 4666 
L 3525 4397 
L 1831 0 
L 1172 0 
L 2766 4134 
L 525 4134 
L 525 4666 
z
" id="DejaVuSans-37" transform="scale(0.015625)"/>
       </defs>
       <use xlink:href="#DejaVuSans-37"/>
       <use x="63.623047" xlink:href="#DejaVuSans-30"/>
       <use x="127.246094" xlink:href="#DejaVuSans-30"/>
      </g>
     </g>
    </g>
    <g id="xtick_9">
     <g id="line2d_9">
      <g>
       <use style="stroke:#000000;" x="375.04" xlink:href="#m37282b7bbd" y="307.584"/>
      </g>
     </g>
     <g id="text_9">
      <!-- 800 -->
      <g transform="translate(366.6415 322.570625)scale(0.088 -0.088)">
       <defs>
        <path d="M 2034 2216 
Q 1584 2216 1326 1975 
Q 1069 1734 1069 1313 
Q 1069 891 1326 650 
Q 1584 409 2034 409 
Q 2484 409 2743 651 
Q 3003 894 3003 1313 
Q 3003 1734 2745 1975 
Q 2488 2216 2034 2216 
z
M 1403 2484 
Q 997 2584 770 2862 
Q 544 3141 544 3541 
Q 544 4100 942 4425 
Q 1341 4750 2034 4750 
Q 2731 4750 3128 4425 
Q 3525 4100 3525 3541 
Q 3525 3141 3298 2862 
Q 3072 2584 2669 2484 
Q 3125 2378 3379 2068 
Q 3634 1759 3634 1313 
Q 3634 634 3220 271 
Q 2806 -91 2034 -91 
Q 1263 -91 848 271 
Q 434 634 434 1313 
Q 434 1759 690 2068 
Q 947 2378 1403 2484 
z
M 1172 3481 
Q 1172 3119 1398 2916 
Q 1625 2713 2034 2713 
Q 2441 2713 2670 2916 
Q 2900 3119 2900 3481 
Q 2900 3844 2670 4047 
Q 2441 4250 2034 4250 
Q 1625 4250 1398 4047 
Q 1172 3844 1172 3481 
z
" id="DejaVuSans-38" transform="scale(0.015625)"/>
       </defs>
       <use xlink:href="#DejaVuSans-38"/>
       <use x="63.623047" xlink:href="#DejaVuSans-30"/>
       <use x="127.246094" xlink:href="#DejaVuSans-30"/>
      </g>
     </g>
    </g>
    <g id="xtick_10">
     <g id="line2d_10">
      <g>
       <use style="stroke:#000000;" x="414.72" xlink:href="#m37282b7bbd" y="307.584"/>
      </g>
     </g>
     <g id="text_10">
      <!-- 900 -->
      <g transform="translate(406.3215 322.570625)scale(0.088 -0.088)">
       <defs>
        <path d="M 703 97 
L 703 672 
Q 941 559 1184 500 
Q 1428 441 1663 441 
Q 2288 441 2617 861 
Q 2947 1281 2994 2138 
Q 2813 1869 2534 1725 
Q 2256 1581 1919 1581 
Q 1219 1581 811 2004 
Q 403 2428 403 3163 
Q 403 3881 828 4315 
Q 1253 4750 1959 4750 
Q 2769 4750 3195 4129 
Q 3622 3509 3622 2328 
Q 3622 1225 3098 567 
Q 2575 -91 1691 -91 
Q 1453 -91 1209 -44 
Q 966 3 703 97 
z
M 1959 2075 
Q 2384 2075 2632 2365 
Q 2881 2656 2881 3163 
Q 2881 3666 2632 3958 
Q 2384 4250 1959 4250 
Q 1534 4250 1286 3958 
Q 1038 3666 1038 3163 
Q 1038 2656 1286 2365 
Q 1534 2075 1959 2075 
z
" id="DejaVuSans-39" transform="scale(0.015625)"/>
       </defs>
       <use xlink:href="#DejaVuSans-39"/>
       <use x="63.623047" xlink:href="#DejaVuSans-30"/>
       <use x="127.246094" xlink:href="#DejaVuSans-30"/>
      </g>
     </g>
    </g>
    <g id="text_11">
     <!-- Timestep -->
     <g transform="translate(214.03275 335.69525)scale(0.096 -0.096)">
      <defs>
       <path d="M -19 4666 
L 3928 4666 
L 3928 4134 
L 2272 4134 
L 2272 0 
L 1638 0 
L 1638 4134 
L -19 4134 
L -19 4666 
z
" id="DejaVuSans-54" transform="scale(0.015625)"/>
       <path d="M 603 3500 
L 1178 3500 
L 1178 0 
L 603 0 
L 603 3500 
z
M 603 4863 
L 1178 4863 
L 1178 4134 
L 603 4134 
L 603 4863 
z
" id="DejaVuSans-69" transform="scale(0.015625)"/>
       <path d="M 3328 2828 
Q 3544 3216 3844 3400 
Q 4144 3584 4550 3584 
Q 5097 3584 5394 3201 
Q 5691 2819 5691 2113 
L 5691 0 
L 5113 0 
L 5113 2094 
Q 5113 2597 4934 2840 
Q 4756 3084 4391 3084 
Q 3944 3084 3684 2787 
Q 3425 2491 3425 1978 
L 3425 0 
L 2847 0 
L 2847 2094 
Q 2847 2600 2669 2842 
Q 2491 3084 2119 3084 
Q 1678 3084 1418 2786 
Q 1159 2488 1159 1978 
L 1159 0 
L 581 0 
L 581 3500 
L 1159 3500 
L 1159 2956 
Q 1356 3278 1631 3431 
Q 1906 3584 2284 3584 
Q 2666 3584 2933 3390 
Q 3200 3197 3328 2828 
z
" id="DejaVuSans-6d" transform="scale(0.015625)"/>
       <path d="M 3597 1894 
L 3597 1613 
L 953 1613 
Q 991 1019 1311 708 
Q 1631 397 2203 397 
Q 2534 397 2845 478 
Q 3156 559 3463 722 
L 3463 178 
Q 3153 47 2828 -22 
Q 2503 -91 2169 -91 
Q 1331 -91 842 396 
Q 353 884 353 1716 
Q 353 2575 817 3079 
Q 1281 3584 2069 3584 
Q 2775 3584 3186 3129 
Q 3597 2675 3597 1894 
z
M 3022 2063 
Q 3016 2534 2758 2815 
Q 2500 3097 2075 3097 
Q 1594 3097 1305 2825 
Q 1016 2553 972 2059 
L 3022 2063 
z
" id="DejaVuSans-65" transform="scale(0.015625)"/>
       <path d="M 2834 3397 
L 2834 2853 
Q 2591 2978 2328 3040 
Q 2066 3103 1784 3103 
Q 1356 3103 1142 2972 
Q 928 2841 928 2578 
Q 928 2378 1081 2264 
Q 1234 2150 1697 2047 
L 1894 2003 
Q 2506 1872 2764 1633 
Q 3022 1394 3022 966 
Q 3022 478 2636 193 
Q 2250 -91 1575 -91 
Q 1294 -91 989 -36 
Q 684 19 347 128 
L 347 722 
Q 666 556 975 473 
Q 1284 391 1588 391 
Q 1994 391 2212 530 
Q 2431 669 2431 922 
Q 2431 1156 2273 1281 
Q 2116 1406 1581 1522 
L 1381 1569 
Q 847 1681 609 1914 
Q 372 2147 372 2553 
Q 372 3047 722 3315 
Q 1072 3584 1716 3584 
Q 2034 3584 2315 3537 
Q 2597 3491 2834 3397 
z
" id="DejaVuSans-73" transform="scale(0.015625)"/>
       <path d="M 1172 4494 
L 1172 3500 
L 2356 3500 
L 2356 3053 
L 1172 3053 
L 1172 1153 
Q 1172 725 1289 603 
Q 1406 481 1766 481 
L 2356 481 
L 2356 0 
L 1766 0 
Q 1100 0 847 248 
Q 594 497 594 1153 
L 594 3053 
L 172 3053 
L 172 3500 
L 594 3500 
L 594 4494 
L 1172 4494 
z
" id="DejaVuSans-74" transform="scale(0.015625)"/>
       <path d="M 1159 525 
L 1159 -1331 
L 581 -1331 
L 581 3500 
L 1159 3500 
L 1159 2969 
Q 1341 3281 1617 3432 
Q 1894 3584 2278 3584 
Q 2916 3584 3314 3078 
Q 3713 2572 3713 1747 
Q 3713 922 3314 415 
Q 2916 -91 2278 -91 
Q 1894 -91 1617 61 
Q 1341 213 1159 525 
z
M 3116 1747 
Q 3116 2381 2855 2742 
Q 2594 3103 2138 3103 
Q 1681 3103 1420 2742 
Q 1159 2381 1159 1747 
Q 1159 1113 1420 752 
Q 1681 391 2138 391 
Q 2594 391 2855 752 
Q 3116 1113 3116 1747 
z
" id="DejaVuSans-70" transform="scale(0.015625)"/>
      </defs>
      <use xlink:href="#DejaVuSans-54"/>
      <use x="57.958984" xlink:href="#DejaVuSans-69"/>
      <use x="85.742188" xlink:href="#DejaVuSans-6d"/>
      <use x="183.154297" xlink:href="#DejaVuSans-65"/>
      <use x="244.677734" xlink:href="#DejaVuSans-73"/>
      <use x="296.777344" xlink:href="#DejaVuSans-74"/>
      <use x="335.986328" xlink:href="#DejaVuSans-65"/>
      <use x="397.509766" xlink:href="#DejaVuSans-70"/>
     </g>
    </g>
   </g>
   <g id="matplotlib.axis_2">
    <g id="ytick_1">
     <g id="line2d_11">
      <defs>
       <path d="M 0 0 
L -4.8 0 
" id="m0747b8faf9" style="stroke:#000000;"/>
      </defs>
      <g>
       <use style="stroke:#000000;" x="57.6" xlink:href="#m0747b8faf9" y="307.584"/>
      </g>
     </g>
     <g id="text_12">
      <!-- 0 -->
      <g transform="translate(43.701 310.927312)scale(0.088 -0.088)">
       <use xlink:href="#DejaVuSans-30"/>
      </g>
     </g>
    </g>
    <g id="ytick_2">
     <g id="line2d_12">
      <g>
       <use style="stroke:#000000;" x="57.6" xlink:href="#m0747b8faf9" y="254.3616"/>
      </g>
     </g>
     <g id="text_13">
      <!-- 200 -->
      <g transform="translate(32.503 257.704912)scale(0.088 -0.088)">
       <use xlink:href="#DejaVuSans-32"/>
       <use x="63.623047" xlink:href="#DejaVuSans-30"/>
       <use x="127.246094" xlink:href="#DejaVuSans-30"/>
      </g>
     </g>
    </g>
    <g id="ytick_3">
     <g id="line2d_13">
      <g>
       <use style="stroke:#000000;" x="57.6" xlink:href="#m0747b8faf9" y="201.1392"/>
      </g>
     </g>
     <g id="text_14">
      <!-- 400 -->
      <g transform="translate(32.503 204.482512)scale(0.088 -0.088)">
       <use xlink:href="#DejaVuSans-34"/>
       <use x="63.623047" xlink:href="#DejaVuSans-30"/>
       <use x="127.246094" xlink:href="#DejaVuSans-30"/>
      </g>
     </g>
    </g>
    <g id="ytick_4">
     <g id="line2d_14">
      <g>
       <use style="stroke:#000000;" x="57.6" xlink:href="#m0747b8faf9" y="147.9168"/>
      </g>
     </g>
     <g id="text_15">
      <!-- 600 -->
      <g transform="translate(32.503 151.260112)scale(0.088 -0.088)">
       <use xlink:href="#DejaVuSans-36"/>
       <use x="63.623047" xlink:href="#DejaVuSans-30"/>
       <use x="127.246094" xlink:href="#DejaVuSans-30"/>
      </g>
     </g>
    </g>
    <g id="ytick_5">
     <g id="line2d_15">
      <g>
       <use style="stroke:#000000;" x="57.6" xlink:href="#m0747b8faf9" y="94.6944"/>
      </g>
     </g>
     <g id="text_16">
      <!-- 800 -->
      <g transform="translate(32.503 98.037712)scale(0.088 -0.088)">
       <use xlink:href="#DejaVuSans-38"/>
       <use x="63.623047" xlink:href="#DejaVuSans-30"/>
       <use x="127.246094" xlink:href="#DejaVuSans-30"/>
      </g>
     </g>
    </g>
    <g id="ytick_6">
     <g id="line2d_16">
      <g>
       <use style="stroke:#000000;" x="57.6" xlink:href="#m0747b8faf9" y="41.472"/>
      </g>
     </g>
     <g id="text_17">
      <!-- 1000 -->
      <g transform="translate(26.904 44.815313)scale(0.088 -0.088)">
       <use xlink:href="#DejaVuSans-31"/>
       <use x="63.623047" xlink:href="#DejaVuSans-30"/>
       <use x="127.246094" xlink:href="#DejaVuSans-30"/>
       <use x="190.869141" xlink:href="#DejaVuSans-30"/>
      </g>
     </g>
    </g>
    <g id="text_18">
     <!-- Reward -->
     <g transform="translate(20.9075 192.40425)rotate(-90)scale(0.096 -0.096)">
      <defs>
       <path d="M 2841 2188 
Q 3044 2119 3236 1894 
Q 3428 1669 3622 1275 
L 4263 0 
L 3584 0 
L 2988 1197 
Q 2756 1666 2539 1819 
Q 2322 1972 1947 1972 
L 1259 1972 
L 1259 0 
L 628 0 
L 628 4666 
L 2053 4666 
Q 2853 4666 3247 4331 
Q 3641 3997 3641 3322 
Q 3641 2881 3436 2590 
Q 3231 2300 2841 2188 
z
M 1259 4147 
L 1259 2491 
L 2053 2491 
Q 2509 2491 2742 2702 
Q 2975 2913 2975 3322 
Q 2975 3731 2742 3939 
Q 2509 4147 2053 4147 
L 1259 4147 
z
" id="DejaVuSans-52" transform="scale(0.015625)"/>
       <path d="M 269 3500 
L 844 3500 
L 1563 769 
L 2278 3500 
L 2956 3500 
L 3675 769 
L 4391 3500 
L 4966 3500 
L 4050 0 
L 3372 0 
L 2619 2869 
L 1863 0 
L 1184 0 
L 269 3500 
z
" id="DejaVuSans-77" transform="scale(0.015625)"/>
       <path d="M 2194 1759 
Q 1497 1759 1228 1600 
Q 959 1441 959 1056 
Q 959 750 1161 570 
Q 1363 391 1709 391 
Q 2188 391 2477 730 
Q 2766 1069 2766 1631 
L 2766 1759 
L 2194 1759 
z
M 3341 1997 
L 3341 0 
L 2766 0 
L 2766 531 
Q 2569 213 2275 61 
Q 1981 -91 1556 -91 
Q 1019 -91 701 211 
Q 384 513 384 1019 
Q 384 1609 779 1909 
Q 1175 2209 1959 2209 
L 2766 2209 
L 2766 2266 
Q 2766 2663 2505 2880 
Q 2244 3097 1772 3097 
Q 1472 3097 1187 3025 
Q 903 2953 641 2809 
L 641 3341 
Q 956 3463 1253 3523 
Q 1550 3584 1831 3584 
Q 2591 3584 2966 3190 
Q 3341 2797 3341 1997 
z
" id="DejaVuSans-61" transform="scale(0.015625)"/>
       <path d="M 2631 2963 
Q 2534 3019 2420 3045 
Q 2306 3072 2169 3072 
Q 1681 3072 1420 2755 
Q 1159 2438 1159 1844 
L 1159 0 
L 581 0 
L 581 3500 
L 1159 3500 
L 1159 2956 
Q 1341 3275 1631 3429 
Q 1922 3584 2338 3584 
Q 2397 3584 2469 3576 
Q 2541 3569 2628 3553 
L 2631 2963 
z
" id="DejaVuSans-72" transform="scale(0.015625)"/>
       <path d="M 2906 2969 
L 2906 4863 
L 3481 4863 
L 3481 0 
L 2906 0 
L 2906 525 
Q 2725 213 2448 61 
Q 2172 -91 1784 -91 
Q 1150 -91 751 415 
Q 353 922 353 1747 
Q 353 2572 751 3078 
Q 1150 3584 1784 3584 
Q 2172 3584 2448 3432 
Q 2725 3281 2906 2969 
z
M 947 1747 
Q 947 1113 1208 752 
Q 1469 391 1925 391 
Q 2381 391 2643 752 
Q 2906 1113 2906 1747 
Q 2906 2381 2643 2742 
Q 2381 3103 1925 3103 
Q 1469 3103 1208 2742 
Q 947 2381 947 1747 
z
" id="DejaVuSans-64" transform="scale(0.015625)"/>
      </defs>
      <use xlink:href="#DejaVuSans-52"/>
      <use x="64.982422" xlink:href="#DejaVuSans-65"/>
      <use x="126.505859" xlink:href="#DejaVuSans-77"/>
      <use x="208.292969" xlink:href="#DejaVuSans-61"/>
      <use x="269.572266" xlink:href="#DejaVuSans-72"/>
      <use x="308.935547" xlink:href="#DejaVuSans-64"/>
     </g>
    </g>
   </g>
   <g id="line2d_17">
    <path clip-path="url(#p33bdcefe98)" d="M 57.9968 305.179678 
L 58.3936 304.176436 
L 58.7904 305.061258 
L 59.1872 304.785832 
L 59.584 302.152654 
L 59.9808 304.316145 
L 60.3776 304.716643 
L 60.7744 304.3055 
L 61.1712 305.009366 
L 61.568 304.272236 
L 61.9648 304.135188 
L 62.3616 297.348002 
L 62.7584 302.843215 
L 63.1552 303.509825 
L 63.552 301.166709 
L 63.9488 292.254618 
L 64.3456 293.561228 
L 64.7424 292.934534 
L 65.1392 304.21103 
L 65.536 294.181269 
L 65.9328 292.385013 
L 66.3296 296.550996 
L 66.7264 295.378773 
L 67.1232 288.344102 
L 67.52 286.328304 
L 67.9168 289.304767 
L 68.3136 295.668835 
L 68.7104 295.365468 
L 69.1072 292.703017 
L 69.504 285.431507 
L 69.9008 289.428509 
L 70.2976 291.701105 
L 70.6944 292.534036 
L 71.0912 295.889708 
L 71.488 294.037569 
L 71.8848 289.475078 
L 72.2816 287.905018 
L 72.6784 287.171879 
L 73.472 288.365391 
L 73.8688 286.586433 
L 74.2656 286.400154 
L 74.6624 287.092045 
L 75.0592 289.737199 
L 75.456 288.000818 
L 76.2496 290.221523 
L 77.0432 293.798068 
L 77.8368 290.105764 
L 78.2336 288.62352 
L 78.6304 290.2162 
L 79.0272 300.815441 
L 79.424 293.271166 
L 79.8208 288.384019 
L 80.2176 295.615613 
L 80.6144 287.013542 
L 81.0112 285.922483 
L 81.408 274.560831 
L 81.8048 291.33254 
L 82.2016 298.646628 
L 82.5984 289.09986 
L 82.9952 287.068095 
L 83.392 276.655133 
L 83.7888 285.180031 
L 84.1856 288.916243 
L 84.5824 280.267603 
L 84.9792 283.736373 
L 85.376 285.712255 
L 85.7728 273.906196 
L 86.1696 286.340279 
L 86.5664 288.905599 
L 86.9632 282.118412 
L 87.36 286.832586 
L 88.1536 293.436156 
L 88.5504 289.855619 
L 88.9472 288.592917 
L 89.344 288.036743 
L 89.7408 280.018788 
L 90.1376 289.778446 
L 90.5344 293.01969 
L 91.328 285.863939 
L 91.7248 287.778614 
L 92.1216 286.124728 
L 92.9152 292.246635 
L 93.7088 289.24223 
L 94.5024 286.824603 
L 94.8992 289.445806 
L 95.296 300.968456 
L 95.6928 295.44264 
L 96.0896 299.532781 
L 96.4864 295.9895 
L 96.8832 288.827096 
L 97.28 284.100947 
L 97.6768 287.766639 
L 98.0736 287.585683 
L 98.4704 295.734033 
L 98.8672 291.11832 
L 99.6608 284.75159 
L 100.0576 292.891956 
L 100.4544 293.545261 
L 100.8512 289.872916 
L 101.248 282.431094 
L 101.6448 291.57071 
L 102.0416 288.104602 
L 102.4384 289.043977 
L 102.8352 287.291629 
L 103.232 288.650131 
L 103.6288 285.215956 
L 104.0256 288.332127 
L 104.4224 289.436492 
L 104.8192 288.211046 
L 105.216 288.498447 
L 105.6128 290.398487 
L 106.0096 288.141857 
L 106.4064 287.278324 
L 106.8032 287.464602 
L 107.2 288.627512 
L 107.5968 287.802564 
L 107.9936 290.508924 
L 108.3904 289.910172 
L 108.7872 282.079826 
L 109.184 291.014536 
L 109.5808 290.970628 
L 110.3744 283.500864 
L 111.168 288.157824 
L 111.5648 287.612294 
L 111.9616 280.565649 
L 112.3584 286.022275 
L 112.7552 285.412879 
L 113.152 287.379446 
L 113.5488 287.010881 
L 113.9456 287.422024 
L 114.3424 293.70892 
L 114.7392 288.340111 
L 115.136 285.48606 
L 115.5328 284.051716 
L 115.9296 289.819693 
L 116.3264 288.084643 
L 116.7232 287.334207 
L 117.5168 283.567392 
L 117.9136 288.278905 
L 118.3104 286.016953 
L 118.7072 287.475247 
L 119.104 276.536713 
L 119.8976 291.981853 
L 120.2944 289.062605 
L 120.6912 287.098698 
L 121.088 283.619284 
L 121.4848 288.208385 
L 121.8816 287.36348 
L 122.2784 289.147761 
L 123.072 284.454876 
L 123.4688 283.764315 
L 123.8656 289.660026 
L 124.2624 290.454371 
L 124.6592 291.989837 
L 125.056 292.467508 
L 125.4528 284.758243 
L 125.8496 288.793832 
L 126.2464 288.392003 
L 126.6432 286.655622 
L 127.04 284.297869 
L 127.4368 285.383606 
L 127.8336 287.741359 
L 128.2304 275.154261 
L 128.6272 282.363235 
L 129.024 294.148005 
L 129.4208 277.309768 
L 129.8176 287.017534 
L 130.2144 287.346182 
L 130.6112 287.123979 
L 131.008 283.724398 
L 132.1984 292.54468 
L 132.5952 287.479238 
L 132.992 288.793832 
L 133.3888 292.809462 
L 133.7856 293.633078 
L 134.1824 281.699286 
L 134.5792 280.068019 
L 134.976 280.391345 
L 135.3728 276.777544 
L 135.7696 285.133461 
L 136.1664 284.697037 
L 136.5632 296.613533 
L 136.96 290.447718 
L 137.3568 292.097612 
L 137.7536 292.42626 
L 138.1504 287.036162 
L 138.5472 285.705602 
L 138.944 283.552756 
L 139.3408 279.542448 
L 139.7376 290.703185 
L 140.1344 294.432745 
L 140.5312 291.120981 
L 140.928 282.033256 
L 141.7216 292.530044 
L 142.1184 295.714074 
L 142.5152 291.204806 
L 143.3088 277.441494 
L 144.1024 291.49753 
L 144.4992 292.406302 
L 145.2928 283.222777 
L 145.6896 288.78984 
L 146.0864 279.294964 
L 146.4832 279.116669 
L 146.88 294.11208 
L 147.2768 294.881144 
L 147.6736 282.357913 
L 148.0704 283.011218 
L 148.864 281.179037 
L 149.2608 281.909514 
L 149.6576 278.774715 
L 150.0544 288.208385 
L 150.4512 271.843828 
L 150.848 290.149672 
L 151.2448 288.607553 
L 151.6416 280.833091 
L 152.0384 286.776703 
L 152.4352 279.426689 
L 152.832 288.518406 
L 153.2288 286.829925 
L 153.6256 288.950838 
L 154.0224 280.223695 
L 154.4192 284.410967 
L 154.816 281.000742 
L 155.2128 285.072255 
L 155.6096 274.204241 
L 156.0064 279.881741 
L 156.4032 288.395994 
L 156.8 276.535382 
L 157.5936 286.72348 
L 157.9904 281.607477 
L 158.3872 287.708095 
L 158.784 272.522413 
L 159.5776 286.986931 
L 159.9744 264.704043 
L 160.3712 289.556243 
L 160.768 288.747262 
L 161.1648 286.655622 
L 161.5616 282.87284 
L 161.9584 273.802412 
L 162.3552 277.150101 
L 162.752 289.421856 
L 163.1488 289.844974 
L 163.5456 289.757157 
L 163.9424 292.229338 
L 164.3392 286.50793 
L 164.736 288.466514 
L 165.1328 294.82393 
L 165.5296 292.182768 
L 165.9264 285.697619 
L 166.3232 286.808636 
L 166.72 288.453208 
L 167.1168 284.372381 
L 167.5136 291.57071 
L 167.9104 285.117494 
L 168.3072 289.956741 
L 168.704 291.420357 
L 169.4976 283.202819 
L 169.8944 293.098193 
L 170.2912 293.810043 
L 170.688 286.876495 
L 171.0848 283.315916 
L 171.4816 289.203644 
L 171.8784 282.601405 
L 172.2752 282.355252 
L 172.672 288.635495 
L 173.0688 293.100854 
L 173.4656 288.116577 
L 173.8624 287.472586 
L 174.656 275.050477 
L 175.0528 286.622358 
L 175.4496 281.816375 
L 175.8464 285.930467 
L 176.2432 285.400904 
L 176.64 287.88639 
L 177.0368 281.600824 
L 177.4336 289.073249 
L 177.8304 283.341197 
L 178.2272 287.135954 
L 178.624 289.481731 
L 179.0208 277.754175 
L 179.4176 291.264682 
L 179.8144 290.105764 
L 180.2112 289.745182 
L 180.608 290.265431 
L 181.0048 294.408795 
L 181.4016 288.422605 
L 181.7984 289.388592 
L 182.592 286.787347 
L 182.9888 288.308177 
L 183.3856 291.029172 
L 183.7824 282.75575 
L 184.1792 288.348094 
L 184.576 284.317828 
L 184.9728 285.195997 
L 185.3696 282.864856 
L 185.7664 289.467095 
L 186.1632 289.356659 
L 186.56 287.618947 
L 186.9568 286.710175 
L 187.3536 283.358494 
L 187.7504 291.033164 
L 188.1472 285.003066 
L 188.544 291.396407 
L 188.9408 284.876663 
L 189.3376 291.776947 
L 189.7344 283.652548 
L 190.1312 280.183778 
L 190.528 290.229506 
L 190.9248 291.872748 
L 191.3216 291.425679 
L 191.7184 290.363892 
L 192.512 287.624269 
L 192.9088 287.443313 
L 193.3056 285.442151 
L 193.7024 288.969466 
L 194.0992 289.658696 
L 194.496 295.686132 
L 194.8928 292.345096 
L 195.2896 290.33462 
L 195.6864 286.594416 
L 196.0832 292.224015 
L 196.48 292.055034 
L 196.8768 292.774867 
L 197.6704 290.441065 
L 198.0672 289.852957 
L 198.464 289.979361 
L 198.8608 296.543013 
L 199.2576 291.989837 
L 199.6544 293.521311 
L 200.0512 295.664844 
L 200.448 290.986595 
L 200.8448 291.425679 
L 201.2416 291.276657 
L 201.6384 289.533623 
L 202.0352 296.13187 
L 202.432 295.86975 
L 202.8288 290.393165 
L 203.2256 290.512915 
L 203.6224 292.841395 
L 204.416 289.57354 
L 204.8128 292.54335 
L 205.2096 293.73154 
L 205.6064 292.607217 
L 206.0032 293.16073 
L 206.4 303.199805 
L 206.7968 297.950746 
L 207.1936 296.533699 
L 207.5904 294.68156 
L 207.9872 294.905094 
L 208.384 291.472249 
L 208.7808 291.544099 
L 209.1776 291.425679 
L 209.5744 299.57669 
L 210.7648 291.456282 
L 211.1616 291.16489 
L 211.5584 291.321896 
L 211.9552 296.126548 
L 212.352 290.696532 
L 213.1456 291.465596 
L 213.5424 290.71383 
L 213.9392 291.079734 
L 214.336 297.598147 
L 215.1296 291.376449 
L 215.5264 296.70268 
L 215.9232 290.963975 
L 216.32 292.80414 
L 216.7168 300.086294 
L 217.1136 294.054866 
L 217.5104 290.592749 
L 217.9072 292.929212 
L 218.304 291.147592 
L 218.7008 293.716904 
L 219.0976 293.975032 
L 219.4944 292.99441 
L 219.8912 292.366385 
L 220.288 296.163804 
L 220.6848 290.954661 
L 221.0816 295.002225 
L 221.4784 294.846549 
L 221.8752 291.122312 
L 222.6688 291.038486 
L 223.0656 289.81038 
L 223.4624 295.369459 
L 223.8592 294.585759 
L 224.256 291.363143 
L 224.6528 292.683059 
L 225.0496 292.802809 
L 225.4464 292.373038 
L 225.8432 293.251208 
L 226.6368 291.281979 
L 227.0336 295.03948 
L 227.4304 292.500772 
L 227.8272 291.940606 
L 228.224 292.205388 
L 228.6208 292.257279 
L 229.0176 294.976944 
L 229.4144 295.008877 
L 229.8112 291.722394 
L 230.208 291.375118 
L 230.6048 292.580605 
L 231.0016 298.586753 
L 231.7952 291.107676 
L 232.192 291.123642 
L 232.5888 292.063018 
L 232.9856 298.57877 
L 233.3824 293.247216 
L 233.7792 291.49886 
L 234.176 298.005299 
L 234.5728 293.965718 
L 234.9696 296.427254 
L 235.3664 298.129041 
L 235.7632 293.142102 
L 236.16 296.201059 
L 236.5568 292.355741 
L 236.9536 293.617112 
L 237.3504 295.494532 
L 237.7472 292.342435 
L 238.144 291.058445 
L 238.5408 292.609878 
L 238.9376 296.071995 
L 239.3344 294.217194 
L 239.7312 291.168881 
L 240.128 290.989256 
L 240.5248 292.049712 
L 240.9216 291.953912 
L 241.3184 292.178776 
L 241.7152 291.856781 
L 242.112 292.486136 
L 242.5088 291.66518 
L 242.9056 294.195905 
L 243.3024 290.644641 
L 243.6992 293.563889 
L 244.096 294.686882 
L 244.4928 296.769208 
L 244.8896 293.869918 
L 245.2864 292.331791 
L 245.6832 292.359732 
L 246.08 304.18575 
L 246.4768 296.729292 
L 246.8736 299.00721 
L 247.2704 303.749326 
L 248.064 292.975782 
L 248.4608 293.740854 
L 248.8576 292.711 
L 249.2544 296.554988 
L 249.6512 295.070083 
L 250.048 297.024676 
L 250.4448 295.469251 
L 250.8416 293.026343 
L 251.2384 291.944598 
L 251.6352 293.305761 
L 252.032 291.07042 
L 252.4288 292.452872 
L 252.8256 298.05719 
L 253.2224 299.937272 
L 253.6192 294.303681 
L 254.016 295.783263 
L 254.4128 297.753823 
L 254.8096 296.336776 
L 255.2064 296.717316 
L 255.6032 293.522642 
L 256 294.08946 
L 256.3968 294.415448 
L 256.7936 293.064929 
L 257.1904 299.154902 
L 257.5872 301.431491 
L 257.984 296.044053 
L 258.3808 301.73885 
L 258.7776 293.203308 
L 259.1744 290.614038 
L 259.5712 292.017779 
L 259.968 299.150911 
L 260.3648 296.017442 
L 260.7616 293.839315 
L 261.1584 295.390748 
L 261.5552 298.562803 
L 261.952 296.770539 
L 262.3488 298.359228 
L 262.7456 292.588589 
L 263.1424 295.386756 
L 263.5392 300.655774 
L 264.3328 293.04231 
L 264.7296 296.459188 
L 265.1264 298.423094 
L 265.5232 294.941019 
L 265.92 296.831745 
L 266.3168 298.030579 
L 266.7136 300.45619 
L 267.1104 295.502515 
L 267.5072 297.002056 
L 267.904 296.585591 
L 268.3008 298.679892 
L 268.6976 293.750168 
L 269.0944 298.604051 
L 269.4912 297.304093 
L 269.888 293.530625 
L 270.2848 292.208049 
L 270.6816 295.825841 
L 271.0784 294.347589 
L 271.4752 293.820687 
L 271.872 294.274408 
L 272.2688 292.454202 
L 272.6656 296.770539 
L 273.0624 295.362806 
L 273.4592 294.404803 
L 273.856 303.034815 
L 274.2528 294.178608 
L 274.6496 298.946004 
L 275.0464 297.736525 
L 275.4432 297.544925 
L 275.84 297.12979 
L 276.2368 294.355572 
L 276.6336 296.22634 
L 277.0304 293.727548 
L 277.4272 297.829665 
L 277.824 293.583848 
L 278.2208 295.209792 
L 279.0144 304.274897 
L 279.4112 294.247797 
L 279.808 296.711994 
L 280.2048 293.68497 
L 280.6016 296.252951 
L 280.9984 299.91066 
L 281.3952 294.945011 
L 281.792 291.791583 
L 282.1888 294.149336 
L 282.5856 299.02983 
L 282.9824 300.831408 
L 283.3792 293.815365 
L 283.776 295.623596 
L 284.1728 300.635816 
L 284.5696 294.375531 
L 284.9664 295.03948 
L 285.3632 292.028423 
L 285.76 295.829833 
L 286.1568 303.362133 
L 286.5536 298.46035 
L 286.9504 297.717898 
L 287.3472 299.832157 
L 287.744 295.197817 
L 288.1408 296.849042 
L 288.5376 296.991412 
L 288.9344 291.344515 
L 289.3312 300.025089 
L 289.728 299.063094 
L 290.1248 294.769377 
L 290.5216 299.605962 
L 290.9184 295.362806 
L 291.3152 296.586922 
L 291.712 298.520225 
L 292.1088 297.455777 
L 292.5056 301.258518 
L 292.9024 297.642056 
L 293.2992 297.474405 
L 293.696 297.612783 
L 294.0928 297.031329 
L 294.4896 291.971209 
L 295.2832 299.140266 
L 295.68 298.134363 
L 296.0768 299.285297 
L 296.8704 291.031834 
L 297.2672 293.486717 
L 297.664 299.978519 
L 298.0608 297.850954 
L 298.4576 291.621272 
L 298.8544 298.999227 
L 299.2512 298.463011 
L 299.648 301.045628 
L 300.4416 294.036238 
L 300.8384 291.037156 
L 301.2352 293.187341 
L 301.632 297.260185 
L 302.0288 293.312413 
L 302.4256 293.37628 
L 302.8224 299.185505 
L 303.2192 297.62742 
L 303.616 298.295361 
L 304.0128 297.932118 
L 304.4096 292.031084 
L 304.8064 304.1139 
L 305.2032 293.288463 
L 305.6 293.25653 
L 305.9968 295.474573 
L 306.3936 293.917818 
L 306.7904 300.308498 
L 307.1872 300.88463 
L 307.584 299.369123 
L 307.9808 302.565128 
L 308.7744 299.612615 
L 309.1712 302.220513 
L 309.568 297.157732 
L 309.9648 298.411119 
L 310.3616 293.85129 
L 310.7584 295.036819 
L 311.552 299.939933 
L 311.9488 300.130203 
L 312.3456 292.772206 
L 312.7424 296.972784 
L 313.1392 298.178271 
L 313.536 296.622847 
L 313.9328 299.828166 
L 314.3296 291.256698 
L 314.7264 299.248042 
L 315.1232 292.125554 
L 315.52 296.686714 
L 315.9168 291.556074 
L 316.3136 292.365055 
L 316.7104 296.982098 
L 317.1072 304.16313 
L 317.504 295.402723 
L 318.2976 294.366217 
L 318.6944 292.339774 
L 319.0912 293.432164 
L 319.488 297.976026 
L 320.2816 295.067422 
L 320.6784 302.430741 
L 321.0752 297.96006 
L 321.472 297.326713 
L 321.8688 293.096863 
L 322.2656 294.569793 
L 322.6624 293.534617 
L 323.0592 303.90234 
L 323.456 295.600977 
L 323.8528 293.545261 
L 324.2496 293.998982 
L 324.6464 293.221935 
L 325.0432 296.930206 
L 325.44 292.231999 
L 325.8368 295.724719 
L 326.2336 297.252202 
L 326.6304 293.002393 
L 327.0272 295.265676 
L 327.424 300.595899 
L 327.8208 302.860512 
L 328.2176 294.592412 
L 328.6144 296.735944 
L 329.0112 296.902264 
L 329.408 294.045552 
L 329.8048 296.523055 
L 330.2016 292.136198 
L 330.5984 296.401974 
L 330.9952 293.144763 
L 331.392 293.880563 
L 331.7888 293.389586 
L 332.1856 303.786582 
L 332.5824 298.444383 
L 332.9792 297.588833 
L 333.376 294.388836 
L 333.7728 303.762632 
L 334.1696 293.438817 
L 334.5664 293.09154 
L 334.9632 303.90234 
L 335.36 295.450623 
L 335.7568 293.973702 
L 336.1536 293.438817 
L 336.5504 298.139685 
L 336.9472 297.091204 
L 337.344 299.351825 
L 337.7408 292.475491 
L 338.1376 298.331286 
L 338.5344 300.686377 
L 338.9312 300.95382 
L 339.328 293.244555 
L 339.7248 296.103928 
L 340.1216 292.102934 
L 340.5184 296.415279 
L 340.9152 293.297777 
L 341.312 292.957154 
L 341.7088 292.873329 
L 342.1056 296.238315 
L 342.5024 296.455196 
L 342.8992 292.953162 
L 343.296 293.123474 
L 343.6928 295.340187 
L 344.0896 295.765966 
L 344.4864 294.738774 
L 344.8832 299.104341 
L 345.28 293.806051 
L 346.0736 293.405553 
L 346.4704 294.171955 
L 346.8672 298.101099 
L 347.264 295.662182 
L 347.6608 296.34609 
L 348.0576 296.217026 
L 348.8512 291.981853 
L 349.248 303.004212 
L 349.6448 296.014781 
L 350.0416 301.8586 
L 351.232 292.834742 
L 351.6288 298.585423 
L 352.0256 298.879476 
L 352.4224 291.906012 
L 352.8192 292.821437 
L 353.216 299.88538 
L 353.6128 303.899679 
L 354.0096 298.331286 
L 354.8032 296.038731 
L 355.2 293.291124 
L 355.5968 296.794489 
L 355.9936 293.167382 
L 356.3904 297.104509 
L 356.7872 294.009627 
L 357.184 294.376861 
L 357.5808 293.841976 
L 357.9776 294.589751 
L 358.3744 301.094859 
L 358.7712 294.056196 
L 359.168 295.720727 
L 359.5648 299.589996 
L 359.9616 298.319311 
L 360.3584 293.505345 
L 360.7552 303.35548 
L 361.152 302.756728 
L 361.5488 293.587839 
L 361.9456 301.254526 
L 362.3424 297.131121 
L 362.7392 297.642056 
L 363.136 297.084551 
L 363.5328 297.172368 
L 363.9296 291.887384 
L 364.3264 292.090959 
L 364.7232 292.963807 
L 365.12 295.282973 
L 365.5168 295.912328 
L 365.9136 299.845463 
L 366.3104 294.118733 
L 366.7072 297.466422 
L 367.104 297.905507 
L 367.5008 297.719228 
L 367.8976 291.393746 
L 368.2944 296.988751 
L 368.6912 300.659766 
L 369.088 302.795315 
L 369.4848 302.674234 
L 369.8816 295.706091 
L 370.6752 303.053443 
L 371.072 296.225009 
L 371.4688 301.034984 
L 371.8656 293.972371 
L 372.6592 301.607124 
L 373.056 296.793158 
L 373.4528 301.761469 
L 373.8496 293.965718 
L 374.2464 303.455272 
L 374.6432 302.509244 
L 375.04 302.626333 
L 375.4368 294.243805 
L 375.8336 299.041805 
L 376.2304 294.89711 
L 376.6272 296.48713 
L 377.024 299.532781 
L 377.4208 297.353324 
L 377.8176 302.345585 
L 378.2144 297.495694 
L 378.6112 295.686132 
L 379.008 292.677736 
L 379.4048 294.077485 
L 379.8016 297.725881 
L 380.1984 299.269331 
L 380.5952 299.268 
L 380.992 300.045047 
L 381.3888 296.024095 
L 381.7856 295.718066 
L 382.1824 294.334284 
L 382.5792 292.299857 
L 382.976 298.4843 
L 383.3728 297.015362 
L 383.7696 297.32006 
L 384.1664 291.864764 
L 384.5632 291.767633 
L 384.96 299.331867 
L 385.3568 297.381266 
L 385.7536 298.290038 
L 386.1504 293.972371 
L 386.5472 301.424838 
L 386.944 297.470413 
L 387.3408 299.205464 
L 387.7376 300.275234 
L 388.1344 300.207375 
L 388.5312 299.108333 
L 388.928 299.761638 
L 389.3248 299.385089 
L 389.7216 292.954493 
L 390.1184 295.161892 
L 390.5152 292.59125 
L 390.912 299.152241 
L 391.3088 301.794733 
L 391.7056 298.928707 
L 392.1024 299.55407 
L 392.4992 297.242888 
L 392.896 301.35964 
L 393.2928 300.594568 
L 393.6896 305.73186 
L 394.0864 297.019354 
L 394.4832 297.289457 
L 394.88 293.599814 
L 395.2768 295.711413 
L 395.6736 299.166877 
L 396.0704 292.460855 
L 396.4672 296.091953 
L 396.864 301.195981 
L 397.2608 298.597398 
L 397.6576 295.028836 
L 398.0544 294.733452 
L 398.4512 299.402387 
L 398.848 294.829252 
L 399.6416 296.444552 
L 400.0384 297.804384 
L 400.4352 294.929044 
L 400.832 294.501934 
L 401.2288 296.624177 
L 401.6256 301.938434 
L 402.0224 299.189497 
L 402.4192 298.407128 
L 402.816 301.030992 
L 403.2128 301.794733 
L 403.6096 296.708003 
L 404.0064 295.672827 
L 404.4032 295.570374 
L 404.8 298.29403 
L 405.1968 298.320641 
L 405.5936 299.965213 
L 405.9904 301.102842 
L 406.3872 299.542095 
L 406.784 292.307841 
L 407.1808 296.662764 
L 407.5776 298.663926 
L 407.9744 297.447794 
L 408.3712 302.102093 
L 408.768 301.99964 
L 409.1648 298.771701 
L 409.5616 298.69719 
L 409.9584 294.827921 
L 410.752 299.834819 
L 411.1488 298.026588 
L 411.5456 294.962308 
L 411.9424 301.277146 
L 412.3392 296.447213 
L 412.736 301.710908 
L 413.1328 298.095777 
L 413.5296 297.981348 
L 413.9264 295.848461 
L 414.3232 296.548335 
L 414.72 297.966712 
L 415.1168 298.291369 
L 415.5136 292.587258 
L 415.9104 298.546836 
L 416.3072 298.622678 
L 416.704 292.889295 
L 417.1008 299.904008 
L 417.4976 297.133782 
L 417.8944 297.715236 
L 418.2912 300.151492 
L 418.688 301.069578 
L 419.0848 300.734277 
L 419.4816 298.971285 
L 419.8784 299.45694 
L 420.2752 294.70551 
L 420.672 298.727793 
L 421.0688 297.060601 
L 421.4656 296.681391 
L 422.2592 298.67457 
L 422.656 298.790329 
L 423.0528 296.783844 
L 423.4496 298.568125 
L 423.8464 293.885885 
L 424.2432 301.700264 
L 424.64 300.762219 
L 425.0368 300.705005 
L 425.8304 296.525716 
L 426.2272 302.731448 
L 426.624 296.870331 
L 427.0208 298.159644 
L 427.4176 297.393241 
L 428.2112 300.542676 
L 428.608 296.967462 
L 429.0048 299.842802 
L 429.4016 294.470001 
L 429.7984 302.764712 
L 430.1952 301.753486 
L 430.592 294.690874 
L 430.9888 293.695615 
L 431.3856 300.667749 
L 431.7824 297.789748 
L 432.1792 299.414362 
L 432.576 300.071658 
L 432.9728 293.515989 
L 433.3696 298.844882 
L 433.7664 298.569456 
L 434.1632 295.192495 
L 434.56 297.642056 
L 434.9568 303.209119 
L 435.3536 295.765966 
L 435.7504 293.663681 
L 436.1472 295.121975 
L 436.544 297.004717 
L 436.9408 304.191072 
L 437.3376 300.542676 
L 437.7344 302.245793 
L 438.1312 296.51241 
L 438.528 295.555738 
L 438.9248 300.026419 
L 439.3216 299.876066 
L 439.7184 301.729536 
L 440.1152 297.572867 
L 440.512 295.768627 
L 440.9088 300.778186 
L 441.3056 293.735532 
L 441.7024 295.63291 
L 442.0992 294.814616 
L 442.496 292.989087 
L 442.8928 300.520057 
L 443.2896 295.13262 
L 443.6864 300.444215 
L 444.48 292.269254 
L 444.8768 297.261516 
L 445.2736 295.558399 
L 445.6704 299.358478 
L 446.0672 304.4013 
L 446.464 292.943848 
L 446.8608 296.657441 
L 447.2576 296.374032 
L 447.6544 294.874491 
L 448.0512 297.518314 
L 448.448 297.087212 
L 448.8448 300.945836 
L 449.2416 300.175442 
L 449.6384 299.967875 
L 450.0352 296.84505 
L 450.8288 300.783508 
L 451.2256 295.128628 
L 451.6224 298.071827 
L 452.0192 299.476898 
L 452.416 301.713569 
L 452.8128 297.253532 
L 453.2096 300.236648 
L 453.6064 291.983184 
L 453.6064 291.983184 
" style="fill:none;stroke:#1f77b4;stroke-linecap:square;stroke-width:1.2;"/>
   </g>
   <g id="patch_3">
    <path d="M 57.6 307.584 
L 57.6 41.472 
" style="fill:none;stroke:#000000;stroke-linecap:square;stroke-linejoin:miter;"/>
   </g>
   <g id="patch_4">
    <path d="M 414.72 307.584 
L 414.72 41.472 
" style="fill:none;stroke:#000000;stroke-linecap:square;stroke-linejoin:miter;"/>
   </g>
   <g id="patch_5">
    <path d="M 57.6 307.584 
L 414.72 307.584 
" style="fill:none;stroke:#000000;stroke-linecap:square;stroke-linejoin:miter;"/>
   </g>
   <g id="patch_6">
    <path d="M 57.6 41.472 
L 414.72 41.472 
" style="fill:none;stroke:#000000;stroke-linecap:square;stroke-linejoin:miter;"/>
   </g>
   <g id="text_19">
    <!-- Training - NSRA-ES - Cartpole -->
    <g transform="translate(166.46925 35.472)scale(0.096 -0.096)">
     <defs>
      <path d="M 3513 2113 
L 3513 0 
L 2938 0 
L 2938 2094 
Q 2938 2591 2744 2837 
Q 2550 3084 2163 3084 
Q 1697 3084 1428 2787 
Q 1159 2491 1159 1978 
L 1159 0 
L 581 0 
L 581 3500 
L 1159 3500 
L 1159 2956 
Q 1366 3272 1645 3428 
Q 1925 3584 2291 3584 
Q 2894 3584 3203 3211 
Q 3513 2838 3513 2113 
z
" id="DejaVuSans-6e" transform="scale(0.015625)"/>
      <path d="M 2906 1791 
Q 2906 2416 2648 2759 
Q 2391 3103 1925 3103 
Q 1463 3103 1205 2759 
Q 947 2416 947 1791 
Q 947 1169 1205 825 
Q 1463 481 1925 481 
Q 2391 481 2648 825 
Q 2906 1169 2906 1791 
z
M 3481 434 
Q 3481 -459 3084 -895 
Q 2688 -1331 1869 -1331 
Q 1566 -1331 1297 -1286 
Q 1028 -1241 775 -1147 
L 775 -588 
Q 1028 -725 1275 -790 
Q 1522 -856 1778 -856 
Q 2344 -856 2625 -561 
Q 2906 -266 2906 331 
L 2906 616 
Q 2728 306 2450 153 
Q 2172 0 1784 0 
Q 1141 0 747 490 
Q 353 981 353 1791 
Q 353 2603 747 3093 
Q 1141 3584 1784 3584 
Q 2172 3584 2450 3431 
Q 2728 3278 2906 2969 
L 2906 3500 
L 3481 3500 
L 3481 434 
z
" id="DejaVuSans-67" transform="scale(0.015625)"/>
      <path id="DejaVuSans-20" transform="scale(0.015625)"/>
      <path d="M 313 2009 
L 1997 2009 
L 1997 1497 
L 313 1497 
L 313 2009 
z
" id="DejaVuSans-2d" transform="scale(0.015625)"/>
      <path d="M 628 4666 
L 1478 4666 
L 3547 763 
L 3547 4666 
L 4159 4666 
L 4159 0 
L 3309 0 
L 1241 3903 
L 1241 0 
L 628 0 
L 628 4666 
z
" id="DejaVuSans-4e" transform="scale(0.015625)"/>
      <path d="M 3425 4513 
L 3425 3897 
Q 3066 4069 2747 4153 
Q 2428 4238 2131 4238 
Q 1616 4238 1336 4038 
Q 1056 3838 1056 3469 
Q 1056 3159 1242 3001 
Q 1428 2844 1947 2747 
L 2328 2669 
Q 3034 2534 3370 2195 
Q 3706 1856 3706 1288 
Q 3706 609 3251 259 
Q 2797 -91 1919 -91 
Q 1588 -91 1214 -16 
Q 841 59 441 206 
L 441 856 
Q 825 641 1194 531 
Q 1563 422 1919 422 
Q 2459 422 2753 634 
Q 3047 847 3047 1241 
Q 3047 1584 2836 1778 
Q 2625 1972 2144 2069 
L 1759 2144 
Q 1053 2284 737 2584 
Q 422 2884 422 3419 
Q 422 4038 858 4394 
Q 1294 4750 2059 4750 
Q 2388 4750 2728 4690 
Q 3069 4631 3425 4513 
z
" id="DejaVuSans-53" transform="scale(0.015625)"/>
      <path d="M 2188 4044 
L 1331 1722 
L 3047 1722 
L 2188 4044 
z
M 1831 4666 
L 2547 4666 
L 4325 0 
L 3669 0 
L 3244 1197 
L 1141 1197 
L 716 0 
L 50 0 
L 1831 4666 
z
" id="DejaVuSans-41" transform="scale(0.015625)"/>
      <path d="M 628 4666 
L 3578 4666 
L 3578 4134 
L 1259 4134 
L 1259 2753 
L 3481 2753 
L 3481 2222 
L 1259 2222 
L 1259 531 
L 3634 531 
L 3634 0 
L 628 0 
L 628 4666 
z
" id="DejaVuSans-45" transform="scale(0.015625)"/>
      <path d="M 4122 4306 
L 4122 3641 
Q 3803 3938 3442 4084 
Q 3081 4231 2675 4231 
Q 1875 4231 1450 3742 
Q 1025 3253 1025 2328 
Q 1025 1406 1450 917 
Q 1875 428 2675 428 
Q 3081 428 3442 575 
Q 3803 722 4122 1019 
L 4122 359 
Q 3791 134 3420 21 
Q 3050 -91 2638 -91 
Q 1578 -91 968 557 
Q 359 1206 359 2328 
Q 359 3453 968 4101 
Q 1578 4750 2638 4750 
Q 3056 4750 3426 4639 
Q 3797 4528 4122 4306 
z
" id="DejaVuSans-43" transform="scale(0.015625)"/>
      <path d="M 1959 3097 
Q 1497 3097 1228 2736 
Q 959 2375 959 1747 
Q 959 1119 1226 758 
Q 1494 397 1959 397 
Q 2419 397 2687 759 
Q 2956 1122 2956 1747 
Q 2956 2369 2687 2733 
Q 2419 3097 1959 3097 
z
M 1959 3584 
Q 2709 3584 3137 3096 
Q 3566 2609 3566 1747 
Q 3566 888 3137 398 
Q 2709 -91 1959 -91 
Q 1206 -91 779 398 
Q 353 888 353 1747 
Q 353 2609 779 3096 
Q 1206 3584 1959 3584 
z
" id="DejaVuSans-6f" transform="scale(0.015625)"/>
      <path d="M 603 4863 
L 1178 4863 
L 1178 0 
L 603 0 
L 603 4863 
z
" id="DejaVuSans-6c" transform="scale(0.015625)"/>
     </defs>
     <use xlink:href="#DejaVuSans-54"/>
     <use x="46.333984" xlink:href="#DejaVuSans-72"/>
     <use x="87.447266" xlink:href="#DejaVuSans-61"/>
     <use x="148.726562" xlink:href="#DejaVuSans-69"/>
     <use x="176.509766" xlink:href="#DejaVuSans-6e"/>
     <use x="239.888672" xlink:href="#DejaVuSans-69"/>
     <use x="267.671875" xlink:href="#DejaVuSans-6e"/>
     <use x="331.050781" xlink:href="#DejaVuSans-67"/>
     <use x="394.527344" xlink:href="#DejaVuSans-20"/>
     <use x="426.314453" xlink:href="#DejaVuSans-2d"/>
     <use x="462.398438" xlink:href="#DejaVuSans-20"/>
     <use x="494.185547" xlink:href="#DejaVuSans-4e"/>
     <use x="568.990234" xlink:href="#DejaVuSans-53"/>
     <use x="632.466797" xlink:href="#DejaVuSans-52"/>
     <use x="697.949219" xlink:href="#DejaVuSans-41"/>
     <use x="764.107422" xlink:href="#DejaVuSans-2d"/>
     <use x="800.191406" xlink:href="#DejaVuSans-45"/>
     <use x="863.375" xlink:href="#DejaVuSans-53"/>
     <use x="926.851562" xlink:href="#DejaVuSans-20"/>
     <use x="958.638672" xlink:href="#DejaVuSans-2d"/>
     <use x="994.722656" xlink:href="#DejaVuSans-20"/>
     <use x="1026.509766" xlink:href="#DejaVuSans-43"/>
     <use x="1096.333984" xlink:href="#DejaVuSans-61"/>
     <use x="1157.613281" xlink:href="#DejaVuSans-72"/>
     <use x="1198.726562" xlink:href="#DejaVuSans-74"/>
     <use x="1237.935547" xlink:href="#DejaVuSans-70"/>
     <use x="1301.412109" xlink:href="#DejaVuSans-6f"/>
     <use x="1362.59375" xlink:href="#DejaVuSans-6c"/>
     <use x="1390.376953" xlink:href="#DejaVuSans-65"/>
    </g>
   </g>
  </g>
 </g>
 <defs>
  <clipPath id="p33bdcefe98">
   <rect height="266.112" width="357.12" x="57.6" y="41.472"/>
  </clipPath>
 </defs>
</svg>
