<?xml version="1.0" encoding="utf-8" standalone="no"?>
<!DOCTYPE svg PUBLIC "-//W3C//DTD SVG 1.1//EN"
  "http://www.w3.org/Graphics/SVG/1.1/DTD/svg11.dtd">
<svg height="345.6pt" version="1.1" viewBox="0 0 460.8 345.6" width="460.8pt" xmlns="http://www.w3.org/2000/svg" xmlns:xlink="http://www.w3.org/1999/xlink">
 <metadata>
  <rdf:RDF xmlns:cc="http://creativecommons.org/ns#" xmlns:dc="http://purl.org/dc/elements/1.1/" xmlns:rdf="http://www.w3.org/1999/02/22-rdf-syntax-ns#">
   <cc:Work>
    <dc:type rdf:resource="http://purl.org/dc/dcmitype/StillImage"/>
    <dc:date>2021-07-22T00:42:14.720703</dc:date>
    <dc:format>image/svg+xml</dc:format>
    <dc:creator>
     <cc:Agent>
      <dc:title>Matplotlib v3.4.2, https://matplotlib.org/</dc:title>
     </cc:Agent>
    </dc:creator>
   </cc:Work>
  </rdf:RDF>
 </metadata>
 <defs>
  <style type="text/css">*{stroke-linecap:butt;stroke-linejoin:round;}</style>
 </defs>
 <g id="figure_1">
  <g id="patch_1">
   <path d="M 0 345.6 
L 460.8 345.6 
L 460.8 0 
L 0 0 
z
" style="fill:#ffffff;"/>
  </g>
  <g id="axes_1">
   <g id="patch_2">
    <path d="M 57.6 307.584 
L 414.72 307.584 
L 414.72 41.472 
L 57.6 41.472 
z
" style="fill:#ffffff;"/>
   </g>
   <g id="PolyCollection_1">
    <path clip-path="url(#p996f1d689e)" d="M 73.832727 278.04064 
L 73.832727 279.19872 
L 74.157707 278.77984 
L 74.482686 278.18848 
L 74.807666 278.3856 
L 75.132645 278.68128 
L 75.457625 277.1536 
L 75.782604 276.56224 
L 76.107584 276.88256 
L 76.432563 276.85792 
L 76.757543 277.00576 
L 77.082523 276.4144 
L 77.407502 276.36512 
L 77.732482 276.0448 
L 78.057461 276.0448 
L 78.382441 275.65056 
L 78.70742 275.4288 
L 79.0324 275.52736 
L 79.357379 275.20704 
L 79.682359 275.77376 
L 80.007338 275.33024 
L 80.332318 275.35488 
L 80.657297 274.4432 
L 80.982277 274.73888 
L 81.307256 275.87232 
L 81.632236 275.00992 
L 81.957215 274.83744 
L 82.282195 275.74912 
L 82.607174 274.91136 
L 82.932154 275.08384 
L 83.257133 275.97088 
L 83.582113 275.1824 
L 83.907093 274.5664 
L 84.232072 274.5664 
L 84.557052 274.64032 
L 84.882031 274.24608 
L 85.207011 273.9504 
L 85.53199 274.51712 
L 85.85697 273.8272 
L 86.181949 275.03456 
L 86.506929 275.52736 
L 86.831908 274.32 
L 87.156888 273.75328 
L 87.481867 274.46784 
L 87.806847 274.6896 
L 88.131826 274.5664 
L 88.456806 275.3056 
L 88.781785 274.24608 
L 89.106765 274.41856 
L 89.431744 274.1968 
L 89.756724 275.0592 
L 90.081704 275.08384 
L 90.406683 274.51712 
L 90.731663 272.74304 
L 91.056642 274.02432 
L 91.381622 274.14752 
L 91.706601 274.46784 
L 92.031581 273.9504 
L 92.35656 274.1968 
L 92.68154 273.87648 
L 93.006519 274.34464 
L 93.331499 274.78816 
L 93.656478 274.24608 
L 93.981458 274.17216 
L 94.306437 274.32 
L 94.631417 274.76352 
L 94.956396 275.20704 
L 95.281376 274.36928 
L 95.606355 274.936 
L 95.931335 273.85184 
L 96.256314 274.8128 
L 96.581294 274.41856 
L 96.906274 274.32 
L 97.231253 274.04896 
L 97.556233 274.49248 
L 97.881212 275.20704 
L 98.206192 273.77792 
L 98.531171 273.5808 
L 98.856151 274.02432 
L 99.18113 274.936 
L 99.50611 274.936 
L 99.831089 273.97504 
L 100.156069 274.24608 
L 100.481048 274.59104 
L 100.806028 274.17216 
L 101.131007 273.77792 
L 101.455987 273.72864 
L 101.780966 274.46784 
L 102.105946 274.39392 
L 102.430925 274.4432 
L 102.755905 274.27072 
L 103.080885 275.25632 
L 103.405864 273.92576 
L 103.730844 273.40832 
L 104.055823 274.54176 
L 104.380803 273.97504 
L 104.705782 273.704 
L 105.030762 274.64032 
L 105.355741 275.69984 
L 105.680721 273.43296 
L 106.0057 274.41856 
L 106.33068 274.51712 
L 106.655659 274.64032 
L 106.980639 274.32 
L 107.305618 274.59104 
L 107.630598 273.38368 
L 107.955577 274.51712 
L 108.280557 274.36928 
L 108.605536 275.35488 
L 108.930516 273.92576 
L 109.255495 274.39392 
L 109.580475 274.46784 
L 109.905455 274.61568 
L 110.230434 274.61568 
L 110.555414 274.12288 
L 110.880393 275.33024 
L 111.205373 274.88672 
L 111.530352 273.72864 
L 111.855332 274.34464 
L 112.180311 274.36928 
L 112.505291 274.73888 
L 112.83027 273.5808 
L 113.15525 273.87648 
L 113.480229 274.88672 
L 113.805209 274.36928 
L 114.130188 274.71424 
L 114.455168 274.51712 
L 114.780147 274.36928 
L 115.105127 275.35488 
L 115.430106 274.51712 
L 115.755086 273.85184 
L 116.080066 274.78816 
L 116.405045 275.08384 
L 116.730025 273.28512 
L 117.055004 274.4432 
L 117.379984 274.8128 
L 117.704963 274.61568 
L 118.029943 274.83744 
L 118.354922 274.09824 
L 118.679902 273.4576 
L 119.004881 274.22144 
L 119.329861 274.27072 
L 119.65484 273.50688 
L 119.97982 274.76352 
L 120.304799 274.66496 
L 120.629779 274.34464 
L 120.954758 274.12288 
L 121.279738 275.15776 
L 121.604717 274.04896 
L 121.929697 274.27072 
L 122.254676 274.39392 
L 122.579656 274.0736 
L 122.904636 273.80256 
L 123.229615 273.67936 
L 123.554595 274.04896 
L 123.879574 275.62592 
L 124.204554 274.29536 
L 124.529533 274.04896 
L 124.854513 274.4432 
L 125.179492 274.17216 
L 125.504472 275.37952 
L 125.829451 274.91136 
L 126.154431 273.4576 
L 126.47941 274.54176 
L 126.80439 274.24608 
L 127.129369 274.17216 
L 127.454349 274.73888 
L 127.779328 274.04896 
L 128.104308 273.4576 
L 128.429287 273.50688 
L 128.754267 274.04896 
L 129.079247 274.66496 
L 129.404226 274.04896 
L 129.729206 275.4288 
L 130.054185 274.54176 
L 130.379165 274.51712 
L 130.704144 275.0592 
L 131.029124 274.98528 
L 131.354103 274.88672 
L 131.679083 273.5808 
L 132.004062 274.29536 
L 132.329042 273.9504 
L 132.654021 274.36928 
L 132.979001 274.32 
L 133.30398 275.03456 
L 133.62896 274.41856 
L 133.953939 274.59104 
L 134.278919 274.1968 
L 134.603898 274.76352 
L 134.928878 275.65056 
L 135.253857 275.13312 
L 135.578837 273.63008 
L 135.903817 274.32 
L 136.228796 273.55616 
L 136.553776 274.32 
L 136.878755 274.5664 
L 137.203735 274.61568 
L 137.528714 274.04896 
L 137.853694 274.5664 
L 138.178673 273.72864 
L 138.503653 274.78816 
L 138.828632 274.27072 
L 139.153612 274.09824 
L 139.478591 274.39392 
L 139.803571 273.3344 
L 140.12855 274.1968 
L 140.45353 274.96064 
L 140.778509 273.67936 
L 141.103489 273.85184 
L 141.428468 274.36928 
L 141.753448 274.4432 
L 142.078428 274.61568 
L 142.403407 273.67936 
L 142.728387 274.02432 
L 143.053366 273.704 
L 143.378346 274.32 
L 143.703325 274.49248 
L 144.028305 273.35904 
L 144.353284 274.04896 
L 144.678264 274.78816 
L 145.003243 274.86208 
L 145.328223 273.85184 
L 145.653202 274.22144 
L 145.978182 274.51712 
L 146.303161 274.936 
L 146.628141 274.91136 
L 146.95312 273.87648 
L 147.2781 274.49248 
L 147.603079 274.02432 
L 147.928059 273.65472 
L 148.253038 274.29536 
L 148.578018 273.77792 
L 148.902998 273.75328 
L 149.227977 273.63008 
L 149.552957 274.46784 
L 149.877936 273.65472 
L 150.202916 273.67936 
L 150.527895 275.1824 
L 150.852875 274.04896 
L 151.177854 274.51712 
L 151.502834 274.46784 
L 151.827813 274.27072 
L 152.152793 275.52736 
L 152.477772 274.73888 
L 152.802752 274.66496 
L 153.127731 275.3056 
L 153.452711 273.50688 
L 153.77769 274.8128 
L 154.10267 274.39392 
L 154.427649 274.27072 
L 154.752629 274.14752 
L 155.077609 274.39392 
L 155.402588 273.4576 
L 155.727568 274.76352 
L 156.052547 274.29536 
L 156.377527 273.67936 
L 156.702506 274.5664 
L 157.027486 274.14752 
L 157.352465 274.76352 
L 157.677445 273.8272 
L 158.002424 274.14752 
L 158.327404 273.87648 
L 158.652383 274.96064 
L 158.977363 273.65472 
L 159.302342 273.48224 
L 159.627322 272.9648 
L 159.952301 274.32 
L 160.277281 274.24608 
L 160.60226 274.46784 
L 160.92724 275.13312 
L 161.252219 273.97504 
L 161.577199 274.71424 
L 161.902179 274.936 
L 162.227158 273.9504 
L 162.552138 274.51712 
L 162.877117 274.54176 
L 163.202097 273.4576 
L 163.527076 274.1968 
L 163.852056 273.9504 
L 164.177035 274.24608 
L 164.502015 274.04896 
L 164.826994 274.36928 
L 165.151974 274.5664 
L 165.476953 273.9504 
L 165.801933 274.12288 
L 166.126912 273.9504 
L 166.451892 273.60544 
L 166.776871 273.4576 
L 167.101851 274.29536 
L 167.42683 273.80256 
L 167.75181 274.76352 
L 168.07679 273.92576 
L 168.401769 273.63008 
L 168.726749 274.34464 
L 169.051728 275.15776 
L 169.376708 274.39392 
L 169.701687 274.61568 
L 170.026667 274.24608 
L 170.351646 273.90112 
L 170.676626 273.65472 
L 171.001605 274.88672 
L 171.326585 273.85184 
L 171.651564 275.13312 
L 171.976544 273.92576 
L 172.301523 274.36928 
L 172.626503 274.24608 
L 172.951482 274.22144 
L 173.276462 273.75328 
L 173.601441 274.936 
L 173.926421 274.34464 
L 174.2514 274.04896 
L 174.57638 274.51712 
L 174.90136 274.22144 
L 175.226339 273.63008 
L 175.551319 274.54176 
L 175.876298 274.17216 
L 176.201278 274.0736 
L 176.526257 274.4432 
L 176.851237 274.0736 
L 177.176216 273.65472 
L 177.501196 273.92576 
L 177.826175 273.60544 
L 178.151155 274.54176 
L 178.476134 273.75328 
L 178.801114 274.4432 
L 179.126093 274.64032 
L 179.451073 274.59104 
L 179.776052 273.97504 
L 180.101032 273.35904 
L 180.426011 273.90112 
L 180.750991 275.08384 
L 181.075971 273.77792 
L 181.40095 273.35904 
L 181.72593 274.61568 
L 182.050909 274.04896 
L 182.375889 273.85184 
L 182.700868 273.43296 
L 183.025848 273.9504 
L 183.350827 274.27072 
L 183.675807 273.92576 
L 184.000786 274.04896 
L 184.325766 274.22144 
L 184.650745 273.65472 
L 184.975725 273.48224 
L 185.300704 274.14752 
L 185.625684 274.17216 
L 185.950663 274.14752 
L 186.275643 273.9504 
L 186.600622 273.9504 
L 186.925602 273.5808 
L 187.250581 274.49248 
L 187.575561 273.18656 
L 187.900541 274.14752 
L 188.22552 274.49248 
L 188.5505 274.27072 
L 188.875479 275.3056 
L 189.200459 274.78816 
L 189.525438 274.78816 
L 189.850418 274.936 
L 190.175397 275.3056 
L 190.500377 273.87648 
L 190.825356 275.08384 
L 191.150336 274.73888 
L 191.475315 275.35488 
L 191.800295 274.22144 
L 192.125274 273.43296 
L 192.450254 273.60544 
L 192.775233 273.65472 
L 193.100213 274.64032 
L 193.425192 274.78816 
L 193.750172 274.04896 
L 194.075152 273.9504 
L 194.400131 274.24608 
L 194.725111 274.6896 
L 195.05009 273.48224 
L 195.37507 274.36928 
L 195.700049 273.67936 
L 196.025029 274.02432 
L 196.350008 274.54176 
L 196.674988 274.29536 
L 196.999967 274.98528 
L 197.324947 274.49248 
L 197.649926 273.53152 
L 197.974906 273.75328 
L 198.299885 275.10848 
L 198.624865 274.14752 
L 198.949844 273.90112 
L 199.274824 273.87648 
L 199.599803 273.97504 
L 199.924783 273.87648 
L 200.249762 273.9504 
L 200.574742 274.12288 
L 200.899722 274.34464 
L 201.224701 274.04896 
L 201.549681 274.14752 
L 201.87466 274.32 
L 202.19964 274.46784 
L 202.524619 273.55616 
L 202.849599 274.22144 
L 203.174578 275.1824 
L 203.499558 274.64032 
L 203.824537 274.8128 
L 204.149517 274.27072 
L 204.474496 273.43296 
L 204.799476 274.29536 
L 205.124455 274.6896 
L 205.449435 274.1968 
L 205.774414 274.24608 
L 206.099394 273.30976 
L 206.424373 274.83744 
L 206.749353 274.4432 
L 207.074333 274.34464 
L 207.399312 275.10848 
L 207.724292 272.9648 
L 208.049271 274.04896 
L 208.374251 274.71424 
L 208.69923 273.28512 
L 209.02421 273.4576 
L 209.349189 274.88672 
L 209.674169 274.12288 
L 209.999148 274.41856 
L 210.324128 273.60544 
L 210.649107 273.35904 
L 210.974087 274.73888 
L 211.299066 273.99968 
L 211.624046 273.38368 
L 211.949025 273.87648 
L 212.274005 273.99968 
L 212.598984 273.97504 
L 212.923964 273.85184 
L 213.248943 274.71424 
L 213.573923 274.17216 
L 213.898903 273.26048 
L 214.223882 273.99968 
L 214.548862 274.14752 
L 214.873841 274.0736 
L 215.198821 274.76352 
L 215.5238 274.64032 
L 215.84878 273.16192 
L 216.173759 273.53152 
L 216.498739 275.52736 
L 216.823718 273.53152 
L 217.148698 275.00992 
L 217.473677 273.65472 
L 217.798657 273.60544 
L 218.123636 273.87648 
L 218.448616 273.80256 
L 218.773595 274.51712 
L 219.098575 274.49248 
L 219.423554 273.77792 
L 219.748534 275.3056 
L 220.073514 274.83744 
L 220.398493 273.55616 
L 220.723473 273.16192 
L 221.048452 273.50688 
L 221.373432 274.49248 
L 221.698411 274.12288 
L 222.023391 273.28512 
L 222.34837 275.08384 
L 222.67335 274.936 
L 222.998329 275.25632 
L 223.323309 274.17216 
L 223.648288 274.27072 
L 223.973268 275.23168 
L 224.298247 274.4432 
L 224.623227 273.85184 
L 224.948206 274.24608 
L 225.273186 274.6896 
L 225.598165 273.5808 
L 225.923145 273.9504 
L 226.248124 273.5808 
L 226.573104 274.36928 
L 226.898084 274.04896 
L 227.223063 274.54176 
L 227.548043 273.63008 
L 227.873022 274.1968 
L 228.198002 274.24608 
L 228.522981 273.26048 
L 228.847961 274.4432 
L 229.17294 273.35904 
L 229.49792 272.76768 
L 229.822899 274.04896 
L 230.147879 273.55616 
L 230.472858 274.83744 
L 230.797838 274.73888 
L 231.122817 274.34464 
L 231.447797 273.8272 
L 231.772776 274.04896 
L 232.097756 274.49248 
L 232.422735 273.55616 
L 232.747715 273.55616 
L 233.072695 273.5808 
L 233.397674 274.54176 
L 233.722654 273.90112 
L 234.047633 274.76352 
L 234.372613 274.29536 
L 234.697592 274.49248 
L 235.022572 274.29536 
L 235.347551 274.49248 
L 235.672531 274.27072 
L 235.99751 272.57056 
L 236.32249 274.0736 
L 236.647469 274.17216 
L 236.972449 274.24608 
L 237.297428 273.67936 
L 237.622408 274.83744 
L 237.947387 273.99968 
L 238.272367 273.72864 
L 238.597346 273.53152 
L 238.922326 273.92576 
L 239.247305 274.66496 
L 239.572285 274.91136 
L 239.897265 274.17216 
L 240.222244 273.23584 
L 240.547224 273.75328 
L 240.872203 273.53152 
L 241.197183 274.24608 
L 241.522162 273.65472 
L 241.847142 274.71424 
L 242.172121 273.87648 
L 242.497101 273.85184 
L 242.82208 275.20704 
L 243.14706 273.9504 
L 243.472039 274.36928 
L 243.797019 273.75328 
L 244.121998 273.65472 
L 244.446978 274.09824 
L 244.771957 274.09824 
L 245.096937 273.85184 
L 245.421916 272.49664 
L 245.746896 274.51712 
L 246.071876 273.26048 
L 246.396855 273.72864 
L 246.721835 274.6896 
L 247.046814 273.72864 
L 247.371794 273.28512 
L 247.696773 274.4432 
L 248.021753 273.80256 
L 248.346732 274.0736 
L 248.671712 274.61568 
L 248.996691 274.0736 
L 249.321671 273.65472 
L 249.64665 274.61568 
L 249.97163 273.30976 
L 250.296609 273.75328 
L 250.621589 273.65472 
L 250.946568 275.0592 
L 251.271548 274.91136 
L 251.596527 274.32 
L 251.921507 274.09824 
L 252.246486 274.32 
L 252.571466 275.13312 
L 252.896446 273.9504 
L 253.221425 273.23584 
L 253.546405 274.0736 
L 253.871384 274.78816 
L 254.196364 274.29536 
L 254.521343 274.27072 
L 254.846323 273.55616 
L 255.171302 273.704 
L 255.496282 273.77792 
L 255.821261 273.72864 
L 256.146241 274.54176 
L 256.47122 274.66496 
L 256.7962 273.48224 
L 257.121179 274.14752 
L 257.446159 273.704 
L 257.771138 273.16192 
L 258.096118 274.22144 
L 258.421097 273.90112 
L 258.746077 273.92576 
L 259.071057 274.34464 
L 259.396036 274.5664 
L 259.721016 273.97504 
L 260.045995 274.0736 
L 260.370975 273.9504 
L 260.695954 274.5664 
L 261.020934 273.30976 
L 261.345913 274.5664 
L 261.670893 273.35904 
L 261.995872 273.38368 
L 262.320852 273.5808 
L 262.645831 273.5808 
L 262.970811 274.41856 
L 263.29579 274.5664 
L 263.62077 274.24608 
L 263.945749 274.4432 
L 264.270729 274.54176 
L 264.595708 273.72864 
L 264.920688 274.36928 
L 265.245667 273.85184 
L 265.570647 273.43296 
L 265.895627 274.59104 
L 266.220606 274.02432 
L 266.545586 274.17216 
L 266.870565 273.35904 
L 267.195545 273.75328 
L 267.520524 274.83744 
L 267.845504 274.12288 
L 268.170483 273.67936 
L 268.495463 272.89088 
L 268.820442 274.36928 
L 269.145422 273.38368 
L 269.470401 274.17216 
L 269.795381 274.1968 
L 270.12036 274.09824 
L 270.44534 274.04896 
L 270.770319 274.02432 
L 271.095299 274.98528 
L 271.420278 274.49248 
L 271.745258 274.24608 
L 272.070238 274.02432 
L 272.395217 273.55616 
L 272.720197 274.1968 
L 273.045176 273.06336 
L 273.370156 273.9504 
L 273.695135 275.25632 
L 274.020115 274.6896 
L 274.345094 274.24608 
L 274.670074 273.16192 
L 274.995053 273.65472 
L 275.320033 274.12288 
L 275.645012 274.12288 
L 275.969992 273.38368 
L 276.294971 274.98528 
L 276.619951 273.8272 
L 276.94493 274.5664 
L 277.26991 273.77792 
L 277.594889 273.80256 
L 277.919869 274.59104 
L 278.244848 274.46784 
L 278.569828 273.99968 
L 278.894808 274.04896 
L 279.219787 273.23584 
L 279.544767 274.51712 
L 279.869746 273.9504 
L 280.194726 273.77792 
L 280.519705 273.60544 
L 280.844685 274.0736 
L 281.169664 273.65472 
L 281.494644 274.88672 
L 281.819623 273.60544 
L 282.144603 274.0736 
L 282.469582 274.39392 
L 282.794562 274.61568 
L 283.119541 274.78816 
L 283.444521 273.60544 
L 283.7695 274.49248 
L 284.09448 274.34464 
L 284.419459 274.32 
L 284.744439 274.14752 
L 285.069419 273.03872 
L 285.394398 274.09824 
L 285.719378 274.83744 
L 286.044357 273.50688 
L 286.369337 274.1968 
L 286.694316 274.29536 
L 287.019296 274.0736 
L 287.344275 274.27072 
L 287.669255 274.6896 
L 287.994234 272.69376 
L 288.319214 273.4576 
L 288.644193 273.9504 
L 288.969173 274.09824 
L 289.294152 273.85184 
L 289.619132 273.3344 
L 289.944111 274.12288 
L 290.269091 274.32 
L 290.59407 274.0736 
L 290.91905 274.02432 
L 291.244029 274.17216 
L 291.569009 273.63008 
L 291.893989 275.03456 
L 292.218968 274.04896 
L 292.543948 273.28512 
L 292.868927 273.80256 
L 293.193907 274.98528 
L 293.518886 274.12288 
L 293.843866 275.72448 
L 294.168845 273.92576 
L 294.493825 274.27072 
L 294.818804 273.9504 
L 295.143784 273.99968 
L 295.468763 274.24608 
L 295.793743 273.99968 
L 296.118722 273.55616 
L 296.443702 273.704 
L 296.768681 273.704 
L 297.093661 273.9504 
L 297.41864 274.61568 
L 297.74362 274.02432 
L 298.0686 273.87648 
L 298.393579 274.36928 
L 298.718559 274.36928 
L 299.043538 273.35904 
L 299.368518 273.60544 
L 299.693497 273.85184 
L 300.018477 273.18656 
L 300.343456 273.97504 
L 300.668436 274.64032 
L 300.993415 274.61568 
L 301.318395 274.51712 
L 301.643374 273.43296 
L 301.968354 273.99968 
L 302.293333 273.65472 
L 302.618313 272.76768 
L 302.943292 273.65472 
L 303.268272 273.63008 
L 303.593251 274.4432 
L 303.918231 274.04896 
L 304.24321 274.27072 
L 304.56819 274.936 
L 304.89317 274.64032 
L 305.218149 272.8416 
L 305.543129 273.65472 
L 305.868108 274.04896 
L 306.193088 273.85184 
L 306.518067 274.0736 
L 306.843047 274.54176 
L 307.168026 274.41856 
L 307.493006 274.02432 
L 307.817985 274.66496 
L 308.142965 273.77792 
L 308.467944 272.94016 
L 308.792924 274.22144 
L 309.117903 274.27072 
L 309.442883 273.99968 
L 309.767862 274.41856 
L 310.092842 274.04896 
L 310.417821 273.43296 
L 310.742801 274.34464 
L 311.067781 274.0736 
L 311.39276 274.0736 
L 311.71774 274.09824 
L 312.042719 272.44736 
L 312.367699 273.50688 
L 312.692678 274.22144 
L 313.017658 274.61568 
L 313.342637 274.02432 
L 313.667617 272.94016 
L 313.992596 274.1968 
L 314.317576 273.60544 
L 314.642555 273.38368 
L 314.967535 273.63008 
L 315.292514 273.97504 
L 315.617494 274.66496 
L 315.942473 274.12288 
L 316.267453 273.40832 
L 316.592432 274.32 
L 316.917412 273.80256 
L 317.242391 273.4576 
L 317.567371 273.55616 
L 317.892351 274.32 
L 318.21733 273.50688 
L 318.54231 273.48224 
L 318.867289 274.32 
L 319.192269 274.34464 
L 319.517248 274.41856 
L 319.842228 275.23168 
L 320.167207 273.50688 
L 320.492187 274.09824 
L 320.817166 273.5808 
L 321.142146 274.04896 
L 321.467125 274.46784 
L 321.792105 273.65472 
L 322.117084 273.28512 
L 322.442064 275.23168 
L 322.767043 274.61568 
L 323.092023 274.24608 
L 323.417002 274.09824 
L 323.741982 273.9504 
L 324.066962 274.04896 
L 324.391941 273.87648 
L 324.716921 272.98944 
L 325.0419 273.5808 
L 325.36688 273.60544 
L 325.691859 273.30976 
L 326.016839 273.87648 
L 326.341818 274.54176 
L 326.666798 273.77792 
L 326.991777 273.26048 
L 327.316757 275.82304 
L 327.641736 273.23584 
L 327.966716 273.72864 
L 328.291695 274.09824 
L 328.616675 274.02432 
L 328.941654 273.43296 
L 329.266634 274.96064 
L 329.591613 274.04896 
L 329.916593 273.53152 
L 330.241572 273.18656 
L 330.566552 273.75328 
L 330.891532 274.34464 
L 331.216511 274.73888 
L 331.541491 273.8272 
L 331.86647 274.32 
L 332.19145 274.34464 
L 332.516429 274.73888 
L 332.841409 274.1968 
L 333.166388 273.13728 
L 333.491368 273.80256 
L 333.816347 274.46784 
L 334.141327 274.02432 
L 334.466306 274.66496 
L 334.791286 274.27072 
L 335.116265 274.36928 
L 335.441245 274.36928 
L 335.766224 274.34464 
L 336.091204 274.34464 
L 336.416183 273.80256 
L 336.741163 273.13728 
L 337.066143 273.16192 
L 337.391122 273.67936 
L 337.716102 274.36928 
L 338.041081 274.02432 
L 338.366061 275.1824 
L 338.69104 274.32 
L 339.01602 272.7184 
L 339.340999 274.4432 
L 339.665979 274.36928 
L 339.990958 274.02432 
L 340.315938 274.39392 
L 340.640917 274.34464 
L 340.965897 273.65472 
L 341.290876 273.72864 
L 341.615856 273.75328 
L 341.940835 273.53152 
L 342.265815 273.53152 
L 342.590794 273.50688 
L 342.915774 273.90112 
L 343.240753 274.46784 
L 343.565733 274.17216 
L 343.890713 274.12288 
L 344.215692 274.39392 
L 344.540672 273.30976 
L 344.865651 274.49248 
L 345.190631 273.9504 
L 345.51561 273.8272 
L 345.84059 274.22144 
L 346.165569 273.35904 
L 346.490549 273.55616 
L 346.815528 273.4576 
L 347.140508 273.43296 
L 347.465487 273.90112 
L 347.790467 273.50688 
L 348.115446 273.48224 
L 348.440426 273.43296 
L 348.765405 273.90112 
L 349.090385 274.29536 
L 349.415364 273.85184 
L 349.740344 274.12288 
L 350.065324 274.54176 
L 350.390303 274.6896 
L 350.715283 274.39392 
L 351.040262 274.32 
L 351.365242 273.63008 
L 351.690221 273.99968 
L 352.015201 273.63008 
L 352.34018 273.90112 
L 352.66516 273.97504 
L 352.990139 274.32 
L 353.315119 273.5808 
L 353.640098 273.13728 
L 353.965078 273.67936 
L 354.290057 273.92576 
L 354.615037 273.50688 
L 354.940016 274.29536 
L 355.264996 274.12288 
L 355.589975 273.38368 
L 355.914955 273.50688 
L 356.239934 274.4432 
L 356.564914 273.97504 
L 356.889894 273.97504 
L 357.214873 273.80256 
L 357.539853 273.67936 
L 357.864832 273.9504 
L 358.189812 273.4576 
L 358.514791 273.3344 
L 358.839771 274.24608 
L 359.16475 274.66496 
L 359.48973 274.02432 
L 359.814709 274.36928 
L 360.139689 273.50688 
L 360.464668 273.63008 
L 360.789648 274.61568 
L 361.114627 273.4576 
L 361.439607 273.85184 
L 361.764586 275.35488 
L 362.089566 273.87648 
L 362.414545 273.35904 
L 362.739525 273.8272 
L 363.064505 274.1968 
L 363.389484 274.4432 
L 363.714464 273.55616 
L 364.039443 274.04896 
L 364.364423 274.59104 
L 364.689402 274.04896 
L 365.014382 274.83744 
L 365.339361 273.2112 
L 365.664341 273.60544 
L 365.98932 274.41856 
L 366.3143 274.49248 
L 366.639279 273.65472 
L 366.964259 274.14752 
L 367.289238 274.24608 
L 367.614218 273.97504 
L 367.939197 273.80256 
L 368.264177 274.04896 
L 368.589156 275.40416 
L 368.914136 274.86208 
L 369.239115 274.0736 
L 369.564095 274.1968 
L 369.889075 273.77792 
L 370.214054 274.36928 
L 370.539034 274.29536 
L 370.864013 273.8272 
L 371.188993 274.76352 
L 371.513972 274.5664 
L 371.838952 274.46784 
L 372.163931 274.09824 
L 372.488911 274.27072 
L 372.81389 273.16192 
L 373.13887 273.9504 
L 373.463849 273.92576 
L 373.788829 274.1968 
L 374.113808 274.6896 
L 374.438788 273.87648 
L 374.763767 273.06336 
L 375.088747 273.088 
L 375.413726 273.53152 
L 375.738706 274.27072 
L 376.063686 274.34464 
L 376.388665 274.71424 
L 376.713645 274.71424 
L 377.038624 273.77792 
L 377.363604 273.75328 
L 377.688583 274.02432 
L 378.013563 273.99968 
L 378.338542 274.76352 
L 378.663522 274.27072 
L 378.988501 274.83744 
L 379.313481 274.86208 
L 379.63846 273.9504 
L 379.96344 273.60544 
L 380.288419 273.85184 
L 380.613399 273.5808 
L 380.938378 274.12288 
L 381.263358 273.704 
L 381.588337 274.32 
L 381.913317 273.75328 
L 382.238296 274.51712 
L 382.563276 273.99968 
L 382.888256 275.00992 
L 383.213235 273.63008 
L 383.538215 273.67936 
L 383.863194 274.02432 
L 384.188174 273.4576 
L 384.513153 273.87648 
L 384.838133 273.18656 
L 385.163112 274.27072 
L 385.488092 274.22144 
L 385.813071 274.4432 
L 386.138051 274.04896 
L 386.46303 273.85184 
L 386.78801 273.50688 
L 387.112989 273.97504 
L 387.437969 273.4576 
L 387.762948 273.30976 
L 388.087928 273.088 
L 388.412907 273.97504 
L 388.737887 274.36928 
L 389.062867 274.09824 
L 389.387846 274.96064 
L 389.712826 273.53152 
L 390.037805 273.28512 
L 390.362785 274.12288 
L 390.687764 274.04896 
L 391.012744 274.36928 
L 391.337723 273.9504 
L 391.662703 274.0736 
L 391.987682 274.0736 
L 392.312662 273.35904 
L 392.637641 274.32 
L 392.962621 273.48224 
L 393.2876 273.2112 
L 393.61258 273.85184 
L 393.937559 273.77792 
L 394.262539 274.24608 
L 394.587518 273.5808 
L 394.912498 273.8272 
L 395.237477 274.24608 
L 395.562457 273.60544 
L 395.887437 273.77792 
L 396.212416 274.73888 
L 396.537396 273.43296 
L 396.862375 274.46784 
L 397.187355 273.85184 
L 397.512334 273.92576 
L 397.837314 273.03872 
L 398.162293 273.3344 
L 398.487273 273.80256 
L 398.487273 272.91552 
L 398.487273 272.91552 
L 398.162293 271.28928 
L 397.837314 271.6096 
L 397.512334 272.61984 
L 397.187355 272.76768 
L 396.862375 272.12704 
L 396.537396 271.83136 
L 396.212416 272.74304 
L 395.887437 271.83136 
L 395.562457 272.2256 
L 395.237477 272.472 
L 394.912498 272.29952 
L 394.587518 273.26048 
L 394.262539 272.66912 
L 393.937559 272.66912 
L 393.61258 272.79232 
L 393.2876 271.04288 
L 392.962621 271.75744 
L 392.637641 272.98944 
L 392.312662 271.7328 
L 391.987682 272.7184 
L 391.662703 272.25024 
L 391.337723 272.52128 
L 391.012744 272.472 
L 390.687764 272.32416 
L 390.362785 272.42272 
L 390.037805 272.2256 
L 389.712826 271.90528 
L 389.387846 272.37344 
L 389.062867 272.1024 
L 388.737887 272.81696 
L 388.412907 272.1024 
L 388.087928 271.856 
L 387.762948 271.7328 
L 387.437969 271.58496 
L 387.112989 271.856 
L 386.78801 271.38784 
L 386.46303 271.83136 
L 386.138051 272.15168 
L 385.813071 272.79232 
L 385.488092 272.98944 
L 385.163112 272.39808 
L 384.838133 272.57056 
L 384.513153 272.1024 
L 384.188174 272.07776 
L 383.863194 272.49664 
L 383.538215 272.3488 
L 383.213235 272.44736 
L 382.888256 271.58496 
L 382.563276 271.26464 
L 382.238296 272.81696 
L 381.913317 272.27488 
L 381.588337 272.61984 
L 381.263358 272.15168 
L 380.938378 270.72256 
L 380.613399 272.07776 
L 380.288419 272.74304 
L 379.96344 272.2256 
L 379.63846 272.52128 
L 379.313481 273.16192 
L 378.988501 271.58496 
L 378.663522 272.15168 
L 378.338542 272.8416 
L 378.013563 271.51104 
L 377.688583 272.57056 
L 377.363604 272.20096 
L 377.038624 273.01408 
L 376.713645 272.98944 
L 376.388665 272.20096 
L 376.063686 271.75744 
L 375.738706 272.61984 
L 375.413726 272.29952 
L 375.088747 272.2256 
L 374.763767 272.15168 
L 374.438788 273.088 
L 374.113808 272.27488 
L 373.788829 271.33856 
L 373.463849 271.53568 
L 373.13887 271.88064 
L 372.81389 272.42272 
L 372.488911 272.81696 
L 372.163931 270.9936 
L 371.838952 271.7328 
L 371.513972 271.65888 
L 371.188993 272.1024 
L 370.864013 273.2112 
L 370.539034 272.12704 
L 370.214054 272.79232 
L 369.889075 271.95456 
L 369.564095 272.61984 
L 369.239115 271.6096 
L 368.914136 273.01408 
L 368.589156 272.07776 
L 368.264177 272.81696 
L 367.939197 272.7184 
L 367.614218 272.69376 
L 367.289238 270.9936 
L 366.964259 272.1024 
L 366.639279 271.31392 
L 366.3143 272.57056 
L 365.98932 271.9792 
L 365.664341 271.90528 
L 365.339361 271.56032 
L 365.014382 271.92992 
L 364.689402 271.75744 
L 364.364423 273.4576 
L 364.039443 272.52128 
L 363.714464 272.69376 
L 363.389484 272.42272 
L 363.064505 272.00384 
L 362.739525 271.856 
L 362.414545 271.31392 
L 362.089566 272.29952 
L 361.764586 273.2112 
L 361.439607 272.74304 
L 361.114627 271.70816 
L 360.789648 273.60544 
L 360.464668 270.91968 
L 360.139689 271.7328 
L 359.814709 272.12704 
L 359.48973 271.95456 
L 359.16475 272.76768 
L 358.839771 272.3488 
L 358.514791 272.32416 
L 358.189812 271.95456 
L 357.864832 272.25024 
L 357.539853 272.49664 
L 357.214873 271.38784 
L 356.889894 271.90528 
L 356.564914 272.37344 
L 356.239934 271.92992 
L 355.914955 272.2256 
L 355.589975 272.42272 
L 355.264996 271.88064 
L 354.940016 271.28928 
L 354.615037 270.89504 
L 354.290057 272.29952 
L 353.965078 273.28512 
L 353.640098 272.61984 
L 353.315119 272.44736 
L 352.990139 273.35904 
L 352.66516 271.88064 
L 352.34018 271.31392 
L 352.015201 271.58496 
L 351.690221 273.01408 
L 351.365242 272.17632 
L 351.040262 272.49664 
L 350.715283 271.6096 
L 350.390303 271.75744 
L 350.065324 272.25024 
L 349.740344 272.2256 
L 349.415364 272.29952 
L 349.090385 272.12704 
L 348.765405 272.39808 
L 348.440426 272.86624 
L 348.115446 271.46176 
L 347.790467 271.56032 
L 347.465487 272.74304 
L 347.140508 272.64448 
L 346.815528 272.15168 
L 346.490549 272.98944 
L 346.165569 272.20096 
L 345.84059 273.18656 
L 345.51561 272.86624 
L 345.190631 271.51104 
L 344.865651 271.4864 
L 344.540672 271.6096 
L 344.215692 271.92992 
L 343.890713 272.37344 
L 343.565733 272.37344 
L 343.240753 272.00384 
L 342.915774 272.25024 
L 342.590794 272.32416 
L 342.265815 271.19072 
L 341.940835 272.02848 
L 341.615856 272.54592 
L 341.290876 272.5952 
L 340.965897 272.86624 
L 340.640917 272.05312 
L 340.315938 272.74304 
L 339.990958 272.61984 
L 339.665979 272.81696 
L 339.340999 272.07776 
L 339.01602 270.9936 
L 338.69104 273.38368 
L 338.366061 272.69376 
L 338.041081 271.6096 
L 337.716102 272.29952 
L 337.391122 272.05312 
L 337.066143 271.51104 
L 336.741163 271.90528 
L 336.416183 272.81696 
L 336.091204 272.86624 
L 335.766224 272.61984 
L 335.441245 272.44736 
L 335.116265 273.11264 
L 334.791286 271.6096 
L 334.466306 272.61984 
L 334.141327 272.76768 
L 333.816347 272.74304 
L 333.491368 272.64448 
L 333.166388 271.90528 
L 332.841409 271.53568 
L 332.516429 272.54592 
L 332.19145 273.40832 
L 331.86647 272.86624 
L 331.541491 271.6096 
L 331.216511 273.67936 
L 330.891532 272.27488 
L 330.566552 272.00384 
L 330.241572 271.95456 
L 329.916593 272.7184 
L 329.591613 272.20096 
L 329.266634 273.704 
L 328.941654 272.00384 
L 328.616675 271.68352 
L 328.291695 272.2256 
L 327.966716 270.79648 
L 327.641736 271.75744 
L 327.316757 273.23584 
L 326.991777 271.3632 
L 326.666798 272.00384 
L 326.341818 272.81696 
L 326.016839 271.51104 
L 325.691859 272.66912 
L 325.36688 272.42272 
L 325.0419 271.14144 
L 324.716921 272.1024 
L 324.391941 272.66912 
L 324.066962 272.44736 
L 323.741982 271.70816 
L 323.417002 272.8416 
L 323.092023 272.8416 
L 322.767043 272.29952 
L 322.442064 272.9648 
L 322.117084 272.74304 
L 321.792105 272.32416 
L 321.467125 272.98944 
L 321.142146 271.9792 
L 320.817166 271.43712 
L 320.492187 273.03872 
L 320.167207 272.17632 
L 319.842228 273.38368 
L 319.517248 271.4864 
L 319.192269 273.03872 
L 318.867289 271.9792 
L 318.54231 271.70816 
L 318.21733 272.20096 
L 317.892351 272.44736 
L 317.567371 271.7328 
L 317.242391 271.6096 
L 316.917412 271.3632 
L 316.592432 272.2256 
L 316.267453 271.95456 
L 315.942473 271.53568 
L 315.617494 273.60544 
L 315.292514 272.64448 
L 314.967535 272.29952 
L 314.642555 272.1024 
L 314.317576 271.88064 
L 313.992596 271.95456 
L 313.667617 272.52128 
L 313.342637 272.02848 
L 313.017658 272.49664 
L 312.692678 272.15168 
L 312.367699 271.65888 
L 312.042719 271.53568 
L 311.71774 272.69376 
L 311.39276 272.64448 
L 311.067781 271.75744 
L 310.742801 272.12704 
L 310.417821 272.52128 
L 310.092842 272.1024 
L 309.767862 272.15168 
L 309.442883 271.88064 
L 309.117903 272.25024 
L 308.792924 271.78208 
L 308.467944 271.41248 
L 308.142965 272.66912 
L 307.817985 272.1024 
L 307.493006 273.28512 
L 307.168026 272.81696 
L 306.843047 273.40832 
L 306.518067 273.60544 
L 306.193088 272.49664 
L 305.868108 271.88064 
L 305.543129 271.3632 
L 305.218149 271.14144 
L 304.89317 272.69376 
L 304.56819 273.50688 
L 304.24321 272.25024 
L 303.918231 272.37344 
L 303.593251 272.76768 
L 303.268272 271.33856 
L 302.943292 273.01408 
L 302.618313 272.42272 
L 302.293333 272.37344 
L 301.968354 270.9936 
L 301.643374 271.28928 
L 301.318395 272.49664 
L 300.993415 271.51104 
L 300.668436 272.91552 
L 300.343456 272.39808 
L 300.018477 271.83136 
L 299.693497 272.07776 
L 299.368518 272.05312 
L 299.043538 272.39808 
L 298.718559 271.95456 
L 298.393579 271.80672 
L 298.0686 272.3488 
L 297.74362 272.00384 
L 297.41864 272.05312 
L 297.093661 272.42272 
L 296.768681 271.63424 
L 296.443702 272.15168 
L 296.118722 272.00384 
L 295.793743 272.42272 
L 295.468763 271.04288 
L 295.143784 272.54592 
L 294.818804 272.52128 
L 294.493825 271.95456 
L 294.168845 272.3488 
L 293.843866 273.30976 
L 293.518886 272.20096 
L 293.193907 273.4576 
L 292.868927 272.64448 
L 292.543948 272.05312 
L 292.218968 272.42272 
L 291.893989 273.38368 
L 291.569009 271.28928 
L 291.244029 271.31392 
L 290.91905 272.49664 
L 290.59407 271.14144 
L 290.269091 271.51104 
L 289.944111 272.81696 
L 289.619132 271.46176 
L 289.294152 272.472 
L 288.969173 272.89088 
L 288.644193 272.32416 
L 288.319214 272.12704 
L 287.994234 271.51104 
L 287.669255 273.55616 
L 287.344275 273.35904 
L 287.019296 272.05312 
L 286.694316 271.09216 
L 286.369337 272.17632 
L 286.044357 272.42272 
L 285.719378 272.42272 
L 285.394398 272.1024 
L 285.069419 271.41248 
L 284.744439 271.83136 
L 284.419459 272.79232 
L 284.09448 272.27488 
L 283.7695 271.38784 
L 283.444521 272.61984 
L 283.119541 273.088 
L 282.794562 272.20096 
L 282.469582 273.5808 
L 282.144603 272.25024 
L 281.819623 272.32416 
L 281.494644 272.00384 
L 281.169664 272.64448 
L 280.844685 272.32416 
L 280.519705 272.52128 
L 280.194726 272.1024 
L 279.869746 273.11264 
L 279.544767 273.18656 
L 279.219787 271.41248 
L 278.894808 272.74304 
L 278.569828 271.70816 
L 278.244848 272.64448 
L 277.919869 272.05312 
L 277.594889 271.01824 
L 277.26991 272.74304 
L 276.94493 272.37344 
L 276.619951 272.64448 
L 276.294971 273.3344 
L 275.969992 271.9792 
L 275.645012 272.91552 
L 275.320033 272.00384 
L 274.995053 272.89088 
L 274.670074 272.61984 
L 274.345094 272.9648 
L 274.020115 272.29952 
L 273.695135 272.12704 
L 273.370156 272.2256 
L 273.045176 271.53568 
L 272.720197 272.7184 
L 272.395217 272.3488 
L 272.070238 271.83136 
L 271.745258 272.94016 
L 271.420278 272.66912 
L 271.095299 272.02848 
L 270.770319 272.20096 
L 270.44534 273.088 
L 270.12036 273.23584 
L 269.795381 271.75744 
L 269.470401 272.37344 
L 269.145422 272.91552 
L 268.820442 272.64448 
L 268.495463 272.29952 
L 268.170483 272.52128 
L 267.845504 272.52128 
L 267.520524 273.01408 
L 267.195545 271.38784 
L 266.870565 272.64448 
L 266.545586 272.81696 
L 266.220606 271.88064 
L 265.895627 273.01408 
L 265.570647 272.07776 
L 265.245667 272.5952 
L 264.920688 272.5952 
L 264.595708 271.53568 
L 264.270729 272.7184 
L 263.945749 272.57056 
L 263.62077 273.3344 
L 263.29579 272.39808 
L 262.970811 271.70816 
L 262.645831 272.17632 
L 262.320852 273.03872 
L 261.995872 271.88064 
L 261.670893 272.20096 
L 261.345913 272.32416 
L 261.020934 272.39808 
L 260.695954 272.52128 
L 260.370975 273.13728 
L 260.045995 272.12704 
L 259.721016 273.50688 
L 259.396036 271.6096 
L 259.071057 273.3344 
L 258.746077 272.74304 
L 258.421097 272.5952 
L 258.096118 272.52128 
L 257.771138 272.32416 
L 257.446159 271.92992 
L 257.121179 272.2256 
L 256.7962 271.3632 
L 256.47122 273.65472 
L 256.146241 271.90528 
L 255.821261 272.79232 
L 255.496282 272.61984 
L 255.171302 271.70816 
L 254.846323 272.42272 
L 254.521343 272.57056 
L 254.196364 273.01408 
L 253.871384 272.64448 
L 253.546405 271.4864 
L 253.221425 272.20096 
L 252.896446 272.29952 
L 252.571466 272.52128 
L 252.246486 272.49664 
L 251.921507 273.23584 
L 251.596527 272.2256 
L 251.271548 271.6096 
L 250.946568 272.39808 
L 250.621589 272.69376 
L 250.296609 272.69376 
L 249.97163 271.43712 
L 249.64665 273.2112 
L 249.321671 271.9792 
L 248.996691 272.44736 
L 248.671712 273.13728 
L 248.346732 272.69376 
L 248.021753 272.3488 
L 247.696773 273.35904 
L 247.371794 271.90528 
L 247.046814 272.17632 
L 246.721835 272.25024 
L 246.396855 271.56032 
L 246.071876 271.78208 
L 245.746896 273.01408 
L 245.421916 271.7328 
L 245.096937 272.20096 
L 244.771957 272.15168 
L 244.446978 272.49664 
L 244.121998 271.53568 
L 243.797019 272.79232 
L 243.472039 273.01408 
L 243.14706 272.91552 
L 242.82208 272.94016 
L 242.497101 272.02848 
L 242.172121 271.7328 
L 241.847142 273.77792 
L 241.522162 271.92992 
L 241.197183 272.3488 
L 240.872203 271.88064 
L 240.547224 271.95456 
L 240.222244 271.92992 
L 239.897265 271.65888 
L 239.572285 273.03872 
L 239.247305 273.03872 
L 238.922326 272.05312 
L 238.597346 272.37344 
L 238.272367 273.01408 
L 237.947387 271.92992 
L 237.622408 272.66912 
L 237.297428 272.37344 
L 236.972449 271.856 
L 236.647469 272.89088 
L 236.32249 271.1168 
L 235.99751 271.68352 
L 235.672531 272.94016 
L 235.347551 273.11264 
L 235.022572 272.472 
L 234.697592 273.30976 
L 234.372613 272.5952 
L 234.047633 272.98944 
L 233.722654 271.58496 
L 233.397674 272.37344 
L 233.072695 272.29952 
L 232.747715 271.83136 
L 232.422735 272.7184 
L 232.097756 272.76768 
L 231.772776 272.9648 
L 231.447797 271.46176 
L 231.122817 272.07776 
L 230.797838 271.9792 
L 230.472858 273.80256 
L 230.147879 272.39808 
L 229.822899 271.856 
L 229.49792 271.16608 
L 229.17294 273.03872 
L 228.847961 272.98944 
L 228.522981 272.2256 
L 228.198002 273.03872 
L 227.873022 273.01408 
L 227.548043 272.52128 
L 227.223063 272.12704 
L 226.898084 272.52128 
L 226.573104 271.33856 
L 226.248124 272.54592 
L 225.923145 272.49664 
L 225.598165 272.00384 
L 225.273186 273.13728 
L 224.948206 271.31392 
L 224.623227 272.12704 
L 224.298247 273.28512 
L 223.973268 273.48224 
L 223.648288 271.26464 
L 223.323309 273.088 
L 222.998329 272.7184 
L 222.67335 272.57056 
L 222.34837 273.43296 
L 222.023391 272.29952 
L 221.698411 271.92992 
L 221.373432 271.56032 
L 221.048452 272.20096 
L 220.723473 272.12704 
L 220.398493 270.77184 
L 220.073514 273.63008 
L 219.748534 272.91552 
L 219.423554 272.29952 
L 219.098575 272.29952 
L 218.773595 272.05312 
L 218.448616 271.63424 
L 218.123636 272.05312 
L 217.798657 272.32416 
L 217.473677 272.12704 
L 217.148698 272.12704 
L 216.823718 272.12704 
L 216.498739 273.63008 
L 216.173759 271.24 
L 215.84878 272.20096 
L 215.5238 273.06336 
L 215.198821 272.02848 
L 214.873841 272.3488 
L 214.548862 271.56032 
L 214.223882 272.74304 
L 213.898903 272.29952 
L 213.573923 272.00384 
L 213.248943 272.49664 
L 212.923964 272.29952 
L 212.598984 271.75744 
L 212.274005 272.17632 
L 211.949025 272.12704 
L 211.624046 272.12704 
L 211.299066 271.9792 
L 210.974087 272.5952 
L 210.649107 272.57056 
L 210.324128 272.15168 
L 209.999148 272.12704 
L 209.674169 271.80672 
L 209.349189 272.86624 
L 209.02421 272.07776 
L 208.69923 272.1024 
L 208.374251 272.42272 
L 208.049271 272.81696 
L 207.724292 272.44736 
L 207.399312 272.79232 
L 207.074333 272.94016 
L 206.749353 272.61984 
L 206.424373 273.088 
L 206.099394 272.64448 
L 205.774414 271.83136 
L 205.449435 271.53568 
L 205.124455 273.16192 
L 204.799476 271.92992 
L 204.474496 272.37344 
L 204.149517 273.01408 
L 203.824537 273.01408 
L 203.499558 273.60544 
L 203.174578 272.64448 
L 202.849599 272.9648 
L 202.524619 272.7184 
L 202.19964 273.23584 
L 201.87466 272.64448 
L 201.549681 271.90528 
L 201.224701 273.11264 
L 200.899722 273.28512 
L 200.574742 272.7184 
L 200.249762 273.01408 
L 199.924783 271.9792 
L 199.599803 272.74304 
L 199.274824 272.02848 
L 198.949844 272.57056 
L 198.624865 272.12704 
L 198.299885 272.37344 
L 197.974906 272.49664 
L 197.649926 272.5952 
L 197.324947 271.33856 
L 196.999967 273.48224 
L 196.674988 272.2256 
L 196.350008 273.30976 
L 196.025029 273.18656 
L 195.700049 271.9792 
L 195.37507 272.52128 
L 195.05009 272.61984 
L 194.725111 273.40832 
L 194.400131 273.38368 
L 194.075152 272.44736 
L 193.750172 272.91552 
L 193.425192 272.07776 
L 193.100213 273.03872 
L 192.775233 272.12704 
L 192.450254 272.472 
L 192.125274 271.38784 
L 191.800295 272.81696 
L 191.475315 274.24608 
L 191.150336 272.66912 
L 190.825356 273.26048 
L 190.500377 271.75744 
L 190.175397 272.9648 
L 189.850418 273.53152 
L 189.525438 273.35904 
L 189.200459 272.64448 
L 188.875479 272.74304 
L 188.5505 273.38368 
L 188.22552 273.2112 
L 187.900541 272.7184 
L 187.575561 272.00384 
L 187.250581 273.60544 
L 186.925602 272.02848 
L 186.600622 271.65888 
L 186.275643 273.2112 
L 185.950663 272.37344 
L 185.625684 272.44736 
L 185.300704 272.44736 
L 184.975725 272.61984 
L 184.650745 272.1024 
L 184.325766 272.1024 
L 184.000786 272.81696 
L 183.675807 272.64448 
L 183.350827 272.57056 
L 183.025848 272.81696 
L 182.700868 272.20096 
L 182.375889 272.91552 
L 182.050909 272.91552 
L 181.72593 272.12704 
L 181.40095 270.91968 
L 181.075971 272.81696 
L 180.750991 273.3344 
L 180.426011 272.49664 
L 180.101032 272.74304 
L 179.776052 272.52128 
L 179.451073 272.37344 
L 179.126093 273.30976 
L 178.801114 273.30976 
L 178.476134 272.49664 
L 178.151155 273.26048 
L 177.826175 271.65888 
L 177.501196 272.98944 
L 177.176216 272.07776 
L 176.851237 272.79232 
L 176.526257 272.89088 
L 176.201278 272.89088 
L 175.876298 272.89088 
L 175.551319 273.28512 
L 175.226339 272.17632 
L 174.90136 273.2112 
L 174.57638 272.81696 
L 174.2514 272.57056 
L 173.926421 272.7184 
L 173.601441 273.11264 
L 173.276462 272.32416 
L 172.951482 272.94016 
L 172.626503 271.58496 
L 172.301523 272.74304 
L 171.976544 272.12704 
L 171.651564 272.02848 
L 171.326585 272.69376 
L 171.001605 272.8416 
L 170.676626 272.05312 
L 170.351646 273.088 
L 170.026667 272.39808 
L 169.701687 272.5952 
L 169.376708 272.7184 
L 169.051728 273.11264 
L 168.726749 273.18656 
L 168.401769 272.52128 
L 168.07679 271.65888 
L 167.75181 272.54592 
L 167.42683 272.44736 
L 167.101851 271.9792 
L 166.776871 272.49664 
L 166.451892 272.2256 
L 166.126912 272.2256 
L 165.801933 271.63424 
L 165.476953 272.05312 
L 165.151974 273.26048 
L 164.826994 273.16192 
L 164.502015 270.89504 
L 164.177035 272.15168 
L 163.852056 273.03872 
L 163.527076 272.64448 
L 163.202097 272.86624 
L 162.877117 272.98944 
L 162.552138 273.11264 
L 162.227158 272.9648 
L 161.902179 274.0736 
L 161.577199 273.01408 
L 161.252219 272.17632 
L 160.92724 272.29952 
L 160.60226 272.79232 
L 160.277281 273.03872 
L 159.952301 272.64448 
L 159.627322 272.52128 
L 159.302342 272.52128 
L 158.977363 271.75744 
L 158.652383 273.2112 
L 158.327404 271.78208 
L 158.002424 271.83136 
L 157.677445 271.31392 
L 157.352465 273.85184 
L 157.027486 272.2256 
L 156.702506 272.94016 
L 156.377527 272.3488 
L 156.052547 271.33856 
L 155.727568 272.91552 
L 155.402588 272.81696 
L 155.077609 272.17632 
L 154.752629 272.5952 
L 154.427649 272.86624 
L 154.10267 272.39808 
L 153.77769 271.63424 
L 153.452711 272.81696 
L 153.127731 272.98944 
L 152.802752 272.66912 
L 152.477772 272.74304 
L 152.152793 271.90528 
L 151.827813 272.25024 
L 151.502834 272.7184 
L 151.177854 272.61984 
L 150.852875 271.56032 
L 150.527895 273.30976 
L 150.202916 272.7184 
L 149.877936 273.13728 
L 149.552957 273.50688 
L 149.227977 272.74304 
L 148.902998 272.3488 
L 148.578018 272.69376 
L 148.253038 272.32416 
L 147.928059 272.8416 
L 147.603079 272.472 
L 147.2781 272.49664 
L 146.95312 272.9648 
L 146.628141 273.23584 
L 146.303161 273.704 
L 145.978182 272.74304 
L 145.653202 272.57056 
L 145.328223 273.13728 
L 145.003243 273.40832 
L 144.678264 272.07776 
L 144.353284 271.58496 
L 144.028305 272.52128 
L 143.703325 272.20096 
L 143.378346 272.07776 
L 143.053366 272.29952 
L 142.728387 272.7184 
L 142.403407 272.29952 
L 142.078428 272.79232 
L 141.753448 272.44736 
L 141.428468 272.3488 
L 141.103489 272.49664 
L 140.778509 272.5952 
L 140.45353 271.856 
L 140.12855 273.18656 
L 139.803571 272.5952 
L 139.478591 273.3344 
L 139.153612 271.92992 
L 138.828632 271.75744 
L 138.503653 272.7184 
L 138.178673 272.5952 
L 137.853694 273.55616 
L 137.528714 272.61984 
L 137.203735 272.54592 
L 136.878755 272.81696 
L 136.553776 272.74304 
L 136.228796 272.32416 
L 135.903817 273.13728 
L 135.578837 272.7184 
L 135.253857 272.17632 
L 134.928878 273.97504 
L 134.603898 273.06336 
L 134.278919 271.90528 
L 133.953939 273.63008 
L 133.62896 272.89088 
L 133.30398 272.91552 
L 132.979001 273.06336 
L 132.654021 272.76768 
L 132.329042 273.13728 
L 132.004062 272.05312 
L 131.679083 272.89088 
L 131.354103 273.30976 
L 131.029124 272.91552 
L 130.704144 273.43296 
L 130.379165 272.57056 
L 130.054185 272.89088 
L 129.729206 274.0736 
L 129.404226 272.15168 
L 129.079247 272.17632 
L 128.754267 272.76768 
L 128.429287 272.57056 
L 128.104308 272.3488 
L 127.779328 273.30976 
L 127.454349 272.3488 
L 127.129369 272.76768 
L 126.80439 273.26048 
L 126.47941 273.11264 
L 126.154431 271.43712 
L 125.829451 272.07776 
L 125.504472 273.16192 
L 125.179492 273.53152 
L 124.854513 273.11264 
L 124.529533 273.2112 
L 124.204554 273.13728 
L 123.879574 273.2112 
L 123.554595 271.856 
L 123.229615 272.52128 
L 122.904636 272.54592 
L 122.579656 272.94016 
L 122.254676 272.472 
L 121.929697 273.16192 
L 121.604717 273.2112 
L 121.279738 273.01408 
L 120.954758 273.03872 
L 120.629779 273.60544 
L 120.304799 272.69376 
L 119.97982 273.38368 
L 119.65484 272.5952 
L 119.329861 272.29952 
L 119.004881 272.81696 
L 118.679902 273.088 
L 118.354922 272.472 
L 118.029943 273.77792 
L 117.704963 272.5952 
L 117.379984 273.35904 
L 117.055004 273.06336 
L 116.730025 272.07776 
L 116.405045 271.88064 
L 116.080066 273.4576 
L 115.755086 273.03872 
L 115.430106 272.20096 
L 115.105127 273.90112 
L 114.780147 271.75744 
L 114.455168 272.5952 
L 114.130188 272.37344 
L 113.805209 273.11264 
L 113.480229 273.18656 
L 113.15525 272.39808 
L 112.83027 272.3488 
L 112.505291 272.64448 
L 112.180311 272.91552 
L 111.855332 272.91552 
L 111.530352 272.20096 
L 111.205373 273.43296 
L 110.880393 273.67936 
L 110.555414 273.11264 
L 110.230434 272.54592 
L 109.905455 272.05312 
L 109.580475 272.76768 
L 109.255495 272.91552 
L 108.930516 271.7328 
L 108.605536 272.5952 
L 108.280557 273.30976 
L 107.955577 272.86624 
L 107.630598 272.472 
L 107.305618 272.9648 
L 106.980639 273.3344 
L 106.655659 273.38368 
L 106.33068 272.17632 
L 106.0057 273.088 
L 105.680721 272.27488 
L 105.355741 273.28512 
L 105.030762 273.03872 
L 104.705782 273.03872 
L 104.380803 272.98944 
L 104.055823 273.90112 
L 103.730844 271.9792 
L 103.405864 272.74304 
L 103.080885 272.81696 
L 102.755905 272.3488 
L 102.430925 273.088 
L 102.105946 272.49664 
L 101.780966 273.5808 
L 101.455987 272.2256 
L 101.131007 272.57056 
L 100.806028 272.29952 
L 100.481048 272.37344 
L 100.156069 272.86624 
L 99.831089 272.05312 
L 99.50611 272.89088 
L 99.18113 273.088 
L 98.856151 272.32416 
L 98.531171 272.42272 
L 98.206192 272.52128 
L 97.881212 271.90528 
L 97.556233 272.79232 
L 97.231253 272.8416 
L 96.906274 273.50688 
L 96.581294 273.03872 
L 96.256314 272.74304 
L 95.931335 272.8416 
L 95.606355 273.23584 
L 95.281376 273.23584 
L 94.956396 272.8416 
L 94.631417 272.15168 
L 94.306437 273.2112 
L 93.981458 272.98944 
L 93.656478 273.26048 
L 93.331499 272.39808 
L 93.006519 273.28512 
L 92.68154 272.81696 
L 92.35656 272.81696 
L 92.031581 272.05312 
L 91.706601 272.61984 
L 91.381622 271.95456 
L 91.056642 272.02848 
L 90.731663 270.64864 
L 90.406683 273.28512 
L 90.081704 273.16192 
L 89.756724 273.704 
L 89.431744 273.30976 
L 89.106765 273.18656 
L 88.781785 272.3488 
L 88.456806 272.49664 
L 88.131826 273.088 
L 87.806847 272.8416 
L 87.481867 273.4576 
L 87.156888 272.9648 
L 86.831908 273.704 
L 86.506929 273.26048 
L 86.181949 273.01408 
L 85.85697 272.91552 
L 85.53199 273.23584 
L 85.207011 272.7184 
L 84.882031 273.01408 
L 84.557052 273.11264 
L 84.232072 273.87648 
L 83.907093 273.088 
L 83.582113 273.85184 
L 83.257133 272.61984 
L 82.932154 273.23584 
L 82.607174 272.42272 
L 82.282195 274.39392 
L 81.957215 273.23584 
L 81.632236 273.5808 
L 81.307256 272.91552 
L 80.982277 273.65472 
L 80.657297 272.39808 
L 80.332318 273.53152 
L 80.007338 273.77792 
L 79.682359 273.63008 
L 79.357379 273.38368 
L 79.0324 273.38368 
L 78.70742 273.43296 
L 78.382441 274.0736 
L 78.057461 274.34464 
L 77.732482 275.10848 
L 77.407502 275.13312 
L 77.082523 274.32 
L 76.757543 275.37952 
L 76.432563 274.78816 
L 76.107584 275.82304 
L 75.782604 274.04896 
L 75.457625 276.14336 
L 75.132645 277.05504 
L 74.807666 275.94624 
L 74.482686 276.85792 
L 74.157707 277.1536 
L 73.832727 278.04064 
z
" style="fill:#1f77b4;fill-opacity:0.25;"/>
   </g>
   <g id="matplotlib.axis_1">
    <g id="xtick_1">
     <g id="line2d_1">
      <defs>
       <path d="M 0 0 
L 0 3.5 
" id="m3a1dcdc417" style="stroke:#000000;stroke-width:0.8;"/>
      </defs>
      <g>
       <use style="stroke:#000000;stroke-width:0.8;" x="73.507748" xlink:href="#m3a1dcdc417" y="307.584"/>
      </g>
     </g>
     <g id="text_1">
      <!-- 0 -->
      <g transform="translate(70.326498 322.182437)scale(0.1 -0.1)">
       <defs>
        <path d="M 2034 4250 
Q 1547 4250 1301 3770 
Q 1056 3291 1056 2328 
Q 1056 1369 1301 889 
Q 1547 409 2034 409 
Q 2525 409 2770 889 
Q 3016 1369 3016 2328 
Q 3016 3291 2770 3770 
Q 2525 4250 2034 4250 
z
M 2034 4750 
Q 2819 4750 3233 4129 
Q 3647 3509 3647 2328 
Q 3647 1150 3233 529 
Q 2819 -91 2034 -91 
Q 1250 -91 836 529 
Q 422 1150 422 2328 
Q 422 3509 836 4129 
Q 1250 4750 2034 4750 
z
" id="DejaVuSans-30" transform="scale(0.015625)"/>
       </defs>
       <use xlink:href="#DejaVuSans-30"/>
      </g>
     </g>
    </g>
    <g id="xtick_2">
     <g id="line2d_2">
      <g>
       <use style="stroke:#000000;stroke-width:0.8;" x="138.503653" xlink:href="#m3a1dcdc417" y="307.584"/>
      </g>
     </g>
     <g id="text_2">
      <!-- 200 -->
      <g transform="translate(128.959903 322.182437)scale(0.1 -0.1)">
       <defs>
        <path d="M 1228 531 
L 3431 531 
L 3431 0 
L 469 0 
L 469 531 
Q 828 903 1448 1529 
Q 2069 2156 2228 2338 
Q 2531 2678 2651 2914 
Q 2772 3150 2772 3378 
Q 2772 3750 2511 3984 
Q 2250 4219 1831 4219 
Q 1534 4219 1204 4116 
Q 875 4013 500 3803 
L 500 4441 
Q 881 4594 1212 4672 
Q 1544 4750 1819 4750 
Q 2544 4750 2975 4387 
Q 3406 4025 3406 3419 
Q 3406 3131 3298 2873 
Q 3191 2616 2906 2266 
Q 2828 2175 2409 1742 
Q 1991 1309 1228 531 
z
" id="DejaVuSans-32" transform="scale(0.015625)"/>
       </defs>
       <use xlink:href="#DejaVuSans-32"/>
       <use x="63.623047" xlink:href="#DejaVuSans-30"/>
       <use x="127.246094" xlink:href="#DejaVuSans-30"/>
      </g>
     </g>
    </g>
    <g id="xtick_3">
     <g id="line2d_3">
      <g>
       <use style="stroke:#000000;stroke-width:0.8;" x="203.499558" xlink:href="#m3a1dcdc417" y="307.584"/>
      </g>
     </g>
     <g id="text_3">
      <!-- 400 -->
      <g transform="translate(193.955808 322.182437)scale(0.1 -0.1)">
       <defs>
        <path d="M 2419 4116 
L 825 1625 
L 2419 1625 
L 2419 4116 
z
M 2253 4666 
L 3047 4666 
L 3047 1625 
L 3713 1625 
L 3713 1100 
L 3047 1100 
L 3047 0 
L 2419 0 
L 2419 1100 
L 313 1100 
L 313 1709 
L 2253 4666 
z
" id="DejaVuSans-34" transform="scale(0.015625)"/>
       </defs>
       <use xlink:href="#DejaVuSans-34"/>
       <use x="63.623047" xlink:href="#DejaVuSans-30"/>
       <use x="127.246094" xlink:href="#DejaVuSans-30"/>
      </g>
     </g>
    </g>
    <g id="xtick_4">
     <g id="line2d_4">
      <g>
       <use style="stroke:#000000;stroke-width:0.8;" x="268.495463" xlink:href="#m3a1dcdc417" y="307.584"/>
      </g>
     </g>
     <g id="text_4">
      <!-- 600 -->
      <g transform="translate(258.951713 322.182437)scale(0.1 -0.1)">
       <defs>
        <path d="M 2113 2584 
Q 1688 2584 1439 2293 
Q 1191 2003 1191 1497 
Q 1191 994 1439 701 
Q 1688 409 2113 409 
Q 2538 409 2786 701 
Q 3034 994 3034 1497 
Q 3034 2003 2786 2293 
Q 2538 2584 2113 2584 
z
M 3366 4563 
L 3366 3988 
Q 3128 4100 2886 4159 
Q 2644 4219 2406 4219 
Q 1781 4219 1451 3797 
Q 1122 3375 1075 2522 
Q 1259 2794 1537 2939 
Q 1816 3084 2150 3084 
Q 2853 3084 3261 2657 
Q 3669 2231 3669 1497 
Q 3669 778 3244 343 
Q 2819 -91 2113 -91 
Q 1303 -91 875 529 
Q 447 1150 447 2328 
Q 447 3434 972 4092 
Q 1497 4750 2381 4750 
Q 2619 4750 2861 4703 
Q 3103 4656 3366 4563 
z
" id="DejaVuSans-36" transform="scale(0.015625)"/>
       </defs>
       <use xlink:href="#DejaVuSans-36"/>
       <use x="63.623047" xlink:href="#DejaVuSans-30"/>
       <use x="127.246094" xlink:href="#DejaVuSans-30"/>
      </g>
     </g>
    </g>
    <g id="xtick_5">
     <g id="line2d_5">
      <g>
       <use style="stroke:#000000;stroke-width:0.8;" x="333.491368" xlink:href="#m3a1dcdc417" y="307.584"/>
      </g>
     </g>
     <g id="text_5">
      <!-- 800 -->
      <g transform="translate(323.947618 322.182437)scale(0.1 -0.1)">
       <defs>
        <path d="M 2034 2216 
Q 1584 2216 1326 1975 
Q 1069 1734 1069 1313 
Q 1069 891 1326 650 
Q 1584 409 2034 409 
Q 2484 409 2743 651 
Q 3003 894 3003 1313 
Q 3003 1734 2745 1975 
Q 2488 2216 2034 2216 
z
M 1403 2484 
Q 997 2584 770 2862 
Q 544 3141 544 3541 
Q 544 4100 942 4425 
Q 1341 4750 2034 4750 
Q 2731 4750 3128 4425 
Q 3525 4100 3525 3541 
Q 3525 3141 3298 2862 
Q 3072 2584 2669 2484 
Q 3125 2378 3379 2068 
Q 3634 1759 3634 1313 
Q 3634 634 3220 271 
Q 2806 -91 2034 -91 
Q 1263 -91 848 271 
Q 434 634 434 1313 
Q 434 1759 690 2068 
Q 947 2378 1403 2484 
z
M 1172 3481 
Q 1172 3119 1398 2916 
Q 1625 2713 2034 2713 
Q 2441 2713 2670 2916 
Q 2900 3119 2900 3481 
Q 2900 3844 2670 4047 
Q 2441 4250 2034 4250 
Q 1625 4250 1398 4047 
Q 1172 3844 1172 3481 
z
" id="DejaVuSans-38" transform="scale(0.015625)"/>
       </defs>
       <use xlink:href="#DejaVuSans-38"/>
       <use x="63.623047" xlink:href="#DejaVuSans-30"/>
       <use x="127.246094" xlink:href="#DejaVuSans-30"/>
      </g>
     </g>
    </g>
    <g id="xtick_6">
     <g id="line2d_6">
      <g>
       <use style="stroke:#000000;stroke-width:0.8;" x="398.487273" xlink:href="#m3a1dcdc417" y="307.584"/>
      </g>
     </g>
     <g id="text_6">
      <!-- 1000 -->
      <g transform="translate(385.762273 322.182437)scale(0.1 -0.1)">
       <defs>
        <path d="M 794 531 
L 1825 531 
L 1825 4091 
L 703 3866 
L 703 4441 
L 1819 4666 
L 2450 4666 
L 2450 531 
L 3481 531 
L 3481 0 
L 794 0 
L 794 531 
z
" id="DejaVuSans-31" transform="scale(0.015625)"/>
       </defs>
       <use xlink:href="#DejaVuSans-31"/>
       <use x="63.623047" xlink:href="#DejaVuSans-30"/>
       <use x="127.246094" xlink:href="#DejaVuSans-30"/>
       <use x="190.869141" xlink:href="#DejaVuSans-30"/>
      </g>
     </g>
    </g>
    <g id="text_7">
     <!-- Timestep -->
     <g transform="translate(213.110781 335.860562)scale(0.1 -0.1)">
      <defs>
       <path d="M -19 4666 
L 3928 4666 
L 3928 4134 
L 2272 4134 
L 2272 0 
L 1638 0 
L 1638 4134 
L -19 4134 
L -19 4666 
z
" id="DejaVuSans-54" transform="scale(0.015625)"/>
       <path d="M 603 3500 
L 1178 3500 
L 1178 0 
L 603 0 
L 603 3500 
z
M 603 4863 
L 1178 4863 
L 1178 4134 
L 603 4134 
L 603 4863 
z
" id="DejaVuSans-69" transform="scale(0.015625)"/>
       <path d="M 3328 2828 
Q 3544 3216 3844 3400 
Q 4144 3584 4550 3584 
Q 5097 3584 5394 3201 
Q 5691 2819 5691 2113 
L 5691 0 
L 5113 0 
L 5113 2094 
Q 5113 2597 4934 2840 
Q 4756 3084 4391 3084 
Q 3944 3084 3684 2787 
Q 3425 2491 3425 1978 
L 3425 0 
L 2847 0 
L 2847 2094 
Q 2847 2600 2669 2842 
Q 2491 3084 2119 3084 
Q 1678 3084 1418 2786 
Q 1159 2488 1159 1978 
L 1159 0 
L 581 0 
L 581 3500 
L 1159 3500 
L 1159 2956 
Q 1356 3278 1631 3431 
Q 1906 3584 2284 3584 
Q 2666 3584 2933 3390 
Q 3200 3197 3328 2828 
z
" id="DejaVuSans-6d" transform="scale(0.015625)"/>
       <path d="M 3597 1894 
L 3597 1613 
L 953 1613 
Q 991 1019 1311 708 
Q 1631 397 2203 397 
Q 2534 397 2845 478 
Q 3156 559 3463 722 
L 3463 178 
Q 3153 47 2828 -22 
Q 2503 -91 2169 -91 
Q 1331 -91 842 396 
Q 353 884 353 1716 
Q 353 2575 817 3079 
Q 1281 3584 2069 3584 
Q 2775 3584 3186 3129 
Q 3597 2675 3597 1894 
z
M 3022 2063 
Q 3016 2534 2758 2815 
Q 2500 3097 2075 3097 
Q 1594 3097 1305 2825 
Q 1016 2553 972 2059 
L 3022 2063 
z
" id="DejaVuSans-65" transform="scale(0.015625)"/>
       <path d="M 2834 3397 
L 2834 2853 
Q 2591 2978 2328 3040 
Q 2066 3103 1784 3103 
Q 1356 3103 1142 2972 
Q 928 2841 928 2578 
Q 928 2378 1081 2264 
Q 1234 2150 1697 2047 
L 1894 2003 
Q 2506 1872 2764 1633 
Q 3022 1394 3022 966 
Q 3022 478 2636 193 
Q 2250 -91 1575 -91 
Q 1294 -91 989 -36 
Q 684 19 347 128 
L 347 722 
Q 666 556 975 473 
Q 1284 391 1588 391 
Q 1994 391 2212 530 
Q 2431 669 2431 922 
Q 2431 1156 2273 1281 
Q 2116 1406 1581 1522 
L 1381 1569 
Q 847 1681 609 1914 
Q 372 2147 372 2553 
Q 372 3047 722 3315 
Q 1072 3584 1716 3584 
Q 2034 3584 2315 3537 
Q 2597 3491 2834 3397 
z
" id="DejaVuSans-73" transform="scale(0.015625)"/>
       <path d="M 1172 4494 
L 1172 3500 
L 2356 3500 
L 2356 3053 
L 1172 3053 
L 1172 1153 
Q 1172 725 1289 603 
Q 1406 481 1766 481 
L 2356 481 
L 2356 0 
L 1766 0 
Q 1100 0 847 248 
Q 594 497 594 1153 
L 594 3053 
L 172 3053 
L 172 3500 
L 594 3500 
L 594 4494 
L 1172 4494 
z
" id="DejaVuSans-74" transform="scale(0.015625)"/>
       <path d="M 1159 525 
L 1159 -1331 
L 581 -1331 
L 581 3500 
L 1159 3500 
L 1159 2969 
Q 1341 3281 1617 3432 
Q 1894 3584 2278 3584 
Q 2916 3584 3314 3078 
Q 3713 2572 3713 1747 
Q 3713 922 3314 415 
Q 2916 -91 2278 -91 
Q 1894 -91 1617 61 
Q 1341 213 1159 525 
z
M 3116 1747 
Q 3116 2381 2855 2742 
Q 2594 3103 2138 3103 
Q 1681 3103 1420 2742 
Q 1159 2381 1159 1747 
Q 1159 1113 1420 752 
Q 1681 391 2138 391 
Q 2594 391 2855 752 
Q 3116 1113 3116 1747 
z
" id="DejaVuSans-70" transform="scale(0.015625)"/>
      </defs>
      <use xlink:href="#DejaVuSans-54"/>
      <use x="57.958984" xlink:href="#DejaVuSans-69"/>
      <use x="85.742188" xlink:href="#DejaVuSans-6d"/>
      <use x="183.154297" xlink:href="#DejaVuSans-65"/>
      <use x="244.677734" xlink:href="#DejaVuSans-73"/>
      <use x="296.777344" xlink:href="#DejaVuSans-74"/>
      <use x="335.986328" xlink:href="#DejaVuSans-65"/>
      <use x="397.509766" xlink:href="#DejaVuSans-70"/>
     </g>
    </g>
   </g>
   <g id="matplotlib.axis_2">
    <g id="ytick_1">
     <g id="line2d_7">
      <defs>
       <path d="M 0 0 
L -3.5 0 
" id="m653d9309c2" style="stroke:#000000;stroke-width:0.8;"/>
      </defs>
      <g>
       <use style="stroke:#000000;stroke-width:0.8;" x="57.6" xlink:href="#m653d9309c2" y="287.872"/>
      </g>
     </g>
     <g id="text_8">
      <!-- 0 -->
      <g transform="translate(44.2375 291.671219)scale(0.1 -0.1)">
       <use xlink:href="#DejaVuSans-30"/>
      </g>
     </g>
    </g>
    <g id="ytick_2">
     <g id="line2d_8">
      <g>
       <use style="stroke:#000000;stroke-width:0.8;" x="57.6" xlink:href="#m653d9309c2" y="238.592"/>
      </g>
     </g>
     <g id="text_9">
      <!-- 5 -->
      <g transform="translate(44.2375 242.391219)scale(0.1 -0.1)">
       <defs>
        <path d="M 691 4666 
L 3169 4666 
L 3169 4134 
L 1269 4134 
L 1269 2991 
Q 1406 3038 1543 3061 
Q 1681 3084 1819 3084 
Q 2600 3084 3056 2656 
Q 3513 2228 3513 1497 
Q 3513 744 3044 326 
Q 2575 -91 1722 -91 
Q 1428 -91 1123 -41 
Q 819 9 494 109 
L 494 744 
Q 775 591 1075 516 
Q 1375 441 1709 441 
Q 2250 441 2565 725 
Q 2881 1009 2881 1497 
Q 2881 1984 2565 2268 
Q 2250 2553 1709 2553 
Q 1456 2553 1204 2497 
Q 953 2441 691 2322 
L 691 4666 
z
" id="DejaVuSans-35" transform="scale(0.015625)"/>
       </defs>
       <use xlink:href="#DejaVuSans-35"/>
      </g>
     </g>
    </g>
    <g id="ytick_3">
     <g id="line2d_9">
      <g>
       <use style="stroke:#000000;stroke-width:0.8;" x="57.6" xlink:href="#m653d9309c2" y="189.312"/>
      </g>
     </g>
     <g id="text_10">
      <!-- 10 -->
      <g transform="translate(37.875 193.111219)scale(0.1 -0.1)">
       <use xlink:href="#DejaVuSans-31"/>
       <use x="63.623047" xlink:href="#DejaVuSans-30"/>
      </g>
     </g>
    </g>
    <g id="ytick_4">
     <g id="line2d_10">
      <g>
       <use style="stroke:#000000;stroke-width:0.8;" x="57.6" xlink:href="#m653d9309c2" y="140.032"/>
      </g>
     </g>
     <g id="text_11">
      <!-- 15 -->
      <g transform="translate(37.875 143.831219)scale(0.1 -0.1)">
       <use xlink:href="#DejaVuSans-31"/>
       <use x="63.623047" xlink:href="#DejaVuSans-35"/>
      </g>
     </g>
    </g>
    <g id="ytick_5">
     <g id="line2d_11">
      <g>
       <use style="stroke:#000000;stroke-width:0.8;" x="57.6" xlink:href="#m653d9309c2" y="90.752"/>
      </g>
     </g>
     <g id="text_12">
      <!-- 20 -->
      <g transform="translate(37.875 94.551219)scale(0.1 -0.1)">
       <use xlink:href="#DejaVuSans-32"/>
       <use x="63.623047" xlink:href="#DejaVuSans-30"/>
      </g>
     </g>
    </g>
    <g id="ytick_6">
     <g id="line2d_12">
      <g>
       <use style="stroke:#000000;stroke-width:0.8;" x="57.6" xlink:href="#m653d9309c2" y="41.472"/>
      </g>
     </g>
     <g id="text_13">
      <!-- 25 -->
      <g transform="translate(37.875 45.271219)scale(0.1 -0.1)">
       <use xlink:href="#DejaVuSans-32"/>
       <use x="63.623047" xlink:href="#DejaVuSans-35"/>
      </g>
     </g>
    </g>
    <g id="text_14">
     <!-- Reward -->
     <g transform="translate(31.795312 193.149094)rotate(-90)scale(0.1 -0.1)">
      <defs>
       <path d="M 2841 2188 
Q 3044 2119 3236 1894 
Q 3428 1669 3622 1275 
L 4263 0 
L 3584 0 
L 2988 1197 
Q 2756 1666 2539 1819 
Q 2322 1972 1947 1972 
L 1259 1972 
L 1259 0 
L 628 0 
L 628 4666 
L 2053 4666 
Q 2853 4666 3247 4331 
Q 3641 3997 3641 3322 
Q 3641 2881 3436 2590 
Q 3231 2300 2841 2188 
z
M 1259 4147 
L 1259 2491 
L 2053 2491 
Q 2509 2491 2742 2702 
Q 2975 2913 2975 3322 
Q 2975 3731 2742 3939 
Q 2509 4147 2053 4147 
L 1259 4147 
z
" id="DejaVuSans-52" transform="scale(0.015625)"/>
       <path d="M 269 3500 
L 844 3500 
L 1563 769 
L 2278 3500 
L 2956 3500 
L 3675 769 
L 4391 3500 
L 4966 3500 
L 4050 0 
L 3372 0 
L 2619 2869 
L 1863 0 
L 1184 0 
L 269 3500 
z
" id="DejaVuSans-77" transform="scale(0.015625)"/>
       <path d="M 2194 1759 
Q 1497 1759 1228 1600 
Q 959 1441 959 1056 
Q 959 750 1161 570 
Q 1363 391 1709 391 
Q 2188 391 2477 730 
Q 2766 1069 2766 1631 
L 2766 1759 
L 2194 1759 
z
M 3341 1997 
L 3341 0 
L 2766 0 
L 2766 531 
Q 2569 213 2275 61 
Q 1981 -91 1556 -91 
Q 1019 -91 701 211 
Q 384 513 384 1019 
Q 384 1609 779 1909 
Q 1175 2209 1959 2209 
L 2766 2209 
L 2766 2266 
Q 2766 2663 2505 2880 
Q 2244 3097 1772 3097 
Q 1472 3097 1187 3025 
Q 903 2953 641 2809 
L 641 3341 
Q 956 3463 1253 3523 
Q 1550 3584 1831 3584 
Q 2591 3584 2966 3190 
Q 3341 2797 3341 1997 
z
" id="DejaVuSans-61" transform="scale(0.015625)"/>
       <path d="M 2631 2963 
Q 2534 3019 2420 3045 
Q 2306 3072 2169 3072 
Q 1681 3072 1420 2755 
Q 1159 2438 1159 1844 
L 1159 0 
L 581 0 
L 581 3500 
L 1159 3500 
L 1159 2956 
Q 1341 3275 1631 3429 
Q 1922 3584 2338 3584 
Q 2397 3584 2469 3576 
Q 2541 3569 2628 3553 
L 2631 2963 
z
" id="DejaVuSans-72" transform="scale(0.015625)"/>
       <path d="M 2906 2969 
L 2906 4863 
L 3481 4863 
L 3481 0 
L 2906 0 
L 2906 525 
Q 2725 213 2448 61 
Q 2172 -91 1784 -91 
Q 1150 -91 751 415 
Q 353 922 353 1747 
Q 353 2572 751 3078 
Q 1150 3584 1784 3584 
Q 2172 3584 2448 3432 
Q 2725 3281 2906 2969 
z
M 947 1747 
Q 947 1113 1208 752 
Q 1469 391 1925 391 
Q 2381 391 2643 752 
Q 2906 1113 2906 1747 
Q 2906 2381 2643 2742 
Q 2381 3103 1925 3103 
Q 1469 3103 1208 2742 
Q 947 2381 947 1747 
z
" id="DejaVuSans-64" transform="scale(0.015625)"/>
      </defs>
      <use xlink:href="#DejaVuSans-52"/>
      <use x="64.982422" xlink:href="#DejaVuSans-65"/>
      <use x="126.505859" xlink:href="#DejaVuSans-77"/>
      <use x="208.292969" xlink:href="#DejaVuSans-61"/>
      <use x="269.572266" xlink:href="#DejaVuSans-72"/>
      <use x="308.935547" xlink:href="#DejaVuSans-64"/>
     </g>
    </g>
   </g>
   <g id="line2d_13">
    <path clip-path="url(#p996f1d689e)" d="M 73.832727 278.41024 
L 74.157707 277.57248 
L 74.482686 277.67104 
L 74.807666 276.58688 
L 75.132645 277.5232 
L 75.457625 276.19264 
L 75.782604 275.60128 
L 76.107584 276.5376 
L 76.432563 275.69984 
L 76.757543 276.43904 
L 78.057461 275.15776 
L 78.382441 274.91136 
L 78.70742 274.27072 
L 79.0324 273.97504 
L 79.357379 274.41856 
L 79.682359 274.22144 
L 80.007338 275.0592 
L 80.332318 273.87648 
L 80.657297 273.53152 
L 81.307256 274.86208 
L 81.632236 274.27072 
L 81.957215 274.12288 
L 82.282195 274.71424 
L 82.607174 274.0736 
L 82.932154 274.0736 
L 83.257133 274.32 
L 83.582113 274.41856 
L 83.907093 274.02432 
L 84.232072 274.27072 
L 84.557052 273.97504 
L 84.882031 273.92576 
L 85.207011 273.63008 
L 85.53199 273.97504 
L 85.85697 273.48224 
L 86.181949 274.36928 
L 86.506929 274.46784 
L 87.156888 273.48224 
L 87.481867 274.32 
L 87.806847 273.72864 
L 88.131826 274.51712 
L 88.781785 272.89088 
L 89.106765 273.5808 
L 89.431744 273.77792 
L 89.756724 274.51712 
L 90.081704 274.27072 
L 90.406683 273.5808 
L 90.731663 272.1024 
L 91.381622 273.72864 
L 91.706601 272.94016 
L 92.35656 273.63008 
L 92.68154 273.088 
L 93.006519 273.72864 
L 93.331499 273.23584 
L 93.656478 274.0736 
L 93.981458 273.38368 
L 94.306437 273.3344 
L 94.631417 273.43296 
L 94.956396 274.46784 
L 95.281376 273.77792 
L 95.606355 273.87648 
L 95.931335 273.23584 
L 96.906274 274.02432 
L 97.231253 273.18656 
L 97.556233 273.63008 
L 97.881212 272.64448 
L 98.206192 273.38368 
L 98.531171 273.13728 
L 98.856151 273.13728 
L 99.18113 274.12288 
L 99.50611 273.77792 
L 99.831089 272.98944 
L 100.481048 274.12288 
L 101.131007 272.98944 
L 101.455987 272.94016 
L 101.780966 274.12288 
L 102.105946 273.5808 
L 102.430925 274.0736 
L 102.755905 273.92576 
L 103.080885 274.22144 
L 103.730844 272.79232 
L 104.055823 274.41856 
L 104.380803 273.53152 
L 104.705782 273.38368 
L 105.030762 274.27072 
L 105.355741 274.46784 
L 105.680721 272.89088 
L 106.0057 274.02432 
L 106.655659 274.12288 
L 106.980639 273.63008 
L 107.630598 273.13728 
L 108.280557 274.12288 
L 108.930516 273.38368 
L 109.580475 274.02432 
L 109.905455 273.92576 
L 110.230434 272.94016 
L 110.880393 273.97504 
L 111.205373 273.87648 
L 111.530352 272.64448 
L 111.855332 273.67936 
L 112.180311 273.23584 
L 112.505291 273.38368 
L 112.83027 273.18656 
L 113.480229 274.0736 
L 114.130188 273.38368 
L 114.455168 273.38368 
L 114.780147 273.13728 
L 115.105127 274.61568 
L 115.755086 273.43296 
L 116.080066 274.12288 
L 116.730025 273.03872 
L 117.379984 274.27072 
L 117.704963 273.67936 
L 118.029943 273.92576 
L 118.354922 273.23584 
L 119.329861 273.3344 
L 119.65484 272.89088 
L 119.97982 274.02432 
L 120.304799 273.3344 
L 120.629779 273.92576 
L 120.954758 273.63008 
L 121.279738 274.5664 
L 121.604717 273.87648 
L 121.929697 273.5808 
L 122.254676 273.97504 
L 122.904636 272.94016 
L 123.229615 272.89088 
L 123.554595 272.5952 
L 123.879574 274.12288 
L 124.204554 273.67936 
L 124.529533 273.77792 
L 124.854513 274.22144 
L 125.179492 273.92576 
L 125.504472 274.71424 
L 126.154431 273.13728 
L 126.47941 273.67936 
L 126.80439 273.67936 
L 127.129369 273.28512 
L 127.454349 273.43296 
L 127.779328 273.8272 
L 128.104308 272.94016 
L 128.429287 273.18656 
L 128.754267 273.18656 
L 129.079247 273.63008 
L 129.404226 273.18656 
L 129.729206 274.76352 
L 130.054185 273.72864 
L 130.379165 273.48224 
L 130.704144 273.92576 
L 131.029124 273.5808 
L 131.354103 274.02432 
L 131.679083 273.23584 
L 132.004062 273.63008 
L 132.329042 273.43296 
L 132.654021 273.77792 
L 132.979001 273.77792 
L 133.30398 273.63008 
L 133.62896 273.77792 
L 133.953939 274.12288 
L 134.278919 273.23584 
L 134.928878 275.15776 
L 135.253857 274.41856 
L 135.578837 273.3344 
L 135.903817 273.87648 
L 136.228796 272.69376 
L 136.553776 273.67936 
L 136.878755 273.5808 
L 137.528714 272.89088 
L 137.853694 274.12288 
L 138.178673 273.03872 
L 138.503653 273.92576 
L 138.828632 273.3344 
L 139.478591 273.53152 
L 139.803571 273.088 
L 140.45353 274.32 
L 140.778509 273.13728 
L 141.103489 273.28512 
L 141.428468 273.77792 
L 141.753448 273.18656 
L 142.078428 273.67936 
L 142.403407 273.03872 
L 142.728387 273.53152 
L 143.053366 272.98944 
L 143.378346 272.8416 
L 143.703325 274.17216 
L 144.028305 272.69376 
L 144.678264 273.63008 
L 145.003243 274.0736 
L 145.328223 273.53152 
L 145.978182 273.53152 
L 146.303161 274.41856 
L 146.95312 273.53152 
L 148.578018 273.18656 
L 148.902998 273.48224 
L 149.227977 272.89088 
L 149.552957 273.72864 
L 149.877936 273.38368 
L 150.202916 273.28512 
L 150.527895 273.38368 
L 150.852875 273.088 
L 151.177854 273.38368 
L 151.827813 272.94016 
L 152.152793 273.97504 
L 152.477772 274.12288 
L 152.802752 273.3344 
L 153.127731 273.63008 
L 153.452711 273.03872 
L 154.10267 273.088 
L 154.427649 274.12288 
L 154.752629 273.13728 
L 155.077609 272.89088 
L 155.402588 273.23584 
L 155.727568 273.18656 
L 156.052547 272.29952 
L 156.377527 273.38368 
L 157.027486 273.63008 
L 157.352465 274.46784 
L 157.677445 273.13728 
L 158.002424 272.5952 
L 158.327404 273.03872 
L 158.652383 274.8128 
L 158.977363 272.79232 
L 159.302342 272.94016 
L 159.627322 272.89088 
L 159.952301 273.53152 
L 160.277281 273.3344 
L 160.60226 273.43296 
L 160.92724 274.17216 
L 161.252219 273.23584 
L 161.577199 273.97504 
L 161.902179 274.32 
L 162.227158 273.72864 
L 162.552138 273.38368 
L 162.877117 273.72864 
L 163.202097 273.28512 
L 163.527076 273.72864 
L 163.852056 273.5808 
L 164.502015 272.8416 
L 164.826994 273.77792 
L 165.151974 273.97504 
L 165.476953 272.54592 
L 165.801933 272.98944 
L 166.451892 272.89088 
L 166.776871 272.8416 
L 167.101851 273.28512 
L 167.42683 273.18656 
L 167.75181 273.72864 
L 168.07679 273.13728 
L 168.401769 273.28512 
L 168.726749 274.0736 
L 169.051728 274.5664 
L 169.376708 273.53152 
L 169.701687 273.5808 
L 170.026667 273.03872 
L 170.351646 273.5808 
L 170.676626 273.18656 
L 171.001605 274.0736 
L 171.326585 273.13728 
L 171.651564 273.43296 
L 171.976544 273.088 
L 172.301523 273.72864 
L 172.626503 273.03872 
L 172.951482 273.5808 
L 173.276462 273.03872 
L 173.601441 274.0736 
L 173.926421 273.23584 
L 174.57638 273.53152 
L 174.90136 273.48224 
L 175.226339 273.13728 
L 175.551319 273.8272 
L 175.876298 273.97504 
L 176.201278 273.28512 
L 176.526257 274.36928 
L 176.851237 273.38368 
L 177.176216 272.8416 
L 177.501196 273.48224 
L 177.826175 272.8416 
L 178.151155 273.8272 
L 178.476134 273.23584 
L 179.126093 273.67936 
L 179.776052 272.89088 
L 180.101032 273.03872 
L 180.426011 273.53152 
L 180.750991 274.32 
L 181.40095 272.39808 
L 181.72593 273.3344 
L 182.375889 273.3344 
L 182.700868 273.03872 
L 184.325766 273.53152 
L 184.650745 273.28512 
L 184.975725 272.89088 
L 185.625684 273.5808 
L 185.950663 273.23584 
L 186.275643 273.53152 
L 186.600622 272.74304 
L 186.925602 273.088 
L 187.250581 273.8272 
L 187.575561 272.94016 
L 187.900541 273.92576 
L 188.5505 274.02432 
L 188.875479 274.76352 
L 189.200459 273.53152 
L 189.525438 274.17216 
L 189.850418 274.12288 
L 190.175397 274.27072 
L 190.500377 272.8416 
L 190.825356 274.32 
L 191.150336 274.0736 
L 191.475315 274.66496 
L 192.125274 272.44736 
L 192.450254 272.94016 
L 192.775233 272.79232 
L 193.100213 273.53152 
L 193.425192 272.79232 
L 193.750172 273.53152 
L 194.075152 272.89088 
L 194.400131 273.92576 
L 194.725111 273.72864 
L 195.05009 272.94016 
L 195.37507 273.13728 
L 195.700049 272.98944 
L 196.350008 273.87648 
L 196.674988 273.03872 
L 196.999967 273.97504 
L 197.324947 272.29952 
L 197.649926 272.89088 
L 197.974906 272.8416 
L 198.299885 273.77792 
L 198.624865 273.088 
L 199.274824 272.94016 
L 199.599803 273.43296 
L 199.924783 273.5808 
L 200.249762 273.43296 
L 200.574742 273.53152 
L 200.899722 274.27072 
L 201.549681 272.79232 
L 201.87466 273.38368 
L 202.19964 273.67936 
L 202.524619 273.03872 
L 202.849599 273.5808 
L 203.174578 273.8272 
L 203.499558 273.77792 
L 203.824537 274.12288 
L 204.149517 274.12288 
L 204.474496 273.28512 
L 204.799476 273.67936 
L 205.124455 273.5808 
L 205.449435 272.8416 
L 205.774414 272.5952 
L 206.099394 272.98944 
L 206.424373 273.92576 
L 206.749353 273.5808 
L 207.074333 274.0736 
L 207.399312 273.63008 
L 207.724292 272.69376 
L 208.049271 273.38368 
L 208.374251 273.53152 
L 208.69923 272.49664 
L 209.02421 272.64448 
L 209.349189 273.43296 
L 209.674169 273.77792 
L 209.999148 273.13728 
L 210.324128 273.18656 
L 210.649107 273.03872 
L 210.974087 273.3344 
L 211.299066 272.8416 
L 211.949025 272.79232 
L 212.274005 273.23584 
L 212.598984 273.3344 
L 212.923964 272.79232 
L 213.248943 273.53152 
L 213.573923 273.43296 
L 213.898903 272.89088 
L 214.223882 273.23584 
L 214.548862 273.38368 
L 214.873841 272.89088 
L 215.198821 273.5808 
L 215.5238 273.63008 
L 215.84878 272.89088 
L 216.173759 272.64448 
L 216.498739 274.32 
L 216.823718 272.89088 
L 217.148698 274.12288 
L 217.473677 272.79232 
L 218.123636 272.74304 
L 218.773595 273.03872 
L 219.098575 273.97504 
L 219.423554 273.088 
L 220.073514 274.0736 
L 220.398493 272.49664 
L 220.723473 272.49664 
L 221.048452 272.69376 
L 221.373432 273.03872 
L 221.698411 272.74304 
L 222.023391 272.79232 
L 222.34837 274.17216 
L 222.67335 273.48224 
L 222.998329 273.87648 
L 223.323309 273.5808 
L 223.648288 273.088 
L 223.973268 274.0736 
L 224.623227 272.79232 
L 224.948206 272.89088 
L 225.273186 273.87648 
L 225.598165 273.23584 
L 225.923145 273.23584 
L 226.573104 272.89088 
L 226.898084 273.67936 
L 227.223063 273.13728 
L 227.548043 272.98944 
L 227.873022 273.48224 
L 228.198002 273.5808 
L 228.522981 272.98944 
L 228.847961 273.38368 
L 229.17294 273.18656 
L 229.49792 271.90528 
L 230.147879 272.94016 
L 230.472858 273.97504 
L 231.122817 273.63008 
L 231.447797 272.20096 
L 231.772776 273.43296 
L 232.097756 274.0736 
L 232.747715 272.69376 
L 233.072695 272.49664 
L 233.397674 273.53152 
L 233.722654 273.48224 
L 234.047633 273.72864 
L 234.372613 273.03872 
L 234.697592 273.97504 
L 235.022572 273.38368 
L 235.347551 274.0736 
L 235.672531 273.38368 
L 235.99751 272.20096 
L 236.32249 273.23584 
L 236.972449 273.38368 
L 237.297428 273.38368 
L 237.622408 273.67936 
L 237.947387 272.94016 
L 238.272367 273.3344 
L 238.597346 272.98944 
L 238.922326 273.23584 
L 239.247305 273.92576 
L 239.572285 273.67936 
L 239.897265 272.79232 
L 240.222244 272.74304 
L 240.547224 273.38368 
L 240.872203 272.54592 
L 241.197183 273.48224 
L 241.522162 272.39808 
L 241.847142 274.27072 
L 242.172121 272.44736 
L 242.497101 273.088 
L 242.82208 274.46784 
L 243.14706 273.28512 
L 243.472039 273.18656 
L 243.797019 273.38368 
L 244.121998 272.89088 
L 244.771957 273.53152 
L 245.096937 273.23584 
L 245.421916 272.29952 
L 245.746896 273.72864 
L 246.071876 272.39808 
L 246.721835 273.088 
L 247.046814 273.23584 
L 247.371794 272.69376 
L 247.696773 273.92576 
L 248.021753 273.43296 
L 248.346732 273.77792 
L 248.996691 273.23584 
L 249.321671 273.088 
L 249.64665 273.67936 
L 249.97163 272.29952 
L 250.621589 273.38368 
L 250.946568 273.97504 
L 251.271548 272.29952 
L 251.596527 273.28512 
L 251.921507 273.53152 
L 252.246486 272.94016 
L 252.571466 273.72864 
L 252.896446 272.98944 
L 253.221425 272.5952 
L 253.546405 272.69376 
L 253.871384 274.27072 
L 254.196364 273.23584 
L 254.521343 274.02432 
L 255.171302 272.5952 
L 255.496282 273.28512 
L 255.821261 273.43296 
L 256.146241 272.49664 
L 256.47122 274.32 
L 256.7962 272.44736 
L 257.121179 273.23584 
L 257.446159 272.74304 
L 257.771138 272.8416 
L 258.096118 273.8272 
L 258.421097 272.98944 
L 258.746077 273.3344 
L 259.071057 273.87648 
L 259.396036 272.94016 
L 259.721016 273.63008 
L 260.045995 272.69376 
L 260.370975 273.48224 
L 260.695954 272.89088 
L 261.020934 273.03872 
L 261.670893 272.74304 
L 261.995872 272.49664 
L 262.320852 273.53152 
L 262.645831 272.74304 
L 262.970811 272.74304 
L 263.29579 273.63008 
L 263.945749 273.87648 
L 264.270729 272.94016 
L 264.595708 272.54592 
L 264.920688 273.77792 
L 265.245667 273.53152 
L 265.570647 272.49664 
L 265.895627 273.67936 
L 266.220606 272.74304 
L 266.545586 273.77792 
L 267.195545 272.3488 
L 267.520524 273.53152 
L 267.845504 272.79232 
L 268.170483 272.64448 
L 268.495463 272.64448 
L 268.820442 273.38368 
L 269.145422 273.38368 
L 269.470401 272.98944 
L 269.795381 273.53152 
L 270.12036 273.72864 
L 271.095299 273.088 
L 271.420278 273.67936 
L 271.745258 273.5808 
L 272.070238 273.13728 
L 272.395217 272.89088 
L 272.720197 273.67936 
L 273.045176 272.39808 
L 273.695135 274.0736 
L 274.020115 273.3344 
L 274.345094 273.3344 
L 274.670074 272.79232 
L 275.320033 273.43296 
L 275.645012 273.48224 
L 275.969992 272.98944 
L 276.294971 274.27072 
L 276.619951 273.3344 
L 276.94493 272.79232 
L 277.26991 273.38368 
L 277.594889 272.79232 
L 277.919869 272.98944 
L 278.244848 273.67936 
L 278.569828 273.18656 
L 278.894808 273.63008 
L 279.219787 272.54592 
L 279.544767 274.22144 
L 279.869746 273.23584 
L 280.194726 272.69376 
L 280.844685 273.63008 
L 281.494644 272.89088 
L 281.819623 272.98944 
L 282.144603 272.5952 
L 282.469582 273.8272 
L 282.794562 272.54592 
L 283.119541 273.97504 
L 283.444521 273.38368 
L 283.7695 273.13728 
L 284.09448 273.72864 
L 284.419459 273.97504 
L 285.069419 272.49664 
L 285.394398 272.64448 
L 285.719378 273.48224 
L 286.044357 272.98944 
L 286.369337 273.72864 
L 286.694316 273.67936 
L 287.019296 272.94016 
L 287.344275 273.67936 
L 287.669255 273.92576 
L 287.994234 272.29952 
L 288.319214 272.69376 
L 288.644193 273.67936 
L 289.294152 273.28512 
L 289.619132 272.69376 
L 289.944111 273.63008 
L 290.269091 272.89088 
L 290.59407 272.69376 
L 290.91905 273.03872 
L 291.244029 272.64448 
L 291.569009 273.18656 
L 291.893989 274.27072 
L 292.218968 272.8416 
L 292.543948 272.8416 
L 293.193907 274.12288 
L 293.518886 272.8416 
L 293.843866 273.97504 
L 294.168845 272.79232 
L 294.493825 273.43296 
L 295.143784 273.13728 
L 295.468763 273.53152 
L 295.793743 272.64448 
L 296.118722 272.20096 
L 296.443702 273.28512 
L 296.768681 272.39808 
L 297.093661 272.98944 
L 297.41864 272.69376 
L 297.74362 272.79232 
L 298.0686 272.5952 
L 298.718559 273.63008 
L 299.043538 272.94016 
L 299.368518 273.03872 
L 300.018477 272.79232 
L 300.343456 273.18656 
L 300.668436 273.87648 
L 300.993415 272.1024 
L 301.318395 273.53152 
L 301.643374 272.5952 
L 301.968354 272.25024 
L 302.293333 272.89088 
L 302.618313 272.54592 
L 302.943292 273.28512 
L 303.268272 272.39808 
L 303.593251 273.77792 
L 303.918231 273.18656 
L 304.24321 273.53152 
L 304.56819 274.22144 
L 304.89317 273.8272 
L 305.218149 271.80672 
L 305.543129 273.13728 
L 305.868108 272.89088 
L 306.193088 272.98944 
L 306.518067 273.72864 
L 306.843047 273.8272 
L 307.168026 273.28512 
L 307.493006 273.77792 
L 307.817985 273.28512 
L 308.142965 273.5808 
L 308.467944 272.05312 
L 309.117903 272.8416 
L 309.442883 272.79232 
L 309.767862 273.38368 
L 310.092842 273.53152 
L 310.417821 272.74304 
L 310.742801 273.3344 
L 311.067781 272.94016 
L 311.39276 273.77792 
L 311.71774 273.48224 
L 312.042719 271.90528 
L 312.367699 272.8416 
L 313.017658 273.28512 
L 313.342637 273.3344 
L 313.667617 272.74304 
L 313.992596 273.28512 
L 314.317576 273.03872 
L 314.642555 273.088 
L 314.967535 272.94016 
L 315.292514 273.38368 
L 315.617494 274.17216 
L 315.942473 272.25024 
L 316.267453 272.39808 
L 316.592432 273.3344 
L 316.917412 272.29952 
L 317.242391 272.20096 
L 317.567371 272.8416 
L 317.892351 273.088 
L 318.54231 272.44736 
L 318.867289 272.89088 
L 319.192269 273.92576 
L 319.517248 274.02432 
L 319.842228 273.72864 
L 320.167207 272.94016 
L 320.492187 273.5808 
L 320.817166 271.80672 
L 321.467125 273.13728 
L 322.117084 273.13728 
L 322.442064 274.61568 
L 323.092023 273.28512 
L 323.741982 273.18656 
L 324.066962 273.43296 
L 324.391941 273.23584 
L 324.716921 272.8416 
L 325.0419 273.088 
L 325.36688 272.79232 
L 325.691859 273.088 
L 326.016839 272.25024 
L 326.341818 273.48224 
L 326.991777 272.39808 
L 327.316757 274.86208 
L 327.641736 272.49664 
L 328.291695 273.28512 
L 328.616675 272.74304 
L 328.941654 272.64448 
L 329.266634 274.51712 
L 329.591613 272.74304 
L 329.916593 273.088 
L 330.241572 272.44736 
L 330.566552 273.03872 
L 330.891532 273.23584 
L 331.216511 274.41856 
L 331.541491 273.18656 
L 332.19145 273.92576 
L 332.516429 273.97504 
L 332.841409 272.5952 
L 333.166388 272.79232 
L 333.491368 273.23584 
L 333.816347 273.92576 
L 334.466306 273.03872 
L 334.791286 273.18656 
L 335.116265 273.77792 
L 335.441245 273.23584 
L 335.766224 273.13728 
L 336.416183 273.23584 
L 336.741163 272.79232 
L 337.066143 272.00384 
L 337.391122 272.89088 
L 337.716102 273.13728 
L 338.041081 272.8416 
L 338.366061 273.72864 
L 338.69104 273.67936 
L 339.01602 272.3488 
L 339.340999 273.38368 
L 339.990958 273.63008 
L 340.315938 273.92576 
L 340.640917 273.13728 
L 341.290876 273.43296 
L 341.615856 272.94016 
L 341.940835 272.79232 
L 342.265815 272.3488 
L 342.590794 272.8416 
L 342.915774 272.98944 
L 343.240753 273.38368 
L 343.565733 273.43296 
L 343.890713 272.69376 
L 344.215692 273.48224 
L 344.540672 272.25024 
L 344.865651 273.77792 
L 345.190631 272.64448 
L 345.51561 273.5808 
L 345.84059 273.8272 
L 346.165569 272.98944 
L 346.490549 273.18656 
L 346.815528 272.69376 
L 347.465487 273.53152 
L 347.790467 272.79232 
L 348.765405 273.18656 
L 349.090385 272.69376 
L 349.415364 273.28512 
L 349.740344 273.43296 
L 350.065324 273.13728 
L 350.390303 274.02432 
L 350.715283 272.89088 
L 351.040262 273.23584 
L 351.365242 272.5952 
L 351.690221 273.48224 
L 352.015201 272.74304 
L 352.34018 273.3344 
L 352.66516 272.25024 
L 352.990139 273.97504 
L 353.315119 273.13728 
L 353.640098 272.74304 
L 353.965078 273.53152 
L 354.290057 273.03872 
L 354.615037 271.90528 
L 354.940016 271.75744 
L 355.264996 273.43296 
L 355.589975 272.69376 
L 355.914955 272.8416 
L 356.239934 273.67936 
L 356.564914 273.23584 
L 356.889894 273.28512 
L 357.214873 272.00384 
L 357.539853 273.18656 
L 357.864832 273.43296 
L 358.189812 272.8416 
L 358.514791 272.74304 
L 358.839771 273.48224 
L 359.16475 273.13728 
L 359.814709 273.13728 
L 360.139689 272.00384 
L 360.464668 272.5952 
L 360.789648 273.8272 
L 361.114627 272.5952 
L 361.439607 273.43296 
L 361.764586 273.67936 
L 362.414545 272.5952 
L 362.739525 272.98944 
L 363.064505 273.13728 
L 363.389484 272.94016 
L 363.714464 273.088 
L 364.039443 272.89088 
L 364.364423 273.92576 
L 364.689402 272.15168 
L 365.014382 273.13728 
L 365.339361 272.44736 
L 365.664341 272.89088 
L 365.98932 272.98944 
L 366.3143 273.92576 
L 366.639279 272.5952 
L 366.964259 272.5952 
L 367.289238 273.38368 
L 367.614218 273.18656 
L 368.264177 273.18656 
L 368.589156 273.5808 
L 368.914136 274.36928 
L 369.239115 272.44736 
L 369.889075 273.28512 
L 370.214054 273.23584 
L 371.188993 273.72864 
L 372.163931 272.5952 
L 372.488911 273.87648 
L 372.81389 272.94016 
L 373.13887 273.088 
L 373.463849 272.79232 
L 374.113808 274.0736 
L 374.438788 273.38368 
L 374.763767 272.39808 
L 375.088747 272.49664 
L 375.413726 273.13728 
L 375.738706 273.03872 
L 376.063686 273.38368 
L 376.388665 273.23584 
L 376.713645 273.43296 
L 377.038624 273.43296 
L 377.363604 272.64448 
L 377.688583 273.13728 
L 378.013563 272.89088 
L 378.338542 273.72864 
L 378.663522 273.38368 
L 379.313481 274.22144 
L 379.63846 272.94016 
L 379.96344 272.5952 
L 380.288419 273.43296 
L 380.613399 272.74304 
L 380.938378 272.94016 
L 381.263358 273.28512 
L 381.588337 272.94016 
L 381.913317 273.03872 
L 382.238296 273.97504 
L 382.563276 272.69376 
L 382.888256 272.5952 
L 383.213235 272.98944 
L 384.188174 272.94016 
L 384.513153 273.5808 
L 384.838133 272.94016 
L 385.163112 273.53152 
L 385.813071 273.43296 
L 386.138051 272.54592 
L 386.46303 273.38368 
L 386.78801 272.44736 
L 387.112989 272.79232 
L 387.762948 272.74304 
L 388.087928 272.98944 
L 388.412907 272.89088 
L 388.737887 273.72864 
L 389.062867 273.088 
L 389.387846 273.03872 
L 390.037805 272.44736 
L 390.362785 273.67936 
L 390.687764 273.23584 
L 391.012744 274.12288 
L 391.337723 273.28512 
L 391.662703 273.92576 
L 391.987682 273.088 
L 392.312662 273.28512 
L 392.637641 273.87648 
L 392.962621 272.39808 
L 393.2876 272.3488 
L 393.61258 273.3344 
L 393.937559 273.38368 
L 394.262539 273.63008 
L 394.587518 273.48224 
L 394.912498 273.03872 
L 395.237477 273.3344 
L 395.887437 272.8416 
L 396.212416 273.87648 
L 396.537396 272.69376 
L 397.512334 273.18656 
L 398.162293 272.05312 
L 398.487273 273.23584 
L 398.487273 273.23584 
" style="fill:none;stroke:#1f77b4;stroke-linecap:square;stroke-width:1.5;"/>
   </g>
   <g id="patch_3">
    <path d="M 57.6 307.584 
L 57.6 41.472 
" style="fill:none;stroke:#000000;stroke-linecap:square;stroke-linejoin:miter;stroke-width:0.8;"/>
   </g>
   <g id="patch_4">
    <path d="M 414.72 307.584 
L 414.72 41.472 
" style="fill:none;stroke:#000000;stroke-linecap:square;stroke-linejoin:miter;stroke-width:0.8;"/>
   </g>
   <g id="patch_5">
    <path d="M 57.6 307.584 
L 414.72 307.584 
" style="fill:none;stroke:#000000;stroke-linecap:square;stroke-linejoin:miter;stroke-width:0.8;"/>
   </g>
   <g id="patch_6">
    <path d="M 57.6 41.472 
L 414.72 41.472 
" style="fill:none;stroke:#000000;stroke-linecap:square;stroke-linejoin:miter;stroke-width:0.8;"/>
   </g>
   <g id="text_15">
    <!-- Training - PEPG - Slimevolley -->
    <g transform="translate(150.377813 35.472)scale(0.12 -0.12)">
     <defs>
      <path d="M 3513 2113 
L 3513 0 
L 2938 0 
L 2938 2094 
Q 2938 2591 2744 2837 
Q 2550 3084 2163 3084 
Q 1697 3084 1428 2787 
Q 1159 2491 1159 1978 
L 1159 0 
L 581 0 
L 581 3500 
L 1159 3500 
L 1159 2956 
Q 1366 3272 1645 3428 
Q 1925 3584 2291 3584 
Q 2894 3584 3203 3211 
Q 3513 2838 3513 2113 
z
" id="DejaVuSans-6e" transform="scale(0.015625)"/>
      <path d="M 2906 1791 
Q 2906 2416 2648 2759 
Q 2391 3103 1925 3103 
Q 1463 3103 1205 2759 
Q 947 2416 947 1791 
Q 947 1169 1205 825 
Q 1463 481 1925 481 
Q 2391 481 2648 825 
Q 2906 1169 2906 1791 
z
M 3481 434 
Q 3481 -459 3084 -895 
Q 2688 -1331 1869 -1331 
Q 1566 -1331 1297 -1286 
Q 1028 -1241 775 -1147 
L 775 -588 
Q 1028 -725 1275 -790 
Q 1522 -856 1778 -856 
Q 2344 -856 2625 -561 
Q 2906 -266 2906 331 
L 2906 616 
Q 2728 306 2450 153 
Q 2172 0 1784 0 
Q 1141 0 747 490 
Q 353 981 353 1791 
Q 353 2603 747 3093 
Q 1141 3584 1784 3584 
Q 2172 3584 2450 3431 
Q 2728 3278 2906 2969 
L 2906 3500 
L 3481 3500 
L 3481 434 
z
" id="DejaVuSans-67" transform="scale(0.015625)"/>
      <path id="DejaVuSans-20" transform="scale(0.015625)"/>
      <path d="M 313 2009 
L 1997 2009 
L 1997 1497 
L 313 1497 
L 313 2009 
z
" id="DejaVuSans-2d" transform="scale(0.015625)"/>
      <path d="M 1259 4147 
L 1259 2394 
L 2053 2394 
Q 2494 2394 2734 2622 
Q 2975 2850 2975 3272 
Q 2975 3691 2734 3919 
Q 2494 4147 2053 4147 
L 1259 4147 
z
M 628 4666 
L 2053 4666 
Q 2838 4666 3239 4311 
Q 3641 3956 3641 3272 
Q 3641 2581 3239 2228 
Q 2838 1875 2053 1875 
L 1259 1875 
L 1259 0 
L 628 0 
L 628 4666 
z
" id="DejaVuSans-50" transform="scale(0.015625)"/>
      <path d="M 628 4666 
L 3578 4666 
L 3578 4134 
L 1259 4134 
L 1259 2753 
L 3481 2753 
L 3481 2222 
L 1259 2222 
L 1259 531 
L 3634 531 
L 3634 0 
L 628 0 
L 628 4666 
z
" id="DejaVuSans-45" transform="scale(0.015625)"/>
      <path d="M 3809 666 
L 3809 1919 
L 2778 1919 
L 2778 2438 
L 4434 2438 
L 4434 434 
Q 4069 175 3628 42 
Q 3188 -91 2688 -91 
Q 1594 -91 976 548 
Q 359 1188 359 2328 
Q 359 3472 976 4111 
Q 1594 4750 2688 4750 
Q 3144 4750 3555 4637 
Q 3966 4525 4313 4306 
L 4313 3634 
Q 3963 3931 3569 4081 
Q 3175 4231 2741 4231 
Q 1884 4231 1454 3753 
Q 1025 3275 1025 2328 
Q 1025 1384 1454 906 
Q 1884 428 2741 428 
Q 3075 428 3337 486 
Q 3600 544 3809 666 
z
" id="DejaVuSans-47" transform="scale(0.015625)"/>
      <path d="M 3425 4513 
L 3425 3897 
Q 3066 4069 2747 4153 
Q 2428 4238 2131 4238 
Q 1616 4238 1336 4038 
Q 1056 3838 1056 3469 
Q 1056 3159 1242 3001 
Q 1428 2844 1947 2747 
L 2328 2669 
Q 3034 2534 3370 2195 
Q 3706 1856 3706 1288 
Q 3706 609 3251 259 
Q 2797 -91 1919 -91 
Q 1588 -91 1214 -16 
Q 841 59 441 206 
L 441 856 
Q 825 641 1194 531 
Q 1563 422 1919 422 
Q 2459 422 2753 634 
Q 3047 847 3047 1241 
Q 3047 1584 2836 1778 
Q 2625 1972 2144 2069 
L 1759 2144 
Q 1053 2284 737 2584 
Q 422 2884 422 3419 
Q 422 4038 858 4394 
Q 1294 4750 2059 4750 
Q 2388 4750 2728 4690 
Q 3069 4631 3425 4513 
z
" id="DejaVuSans-53" transform="scale(0.015625)"/>
      <path d="M 603 4863 
L 1178 4863 
L 1178 0 
L 603 0 
L 603 4863 
z
" id="DejaVuSans-6c" transform="scale(0.015625)"/>
      <path d="M 191 3500 
L 800 3500 
L 1894 563 
L 2988 3500 
L 3597 3500 
L 2284 0 
L 1503 0 
L 191 3500 
z
" id="DejaVuSans-76" transform="scale(0.015625)"/>
      <path d="M 1959 3097 
Q 1497 3097 1228 2736 
Q 959 2375 959 1747 
Q 959 1119 1226 758 
Q 1494 397 1959 397 
Q 2419 397 2687 759 
Q 2956 1122 2956 1747 
Q 2956 2369 2687 2733 
Q 2419 3097 1959 3097 
z
M 1959 3584 
Q 2709 3584 3137 3096 
Q 3566 2609 3566 1747 
Q 3566 888 3137 398 
Q 2709 -91 1959 -91 
Q 1206 -91 779 398 
Q 353 888 353 1747 
Q 353 2609 779 3096 
Q 1206 3584 1959 3584 
z
" id="DejaVuSans-6f" transform="scale(0.015625)"/>
      <path d="M 2059 -325 
Q 1816 -950 1584 -1140 
Q 1353 -1331 966 -1331 
L 506 -1331 
L 506 -850 
L 844 -850 
Q 1081 -850 1212 -737 
Q 1344 -625 1503 -206 
L 1606 56 
L 191 3500 
L 800 3500 
L 1894 763 
L 2988 3500 
L 3597 3500 
L 2059 -325 
z
" id="DejaVuSans-79" transform="scale(0.015625)"/>
     </defs>
     <use xlink:href="#DejaVuSans-54"/>
     <use x="46.333984" xlink:href="#DejaVuSans-72"/>
     <use x="87.447266" xlink:href="#DejaVuSans-61"/>
     <use x="148.726562" xlink:href="#DejaVuSans-69"/>
     <use x="176.509766" xlink:href="#DejaVuSans-6e"/>
     <use x="239.888672" xlink:href="#DejaVuSans-69"/>
     <use x="267.671875" xlink:href="#DejaVuSans-6e"/>
     <use x="331.050781" xlink:href="#DejaVuSans-67"/>
     <use x="394.527344" xlink:href="#DejaVuSans-20"/>
     <use x="426.314453" xlink:href="#DejaVuSans-2d"/>
     <use x="462.398438" xlink:href="#DejaVuSans-20"/>
     <use x="494.185547" xlink:href="#DejaVuSans-50"/>
     <use x="554.488281" xlink:href="#DejaVuSans-45"/>
     <use x="617.671875" xlink:href="#DejaVuSans-50"/>
     <use x="677.974609" xlink:href="#DejaVuSans-47"/>
     <use x="755.464844" xlink:href="#DejaVuSans-20"/>
     <use x="787.251953" xlink:href="#DejaVuSans-2d"/>
     <use x="823.335938" xlink:href="#DejaVuSans-20"/>
     <use x="855.123047" xlink:href="#DejaVuSans-53"/>
     <use x="918.599609" xlink:href="#DejaVuSans-6c"/>
     <use x="946.382812" xlink:href="#DejaVuSans-69"/>
     <use x="974.166016" xlink:href="#DejaVuSans-6d"/>
     <use x="1071.578125" xlink:href="#DejaVuSans-65"/>
     <use x="1133.101562" xlink:href="#DejaVuSans-76"/>
     <use x="1192.28125" xlink:href="#DejaVuSans-6f"/>
     <use x="1253.462891" xlink:href="#DejaVuSans-6c"/>
     <use x="1281.246094" xlink:href="#DejaVuSans-6c"/>
     <use x="1309.029297" xlink:href="#DejaVuSans-65"/>
     <use x="1370.552734" xlink:href="#DejaVuSans-79"/>
    </g>
   </g>
  </g>
 </g>
 <defs>
  <clipPath id="p996f1d689e">
   <rect height="266.112" width="357.12" x="57.6" y="41.472"/>
  </clipPath>
 </defs>
</svg>
