<?xml version="1.0" encoding="utf-8" standalone="no"?>
<!DOCTYPE svg PUBLIC "-//W3C//DTD SVG 1.1//EN"
  "http://www.w3.org/Graphics/SVG/1.1/DTD/svg11.dtd">
<svg height="345.6pt" version="1.1" viewBox="0 0 460.8 345.6" width="460.8pt" xmlns="http://www.w3.org/2000/svg" xmlns:xlink="http://www.w3.org/1999/xlink">
 <metadata>
  <rdf:RDF xmlns:cc="http://creativecommons.org/ns#" xmlns:dc="http://purl.org/dc/elements/1.1/" xmlns:rdf="http://www.w3.org/1999/02/22-rdf-syntax-ns#">
   <cc:Work>
    <dc:type rdf:resource="http://purl.org/dc/dcmitype/StillImage"/>
    <dc:date>2021-07-22T19:44:11.753500</dc:date>
    <dc:format>image/svg+xml</dc:format>
    <dc:creator>
     <cc:Agent>
      <dc:title>Matplotlib v3.4.2, https://matplotlib.org/</dc:title>
     </cc:Agent>
    </dc:creator>
   </cc:Work>
  </rdf:RDF>
 </metadata>
 <defs>
  <style type="text/css">*{stroke-linecap:butt;stroke-linejoin:round;}</style>
 </defs>
 <g id="figure_1">
  <g id="patch_1">
   <path d="M 0 345.6 
L 460.8 345.6 
L 460.8 0 
L 0 0 
z
" style="fill:#ffffff;"/>
  </g>
  <g id="axes_1">
   <g id="patch_2">
    <path d="M 57.6 307.584 
L 414.72 307.584 
L 414.72 41.472 
L 57.6 41.472 
z
" style="fill:#ffffff;"/>
   </g>
   <g id="PolyCollection_1">
    <path clip-path="url(#p17f2299663)" d="M 57.95712 286.025332 
L 57.95712 286.870417 
L 58.31424 286.564748 
L 58.67136 286.133215 
L 59.02848 286.277059 
L 59.3856 286.492826 
L 59.74272 285.378032 
L 60.09984 284.946499 
L 60.45696 285.180246 
L 60.81408 285.162266 
L 61.1712 285.270149 
L 61.52832 284.838616 
L 61.88544 284.802655 
L 62.24256 284.568908 
L 62.59968 284.568908 
L 62.9568 284.281219 
L 63.31392 284.119395 
L 63.67104 284.191317 
L 64.02816 283.95757 
L 64.38528 284.371122 
L 64.7424 284.047472 
L 65.09952 284.065453 
L 65.45664 283.400173 
L 65.81376 283.615939 
L 66.17088 284.443044 
L 66.528 283.813725 
L 66.88512 283.687862 
L 67.24224 284.353142 
L 67.59936 283.741803 
L 67.95648 283.867667 
L 68.3136 284.514966 
L 68.67072 283.939589 
L 69.02784 283.490076 
L 69.38496 283.490076 
L 69.74208 283.544017 
L 70.0992 283.256329 
L 70.45632 283.040562 
L 70.81344 283.454115 
L 71.17056 282.950659 
L 71.52768 283.831706 
L 71.8848 284.191317 
L 72.24192 283.31027 
L 72.59904 282.896718 
L 72.95616 283.418154 
L 73.31328 283.579978 
L 73.6704 283.490076 
L 74.02752 284.029492 
L 74.38464 283.256329 
L 74.74176 283.382192 
L 75.09888 283.220368 
L 75.456 283.849686 
L 75.81312 283.867667 
L 76.17024 283.454115 
L 76.52736 282.159516 
L 76.88448 283.094504 
L 77.2416 283.184406 
L 77.59872 283.418154 
L 77.95584 283.040562 
L 78.31296 283.220368 
L 78.67008 282.986621 
L 79.0272 283.328251 
L 79.38432 283.651901 
L 79.74144 283.256329 
L 80.09856 283.202387 
L 80.45568 283.31027 
L 80.8128 283.63392 
L 81.16992 283.95757 
L 81.52704 283.346231 
L 81.88416 283.759784 
L 82.24128 282.96864 
L 82.5984 283.669881 
L 82.95552 283.382192 
L 83.31264 283.31027 
L 83.66976 283.112484 
L 84.02688 283.436134 
L 84.384 283.95757 
L 84.74112 282.914698 
L 85.09824 282.770854 
L 85.45536 283.094504 
L 85.81248 283.759784 
L 86.1696 283.759784 
L 86.52672 283.058543 
L 86.88384 283.256329 
L 87.24096 283.508056 
L 87.59808 283.202387 
L 87.9552 282.914698 
L 88.31232 282.878737 
L 88.66944 283.418154 
L 89.02656 283.364212 
L 89.38368 283.400173 
L 89.7408 283.274309 
L 90.09792 283.993531 
L 90.45504 283.022582 
L 90.81216 282.64499 
L 91.16928 283.472095 
L 91.5264 283.058543 
L 91.88352 282.860757 
L 92.24064 283.544017 
L 92.59776 284.317181 
L 92.95488 282.662971 
L 93.312 283.382192 
L 93.66912 283.454115 
L 94.02624 283.544017 
L 94.38336 283.31027 
L 94.74048 283.508056 
L 95.0976 282.62701 
L 95.45472 283.454115 
L 95.81184 283.346231 
L 96.16896 284.065453 
L 96.52608 283.022582 
L 96.8832 283.364212 
L 97.24032 283.418154 
L 97.59744 283.526037 
L 97.95456 283.526037 
L 98.31168 283.166426 
L 98.6688 284.047472 
L 99.02592 283.723823 
L 99.38304 282.878737 
L 99.74016 283.328251 
L 100.09728 283.346231 
L 100.4544 283.615939 
L 100.81152 282.770854 
L 101.16864 282.986621 
L 101.52576 283.723823 
L 101.88288 283.346231 
L 102.24 283.597959 
L 102.59712 283.454115 
L 102.95424 283.346231 
L 103.31136 284.065453 
L 103.66848 283.454115 
L 104.0256 282.96864 
L 104.38272 283.651901 
L 104.73984 283.867667 
L 105.09696 282.555088 
L 105.45408 283.400173 
L 105.8112 283.669881 
L 106.16832 283.526037 
L 106.52544 283.687862 
L 106.88256 283.148445 
L 107.23968 282.680951 
L 107.5968 283.238348 
L 107.95392 283.274309 
L 108.31104 282.716912 
L 108.66816 283.63392 
L 109.02528 283.561998 
L 109.3824 283.328251 
L 109.73952 283.166426 
L 110.09664 283.921609 
L 110.45376 283.112484 
L 110.81088 283.274309 
L 111.168 283.364212 
L 111.52512 283.130465 
L 111.88224 282.932679 
L 112.23936 282.842776 
L 112.59648 283.112484 
L 112.9536 284.263239 
L 113.31072 283.29229 
L 113.66784 283.112484 
L 114.02496 283.400173 
L 114.38208 283.202387 
L 114.7392 284.083434 
L 115.09632 283.741803 
L 115.45344 282.680951 
L 115.81056 283.472095 
L 116.16768 283.256329 
L 116.5248 283.202387 
L 116.88192 283.615939 
L 117.23904 283.112484 
L 117.59616 282.680951 
L 117.95328 282.716912 
L 118.3104 283.112484 
L 118.66752 283.561998 
L 119.02464 283.112484 
L 119.38176 284.119395 
L 119.73888 283.472095 
L 120.096 283.454115 
L 120.45312 283.849686 
L 120.81024 283.795745 
L 121.16736 283.723823 
L 121.52448 282.770854 
L 121.8816 283.29229 
L 122.23872 283.040562 
L 122.59584 283.346231 
L 122.95296 283.31027 
L 123.31008 283.831706 
L 123.6672 283.382192 
L 124.02432 283.508056 
L 124.38144 283.220368 
L 124.73856 283.63392 
L 125.09568 284.281219 
L 125.4528 283.903628 
L 125.80992 282.806815 
L 126.16704 283.31027 
L 126.52416 282.752874 
L 126.88128 283.31027 
L 127.2384 283.490076 
L 127.59552 283.526037 
L 127.95264 283.112484 
L 128.30976 283.490076 
L 128.66688 282.878737 
L 129.024 283.651901 
L 129.38112 283.274309 
L 129.73824 283.148445 
L 130.09536 283.364212 
L 130.45248 282.591049 
L 130.8096 283.220368 
L 131.16672 283.777764 
L 131.52384 282.842776 
L 131.88096 282.96864 
L 132.23808 283.346231 
L 132.5952 283.400173 
L 132.95232 283.526037 
L 133.30944 282.842776 
L 133.66656 283.094504 
L 134.02368 282.860757 
L 134.3808 283.31027 
L 134.73792 283.436134 
L 135.09504 282.609029 
L 135.45216 283.112484 
L 135.80928 283.651901 
L 136.1664 283.705842 
L 136.52352 282.96864 
L 136.88064 283.238348 
L 137.23776 283.454115 
L 137.59488 283.759784 
L 137.952 283.741803 
L 138.30912 282.986621 
L 138.66624 283.436134 
L 139.02336 283.094504 
L 139.38048 282.824796 
L 139.7376 283.29229 
L 140.09472 282.914698 
L 140.45184 282.896718 
L 140.80896 282.806815 
L 141.16608 283.418154 
L 141.5232 282.824796 
L 141.88032 282.842776 
L 142.23744 283.939589 
L 142.59456 283.112484 
L 142.95168 283.454115 
L 143.3088 283.418154 
L 143.66592 283.274309 
L 144.02304 284.191317 
L 144.38016 283.615939 
L 144.73728 283.561998 
L 145.0944 284.029492 
L 145.45152 282.716912 
L 145.80864 283.669881 
L 146.16576 283.364212 
L 146.52288 283.274309 
L 146.88 283.184406 
L 147.23712 283.364212 
L 147.59424 282.680951 
L 147.95136 283.63392 
L 148.30848 283.29229 
L 148.6656 282.842776 
L 149.02272 283.490076 
L 149.37984 283.184406 
L 149.73696 283.63392 
L 150.09408 282.950659 
L 150.4512 283.184406 
L 150.80832 282.986621 
L 151.16544 283.777764 
L 151.52256 282.824796 
L 151.87968 282.698932 
L 152.2368 282.321341 
L 152.59392 283.31027 
L 152.95104 283.256329 
L 153.30816 283.418154 
L 153.66528 283.903628 
L 154.0224 283.058543 
L 154.37952 283.597959 
L 154.73664 283.759784 
L 155.09376 283.040562 
L 155.45088 283.454115 
L 155.808 283.472095 
L 156.16512 282.680951 
L 156.52224 283.220368 
L 156.87936 283.040562 
L 157.23648 283.256329 
L 157.5936 283.112484 
L 157.95072 283.346231 
L 158.30784 283.490076 
L 158.66496 283.040562 
L 159.02208 283.166426 
L 159.3792 283.040562 
L 159.73632 282.788835 
L 160.09344 282.680951 
L 160.45056 283.29229 
L 160.80768 282.932679 
L 161.1648 283.63392 
L 161.52192 283.022582 
L 161.87904 282.806815 
L 162.23616 283.328251 
L 162.59328 283.921609 
L 162.9504 283.364212 
L 163.30752 283.526037 
L 163.66464 283.256329 
L 164.02176 283.004601 
L 164.37888 282.824796 
L 164.736 283.723823 
L 165.09312 282.96864 
L 165.45024 283.903628 
L 165.80736 283.022582 
L 166.16448 283.346231 
L 166.5216 283.256329 
L 166.87872 283.238348 
L 167.23584 282.896718 
L 167.59296 283.759784 
L 167.95008 283.328251 
L 168.3072 283.112484 
L 168.66432 283.454115 
L 169.02144 283.238348 
L 169.37856 282.806815 
L 169.73568 283.472095 
L 170.0928 283.202387 
L 170.44992 283.130465 
L 170.80704 283.400173 
L 171.16416 283.130465 
L 171.52128 282.824796 
L 171.8784 283.022582 
L 172.23552 282.788835 
L 172.59264 283.472095 
L 172.94976 282.896718 
L 173.30688 283.400173 
L 173.664 283.544017 
L 174.02112 283.508056 
L 174.37824 283.058543 
L 174.73536 282.609029 
L 175.09248 283.004601 
L 175.4496 283.867667 
L 175.80672 282.914698 
L 176.16384 282.609029 
L 176.52096 283.526037 
L 176.87808 283.112484 
L 177.2352 282.96864 
L 177.59232 282.662971 
L 177.94944 283.040562 
L 178.30656 283.274309 
L 178.66368 283.022582 
L 179.0208 283.112484 
L 179.37792 283.238348 
L 179.73504 282.824796 
L 180.09216 282.698932 
L 180.44928 283.184406 
L 180.8064 283.202387 
L 181.16352 283.184406 
L 181.52064 283.040562 
L 181.87776 283.040562 
L 182.23488 282.770854 
L 182.592 283.436134 
L 182.94912 282.483165 
L 183.30624 283.184406 
L 183.66336 283.436134 
L 184.02048 283.274309 
L 184.3776 284.029492 
L 184.73472 283.651901 
L 185.09184 283.651901 
L 185.44896 283.759784 
L 185.80608 284.029492 
L 186.1632 282.986621 
L 186.52032 283.867667 
L 186.87744 283.615939 
L 187.23456 284.065453 
L 187.59168 283.238348 
L 187.9488 282.662971 
L 188.30592 282.788835 
L 188.66304 282.824796 
L 189.02016 283.544017 
L 189.37728 283.651901 
L 189.7344 283.112484 
L 190.09152 283.040562 
L 190.44864 283.256329 
L 190.80576 283.579978 
L 191.16288 282.698932 
L 191.52 283.346231 
L 191.87712 282.842776 
L 192.23424 283.094504 
L 192.59136 283.472095 
L 192.94848 283.29229 
L 193.3056 283.795745 
L 193.66272 283.436134 
L 194.01984 282.734893 
L 194.37696 282.896718 
L 194.73408 283.885648 
L 195.0912 283.184406 
L 195.44832 283.004601 
L 195.80544 282.986621 
L 196.16256 283.058543 
L 196.51968 282.986621 
L 196.8768 283.040562 
L 197.23392 283.166426 
L 197.59104 283.328251 
L 197.94816 283.112484 
L 198.30528 283.184406 
L 198.6624 283.31027 
L 199.01952 283.418154 
L 199.37664 282.752874 
L 199.73376 283.238348 
L 200.09088 283.939589 
L 200.448 283.544017 
L 200.80512 283.669881 
L 201.16224 283.274309 
L 201.51936 282.662971 
L 201.87648 283.29229 
L 202.2336 283.579978 
L 202.59072 283.220368 
L 202.94784 283.256329 
L 203.30496 282.573068 
L 203.66208 283.687862 
L 204.0192 283.400173 
L 204.37632 283.328251 
L 204.73344 283.885648 
L 205.09056 282.321341 
L 205.44768 283.112484 
L 205.8048 283.597959 
L 206.16192 282.555088 
L 206.51904 282.680951 
L 206.87616 283.723823 
L 207.23328 283.166426 
L 207.5904 283.382192 
L 207.94752 282.788835 
L 208.30464 282.609029 
L 208.66176 283.615939 
L 209.01888 283.076523 
L 209.376 282.62701 
L 209.73312 282.986621 
L 210.09024 283.076523 
L 210.44736 283.058543 
L 210.80448 282.96864 
L 211.1616 283.597959 
L 211.51872 283.202387 
L 211.87584 282.537107 
L 212.23296 283.076523 
L 212.59008 283.184406 
L 212.9472 283.130465 
L 213.30432 283.63392 
L 213.66144 283.544017 
L 214.01856 282.465185 
L 214.37568 282.734893 
L 214.7328 284.191317 
L 215.08992 282.734893 
L 215.44704 283.813725 
L 215.80416 282.824796 
L 216.16128 282.788835 
L 216.5184 282.986621 
L 216.87552 282.932679 
L 217.23264 283.454115 
L 217.58976 283.436134 
L 217.94688 282.914698 
L 218.304 284.029492 
L 218.66112 283.687862 
L 219.01824 282.752874 
L 219.37536 282.465185 
L 219.73248 282.716912 
L 220.0896 283.436134 
L 220.44672 283.166426 
L 220.80384 282.555088 
L 221.16096 283.867667 
L 221.51808 283.759784 
L 221.8752 283.993531 
L 222.23232 283.202387 
L 222.58944 283.274309 
L 222.94656 283.97555 
L 223.30368 283.400173 
L 223.6608 282.96864 
L 224.01792 283.256329 
L 224.37504 283.579978 
L 224.73216 282.770854 
L 225.08928 283.040562 
L 225.4464 282.770854 
L 225.80352 283.346231 
L 226.16064 283.112484 
L 226.51776 283.472095 
L 226.87488 282.806815 
L 227.232 283.220368 
L 227.58912 283.256329 
L 227.94624 282.537107 
L 228.30336 283.400173 
L 228.66048 282.609029 
L 229.0176 282.177496 
L 229.37472 283.112484 
L 229.73184 282.752874 
L 230.08896 283.687862 
L 230.44608 283.615939 
L 230.8032 283.328251 
L 231.16032 282.950659 
L 231.51744 283.112484 
L 231.87456 283.436134 
L 232.23168 282.752874 
L 232.5888 282.752874 
L 232.94592 282.770854 
L 233.30304 283.472095 
L 233.66016 283.004601 
L 234.01728 283.63392 
L 234.3744 283.29229 
L 234.73152 283.436134 
L 235.08864 283.29229 
L 235.44576 283.436134 
L 235.80288 283.274309 
L 236.16 282.033652 
L 236.51712 283.130465 
L 236.87424 283.202387 
L 237.23136 283.256329 
L 237.58848 282.842776 
L 237.9456 283.687862 
L 238.30272 283.076523 
L 238.65984 282.878737 
L 239.01696 282.734893 
L 239.37408 283.022582 
L 239.7312 283.561998 
L 240.08832 283.741803 
L 240.44544 283.202387 
L 240.80256 282.519126 
L 241.15968 282.896718 
L 241.5168 282.734893 
L 241.87392 283.256329 
L 242.23104 282.824796 
L 242.58816 283.597959 
L 242.94528 282.986621 
L 243.3024 282.96864 
L 243.65952 283.95757 
L 244.01664 283.040562 
L 244.37376 283.346231 
L 244.73088 282.896718 
L 245.088 282.824796 
L 245.44512 283.148445 
L 245.80224 283.148445 
L 246.15936 282.96864 
L 246.51648 281.97971 
L 246.8736 283.454115 
L 247.23072 282.537107 
L 247.58784 282.878737 
L 247.94496 283.579978 
L 248.30208 282.878737 
L 248.6592 282.555088 
L 249.01632 283.400173 
L 249.37344 282.932679 
L 249.73056 283.130465 
L 250.08768 283.526037 
L 250.4448 283.130465 
L 250.80192 282.824796 
L 251.15904 283.526037 
L 251.51616 282.573068 
L 251.87328 282.896718 
L 252.2304 282.824796 
L 252.58752 283.849686 
L 252.94464 283.741803 
L 253.30176 283.31027 
L 253.65888 283.148445 
L 254.016 283.31027 
L 254.37312 283.903628 
L 254.73024 283.040562 
L 255.08736 282.519126 
L 255.44448 283.130465 
L 255.8016 283.651901 
L 256.15872 283.29229 
L 256.51584 283.274309 
L 256.87296 282.752874 
L 257.23008 282.860757 
L 257.5872 282.914698 
L 257.94432 282.878737 
L 258.30144 283.472095 
L 258.65856 283.561998 
L 259.01568 282.698932 
L 259.3728 283.184406 
L 259.72992 282.860757 
L 260.08704 282.465185 
L 260.44416 283.238348 
L 260.80128 283.004601 
L 261.1584 283.022582 
L 261.51552 283.328251 
L 261.87264 283.490076 
L 262.22976 283.058543 
L 262.58688 283.130465 
L 262.944 283.040562 
L 263.30112 283.490076 
L 263.65824 282.573068 
L 264.01536 283.490076 
L 264.37248 282.609029 
L 264.7296 282.62701 
L 265.08672 282.770854 
L 265.44384 282.770854 
L 265.80096 283.382192 
L 266.15808 283.490076 
L 266.5152 283.256329 
L 266.87232 283.400173 
L 267.22944 283.472095 
L 267.58656 282.878737 
L 267.94368 283.346231 
L 268.3008 282.96864 
L 268.65792 282.662971 
L 269.01504 283.508056 
L 269.37216 283.094504 
L 269.72928 283.202387 
L 270.0864 282.609029 
L 270.44352 282.896718 
L 270.80064 283.687862 
L 271.15776 283.166426 
L 271.51488 282.842776 
L 271.872 282.267399 
L 272.22912 283.346231 
L 272.58624 282.62701 
L 272.94336 283.202387 
L 273.30048 283.220368 
L 273.6576 283.148445 
L 274.01472 283.112484 
L 274.37184 283.094504 
L 274.72896 283.795745 
L 275.08608 283.436134 
L 275.4432 283.256329 
L 275.80032 283.094504 
L 276.15744 282.752874 
L 276.51456 283.220368 
L 276.87168 282.393263 
L 277.2288 283.040562 
L 277.58592 283.993531 
L 277.94304 283.579978 
L 278.30016 283.256329 
L 278.65728 282.465185 
L 279.0144 282.824796 
L 279.37152 283.166426 
L 279.72864 283.166426 
L 280.08576 282.62701 
L 280.44288 283.795745 
L 280.8 282.950659 
L 281.15712 283.490076 
L 281.51424 282.914698 
L 281.87136 282.932679 
L 282.22848 283.508056 
L 282.5856 283.418154 
L 282.94272 283.076523 
L 283.29984 283.112484 
L 283.65696 282.519126 
L 284.01408 283.454115 
L 284.3712 283.040562 
L 284.72832 282.914698 
L 285.08544 282.788835 
L 285.44256 283.130465 
L 285.79968 282.824796 
L 286.1568 283.723823 
L 286.51392 282.788835 
L 286.87104 283.130465 
L 287.22816 283.364212 
L 287.58528 283.526037 
L 287.9424 283.651901 
L 288.29952 282.788835 
L 288.65664 283.436134 
L 289.01376 283.328251 
L 289.37088 283.31027 
L 289.728 283.184406 
L 290.08512 282.375282 
L 290.44224 283.148445 
L 290.79936 283.687862 
L 291.15648 282.716912 
L 291.5136 283.220368 
L 291.87072 283.29229 
L 292.22784 283.130465 
L 292.58496 283.274309 
L 292.94208 283.579978 
L 293.2992 282.123555 
L 293.65632 282.680951 
L 294.01344 283.040562 
L 294.37056 283.148445 
L 294.72768 282.96864 
L 295.0848 282.591049 
L 295.44192 283.166426 
L 295.79904 283.31027 
L 296.15616 283.130465 
L 296.51328 283.094504 
L 296.8704 283.202387 
L 297.22752 282.806815 
L 297.58464 283.831706 
L 297.94176 283.112484 
L 298.29888 282.555088 
L 298.656 282.932679 
L 299.01312 283.795745 
L 299.37024 283.166426 
L 299.72736 284.335161 
L 300.08448 283.022582 
L 300.4416 283.274309 
L 300.79872 283.040562 
L 301.15584 283.076523 
L 301.51296 283.256329 
L 301.87008 283.076523 
L 302.2272 282.752874 
L 302.58432 282.860757 
L 302.94144 282.860757 
L 303.29856 283.040562 
L 303.65568 283.526037 
L 304.0128 283.094504 
L 304.36992 282.986621 
L 304.72704 283.346231 
L 305.08416 283.346231 
L 305.44128 282.609029 
L 305.7984 282.788835 
L 306.15552 282.96864 
L 306.51264 282.483165 
L 306.86976 283.058543 
L 307.22688 283.544017 
L 307.584 283.526037 
L 307.94112 283.454115 
L 308.29824 282.662971 
L 308.65536 283.076523 
L 309.01248 282.824796 
L 309.3696 282.177496 
L 309.72672 282.824796 
L 310.08384 282.806815 
L 310.44096 283.400173 
L 310.79808 283.112484 
L 311.1552 283.274309 
L 311.51232 283.759784 
L 311.86944 283.544017 
L 312.22656 282.231438 
L 312.58368 282.824796 
L 312.9408 283.112484 
L 313.29792 282.96864 
L 313.65504 283.130465 
L 314.01216 283.472095 
L 314.36928 283.382192 
L 314.7264 283.094504 
L 315.08352 283.561998 
L 315.44064 282.914698 
L 315.79776 282.30336 
L 316.15488 283.238348 
L 316.512 283.274309 
L 316.86912 283.076523 
L 317.22624 283.382192 
L 317.58336 283.112484 
L 317.94048 282.662971 
L 318.2976 283.328251 
L 318.65472 283.130465 
L 319.01184 283.130465 
L 319.36896 283.148445 
L 319.72608 281.943749 
L 320.0832 282.716912 
L 320.44032 283.238348 
L 320.79744 283.526037 
L 321.15456 283.094504 
L 321.51168 282.30336 
L 321.8688 283.220368 
L 322.22592 282.788835 
L 322.58304 282.62701 
L 322.94016 282.806815 
L 323.29728 283.058543 
L 323.6544 283.561998 
L 324.01152 283.166426 
L 324.36864 282.64499 
L 324.72576 283.31027 
L 325.08288 282.932679 
L 325.44 282.680951 
L 325.79712 282.752874 
L 326.15424 283.31027 
L 326.51136 282.716912 
L 326.86848 282.698932 
L 327.2256 283.31027 
L 327.58272 283.328251 
L 327.93984 283.382192 
L 328.29696 283.97555 
L 328.65408 282.716912 
L 329.0112 283.148445 
L 329.36832 282.770854 
L 329.72544 283.112484 
L 330.08256 283.418154 
L 330.43968 282.824796 
L 330.7968 282.555088 
L 331.15392 283.97555 
L 331.51104 283.526037 
L 331.86816 283.256329 
L 332.22528 283.148445 
L 332.5824 283.040562 
L 332.93952 283.112484 
L 333.29664 282.986621 
L 333.65376 282.339321 
L 334.01088 282.770854 
L 334.368 282.788835 
L 334.72512 282.573068 
L 335.08224 282.986621 
L 335.43936 283.472095 
L 335.79648 282.914698 
L 336.1536 282.537107 
L 336.51072 284.407083 
L 336.86784 282.519126 
L 337.22496 282.878737 
L 337.58208 283.148445 
L 337.9392 283.094504 
L 338.29632 282.662971 
L 338.65344 283.777764 
L 339.01056 283.112484 
L 339.36768 282.734893 
L 339.7248 282.483165 
L 340.08192 282.896718 
L 340.43904 283.328251 
L 340.79616 283.615939 
L 341.15328 282.950659 
L 341.5104 283.31027 
L 341.86752 283.328251 
L 342.22464 283.615939 
L 342.58176 283.220368 
L 342.93888 282.447204 
L 343.296 282.932679 
L 343.65312 283.418154 
L 344.01024 283.094504 
L 344.36736 283.561998 
L 344.72448 283.274309 
L 345.0816 283.346231 
L 345.43872 283.346231 
L 345.79584 283.328251 
L 346.15296 283.328251 
L 346.51008 282.932679 
L 346.8672 282.447204 
L 347.22432 282.465185 
L 347.58144 282.842776 
L 347.93856 283.346231 
L 348.29568 283.094504 
L 348.6528 283.939589 
L 349.00992 283.31027 
L 349.36704 282.141535 
L 349.72416 283.400173 
L 350.08128 283.346231 
L 350.4384 283.094504 
L 350.79552 283.364212 
L 351.15264 283.328251 
L 351.50976 282.824796 
L 351.86688 282.878737 
L 352.224 282.896718 
L 352.58112 282.734893 
L 352.93824 282.734893 
L 353.29536 282.716912 
L 353.65248 283.004601 
L 354.0096 283.418154 
L 354.36672 283.202387 
L 354.72384 283.166426 
L 355.08096 283.364212 
L 355.43808 282.573068 
L 355.7952 283.436134 
L 356.15232 283.040562 
L 356.50944 282.950659 
L 356.86656 283.238348 
L 357.22368 282.609029 
L 357.5808 282.752874 
L 357.93792 282.680951 
L 358.29504 282.662971 
L 358.65216 283.004601 
L 359.00928 282.716912 
L 359.3664 282.698932 
L 359.72352 282.662971 
L 360.08064 283.004601 
L 360.43776 283.29229 
L 360.79488 282.96864 
L 361.152 283.166426 
L 361.50912 283.472095 
L 361.86624 283.579978 
L 362.22336 283.364212 
L 362.58048 283.31027 
L 362.9376 282.806815 
L 363.29472 283.076523 
L 363.65184 282.806815 
L 364.00896 283.004601 
L 364.36608 283.058543 
L 364.7232 283.31027 
L 365.08032 282.770854 
L 365.43744 282.447204 
L 365.79456 282.842776 
L 366.15168 283.022582 
L 366.5088 282.716912 
L 366.86592 283.29229 
L 367.22304 283.166426 
L 367.58016 282.62701 
L 367.93728 282.716912 
L 368.2944 283.400173 
L 368.65152 283.058543 
L 369.00864 283.058543 
L 369.36576 282.932679 
L 369.72288 282.842776 
L 370.08 283.040562 
L 370.43712 282.680951 
L 370.79424 282.591049 
L 371.15136 283.256329 
L 371.50848 283.561998 
L 371.8656 283.094504 
L 372.22272 283.346231 
L 372.57984 282.716912 
L 372.93696 282.806815 
L 373.29408 283.526037 
L 373.6512 282.680951 
L 374.00832 282.96864 
L 374.36544 284.065453 
L 374.72256 282.986621 
L 375.07968 282.609029 
L 375.4368 282.950659 
L 375.79392 283.220368 
L 376.15104 283.400173 
L 376.50816 282.752874 
L 376.86528 283.112484 
L 377.2224 283.508056 
L 377.57952 283.112484 
L 377.93664 283.687862 
L 378.29376 282.501146 
L 378.65088 282.788835 
L 379.008 283.382192 
L 379.36512 283.436134 
L 379.72224 282.824796 
L 380.07936 283.184406 
L 380.43648 283.256329 
L 380.7936 283.058543 
L 381.15072 282.932679 
L 381.50784 283.112484 
L 381.86496 284.101414 
L 382.22208 283.705842 
L 382.5792 283.130465 
L 382.93632 283.220368 
L 383.29344 282.914698 
L 383.65056 283.346231 
L 384.00768 283.29229 
L 384.3648 282.950659 
L 384.72192 283.63392 
L 385.07904 283.490076 
L 385.43616 283.418154 
L 385.79328 283.148445 
L 386.1504 283.274309 
L 386.50752 282.465185 
L 386.86464 283.040562 
L 387.22176 283.022582 
L 387.57888 283.220368 
L 387.936 283.579978 
L 388.29312 282.986621 
L 388.65024 282.393263 
L 389.00736 282.411243 
L 389.36448 282.734893 
L 389.7216 283.274309 
L 390.07872 283.328251 
L 390.43584 283.597959 
L 390.79296 283.597959 
L 391.15008 282.914698 
L 391.5072 282.896718 
L 391.86432 283.094504 
L 392.22144 283.076523 
L 392.57856 283.63392 
L 392.93568 283.274309 
L 393.2928 283.687862 
L 393.64992 283.705842 
L 394.00704 283.040562 
L 394.36416 282.788835 
L 394.72128 282.96864 
L 395.0784 282.770854 
L 395.43552 283.166426 
L 395.79264 282.860757 
L 396.14976 283.31027 
L 396.50688 282.896718 
L 396.864 283.454115 
L 397.22112 283.076523 
L 397.57824 283.813725 
L 397.93536 282.806815 
L 398.29248 282.842776 
L 398.6496 283.094504 
L 399.00672 282.680951 
L 399.36384 282.986621 
L 399.72096 282.483165 
L 400.07808 283.274309 
L 400.4352 283.238348 
L 400.79232 283.400173 
L 401.14944 283.112484 
L 401.50656 282.96864 
L 401.86368 282.716912 
L 402.2208 283.058543 
L 402.57792 282.680951 
L 402.93504 282.573068 
L 403.29216 282.411243 
L 403.64928 283.058543 
L 404.0064 283.346231 
L 404.36352 283.148445 
L 404.72064 283.777764 
L 405.07776 282.734893 
L 405.43488 282.555088 
L 405.792 283.166426 
L 406.14912 283.112484 
L 406.50624 283.346231 
L 406.86336 283.040562 
L 407.22048 283.130465 
L 407.5776 283.130465 
L 407.93472 282.609029 
L 408.29184 283.31027 
L 408.64896 282.698932 
L 409.00608 282.501146 
L 409.3632 282.96864 
L 409.72032 282.914698 
L 410.07744 283.256329 
L 410.43456 282.770854 
L 410.79168 282.950659 
L 411.1488 283.256329 
L 411.50592 282.788835 
L 411.86304 282.914698 
L 412.22016 283.615939 
L 412.57728 282.662971 
L 412.9344 283.418154 
L 413.29152 282.96864 
L 413.64864 283.022582 
L 414.00576 282.375282 
L 414.36288 282.591049 
L 414.72 282.932679 
L 414.72 282.285379 
L 414.72 282.285379 
L 414.36288 281.098664 
L 414.00576 281.332411 
L 413.64864 282.069613 
L 413.29152 282.177496 
L 412.9344 281.710002 
L 412.57728 281.494236 
L 412.22016 282.159516 
L 411.86304 281.494236 
L 411.50592 281.781924 
L 411.1488 281.96173 
L 410.79168 281.835866 
L 410.43456 282.537107 
L 410.07744 282.105574 
L 409.72032 282.105574 
L 409.3632 282.195477 
L 409.00608 280.918858 
L 408.64896 281.440294 
L 408.29184 282.339321 
L 407.93472 281.422314 
L 407.5776 282.141535 
L 407.22048 281.799905 
L 406.86336 281.997691 
L 406.50624 281.96173 
L 406.14912 281.853846 
L 405.792 281.925769 
L 405.43488 281.781924 
L 405.07776 281.548177 
L 404.72064 281.889808 
L 404.36352 281.692022 
L 404.0064 282.213457 
L 403.64928 281.692022 
L 403.29216 281.512216 
L 402.93504 281.422314 
L 402.57792 281.31443 
L 402.2208 281.512216 
L 401.86368 281.170586 
L 401.50656 281.494236 
L 401.14944 281.727983 
L 400.79232 282.195477 
L 400.4352 282.339321 
L 400.07808 281.907788 
L 399.72096 282.033652 
L 399.36384 281.692022 
L 399.00672 281.674041 
L 398.6496 281.97971 
L 398.29248 281.871827 
L 397.93536 281.943749 
L 397.57824 281.31443 
L 397.22112 281.080683 
L 396.864 282.213457 
L 396.50688 281.817885 
L 396.14976 282.069613 
L 395.79264 281.727983 
L 395.43552 280.685111 
L 395.0784 281.674041 
L 394.72128 282.159516 
L 394.36416 281.781924 
L 394.00704 281.997691 
L 393.64992 282.465185 
L 393.2928 281.31443 
L 392.93568 281.727983 
L 392.57856 282.231438 
L 392.22144 281.260489 
L 391.86432 282.033652 
L 391.5072 281.763944 
L 391.15008 282.357302 
L 390.79296 282.339321 
L 390.43584 281.763944 
L 390.07872 281.440294 
L 389.7216 282.069613 
L 389.36448 281.835866 
L 389.00736 281.781924 
L 388.65024 281.727983 
L 388.29312 282.411243 
L 387.936 281.817885 
L 387.57888 281.134625 
L 387.22176 281.278469 
L 386.86464 281.530197 
L 386.50752 281.925769 
L 386.1504 282.213457 
L 385.79328 280.882897 
L 385.43616 281.422314 
L 385.07904 281.368372 
L 384.72192 281.692022 
L 384.3648 282.501146 
L 384.00768 281.710002 
L 383.65056 282.195477 
L 383.29344 281.584138 
L 382.93632 282.069613 
L 382.5792 281.332411 
L 382.22208 282.357302 
L 381.86496 281.674041 
L 381.50784 282.213457 
L 381.15072 282.141535 
L 380.7936 282.123555 
L 380.43648 280.882897 
L 380.07936 281.692022 
L 379.72224 281.116644 
L 379.36512 282.033652 
L 379.008 281.602119 
L 378.65088 281.548177 
L 378.29376 281.29645 
L 377.93664 281.566158 
L 377.57952 281.440294 
L 377.2224 282.680951 
L 376.86528 281.997691 
L 376.50816 282.123555 
L 376.15104 281.925769 
L 375.79392 281.620099 
L 375.4368 281.512216 
L 375.07968 281.116644 
L 374.72256 281.835866 
L 374.36544 282.501146 
L 374.00832 282.159516 
L 373.6512 281.404333 
L 373.29408 282.788835 
L 372.93696 280.828956 
L 372.57984 281.422314 
L 372.22272 281.710002 
L 371.8656 281.584138 
L 371.50848 282.177496 
L 371.15136 281.871827 
L 370.79424 281.853846 
L 370.43712 281.584138 
L 370.08 281.799905 
L 369.72288 281.97971 
L 369.36576 281.170586 
L 369.00864 281.548177 
L 368.65152 281.889808 
L 368.2944 281.566158 
L 367.93728 281.781924 
L 367.58016 281.925769 
L 367.22304 281.530197 
L 366.86592 281.098664 
L 366.5088 280.810975 
L 366.15168 281.835866 
L 365.79456 282.555088 
L 365.43744 282.069613 
L 365.08032 281.943749 
L 364.7232 282.609029 
L 364.36608 281.530197 
L 364.00896 281.116644 
L 363.65184 281.31443 
L 363.29472 282.357302 
L 362.9376 281.745963 
L 362.58048 281.97971 
L 362.22336 281.332411 
L 361.86624 281.440294 
L 361.50912 281.799905 
L 361.152 281.781924 
L 360.79488 281.835866 
L 360.43776 281.710002 
L 360.08064 281.907788 
L 359.72352 282.249418 
L 359.3664 281.224528 
L 359.00928 281.29645 
L 358.65216 282.159516 
L 358.29504 282.087594 
L 357.93792 281.727983 
L 357.5808 282.339321 
L 357.22368 281.763944 
L 356.86656 282.483165 
L 356.50944 282.249418 
L 356.15232 281.260489 
L 355.7952 281.242508 
L 355.43808 281.332411 
L 355.08096 281.566158 
L 354.72384 281.889808 
L 354.36672 281.889808 
L 354.0096 281.620099 
L 353.65248 281.799905 
L 353.29536 281.853846 
L 352.93824 281.026742 
L 352.58112 281.63808 
L 352.224 282.015671 
L 351.86688 282.051632 
L 351.50976 282.249418 
L 351.15264 281.656061 
L 350.79552 282.159516 
L 350.4384 282.069613 
L 350.08128 282.213457 
L 349.72416 281.674041 
L 349.36704 280.882897 
L 349.00992 282.62701 
L 348.6528 282.123555 
L 348.29568 281.332411 
L 347.93856 281.835866 
L 347.58144 281.656061 
L 347.22432 281.260489 
L 346.8672 281.548177 
L 346.51008 282.213457 
L 346.15296 282.249418 
L 345.79584 282.069613 
L 345.43872 281.943749 
L 345.0816 282.429224 
L 344.72448 281.332411 
L 344.36736 282.069613 
L 344.01024 282.177496 
L 343.65312 282.159516 
L 343.296 282.087594 
L 342.93888 281.548177 
L 342.58176 281.278469 
L 342.22464 282.015671 
L 341.86752 282.64499 
L 341.5104 282.249418 
L 341.15328 281.332411 
L 340.79616 282.842776 
L 340.43904 281.817885 
L 340.08192 281.620099 
L 339.7248 281.584138 
L 339.36768 282.141535 
L 339.01056 281.763944 
L 338.65344 282.860757 
L 338.29632 281.620099 
L 337.9392 281.386352 
L 337.58208 281.781924 
L 337.22496 280.739053 
L 336.86784 281.440294 
L 336.51072 282.519126 
L 336.1536 281.152605 
L 335.79648 281.620099 
L 335.43936 282.213457 
L 335.08224 281.260489 
L 334.72512 282.105574 
L 334.368 281.925769 
L 334.01088 280.990781 
L 333.65376 281.692022 
L 333.29664 282.105574 
L 332.93952 281.943749 
L 332.5824 281.404333 
L 332.22528 282.231438 
L 331.86816 282.231438 
L 331.51104 281.835866 
L 331.15392 282.321341 
L 330.7968 282.159516 
L 330.43968 281.853846 
L 330.08256 282.339321 
L 329.72544 281.602119 
L 329.36832 281.206547 
L 329.0112 282.375282 
L 328.65408 281.745963 
L 328.29696 282.62701 
L 327.93984 281.242508 
L 327.58272 282.375282 
L 327.2256 281.602119 
L 326.86848 281.404333 
L 326.51136 281.763944 
L 326.15424 281.943749 
L 325.79712 281.422314 
L 325.44 281.332411 
L 325.08288 281.152605 
L 324.72576 281.781924 
L 324.36864 281.584138 
L 324.01152 281.278469 
L 323.6544 282.788835 
L 323.29728 282.087594 
L 322.94016 281.835866 
L 322.58304 281.692022 
L 322.22592 281.530197 
L 321.8688 281.584138 
L 321.51168 281.997691 
L 321.15456 281.63808 
L 320.79744 281.97971 
L 320.44032 281.727983 
L 320.0832 281.368372 
L 319.72608 281.278469 
L 319.36896 282.123555 
L 319.01184 282.087594 
L 318.65472 281.440294 
L 318.2976 281.710002 
L 317.94048 281.997691 
L 317.58336 281.692022 
L 317.22624 281.727983 
L 316.86912 281.530197 
L 316.512 281.799905 
L 316.15488 281.458275 
L 315.79776 281.188566 
L 315.44064 282.105574 
L 315.08352 281.692022 
L 314.7264 282.555088 
L 314.36928 282.213457 
L 314.01216 282.64499 
L 313.65504 282.788835 
L 313.29792 281.97971 
L 312.9408 281.530197 
L 312.58368 281.152605 
L 312.22656 280.990781 
L 311.86944 282.123555 
L 311.51232 282.716912 
L 311.1552 281.799905 
L 310.79808 281.889808 
L 310.44096 282.177496 
L 310.08384 281.134625 
L 309.72672 282.357302 
L 309.3696 281.925769 
L 309.01248 281.889808 
L 308.65536 280.882897 
L 308.29824 281.098664 
L 307.94112 281.97971 
L 307.584 281.260489 
L 307.22688 282.285379 
L 306.86976 281.907788 
L 306.51264 281.494236 
L 306.15552 281.674041 
L 305.7984 281.656061 
L 305.44128 281.907788 
L 305.08416 281.584138 
L 304.72704 281.476255 
L 304.36992 281.871827 
L 304.0128 281.620099 
L 303.65568 281.656061 
L 303.29856 281.925769 
L 302.94144 281.350391 
L 302.58432 281.727983 
L 302.2272 281.620099 
L 301.87008 281.925769 
L 301.51296 280.918858 
L 301.15584 282.015671 
L 300.79872 281.997691 
L 300.4416 281.584138 
L 300.08448 281.871827 
L 299.72736 282.573068 
L 299.37024 281.763944 
L 299.01312 282.680951 
L 298.656 282.087594 
L 298.29888 281.656061 
L 297.94176 281.925769 
L 297.58464 282.62701 
L 297.22752 281.098664 
L 296.8704 281.116644 
L 296.51328 281.97971 
L 296.15616 280.990781 
L 295.79904 281.260489 
L 295.44192 282.213457 
L 295.0848 281.224528 
L 294.72768 281.96173 
L 294.37056 282.267399 
L 294.01344 281.853846 
L 293.65632 281.710002 
L 293.2992 281.260489 
L 292.94208 282.752874 
L 292.58496 282.609029 
L 292.22784 281.656061 
L 291.87072 280.954819 
L 291.5136 281.745963 
L 291.15648 281.925769 
L 290.79936 281.925769 
L 290.44224 281.692022 
L 290.08512 281.188566 
L 289.728 281.494236 
L 289.37088 282.195477 
L 289.01376 281.817885 
L 288.65664 281.170586 
L 288.29952 282.069613 
L 287.9424 282.411243 
L 287.58528 281.763944 
L 287.22816 282.770854 
L 286.87104 281.799905 
L 286.51392 281.853846 
L 286.1568 281.620099 
L 285.79968 282.087594 
L 285.44256 281.853846 
L 285.08544 281.997691 
L 284.72832 281.692022 
L 284.3712 282.429224 
L 284.01408 282.483165 
L 283.65696 281.188566 
L 283.29984 282.159516 
L 282.94272 281.404333 
L 282.5856 282.087594 
L 282.22848 281.656061 
L 281.87136 280.900878 
L 281.51424 282.159516 
L 281.15712 281.889808 
L 280.8 282.087594 
L 280.44288 282.591049 
L 280.08576 281.602119 
L 279.72864 282.285379 
L 279.37152 281.620099 
L 279.0144 282.267399 
L 278.65728 282.069613 
L 278.30016 282.321341 
L 277.94304 281.835866 
L 277.58592 281.710002 
L 277.2288 281.781924 
L 276.87168 281.278469 
L 276.51456 282.141535 
L 276.15744 281.871827 
L 275.80032 281.494236 
L 275.4432 282.30336 
L 275.08608 282.105574 
L 274.72896 281.63808 
L 274.37184 281.763944 
L 274.01472 282.411243 
L 273.6576 282.519126 
L 273.30048 281.440294 
L 272.94336 281.889808 
L 272.58624 282.285379 
L 272.22912 282.087594 
L 271.872 281.835866 
L 271.51488 281.997691 
L 271.15776 281.997691 
L 270.80064 282.357302 
L 270.44352 281.170586 
L 270.0864 282.087594 
L 269.72928 282.213457 
L 269.37216 281.530197 
L 269.01504 282.357302 
L 268.65792 281.674041 
L 268.3008 282.051632 
L 267.94368 282.051632 
L 267.58656 281.278469 
L 267.22944 282.141535 
L 266.87232 282.033652 
L 266.5152 282.591049 
L 266.15808 281.907788 
L 265.80096 281.404333 
L 265.44384 281.745963 
L 265.08672 282.375282 
L 264.7296 281.530197 
L 264.37248 281.763944 
L 264.01536 281.853846 
L 263.65824 281.907788 
L 263.30112 281.997691 
L 262.944 282.447204 
L 262.58688 281.710002 
L 262.22976 282.716912 
L 261.87264 281.332411 
L 261.51552 282.591049 
L 261.1584 282.159516 
L 260.80128 282.051632 
L 260.44416 281.997691 
L 260.08704 281.853846 
L 259.72992 281.566158 
L 259.3728 281.781924 
L 259.01568 281.152605 
L 258.65856 282.824796 
L 258.30144 281.548177 
L 257.94432 282.195477 
L 257.5872 282.069613 
L 257.23008 281.404333 
L 256.87296 281.925769 
L 256.51584 282.033652 
L 256.15872 282.357302 
L 255.8016 282.087594 
L 255.44448 281.242508 
L 255.08736 281.763944 
L 254.73024 281.835866 
L 254.37312 281.997691 
L 254.016 281.97971 
L 253.65888 282.519126 
L 253.30176 281.781924 
L 252.94464 281.332411 
L 252.58752 281.907788 
L 252.2304 282.123555 
L 251.87328 282.123555 
L 251.51616 281.206547 
L 251.15904 282.501146 
L 250.80192 281.602119 
L 250.4448 281.943749 
L 250.08768 282.447204 
L 249.73056 282.123555 
L 249.37344 281.871827 
L 249.01632 282.609029 
L 248.6592 281.548177 
L 248.30208 281.745963 
L 247.94496 281.799905 
L 247.58784 281.29645 
L 247.23072 281.458275 
L 246.8736 282.357302 
L 246.51648 281.422314 
L 246.15936 281.763944 
L 245.80224 281.727983 
L 245.44512 281.97971 
L 245.088 281.278469 
L 244.73088 282.195477 
L 244.37376 282.357302 
L 244.01664 282.285379 
L 243.65952 282.30336 
L 243.3024 281.63808 
L 242.94528 281.422314 
L 242.58816 282.914698 
L 242.23104 281.566158 
L 241.87392 281.871827 
L 241.5168 281.530197 
L 241.15968 281.584138 
L 240.80256 281.566158 
L 240.44544 281.368372 
L 240.08832 282.375282 
L 239.7312 282.375282 
L 239.37408 281.656061 
L 239.01696 281.889808 
L 238.65984 282.357302 
L 238.30272 281.566158 
L 237.9456 282.105574 
L 237.58848 281.889808 
L 237.23136 281.512216 
L 236.87424 282.267399 
L 236.51712 280.9728 
L 236.16 281.386352 
L 235.80288 282.30336 
L 235.44576 282.429224 
L 235.08864 281.96173 
L 234.73152 282.573068 
L 234.3744 282.051632 
L 234.01728 282.339321 
L 233.66016 281.31443 
L 233.30304 281.889808 
L 232.94592 281.835866 
L 232.5888 281.494236 
L 232.23168 282.141535 
L 231.87456 282.177496 
L 231.51744 282.321341 
L 231.16032 281.224528 
L 230.8032 281.674041 
L 230.44608 281.602119 
L 230.08896 282.932679 
L 229.73184 281.907788 
L 229.37472 281.512216 
L 229.0176 281.008761 
L 228.66048 282.375282 
L 228.30336 282.339321 
L 227.94624 281.781924 
L 227.58912 282.375282 
L 227.232 282.357302 
L 226.87488 281.997691 
L 226.51776 281.710002 
L 226.16064 281.997691 
L 225.80352 281.134625 
L 225.4464 282.015671 
L 225.08928 281.97971 
L 224.73216 281.620099 
L 224.37504 282.447204 
L 224.01792 281.116644 
L 223.6608 281.710002 
L 223.30368 282.555088 
L 222.94656 282.698932 
L 222.58944 281.080683 
L 222.23232 282.411243 
L 221.8752 282.141535 
L 221.51808 282.033652 
L 221.16096 282.662971 
L 220.80384 281.835866 
L 220.44672 281.566158 
L 220.0896 281.29645 
L 219.73248 281.763944 
L 219.37536 281.710002 
L 219.01824 280.721072 
L 218.66112 282.806815 
L 218.304 282.285379 
L 217.94688 281.835866 
L 217.58976 281.835866 
L 217.23264 281.656061 
L 216.87552 281.350391 
L 216.5184 281.656061 
L 216.16128 281.853846 
L 215.80416 281.710002 
L 215.44704 281.710002 
L 215.08992 281.710002 
L 214.7328 282.806815 
L 214.37568 281.062703 
L 214.01856 281.763944 
L 213.66144 282.393263 
L 213.30432 281.63808 
L 212.9472 281.871827 
L 212.59008 281.29645 
L 212.23296 282.159516 
L 211.87584 281.835866 
L 211.51872 281.620099 
L 211.1616 281.97971 
L 210.80448 281.835866 
L 210.44736 281.440294 
L 210.09024 281.745963 
L 209.73312 281.710002 
L 209.376 281.710002 
L 209.01888 281.602119 
L 208.66176 282.051632 
L 208.30464 282.033652 
L 207.94752 281.727983 
L 207.5904 281.710002 
L 207.23328 281.476255 
L 206.87616 282.249418 
L 206.51904 281.674041 
L 206.16192 281.692022 
L 205.8048 281.925769 
L 205.44768 282.213457 
L 205.09056 281.943749 
L 204.73344 282.195477 
L 204.37632 282.30336 
L 204.0192 282.069613 
L 203.66208 282.411243 
L 203.30496 282.087594 
L 202.94784 281.494236 
L 202.59072 281.278469 
L 202.2336 282.465185 
L 201.87648 281.566158 
L 201.51936 281.889808 
L 201.16224 282.357302 
L 200.80512 282.357302 
L 200.448 282.788835 
L 200.09088 282.087594 
L 199.73376 282.321341 
L 199.37664 282.141535 
L 199.01952 282.519126 
L 198.6624 282.087594 
L 198.30528 281.548177 
L 197.94816 282.429224 
L 197.59104 282.555088 
L 197.23392 282.141535 
L 196.8768 282.357302 
L 196.51968 281.602119 
L 196.16256 282.159516 
L 195.80544 281.63808 
L 195.44832 282.033652 
L 195.0912 281.710002 
L 194.73408 281.889808 
L 194.37696 281.97971 
L 194.01984 282.051632 
L 193.66272 281.134625 
L 193.3056 282.698932 
L 192.94848 281.781924 
L 192.59136 282.573068 
L 192.23424 282.483165 
L 191.87712 281.602119 
L 191.52 281.997691 
L 191.16288 282.069613 
L 190.80576 282.64499 
L 190.44864 282.62701 
L 190.09152 281.943749 
L 189.7344 282.285379 
L 189.37728 281.674041 
L 189.02016 282.375282 
L 188.66304 281.710002 
L 188.30592 281.96173 
L 187.9488 281.170586 
L 187.59168 282.213457 
L 187.23456 283.256329 
L 186.87744 282.105574 
L 186.52032 282.537107 
L 186.1632 281.440294 
L 185.80608 282.321341 
L 185.44896 282.734893 
L 185.09184 282.609029 
L 184.73472 282.087594 
L 184.3776 282.159516 
L 184.02048 282.62701 
L 183.66336 282.501146 
L 183.30624 282.141535 
L 182.94912 281.620099 
L 182.592 282.788835 
L 182.23488 281.63808 
L 181.87776 281.368372 
L 181.52064 282.501146 
L 181.16352 281.889808 
L 180.8064 281.943749 
L 180.44928 281.943749 
L 180.09216 282.069613 
L 179.73504 281.692022 
L 179.37792 281.692022 
L 179.0208 282.213457 
L 178.66368 282.087594 
L 178.30656 282.033652 
L 177.94944 282.213457 
L 177.59232 281.763944 
L 177.2352 282.285379 
L 176.87808 282.285379 
L 176.52096 281.710002 
L 176.16384 280.828956 
L 175.80672 282.213457 
L 175.4496 282.591049 
L 175.09248 281.97971 
L 174.73536 282.159516 
L 174.37824 281.997691 
L 174.02112 281.889808 
L 173.664 282.573068 
L 173.30688 282.573068 
L 172.94976 281.97971 
L 172.59264 282.537107 
L 172.23552 281.368372 
L 171.8784 282.339321 
L 171.52128 281.674041 
L 171.16416 282.195477 
L 170.80704 282.267399 
L 170.44992 282.267399 
L 170.0928 282.267399 
L 169.73568 282.555088 
L 169.37856 281.745963 
L 169.02144 282.501146 
L 168.66432 282.213457 
L 168.3072 282.033652 
L 167.95008 282.141535 
L 167.59296 282.429224 
L 167.23584 281.853846 
L 166.87872 282.30336 
L 166.5216 281.31443 
L 166.16448 282.159516 
L 165.80736 281.710002 
L 165.45024 281.63808 
L 165.09312 282.123555 
L 164.736 282.231438 
L 164.37888 281.656061 
L 164.02176 282.411243 
L 163.66464 281.907788 
L 163.30752 282.051632 
L 162.9504 282.141535 
L 162.59328 282.429224 
L 162.23616 282.483165 
L 161.87904 281.997691 
L 161.52192 281.368372 
L 161.1648 282.015671 
L 160.80768 281.943749 
L 160.45056 281.602119 
L 160.09344 281.97971 
L 159.73632 281.781924 
L 159.3792 281.781924 
L 159.02208 281.350391 
L 158.66496 281.656061 
L 158.30784 282.537107 
L 157.95072 282.465185 
L 157.5936 280.810975 
L 157.23648 281.727983 
L 156.87936 282.375282 
L 156.52224 282.087594 
L 156.16512 282.249418 
L 155.808 282.339321 
L 155.45088 282.429224 
L 155.09376 282.321341 
L 154.73664 283.130465 
L 154.37952 282.357302 
L 154.0224 281.745963 
L 153.66528 281.835866 
L 153.30816 282.195477 
L 152.95104 282.375282 
L 152.59392 282.087594 
L 152.2368 281.997691 
L 151.87968 281.997691 
L 151.52256 281.440294 
L 151.16544 282.501146 
L 150.80832 281.458275 
L 150.4512 281.494236 
L 150.09408 281.116644 
L 149.73696 282.96864 
L 149.37984 281.781924 
L 149.02272 282.30336 
L 148.6656 281.871827 
L 148.30848 281.134625 
L 147.95136 282.285379 
L 147.59424 282.213457 
L 147.23712 281.745963 
L 146.88 282.051632 
L 146.52288 282.249418 
L 146.16576 281.907788 
L 145.80864 281.350391 
L 145.45152 282.213457 
L 145.0944 282.339321 
L 144.73728 282.105574 
L 144.38016 282.159516 
L 144.02304 281.548177 
L 143.66592 281.799905 
L 143.3088 282.141535 
L 142.95168 282.069613 
L 142.59456 281.29645 
L 142.23744 282.573068 
L 141.88032 282.141535 
L 141.5232 282.447204 
L 141.16608 282.716912 
L 140.80896 282.159516 
L 140.45184 281.871827 
L 140.09472 282.123555 
L 139.7376 281.853846 
L 139.38048 282.231438 
L 139.02336 281.96173 
L 138.66624 281.97971 
L 138.30912 282.321341 
L 137.952 282.519126 
L 137.59488 282.860757 
L 137.23776 282.159516 
L 136.88064 282.033652 
L 136.52352 282.447204 
L 136.1664 282.64499 
L 135.80928 281.674041 
L 135.45216 281.31443 
L 135.09504 281.997691 
L 134.73792 281.763944 
L 134.3808 281.674041 
L 134.02368 281.835866 
L 133.66656 282.141535 
L 133.30944 281.835866 
L 132.95232 282.195477 
L 132.5952 281.943749 
L 132.23808 281.871827 
L 131.88096 281.97971 
L 131.52384 282.051632 
L 131.16672 281.512216 
L 130.8096 282.483165 
L 130.45248 282.051632 
L 130.09536 282.591049 
L 129.73824 281.566158 
L 129.38112 281.440294 
L 129.024 282.141535 
L 128.66688 282.051632 
L 128.30976 282.752874 
L 127.95264 282.069613 
L 127.59552 282.015671 
L 127.2384 282.213457 
L 126.88128 282.159516 
L 126.52416 281.853846 
L 126.16704 282.447204 
L 125.80992 282.141535 
L 125.4528 281.745963 
L 125.09568 283.058543 
L 124.73856 282.393263 
L 124.38144 281.548177 
L 124.02432 282.806815 
L 123.6672 282.267399 
L 123.31008 282.285379 
L 122.95296 282.393263 
L 122.59584 282.177496 
L 122.23872 282.447204 
L 121.8816 281.656061 
L 121.52448 282.267399 
L 121.16736 282.573068 
L 120.81024 282.285379 
L 120.45312 282.662971 
L 120.096 282.033652 
L 119.73888 282.267399 
L 119.38176 283.130465 
L 119.02464 281.727983 
L 118.66752 281.745963 
L 118.3104 282.177496 
L 117.95328 282.033652 
L 117.59616 281.871827 
L 117.23904 282.573068 
L 116.88192 281.871827 
L 116.5248 282.177496 
L 116.16768 282.537107 
L 115.81056 282.429224 
L 115.45344 281.206547 
L 115.09632 281.674041 
L 114.7392 282.465185 
L 114.38208 282.734893 
L 114.02496 282.429224 
L 113.66784 282.501146 
L 113.31072 282.447204 
L 112.9536 282.501146 
L 112.59648 281.512216 
L 112.23936 281.997691 
L 111.88224 282.015671 
L 111.52512 282.30336 
L 111.168 281.96173 
L 110.81088 282.465185 
L 110.45376 282.501146 
L 110.09664 282.357302 
L 109.73952 282.375282 
L 109.3824 282.788835 
L 109.02528 282.123555 
L 108.66816 282.62701 
L 108.31104 282.051632 
L 107.95392 281.835866 
L 107.5968 282.213457 
L 107.23968 282.411243 
L 106.88256 281.96173 
L 106.52544 282.914698 
L 106.16832 282.051632 
L 105.8112 282.609029 
L 105.45408 282.393263 
L 105.09696 281.674041 
L 104.73984 281.530197 
L 104.38272 282.680951 
L 104.0256 282.375282 
L 103.66848 281.763944 
L 103.31136 283.004601 
L 102.95424 281.440294 
L 102.59712 282.051632 
L 102.24 281.889808 
L 101.88288 282.429224 
L 101.52576 282.483165 
L 101.16864 281.907788 
L 100.81152 281.871827 
L 100.4544 282.087594 
L 100.09728 282.285379 
L 99.74016 282.285379 
L 99.38304 281.763944 
L 99.02592 282.662971 
L 98.6688 282.842776 
L 98.31168 282.429224 
L 97.95456 282.015671 
L 97.59744 281.656061 
L 97.24032 282.177496 
L 96.8832 282.285379 
L 96.52608 281.422314 
L 96.16896 282.051632 
L 95.81184 282.573068 
L 95.45472 282.249418 
L 95.0976 281.96173 
L 94.74048 282.321341 
L 94.38336 282.591049 
L 94.02624 282.62701 
L 93.66912 281.745963 
L 93.312 282.411243 
L 92.95488 281.817885 
L 92.59776 282.555088 
L 92.24064 282.375282 
L 91.88352 282.375282 
L 91.5264 282.339321 
L 91.16928 283.004601 
L 90.81216 281.602119 
L 90.45504 282.159516 
L 90.09792 282.213457 
L 89.7408 281.871827 
L 89.38368 282.411243 
L 89.02656 281.97971 
L 88.66944 282.770854 
L 88.31232 281.781924 
L 87.9552 282.033652 
L 87.59808 281.835866 
L 87.24096 281.889808 
L 86.88384 282.249418 
L 86.52672 281.656061 
L 86.1696 282.267399 
L 85.81248 282.411243 
L 85.45536 281.853846 
L 85.09824 281.925769 
L 84.74112 281.997691 
L 84.384 281.548177 
L 84.02688 282.195477 
L 83.66976 282.231438 
L 83.31264 282.716912 
L 82.95552 282.375282 
L 82.5984 282.159516 
L 82.24128 282.231438 
L 81.88416 282.519126 
L 81.52704 282.519126 
L 81.16992 282.231438 
L 80.8128 281.727983 
L 80.45568 282.501146 
L 80.09856 282.339321 
L 79.74144 282.537107 
L 79.38432 281.907788 
L 79.0272 282.555088 
L 78.67008 282.213457 
L 78.31296 282.213457 
L 77.95584 281.656061 
L 77.59872 282.069613 
L 77.2416 281.584138 
L 76.88448 281.63808 
L 76.52736 280.63117 
L 76.17024 282.555088 
L 75.81312 282.465185 
L 75.456 282.860757 
L 75.09888 282.573068 
L 74.74176 282.483165 
L 74.38464 281.871827 
L 74.02752 281.97971 
L 73.6704 282.411243 
L 73.31328 282.231438 
L 72.95616 282.680951 
L 72.59904 282.321341 
L 72.24192 282.860757 
L 71.8848 282.537107 
L 71.52768 282.357302 
L 71.17056 282.285379 
L 70.81344 282.519126 
L 70.45632 282.141535 
L 70.0992 282.357302 
L 69.74208 282.429224 
L 69.38496 282.986621 
L 69.02784 282.411243 
L 68.67072 282.96864 
L 68.3136 282.069613 
L 67.95648 282.519126 
L 67.59936 281.925769 
L 67.24224 283.364212 
L 66.88512 282.519126 
L 66.528 282.770854 
L 66.17088 282.285379 
L 65.81376 282.824796 
L 65.45664 281.907788 
L 65.09952 282.734893 
L 64.7424 282.914698 
L 64.38528 282.806815 
L 64.02816 282.62701 
L 63.67104 282.62701 
L 63.31392 282.662971 
L 62.9568 283.130465 
L 62.59968 283.328251 
L 62.24256 283.885648 
L 61.88544 283.903628 
L 61.52832 283.31027 
L 61.1712 284.083434 
L 60.81408 283.651901 
L 60.45696 284.407083 
L 60.09984 283.112484 
L 59.74272 284.64083 
L 59.3856 285.30611 
L 59.02848 284.496986 
L 58.67136 285.162266 
L 58.31424 285.378032 
L 57.95712 286.025332 
z
" style="fill:#1f77b4;fill-opacity:0.25;"/>
   </g>
   <g id="matplotlib.axis_1">
    <g id="xtick_1">
     <g id="line2d_1">
      <defs>
       <path d="M 0 0 
L 0 4.8 
" id="mb269c61f8d" style="stroke:#000000;"/>
      </defs>
      <g>
       <use style="stroke:#000000;" x="57.6" xlink:href="#mb269c61f8d" y="307.584"/>
      </g>
     </g>
     <g id="text_1">
      <!-- 0 -->
      <g transform="translate(54.8005 322.570625)scale(0.088 -0.088)">
       <defs>
        <path d="M 2034 4250 
Q 1547 4250 1301 3770 
Q 1056 3291 1056 2328 
Q 1056 1369 1301 889 
Q 1547 409 2034 409 
Q 2525 409 2770 889 
Q 3016 1369 3016 2328 
Q 3016 3291 2770 3770 
Q 2525 4250 2034 4250 
z
M 2034 4750 
Q 2819 4750 3233 4129 
Q 3647 3509 3647 2328 
Q 3647 1150 3233 529 
Q 2819 -91 2034 -91 
Q 1250 -91 836 529 
Q 422 1150 422 2328 
Q 422 3509 836 4129 
Q 1250 4750 2034 4750 
z
" id="DejaVuSans-30" transform="scale(0.015625)"/>
       </defs>
       <use xlink:href="#DejaVuSans-30"/>
      </g>
     </g>
    </g>
    <g id="xtick_2">
     <g id="line2d_2">
      <g>
       <use style="stroke:#000000;" x="129.024" xlink:href="#mb269c61f8d" y="307.584"/>
      </g>
     </g>
     <g id="text_2">
      <!-- 200 -->
      <g transform="translate(120.6255 322.570625)scale(0.088 -0.088)">
       <defs>
        <path d="M 1228 531 
L 3431 531 
L 3431 0 
L 469 0 
L 469 531 
Q 828 903 1448 1529 
Q 2069 2156 2228 2338 
Q 2531 2678 2651 2914 
Q 2772 3150 2772 3378 
Q 2772 3750 2511 3984 
Q 2250 4219 1831 4219 
Q 1534 4219 1204 4116 
Q 875 4013 500 3803 
L 500 4441 
Q 881 4594 1212 4672 
Q 1544 4750 1819 4750 
Q 2544 4750 2975 4387 
Q 3406 4025 3406 3419 
Q 3406 3131 3298 2873 
Q 3191 2616 2906 2266 
Q 2828 2175 2409 1742 
Q 1991 1309 1228 531 
z
" id="DejaVuSans-32" transform="scale(0.015625)"/>
       </defs>
       <use xlink:href="#DejaVuSans-32"/>
       <use x="63.623047" xlink:href="#DejaVuSans-30"/>
       <use x="127.246094" xlink:href="#DejaVuSans-30"/>
      </g>
     </g>
    </g>
    <g id="xtick_3">
     <g id="line2d_3">
      <g>
       <use style="stroke:#000000;" x="200.448" xlink:href="#mb269c61f8d" y="307.584"/>
      </g>
     </g>
     <g id="text_3">
      <!-- 400 -->
      <g transform="translate(192.0495 322.570625)scale(0.088 -0.088)">
       <defs>
        <path d="M 2419 4116 
L 825 1625 
L 2419 1625 
L 2419 4116 
z
M 2253 4666 
L 3047 4666 
L 3047 1625 
L 3713 1625 
L 3713 1100 
L 3047 1100 
L 3047 0 
L 2419 0 
L 2419 1100 
L 313 1100 
L 313 1709 
L 2253 4666 
z
" id="DejaVuSans-34" transform="scale(0.015625)"/>
       </defs>
       <use xlink:href="#DejaVuSans-34"/>
       <use x="63.623047" xlink:href="#DejaVuSans-30"/>
       <use x="127.246094" xlink:href="#DejaVuSans-30"/>
      </g>
     </g>
    </g>
    <g id="xtick_4">
     <g id="line2d_4">
      <g>
       <use style="stroke:#000000;" x="271.872" xlink:href="#mb269c61f8d" y="307.584"/>
      </g>
     </g>
     <g id="text_4">
      <!-- 600 -->
      <g transform="translate(263.4735 322.570625)scale(0.088 -0.088)">
       <defs>
        <path d="M 2113 2584 
Q 1688 2584 1439 2293 
Q 1191 2003 1191 1497 
Q 1191 994 1439 701 
Q 1688 409 2113 409 
Q 2538 409 2786 701 
Q 3034 994 3034 1497 
Q 3034 2003 2786 2293 
Q 2538 2584 2113 2584 
z
M 3366 4563 
L 3366 3988 
Q 3128 4100 2886 4159 
Q 2644 4219 2406 4219 
Q 1781 4219 1451 3797 
Q 1122 3375 1075 2522 
Q 1259 2794 1537 2939 
Q 1816 3084 2150 3084 
Q 2853 3084 3261 2657 
Q 3669 2231 3669 1497 
Q 3669 778 3244 343 
Q 2819 -91 2113 -91 
Q 1303 -91 875 529 
Q 447 1150 447 2328 
Q 447 3434 972 4092 
Q 1497 4750 2381 4750 
Q 2619 4750 2861 4703 
Q 3103 4656 3366 4563 
z
" id="DejaVuSans-36" transform="scale(0.015625)"/>
       </defs>
       <use xlink:href="#DejaVuSans-36"/>
       <use x="63.623047" xlink:href="#DejaVuSans-30"/>
       <use x="127.246094" xlink:href="#DejaVuSans-30"/>
      </g>
     </g>
    </g>
    <g id="xtick_5">
     <g id="line2d_5">
      <g>
       <use style="stroke:#000000;" x="343.296" xlink:href="#mb269c61f8d" y="307.584"/>
      </g>
     </g>
     <g id="text_5">
      <!-- 800 -->
      <g transform="translate(334.8975 322.570625)scale(0.088 -0.088)">
       <defs>
        <path d="M 2034 2216 
Q 1584 2216 1326 1975 
Q 1069 1734 1069 1313 
Q 1069 891 1326 650 
Q 1584 409 2034 409 
Q 2484 409 2743 651 
Q 3003 894 3003 1313 
Q 3003 1734 2745 1975 
Q 2488 2216 2034 2216 
z
M 1403 2484 
Q 997 2584 770 2862 
Q 544 3141 544 3541 
Q 544 4100 942 4425 
Q 1341 4750 2034 4750 
Q 2731 4750 3128 4425 
Q 3525 4100 3525 3541 
Q 3525 3141 3298 2862 
Q 3072 2584 2669 2484 
Q 3125 2378 3379 2068 
Q 3634 1759 3634 1313 
Q 3634 634 3220 271 
Q 2806 -91 2034 -91 
Q 1263 -91 848 271 
Q 434 634 434 1313 
Q 434 1759 690 2068 
Q 947 2378 1403 2484 
z
M 1172 3481 
Q 1172 3119 1398 2916 
Q 1625 2713 2034 2713 
Q 2441 2713 2670 2916 
Q 2900 3119 2900 3481 
Q 2900 3844 2670 4047 
Q 2441 4250 2034 4250 
Q 1625 4250 1398 4047 
Q 1172 3844 1172 3481 
z
" id="DejaVuSans-38" transform="scale(0.015625)"/>
       </defs>
       <use xlink:href="#DejaVuSans-38"/>
       <use x="63.623047" xlink:href="#DejaVuSans-30"/>
       <use x="127.246094" xlink:href="#DejaVuSans-30"/>
      </g>
     </g>
    </g>
    <g id="xtick_6">
     <g id="line2d_6">
      <g>
       <use style="stroke:#000000;" x="414.72" xlink:href="#mb269c61f8d" y="307.584"/>
      </g>
     </g>
     <g id="text_6">
      <!-- 1000 -->
      <g transform="translate(403.522 322.570625)scale(0.088 -0.088)">
       <defs>
        <path d="M 794 531 
L 1825 531 
L 1825 4091 
L 703 3866 
L 703 4441 
L 1819 4666 
L 2450 4666 
L 2450 531 
L 3481 531 
L 3481 0 
L 794 0 
L 794 531 
z
" id="DejaVuSans-31" transform="scale(0.015625)"/>
       </defs>
       <use xlink:href="#DejaVuSans-31"/>
       <use x="63.623047" xlink:href="#DejaVuSans-30"/>
       <use x="127.246094" xlink:href="#DejaVuSans-30"/>
       <use x="190.869141" xlink:href="#DejaVuSans-30"/>
      </g>
     </g>
    </g>
    <g id="text_7">
     <!-- Timestep -->
     <g transform="translate(214.03275 335.69525)scale(0.096 -0.096)">
      <defs>
       <path d="M -19 4666 
L 3928 4666 
L 3928 4134 
L 2272 4134 
L 2272 0 
L 1638 0 
L 1638 4134 
L -19 4134 
L -19 4666 
z
" id="DejaVuSans-54" transform="scale(0.015625)"/>
       <path d="M 603 3500 
L 1178 3500 
L 1178 0 
L 603 0 
L 603 3500 
z
M 603 4863 
L 1178 4863 
L 1178 4134 
L 603 4134 
L 603 4863 
z
" id="DejaVuSans-69" transform="scale(0.015625)"/>
       <path d="M 3328 2828 
Q 3544 3216 3844 3400 
Q 4144 3584 4550 3584 
Q 5097 3584 5394 3201 
Q 5691 2819 5691 2113 
L 5691 0 
L 5113 0 
L 5113 2094 
Q 5113 2597 4934 2840 
Q 4756 3084 4391 3084 
Q 3944 3084 3684 2787 
Q 3425 2491 3425 1978 
L 3425 0 
L 2847 0 
L 2847 2094 
Q 2847 2600 2669 2842 
Q 2491 3084 2119 3084 
Q 1678 3084 1418 2786 
Q 1159 2488 1159 1978 
L 1159 0 
L 581 0 
L 581 3500 
L 1159 3500 
L 1159 2956 
Q 1356 3278 1631 3431 
Q 1906 3584 2284 3584 
Q 2666 3584 2933 3390 
Q 3200 3197 3328 2828 
z
" id="DejaVuSans-6d" transform="scale(0.015625)"/>
       <path d="M 3597 1894 
L 3597 1613 
L 953 1613 
Q 991 1019 1311 708 
Q 1631 397 2203 397 
Q 2534 397 2845 478 
Q 3156 559 3463 722 
L 3463 178 
Q 3153 47 2828 -22 
Q 2503 -91 2169 -91 
Q 1331 -91 842 396 
Q 353 884 353 1716 
Q 353 2575 817 3079 
Q 1281 3584 2069 3584 
Q 2775 3584 3186 3129 
Q 3597 2675 3597 1894 
z
M 3022 2063 
Q 3016 2534 2758 2815 
Q 2500 3097 2075 3097 
Q 1594 3097 1305 2825 
Q 1016 2553 972 2059 
L 3022 2063 
z
" id="DejaVuSans-65" transform="scale(0.015625)"/>
       <path d="M 2834 3397 
L 2834 2853 
Q 2591 2978 2328 3040 
Q 2066 3103 1784 3103 
Q 1356 3103 1142 2972 
Q 928 2841 928 2578 
Q 928 2378 1081 2264 
Q 1234 2150 1697 2047 
L 1894 2003 
Q 2506 1872 2764 1633 
Q 3022 1394 3022 966 
Q 3022 478 2636 193 
Q 2250 -91 1575 -91 
Q 1294 -91 989 -36 
Q 684 19 347 128 
L 347 722 
Q 666 556 975 473 
Q 1284 391 1588 391 
Q 1994 391 2212 530 
Q 2431 669 2431 922 
Q 2431 1156 2273 1281 
Q 2116 1406 1581 1522 
L 1381 1569 
Q 847 1681 609 1914 
Q 372 2147 372 2553 
Q 372 3047 722 3315 
Q 1072 3584 1716 3584 
Q 2034 3584 2315 3537 
Q 2597 3491 2834 3397 
z
" id="DejaVuSans-73" transform="scale(0.015625)"/>
       <path d="M 1172 4494 
L 1172 3500 
L 2356 3500 
L 2356 3053 
L 1172 3053 
L 1172 1153 
Q 1172 725 1289 603 
Q 1406 481 1766 481 
L 2356 481 
L 2356 0 
L 1766 0 
Q 1100 0 847 248 
Q 594 497 594 1153 
L 594 3053 
L 172 3053 
L 172 3500 
L 594 3500 
L 594 4494 
L 1172 4494 
z
" id="DejaVuSans-74" transform="scale(0.015625)"/>
       <path d="M 1159 525 
L 1159 -1331 
L 581 -1331 
L 581 3500 
L 1159 3500 
L 1159 2969 
Q 1341 3281 1617 3432 
Q 1894 3584 2278 3584 
Q 2916 3584 3314 3078 
Q 3713 2572 3713 1747 
Q 3713 922 3314 415 
Q 2916 -91 2278 -91 
Q 1894 -91 1617 61 
Q 1341 213 1159 525 
z
M 3116 1747 
Q 3116 2381 2855 2742 
Q 2594 3103 2138 3103 
Q 1681 3103 1420 2742 
Q 1159 2381 1159 1747 
Q 1159 1113 1420 752 
Q 1681 391 2138 391 
Q 2594 391 2855 752 
Q 3116 1113 3116 1747 
z
" id="DejaVuSans-70" transform="scale(0.015625)"/>
      </defs>
      <use xlink:href="#DejaVuSans-54"/>
      <use x="57.958984" xlink:href="#DejaVuSans-69"/>
      <use x="85.742188" xlink:href="#DejaVuSans-6d"/>
      <use x="183.154297" xlink:href="#DejaVuSans-65"/>
      <use x="244.677734" xlink:href="#DejaVuSans-73"/>
      <use x="296.777344" xlink:href="#DejaVuSans-74"/>
      <use x="335.986328" xlink:href="#DejaVuSans-65"/>
      <use x="397.509766" xlink:href="#DejaVuSans-70"/>
     </g>
    </g>
   </g>
   <g id="matplotlib.axis_2">
    <g id="ytick_1">
     <g id="line2d_7">
      <defs>
       <path d="M 0 0 
L -4.8 0 
" id="mfbcb461e07" style="stroke:#000000;"/>
      </defs>
      <g>
       <use style="stroke:#000000;" x="57.6" xlink:href="#mfbcb461e07" y="293.199568"/>
      </g>
     </g>
     <g id="text_8">
      <!-- 0 -->
      <g transform="translate(43.701 296.54288)scale(0.088 -0.088)">
       <use xlink:href="#DejaVuSans-30"/>
      </g>
     </g>
    </g>
    <g id="ytick_2">
     <g id="line2d_8">
      <g>
       <use style="stroke:#000000;" x="57.6" xlink:href="#mfbcb461e07" y="257.238486"/>
      </g>
     </g>
     <g id="text_9">
      <!-- 5 -->
      <g transform="translate(43.701 260.581799)scale(0.088 -0.088)">
       <defs>
        <path d="M 691 4666 
L 3169 4666 
L 3169 4134 
L 1269 4134 
L 1269 2991 
Q 1406 3038 1543 3061 
Q 1681 3084 1819 3084 
Q 2600 3084 3056 2656 
Q 3513 2228 3513 1497 
Q 3513 744 3044 326 
Q 2575 -91 1722 -91 
Q 1428 -91 1123 -41 
Q 819 9 494 109 
L 494 744 
Q 775 591 1075 516 
Q 1375 441 1709 441 
Q 2250 441 2565 725 
Q 2881 1009 2881 1497 
Q 2881 1984 2565 2268 
Q 2250 2553 1709 2553 
Q 1456 2553 1204 2497 
Q 953 2441 691 2322 
L 691 4666 
z
" id="DejaVuSans-35" transform="scale(0.015625)"/>
       </defs>
       <use xlink:href="#DejaVuSans-35"/>
      </g>
     </g>
    </g>
    <g id="ytick_3">
     <g id="line2d_9">
      <g>
       <use style="stroke:#000000;" x="57.6" xlink:href="#mfbcb461e07" y="221.277405"/>
      </g>
     </g>
     <g id="text_10">
      <!-- 10 -->
      <g transform="translate(38.102 224.620718)scale(0.088 -0.088)">
       <use xlink:href="#DejaVuSans-31"/>
       <use x="63.623047" xlink:href="#DejaVuSans-30"/>
      </g>
     </g>
    </g>
    <g id="ytick_4">
     <g id="line2d_10">
      <g>
       <use style="stroke:#000000;" x="57.6" xlink:href="#mfbcb461e07" y="185.316324"/>
      </g>
     </g>
     <g id="text_11">
      <!-- 15 -->
      <g transform="translate(38.102 188.659637)scale(0.088 -0.088)">
       <use xlink:href="#DejaVuSans-31"/>
       <use x="63.623047" xlink:href="#DejaVuSans-35"/>
      </g>
     </g>
    </g>
    <g id="ytick_5">
     <g id="line2d_11">
      <g>
       <use style="stroke:#000000;" x="57.6" xlink:href="#mfbcb461e07" y="149.355243"/>
      </g>
     </g>
     <g id="text_12">
      <!-- 20 -->
      <g transform="translate(38.102 152.698556)scale(0.088 -0.088)">
       <use xlink:href="#DejaVuSans-32"/>
       <use x="63.623047" xlink:href="#DejaVuSans-30"/>
      </g>
     </g>
    </g>
    <g id="ytick_6">
     <g id="line2d_12">
      <g>
       <use style="stroke:#000000;" x="57.6" xlink:href="#mfbcb461e07" y="113.394162"/>
      </g>
     </g>
     <g id="text_13">
      <!-- 25 -->
      <g transform="translate(38.102 116.737475)scale(0.088 -0.088)">
       <use xlink:href="#DejaVuSans-32"/>
       <use x="63.623047" xlink:href="#DejaVuSans-35"/>
      </g>
     </g>
    </g>
    <g id="ytick_7">
     <g id="line2d_13">
      <g>
       <use style="stroke:#000000;" x="57.6" xlink:href="#mfbcb461e07" y="77.433081"/>
      </g>
     </g>
     <g id="text_14">
      <!-- 30 -->
      <g transform="translate(38.102 80.776394)scale(0.088 -0.088)">
       <defs>
        <path d="M 2597 2516 
Q 3050 2419 3304 2112 
Q 3559 1806 3559 1356 
Q 3559 666 3084 287 
Q 2609 -91 1734 -91 
Q 1441 -91 1130 -33 
Q 819 25 488 141 
L 488 750 
Q 750 597 1062 519 
Q 1375 441 1716 441 
Q 2309 441 2620 675 
Q 2931 909 2931 1356 
Q 2931 1769 2642 2001 
Q 2353 2234 1838 2234 
L 1294 2234 
L 1294 2753 
L 1863 2753 
Q 2328 2753 2575 2939 
Q 2822 3125 2822 3475 
Q 2822 3834 2567 4026 
Q 2313 4219 1838 4219 
Q 1578 4219 1281 4162 
Q 984 4106 628 3988 
L 628 4550 
Q 988 4650 1302 4700 
Q 1616 4750 1894 4750 
Q 2613 4750 3031 4423 
Q 3450 4097 3450 3541 
Q 3450 3153 3228 2886 
Q 3006 2619 2597 2516 
z
" id="DejaVuSans-33" transform="scale(0.015625)"/>
       </defs>
       <use xlink:href="#DejaVuSans-33"/>
       <use x="63.623047" xlink:href="#DejaVuSans-30"/>
      </g>
     </g>
    </g>
    <g id="ytick_8">
     <g id="line2d_14">
      <g>
       <use style="stroke:#000000;" x="57.6" xlink:href="#mfbcb461e07" y="41.472"/>
      </g>
     </g>
     <g id="text_15">
      <!-- 35 -->
      <g transform="translate(38.102 44.815313)scale(0.088 -0.088)">
       <use xlink:href="#DejaVuSans-33"/>
       <use x="63.623047" xlink:href="#DejaVuSans-35"/>
      </g>
     </g>
    </g>
    <g id="text_16">
     <!-- Reward -->
     <g transform="translate(32.1055 192.40425)rotate(-90)scale(0.096 -0.096)">
      <defs>
       <path d="M 2841 2188 
Q 3044 2119 3236 1894 
Q 3428 1669 3622 1275 
L 4263 0 
L 3584 0 
L 2988 1197 
Q 2756 1666 2539 1819 
Q 2322 1972 1947 1972 
L 1259 1972 
L 1259 0 
L 628 0 
L 628 4666 
L 2053 4666 
Q 2853 4666 3247 4331 
Q 3641 3997 3641 3322 
Q 3641 2881 3436 2590 
Q 3231 2300 2841 2188 
z
M 1259 4147 
L 1259 2491 
L 2053 2491 
Q 2509 2491 2742 2702 
Q 2975 2913 2975 3322 
Q 2975 3731 2742 3939 
Q 2509 4147 2053 4147 
L 1259 4147 
z
" id="DejaVuSans-52" transform="scale(0.015625)"/>
       <path d="M 269 3500 
L 844 3500 
L 1563 769 
L 2278 3500 
L 2956 3500 
L 3675 769 
L 4391 3500 
L 4966 3500 
L 4050 0 
L 3372 0 
L 2619 2869 
L 1863 0 
L 1184 0 
L 269 3500 
z
" id="DejaVuSans-77" transform="scale(0.015625)"/>
       <path d="M 2194 1759 
Q 1497 1759 1228 1600 
Q 959 1441 959 1056 
Q 959 750 1161 570 
Q 1363 391 1709 391 
Q 2188 391 2477 730 
Q 2766 1069 2766 1631 
L 2766 1759 
L 2194 1759 
z
M 3341 1997 
L 3341 0 
L 2766 0 
L 2766 531 
Q 2569 213 2275 61 
Q 1981 -91 1556 -91 
Q 1019 -91 701 211 
Q 384 513 384 1019 
Q 384 1609 779 1909 
Q 1175 2209 1959 2209 
L 2766 2209 
L 2766 2266 
Q 2766 2663 2505 2880 
Q 2244 3097 1772 3097 
Q 1472 3097 1187 3025 
Q 903 2953 641 2809 
L 641 3341 
Q 956 3463 1253 3523 
Q 1550 3584 1831 3584 
Q 2591 3584 2966 3190 
Q 3341 2797 3341 1997 
z
" id="DejaVuSans-61" transform="scale(0.015625)"/>
       <path d="M 2631 2963 
Q 2534 3019 2420 3045 
Q 2306 3072 2169 3072 
Q 1681 3072 1420 2755 
Q 1159 2438 1159 1844 
L 1159 0 
L 581 0 
L 581 3500 
L 1159 3500 
L 1159 2956 
Q 1341 3275 1631 3429 
Q 1922 3584 2338 3584 
Q 2397 3584 2469 3576 
Q 2541 3569 2628 3553 
L 2631 2963 
z
" id="DejaVuSans-72" transform="scale(0.015625)"/>
       <path d="M 2906 2969 
L 2906 4863 
L 3481 4863 
L 3481 0 
L 2906 0 
L 2906 525 
Q 2725 213 2448 61 
Q 2172 -91 1784 -91 
Q 1150 -91 751 415 
Q 353 922 353 1747 
Q 353 2572 751 3078 
Q 1150 3584 1784 3584 
Q 2172 3584 2448 3432 
Q 2725 3281 2906 2969 
z
M 947 1747 
Q 947 1113 1208 752 
Q 1469 391 1925 391 
Q 2381 391 2643 752 
Q 2906 1113 2906 1747 
Q 2906 2381 2643 2742 
Q 2381 3103 1925 3103 
Q 1469 3103 1208 2742 
Q 947 2381 947 1747 
z
" id="DejaVuSans-64" transform="scale(0.015625)"/>
      </defs>
      <use xlink:href="#DejaVuSans-52"/>
      <use x="64.982422" xlink:href="#DejaVuSans-65"/>
      <use x="126.505859" xlink:href="#DejaVuSans-77"/>
      <use x="208.292969" xlink:href="#DejaVuSans-61"/>
      <use x="269.572266" xlink:href="#DejaVuSans-72"/>
      <use x="308.935547" xlink:href="#DejaVuSans-64"/>
     </g>
    </g>
   </g>
   <g id="line2d_15">
    <path clip-path="url(#p17f2299663)" d="M 57.95712 286.29504 
L 58.31424 285.683702 
L 58.67136 285.755624 
L 59.02848 284.96448 
L 59.3856 285.647741 
L 59.74272 284.676791 
L 60.09984 284.245258 
L 60.45696 284.928519 
L 60.81408 284.317181 
L 61.1712 284.856597 
L 62.59968 283.921609 
L 62.9568 283.741803 
L 63.31392 283.274309 
L 63.67104 283.058543 
L 64.02816 283.382192 
L 64.38528 283.238348 
L 64.7424 283.849686 
L 65.09952 282.986621 
L 65.45664 282.734893 
L 66.17088 283.705842 
L 66.528 283.274309 
L 66.88512 283.166426 
L 67.24224 283.597959 
L 67.59936 283.130465 
L 67.95648 283.130465 
L 68.67072 283.382192 
L 69.02784 283.094504 
L 69.38496 283.274309 
L 69.74208 283.058543 
L 70.0992 283.022582 
L 70.45632 282.806815 
L 70.81344 283.058543 
L 71.17056 282.698932 
L 71.52768 283.346231 
L 71.8848 283.418154 
L 72.59904 282.698932 
L 72.95616 283.31027 
L 73.31328 282.878737 
L 73.6704 283.454115 
L 74.38464 282.267399 
L 74.74176 282.770854 
L 75.09888 282.914698 
L 75.456 283.454115 
L 75.81312 283.274309 
L 76.17024 282.770854 
L 76.52736 281.692022 
L 76.88448 282.411243 
L 77.2416 282.878737 
L 77.59872 282.30336 
L 78.31296 282.806815 
L 78.67008 282.411243 
L 79.0272 282.878737 
L 79.38432 282.519126 
L 79.74144 283.130465 
L 80.09856 282.62701 
L 80.8128 282.662971 
L 81.16992 283.418154 
L 81.52704 282.914698 
L 81.88416 282.986621 
L 82.24128 282.519126 
L 83.31264 283.094504 
L 83.66976 282.483165 
L 84.02688 282.806815 
L 84.384 282.087594 
L 84.74112 282.62701 
L 85.09824 282.447204 
L 85.45536 282.447204 
L 85.81248 283.166426 
L 86.1696 282.914698 
L 86.52672 282.339321 
L 87.24096 283.166426 
L 87.9552 282.339321 
L 88.31232 282.30336 
L 88.66944 283.166426 
L 89.02656 282.770854 
L 89.38368 283.130465 
L 89.7408 283.022582 
L 90.09792 283.238348 
L 90.81216 282.195477 
L 91.16928 283.382192 
L 91.5264 282.734893 
L 91.88352 282.62701 
L 92.24064 283.274309 
L 92.59776 283.418154 
L 92.95488 282.267399 
L 93.312 283.094504 
L 94.02624 283.166426 
L 94.38336 282.806815 
L 95.0976 282.447204 
L 95.81184 283.166426 
L 96.52608 282.62701 
L 97.24032 283.094504 
L 97.59744 283.022582 
L 97.95456 282.30336 
L 98.6688 283.058543 
L 99.02592 282.986621 
L 99.38304 282.087594 
L 99.74016 282.842776 
L 100.09728 282.519126 
L 100.4544 282.62701 
L 100.81152 282.483165 
L 101.52576 283.130465 
L 102.24 282.62701 
L 102.59712 282.62701 
L 102.95424 282.447204 
L 103.31136 283.526037 
L 104.0256 282.662971 
L 104.38272 283.166426 
L 105.09696 282.375282 
L 105.8112 283.274309 
L 106.16832 282.842776 
L 106.52544 283.022582 
L 106.88256 282.519126 
L 107.95392 282.591049 
L 108.31104 282.267399 
L 108.66816 283.094504 
L 109.02528 282.591049 
L 109.3824 283.022582 
L 109.73952 282.806815 
L 110.09664 283.490076 
L 110.45376 282.986621 
L 110.81088 282.770854 
L 111.168 283.058543 
L 111.88224 282.30336 
L 112.23936 282.267399 
L 112.59648 282.051632 
L 112.9536 283.166426 
L 113.31072 282.842776 
L 113.66784 282.914698 
L 114.02496 283.238348 
L 114.38208 283.022582 
L 114.7392 283.597959 
L 115.45344 282.447204 
L 115.81056 282.842776 
L 116.16768 282.842776 
L 116.5248 282.555088 
L 116.88192 282.662971 
L 117.23904 282.950659 
L 117.59616 282.30336 
L 117.95328 282.483165 
L 118.3104 282.483165 
L 118.66752 282.806815 
L 119.02464 282.483165 
L 119.38176 283.63392 
L 119.73888 282.878737 
L 120.096 282.698932 
L 120.45312 283.022582 
L 120.81024 282.770854 
L 121.16736 283.094504 
L 121.52448 282.519126 
L 121.8816 282.806815 
L 122.23872 282.662971 
L 122.59584 282.914698 
L 123.6672 282.914698 
L 124.02432 283.166426 
L 124.38144 282.519126 
L 125.09568 283.921609 
L 125.4528 283.382192 
L 125.80992 282.591049 
L 126.16704 282.986621 
L 126.52416 282.123555 
L 126.88128 282.842776 
L 127.2384 282.770854 
L 127.95264 282.267399 
L 128.30976 283.166426 
L 128.66688 282.375282 
L 129.024 283.022582 
L 129.38112 282.591049 
L 130.09536 282.734893 
L 130.45248 282.411243 
L 131.16672 283.31027 
L 131.52384 282.447204 
L 131.88096 282.555088 
L 132.23808 282.914698 
L 132.5952 282.483165 
L 132.95232 282.842776 
L 133.30944 282.375282 
L 133.66656 282.734893 
L 134.02368 282.339321 
L 134.3808 282.231438 
L 134.73792 283.202387 
L 135.09504 282.123555 
L 135.80928 282.806815 
L 136.1664 283.130465 
L 136.52352 282.734893 
L 137.23776 282.734893 
L 137.59488 283.382192 
L 138.30912 282.734893 
L 140.09472 282.483165 
L 140.45184 282.698932 
L 140.80896 282.267399 
L 141.16608 282.878737 
L 141.5232 282.62701 
L 141.88032 282.555088 
L 142.23744 282.62701 
L 142.59456 282.411243 
L 142.95168 282.62701 
L 143.66592 282.30336 
L 144.02304 283.058543 
L 144.38016 283.166426 
L 144.73728 282.591049 
L 145.0944 282.806815 
L 145.45152 282.375282 
L 146.16576 282.411243 
L 146.52288 283.166426 
L 146.88 282.447204 
L 147.23712 282.267399 
L 147.59424 282.519126 
L 147.95136 282.483165 
L 148.30848 281.835866 
L 148.6656 282.62701 
L 149.37984 282.806815 
L 149.73696 283.418154 
L 150.09408 282.447204 
L 150.4512 282.051632 
L 150.80832 282.375282 
L 151.16544 283.669881 
L 151.52256 282.195477 
L 151.87968 282.30336 
L 152.2368 282.267399 
L 152.59392 282.734893 
L 152.95104 282.591049 
L 153.30816 282.662971 
L 153.66528 283.202387 
L 154.0224 282.519126 
L 154.37952 283.058543 
L 154.73664 283.31027 
L 155.09376 282.878737 
L 155.45088 282.62701 
L 155.808 282.878737 
L 156.16512 282.555088 
L 156.52224 282.878737 
L 156.87936 282.770854 
L 157.5936 282.231438 
L 157.95072 282.914698 
L 158.30784 283.058543 
L 158.66496 282.015671 
L 159.02208 282.339321 
L 160.09344 282.231438 
L 160.45056 282.555088 
L 160.80768 282.483165 
L 161.1648 282.878737 
L 161.52192 282.447204 
L 161.87904 282.555088 
L 162.23616 283.130465 
L 162.59328 283.490076 
L 162.9504 282.734893 
L 163.30752 282.770854 
L 163.66464 282.375282 
L 164.02176 282.770854 
L 164.37888 282.483165 
L 164.736 283.130465 
L 165.09312 282.447204 
L 165.45024 282.662971 
L 165.80736 282.411243 
L 166.16448 282.878737 
L 166.5216 282.375282 
L 166.87872 282.770854 
L 167.23584 282.375282 
L 167.59296 283.130465 
L 167.95008 282.519126 
L 168.66432 282.734893 
L 169.02144 282.698932 
L 169.37856 282.447204 
L 169.73568 282.950659 
L 170.0928 283.058543 
L 170.44992 282.555088 
L 170.80704 283.346231 
L 171.16416 282.62701 
L 171.52128 282.231438 
L 171.8784 282.698932 
L 172.23552 282.231438 
L 172.59264 282.950659 
L 172.94976 282.519126 
L 173.664 282.842776 
L 174.37824 282.267399 
L 174.73536 282.375282 
L 175.09248 282.734893 
L 175.4496 283.31027 
L 176.16384 281.907788 
L 176.52096 282.591049 
L 177.2352 282.591049 
L 177.59232 282.375282 
L 179.37792 282.734893 
L 180.09216 282.267399 
L 180.8064 282.770854 
L 181.16352 282.519126 
L 181.52064 282.734893 
L 181.87776 282.159516 
L 182.23488 282.411243 
L 182.592 282.950659 
L 182.94912 282.30336 
L 183.30624 283.022582 
L 184.02048 283.094504 
L 184.3776 283.63392 
L 184.73472 282.734893 
L 185.09184 283.202387 
L 185.44896 283.166426 
L 185.80608 283.274309 
L 186.1632 282.231438 
L 186.52032 283.31027 
L 186.87744 283.130465 
L 187.23456 283.561998 
L 187.9488 281.943749 
L 188.30592 282.30336 
L 188.66304 282.195477 
L 189.02016 282.734893 
L 189.37728 282.195477 
L 189.7344 282.734893 
L 190.09152 282.267399 
L 190.44864 283.022582 
L 190.80576 282.878737 
L 191.16288 282.30336 
L 191.52 282.447204 
L 191.87712 282.339321 
L 192.59136 282.986621 
L 192.94848 282.375282 
L 193.3056 283.058543 
L 193.66272 281.835866 
L 194.01984 282.267399 
L 194.37696 282.231438 
L 194.73408 282.914698 
L 195.0912 282.411243 
L 195.80544 282.30336 
L 196.16256 282.662971 
L 196.51968 282.770854 
L 196.8768 282.662971 
L 197.23392 282.734893 
L 197.59104 283.274309 
L 198.30528 282.195477 
L 198.6624 282.62701 
L 199.01952 282.842776 
L 199.37664 282.375282 
L 199.73376 282.770854 
L 200.09088 282.950659 
L 200.448 282.914698 
L 200.80512 283.166426 
L 201.16224 283.166426 
L 201.51936 282.555088 
L 201.87648 282.842776 
L 202.2336 282.770854 
L 202.59072 282.231438 
L 202.94784 282.051632 
L 203.30496 282.339321 
L 203.66208 283.022582 
L 204.0192 282.770854 
L 204.37632 283.130465 
L 204.73344 282.806815 
L 205.09056 282.123555 
L 205.44768 282.62701 
L 205.8048 282.734893 
L 206.16192 281.97971 
L 206.51904 282.087594 
L 206.87616 282.662971 
L 207.23328 282.914698 
L 207.5904 282.447204 
L 207.94752 282.483165 
L 208.30464 282.375282 
L 208.66176 282.591049 
L 209.01888 282.231438 
L 209.73312 282.195477 
L 210.09024 282.519126 
L 210.44736 282.591049 
L 210.80448 282.195477 
L 211.1616 282.734893 
L 211.51872 282.662971 
L 211.87584 282.267399 
L 212.23296 282.519126 
L 212.59008 282.62701 
L 212.9472 282.267399 
L 213.30432 282.770854 
L 213.66144 282.806815 
L 214.01856 282.267399 
L 214.37568 282.087594 
L 214.7328 283.31027 
L 215.08992 282.267399 
L 215.44704 283.166426 
L 215.80416 282.195477 
L 216.87552 282.30336 
L 217.23264 282.375282 
L 217.58976 283.058543 
L 217.94688 282.411243 
L 218.66112 283.130465 
L 219.01824 281.97971 
L 219.37536 281.97971 
L 220.0896 282.375282 
L 220.44672 282.159516 
L 220.80384 282.195477 
L 221.16096 283.202387 
L 221.51808 282.698932 
L 221.8752 282.986621 
L 222.23232 282.770854 
L 222.58944 282.411243 
L 222.94656 283.130465 
L 223.6608 282.195477 
L 224.01792 282.267399 
L 224.37504 282.986621 
L 224.73216 282.519126 
L 225.4464 282.411243 
L 225.80352 282.267399 
L 226.16064 282.842776 
L 226.51776 282.447204 
L 226.87488 282.339321 
L 227.232 282.698932 
L 227.58912 282.770854 
L 227.94624 282.339321 
L 228.30336 282.62701 
L 228.66048 282.483165 
L 229.0176 281.548177 
L 229.73184 282.30336 
L 230.08896 283.058543 
L 230.8032 282.806815 
L 231.16032 281.763944 
L 231.51744 282.662971 
L 231.87456 283.130465 
L 232.5888 282.123555 
L 232.94592 281.97971 
L 233.30304 282.734893 
L 233.66016 282.698932 
L 234.01728 282.878737 
L 234.3744 282.375282 
L 234.73152 283.058543 
L 235.08864 282.62701 
L 235.44576 283.130465 
L 235.80288 282.62701 
L 236.16 281.763944 
L 236.51712 282.519126 
L 237.9456 282.842776 
L 238.30272 282.30336 
L 238.65984 282.591049 
L 239.01696 282.339321 
L 239.37408 282.519126 
L 239.7312 283.022582 
L 240.08832 282.842776 
L 240.44544 282.195477 
L 240.80256 282.159516 
L 241.15968 282.62701 
L 241.5168 282.015671 
L 241.87392 282.698932 
L 242.23104 281.907788 
L 242.58816 283.274309 
L 242.94528 281.943749 
L 243.3024 282.411243 
L 243.65952 283.418154 
L 244.01664 282.555088 
L 244.37376 282.483165 
L 244.73088 282.62701 
L 245.088 282.267399 
L 245.80224 282.734893 
L 246.15936 282.519126 
L 246.51648 281.835866 
L 246.8736 282.878737 
L 247.23072 281.907788 
L 247.94496 282.411243 
L 248.30208 282.519126 
L 248.6592 282.123555 
L 249.01632 283.022582 
L 249.37344 282.662971 
L 249.73056 282.914698 
L 250.4448 282.519126 
L 250.80192 282.411243 
L 251.15904 282.842776 
L 251.51616 281.835866 
L 252.58752 283.058543 
L 252.94464 281.835866 
L 253.30176 282.555088 
L 253.65888 282.734893 
L 254.016 282.30336 
L 254.37312 282.878737 
L 254.73024 282.339321 
L 255.08736 282.051632 
L 255.44448 282.123555 
L 255.8016 283.274309 
L 256.15872 282.519126 
L 256.51584 283.094504 
L 257.23008 282.051632 
L 257.5872 282.555088 
L 257.94432 282.662971 
L 258.30144 281.97971 
L 258.65856 283.31027 
L 259.01568 281.943749 
L 259.3728 282.519126 
L 259.72992 282.159516 
L 260.08704 282.231438 
L 260.44416 282.950659 
L 260.80128 282.339321 
L 261.1584 282.591049 
L 261.51552 282.986621 
L 261.87264 282.30336 
L 262.22976 282.806815 
L 262.58688 282.123555 
L 262.944 282.698932 
L 263.30112 282.267399 
L 263.65824 282.375282 
L 264.37248 282.159516 
L 264.7296 281.97971 
L 265.08672 282.734893 
L 265.44384 282.159516 
L 265.80096 282.159516 
L 266.15808 282.806815 
L 266.87232 282.986621 
L 267.22944 282.30336 
L 267.58656 282.015671 
L 267.94368 282.914698 
L 268.3008 282.734893 
L 268.65792 281.97971 
L 269.01504 282.842776 
L 269.37216 282.159516 
L 269.72928 282.914698 
L 270.44352 281.871827 
L 270.80064 282.734893 
L 271.15776 282.195477 
L 271.872 282.087594 
L 272.22912 282.62701 
L 272.58624 282.62701 
L 272.94336 282.339321 
L 273.30048 282.734893 
L 273.6576 282.878737 
L 274.72896 282.411243 
L 275.08608 282.842776 
L 275.4432 282.770854 
L 276.15744 282.267399 
L 276.51456 282.842776 
L 276.87168 281.907788 
L 277.58592 283.130465 
L 277.94304 282.591049 
L 278.30016 282.591049 
L 278.65728 282.195477 
L 279.37152 282.662971 
L 279.72864 282.698932 
L 280.08576 282.339321 
L 280.44288 283.274309 
L 280.8 282.591049 
L 281.15712 282.195477 
L 281.51424 282.62701 
L 281.87136 282.195477 
L 282.22848 282.339321 
L 282.5856 282.842776 
L 282.94272 282.483165 
L 283.29984 282.806815 
L 283.65696 282.015671 
L 284.01408 283.238348 
L 284.3712 282.519126 
L 284.72832 282.123555 
L 285.44256 282.806815 
L 286.1568 282.267399 
L 286.51392 282.339321 
L 286.87104 282.051632 
L 287.22816 282.950659 
L 287.58528 282.015671 
L 287.9424 283.058543 
L 288.29952 282.62701 
L 288.65664 282.447204 
L 289.01376 282.878737 
L 289.37088 283.058543 
L 290.08512 281.97971 
L 290.44224 282.087594 
L 290.79936 282.698932 
L 291.15648 282.339321 
L 291.5136 282.878737 
L 291.87072 282.842776 
L 292.22784 282.30336 
L 292.58496 282.842776 
L 292.94208 283.022582 
L 293.2992 281.835866 
L 293.65632 282.123555 
L 294.01344 282.842776 
L 294.72768 282.555088 
L 295.0848 282.123555 
L 295.44192 282.806815 
L 295.79904 282.267399 
L 296.15616 282.123555 
L 296.51328 282.375282 
L 296.8704 282.087594 
L 297.22752 282.483165 
L 297.58464 283.274309 
L 297.94176 282.231438 
L 298.29888 282.231438 
L 299.01312 283.166426 
L 299.37024 282.231438 
L 299.72736 283.058543 
L 300.08448 282.195477 
L 300.4416 282.662971 
L 301.15584 282.447204 
L 301.51296 282.734893 
L 301.87008 282.087594 
L 302.2272 281.763944 
L 302.58432 282.555088 
L 302.94144 281.907788 
L 303.29856 282.339321 
L 303.65568 282.123555 
L 304.0128 282.195477 
L 304.36992 282.051632 
L 305.08416 282.806815 
L 305.44128 282.30336 
L 305.7984 282.375282 
L 306.51264 282.195477 
L 306.86976 282.483165 
L 307.22688 282.986621 
L 307.584 281.692022 
L 307.94112 282.734893 
L 308.29824 282.051632 
L 308.65536 281.799905 
L 309.01248 282.267399 
L 309.3696 282.015671 
L 309.72672 282.555088 
L 310.08384 281.907788 
L 310.44096 282.914698 
L 310.79808 282.483165 
L 311.1552 282.734893 
L 311.51232 283.238348 
L 311.86944 282.950659 
L 312.22656 281.476255 
L 312.58368 282.447204 
L 312.9408 282.267399 
L 313.29792 282.339321 
L 313.65504 282.878737 
L 314.01216 282.950659 
L 314.36928 282.555088 
L 314.7264 282.914698 
L 315.08352 282.555088 
L 315.44064 282.770854 
L 315.79776 281.656061 
L 316.512 282.231438 
L 316.86912 282.195477 
L 317.22624 282.62701 
L 317.58336 282.734893 
L 317.94048 282.159516 
L 318.2976 282.591049 
L 318.65472 282.30336 
L 319.01184 282.914698 
L 319.36896 282.698932 
L 319.72608 281.548177 
L 320.0832 282.231438 
L 320.79744 282.555088 
L 321.15456 282.591049 
L 321.51168 282.159516 
L 321.8688 282.555088 
L 322.22592 282.375282 
L 322.58304 282.411243 
L 322.94016 282.30336 
L 323.29728 282.62701 
L 323.6544 283.202387 
L 324.01152 281.799905 
L 324.36864 281.907788 
L 324.72576 282.591049 
L 325.08288 281.835866 
L 325.44 281.763944 
L 325.79712 282.231438 
L 326.15424 282.411243 
L 326.86848 281.943749 
L 327.2256 282.267399 
L 327.58272 283.022582 
L 327.93984 283.094504 
L 328.29696 282.878737 
L 328.65408 282.30336 
L 329.0112 282.770854 
L 329.36832 281.476255 
L 330.08256 282.447204 
L 330.7968 282.447204 
L 331.15392 283.526037 
L 331.86816 282.555088 
L 333.29664 282.519126 
L 333.65376 282.231438 
L 334.01088 282.411243 
L 334.368 282.195477 
L 334.72512 282.411243 
L 335.08224 281.799905 
L 335.43936 282.698932 
L 336.1536 281.907788 
L 336.51072 283.705842 
L 336.86784 281.97971 
L 337.58208 282.555088 
L 337.9392 282.159516 
L 338.29632 282.087594 
L 338.65344 283.454115 
L 339.01056 282.159516 
L 339.36768 282.411243 
L 339.7248 281.943749 
L 340.08192 282.375282 
L 340.43904 282.519126 
L 340.79616 283.382192 
L 341.15328 282.483165 
L 341.86752 283.022582 
L 342.22464 283.058543 
L 342.58176 282.051632 
L 342.93888 282.195477 
L 343.296 282.519126 
L 343.65312 283.022582 
L 344.36736 282.375282 
L 344.72448 282.483165 
L 345.0816 282.914698 
L 345.43872 282.519126 
L 346.15296 282.483165 
L 346.51008 282.519126 
L 346.8672 282.195477 
L 347.22432 281.620099 
L 347.58144 282.267399 
L 347.93856 282.447204 
L 348.29568 282.231438 
L 348.6528 282.878737 
L 349.00992 282.842776 
L 349.36704 281.871827 
L 349.72416 282.62701 
L 350.4384 282.806815 
L 350.79552 283.022582 
L 351.15264 282.447204 
L 351.86688 282.662971 
L 352.224 282.30336 
L 352.58112 282.195477 
L 352.93824 281.871827 
L 353.29536 282.231438 
L 353.65248 282.339321 
L 354.0096 282.62701 
L 354.36672 282.662971 
L 354.72384 282.123555 
L 355.08096 282.698932 
L 355.43808 281.799905 
L 355.7952 282.914698 
L 356.15232 282.087594 
L 356.50944 282.770854 
L 356.86656 282.950659 
L 357.22368 282.339321 
L 357.5808 282.483165 
L 357.93792 282.123555 
L 358.65216 282.734893 
L 359.00928 282.195477 
L 360.08064 282.483165 
L 360.43776 282.123555 
L 360.79488 282.555088 
L 361.152 282.662971 
L 361.50912 282.447204 
L 361.86624 283.094504 
L 362.22336 282.267399 
L 362.58048 282.519126 
L 362.9376 282.051632 
L 363.29472 282.698932 
L 363.65184 282.159516 
L 364.00896 282.591049 
L 364.36608 281.799905 
L 364.7232 283.058543 
L 365.08032 282.447204 
L 365.43744 282.159516 
L 365.79456 282.734893 
L 366.15168 282.375282 
L 366.5088 281.548177 
L 366.86592 281.440294 
L 367.22304 282.662971 
L 367.58016 282.123555 
L 367.93728 282.231438 
L 368.2944 282.842776 
L 368.65152 282.519126 
L 369.00864 282.555088 
L 369.36576 281.620099 
L 369.72288 282.483165 
L 370.08 282.662971 
L 370.43712 282.231438 
L 370.79424 282.159516 
L 371.15136 282.698932 
L 371.50848 282.447204 
L 372.22272 282.447204 
L 372.57984 281.620099 
L 372.93696 282.051632 
L 373.29408 282.950659 
L 373.6512 282.051632 
L 374.00832 282.662971 
L 374.36544 282.842776 
L 375.07968 282.051632 
L 375.4368 282.339321 
L 375.79392 282.447204 
L 376.15104 282.30336 
L 376.50816 282.411243 
L 376.86528 282.267399 
L 377.2224 283.022582 
L 377.57952 281.727983 
L 377.93664 282.447204 
L 378.29376 281.943749 
L 378.65088 282.267399 
L 379.008 282.339321 
L 379.36512 283.022582 
L 379.72224 282.051632 
L 380.07936 282.051632 
L 380.43648 282.62701 
L 380.7936 282.483165 
L 381.50784 282.483165 
L 381.86496 282.770854 
L 382.22208 283.346231 
L 382.5792 281.943749 
L 383.29344 282.555088 
L 383.65056 282.519126 
L 384.72192 282.878737 
L 385.79328 282.051632 
L 386.1504 282.986621 
L 386.50752 282.30336 
L 386.86464 282.411243 
L 387.22176 282.195477 
L 387.936 283.130465 
L 388.29312 282.62701 
L 388.65024 281.907788 
L 389.00736 281.97971 
L 389.36448 282.447204 
L 389.7216 282.375282 
L 390.07872 282.62701 
L 390.43584 282.519126 
L 390.79296 282.662971 
L 391.15008 282.662971 
L 391.5072 282.087594 
L 391.86432 282.447204 
L 392.22144 282.267399 
L 392.57856 282.878737 
L 392.93568 282.62701 
L 393.64992 283.238348 
L 394.00704 282.30336 
L 394.36416 282.051632 
L 394.72128 282.662971 
L 395.0784 282.159516 
L 395.79264 282.555088 
L 396.14976 282.30336 
L 396.50688 282.375282 
L 396.864 283.058543 
L 397.22112 282.123555 
L 397.57824 282.051632 
L 397.93536 282.339321 
L 399.00672 282.30336 
L 399.36384 282.770854 
L 399.72096 282.30336 
L 400.07808 282.734893 
L 400.79232 282.662971 
L 401.14944 282.015671 
L 401.50656 282.62701 
L 401.86368 281.943749 
L 402.2208 282.195477 
L 402.93504 282.159516 
L 403.29216 282.339321 
L 403.64928 282.267399 
L 404.0064 282.878737 
L 404.36352 282.411243 
L 404.72064 282.375282 
L 405.43488 281.943749 
L 405.792 282.842776 
L 406.14912 282.519126 
L 406.50624 283.166426 
L 406.86336 282.555088 
L 407.22048 283.022582 
L 407.5776 282.411243 
L 407.93472 282.555088 
L 408.29184 282.986621 
L 408.64896 281.907788 
L 409.00608 281.871827 
L 409.3632 282.591049 
L 409.72032 282.62701 
L 410.07744 282.806815 
L 410.43456 282.698932 
L 410.79168 282.375282 
L 411.1488 282.591049 
L 411.86304 282.231438 
L 412.22016 282.986621 
L 412.57728 282.123555 
L 413.64864 282.483165 
L 414.36288 281.656061 
L 414.72 282.519126 
L 414.72 282.519126 
" style="fill:none;stroke:#1f77b4;stroke-linecap:square;stroke-width:1.2;"/>
   </g>
   <g id="patch_3">
    <path d="M 57.6 307.584 
L 57.6 41.472 
" style="fill:none;stroke:#000000;stroke-linecap:square;stroke-linejoin:miter;"/>
   </g>
   <g id="patch_4">
    <path d="M 414.72 307.584 
L 414.72 41.472 
" style="fill:none;stroke:#000000;stroke-linecap:square;stroke-linejoin:miter;"/>
   </g>
   <g id="patch_5">
    <path d="M 57.6 307.584 
L 414.72 307.584 
" style="fill:none;stroke:#000000;stroke-linecap:square;stroke-linejoin:miter;"/>
   </g>
   <g id="patch_6">
    <path d="M 57.6 41.472 
L 414.72 41.472 
" style="fill:none;stroke:#000000;stroke-linecap:square;stroke-linejoin:miter;"/>
   </g>
   <g id="text_17">
    <!-- Training - PGPE - Slimevolley -->
    <g transform="translate(167.53425 35.472)scale(0.096 -0.096)">
     <defs>
      <path d="M 3513 2113 
L 3513 0 
L 2938 0 
L 2938 2094 
Q 2938 2591 2744 2837 
Q 2550 3084 2163 3084 
Q 1697 3084 1428 2787 
Q 1159 2491 1159 1978 
L 1159 0 
L 581 0 
L 581 3500 
L 1159 3500 
L 1159 2956 
Q 1366 3272 1645 3428 
Q 1925 3584 2291 3584 
Q 2894 3584 3203 3211 
Q 3513 2838 3513 2113 
z
" id="DejaVuSans-6e" transform="scale(0.015625)"/>
      <path d="M 2906 1791 
Q 2906 2416 2648 2759 
Q 2391 3103 1925 3103 
Q 1463 3103 1205 2759 
Q 947 2416 947 1791 
Q 947 1169 1205 825 
Q 1463 481 1925 481 
Q 2391 481 2648 825 
Q 2906 1169 2906 1791 
z
M 3481 434 
Q 3481 -459 3084 -895 
Q 2688 -1331 1869 -1331 
Q 1566 -1331 1297 -1286 
Q 1028 -1241 775 -1147 
L 775 -588 
Q 1028 -725 1275 -790 
Q 1522 -856 1778 -856 
Q 2344 -856 2625 -561 
Q 2906 -266 2906 331 
L 2906 616 
Q 2728 306 2450 153 
Q 2172 0 1784 0 
Q 1141 0 747 490 
Q 353 981 353 1791 
Q 353 2603 747 3093 
Q 1141 3584 1784 3584 
Q 2172 3584 2450 3431 
Q 2728 3278 2906 2969 
L 2906 3500 
L 3481 3500 
L 3481 434 
z
" id="DejaVuSans-67" transform="scale(0.015625)"/>
      <path id="DejaVuSans-20" transform="scale(0.015625)"/>
      <path d="M 313 2009 
L 1997 2009 
L 1997 1497 
L 313 1497 
L 313 2009 
z
" id="DejaVuSans-2d" transform="scale(0.015625)"/>
      <path d="M 1259 4147 
L 1259 2394 
L 2053 2394 
Q 2494 2394 2734 2622 
Q 2975 2850 2975 3272 
Q 2975 3691 2734 3919 
Q 2494 4147 2053 4147 
L 1259 4147 
z
M 628 4666 
L 2053 4666 
Q 2838 4666 3239 4311 
Q 3641 3956 3641 3272 
Q 3641 2581 3239 2228 
Q 2838 1875 2053 1875 
L 1259 1875 
L 1259 0 
L 628 0 
L 628 4666 
z
" id="DejaVuSans-50" transform="scale(0.015625)"/>
      <path d="M 3809 666 
L 3809 1919 
L 2778 1919 
L 2778 2438 
L 4434 2438 
L 4434 434 
Q 4069 175 3628 42 
Q 3188 -91 2688 -91 
Q 1594 -91 976 548 
Q 359 1188 359 2328 
Q 359 3472 976 4111 
Q 1594 4750 2688 4750 
Q 3144 4750 3555 4637 
Q 3966 4525 4313 4306 
L 4313 3634 
Q 3963 3931 3569 4081 
Q 3175 4231 2741 4231 
Q 1884 4231 1454 3753 
Q 1025 3275 1025 2328 
Q 1025 1384 1454 906 
Q 1884 428 2741 428 
Q 3075 428 3337 486 
Q 3600 544 3809 666 
z
" id="DejaVuSans-47" transform="scale(0.015625)"/>
      <path d="M 628 4666 
L 3578 4666 
L 3578 4134 
L 1259 4134 
L 1259 2753 
L 3481 2753 
L 3481 2222 
L 1259 2222 
L 1259 531 
L 3634 531 
L 3634 0 
L 628 0 
L 628 4666 
z
" id="DejaVuSans-45" transform="scale(0.015625)"/>
      <path d="M 3425 4513 
L 3425 3897 
Q 3066 4069 2747 4153 
Q 2428 4238 2131 4238 
Q 1616 4238 1336 4038 
Q 1056 3838 1056 3469 
Q 1056 3159 1242 3001 
Q 1428 2844 1947 2747 
L 2328 2669 
Q 3034 2534 3370 2195 
Q 3706 1856 3706 1288 
Q 3706 609 3251 259 
Q 2797 -91 1919 -91 
Q 1588 -91 1214 -16 
Q 841 59 441 206 
L 441 856 
Q 825 641 1194 531 
Q 1563 422 1919 422 
Q 2459 422 2753 634 
Q 3047 847 3047 1241 
Q 3047 1584 2836 1778 
Q 2625 1972 2144 2069 
L 1759 2144 
Q 1053 2284 737 2584 
Q 422 2884 422 3419 
Q 422 4038 858 4394 
Q 1294 4750 2059 4750 
Q 2388 4750 2728 4690 
Q 3069 4631 3425 4513 
z
" id="DejaVuSans-53" transform="scale(0.015625)"/>
      <path d="M 603 4863 
L 1178 4863 
L 1178 0 
L 603 0 
L 603 4863 
z
" id="DejaVuSans-6c" transform="scale(0.015625)"/>
      <path d="M 191 3500 
L 800 3500 
L 1894 563 
L 2988 3500 
L 3597 3500 
L 2284 0 
L 1503 0 
L 191 3500 
z
" id="DejaVuSans-76" transform="scale(0.015625)"/>
      <path d="M 1959 3097 
Q 1497 3097 1228 2736 
Q 959 2375 959 1747 
Q 959 1119 1226 758 
Q 1494 397 1959 397 
Q 2419 397 2687 759 
Q 2956 1122 2956 1747 
Q 2956 2369 2687 2733 
Q 2419 3097 1959 3097 
z
M 1959 3584 
Q 2709 3584 3137 3096 
Q 3566 2609 3566 1747 
Q 3566 888 3137 398 
Q 2709 -91 1959 -91 
Q 1206 -91 779 398 
Q 353 888 353 1747 
Q 353 2609 779 3096 
Q 1206 3584 1959 3584 
z
" id="DejaVuSans-6f" transform="scale(0.015625)"/>
      <path d="M 2059 -325 
Q 1816 -950 1584 -1140 
Q 1353 -1331 966 -1331 
L 506 -1331 
L 506 -850 
L 844 -850 
Q 1081 -850 1212 -737 
Q 1344 -625 1503 -206 
L 1606 56 
L 191 3500 
L 800 3500 
L 1894 763 
L 2988 3500 
L 3597 3500 
L 2059 -325 
z
" id="DejaVuSans-79" transform="scale(0.015625)"/>
     </defs>
     <use xlink:href="#DejaVuSans-54"/>
     <use x="46.333984" xlink:href="#DejaVuSans-72"/>
     <use x="87.447266" xlink:href="#DejaVuSans-61"/>
     <use x="148.726562" xlink:href="#DejaVuSans-69"/>
     <use x="176.509766" xlink:href="#DejaVuSans-6e"/>
     <use x="239.888672" xlink:href="#DejaVuSans-69"/>
     <use x="267.671875" xlink:href="#DejaVuSans-6e"/>
     <use x="331.050781" xlink:href="#DejaVuSans-67"/>
     <use x="394.527344" xlink:href="#DejaVuSans-20"/>
     <use x="426.314453" xlink:href="#DejaVuSans-2d"/>
     <use x="462.398438" xlink:href="#DejaVuSans-20"/>
     <use x="494.185547" xlink:href="#DejaVuSans-50"/>
     <use x="554.488281" xlink:href="#DejaVuSans-47"/>
     <use x="631.978516" xlink:href="#DejaVuSans-50"/>
     <use x="692.28125" xlink:href="#DejaVuSans-45"/>
     <use x="755.464844" xlink:href="#DejaVuSans-20"/>
     <use x="787.251953" xlink:href="#DejaVuSans-2d"/>
     <use x="823.335938" xlink:href="#DejaVuSans-20"/>
     <use x="855.123047" xlink:href="#DejaVuSans-53"/>
     <use x="918.599609" xlink:href="#DejaVuSans-6c"/>
     <use x="946.382812" xlink:href="#DejaVuSans-69"/>
     <use x="974.166016" xlink:href="#DejaVuSans-6d"/>
     <use x="1071.578125" xlink:href="#DejaVuSans-65"/>
     <use x="1133.101562" xlink:href="#DejaVuSans-76"/>
     <use x="1192.28125" xlink:href="#DejaVuSans-6f"/>
     <use x="1253.462891" xlink:href="#DejaVuSans-6c"/>
     <use x="1281.246094" xlink:href="#DejaVuSans-6c"/>
     <use x="1309.029297" xlink:href="#DejaVuSans-65"/>
     <use x="1370.552734" xlink:href="#DejaVuSans-79"/>
    </g>
   </g>
  </g>
 </g>
 <defs>
  <clipPath id="p17f2299663">
   <rect height="266.112" width="357.12" x="57.6" y="41.472"/>
  </clipPath>
 </defs>
</svg>
