<?xml version="1.0" encoding="utf-8" standalone="no"?>
<!DOCTYPE svg PUBLIC "-//W3C//DTD SVG 1.1//EN"
  "http://www.w3.org/Graphics/SVG/1.1/DTD/svg11.dtd">
<svg height="345.6pt" version="1.1" viewBox="0 0 460.8 345.6" width="460.8pt" xmlns="http://www.w3.org/2000/svg" xmlns:xlink="http://www.w3.org/1999/xlink">
 <metadata>
  <rdf:RDF xmlns:cc="http://creativecommons.org/ns#" xmlns:dc="http://purl.org/dc/elements/1.1/" xmlns:rdf="http://www.w3.org/1999/02/22-rdf-syntax-ns#">
   <cc:Work>
    <dc:type rdf:resource="http://purl.org/dc/dcmitype/StillImage"/>
    <dc:date>2021-07-22T16:46:47.448119</dc:date>
    <dc:format>image/svg+xml</dc:format>
    <dc:creator>
     <cc:Agent>
      <dc:title>Matplotlib v3.4.2, https://matplotlib.org/</dc:title>
     </cc:Agent>
    </dc:creator>
   </cc:Work>
  </rdf:RDF>
 </metadata>
 <defs>
  <style type="text/css">*{stroke-linecap:butt;stroke-linejoin:round;}</style>
 </defs>
 <g id="figure_1">
  <g id="patch_1">
   <path d="M 0 345.6 
L 460.8 345.6 
L 460.8 0 
L 0 0 
z
" style="fill:#ffffff;"/>
  </g>
  <g id="axes_1">
   <g id="patch_2">
    <path d="M 57.6 307.584 
L 414.72 307.584 
L 414.72 41.472 
L 57.6 41.472 
z
" style="fill:#ffffff;"/>
   </g>
   <g id="PolyCollection_1">
    <path clip-path="url(#p63536df989)" d="M 73.832727 283.939589 
L 73.832727 286.924359 
L 74.158359 287.553678 
L 74.48399 286.456865 
L 74.809622 286.223118 
L 75.135253 287.176086 
L 75.460884 287.607619 
L 75.786516 287.373872 
L 76.112147 287.014262 
L 76.437779 285.503896 
L 76.76341 286.924359 
L 77.089042 286.996281 
L 77.414673 287.265989 
L 77.740305 285.396013 
L 78.065936 285.827546 
L 78.391567 287.427814 
L 78.717199 287.661561 
L 79.04283 287.679542 
L 79.368462 287.122145 
L 79.694093 284.982461 
L 80.019725 284.047472 
L 80.345356 285.611779 
L 80.670988 283.597959 
L 80.996619 286.456865 
L 81.32225 285.144285 
L 81.647882 283.651901 
L 81.973513 285.647741 
L 82.299145 286.438884 
L 82.624776 286.510806 
L 82.950408 284.209297 
L 83.276039 283.202387 
L 83.60167 287.086184 
L 83.927302 286.151196 
L 84.252933 285.935429 
L 84.578565 285.431974 
L 84.904196 284.856597 
L 85.229828 286.726573 
L 85.555459 286.870417 
L 85.881091 284.425064 
L 86.206722 287.517717 
L 86.532353 285.000441 
L 86.857985 284.568908 
L 87.183616 286.29504 
L 87.509248 287.014262 
L 87.834879 286.942339 
L 88.160511 286.151196 
L 88.486142 285.28813 
L 88.811774 286.079274 
L 89.137405 287.517717 
L 89.463036 284.281219 
L 89.788668 286.510806 
L 90.114299 283.561998 
L 90.439931 284.065453 
L 90.765562 284.425064 
L 91.091194 283.130465 
L 91.416825 283.130465 
L 91.742456 284.209297 
L 92.068088 283.274309 
L 92.393719 286.870417 
L 92.719351 285.863507 
L 93.044982 282.698932 
L 93.370614 284.065453 
L 93.696245 282.770854 
L 94.021877 282.555088 
L 94.347508 287.158106 
L 94.673139 286.007351 
L 94.998771 282.842776 
L 95.324402 284.209297 
L 95.650034 287.158106 
L 95.975665 285.072363 
L 96.301297 286.510806 
L 96.626928 285.719663 
L 96.952559 286.798495 
L 97.278191 284.496986 
L 97.603822 284.209297 
L 97.929454 283.705842 
L 98.255085 283.130465 
L 98.580717 287.158106 
L 98.906348 282.986621 
L 99.23198 283.63392 
L 99.557611 283.777764 
L 99.883242 284.425064 
L 100.208874 285.719663 
L 100.534505 283.346231 
L 100.860137 285.28813 
L 101.185768 283.058543 
L 101.5114 283.921609 
L 101.837031 283.130465 
L 102.162663 283.274309 
L 102.488294 283.705842 
L 102.813925 283.346231 
L 103.139557 285.431974 
L 103.465188 282.986621 
L 103.79082 282.986621 
L 104.116451 284.64083 
L 104.442083 282.339321 
L 104.767714 285.144285 
L 105.093345 284.784675 
L 105.418977 282.339321 
L 105.744608 286.942339 
L 106.07024 285.647741 
L 106.395871 286.654651 
L 106.721503 282.842776 
L 107.047134 282.770854 
L 107.372766 283.490076 
L 107.698397 287.373872 
L 108.024028 285.072363 
L 108.34966 286.007351 
L 108.675291 283.993531 
L 109.000923 284.425064 
L 109.326554 284.209297 
L 109.652186 286.582729 
L 109.977817 284.784675 
L 110.303449 285.216208 
L 110.62908 284.281219 
L 110.954711 283.490076 
L 111.280343 283.274309 
L 111.605974 283.561998 
L 111.931606 283.058543 
L 112.257237 284.065453 
L 112.582869 283.418154 
L 112.9085 285.791585 
L 113.234131 284.64083 
L 113.559763 285.000441 
L 113.885394 283.202387 
L 114.211026 284.712752 
L 114.536657 283.63392 
L 114.862289 283.705842 
L 115.18792 283.561998 
L 115.513552 286.654651 
L 115.839183 282.842776 
L 116.164814 283.705842 
L 116.490446 283.130465 
L 116.816077 285.072363 
L 117.141709 284.496986 
L 117.46734 283.777764 
L 117.792972 285.360052 
L 118.118603 283.202387 
L 118.444235 283.274309 
L 118.769866 283.490076 
L 119.095497 285.144285 
L 119.421129 283.921609 
L 119.74676 286.007351 
L 120.072392 283.130465 
L 120.398023 284.856597 
L 120.723655 285.503896 
L 121.049286 284.712752 
L 121.374917 283.849686 
L 121.700549 284.281219 
L 122.02618 286.438884 
L 122.351812 282.986621 
L 122.677443 283.921609 
L 123.003075 285.072363 
L 123.328706 283.274309 
L 123.654338 282.914698 
L 123.979969 283.274309 
L 124.3056 284.209297 
L 124.631232 284.209297 
L 124.956863 285.28813 
L 125.282495 284.425064 
L 125.608126 284.065453 
L 125.933758 283.561998 
L 126.259389 284.496986 
L 126.585021 284.353142 
L 126.910652 283.705842 
L 127.236283 283.561998 
L 127.561915 284.353142 
L 127.887546 284.928519 
L 128.213178 285.144285 
L 128.538809 283.993531 
L 128.864441 283.490076 
L 129.190072 283.849686 
L 129.515703 284.856597 
L 129.841335 284.856597 
L 130.166966 283.921609 
L 130.492598 283.921609 
L 130.818229 284.64083 
L 131.143861 284.137375 
L 131.469492 284.64083 
L 131.795124 283.993531 
L 132.120755 286.223118 
L 132.446386 282.914698 
L 132.772018 285.144285 
L 133.097649 284.281219 
L 133.423281 283.849686 
L 133.748912 284.856597 
L 134.074544 285.719663 
L 134.400175 285.863507 
L 134.725807 284.784675 
L 135.051438 284.425064 
L 135.377069 285.360052 
L 135.702701 286.942339 
L 136.028332 283.63392 
L 136.353964 284.712752 
L 136.679595 283.849686 
L 137.005227 284.784675 
L 137.330858 286.079274 
L 137.656489 284.712752 
L 137.982121 284.568908 
L 138.307752 283.274309 
L 138.633384 282.698932 
L 138.959015 285.000441 
L 139.284647 286.079274 
L 139.610278 283.274309 
L 139.93591 283.849686 
L 140.261541 284.353142 
L 140.587172 283.921609 
L 140.912804 285.072363 
L 141.238435 285.431974 
L 141.564067 284.065453 
L 141.889698 287.445795 
L 142.21533 284.712752 
L 142.540961 286.798495 
L 142.866593 284.64083 
L 143.192224 287.373872 
L 143.517855 283.849686 
L 143.843487 284.209297 
L 144.169118 284.065453 
L 144.49475 285.072363 
L 144.820381 284.784675 
L 145.146013 285.503896 
L 145.471644 286.007351 
L 145.797275 284.496986 
L 146.122907 284.425064 
L 146.448538 282.698932 
L 146.77417 285.28813 
L 147.099801 285.575818 
L 147.425433 285.216208 
L 147.751064 286.798495 
L 148.076696 287.014262 
L 148.402327 285.503896 
L 148.727958 284.712752 
L 149.05359 286.654651 
L 149.379221 285.072363 
L 149.704853 284.568908 
L 150.030484 285.216208 
L 150.356116 284.209297 
L 150.681747 285.216208 
L 151.007378 284.568908 
L 151.33301 286.438884 
L 151.658641 286.007351 
L 151.984273 284.425064 
L 152.309904 285.431974 
L 152.635536 286.726573 
L 152.961167 285.719663 
L 153.286799 286.510806 
L 153.61243 285.863507 
L 153.938061 284.64083 
L 154.263693 283.921609 
L 154.589324 286.29504 
L 154.914956 285.935429 
L 155.240587 286.942339 
L 155.566219 287.086184 
L 155.89185 286.726573 
L 156.217482 284.137375 
L 156.543113 286.942339 
L 156.868744 284.64083 
L 157.194376 285.575818 
L 157.520007 285.863507 
L 157.845639 286.942339 
L 158.17127 283.63392 
L 158.496902 286.438884 
L 158.822533 286.223118 
L 159.148164 285.503896 
L 159.473796 287.517717 
L 159.799427 286.582729 
L 160.125059 286.079274 
L 160.45069 284.64083 
L 160.776322 285.791585 
L 161.101953 286.151196 
L 161.427585 287.014262 
L 161.753216 283.705842 
L 162.078847 285.28813 
L 162.404479 286.654651 
L 162.73011 287.733483 
L 163.055742 286.798495 
L 163.381373 284.928519 
L 163.707005 285.647741 
L 164.032636 284.568908 
L 164.358268 286.798495 
L 164.683899 287.373872 
L 165.00953 283.705842 
L 165.335162 287.230028 
L 165.660793 285.791585 
L 165.986425 287.94925 
L 166.312056 287.230028 
L 166.637688 287.086184 
L 166.963319 284.784675 
L 167.28895 286.29504 
L 167.614582 285.144285 
L 167.940213 285.647741 
L 168.265845 287.30195 
L 168.591476 284.64083 
L 168.917108 286.798495 
L 169.242739 286.29504 
L 169.568371 287.373872 
L 169.894002 286.438884 
L 170.219633 284.784675 
L 170.545265 286.582729 
L 170.870896 287.589639 
L 171.196528 287.373872 
L 171.522159 287.94925 
L 171.847791 287.014262 
L 172.173422 284.712752 
L 172.499054 286.007351 
L 172.824685 286.798495 
L 173.150316 285.503896 
L 173.475948 286.438884 
L 173.801579 287.014262 
L 174.127211 286.151196 
L 174.452842 285.647741 
L 174.778474 285.360052 
L 175.104105 285.503896 
L 175.429736 288.668471 
L 175.755368 284.065453 
L 176.080999 286.582729 
L 176.406631 285.575818 
L 176.732262 285.575818 
L 177.057894 286.151196 
L 177.383525 286.582729 
L 177.709157 287.158106 
L 178.034788 286.438884 
L 178.360419 287.445795 
L 178.686051 286.510806 
L 179.011682 287.30195 
L 179.337314 286.151196 
L 179.662945 284.712752 
L 179.988577 284.928519 
L 180.314208 286.079274 
L 180.63984 285.28813 
L 180.965471 286.654651 
L 181.291102 286.870417 
L 181.616734 285.791585 
L 181.942365 286.151196 
L 182.267997 286.438884 
L 182.593628 284.281219 
L 182.91926 286.438884 
L 183.244891 286.582729 
L 183.570522 285.216208 
L 183.896154 285.28813 
L 184.221785 287.589639 
L 184.547417 285.431974 
L 184.873048 286.798495 
L 185.19868 286.798495 
L 185.524311 287.589639 
L 185.849943 285.575818 
L 186.175574 286.079274 
L 186.501205 286.079274 
L 186.826837 287.086184 
L 187.152468 285.431974 
L 187.4781 286.582729 
L 187.803731 284.856597 
L 188.129363 287.086184 
L 188.454994 287.30195 
L 188.780626 287.94925 
L 189.106257 285.791585 
L 189.431888 286.510806 
L 189.75752 285.216208 
L 190.083151 284.784675 
L 190.408783 286.223118 
L 190.734414 286.079274 
L 191.060046 284.928519 
L 191.385677 283.705842 
L 191.711308 288.380783 
L 192.03694 287.014262 
L 192.362571 284.928519 
L 192.688203 286.726573 
L 193.013834 285.575818 
L 193.339466 286.438884 
L 193.665097 287.373872 
L 193.990729 286.510806 
L 194.31636 284.353142 
L 194.641991 288.093094 
L 194.967623 286.151196 
L 195.293254 286.366962 
L 195.618886 285.072363 
L 195.944517 285.935429 
L 196.270149 286.151196 
L 196.59578 285.360052 
L 196.921412 286.366962 
L 197.247043 284.353142 
L 197.572674 284.712752 
L 197.898306 285.360052 
L 198.223937 287.230028 
L 198.549569 286.366962 
L 198.8752 286.510806 
L 199.200832 286.582729 
L 199.526463 284.712752 
L 199.852094 284.928519 
L 200.177726 287.014262 
L 200.503357 286.223118 
L 200.828989 286.079274 
L 201.15462 286.654651 
L 201.480252 286.510806 
L 201.805883 284.784675 
L 202.131515 286.510806 
L 202.457146 284.64083 
L 202.782777 287.086184 
L 203.108409 285.863507 
L 203.43404 285.647741 
L 203.759672 286.726573 
L 204.085303 285.000441 
L 204.410935 286.223118 
L 204.736566 285.719663 
L 205.062198 284.568908 
L 205.387829 286.29504 
L 205.71346 285.791585 
L 206.039092 286.007351 
L 206.364723 283.777764 
L 206.690355 286.438884 
L 207.015986 284.784675 
L 207.341618 286.223118 
L 207.667249 284.928519 
L 207.99288 284.784675 
L 208.318512 285.791585 
L 208.644143 284.928519 
L 208.969775 285.791585 
L 209.295406 286.366962 
L 209.621038 284.784675 
L 209.946669 285.000441 
L 210.272301 283.63392 
L 210.597932 285.28813 
L 210.923563 285.863507 
L 211.249195 285.935429 
L 211.574826 285.575818 
L 211.900458 284.856597 
L 212.226089 285.216208 
L 212.551721 287.733483 
L 212.877352 284.928519 
L 213.202983 285.575818 
L 213.528615 286.079274 
L 213.854246 284.281219 
L 214.179878 286.582729 
L 214.505509 283.63392 
L 214.831141 286.510806 
L 215.156772 284.281219 
L 215.482404 285.863507 
L 215.808035 287.158106 
L 216.133666 284.856597 
L 216.459298 286.223118 
L 216.784929 284.64083 
L 217.110561 286.942339 
L 217.436192 284.64083 
L 217.761824 286.582729 
L 218.087455 287.445795 
L 218.413087 285.503896 
L 218.738718 285.072363 
L 219.064349 285.575818 
L 219.389981 286.223118 
L 219.715612 285.144285 
L 220.041244 284.281219 
L 220.366875 285.503896 
L 220.692507 285.503896 
L 221.018138 286.510806 
L 221.343769 286.870417 
L 221.669401 286.726573 
L 221.995032 286.870417 
L 222.320664 286.151196 
L 222.646295 287.373872 
L 222.971927 287.158106 
L 223.297558 285.072363 
L 223.62319 287.517717 
L 223.948821 285.647741 
L 224.274452 285.935429 
L 224.600084 285.863507 
L 224.925715 286.798495 
L 225.251347 286.079274 
L 225.576978 285.28813 
L 225.90261 286.223118 
L 226.228241 285.935429 
L 226.553873 285.360052 
L 226.879504 287.086184 
L 227.205135 285.575818 
L 227.530767 285.935429 
L 227.856398 286.151196 
L 228.18203 285.575818 
L 228.507661 287.158106 
L 228.833293 285.431974 
L 229.158924 288.165016 
L 229.484555 286.29504 
L 229.810187 286.726573 
L 230.135818 285.000441 
L 230.46145 285.072363 
L 230.787081 286.438884 
L 231.112713 285.647741 
L 231.438344 288.021172 
L 231.763976 286.654651 
L 232.089607 286.438884 
L 232.415238 286.079274 
L 232.74087 286.151196 
L 233.066501 285.935429 
L 233.392133 286.726573 
L 233.717764 285.863507 
L 234.043396 284.425064 
L 234.369027 285.503896 
L 234.694659 285.216208 
L 235.02029 285.360052 
L 235.345921 285.28813 
L 235.671553 284.568908 
L 235.997184 285.360052 
L 236.322816 286.798495 
L 236.648447 284.137375 
L 236.974079 287.014262 
L 237.29971 286.223118 
L 237.625341 285.000441 
L 237.950973 286.942339 
L 238.276604 285.000441 
L 238.602236 286.151196 
L 238.927867 284.496986 
L 239.253499 286.223118 
L 239.57913 285.575818 
L 239.904762 285.863507 
L 240.230393 284.64083 
L 240.556024 287.445795 
L 240.881656 285.216208 
L 241.207287 285.28813 
L 241.532919 285.431974 
L 241.85855 285.216208 
L 242.184182 285.575818 
L 242.509813 285.503896 
L 242.835445 285.935429 
L 243.161076 286.942339 
L 243.486707 286.870417 
L 243.812339 286.151196 
L 244.13797 285.28813 
L 244.463602 287.086184 
L 244.789233 285.935429 
L 245.114865 286.870417 
L 245.440496 285.072363 
L 245.766127 285.575818 
L 246.091759 286.942339 
L 246.41739 288.380783 
L 246.743022 286.438884 
L 247.068653 286.582729 
L 247.394285 286.654651 
L 247.719916 286.366962 
L 248.045548 286.582729 
L 248.371179 286.29504 
L 248.69681 285.216208 
L 249.022442 286.726573 
L 249.348073 285.935429 
L 249.673705 285.360052 
L 249.999336 286.870417 
L 250.324968 284.856597 
L 250.650599 284.496986 
L 250.976231 286.942339 
L 251.301862 287.589639 
L 251.627493 285.719663 
L 251.953125 286.438884 
L 252.278756 286.510806 
L 252.604388 287.014262 
L 252.930019 287.661561 
L 253.255651 285.935429 
L 253.581282 284.712752 
L 253.906913 287.517717 
L 254.232545 286.007351 
L 254.558176 285.791585 
L 254.883808 286.654651 
L 255.209439 285.647741 
L 255.535071 286.151196 
L 255.860702 286.870417 
L 256.186334 284.496986 
L 256.511965 286.223118 
L 256.837596 286.798495 
L 257.163228 285.719663 
L 257.488859 286.510806 
L 257.814491 287.158106 
L 258.140122 287.086184 
L 258.465754 286.726573 
L 258.791385 286.079274 
L 259.117017 286.942339 
L 259.442648 286.798495 
L 259.768279 285.216208 
L 260.093911 287.014262 
L 260.419542 286.870417 
L 260.745174 286.510806 
L 261.070805 286.582729 
L 261.396437 287.086184 
L 261.722068 288.452705 
L 262.047699 286.582729 
L 262.373331 286.007351 
L 262.698962 283.418154 
L 263.024594 285.431974 
L 263.350225 286.582729 
L 263.675857 286.726573 
L 264.001488 286.582729 
L 264.32712 286.942339 
L 264.652751 287.517717 
L 264.978382 288.236938 
L 265.304014 287.086184 
L 265.629645 286.007351 
L 265.955277 285.28813 
L 266.280908 285.791585 
L 266.60654 285.072363 
L 266.932171 287.014262 
L 267.257802 286.798495 
L 267.583434 286.438884 
L 267.909065 287.014262 
L 268.234697 287.373872 
L 268.560328 285.28813 
L 268.88596 286.582729 
L 269.211591 286.079274 
L 269.537223 286.870417 
L 269.862854 286.654651 
L 270.188485 285.216208 
L 270.514117 286.798495 
L 270.839748 286.366962 
L 271.16538 286.870417 
L 271.491011 285.072363 
L 271.816643 286.726573 
L 272.142274 286.223118 
L 272.467906 287.014262 
L 272.793537 285.935429 
L 273.119168 286.654651 
L 273.4448 287.30195 
L 273.770431 286.726573 
L 274.096063 286.942339 
L 274.421694 286.798495 
L 274.747326 287.661561 
L 275.072957 285.360052 
L 275.398588 286.151196 
L 275.72422 287.805405 
L 276.049851 286.438884 
L 276.375483 286.510806 
L 276.701114 286.29504 
L 277.026746 285.719663 
L 277.352377 287.158106 
L 277.678009 287.661561 
L 278.00364 287.086184 
L 278.329271 285.431974 
L 278.654903 285.791585 
L 278.980534 287.733483 
L 279.306166 286.582729 
L 279.631797 287.445795 
L 279.957429 286.798495 
L 280.28306 286.223118 
L 280.608692 287.014262 
L 280.934323 286.870417 
L 281.259954 285.647741 
L 281.585586 285.647741 
L 281.911217 285.863507 
L 282.236849 284.425064 
L 282.56248 286.582729 
L 282.888112 286.223118 
L 283.213743 286.079274 
L 283.539374 287.158106 
L 283.865006 285.503896 
L 284.190637 286.510806 
L 284.516269 286.438884 
L 284.8419 285.575818 
L 285.167532 285.144285 
L 285.493163 286.870417 
L 285.818795 287.014262 
L 286.144426 286.726573 
L 286.470057 287.230028 
L 286.795689 286.726573 
L 287.12132 286.726573 
L 287.446952 285.216208 
L 287.772583 285.863507 
L 288.098215 287.373872 
L 288.423846 286.582729 
L 288.749478 286.582729 
L 289.075109 285.072363 
L 289.40074 286.366962 
L 289.726372 287.014262 
L 290.052003 286.870417 
L 290.377635 286.438884 
L 290.703266 287.30195 
L 291.028898 286.726573 
L 291.354529 287.30195 
L 291.68016 287.086184 
L 292.005792 286.079274 
L 292.331423 285.719663 
L 292.657055 286.654651 
L 292.982686 285.719663 
L 293.308318 285.863507 
L 293.633949 285.431974 
L 293.959581 287.30195 
L 294.285212 286.007351 
L 294.610843 286.654651 
L 294.936475 286.654651 
L 295.262106 286.582729 
L 295.587738 286.870417 
L 295.913369 286.870417 
L 296.239001 285.935429 
L 296.564632 286.582729 
L 296.890264 285.144285 
L 297.215895 285.28813 
L 297.541526 286.582729 
L 297.867158 285.431974 
L 298.192789 288.165016 
L 298.518421 287.014262 
L 298.844052 287.230028 
L 299.169684 287.086184 
L 299.495315 286.654651 
L 299.820946 286.151196 
L 300.146578 286.29504 
L 300.472209 286.151196 
L 300.797841 287.014262 
L 301.123472 286.942339 
L 301.449104 288.021172 
L 301.774735 286.079274 
L 302.100367 286.870417 
L 302.425998 287.086184 
L 302.751629 286.510806 
L 303.077261 285.575818 
L 303.402892 287.086184 
L 303.728524 287.373872 
L 304.054155 285.575818 
L 304.379787 285.431974 
L 304.705418 288.236938 
L 305.03105 287.445795 
L 305.356681 286.510806 
L 305.682312 286.870417 
L 306.007944 286.510806 
L 306.333575 287.661561 
L 306.659207 286.798495 
L 306.984838 287.158106 
L 307.31047 287.30195 
L 307.636101 286.223118 
L 307.961732 286.510806 
L 308.287364 286.942339 
L 308.612995 286.870417 
L 308.938627 286.079274 
L 309.264258 286.726573 
L 309.58989 285.935429 
L 309.915521 287.94925 
L 310.241153 286.438884 
L 310.566784 286.438884 
L 310.892415 286.510806 
L 311.218047 285.719663 
L 311.543678 286.438884 
L 311.86931 286.942339 
L 312.194941 285.360052 
L 312.520573 287.661561 
L 312.846204 287.158106 
L 313.171836 286.510806 
L 313.497467 286.582729 
L 313.823098 286.582729 
L 314.14873 284.712752 
L 314.474361 286.870417 
L 314.799993 287.445795 
L 315.125624 286.870417 
L 315.451256 287.517717 
L 315.776887 286.223118 
L 316.102518 287.230028 
L 316.42815 286.29504 
L 316.753781 285.791585 
L 317.079413 286.870417 
L 317.405044 288.236938 
L 317.730676 287.661561 
L 318.056307 286.654651 
L 318.381939 286.870417 
L 318.70757 287.517717 
L 319.033201 287.877328 
L 319.358833 287.014262 
L 319.684464 285.935429 
L 320.010096 287.086184 
L 320.335727 286.223118 
L 320.661359 286.654651 
L 320.98699 287.086184 
L 321.312622 287.30195 
L 321.638253 287.445795 
L 321.963884 285.863507 
L 322.289516 286.079274 
L 322.615147 285.072363 
L 322.940779 286.582729 
L 323.26641 285.503896 
L 323.592042 285.000441 
L 323.917673 286.582729 
L 324.243304 287.158106 
L 324.568936 286.654651 
L 324.894567 286.510806 
L 325.220199 287.230028 
L 325.54583 287.158106 
L 325.871462 286.29504 
L 326.197093 285.863507 
L 326.522725 286.438884 
L 326.848356 286.654651 
L 327.173987 286.438884 
L 327.499619 286.223118 
L 327.82525 287.373872 
L 328.150882 286.654651 
L 328.476513 286.870417 
L 328.802145 286.007351 
L 329.127776 286.438884 
L 329.453407 284.856597 
L 329.779039 287.230028 
L 330.10467 285.431974 
L 330.430302 287.014262 
L 330.755933 287.445795 
L 331.081565 286.223118 
L 331.407196 287.94925 
L 331.732828 285.935429 
L 332.058459 287.517717 
L 332.38409 286.582729 
L 332.709722 286.223118 
L 333.035353 285.791585 
L 333.360985 287.517717 
L 333.686616 286.079274 
L 334.012248 286.582729 
L 334.337879 287.158106 
L 334.663511 286.798495 
L 334.989142 285.360052 
L 335.314773 286.438884 
L 335.640405 287.589639 
L 335.966036 286.079274 
L 336.291668 285.431974 
L 336.617299 286.079274 
L 336.942931 287.94925 
L 337.268562 285.360052 
L 337.594193 285.647741 
L 337.919825 285.072363 
L 338.245456 286.223118 
L 338.571088 286.654651 
L 338.896719 285.863507 
L 339.222351 287.086184 
L 339.547982 285.144285 
L 339.873614 286.007351 
L 340.199245 286.151196 
L 340.524876 286.29504 
L 340.850508 286.942339 
L 341.176139 286.726573 
L 341.501771 287.158106 
L 341.827402 284.568908 
L 342.153034 287.086184 
L 342.478665 286.29504 
L 342.804297 287.733483 
L 343.129928 286.29504 
L 343.455559 286.438884 
L 343.781191 286.151196 
L 344.106822 287.805405 
L 344.432454 286.29504 
L 344.758085 285.000441 
L 345.083717 286.510806 
L 345.409348 287.014262 
L 345.734979 286.079274 
L 346.060611 286.654651 
L 346.386242 286.366962 
L 346.711874 285.503896 
L 347.037505 287.517717 
L 347.363137 287.445795 
L 347.688768 284.64083 
L 348.0144 286.942339 
L 348.340031 285.935429 
L 348.665662 286.366962 
L 348.991294 287.733483 
L 349.316925 286.007351 
L 349.642557 287.373872 
L 349.968188 285.935429 
L 350.29382 285.791585 
L 350.619451 285.935429 
L 350.945083 286.798495 
L 351.270714 286.654651 
L 351.596345 287.30195 
L 351.921977 286.942339 
L 352.247608 286.942339 
L 352.57324 286.870417 
L 352.898871 286.654651 
L 353.224503 284.856597 
L 353.550134 287.733483 
L 353.875765 286.870417 
L 354.201397 286.654651 
L 354.527028 286.151196 
L 354.85266 287.014262 
L 355.178291 284.568908 
L 355.503923 287.30195 
L 355.829554 286.870417 
L 356.155186 286.079274 
L 356.480817 286.870417 
L 356.806448 287.589639 
L 357.13208 286.29504 
L 357.457711 285.431974 
L 357.783343 286.007351 
L 358.108974 285.863507 
L 358.434606 287.086184 
L 358.760237 285.144285 
L 359.085869 286.510806 
L 359.4115 286.438884 
L 359.737131 287.230028 
L 360.062763 284.281219 
L 360.388394 285.647741 
L 360.714026 287.086184 
L 361.039657 286.438884 
L 361.365289 286.151196 
L 361.69092 286.798495 
L 362.016551 285.791585 
L 362.342183 286.438884 
L 362.667814 286.870417 
L 362.993446 286.798495 
L 363.319077 286.366962 
L 363.644709 285.503896 
L 363.97034 286.726573 
L 364.295972 285.503896 
L 364.621603 286.079274 
L 364.947234 286.007351 
L 365.272866 285.144285 
L 365.598497 287.086184 
L 365.924129 286.223118 
L 366.24976 287.733483 
L 366.575392 286.870417 
L 366.901023 286.438884 
L 367.226655 286.223118 
L 367.552286 286.654651 
L 367.877917 286.726573 
L 368.203549 286.223118 
L 368.52918 287.445795 
L 368.854812 285.863507 
L 369.180443 286.223118 
L 369.506075 287.014262 
L 369.831706 286.079274 
L 370.157337 286.366962 
L 370.482969 285.000441 
L 370.8086 286.654651 
L 371.134232 285.719663 
L 371.459863 287.014262 
L 371.785495 286.798495 
L 372.111126 287.230028 
L 372.436758 286.007351 
L 372.762389 286.942339 
L 373.08802 287.517717 
L 373.413652 285.431974 
L 373.739283 288.093094 
L 374.064915 286.870417 
L 374.390546 286.438884 
L 374.716178 287.30195 
L 375.041809 286.223118 
L 375.367441 286.798495 
L 375.693072 287.014262 
L 376.018703 287.589639 
L 376.344335 286.942339 
L 376.669966 284.568908 
L 376.995598 286.942339 
L 377.321229 287.086184 
L 377.646861 285.863507 
L 377.972492 286.223118 
L 378.298123 286.870417 
L 378.623755 285.647741 
L 378.949386 286.726573 
L 379.275018 286.942339 
L 379.600649 285.863507 
L 379.926281 286.870417 
L 380.251912 285.360052 
L 380.577544 287.158106 
L 380.903175 286.582729 
L 381.228806 287.014262 
L 381.554438 286.726573 
L 381.880069 286.582729 
L 382.205701 286.366962 
L 382.531332 286.942339 
L 382.856964 287.230028 
L 383.182595 287.014262 
L 383.508226 286.29504 
L 383.833858 286.29504 
L 384.159489 284.712752 
L 384.485121 286.942339 
L 384.810752 286.726573 
L 385.136384 286.942339 
L 385.462015 286.079274 
L 385.787647 287.014262 
L 386.113278 287.158106 
L 386.438909 285.719663 
L 386.764541 286.654651 
L 387.090172 287.733483 
L 387.415804 286.942339 
L 387.741435 287.445795 
L 388.067067 286.438884 
L 388.392698 285.216208 
L 388.71833 286.942339 
L 389.043961 286.942339 
L 389.369592 286.726573 
L 389.695224 285.000441 
L 390.020855 285.072363 
L 390.346487 287.230028 
L 390.672118 287.517717 
L 390.99775 286.438884 
L 391.323381 287.661561 
L 391.649012 286.151196 
L 391.974644 284.568908 
L 392.300275 286.151196 
L 392.625907 285.360052 
L 392.951538 286.726573 
L 393.27717 285.935429 
L 393.602801 285.863507 
L 393.928433 288.021172 
L 394.254064 286.726573 
L 394.579695 286.870417 
L 394.905327 286.582729 
L 395.230958 287.733483 
L 395.55659 286.29504 
L 395.882221 286.079274 
L 396.207853 286.870417 
L 396.533484 287.373872 
L 396.859116 286.366962 
L 397.184747 286.510806 
L 397.510378 287.445795 
L 397.83601 286.007351 
L 398.161641 285.989371 
L 398.487273 282.62701 
L 398.487273 282.62701 
L 398.487273 282.62701 
L 398.161641 283.490076 
L 397.83601 283.561998 
L 397.510378 284.137375 
L 397.184747 283.202387 
L 396.859116 282.698932 
L 396.533484 282.411243 
L 396.207853 283.63392 
L 395.882221 282.123555 
L 395.55659 284.64083 
L 395.230958 282.123555 
L 394.905327 283.202387 
L 394.579695 282.62701 
L 394.254064 284.281219 
L 393.928433 283.130465 
L 393.602801 282.914698 
L 393.27717 282.267399 
L 392.951538 282.698932 
L 392.625907 282.339321 
L 392.300275 284.281219 
L 391.974644 282.483165 
L 391.649012 282.914698 
L 391.323381 283.130465 
L 390.99775 281.404333 
L 390.672118 286.079274 
L 390.346487 285.647741 
L 390.020855 282.842776 
L 389.695224 282.483165 
L 389.369592 284.137375 
L 389.043961 282.914698 
L 388.71833 284.64083 
L 388.392698 282.770854 
L 388.067067 283.490076 
L 387.741435 285.000441 
L 387.415804 283.561998 
L 387.090172 285.431974 
L 386.764541 285.28813 
L 386.438909 283.346231 
L 386.113278 285.935429 
L 385.787647 285.360052 
L 385.462015 282.051632 
L 385.136384 283.418154 
L 384.810752 285.072363 
L 384.485121 284.281219 
L 384.159489 283.418154 
L 383.833858 283.274309 
L 383.508226 284.64083 
L 383.182595 283.63392 
L 382.856964 284.353142 
L 382.531332 284.209297 
L 382.205701 283.130465 
L 381.880069 282.914698 
L 381.554438 283.346231 
L 381.228806 284.712752 
L 380.903175 283.705842 
L 380.577544 286.079274 
L 380.251912 283.202387 
L 379.926281 283.921609 
L 379.600649 282.986621 
L 379.275018 284.137375 
L 378.949386 285.719663 
L 378.623755 283.849686 
L 378.298123 285.503896 
L 377.972492 284.568908 
L 377.646861 283.418154 
L 377.321229 283.490076 
L 376.995598 282.698932 
L 376.669966 282.051632 
L 376.344335 283.274309 
L 376.018703 284.425064 
L 375.693072 283.63392 
L 375.367441 285.360052 
L 375.041809 285.575818 
L 374.716178 284.928519 
L 374.390546 282.914698 
L 374.064915 282.986621 
L 373.739283 286.079274 
L 373.413652 284.425064 
L 373.08802 283.993531 
L 372.762389 282.62701 
L 372.436758 283.993531 
L 372.111126 285.216208 
L 371.785495 284.065453 
L 371.459863 281.907788 
L 371.134232 283.63392 
L 370.8086 281.907788 
L 370.482969 282.555088 
L 370.157337 282.411243 
L 369.831706 283.777764 
L 369.506075 283.346231 
L 369.180443 283.202387 
L 368.854812 282.770854 
L 368.52918 285.072363 
L 368.203549 285.216208 
L 367.877917 285.431974 
L 367.552286 283.274309 
L 367.226655 283.993531 
L 366.901023 282.195477 
L 366.575392 282.339321 
L 366.24976 282.914698 
L 365.924129 282.698932 
L 365.598497 283.993531 
L 365.272866 282.914698 
L 364.947234 283.921609 
L 364.621603 284.281219 
L 364.295972 283.777764 
L 363.97034 284.281219 
L 363.644709 284.856597 
L 363.319077 282.483165 
L 362.993446 283.274309 
L 362.667814 284.568908 
L 362.342183 284.784675 
L 362.016551 283.490076 
L 361.69092 283.561998 
L 361.365289 284.712752 
L 361.039657 282.483165 
L 360.714026 285.28813 
L 360.388394 284.209297 
L 360.062763 283.490076 
L 359.737131 285.144285 
L 359.4115 284.353142 
L 359.085869 284.281219 
L 358.760237 283.418154 
L 358.434606 284.568908 
L 358.108974 282.62701 
L 357.783343 282.986621 
L 357.457711 282.62701 
L 357.13208 283.921609 
L 356.806448 284.784675 
L 356.480817 284.065453 
L 356.155186 284.353142 
L 355.829554 283.130465 
L 355.503923 286.510806 
L 355.178291 282.770854 
L 354.85266 283.130465 
L 354.527028 282.770854 
L 354.201397 283.777764 
L 353.875765 284.712752 
L 353.550134 285.935429 
L 353.224503 282.914698 
L 352.898871 285.503896 
L 352.57324 283.346231 
L 352.247608 283.777764 
L 351.921977 284.065453 
L 351.596345 283.490076 
L 351.270714 282.483165 
L 350.945083 284.568908 
L 350.619451 283.490076 
L 350.29382 283.274309 
L 349.968188 283.561998 
L 349.642557 285.28813 
L 349.316925 284.425064 
L 348.991294 285.360052 
L 348.665662 283.418154 
L 348.340031 283.490076 
L 348.0144 283.777764 
L 347.688768 283.274309 
L 347.363137 283.202387 
L 347.037505 284.928519 
L 346.711874 283.490076 
L 346.386242 283.202387 
L 346.060611 282.842776 
L 345.734979 283.202387 
L 345.409348 284.425064 
L 345.083717 283.346231 
L 344.758085 282.411243 
L 344.432454 282.842776 
L 344.106822 284.137375 
L 343.781191 282.914698 
L 343.455559 282.123555 
L 343.129928 284.065453 
L 342.804297 285.863507 
L 342.478665 281.835866 
L 342.153034 283.705842 
L 341.827402 283.130465 
L 341.501771 285.719663 
L 341.176139 282.698932 
L 340.850508 284.928519 
L 340.524876 282.698932 
L 340.199245 281.763944 
L 339.873614 284.353142 
L 339.547982 283.921609 
L 339.222351 284.856597 
L 338.896719 283.058543 
L 338.571088 285.360052 
L 338.245456 283.130465 
L 337.919825 282.986621 
L 337.594193 282.339321 
L 337.268562 282.914698 
L 336.942931 283.202387 
L 336.617299 284.137375 
L 336.291668 283.921609 
L 335.966036 284.137375 
L 335.640405 284.425064 
L 335.314773 283.777764 
L 334.989142 283.777764 
L 334.663511 283.705842 
L 334.337879 283.490076 
L 334.012248 285.935429 
L 333.686616 282.842776 
L 333.360985 284.425064 
L 333.035353 281.97971 
L 332.709722 283.921609 
L 332.38409 283.418154 
L 332.058459 282.698932 
L 331.732828 282.698932 
L 331.407196 286.223118 
L 331.081565 283.921609 
L 330.755933 282.914698 
L 330.430302 285.072363 
L 330.10467 280.9728 
L 329.779039 282.698932 
L 329.453407 283.346231 
L 329.127776 285.431974 
L 328.802145 283.561998 
L 328.476513 284.784675 
L 328.150882 282.411243 
L 327.82525 284.712752 
L 327.499619 281.907788 
L 327.173987 283.561998 
L 326.848356 283.346231 
L 326.522725 283.849686 
L 326.197093 282.339321 
L 325.871462 284.065453 
L 325.54583 286.510806 
L 325.220199 283.705842 
L 324.894567 284.209297 
L 324.568936 282.986621 
L 324.243304 285.28813 
L 323.917673 282.267399 
L 323.592042 282.483165 
L 323.26641 283.63392 
L 322.940779 284.425064 
L 322.615147 283.705842 
L 322.289516 282.411243 
L 321.963884 282.914698 
L 321.638253 285.144285 
L 321.312622 283.849686 
L 320.98699 282.986621 
L 320.661359 284.209297 
L 320.335727 283.849686 
L 320.010096 284.64083 
L 319.684464 284.209297 
L 319.358833 283.849686 
L 319.033201 283.921609 
L 318.70757 286.079274 
L 318.381939 285.000441 
L 318.056307 284.928519 
L 317.730676 286.654651 
L 317.405044 283.058543 
L 317.079413 284.425064 
L 316.753781 282.914698 
L 316.42815 283.418154 
L 316.102518 282.842776 
L 315.776887 284.065453 
L 315.451256 283.490076 
L 315.125624 284.281219 
L 314.799993 284.568908 
L 314.474361 283.63392 
L 314.14873 282.339321 
L 313.823098 283.993531 
L 313.497467 284.928519 
L 313.171836 283.418154 
L 312.846204 285.144285 
L 312.520573 283.993531 
L 312.194941 281.763944 
L 311.86931 284.496986 
L 311.543678 284.137375 
L 311.218047 283.346231 
L 310.892415 285.360052 
L 310.566784 282.986621 
L 310.241153 283.130465 
L 309.915521 284.856597 
L 309.58989 283.849686 
L 309.264258 284.856597 
L 308.938627 282.483165 
L 308.612995 283.63392 
L 308.287364 284.784675 
L 307.961732 282.483165 
L 307.636101 284.353142 
L 307.31047 285.072363 
L 306.984838 285.360052 
L 306.659207 285.503896 
L 306.333575 284.856597 
L 306.007944 283.849686 
L 305.682312 283.130465 
L 305.356681 284.137375 
L 305.03105 284.425064 
L 304.705418 286.151196 
L 304.379787 283.202387 
L 304.054155 284.64083 
L 303.728524 283.202387 
L 303.402892 283.058543 
L 303.077261 283.777764 
L 302.751629 284.568908 
L 302.425998 283.777764 
L 302.100367 284.425064 
L 301.774735 282.411243 
L 301.449104 283.63392 
L 301.123472 284.496986 
L 300.797841 283.058543 
L 300.472209 283.130465 
L 300.146578 282.842776 
L 299.820946 283.346231 
L 299.495315 283.202387 
L 299.169684 283.777764 
L 298.844052 284.065453 
L 298.518421 283.561998 
L 298.192789 282.986621 
L 297.867158 283.63392 
L 297.541526 283.561998 
L 297.215895 283.561998 
L 296.890264 282.770854 
L 296.564632 284.64083 
L 296.239001 283.130465 
L 295.913369 285.28813 
L 295.587738 284.137375 
L 295.262106 284.281219 
L 294.936475 284.137375 
L 294.610843 284.784675 
L 294.285212 282.555088 
L 293.959581 283.274309 
L 293.633949 282.483165 
L 293.308318 284.784675 
L 292.982686 283.705842 
L 292.657055 282.62701 
L 292.331423 283.561998 
L 292.005792 284.353142 
L 291.68016 286.079274 
L 291.354529 285.863507 
L 291.028898 283.346231 
L 290.703266 284.64083 
L 290.377635 284.281219 
L 290.052003 283.993531 
L 289.726372 284.353142 
L 289.40074 282.339321 
L 289.075109 281.835866 
L 288.749478 283.63392 
L 288.423846 284.712752 
L 288.098215 285.28813 
L 287.772583 282.62701 
L 287.446952 283.63392 
L 287.12132 285.647741 
L 286.795689 283.490076 
L 286.470057 283.346231 
L 286.144426 283.058543 
L 285.818795 284.137375 
L 285.493163 285.935429 
L 285.167532 284.209297 
L 284.8419 283.418154 
L 284.516269 284.425064 
L 284.190637 284.137375 
L 283.865006 281.332411 
L 283.539374 283.849686 
L 283.213743 281.260489 
L 282.888112 284.065453 
L 282.56248 284.496986 
L 282.236849 282.770854 
L 281.911217 283.561998 
L 281.585586 283.418154 
L 281.259954 284.425064 
L 280.934323 286.29504 
L 280.608692 284.281219 
L 280.28306 283.777764 
L 279.957429 283.705842 
L 279.631797 284.137375 
L 279.306166 283.490076 
L 278.980534 284.209297 
L 278.654903 282.770854 
L 278.329271 283.490076 
L 278.00364 282.770854 
L 277.678009 284.425064 
L 277.352377 283.777764 
L 277.026746 284.065453 
L 276.701114 284.784675 
L 276.375483 283.63392 
L 276.049851 284.928519 
L 275.72422 284.353142 
L 275.398588 284.568908 
L 275.072957 282.914698 
L 274.747326 286.726573 
L 274.421694 283.490076 
L 274.096063 285.719663 
L 273.770431 284.209297 
L 273.4448 284.353142 
L 273.119168 285.216208 
L 272.793537 284.496986 
L 272.467906 282.698932 
L 272.142274 283.130465 
L 271.816643 282.914698 
L 271.491011 283.274309 
L 271.16538 284.712752 
L 270.839748 284.281219 
L 270.514117 283.705842 
L 270.188485 284.065453 
L 269.862854 282.698932 
L 269.537223 285.000441 
L 269.211591 282.123555 
L 268.88596 284.568908 
L 268.560328 281.97971 
L 268.234697 283.490076 
L 267.909065 282.267399 
L 267.583434 283.63392 
L 267.257802 283.777764 
L 266.932171 283.561998 
L 266.60654 283.202387 
L 266.280908 282.267399 
L 265.955277 282.986621 
L 265.629645 281.907788 
L 265.304014 284.496986 
L 264.978382 286.438884 
L 264.652751 285.144285 
L 264.32712 283.63392 
L 264.001488 282.123555 
L 263.675857 283.346231 
L 263.350225 283.202387 
L 263.024594 284.281219 
L 262.698962 281.692022 
L 262.373331 282.698932 
L 262.047699 282.555088 
L 261.722068 284.712752 
L 261.396437 284.353142 
L 261.070805 286.007351 
L 260.745174 282.842776 
L 260.419542 283.63392 
L 260.093911 285.144285 
L 259.768279 283.849686 
L 259.442648 284.496986 
L 259.117017 285.144285 
L 258.791385 283.849686 
L 258.465754 283.777764 
L 258.140122 283.130465 
L 257.814491 284.496986 
L 257.488859 284.856597 
L 257.163228 282.62701 
L 256.837596 282.195477 
L 256.511965 283.418154 
L 256.186334 282.483165 
L 255.860702 285.360052 
L 255.535071 281.404333 
L 255.209439 283.561998 
L 254.883808 283.777764 
L 254.558176 283.490076 
L 254.232545 283.418154 
L 253.906913 284.209297 
L 253.581282 282.267399 
L 253.255651 282.051632 
L 252.930019 284.856597 
L 252.604388 284.856597 
L 252.278756 282.914698 
L 251.953125 284.281219 
L 251.627493 283.777764 
L 251.301862 285.28813 
L 250.976231 283.202387 
L 250.650599 283.418154 
L 250.324968 283.130465 
L 249.999336 284.568908 
L 249.673705 282.62701 
L 249.348073 282.195477 
L 249.022442 284.64083 
L 248.69681 284.425064 
L 248.371179 281.835866 
L 248.045548 282.842776 
L 247.719916 284.64083 
L 247.394285 285.28813 
L 247.068653 284.209297 
L 246.743022 283.63392 
L 246.41739 285.000441 
L 246.091759 284.568908 
L 245.766127 284.065453 
L 245.440496 281.97971 
L 245.114865 282.339321 
L 244.789233 283.274309 
L 244.463602 285.360052 
L 244.13797 282.411243 
L 243.812339 283.705842 
L 243.486707 284.065453 
L 243.161076 285.503896 
L 242.835445 282.698932 
L 242.509813 283.490076 
L 242.184182 283.993531 
L 241.85855 282.555088 
L 241.532919 283.490076 
L 241.207287 283.058543 
L 240.881656 283.130465 
L 240.556024 281.188566 
L 240.230393 283.418154 
L 239.904762 283.346231 
L 239.57913 282.62701 
L 239.253499 281.97971 
L 238.927867 283.777764 
L 238.602236 284.928519 
L 238.276604 283.202387 
L 237.950973 282.986621 
L 237.625341 284.353142 
L 237.29971 282.986621 
L 236.974079 283.202387 
L 236.648447 282.123555 
L 236.322816 283.418154 
L 235.997184 282.842776 
L 235.671553 281.97971 
L 235.345921 282.986621 
L 235.02029 280.685111 
L 234.694659 282.411243 
L 234.369027 283.130465 
L 234.043396 282.62701 
L 233.717764 283.058543 
L 233.392133 283.058543 
L 233.066501 284.137375 
L 232.74087 283.921609 
L 232.415238 282.914698 
L 232.089607 283.63392 
L 231.763976 282.339321 
L 231.438344 283.418154 
L 231.112713 282.698932 
L 230.787081 284.065453 
L 230.46145 282.986621 
L 230.135818 283.274309 
L 229.810187 282.339321 
L 229.484555 283.705842 
L 229.158924 282.770854 
L 228.833293 282.698932 
L 228.507661 283.993531 
L 228.18203 281.835866 
L 227.856398 283.130465 
L 227.530767 284.425064 
L 227.205135 284.065453 
L 226.879504 282.411243 
L 226.553873 283.346231 
L 226.228241 282.914698 
L 225.90261 283.921609 
L 225.576978 282.195477 
L 225.251347 281.692022 
L 224.925715 282.914698 
L 224.600084 281.835866 
L 224.274452 282.051632 
L 223.948821 280.900878 
L 223.62319 285.216208 
L 223.297558 281.692022 
L 222.971927 284.353142 
L 222.646295 284.425064 
L 222.320664 282.051632 
L 221.995032 283.274309 
L 221.669401 282.339321 
L 221.343769 284.353142 
L 221.018138 282.698932 
L 220.692507 283.274309 
L 220.366875 281.476255 
L 220.041244 283.346231 
L 219.715612 282.986621 
L 219.389981 282.411243 
L 219.064349 284.496986 
L 218.738718 283.490076 
L 218.413087 284.281219 
L 218.087455 284.065453 
L 217.761824 282.267399 
L 217.436192 283.058543 
L 217.110561 283.058543 
L 216.784929 282.339321 
L 216.459298 282.555088 
L 216.133666 283.346231 
L 215.808035 283.705842 
L 215.482404 282.555088 
L 215.156772 283.202387 
L 214.831141 285.431974 
L 214.505509 282.123555 
L 214.179878 283.993531 
L 213.854246 281.548177 
L 213.528615 282.123555 
L 213.202983 283.346231 
L 212.877352 284.209297 
L 212.551721 283.777764 
L 212.226089 282.483165 
L 211.900458 283.63392 
L 211.574826 281.548177 
L 211.249195 283.705842 
L 210.923563 283.130465 
L 210.597932 283.346231 
L 210.272301 282.123555 
L 209.946669 282.339321 
L 209.621038 282.483165 
L 209.295406 283.705842 
L 208.969775 282.914698 
L 208.644143 281.835866 
L 208.318512 281.620099 
L 207.99288 283.490076 
L 207.667249 281.548177 
L 207.341618 284.64083 
L 207.015986 282.986621 
L 206.690355 283.058543 
L 206.364723 282.62701 
L 206.039092 281.620099 
L 205.71346 281.907788 
L 205.387829 283.130465 
L 205.062198 282.770854 
L 204.736566 283.705842 
L 204.410935 282.123555 
L 204.085303 283.346231 
L 203.759672 282.339321 
L 203.43404 281.476255 
L 203.108409 284.137375 
L 202.782777 282.267399 
L 202.457146 280.828956 
L 202.131515 281.548177 
L 201.805883 282.051632 
L 201.480252 280.9728 
L 201.15462 282.986621 
L 200.828989 281.907788 
L 200.503357 282.986621 
L 200.177726 282.195477 
L 199.852094 283.63392 
L 199.526463 282.339321 
L 199.200832 282.62701 
L 198.8752 281.692022 
L 198.549569 282.914698 
L 198.223937 282.555088 
L 197.898306 283.202387 
L 197.572674 282.483165 
L 197.247043 282.483165 
L 196.921412 284.065453 
L 196.59578 283.130465 
L 196.270149 284.568908 
L 195.944517 281.404333 
L 195.618886 282.267399 
L 195.293254 282.986621 
L 194.967623 284.281219 
L 194.641991 282.842776 
L 194.31636 282.770854 
L 193.990729 284.856597 
L 193.665097 282.195477 
L 193.339466 283.202387 
L 193.013834 283.561998 
L 192.688203 281.835866 
L 192.362571 282.914698 
L 192.03694 283.058543 
L 191.711308 282.339321 
L 191.385677 282.411243 
L 191.060046 281.476255 
L 190.734414 284.209297 
L 190.408783 284.353142 
L 190.083151 283.058543 
L 189.75752 282.051632 
L 189.431888 283.63392 
L 189.106257 283.993531 
L 188.780626 285.360052 
L 188.454994 284.496986 
L 188.129363 280.9728 
L 187.803731 282.62701 
L 187.4781 284.353142 
L 187.152468 283.130465 
L 186.826837 284.281219 
L 186.501205 283.993531 
L 186.175574 284.065453 
L 185.849943 282.123555 
L 185.524311 282.62701 
L 185.19868 283.418154 
L 184.873048 283.274309 
L 184.547417 282.914698 
L 184.221785 283.490076 
L 183.896154 283.058543 
L 183.570522 283.63392 
L 183.244891 283.058543 
L 182.91926 283.705842 
L 182.593628 282.986621 
L 182.267997 283.274309 
L 181.942365 282.842776 
L 181.616734 283.418154 
L 181.291102 283.561998 
L 180.965471 282.555088 
L 180.63984 281.692022 
L 180.314208 283.202387 
L 179.988577 283.921609 
L 179.662945 281.116644 
L 179.337314 283.705842 
L 179.011682 283.63392 
L 178.686051 283.993531 
L 178.360419 283.777764 
L 178.034788 282.914698 
L 177.709157 283.561998 
L 177.383525 280.757034 
L 177.057894 283.921609 
L 176.732262 281.907788 
L 176.406631 281.907788 
L 176.080999 283.058543 
L 175.755368 280.757034 
L 175.429736 284.784675 
L 175.104105 283.63392 
L 174.778474 283.202387 
L 174.452842 283.418154 
L 174.127211 282.770854 
L 173.801579 282.62701 
L 173.475948 282.339321 
L 173.150316 282.267399 
L 172.824685 284.496986 
L 172.499054 281.692022 
L 172.173422 281.97971 
L 171.847791 281.97971 
L 171.522159 285.360052 
L 171.196528 283.705842 
L 170.870896 285.072363 
L 170.545265 282.267399 
L 170.219633 280.109734 
L 169.894002 283.993531 
L 169.568371 282.195477 
L 169.242739 282.339321 
L 168.917108 282.267399 
L 168.591476 281.763944 
L 168.265845 285.431974 
L 167.940213 280.469345 
L 167.614582 281.763944 
L 167.28895 284.209297 
L 166.963319 282.339321 
L 166.637688 282.986621 
L 166.312056 282.051632 
L 165.986425 283.921609 
L 165.660793 283.921609 
L 165.335162 282.339321 
L 165.00953 282.267399 
L 164.683899 282.986621 
L 164.358268 284.64083 
L 164.032636 282.914698 
L 163.707005 284.065453 
L 163.381373 280.037812 
L 163.055742 283.202387 
L 162.73011 281.97971 
L 162.404479 283.705842 
L 162.078847 282.267399 
L 161.753216 282.123555 
L 161.427585 284.64083 
L 161.101953 281.835866 
L 160.776322 282.986621 
L 160.45069 282.62701 
L 160.125059 282.339321 
L 159.799427 283.993531 
L 159.473796 284.353142 
L 159.148164 281.692022 
L 158.822533 282.411243 
L 158.496902 282.770854 
L 158.17127 282.411243 
L 157.845639 282.411243 
L 157.520007 283.63392 
L 157.194376 283.490076 
L 156.868744 282.411243 
L 156.543113 284.568908 
L 156.217482 282.698932 
L 155.89185 283.130465 
L 155.566219 284.928519 
L 155.240587 280.253578 
L 154.914956 282.123555 
L 154.589324 284.281219 
L 154.263693 279.246668 
L 153.938061 282.051632 
L 153.61243 283.202387 
L 153.286799 282.770854 
L 152.961167 282.914698 
L 152.635536 280.325501 
L 152.309904 283.346231 
L 151.984273 282.914698 
L 151.658641 282.051632 
L 151.33301 284.065453 
L 151.007378 282.123555 
L 150.681747 282.123555 
L 150.356116 280.828956 
L 150.030484 281.116644 
L 149.704853 282.698932 
L 149.379221 283.993531 
L 149.05359 283.849686 
L 148.727958 282.267399 
L 148.402327 282.411243 
L 148.076696 282.986621 
L 147.751064 283.130465 
L 147.425433 278.455524 
L 147.099801 282.339321 
L 146.77417 282.555088 
L 146.448538 282.267399 
L 146.122907 282.411243 
L 145.797275 281.835866 
L 145.471644 283.418154 
L 145.146013 283.274309 
L 144.820381 281.763944 
L 144.49475 282.914698 
L 144.169118 281.476255 
L 143.843487 281.907788 
L 143.517855 283.274309 
L 143.192224 284.209297 
L 142.866593 283.058543 
L 142.540961 283.058543 
L 142.21533 280.325501 
L 141.889698 282.986621 
L 141.564067 278.527446 
L 141.238435 283.346231 
L 140.912804 282.914698 
L 140.587172 282.483165 
L 140.261541 280.541267 
L 139.93591 279.750123 
L 139.610278 278.167836 
L 139.284647 283.849686 
L 138.959015 281.548177 
L 138.633384 280.9728 
L 138.307752 280.253578 
L 137.982121 282.770854 
L 137.656489 279.893968 
L 137.330858 282.986621 
L 137.005227 282.842776 
L 136.679595 279.174746 
L 136.353964 283.561998 
L 136.028332 282.483165 
L 135.702701 283.705842 
L 135.377069 277.664381 
L 135.051438 281.97971 
L 134.725807 280.037812 
L 134.400175 282.123555 
L 134.074544 283.346231 
L 133.748912 281.044722 
L 133.423281 278.095914 
L 133.097649 282.698932 
L 132.772018 281.260489 
L 132.446386 278.527446 
L 132.120755 282.914698 
L 131.795124 282.555088 
L 131.469492 278.599369 
L 131.143861 281.97971 
L 130.818229 277.520536 
L 130.492598 277.664381 
L 130.166966 282.051632 
L 129.841335 281.907788 
L 129.515703 282.483165 
L 129.190072 282.62701 
L 128.864441 279.893968 
L 128.538809 281.548177 
L 128.213178 282.770854 
L 127.887546 283.274309 
L 127.561915 282.483165 
L 127.236283 280.469345 
L 126.910652 278.167836 
L 126.585021 282.698932 
L 126.259389 279.534357 
L 125.933758 277.880147 
L 125.608126 282.123555 
L 125.282495 282.483165 
L 124.956863 282.483165 
L 124.631232 282.051632 
L 124.3056 282.986621 
L 123.979969 281.548177 
L 123.654338 279.174746 
L 123.328706 282.123555 
L 123.003075 281.835866 
L 122.677443 277.952069 
L 122.351812 280.253578 
L 122.02618 283.921609 
L 121.700549 282.123555 
L 121.374917 282.051632 
L 121.049286 282.411243 
L 120.723655 282.62701 
L 120.398023 281.835866 
L 120.072392 279.893968 
L 119.74676 279.462435 
L 119.421129 282.267399 
L 119.095497 282.123555 
L 118.769866 279.96589 
L 118.444235 280.541267 
L 118.118603 279.750123 
L 117.792972 281.476255 
L 117.46734 281.332411 
L 117.141709 282.123555 
L 116.816077 281.763944 
L 116.490446 281.116644 
L 116.164814 281.692022 
L 115.839183 281.692022 
L 115.513552 281.188566 
L 115.18792 280.685111 
L 114.862289 279.678201 
L 114.536657 281.404333 
L 114.211026 280.253578 
L 113.885394 280.900878 
L 113.559763 281.476255 
L 113.234131 280.325501 
L 112.9085 281.476255 
L 112.582869 281.044722 
L 112.257237 280.109734 
L 111.931606 281.835866 
L 111.605974 280.037812 
L 111.280343 280.469345 
L 110.954711 280.757034 
L 110.62908 282.842776 
L 110.303449 280.685111 
L 109.977817 281.044722 
L 109.652186 282.842776 
L 109.326554 281.97971 
L 109.000923 281.044722 
L 108.675291 282.339321 
L 108.34966 281.907788 
L 108.024028 282.051632 
L 107.698397 281.404333 
L 107.372766 278.383602 
L 107.047134 280.037812 
L 106.721503 279.462435 
L 106.395871 281.907788 
L 106.07024 279.893968 
L 105.744608 282.698932 
L 105.418977 280.181656 
L 105.093345 280.685111 
L 104.767714 281.332411 
L 104.442083 280.757034 
L 104.116451 282.411243 
L 103.79082 282.267399 
L 103.465188 281.332411 
L 103.139557 282.123555 
L 102.813925 280.900878 
L 102.488294 281.692022 
L 102.162663 280.757034 
L 101.837031 279.893968 
L 101.5114 280.613189 
L 101.185768 281.044722 
L 100.860137 282.411243 
L 100.534505 282.123555 
L 100.208874 282.986621 
L 99.883242 281.97971 
L 99.557611 282.195477 
L 99.23198 281.907788 
L 98.906348 281.620099 
L 98.580717 282.267399 
L 98.255085 282.267399 
L 97.929454 281.404333 
L 97.603822 282.267399 
L 97.278191 280.9728 
L 96.952559 282.914698 
L 96.626928 282.842776 
L 96.301297 281.97971 
L 95.975665 281.188566 
L 95.650034 282.195477 
L 95.324402 282.483165 
L 94.998771 281.188566 
L 94.673139 283.346231 
L 94.347508 282.267399 
L 94.021877 281.692022 
L 93.696245 281.835866 
L 93.370614 283.130465 
L 93.044982 281.620099 
L 92.719351 282.698932 
L 92.393719 283.202387 
L 92.068088 282.195477 
L 91.742456 282.555088 
L 91.416825 281.476255 
L 91.091194 281.188566 
L 90.765562 282.267399 
L 90.439931 281.692022 
L 90.114299 280.9728 
L 89.788668 284.496986 
L 89.463036 282.698932 
L 89.137405 283.202387 
L 88.811774 282.986621 
L 88.486142 282.555088 
L 88.160511 283.274309 
L 87.834879 283.346231 
L 87.509248 281.97971 
L 87.183616 282.770854 
L 86.857985 282.914698 
L 86.532353 282.195477 
L 86.206722 283.849686 
L 85.881091 282.411243 
L 85.555459 281.548177 
L 85.229828 283.058543 
L 84.904196 282.051632 
L 84.578565 283.130465 
L 84.252933 282.411243 
L 83.927302 283.705842 
L 83.60167 282.195477 
L 83.276039 281.835866 
L 82.950408 281.116644 
L 82.624776 280.397423 
L 82.299145 283.058543 
L 81.973513 282.986621 
L 81.647882 282.752874 
L 81.32225 282.105574 
L 80.996619 283.130465 
L 80.670988 282.123555 
L 80.345356 282.752874 
L 80.019725 281.422314 
L 79.694093 283.166426 
L 79.368462 282.950659 
L 79.04283 283.561998 
L 78.717199 284.101414 
L 78.391567 285.036402 
L 78.065936 282.96864 
L 77.740305 283.004601 
L 77.414673 283.112484 
L 77.089042 282.357302 
L 76.76341 284.443044 
L 76.437779 283.112484 
L 76.112147 283.076523 
L 75.786516 284.856597 
L 75.460884 286.061293 
L 75.135253 284.461025 
L 74.809622 283.184406 
L 74.48399 283.058543 
L 74.158359 285.396013 
L 73.832727 283.939589 
z
" style="fill:#1f77b4;fill-opacity:0.25;"/>
   </g>
   <g id="matplotlib.axis_1">
    <g id="xtick_1">
     <g id="line2d_1">
      <defs>
       <path d="M 0 0 
L 0 3.5 
" id="m6d0126e073" style="stroke:#000000;stroke-width:0.8;"/>
      </defs>
      <g>
       <use style="stroke:#000000;stroke-width:0.8;" x="73.507096" xlink:href="#m6d0126e073" y="307.584"/>
      </g>
     </g>
     <g id="text_1">
      <!-- 0 -->
      <g transform="translate(70.325846 322.182437)scale(0.1 -0.1)">
       <defs>
        <path d="M 2034 4250 
Q 1547 4250 1301 3770 
Q 1056 3291 1056 2328 
Q 1056 1369 1301 889 
Q 1547 409 2034 409 
Q 2525 409 2770 889 
Q 3016 1369 3016 2328 
Q 3016 3291 2770 3770 
Q 2525 4250 2034 4250 
z
M 2034 4750 
Q 2819 4750 3233 4129 
Q 3647 3509 3647 2328 
Q 3647 1150 3233 529 
Q 2819 -91 2034 -91 
Q 1250 -91 836 529 
Q 422 1150 422 2328 
Q 422 3509 836 4129 
Q 1250 4750 2034 4750 
z
" id="DejaVuSans-30" transform="scale(0.015625)"/>
       </defs>
       <use xlink:href="#DejaVuSans-30"/>
      </g>
     </g>
    </g>
    <g id="xtick_2">
     <g id="line2d_2">
      <g>
       <use style="stroke:#000000;stroke-width:0.8;" x="138.633384" xlink:href="#m6d0126e073" y="307.584"/>
      </g>
     </g>
     <g id="text_2">
      <!-- 200 -->
      <g transform="translate(129.089634 322.182437)scale(0.1 -0.1)">
       <defs>
        <path d="M 1228 531 
L 3431 531 
L 3431 0 
L 469 0 
L 469 531 
Q 828 903 1448 1529 
Q 2069 2156 2228 2338 
Q 2531 2678 2651 2914 
Q 2772 3150 2772 3378 
Q 2772 3750 2511 3984 
Q 2250 4219 1831 4219 
Q 1534 4219 1204 4116 
Q 875 4013 500 3803 
L 500 4441 
Q 881 4594 1212 4672 
Q 1544 4750 1819 4750 
Q 2544 4750 2975 4387 
Q 3406 4025 3406 3419 
Q 3406 3131 3298 2873 
Q 3191 2616 2906 2266 
Q 2828 2175 2409 1742 
Q 1991 1309 1228 531 
z
" id="DejaVuSans-32" transform="scale(0.015625)"/>
       </defs>
       <use xlink:href="#DejaVuSans-32"/>
       <use x="63.623047" xlink:href="#DejaVuSans-30"/>
       <use x="127.246094" xlink:href="#DejaVuSans-30"/>
      </g>
     </g>
    </g>
    <g id="xtick_3">
     <g id="line2d_3">
      <g>
       <use style="stroke:#000000;stroke-width:0.8;" x="203.759672" xlink:href="#m6d0126e073" y="307.584"/>
      </g>
     </g>
     <g id="text_3">
      <!-- 400 -->
      <g transform="translate(194.215922 322.182437)scale(0.1 -0.1)">
       <defs>
        <path d="M 2419 4116 
L 825 1625 
L 2419 1625 
L 2419 4116 
z
M 2253 4666 
L 3047 4666 
L 3047 1625 
L 3713 1625 
L 3713 1100 
L 3047 1100 
L 3047 0 
L 2419 0 
L 2419 1100 
L 313 1100 
L 313 1709 
L 2253 4666 
z
" id="DejaVuSans-34" transform="scale(0.015625)"/>
       </defs>
       <use xlink:href="#DejaVuSans-34"/>
       <use x="63.623047" xlink:href="#DejaVuSans-30"/>
       <use x="127.246094" xlink:href="#DejaVuSans-30"/>
      </g>
     </g>
    </g>
    <g id="xtick_4">
     <g id="line2d_4">
      <g>
       <use style="stroke:#000000;stroke-width:0.8;" x="268.88596" xlink:href="#m6d0126e073" y="307.584"/>
      </g>
     </g>
     <g id="text_4">
      <!-- 600 -->
      <g transform="translate(259.34221 322.182437)scale(0.1 -0.1)">
       <defs>
        <path d="M 2113 2584 
Q 1688 2584 1439 2293 
Q 1191 2003 1191 1497 
Q 1191 994 1439 701 
Q 1688 409 2113 409 
Q 2538 409 2786 701 
Q 3034 994 3034 1497 
Q 3034 2003 2786 2293 
Q 2538 2584 2113 2584 
z
M 3366 4563 
L 3366 3988 
Q 3128 4100 2886 4159 
Q 2644 4219 2406 4219 
Q 1781 4219 1451 3797 
Q 1122 3375 1075 2522 
Q 1259 2794 1537 2939 
Q 1816 3084 2150 3084 
Q 2853 3084 3261 2657 
Q 3669 2231 3669 1497 
Q 3669 778 3244 343 
Q 2819 -91 2113 -91 
Q 1303 -91 875 529 
Q 447 1150 447 2328 
Q 447 3434 972 4092 
Q 1497 4750 2381 4750 
Q 2619 4750 2861 4703 
Q 3103 4656 3366 4563 
z
" id="DejaVuSans-36" transform="scale(0.015625)"/>
       </defs>
       <use xlink:href="#DejaVuSans-36"/>
       <use x="63.623047" xlink:href="#DejaVuSans-30"/>
       <use x="127.246094" xlink:href="#DejaVuSans-30"/>
      </g>
     </g>
    </g>
    <g id="xtick_5">
     <g id="line2d_5">
      <g>
       <use style="stroke:#000000;stroke-width:0.8;" x="334.012248" xlink:href="#m6d0126e073" y="307.584"/>
      </g>
     </g>
     <g id="text_5">
      <!-- 800 -->
      <g transform="translate(324.468498 322.182437)scale(0.1 -0.1)">
       <defs>
        <path d="M 2034 2216 
Q 1584 2216 1326 1975 
Q 1069 1734 1069 1313 
Q 1069 891 1326 650 
Q 1584 409 2034 409 
Q 2484 409 2743 651 
Q 3003 894 3003 1313 
Q 3003 1734 2745 1975 
Q 2488 2216 2034 2216 
z
M 1403 2484 
Q 997 2584 770 2862 
Q 544 3141 544 3541 
Q 544 4100 942 4425 
Q 1341 4750 2034 4750 
Q 2731 4750 3128 4425 
Q 3525 4100 3525 3541 
Q 3525 3141 3298 2862 
Q 3072 2584 2669 2484 
Q 3125 2378 3379 2068 
Q 3634 1759 3634 1313 
Q 3634 634 3220 271 
Q 2806 -91 2034 -91 
Q 1263 -91 848 271 
Q 434 634 434 1313 
Q 434 1759 690 2068 
Q 947 2378 1403 2484 
z
M 1172 3481 
Q 1172 3119 1398 2916 
Q 1625 2713 2034 2713 
Q 2441 2713 2670 2916 
Q 2900 3119 2900 3481 
Q 2900 3844 2670 4047 
Q 2441 4250 2034 4250 
Q 1625 4250 1398 4047 
Q 1172 3844 1172 3481 
z
" id="DejaVuSans-38" transform="scale(0.015625)"/>
       </defs>
       <use xlink:href="#DejaVuSans-38"/>
       <use x="63.623047" xlink:href="#DejaVuSans-30"/>
       <use x="127.246094" xlink:href="#DejaVuSans-30"/>
      </g>
     </g>
    </g>
    <g id="xtick_6">
     <g id="line2d_6">
      <g>
       <use style="stroke:#000000;stroke-width:0.8;" x="399.138536" xlink:href="#m6d0126e073" y="307.584"/>
      </g>
     </g>
     <g id="text_6">
      <!-- 1000 -->
      <g transform="translate(386.413536 322.182437)scale(0.1 -0.1)">
       <defs>
        <path d="M 794 531 
L 1825 531 
L 1825 4091 
L 703 3866 
L 703 4441 
L 1819 4666 
L 2450 4666 
L 2450 531 
L 3481 531 
L 3481 0 
L 794 0 
L 794 531 
z
" id="DejaVuSans-31" transform="scale(0.015625)"/>
       </defs>
       <use xlink:href="#DejaVuSans-31"/>
       <use x="63.623047" xlink:href="#DejaVuSans-30"/>
       <use x="127.246094" xlink:href="#DejaVuSans-30"/>
       <use x="190.869141" xlink:href="#DejaVuSans-30"/>
      </g>
     </g>
    </g>
    <g id="text_7">
     <!-- Timestep -->
     <g transform="translate(213.110781 335.860562)scale(0.1 -0.1)">
      <defs>
       <path d="M -19 4666 
L 3928 4666 
L 3928 4134 
L 2272 4134 
L 2272 0 
L 1638 0 
L 1638 4134 
L -19 4134 
L -19 4666 
z
" id="DejaVuSans-54" transform="scale(0.015625)"/>
       <path d="M 603 3500 
L 1178 3500 
L 1178 0 
L 603 0 
L 603 3500 
z
M 603 4863 
L 1178 4863 
L 1178 4134 
L 603 4134 
L 603 4863 
z
" id="DejaVuSans-69" transform="scale(0.015625)"/>
       <path d="M 3328 2828 
Q 3544 3216 3844 3400 
Q 4144 3584 4550 3584 
Q 5097 3584 5394 3201 
Q 5691 2819 5691 2113 
L 5691 0 
L 5113 0 
L 5113 2094 
Q 5113 2597 4934 2840 
Q 4756 3084 4391 3084 
Q 3944 3084 3684 2787 
Q 3425 2491 3425 1978 
L 3425 0 
L 2847 0 
L 2847 2094 
Q 2847 2600 2669 2842 
Q 2491 3084 2119 3084 
Q 1678 3084 1418 2786 
Q 1159 2488 1159 1978 
L 1159 0 
L 581 0 
L 581 3500 
L 1159 3500 
L 1159 2956 
Q 1356 3278 1631 3431 
Q 1906 3584 2284 3584 
Q 2666 3584 2933 3390 
Q 3200 3197 3328 2828 
z
" id="DejaVuSans-6d" transform="scale(0.015625)"/>
       <path d="M 3597 1894 
L 3597 1613 
L 953 1613 
Q 991 1019 1311 708 
Q 1631 397 2203 397 
Q 2534 397 2845 478 
Q 3156 559 3463 722 
L 3463 178 
Q 3153 47 2828 -22 
Q 2503 -91 2169 -91 
Q 1331 -91 842 396 
Q 353 884 353 1716 
Q 353 2575 817 3079 
Q 1281 3584 2069 3584 
Q 2775 3584 3186 3129 
Q 3597 2675 3597 1894 
z
M 3022 2063 
Q 3016 2534 2758 2815 
Q 2500 3097 2075 3097 
Q 1594 3097 1305 2825 
Q 1016 2553 972 2059 
L 3022 2063 
z
" id="DejaVuSans-65" transform="scale(0.015625)"/>
       <path d="M 2834 3397 
L 2834 2853 
Q 2591 2978 2328 3040 
Q 2066 3103 1784 3103 
Q 1356 3103 1142 2972 
Q 928 2841 928 2578 
Q 928 2378 1081 2264 
Q 1234 2150 1697 2047 
L 1894 2003 
Q 2506 1872 2764 1633 
Q 3022 1394 3022 966 
Q 3022 478 2636 193 
Q 2250 -91 1575 -91 
Q 1294 -91 989 -36 
Q 684 19 347 128 
L 347 722 
Q 666 556 975 473 
Q 1284 391 1588 391 
Q 1994 391 2212 530 
Q 2431 669 2431 922 
Q 2431 1156 2273 1281 
Q 2116 1406 1581 1522 
L 1381 1569 
Q 847 1681 609 1914 
Q 372 2147 372 2553 
Q 372 3047 722 3315 
Q 1072 3584 1716 3584 
Q 2034 3584 2315 3537 
Q 2597 3491 2834 3397 
z
" id="DejaVuSans-73" transform="scale(0.015625)"/>
       <path d="M 1172 4494 
L 1172 3500 
L 2356 3500 
L 2356 3053 
L 1172 3053 
L 1172 1153 
Q 1172 725 1289 603 
Q 1406 481 1766 481 
L 2356 481 
L 2356 0 
L 1766 0 
Q 1100 0 847 248 
Q 594 497 594 1153 
L 594 3053 
L 172 3053 
L 172 3500 
L 594 3500 
L 594 4494 
L 1172 4494 
z
" id="DejaVuSans-74" transform="scale(0.015625)"/>
       <path d="M 1159 525 
L 1159 -1331 
L 581 -1331 
L 581 3500 
L 1159 3500 
L 1159 2969 
Q 1341 3281 1617 3432 
Q 1894 3584 2278 3584 
Q 2916 3584 3314 3078 
Q 3713 2572 3713 1747 
Q 3713 922 3314 415 
Q 2916 -91 2278 -91 
Q 1894 -91 1617 61 
Q 1341 213 1159 525 
z
M 3116 1747 
Q 3116 2381 2855 2742 
Q 2594 3103 2138 3103 
Q 1681 3103 1420 2742 
Q 1159 2381 1159 1747 
Q 1159 1113 1420 752 
Q 1681 391 2138 391 
Q 2594 391 2855 752 
Q 3116 1113 3116 1747 
z
" id="DejaVuSans-70" transform="scale(0.015625)"/>
      </defs>
      <use xlink:href="#DejaVuSans-54"/>
      <use x="57.958984" xlink:href="#DejaVuSans-69"/>
      <use x="85.742188" xlink:href="#DejaVuSans-6d"/>
      <use x="183.154297" xlink:href="#DejaVuSans-65"/>
      <use x="244.677734" xlink:href="#DejaVuSans-73"/>
      <use x="296.777344" xlink:href="#DejaVuSans-74"/>
      <use x="335.986328" xlink:href="#DejaVuSans-65"/>
      <use x="397.509766" xlink:href="#DejaVuSans-70"/>
     </g>
    </g>
   </g>
   <g id="matplotlib.axis_2">
    <g id="ytick_1">
     <g id="line2d_7">
      <defs>
       <path d="M 0 0 
L -3.5 0 
" id="mcf7cc78b9c" style="stroke:#000000;stroke-width:0.8;"/>
      </defs>
      <g>
       <use style="stroke:#000000;stroke-width:0.8;" x="57.6" xlink:href="#mcf7cc78b9c" y="293.199568"/>
      </g>
     </g>
     <g id="text_8">
      <!-- 0 -->
      <g transform="translate(44.2375 296.998786)scale(0.1 -0.1)">
       <use xlink:href="#DejaVuSans-30"/>
      </g>
     </g>
    </g>
    <g id="ytick_2">
     <g id="line2d_8">
      <g>
       <use style="stroke:#000000;stroke-width:0.8;" x="57.6" xlink:href="#mcf7cc78b9c" y="257.238486"/>
      </g>
     </g>
     <g id="text_9">
      <!-- 5 -->
      <g transform="translate(44.2375 261.037705)scale(0.1 -0.1)">
       <defs>
        <path d="M 691 4666 
L 3169 4666 
L 3169 4134 
L 1269 4134 
L 1269 2991 
Q 1406 3038 1543 3061 
Q 1681 3084 1819 3084 
Q 2600 3084 3056 2656 
Q 3513 2228 3513 1497 
Q 3513 744 3044 326 
Q 2575 -91 1722 -91 
Q 1428 -91 1123 -41 
Q 819 9 494 109 
L 494 744 
Q 775 591 1075 516 
Q 1375 441 1709 441 
Q 2250 441 2565 725 
Q 2881 1009 2881 1497 
Q 2881 1984 2565 2268 
Q 2250 2553 1709 2553 
Q 1456 2553 1204 2497 
Q 953 2441 691 2322 
L 691 4666 
z
" id="DejaVuSans-35" transform="scale(0.015625)"/>
       </defs>
       <use xlink:href="#DejaVuSans-35"/>
      </g>
     </g>
    </g>
    <g id="ytick_3">
     <g id="line2d_9">
      <g>
       <use style="stroke:#000000;stroke-width:0.8;" x="57.6" xlink:href="#mcf7cc78b9c" y="221.277405"/>
      </g>
     </g>
     <g id="text_10">
      <!-- 10 -->
      <g transform="translate(37.875 225.076624)scale(0.1 -0.1)">
       <use xlink:href="#DejaVuSans-31"/>
       <use x="63.623047" xlink:href="#DejaVuSans-30"/>
      </g>
     </g>
    </g>
    <g id="ytick_4">
     <g id="line2d_10">
      <g>
       <use style="stroke:#000000;stroke-width:0.8;" x="57.6" xlink:href="#mcf7cc78b9c" y="185.316324"/>
      </g>
     </g>
     <g id="text_11">
      <!-- 15 -->
      <g transform="translate(37.875 189.115543)scale(0.1 -0.1)">
       <use xlink:href="#DejaVuSans-31"/>
       <use x="63.623047" xlink:href="#DejaVuSans-35"/>
      </g>
     </g>
    </g>
    <g id="ytick_5">
     <g id="line2d_11">
      <g>
       <use style="stroke:#000000;stroke-width:0.8;" x="57.6" xlink:href="#mcf7cc78b9c" y="149.355243"/>
      </g>
     </g>
     <g id="text_12">
      <!-- 20 -->
      <g transform="translate(37.875 153.154462)scale(0.1 -0.1)">
       <use xlink:href="#DejaVuSans-32"/>
       <use x="63.623047" xlink:href="#DejaVuSans-30"/>
      </g>
     </g>
    </g>
    <g id="ytick_6">
     <g id="line2d_12">
      <g>
       <use style="stroke:#000000;stroke-width:0.8;" x="57.6" xlink:href="#mcf7cc78b9c" y="113.394162"/>
      </g>
     </g>
     <g id="text_13">
      <!-- 25 -->
      <g transform="translate(37.875 117.193381)scale(0.1 -0.1)">
       <use xlink:href="#DejaVuSans-32"/>
       <use x="63.623047" xlink:href="#DejaVuSans-35"/>
      </g>
     </g>
    </g>
    <g id="ytick_7">
     <g id="line2d_13">
      <g>
       <use style="stroke:#000000;stroke-width:0.8;" x="57.6" xlink:href="#mcf7cc78b9c" y="77.433081"/>
      </g>
     </g>
     <g id="text_14">
      <!-- 30 -->
      <g transform="translate(37.875 81.2323)scale(0.1 -0.1)">
       <defs>
        <path d="M 2597 2516 
Q 3050 2419 3304 2112 
Q 3559 1806 3559 1356 
Q 3559 666 3084 287 
Q 2609 -91 1734 -91 
Q 1441 -91 1130 -33 
Q 819 25 488 141 
L 488 750 
Q 750 597 1062 519 
Q 1375 441 1716 441 
Q 2309 441 2620 675 
Q 2931 909 2931 1356 
Q 2931 1769 2642 2001 
Q 2353 2234 1838 2234 
L 1294 2234 
L 1294 2753 
L 1863 2753 
Q 2328 2753 2575 2939 
Q 2822 3125 2822 3475 
Q 2822 3834 2567 4026 
Q 2313 4219 1838 4219 
Q 1578 4219 1281 4162 
Q 984 4106 628 3988 
L 628 4550 
Q 988 4650 1302 4700 
Q 1616 4750 1894 4750 
Q 2613 4750 3031 4423 
Q 3450 4097 3450 3541 
Q 3450 3153 3228 2886 
Q 3006 2619 2597 2516 
z
" id="DejaVuSans-33" transform="scale(0.015625)"/>
       </defs>
       <use xlink:href="#DejaVuSans-33"/>
       <use x="63.623047" xlink:href="#DejaVuSans-30"/>
      </g>
     </g>
    </g>
    <g id="ytick_8">
     <g id="line2d_14">
      <g>
       <use style="stroke:#000000;stroke-width:0.8;" x="57.6" xlink:href="#mcf7cc78b9c" y="41.472"/>
      </g>
     </g>
     <g id="text_15">
      <!-- 35 -->
      <g transform="translate(37.875 45.271219)scale(0.1 -0.1)">
       <use xlink:href="#DejaVuSans-33"/>
       <use x="63.623047" xlink:href="#DejaVuSans-35"/>
      </g>
     </g>
    </g>
    <g id="text_16">
     <!-- Reward -->
     <g transform="translate(31.795312 193.149094)rotate(-90)scale(0.1 -0.1)">
      <defs>
       <path d="M 2841 2188 
Q 3044 2119 3236 1894 
Q 3428 1669 3622 1275 
L 4263 0 
L 3584 0 
L 2988 1197 
Q 2756 1666 2539 1819 
Q 2322 1972 1947 1972 
L 1259 1972 
L 1259 0 
L 628 0 
L 628 4666 
L 2053 4666 
Q 2853 4666 3247 4331 
Q 3641 3997 3641 3322 
Q 3641 2881 3436 2590 
Q 3231 2300 2841 2188 
z
M 1259 4147 
L 1259 2491 
L 2053 2491 
Q 2509 2491 2742 2702 
Q 2975 2913 2975 3322 
Q 2975 3731 2742 3939 
Q 2509 4147 2053 4147 
L 1259 4147 
z
" id="DejaVuSans-52" transform="scale(0.015625)"/>
       <path d="M 269 3500 
L 844 3500 
L 1563 769 
L 2278 3500 
L 2956 3500 
L 3675 769 
L 4391 3500 
L 4966 3500 
L 4050 0 
L 3372 0 
L 2619 2869 
L 1863 0 
L 1184 0 
L 269 3500 
z
" id="DejaVuSans-77" transform="scale(0.015625)"/>
       <path d="M 2194 1759 
Q 1497 1759 1228 1600 
Q 959 1441 959 1056 
Q 959 750 1161 570 
Q 1363 391 1709 391 
Q 2188 391 2477 730 
Q 2766 1069 2766 1631 
L 2766 1759 
L 2194 1759 
z
M 3341 1997 
L 3341 0 
L 2766 0 
L 2766 531 
Q 2569 213 2275 61 
Q 1981 -91 1556 -91 
Q 1019 -91 701 211 
Q 384 513 384 1019 
Q 384 1609 779 1909 
Q 1175 2209 1959 2209 
L 2766 2209 
L 2766 2266 
Q 2766 2663 2505 2880 
Q 2244 3097 1772 3097 
Q 1472 3097 1187 3025 
Q 903 2953 641 2809 
L 641 3341 
Q 956 3463 1253 3523 
Q 1550 3584 1831 3584 
Q 2591 3584 2966 3190 
Q 3341 2797 3341 1997 
z
" id="DejaVuSans-61" transform="scale(0.015625)"/>
       <path d="M 2631 2963 
Q 2534 3019 2420 3045 
Q 2306 3072 2169 3072 
Q 1681 3072 1420 2755 
Q 1159 2438 1159 1844 
L 1159 0 
L 581 0 
L 581 3500 
L 1159 3500 
L 1159 2956 
Q 1341 3275 1631 3429 
Q 1922 3584 2338 3584 
Q 2397 3584 2469 3576 
Q 2541 3569 2628 3553 
L 2631 2963 
z
" id="DejaVuSans-72" transform="scale(0.015625)"/>
       <path d="M 2906 2969 
L 2906 4863 
L 3481 4863 
L 3481 0 
L 2906 0 
L 2906 525 
Q 2725 213 2448 61 
Q 2172 -91 1784 -91 
Q 1150 -91 751 415 
Q 353 922 353 1747 
Q 353 2572 751 3078 
Q 1150 3584 1784 3584 
Q 2172 3584 2448 3432 
Q 2725 3281 2906 2969 
z
M 947 1747 
Q 947 1113 1208 752 
Q 1469 391 1925 391 
Q 2381 391 2643 752 
Q 2906 1113 2906 1747 
Q 2906 2381 2643 2742 
Q 2381 3103 1925 3103 
Q 1469 3103 1208 2742 
Q 947 2381 947 1747 
z
" id="DejaVuSans-64" transform="scale(0.015625)"/>
      </defs>
      <use xlink:href="#DejaVuSans-52"/>
      <use x="64.982422" xlink:href="#DejaVuSans-65"/>
      <use x="126.505859" xlink:href="#DejaVuSans-77"/>
      <use x="208.292969" xlink:href="#DejaVuSans-61"/>
      <use x="269.572266" xlink:href="#DejaVuSans-72"/>
      <use x="308.935547" xlink:href="#DejaVuSans-64"/>
     </g>
    </g>
   </g>
   <g id="line2d_15">
    <path clip-path="url(#p63536df989)" d="M 73.832727 285.611779 
L 74.158359 286.762534 
L 74.48399 285.935429 
L 74.809622 285.611779 
L 75.135253 286.510806 
L 75.786516 286.762534 
L 76.112147 286.187157 
L 76.437779 284.712752 
L 76.76341 286.259079 
L 77.089042 284.928519 
L 77.414673 284.64083 
L 77.740305 283.921609 
L 78.065936 284.64083 
L 78.391567 286.870417 
L 78.717199 285.503896 
L 79.04283 285.180246 
L 79.368462 284.317181 
L 79.694093 284.425064 
L 80.019725 283.418154 
L 80.345356 283.454115 
L 80.670988 282.519126 
L 80.996619 285.396013 
L 81.32225 283.597959 
L 81.647882 283.238348 
L 81.973513 284.712752 
L 82.299145 283.346231 
L 82.624776 282.986621 
L 82.950408 282.195477 
L 83.276039 282.123555 
L 83.927302 284.281219 
L 84.252933 283.63392 
L 84.578565 283.993531 
L 84.904196 282.411243 
L 85.229828 283.63392 
L 85.555459 286.007351 
L 85.881091 283.561998 
L 86.206722 284.353142 
L 86.532353 284.137375 
L 86.857985 283.418154 
L 87.183616 284.209297 
L 87.509248 283.058543 
L 87.834879 286.510806 
L 88.160511 285.28813 
L 88.486142 282.914698 
L 88.811774 284.496986 
L 89.137405 284.065453 
L 89.463036 283.130465 
L 89.788668 285.144285 
L 90.114299 282.267399 
L 90.439931 283.202387 
L 90.765562 283.705842 
L 91.416825 282.123555 
L 91.742456 283.058543 
L 92.068088 283.058543 
L 92.393719 283.490076 
L 92.719351 284.137375 
L 93.044982 282.195477 
L 93.370614 283.63392 
L 93.696245 282.555088 
L 94.021877 281.97971 
L 94.673139 285.000441 
L 94.998771 282.123555 
L 95.324402 283.777764 
L 95.650034 283.490076 
L 95.975665 283.418154 
L 96.626928 284.64083 
L 97.278191 282.411243 
L 97.603822 282.698932 
L 97.929454 282.698932 
L 98.255085 282.483165 
L 98.580717 284.137375 
L 98.906348 282.698932 
L 99.23198 283.490076 
L 99.557611 282.986621 
L 99.883242 282.770854 
L 100.208874 284.64083 
L 100.534505 282.842776 
L 100.860137 283.561998 
L 101.185768 281.907788 
L 101.5114 283.418154 
L 101.837031 281.404333 
L 102.162663 282.411243 
L 102.488294 282.986621 
L 102.813925 282.483165 
L 103.139557 283.63392 
L 103.465188 282.555088 
L 104.116451 283.058543 
L 104.442083 282.267399 
L 104.767714 282.62701 
L 105.093345 281.97971 
L 105.418977 282.195477 
L 105.744608 285.575818 
L 106.07024 283.274309 
L 106.395871 282.267399 
L 107.047134 281.476255 
L 107.372766 279.390512 
L 108.024028 284.353142 
L 108.34966 283.274309 
L 108.675291 282.986621 
L 109.326554 283.993531 
L 109.652186 283.490076 
L 109.977817 282.051632 
L 110.303449 281.835866 
L 110.62908 283.777764 
L 110.954711 281.332411 
L 111.280343 282.411243 
L 111.605974 282.051632 
L 111.931606 282.339321 
L 112.257237 282.195477 
L 112.582869 282.62701 
L 112.9085 283.705842 
L 113.234131 282.986621 
L 113.559763 282.914698 
L 113.885394 281.97971 
L 114.211026 283.777764 
L 114.536657 282.051632 
L 114.862289 282.267399 
L 115.18792 282.914698 
L 115.513552 282.842776 
L 115.839183 282.267399 
L 116.164814 283.63392 
L 116.490446 282.914698 
L 116.816077 284.281219 
L 117.141709 283.418154 
L 117.46734 282.986621 
L 117.792972 283.346231 
L 118.118603 282.267399 
L 118.769866 281.332411 
L 119.095497 282.914698 
L 119.421129 282.986621 
L 119.74676 283.274309 
L 120.072392 281.763944 
L 120.723655 283.705842 
L 121.049286 283.705842 
L 121.374917 282.555088 
L 122.02618 284.425064 
L 122.351812 282.770854 
L 122.677443 283.561998 
L 123.003075 283.63392 
L 123.328706 282.770854 
L 123.654338 280.9728 
L 123.979969 282.555088 
L 124.3056 283.490076 
L 124.631232 282.62701 
L 124.956863 283.490076 
L 125.282495 283.418154 
L 125.608126 283.921609 
L 125.933758 283.202387 
L 126.259389 283.777764 
L 126.585021 282.842776 
L 126.910652 283.63392 
L 127.236283 281.907788 
L 127.561915 283.490076 
L 127.887546 283.921609 
L 128.538809 283.346231 
L 128.864441 282.555088 
L 129.190072 283.130465 
L 129.515703 282.914698 
L 129.841335 282.986621 
L 130.166966 283.418154 
L 130.818229 281.332411 
L 131.143861 283.849686 
L 131.469492 283.346231 
L 131.795124 283.202387 
L 132.120755 283.849686 
L 132.446386 279.462435 
L 132.772018 281.692022 
L 133.097649 283.058543 
L 133.423281 282.483165 
L 133.748912 283.705842 
L 134.074544 283.993531 
L 134.400175 283.777764 
L 134.725807 283.058543 
L 135.051438 283.705842 
L 135.377069 283.346231 
L 135.702701 284.496986 
L 136.028332 283.130465 
L 136.353964 284.281219 
L 136.679595 282.914698 
L 137.005227 283.777764 
L 137.330858 284.281219 
L 137.656489 281.97971 
L 137.982121 283.202387 
L 138.307752 281.476255 
L 138.633384 281.763944 
L 138.959015 282.483165 
L 139.284647 284.712752 
L 139.610278 279.102824 
L 139.93591 282.123555 
L 140.261541 283.777764 
L 140.587172 283.274309 
L 140.912804 283.561998 
L 141.238435 283.63392 
L 141.564067 282.051632 
L 141.889698 286.223118 
L 142.21533 284.065453 
L 142.540961 285.719663 
L 142.866593 284.353142 
L 143.192224 284.856597 
L 143.517855 283.777764 
L 143.843487 283.346231 
L 144.169118 282.411243 
L 144.820381 284.496986 
L 145.146013 284.928519 
L 145.471644 285.072363 
L 145.797275 282.842776 
L 146.122907 283.058543 
L 146.448538 282.411243 
L 146.77417 284.496986 
L 147.099801 282.698932 
L 147.425433 281.692022 
L 148.076696 286.366962 
L 148.402327 284.137375 
L 148.727958 283.921609 
L 149.05359 284.496986 
L 149.379221 284.137375 
L 149.704853 284.496986 
L 150.030484 283.921609 
L 150.356116 282.483165 
L 150.681747 283.418154 
L 151.007378 283.63392 
L 151.33301 285.216208 
L 151.658641 283.921609 
L 151.984273 283.63392 
L 152.309904 283.921609 
L 152.635536 283.561998 
L 152.961167 285.144285 
L 153.286799 285.575818 
L 153.61243 284.64083 
L 153.938061 282.555088 
L 154.263693 282.123555 
L 154.589324 284.64083 
L 154.914956 283.130465 
L 155.240587 285.575818 
L 155.566219 285.431974 
L 155.89185 285.719663 
L 156.217482 283.202387 
L 156.543113 285.360052 
L 156.868744 283.058543 
L 157.194376 284.353142 
L 157.520007 285.000441 
L 157.845639 283.777764 
L 158.17127 283.418154 
L 158.496902 283.921609 
L 158.822533 285.000441 
L 159.148164 284.353142 
L 159.473796 286.007351 
L 159.799427 286.151196 
L 160.45069 283.418154 
L 160.776322 285.575818 
L 161.101953 283.777764 
L 161.427585 285.360052 
L 161.753216 283.058543 
L 162.078847 282.698932 
L 162.404479 285.719663 
L 162.73011 283.705842 
L 163.055742 284.928519 
L 163.381373 283.274309 
L 163.707005 285.000441 
L 164.032636 283.130465 
L 164.358268 285.935429 
L 164.683899 286.870417 
L 165.00953 282.770854 
L 165.335162 286.582729 
L 165.660793 284.784675 
L 165.986425 286.007351 
L 166.312056 286.151196 
L 166.637688 286.510806 
L 166.963319 283.561998 
L 167.28895 285.719663 
L 167.940213 282.842776 
L 168.265845 286.366962 
L 168.591476 283.130465 
L 169.242739 284.425064 
L 169.568371 285.575818 
L 169.894002 285.863507 
L 170.219633 282.123555 
L 170.545265 286.366962 
L 170.870896 285.575818 
L 171.196528 284.353142 
L 171.522159 286.870417 
L 171.847791 284.425064 
L 172.499054 281.763944 
L 172.824685 285.28813 
L 173.150316 284.065453 
L 173.475948 284.496986 
L 173.801579 285.503896 
L 174.127211 285.863507 
L 174.452842 285.144285 
L 174.778474 285.072363 
L 175.104105 284.209297 
L 175.429736 287.014262 
L 175.755368 283.561998 
L 176.080999 285.072363 
L 176.732262 283.130465 
L 177.057894 284.64083 
L 177.383525 283.346231 
L 178.034788 284.856597 
L 178.360419 286.798495 
L 178.686051 285.431974 
L 179.011682 285.935429 
L 179.337314 285.647741 
L 179.662945 283.993531 
L 179.988577 284.64083 
L 180.314208 284.209297 
L 180.63984 284.856597 
L 180.965471 283.921609 
L 181.291102 285.360052 
L 181.616734 284.712752 
L 181.942365 283.777764 
L 182.267997 285.935429 
L 182.593628 283.63392 
L 182.91926 284.496986 
L 183.244891 284.568908 
L 183.570522 284.065453 
L 183.896154 284.353142 
L 184.221785 286.582729 
L 184.547417 284.065453 
L 184.873048 286.007351 
L 185.19868 285.144285 
L 185.524311 285.719663 
L 185.849943 283.849686 
L 186.175574 285.28813 
L 186.501205 284.425064 
L 186.826837 285.144285 
L 187.152468 284.568908 
L 187.4781 285.863507 
L 187.803731 283.058543 
L 188.129363 283.202387 
L 188.454994 285.935429 
L 188.780626 287.30195 
L 189.106257 285.072363 
L 189.431888 285.072363 
L 189.75752 283.490076 
L 190.083151 284.353142 
L 190.408783 284.712752 
L 190.734414 284.568908 
L 191.060046 282.123555 
L 191.385677 282.914698 
L 191.711308 285.863507 
L 192.03694 284.353142 
L 192.362571 284.496986 
L 192.688203 283.490076 
L 193.339466 286.079274 
L 193.665097 285.28813 
L 193.990729 285.503896 
L 194.31636 284.137375 
L 194.641991 285.791585 
L 194.967623 285.144285 
L 195.293254 285.503896 
L 195.618886 284.425064 
L 195.944517 283.849686 
L 196.270149 285.360052 
L 196.59578 284.281219 
L 196.921412 285.072363 
L 197.247043 283.63392 
L 197.572674 284.209297 
L 197.898306 283.921609 
L 198.223937 286.079274 
L 198.549569 284.856597 
L 198.8752 282.986621 
L 199.200832 285.647741 
L 199.526463 283.490076 
L 199.852094 284.425064 
L 200.177726 283.490076 
L 200.503357 285.647741 
L 200.828989 284.281219 
L 201.15462 285.575818 
L 201.480252 283.202387 
L 201.805883 284.281219 
L 202.131515 283.705842 
L 202.457146 281.548177 
L 202.782777 284.712752 
L 203.108409 285.216208 
L 203.43404 283.130465 
L 203.759672 283.346231 
L 204.085303 284.209297 
L 204.410935 283.130465 
L 204.736566 284.568908 
L 205.062198 283.346231 
L 205.387829 284.712752 
L 205.71346 283.921609 
L 206.039092 285.144285 
L 206.364723 283.418154 
L 206.690355 285.935429 
L 207.015986 284.281219 
L 207.341618 285.647741 
L 207.667249 283.130465 
L 207.99288 284.065453 
L 208.318512 282.842776 
L 208.644143 282.986621 
L 208.969775 284.928519 
L 209.295406 284.928519 
L 209.621038 283.777764 
L 209.946669 283.130465 
L 210.272301 282.842776 
L 210.597932 283.418154 
L 210.923563 283.490076 
L 211.249195 285.431974 
L 211.574826 282.842776 
L 211.900458 284.496986 
L 212.226089 284.137375 
L 212.551721 285.935429 
L 212.877352 284.64083 
L 213.202983 285.144285 
L 213.528615 285.000441 
L 213.854246 283.202387 
L 214.179878 284.856597 
L 214.505509 282.555088 
L 214.831141 286.007351 
L 215.156772 283.705842 
L 215.482404 284.64083 
L 215.808035 286.151196 
L 216.133666 283.777764 
L 216.459298 284.281219 
L 216.784929 283.63392 
L 217.436192 284.496986 
L 218.087455 285.935429 
L 218.413087 284.712752 
L 218.738718 284.496986 
L 219.064349 284.568908 
L 219.389981 284.137375 
L 220.041244 283.63392 
L 220.366875 285.000441 
L 220.692507 285.072363 
L 221.018138 283.705842 
L 221.343769 285.647741 
L 221.669401 285.431974 
L 221.995032 285.575818 
L 222.320664 283.921609 
L 222.646295 285.575818 
L 222.971927 286.151196 
L 223.297558 282.914698 
L 223.62319 285.863507 
L 223.948821 282.986621 
L 224.274452 283.490076 
L 224.600084 282.986621 
L 224.925715 283.921609 
L 225.251347 285.863507 
L 225.576978 283.490076 
L 225.90261 285.000441 
L 226.228241 284.784675 
L 226.553873 284.928519 
L 226.879504 286.079274 
L 227.205135 285.072363 
L 227.530767 285.719663 
L 227.856398 284.281219 
L 228.18203 285.072363 
L 228.833293 284.353142 
L 229.158924 284.784675 
L 229.810187 283.849686 
L 230.135818 284.496986 
L 230.46145 283.63392 
L 230.787081 284.856597 
L 231.112713 282.914698 
L 231.438344 285.863507 
L 231.763976 285.647741 
L 232.089607 285.000441 
L 232.415238 285.360052 
L 232.74087 285.360052 
L 233.066501 285.575818 
L 233.392133 284.64083 
L 233.717764 285.431974 
L 234.043396 283.63392 
L 234.369027 283.705842 
L 234.694659 284.928519 
L 235.02029 284.209297 
L 235.345921 283.777764 
L 235.671553 282.62701 
L 235.997184 284.64083 
L 236.322816 283.490076 
L 236.648447 283.274309 
L 236.974079 284.209297 
L 237.29971 284.209297 
L 237.625341 284.712752 
L 238.276604 283.777764 
L 238.602236 285.719663 
L 238.927867 284.209297 
L 239.253499 284.784675 
L 239.57913 284.137375 
L 239.904762 285.144285 
L 240.230393 283.490076 
L 240.556024 285.216208 
L 240.881656 284.928519 
L 241.207287 285.072363 
L 241.85855 283.561998 
L 242.184182 284.425064 
L 242.509813 284.137375 
L 242.835445 284.712752 
L 243.161076 286.582729 
L 243.486707 286.510806 
L 243.812339 284.281219 
L 244.13797 284.137375 
L 244.463602 286.079274 
L 244.789233 284.856597 
L 245.114865 284.784675 
L 245.440496 282.986621 
L 246.091759 285.863507 
L 246.41739 286.223118 
L 246.743022 286.007351 
L 247.068653 285.216208 
L 247.394285 286.007351 
L 247.719916 285.28813 
L 248.045548 284.065453 
L 248.371179 284.425064 
L 248.69681 284.496986 
L 249.022442 285.647741 
L 249.348073 282.62701 
L 249.673705 283.058543 
L 249.999336 285.935429 
L 250.324968 284.137375 
L 250.650599 283.993531 
L 250.976231 284.712752 
L 251.301862 286.654651 
L 251.627493 284.784675 
L 251.953125 285.503896 
L 252.278756 284.209297 
L 252.604388 285.647741 
L 252.930019 285.575818 
L 253.255651 285.144285 
L 253.581282 284.209297 
L 253.906913 285.935429 
L 254.232545 284.784675 
L 254.558176 284.281219 
L 254.883808 285.072363 
L 255.209439 285.072363 
L 255.535071 285.935429 
L 255.860702 286.007351 
L 256.186334 283.490076 
L 256.511965 284.137375 
L 256.837596 285.072363 
L 257.163228 284.281219 
L 257.488859 286.151196 
L 257.814491 285.216208 
L 258.140122 284.64083 
L 258.465754 286.151196 
L 258.791385 285.000441 
L 259.117017 286.582729 
L 259.768279 284.64083 
L 260.093911 286.079274 
L 260.419542 286.582729 
L 260.745174 284.496986 
L 261.070805 286.151196 
L 261.396437 285.431974 
L 261.722068 286.942339 
L 262.047699 284.065453 
L 262.373331 285.647741 
L 262.698962 282.339321 
L 263.024594 285.072363 
L 263.350225 285.144285 
L 263.675857 285.719663 
L 264.001488 285.360052 
L 264.32712 285.360052 
L 264.652751 287.30195 
L 264.978382 286.942339 
L 265.304014 286.366962 
L 265.955277 283.705842 
L 266.280908 284.496986 
L 266.60654 284.568908 
L 266.932171 284.137375 
L 267.257802 286.151196 
L 267.583434 283.993531 
L 267.909065 284.784675 
L 268.234697 286.510806 
L 268.560328 283.202387 
L 268.88596 285.431974 
L 269.211591 285.072363 
L 269.537223 286.29504 
L 269.862854 285.144285 
L 270.514117 284.425064 
L 271.16538 286.151196 
L 271.491011 284.209297 
L 271.816643 285.072363 
L 272.142274 284.928519 
L 272.467906 284.137375 
L 272.793537 285.431974 
L 273.119168 285.791585 
L 273.4448 286.654651 
L 273.770431 286.654651 
L 274.096063 285.935429 
L 274.421694 285.791585 
L 274.747326 287.373872 
L 275.072957 284.784675 
L 275.398588 284.712752 
L 275.72422 285.575818 
L 276.049851 285.431974 
L 276.375483 284.209297 
L 276.701114 285.431974 
L 277.026746 284.568908 
L 277.352377 286.29504 
L 277.678009 286.654651 
L 278.00364 285.503896 
L 278.329271 285.360052 
L 278.654903 285.072363 
L 278.980534 285.863507 
L 279.306166 284.928519 
L 279.631797 285.503896 
L 279.957429 285.360052 
L 280.28306 285.360052 
L 280.608692 286.654651 
L 280.934323 286.798495 
L 281.259954 285.000441 
L 281.585586 284.856597 
L 282.236849 283.849686 
L 282.56248 285.575818 
L 282.888112 284.137375 
L 283.539374 285.791585 
L 283.865006 283.418154 
L 284.190637 285.072363 
L 284.516269 285.000441 
L 284.8419 284.712752 
L 285.167532 284.856597 
L 285.493163 286.29504 
L 285.818795 285.360052 
L 286.144426 285.647741 
L 286.470057 286.798495 
L 287.12132 286.007351 
L 287.446952 284.64083 
L 287.772583 284.928519 
L 288.098215 285.791585 
L 288.423846 285.647741 
L 288.749478 284.856597 
L 289.075109 284.856597 
L 289.40074 285.719663 
L 289.726372 286.007351 
L 290.052003 284.856597 
L 290.377635 284.568908 
L 290.703266 285.935429 
L 291.028898 285.000441 
L 291.354529 286.654651 
L 291.68016 286.582729 
L 292.331423 284.856597 
L 292.657055 285.719663 
L 292.982686 284.712752 
L 293.308318 285.431974 
L 293.633949 283.490076 
L 294.285212 284.64083 
L 294.610843 286.079274 
L 294.936475 285.28813 
L 295.262106 285.719663 
L 295.587738 285.791585 
L 295.913369 285.719663 
L 296.239001 285.503896 
L 296.564632 285.647741 
L 296.890264 284.712752 
L 297.215895 285.072363 
L 297.541526 285.000441 
L 297.867158 284.137375 
L 298.192789 286.582729 
L 298.518421 285.647741 
L 298.844052 287.086184 
L 299.169684 286.29504 
L 299.495315 286.079274 
L 300.146578 284.496986 
L 300.472209 285.431974 
L 300.797841 285.000441 
L 301.123472 286.366962 
L 301.449104 285.000441 
L 301.774735 285.144285 
L 302.100367 285.000441 
L 302.425998 284.64083 
L 302.751629 285.935429 
L 303.077261 284.784675 
L 303.402892 286.079274 
L 303.728524 286.29504 
L 304.054155 285.000441 
L 304.379787 284.856597 
L 304.705418 287.086184 
L 305.03105 286.726573 
L 305.356681 285.719663 
L 305.682312 285.360052 
L 306.007944 284.784675 
L 306.333575 286.726573 
L 306.659207 286.007351 
L 306.984838 286.438884 
L 307.31047 285.935429 
L 307.961732 284.281219 
L 308.287364 286.007351 
L 308.612995 284.712752 
L 308.938627 284.928519 
L 309.264258 286.366962 
L 309.58989 285.216208 
L 309.915521 286.438884 
L 310.241153 284.784675 
L 310.892415 285.719663 
L 311.218047 285.216208 
L 311.543678 285.503896 
L 311.86931 286.29504 
L 312.194941 282.914698 
L 312.846204 286.151196 
L 313.171836 286.151196 
L 313.497467 285.575818 
L 313.823098 285.503896 
L 314.14873 283.561998 
L 314.474361 285.360052 
L 314.799993 285.791585 
L 315.125624 285.935429 
L 315.451256 285.144285 
L 315.776887 285.28813 
L 316.102518 286.223118 
L 316.42815 285.072363 
L 316.753781 285.431974 
L 317.079413 286.007351 
L 317.405044 287.661561 
L 317.730676 287.158106 
L 318.056307 285.28813 
L 318.381939 286.223118 
L 318.70757 286.438884 
L 319.033201 285.791585 
L 319.358833 284.712752 
L 320.010096 285.647741 
L 320.661359 285.431974 
L 320.98699 284.784675 
L 321.312622 285.360052 
L 321.638253 286.29504 
L 321.963884 283.346231 
L 322.289516 284.209297 
L 322.615147 284.065453 
L 322.940779 285.360052 
L 323.26641 284.568908 
L 323.592042 284.209297 
L 323.917673 284.568908 
L 324.243304 286.079274 
L 324.568936 286.223118 
L 324.894567 284.568908 
L 325.220199 286.654651 
L 325.54583 286.654651 
L 325.871462 285.791585 
L 326.197093 282.986621 
L 326.522725 285.072363 
L 326.848356 284.784675 
L 327.173987 284.065453 
L 327.499619 283.849686 
L 327.82525 286.582729 
L 328.150882 284.928519 
L 328.476513 286.151196 
L 328.802145 284.64083 
L 329.127776 286.079274 
L 329.453407 284.281219 
L 329.779039 284.496986 
L 330.10467 282.770854 
L 330.430302 285.935429 
L 330.755933 286.798495 
L 331.081565 284.712752 
L 331.407196 286.654651 
L 331.732828 285.503896 
L 332.058459 286.798495 
L 332.38409 285.503896 
L 332.709722 285.144285 
L 333.035353 282.986621 
L 333.360985 285.144285 
L 333.686616 284.281219 
L 334.012248 286.223118 
L 334.337879 285.000441 
L 334.663511 286.007351 
L 334.989142 284.496986 
L 335.314773 284.496986 
L 335.640405 286.726573 
L 335.966036 285.647741 
L 336.291668 284.065453 
L 336.617299 285.935429 
L 337.268562 284.209297 
L 337.594193 284.712752 
L 337.919825 284.137375 
L 338.245456 285.863507 
L 338.571088 286.223118 
L 338.896719 283.993531 
L 339.222351 285.647741 
L 339.547982 285.072363 
L 339.873614 284.784675 
L 340.199245 285.431974 
L 340.524876 285.072363 
L 340.850508 286.079274 
L 341.176139 286.654651 
L 341.501771 286.29504 
L 341.827402 283.418154 
L 342.153034 285.503896 
L 342.478665 283.705842 
L 342.804297 286.223118 
L 343.129928 286.223118 
L 343.455559 283.921609 
L 343.781191 285.503896 
L 344.106822 285.144285 
L 344.432454 284.065453 
L 345.083717 284.496986 
L 345.409348 285.791585 
L 345.734979 285.072363 
L 346.060611 283.921609 
L 346.386242 285.503896 
L 346.711874 284.856597 
L 347.037505 286.079274 
L 347.363137 286.798495 
L 347.688768 284.496986 
L 348.0144 285.647741 
L 348.340031 284.784675 
L 348.665662 285.431974 
L 348.991294 286.366962 
L 349.316925 285.503896 
L 349.642557 286.510806 
L 349.968188 283.921609 
L 350.29382 285.216208 
L 350.619451 284.281219 
L 350.945083 285.935429 
L 351.270714 286.079274 
L 351.596345 285.503896 
L 351.921977 285.719663 
L 352.57324 285.360052 
L 352.898871 286.007351 
L 353.224503 283.63392 
L 353.550134 286.870417 
L 353.875765 286.079274 
L 354.201397 286.438884 
L 354.527028 284.209297 
L 354.85266 285.000441 
L 355.178291 283.777764 
L 355.503923 286.654651 
L 355.829554 285.719663 
L 356.155186 285.360052 
L 356.480817 285.360052 
L 356.806448 285.144285 
L 357.13208 284.353142 
L 357.457711 283.993531 
L 357.783343 284.425064 
L 358.434606 286.726573 
L 358.760237 284.784675 
L 359.085869 284.856597 
L 359.4115 285.575818 
L 359.737131 286.007351 
L 360.062763 284.065453 
L 360.388394 284.784675 
L 360.714026 286.726573 
L 361.039657 285.719663 
L 362.016551 284.281219 
L 362.342183 285.647741 
L 362.667814 285.863507 
L 362.993446 283.921609 
L 363.319077 285.360052 
L 363.644709 285.072363 
L 363.97034 285.863507 
L 364.295972 284.065453 
L 364.621603 284.496986 
L 364.947234 285.935429 
L 365.272866 284.137375 
L 365.598497 286.726573 
L 365.924129 285.28813 
L 366.24976 286.223118 
L 366.575392 286.151196 
L 366.901023 282.914698 
L 367.226655 284.568908 
L 367.552286 285.647741 
L 367.877917 285.935429 
L 368.203549 285.719663 
L 368.52918 286.151196 
L 368.854812 284.137375 
L 369.506075 286.151196 
L 370.157337 285.216208 
L 370.482969 284.137375 
L 370.8086 283.63392 
L 371.134232 284.281219 
L 371.459863 285.719663 
L 371.785495 285.216208 
L 372.111126 286.510806 
L 372.436758 284.856597 
L 372.762389 286.079274 
L 373.08802 286.079274 
L 373.413652 284.928519 
L 373.739283 286.870417 
L 374.064915 285.28813 
L 374.390546 285.072363 
L 375.367441 286.510806 
L 375.693072 285.503896 
L 376.018703 287.158106 
L 376.344335 285.935429 
L 376.669966 283.490076 
L 376.995598 286.151196 
L 377.321229 285.935429 
L 377.646861 285.431974 
L 377.972492 285.935429 
L 378.298123 286.007351 
L 378.623755 284.281219 
L 378.949386 286.223118 
L 379.275018 286.007351 
L 379.600649 283.921609 
L 379.926281 284.928519 
L 380.251912 283.921609 
L 380.577544 286.366962 
L 380.903175 284.712752 
L 381.228806 285.863507 
L 381.554438 285.000441 
L 381.880069 286.007351 
L 382.205701 284.856597 
L 382.531332 285.647741 
L 382.856964 285.575818 
L 383.182595 286.29504 
L 383.833858 284.137375 
L 384.159489 284.209297 
L 384.485121 286.151196 
L 384.810752 285.935429 
L 385.136384 285.144285 
L 385.462015 285.503896 
L 385.787647 286.798495 
L 386.113278 286.007351 
L 386.438909 284.209297 
L 386.764541 286.151196 
L 387.090172 286.151196 
L 387.415804 285.863507 
L 387.741435 286.726573 
L 388.067067 286.079274 
L 388.392698 283.993531 
L 388.71833 285.791585 
L 389.043961 283.490076 
L 389.369592 285.791585 
L 389.695224 283.63392 
L 390.020855 283.849686 
L 390.346487 286.438884 
L 390.672118 286.582729 
L 390.99775 286.007351 
L 391.323381 286.654651 
L 391.974644 284.425064 
L 392.300275 284.496986 
L 392.625907 284.137375 
L 392.951538 285.28813 
L 393.27717 283.849686 
L 393.602801 285.216208 
L 393.928433 285.791585 
L 394.254064 286.007351 
L 394.579695 286.798495 
L 394.905327 285.072363 
L 395.230958 285.863507 
L 395.55659 285.935429 
L 395.882221 283.202387 
L 396.533484 286.726573 
L 396.859116 284.928519 
L 397.184747 286.29504 
L 397.510378 286.29504 
L 397.83601 285.072363 
L 398.161641 284.64083 
L 398.487273 282.62701 
L 398.487273 282.62701 
" style="fill:none;stroke:#1f77b4;stroke-linecap:square;stroke-width:1.5;"/>
   </g>
   <g id="patch_3">
    <path d="M 57.6 307.584 
L 57.6 41.472 
" style="fill:none;stroke:#000000;stroke-linecap:square;stroke-linejoin:miter;stroke-width:0.8;"/>
   </g>
   <g id="patch_4">
    <path d="M 414.72 307.584 
L 414.72 41.472 
" style="fill:none;stroke:#000000;stroke-linecap:square;stroke-linejoin:miter;stroke-width:0.8;"/>
   </g>
   <g id="patch_5">
    <path d="M 57.6 307.584 
L 414.72 307.584 
" style="fill:none;stroke:#000000;stroke-linecap:square;stroke-linejoin:miter;stroke-width:0.8;"/>
   </g>
   <g id="patch_6">
    <path d="M 57.6 41.472 
L 414.72 41.472 
" style="fill:none;stroke:#000000;stroke-linecap:square;stroke-linejoin:miter;stroke-width:0.8;"/>
   </g>
   <g id="text_17">
    <!-- Training - NSRA-ES - Slimevolley -->
    <g transform="translate(140.0925 35.472)scale(0.12 -0.12)">
     <defs>
      <path d="M 3513 2113 
L 3513 0 
L 2938 0 
L 2938 2094 
Q 2938 2591 2744 2837 
Q 2550 3084 2163 3084 
Q 1697 3084 1428 2787 
Q 1159 2491 1159 1978 
L 1159 0 
L 581 0 
L 581 3500 
L 1159 3500 
L 1159 2956 
Q 1366 3272 1645 3428 
Q 1925 3584 2291 3584 
Q 2894 3584 3203 3211 
Q 3513 2838 3513 2113 
z
" id="DejaVuSans-6e" transform="scale(0.015625)"/>
      <path d="M 2906 1791 
Q 2906 2416 2648 2759 
Q 2391 3103 1925 3103 
Q 1463 3103 1205 2759 
Q 947 2416 947 1791 
Q 947 1169 1205 825 
Q 1463 481 1925 481 
Q 2391 481 2648 825 
Q 2906 1169 2906 1791 
z
M 3481 434 
Q 3481 -459 3084 -895 
Q 2688 -1331 1869 -1331 
Q 1566 -1331 1297 -1286 
Q 1028 -1241 775 -1147 
L 775 -588 
Q 1028 -725 1275 -790 
Q 1522 -856 1778 -856 
Q 2344 -856 2625 -561 
Q 2906 -266 2906 331 
L 2906 616 
Q 2728 306 2450 153 
Q 2172 0 1784 0 
Q 1141 0 747 490 
Q 353 981 353 1791 
Q 353 2603 747 3093 
Q 1141 3584 1784 3584 
Q 2172 3584 2450 3431 
Q 2728 3278 2906 2969 
L 2906 3500 
L 3481 3500 
L 3481 434 
z
" id="DejaVuSans-67" transform="scale(0.015625)"/>
      <path id="DejaVuSans-20" transform="scale(0.015625)"/>
      <path d="M 313 2009 
L 1997 2009 
L 1997 1497 
L 313 1497 
L 313 2009 
z
" id="DejaVuSans-2d" transform="scale(0.015625)"/>
      <path d="M 628 4666 
L 1478 4666 
L 3547 763 
L 3547 4666 
L 4159 4666 
L 4159 0 
L 3309 0 
L 1241 3903 
L 1241 0 
L 628 0 
L 628 4666 
z
" id="DejaVuSans-4e" transform="scale(0.015625)"/>
      <path d="M 3425 4513 
L 3425 3897 
Q 3066 4069 2747 4153 
Q 2428 4238 2131 4238 
Q 1616 4238 1336 4038 
Q 1056 3838 1056 3469 
Q 1056 3159 1242 3001 
Q 1428 2844 1947 2747 
L 2328 2669 
Q 3034 2534 3370 2195 
Q 3706 1856 3706 1288 
Q 3706 609 3251 259 
Q 2797 -91 1919 -91 
Q 1588 -91 1214 -16 
Q 841 59 441 206 
L 441 856 
Q 825 641 1194 531 
Q 1563 422 1919 422 
Q 2459 422 2753 634 
Q 3047 847 3047 1241 
Q 3047 1584 2836 1778 
Q 2625 1972 2144 2069 
L 1759 2144 
Q 1053 2284 737 2584 
Q 422 2884 422 3419 
Q 422 4038 858 4394 
Q 1294 4750 2059 4750 
Q 2388 4750 2728 4690 
Q 3069 4631 3425 4513 
z
" id="DejaVuSans-53" transform="scale(0.015625)"/>
      <path d="M 2188 4044 
L 1331 1722 
L 3047 1722 
L 2188 4044 
z
M 1831 4666 
L 2547 4666 
L 4325 0 
L 3669 0 
L 3244 1197 
L 1141 1197 
L 716 0 
L 50 0 
L 1831 4666 
z
" id="DejaVuSans-41" transform="scale(0.015625)"/>
      <path d="M 628 4666 
L 3578 4666 
L 3578 4134 
L 1259 4134 
L 1259 2753 
L 3481 2753 
L 3481 2222 
L 1259 2222 
L 1259 531 
L 3634 531 
L 3634 0 
L 628 0 
L 628 4666 
z
" id="DejaVuSans-45" transform="scale(0.015625)"/>
      <path d="M 603 4863 
L 1178 4863 
L 1178 0 
L 603 0 
L 603 4863 
z
" id="DejaVuSans-6c" transform="scale(0.015625)"/>
      <path d="M 191 3500 
L 800 3500 
L 1894 563 
L 2988 3500 
L 3597 3500 
L 2284 0 
L 1503 0 
L 191 3500 
z
" id="DejaVuSans-76" transform="scale(0.015625)"/>
      <path d="M 1959 3097 
Q 1497 3097 1228 2736 
Q 959 2375 959 1747 
Q 959 1119 1226 758 
Q 1494 397 1959 397 
Q 2419 397 2687 759 
Q 2956 1122 2956 1747 
Q 2956 2369 2687 2733 
Q 2419 3097 1959 3097 
z
M 1959 3584 
Q 2709 3584 3137 3096 
Q 3566 2609 3566 1747 
Q 3566 888 3137 398 
Q 2709 -91 1959 -91 
Q 1206 -91 779 398 
Q 353 888 353 1747 
Q 353 2609 779 3096 
Q 1206 3584 1959 3584 
z
" id="DejaVuSans-6f" transform="scale(0.015625)"/>
      <path d="M 2059 -325 
Q 1816 -950 1584 -1140 
Q 1353 -1331 966 -1331 
L 506 -1331 
L 506 -850 
L 844 -850 
Q 1081 -850 1212 -737 
Q 1344 -625 1503 -206 
L 1606 56 
L 191 3500 
L 800 3500 
L 1894 763 
L 2988 3500 
L 3597 3500 
L 2059 -325 
z
" id="DejaVuSans-79" transform="scale(0.015625)"/>
     </defs>
     <use xlink:href="#DejaVuSans-54"/>
     <use x="46.333984" xlink:href="#DejaVuSans-72"/>
     <use x="87.447266" xlink:href="#DejaVuSans-61"/>
     <use x="148.726562" xlink:href="#DejaVuSans-69"/>
     <use x="176.509766" xlink:href="#DejaVuSans-6e"/>
     <use x="239.888672" xlink:href="#DejaVuSans-69"/>
     <use x="267.671875" xlink:href="#DejaVuSans-6e"/>
     <use x="331.050781" xlink:href="#DejaVuSans-67"/>
     <use x="394.527344" xlink:href="#DejaVuSans-20"/>
     <use x="426.314453" xlink:href="#DejaVuSans-2d"/>
     <use x="462.398438" xlink:href="#DejaVuSans-20"/>
     <use x="494.185547" xlink:href="#DejaVuSans-4e"/>
     <use x="568.990234" xlink:href="#DejaVuSans-53"/>
     <use x="632.466797" xlink:href="#DejaVuSans-52"/>
     <use x="697.949219" xlink:href="#DejaVuSans-41"/>
     <use x="764.107422" xlink:href="#DejaVuSans-2d"/>
     <use x="800.191406" xlink:href="#DejaVuSans-45"/>
     <use x="863.375" xlink:href="#DejaVuSans-53"/>
     <use x="926.851562" xlink:href="#DejaVuSans-20"/>
     <use x="958.638672" xlink:href="#DejaVuSans-2d"/>
     <use x="994.722656" xlink:href="#DejaVuSans-20"/>
     <use x="1026.509766" xlink:href="#DejaVuSans-53"/>
     <use x="1089.986328" xlink:href="#DejaVuSans-6c"/>
     <use x="1117.769531" xlink:href="#DejaVuSans-69"/>
     <use x="1145.552734" xlink:href="#DejaVuSans-6d"/>
     <use x="1242.964844" xlink:href="#DejaVuSans-65"/>
     <use x="1304.488281" xlink:href="#DejaVuSans-76"/>
     <use x="1363.667969" xlink:href="#DejaVuSans-6f"/>
     <use x="1424.849609" xlink:href="#DejaVuSans-6c"/>
     <use x="1452.632812" xlink:href="#DejaVuSans-6c"/>
     <use x="1480.416016" xlink:href="#DejaVuSans-65"/>
     <use x="1541.939453" xlink:href="#DejaVuSans-79"/>
    </g>
   </g>
  </g>
 </g>
 <defs>
  <clipPath id="p63536df989">
   <rect height="266.112" width="357.12" x="57.6" y="41.472"/>
  </clipPath>
 </defs>
</svg>
